<?xml version="1.0" encoding="UTF-8"?>
<!--
  - Copyright (c) 2023. Selldone® Business OS™
  -
  - Author: M.Pajuhaan
  - Web: https://selldone.com
  - ━━━━━━━━━━━━━━━━━━━━━━━━━━━━━━━━━━━━━━━━━━━━━━━━━━━━━━
  -
  - All rights reserved. In the weave of time, where traditions and innovations intermingle, this content was crafted.
  - From the essence of thought, through the corridors of creativity, each word, and sentiment has been molded.
  - Not just to exist, but to inspire. Like an artist's stroke or a sculptor's chisel, every nuance is deliberate.
  - Our journey is not just about reaching a destination, but about creating a masterpiece.
  - Tread carefully, for you're treading on dreams.
  -->

<!DOCTYPE svg PUBLIC "-//W3C//DTD SVG 1.1//EN" "http://www.w3.org/Graphics/SVG/1.1/DTD/svg11.dtd">
<!-- Creator: CorelDRAW 2019 (64-Bit) -->
<svg xmlns="http://www.w3.org/2000/svg" xml:space="preserve" width="464px" height="464px" version="1.1" style="shape-rendering:geometricPrecision; text-rendering:geometricPrecision; image-rendering:optimizeQuality; fill-rule:evenodd; clip-rule:evenodd"
viewBox="0 0 8.72 8.72"
 xmlns:xlink="http://www.w3.org/1999/xlink"
 xmlns:xodm="http://www.corel.com/coreldraw/odm/2003">
 <defs>
  <style type="text/css">
   <![CDATA[
    .fil0 {fill:#5EC9F1}
   ]]>
  </style>
 </defs>
 <g id="Layer_x0020_1">
  <metadata id="CorelCorpID_0Corel-Layer"/>
  <path class="fil0" d="M1.31 4.42c0,-0.09 0,-0.2 0.01,-0.28 0.01,-0.06 0.01,-0.12 0.02,-0.17 0.01,-0.11 0.03,-0.22 0.05,-0.32 0.11,-0.4 0.2,-0.6 0.4,-0.93 0.02,-0.03 0.05,-0.07 0.07,-0.11 0.12,-0.16 0.28,-0.37 0.44,-0.5l0.07 -0.07c0.2,-0.17 0.43,-0.31 0.66,-0.42 0.02,-0.02 0.04,-0.02 0.07,-0.03l0.41 -0.16 0.47 -0.09c0.11,-0.02 0.29,-0.03 0.42,-0.03 0.06,0 0.13,0 0.18,0.01 0.06,0.01 0.11,0.01 0.17,0.02 0.05,0 0.11,0.01 0.16,0.02 0.03,0.01 0.06,0.01 0.08,0.02 0.38,0.09 0.55,0.15 0.89,0.34 0.1,0.05 0.2,0.11 0.29,0.18l0.16 0.13c0.07,0.06 0.13,0.12 0.2,0.18 0.21,0.22 0.39,0.46 0.53,0.73 0.06,0.1 0.1,0.19 0.14,0.3l0.07 0.2c0.02,0.05 0.03,0.1 0.05,0.15 0.03,0.12 0.06,0.27 0.07,0.4 0.02,0.14 0.02,0.25 0.02,0.39 0,0.04 0.01,0.08 0,0.12 0,0.04 0,0.08 0,0.12 -0.03,0.17 -0.03,0.25 -0.07,0.43 -0.04,0.17 -0.08,0.32 -0.14,0.48l-0.25 0.5 -0.24 0.38c-0.1,0.14 -0.21,0.28 -0.33,0.41 -0.03,0.05 -0.09,0.09 -0.12,0.13 -0.06,0.08 -0.23,0.23 -0.31,0.31l-0.1 0.09c-0.01,0.01 -0.02,0.02 -0.03,0.03l-0.34 0.28c-0.05,0.03 -0.09,0.07 -0.14,0.1l-0.14 0.11c-0.2,0.14 -0.4,0.27 -0.6,0.39 -0.11,0.06 -0.21,0.13 -0.32,0.18l-0.16 0.09c-0.07,0.03 -0.27,0.14 -0.34,0.16 0,-0.28 0,-0.56 0,-0.84 0,-0.14 0,-0.21 -0.08,-0.34 -0.02,-0.04 -0.06,-0.08 -0.09,-0.12 -0.1,-0.09 -0.22,-0.13 -0.35,-0.18l-0.22 -0.09 -0.27 -0.15c-0.11,-0.07 -0.21,-0.14 -0.31,-0.22l-0.12 -0.1c-0.04,-0.03 -0.17,-0.16 -0.21,-0.2 -0.02,-0.03 -0.03,-0.04 -0.05,-0.06l-0.1 -0.12c-0.03,-0.03 -0.06,-0.07 -0.09,-0.11 -0.01,-0.03 -0.03,-0.04 -0.04,-0.07 -0.02,-0.02 -0.03,-0.03 -0.04,-0.06l-0.08 -0.13c-0.08,-0.13 -0.15,-0.27 -0.21,-0.42 -0.02,-0.06 -0.04,-0.1 -0.06,-0.16 -0.01,-0.03 -0.01,-0.05 -0.02,-0.08 -0.01,-0.01 -0.01,-0.03 -0.01,-0.04l-0.06 -0.21c-0.01,-0.06 -0.02,-0.12 -0.03,-0.18 -0.02,-0.12 -0.03,-0.27 -0.03,-0.39zm2.86 -4.42l0.32 0c0.17,0.01 0.34,0.02 0.47,0.04 0.08,0.01 0.15,0.02 0.22,0.03 0.08,0.02 0.15,0.03 0.22,0.05 0.12,0.03 0.24,0.06 0.35,0.1 0.02,0.01 0.03,0.01 0.05,0.02 0.16,0.05 0.31,0.12 0.46,0.19l0.17 0.09c0.08,0.04 0.16,0.09 0.24,0.14l0.24 0.16c0.02,0.01 0.05,0.03 0.07,0.05l0.29 0.23c0.04,0.04 0.08,0.08 0.13,0.13 0.01,0.01 0.02,0.01 0.03,0.03 0.01,0.01 0.02,0.02 0.04,0.03l0.18 0.2c0.07,0.07 0.18,0.21 0.23,0.29 0.01,0.01 0.02,0.02 0.03,0.04 0.14,0.18 0.26,0.39 0.36,0.6 0.21,0.4 0.38,0.93 0.42,1.39 0.01,0.03 0.02,0.07 0.02,0.11 0,0.03 0,0.09 0.01,0.15l0 0.59c-0.01,0.06 -0.01,0.12 -0.01,0.15 0,0.04 -0.01,0.08 -0.02,0.11 0,0.05 0,0.07 -0.01,0.12 -0.03,0.13 -0.05,0.28 -0.09,0.41l-0.04 0.15c0,0.02 0,0.03 -0.01,0.05 -0.03,0.09 -0.06,0.18 -0.1,0.27 -0.05,0.15 -0.12,0.3 -0.19,0.44 -0.07,0.13 -0.15,0.27 -0.23,0.39l-0.32 0.43c-0.04,0.05 -0.08,0.09 -0.11,0.14l-0.09 0.09c0,0 0,0 -0.01,0 -0.01,0.02 -0.01,0.02 -0.02,0.03l-0.06 0.06c0,0 -0.01,0 -0.01,0.01 -0.07,0.05 -0.13,0.12 -0.2,0.17l-0.13 0.12c-0.09,0.07 -0.17,0.12 -0.26,0.18l-0.35 0.22c-0.18,0.11 -0.39,0.19 -0.6,0.27l-0.18 0.06c-0.02,0.01 -0.03,0.01 -0.05,0.02 -0.02,0 -0.02,0.01 -0.04,0.01 -0.04,0.01 -0.07,0.02 -0.1,0.03l-0.11 0.02c-0.07,0.02 -0.13,0.03 -0.2,0.05l-0.32 0.05c-0.05,0 -0.08,0.01 -0.12,0.01l-0.75 0c-0.1,0 -0.5,-0.06 -0.62,-0.1l-0.25 -0.07c-0.06,-0.02 -0.13,-0.03 -0.2,-0.06l-0.18 -0.07c-0.16,-0.06 -0.3,-0.13 -0.44,-0.2 -0.18,-0.09 -0.39,-0.23 -0.55,-0.36 -0.05,-0.03 -0.1,-0.07 -0.15,-0.11l-0.13 -0.12c-0.03,-0.02 -0.05,-0.04 -0.07,-0.06 -0.03,-0.02 -0.05,-0.04 -0.07,-0.06 -0.13,-0.13 -0.26,-0.26 -0.37,-0.4 -0.06,-0.09 -0.13,-0.17 -0.19,-0.26 -0.01,-0.02 -0.02,-0.02 -0.02,-0.04l-0.15 -0.23c-0.09,-0.14 -0.15,-0.28 -0.22,-0.43 -0.01,-0.01 -0.01,-0.01 -0.01,-0.02l-0.03 -0.07c-0.05,-0.12 -0.1,-0.25 -0.14,-0.38 -0.06,-0.16 -0.09,-0.34 -0.13,-0.51 -0.02,-0.09 -0.05,-0.36 -0.06,-0.45 -0.01,-0.15 -0.01,-0.31 -0.01,-0.46 0,-0.12 0,-0.21 0.02,-0.32l0.02 -0.18c0.02,-0.14 0.04,-0.25 0.07,-0.39 0.03,-0.14 0.08,-0.28 0.12,-0.42 0.01,-0.02 0.01,-0.03 0.02,-0.05 0.06,-0.19 0.15,-0.37 0.24,-0.55 0.06,-0.12 0.13,-0.23 0.19,-0.34l0.17 -0.23c0.05,-0.07 0.18,-0.24 0.23,-0.3l0.13 -0.13c0.05,-0.06 0.11,-0.12 0.17,-0.17l0.17 -0.16c0.03,-0.02 0.05,-0.04 0.07,-0.06l0.23 -0.17c0.03,-0.02 0.05,-0.03 0.08,-0.05 0.14,-0.09 0.27,-0.18 0.42,-0.25l0.04 -0.02c0.07,-0.04 0.15,-0.08 0.23,-0.11l0.19 -0.08c0.08,-0.03 0.16,-0.05 0.24,-0.08 0.09,-0.03 0.22,-0.07 0.31,-0.09l0.28 -0.05c0.12,-0.03 0.23,-0.04 0.35,-0.05 0.06,0 0.12,-0.01 0.18,-0.01z"/>
 </g>
</svg>
