

<svg id="Layer_1" height="512" viewBox="0 0 128 128" width="512" xmlns="http://www.w3.org/2000/svg" data-name="Layer 1"><rect fill="#e1ebf0" height="115" rx="6" width="79.615" x="24.192" y="6.5"/><path d="m84.17 6.5-4.17 8.67h-32l-4.17-8.67z" fill="#c7cfd4"/><path d="m74.75 110.083h-21.5a1.75 1.75 0 0 1 0-3.5h21.5a1.75 1.75 0 0 1 0 3.5z" fill="#c7cfd4"/><path d="m72.113 61.125h-16.226a1.751 1.751 0 0 1 -1.75-1.75v-8.825a9.863 9.863 0 0 1 19.726 0v8.825a1.751 1.751 0 0 1 -1.75 1.75zm-14.476-3.5h12.726v-7.075a6.363 6.363 0 0 0 -12.726 0z" fill="#1eb298"/><path d="m85.375 85.563h-42.75l6.062-32.451h30.625z" fill="#23ceb0"/><path d="m74.035 75.63a1.75 1.75 0 0 1 -1.718-1.43l-1.729-9.254a1.75 1.75 0 1 1 3.44-.642l1.729 9.254a1.749 1.749 0 0 1 -1.4 2.041 1.689 1.689 0 0 1 -.322.031z" fill="#1eb298"/></svg>