<?xml version="1.0" encoding="iso-8859-1"?>
<!--
  - Copyright (c) 2023. Selldone® Business OS?
  -
  - Author: M.Pajuhaan
  - Web: https://selldone.com
  - ??????????????????????????????????????????????????????
  -
  - All rights reserved. In the weave of time, where traditions and innovations intermingle, this content was crafted.
  - From the essence of thought, through the corridors of creativity, each word, and sentiment has been molded.
  - Not just to exist, but to inspire. Like an artist's stroke or a sculptor's chisel, every nuance is deliberate.
  - Our journey is not just about reaching a destination, but about creating a masterpiece.
  - Tread carefully, for you're treading on dreams.
  -->

<!-- Generator: Adobe Illustrator 19.0.0, SVG Export Plug-In . SVG Version: 6.00 Build 0)  -->
<svg version="1.1" id="Capa_1" xmlns="http://www.w3.org/2000/svg" xmlns:xlink="http://www.w3.org/1999/xlink" x="0px" y="0px"
	 viewBox="0 0 512.003 512.003" style="enable-background:new 0 0 512.003 512.003;" xml:space="preserve">
<path style="fill:#009688;" d="M451.649,213.957l-234.667-85.333c-5.538-2.008-11.656,0.853-13.664,6.391
	c-0.891,2.457-0.849,5.155,0.118,7.582l42.667,106.667c1.089,2.72,3.249,4.873,5.973,5.952l68.736,27.221L125.377,391.023
	l52.821-52.821c2.007-2.001,3.135-4.718,3.136-7.552V53.317c-0.001-4.358-2.653-8.277-6.699-9.899L67.969,0.751
	c-3.288-1.297-7.003-0.898-9.941,1.067c-2.933,1.983-4.692,5.292-4.693,8.832v426.667c0,0.299,0.235,0.555,0.256,0.853
	c0.095,1.646,0.577,3.247,1.408,4.672c0.426,0.537,0.905,1.031,1.429,1.472c0.603,0.812,1.321,1.531,2.133,2.133l106.667,64
	c3.407,2.074,7.686,2.074,11.093,0l277.333-170.667c3.145-1.965,5.043-5.423,5.013-9.131V223.983
	C458.669,219.498,455.864,215.491,451.649,213.957z"/>
<g>
</g>
<g>
</g>
<g>
</g>
<g>
</g>
<g>
</g>
<g>
</g>
<g>
</g>
<g>
</g>
<g>
</g>
<g>
</g>
<g>
</g>
<g>
</g>
<g>
</g>
<g>
</g>
<g>
</g>
</svg>
