<?xml version="1.0" encoding="UTF-8"?>


<!DOCTYPE svg PUBLIC "-//W3C//DTD SVG 1.1//EN" "http://www.w3.org/Graphics/SVG/1.1/DTD/svg11.dtd">

<svg xmlns="http://www.w3.org/2000/svg" xml:space="preserve" width="542px" height="553px" version="1.1" style="shape-rendering:geometricPrecision; text-rendering:geometricPrecision; image-rendering:optimizeQuality; fill-rule:evenodd; clip-rule:evenodd"
viewBox="0 0 66.63 68.04"
 xmlns:xlink="http://www.w3.org/1999/xlink"
 xmlns:xodm="http://www.corel.com/coreldraw/odm/2003">
 <defs>
  <style type="text/css">
   <![CDATA[
    .fil0 {fill:none}
    .fil1 {fill:#096DA9}
    .fil2 {fill:#46BE5D}
   ]]>
  </style>
 </defs>
 <g id="Layer_x0020_1">
  <metadata id="CorelCorpID_0Corel-Layer"/>
  <polygon class="fil0" points="0,68.04 66.63,68.04 66.63,0 0,0 "/>
  <path class="fil1" d="M5.31 31.89c0.16,0.09 0.35,0.21 0.5,0.33l0.01 5.54c0.53,0.11 2.25,0.03 2.9,0.03 1.2,0 1.69,0.17 2.5,-0.5 0.95,-0.78 1.25,-1.96 0.38,-3 -0.21,-0.25 -0.72,-0.57 -0.79,-0.69 0.12,-0.29 0.9,-0.65 1.02,-1.66 0.09,-0.86 -0.32,-1.51 -0.88,-1.88 -0.73,-0.48 -1.4,-0.35 -2.35,-0.35 -0.87,0 -1.89,-0.05 -2.75,0.01 -0.14,0.53 -0.53,1.68 -0.54,2.17zm2.9 3.83c0.57,0.08 1.29,0.11 1.32,-0.57 0.02,-0.65 -0.68,-0.79 -1.32,-0.64l0 1.21zm-0.03 -2.74c0.62,0 1.33,0.09 1.32,-0.62 -0.01,-0.7 -0.67,-0.67 -1.3,-0.65l-0.02 1.27z"/>
  <path class="fil2" d="M33.66 32.12l0.57 0.26 0.03 5.55c0.89,0.02 1.77,0.01 2.63,0.01 1.1,0 1.32,-0.06 2.06,-0.55 2.21,-1.45 2.48,-5.42 -0.07,-6.9 -1.23,-0.71 -2.91,-0.75 -4.59,-0.63 -0.16,0.64 -0.6,1.86 -0.63,2.26zm2.99 3.32c1.86,0.08 1.6,-2 1.08,-2.73 -0.25,-0.35 -0.55,-0.48 -1.06,-0.45 -0.09,0.45 -0.06,2.64 -0.02,3.18z"/>
  <path class="fil2" d="M48.35 32.05c0.8,0.55 0.64,-0.18 0.64,2.45l0 3.09c0,0.61 0.13,0.43 1.3,0.42l1.08 0 0.03 -1.99c0.31,-0.01 0.35,0.38 0.59,0.88l0.56 1.08 2.72 0.01c-0.04,-0.44 -0.61,-1.25 -0.84,-1.69 -0.58,-1.12 -0.52,-0.59 0.12,-1.54 1.9,-2.82 -0.4,-4.88 -2.23,-4.88l-2.45 0c-0.59,0 -0.96,-0.1 -1.06,0.15 -0.07,0.17 -0.47,1.89 -0.46,2.02zm3.09 0.6l0.01 0.92c0.7,0.13 1.45,0.06 1.28,-0.79 -0.06,-0.28 -0.28,-0.46 -0.59,-0.49 -0.52,-0.05 -0.7,-0.1 -0.7,0.36z"/>
  <path class="fil2" d="M40.4 38l2.39 0.01 0.43 -1.11 2.19 -0.01c0.13,0.17 0.34,0.92 0.4,1.18l2.48 0.02c0.01,-0.31 -1.91,-7.29 -2.17,-8.09 -0.54,-0.12 -3.42,-0.06 -4.11,-0.03 -0.07,0.28 -0.57,1.8 -0.51,2 0.1,0.34 0.51,0.14 0.27,0.91 -0.1,0.31 -0.19,0.69 -0.28,1.05 -0.16,0.66 -1.1,3.63 -1.09,4.07zm3.32 -3.19l1.13 0.02c0.07,-0.29 -0.14,-0.87 -0.22,-1.17l-0.28 -0.96c-0.04,-0.08 -0.04,-0.07 -0.08,-0.12 -0.11,0.16 -0.13,0.36 -0.17,0.56 -0.05,0.22 -0.1,0.34 -0.15,0.54 -0.06,0.19 -0.24,0.99 -0.23,1.13z"/>
  <path class="fil1" d="M17.17 31.95l0.54 0.28c0.05,2.03 -0.35,4.25 1.44,5.35 1.95,1.2 4.95,0.07 4.98,-2.79l-0.01 -5.04 -2.29 -0.02 -0.01 4.65c-0.01,0.34 0,0.68 -0.14,0.93 -0.33,0.55 -1.04,0.56 -1.4,0.13 -0.27,-0.31 -0.2,-0.95 -0.2,-1.48l0 -3.57c0,-0.46 0.14,-0.66 -0.28,-0.67l-1.55 0c-0.4,0 -0.43,-0.08 -0.54,0.24 -0.06,0.19 -0.12,0.45 -0.18,0.66 -0.1,0.34 -0.33,0.98 -0.36,1.33z"/>
  <path class="fil1" d="M24.82 32.09c0.73,0.22 0.55,-0.13 0.55,2.41l0 3.3c0.85,0.09 3.03,0.03 4.02,0.03 0.64,0 0.52,0.2 0.78,-0.95 0.07,-0.3 0.28,-1.12 0.27,-1.4l-2.65 -0.02c-0.05,-1.11 -0.35,-0.82 2.01,-0.85l0.24 -0.01 0.45 -1.72 -2.66 -0.03 0 -0.81 2.32 -0.01 0.5 -2.22 -4.72 -0.01c-0.74,0 -0.56,-0.15 -0.83,0.9 -0.07,0.3 -0.31,1.1 -0.28,1.39z"/>
  <path class="fil2" d="M55.72 32.11l1.27 0.02 0.02 5.83 2.26 -0.01c0.02,-0.01 0.04,-0.01 0.06,-0.02 0.25,-0.67 -0.12,-5.43 0.09,-5.72 0.07,-0.08 -0.12,-0.1 0.58,-0.09 0.24,0.01 0.48,0 0.72,0 0.13,-0.36 0.5,-1.85 0.47,-2.27l-5 0c-0.14,0.63 -0.44,1.68 -0.47,2.26z"/>
  <polygon class="fil1" points="12.52,31.93 13,32.23 13.02,37.91 16.4,37.92 16.97,35.44 15.34,35.43 15.32,29.72 13.04,29.71 "/>
 </g>
</svg>
