<?xml version="1.0" encoding="iso-8859-1"?>
<!-- Generator: Adobe Illustrator 19.0.0, SVG Export Plug-In . SVG Version: 6.00 Build 0)  -->
<svg version="1.1" id="Capa_1" xmlns="http://www.w3.org/2000/svg" xmlns:xlink="http://www.w3.org/1999/xlink" x="0px" y="0px"
	 viewBox="0 0 512 512" style="enable-background:new 0 0 512 512;" xml:space="preserve">
<g>
	<path style="fill:#E85454;" d="M146.466,398.809h-24.79c-0.716,0-1.297-0.58-1.297-1.297V291.607c0-0.716,0.581-1.297,1.297-1.297
		h24.79c0.716,0,1.297,0.581,1.297,1.297v105.906C147.763,398.229,147.182,398.809,146.466,398.809z"/>
	<path style="fill:#E85454;" d="M368.534,319.261c0,0.958-1,1.59-1.86,1.167c-3.406-1.676-11.001-4.83-21.178-4.83
		c-17.694,0-29.975,12.329-29.975,28.948c0,16.124,11.747,28.96,29.975,28.96c10.068,0,17.741-3.125,21.184-4.795
		c0.858-0.416,1.854,0.216,1.854,1.17v26.012c0,0.579-0.382,1.087-0.939,1.246c-4.017,1.145-12.819,3.599-24.006,3.599
		c-30.803,0-57.833-21.232-57.833-56.192c0-32.407,24.459-56.165,57.833-56.165c11.623,0,20.526,2.561,24.028,3.615
		c0.548,0.165,0.917,0.668,0.917,1.24V319.261z"/>
	<path style="fill:#E85454;" d="M82.742,319.255c0,0.959-1.001,1.591-1.862,1.166c-3.399-1.678-10.976-4.823-21.139-4.823
		c-17.735,0-30.008,12.329-30.008,28.948c0,16.124,11.763,28.96,30.008,28.96c10.049,0,17.71-3.115,21.146-4.787
		c0.859-0.418,1.855,0.215,1.855,1.17v26.007c0,0.578-0.381,1.086-0.936,1.245c-3.987,1.146-12.786,3.597-24.03,3.597
		C26.998,400.738,0,379.506,0,344.547c0-32.407,24.456-56.165,57.776-56.165c11.659,0,20.56,2.559,24.051,3.614
		c0.547,0.166,0.916,0.668,0.916,1.24v26.019H82.742z"/>
	<path style="fill:#E85454;" d="M512,344.547c0,31.038-23.963,56.192-57.33,56.192c-33.37,0-57.303-25.154-57.303-56.192
		c0-30.993,23.933-56.165,57.303-56.165C488.036,288.381,512,313.553,512,344.547 M454.67,316.009
		c-16.243,0-28.307,12.78-28.307,28.538c0,15.791,12.064,28.56,28.307,28.56c16.224,0,28.322-12.769,28.322-28.56
		C482.991,328.789,470.894,316.009,454.67,316.009"/>
	<path style="fill:#E85454;" d="M251.6,313.284c0,0.846-0.791,1.465-1.611,1.258c-3.556-0.899-12.32-2.884-19.797-2.884
		c-10.974,0-16.932,3.675-16.932,8.896c0,6.608,8.043,8.903,12.553,10.329l7.549,2.407c17.774,5.65,25.867,17.821,25.867,31.038
		c0,27.254-23.965,36.411-44.919,36.411c-12.756,0-24.798-2.053-28.501-2.755c-0.611-0.116-1.052-0.651-1.052-1.273v-22.218
		c0-0.851,0.804-1.473,1.626-1.254c4.175,1.114,14.027,3.608,24.232,3.608c13.619,0,19.885-3.993,19.885-10.135
		c0-5.5-5.42-8.676-12.208-10.81c-1.663-0.552-4.152-1.332-5.849-1.884c-15.253-4.825-27.961-13.784-27.961-31.743
		c0-20.295,15.188-33.926,40.429-33.926c11.487,0,22.388,2.402,25.707,3.21c0.581,0.141,0.983,0.66,0.983,1.258L251.6,313.284
		L251.6,313.284z"/>
</g>
<g>
	<path style="fill:#D84848;" d="M144.247,397.513V291.607c0-0.716,0.581-1.297,1.297-1.297h-23.867
		c-0.716,0-1.296,0.581-1.296,1.297v105.906c0,0.716,0.581,1.297,1.296,1.297h23.867
		C144.827,398.809,144.247,398.229,144.247,397.513z"/>
	<path style="fill:#D84848;" d="M366.674,320.428c0.86,0.423,1.86-0.209,1.86-1.167v-3.645c-3.616,0.08-7,0.674-10.085,1.722
		C362.129,318.346,364.944,319.577,366.674,320.428z"/>
	<path style="fill:#D84848;" d="M309.623,344.547c0-28.592,19.045-50.44,46.447-55.191c-3.612-0.561-7.823-0.975-12.481-0.975
		c-33.374,0-57.833,23.758-57.833,56.165c0,34.96,27.031,56.192,57.833,56.192c4.624,0,8.831-0.422,12.47-0.994
		C330.282,395.178,309.623,375.109,309.623,344.547z"/>
	<path style="fill:#D84848;" d="M368.534,369.881c0-0.954-0.995-1.587-1.854-1.17c-1.745,0.846-4.58,2.066-8.259,3.063
		c3.071,1.042,6.459,1.634,10.113,1.714V369.881z"/>
	<path style="fill:#D84848;" d="M23.867,344.547c0-28.594,19.045-50.443,46.413-55.192c-3.615-0.56-7.833-0.974-12.505-0.974
		C24.456,288.381,0,312.139,0,344.547c0,34.96,26.998,56.192,57.776,56.192c4.64,0,8.855-0.42,12.496-0.991
		C44.51,395.187,23.867,375.116,23.867,344.547z"/>
	<path style="fill:#D84848;" d="M421.234,344.547c0-27.155,18.374-49.84,45.37-55.042c-3.816-0.735-7.802-1.124-11.934-1.124
		c-33.37,0-57.304,25.172-57.304,56.165c0,31.038,23.933,56.192,57.304,56.192c4.132,0,8.118-0.388,11.934-1.123
		C439.608,394.416,421.234,371.741,421.234,344.547z"/>
	<path style="fill:#D84848;" d="M249.989,314.542c0.82,0.207,1.611-0.412,1.611-1.258v-1.553c-3.106,0.17-5.742,0.663-7.875,1.425
		C246.357,313.661,248.583,314.186,249.989,314.542z"/>
</g>
<g>
	<path style="fill:#777777;" d="M22.291,194.962c0-6.136-5.002-11.109-11.144-11.109C5.013,183.852,0,188.826,0,194.962v23.349
		c0,6.168,5.013,11.141,11.147,11.141c6.141,0,11.144-4.973,11.144-11.141V194.962z"/>
	<path style="fill:#777777;" d="M83.514,164.306c0-6.131-5.005-11.114-11.144-11.114c-6.141,0-11.147,4.983-11.147,11.114v54.004
		c0,6.168,5.007,11.141,11.147,11.141c6.139,0,11.144-4.973,11.144-11.141V164.306z"/>
	<path style="fill:#777777;" d="M144.738,122.366c0-6.13-5.009-11.105-11.148-11.105c-6.138,0-11.147,4.975-11.147,11.105v118.14
		c0,6.163,5.009,11.141,11.147,11.141c6.139,0,11.148-4.977,11.148-11.141V122.366z"/>
</g>
<g>
	<path style="fill:#646566;" d="M12.535,218.311v-23.349c0-3.816,1.94-7.179,4.881-9.18c-1.788-1.216-3.946-1.93-6.268-1.93
		C5.013,183.852,0,188.826,0,194.962v23.349c0,6.168,5.013,11.141,11.148,11.141c2.323,0,4.481-0.713,6.268-1.931
		C14.475,225.518,12.535,222.146,12.535,218.311z"/>
	<path style="fill:#646566;" d="M73.757,218.311v-54.004c0-3.813,1.938-7.18,4.879-9.182c-1.788-1.217-3.945-1.932-6.266-1.932
		c-6.141,0-11.148,4.983-11.148,11.114v54.004c0,6.168,5.007,11.141,11.148,11.141c2.321,0,4.479-0.713,6.266-1.931
		C75.695,225.518,73.757,222.146,73.757,218.311z"/>
	<path style="fill:#646566;" d="M134.977,240.506v-118.14c0-3.812,1.939-7.176,4.881-9.176c-1.789-1.216-3.947-1.929-6.268-1.929
		c-6.138,0-11.148,4.975-11.148,11.105v118.14c0,6.163,5.009,11.141,11.148,11.141c2.321,0,4.479-0.713,6.268-1.931
		C136.916,247.712,134.977,244.339,134.977,240.506z"/>
</g>
<path style="fill:#777777;" d="M267.147,194.962c0-6.136-5.002-11.109-11.144-11.109c-6.134,0-11.147,4.973-11.147,11.109v23.349
	c0,6.168,5.013,11.141,11.147,11.141c6.141,0,11.144-4.973,11.144-11.141V194.962z"/>
<path style="fill:#646566;" d="M257.39,218.311v-23.349c0-3.816,1.94-7.179,4.881-9.18c-1.788-1.216-3.946-1.93-6.268-1.93
	c-6.134,0-11.148,4.973-11.148,11.109v23.349c0,6.168,5.013,11.141,11.148,11.141c2.323,0,4.481-0.713,6.268-1.931
	C259.33,225.518,257.39,222.146,257.39,218.311z"/>
<path style="fill:#777777;" d="M205.943,164.306c0-6.131-5.005-11.114-11.144-11.114c-6.141,0-11.147,4.983-11.147,11.114v54.004
	c0,6.168,5.007,11.141,11.147,11.141c6.139,0,11.144-4.973,11.144-11.141V164.306z"/>
<path style="fill:#646566;" d="M196.186,218.311v-54.004c0-3.813,1.938-7.18,4.879-9.182c-1.788-1.217-3.945-1.932-6.266-1.932
	c-6.141,0-11.148,4.983-11.148,11.114v54.004c0,6.168,5.007,11.141,11.148,11.141c2.321,0,4.479-0.713,6.266-1.931
	C198.124,225.518,196.186,222.146,196.186,218.311z"/>
<g>
	<path style="fill:#777777;" d="M328.351,164.306c0-6.131-5.005-11.114-11.144-11.114c-6.141,0-11.147,4.983-11.147,11.114v54.004
		c0,6.168,5.007,11.141,11.147,11.141c6.139,0,11.144-4.973,11.144-11.141V164.306z"/>
	<path style="fill:#777777;" d="M389.575,122.366c0-6.13-5.009-11.105-11.148-11.105c-6.138,0-11.147,4.975-11.147,11.105v118.14
		c0,6.163,5.009,11.141,11.147,11.141c6.139,0,11.148-4.977,11.148-11.141V122.366z"/>
</g>
<g>
	<path style="fill:#646566;" d="M318.594,218.311v-54.004c0-3.813,1.938-7.18,4.879-9.182c-1.788-1.217-3.945-1.932-6.266-1.932
		c-6.141,0-11.148,4.983-11.148,11.114v54.004c0,6.168,5.007,11.141,11.148,11.141c2.321,0,4.479-0.713,6.266-1.931
		C320.532,225.518,318.594,222.146,318.594,218.311z"/>
	<path style="fill:#646566;" d="M379.814,240.506v-118.14c0-3.812,1.939-7.176,4.881-9.176c-1.789-1.216-3.947-1.929-6.268-1.929
		c-6.138,0-11.148,4.975-11.148,11.105v118.14c0,6.163,5.009,11.141,11.148,11.141c2.321,0,4.479-0.713,6.268-1.931
		C381.753,247.712,379.814,244.339,379.814,240.506z"/>
</g>
<path style="fill:#777777;" d="M511.983,194.962c0-6.136-5.002-11.109-11.144-11.109c-6.134,0-11.147,4.973-11.147,11.109v23.349
	c0,6.168,5.013,11.141,11.147,11.141c6.141,0,11.144-4.973,11.144-11.141V194.962z"/>
<path style="fill:#646566;" d="M502.227,218.311v-23.349c0-3.816,1.94-7.179,4.881-9.18c-1.788-1.216-3.946-1.93-6.268-1.93
	c-6.134,0-11.148,4.973-11.148,11.109v23.349c0,6.168,5.013,11.141,11.148,11.141c2.323,0,4.481-0.713,6.268-1.931
	C504.167,225.518,502.227,222.146,502.227,218.311z"/>
<path style="fill:#777777;" d="M450.779,164.306c0-6.131-5.005-11.114-11.144-11.114c-6.141,0-11.147,4.983-11.147,11.114v54.004
	c0,6.168,5.007,11.141,11.147,11.141c6.139,0,11.144-4.973,11.144-11.141V164.306z"/>
<path style="fill:#646566;" d="M441.023,218.311v-54.004c0-3.813,1.938-7.18,4.879-9.182c-1.788-1.217-3.945-1.932-6.266-1.932
	c-6.141,0-11.148,4.983-11.148,11.114v54.004c0,6.168,5.007,11.141,11.148,11.141c2.321,0,4.479-0.713,6.266-1.931
	C442.961,225.518,441.023,222.146,441.023,218.311z"/>
<g>
	<path style="fill:#D84848;" d="M223.063,357.717c-29.432-27.838-9.364-53.98-9.364-53.98l0.001,0.001
		c4.992-7.385,13.322-12.502,24.357-14.478c-3.984-0.52-8.513-0.913-13.148-0.913c-25.241,0-40.429,13.631-40.429,33.926
		c0,17.959,12.708,26.919,27.961,31.743c1.697,0.552,4.186,1.332,5.849,1.884C219.988,356.435,221.6,357.034,223.063,357.717z"/>
	<path style="fill:#D84848;" d="M208.624,376.814c-9.475-0.289-18.339-2.535-22.241-3.576c-0.822-0.219-1.626,0.403-1.626,1.254
		v22.218c0,0.622,0.441,1.158,1.052,1.273c3.192,0.605,12.585,2.211,23.286,2.644C206.182,389.307,208.624,376.814,208.624,376.814z
		"/>
</g>
<g>
</g>
<g>
</g>
<g>
</g>
<g>
</g>
<g>
</g>
<g>
</g>
<g>
</g>
<g>
</g>
<g>
</g>
<g>
</g>
<g>
</g>
<g>
</g>
<g>
</g>
<g>
</g>
<g>
</g>
</svg>
