<?xml version="1.0" encoding="iso-8859-1"?>
<!-- Generator: Adobe Illustrator 19.0.0, SVG Export Plug-In . SVG Version: 6.00 Build 0)  -->
<svg version="1.1" id="Capa_1" xmlns="http://www.w3.org/2000/svg" xmlns:xlink="http://www.w3.org/1999/xlink" x="0px" y="0px"
	 viewBox="0 0 512.053 512.053" style="enable-background:new 0 0 512.053 512.053;" xml:space="preserve">
<path style="fill:#FFC107;" d="M139.145,391.937c-0.419-0.647-0.905-1.248-1.451-1.792l-15.787-15.765
	c-0.547-0.536-1.148-1.015-1.792-1.429c-25.449-16.08-58.616-12.547-80.107,8.533C17.631,404.054,1.908,489.814,0.201,499.521
	c-1.025,5.801,2.847,11.335,8.648,12.36c0.61,0.108,1.228,0.162,1.848,0.163c0.622-0.006,1.243-0.063,1.856-0.171
	c9.707-1.707,95.445-17.429,118.144-39.915C151.698,450.456,155.193,417.35,139.145,391.937z"/>
<g>
	<path style="fill:#CFD8DC;" d="M268.66,325.483c-1.952-5.558-8.04-8.482-13.598-6.53c-0.518,0.182-1.022,0.404-1.506,0.663
		l-82.56,44.16c-5.2,2.768-7.172,9.227-4.404,14.428c0.091,0.171,0.187,0.34,0.287,0.506c22.258,37.143,16.316,84.678-14.4,115.2
		c-4.124,4.207-4.056,10.96,0.151,15.084c1.978,1.939,4.632,3.032,7.401,3.049h0.64c36.039,0.48,69.952-17.012,90.453-46.656
		C278.566,424.076,285.057,372.29,268.66,325.483z"/>
	<path style="fill:#CFD8DC;" d="M192.564,250.241c-1.13-2.896-3.467-5.156-6.4-6.187c-46.728-16.292-98.392-9.729-139.563,17.728
		C17.035,282.254-0.42,316.084,0.031,352.043c-0.011,5.891,4.757,10.675,10.648,10.686c2.84,0.005,5.565-1.123,7.571-3.134
		c30.359-31.05,78.141-37.014,115.2-14.379c2.505,1.491,5.512,1.892,8.32,1.109c2.809-0.781,5.175-2.677,6.549-5.248l43.712-81.92
		C193.505,256.407,193.699,253.148,192.564,250.241z"/>
</g>
<path style="fill:#F44336;" d="M508.916,3.158c-1.839-2.235-4.672-3.403-7.552-3.115c-5.461,0-134.144,1.813-178.112,45.781
	c-47.573,47.573-139.136,186.752-149.909,203.264L86.729,410.987c-2.786,5.191-0.836,11.657,4.355,14.443
	c3.15,1.691,6.938,1.691,10.088,0l163.371-87.467c15.68-10.261,154.603-101.781,201.792-148.992
	c43.861-44.032,45.696-172.693,45.696-178.261C512.036,7.879,510.915,5.162,508.916,3.158z"/>
<circle style="fill:#FAFAFA;" cx="352.031" cy="160.043" r="53.333"/>
<g>
</g>
<g>
</g>
<g>
</g>
<g>
</g>
<g>
</g>
<g>
</g>
<g>
</g>
<g>
</g>
<g>
</g>
<g>
</g>
<g>
</g>
<g>
</g>
<g>
</g>
<g>
</g>
<g>
</g>
</svg>
