<?xml version="1.0" encoding="UTF-8"?>
<!--
  - Copyright (c) 2023. Selldone® Business OS™
  -
  - Author: M.Pajuhaan
  - Web: https://selldone.com
  - ━━━━━━━━━━━━━━━━━━━━━━━━━━━━━━━━━━━━━━━━━━━━━━━━━━━━━━
  -
  - All rights reserved. In the weave of time, where traditions and innovations intermingle, this content was crafted.
  - From the essence of thought, through the corridors of creativity, each word, and sentiment has been molded.
  - Not just to exist, but to inspire. Like an artist's stroke or a sculptor's chisel, every nuance is deliberate.
  - Our journey is not just about reaching a destination, but about creating a masterpiece.
  - Tread carefully, for you're treading on dreams.
  -->

<!DOCTYPE svg PUBLIC "-//W3C//DTD SVG 1.1//EN" "http://www.w3.org/Graphics/SVG/1.1/DTD/svg11.dtd">
<!-- Creator: CorelDRAW 2019 (64-Bit) -->
<svg xmlns="http://www.w3.org/2000/svg" xml:space="preserve" width="550px" height="550px" version="1.1" style="shape-rendering:geometricPrecision; text-rendering:geometricPrecision; image-rendering:optimizeQuality; fill-rule:evenodd; clip-rule:evenodd"
viewBox="0 0 97.74 97.74"
 xmlns:xlink="http://www.w3.org/1999/xlink"
 xmlns:xodm="http://www.corel.com/coreldraw/odm/2003">
 <defs>
  <style type="text/css">
   <![CDATA[
    .fil0 {fill:none}
    .fil2 {fill:#D40511}
    .fil1 {fill:#FFCC00}
   ]]>
  </style>
 </defs>
 <g id="Layer_x0020_1">
  <metadata id="CorelCorpID_0Corel-Layer"/>
  <polygon class="fil0" points="0,97.74 97.74,97.74 97.74,0 0,0 "/>
  <rect class="fil1" x="6.66" y="6.66" width="84.41" height="84.41" rx="3.55" ry="3.55"/>
  <g id="_2348457184192">
   <path class="fil2" d="M64.02 43.62l-6.96 0 -2.33 3.14c-0.13,0.18 -0.17,0.29 -0.39,0.4l-2.94 -0.01c0.18,-0.45 2.18,-2.82 2.59,-3.53l-6.97 0 -4.61 6.21 17.01 0c0.29,-0.54 4.42,-5.84 4.6,-6.21z"/>
   <path class="fil2" d="M39.09 43.62l-14.77 0c-0.14,0.27 -0.4,0.57 -0.59,0.82 -0.33,0.44 -1.69,2.2 -1.76,2.41l12.01 0c2.05,0 2.18,-0.25 0.4,2.1 -0.16,0.21 -0.4,0.41 -0.29,0.71 0.41,0.35 5.03,0.17 5.98,0.17 0.18,-0.04 1.07,-1.33 1.25,-1.56 0.42,-0.56 0.9,-1.01 0.8,-2.03 -0.21,-2.2 -2.71,-2.46 -3.03,-2.62z"/>
   <path class="fil2" d="M20.98 54.12l12.79 0c0.43,-0.21 2.5,-0.17 4.72,-2.28 0.28,-0.27 0.85,-0.86 1.07,-1.24 -1.49,-0.03 -3,0 -4.49,0 -5.05,0 -4.78,0.32 -3.47,-1.49 0.27,-0.38 0.95,-1.1 0.74,-1.35 -0.41,-0.28 -5.46,-0.12 -6.42,-0.12 -0.23,0.07 -0.06,-0.04 -0.24,0.16l-4.1 5.5c-0.19,0.24 -0.46,0.56 -0.6,0.82z"/>
   <path class="fil2" d="M62.11 54.12l12.12 0 1.97 -2.66c0.18,-0.25 0.47,-0.59 0.62,-0.86l-15.69 0c-0.01,0 -2.38,2.06 -0.31,3.12 0.39,0.21 0.95,0.23 1.29,0.4z"/>
   <path class="fil2" d="M73.63 43.62l-7.38 0 -4.61 6.19 7.39 0.02c0.15,-0.25 0.37,-0.52 0.55,-0.77l1.73 -2.3c0.52,-0.7 1.95,-2.54 2.32,-3.14z"/>
   <path class="fil2" d="M49.24 54.12l6.97 0 2.59 -3.52 -6.97 0c-0.23,0.45 -2.35,3.06 -2.59,3.52z"/>
   <path class="fil2" d="M39.2 54.12l6.97 0c0.15,-0.27 0.43,-0.61 0.63,-0.88l1.32 -1.76c0.19,-0.25 0.5,-0.62 0.64,-0.88l-6.97 0c-0.12,0.26 -2.25,2.98 -2.59,3.52z"/>
   <path class="fil2" d="M11.06 51.37l10.74 -0.02c0.15,-0.2 0.44,-0.56 0.52,-0.75l-11.26 0 0 0.77z"/>
   <path class="fil2" d="M75.47 54.12l11.2 0 0 -0.74 -10.65 0.01c-0.14,0.12 -0.48,0.58 -0.55,0.73z"/>
   <path class="fil2" d="M11.06 52.76l9.61 0 0.06 0c0.15,-0.19 0.42,-0.52 0.58,-0.77l-10.25 0 0 0.77z"/>
   <path class="fil2" d="M86.67 52.76l0 -0.77 -9.54 0c-0.22,0.1 -0.24,0.19 -0.36,0.36 -0.11,0.14 -0.2,0.24 -0.25,0.41l10.15 0z"/>
   <path class="fil2" d="M86.67 51.37l0 -0.77 -8.51 0c-0.17,0.08 -0.54,0.61 -0.63,0.76l9.14 0.01z"/>
   <path class="fil2" d="M11.06 54.12l8.68 0c0.15,-0.28 0.36,-0.52 0.5,-0.74l-9.18 0 0 0.74z"/>
  </g>
 </g>
</svg>
