<!--
  - Copyright (c) 2023. Selldone® Business OS™
  -
  - Author: M.Pajuhaan
  - Web: https://selldone.com
  - ━━━━━━━━━━━━━━━━━━━━━━━━━━━━━━━━━━━━━━━━━━━━━━━━━━━━━━
  -
  - All rights reserved. In the weave of time, where traditions and innovations intermingle, this content was crafted.
  - From the essence of thought, through the corridors of creativity, each word, and sentiment has been molded.
  - Not just to exist, but to inspire. Like an artist's stroke or a sculptor's chisel, every nuance is deliberate.
  - Our journey is not just about reaching a destination, but about creating a masterpiece.
  - Tread carefully, for you're treading on dreams.
  -->

<svg clip-rule="evenodd" fill-rule="evenodd" stroke-miterlimit="10" viewBox="0 0 560 400" xmlns="http://www.w3.org/2000/svg"><g fill-rule="nonzero" transform="matrix(.636492 0 0 .636492 -15.3423 17.645)"><path d="m312.7 352.3c12.7.2 24.2-.5 30.4-1.5 10.9-1.5 19.5-6.9 22.7-16.5v16h34.9v-134.5h-34.9v57c-3.2-9.7-11.9-15.9-22.7-17.4-6.2-1-30.4-1.2-30.4-1.2-9.9-.3-15.2.8-19.4 2.2-8.5 2.5-15.7 7.9-19 17.2-1.8 4.4-3 12.4-3 21.1v17c0 9.2 1.2 16.9 3 21 3.3 9.4 10.5 14.9 19 17.4 4.2 1.2 9.5 2.2 19.4 2.2zm54-50.4c0 3.7-.3 9.4-.3 9.4 0 6-3.3 13.2-12.4 13.2 0 0-10.5.5-17.5.5-7.4 0-18.9-.5-18.9-.5-9 0-12.4-7.2-12.4-13.2 0 0-.3-5.2-.3-8.7 0-3.3.3-8.5.3-8.5 0-6 3.3-13.2 12.4-13.2 0 0 12-.5 19.7-.5 6.7 0 16.7.5 16.7.5 9 0 12.4 7.2 12.4 13.2-.1-.1.2 4.8.3 7.8zm182.7 9.8v-17c0-8.7-1.2-16.7-2.8-21.1-3.5-9.4-10.7-14.7-19.1-17.2-4.2-1.3-9.7-2.2-19.5-2.2h-47.5c-9.9 0-15.4.8-19.5 2.2-8.4 2.5-15.5 7.9-19 17.2-1.7 4.4-3 11.9-3 21.1v17c0 8.7 1.3 16.9 3 21 3.5 9.4 10.7 14.9 19 17.4 4.2 1.2 9.7 2.2 19.5 2.2h47.4c9.9 0 15.4-1 19.5-2.2 8.4-2.5 15.5-8 19.1-17.4 1.7-4.1 2.8-12.1 2.9-21zm-75-31.4h19.6c7.7 0 10.9 1 12.9 2 5.2 2.7 6.7 7.5 7.2 12.7.7 7.5 1.5 21.4-5.5 27.1-1.7 1.5-6.4 3-12.9 3.3h-23.2c-6.2 0-11-1.8-12.9-3.3-6.9-5.7-6.2-19.5-5.4-27.1.5-5.2 2-10 7.2-12.7 2.1-1 5.2-2 13-2zm151.1 70.5c6.2 1 17.9 1.7 30.4 1.5 10 0 15.4-1 19.5-2.2 8.5-2.5 15.5-8 19-17.4 1.8-4.2 3-11.9 3-21v-17c0-8.7-1.2-16.7-3-21.1-3.5-9.4-10.5-14.7-19-17.2-4.2-1.3-9.5-2.5-19.5-2.2 0 0-24.2.2-30.4 1.2-10.9 1.5-19.4 7.7-22.7 17.4v-57h-34.8v134.5h34.8v-16c3.2 9.7 11.7 15 22.7 16.5zm-23.3-39.6s-.2-5.7-.2-9.4c0-3 .2-7.9.2-7.9 0-6 3.5-13.2 12.4-13.2 0 0 10.2-.5 16.9-.5 7.7 0 19.7.5 19.7.5 9 0 12.4 7.2 12.4 13.2 0 0 .3 5.2.3 8.5 0 3.5-.3 8.7-.3 8.7 0 6-3.3 13.2-12.4 13.2 0 0-11.5.5-19 .5-6.8 0-17.5-.5-17.5-.5-9 .1-12.5-7.1-12.5-13.1zm235.3 39.1v-52.5c0-11.9 1-24.4-8.2-33.8-10.5-11.2-26.4-9.9-36.3-9.9h-39.8c-21 0-34.9 3.2-36.4 29.1h34.1c.3-1.5.3-4.2 3.5-6.3.7-.5 3.5-1 6-1h24.6c4.5 0 8.7-.5 12.2 1.7 5.7 3.2 5 10.9 5 19.2-14.7-9.4-50-7.9-64.3-5.9-9.2 1.2-17.9 3.7-22.2 13.4-3.5 7.7-3.2 28.4 2 36.1 7.2 10.9 22.7 9.9 32.6 9.9h26.7c11 0 16.5-1 26.9-10.9v10.9zm-50.5-20.7h-23.4c-2.7 0-5.5-.1-8.2-.5-3.2-.8-6-1.8-7.3-6.5-1-3.7.3-7.7 3.3-10 1.8-1.3 6.5-2 12.7-2h22.4c6.2 0 10.9.7 12.7 2 3.1 2.3 4.5 6.3 3.5 10-1.5 4.7-4.3 5.7-7.5 6.5-2.7.4-5.5.5-8.2.5z" fill="#404041"/><path d="m205.3 216h-89.3c-14.1.1-25.6 11.6-25.5 25.7v89.7c-.1 14.1 11.3 25.7 25.4 25.8h89.5c14.1-.1 25.5-11.6 25.5-25.8v-89.6c0-14.2-11.4-25.7-25.6-25.8z" fill="#404041"/><path d="m160.6 335.5c27 .2 49-21.6 49.2-48.6s-21.6-49-48.6-49.2-49 21.6-49.2 48.6v.3c0 26.9 21.7 48.8 48.6 48.9z" fill="#8cc540" stroke="#c7e0a2" stroke-width="1.5"/></g></svg>