<?xml version="1.0" encoding="UTF-8"?>
<!DOCTYPE svg PUBLIC "-//W3C//DTD SVG 1.1//EN" "http://www.w3.org/Graphics/SVG/1.1/DTD/svg11.dtd">
<!-- Creator: CorelDRAW 2019 (64-Bit) -->
<svg xmlns="http://www.w3.org/2000/svg" xml:space="preserve" width="550px" height="550px" version="1.1" style="shape-rendering:geometricPrecision; text-rendering:geometricPrecision; image-rendering:optimizeQuality; fill-rule:evenodd; clip-rule:evenodd"
viewBox="0 0 41.65 41.65"
 xmlns:xlink="http://www.w3.org/1999/xlink"
 xmlns:xodm="http://www.corel.com/coreldraw/odm/2003">
 <defs>
  <style type="text/css">
   <![CDATA[
    .fil0 {fill:none}
    .fil1 {fill:#31227F}
    .fil2 {fill:#EA6115}
    .fil3 {fill:#EAAC83}
   ]]>
  </style>
 </defs>
 <g id="Layer_x0020_1">
  <metadata id="CorelCorpID_0Corel-Layer"/>
  <polygon class="fil0" points="0,41.65 41.65,41.65 41.65,0 0,0 "/>
  <path class="fil1" d="M22.98 26.19c-0.11,-0.34 -0.03,-3.8 -0.03,-4.48 0,-1.42 0.09,-3.17 -0.01,-4.54l-2.11 -0.01 0 3.67c-0.31,-0.26 -0.58,-0.53 -1.14,-0.65 -1.36,-0.29 -2.68,0.42 -3.24,1.7l-0.19 0.34c-0.47,-1.92 -2.9,-2.61 -4.63,-1.79 -0.62,0.29 -0.9,0.67 -1.26,1.12l-0.01 -1.09 -2.68 -0.01 0 -1.26 2.92 0 -0.01 -2.03 -5.29 0c-0.09,0.24 -0.1,8.27 -0.02,9.03l2.39 0 0.01 -3.78 2.35 0c-0.34,1.82 0.39,3.41 2.14,3.94 0.89,0.27 1.93,0.15 2.68,-0.21 0.6,-0.29 1.39,-1.2 1.41,-1.7l-1.99 -0.01c-0.23,0.18 -0.22,0.31 -0.53,0.43 -0.69,0.29 -1.66,-0.1 -1.73,-1.12l4.17 0c0.08,1.16 0.86,2.08 1.65,2.48 0.77,0.39 1.66,0.44 2.42,-0.05 0.5,-0.31 0.32,-0.36 0.58,-0.52l0 0.54 2.15 0zm-10.9 -3.78l2.25 0.01c-0.16,-0.56 -0.45,-0.91 -1.1,-0.93 -0.64,-0.02 -0.98,0.42 -1.15,0.92zm7.17 -0.61c-0.65,0.18 -1.06,0.95 -0.92,1.8 0.11,0.71 0.69,1.38 1.55,1.16 1.39,-0.35 1.12,-3.45 -0.63,-2.96z"/>
  <path class="fil2" d="M22.98 26.19c0.55,0 7.41,0.07 7.6,-0.04 0.07,-0.04 0.9,-1.09 1.2,-1.33 0.24,0.22 1.13,1.31 1.27,1.35 0.14,0.05 2.34,0.04 2.63,0.02 -0.14,-0.37 -2.44,-2.66 -2.45,-2.86 -0.01,-0.14 1.02,-1.26 1.18,-1.43 0.24,-0.26 1.13,-1.19 1.22,-1.43 -0.31,-0.02 -2.36,-0.05 -2.53,0.01 -0.15,0.05 -0.97,1.14 -1.21,1.32 -0.21,-0.13 -0.75,-0.77 -0.97,-1.02 -0.28,-0.32 -0.21,-0.33 -0.71,-0.33l-5.13 -0.01 -0.01 -1.25 2.86 -0.01 0.01 -2.01 -5 0c0.1,1.37 0.01,3.12 0.01,4.54 0,0.68 -0.08,4.14 0.03,4.48zm4.96 -3.79l-2.86 0.01 -0.01 1.76c0.59,0.03 2.5,-0.11 2.88,0.06 0.02,0.45 -0.07,1.51 0.09,1.74 0.21,-0.07 2.24,-2.44 2.41,-2.64 -0.13,-0.2 -0.42,-0.49 -0.59,-0.68l-1.55 -1.75c-0.15,-0.17 -0.2,-0.28 -0.36,-0.34l-0.01 1.84z"/>
  <path class="fil3" d="M36.58 25.07c-0.17,0.08 -0.2,0.08 -0.28,0.3 -0.23,0.62 0.35,1.01 0.85,0.8 0.64,-0.28 0.3,-1.51 -0.57,-1.1z"/>
 </g>
</svg>
