<?xml version="1.0" encoding="iso-8859-1"?>
<!--
  - Copyright (c) 2023. Selldone® Business OS?
  -
  - Author: M.Pajuhaan
  - Web: https://selldone.com
  - ??????????????????????????????????????????????????????
  -
  - All rights reserved. In the weave of time, where traditions and innovations intermingle, this content was crafted.
  - From the essence of thought, through the corridors of creativity, each word, and sentiment has been molded.
  - Not just to exist, but to inspire. Like an artist's stroke or a sculptor's chisel, every nuance is deliberate.
  - Our journey is not just about reaching a destination, but about creating a masterpiece.
  - Tread carefully, for you're treading on dreams.
  -->

<!-- Generator: Adobe Illustrator 19.0.0, SVG Export Plug-In . SVG Version: 6.00 Build 0)  -->
<svg version="1.1" id="Capa_1" xmlns="http://www.w3.org/2000/svg" xmlns:xlink="http://www.w3.org/1999/xlink" x="0px" y="0px"
	 viewBox="0 0 512.007 512.007" style="enable-background:new 0 0 512.007 512.007;" xml:space="preserve">
<circle style="fill:#41B4E6;" cx="256.003" cy="256.003" r="256.003"/>
<path style="fill:#0091C8;" d="M256,113.376c-87.142,0-160.539,61.059-160.539,139.536c0,33.252,13.244,64.66,37.559,89.741
	l-0.02,0.02l165.755,165.755c108.891-18.311,194.446-105.355,210.512-214.992L372.806,156.972l-0.091,0.091
	C343.599,130.237,302.296,113.376,256,113.376z"/>
<path style="fill:#FFFFFF;" d="M355.328,365.442c-2.404-5.03-1.051-11.044,3.316-14.509c31.404-24.923,49.692-60.433,49.692-97.863
	c0-72.454-67.293-132.406-152.335-132.406c-82.69,0-152.335,57.939-152.335,132.406c0,35.672,16.052,69.113,45.202,94.165
	c28.692,24.66,66.74,38.24,107.135,38.24c15.31,0,30.352-1.958,44.83-5.827c2.167-0.579,4.477-0.253,6.443,0.824
	c28.266,15.501,43.181,12.357,69.698,9.773C367.628,383.182,359.627,374.44,355.328,365.442z"/>
<g>
	<path style="fill:#00558C;" d="M298.522,293.957c-14.267,5.416-27.712,8.534-42.997,8.096
		c-30.627-0.862-51.312-7.138-74.182-31.403c3.74,37.062,47.532,53.999,75.009,53.607c40.42-1.488,71.688-25.042,74.303-53.607
		C322.631,279.554,317.166,285.66,298.522,293.957z"/>
	<path style="fill:#00558C;" d="M357.423,361.108c37.209-26.386,59.116-66.141,59.116-108.197
		c0-76.355-70.917-139.536-160.539-139.536c-87.142,0-160.539,61.059-160.539,139.536c0,37.593,16.917,72.835,47.635,99.236
		c30.237,25.988,70.334,40.3,112.903,40.3c17.375,0,34.424-2.393,50.753-7.117c31.949,18.421,57.846,13.226,86.8,10.405
		C372.172,377.954,365.554,373.539,357.423,361.108z M339.79,374.674c-14.935-3.368-24.015-9.787-29.886-13.591
		c-15.954,5.123-31.404,9.166-53.904,9.166c-76.281,0-138.339-52.637-138.339-117.336s62.058-117.336,138.339-117.336
		s138.339,52.637,138.339,117.336c0,37.546-21.49,73.131-57.487,95.187l-8.614,5.278C332.9,362.885,334.977,367.579,339.79,374.674z
		"/>
</g>
<g>
</g>
<g>
</g>
<g>
</g>
<g>
</g>
<g>
</g>
<g>
</g>
<g>
</g>
<g>
</g>
<g>
</g>
<g>
</g>
<g>
</g>
<g>
</g>
<g>
</g>
<g>
</g>
<g>
</g>
</svg>
