<?xml version="1.0" encoding="UTF-8"?>


<!DOCTYPE svg PUBLIC "-//W3C//DTD SVG 1.1//EN" "http://www.w3.org/Graphics/SVG/1.1/DTD/svg11.dtd">

<svg xmlns="http://www.w3.org/2000/svg" xml:space="preserve" width="512px" height="451px" version="1.1" style="shape-rendering:geometricPrecision; text-rendering:geometricPrecision; image-rendering:optimizeQuality; fill-rule:evenodd; clip-rule:evenodd"
viewBox="0 0 10.57 9.31"
 xmlns:xlink="http://www.w3.org/1999/xlink"
 xmlns:xodm="http://www.corel.com/coreldraw/odm/2003">
 <defs>
  <style type="text/css">
   <![CDATA[
    .fil0 {fill:black}
    .fil1 {fill:#0091C2}
   ]]>
  </style>
 </defs>
 <g id="Layer_x0020_1">
  <metadata id="CorelCorpID_0Corel-Layer"/>
  <g id="_2337437878144">
   <path class="fil0" d="M0.95 2.88c0.27,0.07 1.22,0.52 1.49,0.55 0.46,-0.87 1.06,-1.51 2.06,-1.74 0.42,-0.1 0.69,-0.1 1.1,-0.07 0.65,0.04 1.38,0.44 1.73,0.8 0.38,0.38 0.88,1.05 0.89,1.64l-0.54 0c0.05,0.17 1.26,1.34 1.45,1.44l0.75 -0.68c0.16,-0.16 0.65,-0.58 0.69,-0.76l-0.72 0c0,-0.81 -0.5,-1.69 -0.95,-2.3 -1.61,-2.16 -5.23,-2.52 -7.28,-0.02 -0.2,0.24 -0.6,0.83 -0.67,1.14z"/>
   <path class="fil0" d="M0 5.32l0.63 0c0.3,1.26 0.5,1.78 1.46,2.75 1.79,1.81 5.13,1.62 6.79,-0.51 0.19,-0.24 0.58,-0.8 0.65,-1.11l-1.49 -0.58c-0.05,0.2 -0.29,0.55 -0.42,0.7 -1.49,1.76 -3.97,1.35 -4.96,-0.29 -0.38,-0.64 -0.26,-0.66 -0.4,-0.96l0.63 0c-0.05,-0.18 -0.53,-0.59 -0.69,-0.75l-0.75 -0.69 -1.12 1.05c-0.13,0.12 -0.28,0.21 -0.33,0.39z"/>
   <path class="fil1" d="M4.2 4.42l0 0.23c0,0.55 0.48,0.99 1.18,0.99 0.49,0 0.99,-0.5 0.99,-0.99 0,-0.42 -0.01,-0.59 -0.35,-0.92 -0.69,-0.67 -1.82,-0.07 -1.82,0.69z"/>
  </g>
 </g>
</svg>
