<?xml version="1.0" encoding="UTF-8"?>
<!DOCTYPE svg PUBLIC "-//W3C//DTD SVG 1.1//EN" "http://www.w3.org/Graphics/SVG/1.1/DTD/svg11.dtd">
<!-- Creator: CorelDRAW 2019 (64-Bit) -->
<svg xmlns="http://www.w3.org/2000/svg" xml:space="preserve" width="497px" height="210px" version="1.1" style="shape-rendering:geometricPrecision; text-rendering:geometricPrecision; image-rendering:optimizeQuality; fill-rule:evenodd; clip-rule:evenodd"
viewBox="0 0 130.62 55.19"
 xmlns:xlink="http://www.w3.org/1999/xlink"
 xmlns:xodm="http://www.corel.com/coreldraw/odm/2003">
 <defs>
  <style type="text/css">
   <![CDATA[
    .fil0 {fill:#129BFF}
   ]]>
  </style>
 </defs>
 <g id="Layer_x0020_1">
  <metadata id="CorelCorpID_0Corel-Layer"/>
  <path class="fil0" d="M90.71 35.57c-7.27,0 -9.14,-8.69 -5.21,-13.11 0.52,-0.58 1.28,-1.29 2.03,-1.65 2.81,-1.36 6.16,-0.96 8.16,1.6 0.31,0.39 0.53,0.61 0.74,1.03 1.19,2.3 1.54,4.88 0.53,7.34 -0.31,0.75 -0.84,1.73 -1.38,2.3 -1.24,1.33 -2.95,2.49 -4.87,2.49zm-33.91 -8.04l0 -0.68c0,-7.12 8.35,-9.63 11.98,-4.9 4.78,6.21 0.33,13.07 -4.63,13.07 -2.46,0 -3.82,-0.64 -5.42,-2.34 -0.99,-1.07 -1.93,-3.11 -1.93,-5.15zm52.7 -1.22c0,-3.92 3.34,-7.63 6.81,-7.63l1.23 0c1.56,0 4.33,1.32 4.63,2.45 -0.85,0.07 -11.83,5.11 -12.67,5.18zm-40.72 -25.75c0,3.92 1.09,10.96 1.09,14.71 -0.37,-0.19 -0.35,-0.2 -0.66,-0.42 -0.26,-0.19 -0.46,-0.28 -0.76,-0.47 -3,-1.98 -7.73,-1.91 -10.93,-0.42 -0.39,0.18 -0.63,0.32 -0.97,0.52 -2.34,1.41 -4.02,3.23 -5.38,5.65 -0.56,0.99 -1.46,3.37 -1.46,4.81l-0.13 0c0,-4.08 1.42,-5.77 1.71,-6.86 0.25,-0.96 0.19,-2.56 0.19,-3.62l-7.22 -0.41 -0.63 12.46c-0.12,1.71 0.16,4.06 -0.55,5.7 -1.12,2.59 -4.03,3.51 -6.69,2.79 -3.02,-0.82 -3.66,-3.8 -3.22,-6.96 0.2,-1.44 0.12,-3.36 0.2,-4.87l0.34 -7.18c0,-0.03 0.01,-0.21 0.01,-0.21l0.06 -2.14c-0.4,-0.01 -0.52,-0.05 -0.72,-0.06l-4.87 -0.21c-0.78,-0.02 -1.47,-0.48 -1.63,0.27 -0.04,0.18 -0.15,3.8 -0.13,4.08l0.34 2.96c0.08,0.65 0.21,0.42 -0.21,0.72 -0.21,-2.45 -2.16,-4.86 -3.93,-6.29 -1,-0.8 -2.14,-1.23 -3.33,-1.7 -4.03,-1.6 -9.96,-1.01 -13,1.9l-1.23 1.22c-2.41,2.77 -2.82,5.74 -3.32,9.34l-1.25 8.84c-0.19,1.31 -0.5,3.03 -0.5,4.54 0.6,0 1.2,0.17 1.67,0.23l3.64 0.45c0.64,0.06 1.2,0.22 1.77,0.27l1.7 -12.06c0.17,-1.08 0.28,-1.93 0.42,-2.98 0.27,-1.92 0.57,-3.51 2.21,-4.6 1.94,-1.29 4.14,-1.15 6.16,-0.11 3.06,1.57 1.86,5.53 1.63,8.3 -0.18,2.16 -0.67,4.34 -0.93,6.43 -0.2,1.68 -0.84,5.19 -0.84,6.52 0.97,0 2.56,0.28 3.54,0.41 1.1,0.15 2.44,0.45 3.55,0.54 0.24,-0.51 1.03,-6.86 1.28,-8.52 0.1,-0.7 -0.07,-0.84 0.35,-1.15 0.01,0.53 0.38,1.65 0.53,2.06 0.19,0.55 0.58,1.33 0.89,1.83 0.37,0.62 0.72,1.05 1.15,1.58 0.42,0.53 0.86,0.89 1.42,1.3 1.11,0.83 2.12,1.38 3.58,1.87 2.17,0.71 4.75,0.94 6.99,0.48 0.74,-0.16 1.57,-0.28 2.21,-0.52 1.07,-0.39 2.68,-1.29 3.49,-1.96 3.37,-2.84 3.41,-5.66 4.12,-6.78 0.29,1.24 1.14,2.48 1.87,3.45l1.38 1.61c0.02,0.02 0.05,0.05 0.07,0.07 0.02,0.02 0.05,0.05 0.07,0.07 0.18,0.18 0.11,0.14 0.35,0.33 0.28,0.24 0.5,0.41 0.75,0.6l2.42 1.54c6.52,3.17 15.49,0.91 19.2,-6.62 0.11,-0.22 0.11,-0.24 0.21,-0.46 0.02,-0.04 0.08,-0.15 0.09,-0.19l0.15 -0.26c0.58,2.48 2.75,5.23 4.75,6.69 0.74,0.55 1.52,1.04 2.41,1.4 0.48,0.2 0.83,0.4 1.34,0.57 2.41,0.79 5.73,0.74 8.1,-0.23 0.9,-0.37 1.69,-0.83 2.47,-1.35 -0.05,2.28 -0.96,5.34 -2.73,6.81 -3.36,2.83 -9.89,1.43 -10.76,-2.31 -1.21,0 -2.59,-0.23 -3.84,-0.39 -1.29,-0.16 -2.58,-0.43 -3.92,-0.43 0,5.44 5.19,9.95 10.18,10.93 1.14,0.22 2.34,0.49 3.43,0.51 2.67,0.06 4.94,-0.29 7.18,-1.41 7.35,-3.67 7.25,-10.63 8.16,-17.17 0.21,-1.5 0.26,-1.34 -0.2,-2.55 -0.1,-0.27 -0.15,-0.52 -0.23,-0.85 -0.26,-1.04 -0.6,-2.58 -0.6,-3.76l0.14 0c0,1.25 1.09,3.81 1.6,4.66l1.56 2.26c0.05,0.06 0.12,0.14 0.19,0.21 2.51,2.73 5.92,4.85 9.86,4.85 2,0 4.56,-0.19 6.32,-0.89 1.3,-0.51 2.53,-1.11 3.58,-2 0.28,-0.24 0.41,-0.44 0.7,-0.67 1.47,-1.17 3.56,-4.21 3.56,-6.11l-7.08 0c-0.48,0 -0.51,0.08 -0.73,0.37 -1.42,1.88 -2.94,2.9 -5.67,2.9 -2.33,0 -4.47,-0.99 -5.72,-2.86 0.54,-0.12 0.7,-0.22 1.18,-0.45l11.02 -4.65c0.48,-0.19 0.81,-0.31 1.26,-0.5l2.4 -1.01c0.57,-0.24 3.62,-1.45 3.62,-1.7 0,-1.01 -1.12,-3.83 -1.56,-4.57 -0.21,-0.35 -0.33,-0.62 -0.55,-0.95 -0.21,-0.33 -0.45,-0.61 -0.69,-0.94 -3.45,-4.61 -10.36,-6.41 -15.69,-4.26 -3.21,1.3 -6.05,3.52 -7.62,6.68 -0.18,0.35 -0.3,0.6 -0.45,0.91 -0.2,0.41 -0.22,0.72 -0.55,0.96 -0.19,-0.81 -0.54,-1.3 -0.93,-1.94 -4.13,-6.9 -13.79,-8.53 -20.37,-3.98 -2.33,1.61 -4.14,4.13 -5.05,6.8 -0.16,0.47 -0.23,0.62 -0.37,1.13l-0.38 1.12c0,-4.41 1.45,-3.54 0.91,-7.59 -0.38,-2.93 -0.42,-5.35 -0.63,-8.08 -0.21,-2.74 -0.33,-5.19 -0.65,-7.94 -0.2,-1.73 0.08,-1.15 -3.05,-0.92 -1.39,0.11 -2.84,0.28 -4.21,0.28z"/>
 </g>
</svg>
