<!--
  - Copyright (c) 2023. Selldone® Business OS™
  -
  - Author: M.Pajuhaan
  - Web: https://selldone.com
  - ━━━━━━━━━━━━━━━━━━━━━━━━━━━━━━━━━━━━━━━━━━━━━━━━━━━━━━
  -
  - All rights reserved. In the weave of time, where traditions and innovations intermingle, this content was crafted.
  - From the essence of thought, through the corridors of creativity, each word, and sentiment has been molded.
  - Not just to exist, but to inspire. Like an artist's stroke or a sculptor's chisel, every nuance is deliberate.
  - Our journey is not just about reaching a destination, but about creating a masterpiece.
  - Tread carefully, for you're treading on dreams.
  -->

<svg id="Layer_1" enable-background="new 0 0 152 152" height="512" viewBox="0 0 152 152" width="512" xmlns="http://www.w3.org/2000/svg" xmlns:xlink="http://www.w3.org/1999/xlink"><linearGradient id="Icon_1_" gradientUnits="userSpaceOnUse" x1="30.89" x2="120.94" y1="30.112" y2="120.161"><stop offset="0" stop-color="#ef5350"/><stop offset="1" stop-color="#f00"/></linearGradient><path id="Icon" d="m119.6 28.7c-11.4-11.8-25.7-17.6-43.4-17.7h-.3c-17.9 0-32.5 5.8-43.7 17.9-11.4 11.7-17 27.3-17 46.6-.2 17 5.9 33.4 17.3 46 10.8 12.7 26.8 19.9 43.5 19.5h.3c17.6-.1 32-6.6 43.4-19.7 11.3-12.6 17.5-29 17.3-45.9-.2-19.3-5.8-34.8-17.4-46.7zm-21.3 57.2c0 3.4-.4 7.2-.9 11.7-.3 3.8-1 7.6-2.2 11.2-1 3.1-2.2 6.1-3.8 9-1.4 2.8-3.6 5.1-6.3 6.7-2.7 1.5-5.7 2.3-8.8 2.3h-.1c-3.1.1-6.3-.6-9-2.3-2.7-1.6-4.9-3.9-6.3-6.7-1.6-2.8-2.9-5.9-3.8-9-1-3.7-1.7-7.4-2-11.2-.4-4.5-.7-8.3-.9-11.4s-.2-7.2-.2-11.7c0-7.4.2-13.5.7-18.6.5-5.2 1.5-10.3 2.9-15.2 1-4.5 3.3-8.6 6.7-11.8 3.2-2.8 7.4-4.2 11.7-4h.3c4.2-.1 8.2 1.3 11.4 4 3.2 3.1 5.6 7.1 7 11.4 1.6 5 2.6 10.2 3.1 15.5.4 5.4.7 11.4.9 18.6-.2 4.5-.4 8.3-.4 11.5z" fill="url(#Icon_1_)"/></svg>