<?xml version="1.0" encoding="utf-8"?>
<!-- Generator: Adobe Illustrator 19.1.0, SVG Export Plug-In . SVG Version: 6.00 Build 0)  -->
<svg version="1.1" id="Layer_1" xmlns="http://www.w3.org/2000/svg" xmlns:xlink="http://www.w3.org/1999/xlink" x="0px" y="0px"
	 viewBox="3368 -533 200 23" style="enable-background:new 3368 -533 200 23;" xml:space="preserve">
<style type="text/css">
	.st0{fill:#231F20;}
	.st1{fill:#F2C994;}
	.st2{fill:#ED4642;}
	.st3{fill:#17BCB5;}
	.st4{fill:#DF392F;}
	.st5{fill:#16342F;}
	.st6{fill:#15291A;}
</style>
<path class="st0" d="M3423.5-510.2V-533h9.7c1.1,0,2.1,0.2,3,0.7c0.9,0.4,1.7,1,2.3,1.8s1.2,1.6,1.5,2.5c0.4,0.9,0.6,1.9,0.6,2.8
	c0,1-0.2,2-0.5,2.9c-0.4,0.9-0.8,1.7-1.5,2.5c-0.6,0.7-1.4,1.3-2.3,1.7c-0.9,0.4-1.9,0.6-3,0.6h-4.6v7.4H3423.5z M3428.8-522.1h4.3
	c0.6,0,1.2-0.3,1.6-0.8c0.5-0.5,0.7-1.3,0.7-2.3c0-0.5-0.1-1-0.2-1.4c-0.1-0.4-0.3-0.7-0.6-1c-0.2-0.3-0.5-0.4-0.8-0.6
	s-0.6-0.2-0.9-0.2h-4.1V-522.1L3428.8-522.1z"/>
<path class="st0" d="M3442.1-510.2V-533h10.3c1.1,0,2.1,0.2,3,0.7c0.9,0.4,1.7,1,2.4,1.8c0.7,0.7,1.2,1.6,1.6,2.5
	c0.4,0.9,0.6,1.9,0.6,2.8c0,0.7-0.1,1.4-0.3,2c-0.2,0.7-0.4,1.3-0.7,1.8c-0.3,0.6-0.7,1.1-1.2,1.6c-0.5,0.5-1,0.9-1.6,1.2l5.2,8.5
	h-5.9l-4.6-7.4h-3.4v7.4H3442.1z M3447.4-522.1h4.8c0.6,0,1.2-0.3,1.6-0.9c0.5-0.6,0.7-1.3,0.7-2.3c0-0.9-0.3-1.7-0.8-2.2
	c-0.5-0.6-1.1-0.8-1.7-0.8h-4.7L3447.4-522.1L3447.4-522.1z"/>
<path class="st0" d="M3462.7-510.2V-533h5.3v22.8H3462.7z"/>
<path class="st0" d="M3475.7-523.2v13h-5.3V-533h4.1l10.6,13.4V-533h5.3v22.8h-4.2L3475.7-523.2z"/>
<path class="st0" d="M3510.9-528.4h-6.9v18.2h-5.3v-18.2h-7v-4.6h19.2V-528.4z"/>
<path class="st0" d="M3512.2-510.2V-533h15.5v4.6h-10.2v4.9h8.4v4.3h-8.4v9H3512.2L3512.2-510.2z"/>
<path class="st0" d="M3538.8-514.7c0.9,0,1.7-0.2,2.3-0.6c0.6-0.4,1.1-0.9,1.5-1.5c0.4-0.6,0.7-1.3,0.8-2.1c0.2-0.8,0.2-1.6,0.2-2.5
	V-533h5.3v11.7c0,1.6-0.2,3.1-0.6,4.4c-0.4,1.4-1,2.6-1.8,3.6c-0.8,1-1.9,1.8-3.1,2.4s-2.8,0.9-4.5,0.9c-1.8,0-3.4-0.3-4.7-0.9
	c-1.3-0.6-2.3-1.5-3.1-2.5c-0.8-1-1.4-2.2-1.8-3.6s-0.6-2.8-0.6-4.3V-533h5.3v11.7c0,0.9,0.1,1.7,0.3,2.5c0.2,0.8,0.5,1.5,0.8,2.1
	c0.4,0.6,0.9,1.1,1.5,1.5C3537.2-514.9,3537.9-514.7,3538.8-514.7z"/>
<path class="st0" d="M3551.7-510.2V-533h5.3v18.2h11v4.6H3551.7z"/>
<polygon class="st1" points="3368,-510 3381.4,-533 3394.8,-510 "/>
<polygon class="st2" points="3380.1,-510 3393.5,-533 3406.9,-510 "/>
<polygon class="st3" points="3392.2,-510 3405.6,-533 3419,-510 "/>
<polygon class="st4" points="3380.1,-510 3394.8,-510 3387.4,-522.6 "/>
<polygon class="st5" points="3392.2,-510 3406.9,-510 3399.6,-522.6 "/>
<polygon class="st6" points="3392.2,-510 3394.8,-510 3393.5,-512.2 "/>
</svg>
