<?xml version="1.0" encoding="UTF-8"?>
<!DOCTYPE svg PUBLIC "-//W3C//DTD SVG 1.1//EN" "http://www.w3.org/Graphics/SVG/1.1/DTD/svg11.dtd">
<!-- Creator: CorelDRAW 2019 (64-Bit) -->
<svg xmlns="http://www.w3.org/2000/svg" xml:space="preserve" width="550px" height="550px" version="1.1" style="shape-rendering:geometricPrecision; text-rendering:geometricPrecision; image-rendering:optimizeQuality; fill-rule:evenodd; clip-rule:evenodd"
viewBox="0 0 51.21 51.21"
 xmlns:xlink="http://www.w3.org/1999/xlink"
 xmlns:xodm="http://www.corel.com/coreldraw/odm/2003"
 xmlns:dc="http://purl.org/dc/elements/1.1/"
 xmlns:cc="http://creativecommons.org/ns#"
 xmlns:rdf="http://www.w3.org/1999/02/22-rdf-syntax-ns#"
 xmlns:svg="http://www.w3.org/2000/svg"
 xmlns:sodipodi="http://sodipodi.sourceforge.net/DTD/sodipodi-0.dtd"
 xmlns:inkscape="http://www.inkscape.org/namespaces/inkscape"
 inkscape:version="0.92.3 (2405546, 2018-03-11)"
 sodipodi:docname="Alemanya (T) - DB.svg">
 <defs>
  <style type="text/css">
   <![CDATA[
    .fil0 {fill:none}
    .fil1 {fill:#E30613;fill-rule:nonzero}
    .fil2 {fill:white;fill-rule:nonzero}
   ]]>
  </style>
 </defs>
 <g id="Layer_x0020_1">
  <metadata id="CorelCorpID_0Corel-Layer"/>
  <polygon class="fil0" points="0,51.21 51.21,51.21 51.21,0 0,0 "/>
  <g id="_2348534717008">
   <sodipodi:namedview id="base" pagecolor="#ffffff" bordercolor="#666666" borderopacity="1.0" inkscape:pageopacity="0.0" inkscape:pageshadow="2" inkscape:zoom="1.4" inkscape:cx="192.60453" inkscape:cy="106.66729" inkscape:document-units="mm" inkscape:current-layer="layer1" showgrid="false" fit-margin-top="0" fit-margin-left="0" fit-margin-right="0" fit-margin-bottom="0" inkscape:window-width="1366" inkscape:window-height="745" inkscape:window-x="-8" inkscape:window-y="-8" inkscape:window-maximized="1"/>
   <g id="layer1" inkscape:label="Capa 1" inkscape:groupmode="layer">
    <g id="g1073">
     <g id="g30">
      <path id="path32" class="fil1" d="M41.16 12.01l-31.07 0c-2.14,0 -3.91,1.69 -3.91,3.87l0 19.4c0,2.19 1.77,3.92 3.91,3.92l31.07 0c2.09,0 3.86,-1.73 3.86,-3.92l0 -19.4c0,-2.18 -1.77,-3.87 -3.86,-3.87z" inkscape:connector-curvature="0"/>
     </g>
     <g id="g34">
      <g>
       <path id="path36" class="fil2" d="M42.18 35.28c0,0.62 -0.4,1.12 -1.02,1.12l-31.07 0c-0.62,0 -1.07,-0.5 -1.07,-1.12l0 -19.4c0,-0.62 0.45,-1.11 1.07,-1.11l31.07 0c0.62,0 1.02,0.49 1.02,1.11l0 19.4zm0 0l0 0 0 0z" inkscape:connector-curvature="0"/>
      </g>
     </g>
     <g id="g38">
      <g>
       <path id="path40" class="fil1" d="M33.92 34.5l-6.9 0 0 -17.8 7.23 0c3.41,0 5.26,1.4 5.26,4.74 0,1.73 -1.44,2.97 -2.99,3.75 2.17,0.62 3.65,1.94 3.65,4.16 0,3.63 -3.04,5.15 -6.25,5.15l0 0zm-2.67 -10.75l1.48 0c1.4,0 2.43,-0.62 2.43,-2.14 0,-1.69 -1.32,-2.15 -2.71,-2.15l-1.2 0 0 4.29zm4.4 5.52c0,-1.81 -1.15,-2.23 -2.83,-2.23l-1.57 0 0 4.58 1.52 0c1.53,0 2.88,-0.5 2.88,-2.35z" inkscape:connector-curvature="0"/>
      </g>
     </g>
     <g id="g42">
      <g>
       <path id="path44" class="fil1" d="M18.06 34.5l-6.53 0 0 -17.8 6.53 0c4.6,0 7.07,2.89 7.07,8.82 0,5.15 -1.64,8.94 -7.07,8.98l0 0zm2.84 -8.61c0,-3.58 -0.37,-6.38 -4.23,-6.38l-0.87 0 0 12.11 1.52 0c2.26,0 3.58,-1.82 3.58,-5.73z" inkscape:connector-curvature="0"/>
      </g>
     </g>
    </g>
   </g>
  </g>
 </g>
</svg>
