<!--
  - Copyright (c) 2023. Selldone® Business OS™
  -
  - Author: M.Pajuhaan
  - Web: https://selldone.com
  - ━━━━━━━━━━━━━━━━━━━━━━━━━━━━━━━━━━━━━━━━━━━━━━━━━━━━━━
  -
  - All rights reserved. In the weave of time, where traditions and innovations intermingle, this content was crafted.
  - From the essence of thought, through the corridors of creativity, each word, and sentiment has been molded.
  - Not just to exist, but to inspire. Like an artist's stroke or a sculptor's chisel, every nuance is deliberate.
  - Our journey is not just about reaching a destination, but about creating a masterpiece.
  - Tread carefully, for you're treading on dreams.
  -->

<svg id="Capa_1" enable-background="new 0 0 512 512" height="512" viewBox="0 0 512 512" width="512" xmlns="http://www.w3.org/2000/svg"><g><circle id="background" cx="256" cy="256" fill="#ffc91b" r="256"/><path id="icon" d="m416 332.102c-.068 7.078-3.503 13.701-9.251 17.833-3.426 2.532-7.237 4.497-11.287 5.818-6.361 1.996-12.855 3.542-19.433 4.625-.286 2.331-.753 4.636-1.396 6.895-1.843 7.259-6.946 13.254-13.818 16.233-3.847 1.483-7.951 2.185-12.073 2.065-2.909 0-6.138-.233-9.484-.465-3.345-.233-7.302-.553-10.996-.553-4.402-.208-8.799.495-12.916 2.065-4.131 1.92-8.553 4.509-13.207 7.215-12.945 7.622-27.607 16.349-46.138 16.349s-33.193-8.727-46.138-16.262c-4.655-2.705-9.076-5.295-13.207-7.215-4.117-1.57-8.515-2.274-12.916-2.065-3.695 0-7.389.262-10.996.553s-6.516.465-9.484.465c-4.121.119-8.225-.583-12.073-2.065-6.877-2.971-11.983-8.969-13.818-16.233-.643-2.259-1.11-4.564-1.396-6.895-6.579-1.08-13.073-2.626-19.433-4.625-4.05-1.321-7.861-3.286-11.287-5.818-5.772-4.15-9.211-10.811-9.251-17.92.09-7.787 4.735-14.799 11.869-17.92 2.828-1.292 5.744-2.381 8.727-3.258 12.393-3.985 30.691-9.833 40.495-40.378l-14.865-5.818c-12.632-4.703-19.867-17.995-16.96-31.156 1.201-5.526 4.287-10.462 8.727-13.964 4.329-3.358 9.648-5.189 15.127-5.207 1.901.004 3.795.228 5.644.669l5.004 1.164c.233-5.818.349-11.956.349-18.24.024-12.772 2.626-25.407 7.651-37.149 9.776-22.991 28.027-41.335 50.967-51.229 11.763-5.088 24.449-7.693 37.265-7.651 12.726.016 25.315 2.619 37.004 7.651 22.91 9.879 41.176 28.144 51.055 51.055 5.044 11.737 7.657 24.374 7.68 37.149 0 6.284 0 12.393.349 18.24l5.004-1.164c7.253-1.732 14.901-.061 20.771 4.538 4.495 3.478 7.633 8.417 8.873 13.964 3.005 13.219-4.249 26.619-16.96 31.331l-14.865 5.818c9.92 30.487 28.218 36.305 40.553 40.233 2.981.882 5.897 1.971 8.727 3.258 7.161 3.153 11.791 10.235 11.807 18.064z" fill="#fff"/><path id="icon_1_" d="m415.948 332.111c-.068 7.078-3.503 13.701-9.251 17.833-3.426 2.532-7.237 4.497-11.287 5.818-6.361 1.996-12.855 3.542-19.433 4.625-.286 2.331-.753 4.636-1.396 6.895-1.843 7.259-6.946 13.254-13.818 16.233-3.847 1.483-7.951 2.185-12.073 2.065-2.909 0-6.138-.233-9.484-.465s-7.302-.553-10.996-.553c-4.402-.208-8.799.495-12.916 2.065-4.131 1.92-8.553 4.509-13.207 7.215-12.945 7.622-27.607 16.349-46.138 16.349s-33.193-8.727-46.138-16.262c-4.655-2.705-9.076-5.295-13.207-7.215-4.117-1.57-8.515-2.274-12.916-2.065-3.695 0-7.389.262-10.996.553s-6.516.465-9.484.465c-4.121.119-8.225-.583-12.073-2.065-6.877-2.971-11.983-8.969-13.818-16.233-.643-2.258-1.11-4.564-1.396-6.895-6.579-1.08-13.073-2.626-19.433-4.625-4.05-1.321-7.861-3.286-11.287-5.818-5.772-4.15-9.211-10.811-9.251-17.92.09-7.787 4.735-14.799 11.869-17.92 2.828-1.292 5.744-2.381 8.727-3.258 12.393-3.985 30.691-9.833 40.495-40.378l-14.865-5.818c-12.632-4.703-19.867-17.995-16.96-31.156 1.201-5.526 4.287-10.462 8.727-13.964 4.329-3.358 9.648-5.189 15.127-5.207 1.901.004 3.795.228 5.644.669l5.004 1.164c.233-5.818.349-11.956.349-18.24.024-12.772 2.626-25.407 7.651-37.149 9.776-22.991 28.027-41.335 50.967-51.229 11.763-5.088 24.449-7.693 37.265-7.651 12.726.016 25.315 2.619 37.004 7.651 22.91 9.879 41.176 28.144 51.055 51.055 5.044 11.737 7.657 24.374 7.68 37.149 0 6.284 0 12.393.349 18.24l5.004-1.164c7.253-1.732 14.901-.061 20.771 4.538 4.495 3.478 7.633 8.417 8.873 13.964 3.005 13.219-4.249 26.619-16.96 31.331l-14.865 5.818c9.92 30.487 28.218 36.305 40.553 40.233 2.981.882 5.897 1.971 8.727 3.258 7.161 3.153 11.791 10.235 11.807 18.064z" fill="none" stroke="#000" stroke-miterlimit="10" stroke-width="10"/></g></svg>