<?xml version="1.0" encoding="iso-8859-1"?>
<!-- Generator: Adobe Illustrator 19.0.0, SVG Export Plug-In . SVG Version: 6.00 Build 0)  -->
<svg version="1.1" id="Layer_1" xmlns="http://www.w3.org/2000/svg" xmlns:xlink="http://www.w3.org/1999/xlink" x="0px" y="0px"
	 viewBox="0 0 512 512" style="enable-background:new 0 0 512 512;" xml:space="preserve">
<path style="fill:#7F40BD;" d="M504.783,77.091h-0.006H303.494c-2.036,0-3.977,0.859-5.345,2.366
	c-1.368,1.508-2.038,3.52-1.842,5.549l3.925,40.693c0.343,3.552,3.228,6.32,6.792,6.516l42.05,2.314l-80.736,112.023L180.293,71.142
	l63.563-2.43c3.844-0.146,6.896-3.276,6.945-7.121l0.464-36.392c0.022-1.932-0.726-3.792-2.082-5.166
	c-1.356-1.372-3.206-2.147-5.137-2.147H7.22c-3.989,0-7.22,3.231-7.22,7.221v40.558c0,3.947,3.17,7.163,7.115,7.22l66.917,0.964
	l127.257,224.488l-0.568,140.205l-88.48,3.631c-3.817,0.155-6.85,3.259-6.923,7.077l-0.716,37.506
	c-0.037,1.939,0.709,3.81,2.069,5.196c1.356,1.383,3.212,2.161,5.151,2.161h276.762c1.981,0,3.875-0.813,5.239-2.249
	c1.363-1.435,2.078-3.368,1.974-5.346l-1.933-37.132c-0.192-3.692-3.14-6.641-6.835-6.834l-76.124-3.992l-11.082-136.57
	L436.479,137.33l55.64-2.53c3.063-0.142,5.704-2.202,6.587-5.139l12.909-43.018c0.248-0.729,0.385-1.516,0.385-2.332
	C512,80.325,508.772,77.091,504.783,77.091z"/>
<g>
</g>
<g>
</g>
<g>
</g>
<g>
</g>
<g>
</g>
<g>
</g>
<g>
</g>
<g>
</g>
<g>
</g>
<g>
</g>
<g>
</g>
<g>
</g>
<g>
</g>
<g>
</g>
<g>
</g>
</svg>
