<?xml version="1.0"?>


<svg xmlns:xlink="http://www.w3.org/1999/xlink" xmlns:svgjs="http://svgjs.com/svgjs" xmlns="http://www.w3.org/2000/svg"
     version="1.1" width="512" height="512" x="0" y="0" viewBox="0 0 510.256 510.256"
     style="enable-background:new 0 0 512 512" xml:space="preserve" class=""><g><path xmlns="http://www.w3.org/2000/svg" d="m142.596 232.322h-77.775c-7.409 0-13.436 6.027-13.436 13.436v65.395c0 5.158 2.875 9.777 7.504 12.056l38.89 19.136c1.856.913 3.893 1.369 5.929 1.369 2.037 0 4.075-.457 5.932-1.37l38.888-19.135h.001c4.628-2.278 7.503-6.897 7.503-12.056v-65.395c.001-7.409-6.027-13.436-13.436-13.436zm-1.563 77.856-37.324 18.365-37.324-18.365v-62.856h74.647v62.856zm.869-.428c.001 0 .002-.001.003-.002h.001z" fill="#e9e9e9" data-original="#000000" class=""/><path
        xmlns="http://www.w3.org/2000/svg"
        d="m489.02 112.98-39.942-33.787c-1.354-1.145-3.07-1.773-4.844-1.773h-19.701c-3.036 0-5.644 1.807-6.824 4.4h-33.769-46.044-33.769c-1.18-2.594-3.788-4.4-6.824-4.4h-19.701c-1.773 0-3.489.629-4.844 1.773l-15.123 12.793v-29.761c0-8.662-7.047-15.71-15.709-15.71h-115.843c-8.662 0-15.709 7.048-15.709 15.71v81.186h-67.148c-6.648 0-12.497 4.716-13.905 11.213-.024.11-.045.222-.064.333l-28.843 169.843c-1.562 7.552 1.377 15.393 7.524 20.055l147.145 116.356c.051.041.103.081.155.12 2.074 1.554 4.644 2.409 7.236 2.409h57.719c17.503 0 32.298-11.889 36.351-28.405h37.432c7.009 10.315 18.836 17.105 32.22 17.105h10.926c13.384 0 25.211-6.79 32.22-17.105h19.393c7.01 10.315 18.836 17.105 32.22 17.105h10.926c13.384 0 25.21-6.79 32.22-17.105h29.586c9.137 0 16.57-7.434 16.57-16.57v-260.007c-.001-17.675-7.741-34.361-21.237-45.778zm-127.356 32.451c-15.123.19-29.401-5.548-40.165-16.173-8.965-8.849-14.562-20.167-16.188-32.438h25.085v13.53c0 6.886 5.602 12.488 12.487 12.488h36.069c6.886 0 12.487-5.603 12.487-12.488v-13.53h24.97c-4.014 27.129-27.033 48.251-54.745 48.611zm14.775-48.611v11.019h-31.044v-11.019zm-250.356-35.305h115.842c.391 0 .709.318.709.71v11.655h-117.26v-11.655c0-.392.318-.71.709-.71zm56.667 96.896v41.863h-36.761v-41.863zm-51.761 41.863h-46.76v-41.863h46.76zm-87.105-41.863h25.345v41.863h-32.454zm331.555 261.924c.394-2.218.611-4.496.611-6.825v-1.471h5.973v1.471c0 2.329.217 4.607.611 6.825zm56.441 17.106h-10.926c-13.195 0-23.931-10.735-23.931-23.931v-6.456c0-5.522-4.492-10.015-10.015-10.015h-15.943c-5.522 0-10.015 4.492-10.015 10.015v6.456c0 13.195-10.735 23.931-23.931 23.931h-10.926c-13.195 0-23.93-10.735-23.93-23.931v-22.693c0-5.259 4.278-9.537 9.537-9.537h39.712c3.532 0 6.76 1.94 8.424 5.064 1.303 2.445 3.848 3.974 6.619 3.974h24.961c2.771 0 5.315-1.527 6.619-3.973 1.665-3.125 4.893-5.065 8.424-5.065h39.712c5.259 0 9.537 4.278 9.537 9.537v22.693c.002 13.196-10.733 23.931-23.928 23.931zm63.376-18.676c0 .866-.704 1.57-1.57 1.57h-23.487c.394-2.218.611-4.496.611-6.825v-22.693c0-13.53-11.007-24.537-24.537-24.537h-39.712c-7.474 0-14.416 3.373-19.024 9.038h-16.998c-4.607-5.664-11.55-9.038-19.024-9.038h-39.712c-13.53 0-24.537 11.007-24.537 24.537v22.693c0 2.329.217 4.607.611 6.825h-59.727c-.866 0-1.57-.704-1.57-1.57v-47.583c0-4.143-3.358-7.5-7.5-7.5s-7.5 3.357-7.5 7.5v47.583c0 9.137 7.434 16.57 16.57 16.57h12.589c-3.479 7.965-11.384 13.405-20.546 13.405-12.375 0-22.442-10.067-22.442-22.442v-158.1c0-4.143-3.358-7.5-7.5-7.5s-7.5 3.357-7.5 7.5v158.101c0 8.411 2.789 16.185 7.489 22.442h-26.744l-146.32-115.703c-.05-.04-.101-.079-.152-.117-1.58-1.185-2.33-3.197-1.911-5.127.024-.111.045-.223.064-.334l19.051-112.186h148.522v22.924c0 4.143 3.358 7.5 7.5 7.5s7.5-3.357 7.5-7.5v-80.559c0-7.846-6.383-14.229-14.229-14.229h-58.148v-54.53h117.261v15.794l-9.82 8.307c-13.496 11.416-21.236 28.102-21.236 45.777v182.424c0 4.143 3.358 7.5 7.5 7.5s7.5-3.357 7.5-7.5v-182.424c0-13.254 5.804-25.766 15.923-34.325l37.846-32.014h9.52c.766 18.002 8.187 34.774 21.093 47.515 11.824 11.672 26.982 18.688 43.301 20.19v79.698c0 4.143 3.357 7.5 7.5 7.5s7.5-3.357 7.5-7.5v-79.892c33.922-4.064 60.722-32.63 62.658-67.51h9.566l37.846 32.013c10.12 8.562 15.924 21.072 15.924 34.326v260.006z"
        fill="#e9e9e9" data-original="#000000" class=""/><circle xmlns="http://www.w3.org/2000/svg" cx="334.846"
                                                                 cy="179.342" r="7.693" fill="#e9e9e9"
                                                                 data-original="#000000" class=""/><circle
        xmlns="http://www.w3.org/2000/svg" cx="334.846" cy="204.069" r="7.694" fill="#e9e9e9" data-original="#000000"
        class=""/><circle xmlns="http://www.w3.org/2000/svg" cx="334.846" cy="228.796" r="7.694" fill="#e9e9e9"
                          data-original="#000000" class=""/><path xmlns="http://www.w3.org/2000/svg"
                                                                  d="m463.617 208.604h-59.56c-6.89 0-12.494 5.604-12.494 12.494v61.509c0 4.698 2.595 8.953 6.77 11.104l29.778 15.351c1.793.925 3.76 1.387 5.726 1.387 1.967 0 3.933-.462 5.725-1.387l29.78-15.351c4.175-2.152 6.769-6.407 6.769-11.104v-61.509c-.001-6.89-5.605-12.494-12.494-12.494zm-2.507 72.476-27.273 14.058-27.273-14.059v-57.475h54.547v57.476z"
                                                                  fill="#e9e9e9" data-original="#000000" class=""/></g></svg>
