<?xml version="1.0" encoding="UTF-8"?>
<!DOCTYPE svg PUBLIC "-//W3C//DTD SVG 1.0//EN" "http://www.w3.org/TR/2001/REC-SVG-20010904/DTD/svg10.dtd">
<!-- Creator: CorelDRAW -->
<svg xmlns="http://www.w3.org/2000/svg" xml:space="preserve" width="1789px" height="1789px" version="1.0" style="shape-rendering:geometricPrecision; text-rendering:geometricPrecision; image-rendering:optimizeQuality; fill-rule:evenodd; clip-rule:evenodd"
viewBox="0 0 94.31 94.31"
 xmlns:xlink="http://www.w3.org/1999/xlink"
 xmlns:xodm="http://www.corel.com/coreldraw/odm/2003">
 <defs>
  <style type="text/css">
   <![CDATA[
    .fil0 {fill:none}
    .fil1 {fill:#A8518A}
    .fil3 {fill:#FEFEFE;fill-rule:nonzero}
    .fil2 {fill:black;fill-rule:nonzero}
   ]]>
  </style>
 </defs>
 <g id="Layer_x0020_1">
  <metadata id="CorelCorpID_0Corel-Layer"/>
  <rect class="fil0" width="94.31" height="94.31"/>
  <rect class="fil1" transform="matrix(1.16029 0.649626 0.0113817 0.862241 11.1203 42.6669)" width="27.98" height="27.98" rx="2" ry="2"/>
  <path class="fil2" d="M85.63 24.65l-38.29 -18.48c-0.34,-0.17 -0.74,-0.17 -1.08,0l-38.29 18.48c-0.43,0.21 -0.7,0.64 -0.7,1.12l0 44.9c0,0.47 0.27,0.9 0.7,1.11l38.29 18.49c0.17,0.08 0.36,0.12 0.54,0.12 0.18,0 0.37,-0.04 0.54,-0.12l38.29 -18.49c0.43,-0.21 0.7,-0.64 0.7,-1.11l0 -44.9c0,-0.48 -0.27,-0.91 -0.7,-1.12zm-38.83 -16l35.46 17.12 -10.28 4.96c-0.07,-0.05 -0.14,-0.1 -0.21,-0.13l-35.21 -17 10.24 -4.95zm-13.04 6.34l35.41 17.1 -7.25 3.5 -35.39 -17.09 7.23 -3.51zm36.24 19.44l0 12.94 -6.78 3.27 0 -12.94 6.78 -3.27zm13.86 35.46l-35.82 17.3 0 -42.16 8.54 -4.13c0.62,-0.29 0.87,-1.03 0.58,-1.65 -0.3,-0.61 -1.04,-0.87 -1.65,-0.57l-8.71 4.2 -3.42 -1.65c-0.62,-0.3 -1.36,-0.04 -1.65,0.57 -0.3,0.62 -0.04,1.36 0.57,1.65l3.27 1.58 0 42.16 -35.83 -17.3 0 -42.15 27.28 13.17c0.17,0.08 0.36,0.12 0.54,0.12 0.46,0 0.9,-0.26 1.11,-0.7 0.3,-0.61 0.04,-1.35 -0.57,-1.65l-26.75 -12.91 12.27 -5.93 37.11 17.92c0.01,0.01 0.02,0.01 0.02,0.02l0 14.83c0,0.42 0.22,0.82 0.58,1.04 0.2,0.13 0.43,0.19 0.66,0.19 0.18,0 0.36,-0.04 0.53,-0.12l9.25 -4.46c0.43,-0.21 0.7,-0.64 0.7,-1.12l0 -14.9 11.39 -5.5 0 42.15z"/>
  <path class="fil3" d="M24.03 66.3l-5.62 -2.71c-0.61,-0.3 -1.35,-0.04 -1.65,0.58 -0.3,0.61 -0.04,1.35 0.58,1.65l5.62 2.71c0.17,0.08 0.35,0.12 0.53,0.12 0.46,0 0.9,-0.26 1.12,-0.7 0.29,-0.61 0.03,-1.35 -0.58,-1.65z"/>
  <path class="fil3" d="M29.2 62.94l-10.78 -5.21c-0.62,-0.3 -1.36,-0.04 -1.65,0.58 -0.3,0.61 -0.04,1.35 0.57,1.65l10.79 5.2c0.17,0.09 0.35,0.13 0.53,0.13 0.46,0 0.9,-0.26 1.12,-0.7 0.29,-0.62 0.04,-1.36 -0.58,-1.65z"/>
 </g>
</svg>
