<?xml version="1.0" encoding="UTF-8"?>
<!DOCTYPE svg PUBLIC "-//W3C//DTD SVG 1.0//EN" "http://www.w3.org/TR/2001/REC-SVG-20010904/DTD/svg10.dtd">
<!-- Creator: CorelDRAW -->
<svg xmlns="http://www.w3.org/2000/svg" xml:space="preserve" width="1789px" height="1789px" version="1.0" style="shape-rendering:geometricPrecision; text-rendering:geometricPrecision; image-rendering:optimizeQuality; fill-rule:evenodd; clip-rule:evenodd"
viewBox="0 0 94.59 94.59"
 xmlns:xlink="http://www.w3.org/1999/xlink"
 xmlns:xodm="http://www.corel.com/coreldraw/odm/2003">
 <defs>
  <style type="text/css">
   <![CDATA[
    .fil3 {fill:none}
    .fil1 {fill:#F58634}
    .fil2 {fill:#FEFEFE;fill-rule:nonzero}
    .fil0 {fill:black;fill-rule:nonzero}
   ]]>
  </style>
 </defs>
 <g id="Layer_x0020_1">
  <metadata id="CorelCorpID_0Corel-Layer"/>
  <path class="fil0" d="M85.89 24.73l-38.41 -18.55c-0.34,-0.16 -0.74,-0.16 -1.08,0l-38.41 18.55c-0.43,0.2 -0.7,0.64 -0.7,1.11l0 45.04c0,0.47 0.27,0.9 0.7,1.11l38.41 18.54c0.17,0.09 0.36,0.13 0.54,0.13 0.18,0 0.37,-0.04 0.54,-0.13l38.41 -18.54c0.43,-0.21 0.7,-0.64 0.7,-1.11l0 -45.04c0,-0.47 -0.27,-0.91 -0.7,-1.11zm-38.95 -16.05l35.56 17.16 -10.31 4.98c-0.06,-0.05 -0.13,-0.1 -0.21,-0.13l-35.32 -17.05 10.28 -4.96zm-13.08 6.36l35.51 17.14 -7.27 3.51 -35.49 -17.13 7.25 -3.52zm36.34 19.49l0 12.98 -6.79 3.28 0 -12.98 6.79 -3.28zm13.91 35.57l-35.93 17.34 0 -42.28 8.57 -4.13c0.62,-0.3 0.87,-1.04 0.58,-1.66 -0.3,-0.62 -1.04,-0.87 -1.66,-0.58l-8.73 4.22 -3.44 -1.66c-0.61,-0.3 -1.35,-0.04 -1.65,0.58 -0.3,0.61 -0.04,1.36 0.58,1.65l3.27 1.58 0 42.28 -35.93 -17.34 0 -42.28 27.36 13.21c0.17,0.08 0.36,0.12 0.54,0.12 0.46,0 0.9,-0.26 1.12,-0.7 0.29,-0.62 0.03,-1.36 -0.58,-1.66l-26.83 -12.95 12.31 -5.94 37.22 17.97c0.01,0.01 0.02,0.01 0.02,0.02l0 14.87c0,0.43 0.22,0.83 0.58,1.05 0.2,0.13 0.43,0.19 0.66,0.19 0.19,0 0.37,-0.04 0.54,-0.12l9.27 -4.48c0.43,-0.2 0.7,-0.64 0.7,-1.11l0 -14.96 11.43 -5.51 0 42.28z"/>
  <rect class="fil1" transform="matrix(1.07685 0.564341 0.0573811 1.40268 11.9383 30.2943)" width="28.06" height="28.06" rx="2.01" ry="2.01"/>
  <path class="fil2" d="M24.1 66.5l-5.64 -2.72c-0.61,-0.3 -1.35,-0.04 -1.65,0.58 -0.3,0.61 -0.04,1.35 0.58,1.65l5.63 2.72c0.18,0.09 0.36,0.12 0.54,0.12 0.46,0 0.9,-0.25 1.12,-0.7 0.3,-0.61 0.04,-1.35 -0.58,-1.65z"/>
  <path class="fil2" d="M29.29 63.12l-10.82 -5.22c-0.61,-0.3 -1.35,-0.04 -1.65,0.58 -0.3,0.61 -0.04,1.36 0.57,1.65l10.82 5.22c0.17,0.09 0.36,0.13 0.54,0.13 0.46,0 0.9,-0.26 1.12,-0.7 0.29,-0.62 0.04,-1.36 -0.58,-1.66z"/>
  <rect class="fil3" width="94.59" height="94.59"/>
 </g>
</svg>
