<svg xmlns:svg="http://www.w3.org/2000/svg" id="svg4593" height="512" viewBox="0 0 16.933333 16.933334" width="512"
     xmlns="http://www.w3.org/2000/svg">
    <clipPath id="clipPath5337">
        <path id="rect5339" d="m34.774 274.321h35.435v25.702h-35.435z"/>
    </clipPath>
    <clipPath id="clipPath4542">
        <path id="rect4544" d="m-535.214-48.848h501.574v185.586h-501.574z"/>
    </clipPath>
    <clipPath id="clipPath11017">
        <path id="rect11019" d="m36.669 153.503h29.654v28.999h-29.654z" transform="rotate(-90)" vector-effect="none"/>
    </clipPath>
    <clipPath id="clipPath11444">
        <path id="rect11446" d="m-143.933 265.779h28.84v29.104h-28.84z" transform="rotate(-90)" vector-effect="none"/>
    </clipPath>
    <clipPath id="clipPath11781">
        <rect id="rect11783" height="32.411" rx=".634" transform="rotate(-90)" width="32.941" x="-145.124" y="181.377"/>
    </clipPath>
    <clipPath id="clipPath11499">
        <path id="rect11501" d="m-551.399-9.261h16.064v16.347h-16.064z" vector-effect="none"/>
    </clipPath>
    <g id="layer1" transform="translate(0 -280.067)">
        <circle id="path34863-8" cx="8.467" cy="288.533" fill="#ffc861" r="7.938"/>
        <path id="path35244-8"
              d="m15.46882 287.71215c.8196 5.66444-5.93651 10.35195-10.9337 6.64869-.3861-.22689-.86339.10719-.79211.5493 1.36521 1.01559 3.02212 1.55683 4.72365 1.56013 4.38376 0 7.9375-3.55374 7.9375-7.9375-.00003-.45048-.0384-.90013-.11472-1.3441-.40918-.23994-.87988.0804-.82062.52348z"
              fill="#ffab61" font-variant-ligatures="normal" font-variant-position="normal" font-variant-caps="normal"
              font-variant-numeric="normal" font-variant-alternates="normal" font-feature-settings="normal"
              text-indent="0" text-align="start" text-decoration-line="none" text-decoration-style="solid"
              text-decoration-color="#000000" text-transform="none" text-orientation="mixed" white-space="normal"
              shape-padding="0" isolation="auto" mix-blend-mode="normal" solid-color="#000000" solid-opacity="1"
              vector-effect="none"/>
        <path id="path10354-7"
              d="m6.0523417 288.0792a.67799479.67799479 0 0 0 -.67799.67799.67799479.67799479 0 0 0 .67799.678.67799479.67799479 0 0 0 .678-.678.67799479.67799479 0 0 0 -.678-.67799zm4.8286503 0a.67799479.67799479 0 0 0 -.678.67799.67799479.67799479 0 0 0 .678.678.67799479.67799479 0 0 0 .67799-.678.67799479.67799479 0 0 0 -.67799-.67799z"
              fill="#4d4d4d" vector-effect="none"/>
        <path id="path4017"
              d="m6.0078232 291.57568c-.26723.24446.11313.63899.36719.38086.89539-.74097 2.27641-1.5692 3.31055-.93359.31073.20106.5941398-.28657.26562-.45703-1.38087-.74685-2.80576.0165-3.94336 1.00976z"
              fill="#4d4d4d" font-variant-ligatures="normal" font-variant-position="normal" font-variant-caps="normal"
              font-variant-numeric="normal" font-variant-alternates="normal" font-feature-settings="normal"
              text-indent="0" text-align="start" text-decoration-line="none" text-decoration-style="solid"
              text-decoration-color="#000000" text-transform="none" text-orientation="mixed" white-space="normal"
              shape-padding="0" isolation="auto" mix-blend-mode="normal" solid-color="#000000" solid-opacity="1"
              vector-effect="none"/>
        <path id="path20125"
              d="m4.6609613 288.00832c-.35286 0-.35286.52929 0 .52929h7.5397147c.35286 0 .35286-.52929 0-.52929z"
              fill="#4d4d4d" font-variant-ligatures="normal" font-variant-position="normal" font-variant-caps="normal"
              font-variant-numeric="normal" font-variant-alternates="normal" font-feature-settings="normal"
              text-indent="0" text-align="start" text-decoration-line="none" text-decoration-style="solid"
              text-decoration-color="#000000" text-transform="none" text-orientation="mixed" white-space="normal"
              shape-padding="0" isolation="auto" mix-blend-mode="normal" solid-color="#000000" solid-opacity="1"
              vector-effect="none"/>
        <g fill="#ef6356">
            <path id="path10824"
                  d="m9.5887776 283.88187c.3112356.25014.1378205.60603-.039063.78711-.2499999.25.1250001.625.375.375.5341874-.53481.4728034-1.2375-.037109-1.59961-.3090908-.18048-.5836996.23135-.298828.4375z"
                  font-variant-ligatures="normal" font-variant-position="normal" font-variant-caps="normal"
                  font-variant-numeric="normal" font-variant-alternates="normal" font-feature-settings="normal"
                  text-indent="0" text-align="start" text-decoration-line="none" text-decoration-style="solid"
                  text-decoration-color="#000000" text-transform="none" text-orientation="mixed" white-space="normal"
                  shape-padding="0" isolation="auto" mix-blend-mode="normal" solid-color="#000000" solid-opacity="1"
                  vector-effect="none"/>
            <path id="path10828"
                  d="m11.380038 282.80419c-.246162.3144-.604226.14552-.787546-.029-.253136-.24683-.6233549.13294-.370194.37973.541569.52733 1.243418.45702 1.599006-.0575.176523-.31136-.23876-.58071-.441286-.29321z"
                  font-variant-ligatures="normal" font-variant-position="normal" font-variant-caps="normal"
                  font-variant-numeric="normal" font-variant-alternates="normal" font-feature-settings="normal"
                  text-indent="0" text-align="start" text-decoration-line="none" text-decoration-style="solid"
                  text-decoration-color="#000000" text-transform="none" text-orientation="mixed" white-space="normal"
                  shape-padding="0" isolation="auto" mix-blend-mode="normal" solid-color="#000000" solid-opacity="1"
                  vector-effect="none"/>
            <path id="path10830"
                  d="m11.59354 285.62265c-.271959-.29237-.614395-.0937-.782237.0958-.231296.26739-.632389-.0796-.401097-.34695.494846-.5714 1.200135-.56091 1.598115-.0785.202326.29526-.188609.59888-.414781.32965z"
                  font-variant-ligatures="normal" font-variant-position="normal" font-variant-caps="normal"
                  font-variant-numeric="normal" font-variant-alternates="normal" font-feature-settings="normal"
                  text-indent="0" text-align="start" text-decoration-line="none" text-decoration-style="solid"
                  text-decoration-color="#000000" text-transform="none" text-orientation="mixed" white-space="normal"
                  shape-padding="0" isolation="auto" mix-blend-mode="normal" solid-color="#000000" solid-opacity="1"
                  vector-effect="none"/>
            <path id="path10832"
                  d="m12.539075 283.75824c-.295807.26823-.101517.61317.08578.7834.264465.23466-.08758.63134-.352008.39666-.565057-.50209-.545604-1.20719-.0581-1.59899.297802-.19855.596437.19618.324307.41897z"
                  font-variant-ligatures="normal" font-variant-position="normal" font-variant-caps="normal"
                  font-variant-numeric="normal" font-variant-alternates="normal" font-feature-settings="normal"
                  text-indent="0" text-align="start" text-decoration-line="none" text-decoration-style="solid"
                  text-decoration-color="#000000" text-transform="none" text-orientation="mixed" white-space="normal"
                  shape-padding="0" isolation="auto" mix-blend-mode="normal" solid-color="#000000" solid-opacity="1"
                  vector-effect="none"/>
        </g>
    </g>
</svg>