

<svg id="svg4593" height="512" viewBox="0 0 16.933333 16.933334" width="512" xmlns="http://www.w3.org/2000/svg" xmlns:svg="http://www.w3.org/2000/svg"><clipPath id="clipPath5337"><path id="rect5339" d="m34.774 274.321h35.435v25.702h-35.435z"/></clipPath><clipPath id="clipPath4542"><path id="rect4544" d="m-535.214-48.848h501.574v185.586h-501.574z"/></clipPath><clipPath id="clipPath11017"><path id="rect11019" d="m36.669 153.503h29.654v28.999h-29.654z" transform="rotate(-90)" vector-effect="none"/></clipPath><clipPath id="clipPath11444"><path id="rect11446" d="m-143.933 265.779h28.84v29.104h-28.84z" transform="rotate(-90)" vector-effect="none"/></clipPath><clipPath id="clipPath11781"><rect id="rect11783" height="32.411" rx=".634" transform="rotate(-90)" width="32.941" x="-145.124" y="181.377"/></clipPath><clipPath id="clipPath11499"><path id="rect11501" d="m-551.399-9.261h16.064v16.347h-16.064z" vector-effect="none"/></clipPath><g id="layer1" transform="translate(0 -280.067)"><circle id="path34863-0" cx="8.467" cy="288.533" fill="#ffc861" r="7.938"/><path id="path35244-56" d="m15.468824 287.71214c.8196 5.66444-5.93651 10.35196-10.9337 6.64869-.3861-.22689-.86339.10719-.79211.54931 1.36521 1.01559 3.02212 1.55682 4.72365 1.56013 4.38376-.00001 7.9375-3.55374 7.9375-7.9375-.00003-.45048-.0384-.90014-.11472-1.34411-.40918-.23994-.87988.0803-.82062.52348z" fill="#ffab61" font-variant-ligatures="normal" font-variant-position="normal" font-variant-caps="normal" font-variant-numeric="normal" font-variant-alternates="normal" font-feature-settings="normal" text-indent="0" text-align="start" text-decoration-line="none" text-decoration-style="solid" text-decoration-color="#000000" text-transform="none" text-orientation="mixed" white-space="normal" shape-padding="0" isolation="auto" mix-blend-mode="normal" solid-color="#000000" solid-opacity="1" vector-effect="none"/><path id="path25819" d="m5.2265542 288.53332s-1.1690971 1.1769-1.9564696 1.96112c-.2928723-.36003-.732203-.56917-1.1963094-.56948-.8521108.00023-1.54282475.69095-1.54305824 1.54306.00072231.64476.40214822 1.22114 1.00665684 1.44539-.6047128 1.38341.6249643 2.84324 1.7683676 2.84324.9763951-.001 1.8050785-.71638 1.9492349-1.68207.4765987.14999 1.0908895-.15453 1.0908895-.93586 0-.64326-.5314741-.93581-1.0572999-.94103l.6826457-3.19929c.1547198-.57742-.4092345-.80051-.7446574-.46508z" fill="#55a1ff" vector-effect="none"/><path id="path25996" d="m11.711239 288.53331s1.169097 1.17691 1.95647 1.96113c.292872-.36003.732203-.56917 1.196309-.56948.852111.00023 1.542825.69095 1.543058 1.54306-.000722.64476-.402148 1.22114-1.006657 1.44539.604713 1.38341-.624964 2.84324-1.768367 2.84324-.976395-.001-1.805079-.71638-1.949235-1.68207-.476599.14999-1.09089-.15453-1.09089-.93586 0-.64326.531475-.93581 1.0573-.94103l-.682645-3.19929c-.15472-.57742.409234-.80051.744657-.46509z" fill="#55a1ff" vector-effect="none"/><path id="path26051" d="m9.234375 42.644531c-2.1963549 0-4.9006608 1.419635-6.4125842 3.423835.3768161.588288 1.1619238 1.783683 2.9887561 2.486322.7571198-1.452362 2.3183983-3.155316 5.4698031-3.028925.544109-1.870864-.884861-2.852586-2.045975-2.881232z" fill="#488bff" transform="matrix(.265 0 0 .265 0 280.067)" font-variant-ligatures="normal" font-variant-position="normal" font-variant-caps="normal" font-variant-numeric="normal" font-variant-alternates="normal" font-feature-settings="normal" text-indent="0" text-align="start" text-decoration-line="none" text-decoration-style="solid" text-decoration-color="#000000" text-transform="none" text-orientation="mixed" white-space="normal" shape-padding="0" isolation="auto" mix-blend-mode="normal" solid-color="#000000" solid-opacity="1" vector-effect="none"/><path id="path26059" d="m14.494531 291.34968c.581119 0 1.296633.37561 1.696663.90589-.0997.15565-.307426.47193-.790775.65784-.253287-.48587-.584471-.71082-1.41828-.67738-.143962-.495.205181-.87877.512392-.88635z" fill="#488bff" font-variant-ligatures="normal" font-variant-position="normal" font-variant-caps="normal" font-variant-numeric="normal" font-variant-alternates="normal" font-feature-settings="normal" text-indent="0" text-align="start" text-decoration-line="none" text-decoration-style="solid" text-decoration-color="#000000" text-transform="none" text-orientation="mixed" white-space="normal" shape-padding="0" isolation="auto" mix-blend-mode="normal" solid-color="#000000" solid-opacity="1" vector-effect="none"/><g fill="#4d4d4d"><path id="path6831" d="m26.384766 18.066406c-.499994 0-1 .333159-1 1-.203717 3.650759-5.360623 3.224429-5.425782 0 0-1.317127-2-1.31743-2 0 0 6.322394 9.425782 6.317859 9.425782 0 0-.666841-.500007-1-1-1z" transform="matrix(.265 0 0 .265 0 280.067)" font-variant-ligatures="normal" font-variant-position="normal" font-variant-caps="normal" font-variant-numeric="normal" font-variant-alternates="normal" font-feature-settings="normal" text-indent="0" text-align="start" text-decoration-line="none" text-decoration-style="solid" text-decoration-color="#000000" text-transform="none" text-orientation="mixed" white-space="normal" shape-padding="0" isolation="auto" mix-blend-mode="normal" solid-color="#000000" solid-opacity="1" vector-effect="none"/><path id="path6829" d="m37.611328 17.990234c-.499994.017566-1 .393476-1 1.076172 0 6.317859 9.425781 6.322394 9.425781 0 0-1.333644-2-1.333644-2 0-.065007 3.224429-5.222064 3.650759-5.425781 0 0-.752957-.500006-1.093737-1-1.076172z" transform="matrix(.265 0 0 .265 0 280.067)" font-variant-ligatures="normal" font-variant-position="normal" font-variant-caps="normal" font-variant-numeric="normal" font-variant-alternates="normal" font-feature-settings="normal" text-indent="0" text-align="start" text-decoration-line="none" text-decoration-style="solid" text-decoration-color="#000000" text-transform="none" text-orientation="mixed" white-space="normal" shape-padding="0" isolation="auto" mix-blend-mode="normal" solid-color="#000000" solid-opacity="1" vector-effect="none"/><path id="path6827" d="m18.441406 9.9960938c-.7087.2514192-1.072423 1.3250602-.205078 1.8085942l6.458984 3.728515c1.188662.814375 2.298054-1.107123.998047-1.728515l-6.460937-3.734376c-.280006-.1515964-.554782-.1580245-.791016-.0742182z" transform="matrix(.265 0 0 .265 0 280.067)" font-variant-ligatures="normal" font-variant-position="normal" font-variant-caps="normal" font-variant-numeric="normal" font-variant-alternates="normal" font-feature-settings="normal" text-indent="0" text-align="start" text-decoration-line="none" text-decoration-style="solid" text-decoration-color="#000000" text-transform="none" text-orientation="mixed" white-space="normal" shape-padding="0" isolation="auto" mix-blend-mode="normal" solid-color="#000000" solid-opacity="1" vector-effect="none"/><path id="path6825" d="m45.619141 9.9082031c-.261854-.0612803-.562225-.0233898-.855469.1621089l-6.460938 3.734376c-1.299968.621392-.190501 2.54289.998047 1.728515l6.458985-3.728515c1.089467-.63876.644935-1.712644-.140625-1.8964849z" transform="matrix(.265 0 0 .265 0 280.067)" font-variant-ligatures="normal" font-variant-position="normal" font-variant-caps="normal" font-variant-numeric="normal" font-variant-alternates="normal" font-feature-settings="normal" text-indent="0" text-align="start" text-decoration-line="none" text-decoration-style="solid" text-decoration-color="#000000" text-transform="none" text-orientation="mixed" white-space="normal" shape-padding="0" isolation="auto" mix-blend-mode="normal" solid-color="#000000" solid-opacity="1" vector-effect="none"/><path id="path6991" d="m6.6367188 289.57617c-.3164114.18921-.00757.65766.2910156.44141 0 0 1.3814606-.9244 2.9960937.008.3141209.21323.6055559-.29214.2636719-.45722-1.1372909-.6147-2.3210098-.72283-3.5507812.008z" font-variant-ligatures="normal" font-variant-position="normal" font-variant-caps="normal" font-variant-numeric="normal" font-variant-alternates="normal" font-feature-settings="normal" text-indent="0" text-align="start" text-decoration-line="none" text-decoration-style="solid" text-decoration-color="#000000" text-transform="none" text-orientation="mixed" white-space="normal" shape-padding="0" isolation="auto" mix-blend-mode="normal" solid-color="#000000" solid-opacity="1" vector-effect="none"/></g></g></svg>