

<svg id="svg4593" height="512" viewBox="0 0 16.933333 16.933334" width="512" xmlns="http://www.w3.org/2000/svg" xmlns:svg="http://www.w3.org/2000/svg"><clipPath id="clipPath5337"><path id="rect5339" d="m34.774 274.321h35.435v25.702h-35.435z"/></clipPath><clipPath id="clipPath4542"><path id="rect4544" d="m-535.214-48.848h501.574v185.586h-501.574z"/></clipPath><clipPath id="clipPath11017"><path id="rect11019" d="m36.669 153.503h29.654v28.999h-29.654z" transform="rotate(-90)" vector-effect="none"/></clipPath><clipPath id="clipPath11444"><path id="rect11446" d="m-143.933 265.779h28.84v29.104h-28.84z" transform="rotate(-90)" vector-effect="none"/></clipPath><clipPath id="clipPath11781"><rect id="rect11783" height="32.411" rx=".634" transform="rotate(-90)" width="32.941" x="-145.124" y="181.377"/></clipPath><clipPath id="clipPath11499"><path id="rect11501" d="m-551.399-9.261h16.064v16.347h-16.064z" vector-effect="none"/></clipPath><g id="layer1" transform="translate(0 -280.067)"><path id="path34863-8" d="m16.404171 288.53278a7.9375048 7.9375048 0 0 1 -7.9375048 7.9375 7.9375048 7.9375048 0 0 1 -7.93750475-7.9375 7.9375048 7.9375048 0 0 1 7.93750475-7.93751 7.9375048 7.9375048 0 0 1 7.9375048 7.93751z" fill="#ffc861" vector-effect="none"/><path id="path35244-8" d="m15.46882 287.71215c.8196 5.66444-5.93651 10.35195-10.9337 6.64869-.3861-.22689-.86339.10719-.79211.5493 1.36521 1.01559 3.02212 1.55683 4.72365 1.56013 4.38376 0 7.9375-3.55374 7.9375-7.9375-.00003-.45048-.0384-.90013-.11472-1.3441-.40918-.23994-.87988.0804-.82062.52348z" fill="#ffab61" font-variant-ligatures="normal" font-variant-position="normal" font-variant-caps="normal" font-variant-numeric="normal" font-variant-alternates="normal" font-feature-settings="normal" text-indent="0" text-align="start" text-decoration-line="none" text-decoration-style="solid" text-decoration-color="#000000" text-transform="none" text-orientation="mixed" white-space="normal" shape-padding="0" isolation="auto" mix-blend-mode="normal" solid-color="#000000" solid-opacity="1" vector-effect="none"/><g fill="#4d4d4d"><g id="g5416" transform="translate(.841)"><path id="path10354" d="m14.046875 16.734375c-1.363604-.03062-1.363604 2.030615 0 2h6.332031c-.497031 1.694016.734801 3.125 2.49609 3.125 1.41523 0 2.5625-1.14727 2.5625-2.5625 0-1.540222-1.290725-2.5625-2.5625-2.5625z" transform="matrix(.265 0 0 .265 0 280.067)" vector-effect="none"/><path id="path5412" d="m8.7913491 284.49429c-.3607869-.008-.3607869.53726 0 .52916h1.6753499c-.131506.44821.194416.82683.660424.82683.374446 0 .677995-.30355.677995-.678 0-.40752-.341505-.67799-.677995-.67799z" vector-effect="none"/></g><path id="rect5418" d="m6.0387362 288.39532c-.9366065.0257-1.6826542.79213-1.6831014 1.72909-.0000407.95583.7748186 1.73069 1.7306436 1.73065.4082594-.00085.8030762-.14599 1.1146607-.4098.3123986.26449.7084353.40969 1.1177611.4098.4796875-.001.937441-.20106 1.2640056-.55242.3270544.35189.7856662.55199 1.2660722.55242.955623-.00025 1.730168-.77502 1.730127-1.73065.000041-.95562-.774504-1.73039-1.730127-1.73064-1.6718537.0107-3.3702626-.006-4.8100418.002z" vector-effect="none"/></g></g></svg>