

<svg id="svg4593" height="512" viewBox="0 0 16.933333 16.933334" width="512" xmlns="http://www.w3.org/2000/svg" xmlns:svg="http://www.w3.org/2000/svg"><clipPath id="clipPath5337"><path id="rect5339" d="m34.774 274.321h35.435v25.702h-35.435z"/></clipPath><clipPath id="clipPath4542"><path id="rect4544" d="m-535.214-48.848h501.574v185.586h-501.574z"/></clipPath><clipPath id="clipPath11017"><path id="rect11019" d="m36.669 153.503h29.654v28.999h-29.654z" transform="rotate(-90)" vector-effect="none"/></clipPath><clipPath id="clipPath11444"><path id="rect11446" d="m-143.933 265.779h28.84v29.104h-28.84z" transform="rotate(-90)" vector-effect="none"/></clipPath><clipPath id="clipPath11781"><rect id="rect11783" height="32.411" rx=".634" transform="rotate(-90)" width="32.941" x="-145.124" y="181.377"/></clipPath><clipPath id="clipPath11499"><path id="rect11501" d="m-551.399-9.261h16.064v16.347h-16.064z" vector-effect="none"/></clipPath><g id="layer1" transform="translate(0 -280.067)"><circle id="path34863-0" cx="8.467" cy="288.533" fill="#ffc861" r="7.938"/><path id="path35244-56" d="m15.468824 287.71214c.8196 5.66444-5.93651 10.35196-10.9337 6.64869-.3861-.22689-.86339.10719-.79211.54931 1.36521 1.01559 3.02212 1.55682 4.72365 1.56013 4.38376-.00001 7.9375-3.55374 7.9375-7.9375-.00003-.45048-.0384-.90014-.11472-1.34411-.40918-.23994-.87988.0803-.82062.52348z" fill="#ffab61" font-variant-ligatures="normal" font-variant-position="normal" font-variant-caps="normal" font-variant-numeric="normal" font-variant-alternates="normal" font-feature-settings="normal" text-indent="0" text-align="start" text-decoration-line="none" text-decoration-style="solid" text-decoration-color="#000000" text-transform="none" text-orientation="mixed" white-space="normal" shape-padding="0" isolation="auto" mix-blend-mode="normal" solid-color="#000000" solid-opacity="1" vector-effect="none"/><g fill="#4d4d4d"><path id="path29001" d="m4.791015 289.48633s-.04789.30638.07813.63086c.126015.32448.488268.66601 1.097656.66601h5.402345c.382521.0323.382521-.55967 0-.52734h-5.402345c-.442289 0-.538025-.15642-.605469-.33008-.06744-.17366-.04492-.40908-.04492-.40908 0-.39089-.52539-.41151-.52539-.0304z" font-variant-ligatures="normal" font-variant-position="normal" font-variant-caps="normal" font-variant-numeric="normal" font-variant-alternates="normal" font-feature-settings="normal" text-indent="0" text-align="start" text-decoration-line="none" text-decoration-style="solid" text-decoration-color="#000000" text-transform="none" text-orientation="mixed" white-space="normal" shape-padding="0" isolation="auto" mix-blend-mode="normal" solid-color="#000000" solid-opacity="1" vector-effect="none"/><path id="path10354-7-0" d="m5.230688 286.99542.772046.44545c-.113847.12472-.177054.28744-.17725.4563 0 .37445.303548.678.677994.678.374447 0 .677995-.30355.677995-.678-.000476-.26541-.155778-.50613-.397392-.61598l-1.28881-.74414c-.306495-.17695-.566258.2842-.264583.45837zm6.207373-.45837-1.28881.74414c-.241614.10985-.396914.35057-.397392.61598 0 .37445.303549.678.677995.678s.677995-.30355.677995-.678c-.000196-.16886-.0634-.33158-.17725-.4563l.772046-.44545c.329099-.19001.0584-.64485-.264584-.45837z" vector-effect="none"/></g></g></svg>