

<svg id="svg4593" height="512" viewBox="0 0 16.933333 16.933334" width="512" xmlns="http://www.w3.org/2000/svg" xmlns:svg="http://www.w3.org/2000/svg"><clipPath id="clipPath5337"><path id="rect5339" d="m34.774 274.321h35.435v25.702h-35.435z"/></clipPath><clipPath id="clipPath4542"><path id="rect4544" d="m-535.214-48.848h501.574v185.586h-501.574z"/></clipPath><clipPath id="clipPath11017"><path id="rect11019" d="m36.669 153.503h29.654v28.999h-29.654z" transform="rotate(-90)" vector-effect="none"/></clipPath><clipPath id="clipPath11444"><path id="rect11446" d="m-143.933 265.779h28.84v29.104h-28.84z" transform="rotate(-90)" vector-effect="none"/></clipPath><clipPath id="clipPath11781"><rect id="rect11783" height="32.411" rx=".634" transform="rotate(-90)" width="32.941" x="-145.124" y="181.377"/></clipPath><clipPath id="clipPath11499"><path id="rect11501" d="m-551.399-9.261h16.064v16.347h-16.064z" vector-effect="none"/></clipPath><g id="layer1" transform="translate(0 -280.067)"><circle id="path34863-22" cx="8.467" cy="288.533" fill="#ffc861" r="7.938"/><path id="path35244-9" d="m15.46882 287.71214c.8196 5.66444-5.93651 10.35196-10.9337 6.64869-.3861-.22689-.86339.10719-.79211.54931 1.36521 1.01559 3.02212 1.55682 4.72365 1.56013 4.38376-.00001 7.9375-3.55374 7.9375-7.9375-.00003-.45048-.0384-.90014-.11472-1.34411-.40918-.23994-.87988.0803-.82062.52348z" fill="#ffab61" font-variant-ligatures="normal" font-variant-position="normal" font-variant-caps="normal" font-variant-numeric="normal" font-variant-alternates="normal" font-feature-settings="normal" text-indent="0" text-align="start" text-decoration-line="none" text-decoration-style="solid" text-decoration-color="#000000" text-transform="none" text-orientation="mixed" white-space="normal" shape-padding="0" isolation="auto" mix-blend-mode="normal" solid-color="#000000" solid-opacity="1" vector-effect="none"/><path id="path16732-32" d="m4.13321 289.41117c-.60034 0-1.07616.54948-.85886 1.27227.77597 2.53177 2.82839 4.29287 5.19038 4.29587 2.65629 0 4.58428-2.46232 5.19245-4.29587.21729-.72279-.25853-1.27227-.85887-1.27227-2.88836 0-5.77674 0-8.6651 0z" fill="#ef6356" vector-effect="none"/><path id="path16770-3" d="m9.87601 289.41117v1.47795c0 .36512-.21187.69505-.61495.69505h-1.09399c-.70573 0-.70573 1.05885 0 1.05885h1.14826c.91955 0 1.61953-.61522 1.61953-1.69344.00005-.51055.00002-1.02495 0-1.53841z" fill="#d85750" font-variant-ligatures="normal" font-variant-position="normal" font-variant-caps="normal" font-variant-numeric="normal" font-variant-alternates="normal" font-feature-settings="normal" text-indent="0" text-align="start" text-decoration-line="none" text-decoration-style="solid" text-decoration-color="#000000" text-transform="none" text-orientation="mixed" white-space="normal" shape-padding="0" isolation="auto" mix-blend-mode="normal" solid-color="#000000" solid-opacity="1" vector-effect="none"/><g fill="#4d4d4d"><g id="g27614" transform="translate(0 -1.006)"><path id="rect27375" d="m13.074219 14.123047c-2.171537 0-3.7447386 1.811908-3.7734378 3.875v2c-.6293404-.000027-1.2835824 0-1.9042968 0-1.3025296.09648-1.202014 2.038512.1035156 2h1.8007812v.501953c0 5.506772 4.4656188 9.972656 9.9726568 9.972656s9.966796-4.465884 9.966796-9.972656v-.675781c1.214287-2.520932 4.530881-2.198934 5.513672-.02344v.699221c0 5.506772 4.46562 9.972656 9.972656 9.972656 5.50704 0 9.972657-4.465884 9.972657-9.972656v-.501953h1.927734c1.363604.03062 1.363604-2.030615 0-2h-1.927734v-2.15625c0-2.36835-1.718834-3.689558-3.734375-3.71875h-12.439453c-2.179089 0-3.74241 1.818952-3.771485 3.875v.740234c-1.575722-1.173617-4.089587-1.222887-5.513672.011719v-.908203c0-2.341996-1.6917-3.71875-3.728515-3.71875zm0 2h12.4375c1.293528.05885 1.726562.67661 1.726562 1.71875v4.658203c0 4.433575-3.53155 7.972656-7.964843 7.972656s-7.972657-3.539081-7.972657-7.972656v-4.501953c.07239-1.315023.7086-1.875 1.773438-1.875zm25.451172 0h12.439453c1.293273.05812 1.734375.648872 1.734375 1.71875v4.658203c0 4.433575-3.539361 7.972656-7.972657 7.972656-4.433291 0-7.972656-3.539081-7.972656-7.972656v-4.501953c0-1.297238.697426-1.875 1.771485-1.875z" fill="#4d4d4d" transform="matrix(.265 0 0 .265 0 281.142)" font-variant-ligatures="normal" font-variant-position="normal" font-variant-caps="normal" font-variant-numeric="normal" font-variant-alternates="normal" font-feature-settings="normal" text-indent="0" text-align="start" text-decoration-line="none" text-decoration-style="solid" text-decoration-color="#000000" text-transform="none" text-orientation="mixed" white-space="normal" shape-padding="0" isolation="auto" mix-blend-mode="normal" solid-color="#000000" solid-opacity="1" vector-effect="none"/></g><path id="path27619" d="m11.909267 285.49953a.67799478.67799478 0 0 0 -.677995.67799.67799478.67799478 0 0 0 .677995.678.67799478.67799478 0 0 0 .677994-.678.67799478.67799478 0 0 0 -.677994-.67799z" vector-effect="none"/><path id="path10354-4" d="m4.9992598 285.49953a.67799478.67799478 0 0 0 -.6779948.67799.67799478.67799478 0 0 0 .6779948.678.67799478.67799478 0 0 0 .6779948-.678.67799478.67799478 0 0 0 -.6779948-.67799z" vector-effect="none"/></g><path id="rect3816-3-2" d="m6.82866 289.41118v1.39475c0 .57006.45881 1.02888 1.02887 1.02888h1.21647c.57006 0 1.02887-.45882 1.02887-1.02888v-1.39475z" fill="#d1dcff" vector-effect="none"/></g></svg>