<!--
  - Copyright (c) 2023. Selldone® Business OS™
  -
  - Author: M.Pajuhaan
  - Web: https://selldone.com
  - ━━━━━━━━━━━━━━━━━━━━━━━━━━━━━━━━━━━━━━━━━━━━━━━━━━━━━━
  -
  - All rights reserved. In the weave of time, where traditions and innovations intermingle, this content was crafted.
  - From the essence of thought, through the corridors of creativity, each word, and sentiment has been molded.
  - Not just to exist, but to inspire. Like an artist's stroke or a sculptor's chisel, every nuance is deliberate.
  - Our journey is not just about reaching a destination, but about creating a masterpiece.
  - Tread carefully, for you're treading on dreams.
  -->

<svg id="svg4593" height="512" viewBox="0 0 16.933333 16.933334" width="512" xmlns="http://www.w3.org/2000/svg" xmlns:svg="http://www.w3.org/2000/svg"><clipPath id="clipPath5337"><path id="rect5339" d="m34.774 274.321h35.435v25.702h-35.435z"/></clipPath><clipPath id="clipPath4542"><path id="rect4544" d="m-535.214-48.848h501.574v185.586h-501.574z"/></clipPath><clipPath id="clipPath11017"><path id="rect11019" d="m36.669 153.503h29.654v28.999h-29.654z" transform="rotate(-90)" vector-effect="none"/></clipPath><clipPath id="clipPath11444"><path id="rect11446" d="m-143.933 265.779h28.84v29.104h-28.84z" transform="rotate(-90)" vector-effect="none"/></clipPath><clipPath id="clipPath11781"><rect id="rect11783" height="32.411" rx=".634" transform="rotate(-90)" width="32.941" x="-145.124" y="181.377"/></clipPath><clipPath id="clipPath11499"><path id="rect11501" d="m-551.399-9.261h16.064v16.347h-16.064z" vector-effect="none"/></clipPath><g id="layer1" transform="translate(0 -280.067)"><circle id="path34863-8-8" cx="8.467" cy="288.533" fill="#ffc861" r="7.938"/><path id="path35244-8-7" d="m15.46882 287.71215c.8196 5.66444-5.93651 10.35195-10.9337 6.64869-.3861-.22689-.86339.10719-.79211.5493 1.36521 1.01559 3.02212 1.55683 4.72365 1.56013 4.38376 0 7.9375-3.55374 7.9375-7.9375-.00003-.45048-.0384-.90013-.11472-1.3441-.40918-.23994-.87988.0804-.82062.52348z" fill="#ffab61" font-variant-ligatures="normal" font-variant-position="normal" font-variant-caps="normal" font-variant-numeric="normal" font-variant-alternates="normal" font-feature-settings="normal" text-indent="0" text-align="start" text-decoration-line="none" text-decoration-style="solid" text-decoration-color="#000000" text-transform="none" text-orientation="mixed" white-space="normal" shape-padding="0" isolation="auto" mix-blend-mode="normal" solid-color="#000000" solid-opacity="1" vector-effect="none"/><path id="path10354-7-4" d="m6.05234 283.18428a.67799479.67799479 0 0 0 -.67799.67799.67799479.67799479 0 0 0 .67799.678.67799479.67799479 0 0 0 .678-.678.67799479.67799479 0 0 0 -.678-.67799zm4.82865 0a.67799479.67799479 0 0 0 -.678.67799.67799479.67799479 0 0 0 .678.678.67799479.67799479 0 0 0 .67799-.678.67799479.67799479 0 0 0 -.67799-.67799z" fill="#4d4d4d" vector-effect="none"/><path id="rect19370" d="m4.4912304 288.39389h7.9512596c.583018 0 1.052378.46936 1.052378 1.05238v.84189c0 .58302-.46936 1.05238-1.052378 1.05238h-7.9512596c-.5830175 0-1.0523782-.46936-1.0523782-1.05238v-.84189c0-.58302.4693607-1.05238 1.0523782-1.05238z" fill="#d1dcff" vector-effect="none"/><path id="rect19528" d="m16.994141 35.867188c-1.395347.069165-1.285973 2.070967.109375 2.001953h33.90039v-2.001953z" fill="#b2ceff" transform="matrix(.265 0 0 .265 0 280.067)" font-variant-ligatures="normal" font-variant-position="normal" font-variant-caps="normal" font-variant-numeric="normal" font-variant-alternates="normal" font-feature-settings="normal" text-indent="0" text-align="start" text-decoration-line="none" text-decoration-style="solid" text-decoration-color="#000000" text-transform="none" text-orientation="mixed" white-space="normal" shape-padding="0" isolation="auto" mix-blend-mode="normal" solid-color="#000000" solid-opacity="1" vector-effect="none"/></g></svg>