<!--
  - Copyright (c) 2023. Selldone® Business OS™
  -
  - Author: M.Pajuhaan
  - Web: https://selldone.com
  - ━━━━━━━━━━━━━━━━━━━━━━━━━━━━━━━━━━━━━━━━━━━━━━━━━━━━━━
  -
  - All rights reserved. In the weave of time, where traditions and innovations intermingle, this content was crafted.
  - From the essence of thought, through the corridors of creativity, each word, and sentiment has been molded.
  - Not just to exist, but to inspire. Like an artist's stroke or a sculptor's chisel, every nuance is deliberate.
  - Our journey is not just about reaching a destination, but about creating a masterpiece.
  - Tread carefully, for you're treading on dreams.
  -->

<svg id="svg4593" height="512" viewBox="0 0 16.933333 16.933334" width="512" xmlns="http://www.w3.org/2000/svg" xmlns:svg="http://www.w3.org/2000/svg"><clipPath id="clipPath5337"><path id="rect5339" d="m34.774 274.321h35.435v25.702h-35.435z"/></clipPath><clipPath id="clipPath4542"><path id="rect4544" d="m-535.214-48.848h501.574v185.586h-501.574z"/></clipPath><clipPath id="clipPath11017"><path id="rect11019" d="m36.669 153.503h29.654v28.999h-29.654z" transform="rotate(-90)" vector-effect="none"/></clipPath><clipPath id="clipPath11444"><path id="rect11446" d="m-143.933 265.779h28.84v29.104h-28.84z" transform="rotate(-90)" vector-effect="none"/></clipPath><clipPath id="clipPath11781"><rect id="rect11783" height="32.411" rx=".634" transform="rotate(-90)" width="32.941" x="-145.124" y="181.377"/></clipPath><clipPath id="clipPath11499"><path id="rect11501" d="m-551.399-9.261h16.064v16.347h-16.064z" vector-effect="none"/></clipPath><g id="layer1" transform="translate(0 -280.067)"><path id="path34863-8" d="m16.404164 288.53278a7.9375048 7.9375048 0 0 1 -7.9375045 7.9375 7.9375048 7.9375048 0 0 1 -7.93750472-7.9375 7.9375048 7.9375048 0 0 1 7.93750472-7.93751 7.9375048 7.9375048 0 0 1 7.9375045 7.93751z" fill="#ffc861" vector-effect="none"/><path id="path35244-8" d="m15.46882 287.71215c.8196 5.66444-5.93651 10.35195-10.9337 6.64869-.3861-.22689-.86339.10719-.79211.5493 1.36521 1.01559 3.02212 1.55683 4.72365 1.56013 4.38376 0 7.9375-3.55374 7.9375-7.9375-.00003-.45048-.0384-.90013-.11472-1.3441-.40918-.23994-.87988.0804-.82062.52348z" fill="#ffab61" font-variant-ligatures="normal" font-variant-position="normal" font-variant-caps="normal" font-variant-numeric="normal" font-variant-alternates="normal" font-feature-settings="normal" text-indent="0" text-align="start" text-decoration-line="none" text-decoration-style="solid" text-decoration-color="#000000" text-transform="none" text-orientation="mixed" white-space="normal" shape-padding="0" isolation="auto" mix-blend-mode="normal" solid-color="#000000" solid-opacity="1" vector-effect="none"/><path id="rect18945" d="m1.0893393 283.55583c-.27855149 0-.50281166.22426-.50281166.50281v.65939c0 .27856.22426017.50282.50281166.50282h.42323v.68988c0 1.94217 1.5635541 3.50573 3.5057291 3.50573 1.9421753 0 3.5057291-1.56356 3.5057291-3.50573 0 1.94217 1.5635545 3.50573 3.5057295 3.50573 1.942176 0 3.505729-1.56356 3.505729-3.50573v-.68988h.308508c.278552 0 .502812-.22426.502812-.50282v-.65939c0-.27855-.22426-.50281-.502812-.50281z" fill="#666" vector-effect="none"/><g fill="#4d4d4d"><path id="path19111" d="m7.0189358 290.50586c0 .59209.4266999 1.13872 1.0664062 1.13872h1.5644531c.3528669 0 .3528669-.5293 0-.5293h-1.5488281c-.3776264 0-.5489729-.3524-.5527343-.60938 0-.39501-.5292969-.37456-.5292969-.00004z" font-variant-ligatures="normal" font-variant-position="normal" font-variant-caps="normal" font-variant-numeric="normal" font-variant-alternates="normal" font-feature-settings="normal" text-indent="0" text-align="start" text-decoration-line="none" text-decoration-style="solid" text-decoration-color="#000000" text-transform="none" text-orientation="mixed" white-space="normal" shape-padding="0" isolation="auto" mix-blend-mode="normal" solid-color="#000000" solid-opacity="1" vector-effect="none"/><path id="path19125" d="m30.716797 23.001953c-.950533-.02268-1.788354.622277-2.001953 1.548828-1.081205 4.878932-5.674333 8.163799-10.990235 7.486328-1.839686-.19053-2.593239 1.653336-2.032533 2.899386 1.044994.263289 2.145731.401396 3.274721.401396 6.813102 0 12.389545-5.073054 13.15625-11.673829-.349682-.37623-.839466-.647482-1.40625-.662109z" transform="matrix(.265 0 0 .265 0 280.067)" font-variant-ligatures="normal" font-variant-position="normal" font-variant-caps="normal" font-variant-numeric="normal" font-variant-alternates="normal" font-feature-settings="normal" text-indent="0" text-align="start" text-decoration-line="none" text-decoration-style="solid" text-decoration-color="#000000" text-transform="none" text-orientation="mixed" white-space="normal" shape-padding="0" isolation="auto" mix-blend-mode="normal" solid-color="#000000" solid-opacity="1" vector-effect="none"/><path id="path19132" d="m15.137576 286.15258c-.251495-.006-.473169.16465-.529684.4098-.286068 1.29088-1.501333 2.16-2.907832 1.98075-.486751-.0504-.686128.43745-.537775.76713.276488.0697.567725.10621.866437.10621 1.802633 0 3.278067-1.34225 3.480924-3.0887-.09252-.0995-.222109-.17132-.37207-.17519z" font-variant-ligatures="normal" font-variant-position="normal" font-variant-caps="normal" font-variant-numeric="normal" font-variant-alternates="normal" font-feature-settings="normal" text-indent="0" text-align="start" text-decoration-line="none" text-decoration-style="solid" text-decoration-color="#000000" text-transform="none" text-orientation="mixed" white-space="normal" shape-padding="0" isolation="auto" mix-blend-mode="normal" solid-color="#000000" solid-opacity="1" vector-effect="none"/></g></g></svg>