<!--
  - Copyright (c) 2023. Selldone® Business OS™
  -
  - Author: M.Pajuhaan
  - Web: https://selldone.com
  - ━━━━━━━━━━━━━━━━━━━━━━━━━━━━━━━━━━━━━━━━━━━━━━━━━━━━━━
  -
  - All rights reserved. In the weave of time, where traditions and innovations intermingle, this content was crafted.
  - From the essence of thought, through the corridors of creativity, each word, and sentiment has been molded.
  - Not just to exist, but to inspire. Like an artist's stroke or a sculptor's chisel, every nuance is deliberate.
  - Our journey is not just about reaching a destination, but about creating a masterpiece.
  - Tread carefully, for you're treading on dreams.
  -->

<svg id="svg4593" height="512" viewBox="0 0 16.933333 16.933334" width="512" xmlns="http://www.w3.org/2000/svg" xmlns:svg="http://www.w3.org/2000/svg"><clipPath id="clipPath5337"><path id="rect5339" d="m34.774 274.321h35.435v25.702h-35.435z"/></clipPath><clipPath id="clipPath4542"><path id="rect4544" d="m-535.214-48.848h501.574v185.586h-501.574z"/></clipPath><clipPath id="clipPath11017"><path id="rect11019" d="m36.669 153.503h29.654v28.999h-29.654z" transform="rotate(-90)" vector-effect="none"/></clipPath><clipPath id="clipPath11444"><path id="rect11446" d="m-143.933 265.779h28.84v29.104h-28.84z" transform="rotate(-90)" vector-effect="none"/></clipPath><clipPath id="clipPath11781"><rect id="rect11783" height="32.411" rx=".634" transform="rotate(-90)" width="32.941" x="-145.124" y="181.377"/></clipPath><clipPath id="clipPath11499"><path id="rect11501" d="m-551.399-9.261h16.064v16.347h-16.064z" vector-effect="none"/></clipPath><g id="layer1" transform="translate(0 -280.067)"><path id="path34863" d="m16.404175 288.53333a7.9375043 7.9375043 0 0 1 -7.937504 7.9375 7.9375043 7.9375043 0 0 1 -7.9375043-7.9375 7.9375043 7.9375043 0 0 1 7.9375043-7.93751 7.9375043 7.9375043 0 0 1 7.937504 7.93751z" fill="#ffc861" vector-effect="none"/><path id="path35244" d="m60.494141 26.566406c-1.260208-.035896-2.238961 1.088869-2.029297 2.332032 3.097691 21.408908-22.437212 39.125499-41.324219 25.128906-1.459263-.857541-3.257682.371966-2.988281 2.042968 5.159874 3.838446 11.416652 5.917192 17.847656 5.929688 16.568539-.000009 29.999991-13.431461 30-30-.000114-1.702595-.145169-3.402091-.433594-5.080078-.316058-.218362-.688312-.341091-1.072265-.353516z" fill="#ffab61" transform="matrix(.265 0 0 .265 0 280.067)" font-variant-ligatures="normal" font-variant-position="normal" font-variant-caps="normal" font-variant-numeric="normal" font-variant-alternates="normal" font-feature-settings="normal" text-indent="0" text-align="start" text-decoration-line="none" text-decoration-style="solid" text-decoration-color="#000000" text-transform="none" text-orientation="mixed" white-space="normal" shape-padding="0" isolation="auto" mix-blend-mode="normal" solid-color="#000000" solid-opacity="1" vector-effect="none"/><g id="g35223" fill="#4d4d4d" transform="translate(-.017)"><path id="path35041" d="m15.542969 13.457031 2.917969 2.917969-2.917969 2.919922c-.978676.945223.478167 2.39404 1.417969 1.410156l2.914062-2.916016 2.916016 2.916016c.939801.983917 2.396678-.464933 1.417968-1.410156l-2.919922-2.919922 2.919922-2.917969c1.028222-1.028222-.48018-2.347944-1.417968-1.410156l-2.916016 2.914063-2.914062-2.914063c-1.09953-1.09953-2.360772.467353-1.417969 1.410156zm24.25 0 2.917969 2.917969-2.917969 2.919922c-1.022461.943299.476963 2.436519 1.416015 1.410156l2.916016-2.916016 2.916016 2.916016c.939801.983917 2.396678-.464933 1.417968-1.410156l-2.919922-2.919922 2.919922-2.917969c1.014793-1.014793-.429002-2.399122-1.417968-1.410156l-2.916016 2.916016-2.916016-2.916016c-1.02165-1.02165-2.379747.446424-1.416015 1.410156z" fill="#4d4d4d" transform="matrix(.265 0 0 .265 .017 280.067)" font-variant-ligatures="normal" font-variant-position="normal" font-variant-caps="normal" font-variant-numeric="normal" font-variant-alternates="normal" font-feature-settings="normal" text-indent="0" text-align="start" text-decoration-line="none" text-decoration-style="solid" text-decoration-color="#000000" text-transform="none" text-orientation="mixed" white-space="normal" shape-padding="0" isolation="auto" mix-blend-mode="normal" solid-color="#000000" solid-opacity="1" vector-effect="none"/></g><path id="path35240" d="m11.238281 289.96094c-.162832.57824-.48231.86546-1.046875.96094h-3.2128904c-.7057265 0-.7057265 1.05859 0 1.05859h3.2246094c1.139994 0 1.938137-.9645 2.074221-1.81641.06174-.75238-.907293-.8277-1.039065-.20312z" fill="#ffab61" font-variant-ligatures="normal" font-variant-position="normal" font-variant-caps="normal" font-variant-numeric="normal" font-variant-alternates="normal" font-feature-settings="normal" text-indent="0" text-align="start" text-decoration-line="none" text-decoration-style="solid" text-decoration-color="#000000" text-transform="none" text-orientation="mixed" white-space="normal" shape-padding="0" isolation="auto" mix-blend-mode="normal" solid-color="#000000" solid-opacity="1" vector-effect="none"/><path id="rect35217" d="m6.5953261 288.53333h3.5537839c.725779 0 1.310071.58429 1.310071 1.31007s-.584292 1.31007-1.310071 1.31007h-3.5537839c-.7257794 0-1.3100711-.58429-1.3100711-1.31007s.5842917-1.31007 1.3100711-1.31007z" fill="#ef6356" vector-effect="none"/></g></svg>