<svg xmlns="http://www.w3.org/2000/svg" width="512" height="512" viewBox="0 0 16.933 16.933"><g transform="translate(0 -280.067)"><circle cx="8.467" cy="288.533" r="7.938" fill="#ffc861"/><path fill="#ffab61" d="M15.469 287.712c.82 5.665-5.937 10.352-10.934 6.649-.386-.227-.863.107-.792.55a7.938 7.938 0 0 0 12.546-7.721.537.537 0 0 0-.82.522"/><circle cx="10.899" cy="285.172" r="2.175" fill="#55a1ff"/><g fill="#4d4d4d"><path d="M10.663 281.792a.26.26 0 0 0-.197.11c-.456.553-.922 1.108-1.374 1.66a2.43 2.43 0 0 0-.619 1.618 2.45 2.45 0 0 0 2.444 2.444c.83 0 1.565-.42 2.007-1.056v6.637c0 2.583 3.42 2.584 3.42 0V289.7a8 8 0 0 1-.53 1.909v1.595c0 1.892-2.36 1.684-2.36 0v-7.741h2.153c.39 0 .349-.53-.028-.53h-2.232a2.447 2.447 0 0 0-2.928-2.146l.455-.548c.205-.205-.001-.459-.211-.448m.254 1.475c1.06 0 1.913.853 1.913 1.913a1.91 1.91 0 0 1-1.913 1.914 1.91 1.91 0 0 1-1.914-1.914c0-1.123.806-1.895 1.914-1.913M6.053 284.494a.68.68 0 0 0-.678.678.68.68 0 0 0 .678.678.68.68 0 0 0 .678-.678.68.68 0 0 0-.678-.678M6.782 289.12c-.277.218.051.634.328.415.618-.465 1.568-.361 2.057.002.28.215.602-.205.322-.42-.863-.612-1.858-.663-2.707.002z"/></g></g></svg>