<svg xmlns:svg="http://www.w3.org/2000/svg" id="svg4593" height="512" viewBox="0 0 16.933333 16.933334" width="512"
     xmlns="http://www.w3.org/2000/svg">
    <clipPath id="clipPath5337">
        <path id="rect5339" d="m34.774 274.321h35.435v25.702h-35.435z"/>
    </clipPath>
    <clipPath id="clipPath4542">
        <path id="rect4544" d="m-535.214-48.848h501.574v185.586h-501.574z"/>
    </clipPath>
    <clipPath id="clipPath11017">
        <path id="rect11019" d="m36.669 153.503h29.654v28.999h-29.654z" transform="rotate(-90)" vector-effect="none"/>
    </clipPath>
    <clipPath id="clipPath11444">
        <path id="rect11446" d="m-143.933 265.779h28.84v29.104h-28.84z" transform="rotate(-90)" vector-effect="none"/>
    </clipPath>
    <clipPath id="clipPath11781">
        <rect id="rect11783" height="32.411" rx=".634" transform="rotate(-90)" width="32.941" x="-145.124" y="181.377"/>
    </clipPath>
    <clipPath id="clipPath11499">
        <path id="rect11501" d="m-551.399-9.261h16.064v16.347h-16.064z" vector-effect="none"/>
    </clipPath>
    <g id="layer1" transform="translate(0 -280.067)">
        <circle id="path34863-8" cx="8.467" cy="288.533" fill="#ffc861" r="7.938"/>
        <path id="path35244-8"
              d="m15.46882 287.71215c.8196 5.66444-5.93651 10.35195-10.9337 6.64869-.3861-.22689-.86339.10719-.79211.5493 1.36521 1.01559 3.02212 1.55683 4.72365 1.56013 4.38376 0 7.9375-3.55374 7.9375-7.9375-.00003-.45048-.0384-.90013-.11472-1.3441-.40918-.23994-.87988.0804-.82062.52348z"
              fill="#ffab61" font-variant-ligatures="normal" font-variant-position="normal" font-variant-caps="normal"
              font-variant-numeric="normal" font-variant-alternates="normal" font-feature-settings="normal"
              text-indent="0" text-align="start" text-decoration-line="none" text-decoration-style="solid"
              text-decoration-color="#000000" text-transform="none" text-orientation="mixed" white-space="normal"
              shape-padding="0" isolation="auto" mix-blend-mode="normal" solid-color="#000000" solid-opacity="1"
              vector-effect="none"/>
        <circle id="path5152" cx="10.899" cy="285.172" fill="#55a1ff" r="2.175"/>
        <g fill="#4d4d4d">
            <path id="circle35039-1-1"
                  d="m40.236328 6.5078125c-.264145.013107-.530051.1374739-.740234.4160156-1.722339 2.0857701-3.481905 4.1825759-5.1875 6.2656249-1.446097 1.628788-2.333985 3.763485-2.333985 6.105469 0 5.080252 4.14042 9.220703 9.220703 9.220703 3.135697 0 5.90781-1.580268 7.574219-3.982422v25.042969c0 9.747908 12.904297 9.751511 12.904297 0v-13.220703c-.368509 2.516315-1.048113 4.929604-2 7.203125v6.017578c0 7.140502-8.904297 6.356761-8.904297 0v-29.210938h8.124425c1.469239 0 1.315611-2-.10501-2h-8.421758c-.467925-4.646173-4.405169-8.289062-9.171876-8.289062-.642793 0-1.270754.06712-1.876953.193359l1.714844-2.0683591c.774065-.7740567-.00444-1.7326789-.796875-1.6933594zm.958984 5.5683595c3.999402 0 7.218752 3.219329 7.21875 7.21875 0 3.999383-3.219348 7.220703-7.21875 7.220703-3.999403 0-7.220703-3.22132-7.220703-7.220703 0-4.238362 3.039373-7.151815 7.220703-7.21875z"
                  transform="matrix(.265 0 0 .265 0 280.067)" font-variant-ligatures="normal"
                  font-variant-position="normal" font-variant-caps="normal" font-variant-numeric="normal"
                  font-variant-alternates="normal" font-feature-settings="normal" text-indent="0" text-align="start"
                  text-decoration-line="none" text-decoration-style="solid" text-decoration-color="#000000"
                  text-transform="none" text-orientation="mixed" white-space="normal" shape-padding="0" isolation="auto"
                  mix-blend-mode="normal" solid-color="#000000" solid-opacity="1" vector-effect="none"/>
            <path id="path10354-9"
                  d="m6.05342 284.49402a.67799479.67799479 0 0 0 -.677995.678.67799479.67799479 0 0 0 .677995.67799.67799479.67799479 0 0 0 .677995-.67799.67799479.67799479 0 0 0 -.677995-.678z"
                  vector-effect="none"/>
            <path id="path5324-2"
                  d="m6.782326 289.11912c-.277346.21875.05078.63477.328126.41602.617259-.46557 1.56716-.3612 2.05664.002.279947.21484.602212-.20508.322266-.41992-.86361-.61226-1.858683-.66306-2.707032.002z"
                  font-variant-ligatures="normal" font-variant-position="normal" font-variant-caps="normal"
                  font-variant-numeric="normal" font-variant-alternates="normal" font-feature-settings="normal"
                  text-indent="0" text-align="start" text-decoration-line="none" text-decoration-style="solid"
                  text-decoration-color="#000000" text-transform="none" text-orientation="mixed" white-space="normal"
                  shape-padding="0" isolation="auto" mix-blend-mode="normal" solid-color="#000000" solid-opacity="1"
                  vector-effect="none"/>
        </g>
    </g>
</svg>