<svg xmlns:svg="http://www.w3.org/2000/svg" id="svg4593" height="512" viewBox="0 0 16.933333 16.933334" width="512"
     xmlns="http://www.w3.org/2000/svg">
    <clipPath id="clipPath5337">
        <path id="rect5339" d="m34.774 274.321h35.435v25.702h-35.435z"/>
    </clipPath>
    <clipPath id="clipPath4542">
        <path id="rect4544" d="m-535.214-48.848h501.574v185.586h-501.574z"/>
    </clipPath>
    <clipPath id="clipPath11017">
        <path id="rect11019" d="m36.669 153.503h29.654v28.999h-29.654z" transform="rotate(-90)" vector-effect="none"/>
    </clipPath>
    <clipPath id="clipPath11444">
        <path id="rect11446" d="m-143.933 265.779h28.84v29.104h-28.84z" transform="rotate(-90)" vector-effect="none"/>
    </clipPath>
    <clipPath id="clipPath11781">
        <rect id="rect11783" height="32.411" rx=".634" transform="rotate(-90)" width="32.941" x="-145.124" y="181.377"/>
    </clipPath>
    <clipPath id="clipPath11499">
        <path id="rect11501" d="m-551.399-9.261h16.064v16.347h-16.064z" vector-effect="none"/>
    </clipPath>
    <g id="layer1" transform="translate(0 -280.067)">
        <path id="path25635"
              d="m9.4192447 2.3375412c-5.863882 1.8736996-10.36286346 11.2095098-4.9973697 19.4593338 1.5647241-4.344688 4.1113116-8.269508 7.441406-11.46875-1.41435-2.2323776-1.330027-4.5555381-.703063-7.026279.319674-1.4430376-1.4955346-1.038845-1.7409733-.9643048z"
              fill="#d85750" transform="matrix(.265 0 0 .265 0 280.067)" vector-effect="none"/>
        <path id="path34863-8"
              d="m16.404171 288.53333a7.9375048 7.9375048 0 0 1 -7.9375048 7.9375 7.9375048 7.9375048 0 0 1 -7.93750475-7.9375 7.9375048 7.9375048 0 0 1 7.93750475-7.93751 7.9375048 7.9375048 0 0 1 7.9375048 7.93751z"
              fill="#ef6356" vector-effect="none"/>
        <path id="path35244-8"
              d="m15.46882 287.71215c.8196 5.66444-5.93651 10.35195-10.9337 6.64869-.3861-.22689-.86339.10719-.79211.5493 1.36521 1.01559 3.02212 1.55683 4.72365 1.56013 4.38376 0 7.9375-3.55374 7.9375-7.9375-.00003-.45048-.0384-.90013-.11472-1.3441-.40918-.23994-.87988.0804-.82062.52348z"
              fill="#d85750" font-variant-ligatures="normal" font-variant-position="normal" font-variant-caps="normal"
              font-variant-numeric="normal" font-variant-alternates="normal" font-feature-settings="normal"
              text-indent="0" text-align="start" text-decoration-line="none" text-decoration-style="solid"
              text-decoration-color="#000000" text-transform="none" text-orientation="mixed" white-space="normal"
              shape-padding="0" isolation="auto" mix-blend-mode="normal" solid-color="#000000" solid-opacity="1"
              vector-effect="none"/>
        <path id="path25640"
              d="m9.8226776 289.61189a1.4552065 1.4552065 0 0 1 -.5709493 1.56867 1.4552065 1.4552065 0 0 1 -1.6693443 0 1.4552065 1.4552065 0 0 1 -.5709495-1.56867l1.4056216.37664z"
              fill="#ffc861" vector-effect="none"/>
        <path id="path25650"
              d="m14.448043 280.68512c1.551486.49575 2.741841 2.96585 1.322221 5.14862-.414-1.14953-1.087785-2.18797-1.968872-3.03444.374213-.59065.351903-1.20532.186019-1.85904-.08458-.3818.395693-.27486.460632-.25514z"
              fill="#d85750" vector-effect="none"/>
        <path id="path10354-7-0-4"
              d="m4.639524 284.14179 1.017509.58705c-.113847.12472-.177053.28743-.17725.4563 0 .37445.303549.67799.677995.67799s.677995-.30354.677995-.67799c-.000397-.26486-.155003-.50524-.395842-.61547l-1.535307-.88676c-.319871-.18468-.57467.28015-.2651.45888zm7.388181-.45888-1.535307.88676c-.240839.11023-.39544.35061-.395842.61547 0 .37445.303549.67799.677995.67799s.677995-.30354.677995-.67799c-.000197-.16887-.0634-.33158-.17725-.4563l1.017509-.58705c.355325-.20514.05382-.64301-.2651-.45888z"
              fill="#4d4d4d" vector-effect="none"/>
    </g>
</svg>