<!--
  - Copyright (c) 2023. Selldone® Business OS™
  -
  - Author: M.Pajuhaan
  - Web: https://selldone.com
  - ━━━━━━━━━━━━━━━━━━━━━━━━━━━━━━━━━━━━━━━━━━━━━━━━━━━━━━
  -
  - All rights reserved. In the weave of time, where traditions and innovations intermingle, this content was crafted.
  - From the essence of thought, through the corridors of creativity, each word, and sentiment has been molded.
  - Not just to exist, but to inspire. Like an artist's stroke or a sculptor's chisel, every nuance is deliberate.
  - Our journey is not just about reaching a destination, but about creating a masterpiece.
  - Tread carefully, for you're treading on dreams.
  -->

<svg id="svg4593" height="512" viewBox="0 0 16.933333 16.933334" width="512" xmlns="http://www.w3.org/2000/svg" xmlns:svg="http://www.w3.org/2000/svg"><clipPath id="clipPath5337"><path id="rect5339" d="m34.774 274.321h35.435v25.702h-35.435z"/></clipPath><clipPath id="clipPath4542"><path id="rect4544" d="m-535.214-48.848h501.574v185.586h-501.574z"/></clipPath><clipPath id="clipPath11017"><path id="rect11019" d="m36.669 153.503h29.654v28.999h-29.654z" transform="rotate(-90)" vector-effect="none"/></clipPath><clipPath id="clipPath11444"><path id="rect11446" d="m-143.933 265.779h28.84v29.104h-28.84z" transform="rotate(-90)" vector-effect="none"/></clipPath><clipPath id="clipPath11781"><rect id="rect11783" height="32.411" rx=".634" transform="rotate(-90)" width="32.941" x="-145.124" y="181.377"/></clipPath><clipPath id="clipPath11499"><path id="rect11501" d="m-551.399-9.261h16.064v16.347h-16.064z" vector-effect="none"/></clipPath><g id="layer1" transform="translate(0 -280.067)"><circle id="path34863-0" cx="8.467" cy="288.533" fill="#ffc861" r="7.938"/><path id="path35244-56" d="m15.468824 287.71214c.8196 5.66444-5.93651 10.35196-10.9337 6.64869-.3861-.22689-.86339.10719-.79211.54931 1.36521 1.01559 3.02212 1.55682 4.72365 1.56013 4.38376-.00001 7.9375-3.55374 7.9375-7.9375-.00003-.45048-.0384-.90014-.11472-1.34411-.40918-.23994-.87988.0803-.82062.52348z" fill="#ffab61" font-variant-ligatures="normal" font-variant-position="normal" font-variant-caps="normal" font-variant-numeric="normal" font-variant-alternates="normal" font-feature-settings="normal" text-indent="0" text-align="start" text-decoration-line="none" text-decoration-style="solid" text-decoration-color="#000000" text-transform="none" text-orientation="mixed" white-space="normal" shape-padding="0" isolation="auto" mix-blend-mode="normal" solid-color="#000000" solid-opacity="1" vector-effect="none"/><path id="path16732-1" d="m12.939482 292.55751c.600336.002 1.078106-.54567.863376-1.26922-.766968-2.53452-2.813117-4.30289-5.1750817-4.31428-2.656273-.009-4.5930011 2.44601-5.207683 4.27738-.2198572.72201.2540071 1.27319.8543433 1.27532 2.8883416.0103 5.7767034.0205 8.6650454.0308z" fill="#ef6356" vector-effect="none"/><path id="rect21786" d="m23.476562 41.125c-2.203528 0-3.976562 1.773034-3.976562 3.976562v14.132813c3.919288 1.809867 8.18302 2.752552 12.5 2.763672v-14.849609c2.872971.01013 5.74594.02104 8.619141.03125v-2.078126c0-2.203528-1.774987-3.976562-3.978516-3.976562-4.388021 0-8.776042 0-13.164063 0z" fill="#55a1ff" transform="matrix(.265 0 0 .265 0 280.067)" vector-effect="none"/><path id="path10354-7-0" d="m6.0523417 283.18427a.67799479.67799479 0 0 0 -.67799.67799.67799479.67799479 0 0 0 .67799.678.67799479.67799479 0 0 0 .678-.678.67799479.67799479 0 0 0 -.678-.67799zm4.8286503 0a.67799479.67799479 0 0 0 -.678.67799.67799479.67799479 0 0 0 .678.678.67799479.67799479 0 0 0 .67799-.678.67799479.67799479 0 0 0 -.67799-.67799z" fill="#4d4d4d" vector-effect="none"/><g transform="matrix(.265 0 0 .265 0 280.067)"><path id="path21814" d="m37.839844 26.919921v4.488282c0 1.515691-.918896 2.859372-2.775391 2.859372h-2.591797c-2.727202-.06122-2.727202 4.061223 0 4h2.642578c4.082299-.105763 6.641773-3.308709 6.724646-6.769531v-2.802735c-1.015812-.621832-2.781801-1.444056-4.000036-1.775388z" fill="#d85750" font-variant-ligatures="normal" font-variant-position="normal" font-variant-caps="normal" font-variant-numeric="normal" font-variant-alternates="normal" font-feature-settings="normal" text-indent="0" text-align="start" text-decoration-line="none" text-decoration-style="solid" text-decoration-color="#000000" text-transform="none" text-orientation="mixed" white-space="normal" shape-padding="0" isolation="auto" mix-blend-mode="normal" solid-color="#000000" solid-opacity="1" vector-effect="none"/><path id="rect3816-3-9-5" d="m32.609375 26.107422c-2.229485-.0076-4.315641.440815-6.251953 1.223997l.0039 3.967409c.0077 2.154558 1.7478 3.882559 3.902344 3.875l4.597656-.01563c2.154544-.0076 3.882559-1.747786 3.875-3.902344l-.0039-4.039062c-1.941891-.713294-3.996466-1.09912-6.123047-1.109375z" fill="#d1dcff" vector-effect="none"/></g></g></svg>