<svg xmlns:svg="http://www.w3.org/2000/svg" id="svg4593" height="512" viewBox="0 0 16.933333 16.933334" width="512"
     xmlns="http://www.w3.org/2000/svg">
    <clipPath id="clipPath5337">
        <path id="rect5339" d="m34.774 274.321h35.435v25.702h-35.435z"/>
    </clipPath>
    <clipPath id="clipPath4542">
        <path id="rect4544" d="m-535.214-48.848h501.574v185.586h-501.574z"/>
    </clipPath>
    <clipPath id="clipPath11017">
        <path id="rect11019" d="m36.669 153.503h29.654v28.999h-29.654z" transform="rotate(-90)" vector-effect="none"/>
    </clipPath>
    <clipPath id="clipPath11444">
        <path id="rect11446" d="m-143.933 265.779h28.84v29.104h-28.84z" transform="rotate(-90)" vector-effect="none"/>
    </clipPath>
    <clipPath id="clipPath11781">
        <rect id="rect11783" height="32.411" rx=".634" transform="rotate(-90)" width="32.941" x="-145.124" y="181.377"/>
    </clipPath>
    <clipPath id="clipPath11499">
        <path id="rect11501" d="m-551.399-9.261h16.064v16.347h-16.064z" vector-effect="none"/>
    </clipPath>
    <g id="layer1" transform="translate(0 -280.067)">
        <circle id="path34863-0" cx="8.467" cy="288.533" fill="#ffc861" r="7.938"/>
        <path id="path35244-56"
              d="m15.468824 287.71214c.8196 5.66444-5.93651 10.35196-10.9337 6.64869-.3861-.22689-.86339.10719-.79211.54931 1.36521 1.01559 3.02212 1.55682 4.72365 1.56013 4.38376-.00001 7.9375-3.55374 7.9375-7.9375-.00003-.45048-.0384-.90014-.11472-1.34411-.40918-.23994-.87988.0803-.82062.52348z"
              fill="#ffab61" font-variant-ligatures="normal" font-variant-position="normal" font-variant-caps="normal"
              font-variant-numeric="normal" font-variant-alternates="normal" font-feature-settings="normal"
              text-indent="0" text-align="start" text-decoration-line="none" text-decoration-style="solid"
              text-decoration-color="#000000" text-transform="none" text-orientation="mixed" white-space="normal"
              shape-padding="0" isolation="auto" mix-blend-mode="normal" solid-color="#000000" solid-opacity="1"
              vector-effect="none"/>
        <g id="g20135" fill="#4d4d4d">
            <g id="g20121" transform="translate(.38)">
                <path id="path20113"
                      d="m4.1679688 284.96094a.264645.264645 0 1 0 0 .52929h2.2480468a.264645.264645 0 1 0 0-.52929z"
                      font-variant-ligatures="normal" font-variant-position="normal" font-variant-caps="normal"
                      font-variant-numeric="normal" font-variant-alternates="normal" font-feature-settings="normal"
                      text-indent="0" text-align="start" text-decoration-line="none" text-decoration-style="solid"
                      text-decoration-color="#000000" text-transform="none" text-orientation="mixed"
                      white-space="normal" shape-padding="0" isolation="auto" mix-blend-mode="normal"
                      solid-color="#000000" solid-opacity="1" vector-effect="none"/>
                <path id="path20117"
                      d="m9.7572917 284.96094a.264645.264645 0 1 0 0 .52929h2.2480473a.264645.264645 0 1 0 0-.52929z"
                      font-variant-ligatures="normal" font-variant-position="normal" font-variant-caps="normal"
                      font-variant-numeric="normal" font-variant-alternates="normal" font-feature-settings="normal"
                      text-indent="0" text-align="start" text-decoration-line="none" text-decoration-style="solid"
                      text-decoration-color="#000000" text-transform="none" text-orientation="mixed"
                      white-space="normal" shape-padding="0" isolation="auto" mix-blend-mode="normal"
                      solid-color="#000000" solid-opacity="1" vector-effect="none"/>
            </g>
            <path id="path20125"
                  d="m4.8456373 289.8888c-.3528598 0-.3528598.52929 0 .52929h7.5397147c.35286 0 .35286-.52929 0-.52929z"
                  font-variant-ligatures="normal" font-variant-position="normal" font-variant-caps="normal"
                  font-variant-numeric="normal" font-variant-alternates="normal" font-feature-settings="normal"
                  text-indent="0" text-align="start" text-decoration-line="none" text-decoration-style="solid"
                  text-decoration-color="#000000" text-transform="none" text-orientation="mixed" white-space="normal"
                  shape-padding="0" isolation="auto" mix-blend-mode="normal" solid-color="#000000" solid-opacity="1"
                  vector-effect="none"/>
        </g>
    </g>
</svg>