<svg xmlns="http://www.w3.org/2000/svg" width="512" height="512" viewBox="0 0 16.933 16.933"><g transform="translate(0 -280.067)"><circle cx="8.467" cy="288.533" r="7.938" fill="#ffc861"/><path fill="#ffab61" d="M15.469 287.712c.82 5.665-5.937 10.352-10.934 6.649-.386-.227-.863.107-.792.55a7.938 7.938 0 0 0 12.546-7.721.537.537 0 0 0-.82.522"/><g fill="#4d4d4d"><path d="M10.437 288.861c0-.353-.529-.353-.529 0 0 .676-1.175.71-1.175 0 0-.386-.532-.363-.532 0 0 .676-1.176.71-1.176 0 0-.353-.529-.353-.529 0 0 1.059 1.416 1.37 1.992.703.6.612 1.95.454 1.95-.703M4.806 286.017c0-1.673 2.494-1.672 2.494 0 0 .353-.53.353-.53 0-.053-.966-1.418-.853-1.435 0 0 .353-.53.353-.53 0M9.634 286.017c0-1.673 2.495-1.672 2.495 0 0 .353-.53.353-.53 0-.054-.966-1.418-.853-1.435 0 0 .353-.53.353-.53 0"/></g></g></svg>