<svg xmlns="http://www.w3.org/2000/svg" width="512" height="512" viewBox="0 0 16.933 16.933"><g transform="translate(0 -280.067)"><circle cx="8.426" cy="288.533" r="7.938" fill="#ffc861"/><path fill="#ffab61" d="M15.428 287.712c.82 5.665-5.937 10.352-10.934 6.649-.386-.227-.863.107-.792.55a7.938 7.938 0 0 0 12.546-7.721.537.537 0 0 0-.82.522"/><path fill="#ef6356" d="M1.61 283.232c.377.652.945 1.088 1.392 1.07.448.018 1.015-.418 1.392-1.07.944-1.618-.31-2.758-1.392-1.409-1.228-1.414-2.16.05-1.391 1.41"/><path fill="#d85750" d="M3.704 282.735s-.535.771-1.297 1.372c.202.129.412.202.595.194.448.019 1.015-.417 1.392-1.069q.138-.24.223-.48c-.315-.37-.722-.306-.913-.017"/><path fill="#ef6356" d="M13.302 286.292c.377.651.944 1.087 1.392 1.068.447.02 1.015-.417 1.391-1.069.916-1.519-.309-2.757-1.391-1.409-1.229-1.414-2.22.034-1.392 1.41"/><path fill="#d85750" d="M15.395 285.794s-.535.772-1.297 1.372c.203.13.412.202.596.194.447.019 1.015-.417 1.391-1.068q.138-.24.223-.48c-.315-.37-.722-.307-.913-.018"/><path fill="#ef6356" d="M4.445 290.244a1.123 1.123 0 0 1-1.122 1.123 1.123 1.123 0 0 1-1.123-1.123 1.123 1.123 0 0 1 1.123-1.122 1.123 1.123 0 0 1 1.122 1.122M14.566 290.244a1.123 1.123 0 0 1-1.123 1.123 1.123 1.123 0 0 1-1.122-1.123 1.123 1.123 0 0 1 1.122-1.122 1.123 1.123 0 0 1 1.123 1.122"/><g fill="#4d4d4d"><path d="M11.691 291.79c-1.586 1.845-4.593 2.202-6.518.029-.213-.254-.625.042-.377.376 1.793 2.415 5.694 2.099 7.284-.045.248-.298-.113-.69-.389-.36M4.764 286.282c0-1.673 2.494-1.672 2.494 0 0 .353-.53.353-.53 0-.053-.966-1.418-.853-1.435 0 0 .353-.53.353-.53 0M9.592 286.282c0-1.673 2.495-1.672 2.495 0 0 .353-.53.353-.53 0-.054-.966-1.418-.853-1.435 0 0 .353-.53.353-.53 0"/></g></g></svg>