<!--
  - Copyright (c) 2023. Selldone® Business OS™
  -
  - Author: M.Pajuhaan
  - Web: https://selldone.com
  - ━━━━━━━━━━━━━━━━━━━━━━━━━━━━━━━━━━━━━━━━━━━━━━━━━━━━━━
  -
  - All rights reserved. In the weave of time, where traditions and innovations intermingle, this content was crafted.
  - From the essence of thought, through the corridors of creativity, each word, and sentiment has been molded.
  - Not just to exist, but to inspire. Like an artist's stroke or a sculptor's chisel, every nuance is deliberate.
  - Our journey is not just about reaching a destination, but about creating a masterpiece.
  - Tread carefully, for you're treading on dreams.
  -->

<svg id="svg4593" height="512" viewBox="0 0 16.933333 16.933334" width="512" xmlns="http://www.w3.org/2000/svg" xmlns:svg="http://www.w3.org/2000/svg"><clipPath id="clipPath5337"><path id="rect5339" d="m34.774 274.321h35.435v25.702h-35.435z"/></clipPath><clipPath id="clipPath4542"><path id="rect4544" d="m-535.214-48.848h501.574v185.586h-501.574z"/></clipPath><clipPath id="clipPath11017"><path id="rect11019" d="m36.669 153.503h29.654v28.999h-29.654z" transform="rotate(-90)" vector-effect="none"/></clipPath><clipPath id="clipPath11444"><path id="rect11446" d="m-143.933 265.779h28.84v29.104h-28.84z" transform="rotate(-90)" vector-effect="none"/></clipPath><clipPath id="clipPath11781"><rect id="rect11783" height="32.411" rx=".634" transform="rotate(-90)" width="32.941" x="-145.124" y="181.377"/></clipPath><clipPath id="clipPath11499"><path id="rect11501" d="m-551.399-9.261h16.064v16.347h-16.064z" vector-effect="none"/></clipPath><g id="layer1" transform="translate(0 -280.067)"><circle id="path34863-8-24" cx="8.426" cy="288.533" fill="#ffc861" r="7.938"/><path id="path35244-8-79" d="m15.427892 287.71214c.8196 5.66444-5.93651 10.35195-10.9337 6.64869-.3861-.22689-.86339.10719-.79211.5493 1.36521 1.01559 3.02212 1.55683 4.72365 1.56013 4.38376 0 7.9375-3.55374 7.9375-7.9375-.00003-.45048-.0384-.90013-.11472-1.3441-.40918-.23994-.87988.0804-.82062.52348z" fill="#ffab61" font-variant-ligatures="normal" font-variant-position="normal" font-variant-caps="normal" font-variant-numeric="normal" font-variant-alternates="normal" font-feature-settings="normal" text-indent="0" text-align="start" text-decoration-line="none" text-decoration-style="solid" text-decoration-color="#000000" text-transform="none" text-orientation="mixed" white-space="normal" shape-padding="0" isolation="auto" mix-blend-mode="normal" solid-color="#000000" solid-opacity="1" vector-effect="none"/><path id="path5959" d="m1.610652 283.23226c.37677.65183.94448 1.08781 1.39177 1.06885.44726.0188 1.01486-.41713 1.39156-1.06885.9443919-1.61853-.3091386-2.75783-1.39158-1.40921-1.2285336-1.41417-2.16066738.0507-1.39175 1.40921z" fill="#ef6356" vector-effect="none"/><path id="path5961" d="m3.703542 282.73468s-.535.77172-1.29657 1.37252c.20235.12862.41199.20156.59532.19379.44726.0188 1.01494-.41695 1.39164-1.06867.0922-.15964.16615-.32077.22325-.47955-.31502-.37091-.72228-.30714-.91364-.0181z" fill="#d85750" font-variant-ligatures="normal" font-variant-position="normal" font-variant-caps="normal" font-variant-numeric="normal" font-variant-alternates="normal" font-feature-settings="normal" text-indent="0" text-align="start" text-decoration-line="none" text-decoration-style="solid" text-decoration-color="#000000" text-transform="none" text-orientation="mixed" white-space="normal" shape-padding="0" isolation="auto" mix-blend-mode="normal" solid-color="#000000" solid-opacity="1" vector-effect="none"/><path id="path5965" d="m13.301922 286.2915c.37677.65183.94448 1.08781 1.39177 1.06885.44726.0188 1.01486-.41713 1.39156-1.06885.915539-1.51943-.309139-2.75783-1.39158-1.40921-1.228534-1.41417-2.220379.0342-1.39175 1.40921z" fill="#ef6356" vector-effect="none"/><path id="path5967" d="m15.394812 285.79392s-.535.77172-1.29657 1.37252c.20235.12862.41199.20156.59532.19379.44726.0188 1.01495-.41695 1.39164-1.06867.0922-.15964.16615-.32077.22325-.47955-.31502-.37091-.72228-.30714-.91364-.0181z" fill="#d85750" font-variant-ligatures="normal" font-variant-position="normal" font-variant-caps="normal" font-variant-numeric="normal" font-variant-alternates="normal" font-feature-settings="normal" text-indent="0" text-align="start" text-decoration-line="none" text-decoration-style="solid" text-decoration-color="#000000" text-transform="none" text-orientation="mixed" white-space="normal" shape-padding="0" isolation="auto" mix-blend-mode="normal" solid-color="#000000" solid-opacity="1" vector-effect="none"/><path id="path24271-0" d="m4.4453883 290.24438a1.1225319 1.1225319 0 0 1 -1.1225319 1.12253 1.1225319 1.1225319 0 0 1 -1.1225319-1.12253 1.1225319 1.1225319 0 0 1 1.1225319-1.12254 1.1225319 1.1225319 0 0 1 1.1225319 1.12254z" fill="#ef6356" vector-effect="none"/><path id="path24436-9" d="m14.565701 290.24438a1.1225319 1.1225319 0 0 1 -1.122532 1.12253 1.1225319 1.1225319 0 0 1 -1.122532-1.12253 1.1225319 1.1225319 0 0 1 1.122532-1.12254 1.1225319 1.1225319 0 0 1 1.122532 1.12254z" fill="#ef6356" vector-effect="none"/><g id="g11173" fill="#4d4d4d" transform="translate(-17.33 -3.373)"><path id="path24269-8" d="m44.117188 44.240234c-5.983927 6.960786-17.330921 8.308787-24.595704.105469-.805117-.957295-2.357891.161673-1.421875 1.421875 6.763171 9.111442 21.486325 7.917495 27.486329-.169922.934833-1.125274-.428289-2.605691-1.46875-1.357422z" transform="matrix(.265 0 0 .265 17.33 283.44)" font-variant-ligatures="normal" font-variant-position="normal" font-variant-caps="normal" font-variant-numeric="normal" font-variant-alternates="normal" font-feature-settings="normal" text-indent="0" text-align="start" text-decoration-line="none" text-decoration-style="solid" text-decoration-color="#000000" text-transform="none" text-orientation="mixed" white-space="normal" shape-padding="0" isolation="auto" mix-blend-mode="normal" solid-color="#000000" solid-opacity="1" vector-effect="none"/><g id="g16443-1-2-6" transform="matrix(1 0 0 -1 -24.298 578.188)"><path id="path4005-4-7-7-3" d="m46.391743 288.53332c0 1.6728 2.49414 1.6716 2.49414 0 0-.35287-.5293-.35287-.5293 0-.0539.96593-1.41831.85313-1.43555 0 0-.35286-.52929-.35286-.52929 0z" font-variant-ligatures="normal" font-variant-position="normal" font-variant-caps="normal" font-variant-numeric="normal" font-variant-alternates="normal" font-feature-settings="normal" text-indent="0" text-align="start" text-decoration-line="none" text-decoration-style="solid" text-decoration-color="#000000" text-transform="none" text-orientation="mixed" white-space="normal" shape-padding="0" isolation="auto" mix-blend-mode="normal" solid-color="#000000" solid-opacity="1" vector-effect="none"/><path id="path4009-9-1-3-8-2" d="m51.220393 288.53332c0 1.6728 2.49414 1.6716 2.49414 0 0-.35287-.5293-.35287-.5293 0-.0539.96593-1.41831.85313-1.43555 0 0-.35286-.52929-.35286-.52929 0z" font-variant-ligatures="normal" font-variant-position="normal" font-variant-caps="normal" font-variant-numeric="normal" font-variant-alternates="normal" font-feature-settings="normal" text-indent="0" text-align="start" text-decoration-line="none" text-decoration-style="solid" text-decoration-color="#000000" text-transform="none" text-orientation="mixed" white-space="normal" shape-padding="0" isolation="auto" mix-blend-mode="normal" solid-color="#000000" solid-opacity="1" vector-effect="none"/></g></g></g></svg>