<svg xmlns:svg="http://www.w3.org/2000/svg" id="svg4593" height="512" viewBox="0 0 16.933333 16.933334" width="512"
     xmlns="http://www.w3.org/2000/svg">
    <clipPath id="clipPath5337">
        <path id="rect5339" d="m34.774 274.321h35.435v25.702h-35.435z"/>
    </clipPath>
    <clipPath id="clipPath4542">
        <path id="rect4544" d="m-535.214-48.848h501.574v185.586h-501.574z"/>
    </clipPath>
    <clipPath id="clipPath11017">
        <path id="rect11019" d="m36.669 153.503h29.654v28.999h-29.654z" transform="rotate(-90)" vector-effect="none"/>
    </clipPath>
    <clipPath id="clipPath11444">
        <path id="rect11446" d="m-143.933 265.779h28.84v29.104h-28.84z" transform="rotate(-90)" vector-effect="none"/>
    </clipPath>
    <clipPath id="clipPath11781">
        <rect id="rect11783" height="32.411" rx=".634" transform="rotate(-90)" width="32.941" x="-145.124" y="181.377"/>
    </clipPath>
    <clipPath id="clipPath11499">
        <path id="rect11501" d="m-551.399-9.261h16.064v16.347h-16.064z" vector-effect="none"/>
    </clipPath>
    <g id="layer1" transform="translate(0 -280.067)">
        <circle id="path34863" cx="8.467" cy="288.533" fill="#ffc861" r="7.938"/>
        <path id="path35244"
              d="m58.464844 28.898438c3.097691 21.408908-22.437212 39.125499-41.324219 25.128906-1.459263-.857541-3.263206.405112-2.993805 2.076114 5.159874 3.838446 11.422176 5.884046 17.85318 5.896542 16.568539-.000009 29.999991-13.431461 30-30-.000114-1.702595-.145169-3.402091-.433594-5.080078-1.546492-.90687-3.325528.303669-3.101562 1.978516z"
              fill="#ffab61" transform="matrix(.265 0 0 .265 0 280.067)" font-variant-ligatures="normal"
              font-variant-position="normal" font-variant-caps="normal" font-variant-numeric="normal"
              font-variant-alternates="normal" font-feature-settings="normal" text-indent="0" text-align="start"
              text-decoration-line="none" text-decoration-style="solid" text-decoration-color="#000000"
              text-transform="none" text-orientation="mixed" white-space="normal" shape-padding="0" isolation="auto"
              mix-blend-mode="normal" solid-color="#000000" solid-opacity="1" vector-effect="none"/>
        <path id="path5407"
              d="m5.6639774 288.01307c0-.84717-1.2642202-2.37092-1.5339365-2.37092-.2453162 0-1.5339364 1.52375-1.5339364 2.37092s.6867667 1.53394 1.5339364 1.53394 1.5339365-.68677 1.5339365-1.53394z"
              fill="#55a1ff" vector-effect="none"/>
        <g fill="#4d4d4d">
            <path id="path3950"
                  d="m12.664281 287.76642c-.326623.13354-.126118.62341.200504.48989.623089-.25473 1.097473.81107.451652 1.08469-.07159.0326-2.459955 1.10049-5.9060983.32297.059191-.40072-.1075629-.91339-.2092897-1.16633-.1430789-.30444-.6243685-.11725-.4687051.24598.2789891.69603.2583024 1.30362-.4552693 1.72651-.3059867.17578-.04192.63466.2640666.45888.3600831-.20789.5870646-.47656.7214028-.75551 3.458208.78987 5.947215-.21158 6.23166-.33383.624107-.26437 1.121994.76656.461471 1.08521-.326623.13353-.126636.6234.199988.48989.980124-.40068.733144-1.82877-.102837-2.10995.417931-.95926-.527901-1.90454-1.388545-1.5384z"
                  font-variant-ligatures="normal" font-variant-position="normal" font-variant-caps="normal"
                  font-variant-numeric="normal" font-variant-alternates="normal" font-feature-settings="normal"
                  text-indent="0" text-align="start" text-decoration-line="none" text-decoration-style="solid"
                  text-decoration-color="#000000" text-transform="none" text-orientation="mixed" white-space="normal"
                  shape-padding="0" isolation="auto" mix-blend-mode="normal" solid-color="#000000" solid-opacity="1"
                  vector-effect="none"/>
            <path id="path9816"
                  d="m9.1288201 291.55028c-.2878234.20442.018817.63606.3066406.43164.3595234-.24352.9075143-.18178 1.1972653.006.295573.19401.586589-.24935.291015-.44336-.519057-.34861-1.2900568-.34257-1.7949209.006z"
                  font-variant-ligatures="normal" font-variant-position="normal" font-variant-caps="normal"
                  font-variant-numeric="normal" font-variant-alternates="normal" font-feature-settings="normal"
                  text-indent="0" text-align="start" text-decoration-line="none" text-decoration-style="solid"
                  text-decoration-color="#000000" text-transform="none" text-orientation="mixed" white-space="normal"
                  shape-padding="0" isolation="auto" mix-blend-mode="normal" solid-color="#000000" solid-opacity="1"
                  vector-effect="none"/>
            <path id="path10354-7-4"
                  d="m7.1541452 284.06486c-.3744462 0-.6779948.30354-.6779948.67799.0001482.11704.030591.23205.088367.33383-.274847.0725-.5044077.18094-.661975.30592-.2762965.22015.053916.63459.3302124.41445.5458439-.4069 1.3809763-.35076 1.8965251.008.2876008.21168.6011397-.22528.3085081-.42995-.2197097-.15808-.4521649-.25724-.683679-.31626.051243-.0974.078025-.20572.078031-.31574 0-.37445-.3035485-.67799-.6779948-.67799zm4.8286458 0c-.374446 0-.677995.30354-.677995.67799s.303549.678.677995.678.677995-.30355.677995-.678-.303549-.67799-.677995-.67799z"
                  vector-effect="none"/>
        </g>
    </g>
</svg>