<!--
  - Copyright (c) 2023. Selldone® Business OS™
  -
  - Author: M.Pajuhaan
  - Web: https://selldone.com
  - ━━━━━━━━━━━━━━━━━━━━━━━━━━━━━━━━━━━━━━━━━━━━━━━━━━━━━━
  -
  - All rights reserved. In the weave of time, where traditions and innovations intermingle, this content was crafted.
  - From the essence of thought, through the corridors of creativity, each word, and sentiment has been molded.
  - Not just to exist, but to inspire. Like an artist's stroke or a sculptor's chisel, every nuance is deliberate.
  - Our journey is not just about reaching a destination, but about creating a masterpiece.
  - Tread carefully, for you're treading on dreams.
  -->

<svg id="svg4593" height="512" viewBox="0 0 16.933333 16.933334" width="512" xmlns="http://www.w3.org/2000/svg" xmlns:svg="http://www.w3.org/2000/svg"><clipPath id="clipPath5337"><path id="rect5339" d="m34.774 274.321h35.435v25.702h-35.435z"/></clipPath><clipPath id="clipPath4542"><path id="rect4544" d="m-535.214-48.848h501.574v185.586h-501.574z"/></clipPath><clipPath id="clipPath11017"><path id="rect11019" d="m36.669 153.503h29.654v28.999h-29.654z" transform="rotate(-90)" vector-effect="none"/></clipPath><clipPath id="clipPath11444"><path id="rect11446" d="m-143.933 265.779h28.84v29.104h-28.84z" transform="rotate(-90)" vector-effect="none"/></clipPath><clipPath id="clipPath11781"><rect id="rect11783" height="32.411" rx=".634" transform="rotate(-90)" width="32.941" x="-145.124" y="181.377"/></clipPath><clipPath id="clipPath11499"><path id="rect11501" d="m-551.399-9.261h16.064v16.347h-16.064z" vector-effect="none"/></clipPath><g id="layer1" transform="translate(0 -280.067)"><circle id="path34863-8-1" cx="8.467" cy="288.533" fill="#ffc861" r="7.938"/><path id="path35244-8-2" d="m15.468824 287.71214c.8196 5.66444-5.9365098 10.35195-10.9336998 6.64869-.3861002-.22689-.8633902.10719-.7921102.5493 1.3652102 1.01559 3.0221202 1.55683 4.7236502 1.56013 4.3837598 0 7.9374998-3.55374 7.9374998-7.9375-.00003-.45048-.0384-.90013-.11472-1.3441-.40918-.23994-.87988.0804-.82062.52348z" fill="#ffab61" font-variant-ligatures="normal" font-variant-position="normal" font-variant-caps="normal" font-variant-numeric="normal" font-variant-alternates="normal" font-feature-settings="normal" text-indent="0" text-align="start" text-decoration-line="none" text-decoration-style="solid" text-decoration-color="#000000" text-transform="none" text-orientation="mixed" white-space="normal" shape-padding="0" isolation="auto" mix-blend-mode="normal" solid-color="#000000" solid-opacity="1" vector-effect="none"/><path id="rect10250" d="m16.818359 46.636719c-.576828-.0017-1.152424.216874-1.595703.660156-.792805.7928-.882408 2.027374-.25 2.904297h-3.183594c-3.2683742 0-5.9003901 2.630063-5.9003901 5.898437 0 3.268375 2.6320159 5.900391 5.9003901 5.900391h7.291016c3.268375 0 5.900391-2.632016 5.900391-5.900391 0-1.9089-1.29225-3.665297-2.298828-4.671875l-4.257813-4.130859c-.44992-.436517-1.02864-.658465-1.605469-.660156z" fill="#55a1ff" transform="matrix(.265 0 0 .265 0 280.067)" vector-effect="none"/><path id="path10425" d="m11.615234 50.201172c-.881896 1.463635-.766558 2.978931-.453125 4.511719.753083 2.626771 4.696312 1.391736 3.816407-1.195313-.205266-.766064-.879372-1.803439-.0059-3.316406z" fill="#488bff" transform="matrix(.265 0 0 .265 0 280.067)" font-variant-ligatures="normal" font-variant-position="normal" font-variant-caps="normal" font-variant-numeric="normal" font-variant-alternates="normal" font-feature-settings="normal" text-indent="0" text-align="start" text-decoration-line="none" text-decoration-style="solid" text-decoration-color="#000000" text-transform="none" text-orientation="mixed" white-space="normal" shape-padding="0" isolation="auto" mix-blend-mode="normal" solid-color="#000000" solid-opacity="1" vector-effect="none"/><path id="path10434" d="m12.448854 292.40595c.152619-.00045.304912.0574.422196.17466.209763.20977.23347.53641.06615.76843h.842326c.864757 0 1.561145.69587 1.561145 1.56063s-.696388 1.56115-1.561145 1.56115h-1.929086c-.864757 0-1.561145-.69639-1.561145-1.56115 0-.50506.341908-.96978.608232-1.2361l1.126546-1.09296c.119042-.11549.272161-.17421.424781-.17466z" fill="#55a1ff" vector-effect="none"/><path id="path10436" d="m13.825514 293.34904c.233335.38726.202818.78818.119889 1.19373-.199253.695-1.242566.36823-1.009758-.31626.05431-.20269.232667-.47716.0016-.87747z" fill="#488bff" font-variant-ligatures="normal" font-variant-position="normal" font-variant-caps="normal" font-variant-numeric="normal" font-variant-alternates="normal" font-feature-settings="normal" text-indent="0" text-align="start" text-decoration-line="none" text-decoration-style="solid" text-decoration-color="#000000" text-transform="none" text-orientation="mixed" white-space="normal" shape-padding="0" isolation="auto" mix-blend-mode="normal" solid-color="#000000" solid-opacity="1" vector-effect="none"/><g fill="#4d4d4d"><g id="g16443-1-2-1" transform="matrix(1 0 0 -1 -41.586 574.815)"><path id="path4005-4-7-7-1" d="m46.391743 288.53332c0 1.6728 2.49414 1.6716 2.49414 0 0-.35287-.5293-.35287-.5293 0-.0539.96593-1.41831.85313-1.43555 0 0-.35286-.52929-.35286-.52929 0z" font-variant-ligatures="normal" font-variant-position="normal" font-variant-caps="normal" font-variant-numeric="normal" font-variant-alternates="normal" font-feature-settings="normal" text-indent="0" text-align="start" text-decoration-line="none" text-decoration-style="solid" text-decoration-color="#000000" text-transform="none" text-orientation="mixed" white-space="normal" shape-padding="0" isolation="auto" mix-blend-mode="normal" solid-color="#000000" solid-opacity="1" vector-effect="none"/><path id="path4009-9-1-3-8" d="m51.220393 288.53332c0 1.6728 2.49414 1.6716 2.49414 0 0-.35287-.5293-.35287-.5293 0-.0539.96593-1.41831.85313-1.43555 0 0-.35286-.52929-.35286-.52929 0z" font-variant-ligatures="normal" font-variant-position="normal" font-variant-caps="normal" font-variant-numeric="normal" font-variant-alternates="normal" font-feature-settings="normal" text-indent="0" text-align="start" text-decoration-line="none" text-decoration-style="solid" text-decoration-color="#000000" text-transform="none" text-orientation="mixed" white-space="normal" shape-padding="0" isolation="auto" mix-blend-mode="normal" solid-color="#000000" solid-opacity="1" vector-effect="none"/></g><path id="path21586" d="m5.8533867 288.53332c0 3.39068 5.2265603 3.54069 5.2265603 0 0-.35286-.5293-.35286-.5293 0 0 2.81326-4.1679603 2.65917-4.1679603 0 0-.37196-.5293-.38004-.5293 0z" font-variant-ligatures="normal" font-variant-position="normal" font-variant-caps="normal" font-variant-numeric="normal" font-variant-alternates="normal" font-feature-settings="normal" text-indent="0" text-align="start" text-decoration-line="none" text-decoration-style="solid" text-decoration-color="#000000" text-transform="none" text-orientation="mixed" white-space="normal" shape-padding="0" isolation="auto" mix-blend-mode="normal" solid-color="#000000" solid-opacity="1" vector-effect="none"/></g></g></svg>