<svg xmlns:svg="http://www.w3.org/2000/svg" id="svg4593" height="512" viewBox="0 0 16.933333 16.933334" width="512"
     xmlns="http://www.w3.org/2000/svg">
    <clipPath id="clipPath5337">
        <path id="rect5339" d="m34.774 274.321h35.435v25.702h-35.435z"/>
    </clipPath>
    <clipPath id="clipPath4542">
        <path id="rect4544" d="m-535.214-48.848h501.574v185.586h-501.574z"/>
    </clipPath>
    <clipPath id="clipPath11017">
        <path id="rect11019" d="m36.669 153.503h29.654v28.999h-29.654z" transform="rotate(-90)" vector-effect="none"/>
    </clipPath>
    <clipPath id="clipPath11444">
        <path id="rect11446" d="m-143.933 265.779h28.84v29.104h-28.84z" transform="rotate(-90)" vector-effect="none"/>
    </clipPath>
    <clipPath id="clipPath11781">
        <rect id="rect11783" height="32.411" rx=".634" transform="rotate(-90)" width="32.941" x="-145.124" y="181.377"/>
    </clipPath>
    <clipPath id="clipPath11499">
        <path id="rect11501" d="m-551.399-9.261h16.064v16.347h-16.064z" vector-effect="none"/>
    </clipPath>
    <g id="layer1" transform="translate(0 -280.067)">
        <circle id="path34863-8" cx="8.467" cy="288.533" fill="#ffc861" r="7.938"/>
        <path id="path21843"
              d="m33.841797 2.0566406-31.6835939 33.0058594c.4385165 4.269167 1.7839876 8.390653 3.953125 12.09375l41.1757809-40.9707032c-4.090332-2.4156436-8.703658-3.8410376-13.445312-4.1289062z"
              fill="#d1dcff" transform="matrix(.265 0 0 .265 0 280.067)" vector-effect="none"/>
        <path id="path22004"
              d="m32 2c-16.568538.0000099-29.9999901 13.431462-30 30 .010502 1.014205.045087 2.054568.1582031 3.0625l31.6835939-33.0058594c-.601804-.0487918-1.238146-.0442484-1.841797-.0566406z"
              fill="#d1dcff" transform="matrix(.265 0 0 .265 0 280.067)" vector-effect="none"/>
        <path id="path35244-8"
              d="m15.46882 287.71215c.8196 5.66444-5.93651 10.35195-10.9337 6.64869-.3861-.22689-.86339.10719-.79211.5493 1.36521 1.01559 3.02212 1.55683 4.72365 1.56013 4.38376 0 7.9375-3.55374 7.9375-7.9375-.00003-.45048-.0384-.90013-.11472-1.3441-.40918-.23994-.87988.0804-.82062.52348z"
              fill="#ffab61" font-variant-ligatures="normal" font-variant-position="normal" font-variant-caps="normal"
              font-variant-numeric="normal" font-variant-alternates="normal" font-feature-settings="normal"
              text-indent="0" text-align="start" text-decoration-line="none" text-decoration-style="solid"
              text-decoration-color="#000000" text-transform="none" text-orientation="mixed" white-space="normal"
              shape-padding="0" isolation="auto" mix-blend-mode="normal" solid-color="#000000" solid-opacity="1"
              vector-effect="none"/>
        <path id="path22017"
              d="m33.841797 2.0566406-28.0058595 29.1738284c-.089852 1.869657 2.2081383 2.827368 3.4726563 1.447265l28.7558592-30.0585934c-1.386129-.2861993-2.802923-.4763072-4.222656-.5625z"
              fill="#bfd2ff" transform="matrix(.265 0 0 .265 0 280.067)" font-variant-ligatures="normal"
              font-variant-position="normal" font-variant-caps="normal" font-variant-numeric="normal"
              font-variant-alternates="normal" font-feature-settings="normal" text-indent="0" text-align="start"
              text-decoration-line="none" text-decoration-style="solid" text-decoration-color="#000000"
              text-transform="none" text-orientation="mixed" white-space="normal" shape-padding="0" isolation="auto"
              mix-blend-mode="normal" solid-color="#000000" solid-opacity="1" vector-effect="none"/>
        <g fill="#4d4d4d">
            <path id="circle10356"
                  d="m44.060547 19.113281a2.5625 2.5625 0 0 0 -2.193359 2.53125 2.5625 2.5625 0 0 0 2.5625 2.5625 2.5625 2.5625 0 0 0 2.5625-2.5625 2.5625 2.5625 0 0 0 -.003907-.091797 2.5625 2.5625 0 0 1 -.371093.029297 2.5625 2.5625 0 0 1 -2.556641-2.46875z"
                  transform="matrix(.265 0 0 .265 0 280.067)" vector-effect="none"/>
            <path id="path4017"
                  d="m6.4673028 292.85688c-.26723.24446.11313.63899.36719.38086.89539-.74097 2.27641-1.5692 3.3105502-.93359.31073.20106.59414-.28657.26562-.45703-1.3808702-.74685-2.8057602.0165-3.9433602 1.00976z"
                  font-variant-ligatures="normal" font-variant-position="normal" font-variant-caps="normal"
                  font-variant-numeric="normal" font-variant-alternates="normal" font-feature-settings="normal"
                  text-indent="0" text-align="start" text-decoration-line="none" text-decoration-style="solid"
                  text-decoration-color="#000000" text-transform="none" text-orientation="mixed" white-space="normal"
                  shape-padding="0" isolation="auto" mix-blend-mode="normal" solid-color="#000000" solid-opacity="1"
                  vector-effect="none"/>
        </g>
    </g>
</svg>