<svg id="svg4593" height="512" viewBox="0 0 16.933333 16.933334" width="512" xmlns="http://www.w3.org/2000/svg" xmlns:svg="http://www.w3.org/2000/svg"><clipPath id="clipPath5337"><path id="rect5339" d="m34.774 274.321h35.435v25.702h-35.435z"/></clipPath><clipPath id="clipPath4542"><path id="rect4544" d="m-535.214-48.848h501.574v185.586h-501.574z"/></clipPath><clipPath id="clipPath11017"><path id="rect11019" d="m36.669 153.503h29.654v28.999h-29.654z" transform="rotate(-90)" vector-effect="none"/></clipPath><clipPath id="clipPath11444"><path id="rect11446" d="m-143.933 265.779h28.84v29.104h-28.84z" transform="rotate(-90)" vector-effect="none"/></clipPath><clipPath id="clipPath11781"><rect id="rect11783" height="32.411" rx=".634" transform="rotate(-90)" width="32.941" x="-145.124" y="181.377"/></clipPath><clipPath id="clipPath11499"><path id="rect11501" d="m-551.399-9.261h16.064v16.347h-16.064z" vector-effect="none"/></clipPath><g id="layer1" transform="translate(0 -280.067)"><circle id="path34863-8-24" cx="8.426" cy="288.533" fill="#ffc861" r="7.938"/><path id="path35244-8-79" d="m15.427892 287.71214c.8196 5.66444-5.93651 10.35195-10.9337 6.64869-.3861-.22689-.86339.10719-.79211.5493 1.36521 1.01559 3.02212 1.55683 4.72365 1.56013 4.38376 0 7.9375-3.55374 7.9375-7.9375-.00003-.45048-.0384-.90013-.11472-1.3441-.40918-.23994-.87988.0804-.82062.52348z" fill="#ffab61" font-variant-ligatures="normal" font-variant-position="normal" font-variant-caps="normal" font-variant-numeric="normal" font-variant-alternates="normal" font-feature-settings="normal" text-indent="0" text-align="start" text-decoration-line="none" text-decoration-style="solid" text-decoration-color="#000000" text-transform="none" text-orientation="mixed" white-space="normal" shape-padding="0" isolation="auto" mix-blend-mode="normal" solid-color="#000000" solid-opacity="1" vector-effect="none"/><g id="g4911" fill="#4d4d4d" transform="translate(.514)"><path id="path4907" d="m9.8111774 283.18429a.67799478.67799478 0 0 0 -.6779948.67799.67799478.67799478 0 0 0 .6779948.678.67799478.67799478 0 0 0 .6779946-.678.67799478.67799478 0 0 0 -.6779946-.67799z" vector-effect="none"/><path id="path10354-7-0" d="m22.720703 11.783203a2.5625 2.5625 0 0 0 -2.5625 2.5625 2.5625 2.5625 0 0 0 2.5625 2.5625 2.5625 2.5625 0 0 0 2.5625-2.5625 2.5625 2.5625 0 0 0 -2.5625-2.5625z" transform="matrix(.265 0 0 .265 0 280.067)" vector-effect="none"/></g><path id="rect5071" d="m12.968201 285.54458v1.11454c0 .37572.30279.67799.678511.67799h1.052132c.375721 0 .677995-.30227.677995-.67799v-1.11454z" fill="#666" vector-effect="none"/><path id="path5106" d="m51.398438 20.703125c-1.274959 1.178148-.809086 4.110156 1.412109 3.980469h5.306641v-3.980469z" fill="#4d4d4d" transform="matrix(.265 0 0 .265 0 280.067)" font-variant-ligatures="normal" font-variant-position="normal" font-variant-caps="normal" font-variant-numeric="normal" font-variant-alternates="normal" font-feature-settings="normal" text-indent="0" text-align="start" text-decoration-line="none" text-decoration-style="solid" text-decoration-color="#000000" text-transform="none" text-orientation="mixed" white-space="normal" shape-padding="0" isolation="auto" mix-blend-mode="normal" solid-color="#000000" solid-opacity="1" vector-effect="none"/><path id="path4902" d="m53.566406 2.015625a8.4375 8.4375 0 0 0 -8.4375 8.4375 8.4375 8.4375 0 0 0 3.884766 7.091797v4.042969h9.103516v-4.03125a8.4375 8.4375 0 0 0 3.886718-7.103516 8.4375 8.4375 0 0 0 -8.4375-8.4375z" fill="#55a1ff" transform="matrix(.265 0 0 .265 0 280.067)" vector-effect="none"/><path id="path5078" d="m14.676623 282.28826c-.07157.005-.148349.0405-.217557.11937l-.336931.35812-.33693-.35812c-.312914-.27078-.617562.16379-.38499.36329l.457337.48576v2.52177h.529167v-2.52177l.456819-.48576c.216467-.22886.04779-.49635-.166915-.48266z" fill="#ffc861" font-variant-ligatures="normal" font-variant-position="normal" font-variant-caps="normal" font-variant-numeric="normal" font-variant-alternates="normal" font-feature-settings="normal" text-indent="0" text-align="start" text-decoration-line="none" text-decoration-style="solid" text-decoration-color="#000000" text-transform="none" text-orientation="mixed" white-space="normal" shape-padding="0" isolation="auto" mix-blend-mode="normal" solid-color="#000000" solid-opacity="1" vector-effect="none"/><path id="rect6346" d="m7.9696918 287.6709h.9120496c.5830171 0 1.0523775.46936 1.0523775 1.05238v3.39098c0 .58301-.4693604 1.05237-1.0523775 1.05237h-.9120496c-.5830172 0-1.0523776-.46936-1.0523776-1.05237v-3.39098c0-.58302.4693604-1.05238 1.0523776-1.05238z" fill="#ef6356" vector-effect="none"/><path id="path6718" d="m9.9341534 289.54424c-.3348024.30555-.8010559.36739-.809253.36845h-.9332764c-.7467502-.0436-.7467502 1.10039 0 1.05679h.982369c.2783782 0 .5609199-.0978.7601604-.17674z" fill="#d85750" font-variant-ligatures="normal" font-variant-position="normal" font-variant-caps="normal" font-variant-numeric="normal" font-variant-alternates="normal" font-feature-settings="normal" text-indent="0" text-align="start" text-decoration-line="none" text-decoration-style="solid" text-decoration-color="#000000" text-transform="none" text-orientation="mixed" white-space="normal" shape-padding="0" isolation="auto" mix-blend-mode="normal" solid-color="#000000" solid-opacity="1" vector-effect="none"/><path id="path6660" d="m7.969932 287.67097c-.5830173 0-1.052649.46912-1.052649 1.05213v.88419c.1740284.32005.508826.53898.9002035.53898h1.2164631c.3913775 0 .7261752-.21893.9002034-.53898v-.88419c0-.58301-.4696316-1.05213-1.0526489-1.05213z" fill="#d1dcff" vector-effect="none"/></g></svg>