<!--
  - Copyright (c) 2023. Selldone® Business OS™
  -
  - Author: M.Pajuhaan
  - Web: https://selldone.com
  - ━━━━━━━━━━━━━━━━━━━━━━━━━━━━━━━━━━━━━━━━━━━━━━━━━━━━━━
  -
  - All rights reserved. In the weave of time, where traditions and innovations intermingle, this content was crafted.
  - From the essence of thought, through the corridors of creativity, each word, and sentiment has been molded.
  - Not just to exist, but to inspire. Like an artist's stroke or a sculptor's chisel, every nuance is deliberate.
  - Our journey is not just about reaching a destination, but about creating a masterpiece.
  - Tread carefully, for you're treading on dreams.
  -->

<svg id="svg4593" height="512" viewBox="0 0 16.933333 16.933334" width="512" xmlns="http://www.w3.org/2000/svg" xmlns:svg="http://www.w3.org/2000/svg"><clipPath id="clipPath5337"><path id="rect5339" d="m34.774 274.321h35.435v25.702h-35.435z"/></clipPath><clipPath id="clipPath4542"><path id="rect4544" d="m-535.214-48.848h501.574v185.586h-501.574z"/></clipPath><clipPath id="clipPath11017"><path id="rect11019" d="m36.669 153.503h29.654v28.999h-29.654z" transform="rotate(-90)" vector-effect="none"/></clipPath><clipPath id="clipPath11444"><path id="rect11446" d="m-143.933 265.779h28.84v29.104h-28.84z" transform="rotate(-90)" vector-effect="none"/></clipPath><clipPath id="clipPath11781"><rect id="rect11783" height="32.411" rx=".634" transform="rotate(-90)" width="32.941" x="-145.124" y="181.377"/></clipPath><clipPath id="clipPath11499"><path id="rect11501" d="m-551.399-9.261h16.064v16.347h-16.064z" vector-effect="none"/></clipPath><g id="layer1" transform="translate(0 -280.067)"><circle id="path34863-8-21" cx="8.467" cy="288.533" fill="#ffc861" r="7.938"/><path id="path35244-8-27" d="m15.46882 287.71215c.8196 5.66444-5.93651 10.35195-10.9337 6.64869-.3861-.22689-.86339.10719-.79211.5493 1.36521 1.01559 3.02212 1.55683 4.72365 1.56013 4.38376 0 7.9375-3.55374 7.9375-7.9375-.00003-.45048-.0384-.90013-.11472-1.3441-.40918-.23994-.87988.0804-.82062.52348z" fill="#ffab61" font-variant-ligatures="normal" font-variant-position="normal" font-variant-caps="normal" font-variant-numeric="normal" font-variant-alternates="normal" font-feature-settings="normal" text-indent="0" text-align="start" text-decoration-line="none" text-decoration-style="solid" text-decoration-color="#000000" text-transform="none" text-orientation="mixed" white-space="normal" shape-padding="0" isolation="auto" mix-blend-mode="normal" solid-color="#000000" solid-opacity="1" vector-effect="none"/><path id="path16732" d="m4.133403 288.88144c-.600341 0-1.076158.54948-.858863 1.27227.775969 2.53177 2.828386 4.29286 5.190381 4.29586 2.65629 0 4.584281-2.46231 5.192445-4.29586.217295-.72279-.258522-1.27227-.858863-1.27227-2.8883636 0-5.776747 0-8.6651 0z" fill="#ef6356" vector-effect="none"/><path id="path16770" d="m9.8762045 288.88144v1.47794c0 .36512-.2118749.69505-.6149497.69505h-1.0939898c-.705733 0-.705733 1.05885 0 1.05885h1.1482503c.9195557 0 1.6195387-.61522 1.6195387-1.69344.000047-.51054.000015-1.02495 0-1.5384z" fill="#d85750" font-variant-ligatures="normal" font-variant-position="normal" font-variant-caps="normal" font-variant-numeric="normal" font-variant-alternates="normal" font-feature-settings="normal" text-indent="0" text-align="start" text-decoration-line="none" text-decoration-style="solid" text-decoration-color="#000000" text-transform="none" text-orientation="mixed" white-space="normal" shape-padding="0" isolation="auto" mix-blend-mode="normal" solid-color="#000000" solid-opacity="1" vector-effect="none"/><path id="rect3816-3" d="m6.828845 288.88144v1.39475c0 .57006.458818 1.02888 1.028878 1.02888h1.216463c.5700601 0 1.028878-.45882 1.028878-1.02888v-1.39475z" fill="#d1dcff" vector-effect="none"/><g id="g22661" transform="translate(-.046)"><path id="path5959-8" d="m4.2186673 286.04347c.37677.65183.94448 1.08781 1.39177 1.06885.44726.0188 1.01486-.41713 1.39156-1.06885.962433-1.64466-.358748-2.78264-1.39158-1.40921-1.2285336-1.41417-2.2778826-.12562-1.39175 1.40921z" fill="#ef6356" vector-effect="none"/><path id="path5961-5" d="m6.3115573 285.54589s-.535.77172-1.29657 1.37252c.20235.12862.41199.20156.59532.19379.44726.0188 1.01494-.41695 1.39164-1.06867.0922-.15964.16615-.32077.22325-.47955-.31502-.37091-.72228-.30714-.91364-.0181z" fill="#d85750" font-variant-ligatures="normal" font-variant-position="normal" font-variant-caps="normal" font-variant-numeric="normal" font-variant-alternates="normal" font-feature-settings="normal" text-indent="0" text-align="start" text-decoration-line="none" text-decoration-style="solid" text-decoration-color="#000000" text-transform="none" text-orientation="mixed" white-space="normal" shape-padding="0" isolation="auto" mix-blend-mode="normal" solid-color="#000000" solid-opacity="1" vector-effect="none"/><g id="g22654"><path id="path22648" d="m10.018416 286.04347c.37677.65183.94448 1.08781 1.39177 1.06885.44726.0188 1.01486-.41713 1.39156-1.06885.962433-1.64466-.358748-2.78264-1.39158-1.40921-1.228534-1.41417-2.2778825-.12562-1.39175 1.40921z" fill="#ef6356" vector-effect="none"/><path id="path22650" d="m12.111306 285.54589s-.535.77172-1.29657 1.37252c.20235.12862.41199.20156.59532.19379.44726.0188 1.01494-.41695 1.39164-1.06867.0922-.15964.16615-.32077.22325-.47955-.31502-.37091-.72228-.30714-.91364-.0181z" fill="#d85750" font-variant-ligatures="normal" font-variant-position="normal" font-variant-caps="normal" font-variant-numeric="normal" font-variant-alternates="normal" font-feature-settings="normal" text-indent="0" text-align="start" text-decoration-line="none" text-decoration-style="solid" text-decoration-color="#000000" text-transform="none" text-orientation="mixed" white-space="normal" shape-padding="0" isolation="auto" mix-blend-mode="normal" solid-color="#000000" solid-opacity="1" vector-effect="none"/></g></g></g></svg>