<!--
  - Copyright (c) 2023. Selldone® Business OS™
  -
  - Author: M.Pajuhaan
  - Web: https://selldone.com
  - ━━━━━━━━━━━━━━━━━━━━━━━━━━━━━━━━━━━━━━━━━━━━━━━━━━━━━━
  -
  - All rights reserved. In the weave of time, where traditions and innovations intermingle, this content was crafted.
  - From the essence of thought, through the corridors of creativity, each word, and sentiment has been molded.
  - Not just to exist, but to inspire. Like an artist's stroke or a sculptor's chisel, every nuance is deliberate.
  - Our journey is not just about reaching a destination, but about creating a masterpiece.
  - Tread carefully, for you're treading on dreams.
  -->

<svg id="svg4593" height="512" viewBox="0 0 16.933333 16.933334" width="512" xmlns="http://www.w3.org/2000/svg" xmlns:svg="http://www.w3.org/2000/svg"><clipPath id="clipPath5337"><path id="rect5339" d="m34.774 274.321h35.435v25.702h-35.435z"/></clipPath><clipPath id="clipPath4542"><path id="rect4544" d="m-535.214-48.848h501.574v185.586h-501.574z"/></clipPath><clipPath id="clipPath11017"><path id="rect11019" d="m36.669 153.503h29.654v28.999h-29.654z" transform="rotate(-90)" vector-effect="none"/></clipPath><clipPath id="clipPath11444"><path id="rect11446" d="m-143.933 265.779h28.84v29.104h-28.84z" transform="rotate(-90)" vector-effect="none"/></clipPath><clipPath id="clipPath11781"><rect id="rect11783" height="32.411" rx=".634" transform="rotate(-90)" width="32.941" x="-145.124" y="181.377"/></clipPath><clipPath id="clipPath11499"><path id="rect11501" d="m-551.399-9.261h16.064v16.347h-16.064z" vector-effect="none"/></clipPath><g id="layer1" transform="translate(0 -280.067)"><circle id="path34863-8" cx="8.467" cy="288.533" fill="#ffc861" r="7.938"/><path id="path35244-8" d="m15.46882 287.71215c.8196 5.66444-5.93651 10.35195-10.9337 6.64869-.3861-.22689-.86339.10719-.79211.5493 1.36521 1.01559 3.02212 1.55683 4.72365 1.56013 4.38376 0 7.9375-3.55374 7.9375-7.9375-.00003-.45048-.0384-.90013-.11472-1.3441-.40918-.23994-.87988.0804-.82062.52348z" fill="#ffab61" font-variant-ligatures="normal" font-variant-position="normal" font-variant-caps="normal" font-variant-numeric="normal" font-variant-alternates="normal" font-feature-settings="normal" text-indent="0" text-align="start" text-decoration-line="none" text-decoration-style="solid" text-decoration-color="#000000" text-transform="none" text-orientation="mixed" white-space="normal" shape-padding="0" isolation="auto" mix-blend-mode="normal" solid-color="#000000" solid-opacity="1" vector-effect="none"/><path id="path3950" d="m8.0799973 288.53332c-.35286 0-.35286.52917 0 .52917.67572 0 .70969 1.17565 0 1.17565-.38636 0-.3629.53122 0 .53122.67572 0 .70969 1.17616 0 1.17616-.35286 0-.35286.52916 0 .52916 1.05886 0 1.37074-1.41552.70332-1.99212.61127-.60044.45324-1.94924-.70332-1.94924z" fill="#4d4d4d" font-variant-ligatures="normal" font-variant-position="normal" font-variant-caps="normal" font-variant-numeric="normal" font-variant-alternates="normal" font-feature-settings="normal" text-indent="0" text-align="start" text-decoration-line="none" text-decoration-style="solid" text-decoration-color="#000000" text-transform="none" text-orientation="mixed" white-space="normal" shape-padding="0" isolation="auto" mix-blend-mode="normal" solid-color="#000000" solid-opacity="1" vector-effect="none"/><g id="g16443" fill="#4d4d4d" transform="matrix(1 0 0 -1 -41.586 574.55)"><path id="path4005" d="m46.391743 288.53332c0 1.6728 2.49414 1.6716 2.49414 0 0-.35287-.5293-.35287-.5293 0-.0539.96593-1.41831.85313-1.43555 0 0-.35286-.52929-.35286-.52929 0z" font-variant-ligatures="normal" font-variant-position="normal" font-variant-caps="normal" font-variant-numeric="normal" font-variant-alternates="normal" font-feature-settings="normal" text-indent="0" text-align="start" text-decoration-line="none" text-decoration-style="solid" text-decoration-color="#000000" text-transform="none" text-orientation="mixed" white-space="normal" shape-padding="0" isolation="auto" mix-blend-mode="normal" solid-color="#000000" solid-opacity="1" vector-effect="none"/><path id="path4009" d="m51.220393 288.53332c0 1.6728 2.49414 1.6716 2.49414 0 0-.35287-.5293-.35287-.5293 0-.0539.96593-1.41831.85313-1.43555 0 0-.35286-.52929-.35286-.52929 0z" font-variant-ligatures="normal" font-variant-position="normal" font-variant-caps="normal" font-variant-numeric="normal" font-variant-alternates="normal" font-feature-settings="normal" text-indent="0" text-align="start" text-decoration-line="none" text-decoration-style="solid" text-decoration-color="#000000" text-transform="none" text-orientation="mixed" white-space="normal" shape-padding="0" isolation="auto" mix-blend-mode="normal" solid-color="#000000" solid-opacity="1" vector-effect="none"/></g><path id="path5008" d="m11.005024 289.16731c.37677.65183.944479 1.08781 1.391768 1.06885.447264.0188 1.014861-.41713 1.391563-1.06885.956875-1.58558-.373416-2.82799-1.391567-1.40921-1.228543-1.41417-2.148979.0332-1.391764 1.40921z" fill="#ef6356" vector-effect="none"/><path id="path16447" d="m49.503906 32.515625s-2.022042 2.91673-4.900391 5.1875c.764782.486111 1.557108.761793 2.250001.732422 1.690446.07106 3.83601-1.575869 5.259765-4.039063.348357-.603382.627943-1.212361.84375-1.8125-1.190622-1.401842-2.72986-1.160826-3.453125-.06836z" fill="#d85750" transform="matrix(.265 0 0 .265 0 280.067)" font-variant-ligatures="normal" font-variant-position="normal" font-variant-caps="normal" font-variant-numeric="normal" font-variant-alternates="normal" font-feature-settings="normal" text-indent="0" text-align="start" text-decoration-line="none" text-decoration-style="solid" text-decoration-color="#000000" text-transform="none" text-orientation="mixed" white-space="normal" shape-padding="0" isolation="auto" mix-blend-mode="normal" solid-color="#000000" solid-opacity="1" vector-effect="none"/></g></svg>