<svg id="svg4593" height="512" viewBox="0 0 16.933333 16.933334" width="512" xmlns="http://www.w3.org/2000/svg" xmlns:svg="http://www.w3.org/2000/svg"><clipPath id="clipPath5337"><path id="rect5339" d="m34.774 274.321h35.435v25.702h-35.435z"/></clipPath><clipPath id="clipPath4542"><path id="rect4544" d="m-535.214-48.848h501.574v185.586h-501.574z"/></clipPath><clipPath id="clipPath11017"><path id="rect11019" d="m36.669 153.503h29.654v28.999h-29.654z" transform="rotate(-90)" vector-effect="none"/></clipPath><clipPath id="clipPath11444"><path id="rect11446" d="m-143.933 265.779h28.84v29.104h-28.84z" transform="rotate(-90)" vector-effect="none"/></clipPath><clipPath id="clipPath11781"><rect id="rect11783" height="32.411" rx=".634" transform="rotate(-90)" width="32.941" x="-145.124" y="181.377"/></clipPath><clipPath id="clipPath11499"><path id="rect11501" d="m-551.399-9.261h16.064v16.347h-16.064z" vector-effect="none"/></clipPath><g id="layer1" transform="translate(0 -280.067)"><circle id="path34863" cx="8.467" cy="288.533" fill="#ffc861" r="7.938"/><path id="path35244" d="m58.464844 28.898438c3.097691 21.408908-22.437212 39.125499-41.324219 25.128906-1.459263-.857541-3.263206.405112-2.993805 2.076114 5.159874 3.838446 11.422176 5.884046 17.85318 5.896542 16.568539-.000009 29.999991-13.431461 30-30-.000114-1.702595-.145169-3.402091-.433594-5.080078-1.546492-.90687-3.325528.303669-3.101562 1.978516z" fill="#ffab61" transform="matrix(.265 0 0 .265 0 280.067)" font-variant-ligatures="normal" font-variant-position="normal" font-variant-caps="normal" font-variant-numeric="normal" font-variant-alternates="normal" font-feature-settings="normal" text-indent="0" text-align="start" text-decoration-line="none" text-decoration-style="solid" text-decoration-color="#000000" text-transform="none" text-orientation="mixed" white-space="normal" shape-padding="0" isolation="auto" mix-blend-mode="normal" solid-color="#000000" solid-opacity="1" vector-effect="none"/><path id="path5940" d="m8.4335938 289.21875a.529295.529295 0 1 0 0 1.05859h4.4238282a.529295.529295 0 1 0 0-1.05859z" fill="#ffab61" font-variant-ligatures="normal" font-variant-position="normal" font-variant-caps="normal" font-variant-numeric="normal" font-variant-alternates="normal" font-feature-settings="normal" text-indent="0" text-align="start" text-decoration-line="none" text-decoration-style="solid" text-decoration-color="#000000" text-transform="none" text-orientation="mixed" white-space="normal" shape-padding="0" isolation="auto" mix-blend-mode="normal" solid-color="#000000" solid-opacity="1" vector-effect="none"/><path id="path4369" d="m6.180224 286.60956a1.7197917 1.7197917 0 0 1 -1.71979-1.71979 1.7197917 1.7197917 0 0 1 1.71979-1.71979 1.7197917 1.7197917 0 0 1 1.7197902 1.71979 1.7197917 1.7197917 0 0 1 -1.7197902 1.71979z" fill="#d1dcff" vector-effect="none"/><path id="path4371" d="m6.6850274 286.40619a1.008724 1.008724 0 0 1 -1.00872-1.00872 1.008724 1.008724 0 0 1 1.00872-1.00873 1.008724 1.008724 0 0 1 1.00872 1.00873 1.008724 1.008724 0 0 1 -1.00872 1.00872z" fill="#666" vector-effect="none"/><path id="rect5896" d="m8.1464844 287.5918c-.3528598.0182-.3255158.54752.027344.52929h6.2675776c.29202 0 .517578.22557.517578.51758 0 .29202-.225562.51953-.517578.51953h-6.2675779c-.3528667 0-.3528667.5293 0 .5293h6.2675779c.576028 0 1.046875-.4728 1.046875-1.04883 0-.57602-.470851-1.04687-1.046875-1.04687-2.097669 0-4.199212 0-6.2949216 0z" fill="#4d4d4d" font-variant-ligatures="normal" font-variant-position="normal" font-variant-caps="normal" font-variant-numeric="normal" font-variant-alternates="normal" font-feature-settings="normal" text-indent="0" text-align="start" text-decoration-line="none" text-decoration-style="solid" text-decoration-color="#000000" text-transform="none" text-orientation="mixed" white-space="normal" shape-padding="0" isolation="auto" mix-blend-mode="normal" solid-color="#000000" solid-opacity="1" vector-effect="none"/><path id="path5938" d="m6.6776115 292.83521c-.26723.24446.11313.63899.36719.38086.89539-.74097 2.27641-1.5692 3.3105495-.93359.31073.20106.59414-.28657.26562-.45703-1.3808695-.74685-2.8057595.0165-3.9433595 1.00976z" fill="#4d4d4d" font-variant-ligatures="normal" font-variant-position="normal" font-variant-caps="normal" font-variant-numeric="normal" font-variant-alternates="normal" font-feature-settings="normal" text-indent="0" text-align="start" text-decoration-line="none" text-decoration-style="solid" text-decoration-color="#000000" text-transform="none" text-orientation="mixed" white-space="normal" shape-padding="0" isolation="auto" mix-blend-mode="normal" solid-color="#000000" solid-opacity="1" vector-effect="none"/><path id="path5965" d="m10.857441 286.60956a1.7197917 1.7197917 0 0 1 -1.7197902-1.71979 1.7197917 1.7197917 0 0 1 1.7197902-1.71979 1.7197917 1.7197917 0 0 1 1.71979 1.71979 1.7197917 1.7197917 0 0 1 -1.71979 1.71979z" fill="#d1dcff" vector-effect="none"/><path id="path5967" d="m11.362244 286.40619a1.008724 1.008724 0 0 1 -1.00872-1.00872 1.008724 1.008724 0 0 1 1.00872-1.00873 1.008724 1.008724 0 0 1 1.00872 1.00873 1.008724 1.008724 0 0 1 -1.00872 1.00872z" fill="#666" vector-effect="none"/></g></svg>