<svg xmlns:svg="http://www.w3.org/2000/svg" id="svg4593" height="512" viewBox="0 0 16.933333 16.933334" width="512"
     xmlns="http://www.w3.org/2000/svg">
    <clipPath id="clipPath5337">
        <path id="rect5339" d="m34.774 274.321h35.435v25.702h-35.435z"/>
    </clipPath>
    <clipPath id="clipPath4542">
        <path id="rect4544" d="m-535.214-48.848h501.574v185.586h-501.574z"/>
    </clipPath>
    <clipPath id="clipPath11017">
        <path id="rect11019" d="m36.669 153.503h29.654v28.999h-29.654z" transform="rotate(-90)" vector-effect="none"/>
    </clipPath>
    <clipPath id="clipPath11444">
        <path id="rect11446" d="m-143.933 265.779h28.84v29.104h-28.84z" transform="rotate(-90)" vector-effect="none"/>
    </clipPath>
    <clipPath id="clipPath11781">
        <rect id="rect11783" height="32.411" rx=".634" transform="rotate(-90)" width="32.941" x="-145.124" y="181.377"/>
    </clipPath>
    <clipPath id="clipPath11499">
        <path id="rect11501" d="m-551.399-9.261h16.064v16.347h-16.064z" vector-effect="none"/>
    </clipPath>
    <g id="layer1" transform="translate(0 -280.067)">
        <path id="path34863-0"
              d="m16.40417 288.53278a7.9375048 7.9375048 0 0 1 -7.9375047 7.9375 7.9375048 7.9375048 0 0 1 -7.9375048-7.9375 7.9375048 7.9375048 0 0 1 7.9375048-7.93751 7.9375048 7.9375048 0 0 1 7.9375047 7.93751z"
              fill="#ffc861" vector-effect="none"/>
        <path id="path35244-56"
              d="m15.468824 287.71214c.8196 5.66444-5.93651 10.35196-10.9337 6.64869-.3861-.22689-.86339.10719-.79211.54931 1.36521 1.01559 3.02212 1.55682 4.72365 1.56013 4.38376-.00001 7.9375-3.55374 7.9375-7.9375-.00003-.45048-.0384-.90014-.11472-1.34411-.40918-.23994-.87988.0803-.82062.52348z"
              fill="#ffab61" font-variant-ligatures="normal" font-variant-position="normal" font-variant-caps="normal"
              font-variant-numeric="normal" font-variant-alternates="normal" font-feature-settings="normal"
              text-indent="0" text-align="start" text-decoration-line="none" text-decoration-style="solid"
              text-decoration-color="#000000" text-transform="none" text-orientation="mixed" white-space="normal"
              shape-padding="0" isolation="auto" mix-blend-mode="normal" solid-color="#000000" solid-opacity="1"
              vector-effect="none"/>
        <path id="path51336"
              d="m13.319323 286.65133s-.0484 1.28382-1.55469 1.69336c-.68098.1849-.40364 1.20638.27735 1.02148 2.08213-.5661 2.33203-2.62109 2.33203-2.62109.078-.67259-.98039-.82105-1.05469-.0937z"
              fill="#ffab61" font-variant-ligatures="normal" font-variant-position="normal" font-variant-caps="normal"
              font-variant-numeric="normal" font-variant-alternates="normal" font-feature-settings="normal"
              text-indent="0" text-align="start" text-decoration-line="none" text-decoration-style="solid"
              text-decoration-color="#000000" text-transform="none" text-orientation="mixed" white-space="normal"
              shape-padding="0" isolation="auto" mix-blend-mode="normal" solid-color="#000000" solid-opacity="1"
              vector-effect="none"/>
        <path id="path3638-9-2"
              d="m13.083273 285.06844-3.9801202 1.47174a2.2158859 2.2158859 0 0 0 2.2107202 2.0743 2.2158859 2.2158859 0 0 0 2.21589-2.21589 2.2158859 2.2158859 0 0 0 -.44649-1.33015z"
              fill="#d1dcff" vector-effect="none"/>
        <path id="path11981"
              d="m3.6140106 286.65133s.0484 1.28382 1.5546902 1.69336c.68098.1849.40364 1.20638-.27735 1.02148-2.0821302-.5661-2.3320302-2.62109-2.3320302-2.62109-.078-.67259.98039-.82105 1.05469-.0937z"
              fill="#ffab61" font-variant-ligatures="normal" font-variant-position="normal" font-variant-caps="normal"
              font-variant-numeric="normal" font-variant-alternates="normal" font-feature-settings="normal"
              text-indent="0" text-align="start" text-decoration-line="none" text-decoration-style="solid"
              text-decoration-color="#000000" text-transform="none" text-orientation="mixed" white-space="normal"
              shape-padding="0" isolation="auto" mix-blend-mode="normal" solid-color="#000000" solid-opacity="1"
              vector-effect="none"/>
        <path id="path11983"
              d="m3.8500606 285.06844 3.9801202 1.47174a2.2158859 2.2158859 0 0 1 -2.21072 2.0743 2.2158859 2.2158859 0 0 1 -2.2158902-2.21589 2.2158859 2.2158859 0 0 1 .44649-1.33015z"
              fill="#d1dcff" vector-effect="none"/>
        <path id="rect11999"
              d="m8.2035632 290.26965h.7124344c.4473215 0 .8074395.36012.8074395.80744v3.06494c0 .44732-.360118.80744-.8074395.80744h-1.9105679c-.4473215 0-.7227398-.37649-.6028113-.80744l.8529454-3.06494c.1199285-.43095.5006779-.80744.9479994-.80744z"
              fill="#ef6356" vector-effect="none"/>
        <path id="path51236-9"
              d="m51.132812 17.103516c-5.731351 2.163628-12.778632 4.731408-19.132812 7.236328-6.35418-2.50492-13.401461-5.072738-19.132812-7.236328-1.79898-.669959-3.9461194-.09257-4.8125005 1.408203-.7081701 1.168063 1.0824821 2.196282 1.734375.996093.3877415-.671697 1.1450005-1.056578 2.2285155-.595703 2.542508 1.110707 5.160485 2.033266 7.761719 2.994141-1.396857 1.78039-.02399 4.225674 1.740234 4.279297 1.867928 0 2.964304-1.331726 2.71675-2.63477 2.068245.751285 4.127408 1.52596 6.181641 2.314453 1.169575.602608 1.916818.588775 3.164062 0 2.049594-.800552 4.117731-1.55192 6.181641-2.314453-.02955 1.579744 1.346101 2.597858 2.5605 2.63477 2.349304 0 3.300665-2.89955 1.896484-4.279297 2.611361-.937364 5.209142-1.906932 7.761719-2.994141 1.083553-.460875 1.840774-.07596 2.228516.595703.651892 1.200189 2.442545.17197 1.734374-.996093-1.5561-1.791914-3.072174-2.062722-4.812406-1.408203z"
              fill="#4d4d4d" transform="matrix(.265 0 0 .265 0 280.067)" font-variant-ligatures="normal"
              font-variant-position="normal" font-variant-caps="normal" font-variant-numeric="normal"
              font-variant-alternates="normal" font-feature-settings="normal" text-indent="0" text-align="start"
              text-decoration-line="none" text-decoration-style="solid" text-decoration-color="#000000"
              text-transform="none" text-orientation="mixed" white-space="normal" shape-padding="0" isolation="auto"
              mix-blend-mode="normal" solid-color="#000000" solid-opacity="1" vector-effect="none"/>
        <path id="path9285"
              d="m9.7234374 291.2701c-.1369039.35739-.4012502.37845-.4159954.37982h-1.4366047c-.7057265 0-.7057265 1.05885 0 1.05885h1.5461589c.04141.00026.082651-.004.1229899-.014 0 0 .073179-.0222.1834513-.0729z"
              fill="#d85750" font-variant-ligatures="normal" font-variant-position="normal" font-variant-caps="normal"
              font-variant-numeric="normal" font-variant-alternates="normal" font-feature-settings="normal"
              text-indent="0" text-align="start" text-decoration-line="none" text-decoration-style="solid"
              text-decoration-color="#000000" text-transform="none" text-orientation="mixed" white-space="normal"
              shape-padding="0" isolation="auto" mix-blend-mode="normal" solid-color="#000000" solid-opacity="1"
              vector-effect="none"/>
        <path id="path12049"
              d="m31.005859 38.5625c-1.690664 0-3.130711 1.423947-3.583984 3.052734l-.548828 1.976563c.49334 1.121371 1.608101 1.902344 2.916015 1.902344h3.771485c1.767253 0 3.189453-1.422184 3.189453-3.189453v-.689454c0-1.690658-1.360117-3.052734-3.050781-3.052734z"
              fill="#d1dcff" transform="matrix(.265 0 0 .265 0 280.067)" vector-effect="none"/>
    </g>
</svg>