

<svg id="svg4593" height="512" viewBox="0 0 16.933333 16.933334" width="512" xmlns="http://www.w3.org/2000/svg" xmlns:svg="http://www.w3.org/2000/svg"><clipPath id="clipPath5337"><path id="rect5339" d="m34.774 274.321h35.435v25.702h-35.435z"/></clipPath><clipPath id="clipPath4542"><path id="rect4544" d="m-535.214-48.848h501.574v185.586h-501.574z"/></clipPath><clipPath id="clipPath11017"><path id="rect11019" d="m36.669 153.503h29.654v28.999h-29.654z" transform="rotate(-90)" vector-effect="none"/></clipPath><clipPath id="clipPath11444"><path id="rect11446" d="m-143.933 265.779h28.84v29.104h-28.84z" transform="rotate(-90)" vector-effect="none"/></clipPath><clipPath id="clipPath11781"><rect id="rect11783" height="32.411" rx=".634" transform="rotate(-90)" width="32.941" x="-145.124" y="181.377"/></clipPath><clipPath id="clipPath11499"><path id="rect11501" d="m-551.399-9.261h16.064v16.347h-16.064z" vector-effect="none"/></clipPath><g id="layer1" transform="translate(0 -280.067)"><circle id="path34863-0" cx="8.467" cy="288.533" fill="#6fc882" r="7.938"/><path id="path35244-56" d="m15.468824 287.71214c.8196 5.66444-5.93651 10.35196-10.9337 6.64869-.3861-.22689-.86339.10719-.79211.54931 1.36521 1.01559 3.02212 1.55682 4.72365 1.56013 4.38376-.00001 7.9375-3.55374 7.9375-7.9375-.00003-.45048-.0384-.90014-.11472-1.34411-.40918-.23994-.87988.0803-.82062.52348z" fill="#69bb9a" font-variant-ligatures="normal" font-variant-position="normal" font-variant-caps="normal" font-variant-numeric="normal" font-variant-alternates="normal" font-feature-settings="normal" text-indent="0" text-align="start" text-decoration-line="none" text-decoration-style="solid" text-decoration-color="#000000" text-transform="none" text-orientation="mixed" white-space="normal" shape-padding="0" isolation="auto" mix-blend-mode="normal" solid-color="#000000" solid-opacity="1" vector-effect="none"/><g fill="#4d4d4d"><g id="g20288" transform="translate(.714)"><path id="path10354-7-4-1" d="m5.6938443 285.7949c-.3432562.14963-.7428053-.007-.8924314-.35059-.04664-.10734-.064704-.22493-.052389-.34133-.2809144.0434-.534691.0357-.7290752-.0159-.341252-.0914-.2041587-.60326.1370983-.51187.6629611.15489 1.4061916-.23005 1.7353371-.76516.1790562-.30897.6410829-.0337.454607.27085-.1382399.2327-.3117015.41648-.5003507.5631.085946.0688.153738.15741.1977008.25827.1496261.34325-.00734.7428-.3505965.89242z" vector-effect="none"/><path id="path20284" d="m9.8108363 285.7949c.3432557.14963.7428057-.007.8924317-.35059.04664-.10734.0647-.22493.05239-.34133.280914.0434.534691.0357.729075-.0159.341252-.0914.204159-.60326-.137098-.51187-.662962.15489-1.406192-.23005-1.7353375-.76516-.1790562-.30897-.6410829-.0337-.454607.27085.1382399.2327.3117015.41648.5003507.5631-.085946.0688-.153738.15741-.1977008.25827-.1496261.34325.00734.7428.3505965.89242z" vector-effect="none"/></g><path id="path20290" d="m8.4888874 288.7364c-1.2592452.0143-2.5298212.32046-3.5806599.87127-.1408219-.16703-.3099581-.30662-.5002279-.39688-.3209478-.14706-.5410943.33456-.2201415.48163.3906543.18959.6109925.69491.5932453 1.03973-.020233.35298.5094509.383.5296834.03.016043-.23618-.030532-.47789-.1240235-.70176.5830351-.28271 3.6378938-1.61167 6.5530887.0181-.08853.21884-.13292.45379-.117306.68368.02023.35303.549914.32301.529684-.03-.01775-.34482.202591-.85014.593245-1.03973.320953-.14707.100806-.62869-.220141-.48163-.195496.0927-.369136.23705-.512114.41032-1.000998-.61693-2.2549899-.89913-3.5243326-.88473z" font-variant-ligatures="normal" font-variant-position="normal" font-variant-caps="normal" font-variant-numeric="normal" font-variant-alternates="normal" font-feature-settings="normal" text-indent="0" text-align="start" text-decoration-line="none" text-decoration-style="solid" text-decoration-color="#000000" text-transform="none" text-orientation="mixed" white-space="normal" shape-padding="0" isolation="auto" mix-blend-mode="normal" solid-color="#000000" solid-opacity="1" vector-effect="none"/></g></g></svg>