<svg id="svg4593" height="512" viewBox="0 0 16.933333 16.933334" width="512" xmlns="http://www.w3.org/2000/svg" xmlns:svg="http://www.w3.org/2000/svg"><clipPath id="clipPath5337"><path id="rect5339" d="m34.774 274.321h35.435v25.702h-35.435z"/></clipPath><clipPath id="clipPath4542"><path id="rect4544" d="m-535.214-48.848h501.574v185.586h-501.574z"/></clipPath><clipPath id="clipPath11017"><path id="rect11019" d="m36.669 153.503h29.654v28.999h-29.654z" transform="rotate(-90)" vector-effect="none"/></clipPath><clipPath id="clipPath11444"><path id="rect11446" d="m-143.933 265.779h28.84v29.104h-28.84z" transform="rotate(-90)" vector-effect="none"/></clipPath><clipPath id="clipPath11781"><rect id="rect11783" height="32.411" rx=".634" transform="rotate(-90)" width="32.941" x="-145.124" y="181.377"/></clipPath><clipPath id="clipPath11499"><path id="rect11501" d="m-551.399-9.261h16.064v16.347h-16.064z" vector-effect="none"/></clipPath><g id="layer1" transform="translate(0 -280.067)"><circle id="path34863" cx="8.467" cy="288.533" fill="#ffc861" r="7.938"/><path id="path35244" d="m58.464844 28.898438c3.097691 21.408908-22.437212 39.125499-41.324219 25.128906-1.459263-.857541-3.263206.405112-2.993805 2.076114 5.159874 3.838446 11.422176 5.884046 17.85318 5.896542 16.568539-.000009 29.999991-13.431461 30-30-.000114-1.702595-.145169-3.402091-.433594-5.080078-1.546492-.90687-3.325528.303669-3.101562 1.978516z" fill="#ffab61" transform="matrix(.265 0 0 .265 0 280.067)" font-variant-ligatures="normal" font-variant-position="normal" font-variant-caps="normal" font-variant-numeric="normal" font-variant-alternates="normal" font-feature-settings="normal" text-indent="0" text-align="start" text-decoration-line="none" text-decoration-style="solid" text-decoration-color="#000000" text-transform="none" text-orientation="mixed" white-space="normal" shape-padding="0" isolation="auto" mix-blend-mode="normal" solid-color="#000000" solid-opacity="1" vector-effect="none"/><path id="path3638" d="m7.3587239 284.71341a1.7197917 1.7197917 0 0 1 -1.7197917 1.71979 1.7197917 1.7197917 0 0 1 -1.7197916-1.71979 1.7197917 1.7197917 0 0 1 1.7197916-1.71979 1.7197917 1.7197917 0 0 1 1.7197917 1.71979z" fill="#d1dcff" vector-effect="none"/><path id="circle3796" d="m7.9044268 284.72995a1.008724 1.008724 0 0 1 -1.0087239 1.00872 1.008724 1.008724 0 0 1 -1.008724-1.00872 1.008724 1.008724 0 0 1 1.008724-1.00872 1.008724 1.008724 0 0 1 1.0087239 1.00872z" fill="#4d4d4d" vector-effect="none"/><path id="path3804" d="m12.782682 284.71341a1.7197917 1.7197917 0 0 1 -1.719791 1.71979 1.7197917 1.7197917 0 0 1 -1.7197921-1.71979 1.7197917 1.7197917 0 0 1 1.7197921-1.71979 1.7197917 1.7197917 0 0 1 1.719791 1.71979z" fill="#d1dcff" vector-effect="none"/><path id="path3808" d="m13.328385 284.72995a1.008724 1.008724 0 0 1 -1.008724 1.00872 1.008724 1.008724 0 0 1 -1.008724-1.00872 1.008724 1.008724 0 0 1 1.008724-1.00872 1.008724 1.008724 0 0 1 1.008724 1.00872z" fill="#4d4d4d" vector-effect="none"/><path id="path3812" d="m10.975874 293.47168c-.342793.55652-1.863027.48946-2.5144262.4356-.7092318-.0586-2.0203971-.21232-2.3585335-.8385-.310564-.57513.427971-1.74751.8003142-2.28471.4054007-.58489 1.2737272-1.75421 1.9850907-1.73395.6533571.0186 1.2993998 1.24439 1.5784558 1.83545.303831.64353.882326 1.98018.509099 2.58611z" fill="#ef6356" transform="matrix(1.267 -.128 .128 1.267 -39.747 -77.164)" vector-effect="none"/><g transform="matrix(.265 0 0 .265 0 280.067)"><path id="path3876" d="m36.818359 33.089844c.0223 1.723992.104492 4.597608.04687 6.058594 0 1.111597-1.209965 1.8125-1.742187 1.8125h-6.3125c-2.667313 0-2.667313 4.001953 0 4.001953h6.371094c.01723.000226.03549.000226.05273 0 3.433627 0 5.230393-2.434981 5.564453-6.039063-1.095255-1.919506-2.599308-4.239776-3.98046-5.833984z" fill="#d85750" font-variant-ligatures="normal" font-variant-position="normal" font-variant-caps="normal" font-variant-numeric="normal" font-variant-alternates="normal" font-feature-settings="normal" text-indent="0" text-align="start" text-decoration-line="none" text-decoration-style="solid" text-decoration-color="#000000" text-transform="none" text-orientation="mixed" white-space="normal" shape-padding="0" isolation="auto" mix-blend-mode="normal" solid-color="#000000" solid-opacity="1" vector-effect="none"/><path id="rect3816" d="m31.722656 29.822266c-2.06262.148512-4.210068 2.408784-5.910156 4.826172v3.277343c0 2.154555 1.734118 3.888672 3.888672 3.888672h4.597656c2.154554 0 3.888672-1.734117 3.888672-3.888672v-3.08789c-1.84692-2.540843-4.275819-5.173239-6.464844-5.015625z" fill="#d1dcff" vector-effect="none"/></g></g></svg>