<!--
  - Copyright (c) 2023. Selldone® Business OS™
  -
  - Author: M.Pajuhaan
  - Web: https://selldone.com
  - ━━━━━━━━━━━━━━━━━━━━━━━━━━━━━━━━━━━━━━━━━━━━━━━━━━━━━━
  -
  - All rights reserved. In the weave of time, where traditions and innovations intermingle, this content was crafted.
  - From the essence of thought, through the corridors of creativity, each word, and sentiment has been molded.
  - Not just to exist, but to inspire. Like an artist's stroke or a sculptor's chisel, every nuance is deliberate.
  - Our journey is not just about reaching a destination, but about creating a masterpiece.
  - Tread carefully, for you're treading on dreams.
  -->

<svg id="svg4593" height="512" viewBox="0 0 16.933333 16.933334" width="512" xmlns="http://www.w3.org/2000/svg" xmlns:svg="http://www.w3.org/2000/svg"><clipPath id="clipPath5337"><path id="rect5339" d="m34.774 274.321h35.435v25.702h-35.435z"/></clipPath><clipPath id="clipPath4542"><path id="rect4544" d="m-535.214-48.848h501.574v185.586h-501.574z"/></clipPath><clipPath id="clipPath11017"><path id="rect11019" d="m36.669 153.503h29.654v28.999h-29.654z" transform="rotate(-90)" vector-effect="none"/></clipPath><clipPath id="clipPath11444"><path id="rect11446" d="m-143.933 265.779h28.84v29.104h-28.84z" transform="rotate(-90)" vector-effect="none"/></clipPath><clipPath id="clipPath11781"><rect id="rect11783" height="32.411" rx=".634" transform="rotate(-90)" width="32.941" x="-145.124" y="181.377"/></clipPath><clipPath id="clipPath11499"><path id="rect11501" d="m-551.399-9.261h16.064v16.347h-16.064z" vector-effect="none"/></clipPath><g id="layer1" transform="translate(0 -280.067)"><path id="path34863-8" d="m16.404171 288.53278a7.9375048 7.9375048 0 0 1 -7.9375048 7.9375 7.9375048 7.9375048 0 0 1 -7.93750475-7.9375 7.9375048 7.9375048 0 0 1 7.93750475-7.93751 7.9375048 7.9375048 0 0 1 7.9375048 7.93751z" fill="#ffc861" vector-effect="none"/><path id="path35244-8" d="m15.46882 287.71215c.8196 5.66444-5.93651 10.35195-10.9337 6.64869-.3861-.22689-.86339.10719-.79211.5493 1.36521 1.01559 3.02212 1.55683 4.72365 1.56013 4.38376 0 7.9375-3.55374 7.9375-7.9375-.00003-.45048-.0384-.90013-.11472-1.3441-.40918-.23994-.87988.0804-.82062.52348z" fill="#ffab61" font-variant-ligatures="normal" font-variant-position="normal" font-variant-caps="normal" font-variant-numeric="normal" font-variant-alternates="normal" font-feature-settings="normal" text-indent="0" text-align="start" text-decoration-line="none" text-decoration-style="solid" text-decoration-color="#000000" text-transform="none" text-orientation="mixed" white-space="normal" shape-padding="0" isolation="auto" mix-blend-mode="normal" solid-color="#000000" solid-opacity="1" vector-effect="none"/><g id="g5416" fill="#4d4d4d" transform="translate(.841)"><path id="path10354" d="m14.046875 16.734375c-1.363604-.03062-1.363604 2.030615 0 2h6.332031c-.497031 1.694016.734801 3.125 2.49609 3.125 1.41523 0 2.5625-1.14727 2.5625-2.5625 0-1.540222-1.290725-2.5625-2.5625-2.5625z" transform="matrix(.265 0 0 .265 0 280.067)" vector-effect="none"/><path id="path5412" d="m8.7913491 284.49429c-.3607869-.008-.3607869.53726 0 .52916h1.6753499c-.131506.44821.194416.82683.660424.82683.374446 0 .677995-.30355.677995-.678 0-.40752-.341505-.67799-.677995-.67799z" vector-effect="none"/></g><path id="path3825" d="m9.8950982 288.3421c.00843 1.82397-.012434 3.0901.00155 4.91234.02734 1.5963 1.3288688 2.87622 2.9254038 2.87683 1.61651 0 2.926951-1.31044 2.926953-2.92695 0-2.07238-1.635212-3.0391-3.61194-3.0391v-1.82314c0-1.65005-2.2419668-1.52069-2.2419668.00002z" fill="#55a1ff" vector-effect="none"/><path id="path3950" d="m7.2488572 287.41917c-.35286 0-.35286.52917 0 .52917.67572 0 .70969 1.17565 0 1.17565-.38636 0-.3629.53122 0 .53122.67572 0 .70969 1.17616 0 1.17616-.35286 0-.35286.52916 0 .52916 1.05886 0 1.37074-1.41552.70332-1.99212.61127-.60044.45324-1.94924-.70332-1.94924z" fill="#4d4d4d" font-variant-ligatures="normal" font-variant-position="normal" font-variant-caps="normal" font-variant-numeric="normal" font-variant-alternates="normal" font-feature-settings="normal" text-indent="0" text-align="start" text-decoration-line="none" text-decoration-style="solid" text-decoration-color="#000000" text-transform="none" text-orientation="mixed" white-space="normal" shape-padding="0" isolation="auto" mix-blend-mode="normal" solid-color="#000000" solid-opacity="1" vector-effect="none"/><path id="path3915" d="m59.474609 48.660156c-.938392 1.086259-2.260606 1.460497-3.726562 1.314453l-6.769531-.923828c-2.643228-.359375-3.182291 3.605469-.539063 3.964844l6.777344.923828c1.304164.170828 2.591522.01752 3.542969-.25.504179-1.285598.763199-2.654229.763672-4.035156-.002-.324127-.01834-.671444-.04883-.994141z" fill="#488bff" transform="matrix(.265 0 0 .265 0 280.067)" font-variant-ligatures="normal" font-variant-position="normal" font-variant-caps="normal" font-variant-numeric="normal" font-variant-alternates="normal" font-feature-settings="normal" text-indent="0" text-align="start" text-decoration-line="none" text-decoration-style="solid" text-decoration-color="#000000" text-transform="none" text-orientation="mixed" white-space="normal" shape-padding="0" isolation="auto" mix-blend-mode="normal" solid-color="#000000" solid-opacity="1" vector-effect="none"/><path id="path3922" d="m37.398438 44.689453v4h3.697265c2.607473-.05854 2.607473-3.941464 0-4-1.232422 0-2.464843 0-3.697265 0z" fill="#488bff" transform="matrix(.265 0 0 .265 0 280.067)" font-variant-ligatures="normal" font-variant-position="normal" font-variant-caps="normal" font-variant-numeric="normal" font-variant-alternates="normal" font-feature-settings="normal" text-indent="0" text-align="start" text-decoration-line="none" text-decoration-style="solid" text-decoration-color="#000000" text-transform="none" text-orientation="mixed" white-space="normal" shape-padding="0" isolation="auto" mix-blend-mode="normal" solid-color="#000000" solid-opacity="1" vector-effect="none"/><g fill="#55a1ff"><path id="rect3666" d="m12.444549 289.77861 2.896175.98262c.601178.20398.867526.60497.784478 1.23436l-.0701.53129c-.08305.62939-.656594 1.06921-1.285977.98617l-2.64617-.34917c-.629383-.0831-1.069213-.65659-.986164-1.28598l.183676-1.39199c.08305-.62939.522903-.91127 1.124082-.7073z" vector-effect="none"/><path id="rect3831" d="m10.077806 292.70535h.833444c.436406 0 .787737.35133.787737.78774v.37583c0 .4364-.351331.78773-.787737.78773h-.833444c-.4364068 0-.7877377-.35133-.7877377-.78773v-.37583c0-.43641.3513309-.78774.7877377-.78774z" vector-effect="none"/></g></g></svg>