

<svg id="svg4593" height="512" viewBox="0 0 16.933333 16.933334" width="512" xmlns="http://www.w3.org/2000/svg" xmlns:svg="http://www.w3.org/2000/svg"><clipPath id="clipPath5337"><path id="rect5339" d="m34.774 274.321h35.435v25.702h-35.435z"/></clipPath><clipPath id="clipPath4542"><path id="rect4544" d="m-535.214-48.848h501.574v185.586h-501.574z"/></clipPath><clipPath id="clipPath11017"><path id="rect11019" d="m36.669 153.503h29.654v28.999h-29.654z" transform="rotate(-90)" vector-effect="none"/></clipPath><clipPath id="clipPath11444"><path id="rect11446" d="m-143.933 265.779h28.84v29.104h-28.84z" transform="rotate(-90)" vector-effect="none"/></clipPath><clipPath id="clipPath11781"><rect id="rect11783" height="32.411" rx=".634" transform="rotate(-90)" width="32.941" x="-145.124" y="181.377"/></clipPath><clipPath id="clipPath11499"><path id="rect11501" d="m-551.399-9.261h16.064v16.347h-16.064z" vector-effect="none"/></clipPath><g id="layer1" transform="translate(0 -280.067)"><circle id="path34863-8" cx="8.467" cy="288.533" fill="#ffc861" r="7.938"/><path id="path35244-8" d="m15.46882 287.71215c.8196 5.66444-5.93651 10.35195-10.9337 6.64869-.3861-.22689-.86339.10719-.79211.5493 1.36521 1.01559 3.02212 1.55683 4.72365 1.56013 4.38376 0 7.9375-3.55374 7.9375-7.9375-.00003-.45048-.0384-.90013-.11472-1.3441-.40918-.23994-.87988.0804-.82062.52348z" fill="#ffab61" font-variant-ligatures="normal" font-variant-position="normal" font-variant-caps="normal" font-variant-numeric="normal" font-variant-alternates="normal" font-feature-settings="normal" text-indent="0" text-align="start" text-decoration-line="none" text-decoration-style="solid" text-decoration-color="#000000" text-transform="none" text-orientation="mixed" white-space="normal" shape-padding="0" isolation="auto" mix-blend-mode="normal" solid-color="#000000" solid-opacity="1" vector-effect="none"/><path id="path10354" d="m6.0523438 283.18429a.67799478.67799478 0 0 0 -.6779948.67799.67799478.67799478 0 0 0 .6779948.678.67799478.67799478 0 0 0 .6779948-.678.67799478.67799478 0 0 0 -.6779948-.67799zm4.8286462 0a.67799478.67799478 0 0 0 -.677995.67799.67799478.67799478 0 0 0 .677995.678.67799478.67799478 0 0 0 .677994-.678.67799478.67799478 0 0 0 -.677994-.67799z" fill="#4d4d4d" vector-effect="none"/><path id="path16732" d="m15.625 26.310547c-2.269006 0-4.067367 2.076789-3.246094 4.808594 2.932795 9.568894 10.689962 16.224989 19.617188 16.236328 10.039522 0 17.326417-9.306395 19.624988-16.236328.821272-2.731805-.977089-4.808594-3.246094-4.808594-10.916652 0-21.833378 0-32.749988 0z" fill="#ef6356" transform="matrix(.265 0 0 .265 0 280.067)" vector-effect="none"/><path id="path16770" d="m37.330078 26.310547v5.585937c0 1.379981-.800787 2.626954-2.324219 2.626954h-4.134765c-2.667338 0-2.667338 4.001953 0 4.001953h4.339844c3.475486 0 6.121093-2.325229 6.121093-6.400391.000176-1.929614.000056-3.873838 0-5.814453z" fill="#d85750" transform="matrix(.265 0 0 .265 0 280.067)" font-variant-ligatures="normal" font-variant-position="normal" font-variant-caps="normal" font-variant-numeric="normal" font-variant-alternates="normal" font-feature-settings="normal" text-indent="0" text-align="start" text-decoration-line="none" text-decoration-style="solid" text-decoration-color="#000000" text-transform="none" text-orientation="mixed" white-space="normal" shape-padding="0" isolation="auto" mix-blend-mode="normal" solid-color="#000000" solid-opacity="1" vector-effect="none"/><path id="rect3816-3" d="m6.8295573 287.02798v1.39475c0 .57006.4588177 1.02888 1.0288778 1.02888h1.2164631c.5700599 0 1.0288778-.45882 1.0288778-1.02888v-1.39475z" fill="#d1dcff" vector-effect="none"/></g></svg>