<svg id="svg4593" height="512" viewBox="0 0 16.933333 16.933334" width="512" xmlns="http://www.w3.org/2000/svg" xmlns:svg="http://www.w3.org/2000/svg"><clipPath id="clipPath5337"><path id="rect5339" d="m34.774 274.321h35.435v25.702h-35.435z"/></clipPath><clipPath id="clipPath4542"><path id="rect4544" d="m-535.214-48.848h501.574v185.586h-501.574z"/></clipPath><clipPath id="clipPath11017"><path id="rect11019" d="m36.669 153.503h29.654v28.999h-29.654z" transform="rotate(-90)" vector-effect="none"/></clipPath><clipPath id="clipPath11444"><path id="rect11446" d="m-143.933 265.779h28.84v29.104h-28.84z" transform="rotate(-90)" vector-effect="none"/></clipPath><clipPath id="clipPath11781"><rect id="rect11783" height="32.411" rx=".634" transform="rotate(-90)" width="32.941" x="-145.124" y="181.377"/></clipPath><clipPath id="clipPath11499"><path id="rect11501" d="m-551.399-9.261h16.064v16.347h-16.064z" vector-effect="none"/></clipPath><g id="layer1" transform="translate(0 -280.067)"><circle id="path34863-8" cx="8.467" cy="288.533" fill="#ffc861" r="7.938"/><path id="path35244-8" d="m15.46882 287.71215c.8196 5.66444-5.93651 10.35195-10.9337 6.64869-.3861-.22689-.86339.10719-.79211.5493 1.36521 1.01559 3.02212 1.55683 4.72365 1.56013 4.38376 0 7.9375-3.55374 7.9375-7.9375-.00003-.45048-.0384-.90013-.11472-1.3441-.40918-.23994-.87988.0804-.82062.52348z" fill="#ffab61" font-variant-ligatures="normal" font-variant-position="normal" font-variant-caps="normal" font-variant-numeric="normal" font-variant-alternates="normal" font-feature-settings="normal" text-indent="0" text-align="start" text-decoration-line="none" text-decoration-style="solid" text-decoration-color="#000000" text-transform="none" text-orientation="mixed" white-space="normal" shape-padding="0" isolation="auto" mix-blend-mode="normal" solid-color="#000000" solid-opacity="1" vector-effect="none"/><path id="path16444" d="m6.4337349 288.1034c-.4702282.34287-1.1658715-.2356-1.7478236-.23461-.581952.00099-1.2756182.58183-1.7470084.24056-.471395-.34125-.136206-1.1816-.3169806-1.73477-.1807787-.55316-.9475374-1.03339-.7686446-1.58717.1788886-.55377 1.0816895-.49468 1.5519139-.83754.4702284-.34286.690009-1.22049 1.271961-1.22148.581956-.001.8047275.87588 1.276118 1.21714.4713946.34126 1.3739842.27909 1.5547629.83225.1807747.55316-.5843449 1.036-.7632333 1.58977-.1788918.55378.1591586 1.39299-.3110653 1.73585z" fill="#55a1ff" vector-effect="none"/><path id="path16605" d="m3.6339354 288.15975c.3466481-.0979.7156143-.29036 1.052132-.29094.5819521-.00098 1.2774687.57748 1.747697.23461.1624031-.11841.2290432-.29612.2532145-.50074-.4960089-.15809-.9383644-.29933-1.0960571-.3514-.6484152-.23671-1.1136421-.22894-1.7718651-.0121-.465991.12486-.4366728.69839-.1851213.9206z" fill="#488bff" font-variant-ligatures="normal" font-variant-position="normal" font-variant-caps="normal" font-variant-numeric="normal" font-variant-alternates="normal" font-feature-settings="normal" text-indent="0" text-align="start" text-decoration-line="none" text-decoration-style="solid" text-decoration-color="#000000" text-transform="none" text-orientation="mixed" white-space="normal" shape-padding="0" isolation="auto" mix-blend-mode="normal" solid-color="#000000" solid-opacity="1" vector-effect="none"/><path id="path6993" d="m14.057043 288.21916c-.470228.34287-1.165871-.2356-1.747823-.23461s-1.27562.58183-1.74701.24056c-.471395-.34125-.136206-1.1816-.316981-1.73477-.180778-.55316-.9475369-1.03339-.7686441-1.58717.1788886-.55377 1.0816891-.49468 1.5519141-.83754.470228-.34286.69001-1.22049 1.271962-1.22148.581956-.001.804727.87588 1.276118 1.21714.471395.34126 1.373984.27909 1.554763.83225.180775.55316-.584345 1.036-.763233 1.58977-.178892.55378.159158 1.39299-.311066 1.73585z" fill="#55a1ff" vector-effect="none"/><path id="path6995" d="m11.257243 288.27551c.346649-.0979.715615-.29036 1.052133-.29094.581952-.00098 1.277468.57748 1.747697.23461.162403-.11841.229043-.29612.253214-.50074-.496009-.15809-.938364-.29933-1.096057-.3514-.648415-.23671-1.113642-.22894-1.771866-.0121-.465991.12486-.436673.69839-.185121.9206z" fill="#488bff" font-variant-ligatures="normal" font-variant-position="normal" font-variant-caps="normal" font-variant-numeric="normal" font-variant-alternates="normal" font-feature-settings="normal" text-indent="0" text-align="start" text-decoration-line="none" text-decoration-style="solid" text-decoration-color="#000000" text-transform="none" text-orientation="mixed" white-space="normal" shape-padding="0" isolation="auto" mix-blend-mode="normal" solid-color="#000000" solid-opacity="1" vector-effect="none"/><path id="path16732-3" d="m4.1334158 289.387c-.60034 0-1.07616.54949-.85886 1.27228.77597 2.53177 2.82838 4.29286 5.190381 4.29586 2.6562892 0 4.5842802-2.46232 5.1924402-4.29586.2173-.72279-.25852-1.27228-.85886-1.27228-2.8883612 0-5.7767502 0-8.6651012 0z" fill="#ef6356" vector-effect="none"/><path id="path16770-7" d="m9.8762158 289.387v1.47795c0 .36512-.211869.69505-.614949.69505h-1.093991c-.70573 0-.70573 1.05885 0 1.05885h1.14825c.9195602 0 1.6195402-.61522 1.6195402-1.69344.00005-.51054.000021-1.02495 0-1.53841z" fill="#d85750" font-variant-ligatures="normal" font-variant-position="normal" font-variant-caps="normal" font-variant-numeric="normal" font-variant-alternates="normal" font-feature-settings="normal" text-indent="0" text-align="start" text-decoration-line="none" text-decoration-style="solid" text-decoration-color="#000000" text-transform="none" text-orientation="mixed" white-space="normal" shape-padding="0" isolation="auto" mix-blend-mode="normal" solid-color="#000000" solid-opacity="1" vector-effect="none"/><path id="rect3816-3" d="m6.8288558 289.38701v1.39475c0 .57006.45882 1.02888 1.02888 1.02888h1.21647c.570061 0 1.0288702-.45882 1.0288702-1.02888v-1.39475z" fill="#d1dcff" vector-effect="none"/></g></svg>