

<svg id="svg4593" height="512" viewBox="0 0 16.933333 16.933334" width="512" xmlns="http://www.w3.org/2000/svg" xmlns:svg="http://www.w3.org/2000/svg"><clipPath id="clipPath5337"><path id="rect5339" d="m34.774 274.321h35.435v25.702h-35.435z"/></clipPath><clipPath id="clipPath4542"><path id="rect4544" d="m-535.214-48.848h501.574v185.586h-501.574z"/></clipPath><clipPath id="clipPath11017"><path id="rect11019" d="m36.669 153.503h29.654v28.999h-29.654z" transform="rotate(-90)" vector-effect="none"/></clipPath><clipPath id="clipPath11444"><path id="rect11446" d="m-143.933 265.779h28.84v29.104h-28.84z" transform="rotate(-90)" vector-effect="none"/></clipPath><clipPath id="clipPath11781"><rect id="rect11783" height="32.411" rx=".634" transform="rotate(-90)" width="32.941" x="-145.124" y="181.377"/></clipPath><clipPath id="clipPath11499"><path id="rect11501" d="m-551.399-9.261h16.064v16.347h-16.064z" vector-effect="none"/></clipPath><g id="layer1" transform="translate(0 -280.067)"><circle id="path34863-22" cx="8.467" cy="288.533" fill="#ffc861" r="7.938"/><path id="path35244-9" d="m15.46882 287.71214c.8196 5.66444-5.93651 10.35196-10.9337 6.64869-.3861-.22689-.86339.10719-.79211.54931 1.36521 1.01559 3.02212 1.55682 4.72365 1.56013 4.38376-.00001 7.9375-3.55374 7.9375-7.9375-.00003-.45048-.0384-.90014-.11472-1.34411-.40918-.23994-.87988.0803-.82062.52348z" fill="#ffab61" font-variant-ligatures="normal" font-variant-position="normal" font-variant-caps="normal" font-variant-numeric="normal" font-variant-alternates="normal" font-feature-settings="normal" text-indent="0" text-align="start" text-decoration-line="none" text-decoration-style="solid" text-decoration-color="#000000" text-transform="none" text-orientation="mixed" white-space="normal" shape-padding="0" isolation="auto" mix-blend-mode="normal" solid-color="#000000" solid-opacity="1" vector-effect="none"/><path id="rect6346-2" d="m8.01064 288.17224h.9120496c.5830171 0 1.0523775.46936 1.0523775 1.05238v3.39098c0 .58301-.4693604 1.05237-1.0523775 1.05237h-.9120496c-.5830172 0-1.0523776-.46936-1.0523776-1.05237v-3.39098c0-.58302.4693604-1.05238 1.0523776-1.05238z" fill="#ef6356" vector-effect="none"/><path id="path6718-3" d="m9.9751016 290.04558c-.3348024.30555-.8010559.36739-.809253.36845h-.9332764c-.7467502-.0436-.7467502 1.10039 0 1.05679h.9823691c.2783782 0 .5609198-.0978.7601603-.17674z" fill="#d85750" font-variant-ligatures="normal" font-variant-position="normal" font-variant-caps="normal" font-variant-numeric="normal" font-variant-alternates="normal" font-feature-settings="normal" text-indent="0" text-align="start" text-decoration-line="none" text-decoration-style="solid" text-decoration-color="#000000" text-transform="none" text-orientation="mixed" white-space="normal" shape-padding="0" isolation="auto" mix-blend-mode="normal" solid-color="#000000" solid-opacity="1" vector-effect="none"/><path id="path6660-2" d="m8.0108802 288.17231c-.5830173 0-1.052649.46912-1.052649 1.05213v.88419c.1740284.32005.508826.53898.9002035.53898h1.2164631c.3913775 0 .7261752-.21893.9002034-.53898v-.88419c0-.58301-.4696316-1.05213-1.0526489-1.05213z" fill="#d1dcff" vector-effect="none"/><path id="path3638-3" d="m7.4797739 284.71287a1.7197917 1.7197917 0 0 1 -1.7197917 1.71979 1.7197917 1.7197917 0 0 1 -1.7197916-1.71979 1.7197917 1.7197917 0 0 1 1.7197916-1.71979 1.7197917 1.7197917 0 0 1 1.7197917 1.71979z" fill="#d1dcff" vector-effect="none"/><path id="circle3796-8" d="m6.3056854 284.71287a.54570314.54570314 0 0 1 -.5457031.5457.54570314.54570314 0 0 1 -.5457032-.5457.54570314.54570314 0 0 1 .5457032-.5457.54570314.54570314 0 0 1 .5457031.5457z" fill="#4d4d4d" vector-effect="none"/><path id="path5830" d="m12.893652 284.71287a1.7197917 1.7197917 0 0 1 -1.719792 1.71979 1.7197917 1.7197917 0 0 1 -1.719791-1.71979 1.7197917 1.7197917 0 0 1 1.719791-1.71979 1.7197917 1.7197917 0 0 1 1.719792 1.71979z" fill="#d1dcff" vector-effect="none"/><g fill="#4d4d4d"><path id="path5832" d="m11.719564 284.71287a.54570314.54570314 0 0 1 -.545703.5457.54570314.54570314 0 0 1 -.545704-.5457.54570314.54570314 0 0 1 .545704-.5457.54570314.54570314 0 0 1 .545703.5457z" vector-effect="none"/><path id="path5862" d="m6.52539 287.17029c-.67679 0-1.06055.38437-1.06055 1.0664.01.3534.54023.33777.5293-.0156 0-.36247.28132-.51809.53125-.52149.3141 0 .37153-.52931 0-.52931z" font-variant-ligatures="normal" font-variant-position="normal" font-variant-caps="normal" font-variant-numeric="normal" font-variant-alternates="normal" font-feature-settings="normal" text-indent="0" text-align="start" text-decoration-line="none" text-decoration-style="solid" text-decoration-color="#000000" text-transform="none" text-orientation="mixed" white-space="normal" shape-padding="0" isolation="auto" mix-blend-mode="normal" solid-color="#000000" solid-opacity="1" vector-effect="none"/></g></g></svg>