<svg xmlns:svg="http://www.w3.org/2000/svg" id="svg4593" height="512" viewBox="0 0 16.933333 16.933334" width="512"
     xmlns="http://www.w3.org/2000/svg">
    <clipPath id="clipPath5337">
        <path id="rect5339" d="m34.774 274.321h35.435v25.702h-35.435z"/>
    </clipPath>
    <clipPath id="clipPath4542">
        <path id="rect4544" d="m-535.214-48.848h501.574v185.586h-501.574z"/>
    </clipPath>
    <clipPath id="clipPath11017">
        <path id="rect11019" d="m36.669 153.503h29.654v28.999h-29.654z" transform="rotate(-90)" vector-effect="none"/>
    </clipPath>
    <clipPath id="clipPath11444">
        <path id="rect11446" d="m-143.933 265.779h28.84v29.104h-28.84z" transform="rotate(-90)" vector-effect="none"/>
    </clipPath>
    <clipPath id="clipPath11781">
        <rect id="rect11783" height="32.411" rx=".634" transform="rotate(-90)" width="32.941" x="-145.124" y="181.377"/>
    </clipPath>
    <clipPath id="clipPath11499">
        <path id="rect11501" d="m-551.399-9.261h16.064v16.347h-16.064z" vector-effect="none"/>
    </clipPath>
    <g id="layer1" transform="translate(0 -280.067)">
        <ellipse id="path34863-8-24" cx="8.426" cy="288.533" fill="#ffc861"/>
        <circle id="path34863-8-24-4" cx="8.467" cy="288.533" fill="#ffc861" r="7.938"/>
        <path id="path35244-8-79-1"
              d="m15.46883 287.71214c.8196 5.66444-5.93651 10.35195-10.9337 6.64869-.3861-.22689-.86339.10719-.79211.5493 1.36521 1.01559 3.02212 1.55683 4.72365 1.56013 4.38376 0 7.9375-3.55374 7.9375-7.9375-.00003-.45048-.0384-.90013-.11472-1.3441-.40918-.23994-.87988.0804-.82062.52348z"
              fill="#ffab61" font-variant-ligatures="normal" font-variant-position="normal" font-variant-caps="normal"
              font-variant-numeric="normal" font-variant-alternates="normal" font-feature-settings="normal"
              text-indent="0" text-align="start" text-decoration-line="none" text-decoration-style="solid"
              text-decoration-color="#000000" text-transform="none" text-orientation="mixed" white-space="normal"
              shape-padding="0" isolation="auto" mix-blend-mode="normal" solid-color="#000000" solid-opacity="1"
              vector-effect="none"/>
        <path id="rect22531"
              d="m13.134766 19.232422c-.706181.041344-1.439197.274358-2.109375.710937-1.7871416 1.164213-2.4330595 3.320729-1.447266 4.833985l13.691406 21.015625c1.855649-.811005 4.741909-1.820257 7.900391-1.980469l-15.138672-23.238281c-.616121-.945785-1.719516-1.410704-2.896484-1.341797z"
              fill="#d1dcff" transform="matrix(.265 0 0 .265 0 280.067)" vector-effect="none"/>
        <path id="path22694"
              d="m3.1855469 286.34766 3.6386719 5.53906c.1892069.31643.6576759.008.4414062-.29102l-3.6386719-5.53906c-.1907717-.33043-.6463509-.064-.4414062.29102z"
              fill="#ef6356" font-variant-ligatures="normal" font-variant-position="normal" font-variant-caps="normal"
              font-variant-numeric="normal" font-variant-alternates="normal" font-feature-settings="normal"
              text-indent="0" text-align="start" text-decoration-line="none" text-decoration-style="solid"
              text-decoration-color="#000000" text-transform="none" text-orientation="mixed" white-space="normal"
              shape-padding="0" isolation="auto" mix-blend-mode="normal" solid-color="#000000" solid-opacity="1"
              vector-effect="none"/>
        <g fill="#4d4d4d">
            <g id="g20288" transform="translate(.714)">
                <path id="path10354-7-4-1-6"
                      d="m5.6938443 285.7949c-.3432562.14963-.7428053-.007-.8924314-.35059-.04664-.10734-.064704-.22493-.052389-.34133-.2809144.0434-.534691.0357-.7290752-.0159-.341252-.0914-.2041587-.60326.1370983-.51187.6629611.15489 1.4061916-.23005 1.7353371-.76516.1790562-.30897.6410829-.0337.454607.27085-.1382399.2327-.3117015.41648-.5003507.5631.085946.0688.153738.15741.1977008.25827.1496261.34325-.00734.7428-.3505965.89242z"
                      vector-effect="none"/>
                <path id="path20284"
                      d="m9.8108363 285.7949c.3432557.14963.7428057-.007.8924317-.35059.04664-.10734.0647-.22493.05239-.34133.280914.0434.534691.0357.729075-.0159.341252-.0914.204159-.60326-.137098-.51187-.662962.15489-1.406192-.23005-1.7353375-.76516-.1790562-.30897-.6410829-.0337-.454607.27085.1382399.2327.3117015.41648.5003507.5631-.085946.0688-.153738.15741-.1977008.25827-.1496261.34325.00734.7428.3505965.89242z"
                      vector-effect="none"/>
            </g>
            <path id="path22739"
                  d="m20.787109 45.996094c-1.258625.6528-.141968 2.514755 1.027344 1.71289 0 0 10.350321-6.241021 21.169922.0059 1.174405.759912 2.245526-1.082304 1.003906-1.726563-6.685358-3.994245-15.89456-4.040903-23.201172.0078z"
                  transform="matrix(.265 0 0 .265 0 280.067)" font-variant-ligatures="normal"
                  font-variant-position="normal" font-variant-caps="normal" font-variant-numeric="normal"
                  font-variant-alternates="normal" font-feature-settings="normal" text-indent="0" text-align="start"
                  text-decoration-line="none" text-decoration-style="solid" text-decoration-color="#000000"
                  text-transform="none" text-orientation="mixed" white-space="normal" shape-padding="0" isolation="auto"
                  mix-blend-mode="normal" solid-color="#000000" solid-opacity="1" vector-effect="none"/>
        </g>
    </g>
</svg>