<!--
  - Copyright (c) 2023. Selldone® Business OS™
  -
  - Author: M.Pajuhaan
  - Web: https://selldone.com
  - ━━━━━━━━━━━━━━━━━━━━━━━━━━━━━━━━━━━━━━━━━━━━━━━━━━━━━━
  -
  - All rights reserved. In the weave of time, where traditions and innovations intermingle, this content was crafted.
  - From the essence of thought, through the corridors of creativity, each word, and sentiment has been molded.
  - Not just to exist, but to inspire. Like an artist's stroke or a sculptor's chisel, every nuance is deliberate.
  - Our journey is not just about reaching a destination, but about creating a masterpiece.
  - Tread carefully, for you're treading on dreams.
  -->

<svg id="svg4593" height="512" viewBox="0 0 16.933333 16.933334" width="512" xmlns="http://www.w3.org/2000/svg" xmlns:svg="http://www.w3.org/2000/svg"><clipPath id="clipPath5337"><path id="rect5339" d="m34.774 274.321h35.435v25.702h-35.435z"/></clipPath><clipPath id="clipPath4542"><path id="rect4544" d="m-535.214-48.848h501.574v185.586h-501.574z"/></clipPath><clipPath id="clipPath11017"><path id="rect11019" d="m36.669 153.503h29.654v28.999h-29.654z" transform="rotate(-90)" vector-effect="none"/></clipPath><clipPath id="clipPath11444"><path id="rect11446" d="m-143.933 265.779h28.84v29.104h-28.84z" transform="rotate(-90)" vector-effect="none"/></clipPath><clipPath id="clipPath11781"><rect id="rect11783" height="32.411" rx=".634" transform="rotate(-90)" width="32.941" x="-145.124" y="181.377"/></clipPath><clipPath id="clipPath11499"><path id="rect11501" d="m-551.399-9.261h16.064v16.347h-16.064z" vector-effect="none"/></clipPath><g id="layer1" transform="translate(0 -280.067)"><path id="path34863-0" d="m16.40417 288.53278a7.9375048 7.9375048 0 0 1 -7.9375047 7.9375 7.9375048 7.9375048 0 0 1 -7.9375048-7.9375 7.9375048 7.9375048 0 0 1 7.9375048-7.93751 7.9375048 7.9375048 0 0 1 7.9375047 7.93751z" fill="#ffc861" vector-effect="none"/><path id="path35244-56" d="m15.468824 287.71214c.8196 5.66444-5.93651 10.35196-10.9337 6.64869-.3861-.22689-.86339.10719-.79211.54931 1.36521 1.01559 3.02212 1.55682 4.72365 1.56013 4.38376-.00001 7.9375-3.55374 7.9375-7.9375-.00003-.45048-.0384-.90014-.11472-1.34411-.40918-.23994-.87988.0803-.82062.52348z" fill="#ffab61" font-variant-ligatures="normal" font-variant-position="normal" font-variant-caps="normal" font-variant-numeric="normal" font-variant-alternates="normal" font-feature-settings="normal" text-indent="0" text-align="start" text-decoration-line="none" text-decoration-style="solid" text-decoration-color="#000000" text-transform="none" text-orientation="mixed" white-space="normal" shape-padding="0" isolation="auto" mix-blend-mode="normal" solid-color="#000000" solid-opacity="1" vector-effect="none"/><g id="g22806" fill="#4d4d4d" transform="translate(.291 -1.29)"><path id="path22798" d="m5.3925781 285.04492.7949219 1.375-1.6328125.33008c-.3715934.0521-.2569034.61499.1054687.51758l1.9941407-.40039c.1775526-.0362.2670561-.23605.1757812-.39258l-.9785156-1.69531c-.1860686-.32228-.6412295-.05-.4589844.26562z" font-variant-ligatures="normal" font-variant-position="normal" font-variant-caps="normal" font-variant-numeric="normal" font-variant-alternates="normal" font-feature-settings="normal" text-indent="0" text-align="start" text-decoration-line="none" text-decoration-style="solid" text-decoration-color="#000000" text-transform="none" text-orientation="mixed" white-space="normal" shape-padding="0" isolation="auto" mix-blend-mode="normal" solid-color="#000000" solid-opacity="1" vector-effect="none"/><path id="path22802" d="m10.959188 285.04492-.794922 1.375 1.632813.33008c.371593.0521.256903.61499-.105469.51758l-1.9941404-.40039c-.1775526-.0362-.2670561-.23605-.1757812-.39258l.9785156-1.69531c.186069-.32228.641229-.05.458984.26562z" font-variant-ligatures="normal" font-variant-position="normal" font-variant-caps="normal" font-variant-numeric="normal" font-variant-alternates="normal" font-feature-settings="normal" text-indent="0" text-align="start" text-decoration-line="none" text-decoration-style="solid" text-decoration-color="#000000" text-transform="none" text-orientation="mixed" white-space="normal" shape-padding="0" isolation="auto" mix-blend-mode="normal" solid-color="#000000" solid-opacity="1" vector-effect="none"/></g><path id="path11554" d="m11.991317 291.67963a3.5246508 2.6075482 0 0 1 -3.5246508 2.60754 3.5246508 2.6075482 0 0 1 -3.5246508-2.60754 3.5246508 2.6075482 0 0 1 3.5246508-2.60755 3.5246508 2.6075482 0 0 1 3.5246508 2.60755z" fill="#ef6356" vector-effect="none"/><path id="path11818" d="m40.615234 41.580078-13.523437.002c-2.726043-.06004-2.726043 4.060039 0 4h13.316406c2.322664 0 3.085856 1.219838 3.8125 2.220703.724447-1.234703 1.09934-2.566104 1.101563-3.912109-.0029-.105524.0036-.214912-.0039-.320312-1.007521-1.023683-2.968836-1.990235-4.703126-1.990235z" fill="#d85750" transform="matrix(.265 0 0 .265 0 280.067)" font-variant-ligatures="normal" font-variant-position="normal" font-variant-caps="normal" font-variant-numeric="normal" font-variant-alternates="normal" font-feature-settings="normal" text-indent="0" text-align="start" text-decoration-line="none" text-decoration-style="solid" text-decoration-color="#000000" text-transform="none" text-orientation="mixed" white-space="normal" shape-padding="0" isolation="auto" mix-blend-mode="normal" solid-color="#000000" solid-opacity="1" vector-effect="none"/><path id="path11571" d="m6.2515416 291.90159s-.7997383-.0719-1.2619387.72863c-.3043401.52713-.6651249 1.15273-1.0247436 1.77561-1.3098485 0-1.7261298 1.08282-1.4257527 2.06499h11.5553674c1.041211-1.36194-.160993-2.88802-1.593702-2.61483-.309186-.53553-.49735-.86186-.70745-1.22577-.4622-.80056-1.261938-.72863-1.261938-.72863-1.4266144 0-2.8532284 0-4.2798424 0z" fill="#6fc882" vector-effect="none"/><path id="path11814" d="m6.3339193 292.89007c-.6353628.30215-.2337678 1.31497.3809245.96735.8222731-.47474 1.4531359-.13597 1.8637369.26361.5039065.49479 1.2543622-.17425.7504558-.66904-.9287735-.79605-1.8578597-1.04794-2.9951172-.56192z" fill="#69bb9a" font-variant-ligatures="normal" font-variant-position="normal" font-variant-caps="normal" font-variant-numeric="normal" font-variant-alternates="normal" font-feature-settings="normal" text-indent="0" text-align="start" text-decoration-line="none" text-decoration-style="solid" text-decoration-color="#000000" text-transform="none" text-orientation="mixed" white-space="normal" shape-padding="0" isolation="auto" mix-blend-mode="normal" solid-color="#000000" solid-opacity="1" vector-effect="none"/><path id="path11787" d="m28.007812 49.738281c-3.183751 0-5.795512 1.344404-7.08789 4.251953-.482368 1.325696 1.581737 1.947669 1.912109.576172.532609-1.987725 3.457605-2.806682 5.175781-2.828125 2.221682 0 3.640996.950932 4.746094 2.347657 1.105099 1.396762 1.802285 3.258881 2.228516 4.849609.273655 1.401699 2.390401.835517 1.927734-.515625-.362871-1.354261-.907458-2.935623-1.787109-4.396484.683262-.929038 2.192622-1.609328 3.197265-1.029297 1.187077.803451 2.286454-1.104291.996094-1.728516-2.184834-.880576-3.794288-.266775-5.390625 1.128906-1.374063-1.520326-3.338316-2.65625-5.917969-2.65625z" fill="#4d4d4d" transform="matrix(.265 0 0 .265 0 280.067)" font-variant-ligatures="normal" font-variant-position="normal" font-variant-caps="normal" font-variant-numeric="normal" font-variant-alternates="normal" font-feature-settings="normal" text-indent="0" text-align="start" text-decoration-line="none" text-decoration-style="solid" text-decoration-color="#000000" text-transform="none" text-orientation="mixed" white-space="normal" shape-padding="0" isolation="auto" mix-blend-mode="normal" solid-color="#000000" solid-opacity="1" vector-effect="none"/></g></svg>