

<svg id="svg4593" height="512" viewBox="0 0 16.933333 16.933334" width="512" xmlns="http://www.w3.org/2000/svg" xmlns:svg="http://www.w3.org/2000/svg"><clipPath id="clipPath5337"><path id="rect5339" d="m34.774 274.321h35.435v25.702h-35.435z"/></clipPath><clipPath id="clipPath4542"><path id="rect4544" d="m-535.214-48.848h501.574v185.586h-501.574z"/></clipPath><clipPath id="clipPath11017"><path id="rect11019" d="m36.669 153.503h29.654v28.999h-29.654z" transform="rotate(-90)" vector-effect="none"/></clipPath><clipPath id="clipPath11444"><path id="rect11446" d="m-143.933 265.779h28.84v29.104h-28.84z" transform="rotate(-90)" vector-effect="none"/></clipPath><clipPath id="clipPath11781"><rect id="rect11783" height="32.411" rx=".634" transform="rotate(-90)" width="32.941" x="-145.124" y="181.377"/></clipPath><clipPath id="clipPath11499"><path id="rect11501" d="m-551.399-9.261h16.064v16.347h-16.064z" vector-effect="none"/></clipPath><g id="layer1" transform="translate(0 -280.067)"><circle id="path34863-8" cx="8.467" cy="288.533" fill="#ffc861" r="7.938"/><path id="path51336" d="m7.1953125 286.38672s-.048408 1.28382-1.5546875 1.69336c-.6809864.1849-.4036426 1.20638.2773438 1.02148 2.0821321-.5661 2.3320312-2.62109 2.3320312-2.62109.078-.67259-.9803867-.82105-1.0546875-.0937z" fill="#ffab61" font-variant-ligatures="normal" font-variant-position="normal" font-variant-caps="normal" font-variant-numeric="normal" font-variant-alternates="normal" font-feature-settings="normal" text-indent="0" text-align="start" text-decoration-line="none" text-decoration-style="solid" text-decoration-color="#000000" text-transform="none" text-orientation="mixed" white-space="normal" shape-padding="0" isolation="auto" mix-blend-mode="normal" solid-color="#000000" solid-opacity="1" vector-effect="none"/><path id="path35244-8" d="m15.46882 287.71215c.8196 5.66444-5.93651 10.35195-10.9337 6.64869-.3861-.22689-.86339.10719-.79211.5493 1.36521 1.01559 3.02212 1.55683 4.72365 1.56013 4.38376 0 7.9375-3.55374 7.9375-7.9375-.00003-.45048-.0384-.90013-.11472-1.3441-.40918-.23994-.87988.0804-.82062.52348z" fill="#ffab61" font-variant-ligatures="normal" font-variant-position="normal" font-variant-caps="normal" font-variant-numeric="normal" font-variant-alternates="normal" font-feature-settings="normal" text-indent="0" text-align="start" text-decoration-line="none" text-decoration-style="solid" text-decoration-color="#000000" text-transform="none" text-orientation="mixed" white-space="normal" shape-padding="0" isolation="auto" mix-blend-mode="normal" solid-color="#000000" solid-opacity="1" vector-effect="none"/><path id="path3638-9" d="m6.9592646 284.80383-3.9801189 1.47174a2.2158859 2.2158859 0 0 0 2.2107178 2.0743 2.2158859 2.2158859 0 0 0 2.2158854-2.21589 2.2158859 2.2158859 0 0 0 -.4464843-1.33015z" fill="#d1dcff" vector-effect="none"/><path id="path51288" d="m9.9740695 284.80383 3.9801185 1.47174a2.2158859 2.2158859 0 0 1 -2.210717 2.0743 2.2158859 2.2158859 0 0 1 -2.2158865-2.21589 2.2158859 2.2158859 0 0 1 .446485-1.33015z" fill="#d1dcff" vector-effect="none"/><g fill="#4d4d4d"><path id="path22773-5" d="m6.019791 291.87367c0 .69006-.966866.55878-.966866.0331 0-.42651-.529683-.37764-.529683 0 0 1.31867 2.023649 1.30347 2.023649 0 0-.70229.964799-.52836.964799 0 0 1.32353 2.021065 1.28615 2.021065.0197 0-.68461.967392-.61534.967392-.0197 0 1.39096 2.023129 1.22844 2.023129 0 .008-.36069-.537172-.36069-.529166 0 0 .68417-.967392.61139-.967392-.0362 0-1.31742-2.021076-1.2525-2.021076.0362 0 .65344-.967383.59774-.967383-.0362 0-1.33033-2.018481-1.24788-2.018481.003z" font-variant-ligatures="normal" font-variant-position="normal" font-variant-caps="normal" font-variant-numeric="normal" font-variant-alternates="normal" font-feature-settings="normal" text-indent="0" text-align="start" text-decoration-line="none" text-decoration-style="solid" text-decoration-color="#000000" text-transform="none" text-orientation="mixed" white-space="normal" shape-padding="0" isolation="auto" mix-blend-mode="normal" solid-color="#000000" solid-opacity="1" vector-effect="none"/><path id="path24484" d="m10.800892 287.00318a.67799478.67799478 0 0 0 -.677994.67799.67799478.67799478 0 0 0 .677994.678.67799478.67799478 0 0 0 .677995-.678.67799478.67799478 0 0 0 -.677995-.67799z" vector-effect="none"/><path id="path10354-7-4-2" d="m4.9635226 285.20071a.67799478.67799478 0 0 0 -.6779948.67799.67799478.67799478 0 0 0 .6779948.678.67799478.67799478 0 0 0 .6779948-.678.67799478.67799478 0 0 0 -.6779948-.67799z" vector-effect="none"/></g></g></svg>