<svg xmlns="http://www.w3.org/2000/svg" xml:space="preserve" viewBox="0 0 512 512"><path d="M409.6-168.8c0-113.106-91.694-204.8-204.8-204.8C91.705-373.6 0-281.906 0-168.8 0-55.705 91.705 36 204.8 36c113.106 0 204.8-91.705 204.8-204.8" style="fill:#da2f47" transform="matrix(1.25 0 0 -1.25 0 45)"/><path d="M289.963-303.957c-.512 2.037-13.289 49.823-85.163 49.823-71.885 0-84.662-47.787-85.163-49.823-.626-2.469.489-5.029 2.697-6.303 2.219-1.24 4.995-.899 6.815.876.216.216 22.232 21.117 75.651 21.117 53.407 0 75.435-20.901 75.639-21.117a5.74 5.74 0 0 1 4.005-1.638c.956 0 1.923.239 2.799.728a5.696 5.696 0 0 1 2.72 6.337M178.711-160.756c-37.035 37.035-96.552 37.467-99.066 37.467-6.281 0-11.366-5.086-11.366-11.366-.011-6.269 5.074-11.378 11.355-11.389.33 0 21.902-.25 45.318-8.385-6.747-7.282-11.173-18.591-11.173-31.437 0-22.005 12.732-39.822 28.444-39.822s28.444 17.818 28.444 39.822c0 1.98-.216 3.868-.421 5.769.148 0 .284-.08.421-.08 2.913 0 5.825 1.115 8.044 3.334a11.365 11.365 0 0 1 0 16.087M329.956-123.289c-2.514 0-62.02-.432-99.066-37.467a11.364 11.364 0 0 1 0-16.088 11.35 11.35 0 0 1 8.044-3.334c.148 0 .273.08.41.08-.182-1.9-.41-3.789-.41-5.769 0-22.005 12.732-39.822 28.444-39.822s28.444 17.818 28.444 39.822c0 12.846-4.426 24.155-11.173 31.437 23.415 8.135 44.988 8.385 45.329 8.385 6.269.011 11.355 5.12 11.344 11.389-.011 6.281-5.086 11.367-11.366 11.367" style="fill:#292f33" transform="matrix(1.25 0 0 -1.25 0 45)"/></svg>