<svg xmlns="http://www.w3.org/2000/svg" xml:space="preserve" viewBox="0 0 473.935 473.935"><circle cx="236.967" cy="236.967" r="236.967" style="fill:#ffc10e"/><circle cx="164.938" cy="207.632" r="37.216" style="fill:#333"/><ellipse cx="313.637" cy="188.324" rx="37.216" ry="56.501" style="fill:#333"/><path d="m195.348 102.72-37.365 43.708h13.227L95.787 85.901c-9.31-7.472-22.642 5.676-13.227 13.227l75.423 60.527c3.719 2.986 9.658 4.176 13.227 0l37.365-43.708c7.794-9.115-5.373-22.414-13.227-13.227M280.432 124.747c12.456-14.571 24.913-29.137 37.366-43.708h-13.227l75.423 60.527c9.31 7.472 22.642-5.676 13.227-13.227l-75.423-60.527c-3.719-2.986-9.658-4.176-13.227 0-12.456 14.571-24.913 29.137-37.366 43.708-7.794 9.115 5.377 22.414 13.227 13.227M178.457 386.725h112.736c12.067 0 12.067-18.709 0-18.709H178.457c-12.063 0-12.063 18.709 0 18.709" style="fill:#333"/></svg>