<?xml version="1.0" encoding="iso-8859-1"?>
<!-- Generator: Adobe Illustrator 19.0.0, SVG Export Plug-In . SVG Version: 6.00 Build 0)  -->
<svg version="1.1" id="Capa_1" xmlns="http://www.w3.org/2000/svg" xmlns:xlink="http://www.w3.org/1999/xlink" x="0px" y="0px"
	 viewBox="0 0 512 512" style="enable-background:new 0 0 512 512;" xml:space="preserve">
<circle style="fill:#FFD93B;" cx="256" cy="256" r="256"/>
<path style="fill:#F4C534;" d="M512,256c0,141.44-114.64,256-256,256c-80.48,0-152.32-37.12-199.28-95.28
	c43.92,35.52,99.84,56.72,160.72,56.72c141.36,0,256-114.56,256-256c0-60.88-21.2-116.8-56.72-160.72
	C474.8,103.68,512,175.52,512,256z"/>
<g>
	<path style="fill:#3E4347;" d="M283.264,79.088c0,0,108.8-16.16,144.8,33.328C428.064,112.416,417.072,0,283.264,79.088z"/>
	<path style="fill:#3E4347;" d="M228.736,79.088c0,0-108.8-16.16-144.8,33.328C83.936,112.416,94.928,0,228.736,79.088z"/>
	<path style="fill:#3E4347;" d="M349.472,303.376c0.64,92.32-37.6,155.36-93.44,154.24c-56,1.12-94.24-61.92-93.6-154.24
		c-0.64-92.16,37.6-155.2,93.6-154.08C311.872,148.176,350.112,211.216,349.472,303.376z"/>
</g>
<path style="fill:#E24B4B;" d="M312.512,326.256c-11.68-9.76-27.84-11.36-41.44-5.12c-12.656,5.536-24.544,6.656-37.6,5.76
	c-24.96-2.24-49.12,9.92-58.72,33.28c-1.76,4.16-3.04,8.48-4,12.96c0.048,0.176,0.032,0.432,0.08,0.608
	c14.096,52.352,45.04,84.672,85.2,83.872c40.24,0.8,71.248-31.824,85.248-84.608C336.784,354.512,326.576,338.24,312.512,326.256z"
	/>
<g>
	<path style="fill:#FFFFFF;" d="M186.64,193.84c19.248-6.56,43.232-14.352,69.312-14.352c26.096,0,50.08,7.792,69.344,14.368
		c-16.512-28.624-40.528-45.12-69.264-44.544C227.232,148.72,203.168,165.216,186.64,193.84z"/>
	<path style="fill:#FFFFFF;" d="M327.216,409.52c-17.872,6.064-42.32,16.272-71.264,16.272c-28.928,0-53.376-10.208-71.232-16.256
		c16.56,30.784,41.36,48.688,71.312,48.096C285.92,458.208,310.672,440.32,327.216,409.52z"/>
</g>
<g>
</g>
<g>
</g>
<g>
</g>
<g>
</g>
<g>
</g>
<g>
</g>
<g>
</g>
<g>
</g>
<g>
</g>
<g>
</g>
<g>
</g>
<g>
</g>
<g>
</g>
<g>
</g>
<g>
</g>
</svg>
