<svg xmlns="http://www.w3.org/2000/svg" xml:space="preserve" viewBox="0 0 512 512"><circle cx="256" cy="256" r="256" style="fill:#ffd93b"/><path d="M512 256c0 141.44-114.64 256-256 256-80.48 0-152.32-37.12-199.28-95.28 43.92 35.52 99.84 56.72 160.72 56.72 141.36 0 256-114.56 256-256 0-60.88-21.2-116.8-56.72-160.72C474.8 103.68 512 175.52 512 256" style="fill:#f4c534"/><path d="M283.264 79.088s108.8-16.16 144.8 33.328c0 0-10.992-112.416-144.8-33.328M228.736 79.088s-108.8-16.16-144.8 33.328c0 0 10.992-112.416 144.8-33.328M349.472 303.376c.64 92.32-37.6 155.36-93.44 154.24-56 1.12-94.24-61.92-93.6-154.24-.64-92.16 37.6-155.2 93.6-154.08 55.84-1.12 94.08 61.92 93.44 154.08" style="fill:#3e4347"/><path d="M312.512 326.256c-11.68-9.76-27.84-11.36-41.44-5.12-12.656 5.536-24.544 6.656-37.6 5.76-24.96-2.24-49.12 9.92-58.72 33.28-1.76 4.16-3.04 8.48-4 12.96.048.176.032.432.08.608 14.096 52.352 45.04 84.672 85.2 83.872 40.24.8 71.248-31.824 85.248-84.608a89.04 89.04 0 0 0-28.768-46.752" style="fill:#e24b4b"/><path d="M186.64 193.84c19.248-6.56 43.232-14.352 69.312-14.352 26.096 0 50.08 7.792 69.344 14.368-16.512-28.624-40.528-45.12-69.264-44.544-28.8-.592-52.864 15.904-69.392 44.528M327.216 409.52c-17.872 6.064-42.32 16.272-71.264 16.272-28.928 0-53.376-10.208-71.232-16.256 16.56 30.784 41.36 48.688 71.312 48.096 29.888.576 54.64-17.312 71.184-48.112" style="fill:#fff"/></svg>