<?xml version="1.0"?>
<svg xmlns="http://www.w3.org/2000/svg" viewBox="0 0 64 64" width="512" height="512">
    <g id="outline">
        <path d="M24,4h1a1,1,0,0,0,0-2H24a1,1,0,0,0,0,2Z"/>
        <path d="M56.93,2H28.2979a1,1,0,0,0,0,2H56.93A3.0389,3.0389,0,0,1,60,7V21a3.0389,3.0389,0,0,1-3.07,3H10.123a.9966.9966,0,0,0-.4892.1279L4,27.292V7A3.0389,3.0389,0,0,1,7.07,4H20a1,1,0,0,0,0-2H7.07A5.0413,5.0413,0,0,0,2,7V29a1,1,0,0,0,1.4893.8721L10.3848,26H56.93A5.0413,5.0413,0,0,0,62,21V7A5.0413,5.0413,0,0,0,56.93,2Z"/>
        <path d="M15.9053,7.5752a1,1,0,0,0-1.8106,0L12.4668,11.042l-3.6182.5537a1,1,0,0,0-.5644,1.6865l2.6474,2.7129-.6269,3.8438a1,1,0,0,0,1.4707,1.0361L15,19.0928l3.2246,1.7822a.999.999,0,0,0,1.06-.0576,1.0016,1.0016,0,0,0,.4111-.9785l-.6269-3.8438,2.6474-2.7129a1,1,0,0,0-.5644-1.6865l-3.6182-.5537ZM17.2842,14.96a1,1,0,0,0-.2715.8593l.3769,2.31-1.9062-1.0537a.9972.9972,0,0,0-.9668,0L12.61,18.1289l.3769-2.31a1,1,0,0,0-.2715-.8593l-1.6406-1.6817,2.2217-.34a.999.999,0,0,0,.7539-.5635L15,10.3535l.9492,2.0215a.999.999,0,0,0,.7539.5635l2.2217.34Z"/>
        <path d="M38.9482,12.2666a1,1,0,0,0-.7968-.6709l-3.6182-.5537L32.9053,7.5752a1,1,0,0,0-1.8106,0L29.4668,11.042l-3.6182.5537a1,1,0,0,0-.5644,1.6865l2.6474,2.7129-.6269,3.8438a1,1,0,0,0,1.4707,1.0361L32,19.0928l3.2246,1.7822a.999.999,0,0,0,1.06-.0576,1.0016,1.0016,0,0,0,.4111-.9785l-.6269-3.8438,2.6474-2.7129A.9993.9993,0,0,0,38.9482,12.2666ZM34.2842,14.96a1,1,0,0,0-.2715.8593l.3769,2.31-1.9062-1.0537a.9972.9972,0,0,0-.9668,0L29.61,18.1289l.3769-2.31a1,1,0,0,0-.2715-.8593l-1.6406-1.6817,2.2217-.34a.999.999,0,0,0,.7539-.5635L32,10.3535l.9492,2.0215a.999.999,0,0,0,.7539.5635l2.2217.34Z"/>
        <path d="M55.9482,12.2666a1,1,0,0,0-.7968-.6709l-3.6182-.5537L49.9053,7.5752a1,1,0,0,0-1.8106,0L46.4668,11.042l-3.6182.5537a1,1,0,0,0-.5644,1.6865l2.6474,2.7129-.6269,3.8438a1,1,0,0,0,1.4707,1.0361L49,19.0928l3.2246,1.7822a.999.999,0,0,0,1.06-.0576,1.0016,1.0016,0,0,0,.4111-.9785l-.6269-3.8438,2.6474-2.7129A.9993.9993,0,0,0,55.9482,12.2666ZM51.2842,14.96a1,1,0,0,0-.2715.8593l.3769,2.31-1.9062-1.0537a.9972.9972,0,0,0-.9668,0L46.61,18.1289l.3769-2.31a1,1,0,0,0-.2715-.8593l-1.6406-1.6817,2.2217-.34a.999.999,0,0,0,.7539-.5635L49,10.3535l.9492,2.0215a.999.999,0,0,0,.7539.5635l2.2217.34Z"/>
        <path d="M17.0215,56H7.07A3.0389,3.0389,0,0,1,4,53V39a3.0389,3.0389,0,0,1,3.07-3H48a1,1,0,0,0,0-2H7.07A5.0413,5.0413,0,0,0,2,39V53a5.0413,5.0413,0,0,0,5.07,5h9.9512a1,1,0,1,0,0-2Z"/>
        <path d="M21.8506,56H20.1494a1,1,0,0,0,0,2h1.7012a1,1,0,0,0,0-2Z"/>
        <path d="M59.5449,35.7783a1,1,0,0,0-.1728,1.4033A2.9289,2.9289,0,0,1,60,39V59.292l-5.6338-3.1641A.9966.9966,0,0,0,53.877,56H25a1,1,0,0,0,0,2H53.6152l6.8955,3.8721A1,1,0,0,0,62,61V39a4.9054,4.9054,0,0,0-1.0518-3.0488A.9986.9986,0,0,0,59.5449,35.7783Z"/>
        <path d="M43,40a1,1,0,0,0-1-1H17.17a1,1,0,0,0,0,2H42A1,1,0,0,0,43,40Z"/>
        <path d="M9,41h3.0635a1,1,0,0,0,0-2H9a1,1,0,0,0,0,2Z"/>
        <path d="M40,48a1,1,0,0,0-1-1H9a1,1,0,0,0,0,2H39A1,1,0,0,0,40,48Z"/>
        <path d="M39,43H30.2764a1,1,0,1,0,0,2H39a1,1,0,0,0,0-2Z"/>
        <path d="M9,45H27.2979a1,1,0,0,0,0-2H9a1,1,0,0,0,0,2Z"/>
        <path d="M56.2979,52a1,1,0,0,0-1-1H23.6816a1,1,0,0,0,0,2H55.2979A1,1,0,0,0,56.2979,52Z"/>
        <path d="M9,51a1,1,0,0,0,0,2H20a1,1,0,0,0,0-2Z"/>
        <path d="M56.8789,28.9541,42.7363,43.0967a1.003,1.003,0,0,0-.2734.5107l-.707,3.5352a1,1,0,0,0,.98,1.1963,1.0281,1.0281,0,0,0,.1963-.02l3.5362-.707a1.0034,1.0034,0,0,0,.5107-.2734L61.1211,33.1973a3,3,0,1,0-4.2422-4.2432Zm-11.1,16.7568-1.7686.3536.3536-1.7676L56.1719,32.4893l1.4141,1.4141ZM59.707,31.7822,59,32.4893l-1.4141-1.4141.7071-.707a1,1,0,1,1,1.414,1.414Z"/>
    </g>
</svg>
