<!--
  - Copyright (c) 2023. Selldone® Business OS™
  -
  - Author: M.Pajuhaan
  - Web: https://selldone.com
  - ━━━━━━━━━━━━━━━━━━━━━━━━━━━━━━━━━━━━━━━━━━━━━━━━━━━━━━
  -
  - All rights reserved. In the weave of time, where traditions and innovations intermingle, this content was crafted.
  - From the essence of thought, through the corridors of creativity, each word, and sentiment has been molded.
  - Not just to exist, but to inspire. Like an artist's stroke or a sculptor's chisel, every nuance is deliberate.
  - Our journey is not just about reaching a destination, but about creating a masterpiece.
  - Tread carefully, for you're treading on dreams.
  -->

<svg id="Icons" height="512" viewBox="0 0 74 74" width="512" xmlns="http://www.w3.org/2000/svg"><path d="m70.807 31.7h-67.614a1 1 0 0 1 -1-1v-7.294a1 1 0 0 1 .483-.856l33.8-20.406a1 1 0 0 1 1.033 0l33.814 20.406a1 1 0 0 1 .483.856v7.294a1 1 0 0 1 -.999 1zm-66.613-2h65.613v-5.73l-32.813-19.802-32.8 19.8z"/><path d="m37 24.313a5.981 5.981 0 1 1 5.981-5.981 5.988 5.988 0 0 1 -5.981 5.981zm0-9.963a3.981 3.981 0 1 0 3.981 3.981 3.986 3.986 0 0 0 -3.981-3.981z"/><path d="m64.972 38.017h-10.641a2.163 2.163 0 0 1 -2.16-2.161v-5.156a1 1 0 0 1 1-1h12.961a1 1 0 0 1 1 1v5.159a2.163 2.163 0 0 1 -2.16 2.158zm-10.8-6.32v4.159a.161.161 0 0 0 .16.161h10.64a.161.161 0 0 0 .16-.161v-4.156z"/><path d="m64.064 58.216h-8.826a1 1 0 0 1 -1-1v-20.2a1 1 0 0 1 1-1h8.826a1 1 0 0 1 1 1v20.2a1 1 0 0 1 -1 1zm-7.826-2h6.826v-18.2h-6.826z"/><path d="m66.132 64.536h-12.961a1 1 0 0 1 -1-1v-5.159a2.163 2.163 0 0 1 2.16-2.161h10.641a2.163 2.163 0 0 1 2.16 2.161v5.159a1 1 0 0 1 -1 1zm-11.961-2h10.961v-4.159a.161.161 0 0 0 -.16-.161h-10.641a.161.161 0 0 0 -.16.161z"/><path d="m42.32 38.017h-10.64a2.163 2.163 0 0 1 -2.16-2.161v-5.156a1 1 0 0 1 1-1h12.96a1 1 0 0 1 1 1v5.159a2.163 2.163 0 0 1 -2.16 2.158zm-10.8-6.317v4.159a.161.161 0 0 0 .16.161h10.64a.161.161 0 0 0 .16-.161v-4.159z"/><path d="m41.4 58.216h-8.8a1 1 0 0 1 -1-1v-20.2a1 1 0 0 1 1-1h8.8a1 1 0 0 1 1 1v20.2a1 1 0 0 1 -1 1zm-7.8-2h6.8v-18.2h-6.8z"/><path d="m43.48 64.536h-12.96a1 1 0 0 1 -1-1v-5.159a2.163 2.163 0 0 1 2.16-2.161h10.64a2.163 2.163 0 0 1 2.16 2.161v5.159a1 1 0 0 1 -1 1zm-11.961-2h10.961v-4.159a.161.161 0 0 0 -.16-.161h-10.64a.161.161 0 0 0 -.16.161z"/><path d="m20.669 38.017h-10.641a2.163 2.163 0 0 1 -2.16-2.161v-5.156a1 1 0 0 1 1-1h12.961a1 1 0 0 1 1 1v5.159a2.163 2.163 0 0 1 -2.16 2.158zm-10.801-6.317v4.159a.161.161 0 0 0 .16.161h10.641a.161.161 0 0 0 .16-.161v-4.159z"/><path d="m19.8 58.216h-8.9a1 1 0 0 1 -1-1v-20.2a1 1 0 0 1 1-1h8.9a1 1 0 0 1 1 1v20.2a1 1 0 0 1 -1 1zm-7.9-2h6.9v-18.2h-6.9z"/><path d="m21.829 64.536h-12.961a1 1 0 0 1 -1-1v-5.159a2.163 2.163 0 0 1 2.16-2.161h10.641a2.163 2.163 0 0 1 2.16 2.161v5.159a1 1 0 0 1 -1 1zm-11.961-2h10.961v-4.159a.161.161 0 0 0 -.16-.161h-10.641a.161.161 0 0 0 -.16.161z"/><path d="m71 72h-68a1 1 0 0 1 -1-1v-7.464a1 1 0 0 1 1-1h68a1 1 0 0 1 1 1v7.464a1 1 0 0 1 -1 1zm-67-2h66v-5.464h-66z"/></svg>