<svg enable-background="new 0 0 512 512" height="512" viewBox="0 0 512 512" width="512" xmlns="http://www.w3.org/2000/svg"><g id="giftcard_gift_card_coupon_voucher"><path d="m195.906 247.974c.157-.052.13-.027 0 0zm-1.069-.176c.083.055.167.093.253.123-.003-.116-.084-.162-.253-.123zm-112.133-8.903c40.267-39.826 72.114 50.078 72.114 50.078s-106.18-1.597-72.114-50.078zm12.778 20.439c5.913 16.988 24.229 17.426 38.912 17.573-3.999-12.191-11.742-36.679-30.777-32.041-10.143 2.426-9.549 11.832-8.135 14.468zm157.21 24.364c-4.608 3.849-59.231 8.305-59.231 8.305s21.305-106.646 70.708-52.711c9.194 14.36 3.682 36.62-11.477 44.406zm.873-24.425c.364-2.519 1.446-11.508-8.159-14.229-6.466-.94-12.565.933-17.129 4.638-4.988 3.789-11.036 16.078-13.624 27.285 17.463-.344 30.028-1.279 38.912-17.694zm256.831 117.749c1.3 34.863-20.52 47.04-61.22 50.865-72.244 6.79-318.302 4.303-381.195 3.83-40.163-.302-69.569-25.393-67.914-64.364 2.472-58.197 4.807-164.802 5.849-223.051.419-23.428 6.278-64.85 43.011-64.85 9.653 0 407.741-.23 404.913 2.667 38.987 4.652 58.161 24.107 57.856 74.399 1.464 79.589-2.911 177.326-1.3 220.504zm-355.578-164.684 19.781 23.118c-1.013-4.445 19.53-14.681 19.258-21.979-.454-12.198 2.763-104.646.142-114.726 2.015-4.353-38.455-1.168-38.455-1.168-.726 24.851-.561 95.789-.726 114.755zm-83.277 2.412c-10.648 13.862-13.262 36.734-1.376 58.995 7.485 10.123 23.078 25.164 45.458 32.779 2.453.488-37.811 43.034-44.989 44.976 3.043 2.069 33.446 30.329 36.148 30.028-1.651-.812 66.783-70.4 66.061-70.13 3.622 1.379 67.945 75.36 74.686 73.12.867-.354 31.296-32.163 29.294-32.877.634.007-47.466-42.045-50.181-44.929 39.71-10.106 83.1-62.858 54.562-92.279-47.427-34.607-103.613 52.979-108.141 54.432.793.549-61.539-85.504-101.522-54.115zm4.425 108.726 12.877-10.624-30.067-26.367s-27.41 2.942-37.7.893c-1.499-.105-1.181 34.319-.161 34.811.025-.023 55.051 1.287 55.051 1.287zm-56.83-55.397c1.214-.021 27.33 1.035 30.125-.192-13.781-24.856-9.588-50.073 5.651-63.944 25.192-24.305 53.064-16.576 81.236-3.962 2.355.626-.89-101.602.922-102.259 0 0-35.995-.336-69.826-.283-24.89-1.546-43.893 12.879-44.497 33.701-2.093 72.074-3.218 135.202-3.611 136.939zm117.558 145.605c-1.863.395 2.165-38.711-2.253-39.041 3.086.658-34.872 33.952-35.212 34.107.334-.626-51.361-59.243-52.633-59.721.41-.208 9.081-7.636 9.153-7.842-3.496-.261-36.918-.08-36.918-.08s-9.191 74.526 37.1 72.748c26.526-1.019 54.477 3.123 80.763-.171zm58.27-51.062-20.24-24.882-23.886 27.867s-.114 40.07 4.562 48.113c.586-.515 37.393.044 38.635-.021 1.766-5.256.929-51.077.929-51.077zm298.233-22.101c-6.124 1.277-209.092 1.117-210.985 1.201-1.397-1.342 9.59 10.575 17.972 11.334-6.697.227-58.592 50.854-58.592 50.854s-21.836-14.338-27.363-20.05c2.267 6.411-.73 29.431 3.084 29.617 26.294-5.326 173.439 7.519 241.061-1.59 20.971-1.305 32.844-10.948 33.927-30.225 1.083-19.275.896-41.141.896-41.141zm.351-18.92s-.542-37.919-.341-38.102c-28.365 1.493-181.292 5.357-202.037 5.474-5.659.873-29.935 23.692-29.935 23.692l7.311 9.557s219.458-.556 225.002-.621zm-4.078-177.852c-.421-35.681-19.943-44.36-52.161-44.68-67.838-.675-131.211-6.66-227.381-2.333 3.074 1.863-.263 104.054 5.238 106.041 29.482-19.976 41.381-17.052 70.806-.062 18.687 12.457 34.392 45.258 21.198 64.807-9.363 1.527 181.994-.287 186.475-.948 2.603-.361-4.053-112.445-4.175-122.825z"/></g><g id="Layer_1"/></svg>