<?xml version="1.0" encoding="UTF-8"?>


<!DOCTYPE svg PUBLIC "-//W3C//DTD SVG 1.1//EN" "http://www.w3.org/Graphics/SVG/1.1/DTD/svg11.dtd">

<svg xmlns="http://www.w3.org/2000/svg" xml:space="preserve" width="770px" height="770px" version="1.1"
     style="shape-rendering:geometricPrecision; text-rendering:geometricPrecision; image-rendering:optimizeQuality; fill-rule:evenodd; clip-rule:evenodd"
     viewBox="0 0 94.21 94.21"
>
 <defs>
  <style type="text/css">
   <![CDATA[
    .fil0 {fill:none}
    .fil3 {fill:#1785F8}
    .fil1 {fill:#31A7FB}
    .fil5 {fill:#FAC574}
    .fil2 {fill:#F8F6F6;fill-rule:nonzero}
    .fil4 {fill:#FCD79F;fill-rule:nonzero}
   ]]>
  </style>
 </defs>
    <g id="Layer_x0020_1">
  <metadata id="CorelCorpID_0Corel-Layer"/>
        <rect class="fil0" width="94.21" height="94.21"/>
        <g id="_2462585419808">
   <path class="fil1"
         d="M26.81 34.04l40.59 0c1.39,0 2.53,1.14 2.53,2.53l0 14.87c0,1.39 -1.14,2.53 -2.53,2.53l-40.59 0c-1.39,0 -2.53,-1.14 -2.53,-2.53l0 -14.87c0,-1.39 1.14,-2.53 2.53,-2.53z"/>
            <path class="fil2"
                  d="M50.94 40.55l-2.35 0c-0.39,0 -0.84,0.23 -0.84,0.87l0.01 4.66c0,0.38 0.31,0.69 0.69,0.69l0 0c0.38,0 0.69,-0.31 0.68,-0.69l0 -1.47 1.81 0c0.51,0 0.96,-0.28 1.24,-0.77 0.19,-0.34 0.3,-0.79 0.3,-1.26 0,-1.19 -0.64,-2.03 -1.54,-2.03l0 0zm-0.01 2.68l-1.8 0 0 -1.3 1.8 0c0.05,0.05 0.17,0.27 0.17,0.65 0,0.38 -0.12,0.6 -0.17,0.65l0 0z"/>
            <path class="fil2"
                  d="M33.27 40.55c-0.38,0 -0.69,0.31 -0.69,0.69l0 1.73 -2.15 0 0 -1.73c0,-0.38 -0.31,-0.69 -0.69,-0.69 -0.38,0 -0.68,0.31 -0.68,0.69l0 4.84c0,0.38 0.3,0.69 0.68,0.69 0.38,0 0.69,-0.31 0.69,-0.69l0 -1.73 2.15 0 0 1.73c0,0.38 0.31,0.69 0.69,0.69 0.38,0 0.69,-0.31 0.69,-0.69l0 -4.84c0,-0.38 -0.31,-0.69 -0.69,-0.69l0 0z"/>
            <path class="fil2"
                  d="M39.74 40.55l-3.53 0c-0.38,0 -0.69,0.31 -0.69,0.69 0,0.38 0.31,0.69 0.69,0.69l1.07 0 0 4.15c0,0.38 0.31,0.69 0.69,0.69 0.38,0 0.69,-0.31 0.69,-0.69l0 -4.15 1.08 0c0.38,0 0.68,-0.31 0.68,-0.69 0,-0.38 -0.3,-0.69 -0.68,-0.69l0 0z"/>
            <path class="fil2"
                  d="M45.58 40.55l-3.53 0c-0.38,0 -0.69,0.31 -0.69,0.69 0,0.38 0.31,0.69 0.69,0.69l1.08 0 0 4.15c0,0.38 0.3,0.69 0.68,0.69 0.39,0 0.69,-0.31 0.69,-0.69l0 -4.15 1.08 0c0.38,0 0.69,-0.31 0.69,-0.69 0,-0.38 -0.31,-0.69 -0.69,-0.69l0 0z"/>
            <path class="fil2"
                  d="M55.59 45.62c-0.38,0 -0.68,-0.31 -0.68,-0.69 0,-0.38 0.3,-0.7 0.68,-0.7 0.38,0 0.69,0.31 0.69,0.69l0 0.01c0,0.38 -0.3,0.69 -0.69,0.69z"/>
            <path class="fil2"
                  d="M55.59 42.73c-0.38,0 -0.68,-0.31 -0.68,-0.69 0,-0.38 0.3,-0.7 0.68,-0.7 0.38,0 0.69,0.31 0.69,0.69l0 0.01c0,0.38 -0.3,0.69 -0.69,0.69z"/>
            <path class="fil2"
                  d="M59.1 46.77c-0.09,0 -0.19,-0.02 -0.28,-0.06 -0.35,-0.15 -0.51,-0.56 -0.35,-0.91l2.13 -4.84c0.15,-0.34 0.56,-0.5 0.91,-0.35 0.34,0.15 0.5,0.56 0.35,0.91l-2.13 4.84c-0.11,0.26 -0.37,0.41 -0.63,0.41l0 0z"/>
            <path class="fil2"
                  d="M62.66 46.77c-0.09,0 -0.18,-0.02 -0.27,-0.06 -0.35,-0.15 -0.51,-0.56 -0.36,-0.91l2.13 -4.84c0.16,-0.34 0.56,-0.5 0.91,-0.35 0.35,0.15 0.51,0.56 0.36,0.91l-2.13 4.84c-0.12,0.26 -0.37,0.41 -0.64,0.41l0 0z"/>
            <path class="fil3"
                  d="M67.28 36.57l0 14.87c0,1.39 -1.14,2.53 -2.53,2.53l2.65 0c1.39,0 2.53,-1.14 2.53,-2.53l0 -14.87c0,-1.39 -1.14,-2.53 -2.53,-2.53l-2.65 0c1.39,0 2.53,1.14 2.53,2.53l0 0z"/>
            <path class="fil4"
                  d="M57.8 60.11l-3.95 -4.14 -1.45 1.32c-0.13,0.11 -0.31,0.05 -0.36,-0.14l-0.55 -7.19c0,-0.1 0,-0.14 0.02,-0.17 0.03,-0.02 0.08,-0.01 0.17,-0.01l7.09 1.27c0.19,0.08 0.23,0.26 0.1,0.37l-1.45 1.32 3.95 4.14c0.08,0.08 0.05,0.18 -0.03,0.26l-1.64 1.48 -1.63 1.48c-0.09,0.08 -0.19,0.09 -0.27,0.01l0 0z"/>
            <path class="fil5"
                  d="M55.25 50.42c0.77,0.97 1.34,2.19 1.66,3.55 0.18,0.76 0.27,1.56 0.27,2.39 0,0.96 -0.12,1.87 -0.35,2.73l0.97 1.02c0.08,0.08 0.18,0.07 0.27,-0.01l1.63 -1.48 1.64 -1.48c0.08,-0.08 0.11,-0.18 0.03,-0.26l-2.77 -2.91 -1.18 -1.23 1.46 -1.32c0.12,-0.11 0.08,-0.29 -0.11,-0.37l-3.52 -0.63z"/>
  </g>
 </g>
</svg>
