<?xml version="1.0" encoding="UTF-8"?>


<!DOCTYPE svg PUBLIC "-//W3C//DTD SVG 1.1//EN" "http://www.w3.org/Graphics/SVG/1.1/DTD/svg11.dtd">

<svg xmlns="http://www.w3.org/2000/svg" xml:space="preserve" width="770px" height="770px" version="1.1"
     style="shape-rendering:geometricPrecision; text-rendering:geometricPrecision; image-rendering:optimizeQuality; fill-rule:evenodd; clip-rule:evenodd"
     viewBox="0 0 47.24 47.24"
>
 <defs>
  <style type="text/css">
   <![CDATA[
    .fil0 {fill:none}
    .fil8 {fill:whitesmoke}
    .fil1 {fill:#A79BA7;fill-rule:nonzero}
    .fil3 {fill:#B289C9;fill-rule:nonzero}
    .fil2 {fill:#C2A1D5;fill-rule:nonzero}
    .fil5 {fill:#E8EDF2;fill-rule:nonzero}
    .fil4 {fill:#F5F8F9;fill-rule:nonzero}
    .fil7 {fill:#FE9738;fill-rule:nonzero}
    .fil6 {fill:#FEA95C;fill-rule:nonzero}
   ]]>
  </style>
 </defs>
    <g id="Layer_x0020_1">
  <metadata id="CorelCorpID_0Corel-Layer"/>
        <rect class="fil0" width="47.24" height="47.24"/>
        <g id="_2462581409632">
   <path class="fil1"
         d="M27.03 7.24l-3.06 -1.92 0 -0.19c0,-0.39 -0.19,-0.74 -0.51,-0.96 -0.11,-0.07 -0.17,-0.14 -0.17,-0.22 0,-0.28 0.16,-0.46 0.3,-0.46 0.24,0 0.41,0.18 0.41,0.33 0,0.2 0.16,0.35 0.35,0.35 0.19,0 0.35,-0.15 0.35,-0.35 0,-0.56 -0.5,-1.02 -1.11,-1.02 -0.55,0 -0.99,0.5 -0.99,1.15 0,0.32 0.17,0.6 0.47,0.8 0.13,0.09 0.21,0.23 0.21,0.38l0 0.19 -3.06 1.92c-0.17,0.1 -0.22,0.31 -0.11,0.47 0.1,0.17 0.31,0.22 0.47,0.11l3.04 -1.9 3.04 1.9c0.06,0.04 0.12,0.06 0.18,0.06 0.12,0 0.23,-0.06 0.3,-0.17 0.1,-0.16 0.05,-0.37 -0.11,-0.47l0 0z"/>
            <path class="fil2"
                  d="M35.44 12.25l-2.01 3.22c-0.05,0.08 -0.17,0.11 -0.26,0.06l-1.93 -1.2c-0.09,-0.06 -0.22,0 -0.22,0.12l0 11.65c0,0.22 -0.17,0.39 -0.39,0.39l-14.01 0c-0.22,0 -0.4,-0.17 -0.4,-0.39l0 -11.65c0,-0.12 -0.12,-0.18 -0.22,-0.12l-1.93 1.2c-0.08,0.05 -0.2,0.02 -0.26,-0.06l-2.01 -3.22c-0.05,-0.08 -0.03,-0.18 0.03,-0.24 0.51,-0.48 2.66,-2.46 5.27,-4.08 0.92,-0.46 1.69,-0.57 2.37,-0.69l3.21 0.79c0.62,0.15 1.27,0.15 1.89,0l3.2 -0.79c0.68,0.12 1.45,0.23 2.37,0.69 2.61,1.62 4.76,3.6 5.27,4.08 0.07,0.06 0.08,0.16 0.03,0.24l0 0z"/>
            <path class="fil3"
                  d="M35.41 12.01c-0.51,-0.48 -2.66,-2.46 -5.27,-4.08 -0.92,-0.46 -1.69,-0.57 -2.37,-0.69l-0.61 0.15c0.47,0.11 0.98,0.26 1.55,0.54 2.61,1.62 4.76,3.6 5.27,4.08 0.07,0.06 0.08,0.16 0.03,0.24l-1.71 2.74 0.87 0.54c0.09,0.05 0.21,0.02 0.26,-0.06l2.01 -3.22c0.05,-0.08 0.04,-0.18 -0.03,-0.24z"/>
            <path class="fil3"
                  d="M30.53 14.45c-0.52,0 -0.94,0.42 -0.94,0.93l0 10.72c0,0.22 -0.17,0.39 -0.39,0.39l1.43 0c0.22,0 0.39,-0.17 0.39,-0.39l0 -11.65 -0.49 0z"/>
            <path class="fil4"
                  d="M28.47 7.17c-0.1,-0.39 -0.48,-0.82 -0.87,-0.73l-3.3 0.81c-0.44,0.11 -0.91,0.11 -1.36,0l-3.3 -0.81c-0.38,-0.09 -0.77,0.34 -0.86,0.73 -0.1,0.38 0.14,0.57 0.52,0.66l3.3 0.81c0.33,0.08 0.68,0.12 1.02,0.12 0.35,0 0.69,-0.04 1.02,-0.12l3.3 -0.81c0.39,-0.09 0.62,-0.28 0.53,-0.66l0 0z"/>
            <path class="fil5"
                  d="M28.47 7.17c-0.1,-0.39 -0.48,-0.82 -0.87,-0.73l-1.2 0.29c0.3,0.08 0.56,0.42 0.64,0.73 0.07,0.3 -0.07,0.53 -0.32,0.67l1.22 -0.3c0.39,-0.09 0.62,-0.28 0.53,-0.66l0 0z"/>
            <path class="fil4"
                  d="M29.34 17.94l-0.96 0.97c-0.05,0.05 -0.05,0.12 0,0.17l3.49 3.5c0.1,0.1 0.1,0.26 0,0.36l-1.76 1.76c-0.1,0.1 -0.26,0.1 -0.36,0l-3.5 -3.49c-0.05,-0.05 -0.12,-0.05 -0.17,0l-0.97 0.96c-0.16,0.16 -0.43,0.05 -0.44,-0.17l-0.09 -4.33c-0.01,-0.15 0.11,-0.27 0.26,-0.26l4.33 0.1c0.22,0 0.33,0.27 0.17,0.43l0 0z"/>
            <path class="fil5"
                  d="M31.87 22.58l-3.49 -3.5c-0.05,-0.05 -0.05,-0.12 0,-0.17l0.96 -0.97c0.16,-0.16 0.05,-0.43 -0.17,-0.43l-1.3 -0.03c0.13,0.08 0.18,0.27 0.05,0.4l-0.98 0.98c-0.04,0.04 -0.04,0.12 0,0.17l3.53 3.52c0.1,0.1 0.1,0.27 0,0.37l-1.26 1.25 0.54 0.53c0.1,0.1 0.26,0.1 0.36,0l1.76 -1.76c0.1,-0.1 0.1,-0.26 0,-0.36l0 0z"/>
            <path class="fil6"
                  d="M23.34 14.79c0,0.54 -0.75,0.93 -0.94,1.39 -0.21,0.49 0.04,1.29 -0.32,1.66 -0.37,0.36 -1.17,0.11 -1.66,0.32 -0.46,0.19 -0.85,0.94 -1.39,0.94 -0.54,0 -0.92,-0.75 -1.39,-0.94 -0.49,-0.21 -1.29,0.04 -1.66,-0.32 -0.36,-0.37 -0.11,-1.17 -0.32,-1.66 -0.19,-0.46 -0.94,-0.85 -0.94,-1.39 0,-0.54 0.75,-0.92 0.94,-1.39 0.21,-0.49 -0.04,-1.29 0.32,-1.66 0.37,-0.36 1.17,-0.11 1.66,-0.31 0.47,-0.2 0.85,-0.95 1.39,-0.95 0.54,0 0.93,0.75 1.39,0.95 0.49,0.2 1.29,-0.05 1.66,0.31 0.36,0.37 0.11,1.17 0.32,1.66 0.19,0.47 0.94,0.85 0.94,1.39z"/>
            <path class="fil7"
                  d="M22.4 13.4c-0.21,-0.49 0.04,-1.29 -0.32,-1.66 -0.37,-0.36 -1.17,-0.11 -1.66,-0.31 -0.46,-0.2 -0.85,-0.95 -1.39,-0.95 -0.27,0 -0.5,0.18 -0.72,0.39 0.23,0.22 0.45,0.46 0.68,0.56 0.49,0.2 1.29,-0.05 1.66,0.31 0.36,0.37 0.11,1.17 0.31,1.66 0.2,0.47 0.95,0.85 0.95,1.39 0,0.54 -0.75,0.93 -0.95,1.39 -0.2,0.49 0.05,1.29 -0.31,1.66 -0.37,0.36 -1.17,0.11 -1.66,0.32 -0.23,0.09 -0.45,0.34 -0.68,0.55 0.22,0.21 0.45,0.39 0.72,0.39 0.54,0 0.93,-0.75 1.39,-0.94 0.49,-0.21 1.29,0.04 1.66,-0.32 0.36,-0.37 0.11,-1.17 0.32,-1.66 0.19,-0.46 0.94,-0.85 0.94,-1.39 0,-0.54 -0.75,-0.92 -0.94,-1.39l0 0z"/>
            <path class="fil4"
                  d="M19.86 12.82c-0.18,-0.07 -0.38,0.01 -0.46,0.19l-1.36 3.23c-0.07,0.18 0.01,0.38 0.19,0.45 0.04,0.02 0.09,0.03 0.13,0.03 0.14,0 0.27,-0.08 0.32,-0.21l1.36 -3.24c0.08,-0.17 -0.01,-0.38 -0.18,-0.45z"/>
            <path class="fil4"
                  d="M18.87 13.5c0,-0.57 -0.43,-1.04 -0.95,-1.04 -0.52,0 -0.95,0.47 -0.95,1.04 0,0.58 0.43,1.04 0.95,1.04 0.52,0 0.95,-0.46 0.95,-1.04zm-0.95 0.35c-0.14,0 -0.25,-0.16 -0.25,-0.35 0,-0.19 0.11,-0.35 0.25,-0.35 0.14,0 0.25,0.16 0.25,0.35 0,0.19 -0.11,0.35 -0.25,0.35z"/>
            <path class="fil4"
                  d="M20.14 15.06c-0.52,0 -0.95,0.47 -0.95,1.04 0,0.58 0.43,1.05 0.95,1.05 0.52,0 0.95,-0.47 0.95,-1.05 0,-0.57 -0.43,-1.04 -0.95,-1.04zm0 1.39c-0.14,0 -0.25,-0.16 -0.25,-0.35 0,-0.19 0.11,-0.35 0.25,-0.35 0.14,0 0.25,0.16 0.25,0.35 0,0.19 -0.11,0.35 -0.25,0.35z"/>
  </g>
        <rect class="fil8" x="6.12" y="31.47" width="35" height="5.3" rx="1.38" ry="1.38"/>
        <rect class="fil8" x="6.12" y="39.39" width="35" height="5.3" rx="1.38" ry="1.38"/>
 </g>
</svg>
