<?xml version="1.0" encoding="UTF-8"?>


<!DOCTYPE svg PUBLIC "-//W3C//DTD SVG 1.1//EN" "http://www.w3.org/Graphics/SVG/1.1/DTD/svg11.dtd">

<svg xmlns="http://www.w3.org/2000/svg" xml:space="preserve" width="770px" height="770px" version="1.1"
     style="shape-rendering:geometricPrecision; text-rendering:geometricPrecision; image-rendering:optimizeQuality; fill-rule:evenodd; clip-rule:evenodd"
     viewBox="0 0 60 60"
>
 <defs>
  <style type="text/css">
   <![CDATA[
    .fil0 {fill:none}
    .fil1 {fill:whitesmoke}
    .fil2 {fill:#FEFEFE;fill-rule:nonzero}
    .fil7 {fill:black;fill-rule:nonzero}
    .fil3 {fill:#23A566;fill-rule:nonzero}
    .fil6 {fill:#8ED1B1;fill-rule:nonzero}
    .fil4 {fill:white;fill-rule:nonzero}
    .fil5 {fill:black;fill-rule:nonzero;fill-opacity:0.188235}
   ]]>
  </style>
 </defs>
    <g id="Layer_x0020_1">
  <metadata id="CorelCorpID_0Corel-Layer"/>
        <rect class="fil0" width="60" height="60"/>
        <rect class="fil1" x="5.74" y="13.11" width="48.53" height="33.79" rx="4.6" ry="4.6"/>
        <path class="fil2"
              d="M24.72 31.16l1.31 0c0.93,0 1.45,-0.56 1.45,-1.58l0 -0.01c0,-0.97 -0.53,-1.52 -1.45,-1.52l-1.31 0 0 3.11zm0.79 -0.63l0 -1.85 0.37 0c0.5,0 0.8,0.33 0.8,0.91l0 0c0,0.62 -0.28,0.94 -0.8,0.94l-0.37 0z"/>
        <path id="_1" class="fil2"
              d="M28 31.16l0.77 0 0 -1.27c0,-0.33 0.21,-0.52 0.57,-0.52 0.1,0 0.21,0.01 0.32,0.04l0 -0.65c-0.08,-0.03 -0.17,-0.04 -0.26,-0.04 -0.31,0 -0.52,0.15 -0.59,0.42l-0.04 0 0 -0.38 -0.77 0 0 2.4z"/>
        <path id="_2" class="fil2"
              d="M31.11 31.22c0.78,0 1.23,-0.47 1.23,-1.26l0 0c0,-0.78 -0.46,-1.26 -1.23,-1.26 -0.75,0 -1.22,0.48 -1.22,1.26l0 0c0,0.79 0.45,1.26 1.22,1.26zm0 -0.58c-0.28,0 -0.44,-0.25 -0.44,-0.68l0 0c0,-0.42 0.17,-0.68 0.44,-0.68 0.28,0 0.45,0.26 0.45,0.68l0 0c0,0.43 -0.16,0.68 -0.45,0.68z"/>
        <path id="_3" class="fil2"
              d="M32.82 31.96l0.76 0 0 -1.18 0.04 0c0.12,0.26 0.38,0.42 0.71,0.42 0.61,0 0.96,-0.45 0.96,-1.24l0 0c0,-0.78 -0.37,-1.24 -0.96,-1.24 -0.34,0 -0.59,0.15 -0.71,0.41l-0.04 0 0 -0.37 -0.76 0 0 3.2zm1.22 -1.38c-0.28,0 -0.46,-0.24 -0.46,-0.62l0 0c0,-0.39 0.18,-0.61 0.46,-0.61 0.29,0 0.47,0.23 0.47,0.61l0 0c0,0.38 -0.18,0.62 -0.47,0.62z"/>
        <g id="_2462591877040">
   <path class="fil3"
         d="M45.18 22.17l0 9.6c0,0.52 -0.42,0.94 -0.94,0.94l-8.64 0c-0.52,0 -0.93,-0.42 -0.93,-0.94l0 -12.64c0,-0.52 0.41,-0.94 0.93,-0.94l5.6 0 3.98 3.98z"/>
            <path class="fil4"
                  d="M42.22 25.42l-4.6 0c-0.16,0 -0.29,0.13 -0.29,0.3l0 4c0,0.17 0.13,0.3 0.29,0.3l4.6 0c0.17,0 0.3,-0.13 0.3,-0.3l0 -4c0,-0.16 -0.13,-0.3 -0.3,-0.3zm-4.3 1.92l1.7 0 0 0.76 -1.7 0 0 -0.76zm2.3 0l1.7 0 0 0.76 -1.7 0 0 -0.76zm1.7 -0.6l-1.7 0 0 -0.72 1.7 0 0 0.72zm-2.3 -0.72l0 0.72 -1.7 0 0 -0.72 1.7 0zm-1.7 2.68l1.7 0 0 0.72 -1.7 0 0 -0.72zm2.3 0.72l0 -0.72 1.7 0 0 0.72 -1.7 0z"/>
            <polygon class="fil5" points="41.74,22.02 45.18,24.81 45.18,22.19 43.23,21.06 "/>
            <path class="fil6" d="M45.18 22.17l-3.04 0c-0.52,0 -0.94,-0.42 -0.94,-0.94l0 -3.04 3.98 3.98z"/>
  </g>
        <g id="_2462591853952">
   <path class="fil7"
         d="M47.25 34.42l-1.22 -1.23 0.87 -0.51c0.07,-0.04 0.11,-0.11 0.1,-0.19 0,-0.08 -0.05,-0.15 -0.13,-0.18l-3.9 -1.55c-0.08,-0.03 -0.16,-0.02 -0.22,0.04 -0.06,0.06 -0.08,0.15 -0.05,0.22l1.56 3.91c0.03,0.07 0.1,0.12 0.18,0.13 0.07,0 0.15,-0.04 0.19,-0.1l0.5 -0.88 1.23 1.23c0.04,0.04 0.09,0.06 0.15,0.06 0.05,0 0.1,-0.02 0.14,-0.06l0.6 -0.6c0.08,-0.08 0.08,-0.21 0,-0.29z"/>
            <path class="fil7"
                  d="M42.05 29.82c-0.08,-0.09 -0.21,-0.09 -0.29,0 -0.08,0.08 -0.08,0.21 0,0.29l0.46 0.46c0.04,0.04 0.09,0.06 0.15,0.06 0.05,0 0.1,-0.02 0.14,-0.06 0.08,-0.09 0.08,-0.22 0,-0.3l-0.46 -0.45z"/>
            <path class="fil7"
                  d="M42.21 31.24c0,-0.11 -0.09,-0.21 -0.21,-0.21l-0.65 0c-0.11,0 -0.2,0.1 -0.2,0.21 0,0.11 0.09,0.21 0.2,0.21l0.65 0c0.12,0 0.21,-0.1 0.21,-0.21z"/>
            <path class="fil7"
                  d="M42.12 31.88l-0.45 0.46c-0.08,0.08 -0.08,0.21 0,0.29 0.04,0.04 0.09,0.06 0.14,0.06 0.05,0 0.11,-0.02 0.15,-0.06l0.46 -0.46c0.08,-0.08 0.08,-0.21 0,-0.29 -0.08,-0.08 -0.21,-0.08 -0.3,0z"/>
            <path class="fil7"
                  d="M43.19 30.26c0.11,0 0.2,-0.09 0.2,-0.2l0 -0.65c0,-0.12 -0.09,-0.21 -0.2,-0.21 -0.12,0 -0.21,0.09 -0.21,0.21l0 0.65c0,0.11 0.09,0.2 0.21,0.2z"/>
            <path class="fil7"
                  d="M43.97 30.53c0.05,0 0.1,-0.02 0.14,-0.06l0.46 -0.46c0.08,-0.08 0.08,-0.21 0,-0.29 -0.08,-0.08 -0.21,-0.08 -0.29,0l-0.46 0.46c-0.08,0.08 -0.08,0.21 0,0.29 0.04,0.04 0.1,0.06 0.15,0.06z"/>
  </g>
 </g>
</svg>
