<?xml version="1.0" encoding="UTF-8"?>


<!DOCTYPE svg PUBLIC "-//W3C//DTD SVG 1.1//EN" "http://www.w3.org/Graphics/SVG/1.1/DTD/svg11.dtd">

<svg xmlns="http://www.w3.org/2000/svg" xml:space="preserve" width="770px" height="770px" version="1.1"
     style="shape-rendering:geometricPrecision; text-rendering:geometricPrecision; image-rendering:optimizeQuality; fill-rule:evenodd; clip-rule:evenodd"
     viewBox="0 0 48.06 48.06"
>
 <defs>
  <style type="text/css">
   <![CDATA[
    .fil0 {fill:none}
    .fil9 {fill:#323648;fill-rule:nonzero}
    .fil5 {fill:#40A6C2;fill-rule:nonzero}
    .fil10 {fill:#585F76;fill-rule:nonzero}
    .fil8 {fill:#EB7729;fill-rule:nonzero}
    .fil7 {fill:#F99E4D;fill-rule:nonzero}
    .fil4 {fill:#FCAC44;fill-rule:nonzero}
    .fil2 {fill:#FCBD55;fill-rule:nonzero}
    .fil3 {fill:#FCCA6E;fill-rule:nonzero}
    .fil1 {fill:#FED9B9;fill-rule:nonzero}
    .fil6 {fill:#FF953F;fill-rule:nonzero}
   ]]>
  </style>
 </defs>
    <g id="Layer_x0020_1">
  <metadata id="CorelCorpID_0Corel-Layer"/>
        <rect class="fil0" width="48.06" height="48.06"/>
        <g id="_2461777789696">
   <path class="fil1"
         d="M26.06 12.34l0 0.91c-0.16,2.73 -2.38,2.75 -2.38,2.75 -1.24,-0.07 -2.26,-1.03 -2.39,-2.27l-0.04 -0.29 -0.07 -0.6 -0.11 -0.85c0,-0.06 0,-0.11 0,-0.16 0,-0.76 0.56,-1.39 1.31,-1.47l1.95 -0.22c0.06,-0.01 0.11,-0.01 0.17,-0.01 0.75,0 1.38,0.57 1.46,1.31l0.07 0.61 0.03 0.29z"/>
            <polygon class="fil2" points="28.15,15.79 36.34,15.79 36.34,23.95 28.15,23.95 "/>
            <path class="fil3"
                  d="M32.51 23.23l3.82 0 0 -7.44 -7.08 0 0 4.19c0,0 0,0 0,0 0,1.8 1.46,3.25 3.26,3.25l0 0z"/>
            <path class="fil4"
                  d="M28.5 22.38l-0.01 0c0,0 0,0 0,0 -0.12,0 -0.24,-0.04 -0.34,-0.11l0 0.52c0.11,0.04 0.22,0.06 0.34,0.06l0.03 0 2.28 -0.11c-0.21,-0.12 -0.4,-0.27 -0.57,-0.44l-1.73 0.08z"/>
            <path class="fil2"
                  d="M33.72 22.15l-0.03 0c-0.17,0 -2.02,0.08 -3.46,0.15 0.17,0.17 0.36,0.32 0.57,0.44 1.35,-0.06 2.66,-0.12 2.88,-0.12l0.75 0.13 1.91 -0.01 0 -0.47 -1.87 0.01 -0.75 -0.13z"/>
            <path class="fil5"
                  d="M25.64 28.07l-0.38 0.94c-0.27,-0.11 -0.53,-0.24 -0.78,-0.4 -0.73,-0.49 -1.38,-1.12 -1.89,-1.84l0.36 -1.66c0.09,0.65 0.72,1.7 2.09,2.65 0.19,0.12 0.39,0.23 0.6,0.31l0 0z"/>
            <polygon class="fil6" points="31.18,15.79 33.28,15.79 33.28,17.89 31.18,17.89 "/>
            <path class="fil7"
                  d="M32.41 17.57l0.87 0 0 -1.78 -1.6 0 0 1.05c0,0 0,0 0,0 0,0.4 0.33,0.73 0.73,0.73 0,0 0,0 0,0l0 0z"/>
            <path class="fil7"
                  d="M34.41 36.02c-0.06,-0.32 -0.34,-0.55 -0.66,-0.55 -0.05,0 -0.09,0.01 -0.14,0.02l-0.33 0.06 -1.28 -7.41c-0.06,-0.33 -0.27,-0.62 -0.57,-0.78l-4.18 -2.25 -0.23 -3.53 -0.81 -0.71 1.52 -1.64c-0.85,-1.01 -2.12,-2.25 -2.33,-2.45 -0.43,-0.41 -0.99,-0.68 -1.58,-0.77 -0.91,-0.06 -1.94,0.5 -1.94,1.5 0,0.5 0.26,2.32 0.52,4.05 0,0 0.52,3.3 0.55,3.55l-1.17 5.3c-0.02,0.14 -0.1,0.26 -0.21,0.34l-4.35 3.44 -0.01 0 -1 0.68c-0.07,0.06 -0.11,0.15 -0.11,0.24 0,0.07 0.02,0.14 0.06,0.19l1.87 2.62 0.71 -0.47c0.18,-0.13 0.28,-0.33 0.28,-0.54 0,-0.15 -0.05,-0.29 -0.14,-0.41l-0.17 -0.23 5.19 -4.16c0.09,-0.07 0.16,-0.16 0.2,-0.27l1.54 -3.77c1.18,0.43 2.4,0.77 3.63,1.01 0.13,0.02 0.24,0.13 0.26,0.27l1.25 6.74 0.21 1.12c0.05,0.13 0.17,0.23 0.32,0.23 0.02,0 0.04,0 0.05,-0.01l3.17 -0.57 -0.12 -0.84z"/>
            <path class="fil8"
                  d="M24.33 10.14l-1.95 0.22c-0.75,0.08 -1.31,0.71 -1.31,1.47 0,0.05 0,0.1 0,0.16l0.14 1.15 4.85 -0.8 -0.1 -0.89c-0.08,-0.75 -0.71,-1.32 -1.46,-1.32 -0.06,0 -0.11,0 -0.17,0.01l0 0z"/>
            <path class="fil9"
                  d="M17.21 34.2l-1 0.67c-0.07,0.06 -0.11,0.15 -0.11,0.25 0,0.06 0.02,0.13 0.06,0.19l1.87 2.61 0.71 -0.47c0.18,-0.12 0.28,-0.33 0.28,-0.54 0,-0.15 -0.05,-0.29 -0.14,-0.41l-0.17 -0.23 -1.49 -2.08 -0.01 0.01z"/>
            <path class="fil8"
                  d="M22.95 25.11l-1.17 5.3c-0.02,0.14 -0.1,0.26 -0.21,0.34l-4.35 3.44 1.49 2.08 5.19 -4.16c0.09,-0.07 0.16,-0.16 0.2,-0.27l1.54 -3.77c-0.21,-0.08 -0.41,-0.19 -0.6,-0.31 -1.37,-0.95 -2,-2 -2.09,-2.65l0 0z"/>
            <path class="fil6"
                  d="M23.66 27.33c-0.04,-0.04 -0.09,-0.06 -0.15,-0.06 -0.09,0 -0.18,0.07 -0.2,0.16l-0.7 3.17c-0.02,0.14 -0.1,0.26 -0.21,0.34l-3.43 2.71c-0.3,0.23 -0.47,0.59 -0.47,0.97 0,0.26 0.08,0.51 0.23,0.72l0.42 0.58 4.76 -3.8c0.08,-0.07 0.15,-0.17 0.19,-0.27l1.3 -3.19c-0.16,-0.07 -0.32,-0.16 -0.47,-0.26 -0.45,-0.31 -0.88,-0.67 -1.27,-1.07l0 0z"/>
            <path class="fil4"
                  d="M33.21 35.1l-1.21 -6.96c-0.06,-0.33 -0.27,-0.62 -0.57,-0.78l-4.18 -2.25 -0.23 -3.57 -0.77 -0.66 1.43 -1.55 -0.02 -0.02 0.07 -0.08c-0.85,-1.01 -2.12,-2.25 -2.32,-2.45 -0.44,-0.42 -0.99,-0.68 -1.59,-0.78 -0.04,0 -0.09,0 -0.13,0 -0.31,0 -0.63,0.07 -0.91,0.2 -0.12,0.21 -0.19,0.44 -0.19,0.68 0,0.01 0,0.01 0,0.01 0,0.51 0.26,2.32 0.52,4.05 0,0 0.52,3.3 0.55,3.55 0.09,0.65 0.72,1.7 2.09,2.66 0.19,0.12 0.39,0.22 0.6,0.31 1.18,0.42 2.39,0.77 3.62,1 0.14,0.03 0.24,0.13 0.27,0.27l0.99 5.36c0.12,0.65 0.69,1.11 1.35,1.11 0.1,0 0.19,-0.01 0.29,-0.03l0.34 -0.07z"/>
            <path class="fil7" d="M27.02 21.58l-2.12 -1.86 0 0.06c0,0.19 0.08,0.36 0.21,0.48l1.93 1.67 -0.02 -0.35z"/>
            <path class="fil9"
                  d="M34.41 36.02c-0.06,-0.32 -0.34,-0.55 -0.66,-0.55 -0.05,0 -0.09,0.01 -0.14,0.02l-0.33 0.06 -2.49 0.54 0.2 1.12c0.05,0.14 0.18,0.23 0.32,0.23 0.02,0 0.04,0 0.05,-0.01l3.17 -0.57 -0.12 -0.84z"/>
            <path class="fil8"
                  d="M28.2 12.29l-2.14 0.36 -4.81 0.79 -0.07 -0.6 4.85 -0.79 2.07 -0.35c0.02,0 0.03,0 0.05,0 0.16,0 0.3,0.13 0.3,0.3 0,0.15 -0.11,0.27 -0.25,0.29l0 0z"/>
            <path class="fil10"
                  d="M19.15 26.79l-2.5 0c-0.24,0 -0.45,-0.21 -0.45,-0.45 0,-0.25 0.21,-0.45 0.45,-0.45l2.5 0c0.24,0 0.44,0.2 0.44,0.45 0,0.24 -0.2,0.45 -0.44,0.45l0 0z"/>
            <path class="fil10"
                  d="M18.09 24.4l-5.93 0c-0.24,0 -0.44,-0.2 -0.44,-0.45 0,-0.25 0.2,-0.45 0.44,-0.45l5.93 0c0.25,0 0.45,0.2 0.45,0.45 0,0.25 -0.2,0.45 -0.45,0.45l0 0z"/>
            <path class="fil10"
                  d="M23.53 22.01l-3.45 0c-0.24,0 -0.45,-0.2 -0.45,-0.45 0,-0.25 0.21,-0.45 0.45,-0.45l3.45 0c0.24,0 0.45,0.2 0.45,0.45 0,0.25 -0.21,0.45 -0.45,0.45l0 0z"/>
            <path class="fil10"
                  d="M20.08 19.62l-4.92 0c-0.25,0 -0.45,-0.2 -0.45,-0.45 0,-0.24 0.2,-0.44 0.45,-0.44l4.92 0c0.25,0 0.45,0.2 0.45,0.44 0,0.25 -0.2,0.45 -0.45,0.45l0 0z"/>
            <path class="fil1"
                  d="M34.72 20.31l-0.68 0.39 -4.91 -0.17c-0.16,-0.01 -0.32,-0.08 -0.44,-0.2l-1.03 -1.02 -1.45 1.55 1.72 1.54c0.16,0.13 0.36,0.21 0.56,0.21 0.01,0 0.01,0 0.02,0 0,0 4.94,-0.23 5.19,-0.23l0.75 0.13 1.89 -0.01 0 -2.25 -1.62 0.06z"/>
  </g>
 </g>
</svg>
