<svg xmlns:xlink="http://www.w3.org/1999/xlink" height="512" viewBox="0 0 48 48" width="512"
     xmlns="http://www.w3.org/2000/svg">
    <linearGradient id="linear-gradient" gradientUnits="userSpaceOnUse" x1="11.5" x2="11.5" y1="47" y2="3">
        <stop offset="0" stop-color="#54a5ff"/>
        <stop offset="1" stop-color="#8ad3fe"/>
    </linearGradient>
    <linearGradient id="linear-gradient-2" x1="35" x2="35" xlink:href="#linear-gradient" y1="23" y2="3"/>
    <linearGradient id="linear-gradient-3" gradientUnits="userSpaceOnUse" x1="23" x2="27" y1="3" y2="3">
        <stop offset="0" stop-color="#fe9661"/>
        <stop offset="1" stop-color="#ffb369"/>
    </linearGradient>
    <linearGradient id="linear-gradient-4" x1="43" x2="47" xlink:href="#linear-gradient-3" y1="3" y2="3"/>
    <linearGradient id="linear-gradient-5" xlink:href="#linear-gradient-3" y1="23" y2="23"/>
    <linearGradient id="linear-gradient-6" gradientUnits="userSpaceOnUse" x1="24" x2="47" y1="37" y2="37">
        <stop offset="0" stop-color="#d3e6f5"/>
        <stop offset="1" stop-color="#f0f7fc"/>
    </linearGradient>
    <linearGradient id="linear-gradient-7" x1="41" x2="47" xlink:href="#linear-gradient-3" y1="23" y2="23"/>
    <linearGradient id="linear-gradient-8" x1="32" x2="38" xlink:href="#linear-gradient-6" y1="8" y2="8"/>
    <linearGradient id="linear-gradient-9" x1="26" x2="34" xlink:href="#linear-gradient-3" y1="35" y2="35"/>
    <g id="layout">
        <rect fill="url(#linear-gradient)" height="44" rx="2" width="21" x="1" y="3"/>
        <path d="m25 3h20v20h-20z" fill="url(#linear-gradient-2)"/>
        <path d="m25 18 4.59-4.59a2 2 0 0 1 2.82 0l2.59 2.59 4.59-4.59a2 2 0 0 1 2.82 0l2.59 2.59v9h-20z"
              fill="#4795ea"/>
        <circle cx="25" cy="3" fill="url(#linear-gradient-3)" r="2"/>
        <circle cx="45" cy="3" fill="url(#linear-gradient-4)" r="2"/>
        <circle cx="25" cy="23" fill="url(#linear-gradient-5)" r="2"/>
        <rect fill="url(#linear-gradient-6)" height="20" rx="2" width="23" x="24" y="27"/>
        <path d="m42 25.24-1-4a1 1 0 0 1 1.24-1.24l4 1a1 1 0 0 1 .21 1.86l-1.7.86-.86 1.7a1 1 0 0 1 -1.89-.18z"
              fill="url(#linear-gradient-7)"/>
        <circle cx="35" cy="8" fill="url(#linear-gradient-8)" r="3"/>
        <path d="m33.94 38.65-3-8a1 1 0 0 0 -1.88 0l-3 8a1 1 0 0 0 1.88.7l.5-1.35h3.12l.5 1.35a1 1 0 0 0 1.88-.7zm-4.75-2.65.81-2.15.81 2.15z"
              fill="url(#linear-gradient-9)"/>
        <path d="m44 32h-7a1 1 0 0 1 0-2h7a1 1 0 0 1 0 2z" fill="#b4cde1"/>
        <path d="m44 36h-7a1 1 0 0 1 0-2h7a1 1 0 0 1 0 2z" fill="#b4cde1"/>
        <path d="m44 40h-7a1 1 0 0 1 0-2h7a1 1 0 0 1 0 2z" fill="#b4cde1"/>
        <path d="m44 44h-17a1 1 0 0 1 0-2h17a1 1 0 0 1 0 2z" fill="#b4cde1"/>
        <g fill="#f0f7fc">
            <path d="m5 10a1 1 0 0 0 1-1v-1h2v6h-1a1 1 0 0 0 0 2h4a1 1 0 0 0 0-2h-1v-6h2v1a1 1 0 0 0 2 0v-2a1 1 0 0 0 -1-1h-8a1 1 0 0 0 -1 1v2a1 1 0 0 0 1 1z"/>
            <path d="m17 8h1a1 1 0 0 0 0-2h-1a1 1 0 0 0 0 2z"/>
            <path d="m18 10h-1a1 1 0 0 0 0 2h1a1 1 0 0 0 0-2z"/>
            <path d="m18 14h-1a1 1 0 0 0 0 2h1a1 1 0 0 0 0-2z"/>
            <path d="m18 18h-13a1 1 0 0 0 0 2h13a1 1 0 0 0 0-2z"/>
            <path d="m18 22h-13a1 1 0 0 0 0 2h13a1 1 0 0 0 0-2z"/>
            <path d="m18 26h-13a1 1 0 0 0 0 2h13a1 1 0 0 0 0-2z"/>
            <path d="m18 30h-13a1 1 0 0 0 0 2h13a1 1 0 0 0 0-2z"/>
            <path d="m18 34h-13a1 1 0 0 0 0 2h13a1 1 0 0 0 0-2z"/>
            <path d="m18 38h-13a1 1 0 0 0 0 2h13a1 1 0 0 0 0-2z"/>
            <path d="m18 42h-13a1 1 0 0 0 0 2h13a1 1 0 0 0 0-2z"/>
        </g>
    </g>
</svg>