<?xml version="1.0" encoding="iso-8859-1"?>


<svg xmlns:xlink="http://www.w3.org/1999/xlink" version="1.1" id="Layer_1" xmlns="http://www.w3.org/2000/svg" x="0px"
     y="0px"
     viewBox="0 0 482.567 482.567" style="enable-background:new 0 0 482.567 482.567;" xml:space="preserve">
<path style="fill:#D5D6DB;" d="M482.29,390.218l-24.094-133.722c-1.807-10.24-11.445-16.866-21.685-15.059L49.198,310.105
	c-10.24,1.807-16.866,11.445-15.059,21.685l23.492,133.722c1.807,10.24,11.445,16.866,21.685,15.059l387.313-68.668
	C476.869,410.095,484.097,400.458,482.29,390.218z"/>
    <path style="fill:#44C4A1;" d="M383.504,274.566l45.779-7.831c3.614-0.602,7.831,1.807,8.433,6.024l19.275,110.231
	c0.602,3.614-1.807,7.831-6.024,8.433l-45.779,7.831c-3.614,0.602-7.831-1.807-8.433-6.024L377.48,282.999
	C376.878,279.385,379.288,275.168,383.504,274.566z"/>
    <path style="fill:#3EA69B;" d="M296.163,290.227l45.779-7.831c3.614-0.602,7.831,1.807,8.433,6.024l19.275,110.231
	c0.602,3.614-1.807,7.831-6.024,8.433l-45.779,7.831c-3.614,0.602-7.831-1.807-8.433-6.024L290.139,298.66
	C289.537,294.444,291.946,290.829,296.163,290.227z"/>
    <g>
	<path style="fill:#31978C;" d="M208.219,305.888l45.779-7.831c3.614-0.602,7.831,1.807,8.433,6.024l19.275,110.231
		c0.602,3.614-1.807,7.831-6.024,8.433l-45.779,7.831c-3.614,0.602-7.831-1.807-8.433-6.024l-19.275-110.231
		C202.196,310.105,204.605,306.491,208.219,305.888z"/>
        <path style="fill:#31978C;" d="M120.878,321.549l45.779-7.831c3.614-0.602,7.831,1.807,8.433,6.024l19.275,110.231
		c0.602,3.614-1.807,7.831-6.024,8.433l-45.779,7.831c-3.614,0.602-7.831-1.807-8.433-6.024l-19.275-110.231
		C114.855,325.766,117.264,322.152,120.878,321.549z"/>
</g>
    <path style="fill:#64798A;" d="M113.048,386.604c-2.409-14.456-16.264-23.492-30.118-21.082
	c-14.456,2.409-23.492,16.263-21.082,30.118c2.409,14.456,16.264,23.492,30.118,21.082
	C106.422,414.312,116.059,401.06,113.048,386.604z M70.883,394.434c-1.807-9.638,4.819-18.071,13.854-19.878
	c9.638-1.807,18.071,4.819,19.878,13.854c1.807,9.638-4.819,18.071-13.854,19.878C81.725,410.095,72.088,403.469,70.883,394.434z"/>
    <path style="fill:#E1E6E9;" d="M377.48,122.773l-107.821-81.92c-8.433-6.626-19.878-4.819-26.504,3.614L4.022,357.088
	c-6.626,8.433-4.819,19.878,3.614,26.504l107.821,81.92c8.433,6.626,19.878,4.819,26.504-3.614l238.532-312.621
	C387.118,141.446,385.311,129.399,377.48,122.773z"/>
    <path style="fill:#FCD462;" d="M226.29,104.702L254.6,67.959c2.409-3.012,6.626-3.614,10.24-1.205l89.148,68.066
	c3.012,2.409,3.614,6.626,1.205,10.24l-28.311,36.744c-2.409,3.012-6.626,3.614-10.24,1.205l-88.546-68.066
	C224.483,112.533,223.88,107.714,226.29,104.702z"/>
    <path style="fill:#F6C358;" d="M172.68,175.178l28.311-36.744c2.409-3.012,6.626-3.614,10.24-1.205l89.148,68.066
	c3.012,2.409,3.614,6.626,1.205,10.24l-28.311,36.744c-2.409,3.012-6.626,3.614-10.24,1.205l-89.148-68.066
	C170.873,183.008,170.271,178.189,172.68,175.178z"/>
    <path style="fill:#DC8744;" d="M118.469,245.653l28.311-36.744c2.409-3.012,6.626-3.614,10.24-1.205l89.148,68.066
	c3.012,2.409,3.614,6.626,1.205,10.24l-28.311,36.744c-2.409,3.012-6.626,3.614-10.24,1.205l-88.546-68.066
	C116.662,253.484,116.059,249.267,118.469,245.653z"/>
    <g>
	<path style="fill:#64798A;" d="M64.859,316.731l28.311-36.744c2.409-3.012,6.626-3.614,10.24-1.205l89.148,68.066
		c3.012,2.409,3.614,6.626,1.205,10.24l-28.311,36.744c-2.409,3.012-6.626,3.614-10.24,1.205l-89.148-68.668
		C63.052,323.959,62.45,319.742,64.859,316.731z"/>
        <path style="fill:#64798A;" d="M103.41,369.738c-11.445-9.035-27.708-6.626-36.744,4.819s-6.626,27.708,4.819,36.744
		c11.445,9.035,27.708,6.626,36.744-4.819C117.264,395.037,114.855,378.773,103.41,369.738z M76.906,404.674
		c-7.831-6.024-9.035-16.264-3.012-24.094s16.264-9.035,24.094-3.012s9.035,16.263,3.012,24.094
		C95.579,408.891,84.737,410.095,76.906,404.674z"/>
</g>
    <path style="fill:#EBF0F3;" d="M154.61,1.7H19.683C9.443,1.7,1.01,10.133,1.01,20.373V413.71c0,10.24,8.433,18.673,18.673,18.673
	h135.529c10.24,0,18.673-8.433,18.673-18.673V20.975C173.885,10.133,165.452,1.7,154.61,1.7z"/>
    <path style="fill:#E56353;" d="M23.899,78.801V32.42c0-4.216,3.012-7.228,7.228-7.228h112.038c4.216,0,7.228,3.012,7.228,7.228
	v46.381c0,4.216-3.012,7.228-7.228,7.228H31.128C27.513,86.029,23.899,82.415,23.899,78.801z"/>
    <path style="fill:#D15241;" d="M23.899,167.347v-46.381c0-4.216,3.012-7.228,7.228-7.228h112.038c4.216,0,7.228,3.012,7.228,7.228
	v46.381c0,4.216-3.012,7.228-7.228,7.228H31.128C27.513,174.575,23.899,171.564,23.899,167.347z"/>
    <path style="fill:#CE412D;" d="M23.899,256.495v-46.381c0-4.216,3.012-7.228,7.228-7.228h112.038c4.216,0,7.228,3.012,7.228,7.228
	v46.381c0,4.216-3.012,7.228-7.228,7.228H31.128C27.513,263.724,23.899,260.109,23.899,256.495z"/>
    <path style="fill:#DC8744;" d="M23.899,345.041V298.66c0-4.216,3.012-7.228,7.228-7.228h112.038c4.216,0,7.228,3.012,7.228,7.228
	v46.381c0,4.216-3.012,7.228-7.228,7.228H31.128C27.513,352.269,23.899,349.258,23.899,345.041z"/>
    <path style="fill:#64798A;" d="M87.146,364.317c-14.456,0-25.901,11.445-25.901,25.901s11.445,25.901,25.901,25.901
	s25.901-11.445,25.901-25.901S101.603,364.317,87.146,364.317z M87.146,407.686c-9.638,0-17.468-7.831-17.468-17.468
	s7.831-17.468,17.468-17.468s17.468,7.831,17.468,17.468C104.615,399.855,96.784,407.686,87.146,407.686z"/>
    <g>
</g>
    <g>
</g>
    <g>
</g>
    <g>
</g>
    <g>
</g>
    <g>
</g>
    <g>
</g>
    <g>
</g>
    <g>
</g>
    <g>
</g>
    <g>
</g>
    <g>
</g>
    <g>
</g>
    <g>
</g>
    <g>
</g>
</svg>
