<?xml version="1.0" encoding="UTF-8"?>


<!DOCTYPE svg PUBLIC "-//W3C//DTD SVG 1.1//EN" "http://www.w3.org/Graphics/SVG/1.1/DTD/svg11.dtd">

<svg xmlns="http://www.w3.org/2000/svg" xml:space="preserve" width="770px" height="770px" version="1.1"
     style="shape-rendering:geometricPrecision; text-rendering:geometricPrecision; image-rendering:optimizeQuality; fill-rule:evenodd; clip-rule:evenodd"
     viewBox="0 0 162.22 162.22"
>
 <defs>
  <style type="text/css">
   <![CDATA[
    .fil0 {fill:none}
    .fil2 {fill:#29376D;fill-rule:nonzero}
    .fil1 {fill:#47568C;fill-rule:nonzero}
    .fil4 {fill:#4895FF;fill-rule:nonzero}
    .fil7 {fill:#5D647F;fill-rule:nonzero}
    .fil3 {fill:#6AA9FF;fill-rule:nonzero}
    .fil10 {fill:#8A8895;fill-rule:nonzero}
    .fil9 {fill:#B8BAC0;fill-rule:nonzero}
    .fil6 {fill:#D5E8FE;fill-rule:nonzero}
    .fil5 {fill:#EDF5FF;fill-rule:nonzero}
    .fil11 {fill:#FF4F19;fill-rule:nonzero}
    .fil12 {fill:#FF9500;fill-rule:nonzero}
    .fil8 {fill:#FFD100;fill-rule:nonzero}
   ]]>
  </style>
 </defs>
    <g id="Layer_x0020_1">
  <metadata id="CorelCorpID_0Corel-Layer"/>
        <rect class="fil0" width="162.22" height="162.22"/>
        <g id="_2461999345200">
   <path class="fil1"
         d="M79.39 49.86l0 62.49c0,3.69 -2.98,6.66 -6.67,6.66l-31.24 0c-3.69,0 -6.66,-2.97 -6.66,-6.66l0 -62.49c0,-3.68 2.97,-6.66 6.66,-6.66l31.24 0c3.69,0 6.67,2.98 6.67,6.67l0 -0.01z"/>
            <path class="fil2"
                  d="M79.39 49.86l0 62.49c0,3.69 -2.98,6.66 -6.67,6.66l-15.54 0 0 -75.81 15.54 0c3.69,0 6.67,2.98 6.67,6.67l0 -0.01z"/>
            <path class="fil3"
                  d="M74.94 49.86l0 62.49c0,1.25 -0.97,2.22 -2.22,2.22l-31.24 0c-1.24,0 -2.22,-0.97 -2.22,-2.22l0 -62.49c0,-1.24 0.98,-2.22 2.22,-2.22l31.24 0c1.25,0 2.22,0.98 2.22,2.23l0 -0.01z"/>
            <path class="fil4"
                  d="M74.94 49.86l0 62.49c0,1.25 -0.97,2.22 -2.22,2.22l-15.54 0 0 -66.93 15.54 0c1.25,0 2.22,0.98 2.22,2.23l0 -0.01z"/>
            <circle class="fil5" cx="57.18" cy="54.31" r="2.22"/>
            <path class="fil5"
                  d="M61.62 107.91c0,1.24 -0.98,2.22 -2.22,2.22l-4.45 0c-1.24,0 -2.22,-0.98 -2.22,-2.22 0,-1.24 0.98,-2.22 2.22,-2.22l4.45 0c1.24,0 2.22,0.98 2.22,2.22l0 0z"/>
            <path class="fil6" d="M57.18 56.53l0 -4.44c1.24,0 2.22,0.97 2.22,2.22 0,1.24 -0.98,2.22 -2.22,2.22l0 0z"/>
            <path class="fil6"
                  d="M61.62 107.91c0,1.24 -0.98,2.22 -2.22,2.22l-2.22 0 0 -4.44 2.22 0c1.24,0 2.22,0.98 2.22,2.22l0 0z"/>
            <g>
    <path class="fil7"
          d="M124.18 64.59l-34.76 0c-1.77,0 -3.21,1.44 -3.21,3.22l0 23.17c0,1.77 1.44,3.22 3.21,3.22l34.76 0c1.78,0 3.22,-1.45 3.22,-3.22l0 -23.17c0,-1.78 -1.44,-3.22 -3.22,-3.22z"/>
                <path class="fil8"
                      d="M100.37 77.46l-7.73 0c-0.71,0 -1.28,-0.57 -1.28,-1.28l0 -5.15c0,-0.71 0.57,-1.29 1.28,-1.29l7.73 0c0.71,0 1.28,0.58 1.28,1.29l0 5.15c0,0.71 -0.57,1.28 -1.28,1.28z"/>
                <path class="fil9"
                      d="M95.86 85.83l-3.22 0c-0.71,0 -1.28,-0.58 -1.28,-1.29l0 -0.64c0,-0.71 0.57,-1.29 1.28,-1.29l3.22 0c0.71,0 1.29,0.58 1.29,1.29l0 0.64c0,0.71 -0.58,1.29 -1.29,1.29z"/>
                <path class="fil9"
                      d="M104.23 85.83l-3.22 0c-0.71,0 -1.29,-0.58 -1.29,-1.29l0 -0.64c0,-0.71 0.58,-1.29 1.29,-1.29l3.22 0c0.71,0 1.29,0.58 1.29,1.29l0 0.64c0,0.71 -0.58,1.29 -1.29,1.29z"/>
                <path class="fil9"
                      d="M112.6 85.83l-3.22 0c-0.71,0 -1.29,-0.58 -1.29,-1.29l0 -0.64c0,-0.71 0.58,-1.29 1.29,-1.29l3.22 0c0.71,0 1.28,0.58 1.28,1.29l0 0.64c0,0.71 -0.57,1.29 -1.28,1.29z"/>
                <path class="fil9"
                      d="M120.96 85.83l-3.21 0c-0.72,0 -1.29,-0.58 -1.29,-1.29l0 -0.64c0,-0.71 0.57,-1.29 1.29,-1.29l3.21 0c0.71,0 1.29,0.58 1.29,1.29l0 0.64c0,0.71 -0.58,1.29 -1.29,1.29z"/>
                <path class="fil10"
                      d="M104.87 89.69l-12.87 0c-0.36,0 -0.64,-0.29 -0.64,-0.64 0,-0.36 0.28,-0.65 0.64,-0.65l12.87 0c0.36,0 0.65,0.29 0.65,0.65 0,0.35 -0.29,0.64 -0.65,0.64z"/>
                <path class="fil10"
                      d="M113.24 89.69l-5.79 0c-0.36,0 -0.65,-0.29 -0.65,-0.64 0,-0.36 0.29,-0.65 0.65,-0.65l5.79 0c0.36,0 0.64,0.29 0.64,0.65 0,0.35 -0.28,0.64 -0.64,0.64z"/>
                <g>
     <path class="fil11"
           d="M115.81 76.18c-0.7,0.79 -1.73,1.28 -2.87,1.28 -2.14,0 -3.87,-1.73 -3.87,-3.86 0,-2.13 1.73,-3.86 3.87,-3.86 1.14,0 2.17,0.5 2.87,1.29l0 5.15zm0 0l0 0 0 0z"/>
    </g>
                <polygon class="fil12"
                         points="101.65,74.24 95.22,74.24 95.22,72.96 101.65,72.96 101.65,71.67 95.22,71.67 95.22,69.74 93.93,69.74 93.93,77.46 95.22,77.46 95.22,75.53 101.65,75.53 "/>
                <circle class="fil8" cx="118.39" cy="73.6" r="3.86"/>
   </g>
  </g>
 </g>
</svg>
