<svg id="Layer_2" height="512" viewBox="0 0 32 32" width="512" xmlns="http://www.w3.org/2000/svg">
    <circle cx="16" cy="6" fill="#97d8e8" r="3"/>
    <circle cx="16" cy="26" fill="#97d8e8" r="3"/>
    <g fill="#1790a7">
        <path d="m2.293 9.707c.195.195.451.293.707.293s.512-.098.707-.293l2.293-2.293 2.293 2.293c.195.195.451.293.707.293s.512-.098.707-.293c.391-.391.391-1.023 0-1.414l-2.293-2.293 2.293-2.293c.391-.391.391-1.023 0-1.414s-1.023-.391-1.414 0l-2.293 2.293-2.293-2.293c-.391-.391-1.023-.391-1.414 0s-.391 1.023 0 1.414l2.293 2.293-2.293 2.293c-.391.391-.391 1.023 0 1.414z"/>
        <path d="m16 10c2.206 0 4-1.794 4-4s-1.794-4-4-4-4 1.794-4 4 1.794 4 4 4zm0-6c1.103 0 2 .897 2 2s-.897 2-2 2-2-.897-2-2 .897-2 2-2z"/>
        <path d="m29.707 22.293c-.391-.391-1.023-.391-1.414 0l-2.293 2.293-2.293-2.293c-.391-.391-1.023-.391-1.414 0s-.391 1.023 0 1.414l2.293 2.293-2.293 2.293c-.391.391-.391 1.023 0 1.414.195.195.451.293.707.293s.512-.098.707-.293l2.293-2.293 2.293 2.293c.195.195.451.293.707.293s.512-.098.707-.293c.391-.391.391-1.023 0-1.414l-2.293-2.293 2.293-2.293c.391-.391.391-1.023 0-1.414z"/>
        <path d="m16 22c-2.206 0-4 1.794-4 4s1.794 4 4 4 4-1.794 4-4-1.794-4-4-4zm0 6c-1.103 0-2-.897-2-2s.897-2 2-2 2 .897 2 2-.897 2-2 2z"/>
        <path d="m30.8 5.4-3-4c-.377-.504-1.223-.504-1.6 0l-3 4c-.332.442-.242 1.069.2 1.4.442.333 1.068.243 1.399-.2l1.2-1.6v5c0 2.757-2.243 5-5 5h-11.999c-3.859 0-7 3.14-7 7v8c0 .552.447 1 1 1s1-.448 1-1v-8c0-2.757 2.243-5 5-5h12c3.859 0 7-3.14 7-7v-5l1.2 1.6c.196.262.496.4.801.4.209 0 .419-.065.599-.2.442-.331.532-.958.2-1.4z"/>
    </g>
</svg>