<?xml version="1.0" encoding="UTF-8"?>


<!DOCTYPE svg PUBLIC "-//W3C//DTD SVG 1.1//EN" "http://www.w3.org/Graphics/SVG/1.1/DTD/svg11.dtd">

<svg xmlns="http://www.w3.org/2000/svg" xml:space="preserve" width="770px" height="770px" version="1.1"
     style="shape-rendering:geometricPrecision; text-rendering:geometricPrecision; image-rendering:optimizeQuality; fill-rule:evenodd; clip-rule:evenodd"
     viewBox="0 0 60.41 60.41"
>
 <defs>
  <style type="text/css">
   <![CDATA[
    .fil0 {fill:none}
    .fil3 {fill:#5FA8ED;fill-rule:nonzero}
    .fil7 {fill:#6994FE;fill-rule:nonzero}
    .fil6 {fill:#B7586C;fill-rule:nonzero}
    .fil4 {fill:#C4A462;fill-rule:nonzero}
    .fil1 {fill:#E2E4ED;fill-rule:nonzero}
    .fil5 {fill:#E87187;fill-rule:nonzero}
    .fil2 {fill:#F3CE7D;fill-rule:nonzero}
   ]]>
  </style>
 </defs>
    <g id="Layer_x0020_1">
  <metadata id="CorelCorpID_0Corel-Layer"/>
        <rect class="fil0" width="60.41" height="60.41"/>
        <g id="_2462537403216">
   <path class="fil1"
         d="M21.36 39.07c-0.74,0 -1.35,-0.6 -1.35,-1.34 0,-0.75 0.61,-1.35 1.35,-1.35l8.48 0c1.13,0 2.05,-0.92 2.05,-2.05 0,-1.14 -0.92,-2.06 -2.05,-2.06l-9.37 0 0 0.89 9.37 0c0.64,0 1.16,0.52 1.16,1.17 0,0.64 -0.52,1.16 -1.16,1.16l-8.48 0c-1.24,0 -2.23,1 -2.23,2.24 0,1.23 0.99,2.23 2.23,2.23l14.98 0 0 -0.89 -14.98 0z"/>
            <path class="fil2"
                  d="M41.84 38.65l-3.95 -0.02 -0.01 0c-3.21,0.23 -5.57,1.04 -5.57,2.01 0,1.14 3.37,2.06 7.5,2.06 4.14,0 7.51,-0.92 7.49,-2.06 0,-0.94 -2.3,-1.75 -5.46,-1.99l0 0z"/>
            <path class="fil2"
                  d="M19.44 30.92l-2.06 0c-2.56,0.12 -4.49,0.63 -4.49,1.24 0,0.7 2.49,1.26 5.56,1.26 2.19,0 4.08,-0.29 4.99,-0.7 0.37,-0.17 0.57,-0.36 0.57,-0.56 0,-0.62 -1.97,-1.14 -4.57,-1.24z"/>
            <path class="fil3"
                  d="M18.41 17.71c3.29,0 5.96,2.56 5.96,5.71 0,3.25 -3.22,6.18 -4.93,7.5 -0.61,0.47 -1.03,0.74 -1.03,0.74 0,0 -0.42,-0.27 -1.03,-0.74 -1.7,-1.32 -4.94,-4.24 -4.94,-7.5 0,-3.15 2.68,-5.71 5.97,-5.71l0 0zm4.28 5.81c0,-2.37 -1.92,-4.29 -4.28,-4.29 -2.37,0 -4.29,1.92 -4.29,4.29 0,2.36 1.92,4.28 4.29,4.28 0,0 0,0 0,0 2.36,0 4.28,-1.92 4.28,-4.28 0,0 0,0 0,0l0 0z"/>
            <path class="fil4"
                  d="M34.24 40.64c0,-0.96 2.3,-1.76 5.45,-2l-1.8 -0.01 -0.01 0c-3.21,0.23 -5.57,1.04 -5.57,2.01 0,1.14 3.37,2.06 7.5,2.06 0.33,0 0.65,0 0.97,-0.01 -3.69,-0.13 -6.54,-1 -6.54,-2.05l0 0z"/>
            <path class="fil5"
                  d="M47.95 27.19c-0.26,-4.12 -3.55,-7.78 -8.08,-7.78 -4.53,0 -7.81,3.66 -8.08,7.78 -0.14,2.01 0.53,3.96 1.71,5.57l6.37 8.52 6.37 -8.52c1.21,-1.61 1.85,-3.59 1.71,-5.57l0 0zm-8.16 6.37c-3.26,0 -5.9,-2.64 -5.9,-5.89 0,-3.25 2.64,-5.89 5.9,-5.89 3.25,0 5.89,2.64 5.89,5.89 0,0 0,0 0,0 0,3.25 -2.64,5.89 -5.89,5.89 0,0 0,0 0,0l0 0z"/>
            <path class="fil6"
                  d="M35.42 32.76c-1.17,-1.61 -1.84,-3.56 -1.71,-5.57 0.25,-3.83 3.1,-7.25 7.12,-7.72 -0.32,-0.04 -0.64,-0.06 -0.96,-0.06 -4.53,0 -7.81,3.66 -8.08,7.78 -0.14,2.01 0.53,3.96 1.71,5.57l6.37 8.52 0.96 -1.29 -5.41 -7.23z"/>
            <path class="fil7"
                  d="M18.36 21.95c0,0 0,0 0,0 -0.74,0 -1.34,0.6 -1.34,1.34 0,0.73 0.6,1.33 1.34,1.33 0.73,0 1.33,-0.6 1.33,-1.33 0,-0.74 -0.6,-1.34 -1.33,-1.34l0 0zm1.33 3.11c0,0 0,0 0,0 -0.25,0 -0.45,-0.2 -0.45,-0.44 0,-0.25 0.2,-0.45 0.45,-0.45 0.24,0 0.44,0.2 0.44,0.45 0,0 0,0 0,0 0,0.24 -0.2,0.44 -0.44,0.44l0 0z"/>
            <g>
    <polygon id="XMLID_185_" class="fil6" points="39.07,28.67 40.53,28.67 40.53,30.13 39.07,30.13 "/>
                <polygon id="XMLID_207_" class="fil6" points="37.45,27.04 38.91,27.04 38.91,28.5 37.45,28.5 "/>
                <polygon id="XMLID_208_" class="fil6" points="39.8,23.66 37.71,24.58 41.9,24.58 "/>
                <polygon id="XMLID_209_" class="fil6" points="39.07,27.04 40.53,27.04 40.53,28.5 39.07,28.5 "/>
                <polygon id="XMLID_241_" class="fil6" points="37.45,28.67 38.91,28.67 38.91,30.13 37.45,30.13 "/>
                <path id="XMLID_254_" class="fil6"
                      d="M42.26 24.74c-0.02,0.01 0.2,0.01 -4.92,0.01l-1.09 0.48 0 5.34 1.04 0c0,-0.67 0,-3.58 0,-4.55 0,-0.05 0.03,-0.09 0.08,-0.09l4.87 0c0.04,0 0.08,0.04 0.08,0.09l0 4.55 1.03 0 0 -5.34 -1.09 -0.49z"/>
                <polygon id="XMLID_255_" class="fil6" points="40.7,28.67 42.16,28.67 42.16,30.13 40.7,30.13 "/>
   </g>
  </g>
 </g>
</svg>
