<?xml version="1.0"?>


<svg xmlns="http://www.w3.org/2000/svg" id="Icons" viewBox="0 0 60 60" width="512" height="512">
    <path d="M6.391,41.774l0,0,0,0,3.6,3.6V55a5.006,5.006,0,0,0,5,5H55a5.006,5.006,0,0,0,5-5V30a4.992,4.992,0,0,0-4.65-4.965,5.01,5.01,0,0,0-.853-5.882L41.763,6.411,41.757,6.4l-.009,0L36.817,1.463a5,5,0,0,0-7.064,0L1.461,29.766a5.033,5.033,0,0,0,0,7.081ZM36.81,4.284l2.825,2.827L21.756,25H16.1ZM10,36.756l-2.9,2.9L4.274,36.83,10,31.1ZM8.514,41.07,10,39.584v2.972ZM58,30V55a3,3,0,0,1-3,3H15a3,3,0,0,1-3-3V30a3,3,0,0,1,3-3H55A3,3,0,0,1,58,30Zm-4.917-5.187L52.9,25H24.583L41.049,8.526,53.08,20.564A3.016,3.016,0,0,1,53.083,24.813ZM2.877,31.177l28.29-28.3A3.068,3.068,0,0,1,35.4,2.871L12.676,25.6A5,5,0,0,0,10.6,27.675L2.862,35.414A3.026,3.026,0,0,1,2.877,31.177Z"/>
    <path d="M16,38h6a2,2,0,0,0,2-2V32a2,2,0,0,0-2-2H16a2,2,0,0,0-2,2v4A2,2,0,0,0,16,38Zm0-6h6l0,4H16Z"/>
    <path d="M15,44a1,1,0,0,0,1-1V41a1,1,0,0,0-2,0v2A1,1,0,0,0,15,44Z"/>
    <path d="M19,40a1,1,0,0,0-1,1v2a1,1,0,0,0,2,0V41A1,1,0,0,0,19,40Z"/>
    <path d="M22,41v2a1,1,0,0,0,2,0V41a1,1,0,0,0-2,0Z"/>
    <path d="M27,40a1,1,0,0,0-1,1v2a1,1,0,0,0,2,0V41A1,1,0,0,0,27,40Z"/>
    <path d="M31,44a1,1,0,0,0,1-1V41a1,1,0,0,0-2,0v2A1,1,0,0,0,31,44Z"/>
    <path d="M39,40a1,1,0,0,0-1,1v2a1,1,0,0,0,2,0V41A1,1,0,0,0,39,40Z"/>
    <path d="M43,40a1,1,0,0,0-1,1v2a1,1,0,0,0,2,0V41A1,1,0,0,0,43,40Z"/>
    <path d="M47,40a1,1,0,0,0-1,1v2a1,1,0,0,0,2,0V41A1,1,0,0,0,47,40Z"/>
    <path d="M51,40a1,1,0,0,0-1,1v2a1,1,0,0,0,2,0V41A1,1,0,0,0,51,40Z"/>
    <path d="M19,46H15a1,1,0,0,0,0,2h4a1,1,0,0,0,0-2Z"/>
    <path d="M27,46H23a1,1,0,0,0,0,2h4a1,1,0,0,0,0-2Z"/>
    <path d="M19,50H15a1,1,0,0,0,0,2h4a1,1,0,0,0,0-2Z"/>
    <path d="M27,50H23a1,1,0,0,0,0,2h4a1,1,0,0,0,0-2Z"/>
    <path d="M35,46H31a1,1,0,0,0,0,2h4a1,1,0,0,0,0-2Z"/>
</svg>
