

<svg enable-background="new 0 0 512 512" height="512" viewBox="0 0 512 512" width="512" xmlns="http://www.w3.org/2000/svg"><g id="_x31_1_Credit_Cards"><g><path d="m472.005 197.52h-89.251c0-47.192 0-59.134 0-59.134v-46.406c0-18.856-15.294-34.15-34.098-34.15h-308.608c-18.856 0-34.15 15.294-34.15 34.15v188.402c0 18.855 15.294 34.15 34.15 34.15h89.199v105.54c0 18.804 15.346 34.098 34.15 34.098h308.608c18.804 0 34.098-15.294 34.098-34.098v-188.454c-.001-18.804-15.294-34.098-34.098-34.098zm-458.251-105.54c0-14.509 11.785-26.294 26.294-26.294h308.608c14.456 0 26.241 11.785 26.241 26.294v10.58h-361.143zm115.493 214.695h-89.199c-14.509 0-26.294-11.785-26.294-26.294v-108.945h361.143v26.084h-211.5c-18.804 0-34.15 15.294-34.15 34.098zm368.999 113.397c0 14.456-11.785 26.241-26.241 26.241h-308.608c-14.509 0-26.294-11.785-26.294-26.241v-188.454c0-14.456 11.785-26.241 26.294-26.241h308.608c14.456 0 26.241 11.785 26.241 26.241z"/><path d="m240.811 256.655v32.893c0 7.699-6.233 13.984-13.985 13.984h-45.044c-7.699 0-13.985-6.285-13.985-13.984v-32.893c0-7.752 6.286-13.984 13.985-13.984h45.044c7.752-.001 13.985 6.232 13.985 13.984z"/><path d="m179.058 336.897c-6.233 0-11.261 5.08-11.261 11.261 0 6.233 5.029 11.313 11.261 11.313 6.233 0 11.313-5.08 11.313-11.313 0-6.18-5.081-11.261-11.313-11.261zm0 14.717c-1.886 0-3.405-1.57-3.405-3.456s1.519-3.404 3.405-3.404 3.456 1.518 3.456 3.404-1.571 3.456-3.456 3.456z"/><path d="m202.785 336.897c-6.233 0-11.314 5.08-11.314 11.261 0 6.233 5.08 11.313 11.314 11.313 6.18 0 11.261-5.08 11.261-11.313 0-6.18-5.081-11.261-11.261-11.261zm0 14.717c-1.886 0-3.457-1.57-3.457-3.456s1.571-3.404 3.457-3.404 3.404 1.518 3.404 3.404-1.519 3.456-3.404 3.456z"/><path d="m226.46 336.897c-6.233 0-11.262 5.08-11.262 11.261 0 6.233 5.029 11.313 11.262 11.313s11.261-5.08 11.261-11.313c-.001-6.18-5.029-11.261-11.261-11.261zm0 14.717c-1.886 0-3.405-1.57-3.405-3.456s1.519-3.404 3.405-3.404c1.885 0 3.404 1.518 3.404 3.404s-1.519 3.456-3.404 3.456z"/><path d="m271.033 336.897c-6.233 0-11.314 5.08-11.314 11.261 0 6.233 5.081 11.313 11.314 11.313s11.261-5.08 11.261-11.313c0-6.18-5.028-11.261-11.261-11.261zm0 14.717c-1.886 0-3.458-1.57-3.458-3.456s1.572-3.404 3.458-3.404c1.885 0 3.404 1.518 3.404 3.404s-1.519 3.456-3.404 3.456z"/><path d="m294.708 336.897c-6.233 0-11.262 5.08-11.262 11.261 0 6.233 5.029 11.313 11.262 11.313s11.313-5.08 11.313-11.313c0-6.18-5.081-11.261-11.313-11.261zm0 14.717c-1.886 0-3.405-1.57-3.405-3.456s1.519-3.404 3.405-3.404c1.885 0 3.456 1.518 3.456 3.404s-1.571 3.456-3.456 3.456z"/><path d="m318.434 336.897c-6.233 0-11.314 5.08-11.314 11.261 0 6.233 5.08 11.313 11.314 11.313 6.181 0 11.261-5.08 11.261-11.313 0-6.18-5.08-11.261-11.261-11.261zm0 14.717c-1.938 0-3.457-1.57-3.457-3.456s1.519-3.404 3.457-3.404c1.885 0 3.405 1.518 3.405 3.404s-1.519 3.456-3.405 3.456z"/><path d="m362.955 336.897c-6.181 0-11.261 5.08-11.261 11.261 0 6.233 5.08 11.313 11.261 11.313 6.233 0 11.314-5.08 11.314-11.313 0-6.18-5.081-11.261-11.314-11.261zm0 14.717c-1.886 0-3.405-1.57-3.405-3.456s1.519-3.404 3.405-3.404c1.885 0 3.457 1.518 3.457 3.404s-1.571 3.456-3.457 3.456z"/><path d="m386.682 336.897c-6.233 0-11.314 5.08-11.314 11.261 0 6.233 5.08 11.313 11.314 11.313 6.181 0 11.261-5.08 11.261-11.313 0-6.18-5.08-11.261-11.261-11.261zm0 14.717c-1.885 0-3.457-1.57-3.457-3.456s1.572-3.404 3.457-3.404c1.886 0 3.405 1.518 3.405 3.404s-1.519 3.456-3.405 3.456z"/><path d="m410.356 336.897c-6.233 0-11.261 5.08-11.261 11.261 0 6.233 5.028 11.313 11.261 11.313s11.314-5.08 11.314-11.313c.001-6.18-5.081-11.261-11.314-11.261zm0 14.717c-1.885 0-3.404-1.57-3.404-3.456s1.519-3.404 3.404-3.404c1.886 0 3.458 1.518 3.458 3.404s-1.572 3.456-3.458 3.456z"/><path d="m453.568 380.999h-133.824c-7.699 0-13.985 6.285-13.985 14.037 0 7.701 6.286 13.984 13.985 13.984h133.824c7.752 0 14.037-6.284 14.037-13.984 0-7.752-6.285-14.037-14.037-14.037zm0 20.164h-133.824c-3.405 0-6.128-2.775-6.128-6.128 0-3.404 2.724-6.18 6.128-6.18h133.824c3.405 0 6.181 2.776 6.181 6.18-.001 3.353-2.776 6.128-6.181 6.128z"/><path d="m459.748 395.036c0 3.353-2.776 6.128-6.181 6.128h-133.823c-3.405 0-6.128-2.775-6.128-6.128 0-3.404 2.724-6.18 6.128-6.18h133.824c3.405-.001 6.18 2.776 6.18 6.18z"/><path d="m467.605 256.655c0 7.752-6.285 14.037-14.037 14.037h-30.798c-7.752 0-14.037-6.285-14.037-14.037 0-7.699 6.286-13.984 14.037-13.984h30.797c7.753-.001 14.038 6.284 14.038 13.984z"/></g></g></svg>