<?xml version="1.0"?>
<svg xmlns="http://www.w3.org/2000/svg" xmlns:xlink="http://www.w3.org/1999/xlink" xmlns:svgjs="http://svgjs.com/svgjs" version="1.1" width="512" height="512" x="0" y="0" viewBox="0 0 509.08 509.08" style="enable-background:new 0 0 512 512" xml:space="preserve" class=""><g><g xmlns="http://www.w3.org/2000/svg"><g><path d="m95.221 30.921h-34.803c-4.143 0-7.5 3.357-7.5 7.5s3.357 7.5 7.5 7.5h34.803c4.143 0 7.5-3.357 7.5-7.5s-3.358-7.5-7.5-7.5z" fill="#444444" data-original="#000000" style="" class=""/><circle cx="347.6" cy="38.833" r="7.397" fill="#444444" data-original="#000000" style="" class=""/><circle cx="324.283" cy="38.833" r="7.397" fill="#444444" data-original="#000000" style="" class=""/><path d="m483.78 251.695h-180.233v-8.806c0-4.143-3.357-7.5-7.5-7.5s-7.5 3.357-7.5 7.5v8.806h-47.007c-13.95 0-25.3 11.35-25.3 25.3v.357h-7.915c-4.143 0-7.5 3.357-7.5 7.5s3.357 7.5 7.5 7.5h7.915v20.771l-169.06.002c-17.744 0-32.18-14.436-32.18-32.18v-207.899h370.12v150.739c0 4.143 3.357 7.5 7.5 7.5s7.5-3.357 7.5-7.5l.005-175.688c-.057-25.036-20.499-45.437-45.505-45.502h-309.12c-25.089 0-45.5 20.411-45.5 45.5v232.85c0 26.015 21.165 47.18 47.18 47.18h127.021c-1.027 2.638-1.597 5.502-1.597 8.499 0 12.958 10.542 23.5 23.5 23.5h9.521l-53.585 53.584c-9.162 9.163-9.162 24.071 0 33.234 8.718 8.725 23.751 9.092 33.234 0l30.967-30.967v65.21c0 13.95 11.35 25.3 25.3 25.3h242.24c13.95 0 25.3-11.35 25.3-25.3v-204.19c-.001-13.951-11.351-25.3-25.301-25.3zm-468.778-193.649v-9.949c0-16.818 13.684-30.501 30.502-30.501h309.12c2.183 0 4.311.235 6.365.673 13.77 2.938 24.131 15.193 24.131 29.826v9.951zm159.712 378.241c-2.461 2.351-7.966 3.958-12.112.003-1.577-1.6-2.445-3.716-2.445-5.965 0-2.271.885-4.405 2.49-6.01l66.388-66.388c2.145-2.146 2.786-5.371 1.625-8.174-1.16-2.803-3.896-4.63-6.929-4.63h-27.627c-4.687 0-8.5-3.813-8.5-8.5 0-4.68 3.803-8.488 8.481-8.499h27.656c.007 0 .013-.001.019-.001h26.282c.006 0 .013.001.019.001s.013-.001.019-.001h12.307.025c2.131 0 4.488 1.052 6.158 2.75 1.074 1.091 2.343 2.948 2.289 5.598-.001.051-.002.102-.002.152v66.254c0 4.687-3.813 8.5-8.5 8.5s-8.5-3.813-8.5-8.5v-27.627c0-3.033-1.827-5.769-4.63-6.929-2.804-1.163-6.027-.52-8.174 1.625zm319.366 44.898c0 5.68-4.62 10.3-10.3 10.3h-242.24c-5.68 0-10.3-4.62-10.3-10.3v-80.211l7.617-7.617v9.521c0 12.958 10.542 23.5 23.5 23.5s23.5-10.542 23.5-23.5v-66.185c.102-6.111-2.238-11.911-6.594-16.339-4.523-4.599-10.66-7.23-16.822-7.23-.027 0-.056 0-.084 0h-4.797v-20.788h210.2v175.439h-210.199v-12.477c0-4.143-3.357-7.5-7.5-7.5s-7.5 3.357-7.5 7.5v14.227c0 7.306 5.939 13.25 13.239 13.25h213.721c7.3 0 13.239-5.944 13.239-13.25v-178.94c0-7.306-5.939-13.25-13.239-13.25h-213.721c-7.3 0-13.239 5.944-13.239 13.25v22.538h-11.32v-36.129c0-5.68 4.62-10.3 10.3-10.3h242.24c5.68 0 10.3 4.62 10.3 10.3v204.191z" fill="#444444" data-original="#000000" style="" class=""/><path d="m296.047 214.321c4.143 0 7.5-3.357 7.5-7.5v-16.488c0-4.143-3.357-7.5-7.5-7.5s-7.5 3.357-7.5 7.5v16.488c0 4.142 3.357 7.5 7.5 7.5z" fill="#444444" data-original="#000000" style="" class=""/><path d="m96.574 239.917c0 4.143 3.357 7.5 7.5 7.5s7.5-3.357 7.5-7.5v-16.488c0-4.143-3.357-7.5-7.5-7.5s-7.5 3.357-7.5 7.5z" fill="#444444" data-original="#000000" style="" class=""/><path d="m118.505 292.008c3.179.531 7.361-1.451 8.611-6.191.669-4.088-2.104-7.943-6.191-8.611-3.299-.54-6.16-2.52-7.852-5.433-2.079-3.582-6.67-4.798-10.252-2.721-3.582 2.08-4.8 6.67-2.721 10.252 3.953 6.808 10.661 11.439 18.405 12.704z" fill="#444444" data-original="#000000" style="" class=""/><path d="m104.074 142.304c4.143 0 7.5-3.357 7.5-7.5v-16.489c0-4.143-3.357-7.5-7.5-7.5s-7.5 3.357-7.5 7.5v16.489c0 4.143 3.358 7.5 7.5 7.5z" fill="#444444" data-original="#000000" style="" class=""/><path d="m146.7 92.88c0-4.143-3.357-7.5-7.5-7.5h-16.489c-4.143 0-7.48 3.357-7.48 7.5s3.377 7.5 7.52 7.5h16.45c4.142 0 7.499-3.357 7.499-7.5z" fill="#444444" data-original="#000000" style="" class=""/><path d="m96.574 187.361c0 4.143 3.357 7.5 7.5 7.5s7.5-3.357 7.5-7.5v-16.488c0-4.143-3.357-7.5-7.5-7.5s-7.5 3.357-7.5 7.5z" fill="#444444" data-original="#000000" style="" class=""/><path d="m251.813 92.88c0-4.143-3.357-7.5-7.5-7.5h-16.488c-4.143 0-7.5 3.357-7.5 7.5s3.357 7.5 7.5 7.5h16.488c4.143 0 7.5-3.357 7.5-7.5z" fill="#444444" data-original="#000000" style="" class=""/><path d="m155.769 277.352c-4.143 0-7.5 3.357-7.5 7.5s3.357 7.5 7.5 7.5h16.488c4.143 0 7.5-3.357 7.5-7.5s-3.357-7.5-7.5-7.5z" fill="#444444" data-original="#000000" style="" class=""/><path d="m303.547 137.776c0-4.143-3.357-7.5-7.5-7.5s-7.5 3.357-7.5 7.5v16.488c0 4.143 3.357 7.5 7.5 7.5s7.5-3.357 7.5-7.5z" fill="#444444" data-original="#000000" style="" class=""/><path d="m175.269 100.38h16.488c4.143 0 7.5-3.357 7.5-7.5s-3.357-7.5-7.5-7.5h-16.488c-4.143 0-7.5 3.357-7.5 7.5s3.357 7.5 7.5 7.5z" fill="#444444" data-original="#000000" style="" class=""/><path d="m297.294 108.638c3.578-2.087 4.786-6.68 2.699-10.258-3.967-6.8-10.685-11.416-18.431-12.665-4.104-.664-7.94 2.121-8.599 6.21-.659 4.09 2.121 7.939 6.21 8.599 3.3.532 6.166 2.506 7.862 5.415 2.241 2.752 5.254 5.1 10.259 2.699z" fill="#444444" data-original="#000000" style="" class=""/><path d="m200.061 220.12c4.143 0 7.5-3.357 7.5-7.5v-18.254h18.254c4.143 0 7.5-3.357 7.5-7.5s-3.357-7.5-7.5-7.5h-18.254v-18.254c0-4.143-3.357-7.5-7.5-7.5s-7.5 3.357-7.5 7.5v18.254h-18.254c-4.143 0-7.5 3.357-7.5 7.5s3.357 7.5 7.5 7.5h18.254v18.254c0 4.142 3.357 7.5 7.5 7.5z" fill="#444444" data-original="#000000" style="" class=""/><path d="m322.269 443.543h81.953c12.736 0 23.099-10.362 23.099-23.099v-48.877-33.076c0-12.736-10.362-23.099-23.099-23.099h-81.953c-12.736 0-23.099 10.362-23.099 23.099v52.226 29.728c0 12.736 10.362 23.098 23.099 23.098zm90.051-23.098c0 4.466-3.633 8.099-8.099 8.099h-81.953c-4.466 0-8.099-3.633-8.099-8.099v-25.599l28.481-18.028 17.021 9.248c.047.026.098.042.146.067.088.046.172.097.263.139l24.081 11.241c2.687 1.422 7.649.592 9.969-3.623 1.752-3.754.13-8.217-3.623-9.969l-11.61-5.419 17.74-11.149 15.684 8.645v44.447zm-90.051-90.052h81.953c4.466 0 8.099 3.633 8.099 8.099v20.379l-12.313-6.787c-2.387-1.315-5.3-1.233-7.611.219l-29.418 18.488-17.034-9.256c-2.389-1.3-5.294-1.203-7.593.253l-24.181 15.306v-38.602c-.001-4.466 3.632-8.099 8.098-8.099z" fill="#444444" data-original="#000000" style="" class=""/></g></g></g></svg>
