<svg id="svg4593" height="512" viewBox="0 0 16.933333 16.933334" width="512" xmlns="http://www.w3.org/2000/svg"
>
    <clipPath id="clipPath5337">
        <path id="rect5339" d="m34.774 274.321h35.435v25.702h-35.435z"/>
    </clipPath>
    <clipPath id="clipPath4542">
        <path id="rect4544" d="m-535.214-48.848h501.574v185.586h-501.574z"/>
    </clipPath>
    <clipPath id="clipPath11017">
        <path id="rect11019" d="m36.669 153.503h29.654v28.999h-29.654z" transform="rotate(-90)" vector-effect="none"/>
    </clipPath>
    <clipPath id="clipPath11444">
        <path id="rect11446" d="m-143.933 265.779h28.84v29.104h-28.84z" transform="rotate(-90)" vector-effect="none"/>
    </clipPath>
    <clipPath id="clipPath11781">
        <rect id="rect11783" height="32.411" rx=".634" transform="rotate(-90)" width="32.941" x="-145.124" y="181.377"/>
    </clipPath>
    <clipPath id="clipPath11499">
        <path id="rect11501" d="m-551.399-9.261h16.064v16.347h-16.064z" vector-effect="none"/>
    </clipPath>
    <g id="layer1" transform="translate(0 -280.067)">
        <circle id="path34863" cx="8.467" cy="288.533" fill="#ffc861" r="7.938"/>
        <path id="path35244"
              d="m58.464844 28.898438c3.097691 21.408908-22.437212 39.125499-41.324219 25.128906-1.459263-.857541-3.263206.405112-2.993805 2.076114 5.159874 3.838446 11.422176 5.884046 17.85318 5.896542 16.568539-.000009 29.999991-13.431461 30-30-.000114-1.702595-.145169-3.402091-.433594-5.080078-1.546492-.90687-3.325528.303669-3.101562 1.978516z"
              fill="#ffab61" transform="matrix(.265 0 0 .265 0 280.067)" font-variant-ligatures="normal"
              font-variant-position="normal" font-variant-caps="normal" font-variant-numeric="normal"
              font-variant-alternates="normal" font-feature-settings="normal" text-indent="0" text-align="start"
              text-decoration-line="none" text-decoration-style="solid" text-decoration-color="#000000"
              text-transform="none" text-orientation="mixed" white-space="normal" shape-padding="0" isolation="auto"
              mix-blend-mode="normal" solid-color="#000000" solid-opacity="1" vector-effect="none"/>
        <path id="rect9465" d="m12.21875 20.5v34.048828c3.289636 2.890501 7.172192 5.017962 11.375 6.248047v-40.296875z"
              fill="#55a1ff" transform="matrix(.265 0 0 .265 0 280.067)" vector-effect="none"/>
        <path id="path9476" d="m13.707017 285.49061v9.00875c-.870382.76478-1.897642 1.32767-3.009635 1.65313v-10.66188z"
              fill="#55a1ff" vector-effect="none"/>
        <g fill="#4d4d4d">
            <path id="path6570"
                  d="m53.837891 21.501953c1.333666.063988 1.429373-1.936126.095703-2h-15.53125c-1.333667 0-1.333667 2 0 2h1.029297 2 9.375 2z"
                  transform="matrix(.265 0 0 .265 0 280.067)" font-variant-ligatures="normal"
                  font-variant-position="normal" font-variant-caps="normal" font-variant-numeric="normal"
                  font-variant-alternates="normal" font-feature-settings="normal" text-indent="0" text-align="start"
                  text-decoration-line="none" text-decoration-style="solid" text-decoration-color="#000000"
                  text-transform="none" text-orientation="mixed" white-space="normal" shape-padding="0" isolation="auto"
                  mix-blend-mode="normal" solid-color="#000000" solid-opacity="1" vector-effect="none"/>
            <path id="path6566"
                  d="m22.59375 21.501953h2 1.029297c1.333669 0 1.333669-2 0-2h-15.53125c-1.3336689.063874-1.2379657 2.063988.095703 2h1.03125 2z"
                  transform="matrix(.265 0 0 .265 0 280.067)" font-variant-ligatures="normal"
                  font-variant-position="normal" font-variant-caps="normal" font-variant-numeric="normal"
                  font-variant-alternates="normal" font-feature-settings="normal" text-indent="0" text-align="start"
                  text-decoration-line="none" text-decoration-style="solid" text-decoration-color="#000000"
                  text-transform="none" text-orientation="mixed" white-space="normal" shape-padding="0" isolation="auto"
                  mix-blend-mode="normal" solid-color="#000000" solid-opacity="1" vector-effect="none"/>
            <path id="path9493"
                  d="m7.0964091 288.11766c-.2771902.22016.05306.63581.3302509.41566.6645486-.44378 1.5842925-.55903 2.1303674-.12313.2722162.248.6314376-.18191.3390272-.40572-.9034758-.65981-1.9031151-.51122-2.7996455.11319z"
                  font-variant-ligatures="normal" font-variant-position="normal" font-variant-caps="normal"
                  font-variant-numeric="normal" font-variant-alternates="normal" font-feature-settings="normal"
                  text-indent="0" text-align="start" text-decoration-line="none" text-decoration-style="solid"
                  text-decoration-color="#000000" text-transform="none" text-orientation="mixed" white-space="normal"
                  shape-padding="0" isolation="auto" mix-blend-mode="normal" solid-color="#000000" solid-opacity="1"
                  vector-effect="none"/>
        </g>
    </g>
</svg>