<svg id="svg4593" height="512" viewBox="0 0 16.933333 16.933334" width="512" xmlns="http://www.w3.org/2000/svg" xmlns:svg="http://www.w3.org/2000/svg"><clipPath id="clipPath5337"><path id="rect5339" d="m34.774 274.321h35.435v25.702h-35.435z"/></clipPath><clipPath id="clipPath4542"><path id="rect4544" d="m-535.214-48.848h501.574v185.586h-501.574z"/></clipPath><clipPath id="clipPath11017"><path id="rect11019" d="m36.669 153.503h29.654v28.999h-29.654z" transform="rotate(-90)" vector-effect="none"/></clipPath><clipPath id="clipPath11444"><path id="rect11446" d="m-143.933 265.779h28.84v29.104h-28.84z" transform="rotate(-90)" vector-effect="none"/></clipPath><clipPath id="clipPath11781"><rect id="rect11783" height="32.411" rx=".634" transform="rotate(-90)" width="32.941" x="-145.124" y="181.377"/></clipPath><clipPath id="clipPath11499"><path id="rect11501" d="m-551.399-9.261h16.064v16.347h-16.064z" vector-effect="none"/></clipPath><g id="layer1" transform="translate(0 -280.067)"><circle id="path34863-0" cx="8.467" cy="288.533" fill="#ffc861" r="7.938"/><path id="path35244-56" d="m15.468824 287.71214c.8196 5.66444-5.93651 10.35196-10.9337 6.64869-.3861-.22689-.86339.10719-.79211.54931 1.36521 1.01559 3.02212 1.55682 4.72365 1.56013 4.38376-.00001 7.9375-3.55374 7.9375-7.9375-.00003-.45048-.0384-.90014-.11472-1.34411-.40918-.23994-.87988.0803-.82062.52348z" fill="#ffab61" font-variant-ligatures="normal" font-variant-position="normal" font-variant-caps="normal" font-variant-numeric="normal" font-variant-alternates="normal" font-feature-settings="normal" text-indent="0" text-align="start" text-decoration-line="none" text-decoration-style="solid" text-decoration-color="#000000" text-transform="none" text-orientation="mixed" white-space="normal" shape-padding="0" isolation="auto" mix-blend-mode="normal" solid-color="#000000" solid-opacity="1" vector-effect="none"/><path id="rect22878" d="m2.054745 30.25c-.0462916.581704-.0424554 1.164634-.054745 1.748047.012073 1.606375.1179952 3.209185.3867187 4.792969h3.6718751c2.6614303 0 4.8046872 2.143257 4.8046872 4.804687v11.689453c5.616204 5.587451 13.214514 8.707085 21.136719 8.712891 7.923321-.0079 15.521787-3.11867 21.136719-8.708985v-11.693359c0-2.66143 2.143257-4.804687 4.804687-4.804687h3.675781c.26087-1.584418.378486-3.187224.382813-4.792969-.003188-.583147-.023379-1.166077-.060547-1.748047z" fill="#55a1ff" transform="matrix(.265 0 0 .265 0 280.067)" vector-effect="none"/><path id="path22906" d="m58.605469 30.25c.200238 2.238357.106364 4.430656-.271485 6.541016h3.279297c.272429-1.573916.383049-3.233151.386719-4.792969-.003188-.583147-.023379-1.166077-.060547-1.748047zm-5.46875 18.015625c-8.097286 10.391825-23.498198 15.021588-35.996094 5.759766-1.459276-.857537-3.263545.405167-2.994141 2.076171 5.205558 3.896277 11.701214 5.896485 17.853516 5.896485 8.097914.01372 15.634657-3.236948 21.136719-8.714844z" fill="#488bff" transform="matrix(.265 0 0 .265 0 280.067)" vector-effect="none"/><g id="g20288" fill="#4d4d4d" transform="translate(.714)"><path id="path10354-7-4-1" d="m5.6938443 285.7949c-.3432562.14963-.7428053-.007-.8924314-.35059-.04664-.10734-.064704-.22493-.052389-.34133-.2809144.0434-.534691.0357-.7290752-.0159-.341252-.0914-.2041587-.60326.1370983-.51187.6629611.15489 1.4061916-.23005 1.7353371-.76516.1790562-.30897.6410829-.0337.454607.27085-.1382399.2327-.3117015.41648-.5003507.5631.085946.0688.153738.15741.1977008.25827.1496261.34325-.00734.7428-.3505965.89242z" vector-effect="none"/><path id="path20284" d="m9.8108363 285.7949c.3432557.14963.7428057-.007.8924317-.35059.04664-.10734.0647-.22493.05239-.34133.280914.0434.534691.0357.729075-.0159.341252-.0914.204159-.60326-.137098-.51187-.662962.15489-1.406192-.23005-1.7353375-.76516-.1790562-.30897-.6410829-.0337-.454607.27085.1382399.2327.3117015.41648.5003507.5631-.085946.0688-.153738.15741-.1977008.25827-.1496261.34325.00734.7428.3505965.89242z" vector-effect="none"/></g><path id="path22897" d="m2.054745 30.25c-.0462916.581704-.0424554 1.164634-.054745 1.748047.012073 1.606375.1179952 3.209185.3867187 4.792969h3.6718751c2.6614303 0 4.8046872 2.143257 4.8046872 4.804687v11.689453c5.616204 5.587451 13.214514 8.707085 21.136719 8.712891 7.923321-.0079 15.521787-3.11867 21.136719-8.708985v-11.693359c0-2.66143 2.143257-4.804687 4.804687-4.804687h3.675781c.26087-1.584418.378486-3.187224.382813-4.792969-.003188-.583147-.023379-1.166077-.060547-1.748047z" fill="none" transform="matrix(.265 0 0 .265 0 280.067)" vector-effect="none"/></g></svg>