<?xml version="1.0" encoding="iso-8859-1"?>
<!-- Generator: Adobe Illustrator 19.0.0, SVG Export Plug-In . SVG Version: 6.00 Build 0)  -->
<svg version="1.1" id="Layer_1" xmlns="http://www.w3.org/2000/svg" xmlns:xlink="http://www.w3.org/1999/xlink" x="0px" y="0px"
	 viewBox="0 0 481.882 481.882" style="enable-background:new 0 0 481.882 481.882;" xml:space="preserve">
<path style="fill:#673AB7;" d="M60.235,28.913C60.235,12.943,73.178,0,89.148,0h212.028l120.471,101.195v351.774
	c0,15.97-12.943,28.913-28.913,28.913H89.148c-15.97,0-28.913-12.943-28.913-28.913V28.913z"/>
<path style="fill:#512DA8;" d="M301.176,0v72.282c0,15.97,12.943,28.92,28.913,28.92h91.558"/>
<g>
	<path style="fill:#FFFFFF;" d="M180.721,259.147c-5.722-4.668-11.746-7.537-19.727-7.537c-14.306,0-24.553,10.699-24.553,36.156
		c0,24.998,9.645,35.689,23.959,35.689c10.232,0,16.715-4.224,22.588-8.734l11.294,14.456c-7.68,7.379-18.982,13.56-35.546,13.56
		c-28.762,0-48.354-19.132-48.354-54.972c0-34.952,20.939-54.679,48.806-54.679c15.059,0,24.998,4.518,33.732,11.595
		L180.721,259.147z"/>
	<path style="fill:#FFFFFF;" d="M239.149,342.739c-18.982,0-33.129-6.618-41.72-15.059l12.649-13.997
		c7.688,6.776,17.024,10.541,28.168,10.541c10.24,0,17.167-4.676,17.167-12.664c0-7.529-4.367-10.835-18.824-15.368
		c-23.951-7.529-33.137-17.016-33.137-32.678c0-19.283,17.769-30.426,39.462-30.426c15.819,0,28.16,4.969,37.203,13.553
		l-11.753,13.568c-7.078-5.88-15.368-8.749-23.499-8.749c-9.336,0-15.526,3.471-15.526,10.104c0,6.633,4.676,9.193,20.638,14.306
		c19.885,6.468,31.48,14.6,31.48,33.732C281.472,329.178,265.517,342.739,239.149,342.739z"/>
	<path style="fill:#FFFFFF;" d="M331.309,319.39h0.753l19.132-83.599h25.6l-29.967,104.388h-31.029l-29.832-104.388h26.511
		L331.309,319.39z"/>
</g>
<g>
</g>
<g>
</g>
<g>
</g>
<g>
</g>
<g>
</g>
<g>
</g>
<g>
</g>
<g>
</g>
<g>
</g>
<g>
</g>
<g>
</g>
<g>
</g>
<g>
</g>
<g>
</g>
<g>
</g>
</svg>
