<?xml version="1.0" encoding="iso-8859-1"?>
<!-- Generator: Adobe Illustrator 19.0.0, SVG Export Plug-In . SVG Version: 6.00 Build 0)  -->
<svg version="1.1" id="Layer_1" xmlns="http://www.w3.org/2000/svg" xmlns:xlink="http://www.w3.org/1999/xlink" x="0px" y="0px"
	 viewBox="0 0 496 496" style="enable-background:new 0 0 496 496;" xml:space="preserve">
<g>
	<polygon style="fill:#F9BA48;" points="202.744,212.568 126.888,460.832 80,496 80.352,453.664 166.728,170.976 182.024,175.648 	
		"/>
	<polygon style="fill:#F9BA48;" points="313.976,175.648 329.272,170.976 416,454.808 416,496 369.112,460.832 368.352,458.336 
		293.256,212.568 	"/>
</g>
<g>
	<path style="fill:#333333;" d="M387.896,401.912l10.768,11.84c4.056-3.688,8.04-7.584,11.848-11.6l-11.608-11.016
		C395.368,394.864,391.664,398.496,387.896,401.912z"/>
	<path style="fill:#333333;" d="M349.936,48.52c-9.472-4.84-19.376-9.048-29.44-12.488l-5.168,15.144
		c9.336,3.192,18.528,7.096,27.328,11.592L349.936,48.52z"/>
	<path style="fill:#333333;" d="M444.808,315.496l15.144,5.2c3.464-10.088,6.208-20.496,8.168-30.936l-15.72-2.952
		C450.568,296.488,448.024,306.144,444.808,315.496z"/>
	<path style="fill:#333333;" d="M470.936,226.056l-15.92,1.544c0.656,6.712,0.984,13.568,0.984,20.416
		c0.008,3.12-0.064,6.208-0.192,9.288l15.984,0.704c0.144-3.328,0.216-6.672,0.208-10.008
		C472,240.656,471.64,233.272,470.936,226.056z"/>
	<path style="fill:#333333;" d="M417.768,368.2l13.048,9.264c6.168-8.688,11.752-17.88,16.592-27.344l-14.232-7.296
		C428.672,351.6,423.488,360.144,417.768,368.2z"/>
	<path style="fill:#333333;" d="M441.648,135.352c-5.344-9.168-11.416-18.048-18.04-26.4l-12.528,9.936
		c6.152,7.76,11.784,16.008,16.744,24.52L441.648,135.352z"/>
	<path style="fill:#333333;" d="M450.032,198.328l15.544-3.8c-2.528-10.352-5.84-20.6-9.84-30.464l-14.832,6
		C444.616,179.224,447.688,188.736,450.032,198.328z"/>
	<path style="fill:#333333;" d="M402.008,85.368c-7.728-7.312-16.048-14.136-24.728-20.272l-9.232,13.064
		c8.056,5.704,15.784,12.04,22.96,18.832L402.008,85.368z"/>
	<path style="fill:#333333;" d="M124.144,434.632c4.616,3.064,9.368,5.976,14.136,8.656l7.84-13.936
		c-4.424-2.496-8.832-5.2-13.136-8.048L124.144,434.632z"/>
	<path style="fill:#333333;" d="M247.984,456c-4.752,0.048-10.152-0.168-15.224-0.544l-1.168,15.952
		c5.36,0.4,10.776,0.592,16.096,0.592c5.264,0.104,11.152-0.184,16.616-0.584l-1.16-15.952C258.168,455.824,253.072,456,247.984,456
		z"/>
	<path style="fill:#333333;" d="M293.216,451.064l3.472,15.624c10.672-2.376,21.216-5.544,31.344-9.44l-5.736-14.936
		C312.904,445.92,303.12,448.864,293.216,451.064z"/>
	<path style="fill:#333333;" d="M167.872,457.216c10.168,3.904,20.712,7.08,31.344,9.448l3.472-15.624
		c-9.856-2.184-19.648-5.144-29.08-8.76L167.872,457.216z"/>
	<path style="fill:#333333;" d="M349.88,429.352l7.84,13.936c4.768-2.68,9.512-5.592,14.136-8.656l-8.84-13.328
		C358.72,424.152,354.304,426.856,349.88,429.352z"/>
	<path style="fill:#333333;" d="M55.184,169.848l-14.832-6.016c-3.992,9.832-7.312,20.072-9.864,30.424l15.528,3.832
		C48.4,188.488,51.48,178.984,55.184,169.848z"/>
	<path style="fill:#333333;" d="M40,248c0-6.92,0.336-13.864,1.008-20.64l-15.92-1.576C24.368,233.088,24,240.56,24,248
		c0,3.264,0.072,6.504,0.208,9.744l15.984-0.688C40.072,254.056,40,251.032,40,248z"/>
	<path style="fill:#333333;" d="M128.144,78.032l-9.232-13.08c-8.696,6.144-17.016,12.96-24.744,20.256l11,11.624
		C112.328,90.056,120.064,83.728,128.144,78.032z"/>
	<path style="fill:#333333;" d="M54.472,135.152l13.816,8.08c4.968-8.504,10.616-16.76,16.784-24.504l-12.528-9.952
		C65.896,117.112,59.824,125.992,54.472,135.152z"/>
	<path style="fill:#333333;" d="M180.904,51.096l-5.16-15.144c-10.064,3.424-19.976,7.616-29.472,12.464l7.28,14.248
		C162.368,58.168,171.568,54.272,180.904,51.096z"/>
	<path style="fill:#333333;" d="M48.48,349.904c4.848,9.48,10.424,18.68,16.576,27.36l13.048-9.248
		c-5.704-8.056-10.88-16.6-15.376-25.392L48.48,349.904z"/>
	<path style="fill:#333333;" d="M43.568,286.568l-15.72,2.952c1.96,10.464,4.696,20.864,8.136,30.936l15.144-5.168
		C47.936,305.944,45.392,296.28,43.568,286.568z"/>
	<path style="fill:#333333;" d="M85.488,402.16c3.816,4.016,7.8,7.912,11.848,11.6l10.768-11.84
		c-3.768-3.424-7.472-7.048-11.008-10.776L85.488,402.16z"/>
	<path style="fill:#333333;" d="M280,72V42.624c2.128,0.328,4.24,0.552,6.368,0.944l2.92-15.736c-3.288-0.608-6.568-1-9.856-1.456
		C276.76,11.416,263.72,0,248,0s-28.76,11.416-31.432,26.376c-3.288,0.464-6.568,0.848-9.856,1.456l2.92,15.736
		c2.128-0.392,4.24-0.616,6.368-0.944V72c-35.288,0-64,28.712-64,64c0,23.64,12.92,44.28,32.032,55.36
		c0,0.216-0.032,0.424-0.032,0.64c0,35.288,28.712,64,64,64s64-28.712,64-64c0-0.216-0.032-0.424-0.032-0.64
		C331.08,180.28,344,159.64,344,136C344,100.712,315.288,72,280,72z M232,32c0-8.824,7.176-16,16-16s16,7.176,16,16v42.104
		c-5.68,1.472-11.048,3.68-16,6.552c-4.952-2.88-10.32-5.08-16-6.552V32z M263.584,130c-5-1.256-10.2-2-15.584-2
		s-10.584,0.744-15.584,2c1.472-11.736,7.2-22.144,15.584-29.672C256.384,107.856,262.112,118.264,263.584,130z M248,171.68
		c-7.328-6.584-12.64-15.352-14.84-25.304c4.68-1.528,9.656-2.376,14.84-2.376c5.184,0,10.16,0.848,14.84,2.376
		C260.64,156.328,255.328,165.096,248,171.68z M277.352,154.104c8.704,6.752,15.024,16.408,17.488,27.52
		C290.16,183.152,285.184,184,280,184c-6.384,0-12.472-1.28-18.056-3.552C269.032,173.12,274.384,164.128,277.352,154.104z
		 M234.056,180.448C228.472,182.72,222.384,184,216,184c-5.184,0-10.16-0.848-14.84-2.376c2.464-11.112,8.784-20.768,17.488-27.52
		C221.616,164.128,226.968,173.12,234.056,180.448z M168,136c0-26.472,21.528-48,48-48c6.384,0,12.472,1.28,18.056,3.552
		C222.904,103.08,216,118.736,216,136c0,0.216,0.032,0.424,0.032,0.64c-14.032,8.136-24.696,21.408-29.384,37.256
		C175.328,165.112,168,151.408,168,136z M248,240c-24.432,0-44.616-18.36-47.584-42c5,1.256,10.2,2,15.584,2
		c11.664,0,22.576-3.184,32-8.656c9.424,5.472,20.336,8.656,32,8.656c5.384,0,10.584-0.744,15.584-2
		C292.616,221.64,272.432,240,248,240z M309.352,173.896c-4.688-15.848-15.352-29.12-29.384-37.256c0-0.216,0.032-0.424,0.032-0.64
		c0-17.264-6.904-32.92-18.056-44.448C267.528,89.28,273.616,88,280,88c26.472,0,48,21.528,48,48
		C328,151.408,320.672,165.112,309.352,173.896z"/>
	<rect x="160" y="312" style="fill:#333333;" width="176" height="16"/>
</g>
<g>
</g>
<g>
</g>
<g>
</g>
<g>
</g>
<g>
</g>
<g>
</g>
<g>
</g>
<g>
</g>
<g>
</g>
<g>
</g>
<g>
</g>
<g>
</g>
<g>
</g>
<g>
</g>
<g>
</g>
</svg>
