<svg fill="none" height="512" viewBox="0 0 24 24" width="512" xmlns="http://www.w3.org/2000/svg"><g fill="rgb(0,0,0)"><path d="m17 7.75c.4142 0 .75-.33579.75-.75s-.3358-.75-.75-.75zm-10-1.5c-.41421 0-.75.33579-.75.75s.33579.75.75.75zm10 0h-10v1.5h10z"/><path d="m17 11.75c.4142 0 .75-.3358.75-.75s-.3358-.75-.75-.75zm-10-1.5c-.41421 0-.75.3358-.75.75s.33579.75.75.75zm10 0h-10v1.5h10z"/><path d="m12 15.75c.4142 0 .75-.3358.75-.75s-.3358-.75-.75-.75zm-5-1.5c-.41421 0-.75.3358-.75.75s.33579.75.75.75zm5 0h-5v1.5h5z"/><path d="m18.3226 21.0361-.2541.7057zm-1.5618-.5622.254-.7057zm-1.4982.0579-.3077-.6839zm-2.4419 1.0989-.3077-.684zm-1.6414 0 .3077-.684zm-2.44193-1.0989.30778-.6839zm-1.49817-.0579-.25403-.7057h-.00001zm-1.56176.5622.25404.7057zm-.67744-18.2861h14v-1.5h-14zm15.25 1.25v15.1543h1.5v-15.1543zm-1.6734 16.3305-1.5618-.5623-.508 1.4114 1.5617.5622zm-3.6217-.4826-2.4419 1.0988.6155 1.3679 2.4419-1.0988zm-3.4679 1.0988-2.44185-1.0988-.61555 1.3679 2.4419 1.0988zm-4.50184-1.1785-1.56176.5623.50808 1.4113 1.56176-.5622zm-3.23516-.6139v-15.1543h-1.5v15.1543zm1.6734 1.1762c-.81458.2932-1.6734-.3104-1.6734-1.1762h-1.5c0 1.9047 1.88941 3.2326 3.68148 2.5875zm3.62175-.4826c-.65036-.2927-1.38897-.3212-2.05998-.0797l.50807 1.4114c.30501-.1099.64075-.0969.93636.0362zm3.46785 1.0988c-.3263.1468-.6997.1468-1.026 0l-.6155 1.3679c.7177.323 1.5393.323 2.257 0zm4.5018-1.1785c-.671-.2415-1.4096-.213-2.0599.0797l.6155 1.3679c.2956-.1331.6313-.1461.9364-.0362zm3.2352-.6139c0 .8658-.8588 1.4694-1.6734 1.1762l-.5081 1.4113c1.7921.6451 3.6815-.6828 3.6815-2.5875zm-1.25-16.4043c.6904 0 1.25.55964 1.25 1.25h1.5c0-1.51878-1.2312-2.75-2.75-2.75zm-14-1.5c-1.51878 0-2.75 1.23122-2.75 2.75h1.5c0-.69036.55964-1.25 1.25-1.25z"/></g></svg>