<svg xmlns="http://www.w3.org/2000/svg" xml:space="preserve" viewBox="0 0 512 512"><path d="M211.563 26.133a10.67 10.67 0 0 0-8.896-4.8h-192C4.776 21.333 0 26.109 0 32v448a10.666 10.666 0 0 0 10.666 10.666c4.255.015 8.111-2.5 9.813-6.4l192-448a10.66 10.66 0 0 0-.916-10.133M265.877 187.989a10.67 10.67 0 0 0-9.877-6.656 10.67 10.67 0 0 0-9.835 6.528l-85.333 202.667c-2.286 5.43.263 11.684 5.692 13.97 1.311.552 2.72.836 4.142.836h77.931l29.419 78.421a10.67 10.67 0 0 0 9.984 6.912h85.333c5.891-.004 10.664-4.782 10.66-10.673a10.7 10.7 0 0 0-.783-4.004zM501.333 21.333h-192c-5.891-.021-10.683 4.738-10.704 10.629a10.7 10.7 0 0 0 .89 4.304l192 448a10.67 10.67 0 0 0 9.813 6.4 11 11 0 0 0 2.133-.213A10.67 10.67 0 0 0 511.998 480V32c.002-5.891-4.774-10.667-10.665-10.667" style="fill:#f44336"/></svg>