<svg xmlns:xlink="http://www.w3.org/1999/xlink" id="Layer_1" enable-background="new 0 0 512 512" height="512" viewBox="0 0 512 512"
     width="512" xmlns="http://www.w3.org/2000/svg">
    <linearGradient id="lg1">
        <stop offset="0" stop-color="#fee411"/>
        <stop offset=".0518" stop-color="#fedb16"/>
        <stop offset=".1381" stop-color="#fec125"/>
        <stop offset=".2481" stop-color="#fe983d"/>
        <stop offset=".3762" stop-color="#fe5f5e"/>
        <stop offset=".5" stop-color="#fe2181"/>
        <stop offset="1" stop-color="#9000dc"/>
    </linearGradient>
    <linearGradient id="SVGID_1_" gradientUnits="userSpaceOnUse" x1="108.953" x2="379.394" xlink:href="#lg1" y1="405.25"
                    y2="134.81"/>
    <linearGradient id="SVGID_2_" gradientUnits="userSpaceOnUse" x1="108.466" x2="378.906" xlink:href="#lg1"
                    y1="404.763" y2="134.323"/>
    <linearGradient id="SVGID_3_" gradientUnits="userSpaceOnUse" x1="107.851" x2="378.292" xlink:href="#lg1"
                    y1="404.149" y2="133.708"/>
    <g>
        <path d="m257.19 344.81c-48.41 0-87.8-39.39-87.8-87.8s39.39-87.8 87.8-87.8 87.8 39.39 87.8 87.8c0 48.42-39.39 87.8-87.8 87.8zm0-139.11c-28.29 0-51.31 23.02-51.31 51.31s23.02 51.31 51.31 51.31 51.31-23.02 51.31-51.31-23.02-51.31-51.31-51.31z"
              fill="url(#SVGID_1_)"/>
        <circle cx="343.91" cy="169.32" fill="url(#SVGID_2_)" r="20.66"/>
        <path d="m329.55 427.89h-147.1c-54.22 0-98.33-44.11-98.33-98.33v-147.11c0-54.22 44.11-98.33 98.33-98.33h147.11c54.22 0 98.33 44.11 98.33 98.33v147.11c0 54.21-44.12 98.33-98.34 98.33zm-147.1-307.29c-34.1 0-61.84 27.74-61.84 61.84v147.11c0 34.1 27.74 61.84 61.84 61.84h147.11c34.1 0 61.84-27.74 61.84-61.84v-147.1c0-34.1-27.74-61.84-61.84-61.84h-147.11z"
              fill="url(#SVGID_3_)"/>
    </g>
</svg>