<?xml version="1.0" encoding="UTF-8"?>


<!DOCTYPE svg PUBLIC "-//W3C//DTD SVG 1.1//EN" "http://www.w3.org/Graphics/SVG/1.1/DTD/svg11.dtd">

<svg xmlns:xlink="http://www.w3.org/1999/xlink" xmlns:xodm="http://www.corel.com/coreldraw/odm/2003" xmlns="http://www.w3.org/2000/svg" xml:space="preserve" width="550px"
     height="550px"
     version="1.1"
     style="shape-rendering:geometricPrecision; text-rendering:geometricPrecision; image-rendering:optimizeQuality; fill-rule:evenodd; clip-rule:evenodd"
     viewBox="0 0 34.81 34.81">
 <defs>
  <style type="text/css">
   <![CDATA[
    .fil0 {fill:none}
    .fil4 {fill:#003893}
    .fil1 {fill:#DBDCDC}
    .fil3 {fill:white}
    .fil2 {fill:url(#id0)}
   ]]>
  </style>
     <radialGradient id="id0" gradientUnits="userSpaceOnUse"
                     gradientTransform="matrix(-1 -1.22465E-16 1.20921E-16 -0.987394 35 35)" cx="17.41" cy="17.4"
                     r="227.65" fx="17.41" fy="17.4">
   <stop offset="0" style="stop-opacity:1; stop-color:#F9B400"/>
         <stop offset="1" style="stop-opacity:1; stop-color:#E94B04"/>
  </radialGradient>
 </defs>
    <g id="Layer_x0020_1">
  <metadata id="CorelCorpID_0Corel-Layer"/>
        <polygon class="fil0" points="0,34.81 34.81,34.81 34.81,0 0,0 "/>
        <g id="_2347275680944">
   <path class="fil1"
         d="M10.37 5.06c3,0 7.81,1.9 11.02,3.67 3.53,1.95 8.5,5.92 8.5,8.65 0,2.92 -5.08,6.77 -8.5,8.66 -3.1,1.71 -7.82,3.7 -10.92,3.7 -0.81,0 -1.49,-0.14 -1.99,-0.41 -2.45,-1.36 -3.56,-7.14 -3.56,-11.95 0,-2.41 0.31,-5.01 0.85,-7.11 0.65,-2.54 1.59,-4.21 2.71,-4.83 0.46,-0.25 1.1,-0.38 1.89,-0.38z"/>
            <path class="fil2"
                  d="M8.92 6.19c-2.04,1.14 -3.17,6.79 -3.17,11.19 0,4.45 1.06,10.03 3.17,11.19 1.92,1.06 7.15,-0.5 12.07,-3.21 4.22,-2.33 8.06,-5.79 8.07,-7.97 -0.01,-2.08 -3.91,-5.68 -8.07,-7.97 -3.81,-2.11 -8.04,-3.53 -10.52,-3.53 -0.65,0 -1.17,0.1 -1.55,0.3z"/>
            <g>
    <path class="fil3"
          d="M23.61 19.55c-0.01,0 -0.02,-0.01 -0.02,-0.02l0 -2.07c0,-0.46 -0.15,-0.66 -0.52,-0.66 -0.13,0 -0.28,0.05 -0.44,0.14 -0.16,0.09 -0.28,0.16 -0.32,0.19 -0.01,0.01 -0.03,0.03 -0.03,0.05l0 2.34c0,0.01 -0.01,0.02 -0.02,0.02l-0.92 0c-0.01,0 -0.02,-0.01 -0.02,-0.02l0 -3.32c0,-0.05 0.04,-0.1 0.1,-0.1l0.84 0c0.01,0 0.02,0.01 0.02,0.02l0 0.26c0,0.02 0.02,0.03 0.03,0.03 0.01,0 0.02,0 0.02,0l0.03 -0.02c0.1,-0.08 0.26,-0.17 0.36,-0.21 0.23,-0.09 0.48,-0.14 0.68,-0.14 0.75,0 1.15,0.44 1.15,1.25l0 2.24c0,0.01 -0.01,0.02 -0.02,0.02l-0.92 0z"/>
                <path class="fil3"
                      d="M25.31 19.55c-0.01,0 -0.02,-0.01 -0.02,-0.02l0 -5.09c0,-0.02 0.01,-0.03 0.03,-0.03 0.06,0 0.57,0.32 0.74,0.51 0.12,0.14 0.19,0.32 0.19,0.51l0 4.1c0,0.01 -0.01,0.02 -0.02,0.02l-0.92 0 0 0z"/>
                <g>
     <path class="fil4"
           d="M15.11 17.82c0,1.22 -0.8,1.8 -1.79,1.8 -1,0 -1.8,-0.58 -1.8,-1.8 0,-1.24 0.81,-1.79 1.8,-1.79 0.99,0 1.79,0.55 1.79,1.79l0 0zm-1.01 0c0,-0.65 -0.34,-0.94 -0.78,-0.94 -0.44,0 -0.78,0.29 -0.78,0.94 0,0.61 0.34,0.95 0.78,0.95 0.44,0 0.78,-0.34 0.78,-0.95z"/>
    </g>
                <path class="fil4"
                      d="M19.8 15.16c0,-0.03 -0.01,-0.04 -0.04,-0.04 -0.07,0 -0.59,0.33 -0.75,0.51 -0.11,0.14 -0.19,0.32 -0.19,0.52l0 2.21c0,0.95 0.55,1.26 1.15,1.26 0.34,0 0.57,-0.05 0.71,-0.13 0.03,-0.01 0.05,-0.05 0.05,-0.09l0 -0.63c0,-0.02 -0.01,-0.03 -0.03,-0.03 -0.04,0 -0.26,0.09 -0.41,0.09 -0.3,0 -0.49,-0.15 -0.49,-0.64l0 -1.27c0,-0.02 0.01,-0.03 0.03,-0.03l0.84 0c0.02,0 0.03,-0.02 0.03,-0.04l0 0 0 -0.65c0,-0.06 -0.05,-0.11 -0.11,-0.11l-0.75 0c-0.02,0 -0.04,-0.02 -0.04,-0.04l0 -0.89z"/>
                <path class="fil4"
                      d="M7.77 16.2c0,-0.06 0.05,-0.11 0.11,-0.11l1.32 0c1.28,0 1.95,0.78 1.95,1.77 0,1.01 -0.74,1.7 -1.97,1.7l-0.39 0c-0.02,0 -0.03,0.01 -0.03,0.03l0 1.63c0,0.02 -0.01,0.03 -0.04,0.03 -0.07,0 -0.59,-0.33 -0.75,-0.51 -0.12,-0.13 -0.2,-0.32 -0.2,-0.51l0 -4.03 0 0zm2.4 1.61c0,-0.42 -0.27,-0.82 -1,-0.82l-0.38 0c-0.02,0 -0.04,0.01 -0.04,0.03l0 1.6c0,0.02 0.02,0.04 0.04,0.04l0.4 0c0.87,0 0.98,-0.6 0.98,-0.85z"/>
                <path class="fil4"
                      d="M17.89 17.67c-0.2,-0.13 -0.46,-0.19 -0.69,-0.24 -0.05,-0.01 -0.2,-0.05 -0.24,-0.05 -0.3,-0.07 -0.52,-0.12 -0.52,-0.31 0,-0.16 0.16,-0.27 0.4,-0.27 0.31,0 0.74,0.06 1.21,0.23 0.03,0.01 0.06,0 0.06,-0.04l0 -0.68c0,-0.04 -0.03,-0.09 -0.08,-0.1 -0.17,-0.06 -0.65,-0.19 -1.06,-0.19 -0.46,0 -0.84,0.1 -1.11,0.29 -0.27,0.2 -0.41,0.48 -0.41,0.82 0,0.76 0.63,0.91 1.22,1.04 0.09,0.02 0.08,0.02 0.11,0.03 0.27,0.06 0.55,0.12 0.55,0.34 0,0.07 -0.03,0.12 -0.08,0.18 -0.07,0.07 -0.19,0.11 -0.41,0.11 -0.38,0 -1.09,-0.18 -1.31,-0.25 0,0 -0.01,0 -0.01,0 -0.03,0 -0.04,0.02 -0.04,0.04l0 0.68c0,0.05 0.02,0.09 0.07,0.11 0,0 0.62,0.21 1.21,0.21 1.02,0 1.55,-0.4 1.55,-1.13 -0.01,-0.36 -0.14,-0.63 -0.42,-0.82z"/>
                <path class="fil3"
                      d="M11.8 15.2c-0.09,0 -0.12,-0.04 -0.12,-0.14l0 -0.37c0,-0.08 0.07,-0.15 0.16,-0.15l2.96 0c0.08,0 0.16,0.07 0.16,0.15l0 0.37c0,0.1 -0.04,0.14 -0.12,0.14l-3.04 0zm2.68 -1.04c-0.03,0 -0.06,-0.01 -0.07,-0.02 -0.01,-0.02 -0.01,-0.05 0,-0.08 0.1,-0.31 0.43,-1.24 0.44,-1.25 0.02,-0.06 0,-0.14 -0.07,-0.16l-0.16 -0.06c-0.01,0 -0.03,0 -0.04,0 -0.03,0 -0.05,0.01 -0.06,0.03 -0.07,0.15 -0.11,0.26 -0.16,0.44 -0.01,0.03 -0.04,0.05 -0.08,0.05l-0.33 0c-0.02,0 -0.03,-0.01 -0.04,-0.02 -0.01,-0.02 -0.01,-0.03 -0.01,-0.06 0.08,-0.3 0.17,-0.54 0.29,-0.81 0.02,-0.04 0.08,-0.12 0.18,-0.12 0.02,0 0.04,0 0.07,0.01l0 0c0.12,0.02 0.24,0.05 0.37,0.09 0.11,0.03 0.22,0.07 0.32,0.11 0.34,0.12 0.33,0.37 0.26,0.61 -0.04,0.15 -0.24,0.69 -0.35,1.01 -0.02,0.07 -0.04,0.13 -0.06,0.17 -0.01,0.04 -0.04,0.06 -0.09,0.06l-0.41 0 0 0zm-1.37 0c-0.07,0 -0.08,-0.08 -0.08,-0.08 0,-0.02 -0.02,-1.75 -0.02,-1.99 0,-0.02 0,-0.05 0.03,-0.08 0.01,-0.01 0.03,-0.02 0.05,-0.02 0.03,0 0.12,0 0.23,0 0.11,0 0.2,0 0.23,0 0.02,0 0.04,0.01 0.05,0.02 0.02,0.03 0.03,0.07 0.03,0.08 -0.01,0.24 -0.03,1.97 -0.03,1.99 0,0 0,0.08 -0.07,0.08l-0.42 0zm-1.36 0c-0.05,0 -0.08,-0.02 -0.09,-0.05 -0.02,-0.04 -0.04,-0.1 -0.06,-0.17 -0.12,-0.33 -0.31,-0.87 -0.35,-1.02 -0.06,-0.24 -0.08,-0.48 0.26,-0.6 0.11,-0.04 0.21,-0.08 0.32,-0.11 0.13,-0.04 0.25,-0.07 0.37,-0.1l0 0c0.02,0 0.05,-0.01 0.07,-0.01 0.11,0 0.16,0.08 0.18,0.13 0.12,0.26 0.21,0.51 0.29,0.81 0.01,0.02 0.01,0.04 0,0.05 -0.01,0.01 -0.03,0.02 -0.05,0.02l-0.33 0c-0.04,0 -0.07,-0.01 -0.08,-0.04 -0.05,-0.19 -0.09,-0.29 -0.16,-0.44 -0.01,-0.02 -0.03,-0.04 -0.06,-0.04 -0.01,0 -0.02,0 -0.04,0.01l-0.16 0.05c-0.07,0.03 -0.09,0.1 -0.07,0.17 0.01,0.01 0.34,0.94 0.44,1.24 0.01,0.04 0.01,0.07 0,0.08 -0.01,0.02 -0.04,0.03 -0.07,0.03l-0.41 0 0 -0.01zm1.57 -2.53c-0.02,0 -0.04,-0.01 -0.06,-0.02 -0.14,-0.11 -0.27,-0.24 -0.38,-0.38 -0.01,-0.02 -0.04,-0.05 0,-0.09 0.12,-0.15 0.26,-0.28 0.4,-0.39 0.02,-0.01 0.03,-0.01 0.04,-0.01 0.01,0 0.02,0 0.03,0.01 0.15,0.11 0.28,0.25 0.4,0.4 0.03,0.03 0.02,0.06 0,0.08 -0.11,0.15 -0.23,0.28 -0.37,0.38 -0.02,0.01 -0.04,0.02 -0.06,0.02l0 0z"/>
   </g>
  </g>
 </g>
</svg>
