<?xml version="1.0" encoding="UTF-8"?>


<!DOCTYPE svg PUBLIC "-//W3C//DTD SVG 1.1//EN" "http://www.w3.org/Graphics/SVG/1.1/DTD/svg11.dtd">

<svg xmlns="http://www.w3.org/2000/svg" xml:space="preserve" width="1252px" height="1252px" version="1.1" style="shape-rendering:geometricPrecision; text-rendering:geometricPrecision; image-rendering:optimizeQuality; fill-rule:evenodd; clip-rule:evenodd"
viewBox="0 0 39.19 39.19"
 xmlns:xlink="http://www.w3.org/1999/xlink"
 xmlns:xodm="http://www.corel.com/coreldraw/odm/2003">
 <defs>
  <style type="text/css">
   <![CDATA[
    .fil1 {fill:none}
    .fil0 {fill:#9FCD52}
   ]]>
  </style>
 </defs>
 <g id="Layer_x0020_1">
  <metadata id="CorelCorpID_0Corel-Layer"/>
  <path class="fil0" d="M18.3 14.09c0,-0.35 0.25,-0.81 0.45,-0.99 1.04,-0.87 2.49,-0.04 2.49,1.05 0,1.92 -2.94,1.78 -2.94,-0.06zm-16.77 5.13c0,2.36 0.37,4.53 1.2,6.62 0.84,2.08 2.08,3.95 3.66,5.54 0.36,0.36 0.67,0.62 1.04,0.97 0.15,0.15 0.38,0.31 0.55,0.44 4.14,3.1 8.89,4.2 14.08,3.09 1.04,-0.23 1.96,-0.59 2.87,-0.96 1.37,-0.56 3.02,-1.55 4.12,-2.57l1.91 -1.91c0.17,-0.17 0.29,-0.35 0.45,-0.55 0.29,-0.38 0.53,-0.71 0.78,-1.09 1.2,-1.79 2.45,-4.78 2.63,-7.01 -0.3,0.07 -0.87,0.42 -1.19,0.55 -0.41,0.17 -0.97,0.22 -1.09,0.67 -0.38,1.47 -0.82,2.57 -1.49,3.83 -0.51,0.94 -1.21,1.75 -1.87,2.57 -0.98,1.23 -2.53,2.4 -3.95,3.12 -2.14,1.08 -3.75,1.56 -6.3,1.78 0.53,-1.01 1.29,-1.9 1.91,-2.85 0.23,-0.35 0.44,-0.6 0.68,-0.95l1.36 -1.83c0.87,-1.09 1.25,-1.46 2.54,-2.27l2.96 -1.87c1.65,-1.1 3.5,-1.9 5.32,-2.69 1.06,-0.46 2,-1.19 2.7,-2.12 1.47,-1.97 1.63,-4.37 0.6,-6.81 -0.68,-1.59 -2.05,-2.91 -3.65,-3.55 -2.67,-1.07 -4.69,-0.63 -7.25,0.5 -1.37,0.61 -2.24,1.15 -3.92,1.15 -3.04,0 -1.8,-0.97 -6.13,-0.55 -2.3,0.22 -1.25,0.47 -2.69,-0.64 -0.3,-0.22 -0.79,-0.68 -1.19,-0.68 -1.11,0 -0.72,2.25 -0.56,2.86 0.36,1.31 0.53,0.89 0.18,1.46 -0.49,0.79 -0.34,0.94 -1.27,1.86l-0.87 0.93c-0.82,0.82 -0.81,1.09 -2.05,1.59 -0.43,0.17 -0.88,0.34 -1.32,0.49 -0.6,0.2 -2.22,0.84 -2.75,0.88 0,-2.92 1.1,-5.76 2.7,-8.12 0.26,-0.38 0.52,-0.68 0.8,-1.02 1.37,-1.7 3.22,-2.96 5.18,-3.9 3.22,-1.55 7.84,-1.71 11.27,-0.33 0.5,0.2 0.97,0.36 1.43,0.63 1.06,0.63 2.11,1.22 3.01,2.06 0.25,0.23 0.35,0.11 0.74,0.02 0.66,-0.16 1.12,-0.17 1.91,-0.17 -0.09,-0.33 -1.22,-1.3 -1.59,-1.6 -2.72,-2.32 -6.53,-3.9 -10.3,-3.9 -2.62,0 -5.2,0.4 -7.47,1.54 -0.9,0.45 -1.78,0.9 -2.58,1.49 -1.99,1.43 -3.59,3.2 -4.85,5.29 -0.26,0.42 -0.47,0.88 -0.71,1.36 -0.48,0.94 -0.79,1.97 -1.05,3.01 -0.26,1.01 -0.49,2.36 -0.49,3.64z"/>
  <rect class="fil1" width="39.19" height="39.19"/>
 </g>
</svg>
