<?xml version="1.0" encoding="UTF-8"?>


<!DOCTYPE svg PUBLIC "-//W3C//DTD SVG 1.1//EN" "http://www.w3.org/Graphics/SVG/1.1/DTD/svg11.dtd">

<svg xmlns:xlink="http://www.w3.org/1999/xlink" xmlns:xodm="http://www.corel.com/coreldraw/odm/2003" xmlns="http://www.w3.org/2000/svg" xml:space="preserve" width="512px"
     height="512px"
     version="1.1"
     style="shape-rendering:geometricPrecision; text-rendering:geometricPrecision; image-rendering:optimizeQuality; fill-rule:evenodd; clip-rule:evenodd"
     viewBox="0 0 12.45 12.45">
 <defs>
  <style type="text/css">
   <![CDATA[
    .fil0 {fill:#F12F46}
   ]]>
  </style>
 </defs>
    <g id="Layer_x0020_1">
  <metadata id="CorelCorpID_0Corel-Layer"/>
        <g id="_2337804107008">
   <path class="fil0"
         d="M5.89 1.7c0.92,0 1.45,-0.01 2.31,0.43 1,0.5 1.61,1.1 2.11,2.09 0.66,1.32 0.59,2.97 -0.13,4.26 -0.11,0.2 -0.2,0.32 -0.33,0.5 -1.15,1.68 -3.81,2.35 -5.88,1.2 -1.07,-0.59 -1.88,-1.66 -2.16,-2.86 -0.23,-0.97 -0.13,-2 0.2,-2.82 0.16,-0.4 0.38,-0.74 0.6,-1.06 0.07,-0.09 0.12,-0.12 0.19,-0.22l0.64 -0.61c0.68,-0.48 1.56,-0.91 2.45,-0.91zm-5.89 4.15c0,1.47 0.03,1.69 0.59,3.07 0.18,0.45 0.57,0.95 0.86,1.33 0.35,0.46 1.07,1.03 1.57,1.34 0.09,0.05 0.15,0.07 0.24,0.13 0.57,0.34 1.78,0.73 2.59,0.73 1.47,0 1.69,-0.03 3.07,-0.59l0.91 -0.54c0.4,-0.3 0.45,-0.33 0.8,-0.69l0.68 -0.78c0.22,-0.29 0.25,-0.39 0.41,-0.66 0.34,-0.57 0.73,-1.78 0.73,-2.59 0,-1.47 -0.03,-1.69 -0.59,-3.07 -0.06,-0.15 -0.15,-0.3 -0.24,-0.46 -0.28,-0.49 -0.91,-1.26 -1.35,-1.6 -0.32,-0.26 -0.93,-0.71 -1.32,-0.87 -1.36,-0.57 -1.66,-0.6 -3.1,-0.6 -0.96,0 -2.04,0.41 -2.78,0.83 -0.15,0.09 -0.3,0.19 -0.45,0.3 -0.67,0.5 -0.97,0.8 -1.48,1.47 -0.63,0.83 -1.14,2.22 -1.14,3.25z"/>
            <path class="fil0"
                  d="M3.4 4.52l0 0.34c0,0.51 0.61,1.12 1.12,1.12l0.34 0c0.51,0 1.12,-0.61 1.12,-1.12l0 -0.34c0,-0.51 -0.61,-1.12 -1.12,-1.12l-0.34 0c-0.51,0 -1.12,0.61 -1.12,1.12z"/>
            <path class="fil0"
                  d="M6.47 4.52l0 0.34c0,0.51 0.61,1.12 1.12,1.12l0.34 0c0.51,0 1.12,-0.61 1.12,-1.12l0 -0.34c0,-0.51 -0.61,-1.12 -1.12,-1.12l-0.34 0c-0.51,0 -1.12,0.61 -1.12,1.12z"/>
            <path class="fil0"
                  d="M3.4 7.59l0 0.34c0,0.51 0.61,1.12 1.12,1.12l0.34 0c0.51,0 1.12,-0.61 1.12,-1.12l0 -0.34c0,-0.51 -0.61,-1.12 -1.12,-1.12l-0.34 0c-0.51,0 -1.12,0.61 -1.12,1.12z"/>
            <path class="fil0"
                  d="M6.47 7.59l0 0.34c0,0.51 0.61,1.12 1.12,1.12l0.34 0c0.51,0 1.12,-0.61 1.12,-1.12l0 -0.34c0,-0.51 -0.61,-1.12 -1.12,-1.12l-0.34 0c-0.51,0 -1.12,0.61 -1.12,1.12z"/>
  </g>
 </g>
</svg>
