<?xml version="1.0" encoding="UTF-8"?>


<!DOCTYPE svg PUBLIC "-//W3C//DTD SVG 1.1//EN" "http://www.w3.org/Graphics/SVG/1.1/DTD/svg11.dtd">

<svg xmlns="http://www.w3.org/2000/svg" xml:space="preserve" width="550px" height="550px" version="1.1" style="shape-rendering:geometricPrecision; text-rendering:geometricPrecision; image-rendering:optimizeQuality; fill-rule:evenodd; clip-rule:evenodd"
viewBox="0 0 159.25 159.25"
 xmlns:xlink="http://www.w3.org/1999/xlink"
 xmlns:xodm="http://www.corel.com/coreldraw/odm/2003">
 <defs>
  <style type="text/css">
   <![CDATA[
    .fil0 {fill:none}
    .fil2 {fill:#351C15}
    .fil1 {fill:#FEB400}
   ]]>
  </style>
 </defs>
 <g id="Layer_x0020_1">
  <metadata id="CorelCorpID_0Corel-Layer"/>
  <polygon class="fil0" points="0,159.25 159.25,159.25 159.25,0 0,0 "/>
  <path class="fil1" d="M24.74 24.82c-0.05,14.7 0,29.41 0,44.1 0,13.44 -1.41,29.49 3.69,40.73 4.93,10.86 12.08,16.51 22.5,21.96 3.42,1.79 27.85,14.25 29.98,14.25 2.08,0 26.4,-12.4 29.72,-14.14 10.64,-5.61 17.5,-10.9 22.65,-21.82 5.22,-11.08 3.81,-27.24 3.81,-40.61 0,-14.82 0.07,-29.66 -0.01,-44.47 -21.9,-12.9 -60.59,-15.35 -87.07,-9.23 -8.4,1.94 -18.82,5.38 -25.27,9.23z"/>
  <path class="fil2" d="M131.93 26.28c-13.49,-2.23 -37.14,-1.35 -50.36,1.43 -16.02,3.36 -27.13,7.85 -38.91,15.45 -6.54,4.23 -6.88,5.2 -11.49,8.73 -1.91,1.46 -1.29,2.54 -1.29,5.64 0.02,9.07 0,18.13 0,27.2 0,9.36 0.1,15.77 3.6,23.55 5.54,12.34 18.07,18.19 30,24l13.76 6.46c1.97,0.87 2.96,1.99 5.09,1.08 6.27,-2.68 12.67,-5.88 18.48,-8.74 12.56,-6.17 23.57,-11.73 28.72,-25.67 2.84,-7.69 2.41,-16.12 2.41,-24.73 0,-18.13 -0.01,-36.27 -0.01,-54.4z"/>
  <path class="fil1" d="M69.23 58.7l-0.02 63.67 9.66 0.05 0.13 -20.45c9.2,1.16 14.14,-1.46 17.69,-7.35 5.85,-9.72 5.95,-31.75 -6.41,-37.64 -7.2,-3.42 -15.04,-1.39 -21.05,1.72z"/>
  <path class="fil1" d="M64.18 98.32l0 -42.05 -9.75 0.05 0 36.87c-6.86,3 -9.81,0.34 -9.81,-6.99l0 -29.93 -9.73 0.01c0,8.4 -1.09,32.39 1.31,38.61 4.75,12.33 25.15,7.09 27.98,3.43z"/>
  <path class="fil1" d="M103.11 90.74l-0.01 8.68c4.46,4.18 21.13,6.03 24.43,-6.68 3.94,-15.16 -12.53,-17.94 -14.91,-22.44 -2.09,-3.96 0.73,-7.17 4.66,-7.3 4.89,-0.17 6.52,2.07 9.17,3.74l0.05 -7.74c-0.6,-2.73 -11.86,-6.28 -18.92,-0.88 -6.08,4.65 -7.42,14.82 0.58,21.03 3.83,2.98 9.45,4.86 10.07,9.01 0.6,4.1 -2.08,6.46 -6.09,6.34 -4.26,-0.12 -6.5,-2.31 -9.03,-3.76z"/>
  <path class="fil2" d="M79.04 63.77l-0.07 29.08c0.17,1.29 -0.15,1.21 1.55,1.51 10.89,1.91 10.53,-14.49 9.65,-21.77 -0.8,-6.64 -3.73,-11.15 -11.13,-8.82z"/>
 </g>
</svg>
