<?xml version="1.0" encoding="UTF-8"?>
<!DOCTYPE svg PUBLIC "-//W3C//DTD SVG 1.1//EN" "http://www.w3.org/Graphics/SVG/1.1/DTD/svg11.dtd">
<!-- Creator: CorelDRAW 2019 (64-Bit) -->
<svg xmlns="http://www.w3.org/2000/svg" xml:space="preserve" width="826px" height="1121px" version="1.1" style="shape-rendering:geometricPrecision; text-rendering:geometricPrecision; image-rendering:optimizeQuality; fill-rule:evenodd; clip-rule:evenodd"
viewBox="0 0 325.73 441.75"
 xmlns:xlink="http://www.w3.org/1999/xlink"
 xmlns:xodm="http://www.corel.com/coreldraw/odm/2003">
 <defs>
  <style type="text/css">
   <![CDATA[
    .str1 {stroke:#E6E7E8;stroke-width:0.82;stroke-miterlimit:2.61313}
    .str0 {stroke:#DFE1E5;stroke-width:0.82;stroke-miterlimit:2.61313}
    .fil0 {fill:none}
    .fil1 {fill:#FEFEFE}
    .fil13 {fill:#E6E7E8}
    .fil15 {fill:#00AFEF}
    .fil6 {fill:#1A74E8}
    .fil8 {fill:#35A854}
    .fil2 {fill:#3876E3}
    .fil9 {fill:#3B78E7}
    .fil3 {fill:#498AF4}
    .fil11 {fill:#767676}
    .fil5 {fill:#EA4435}
    .fil4 {fill:#F7B80A}
    .fil7 {fill:#FAFCFC}
    .fil12 {fill:#FBF5F5}
    .fil10 {fill:#FDFCFB}
    .fil16 {fill:#FEFEFE;fill-rule:nonzero}
    .fil17 {fill:#E6E7E8;fill-rule:nonzero}
    .fil14 {fill:#777777;fill-rule:nonzero}
   ]]>
  </style>
 </defs>
 <g id="Layer_x0020_1">
  <metadata id="CorelCorpID_0Corel-Layer"/>
  <rect class="fil0" width="325.73" height="441.75"/>
  <path class="fil1 str0" d="M284.22 89.63l0 -34.38c-85.19,0 -170.4,-0.11 -255.59,0 -6.86,0.01 -12.11,0.89 -16.48,6.79 -4.13,5.57 -4.75,12.58 -1.28,18.64 3.8,6.64 8.31,8.99 15.84,9.01 1.99,0.01 3.98,-0.05 5.96,-0.06 83.85,-0.01 167.7,0 251.55,0z"/>
  <path class="fil2" d="M302.09 75.26c-3.02,1.13 -5.26,2.21 -7.91,-0.66 -2.04,-2.8 -2.15,-6.01 0.73,-8.25 4.18,-3.25 10.77,0.3 8.44,6.77 -0.61,1.67 -0.79,0.85 1.17,2.58 1.18,1.04 2.37,2.09 3.21,3.43 -1.29,1.38 -1.13,1.18 -2.63,-0.23 -1.17,-1.09 -2.24,-2.23 -3.01,-3.64zm-19.81 15.09c6.59,0.01 13.79,0.29 20.3,-0.03 19.49,-1.38 22.41,-29.22 3.58,-35.03 -3.43,-1.05 -16.46,-0.62 -21.01,-0.6 -0.97,0 -1.94,0.01 -2.91,0 0.01,7.41 0.02,14.81 0.02,22.22 0.01,4.48 0.01,8.96 0.02,13.44z"/>
  <path class="fil3" d="M139.89 27.08c-0.21,6.63 -11.15,7.28 -13.15,0.4 -1.07,-3.64 0.42,-6.95 3.09,-8.54 1.17,-0.7 2.81,-1.21 4.65,-0.97 2.11,0.29 2.35,1.12 3.99,1.69 0.8,-0.56 1.13,-0.68 1.58,-1.78 -1.14,-1.63 -3.92,-2.65 -6.11,-2.7 -8,-0.18 -12.85,7.87 -9.56,14.4 4.89,9.7 20.63,5.84 18.21,-5.26l-9.11 0.13 0.02 2.49 6.39 0.14z"/>
  <path class="fil3" d="M176.96 25.08c4.5,-1.71 5.96,6.15 2.03,7.33 -4.47,1.35 -6.39,-5.67 -2.03,-7.33zm3.63 -1.82c-3.87,-3.07 -9.26,1.03 -8.85,6.14 0.2,2.46 1.76,4.19 3.2,5.02 2.93,1.68 4.13,0.31 6.2,-0.44 0.23,4.96 -4.54,5.77 -6.5,2.19l-2.35 0.73c0.55,4.43 7.93,5.58 10.56,1.43 1.34,-2.11 1.04,-4.44 1.04,-7.41 0,-1.98 0.23,-6.63 -0.17,-8.28 -3.22,-0.17 -2.06,0.4 -3.13,0.62z"/>
  <path class="fil4" d="M163.32 25.08c4.6,-1.62 6.31,5.81 2.3,7.26 -4.72,1.71 -7.08,-5.58 -2.3,-7.26zm-5.35 4.93c1.48,7.83 13.97,6.31 12.66,-2.38 -1.26,-8.33 -14.29,-6.24 -12.66,2.38z"/>
  <path class="fil5" d="M146.98 30.01c-1.44,-5.5 5.66,-6.89 6.84,-2.63 1.54,5.56 -5.7,6.97 -6.84,2.63zm-2.92 0c1.47,7.64 13.98,6.48 12.65,-2.39 -1.23,-8.32 -14.3,-6.2 -12.65,2.39z"/>
  <path class="fil5" d="M192.21 28.37c-0.43,-2.95 3.19,-4.8 5.34,-2.61 -0.34,0.88 -0.03,0.5 -1.11,0.99l-4.23 1.62zm0.64 2.1c1.96,-0.7 6.97,-2.53 8.03,-3.49 -1.11,-6.4 -10.94,-6.18 -11.58,0.89 -0.66,7.42 8.13,9.56 11.58,4.44l-2.11 -1.31c-1,0.84 -1.36,1.52 -3.03,1.57 -1.82,0.06 -2.65,-0.54 -2.89,-2.1z"/>
  <polygon class="fil6" points="52.98,123.36 6.95,123.36 7,125.13 52.92,125.12 "/>
  <path class="fil7" d="M296.81 67.37c4.78,-2.33 7.55,4.89 3.22,6.93 -4.39,2.07 -8.23,-4.49 -3.22,-6.93zm5.28 7.89c0.76,1.65 3.37,4.06 4.55,4.96l1.14 -1.1c-0.54,-1 -1.45,-1.67 -2.29,-2.51l-2.62 -2.35c3.96,-7.56 -4.66,-11.73 -8.67,-7.3 -1.95,2.16 -2.02,5.49 -0.02,7.64 2.65,2.87 4.89,1.79 7.91,0.66z"/>
  <polygon class="fil8" points="185.34,34.71 188.21,34.75 188.06,15.82 185.29,15.98 "/>
  <path class="fil9" d="M296.81 67.37c-5.01,2.44 -1.17,9 3.22,6.93 4.33,-2.04 1.56,-9.26 -3.22,-6.93z"/>
  <path class="fil10" d="M146.98 30.01c1.14,4.34 8.38,2.93 6.84,-2.63 -1.18,-4.26 -8.28,-2.87 -6.84,2.63z"/>
  <path class="fil11" d="M258.48 68.47c1.27,1.43 2.2,2.51 3.37,4.05 -0.68,0.71 -2.8,2.76 -3.41,3.64l1.19 1.04 3.58 -3.46c1.54,1.3 2.62,2.4 3.74,3.42 0.61,-0.41 0.85,-0.65 1.23,-0.99 -0.66,-0.98 -2.55,-2.92 -3.36,-3.68l3.31 -3.64 -1.13 -1.57c-1.38,1.12 -2.37,2.35 -3.69,3.39l-3.54 -3.43 -1.29 1.23z"/>
  <path class="fil10" d="M163.32 25.08c-4.78,1.68 -2.42,8.97 2.3,7.26 4.01,-1.45 2.3,-8.88 -2.3,-7.26z"/>
  <path class="fil7" d="M176.96 25.08c-4.36,1.66 -2.44,8.68 2.03,7.33 3.93,-1.18 2.47,-9.04 -2.03,-7.33z"/>
  <polygon class="fil11" points="18.18,26.93 33.86,26.88 33.88,26.38 33.94,25.19 18.25,25.24 "/>
  <polygon class="fil11" points="18.23,31.27 33.9,31.2 33.94,29.53 18.3,29.56 "/>
  <polygon class="fil11" points="18.31,22.56 33.81,22.56 33.78,20.85 18.29,20.92 "/>
  <path class="fil12" d="M192.21 28.37l4.23 -1.62c1.08,-0.49 0.77,-0.11 1.11,-0.99 -2.15,-2.19 -5.77,-0.34 -5.34,2.61z"/>
  <circle class="fil13" cx="301.07" cy="23.69" r="13.67"/>
  <path class="fil14" d="M19.79 113.45l3.16 -8.23 1.2 0 3.35 8.23 -1.24 0 -0.95 -2.49 -3.47 0 -0.89 2.49 -1.16 0zm2.37 -3.38l2.81 0 -0.86 -2.28c-0.26,-0.69 -0.45,-1.27 -0.59,-1.72 -0.11,0.54 -0.26,1.07 -0.45,1.59l-0.91 2.41z"/>
  <polygon id="1" class="fil14" points="28.32,113.45 28.32,105.22 29.41,105.22 29.41,112.49 33.46,112.49 33.46,113.45 "/>
  <polygon id="2" class="fil14" points="34.71,113.45 34.71,105.22 35.81,105.22 35.81,112.49 39.85,112.49 39.85,113.45 "/>
  <path id="3" class="fil14" d="M69.43 113.45l0 -8.23 3.09 0c0.63,0 1.13,0.08 1.51,0.25 0.38,0.17 0.68,0.42 0.89,0.77 0.22,0.34 0.33,0.71 0.33,1.09 0,0.35 -0.1,0.68 -0.29,0.99 -0.19,0.31 -0.47,0.56 -0.86,0.75 0.5,0.15 0.88,0.4 1.15,0.75 0.27,0.35 0.4,0.77 0.4,1.25 0,0.38 -0.08,0.74 -0.24,1.07 -0.17,0.33 -0.37,0.59 -0.61,0.77 -0.24,0.18 -0.54,0.31 -0.9,0.4 -0.36,0.1 -0.8,0.14 -1.33,0.14l-3.14 0zm1.09 -4.77l1.78 0c0.49,0 0.83,-0.03 1.04,-0.09 0.28,-0.09 0.49,-0.22 0.63,-0.42 0.14,-0.19 0.21,-0.43 0.21,-0.72 0,-0.27 -0.07,-0.51 -0.2,-0.72 -0.13,-0.21 -0.32,-0.35 -0.56,-0.43 -0.24,-0.08 -0.66,-0.11 -1.25,-0.11l-1.65 0 0 2.49zm0 3.81l2.05 0c0.36,0 0.6,-0.02 0.75,-0.04 0.25,-0.05 0.46,-0.12 0.63,-0.23 0.16,-0.1 0.3,-0.26 0.41,-0.46 0.11,-0.2 0.16,-0.43 0.16,-0.69 0,-0.31 -0.07,-0.58 -0.23,-0.81 -0.16,-0.22 -0.38,-0.38 -0.66,-0.47 -0.28,-0.1 -0.68,-0.14 -1.2,-0.14l-1.91 0 0 2.84z"/>
  <path id="4" class="fil14" d="M76.81 109.45c0,-1.37 0.37,-2.44 1.1,-3.21 0.74,-0.77 1.68,-1.16 2.85,-1.16 0.76,0 1.44,0.18 2.05,0.55 0.61,0.36 1.08,0.86 1.4,1.51 0.32,0.65 0.48,1.39 0.48,2.21 0,0.83 -0.17,1.58 -0.51,2.24 -0.33,0.66 -0.81,1.16 -1.43,1.49 -0.62,0.34 -1.28,0.51 -2,0.51 -0.78,0 -1.47,-0.19 -2.08,-0.56 -0.61,-0.37 -1.07,-0.88 -1.39,-1.53 -0.31,-0.65 -0.47,-1.33 -0.47,-2.05zm1.13 0.01c0,1 0.27,1.78 0.8,2.35 0.53,0.56 1.2,0.85 2,0.85 0.82,0 1.5,-0.29 2.03,-0.86 0.53,-0.58 0.79,-1.39 0.79,-2.45 0,-0.67 -0.11,-1.25 -0.34,-1.75 -0.22,-0.5 -0.56,-0.89 -0.99,-1.16 -0.44,-0.28 -0.93,-0.41 -1.47,-0.41 -0.77,0 -1.43,0.26 -1.99,0.79 -0.55,0.53 -0.83,1.41 -0.83,2.64z"/>
  <path id="5" class="fil14" d="M85.76 109.45c0,-1.37 0.36,-2.44 1.1,-3.21 0.73,-0.77 1.68,-1.16 2.84,-1.16 0.76,0 1.44,0.18 2.06,0.55 0.6,0.36 1.07,0.86 1.39,1.51 0.32,0.65 0.48,1.39 0.48,2.21 0,0.83 -0.17,1.58 -0.5,2.24 -0.34,0.66 -0.82,1.16 -1.44,1.49 -0.62,0.34 -1.28,0.51 -2,0.51 -0.77,0 -1.46,-0.19 -2.08,-0.56 -0.6,-0.37 -1.07,-0.88 -1.38,-1.53 -0.32,-0.65 -0.47,-1.33 -0.47,-2.05zm1.12 0.01c0,1 0.27,1.78 0.8,2.35 0.53,0.56 1.2,0.85 2.01,0.85 0.82,0 1.49,-0.29 2.02,-0.86 0.53,-0.58 0.79,-1.39 0.79,-2.45 0,-0.67 -0.11,-1.25 -0.33,-1.75 -0.23,-0.5 -0.56,-0.89 -1,-1.16 -0.43,-0.28 -0.92,-0.41 -1.46,-0.41 -0.78,0 -1.44,0.26 -1.99,0.79 -0.56,0.53 -0.84,1.41 -0.84,2.64z"/>
  <polygon id="6" class="fil14" points="94.99,113.45 94.99,105.22 96.08,105.22 96.08,109.3 100.17,105.22 101.64,105.22 98.19,108.56 101.79,113.45 100.36,113.45 97.43,109.3 96.08,110.6 96.08,113.45 "/>
  <path id="7" class="fil14" d="M102.34 110.81l1.03 -0.09c0.05,0.41 0.16,0.75 0.34,1.02 0.18,0.26 0.45,0.47 0.82,0.64 0.38,0.16 0.8,0.24 1.27,0.24 0.41,0 0.78,-0.06 1.1,-0.18 0.32,-0.13 0.55,-0.3 0.71,-0.51 0.15,-0.22 0.23,-0.45 0.23,-0.71 0,-0.25 -0.07,-0.48 -0.22,-0.67 -0.15,-0.19 -0.4,-0.35 -0.75,-0.49 -0.22,-0.08 -0.7,-0.22 -1.46,-0.4 -0.76,-0.18 -1.29,-0.35 -1.59,-0.51 -0.39,-0.21 -0.68,-0.46 -0.88,-0.77 -0.19,-0.3 -0.28,-0.65 -0.28,-1.02 0,-0.42 0.11,-0.81 0.35,-1.17 0.24,-0.36 0.58,-0.64 1.03,-0.83 0.45,-0.18 0.96,-0.28 1.51,-0.28 0.61,0 1.15,0.1 1.62,0.3 0.46,0.19 0.82,0.48 1.07,0.87 0.25,0.38 0.39,0.81 0.41,1.29l-1.05 0.08c-0.06,-0.52 -0.25,-0.91 -0.57,-1.17 -0.32,-0.27 -0.8,-0.4 -1.44,-0.4 -0.65,0 -1.14,0.12 -1.44,0.36 -0.3,0.24 -0.45,0.53 -0.45,0.87 0,0.3 0.11,0.54 0.32,0.73 0.21,0.19 0.76,0.39 1.64,0.59 0.89,0.2 1.5,0.38 1.83,0.53 0.47,0.22 0.83,0.49 1.06,0.83 0.22,0.34 0.34,0.73 0.34,1.17 0,0.44 -0.13,0.85 -0.38,1.24 -0.25,0.38 -0.61,0.68 -1.08,0.9 -0.47,0.21 -0.99,0.32 -1.58,0.32 -0.75,0 -1.37,-0.11 -1.87,-0.32 -0.5,-0.22 -0.9,-0.55 -1.18,-0.98 -0.29,-0.44 -0.44,-0.93 -0.46,-1.48z"/>
  <polygon id="8" class="fil14" points="132.92,113.45 132.92,105.22 134.01,105.22 134.01,113.45 "/>
  <path id="9" class="fil14" d="M135.9 113.45l0 -8.23 1.64 0 1.94 5.83c0.18,0.54 0.31,0.95 0.39,1.22 0.1,-0.3 0.25,-0.74 0.45,-1.32l1.98 -5.73 1.46 0 0 8.23 -1.05 0 0 -6.88 -2.4 6.88 -0.99 0 -2.37 -7.01 0 7.01 -1.05 0z"/>
  <path id="10" class="fil14" d="M144.6 113.45l3.16 -8.23 1.2 0 3.35 8.23 -1.24 0 -0.95 -2.49 -3.47 0 -0.89 2.49 -1.16 0zm2.37 -3.38l2.8 0 -0.85 -2.28c-0.26,-0.69 -0.46,-1.27 -0.59,-1.72 -0.12,0.54 -0.27,1.07 -0.46,1.59l-0.9 2.41z"/>
  <path id="11" class="fil14" d="M157.02 110.22l0 -0.96 3.49 0 0 3.05c-0.54,0.42 -1.09,0.74 -1.66,0.96 -0.57,0.21 -1.15,0.32 -1.75,0.32 -0.81,0 -1.54,-0.17 -2.2,-0.52 -0.66,-0.34 -1.16,-0.85 -1.5,-1.5 -0.34,-0.65 -0.5,-1.39 -0.5,-2.19 0,-0.8 0.16,-1.55 0.5,-2.25 0.33,-0.69 0.81,-1.21 1.44,-1.54 0.63,-0.34 1.36,-0.51 2.18,-0.51 0.59,0 1.13,0.1 1.61,0.29 0.48,0.2 0.86,0.46 1.13,0.81 0.27,0.34 0.48,0.79 0.62,1.35l-0.98 0.26c-0.13,-0.41 -0.28,-0.74 -0.46,-0.98 -0.18,-0.24 -0.45,-0.44 -0.79,-0.58 -0.34,-0.14 -0.71,-0.22 -1.13,-0.22 -0.5,0 -0.92,0.08 -1.29,0.23 -0.36,0.15 -0.65,0.35 -0.88,0.6 -0.22,0.25 -0.39,0.52 -0.51,0.82 -0.21,0.51 -0.32,1.06 -0.32,1.66 0,0.73 0.13,1.35 0.38,1.84 0.25,0.5 0.62,0.87 1.1,1.1 0.48,0.24 1,0.36 1.54,0.36 0.47,0 0.93,-0.09 1.38,-0.27 0.45,-0.18 0.79,-0.38 1.02,-0.59l0 -1.54 -2.42 0z"/>
  <polygon id="12" class="fil14" points="162.14,113.45 162.14,105.22 168.08,105.22 168.08,106.19 163.23,106.19 163.23,108.72 167.77,108.72 167.77,109.68 163.23,109.68 163.23,112.49 168.28,112.49 168.28,113.45 "/>
  <path id="13" class="fil14" d="M169.43 110.81l1.02 -0.09c0.05,0.41 0.16,0.75 0.34,1.02 0.18,0.26 0.45,0.47 0.83,0.64 0.37,0.16 0.79,0.24 1.26,0.24 0.42,0 0.78,-0.06 1.1,-0.18 0.32,-0.13 0.55,-0.3 0.71,-0.51 0.15,-0.22 0.23,-0.45 0.23,-0.71 0,-0.25 -0.07,-0.48 -0.22,-0.67 -0.15,-0.19 -0.4,-0.35 -0.74,-0.49 -0.22,-0.08 -0.71,-0.22 -1.47,-0.4 -0.76,-0.18 -1.28,-0.35 -1.59,-0.51 -0.39,-0.21 -0.68,-0.46 -0.87,-0.77 -0.2,-0.3 -0.29,-0.65 -0.29,-1.02 0,-0.42 0.12,-0.81 0.35,-1.17 0.24,-0.36 0.58,-0.64 1.03,-0.83 0.46,-0.18 0.96,-0.28 1.51,-0.28 0.61,0 1.15,0.1 1.62,0.3 0.46,0.19 0.82,0.48 1.07,0.87 0.25,0.38 0.39,0.81 0.41,1.29l-1.05 0.08c-0.05,-0.52 -0.24,-0.91 -0.57,-1.17 -0.32,-0.27 -0.8,-0.4 -1.43,-0.4 -0.66,0 -1.14,0.12 -1.44,0.36 -0.3,0.24 -0.46,0.53 -0.46,0.87 0,0.3 0.11,0.54 0.32,0.73 0.21,0.19 0.76,0.39 1.65,0.59 0.88,0.2 1.49,0.38 1.82,0.53 0.48,0.22 0.83,0.49 1.06,0.83 0.23,0.34 0.34,0.73 0.34,1.17 0,0.44 -0.13,0.85 -0.38,1.24 -0.25,0.38 -0.61,0.68 -1.08,0.9 -0.46,0.21 -0.99,0.32 -1.58,0.32 -0.74,0 -1.37,-0.11 -1.87,-0.32 -0.5,-0.22 -0.9,-0.55 -1.18,-0.98 -0.29,-0.44 -0.44,-0.93 -0.45,-1.48z"/>
  <path id="14" class="fil14" d="M202.16 113.45l-3.18 -8.23 1.18 0 2.14 5.98c0.17,0.48 0.31,0.93 0.43,1.35 0.12,-0.45 0.27,-0.9 0.44,-1.35l2.22 -5.98 1.11 0 -3.21 8.23 -1.13 0z"/>
  <polygon id="15" class="fil14" points="207.67,113.45 207.67,105.22 208.76,105.22 208.76,113.45 "/>
  <path id="16" class="fil14" d="M210.68 113.45l0 -8.23 2.83 0c0.64,0 1.13,0.04 1.47,0.12 0.47,0.11 0.87,0.3 1.21,0.59 0.43,0.37 0.75,0.83 0.97,1.4 0.22,0.58 0.32,1.23 0.32,1.96 0,0.63 -0.07,1.18 -0.22,1.66 -0.14,0.49 -0.33,0.89 -0.56,1.2 -0.23,0.32 -0.48,0.57 -0.75,0.75 -0.27,0.18 -0.6,0.32 -0.98,0.41 -0.38,0.1 -0.82,0.14 -1.32,0.14l-2.97 0zm1.09 -0.96l1.75 0c0.55,0 0.97,-0.05 1.28,-0.15 0.31,-0.11 0.55,-0.25 0.74,-0.43 0.25,-0.26 0.46,-0.61 0.6,-1.05 0.14,-0.43 0.22,-0.96 0.22,-1.58 0,-0.87 -0.15,-1.53 -0.43,-1.99 -0.28,-0.47 -0.62,-0.78 -1.03,-0.93 -0.29,-0.12 -0.76,-0.17 -1.4,-0.17l-1.73 0 0 6.3z"/>
  <polygon id="17" class="fil14" points="219,113.45 219,105.22 224.95,105.22 224.95,106.19 220.09,106.19 220.09,108.72 224.64,108.72 224.64,109.68 220.09,109.68 220.09,112.49 225.14,112.49 225.14,113.45 "/>
  <path id="18" class="fil14" d="M226.31 109.45c0,-1.37 0.37,-2.44 1.11,-3.21 0.73,-0.77 1.68,-1.16 2.84,-1.16 0.76,0 1.44,0.18 2.05,0.55 0.61,0.36 1.08,0.86 1.4,1.51 0.32,0.65 0.48,1.39 0.48,2.21 0,0.83 -0.17,1.58 -0.51,2.24 -0.33,0.66 -0.81,1.16 -1.43,1.49 -0.62,0.34 -1.28,0.51 -2,0.51 -0.77,0 -1.47,-0.19 -2.08,-0.56 -0.61,-0.37 -1.07,-0.88 -1.38,-1.53 -0.32,-0.65 -0.48,-1.33 -0.48,-2.05zm1.13 0.01c0,1 0.27,1.78 0.8,2.35 0.53,0.56 1.2,0.85 2.01,0.85 0.82,0 1.49,-0.29 2.02,-0.86 0.53,-0.58 0.79,-1.39 0.79,-2.45 0,-0.67 -0.11,-1.25 -0.34,-1.75 -0.22,-0.5 -0.55,-0.89 -0.99,-1.16 -0.43,-0.28 -0.92,-0.41 -1.47,-0.41 -0.77,0 -1.43,0.26 -1.98,0.79 -0.56,0.53 -0.84,1.41 -0.84,2.64z"/>
  <path id="19" class="fil14" d="M235.24 110.81l1.02 -0.09c0.05,0.41 0.16,0.75 0.34,1.02 0.18,0.26 0.45,0.47 0.83,0.64 0.37,0.16 0.79,0.24 1.26,0.24 0.41,0 0.78,-0.06 1.1,-0.18 0.32,-0.13 0.55,-0.3 0.71,-0.51 0.15,-0.22 0.23,-0.45 0.23,-0.71 0,-0.25 -0.07,-0.48 -0.22,-0.67 -0.15,-0.19 -0.4,-0.35 -0.75,-0.49 -0.22,-0.08 -0.7,-0.22 -1.46,-0.4 -0.76,-0.18 -1.29,-0.35 -1.59,-0.51 -0.39,-0.21 -0.68,-0.46 -0.88,-0.77 -0.19,-0.3 -0.28,-0.65 -0.28,-1.02 0,-0.42 0.11,-0.81 0.35,-1.17 0.24,-0.36 0.58,-0.64 1.03,-0.83 0.46,-0.18 0.96,-0.28 1.51,-0.28 0.61,0 1.15,0.1 1.62,0.3 0.46,0.19 0.82,0.48 1.07,0.87 0.25,0.38 0.39,0.81 0.41,1.29l-1.05 0.08c-0.06,-0.52 -0.25,-0.91 -0.57,-1.17 -0.32,-0.27 -0.8,-0.4 -1.44,-0.4 -0.65,0 -1.14,0.12 -1.44,0.36 -0.3,0.24 -0.45,0.53 -0.45,0.87 0,0.3 0.11,0.54 0.32,0.73 0.21,0.19 0.76,0.39 1.64,0.59 0.89,0.2 1.5,0.38 1.83,0.53 0.47,0.22 0.83,0.49 1.06,0.83 0.22,0.34 0.34,0.73 0.34,1.17 0,0.44 -0.13,0.85 -0.38,1.24 -0.25,0.38 -0.61,0.68 -1.08,0.9 -0.47,0.21 -0.99,0.32 -1.58,0.32 -0.75,0 -1.37,-0.11 -1.87,-0.32 -0.5,-0.22 -0.9,-0.55 -1.18,-0.98 -0.29,-0.44 -0.44,-0.93 -0.45,-1.48z"/>
  <polygon id="20" class="fil14" points="265.61,113.45 265.61,105.22 266.73,105.22 271.05,111.68 271.05,105.22 272.09,105.22 272.09,113.45 270.98,113.45 266.66,106.99 266.66,113.45 "/>
  <polygon id="21" class="fil14" points="273.95,113.45 273.95,105.22 279.89,105.22 279.89,106.19 275.04,106.19 275.04,108.72 279.58,108.72 279.58,109.68 275.04,109.68 275.04,112.49 280.09,112.49 280.09,113.45 "/>
  <path id="22" class="fil14" d="M283.01 113.45l-2.16 -8.23 1.13 0 1.23 5.4c0.13,0.56 0.25,1.13 0.35,1.68 0.22,-0.88 0.35,-1.38 0.38,-1.52l1.56 -5.56 1.31 0 1.18 4.17c0.29,1.03 0.51,2 0.65,2.91 0.1,-0.52 0.24,-1.11 0.42,-1.79l1.28 -5.29 1.1 0 -2.26 8.23 -1.06 0 -1.72 -6.27c-0.15,-0.52 -0.24,-0.85 -0.27,-0.96 -0.09,0.37 -0.18,0.69 -0.25,0.96l-1.73 6.27 -1.14 0z"/>
  <path id="23" class="fil14" d="M292.09 110.81l1.02 -0.09c0.05,0.41 0.16,0.75 0.34,1.02 0.18,0.26 0.46,0.47 0.83,0.64 0.37,0.16 0.79,0.24 1.26,0.24 0.42,0 0.78,-0.06 1.1,-0.18 0.32,-0.13 0.56,-0.3 0.71,-0.51 0.16,-0.22 0.23,-0.45 0.23,-0.71 0,-0.25 -0.07,-0.48 -0.22,-0.67 -0.15,-0.19 -0.4,-0.35 -0.74,-0.49 -0.22,-0.08 -0.71,-0.22 -1.47,-0.4 -0.75,-0.18 -1.28,-0.35 -1.59,-0.51 -0.39,-0.21 -0.68,-0.46 -0.87,-0.77 -0.2,-0.3 -0.29,-0.65 -0.29,-1.02 0,-0.42 0.12,-0.81 0.35,-1.17 0.24,-0.36 0.58,-0.64 1.04,-0.83 0.45,-0.18 0.95,-0.28 1.51,-0.28 0.61,0 1.14,0.1 1.61,0.3 0.47,0.19 0.82,0.48 1.07,0.87 0.26,0.38 0.39,0.81 0.41,1.29l-1.05 0.08c-0.05,-0.52 -0.24,-0.91 -0.57,-1.17 -0.32,-0.27 -0.8,-0.4 -1.43,-0.4 -0.66,0 -1.14,0.12 -1.44,0.36 -0.3,0.24 -0.45,0.53 -0.45,0.87 0,0.3 0.1,0.54 0.31,0.73 0.22,0.19 0.76,0.39 1.65,0.59 0.88,0.2 1.49,0.38 1.82,0.53 0.48,0.22 0.83,0.49 1.06,0.83 0.23,0.34 0.34,0.73 0.34,1.17 0,0.44 -0.12,0.85 -0.38,1.24 -0.25,0.38 -0.6,0.68 -1.07,0.9 -0.47,0.21 -1,0.32 -1.59,0.32 -0.74,0 -1.37,-0.11 -1.87,-0.32 -0.5,-0.22 -0.89,-0.55 -1.18,-0.98 -0.29,-0.44 -0.44,-0.93 -0.45,-1.48z"/>
  <rect class="fil13" x="14.86" y="322.57" width="58.06" height="14.28" rx="1.09" ry="4.53"/>
  <rect class="fil13" x="14.86" y="343.54" width="264.69" height="10.14" rx="4.97" ry="3.22"/>
  <rect class="fil13" x="14.86" y="381.34" width="213.69" height="10.14" rx="4.02" ry="3.22"/>
  <rect class="fil13" x="14.86" y="362.44" width="264.69" height="10.14" rx="4.97" ry="3.22"/>
  <rect class="fil15" x="21.35" y="159.53" width="137.97" height="123.19" rx="9.31" ry="9.31"/>
  <circle class="fil1" cx="40.12" cy="178.05" r="10.47"/>
  <rect class="fil1" x="57.49" y="173.54" width="64.77" height="10.14" rx="1.22" ry="3.22"/>
  <rect class="fil1" x="41.1" y="203.23" width="40.08" height="18.02" rx="0.42" ry="3.22"/>
  <rect class="fil1" x="33.46" y="232.42" width="48.51" height="10.14" rx="0.91" ry="3.22"/>
  <rect class="fil1" x="33.59" y="246.34" width="64.77" height="7.67" rx="1.61" ry="3.22"/>
  <line class="fil0 str1" x1="85.86" y1="212.32" x2="94.54" y2= "212.32" />
  <path class="fil16" d="M33.96 221.77l0 -1.85c-0.92,-0.11 -1.67,-0.32 -2.25,-0.62 -0.57,-0.29 -1.07,-0.78 -1.49,-1.44 -0.42,-0.66 -0.66,-1.47 -0.73,-2.43l1.85 -0.35c0.14,0.99 0.39,1.72 0.75,2.19 0.52,0.66 1.15,1.02 1.87,1.1l0 -5.8c-0.76,-0.19 -1.53,-0.51 -2.32,-0.96 -0.59,-0.32 -1.04,-0.78 -1.36,-1.36 -0.32,-0.58 -0.48,-1.24 -0.48,-1.98 0,-1.31 0.47,-2.37 1.4,-3.19 0.62,-0.55 1.54,-0.88 2.76,-1l0 -0.89 1.09 0 0 0.89c1.07,0.1 1.91,0.42 2.54,0.94 0.8,0.68 1.28,1.6 1.45,2.77l-1.89 0.3c-0.11,-0.74 -0.34,-1.3 -0.68,-1.69 -0.34,-0.39 -0.82,-0.64 -1.42,-0.77l0 5.32c0.93,0.23 1.54,0.42 1.84,0.55 0.57,0.25 1.04,0.56 1.4,0.92 0.36,0.36 0.64,0.79 0.84,1.29 0.19,0.5 0.29,1.04 0.29,1.62 0,1.28 -0.41,2.34 -1.22,3.2 -0.81,0.86 -1.86,1.31 -3.15,1.37l0 1.87 -1.09 0zm0 -16.16c-0.71,0.11 -1.28,0.39 -1.69,0.86 -0.41,0.47 -0.62,1.02 -0.62,1.65 0,0.63 0.18,1.16 0.53,1.59 0.35,0.42 0.94,0.74 1.78,0.96l0 -5.06zm1.09 12.76c0.72,-0.09 1.31,-0.4 1.78,-0.93 0.46,-0.53 0.7,-1.2 0.7,-1.98 0,-0.67 -0.17,-1.21 -0.5,-1.62 -0.33,-0.4 -0.99,-0.73 -1.98,-0.99l0 5.52z"/>
  <path class="fil16" d="M103.5 221.4l0 -1.85c-0.92,-0.11 -1.67,-0.32 -2.25,-0.61 -0.57,-0.3 -1.07,-0.78 -1.49,-1.45 -0.42,-0.66 -0.66,-1.47 -0.73,-2.43l1.85 -0.35c0.14,0.99 0.39,1.72 0.76,2.19 0.51,0.66 1.14,1.02 1.86,1.1l0 -5.8c-0.76,-0.19 -1.53,-0.51 -2.32,-0.96 -0.59,-0.32 -1.04,-0.78 -1.36,-1.36 -0.32,-0.58 -0.48,-1.24 -0.48,-1.98 0,-1.31 0.47,-2.37 1.4,-3.19 0.62,-0.54 1.54,-0.88 2.76,-1l0 -0.88 1.09 0 0 0.88c1.07,0.1 1.92,0.42 2.54,0.94 0.8,0.68 1.29,1.6 1.45,2.77l-1.89 0.3c-0.11,-0.74 -0.34,-1.3 -0.68,-1.69 -0.34,-0.39 -0.82,-0.64 -1.42,-0.77l0 5.32c0.93,0.24 1.54,0.42 1.84,0.55 0.58,0.25 1.04,0.56 1.4,0.92 0.37,0.36 0.64,0.79 0.84,1.3 0.19,0.49 0.29,1.03 0.29,1.61 0,1.28 -0.41,2.35 -1.22,3.2 -0.81,0.86 -1.86,1.31 -3.15,1.37l0 1.87 -1.09 0zm0 -16.16c-0.71,0.11 -1.28,0.39 -1.69,0.86 -0.41,0.47 -0.62,1.02 -0.62,1.65 0,0.63 0.18,1.16 0.53,1.59 0.35,0.42 0.94,0.74 1.78,0.96l0 -5.06zm1.09 12.76c0.72,-0.09 1.31,-0.4 1.78,-0.93 0.46,-0.53 0.7,-1.2 0.7,-1.98 0,-0.67 -0.17,-1.21 -0.5,-1.62 -0.33,-0.4 -0.99,-0.73 -1.98,-0.99l0 5.52z"/>
  <rect class="fil1" x="110.83" y="202.98" width="40.08" height="18.02" rx="0.42" ry="3.22"/>
  <rect class="fil0 str1" x="174.1" y="159.53" width="137.97" height="123.19" rx="9.31" ry="9.31"/>
  <circle class="fil13" cx="192.88" cy="178.05" r="10.47"/>
  <rect class="fil13" x="210.24" y="173.54" width="64.77" height="10.14" rx="1.22" ry="3.22"/>
  <rect class="fil13" x="193.86" y="203.23" width="40.08" height="18.02" rx="0.42" ry="3.22"/>
  <rect class="fil13" x="186.22" y="232.42" width="48.51" height="10.14" rx="0.91" ry="3.22"/>
  <rect class="fil13" x="186.34" y="246.34" width="64.77" height="7.67" rx="1.61" ry="3.22"/>
  <line class="fil0 str1" x1="238.61" y1="212.32" x2="247.3" y2= "212.32" />
  <path class="fil17" d="M186.71 221.77l0 -1.85c-0.92,-0.11 -1.67,-0.32 -2.24,-0.62 -0.58,-0.29 -1.08,-0.78 -1.5,-1.44 -0.42,-0.66 -0.66,-1.47 -0.73,-2.43l1.85 -0.35c0.14,0.99 0.39,1.72 0.76,2.19 0.52,0.66 1.14,1.02 1.86,1.1l0 -5.8c-0.76,-0.19 -1.53,-0.51 -2.32,-0.96 -0.59,-0.32 -1.04,-0.78 -1.36,-1.36 -0.32,-0.58 -0.47,-1.24 -0.47,-1.98 0,-1.31 0.46,-2.37 1.39,-3.19 0.62,-0.55 1.54,-0.88 2.76,-1l0 -0.89 1.09 0 0 0.89c1.07,0.1 1.92,0.42 2.54,0.94 0.81,0.68 1.29,1.6 1.45,2.77l-1.89 0.3c-0.1,-0.74 -0.33,-1.3 -0.68,-1.69 -0.34,-0.39 -0.81,-0.64 -1.42,-0.77l0 5.32c0.93,0.23 1.54,0.42 1.85,0.55 0.57,0.25 1.03,0.56 1.39,0.92 0.37,0.36 0.64,0.79 0.84,1.29 0.19,0.5 0.29,1.04 0.29,1.62 0,1.28 -0.4,2.34 -1.22,3.2 -0.81,0.86 -1.86,1.31 -3.15,1.37l0 1.87 -1.09 0zm0 -16.16c-0.71,0.11 -1.28,0.39 -1.69,0.86 -0.41,0.47 -0.62,1.02 -0.62,1.65 0,0.63 0.18,1.16 0.53,1.59 0.35,0.42 0.94,0.74 1.78,0.96l0 -5.06zm1.09 12.76c0.72,-0.09 1.31,-0.4 1.78,-0.93 0.47,-0.53 0.7,-1.2 0.7,-1.98 0,-0.67 -0.16,-1.21 -0.49,-1.62 -0.34,-0.4 -1,-0.73 -1.99,-0.99l0 5.52z"/>
  <path class="fil17" d="M256.25 221.4l0 -1.85c-0.92,-0.11 -1.66,-0.32 -2.24,-0.61 -0.58,-0.3 -1.08,-0.78 -1.5,-1.45 -0.42,-0.66 -0.66,-1.47 -0.73,-2.43l1.85 -0.35c0.14,0.99 0.4,1.72 0.76,2.19 0.52,0.66 1.14,1.02 1.86,1.1l0 -5.8c-0.76,-0.19 -1.53,-0.51 -2.32,-0.96 -0.59,-0.32 -1.04,-0.78 -1.36,-1.36 -0.31,-0.58 -0.47,-1.24 -0.47,-1.98 0,-1.31 0.46,-2.37 1.39,-3.19 0.62,-0.54 1.54,-0.88 2.76,-1l0 -0.88 1.1 0 0 0.88c1.06,0.1 1.91,0.42 2.54,0.94 0.8,0.68 1.28,1.6 1.44,2.77l-1.88 0.3c-0.11,-0.74 -0.34,-1.3 -0.69,-1.69 -0.34,-0.39 -0.81,-0.64 -1.41,-0.77l0 5.32c0.92,0.24 1.53,0.42 1.84,0.55 0.57,0.25 1.03,0.56 1.4,0.92 0.36,0.36 0.64,0.79 0.83,1.3 0.19,0.49 0.29,1.03 0.29,1.61 0,1.28 -0.4,2.35 -1.22,3.2 -0.81,0.86 -1.86,1.31 -3.14,1.37l0 1.87 -1.1 0zm0 -16.16c-0.71,0.11 -1.28,0.39 -1.69,0.86 -0.41,0.47 -0.61,1.02 -0.61,1.65 0,0.63 0.17,1.16 0.52,1.59 0.35,0.42 0.94,0.74 1.78,0.96l0 -5.06zm1.1 12.76c0.71,-0.09 1.3,-0.4 1.77,-0.93 0.47,-0.53 0.7,-1.2 0.7,-1.98 0,-0.67 -0.16,-1.21 -0.49,-1.62 -0.34,-0.4 -1,-0.73 -1.98,-0.99l0 5.52z"/>
  <rect class="fil13" x="263.58" y="202.98" width="40.08" height="18.02" rx="0.42" ry="3.22"/>
 </g>
</svg>
