<?xml version="1.0" encoding="UTF-8"?>
<!DOCTYPE svg PUBLIC "-//W3C//DTD SVG 1.1//EN" "http://www.w3.org/Graphics/SVG/1.1/DTD/svg11.dtd">
<!-- Creator: CorelDRAW 2019 (64-Bit) -->
<svg xmlns="http://www.w3.org/2000/svg" xml:space="preserve" width="826px" height="1121px" version="1.1" style="shape-rendering:geometricPrecision; text-rendering:geometricPrecision; image-rendering:optimizeQuality; fill-rule:evenodd; clip-rule:evenodd"
viewBox="0 0 145.4 197.19"
 xmlns:xlink="http://www.w3.org/1999/xlink"
 xmlns:xodm="http://www.corel.com/coreldraw/odm/2003"
 enable-background="new 0 0 512.017 512.017">
 <defs>
  <style type="text/css">
   <![CDATA[
    .str1 {stroke:#FEFEFE;stroke-width:0.37;stroke-miterlimit:2.61313}
    .str0 {stroke:#DFE1E5;stroke-width:0.37;stroke-miterlimit:2.61313}
    .fil0 {fill:none}
    .fil1 {fill:#FEFEFE}
    .fil13 {fill:#E6E7E8}
    .fil15 {fill:#00AFEF}
    .fil6 {fill:#1A74E8}
    .fil8 {fill:#35A854}
    .fil2 {fill:#3876E3}
    .fil9 {fill:#3B78E7}
    .fil3 {fill:#498AF4}
    .fil11 {fill:#767676}
    .fil5 {fill:#EA4435}
    .fil4 {fill:#F7B80A}
    .fil7 {fill:#FAFCFC}
    .fil12 {fill:#FBF5F5}
    .fil10 {fill:#FDFCFB}
    .fil14 {fill:#777777;fill-rule:nonzero}
   ]]>
  </style>
 </defs>
 <g id="Layer_x0020_1">
  <metadata id="CorelCorpID_0Corel-Layer"/>
  <rect class="fil0" width="145.4" height="197.19"/>
  <path class="fil1 str0" d="M126.87 40.01l0 -15.35c-38.03,0 -76.06,-0.05 -114.09,0 -3.06,0.01 -5.41,0.4 -7.36,3.03 -1.84,2.49 -2.12,5.62 -0.57,8.32 1.7,2.97 3.71,4.02 7.07,4.03 0.89,0 1.78,-0.03 2.67,-0.03 37.42,0 74.85,0 112.28,0z"/>
  <path class="fil2" d="M134.85 33.59c-1.35,0.51 -2.35,0.99 -3.54,-0.29 -0.91,-1.25 -0.96,-2.68 0.33,-3.68 1.87,-1.45 4.81,0.13 3.77,3.02 -0.27,0.74 -0.35,0.38 0.52,1.15 0.53,0.47 1.06,0.93 1.43,1.53 -0.57,0.62 -0.5,0.53 -1.17,-0.1 -0.52,-0.49 -1,-0.99 -1.34,-1.63zm-8.85 6.74c2.94,0 6.16,0.13 9.06,-0.01 8.7,-0.62 10.01,-13.05 1.6,-15.64 -1.53,-0.47 -7.35,-0.27 -9.38,-0.27 -0.43,0 -0.86,0 -1.29,0 0,3.31 0,6.61 0.01,9.92 0,2 0,4 0,6z"/>
  <path class="fil3" d="M62.44 12.09c-0.09,2.96 -4.97,3.25 -5.87,0.18 -0.47,-1.63 0.19,-3.11 1.38,-3.82 0.53,-0.31 1.26,-0.54 2.08,-0.43 0.94,0.13 1.05,0.5 1.78,0.76 0.36,-0.26 0.5,-0.31 0.7,-0.8 -0.5,-0.73 -1.75,-1.18 -2.72,-1.2 -3.58,-0.08 -5.74,3.51 -4.27,6.42 2.18,4.34 9.21,2.61 8.13,-2.34l-4.07 0.05 0.01 1.11 2.85 0.07z"/>
  <path class="fil3" d="M78.99 11.2c2.01,-0.77 2.66,2.74 0.91,3.27 -2,0.6 -2.86,-2.53 -0.91,-3.27zm1.62 -0.82c-1.72,-1.37 -4.13,0.46 -3.95,2.74 0.09,1.1 0.79,1.88 1.43,2.24 1.31,0.75 1.84,0.14 2.77,-0.19 0.1,2.21 -2.03,2.57 -2.91,0.97l-1.05 0.33c0.25,1.98 3.55,2.49 4.72,0.64 0.6,-0.94 0.46,-1.98 0.46,-3.31 0,-0.88 0.11,-2.96 -0.07,-3.69 -1.44,-0.08 -0.92,0.17 -1.4,0.27z"/>
  <path class="fil4" d="M72.9 11.19c2.06,-0.72 2.82,2.6 1.03,3.25 -2.11,0.76 -3.16,-2.5 -1.03,-3.25zm-2.39 2.2c0.66,3.5 6.24,2.82 5.65,-1.06 -0.56,-3.72 -6.37,-2.78 -5.65,1.06z"/>
  <path class="fil5" d="M65.61 13.39c-0.65,-2.45 2.52,-3.07 3.05,-1.17 0.69,2.48 -2.54,3.11 -3.05,1.17zm-1.31 0c0.66,3.42 6.24,2.9 5.65,-1.06 -0.55,-3.71 -6.38,-2.77 -5.65,1.06z"/>
  <path class="fil5" d="M85.8 12.67c-0.19,-1.32 1.42,-2.15 2.38,-1.17 -0.15,0.39 -0.01,0.22 -0.49,0.44l-1.89 0.73zm0.28 0.93c0.88,-0.31 3.12,-1.13 3.59,-1.56 -0.5,-2.86 -4.89,-2.76 -5.17,0.4 -0.29,3.31 3.63,4.27 5.17,1.98l-0.94 -0.58c-0.45,0.37 -0.61,0.68 -1.36,0.7 -0.81,0.02 -1.18,-0.24 -1.29,-0.94z"/>
  <polygon class="fil6" points="23.65,55.07 3.1,55.07 3.13,55.85 23.62,55.85 "/>
  <path class="fil7" d="M132.49 30.07c2.13,-1.04 3.37,2.18 1.44,3.1 -1.97,0.92 -3.68,-2.01 -1.44,-3.1zm2.36 3.52c0.34,0.74 1.5,1.82 2.03,2.22l0.5 -0.49c-0.24,-0.45 -0.64,-0.75 -1.02,-1.12l-1.17 -1.05c1.77,-3.38 -2.08,-5.24 -3.87,-3.26 -0.87,0.96 -0.9,2.45 -0.01,3.41 1.19,1.28 2.19,0.8 3.54,0.29z"/>
  <polygon class="fil8" points="82.73,15.49 84.01,15.51 83.94,7.06 82.71,7.13 "/>
  <path class="fil9" d="M132.49 30.07c-2.24,1.09 -0.53,4.02 1.44,3.1 1.93,-0.92 0.69,-4.14 -1.44,-3.1z"/>
  <path class="fil10" d="M65.61 13.39c0.51,1.94 3.74,1.31 3.05,-1.17 -0.53,-1.9 -3.7,-1.28 -3.05,1.17z"/>
  <path class="fil11" d="M115.38 30.56c0.56,0.64 0.98,1.13 1.5,1.81 -0.3,0.32 -1.24,1.23 -1.52,1.62l0.53 0.47 1.6 -1.55c0.69,0.59 1.17,1.08 1.67,1.53 0.27,-0.18 0.38,-0.29 0.55,-0.44 -0.29,-0.44 -1.14,-1.3 -1.5,-1.64l1.48 -1.62 -0.51 -0.71c-0.61,0.5 -1.05,1.05 -1.64,1.51l-1.58 -1.52 -0.58 0.54z"/>
  <path class="fil10" d="M72.9 11.19c-2.13,0.75 -1.08,4.01 1.03,3.25 1.79,-0.65 1.03,-3.97 -1.03,-3.25z"/>
  <path class="fil7" d="M78.99 11.2c-1.95,0.74 -1.09,3.87 0.91,3.27 1.75,-0.53 1.1,-4.04 -0.91,-3.27z"/>
  <polygon class="fil11" points="8.12,12.02 15.11,12 15.12,11.78 15.15,11.24 8.15,11.27 "/>
  <polygon class="fil11" points="8.14,13.96 15.13,13.93 15.15,13.18 8.17,13.2 "/>
  <polygon class="fil11" points="8.17,10.07 15.09,10.07 15.08,9.31 8.16,9.34 "/>
  <path class="fil12" d="M85.8 12.67l1.89 -0.73c0.48,-0.22 0.34,-0.05 0.49,-0.44 -0.96,-0.98 -2.57,-0.15 -2.38,1.17z"/>
  <circle class="fil13" cx="134.39" cy="10.57" r="6.1"/>
  <path class="fil14" d="M8.84 50.64l1.41 -3.67 0.53 0 1.5 3.67 -0.56 0 -0.42 -1.11 -1.55 0 -0.4 1.11 -0.51 0zm1.05 -1.51l1.26 0 -0.39 -1.02c-0.11,-0.3 -0.2,-0.56 -0.26,-0.76 -0.05,0.24 -0.12,0.47 -0.2,0.7l-0.41 1.08z"/>
  <polygon id="1" class="fil14" points="12.64,50.64 12.64,46.97 13.13,46.97 13.13,50.21 14.94,50.21 14.94,50.64 "/>
  <polygon id="2" class="fil14" points="15.5,50.64 15.5,46.97 15.98,46.97 15.98,50.21 17.79,50.21 17.79,50.64 "/>
  <path id="3" class="fil14" d="M30.99 50.64l0 -3.67 1.38 0c0.28,0 0.51,0.03 0.68,0.11 0.17,0.07 0.3,0.19 0.39,0.34 0.1,0.16 0.15,0.32 0.15,0.49 0,0.15 -0.04,0.3 -0.13,0.44 -0.08,0.14 -0.21,0.25 -0.38,0.34 0.22,0.06 0.39,0.17 0.51,0.33 0.12,0.16 0.18,0.34 0.18,0.56 0,0.17 -0.04,0.33 -0.11,0.48 -0.07,0.15 -0.16,0.26 -0.27,0.34 -0.11,0.08 -0.24,0.14 -0.4,0.18 -0.16,0.04 -0.36,0.06 -0.6,0.06l-1.4 0zm0.49 -2.13l0.79 0c0.22,0 0.37,-0.01 0.47,-0.04 0.12,-0.04 0.22,-0.1 0.28,-0.18 0.06,-0.09 0.09,-0.2 0.09,-0.33 0,-0.12 -0.03,-0.23 -0.09,-0.32 -0.05,-0.09 -0.14,-0.16 -0.25,-0.19 -0.11,-0.03 -0.29,-0.05 -0.56,-0.05l-0.73 0 0 1.11zm0 1.7l0.92 0c0.15,0 0.26,0 0.33,-0.02 0.11,-0.02 0.2,-0.05 0.28,-0.1 0.07,-0.04 0.13,-0.11 0.18,-0.2 0.05,-0.09 0.08,-0.2 0.08,-0.31 0,-0.14 -0.04,-0.26 -0.11,-0.36 -0.07,-0.1 -0.17,-0.17 -0.29,-0.21 -0.13,-0.05 -0.31,-0.07 -0.54,-0.07l-0.85 0 0 1.27z"/>
  <path id="4" class="fil14" d="M34.29 48.85c0,-0.61 0.16,-1.08 0.49,-1.43 0.33,-0.34 0.75,-0.51 1.27,-0.51 0.34,0 0.64,0.08 0.92,0.24 0.27,0.16 0.48,0.39 0.62,0.68 0.14,0.29 0.21,0.61 0.21,0.98 0,0.37 -0.07,0.71 -0.22,1 -0.15,0.29 -0.37,0.52 -0.64,0.67 -0.28,0.15 -0.58,0.22 -0.9,0.22 -0.34,0 -0.65,-0.08 -0.92,-0.25 -0.28,-0.16 -0.48,-0.39 -0.62,-0.68 -0.14,-0.29 -0.21,-0.59 -0.21,-0.92zm0.5 0.01c0,0.44 0.12,0.79 0.36,1.05 0.23,0.25 0.53,0.38 0.89,0.38 0.37,0 0.67,-0.13 0.91,-0.39 0.23,-0.25 0.35,-0.62 0.35,-1.09 0,-0.3 -0.05,-0.56 -0.15,-0.78 -0.1,-0.22 -0.25,-0.4 -0.44,-0.52 -0.2,-0.12 -0.42,-0.18 -0.66,-0.18 -0.34,0 -0.64,0.12 -0.89,0.35 -0.25,0.24 -0.37,0.63 -0.37,1.18z"/>
  <path id="5" class="fil14" d="M38.28 48.85c0,-0.61 0.16,-1.08 0.49,-1.43 0.33,-0.34 0.75,-0.51 1.27,-0.51 0.34,0 0.64,0.08 0.92,0.24 0.27,0.16 0.48,0.39 0.62,0.68 0.14,0.29 0.21,0.61 0.21,0.98 0,0.37 -0.07,0.71 -0.22,1 -0.15,0.29 -0.36,0.52 -0.64,0.67 -0.28,0.15 -0.57,0.22 -0.89,0.22 -0.35,0 -0.66,-0.08 -0.93,-0.25 -0.27,-0.16 -0.48,-0.39 -0.62,-0.68 -0.14,-0.29 -0.21,-0.59 -0.21,-0.92zm0.5 0.01c0,0.44 0.12,0.79 0.36,1.05 0.24,0.25 0.54,0.38 0.89,0.38 0.37,0 0.67,-0.13 0.91,-0.39 0.23,-0.25 0.35,-0.62 0.35,-1.09 0,-0.3 -0.05,-0.56 -0.15,-0.78 -0.1,-0.22 -0.25,-0.4 -0.44,-0.52 -0.2,-0.12 -0.42,-0.18 -0.66,-0.18 -0.34,0 -0.64,0.12 -0.89,0.35 -0.24,0.24 -0.37,0.63 -0.37,1.18z"/>
  <polygon id="6" class="fil14" points="42.4,50.64 42.4,46.97 42.89,46.97 42.89,48.79 44.71,46.97 45.37,46.97 43.83,48.46 45.44,50.64 44.8,50.64 43.49,48.79 42.89,49.37 42.89,50.64 "/>
  <path id="7" class="fil14" d="M45.68 49.46l0.46 -0.04c0.02,0.19 0.07,0.34 0.15,0.46 0.08,0.11 0.21,0.21 0.37,0.28 0.17,0.08 0.36,0.11 0.57,0.11 0.18,0 0.34,-0.02 0.49,-0.08 0.14,-0.06 0.24,-0.13 0.31,-0.23 0.07,-0.1 0.11,-0.2 0.11,-0.31 0,-0.12 -0.04,-0.22 -0.1,-0.3 -0.07,-0.09 -0.18,-0.16 -0.33,-0.22 -0.1,-0.04 -0.32,-0.1 -0.66,-0.18 -0.34,-0.08 -0.57,-0.16 -0.71,-0.23 -0.17,-0.09 -0.3,-0.21 -0.39,-0.34 -0.08,-0.14 -0.13,-0.29 -0.13,-0.46 0,-0.19 0.06,-0.36 0.16,-0.52 0.11,-0.16 0.26,-0.28 0.46,-0.37 0.2,-0.08 0.43,-0.12 0.68,-0.12 0.27,0 0.51,0.04 0.72,0.13 0.2,0.09 0.36,0.21 0.48,0.39 0.11,0.17 0.17,0.36 0.18,0.57l-0.47 0.04c-0.03,-0.23 -0.11,-0.41 -0.25,-0.52 -0.15,-0.12 -0.36,-0.18 -0.65,-0.18 -0.29,0 -0.5,0.05 -0.64,0.16 -0.13,0.11 -0.2,0.24 -0.2,0.39 0,0.13 0.05,0.24 0.14,0.33 0.1,0.08 0.34,0.17 0.74,0.26 0.39,0.09 0.66,0.16 0.81,0.23 0.21,0.1 0.37,0.22 0.47,0.37 0.1,0.16 0.15,0.33 0.15,0.53 0,0.19 -0.05,0.37 -0.16,0.55 -0.12,0.17 -0.28,0.3 -0.48,0.4 -0.21,0.1 -0.45,0.14 -0.71,0.14 -0.33,0 -0.61,-0.04 -0.84,-0.14 -0.22,-0.1 -0.4,-0.24 -0.52,-0.44 -0.13,-0.19 -0.2,-0.41 -0.21,-0.66z"/>
  <polygon id="8" class="fil14" points="59.33,50.64 59.33,46.97 59.82,46.97 59.82,50.64 "/>
  <path id="9" class="fil14" d="M60.66 50.64l0 -3.67 0.73 0 0.87 2.6c0.08,0.24 0.14,0.42 0.18,0.54 0.04,-0.13 0.1,-0.33 0.19,-0.59l0.89 -2.55 0.65 0 0 3.67 -0.47 0 0 -3.07 -1.07 3.07 -0.44 0 -1.06 -3.13 0 3.13 -0.47 0z"/>
  <path id="10" class="fil14" d="M64.55 50.64l1.41 -3.67 0.53 0 1.5 3.67 -0.56 0 -0.42 -1.11 -1.55 0 -0.4 1.11 -0.51 0zm1.05 -1.51l1.26 0 -0.39 -1.02c-0.11,-0.3 -0.2,-0.56 -0.26,-0.76 -0.05,0.24 -0.12,0.47 -0.2,0.7l-0.41 1.08z"/>
  <path id="11" class="fil14" d="M70.09 49.2l0 -0.43 1.56 0 0 1.36c-0.24,0.19 -0.49,0.33 -0.74,0.43 -0.26,0.1 -0.52,0.14 -0.78,0.14 -0.37,0 -0.69,-0.07 -0.99,-0.23 -0.29,-0.15 -0.52,-0.38 -0.67,-0.67 -0.15,-0.29 -0.22,-0.62 -0.22,-0.98 0,-0.35 0.07,-0.69 0.22,-1 0.15,-0.31 0.37,-0.54 0.65,-0.69 0.28,-0.15 0.6,-0.22 0.97,-0.22 0.26,0 0.5,0.04 0.72,0.13 0.21,0.08 0.38,0.2 0.5,0.35 0.12,0.16 0.22,0.36 0.28,0.61l-0.44 0.12c-0.05,-0.19 -0.12,-0.34 -0.2,-0.44 -0.09,-0.11 -0.2,-0.2 -0.35,-0.26 -0.16,-0.07 -0.32,-0.1 -0.51,-0.1 -0.22,0 -0.41,0.04 -0.58,0.1 -0.16,0.07 -0.29,0.16 -0.39,0.27 -0.1,0.11 -0.17,0.23 -0.23,0.36 -0.09,0.23 -0.14,0.48 -0.14,0.75 0,0.32 0.06,0.6 0.17,0.82 0.11,0.22 0.28,0.39 0.49,0.49 0.22,0.11 0.45,0.16 0.69,0.16 0.21,0 0.41,-0.04 0.61,-0.12 0.2,-0.08 0.36,-0.17 0.46,-0.26l0 -0.69 -1.08 0z"/>
  <polygon id="12" class="fil14" points="72.37,50.64 72.37,46.97 75.03,46.97 75.03,47.4 72.86,47.4 72.86,48.53 74.89,48.53 74.89,48.96 72.86,48.96 72.86,50.21 75.11,50.21 75.11,50.64 "/>
  <path id="13" class="fil14" d="M75.63 49.46l0.45 -0.04c0.03,0.19 0.08,0.34 0.16,0.46 0.08,0.11 0.2,0.21 0.37,0.28 0.16,0.08 0.35,0.11 0.56,0.11 0.18,0 0.35,-0.02 0.49,-0.08 0.14,-0.06 0.25,-0.13 0.32,-0.23 0.07,-0.1 0.1,-0.2 0.1,-0.31 0,-0.12 -0.03,-0.22 -0.1,-0.3 -0.07,-0.09 -0.18,-0.16 -0.33,-0.22 -0.1,-0.04 -0.32,-0.1 -0.65,-0.18 -0.34,-0.08 -0.58,-0.16 -0.71,-0.23 -0.18,-0.09 -0.31,-0.21 -0.39,-0.34 -0.09,-0.14 -0.13,-0.29 -0.13,-0.46 0,-0.19 0.05,-0.36 0.15,-0.52 0.11,-0.16 0.26,-0.28 0.47,-0.37 0.2,-0.08 0.42,-0.12 0.67,-0.12 0.27,0 0.51,0.04 0.72,0.13 0.21,0.09 0.37,0.21 0.48,0.39 0.11,0.17 0.17,0.36 0.18,0.57l-0.47 0.04c-0.02,-0.23 -0.11,-0.41 -0.25,-0.52 -0.15,-0.12 -0.36,-0.18 -0.64,-0.18 -0.3,0 -0.51,0.05 -0.64,0.16 -0.14,0.11 -0.21,0.24 -0.21,0.39 0,0.13 0.05,0.24 0.15,0.33 0.09,0.08 0.33,0.17 0.73,0.26 0.39,0.09 0.67,0.16 0.81,0.23 0.22,0.1 0.37,0.22 0.48,0.37 0.1,0.16 0.15,0.33 0.15,0.53 0,0.19 -0.06,0.37 -0.17,0.55 -0.11,0.17 -0.27,0.3 -0.48,0.4 -0.21,0.1 -0.45,0.14 -0.71,0.14 -0.33,0 -0.61,-0.04 -0.83,-0.14 -0.23,-0.1 -0.4,-0.24 -0.53,-0.44 -0.13,-0.19 -0.2,-0.41 -0.2,-0.66z"/>
  <path id="14" class="fil14" d="M90.24 50.64l-1.42 -3.67 0.53 0 0.95 2.67c0.08,0.21 0.14,0.41 0.19,0.6 0.06,-0.2 0.12,-0.4 0.2,-0.6l0.99 -2.67 0.5 0 -1.44 3.67 -0.5 0z"/>
  <polygon id="15" class="fil14" points="92.7,50.64 92.7,46.97 93.18,46.97 93.18,50.64 "/>
  <path id="16" class="fil14" d="M94.04 50.64l0 -3.67 1.27 0c0.28,0 0.5,0.01 0.65,0.05 0.21,0.05 0.39,0.14 0.54,0.26 0.19,0.17 0.34,0.38 0.43,0.63 0.1,0.26 0.15,0.55 0.15,0.88 0,0.27 -0.03,0.52 -0.1,0.74 -0.06,0.21 -0.15,0.39 -0.25,0.53 -0.1,0.14 -0.21,0.25 -0.33,0.34 -0.13,0.08 -0.27,0.14 -0.44,0.18 -0.17,0.04 -0.37,0.06 -0.59,0.06l-1.33 0zm0.49 -0.43l0.78 0c0.24,0 0.43,-0.02 0.57,-0.07 0.14,-0.04 0.25,-0.1 0.33,-0.19 0.12,-0.11 0.21,-0.27 0.27,-0.46 0.06,-0.2 0.1,-0.43 0.1,-0.71 0,-0.39 -0.07,-0.68 -0.19,-0.89 -0.13,-0.21 -0.28,-0.35 -0.46,-0.42 -0.13,-0.05 -0.34,-0.07 -0.63,-0.07l-0.77 0 0 2.81z"/>
  <polygon id="17" class="fil14" points="97.76,50.64 97.76,46.97 100.41,46.97 100.41,47.4 98.24,47.4 98.24,48.53 100.27,48.53 100.27,48.96 98.24,48.96 98.24,50.21 100.5,50.21 100.5,50.64 "/>
  <path id="18" class="fil14" d="M101.02 48.85c0,-0.61 0.17,-1.08 0.49,-1.43 0.33,-0.34 0.75,-0.51 1.27,-0.51 0.34,0 0.65,0.08 0.92,0.24 0.27,0.16 0.48,0.39 0.62,0.68 0.14,0.29 0.22,0.61 0.22,0.98 0,0.37 -0.08,0.71 -0.23,1 -0.15,0.29 -0.36,0.52 -0.64,0.67 -0.27,0.15 -0.57,0.22 -0.89,0.22 -0.35,0 -0.66,-0.08 -0.93,-0.25 -0.27,-0.16 -0.48,-0.39 -0.62,-0.68 -0.14,-0.29 -0.21,-0.59 -0.21,-0.92zm0.5 0.01c0,0.44 0.12,0.79 0.36,1.05 0.24,0.25 0.54,0.38 0.9,0.38 0.36,0 0.66,-0.13 0.9,-0.39 0.24,-0.25 0.35,-0.62 0.35,-1.09 0,-0.3 -0.05,-0.56 -0.15,-0.78 -0.1,-0.22 -0.25,-0.4 -0.44,-0.52 -0.2,-0.12 -0.41,-0.18 -0.66,-0.18 -0.34,0 -0.64,0.12 -0.88,0.35 -0.25,0.24 -0.38,0.63 -0.38,1.18z"/>
  <path id="19" class="fil14" d="M105 49.46l0.46 -0.04c0.02,0.19 0.07,0.34 0.15,0.46 0.08,0.11 0.2,0.21 0.37,0.28 0.17,0.08 0.36,0.11 0.56,0.11 0.19,0 0.35,-0.02 0.5,-0.08 0.14,-0.06 0.24,-0.13 0.31,-0.23 0.07,-0.1 0.11,-0.2 0.11,-0.31 0,-0.12 -0.04,-0.22 -0.1,-0.3 -0.07,-0.09 -0.18,-0.16 -0.34,-0.22 -0.09,-0.04 -0.31,-0.1 -0.65,-0.18 -0.34,-0.08 -0.57,-0.16 -0.71,-0.23 -0.17,-0.09 -0.3,-0.21 -0.39,-0.34 -0.09,-0.14 -0.13,-0.29 -0.13,-0.46 0,-0.19 0.05,-0.36 0.16,-0.52 0.1,-0.16 0.26,-0.28 0.46,-0.37 0.2,-0.08 0.43,-0.12 0.67,-0.12 0.28,0 0.52,0.04 0.73,0.13 0.2,0.09 0.36,0.21 0.47,0.39 0.12,0.17 0.18,0.36 0.19,0.57l-0.47 0.04c-0.03,-0.23 -0.11,-0.41 -0.26,-0.52 -0.14,-0.12 -0.35,-0.18 -0.64,-0.18 -0.29,0 -0.51,0.05 -0.64,0.16 -0.13,0.11 -0.2,0.24 -0.2,0.39 0,0.13 0.05,0.24 0.14,0.33 0.1,0.08 0.34,0.17 0.73,0.26 0.4,0.09 0.67,0.16 0.82,0.23 0.21,0.1 0.37,0.22 0.47,0.37 0.1,0.16 0.15,0.33 0.15,0.53 0,0.19 -0.05,0.37 -0.16,0.55 -0.12,0.17 -0.28,0.3 -0.49,0.4 -0.21,0.1 -0.44,0.14 -0.7,0.14 -0.34,0 -0.61,-0.04 -0.84,-0.14 -0.22,-0.1 -0.4,-0.24 -0.53,-0.44 -0.12,-0.19 -0.19,-0.41 -0.2,-0.66z"/>
  <polygon id="20" class="fil14" points="118.56,50.64 118.56,46.97 119.06,46.97 120.99,49.85 120.99,46.97 121.46,46.97 121.46,50.64 120.96,50.64 119.03,47.76 119.03,50.64 "/>
  <polygon id="21" class="fil14" points="122.28,50.64 122.28,46.97 124.94,46.97 124.94,47.4 122.77,47.4 122.77,48.53 124.8,48.53 124.8,48.96 122.77,48.96 122.77,50.21 125.02,50.21 125.02,50.64 "/>
  <path id="22" class="fil14" d="M126.33 50.64l-0.97 -3.67 0.51 0 0.55 2.41c0.06,0.25 0.11,0.5 0.16,0.75 0.09,-0.39 0.15,-0.62 0.17,-0.68l0.69 -2.48 0.59 0 0.52 1.86c0.13,0.46 0.23,0.89 0.29,1.3 0.05,-0.23 0.11,-0.5 0.19,-0.8l0.57 -2.36 0.49 0 -1.01 3.67 -0.47 0 -0.77 -2.8c-0.07,-0.23 -0.1,-0.38 -0.12,-0.43 -0.04,0.17 -0.08,0.31 -0.11,0.43l-0.77 2.8 -0.51 0z"/>
  <path id="23" class="fil14" d="M130.38 49.46l0.46 -0.04c0.02,0.19 0.07,0.34 0.15,0.46 0.08,0.11 0.2,0.21 0.37,0.28 0.17,0.08 0.35,0.11 0.56,0.11 0.19,0 0.35,-0.02 0.49,-0.08 0.15,-0.06 0.25,-0.13 0.32,-0.23 0.07,-0.1 0.1,-0.2 0.1,-0.31 0,-0.12 -0.03,-0.22 -0.1,-0.3 -0.06,-0.09 -0.17,-0.16 -0.33,-0.22 -0.1,-0.04 -0.31,-0.1 -0.65,-0.18 -0.34,-0.08 -0.58,-0.16 -0.71,-0.23 -0.18,-0.09 -0.31,-0.21 -0.39,-0.34 -0.09,-0.14 -0.13,-0.29 -0.13,-0.46 0,-0.19 0.05,-0.36 0.16,-0.52 0.1,-0.16 0.26,-0.28 0.46,-0.37 0.2,-0.08 0.43,-0.12 0.67,-0.12 0.27,0 0.52,0.04 0.72,0.13 0.21,0.09 0.37,0.21 0.48,0.39 0.11,0.17 0.17,0.36 0.18,0.57l-0.46 0.04c-0.03,-0.23 -0.11,-0.41 -0.26,-0.52 -0.14,-0.12 -0.36,-0.18 -0.64,-0.18 -0.29,0 -0.51,0.05 -0.64,0.16 -0.14,0.11 -0.2,0.24 -0.2,0.39 0,0.13 0.04,0.24 0.14,0.33 0.09,0.08 0.34,0.17 0.73,0.26 0.4,0.09 0.67,0.16 0.82,0.23 0.21,0.1 0.37,0.22 0.47,0.37 0.1,0.16 0.15,0.33 0.15,0.53 0,0.19 -0.05,0.37 -0.17,0.55 -0.11,0.17 -0.27,0.3 -0.48,0.4 -0.21,0.1 -0.44,0.14 -0.71,0.14 -0.33,0 -0.61,-0.04 -0.83,-0.14 -0.22,-0.1 -0.4,-0.24 -0.53,-0.44 -0.13,-0.19 -0.19,-0.41 -0.2,-0.66z"/>
  <rect class="fil15" x="2.99" y="62.81" width="139.42" height="124.46" rx="1.55" ry="3.74"/>
  <rect class="fil1" x="12.1" y="68.09" width="47.78" height="6.88" rx="0.59" ry="1.44"/>
  <rect class="fil1" x="12.1" y="78.65" width="38.81" height="1.86" rx="1.77" ry="1.44"/>
  <line class="fil0 str1" x1="7.54" y1="89.76" x2="135.85" y2= "89.76" />
  <rect class="fil1" x="11.44" y="95.13" width="119.35" height="3.75" rx="2.71" ry="1.44"/>
  <polygon class="fil1" points="52.71,78.02 52.35,78.39 53.53,79.58 52.35,80.76 52.71,81.13 54.27,79.58 "/>
  <rect class="fil1" x="55.69" y="78.65" width="16.21" height="1.86" rx="0.74" ry="1.44"/>
  <polygon class="fil1" points="73.7,78.02 73.34,78.39 74.52,79.58 73.34,80.76 73.7,81.13 75.26,79.58 "/>
  <rect class="fil1" x="76.68" y="78.65" width="16.21" height="1.86" rx="0.74" ry="1.44"/>
  <rect class="fil1" x="11.44" y="102.61" width="119.35" height="3.75" rx="2.71" ry="1.44"/>
  <rect class="fil1" x="11.44" y="110.09" width="119.35" height="3.75" rx="2.71" ry="1.44"/>
  <rect class="fil1" x="11.44" y="117.57" width="80.2" height="3.75" rx="1.82" ry="1.44"/>
  <rect class="fil1" x="6.85" y="131.69" width="41.09" height="47.73" rx="3.43" ry="3.43"/>
  <rect class="fil15" x="10.74" y="165.76" width="22.54" height="3.84" rx="0.5" ry="1.44"/>
  <rect class="fil15" x="10.9" y="172.09" width="30.49" height="2.59" rx="1" ry="1.44"/>
  <g id="_1666891304416">
   <g>
    <g>
     <path class="fil15" d="M35.56 147.44l-6.79 -6.81 1.31 -3.92c0.07,-0.21 0.03,-0.45 -0.1,-0.63 -0.13,-0.19 -0.35,-0.29 -0.57,-0.29l-5.65 0c-0.23,0 -0.44,0.1 -0.58,0.29 -0.13,0.18 -0.17,0.42 -0.09,0.63l1.36 4.08 -2.1 14.05c-0.03,0.2 0.03,0.4 0.16,0.56l3.53 4.23c0.13,0.17 0.33,0.26 0.54,0.26 0.21,0 0.41,-0.09 0.54,-0.26l3.53 -4.23c0.13,-0.16 0.19,-0.36 0.16,-0.56l-1.08 -7.27 2.85 2.84c0.14,0.13 0.32,0.2 0.5,0.2l1.98 0c0.39,0 0.7,-0.31 0.7,-0.7l0 -1.97c0,-0.19 -0.07,-0.37 -0.2,-0.5zm-7.13 -10.24l-0.95 2.82 -1.8 0 -0.94 -2.82 3.69 0zm-1.85 20.88l-2.78 -3.34 1.98 -13.31 1.6 0 1.99 13.31 -2.79 3.34zm7.77 -8.88l-0.98 0 -3.99 -3.97 -0.35 -2.34 5.32 5.34 0 0.97z"/>
    </g>
   </g>
   <g>
   </g>
   <g>
   </g>
   <g>
   </g>
   <g>
   </g>
   <g>
   </g>
   <g>
   </g>
   <g>
   </g>
   <g>
   </g>
   <g>
   </g>
   <g>
   </g>
   <g>
   </g>
   <g>
   </g>
   <g>
   </g>
   <g>
   </g>
   <g>
   </g>
  </g>
  <rect class="fil1" x="52.67" y="132.09" width="41.09" height="47.73" rx="3.43" ry="3.43"/>
  <rect class="fil15" x="56.56" y="166.17" width="22.54" height="3.84" rx="0.5" ry="1.44"/>
  <rect class="fil15" x="56.71" y="172.5" width="30.49" height="2.59" rx="1" ry="1.44"/>
  <rect class="fil1" x="98.59" y="131.59" width="41.09" height="47.73" rx="3.43" ry="3.43"/>
  <rect class="fil15" x="102.48" y="165.66" width="22.54" height="3.84" rx="0.5" ry="1.44"/>
  <rect class="fil15" x="102.63" y="171.99" width="30.49" height="2.59" rx="1" ry="1.44"/>
  <g id="_1666891313088">
   <g>
    <g>
     <path class="fil15" d="M75.51 154.38l5.41 4.29 4.86 -4.26 -0.31 -6.18c-0.1,-1.89 -1.66,-3.37 -3.55,-3.37l-6.64 0 0 0c-0.04,0 -0.08,0 -0.12,0 -2.35,0 -3.7,3.33 -5.13,6.86 -0.59,1.47 -1.2,2.98 -1.83,4.06 -0.74,1.27 -1.23,1.46 -1.45,1.46 -0.46,0 -0.84,-0.38 -0.84,-0.84 0,-3.54 0.86,-7.04 1.57,-9.36 0.54,-1.74 1.08,-3.09 1.37,-3.77l0.74 0c0.14,0.35 0.28,0.69 0.42,1.02 0.25,0.61 0.51,1.24 0.75,1.89 0.39,-0.63 0.79,-1.14 1.2,-1.56 -0.13,-0.33 -0.26,-0.65 -0.39,-0.97 -0.15,-0.36 -0.29,-0.7 -0.43,-1.05l2.17 -2.2c0.57,-0.58 0.89,-1.36 0.89,-2.18l0 -0.84 -9.97 0 0 0.84c0,0.82 0.32,1.6 0.89,2.18l2.18 2.21c-0.3,0.72 -0.86,2.1 -1.42,3.9 -0.75,2.44 -1.65,6.13 -1.65,9.89 0,1.39 1.13,2.52 2.52,2.52l7.62 0c0.83,0 1.62,-0.48 2.35,-1.43l-1.32 -1.05c-0.42,0.57 -0.78,0.8 -1.03,0.8l-5.1 0c0.14,-0.21 0.27,-0.42 0.38,-0.62 0.69,-1.18 1.33,-2.75 1.94,-4.26 0.62,-1.53 1.26,-3.1 1.93,-4.24 0.61,-1.03 1.18,-1.58 1.64,-1.58 0.2,0 0.38,0.08 0.52,0.23 0.14,0.14 0.21,0.34 0.2,0.54l-0.37 7.07zm-9.19 -15.16c-0.05,-0.05 -0.09,-0.1 -0.13,-0.15l6.05 0c-0.04,0.05 -0.08,0.1 -0.13,0.15l-2.34 2.37 -1.11 0 -2.34 -2.37zm11.13 7.32l4.47 0c0.99,0 1.82,0.78 1.87,1.78l0.27 5.36 -3.2 2.8 -3.62 -2.87 0.32 -6.22c0.02,-0.29 -0.02,-0.57 -0.11,-0.85z"/>
    </g>
   </g>
   <g>
   </g>
   <g>
   </g>
   <g>
   </g>
   <g>
   </g>
   <g>
   </g>
   <g>
   </g>
   <g>
   </g>
   <g>
   </g>
   <g>
   </g>
   <g>
   </g>
   <g>
   </g>
   <g>
   </g>
   <g>
   </g>
   <g>
   </g>
   <g>
   </g>
  </g>
  <g id="_1666891319808">
   <g>
    <path class="fil15" d="M125.52 138.54c0,-0.5 -0.54,-0.82 -0.98,-0.58 -0.03,0.01 -2.26,1.24 -4.99,1.24 -2.71,0 -4.96,-1.23 -4.98,-1.24 -0.44,-0.24 -0.99,0.08 -0.99,0.58 0,1.86 1.1,3.44 3.21,4.2l0.75 1.26 -1.3 13.14c-0.02,0.2 0.05,0.39 0.19,0.53l2.65 2.66c0.26,0.26 0.68,0.26 0.94,0l2.66 -2.66c0.14,-0.14 0.21,-0.33 0.19,-0.53l-1.31 -13.14 0.76 -1.26c2.11,-0.76 3.2,-2.34 3.2,-4.2zm-1.53 1.12c-0.39,0.95 -1.25,1.48 -1.95,1.76l-0.99 -0.99c1.18,-0.16 2.2,-0.48 2.94,-0.77zm-2.95 2.63l-0.54 0.9 -1.9 0 -0.53 -0.9 1.48 -1.48 1.49 1.48zm-5.92 -2.63c0.73,0.29 1.75,0.61 2.93,0.77l-0.99 0.99c-0.7,-0.28 -1.55,-0.81 -1.94,-1.76l0 0zm4.43 19.26l-1.96 -1.96 1.24 -12.45 1.45 0 1.24 12.45 -1.97 1.96z"/>
   </g>
  </g>
 </g>
</svg>
