<?xml version="1.0" encoding="UTF-8"?>
<!--
  - Copyright (c) 2023. Selldone® Business OS™
  -
  - Author: M.Pajuhaan
  - Web: https://selldone.com
  - ━━━━━━━━━━━━━━━━━━━━━━━━━━━━━━━━━━━━━━━━━━━━━━━━━━━━━━
  -
  - All rights reserved. In the weave of time, where traditions and innovations intermingle, this content was crafted.
  - From the essence of thought, through the corridors of creativity, each word, and sentiment has been molded.
  - Not just to exist, but to inspire. Like an artist's stroke or a sculptor's chisel, every nuance is deliberate.
  - Our journey is not just about reaching a destination, but about creating a masterpiece.
  - Tread carefully, for you're treading on dreams.
  -->

<!DOCTYPE svg PUBLIC "-//W3C//DTD SVG 1.1//EN" "http://www.w3.org/Graphics/SVG/1.1/DTD/svg11.dtd">
<!-- Creator: CorelDRAW 2019 (64-Bit) -->
<svg xmlns="http://www.w3.org/2000/svg" xml:space="preserve" width="826px" height="1121px" version="1.1" style="shape-rendering:geometricPrecision; text-rendering:geometricPrecision; image-rendering:optimizeQuality; fill-rule:evenodd; clip-rule:evenodd"
viewBox="0 0 145.98 197.97"
 xmlns:xlink="http://www.w3.org/1999/xlink"
 xmlns:xodm="http://www.corel.com/coreldraw/odm/2003"
 enable-background="new 0 0 512.354 512.354">
 <defs>
  <style type="text/css">
   <![CDATA[
    .str2 {stroke:#E6E7E8;stroke-width:0.37;stroke-miterlimit:2.61313}
    .str0 {stroke:#DFE1E5;stroke-width:0.37;stroke-miterlimit:2.61313}
    .str1 {stroke:#F0F1F2;stroke-width:0.37;stroke-miterlimit:2.61313}
    .fil0 {fill:none}
    .fil1 {fill:#FEFEFE}
    .fil13 {fill:#E6E7E8}
    .fil15 {fill:#00AFEF}
    .fil6 {fill:#1A74E8}
    .fil8 {fill:#35A854}
    .fil2 {fill:#3876E3}
    .fil9 {fill:#3B78E7}
    .fil3 {fill:#498AF4}
    .fil11 {fill:#767676}
    .fil5 {fill:#EA4435}
    .fil4 {fill:#F7B80A}
    .fil7 {fill:#FAFCFC}
    .fil12 {fill:#FBF5F5}
    .fil10 {fill:#FDFCFB}
    .fil14 {fill:#777777;fill-rule:nonzero}
   ]]>
  </style>
 </defs>
 <g id="Layer_x0020_1">
  <metadata id="CorelCorpID_0Corel-Layer"/>
  <rect class="fil0" width="145.98" height="197.97"/>
  <path class="fil1 str0" d="M127.37 40.17l0 -15.41c-38.18,0 -76.36,-0.05 -114.54,0 -3.07,0 -5.43,0.4 -7.39,3.04 -1.85,2.5 -2.12,5.64 -0.57,8.36 1.7,2.97 3.72,4.02 7.1,4.04 0.89,0 1.78,-0.03 2.67,-0.03 37.58,0 75.16,0 112.73,0z"/>
  <path class="fil2" d="M135.38 33.73c-1.35,0.51 -2.35,0.99 -3.54,-0.3 -0.92,-1.25 -0.97,-2.69 0.32,-3.69 1.88,-1.46 4.83,0.13 3.79,3.03 -0.27,0.75 -0.36,0.38 0.52,1.15 0.53,0.47 1.07,0.94 1.44,1.54 -0.58,0.62 -0.5,0.53 -1.18,-0.1 -0.52,-0.49 -1,-1 -1.35,-1.63zm-8.88 6.76c2.96,0.01 6.18,0.13 9.1,-0.01 8.74,-0.62 10.05,-13.1 1.61,-15.7 -1.54,-0.47 -7.38,-0.28 -9.42,-0.27 -0.43,0 -0.87,0 -1.3,0 0,3.32 0,6.64 0.01,9.96 0,2 0,4.01 0,6.02z"/>
  <path class="fil3" d="M62.69 12.13c-0.09,2.98 -4.99,3.27 -5.89,0.19 -0.48,-1.64 0.19,-3.12 1.38,-3.83 0.53,-0.31 1.26,-0.55 2.09,-0.44 0.94,0.13 1.05,0.51 1.79,0.76 0.36,-0.25 0.5,-0.3 0.7,-0.8 -0.51,-0.73 -1.75,-1.18 -2.73,-1.21 -3.59,-0.08 -5.76,3.53 -4.29,6.46 2.19,4.35 9.25,2.61 8.16,-2.36l-4.08 0.06 0.01 1.11 2.86 0.06z"/>
  <path class="fil3" d="M79.3 11.24c2.02,-0.77 2.68,2.75 0.91,3.29 -2,0.6 -2.86,-2.55 -0.91,-3.29zm1.63 -0.82c-1.73,-1.37 -4.15,0.47 -3.96,2.76 0.09,1.1 0.79,1.88 1.43,2.24 1.31,0.76 1.85,0.14 2.78,-0.19 0.1,2.22 -2.04,2.58 -2.92,0.98l-1.05 0.33c0.25,1.98 3.56,2.5 4.74,0.64 0.59,-0.95 0.46,-1.99 0.46,-3.32 0,-0.89 0.1,-2.97 -0.08,-3.71 -1.44,-0.08 -0.92,0.18 -1.4,0.27z"/>
  <path class="fil4" d="M73.19 11.24c2.06,-0.73 2.83,2.6 1.03,3.25 -2.11,0.77 -3.17,-2.5 -1.03,-3.25zm-2.4 2.21c0.67,3.51 6.27,2.83 5.68,-1.07 -0.57,-3.73 -6.41,-2.79 -5.68,1.07z"/>
  <path class="fil5" d="M65.87 13.45c-0.65,-2.46 2.53,-3.09 3.06,-1.18 0.69,2.49 -2.55,3.12 -3.06,1.18zm-1.31 0c0.66,3.42 6.26,2.9 5.67,-1.07 -0.55,-3.73 -6.41,-2.78 -5.67,1.07z"/>
  <path class="fil5" d="M86.14 12.72c-0.19,-1.33 1.43,-2.16 2.39,-1.17 -0.15,0.39 -0.01,0.22 -0.49,0.44l-1.9 0.73zm0.29 0.93c0.88,-0.31 3.12,-1.13 3.6,-1.56 -0.5,-2.87 -4.91,-2.77 -5.19,0.4 -0.3,3.33 3.64,4.29 5.19,1.99l-0.95 -0.59c-0.45,0.38 -0.61,0.68 -1.36,0.71 -0.81,0.02 -1.19,-0.25 -1.29,-0.95z"/>
  <polygon class="fil6" points="23.74,55.28 3.12,55.29 3.14,56.08 23.72,56.07 "/>
  <path class="fil7" d="M133.02 30.19c2.14,-1.04 3.38,2.19 1.44,3.11 -1.97,0.93 -3.69,-2.01 -1.44,-3.11zm2.36 3.54c0.34,0.74 1.51,1.82 2.04,2.22l0.51 -0.49c-0.24,-0.45 -0.65,-0.75 -1.02,-1.13l-1.18 -1.05c1.78,-3.39 -2.09,-5.26 -3.88,-3.27 -0.88,0.97 -0.91,2.46 -0.01,3.42 1.19,1.29 2.19,0.81 3.54,0.3z"/>
  <polygon class="fil8" points="83.06,15.55 84.35,15.57 84.28,7.09 83.04,7.16 "/>
  <path class="fil9" d="M133.02 30.19c-2.25,1.1 -0.53,4.04 1.44,3.11 1.94,-0.92 0.7,-4.15 -1.44,-3.11z"/>
  <path class="fil10" d="M65.87 13.45c0.51,1.94 3.75,1.31 3.06,-1.18 -0.53,-1.91 -3.71,-1.28 -3.06,1.18z"/>
  <path class="fil11" d="M115.84 30.69c0.57,0.64 0.98,1.12 1.51,1.81 -0.31,0.32 -1.25,1.24 -1.53,1.63l0.54 0.47 1.6 -1.55c0.69,0.58 1.17,1.07 1.67,1.53 0.28,-0.18 0.39,-0.29 0.56,-0.44 -0.3,-0.44 -1.15,-1.31 -1.51,-1.65l1.48 -1.63 -0.5 -0.71c-0.62,0.5 -1.06,1.05 -1.66,1.52l-1.58 -1.53 -0.58 0.55z"/>
  <path class="fil10" d="M73.19 11.24c-2.14,0.75 -1.08,4.02 1.03,3.25 1.8,-0.65 1.03,-3.98 -1.03,-3.25z"/>
  <path class="fil7" d="M79.3 11.24c-1.95,0.74 -1.09,3.89 0.91,3.29 1.77,-0.54 1.11,-4.06 -0.91,-3.29z"/>
  <polygon class="fil11" points="8.15,12.07 15.17,12.05 15.18,11.82 15.21,11.29 8.18,11.31 "/>
  <polygon class="fil11" points="8.17,14.01 15.19,13.98 15.21,13.24 8.2,13.25 "/>
  <polygon class="fil11" points="8.2,10.11 15.15,10.11 15.14,9.34 8.19,9.38 "/>
  <path class="fil12" d="M86.14 12.72l1.9 -0.73c0.48,-0.22 0.34,-0.05 0.49,-0.44 -0.96,-0.99 -2.58,-0.16 -2.39,1.17z"/>
  <circle class="fil13" cx="134.92" cy="10.62" r="6.13"/>
  <path class="fil14" d="M8.87 50.84l1.42 -3.68 0.53 0 1.5 3.68 -0.55 0 -0.43 -1.11 -1.55 0 -0.4 1.11 -0.52 0zm1.06 -1.51l1.26 0 -0.39 -1.02c-0.11,-0.31 -0.2,-0.57 -0.26,-0.77 -0.05,0.24 -0.12,0.47 -0.2,0.71l-0.41 1.08z"/>
  <polygon id="1" class="fil14" points="12.69,50.84 12.69,47.16 13.18,47.16 13.18,50.41 14.99,50.41 14.99,50.84 "/>
  <polygon id="2" class="fil14" points="15.56,50.84 15.56,47.16 16.05,47.16 16.05,50.41 17.86,50.41 17.86,50.84 "/>
  <path id="3" class="fil14" d="M31.12 50.84l0 -3.68 1.38 0c0.28,0 0.51,0.03 0.68,0.11 0.17,0.07 0.3,0.19 0.4,0.34 0.09,0.16 0.14,0.32 0.14,0.49 0,0.16 -0.04,0.3 -0.12,0.44 -0.09,0.14 -0.22,0.26 -0.39,0.34 0.22,0.07 0.39,0.18 0.51,0.34 0.12,0.15 0.18,0.34 0.18,0.55 0,0.18 -0.03,0.34 -0.11,0.49 -0.07,0.15 -0.16,0.26 -0.27,0.34 -0.1,0.08 -0.24,0.14 -0.4,0.18 -0.16,0.04 -0.36,0.06 -0.6,0.06l-1.4 0zm0.49 -2.13l0.79 0c0.22,0 0.37,-0.02 0.47,-0.05 0.12,-0.03 0.22,-0.1 0.28,-0.18 0.06,-0.09 0.09,-0.19 0.09,-0.32 0,-0.13 -0.03,-0.24 -0.08,-0.33 -0.06,-0.09 -0.15,-0.16 -0.26,-0.19 -0.11,-0.03 -0.29,-0.05 -0.56,-0.05l-0.73 0 0 1.12zm0 1.7l0.91 0c0.16,0 0.27,0 0.34,-0.02 0.11,-0.02 0.2,-0.05 0.28,-0.1 0.07,-0.04 0.14,-0.11 0.19,-0.2 0.04,-0.09 0.07,-0.2 0.07,-0.31 0,-0.14 -0.04,-0.26 -0.11,-0.36 -0.07,-0.11 -0.17,-0.18 -0.29,-0.22 -0.13,-0.04 -0.31,-0.06 -0.54,-0.06l-0.85 0 0 1.27z"/>
  <path id="4" class="fil14" d="M34.42 49.05c0,-0.61 0.17,-1.09 0.5,-1.44 0.33,-0.34 0.75,-0.52 1.27,-0.52 0.34,0 0.65,0.08 0.92,0.25 0.28,0.16 0.48,0.39 0.63,0.68 0.14,0.29 0.21,0.62 0.21,0.99 0,0.37 -0.07,0.7 -0.22,1 -0.15,0.29 -0.37,0.52 -0.64,0.67 -0.28,0.15 -0.58,0.23 -0.9,0.23 -0.35,0 -0.66,-0.09 -0.93,-0.26 -0.28,-0.16 -0.48,-0.39 -0.62,-0.68 -0.15,-0.29 -0.22,-0.6 -0.22,-0.92zm0.51 0.01c0,0.44 0.12,0.79 0.36,1.05 0.24,0.25 0.54,0.38 0.9,0.38 0.36,0 0.67,-0.13 0.9,-0.39 0.24,-0.26 0.36,-0.62 0.36,-1.1 0,-0.29 -0.05,-0.56 -0.15,-0.78 -0.1,-0.22 -0.25,-0.4 -0.45,-0.52 -0.19,-0.12 -0.41,-0.18 -0.66,-0.18 -0.34,0 -0.64,0.11 -0.89,0.35 -0.25,0.24 -0.37,0.63 -0.37,1.19z"/>
  <path id="5" class="fil14" d="M38.43 49.05c0,-0.61 0.17,-1.09 0.5,-1.44 0.32,-0.34 0.75,-0.52 1.27,-0.52 0.34,0 0.65,0.08 0.92,0.25 0.27,0.16 0.48,0.39 0.63,0.68 0.14,0.29 0.21,0.62 0.21,0.99 0,0.37 -0.07,0.7 -0.23,1 -0.15,0.29 -0.36,0.52 -0.64,0.67 -0.27,0.15 -0.57,0.23 -0.89,0.23 -0.35,0 -0.66,-0.09 -0.94,-0.26 -0.27,-0.16 -0.48,-0.39 -0.62,-0.68 -0.14,-0.29 -0.21,-0.6 -0.21,-0.92zm0.51 0.01c0,0.44 0.12,0.79 0.35,1.05 0.24,0.25 0.54,0.38 0.9,0.38 0.37,0 0.67,-0.13 0.91,-0.39 0.24,-0.26 0.36,-0.62 0.36,-1.1 0,-0.29 -0.05,-0.56 -0.16,-0.78 -0.1,-0.22 -0.25,-0.4 -0.44,-0.52 -0.2,-0.12 -0.42,-0.18 -0.66,-0.18 -0.34,0 -0.64,0.11 -0.89,0.35 -0.25,0.24 -0.37,0.63 -0.37,1.19z"/>
  <polygon id="6" class="fil14" points="42.57,50.84 42.57,47.16 43.06,47.16 43.06,48.98 44.89,47.16 45.55,47.16 44,48.65 45.62,50.84 44.97,50.84 43.66,48.98 43.06,49.57 43.06,50.84 "/>
  <path id="7" class="fil14" d="M45.87 49.66l0.45 -0.04c0.03,0.18 0.08,0.34 0.16,0.45 0.08,0.12 0.2,0.22 0.37,0.29 0.17,0.08 0.35,0.11 0.56,0.11 0.19,0 0.35,-0.02 0.5,-0.08 0.14,-0.06 0.24,-0.13 0.31,-0.23 0.07,-0.1 0.11,-0.2 0.11,-0.32 0,-0.11 -0.03,-0.21 -0.1,-0.3 -0.07,-0.08 -0.18,-0.16 -0.33,-0.21 -0.1,-0.04 -0.32,-0.1 -0.66,-0.18 -0.34,-0.09 -0.58,-0.16 -0.71,-0.23 -0.18,-0.1 -0.31,-0.21 -0.4,-0.35 -0.08,-0.14 -0.12,-0.29 -0.12,-0.46 0,-0.19 0.05,-0.36 0.15,-0.52 0.11,-0.16 0.26,-0.29 0.47,-0.37 0.2,-0.08 0.43,-0.13 0.67,-0.13 0.28,0 0.52,0.05 0.73,0.14 0.21,0.08 0.37,0.21 0.48,0.38 0.11,0.18 0.17,0.37 0.18,0.59l-0.47 0.03c-0.02,-0.23 -0.11,-0.41 -0.25,-0.53 -0.15,-0.11 -0.36,-0.17 -0.65,-0.17 -0.29,0 -0.51,0.05 -0.64,0.16 -0.14,0.11 -0.21,0.24 -0.21,0.39 0,0.13 0.05,0.24 0.15,0.33 0.09,0.08 0.34,0.17 0.73,0.26 0.4,0.09 0.67,0.17 0.82,0.24 0.21,0.09 0.37,0.22 0.48,0.37 0.1,0.15 0.15,0.33 0.15,0.52 0,0.2 -0.06,0.38 -0.17,0.56 -0.11,0.17 -0.27,0.31 -0.48,0.4 -0.21,0.1 -0.45,0.15 -0.71,0.15 -0.34,0 -0.62,-0.05 -0.84,-0.15 -0.23,-0.1 -0.4,-0.24 -0.53,-0.44 -0.13,-0.19 -0.2,-0.41 -0.2,-0.66z"/>
  <polygon id="8" class="fil14" points="59.57,50.84 59.57,47.16 60.06,47.16 60.06,50.84 "/>
  <path id="9" class="fil14" d="M60.91 50.84l0 -3.68 0.73 0 0.87 2.61c0.08,0.24 0.14,0.42 0.18,0.54 0.04,-0.13 0.1,-0.33 0.19,-0.59l0.89 -2.56 0.65 0 0 3.68 -0.46 0 0 -3.08 -1.08 3.08 -0.44 0 -1.07 -3.14 0 3.14 -0.46 0z"/>
  <path id="10" class="fil14" d="M64.8 50.84l1.42 -3.68 0.54 0 1.5 3.68 -0.56 0 -0.43 -1.11 -1.55 0 -0.4 1.11 -0.52 0zm1.06 -1.51l1.26 0 -0.38 -1.02c-0.12,-0.31 -0.21,-0.57 -0.27,-0.77 -0.05,0.24 -0.12,0.47 -0.2,0.71l-0.41 1.08z"/>
  <path id="11" class="fil14" d="M70.37 49.4l0 -0.44 1.56 0 0 1.37c-0.24,0.19 -0.49,0.34 -0.74,0.43 -0.26,0.1 -0.52,0.15 -0.79,0.15 -0.36,0 -0.69,-0.08 -0.98,-0.24 -0.3,-0.15 -0.52,-0.38 -0.67,-0.67 -0.15,-0.29 -0.23,-0.62 -0.23,-0.98 0,-0.36 0.08,-0.7 0.23,-1.01 0.15,-0.31 0.36,-0.54 0.64,-0.69 0.28,-0.15 0.61,-0.23 0.98,-0.23 0.26,0 0.5,0.05 0.72,0.13 0.22,0.09 0.38,0.21 0.51,0.36 0.12,0.16 0.21,0.36 0.28,0.61l-0.44 0.12c-0.06,-0.19 -0.13,-0.34 -0.21,-0.44 -0.08,-0.11 -0.2,-0.2 -0.35,-0.26 -0.15,-0.07 -0.32,-0.1 -0.51,-0.1 -0.22,0 -0.42,0.04 -0.58,0.1 -0.16,0.07 -0.29,0.16 -0.39,0.27 -0.1,0.11 -0.18,0.23 -0.23,0.37 -0.1,0.23 -0.14,0.47 -0.14,0.74 0,0.33 0.05,0.61 0.16,0.83 0.12,0.22 0.28,0.38 0.5,0.49 0.22,0.11 0.44,0.16 0.69,0.16 0.21,0 0.41,-0.04 0.62,-0.12 0.2,-0.08 0.35,-0.17 0.45,-0.26l0 -0.69 -1.08 0z"/>
  <polygon id="12" class="fil14" points="72.66,50.84 72.66,47.16 75.33,47.16 75.33,47.59 73.15,47.59 73.15,48.72 75.19,48.72 75.19,49.15 73.15,49.15 73.15,50.41 75.41,50.41 75.41,50.84 "/>
  <path id="13" class="fil14" d="M75.93 49.66l0.46 -0.04c0.02,0.18 0.07,0.34 0.15,0.45 0.08,0.12 0.2,0.22 0.37,0.29 0.17,0.08 0.36,0.11 0.57,0.11 0.18,0 0.35,-0.02 0.49,-0.08 0.14,-0.06 0.25,-0.13 0.32,-0.23 0.07,-0.1 0.1,-0.2 0.1,-0.32 0,-0.11 -0.03,-0.21 -0.1,-0.3 -0.07,-0.08 -0.18,-0.16 -0.33,-0.21 -0.1,-0.04 -0.32,-0.1 -0.66,-0.18 -0.34,-0.09 -0.57,-0.16 -0.71,-0.23 -0.18,-0.1 -0.31,-0.21 -0.39,-0.35 -0.09,-0.14 -0.13,-0.29 -0.13,-0.46 0,-0.19 0.05,-0.36 0.16,-0.52 0.1,-0.16 0.26,-0.29 0.46,-0.37 0.2,-0.08 0.43,-0.13 0.68,-0.13 0.27,0 0.51,0.05 0.72,0.14 0.21,0.08 0.37,0.21 0.48,0.38 0.11,0.18 0.17,0.37 0.18,0.59l-0.47 0.03c-0.02,-0.23 -0.11,-0.41 -0.25,-0.53 -0.15,-0.11 -0.36,-0.17 -0.64,-0.17 -0.3,0 -0.52,0.05 -0.65,0.16 -0.13,0.11 -0.2,0.24 -0.2,0.39 0,0.13 0.05,0.24 0.14,0.33 0.1,0.08 0.34,0.17 0.74,0.26 0.39,0.09 0.67,0.17 0.81,0.24 0.22,0.09 0.38,0.22 0.48,0.37 0.1,0.15 0.15,0.33 0.15,0.52 0,0.2 -0.05,0.38 -0.17,0.56 -0.11,0.17 -0.27,0.31 -0.48,0.4 -0.21,0.1 -0.45,0.15 -0.71,0.15 -0.33,0 -0.61,-0.05 -0.84,-0.15 -0.22,-0.1 -0.4,-0.24 -0.53,-0.44 -0.13,-0.19 -0.19,-0.41 -0.2,-0.66z"/>
  <path id="14" class="fil14" d="M90.6 50.84l-1.43 -3.68 0.53 0 0.96 2.68c0.08,0.21 0.14,0.41 0.19,0.6 0.06,-0.2 0.13,-0.4 0.2,-0.6l1 -2.68 0.49 0 -1.43 3.68 -0.51 0z"/>
  <polygon id="15" class="fil14" points="93.07,50.84 93.07,47.16 93.56,47.16 93.56,50.84 "/>
  <path id="16" class="fil14" d="M94.42 50.84l0 -3.68 1.27 0c0.28,0 0.5,0.01 0.65,0.05 0.21,0.05 0.4,0.13 0.54,0.26 0.2,0.17 0.34,0.38 0.44,0.63 0.1,0.26 0.15,0.55 0.15,0.88 0,0.28 -0.04,0.53 -0.1,0.74 -0.07,0.22 -0.15,0.4 -0.25,0.54 -0.11,0.14 -0.22,0.26 -0.34,0.34 -0.12,0.08 -0.27,0.14 -0.44,0.18 -0.17,0.04 -0.37,0.06 -0.59,0.06l-1.33 0zm0.48 -0.43l0.79 0c0.24,0 0.44,-0.02 0.57,-0.07 0.14,-0.04 0.25,-0.11 0.33,-0.19 0.12,-0.11 0.21,-0.27 0.27,-0.47 0.07,-0.19 0.1,-0.43 0.1,-0.71 0,-0.38 -0.06,-0.68 -0.19,-0.89 -0.13,-0.21 -0.28,-0.35 -0.46,-0.42 -0.13,-0.05 -0.34,-0.07 -0.63,-0.07l-0.78 0 0 2.82z"/>
  <polygon id="17" class="fil14" points="98.15,50.84 98.15,47.16 100.81,47.16 100.81,47.59 98.64,47.59 98.64,48.72 100.67,48.72 100.67,49.15 98.64,49.15 98.64,50.41 100.9,50.41 100.9,50.84 "/>
  <path id="18" class="fil14" d="M101.42 49.05c0,-0.61 0.17,-1.09 0.5,-1.44 0.33,-0.34 0.75,-0.52 1.27,-0.52 0.34,0 0.65,0.08 0.92,0.25 0.28,0.16 0.48,0.39 0.63,0.68 0.14,0.29 0.21,0.62 0.21,0.99 0,0.37 -0.07,0.7 -0.22,1 -0.15,0.29 -0.37,0.52 -0.64,0.67 -0.28,0.15 -0.58,0.23 -0.9,0.23 -0.35,0 -0.66,-0.09 -0.93,-0.26 -0.28,-0.16 -0.48,-0.39 -0.62,-0.68 -0.15,-0.29 -0.22,-0.6 -0.22,-0.92zm0.51 0.01c0,0.44 0.12,0.79 0.36,1.05 0.24,0.25 0.54,0.38 0.9,0.38 0.36,0 0.67,-0.13 0.9,-0.39 0.24,-0.26 0.36,-0.62 0.36,-1.1 0,-0.29 -0.05,-0.56 -0.15,-0.78 -0.1,-0.22 -0.25,-0.4 -0.45,-0.52 -0.19,-0.12 -0.41,-0.18 -0.66,-0.18 -0.34,0 -0.64,0.11 -0.89,0.35 -0.25,0.24 -0.37,0.63 -0.37,1.19z"/>
  <path id="19" class="fil14" d="M105.42 49.66l0.46 -0.04c0.02,0.18 0.07,0.34 0.15,0.45 0.08,0.12 0.21,0.22 0.37,0.29 0.17,0.08 0.36,0.11 0.57,0.11 0.19,0 0.35,-0.02 0.49,-0.08 0.14,-0.06 0.25,-0.13 0.32,-0.23 0.07,-0.1 0.1,-0.2 0.1,-0.32 0,-0.11 -0.03,-0.21 -0.1,-0.3 -0.06,-0.08 -0.17,-0.16 -0.33,-0.21 -0.1,-0.04 -0.32,-0.1 -0.66,-0.18 -0.33,-0.09 -0.57,-0.16 -0.71,-0.23 -0.17,-0.1 -0.3,-0.21 -0.39,-0.35 -0.09,-0.14 -0.13,-0.29 -0.13,-0.46 0,-0.19 0.05,-0.36 0.16,-0.52 0.11,-0.16 0.26,-0.29 0.46,-0.37 0.21,-0.08 0.43,-0.13 0.68,-0.13 0.27,0 0.51,0.05 0.72,0.14 0.21,0.08 0.37,0.21 0.48,0.38 0.12,0.18 0.18,0.37 0.19,0.59l-0.47 0.03c-0.03,-0.23 -0.11,-0.41 -0.26,-0.53 -0.14,-0.11 -0.36,-0.17 -0.64,-0.17 -0.3,0 -0.51,0.05 -0.65,0.16 -0.13,0.11 -0.2,0.24 -0.2,0.39 0,0.13 0.05,0.24 0.14,0.33 0.1,0.08 0.34,0.17 0.74,0.26 0.4,0.09 0.67,0.17 0.82,0.24 0.21,0.09 0.37,0.22 0.47,0.37 0.1,0.15 0.15,0.33 0.15,0.52 0,0.2 -0.05,0.38 -0.17,0.56 -0.11,0.17 -0.27,0.31 -0.48,0.4 -0.21,0.1 -0.45,0.15 -0.71,0.15 -0.33,0 -0.61,-0.05 -0.84,-0.15 -0.22,-0.1 -0.4,-0.24 -0.53,-0.44 -0.12,-0.19 -0.19,-0.41 -0.2,-0.66z"/>
  <polygon id="20" class="fil14" points="119.03,50.84 119.03,47.16 119.54,47.16 121.47,50.05 121.47,47.16 121.94,47.16 121.94,50.84 121.44,50.84 119.5,47.95 119.5,50.84 "/>
  <polygon id="21" class="fil14" points="122.77,50.84 122.77,47.16 125.43,47.16 125.43,47.59 123.26,47.59 123.26,48.72 125.3,48.72 125.3,49.15 123.26,49.15 123.26,50.41 125.52,50.41 125.52,50.84 "/>
  <path id="22" class="fil14" d="M126.83 50.84l-0.97 -3.68 0.51 0 0.55 2.41c0.06,0.26 0.12,0.51 0.16,0.76 0.1,-0.4 0.15,-0.62 0.17,-0.68l0.7 -2.49 0.59 0 0.53 1.86c0.12,0.47 0.22,0.9 0.28,1.31 0.05,-0.23 0.11,-0.5 0.19,-0.8l0.58 -2.37 0.49 0 -1.01 3.68 -0.48 0 -0.77 -2.81c-0.07,-0.23 -0.11,-0.38 -0.12,-0.43 -0.04,0.17 -0.08,0.31 -0.11,0.43l-0.78 2.81 -0.51 0z"/>
  <path id="23" class="fil14" d="M130.9 49.66l0.46 -0.04c0.02,0.18 0.07,0.34 0.15,0.45 0.08,0.12 0.2,0.22 0.37,0.29 0.17,0.08 0.36,0.11 0.57,0.11 0.18,0 0.35,-0.02 0.49,-0.08 0.14,-0.06 0.25,-0.13 0.32,-0.23 0.07,-0.1 0.1,-0.2 0.1,-0.32 0,-0.11 -0.03,-0.21 -0.1,-0.3 -0.06,-0.08 -0.17,-0.16 -0.33,-0.21 -0.1,-0.04 -0.32,-0.1 -0.66,-0.18 -0.34,-0.09 -0.57,-0.16 -0.71,-0.23 -0.17,-0.1 -0.3,-0.21 -0.39,-0.35 -0.09,-0.14 -0.13,-0.29 -0.13,-0.46 0,-0.19 0.05,-0.36 0.16,-0.52 0.1,-0.16 0.26,-0.29 0.46,-0.37 0.2,-0.08 0.43,-0.13 0.68,-0.13 0.27,0 0.51,0.05 0.72,0.14 0.21,0.08 0.37,0.21 0.48,0.38 0.12,0.18 0.18,0.37 0.18,0.59l-0.46 0.03c-0.03,-0.23 -0.11,-0.41 -0.26,-0.53 -0.14,-0.11 -0.36,-0.17 -0.64,-0.17 -0.3,0 -0.51,0.05 -0.65,0.16 -0.13,0.11 -0.2,0.24 -0.2,0.39 0,0.13 0.05,0.24 0.14,0.33 0.1,0.08 0.34,0.17 0.74,0.26 0.39,0.09 0.67,0.17 0.81,0.24 0.22,0.09 0.38,0.22 0.48,0.37 0.1,0.15 0.15,0.33 0.15,0.52 0,0.2 -0.05,0.38 -0.17,0.56 -0.11,0.17 -0.27,0.31 -0.48,0.4 -0.21,0.1 -0.45,0.15 -0.71,0.15 -0.33,0 -0.61,-0.05 -0.84,-0.15 -0.22,-0.1 -0.4,-0.24 -0.53,-0.44 -0.13,-0.19 -0.19,-0.41 -0.2,-0.66z"/>
  <rect class="fil15" y="60.38" width="145.98" height="53.99"/>
  <line class="fil0 str1" x1="4.71" y1="141.55" x2="140.41" y2= "141.55" />
  <line class="fil0 str1" x1="71.62" y1="137.69" x2="71.62" y2= "119.19" />
  <rect class="fil13" x="6.66" y="146.41" width="118.62" height="4.54" rx="2.23" ry="1.44"/>
  <rect class="fil13" x="6.66" y="154.13" width="118.62" height="4.54" rx="2.23" ry="1.44"/>
  <rect class="fil13" x="6.66" y="161.84" width="95.76" height="4.54" rx="1.8" ry="1.44"/>
  <rect class="fil13" x="6.66" y="174.68" width="32.94" height="4.54" rx="0.62" ry="1.44"/>
  <rect class="fil13" x="6.66" y="181.2" width="32.94" height="4.54" rx="0.62" ry="1.44"/>
  <g id="_1666541884048">
   <rect class="fil13" x="16.19" y="123.39" width="12.37" height="11.04" rx="2.71" ry="2.71"/>
   <line class="fil0 str2" x1="36.17" y1="123.03" x2="29.39" y2= "134.79" />
   <rect class="fil13" x="37" y="123.39" width="12.37" height="11.04" rx="2.71" ry="2.71"/>
  </g>
  <g id="_1666541886256">
   <rect class="fil13" x="95.33" y="123.39" width="12.37" height="11.04" rx="2.71" ry="2.71"/>
   <line class="fil0 str2" x1="115.31" y1="123.03" x2="108.53" y2= "134.79" />
   <rect class="fil13" x="116.14" y="123.39" width="12.37" height="11.04" rx="2.71" ry="2.71"/>
  </g>
  <g id="_1666541887152">
   <path class="fil1" d="M93.51 81.83c0,1.01 -0.81,1.82 -1.82,1.82 -1.01,0 -1.83,-0.81 -1.83,-1.82 0,-1.01 0.82,-1.83 1.83,-1.83 1.01,0 1.82,0.82 1.82,1.83zm0 0z"/>
   <path class="fil1" d="M91.69 84.08c-1.24,0 -2.25,-1.01 -2.25,-2.25 0,-1.24 1.01,-2.25 2.25,-2.25 1.24,0 2.24,1.01 2.24,2.25 0,1.24 -1,2.25 -2.24,2.25zm0 -3.66c-0.78,0 -1.41,0.63 -1.41,1.41 0,0.77 0.63,1.4 1.41,1.4 0.77,0 1.4,-0.63 1.4,-1.4 0,-0.78 -0.63,-1.41 -1.4,-1.41zm0 0z"/>
   <path class="fil1" d="M93.51 90.82c0,1.01 -0.81,1.83 -1.82,1.83 -1.01,0 -1.83,-0.82 -1.83,-1.83 0,-1.01 0.82,-1.83 1.83,-1.83 1.01,0 1.82,0.82 1.82,1.83zm0 0z"/>
   <path class="fil1" d="M91.69 93.07c-1.24,0 -2.25,-1.01 -2.25,-2.25 0,-1.24 1.01,-2.25 2.25,-2.25 1.24,0 2.24,1.01 2.24,2.25 0,1.24 -1,2.25 -2.24,2.25zm0 -3.65c-0.78,0 -1.41,0.63 -1.41,1.4 0,0.78 0.63,1.41 1.41,1.41 0.77,0 1.4,-0.63 1.4,-1.41 0,-0.77 -0.63,-1.4 -1.4,-1.4zm0 0z"/>
   <path class="fil1" d="M85.64 86.32c0,1.01 -0.81,1.83 -1.82,1.83 -1.01,0 -1.83,-0.82 -1.83,-1.83 0,-1 0.82,-1.82 1.83,-1.82 1.01,0 1.82,0.82 1.82,1.82zm0 0z"/>
   <path class="fil1" d="M83.82 88.57c-1.24,0 -2.25,-1.01 -2.25,-2.25 0,-1.24 1.01,-2.24 2.25,-2.24 1.24,0 2.25,1 2.25,2.24 0,1.24 -1.01,2.25 -2.25,2.25zm0 -3.65c-0.78,0 -1.41,0.63 -1.41,1.4 0,0.78 0.63,1.41 1.41,1.41 0.77,0 1.4,-0.63 1.4,-1.41 0,-0.77 -0.63,-1.4 -1.4,-1.4zm0 0z"/>
   <path class="fil1" d="M85.14 86.05c-0.19,0 -0.38,-0.1 -0.49,-0.28 -0.15,-0.27 -0.05,-0.61 0.21,-0.77l5.22 -2.97c0.27,-0.15 0.61,-0.06 0.77,0.21 0.15,0.27 0.06,0.61 -0.21,0.77l-5.22 2.97c-0.09,0.05 -0.18,0.07 -0.28,0.07l0 0zm0 0z"/>
   <path class="fil1" d="M90.36 90.69c-0.1,0 -0.19,-0.02 -0.28,-0.07l-5.21 -2.98c-0.27,-0.15 -0.37,-0.49 -0.21,-0.76 0.15,-0.27 0.49,-0.37 0.76,-0.21l5.22 2.97c0.27,0.16 0.36,0.5 0.21,0.77 -0.11,0.18 -0.3,0.28 -0.49,0.28l0 0zm0 0z"/>
  </g>
  <rect class="fil1" x="6.29" y="77.89" width="58.2" height="8.03" rx="1.09" ry="2.55"/>
  <rect class="fil1" x="7.21" y="90.91" width="42.48" height="4.54" rx="0.8" ry="1.44"/>
  <g id="_1666541891024">
   <g>
    <path class="fil1" d="M108.24 99.84l11.5 0c0.78,0 1.52,-0.3 2.09,-0.83l0.07 0.06c0.56,0.49 1.27,0.77 2.02,0.77l0.1 0c0.28,0 0.51,-0.23 0.51,-0.51 0,-0.28 -0.23,-0.51 -0.51,-0.51l-0.1 0c-0.5,0 -0.98,-0.18 -1.35,-0.51l-0.24 -0.21 0.03 -22.4c0.46,-0.45 1.06,-0.72 1.7,-0.77 0.28,-0.02 0.49,-0.27 0.47,-0.55 -0.03,-0.27 -0.27,-0.48 -0.55,-0.46 -0.78,0.06 -1.53,0.37 -2.12,0.88 -0.68,-0.58 -1.53,-0.89 -2.42,-0.89l-7.39 0c-0.28,0 -0.51,0.22 -0.51,0.5 0,0.28 0.23,0.51 0.51,0.51l7.39 0c0.72,0 1.4,0.28 1.91,0.78l-0.04 22.41 -0.16 0.16c-0.38,0.36 -0.88,0.55 -1.41,0.55l-11.44 0 0 -23.9 1.6 0c0.27,0 0.5,-0.23 0.5,-0.51 0,-0.28 -0.23,-0.5 -0.5,-0.5l-1.66 0c-0.53,0 -0.95,0.42 -0.95,0.95l0 0.79 -2.03 0c-0.38,0 -0.68,0.31 -0.68,0.68l0 25.36c0,0.37 0.3,0.68 0.68,0.68l18.76 0c0.28,0 0.51,-0.23 0.51,-0.51 0,-0.28 -0.23,-0.5 -0.51,-0.5l-18.43 0 0 -24.7 1.7 0 0 22.22c0,0.53 0.42,0.96 0.95,0.96l0 0z"/>
    <path class="fil1" d="M138.63 97.15c-0.28,0 -0.51,0.23 -0.51,0.51l0 3.7 -6.83 0c-0.28,0 -0.5,0.22 -0.5,0.5 0,0.28 0.22,0.51 0.5,0.51l7.17 0c0.37,0 0.68,-0.31 0.68,-0.68l0 -4.03c0,-0.28 -0.23,-0.51 -0.51,-0.51l0 0z"/>
    <path class="fil1" d="M138.46 75.65l-2.03 0 0 -0.79c0,-0.53 -0.43,-0.95 -0.95,-0.95l-4.19 0c-0.28,0 -0.5,0.22 -0.5,0.5 0,0.28 0.22,0.51 0.5,0.51l4.13 0 0 23.9 -4.13 0c-0.28,0 -0.5,0.23 -0.5,0.51 0,0.28 0.22,0.51 0.5,0.51l4.19 0c0.52,0 0.95,-0.43 0.95,-0.96l0 -22.22 1.69 0 0 18.84c0,0.28 0.23,0.51 0.51,0.51 0.28,0 0.51,-0.23 0.51,-0.51l0 -19.17c0,-0.37 -0.31,-0.68 -0.68,-0.68z"/>
    <path class="fil1" d="M128.85 73.42l-2.38 0c-0.51,0 -0.93,0.41 -0.93,0.92l0 29.3c0,0.23 0.12,0.45 0.31,0.57 0.2,0.12 0.44,0.14 0.65,0.04l1.16 -0.54 1.15 0.54c0.09,0.04 0.19,0.07 0.29,0.07 0.13,0 0.25,-0.04 0.36,-0.11 0.2,-0.12 0.31,-0.34 0.31,-0.57l0 -24.49c0,-0.28 -0.22,-0.51 -0.5,-0.51 -0.28,0 -0.51,0.23 -0.51,0.51l0 23.96 -0.89 -0.42c-0.13,-0.06 -0.29,-0.06 -0.43,0l-0.89 0.42 0 -28.68 2.21 0 0 2.56c0,0.28 0.23,0.51 0.51,0.51 0.28,0 0.5,-0.23 0.5,-0.51l0 -2.65c0,-0.51 -0.41,-0.92 -0.92,-0.92l0 0z"/>
    <path class="fil1" d="M119.47 78.93l-9.19 0c-0.28,0 -0.5,0.23 -0.5,0.51 0,0.28 0.22,0.5 0.5,0.5l9.19 0c0.28,0 0.51,-0.22 0.51,-0.5 0,-0.28 -0.23,-0.51 -0.51,-0.51z"/>
    <path class="fil1" d="M119.47 81.97l-5.62 0c-0.28,0 -0.5,0.23 -0.5,0.51 0,0.28 0.22,0.5 0.5,0.5l5.62 0c0.28,0 0.51,-0.22 0.51,-0.5 0,-0.28 -0.23,-0.51 -0.51,-0.51z"/>
    <path class="fil1" d="M119.47 85.01l-9.19 0c-0.28,0 -0.5,0.23 -0.5,0.51 0,0.28 0.22,0.5 0.5,0.5l9.19 0c0.28,0 0.51,-0.22 0.51,-0.5 0,-0.28 -0.23,-0.51 -0.51,-0.51z"/>
    <path class="fil1" d="M119.47 88.05l-9.19 0c-0.28,0 -0.5,0.23 -0.5,0.51 0,0.28 0.22,0.5 0.5,0.5l9.19 0c0.28,0 0.51,-0.22 0.51,-0.5 0,-0.28 -0.23,-0.51 -0.51,-0.51z"/>
    <path class="fil1" d="M110.28 92.1l6.08 0c0.28,0 0.51,-0.22 0.51,-0.5 0,-0.28 -0.23,-0.51 -0.51,-0.51l-6.08 0c-0.28,0 -0.5,0.23 -0.5,0.51 0,0.28 0.22,0.5 0.5,0.5z"/>
    <path class="fil1" d="M110.28 95.14l9.19 0c0.28,0 0.51,-0.22 0.51,-0.5 0,-0.28 -0.23,-0.51 -0.51,-0.51l-9.19 0c-0.28,0 -0.5,0.23 -0.5,0.51 0,0.28 0.22,0.5 0.5,0.5z"/>
    <path class="fil1" d="M110.28 82.98l1.38 0c0.28,0 0.51,-0.22 0.51,-0.5 0,-0.28 -0.23,-0.51 -0.51,-0.51l-1.38 0c-0.28,0 -0.5,0.23 -0.5,0.51 0,0.28 0.22,0.5 0.5,0.5z"/>
    <path class="fil1" d="M119.47 91.09l-1.06 0c-0.28,0 -0.5,0.23 -0.5,0.51 0,0.28 0.22,0.5 0.5,0.5l1.06 0c0.28,0 0.51,-0.22 0.51,-0.5 0,-0.28 -0.23,-0.51 -0.51,-0.51z"/>
    <path class="fil1" d="M131.46 79.94l2.04 0c0.28,0 0.5,-0.22 0.5,-0.5 0,-0.28 -0.22,-0.51 -0.5,-0.51l-2.04 0c-0.28,0 -0.5,0.23 -0.5,0.51 0,0.28 0.22,0.5 0.5,0.5z"/>
    <path class="fil1" d="M131.46 82.98l2.04 0c0.28,0 0.5,-0.22 0.5,-0.5 0,-0.28 -0.22,-0.51 -0.5,-0.51l-2.04 0c-0.28,0 -0.5,0.23 -0.5,0.51 0,0.28 0.22,0.5 0.5,0.5z"/>
    <path class="fil1" d="M131.46 86.02l2.04 0c0.28,0 0.5,-0.22 0.5,-0.5 0,-0.28 -0.22,-0.51 -0.5,-0.51l-2.04 0c-0.28,0 -0.5,0.23 -0.5,0.51 0,0.28 0.22,0.5 0.5,0.5z"/>
    <path class="fil1" d="M131.46 89.06l2.04 0c0.28,0 0.5,-0.22 0.5,-0.5 0,-0.28 -0.22,-0.51 -0.5,-0.51l-2.04 0c-0.28,0 -0.5,0.23 -0.5,0.51 0,0.28 0.22,0.5 0.5,0.5z"/>
    <path class="fil1" d="M131.46 95.14l2.04 0c0.28,0 0.5,-0.22 0.5,-0.5 0,-0.28 -0.22,-0.51 -0.5,-0.51l-2.04 0c-0.28,0 -0.5,0.23 -0.5,0.51 0,0.28 0.22,0.5 0.5,0.5z"/>
    <path class="fil1" d="M131.46 92.1l2.04 0c0.28,0 0.5,-0.22 0.5,-0.5 0,-0.28 -0.22,-0.51 -0.5,-0.51l-2.04 0c-0.28,0 -0.5,0.23 -0.5,0.51 0,0.28 0.22,0.5 0.5,0.5z"/>
   </g>
  </g>
 </g>
</svg>
