<?xml version="1.0" encoding="UTF-8"?>


<!DOCTYPE svg PUBLIC "-//W3C//DTD SVG 1.1//EN" "http://www.w3.org/Graphics/SVG/1.1/DTD/svg11.dtd">

<svg xmlns="http://www.w3.org/2000/svg" xml:space="preserve" width="826px" height="1121px" version="1.1" style="shape-rendering:geometricPrecision; text-rendering:geometricPrecision; image-rendering:optimizeQuality; fill-rule:evenodd; clip-rule:evenodd"
viewBox="0 0 1083.99 1470.11"
 xmlns:xlink="http://www.w3.org/1999/xlink"
 xmlns:xodm="http://www.corel.com/coreldraw/odm/2003">
 <defs>
  <style type="text/css">
   <![CDATA[
    .str1 {stroke:#FEFEFE;stroke-width:2.73;stroke-miterlimit:2.61313}
    .str0 {stroke:#DFE1E5;stroke-width:2.73;stroke-miterlimit:2.61313}
    .fil0 {fill:none}
    .fil1 {fill:#FEFEFE}
    .fil13 {fill:#E6E7E8}
    .fil15 {fill:#00AFEF}
    .fil6 {fill:#1A74E8}
    .fil8 {fill:#35A854}
    .fil2 {fill:#3876E3}
    .fil9 {fill:#3B78E7}
    .fil3 {fill:#498AF4}
    .fil11 {fill:#767676}
    .fil5 {fill:#EA4435}
    .fil4 {fill:#F7B80A}
    .fil7 {fill:#FAFCFC}
    .fil12 {fill:#FBF5F5}
    .fil10 {fill:#FDFCFB}
    .fil14 {fill:#777777;fill-rule:nonzero}
   ]]>
  </style>
 </defs>
 <g id="Layer_x0020_1">
  <metadata id="CorelCorpID_0Corel-Layer"/>
  <rect class="fil0" width="1083.99" height="1470.11"/>
  <path class="fil1 str0" d="M945.85 298.27l0 -114.39c-283.51,0 -567.07,-0.38 -850.58,-0.01 -22.82,0.03 -40.29,2.95 -54.85,22.59 -13.73,18.53 -15.8,41.87 -4.25,62.04 12.65,22.1 27.65,29.9 52.72,29.99 6.62,0.02 13.23,-0.19 19.85,-0.22 279.04,-0.01 558.08,0 837.11,0z"/>
  <path class="fil2" d="M1005.34 250.45c-10.06,3.78 -17.52,7.35 -26.34,-2.18 -6.78,-9.33 -7.17,-20 2.41,-27.45 13.93,-10.83 35.86,0.99 28.09,22.51 -2,5.57 -2.6,2.84 3.92,8.59 3.93,3.47 7.89,6.95 10.69,11.43 -4.3,4.59 -3.77,3.93 -8.76,-0.79 -3.91,-3.63 -7.46,-7.39 -10.01,-12.11zm-65.95 50.22c21.93,0.04 45.9,0.98 67.57,-0.1 64.85,-4.59 74.58,-97.25 11.91,-116.55 -11.4,-3.52 -54.78,-2.07 -69.91,-2.02 -3.23,0.02 -6.46,0.02 -9.69,0.01 0.02,24.64 0.05,49.28 0.07,73.92 0.02,14.92 0.03,29.83 0.05,44.74z"/>
  <path class="fil3" d="M465.55 90.11c-0.71,22.08 -37.11,24.25 -43.79,1.34 -3.53,-12.13 1.4,-23.13 10.3,-28.42 3.9,-2.32 9.35,-4.03 15.46,-3.22 7.04,0.94 7.85,3.72 13.3,5.62 2.66,-1.88 3.76,-2.25 5.25,-5.92 -3.79,-5.44 -13.05,-8.81 -20.33,-8.98 -26.64,-0.61 -42.75,26.17 -31.81,47.91 16.25,32.29 68.66,19.44 60.61,-17.5l-30.32 0.41 0.04 8.3 21.29 0.46z"/>
  <path class="fil3" d="M588.9 83.47c14.99,-5.69 19.83,20.45 6.75,24.39 -14.87,4.48 -21.27,-18.88 -6.75,-24.39zm12.09 -6.07c-12.87,-10.21 -30.82,3.44 -29.45,20.45 0.66,8.17 5.86,13.95 10.64,16.68 9.76,5.6 13.74,1.04 20.63,-1.45 0.77,16.5 -15.11,19.2 -21.64,7.28l-7.82 2.44c1.86,14.76 26.42,18.58 35.16,4.75 4.45,-7.03 3.47,-14.77 3.46,-24.66 0,-6.59 0.77,-22.04 -0.57,-27.55 -10.73,-0.58 -6.87,1.34 -10.41,2.06z"/>
  <path class="fil4" d="M543.5 83.45c15.32,-5.38 21.03,19.34 7.67,24.18 -15.71,5.7 -23.58,-18.59 -7.67,-24.18zm-17.8 16.41c4.92,26.06 46.51,21.01 42.13,-7.93 -4.19,-27.7 -47.54,-20.74 -42.13,7.93z"/>
  <path class="fil5" d="M489.14 99.86c-4.81,-18.28 18.82,-22.93 22.75,-8.75 5.13,18.52 -18.95,23.2 -22.75,8.75zm-9.72 0c4.88,25.43 46.51,21.59 42.11,-7.95 -4.12,-27.67 -47.6,-20.63 -42.11,7.95z"/>
  <path class="fil5" d="M639.64 94.43c-1.41,-9.83 10.63,-16 17.78,-8.69 -1.14,2.92 -0.1,1.66 -3.68,3.27l-14.1 5.42zm2.14 6.96c6.54,-2.33 23.21,-8.42 26.74,-11.62 -3.72,-21.3 -36.44,-20.56 -38.53,2.99 -2.21,24.69 27.03,31.81 38.52,14.77l-7.02 -4.37c-3.33,2.8 -4.52,5.06 -10.1,5.23 -6.04,0.2 -8.8,-1.81 -9.61,-7z"/>
  <polygon class="fil6" points="176.32,410.53 23.14,410.54 23.31,416.4 176.1,416.4 "/>
  <path class="fil7" d="M987.75 224.19c15.93,-7.75 25.13,16.27 10.72,23.07 -14.62,6.9 -27.39,-14.94 -10.72,-23.07zm17.59 26.26c2.52,5.49 11.19,13.51 15.13,16.51l3.78 -3.64c-1.79,-3.36 -4.82,-5.56 -7.6,-8.36l-8.72 -7.83c13.16,-25.17 -15.53,-39.03 -28.87,-24.28 -6.48,7.18 -6.71,18.24 -0.06,25.42 8.82,9.53 16.28,5.96 26.34,2.18z"/>
  <polygon class="fil8" points="616.8,115.51 626.35,115.66 625.83,52.66 616.64,53.17 "/>
  <path class="fil9" d="M987.75 224.19c-16.67,8.13 -3.9,29.97 10.72,23.07 14.41,-6.8 5.21,-30.82 -10.72,-23.07z"/>
  <path class="fil10" d="M489.14 99.86c3.8,14.45 27.88,9.77 22.75,-8.75 -3.93,-14.18 -27.56,-9.53 -22.75,8.75z"/>
  <path class="fil11" d="M860.21 227.87c4.2,4.76 7.3,8.35 11.19,13.47 -2.26,2.35 -9.29,9.17 -11.33,12.1l3.96 3.46 11.92 -11.51c5.12,4.34 8.71,7.99 12.42,11.38 2.06,-1.36 2.84,-2.15 4.12,-3.28 -2.2,-3.27 -8.49,-9.71 -11.21,-12.25l11.03 -12.1 -3.76 -5.23c-4.58,3.71 -7.88,7.81 -12.28,11.27l-11.77 -11.4 -4.29 4.09z"/>
  <path class="fil10" d="M543.5 83.45c-15.91,5.59 -8.04,29.88 7.67,24.18 13.36,-4.84 7.65,-29.56 -7.67,-24.18z"/>
  <path class="fil7" d="M588.9 83.47c-14.52,5.51 -8.12,28.87 6.75,24.39 13.08,-3.94 8.24,-30.08 -6.75,-24.39z"/>
  <polygon class="fil11" points="60.5,89.61 112.67,89.45 112.75,87.79 112.94,83.83 60.73,84.01 "/>
  <polygon class="fil11" points="60.67,104.06 112.81,103.83 112.94,98.28 60.9,98.39 "/>
  <polygon class="fil11" points="60.93,75.07 112.51,75.07 112.42,69.38 60.85,69.63 "/>
  <path class="fil12" d="M639.64 94.43l14.1 -5.42c3.58,-1.61 2.54,-0.35 3.68,-3.27 -7.15,-7.31 -19.19,-1.14 -17.78,8.69z"/>
  <circle class="fil13" cx="1001.92" cy="78.83" r="45.51"/>
  <path class="fil14" d="M65.87 377.56l10.51 -27.4 3.99 0 11.15 27.4 -4.12 0 -3.17 -8.3 -11.54 0 -2.97 8.3 -3.85 0zm7.89 -11.25l9.33 0 -2.86 -7.6c-0.86,-2.3 -1.51,-4.21 -1.96,-5.72 -0.38,1.79 -0.88,3.54 -1.51,5.28l-3 8.04z"/>
  <polygon id="1" class="fil14" points="94.25,377.56 94.25,350.16 97.88,350.16 97.88,374.35 111.35,374.35 111.35,377.56 "/>
  <polygon id="2" class="fil14" points="115.53,377.56 115.53,350.16 119.16,350.16 119.16,374.35 132.63,374.35 132.63,377.56 "/>
  <path id="3" class="fil14" d="M231.06 377.56l0 -27.4 10.28 0c2.09,0 3.77,0.28 5.04,0.83 1.26,0.56 2.25,1.41 2.96,2.57 0.72,1.14 1.08,2.35 1.08,3.61 0,1.17 -0.32,2.27 -0.95,3.31 -0.63,1.03 -1.59,1.86 -2.87,2.5 1.66,0.49 2.93,1.31 3.82,2.49 0.89,1.17 1.34,2.55 1.34,4.14 0,1.29 -0.27,2.48 -0.82,3.59 -0.54,1.1 -1.21,1.95 -2.01,2.55 -0.79,0.59 -1.79,1.04 -2.99,1.35 -1.21,0.31 -2.68,0.46 -4.43,0.46l-10.45 0zm3.64 -15.88l5.92 0c1.61,0 2.76,-0.11 3.46,-0.32 0.92,-0.27 1.61,-0.73 2.08,-1.37 0.47,-0.64 0.7,-1.43 0.7,-2.4 0,-0.91 -0.22,-1.71 -0.66,-2.4 -0.43,-0.7 -1.05,-1.17 -1.86,-1.43 -0.81,-0.25 -2.2,-0.38 -4.17,-0.38l-5.47 0 0 8.3zm0 12.67l6.82 0c1.17,0 1.99,-0.05 2.47,-0.14 0.83,-0.14 1.53,-0.39 2.09,-0.74 0.56,-0.36 1.02,-0.87 1.39,-1.54 0.36,-0.66 0.54,-1.44 0.54,-2.31 0,-1.03 -0.26,-1.91 -0.79,-2.67 -0.52,-0.76 -1.25,-1.29 -2.18,-1.6 -0.93,-0.3 -2.27,-0.46 -4.01,-0.46l-6.33 0 0 9.46z"/>
  <path id="4" class="fil14" d="M255.62 364.22c0,-4.54 1.23,-8.09 3.67,-10.66 2.44,-2.57 5.59,-3.86 9.46,-3.86 2.53,0 4.81,0.61 6.84,1.82 2.03,1.2 3.58,2.88 4.64,5.05 1.07,2.15 1.6,4.6 1.6,7.34 0,2.77 -0.56,5.26 -1.68,7.44 -1.12,2.2 -2.71,3.86 -4.76,4.98 -2.06,1.13 -4.28,1.69 -6.66,1.69 -2.58,0 -4.89,-0.63 -6.92,-1.87 -2.03,-1.24 -3.57,-2.94 -4.62,-5.1 -1.04,-2.14 -1.57,-4.42 -1.57,-6.83zm3.75 0.07c0,3.3 0.89,5.89 2.66,7.79 1.78,1.89 4,2.84 6.68,2.84 2.73,0 4.97,-0.96 6.73,-2.87 1.76,-1.91 2.64,-4.63 2.64,-8.15 0,-2.23 -0.37,-4.17 -1.12,-5.83 -0.76,-1.66 -1.86,-2.95 -3.31,-3.86 -1.45,-0.91 -3.08,-1.37 -4.88,-1.37 -2.57,0 -4.77,0.88 -6.62,2.64 -1.85,1.76 -2.78,4.7 -2.78,8.81z"/>
  <path id="5" class="fil14" d="M285.39 364.22c0,-4.54 1.22,-8.09 3.66,-10.66 2.45,-2.57 5.6,-3.86 9.46,-3.86 2.53,0 4.81,0.61 6.84,1.82 2.03,1.2 3.58,2.88 4.65,5.05 1.06,2.15 1.6,4.6 1.6,7.34 0,2.77 -0.56,5.26 -1.69,7.44 -1.12,2.2 -2.71,3.86 -4.76,4.98 -2.06,1.13 -4.28,1.69 -6.66,1.69 -2.58,0 -4.88,-0.63 -6.92,-1.87 -2.03,-1.24 -3.57,-2.94 -4.61,-5.1 -1.05,-2.14 -1.57,-4.42 -1.57,-6.83zm3.75 0.07c0,3.3 0.88,5.89 2.66,7.79 1.77,1.89 3.99,2.84 6.67,2.84 2.73,0 4.97,-0.96 6.74,-2.87 1.76,-1.91 2.64,-4.63 2.64,-8.15 0,-2.23 -0.38,-4.17 -1.13,-5.83 -0.75,-1.66 -1.86,-2.95 -3.31,-3.86 -1.45,-0.91 -3.08,-1.37 -4.88,-1.37 -2.56,0 -4.77,0.88 -6.62,2.64 -1.85,1.76 -2.77,4.7 -2.77,8.81z"/>
  <polygon id="6" class="fil14" points="316.11,377.56 316.11,350.16 319.74,350.16 319.74,363.75 333.35,350.16 338.26,350.16 326.77,361.27 338.76,377.56 333.97,377.56 324.22,363.73 319.74,368.07 319.74,377.56 "/>
  <path id="7" class="fil14" d="M340.59 368.76l3.41 -0.31c0.16,1.38 0.53,2.51 1.13,3.4 0.59,0.88 1.51,1.59 2.75,2.14 1.25,0.54 2.65,0.81 4.2,0.81 1.39,0 2.61,-0.2 3.66,-0.61 1.06,-0.42 1.85,-0.99 2.36,-1.71 0.52,-0.72 0.78,-1.5 0.78,-2.34 0,-0.86 -0.25,-1.6 -0.74,-2.25 -0.5,-0.64 -1.32,-1.17 -2.47,-1.61 -0.74,-0.28 -2.36,-0.73 -4.88,-1.33 -2.52,-0.61 -4.28,-1.18 -5.29,-1.71 -1.3,-0.69 -2.27,-1.55 -2.91,-2.56 -0.65,-1.02 -0.96,-2.16 -0.96,-3.41 0,-1.39 0.39,-2.69 1.18,-3.89 0.78,-1.2 1.92,-2.11 3.43,-2.74 1.51,-0.62 3.18,-0.94 5.03,-0.94 2.02,0 3.82,0.33 5.37,0.99 1.55,0.65 2.74,1.61 3.57,2.89 0.84,1.26 1.29,2.71 1.35,4.31l-3.48 0.27c-0.19,-1.73 -0.82,-3.04 -1.9,-3.92 -1.07,-0.88 -2.67,-1.32 -4.77,-1.32 -2.2,0 -3.8,0.4 -4.8,1.2 -1,0.81 -1.5,1.78 -1.5,2.91 0,0.98 0.35,1.79 1.06,2.43 0.7,0.63 2.52,1.29 5.47,1.95 2.94,0.67 4.96,1.25 6.06,1.75 1.59,0.73 2.77,1.66 3.53,2.79 0.76,1.12 1.13,2.41 1.13,3.88 0,1.46 -0.41,2.83 -1.25,4.11 -0.83,1.29 -2.02,2.29 -3.59,3.01 -1.56,0.71 -3.31,1.07 -5.27,1.07 -2.48,0 -4.55,-0.36 -6.22,-1.09 -1.68,-0.72 -2.98,-1.8 -3.93,-3.25 -0.96,-1.45 -1.46,-3.09 -1.51,-4.92z"/>
  <polygon id="8" class="fil14" points="442.33,377.56 442.33,350.16 445.96,350.16 445.96,377.56 "/>
  <path id="9" class="fil14" d="M452.27 377.56l0 -27.4 5.43 0 6.48 19.4c0.6,1.8 1.03,3.15 1.31,4.05 0.31,-0.99 0.8,-2.46 1.46,-4.39l6.6 -19.06 4.85 0 0 27.4 -3.48 0 0 -22.92 -8 22.92 -3.26 0 -7.91 -23.34 0 23.34 -3.48 0z"/>
  <path id="10" class="fil14" d="M481.21 377.56l10.51 -27.4 3.99 0 11.15 27.4 -4.12 0 -3.17 -8.3 -11.54 0 -2.97 8.3 -3.85 0zm7.89 -11.25l9.33 0 -2.86 -7.6c-0.86,-2.3 -1.51,-4.21 -1.96,-5.72 -0.37,1.79 -0.88,3.54 -1.51,5.28l-3 8.04z"/>
  <path id="11" class="fil14" d="M522.56 366.81l0 -3.22 11.59 0 0 10.16c-1.78,1.41 -3.61,2.48 -5.51,3.2 -1.89,0.71 -3.84,1.07 -5.83,1.07 -2.69,0 -5.13,-0.58 -7.33,-1.73 -2.19,-1.15 -3.86,-2.82 -4.98,-4.99 -1.12,-2.18 -1.68,-4.62 -1.68,-7.3 0,-2.67 0.56,-5.16 1.67,-7.47 1.12,-2.31 2.72,-4.03 4.81,-5.14 2.09,-1.12 4.5,-1.69 7.23,-1.69 1.98,0 3.77,0.32 5.37,0.97 1.6,0.64 2.86,1.53 3.76,2.68 0.92,1.14 1.6,2.64 2.08,4.48l-3.28 0.9c-0.41,-1.39 -0.92,-2.49 -1.53,-3.29 -0.61,-0.8 -1.48,-1.44 -2.61,-1.92 -1.13,-0.47 -2.39,-0.72 -3.77,-0.72 -1.65,0 -3.08,0.26 -4.29,0.76 -1.21,0.51 -2.18,1.17 -2.92,2 -0.74,0.82 -1.32,1.73 -1.72,2.71 -0.7,1.7 -1.05,3.54 -1.05,5.52 0,2.45 0.42,4.5 1.26,6.15 0.84,1.64 2.06,2.87 3.66,3.67 1.61,0.79 3.31,1.19 5.12,1.19 1.57,0 3.1,-0.3 4.59,-0.91 1.49,-0.61 2.62,-1.25 3.39,-1.95l0 -5.13 -8.03 0z"/>
  <polygon id="12" class="fil14" points="539.58,377.56 539.58,350.16 559.36,350.16 559.36,353.38 543.21,353.38 543.21,361.8 558.33,361.8 558.33,365.01 543.21,365.01 543.21,374.35 560.01,374.35 560.01,377.56 "/>
  <path id="13" class="fil14" d="M563.84 368.76l3.4 -0.31c0.16,1.38 0.54,2.51 1.13,3.4 0.59,0.88 1.51,1.59 2.75,2.14 1.25,0.54 2.65,0.81 4.21,0.81 1.38,0 2.6,-0.2 3.66,-0.61 1.06,-0.42 1.84,-0.99 2.36,-1.71 0.51,-0.72 0.78,-1.5 0.78,-2.34 0,-0.86 -0.25,-1.6 -0.75,-2.25 -0.5,-0.64 -1.32,-1.17 -2.47,-1.61 -0.73,-0.28 -2.36,-0.73 -4.88,-1.33 -2.52,-0.61 -4.28,-1.18 -5.28,-1.71 -1.31,-0.69 -2.28,-1.55 -2.92,-2.56 -0.64,-1.02 -0.96,-2.16 -0.96,-3.41 0,-1.39 0.39,-2.69 1.18,-3.89 0.78,-1.2 1.92,-2.11 3.44,-2.74 1.5,-0.62 3.18,-0.94 5.02,-0.94 2.03,0 3.82,0.33 5.37,0.99 1.55,0.65 2.74,1.61 3.58,2.89 0.83,1.26 1.28,2.71 1.34,4.31l-3.48 0.27c-0.18,-1.73 -0.82,-3.04 -1.89,-3.92 -1.08,-0.88 -2.67,-1.32 -4.78,-1.32 -2.19,0 -3.79,0.4 -4.79,1.2 -1.01,0.81 -1.51,1.78 -1.51,2.91 0,0.98 0.36,1.79 1.07,2.43 0.7,0.63 2.51,1.29 5.46,1.95 2.95,0.67 4.97,1.25 6.07,1.75 1.58,0.73 2.76,1.66 3.52,2.79 0.76,1.12 1.14,2.41 1.14,3.88 0,1.46 -0.42,2.83 -1.25,4.11 -0.84,1.29 -2.03,2.29 -3.59,3.01 -1.57,0.71 -3.32,1.07 -5.28,1.07 -2.47,0 -4.54,-0.36 -6.21,-1.09 -1.68,-0.72 -2.99,-1.8 -3.94,-3.25 -0.96,-1.45 -1.45,-3.09 -1.5,-4.92z"/>
  <path id="14" class="fil14" d="M672.76 377.56l-10.58 -27.4 3.93 0 7.11 19.91c0.57,1.6 1.05,3.09 1.44,4.49 0.42,-1.5 0.91,-3 1.47,-4.49l7.39 -19.91 3.69 0 -10.68 27.4 -3.77 0z"/>
  <polygon id="15" class="fil14" points="691.09,377.56 691.09,350.16 694.73,350.16 694.73,377.56 "/>
  <path id="16" class="fil14" d="M701.11 377.56l0 -27.4 9.44 0c2.13,0 3.75,0.13 4.88,0.39 1.57,0.37 2.9,1.02 4.01,1.97 1.45,1.22 2.53,2.78 3.24,4.68 0.72,1.9 1.08,4.07 1.08,6.52 0,2.07 -0.24,3.92 -0.73,5.52 -0.48,1.61 -1.11,2.94 -1.86,4 -0.77,1.05 -1.6,1.88 -2.5,2.48 -0.9,0.6 -1.99,1.06 -3.27,1.37 -1.28,0.32 -2.75,0.47 -4.4,0.47l-9.89 0zm3.63 -3.21l5.85 0c1.8,0 3.22,-0.17 4.24,-0.51 1.03,-0.34 1.85,-0.81 2.46,-1.42 0.85,-0.86 1.52,-2.02 2,-3.48 0.48,-1.45 0.72,-3.21 0.72,-5.28 0,-2.87 -0.47,-5.08 -1.41,-6.62 -0.93,-1.54 -2.08,-2.58 -3.42,-3.1 -0.97,-0.38 -2.53,-0.56 -4.69,-0.56l-5.75 0 0 20.97z"/>
  <polygon id="17" class="fil14" points="728.82,377.56 728.82,350.16 748.6,350.16 748.6,353.38 732.45,353.38 732.45,361.8 747.57,361.8 747.57,365.01 732.45,365.01 732.45,374.35 749.25,374.35 749.25,377.56 "/>
  <path id="18" class="fil14" d="M753.15 364.22c0,-4.54 1.23,-8.09 3.67,-10.66 2.44,-2.57 5.59,-3.86 9.46,-3.86 2.53,0 4.81,0.61 6.84,1.82 2.03,1.2 3.58,2.88 4.64,5.05 1.07,2.15 1.6,4.6 1.6,7.34 0,2.77 -0.56,5.26 -1.68,7.44 -1.12,2.2 -2.71,3.86 -4.76,4.98 -2.06,1.13 -4.28,1.69 -6.66,1.69 -2.59,0 -4.89,-0.63 -6.92,-1.87 -2.03,-1.24 -3.57,-2.94 -4.62,-5.1 -1.04,-2.14 -1.57,-4.42 -1.57,-6.83zm3.75 0.07c0,3.3 0.89,5.89 2.66,7.79 1.78,1.89 4,2.84 6.68,2.84 2.73,0 4.97,-0.96 6.73,-2.87 1.76,-1.91 2.64,-4.63 2.64,-8.15 0,-2.23 -0.37,-4.17 -1.13,-5.83 -0.75,-1.66 -1.85,-2.95 -3.3,-3.86 -1.45,-0.91 -3.08,-1.37 -4.88,-1.37 -2.57,0 -4.77,0.88 -6.62,2.64 -1.85,1.76 -2.78,4.7 -2.78,8.81z"/>
  <path id="19" class="fil14" d="M782.84 368.76l3.4 -0.31c0.16,1.38 0.54,2.51 1.13,3.4 0.6,0.88 1.51,1.59 2.76,2.14 1.24,0.54 2.64,0.81 4.2,0.81 1.38,0 2.6,-0.2 3.66,-0.61 1.06,-0.42 1.84,-0.99 2.36,-1.71 0.52,-0.72 0.78,-1.5 0.78,-2.34 0,-0.86 -0.25,-1.6 -0.75,-2.25 -0.5,-0.64 -1.32,-1.17 -2.47,-1.61 -0.73,-0.28 -2.36,-0.73 -4.87,-1.33 -2.52,-0.61 -4.28,-1.18 -5.29,-1.71 -1.31,-0.69 -2.28,-1.55 -2.92,-2.56 -0.64,-1.02 -0.96,-2.16 -0.96,-3.41 0,-1.39 0.4,-2.69 1.18,-3.89 0.79,-1.2 1.93,-2.11 3.44,-2.74 1.5,-0.62 3.18,-0.94 5.02,-0.94 2.03,0 3.82,0.33 5.37,0.99 1.55,0.65 2.75,1.61 3.58,2.89 0.84,1.26 1.28,2.71 1.35,4.31l-3.49 0.27c-0.18,-1.73 -0.81,-3.04 -1.89,-3.92 -1.08,-0.88 -2.67,-1.32 -4.78,-1.32 -2.19,0 -3.79,0.4 -4.79,1.2 -1,0.81 -1.51,1.78 -1.51,2.91 0,0.98 0.36,1.79 1.07,2.43 0.7,0.63 2.52,1.29 5.46,1.95 2.95,0.67 4.97,1.25 6.07,1.75 1.59,0.73 2.76,1.66 3.52,2.79 0.76,1.12 1.14,2.41 1.14,3.88 0,1.46 -0.42,2.83 -1.25,4.11 -0.84,1.29 -2.03,2.29 -3.59,3.01 -1.56,0.71 -3.32,1.07 -5.27,1.07 -2.48,0 -4.55,-0.36 -6.22,-1.09 -1.68,-0.72 -2.99,-1.8 -3.94,-3.25 -0.95,-1.45 -1.45,-3.09 -1.5,-4.92z"/>
  <polygon id="20" class="fil14" points="883.92,377.56 883.92,350.16 887.65,350.16 902.02,371.67 902.02,350.16 905.5,350.16 905.5,377.56 901.78,377.56 887.4,356.06 887.4,377.56 "/>
  <polygon id="21" class="fil14" points="911.67,377.56 911.67,350.16 931.45,350.16 931.45,353.38 915.3,353.38 915.3,361.8 930.42,361.8 930.42,365.01 915.3,365.01 915.3,374.35 932.1,374.35 932.1,377.56 "/>
  <path id="22" class="fil14" d="M941.84 377.56l-7.21 -27.4 3.76 0 4.11 17.97c0.44,1.88 0.84,3.75 1.17,5.6 0.73,-2.92 1.15,-4.61 1.27,-5.05l5.18 -18.52 4.37 0 3.92 13.87c0.97,3.45 1.68,6.68 2.14,9.7 0.36,-1.73 0.83,-3.71 1.4,-5.95l4.27 -17.62 3.65 0 -7.5 27.4 -3.53 0 -5.75 -20.87c-0.48,-1.75 -0.77,-2.82 -0.88,-3.22 -0.31,1.25 -0.6,2.32 -0.84,3.21l-5.74 20.88 -3.79 0z"/>
  <path id="23" class="fil14" d="M972.04 368.76l3.41 -0.31c0.16,1.38 0.53,2.51 1.12,3.4 0.6,0.88 1.52,1.59 2.76,2.14 1.24,0.54 2.65,0.81 4.2,0.81 1.38,0 2.6,-0.2 3.66,-0.61 1.06,-0.42 1.84,-0.99 2.36,-1.71 0.52,-0.72 0.78,-1.5 0.78,-2.34 0,-0.86 -0.25,-1.6 -0.75,-2.25 -0.49,-0.64 -1.32,-1.17 -2.46,-1.61 -0.74,-0.28 -2.36,-0.73 -4.88,-1.33 -2.52,-0.61 -4.28,-1.18 -5.29,-1.71 -1.31,-0.69 -2.28,-1.55 -2.91,-2.56 -0.65,-1.02 -0.97,-2.16 -0.97,-3.41 0,-1.39 0.4,-2.69 1.18,-3.89 0.79,-1.2 1.93,-2.11 3.44,-2.74 1.51,-0.62 3.18,-0.94 5.03,-0.94 2.02,0 3.82,0.33 5.36,0.99 1.55,0.65 2.75,1.61 3.58,2.89 0.84,1.26 1.28,2.71 1.35,4.31l-3.48 0.27c-0.19,-1.73 -0.82,-3.04 -1.9,-3.92 -1.08,-0.88 -2.67,-1.32 -4.77,-1.32 -2.2,0 -3.8,0.4 -4.8,1.2 -1,0.81 -1.5,1.78 -1.5,2.91 0,0.98 0.35,1.79 1.06,2.43 0.7,0.63 2.52,1.29 5.46,1.95 2.95,0.67 4.97,1.25 6.07,1.75 1.59,0.73 2.77,1.66 3.53,2.79 0.76,1.12 1.13,2.41 1.13,3.88 0,1.46 -0.41,2.83 -1.25,4.11 -0.83,1.29 -2.03,2.29 -3.59,3.01 -1.56,0.71 -3.31,1.07 -5.27,1.07 -2.48,0 -4.55,-0.36 -6.22,-1.09 -1.68,-0.72 -2.99,-1.8 -3.94,-3.25 -0.95,-1.45 -1.45,-3.09 -1.5,-4.92z"/>
  <rect class="fil15" x="71.03" y="530.89" width="922.93" height="869.52" rx="7.33" ry="7.74"/>
  <rect class="fil1" x="129.39" y="578.37" width="356.22" height="51.31" rx="4.4" ry="10.72"/>
  <rect class="fil1" x="129.39" y="657.08" width="289.38" height="13.88" rx="13.23" ry="10.72"/>
  <g id="_1702693469392">
   <line class="fil0 str1" x1="95.33" y1="739.96" x2="942.31" y2= "739.96" />
   <rect class="fil1" x="129.39" y="767.77" width="333.67" height="33.75" rx="6.27" ry="10.72"/>
   <rect class="fil1" x="129.39" y="816.97" width="703.86" height="27.94" rx="15.98" ry="10.72"/>
   <rect class="fil1" x="129.39" y="868.62" width="185.67" height="16.88" rx="6.98" ry="10.72"/>
   <polygon class="fil1" points="898.73,810.35 893.72,815.36 909.95,831.58 893.72,847.81 898.73,852.81 919.96,831.58 "/>
  </g>
  <g id="_1702693471536">
   <line class="fil0 str1" x1="95.33" y1="963.8" x2="942.31" y2= "963.8" />
   <rect class="fil1" x="129.39" y="991.61" width="333.67" height="33.75" rx="6.27" ry="10.72"/>
   <rect class="fil1" x="129.39" y="1040.8" width="703.86" height="27.94" rx="15.98" ry="10.72"/>
   <rect class="fil1" x="129.39" y="1092.46" width="185.67" height="16.88" rx="6.98" ry="10.72"/>
   <polygon class="fil1" points="898.73,1034.19 893.72,1039.2 909.95,1055.42 893.72,1071.64 898.73,1076.65 919.96,1055.42 "/>
  </g>
  <g id="_1702693473392">
   <line class="fil0 str1" x1="95.33" y1="1202.4" x2="942.31" y2= "1202.4" />
   <rect class="fil1" x="129.39" y="1230.2" width="333.67" height="33.75" rx="6.27" ry="10.72"/>
   <rect class="fil1" x="129.39" y="1279.4" width="703.86" height="27.94" rx="15.98" ry="10.72"/>
   <rect class="fil1" x="129.39" y="1331.05" width="185.67" height="16.88" rx="6.98" ry="10.72"/>
   <polygon class="fil1" points="898.73,1272.78 893.72,1277.79 909.95,1294.02 893.72,1310.24 898.73,1315.25 919.96,1294.02 "/>
  </g>
  <polygon class="fil1" points="432.15,652.43 429.41,655.16 438.27,664.02 429.41,672.88 432.15,675.61 443.74,664.02 "/>
  <rect class="fil1" x="454.38" y="657.08" width="120.88" height="13.88" rx="5.53" ry="10.72"/>
  <polygon class="fil1" points="588.63,652.43 585.9,655.16 594.76,664.02 585.9,672.88 588.63,675.61 600.22,664.02 "/>
  <rect class="fil1" x="610.86" y="657.08" width="120.88" height="13.88" rx="5.53" ry="10.72"/>
 </g>
</svg>
