<?xml version="1.0" encoding="UTF-8"?>
<!--
  - Copyright (c) 2023. Selldone® Business OS™
  -
  - Author: M.Pajuhaan
  - Web: https://selldone.com
  - ━━━━━━━━━━━━━━━━━━━━━━━━━━━━━━━━━━━━━━━━━━━━━━━━━━━━━━
  -
  - All rights reserved. In the weave of time, where traditions and innovations intermingle, this content was crafted.
  - From the essence of thought, through the corridors of creativity, each word, and sentiment has been molded.
  - Not just to exist, but to inspire. Like an artist's stroke or a sculptor's chisel, every nuance is deliberate.
  - Our journey is not just about reaching a destination, but about creating a masterpiece.
  - Tread carefully, for you're treading on dreams.
  -->

<!DOCTYPE svg PUBLIC "-//W3C//DTD SVG 1.1//EN" "http://www.w3.org/Graphics/SVG/1.1/DTD/svg11.dtd">
<!-- Creator: CorelDRAW 2019 (64-Bit) -->
<svg xmlns="http://www.w3.org/2000/svg" xml:space="preserve" width="826px" height="1121px" version="1.1" style="shape-rendering:geometricPrecision; text-rendering:geometricPrecision; image-rendering:optimizeQuality; fill-rule:evenodd; clip-rule:evenodd"
viewBox="0 0 320.37 434.49"
 xmlns:xlink="http://www.w3.org/1999/xlink"
 xmlns:xodm="http://www.corel.com/coreldraw/odm/2003"
 enable-background="new 0 0 512 512">
 <defs>
  <style type="text/css">
   <![CDATA[
    .str1 {stroke:#FEFEFE;stroke-width:0.81;stroke-miterlimit:2.61313}
    .str0 {stroke:#DFE1E5;stroke-width:0.81;stroke-miterlimit:2.61313}
    .fil0 {fill:none}
    .fil1 {fill:#FEFEFE}
    .fil13 {fill:#E6E7E8}
    .fil15 {fill:#00AFEF}
    .fil6 {fill:#1A74E8}
    .fil8 {fill:#35A854}
    .fil2 {fill:#3876E3}
    .fil9 {fill:#3B78E7}
    .fil3 {fill:#498AF4}
    .fil11 {fill:#767676}
    .fil5 {fill:#EA4435}
    .fil4 {fill:#F7B80A}
    .fil7 {fill:#FAFCFC}
    .fil12 {fill:#FBF5F5}
    .fil10 {fill:#FDFCFB}
    .fil14 {fill:#777777;fill-rule:nonzero}
   ]]>
  </style>
 </defs>
 <g id="Layer_x0020_1">
  <metadata id="CorelCorpID_0Corel-Layer"/>
  <rect class="fil0" width="320.37" height="434.49"/>
  <path class="fil1 str0" d="M279.54 88.15l0 -33.8c-83.79,0 -167.59,-0.12 -251.38,-0.01 -6.75,0.01 -11.91,0.87 -16.21,6.68 -4.06,5.48 -4.67,12.37 -1.26,18.33 3.74,6.53 8.17,8.84 15.58,8.87 1.96,0.01 3.91,-0.06 5.87,-0.07 82.47,0 164.94,0 247.4,0z"/>
  <path class="fil2" d="M297.13 74.02c-2.98,1.12 -5.18,2.17 -7.79,-0.64 -2,-2.76 -2.12,-5.91 0.71,-8.12 4.12,-3.2 10.6,0.29 8.31,6.66 -0.6,1.64 -0.77,0.83 1.15,2.53 1.16,1.03 2.34,2.06 3.16,3.38 -1.27,1.36 -1.11,1.16 -2.59,-0.23 -1.15,-1.07 -2.2,-2.19 -2.95,-3.58zm-19.5 14.84c6.49,0.01 13.57,0.29 19.97,-0.03 19.17,-1.35 22.05,-28.74 3.52,-34.44 -3.37,-1.04 -16.19,-0.61 -20.66,-0.6 -0.95,0 -1.91,0.01 -2.86,0 0.01,7.29 0.01,14.57 0.02,21.85 0,4.41 0.01,8.82 0.01,13.22z"/>
  <path class="fil3" d="M137.59 26.63c-0.21,6.53 -10.97,7.17 -12.94,0.4 -1.04,-3.59 0.41,-6.84 3.04,-8.4 1.16,-0.69 2.77,-1.19 4.57,-0.95 2.08,0.27 2.32,1.1 3.93,1.66 0.79,-0.56 1.11,-0.67 1.56,-1.75 -1.12,-1.61 -3.86,-2.61 -6.01,-2.66 -7.88,-0.18 -12.64,7.74 -9.4,14.16 4.8,9.55 20.29,5.75 17.91,-5.17l-8.96 0.12 0.01 2.46 6.29 0.13z"/>
  <path class="fil3" d="M174.05 24.67c4.43,-1.68 5.86,6.04 1.99,7.21 -4.39,1.32 -6.28,-5.58 -1.99,-7.21zm3.57 -1.79c-3.8,-3.02 -9.11,1.01 -8.7,6.04 0.19,2.41 1.73,4.12 3.14,4.93 2.89,1.66 4.06,0.31 6.1,-0.43 0.23,4.88 -4.47,5.67 -6.4,2.15l-2.31 0.72c0.55,4.36 7.81,5.49 10.39,1.41 1.32,-2.08 1.03,-4.37 1.03,-7.29 0,-1.95 0.22,-6.52 -0.17,-8.14 -3.17,-0.17 -2.03,0.39 -3.08,0.61z"/>
  <path class="fil4" d="M160.63 24.66c4.53,-1.59 6.21,5.72 2.27,7.15 -4.65,1.68 -6.97,-5.49 -2.27,-7.15zm-5.26 4.85c1.45,7.7 13.74,6.21 12.45,-2.34 -1.24,-8.19 -14.05,-6.13 -12.45,2.34z"/>
  <path class="fil5" d="M144.56 29.51c-1.42,-5.4 5.57,-6.77 6.73,-2.58 1.51,5.47 -5.6,6.86 -6.73,2.58zm-2.87 0c1.44,7.52 13.75,6.38 12.45,-2.35 -1.22,-8.17 -14.07,-6.09 -12.45,2.35z"/>
  <path class="fil5" d="M189.04 27.91c-0.41,-2.91 3.14,-4.73 5.26,-2.57 -0.34,0.86 -0.03,0.49 -1.09,0.97l-4.17 1.6zm0.64 2.05c1.93,-0.68 6.86,-2.48 7.9,-3.43 -1.1,-6.29 -10.77,-6.07 -11.39,0.89 -0.65,7.29 7.99,9.4 11.39,4.36l-2.08 -1.29c-0.98,0.83 -1.33,1.49 -2.98,1.55 -1.79,0.05 -2.6,-0.54 -2.84,-2.08z"/>
  <polygon class="fil6" points="52.11,121.33 6.84,121.33 6.89,123.07 52.05,123.07 "/>
  <path class="fil7" d="M291.93 66.26c4.7,-2.29 7.42,4.81 3.16,6.82 -4.32,2.04 -8.09,-4.42 -3.16,-6.82zm5.2 7.76c0.74,1.62 3.3,3.99 4.47,4.88l1.11 -1.08c-0.52,-0.99 -1.42,-1.64 -2.24,-2.47l-2.58 -2.31c3.89,-7.44 -4.59,-11.54 -8.53,-7.18 -1.92,2.12 -1.99,5.39 -0.02,7.52 2.61,2.81 4.81,1.76 7.79,0.64z"/>
  <polygon class="fil8" points="182.29,34.14 185.11,34.18 184.96,15.56 182.25,15.71 "/>
  <path class="fil9" d="M291.93 66.26c-4.93,2.4 -1.16,8.86 3.16,6.82 4.26,-2.01 1.54,-9.11 -3.16,-6.82z"/>
  <path class="fil10" d="M144.56 29.51c1.13,4.28 8.24,2.89 6.73,-2.58 -1.16,-4.19 -8.15,-2.82 -6.73,2.58z"/>
  <path class="fil11" d="M254.23 67.35c1.24,1.4 2.16,2.47 3.31,3.98 -0.67,0.69 -2.75,2.71 -3.35,3.57l1.17 1.03 3.52 -3.41c1.52,1.29 2.58,2.36 3.68,3.37 0.6,-0.4 0.84,-0.64 1.21,-0.97 -0.65,-0.97 -2.51,-2.87 -3.31,-3.62l3.26 -3.58 -1.11 -1.54c-1.36,1.09 -2.33,2.3 -3.63,3.33l-3.48 -3.37 -1.27 1.21z"/>
  <path class="fil10" d="M160.63 24.66c-4.7,1.66 -2.38,8.83 2.27,7.15 3.94,-1.43 2.26,-8.74 -2.27,-7.15z"/>
  <path class="fil7" d="M174.05 24.67c-4.29,1.63 -2.4,8.53 1.99,7.21 3.87,-1.17 2.44,-8.89 -1.99,-7.21z"/>
  <polygon class="fil11" points="17.88,26.48 33.3,26.44 33.32,25.95 33.38,24.78 17.95,24.83 "/>
  <polygon class="fil11" points="17.93,30.75 33.34,30.69 33.38,29.05 18,29.08 "/>
  <polygon class="fil11" points="18.01,22.19 33.25,22.19 33.22,20.5 17.98,20.58 "/>
  <path class="fil12" d="M189.04 27.91l4.17 -1.6c1.06,-0.48 0.75,-0.11 1.09,-0.97 -2.12,-2.16 -5.67,-0.34 -5.26,2.57z"/>
  <circle class="fil13" cx="296.12" cy="23.3" r="13.45"/>
  <path class="fil14" d="M19.47 111.59l3.1 -8.1 1.18 0 3.3 8.1 -1.22 0 -0.94 -2.46 -3.41 0 -0.87 2.46 -1.14 0zm2.33 -3.33l2.76 0 -0.85 -2.24c-0.25,-0.69 -0.44,-1.25 -0.58,-1.69 -0.11,0.52 -0.26,1.04 -0.44,1.56l-0.89 2.37z"/>
  <polygon id="1" class="fil14" points="27.85,111.59 27.85,103.49 28.93,103.49 28.93,110.64 32.91,110.64 32.91,111.59 "/>
  <polygon id="2" class="fil14" points="34.14,111.59 34.14,103.49 35.22,103.49 35.22,110.64 39.2,110.64 39.2,111.59 "/>
  <path id="3" class="fil14" d="M68.29 111.59l0 -8.1 3.04 0c0.62,0 1.11,0.08 1.49,0.24 0.37,0.17 0.66,0.42 0.87,0.76 0.22,0.34 0.32,0.7 0.32,1.07 0,0.35 -0.09,0.67 -0.28,0.98 -0.19,0.3 -0.47,0.55 -0.85,0.74 0.49,0.14 0.87,0.39 1.13,0.73 0.26,0.35 0.4,0.76 0.4,1.23 0,0.38 -0.08,0.73 -0.24,1.06 -0.16,0.32 -0.36,0.57 -0.6,0.75 -0.23,0.18 -0.53,0.31 -0.88,0.4 -0.36,0.09 -0.8,0.14 -1.31,0.14l-3.09 0zm1.07 -4.7l1.75 0c0.48,0 0.82,-0.03 1.03,-0.09 0.27,-0.08 0.47,-0.22 0.61,-0.41 0.14,-0.18 0.21,-0.42 0.21,-0.7 0,-0.27 -0.06,-0.51 -0.19,-0.72 -0.13,-0.2 -0.32,-0.34 -0.56,-0.42 -0.24,-0.07 -0.65,-0.11 -1.23,-0.11l-1.62 0 0 2.45zm0 3.75l2.02 0c0.35,0 0.59,-0.02 0.73,-0.04 0.25,-0.05 0.45,-0.12 0.62,-0.22 0.17,-0.11 0.3,-0.26 0.41,-0.46 0.11,-0.19 0.16,-0.42 0.16,-0.68 0,-0.3 -0.08,-0.57 -0.23,-0.79 -0.16,-0.22 -0.37,-0.38 -0.65,-0.47 -0.27,-0.09 -0.67,-0.14 -1.18,-0.14l-1.88 0 0 2.8z"/>
  <path id="4" class="fil14" d="M75.55 107.65c0,-1.35 0.36,-2.4 1.08,-3.16 0.72,-0.76 1.66,-1.14 2.8,-1.14 0.75,0 1.42,0.18 2.02,0.54 0.6,0.36 1.06,0.85 1.37,1.49 0.32,0.64 0.48,1.36 0.48,2.17 0,0.82 -0.17,1.56 -0.5,2.2 -0.33,0.65 -0.8,1.14 -1.41,1.47 -0.61,0.34 -1.26,0.5 -1.97,0.5 -0.76,0 -1.44,-0.18 -2.04,-0.55 -0.6,-0.37 -1.06,-0.87 -1.37,-1.51 -0.31,-0.63 -0.46,-1.3 -0.46,-2.01zm1.11 0.01c0,0.98 0.26,1.75 0.78,2.31 0.53,0.56 1.18,0.84 1.98,0.84 0.8,0 1.46,-0.29 1.99,-0.85 0.52,-0.57 0.78,-1.37 0.78,-2.41 0,-0.66 -0.11,-1.23 -0.34,-1.72 -0.22,-0.49 -0.54,-0.87 -0.97,-1.14 -0.43,-0.27 -0.91,-0.41 -1.45,-0.41 -0.75,0 -1.41,0.26 -1.95,0.78 -0.55,0.52 -0.82,1.39 -0.82,2.6z"/>
  <path id="5" class="fil14" d="M84.34 107.65c0,-1.35 0.37,-2.4 1.09,-3.16 0.72,-0.76 1.65,-1.14 2.79,-1.14 0.75,0 1.43,0.18 2.03,0.54 0.6,0.36 1.05,0.85 1.37,1.49 0.31,0.64 0.47,1.36 0.47,2.17 0,0.82 -0.16,1.56 -0.5,2.2 -0.33,0.65 -0.8,1.14 -1.4,1.47 -0.61,0.34 -1.27,0.5 -1.97,0.5 -0.77,0 -1.45,-0.18 -2.05,-0.55 -0.6,-0.37 -1.05,-0.87 -1.36,-1.51 -0.31,-0.63 -0.47,-1.3 -0.47,-2.01zm1.11 0.01c0,0.98 0.27,1.75 0.79,2.31 0.52,0.56 1.18,0.84 1.97,0.84 0.81,0 1.47,-0.29 1.99,-0.85 0.52,-0.57 0.78,-1.37 0.78,-2.41 0,-0.66 -0.11,-1.23 -0.33,-1.72 -0.22,-0.49 -0.55,-0.87 -0.98,-1.14 -0.43,-0.27 -0.91,-0.41 -1.44,-0.41 -0.76,0 -1.41,0.26 -1.96,0.78 -0.54,0.52 -0.82,1.39 -0.82,2.6z"/>
  <polygon id="6" class="fil14" points="93.42,111.59 93.42,103.49 94.5,103.49 94.5,107.5 98.52,103.49 99.97,103.49 96.58,106.77 100.12,111.59 98.7,111.59 95.82,107.5 94.5,108.78 94.5,111.59 "/>
  <path id="7" class="fil14" d="M100.66 108.99l1.01 -0.09c0.04,0.4 0.16,0.74 0.33,1 0.18,0.26 0.45,0.47 0.82,0.63 0.36,0.16 0.78,0.24 1.24,0.24 0.41,0 0.77,-0.06 1.08,-0.18 0.31,-0.12 0.54,-0.29 0.7,-0.5 0.15,-0.22 0.23,-0.45 0.23,-0.7 0,-0.25 -0.08,-0.47 -0.22,-0.66 -0.15,-0.19 -0.39,-0.35 -0.73,-0.48 -0.22,-0.08 -0.7,-0.21 -1.45,-0.39 -0.74,-0.18 -1.26,-0.35 -1.56,-0.51 -0.38,-0.2 -0.67,-0.45 -0.86,-0.75 -0.19,-0.3 -0.28,-0.64 -0.28,-1.01 0,-0.41 0.11,-0.79 0.35,-1.15 0.23,-0.35 0.56,-0.62 1.01,-0.81 0.45,-0.18 0.94,-0.28 1.49,-0.28 0.6,0 1.13,0.1 1.58,0.29 0.46,0.2 0.81,0.48 1.06,0.86 0.25,0.37 0.38,0.8 0.4,1.27l-1.03 0.08c-0.06,-0.51 -0.24,-0.89 -0.56,-1.15 -0.32,-0.27 -0.79,-0.4 -1.41,-0.4 -0.65,0 -1.12,0.12 -1.42,0.36 -0.3,0.24 -0.44,0.52 -0.44,0.86 0,0.29 0.1,0.53 0.31,0.72 0.21,0.18 0.74,0.38 1.62,0.57 0.87,0.2 1.46,0.37 1.79,0.52 0.47,0.22 0.82,0.49 1.04,0.82 0.22,0.34 0.34,0.72 0.34,1.15 0,0.43 -0.13,0.84 -0.37,1.22 -0.25,0.38 -0.6,0.67 -1.06,0.89 -0.47,0.21 -0.98,0.31 -1.56,0.31 -0.74,0 -1.35,-0.1 -1.84,-0.32 -0.5,-0.21 -0.88,-0.53 -1.16,-0.96 -0.29,-0.43 -0.43,-0.91 -0.45,-1.45z"/>
  <polygon id="8" class="fil14" points="130.73,111.59 130.73,103.49 131.8,103.49 131.8,111.59 "/>
  <path id="9" class="fil14" d="M133.67 111.59l0 -8.1 1.6 0 1.92 5.73c0.17,0.53 0.3,0.93 0.38,1.2 0.1,-0.29 0.24,-0.73 0.44,-1.3l1.95 -5.63 1.43 0 0 8.1 -1.03 0 0 -6.78 -2.36 6.78 -0.97 0 -2.33 -6.9 0 6.9 -1.03 0z"/>
  <path id="10" class="fil14" d="M142.22 111.59l3.11 -8.1 1.18 0 3.29 8.1 -1.22 0 -0.93 -2.46 -3.41 0 -0.88 2.46 -1.14 0zm2.33 -3.33l2.76 0 -0.84 -2.24c-0.26,-0.69 -0.45,-1.25 -0.58,-1.69 -0.12,0.52 -0.26,1.04 -0.45,1.56l-0.89 2.37z"/>
  <path id="11" class="fil14" d="M154.44 108.41l0 -0.95 3.43 0 0 3c-0.53,0.42 -1.07,0.73 -1.63,0.95 -0.56,0.21 -1.14,0.31 -1.72,0.31 -0.8,0 -1.52,-0.17 -2.17,-0.51 -0.65,-0.34 -1.14,-0.83 -1.47,-1.47 -0.33,-0.65 -0.5,-1.37 -0.5,-2.16 0,-0.79 0.16,-1.52 0.49,-2.21 0.33,-0.68 0.81,-1.19 1.43,-1.52 0.61,-0.33 1.33,-0.5 2.13,-0.5 0.59,0 1.12,0.1 1.59,0.29 0.47,0.19 0.84,0.45 1.11,0.79 0.27,0.34 0.47,0.78 0.61,1.33l-0.96 0.26c-0.13,-0.41 -0.28,-0.73 -0.45,-0.97 -0.19,-0.24 -0.44,-0.43 -0.78,-0.57 -0.33,-0.14 -0.7,-0.21 -1.11,-0.21 -0.49,0 -0.91,0.08 -1.27,0.22 -0.36,0.15 -0.64,0.35 -0.86,0.59 -0.22,0.25 -0.39,0.51 -0.51,0.81 -0.21,0.5 -0.31,1.04 -0.31,1.63 0,0.72 0.12,1.33 0.37,1.81 0.25,0.49 0.61,0.85 1.08,1.09 0.48,0.23 0.98,0.35 1.52,0.35 0.46,0 0.91,-0.09 1.35,-0.27 0.44,-0.18 0.78,-0.37 1.01,-0.57l0 -1.52 -2.38 0z"/>
  <polygon id="12" class="fil14" points="159.47,111.59 159.47,103.49 165.32,103.49 165.32,104.44 160.54,104.44 160.54,106.93 165.01,106.93 165.01,107.88 160.54,107.88 160.54,110.64 165.51,110.64 165.51,111.59 "/>
  <path id="13" class="fil14" d="M166.64 108.99l1.01 -0.09c0.04,0.4 0.15,0.74 0.33,1 0.18,0.26 0.45,0.47 0.81,0.63 0.37,0.16 0.79,0.24 1.25,0.24 0.41,0 0.77,-0.06 1.08,-0.18 0.31,-0.12 0.54,-0.29 0.7,-0.5 0.15,-0.22 0.23,-0.45 0.23,-0.7 0,-0.25 -0.08,-0.47 -0.23,-0.66 -0.14,-0.19 -0.39,-0.35 -0.72,-0.48 -0.22,-0.08 -0.7,-0.21 -1.45,-0.39 -0.74,-0.18 -1.26,-0.35 -1.56,-0.51 -0.39,-0.2 -0.67,-0.45 -0.86,-0.75 -0.19,-0.3 -0.28,-0.64 -0.28,-1.01 0,-0.41 0.11,-0.79 0.34,-1.15 0.24,-0.35 0.57,-0.62 1.02,-0.81 0.44,-0.18 0.94,-0.28 1.49,-0.28 0.59,0 1.12,0.1 1.58,0.29 0.46,0.2 0.81,0.48 1.06,0.86 0.25,0.37 0.38,0.8 0.4,1.27l-1.03 0.08c-0.06,-0.51 -0.24,-0.89 -0.56,-1.15 -0.32,-0.27 -0.79,-0.4 -1.41,-0.4 -0.65,0 -1.12,0.12 -1.42,0.36 -0.3,0.24 -0.45,0.52 -0.45,0.86 0,0.29 0.11,0.53 0.32,0.72 0.21,0.18 0.74,0.38 1.61,0.57 0.88,0.2 1.47,0.37 1.8,0.52 0.47,0.22 0.81,0.49 1.04,0.82 0.22,0.34 0.33,0.72 0.33,1.15 0,0.43 -0.12,0.84 -0.36,1.22 -0.25,0.38 -0.6,0.67 -1.07,0.89 -0.46,0.21 -0.98,0.31 -1.55,0.31 -0.74,0 -1.35,-0.1 -1.84,-0.32 -0.5,-0.21 -0.88,-0.53 -1.17,-0.96 -0.28,-0.43 -0.42,-0.91 -0.44,-1.45z"/>
  <path id="14" class="fil14" d="M198.83 111.59l-3.13 -8.1 1.17 0 2.1 5.88c0.17,0.48 0.31,0.92 0.42,1.33 0.13,-0.44 0.27,-0.89 0.44,-1.33l2.18 -5.88 1.09 0 -3.15 8.1 -1.12 0z"/>
  <polygon id="15" class="fil14" points="204.25,111.59 204.25,103.49 205.32,103.49 205.32,111.59 "/>
  <path id="16" class="fil14" d="M207.21 111.59l0 -8.1 2.79 0c0.63,0 1.11,0.04 1.44,0.11 0.47,0.11 0.86,0.31 1.19,0.59 0.43,0.36 0.75,0.82 0.96,1.38 0.21,0.56 0.32,1.2 0.32,1.92 0,0.62 -0.08,1.16 -0.22,1.64 -0.14,0.47 -0.33,0.87 -0.55,1.18 -0.23,0.31 -0.47,0.55 -0.74,0.73 -0.27,0.18 -0.59,0.32 -0.97,0.41 -0.37,0.09 -0.81,0.14 -1.3,0.14l-2.92 0zm1.08 -0.95l1.72 0c0.54,0 0.95,-0.05 1.26,-0.15 0.3,-0.1 0.54,-0.24 0.72,-0.42 0.26,-0.26 0.45,-0.6 0.59,-1.03 0.15,-0.43 0.22,-0.95 0.22,-1.56 0,-0.85 -0.14,-1.5 -0.42,-1.96 -0.28,-0.45 -0.61,-0.76 -1.01,-0.91 -0.29,-0.12 -0.75,-0.17 -1.39,-0.17l-1.69 0 0 6.2z"/>
  <polygon id="17" class="fil14" points="215.4,111.59 215.4,103.49 221.25,103.49 221.25,104.44 216.47,104.44 216.47,106.93 220.94,106.93 220.94,107.88 216.47,107.88 216.47,110.64 221.44,110.64 221.44,111.59 "/>
  <path id="18" class="fil14" d="M222.59 107.65c0,-1.35 0.36,-2.4 1.09,-3.16 0.72,-0.76 1.65,-1.14 2.79,-1.14 0.75,0 1.42,0.18 2.02,0.54 0.6,0.36 1.06,0.85 1.38,1.49 0.31,0.64 0.47,1.36 0.47,2.17 0,0.82 -0.17,1.56 -0.5,2.2 -0.33,0.65 -0.8,1.14 -1.41,1.47 -0.61,0.34 -1.26,0.5 -1.96,0.5 -0.77,0 -1.45,-0.18 -2.05,-0.55 -0.6,-0.37 -1.05,-0.87 -1.36,-1.51 -0.31,-0.63 -0.47,-1.3 -0.47,-2.01zm1.11 0.01c0,0.98 0.26,1.75 0.79,2.31 0.52,0.56 1.18,0.84 1.97,0.84 0.81,0 1.47,-0.29 1.99,-0.85 0.52,-0.57 0.78,-1.37 0.78,-2.41 0,-0.66 -0.11,-1.23 -0.33,-1.72 -0.23,-0.49 -0.55,-0.87 -0.98,-1.14 -0.43,-0.27 -0.91,-0.41 -1.44,-0.41 -0.76,0 -1.41,0.26 -1.96,0.78 -0.55,0.52 -0.82,1.39 -0.82,2.6z"/>
  <path id="19" class="fil14" d="M231.37 108.99l1 -0.09c0.05,0.4 0.16,0.74 0.34,1 0.17,0.26 0.44,0.47 0.81,0.63 0.37,0.16 0.78,0.24 1.24,0.24 0.41,0 0.77,-0.06 1.08,-0.18 0.32,-0.12 0.55,-0.29 0.7,-0.5 0.15,-0.22 0.23,-0.45 0.23,-0.7 0,-0.25 -0.07,-0.47 -0.22,-0.66 -0.15,-0.19 -0.39,-0.35 -0.73,-0.48 -0.22,-0.08 -0.7,-0.21 -1.44,-0.39 -0.75,-0.18 -1.27,-0.35 -1.56,-0.51 -0.39,-0.2 -0.68,-0.45 -0.86,-0.75 -0.19,-0.3 -0.29,-0.64 -0.29,-1.01 0,-0.41 0.12,-0.79 0.35,-1.15 0.23,-0.35 0.57,-0.62 1.02,-0.81 0.44,-0.18 0.94,-0.28 1.48,-0.28 0.6,0 1.13,0.1 1.59,0.29 0.46,0.2 0.81,0.48 1.05,0.86 0.25,0.37 0.38,0.8 0.4,1.27l-1.03 0.08c-0.05,-0.51 -0.24,-0.89 -0.56,-1.15 -0.31,-0.27 -0.79,-0.4 -1.41,-0.4 -0.65,0 -1.12,0.12 -1.42,0.36 -0.29,0.24 -0.44,0.52 -0.44,0.86 0,0.29 0.11,0.53 0.31,0.72 0.21,0.18 0.75,0.38 1.62,0.57 0.87,0.2 1.47,0.37 1.79,0.52 0.47,0.22 0.82,0.49 1.04,0.82 0.23,0.34 0.34,0.72 0.34,1.15 0,0.43 -0.12,0.84 -0.37,1.22 -0.25,0.38 -0.6,0.67 -1.06,0.89 -0.46,0.21 -0.98,0.31 -1.56,0.31 -0.73,0 -1.34,-0.1 -1.84,-0.32 -0.49,-0.21 -0.88,-0.53 -1.16,-0.96 -0.28,-0.43 -0.43,-0.91 -0.44,-1.45z"/>
  <polygon id="20" class="fil14" points="261.24,111.59 261.24,103.49 262.34,103.49 266.59,109.85 266.59,103.49 267.62,103.49 267.62,111.59 266.52,111.59 262.27,105.23 262.27,111.59 "/>
  <polygon id="21" class="fil14" points="269.44,111.59 269.44,103.49 275.29,103.49 275.29,104.44 270.52,104.44 270.52,106.93 274.98,106.93 274.98,107.88 270.52,107.88 270.52,110.64 275.48,110.64 275.48,111.59 "/>
  <path id="22" class="fil14" d="M278.36 111.59l-2.13 -8.1 1.11 0 1.21 5.31c0.13,0.56 0.25,1.11 0.35,1.65 0.21,-0.86 0.34,-1.36 0.37,-1.49l1.53 -5.47 1.3 0 1.16 4.1c0.28,1.02 0.49,1.97 0.63,2.86 0.1,-0.51 0.24,-1.09 0.41,-1.75l1.26 -5.21 1.08 0 -2.22 8.1 -1.04 0 -1.7 -6.17c-0.14,-0.52 -0.23,-0.84 -0.26,-0.95 -0.09,0.37 -0.17,0.68 -0.24,0.95l-1.7 6.17 -1.12 0z"/>
  <path id="23" class="fil14" d="M287.28 108.99l1.01 -0.09c0.05,0.4 0.16,0.74 0.33,1 0.18,0.26 0.45,0.47 0.82,0.63 0.37,0.16 0.78,0.24 1.24,0.24 0.41,0 0.77,-0.06 1.08,-0.18 0.31,-0.12 0.55,-0.29 0.7,-0.5 0.15,-0.22 0.23,-0.45 0.23,-0.7 0,-0.25 -0.07,-0.47 -0.22,-0.66 -0.15,-0.19 -0.39,-0.35 -0.73,-0.48 -0.22,-0.08 -0.7,-0.21 -1.44,-0.39 -0.75,-0.18 -1.27,-0.35 -1.57,-0.51 -0.38,-0.2 -0.67,-0.45 -0.86,-0.75 -0.19,-0.3 -0.28,-0.64 -0.28,-1.01 0,-0.41 0.12,-0.79 0.35,-1.15 0.23,-0.35 0.57,-0.62 1.01,-0.81 0.45,-0.18 0.94,-0.28 1.49,-0.28 0.6,0 1.13,0.1 1.59,0.29 0.45,0.2 0.81,0.48 1.05,0.86 0.25,0.37 0.38,0.8 0.4,1.27l-1.03 0.08c-0.05,-0.51 -0.24,-0.89 -0.56,-1.15 -0.32,-0.27 -0.79,-0.4 -1.41,-0.4 -0.65,0 -1.12,0.12 -1.42,0.36 -0.29,0.24 -0.44,0.52 -0.44,0.86 0,0.29 0.1,0.53 0.31,0.72 0.21,0.18 0.75,0.38 1.62,0.57 0.87,0.2 1.47,0.37 1.79,0.52 0.47,0.22 0.82,0.49 1.04,0.82 0.23,0.34 0.34,0.72 0.34,1.15 0,0.43 -0.12,0.84 -0.37,1.22 -0.25,0.38 -0.6,0.67 -1.06,0.89 -0.46,0.21 -0.98,0.31 -1.56,0.31 -0.73,0 -1.34,-0.1 -1.84,-0.32 -0.49,-0.21 -0.88,-0.53 -1.16,-0.96 -0.28,-0.43 -0.43,-0.91 -0.45,-1.45z"/>
  <rect class="fil15" x="6.59" y="138.4" width="307.2" height="274.25" rx="3.41" ry="8.24"/>
  <g id="_1666891137648">
   <rect class="fil1" x="25.22" y="155.82" width="165.56" height="16.25" rx="1.91" ry="3.17"/>
   <rect class="fil1" x="26.67" y="182.25" width="111.25" height="8.26" rx="2.53" ry="3.17"/>
   <rect class="fil1" x="210.44" y="153.76" width="90.53" height="57.57" rx="7.55" ry="4.13"/>
   <line class="fil0 str1" x1="20.72" y1="228.3" x2="303.45" y2= "228.3" />
  </g>
  <g id="_1666891141168">
   <rect class="fil1" x="25.22" y="244.37" width="165.56" height="16.25" rx="1.91" ry="3.17"/>
   <rect class="fil1" x="26.67" y="270.8" width="111.25" height="8.26" rx="2.53" ry="3.17"/>
   <rect class="fil1" x="210.44" y="242.3" width="90.53" height="57.57" rx="7.55" ry="4.13"/>
   <line class="fil0 str1" x1="20.72" y1="316.84" x2="303.45" y2= "316.84" />
  </g>
  <g id="_1666891142608">
   <rect class="fil1" x="25.22" y="332.91" width="165.56" height="16.25" rx="1.91" ry="3.17"/>
   <rect class="fil1" x="26.67" y="359.34" width="111.25" height="8.26" rx="2.53" ry="3.17"/>
   <rect class="fil1" x="210.44" y="330.85" width="90.53" height="57.57" rx="7.55" ry="4.13"/>
   <line class="fil0 str1" x1="20.72" y1="405.38" x2="303.45" y2= "405.38" />
  </g>
  <g id="_1666891145264">
   <g>
    <path class="fil15" d="M272.81 191.91c-0.22,0.12 -0.45,0.23 -0.68,0.31l0 11.13c0.92,-0.26 2.32,-0.77 3.62,-1.84 2.17,-1.78 3.27,-4.4 3.27,-7.78l0 -8.12c-0.49,0.8 -1.05,1.58 -1.67,2.32 -2.06,2.45 -4.15,3.74 -4.54,3.98l0 0z"/>
    <path class="fil15" d="M265.67 192.44c0,0.81 -0.19,1.57 -0.52,2.25l4.4 1.53 0 -4 -3.88 -1.35 0 1.57z"/>
    <polygon class="fil15" points="255.33,187.27 234.91,180.16 234.91,184.16 255.33,191.27 "/>
    <path class="fil15" d="M260.5 197.61c-2.27,0 -4.2,-1.47 -4.89,-3.5l-20.7 -7.21 0 3.39c0,0.55 0.35,1.04 0.87,1.22l33.77 11.76 0 -4.31 -6.25 -2.18c-0.81,0.53 -1.77,0.83 -2.8,0.83l0 0z"/>
    <path class="fil15" d="M249.73 170.01c0,3.09 2.51,5.6 5.6,5.6 3.09,0 5.6,-2.51 5.6,-5.6 0,-2.68 -1.89,-4.92 -4.4,-5.47 -0.37,-2.14 -1.71,-3.98 -3.7,-4.98l-0.37 -0.18c-0.63,-0.32 -1.41,-0.06 -1.73,0.58 -0.32,0.64 -0.06,1.41 0.58,1.73l0.36 0.18c1.12,0.56 1.92,1.56 2.23,2.73 -2.4,0.63 -4.17,2.82 -4.17,5.41l0 0z"/>
    <path class="fil15" d="M279.02 176.5c0,-0.35 -0.08,-8.78 -7.53,-13.17 -0.32,-0.19 -0.72,-0.23 -1.08,-0.11 -1.08,0.38 -4.1,1.44 -7.95,2.77 0.67,1.19 1.06,2.56 1.06,4.02 0,4.51 -3.68,8.19 -8.19,8.19 -4.08,0 -7.47,-3 -8.08,-6.91 -5.29,1.84 -9.78,3.4 -11.47,4 -0.52,0.18 -0.87,0.67 -0.87,1.22 0,0.55 0.35,1.03 0.87,1.21l22.14 7.71 0 7.01c0,1.43 1.15,2.59 2.58,2.59 1.43,0 2.59,-1.16 2.59,-2.59l0 -5.21 7.32 2.56c0.14,0.04 0.29,0.07 0.43,0.07 0.23,0 0.45,-0.06 0.65,-0.18 0.31,-0.18 7.53,-4.54 7.53,-13.18l0 0zm-13.78 0.87c-0.71,0 -1.29,-0.58 -1.29,-1.3 0,-0.71 0.57,-1.29 1.29,-1.29 0.71,0 1.29,0.58 1.29,1.29 0,0.72 -0.58,1.3 -1.29,1.3zm2.58 6.03c-0.71,0 -1.29,-0.58 -1.29,-1.3 0,-0.71 0.58,-1.29 1.29,-1.29 0.72,0 1.3,0.58 1.3,1.29 0,0.72 -0.58,1.3 -1.3,1.3zm2.59 -11.2c-0.72,0 -1.29,-0.58 -1.29,-1.29 0,-0.72 0.57,-1.3 1.29,-1.3 0.71,0 1.29,0.58 1.29,1.3 0,0.71 -0.58,1.29 -1.29,1.29zm1.72 6.03c-0.71,0 -1.29,-0.58 -1.29,-1.29 0,-0.72 0.58,-1.3 1.29,-1.3 0.71,0 1.29,0.58 1.29,1.3 0,0.71 -0.58,1.29 -1.29,1.29z"/>
   </g>
  </g>
  <g id="_1666891146096">
   <g>
    <g>
     <path class="fil15" d="M261.65 273.29c-1.35,0.45 -2.75,0.68 -4.19,0.68 -2.2,0 -4.33,-0.54 -6.21,-1.57 -1.5,1.31 -3.42,2.04 -5.42,2.04 -0.69,0 -1.35,-0.09 -1.99,-0.25l1.98 10.69 20.13 0 1.84 -9.94c-0.42,0.07 -0.84,0.12 -1.28,0.12 -1.8,0 -3.5,-0.62 -4.86,-1.77zm-9.74 9.62c-0.03,0.01 -0.06,0.01 -0.09,0.01 -0.3,0 -0.56,-0.22 -0.61,-0.53l-0.77 -5.36c-0.05,-0.34 0.18,-0.65 0.52,-0.7 0.34,-0.04 0.65,0.18 0.7,0.52l0.78 5.36c0.05,0.34 -0.19,0.65 -0.53,0.7zm5.09 -0.58c0,0.34 -0.27,0.62 -0.61,0.62 -0.35,0 -0.62,-0.28 -0.62,-0.62l0 -5.42c0,-0.34 0.27,-0.61 0.62,-0.61 0.34,0 0.61,0.27 0.61,0.61l0 5.42zm4.56 0.06c-0.05,0.31 -0.31,0.53 -0.61,0.53 -0.03,0 -0.06,0 -0.09,-0.01 -0.34,-0.05 -0.57,-0.36 -0.53,-0.7l0.78 -5.36c0.05,-0.34 0.36,-0.57 0.7,-0.52 0.34,0.05 0.57,0.36 0.52,0.7l-0.77 5.36z"/>
     <path class="fil15" d="M242.91 272.56c0.11,0.05 0.22,0.1 0.34,0.14 0.11,0.05 0.22,0.09 0.34,0.13 0.7,0.24 1.45,0.37 2.24,0.37 2.08,0 3.95,-0.91 5.23,-2.35 1.81,1.18 4.01,1.89 6.4,1.89 1.6,0 3.11,-0.32 4.48,-0.88 1.15,1.21 2.77,1.96 4.57,1.96 0.53,0 1.03,-0.07 1.52,-0.19 0.11,-0.03 0.22,-0.05 0.33,-0.08 0.11,-0.04 0.23,-0.08 0.34,-0.12 2.42,-0.89 4.15,-3.21 4.15,-5.95 0,-2.83 -1.85,-5.22 -4.41,-6.04 -0.61,-5.08 -5.29,-9.04 -10.98,-9.04 -4.86,0 -8.98,2.9 -10.46,6.91 -0.38,-0.06 -0.77,-0.1 -1.17,-0.1 -3.86,0 -7,3.13 -7,6.99 0,2.82 1.67,5.25 4.08,6.36z"/>
    </g>
   </g>
   <g>
   </g>
   <g>
   </g>
   <g>
   </g>
   <g>
   </g>
   <g>
   </g>
   <g>
   </g>
   <g>
   </g>
   <g>
   </g>
   <g>
   </g>
   <g>
   </g>
   <g>
   </g>
   <g>
   </g>
   <g>
   </g>
   <g>
   </g>
   <g>
   </g>
  </g>
  <g id="_1666891102576">
   <g>
    <path class="fil15" d="M248.09 364.52c0.72,-0.44 1.23,-1.13 1.43,-1.96 0.38,-1.58 -0.52,-3.2 -2.03,-3.73l-1.54 6.12c0.74,0.12 1.49,-0.03 2.14,-0.43l0 0z"/>
    <circle class="fil15" cx="259.88" cy="359.03" r="3.75"/>
    <path class="fil15" d="M252.32 370.08c0.83,-1.38 2.14,-2.36 3.69,-2.76 2.89,-0.74 5.83,0.73 7.03,3.35l9.08 -2.27c0.11,-0.82 0.36,-1.62 0.61,-2.39 0.37,-1.15 0.72,-2.24 0.49,-3.07 -0.24,-0.89 -1.1,-1.67 -2.02,-2.5 -0.79,-0.72 -1.61,-1.46 -2.15,-2.38 -0.55,-0.95 -0.78,-2.04 -1.01,-3.1 -0.26,-1.19 -0.51,-2.32 -1.14,-2.95 -0.64,-0.64 -1.77,-0.88 -2.96,-1.14 -1.06,-0.23 -2.15,-0.47 -3.09,-1.02 -0.93,-0.53 -1.67,-1.35 -2.39,-2.15 -0.82,-0.91 -1.6,-1.78 -2.49,-2.02 -0.84,-0.22 -1.92,0.12 -3.07,0.49 -0.78,0.25 -1.57,0.5 -2.39,0.62l-2.5 9.95c1.26,0.38 2.31,1.21 2.99,2.34 0.72,1.21 0.94,2.62 0.61,3.99 -0.33,1.38 -1.19,2.55 -2.4,3.29 -0.85,0.52 -1.8,0.78 -2.76,0.78 -0.34,0 -0.68,-0.03 -1.02,-0.1l-2.16 8.59 8.2 -2.06c-0.07,-1.21 0.21,-2.42 0.85,-3.49l0 0zm13.65 -5.1l2.28 0 0 2.15 -2.28 0 0 -2.15zm-6.09 -11.86c3.25,0 5.9,2.65 5.9,5.91 0,3.25 -2.65,5.9 -5.9,5.9 -3.26,0 -5.91,-2.65 -5.91,-5.9 0,-3.26 2.65,-5.91 5.91,-5.91zm-7.72 -2.8l2.27 0 0 2.15 -2.27 0 0 -2.15zm-2.64 21.23l-2.27 0 0 -2.15 2.27 0 0 2.15z"/>
    <path class="fil15" d="M274.43 367.82l5.48 -1.38c-0.64,-7.04 -3.74,-13.64 -8.77,-18.68 -5.03,-5.03 -11.63,-8.12 -18.67,-8.77l-1.38 5.48c0.37,-0.1 0.76,-0.22 1.15,-0.35 1.03,-0.32 2.08,-0.66 3.14,-0.66 0.38,0 0.76,0.04 1.14,0.15 1.51,0.4 2.59,1.6 3.54,2.65 0.63,0.7 1.23,1.37 1.87,1.73 0.65,0.38 1.53,0.57 2.47,0.78 1.44,0.31 2.94,0.63 4.02,1.72 1.08,1.08 1.4,2.57 1.72,4.02 0.2,0.93 0.39,1.82 0.77,2.47 0.37,0.63 1.03,1.23 1.73,1.86 1.06,0.95 2.26,2.03 2.66,3.54 0.39,1.45 -0.07,2.89 -0.52,4.28 -0.12,0.4 -0.25,0.78 -0.35,1.16l0 0z"/>
    <path class="fil15" d="M256.55 369.4c-1.7,0.44 -2.86,1.96 -2.93,3.64l7.28 -1.83c-0.86,-1.46 -2.62,-2.25 -4.35,-1.81z"/>
   </g>
  </g>
 </g>
</svg>
