<svg xmlns:xlink="http://www.w3.org/1999/xlink" xmlns="http://www.w3.org/2000/svg" version="1.1" width="512"
     height="512" x="0" y="0" viewBox="0 0 453.54 453.54" style="enable-background:new 0 0 512 512" xml:space="preserve"
     class=""><g><path d="M332.745 324.745c-4.867-20.66-29.334-33.051-49.29-27.533-23.032 6.371-39.031 35.332-47.183 55.912a130.695 130.695 0 0 0-3.574 10.273c-42.514-4.221-77.3-41.004-89.099-80.924-11.935-40.389-.663-86.718 26.917-118.168 4.32-4.926 9.069-9.537 14.227-13.585 17.921 26.282 48.855 41.116 81.622 39.847 19.186-.743 40.386-11.05 46.922-30.08 7.253-21.12-16.015-37.932-33.194-42.985-21.218-6.241-45.144-4.705-66.567-.517-7.331 1.434-14.188 3.727-20.655 6.725-8.656-24.376-7.35-54.28-.537-80.331 2.156 4.757 4.284 9.529 6.331 14.344 5.597 13.167 24.755 1.816 19.21-11.228-5.917-13.917-12.369-27.536-18.891-41.173-3.394-7.098-12.316-6.305-17.471-2.252-10.654 8.376-21.805 15.981-32.749 23.959-11.468 8.361-.385 27.678 11.229 19.21 4.845-3.532 9.709-7.017 14.56-10.518-9.313 31.765-11.31 67.273 1.197 98.156-5.361 3.93-10.437 8.372-15.272 13.247-29.649 29.897-43.657 74.15-39.833 115.697 4.114 44.684 31.637 86.557 71.249 107.805 11.275 6.049 23.753 9.716 36.638 11.317-3.204 21.585-.942 43.595 5.901 64.96 3.737 11.662 22.151 6.676 18.389-5.068-6.247-19.5-8.39-39.447-5.2-58.998 20.788-.574 41.632-6.019 59.367-15.207 15.192-7.871 30.107-24.418 25.756-42.885zM208.646 137.848c17.289-5.352 36.104-6.225 54.014-4.403 10.836 1.102 39.931 9.039 30.774 25.015-8.417 14.686-31.643 14.065-45.633 11.599-21.911-3.864-36.941-14.718-46.601-29.387a66.348 66.348 0 0 1 7.446-2.824zm104.7 198.135c-2.428 7.754-11.26 12.734-17.928 16.189-12.82 6.644-28.041 9.792-42.69 11.033a111.84 111.84 0 0 1 2.252-5.744c6.963-16.363 22.542-46.6 43.963-41.645 9.681 2.244 17.632 9.861 14.403 20.167z" fill="#ffffff" opacity="1" data-original="#000000" class=""></path></g></svg>