<svg xmlns:xlink="http://www.w3.org/1999/xlink" xmlns="http://www.w3.org/2000/svg" version="1.1" width="512"
     height="512" x="0" y="0" viewBox="0 0 64 64" style="enable-background:new 0 0 512 512" xml:space="preserve"
     class=""><g><g fill="#000"><path d="M6 18c0-6.627 5.373-12 12-12h14a2 2 0 1 0 0-4H18C9.163 2 2 9.163 2 18v6a2 2 0 1 0 4 0z" fill="#516ad6" opacity="1" data-original="#000000" class=""></path><path
        fill-rule="evenodd"
        d="M6 34a2 2 0 1 0-4 0v12c0 8.837 7.163 16 16 16h28c8.837 0 16-7.163 16-16V32a2 2 0 1 0-4 0v12.541c-4.583-7.166-15.112-7.077-19.683-.172l-5.169-6.108c-6.127-7.242-17.531-6.421-22.56 1.623l-4.534 7.257A12.148 12.148 0 0 1 6 46zm49.122 13.577 1.724 3.564a12.032 12.032 0 0 1-7.416 6.362l-8.361-9.882c2.745-5.839 11.174-5.992 14.053-.044zM7.667 52.105A11.994 11.994 0 0 0 18 58h26.61L30.096 40.845c-4.377-5.173-12.523-4.587-16.114 1.16L7.696 52.06l-.03.045z"
        clip-rule="evenodd" fill="#516ad6" opacity="1" data-original="#000000" class=""></path><path
        d="M56.513 15.338a2 2 0 0 0 2.974-2.676L53.46 5.966a6 6 0 0 0-8.92 0l-6.027 6.696a2 2 0 1 0 2.974 2.676L47 9.212V26a2 2 0 1 0 4 0V9.212z"
        fill="#516ad6" opacity="1" data-original="#000000" class=""></path></g></g></svg>