<!--
  - Copyright (c) 2023. Selldone® Business OS™
  -
  - Author: M.Pajuhaan
  - Web: https://selldone.com
  - ━━━━━━━━━━━━━━━━━━━━━━━━━━━━━━━━━━━━━━━━━━━━━━━━━━━━━━
  -
  - All rights reserved. In the weave of time, where traditions and innovations intermingle, this content was crafted.
  - From the essence of thought, through the corridors of creativity, each word, and sentiment has been molded.
  - Not just to exist, but to inspire. Like an artist's stroke or a sculptor's chisel, every nuance is deliberate.
  - Our journey is not just about reaching a destination, but about creating a masterpiece.
  - Tread carefully, for you're treading on dreams.
  -->

<svg height="511pt" viewBox="-26 1 511 511.99935" width="511pt" xmlns="http://www.w3.org/2000/svg"><path d="m132.914062 17.65625h194.207032v210.890625h-194.207032zm0 0" fill="#c6a16f"/><path d="m327.121094 228.546875h-194.207032c100.191407-17.859375 177.714844-97.832031 192.441407-198.53125l1.765625-12.359375zm0 0" fill="#896942"/><path d="m256.5 88.277344-26.484375-26.484375-26.480469 26.484375v-88.277344h52.964844zm0 0" fill="#e8d8bf"/><path d="m212.363281 114.757812h35.308594v17.65625h-35.308594zm0 0" fill="#896942"/><g fill="#c6a16f"><path d="m18.15625 434.777344h35.308594v49.496094h-35.308594zm0 0"/><path d="m212.363281 434.777344h35.308594v49.496094h-35.308594zm0 0"/><path d="m406.570312 434.777344h35.308594v49.496094h-35.308594zm0 0"/><path d="m35.808594 211.863281h388.414062v206.457031h-388.414062zm0 0"/></g><path d="m230.015625 418.320312h-194.207031c100.335937-18.355468 177.929687-98.421874 193.132812-199.28125l1.074219-7.175781zm0 0" fill="#896942"/><path d="m424.222656 418.320312h-194.207031c103.570313-14.539062 183.6875-98.144531 193.800781-202.238281l.40625-4.21875zm0 0" fill="#896942"/><path d="m353.601562 300.136719-26.480468-26.480469-26.484375 26.480469v-88.273438h52.964843zm0 0" fill="#e8d8bf"/><path d="m159.394531 300.136719-26.480469-26.480469-26.484374 26.480469v-88.273438h52.964843zm0 0" fill="#e8d8bf"/><path d="m309.464844 326.621094h35.3125v17.65625h-35.3125zm0 0" fill="#896942"/><path d="m115.257812 326.621094h35.3125v17.65625h-35.3125zm0 0" fill="#896942"/><path d="m.5 476.6875h459.035156v35.3125h-459.035156zm0 0" fill="#ffd789"/><path d="m.5 406.070312h459.035156v35.308594h-459.035156zm0 0" fill="#ffd789"/></svg>