<svg id="svg4593" height="512" viewBox="0 0 16.933333 16.933334" width="512" xmlns="http://www.w3.org/2000/svg"
>
    <clipPath id="clipPath5337">
        <path id="rect5339" d="m34.774 274.321h35.435v25.702h-35.435z"/>
    </clipPath>
    <clipPath id="clipPath4542">
        <path id="rect4544" d="m-535.214-48.848h501.574v185.586h-501.574z"/>
    </clipPath>
    <clipPath id="clipPath11017">
        <path id="rect11019" d="m36.669 153.503h29.654v28.999h-29.654z" transform="rotate(-90)" vector-effect="none"/>
    </clipPath>
    <clipPath id="clipPath11444">
        <path id="rect11446" d="m-143.933 265.779h28.84v29.104h-28.84z" transform="rotate(-90)" vector-effect="none"/>
    </clipPath>
    <clipPath id="clipPath11781">
        <rect id="rect11783" height="32.411" rx=".634" transform="rotate(-90)" width="32.941" x="-145.124" y="181.377"/>
    </clipPath>
    <clipPath id="clipPath11499">
        <path id="rect11501" d="m-551.399-9.261h16.064v16.347h-16.064z" vector-effect="none"/>
    </clipPath>
    <g id="layer1" transform="translate(0 -280.067)">
        <circle id="path34863-8" cx="8.467" cy="288.533" fill="#ffc861" r="7.938"/>
        <path id="path35244-8"
              d="m15.46882 287.71215c.8196 5.66444-5.93651 10.35195-10.9337 6.64869-.3861-.22689-.86339.10719-.79211.5493 1.36521 1.01559 3.02212 1.55683 4.72365 1.56013 4.38376 0 7.9375-3.55374 7.9375-7.9375-.00003-.45048-.0384-.90013-.11472-1.3441-.40918-.23994-.87988.0804-.82062.52348z"
              fill="#ffab61" font-variant-ligatures="normal" font-variant-position="normal" font-variant-caps="normal"
              font-variant-numeric="normal" font-variant-alternates="normal" font-feature-settings="normal"
              text-indent="0" text-align="start" text-decoration-line="none" text-decoration-style="solid"
              text-decoration-color="#000000" text-transform="none" text-orientation="mixed" white-space="normal"
              shape-padding="0" isolation="auto" mix-blend-mode="normal" solid-color="#000000" solid-opacity="1"
              vector-effect="none"/>
        <g fill="#4d4d4d">
            <path id="path10354-7"
                  d="m22.875 11.783203a2.5625 2.5625 0 0 0 -2.5625 2.5625 2.5625 2.5625 0 0 0 2.5625 2.5625 2.5625 2.5625 0 0 0 2.5625-2.5625 2.5625 2.5625 0 0 0 -2.5625-2.5625z"
                  transform="matrix(.265 0 0 .265 0 280.067)" vector-effect="none"/>
            <path id="path4009-9-1"
                  d="m9.4927099 284.47357c0-1.6728 2.4941401-1.6716 2.4941401 0 0 .35287-.5293.35287-.5293 0-.0539-.96593-1.41831-.85313-1.43555 0 0 .35286-.5292901.35286-.5292901 0z"
                  font-variant-ligatures="normal" font-variant-position="normal" font-variant-caps="normal"
                  font-variant-numeric="normal" font-variant-alternates="normal" font-feature-settings="normal"
                  text-indent="0" text-align="start" text-decoration-line="none" text-decoration-style="solid"
                  text-decoration-color="#000000" text-transform="none" text-orientation="mixed" white-space="normal"
                  shape-padding="0" isolation="auto" mix-blend-mode="normal" solid-color="#000000" solid-opacity="1"
                  vector-effect="none"/>
            <path id="path24269"
                  d="m4.4863281 289.31836a.26460978.26460978 0 0 0 -.2597656.26758c-.0000001 1.18705.8458034 2.25456 2.1484375 2.8164 1.3026341.56185 2.8809596.56185 4.183594 0 1.302634-.56184 2.148437-1.62935 2.148437-2.8164a.2646485.2646485 0 1 0 -.529297 0c0 .93512-.670628 1.83083-1.828125 2.33008-1.1574964.49924-2.6081278.49924-3.7656246 0-1.1574968-.49925-1.8281251-1.39496-1.828125-2.33008a.26460978.26460978 0 0 0 -.2695313-.26758z"
                  font-variant-ligatures="normal" font-variant-position="normal" font-variant-caps="normal"
                  font-variant-numeric="normal" font-variant-alternates="normal" font-feature-settings="normal"
                  text-indent="0" text-align="start" text-decoration-line="none" text-decoration-style="solid"
                  text-decoration-color="#000000" text-transform="none" text-orientation="mixed" white-space="normal"
                  shape-padding="0" isolation="auto" mix-blend-mode="normal" solid-color="#000000" solid-opacity="1"
                  vector-effect="none"/>
        </g>
        <path id="path24271"
              d="m4.5293706 287.31815a1.1225319 1.1225319 0 0 1 -1.1225319 1.12253 1.1225319 1.1225319 0 0 1 -1.1225319-1.12253 1.1225319 1.1225319 0 0 1 1.1225319-1.12254 1.1225319 1.1225319 0 0 1 1.1225319 1.12254z"
              fill="#ef6356" vector-effect="none"/>
        <path id="path24436"
              d="m14.649683 287.31815a1.1225319 1.1225319 0 0 1 -1.122532 1.12253 1.1225319 1.1225319 0 0 1 -1.122532-1.12253 1.1225319 1.1225319 0 0 1 1.122532-1.12254 1.1225319 1.1225319 0 0 1 1.122532 1.12254z"
              fill="#ef6356" vector-effect="none"/>
    </g>
</svg>