<svg id="svg4593" height="512" viewBox="0 0 16.933333 16.933334" width="512" xmlns="http://www.w3.org/2000/svg"
>
    <clipPath id="clipPath5337">
        <path id="rect5339" d="m34.774 274.321h35.435v25.702h-35.435z"/>
    </clipPath>
    <clipPath id="clipPath4542">
        <path id="rect4544" d="m-535.214-48.848h501.574v185.586h-501.574z"/>
    </clipPath>
    <clipPath id="clipPath11017">
        <path id="rect11019" d="m36.669 153.503h29.654v28.999h-29.654z" transform="rotate(-90)" vector-effect="none"/>
    </clipPath>
    <clipPath id="clipPath11444">
        <path id="rect11446" d="m-143.933 265.779h28.84v29.104h-28.84z" transform="rotate(-90)" vector-effect="none"/>
    </clipPath>
    <clipPath id="clipPath11781">
        <rect id="rect11783" height="32.411" rx=".634" transform="rotate(-90)" width="32.941" x="-145.124" y="181.377"/>
    </clipPath>
    <clipPath id="clipPath11499">
        <path id="rect11501" d="m-551.399-9.261h16.064v16.347h-16.064z" vector-effect="none"/>
    </clipPath>
    <g id="layer1" transform="translate(0 -280.067)">
        <circle id="path34863-0" cx="8.467" cy="288.533" fill="#ffc861" r="7.938"/>
        <path id="path35244-56"
              d="m15.468824 287.71214c.8196 5.66444-5.93651 10.35196-10.9337 6.64869-.3861-.22689-.86339.10719-.79211.54931 1.36521 1.01559 3.02212 1.55682 4.72365 1.56013 4.38376-.00001 7.9375-3.55374 7.9375-7.9375-.00003-.45048-.0384-.90014-.11472-1.34411-.40918-.23994-.87988.0803-.82062.52348z"
              fill="#ffab61" font-variant-ligatures="normal" font-variant-position="normal" font-variant-caps="normal"
              font-variant-numeric="normal" font-variant-alternates="normal" font-feature-settings="normal"
              text-indent="0" text-align="start" text-decoration-line="none" text-decoration-style="solid"
              text-decoration-color="#000000" text-transform="none" text-orientation="mixed" white-space="normal"
              shape-padding="0" isolation="auto" mix-blend-mode="normal" solid-color="#000000" solid-opacity="1"
              vector-effect="none"/>
        <path id="path5407"
              d="m5.009136 288.07639c0-.84717-1.26422-2.37092-1.53393-2.37092-.24532 0-1.53394 1.52375-1.53394 2.37092s.68677 1.53394 1.53394 1.53394 1.53393-.68677 1.53393-1.53394z"
              fill="#55a1ff" vector-effect="none"/>
        <g fill="#4d4d4d">
            <g id="g22806-8-4" transform="matrix(1 .007 -.007 1 2.329 -1.841)">
                <path id="path22798-1-5"
                      d="m5.3925781 285.04492.7949219 1.375-1.6328125.33008c-.3715934.0521-.2569034.61499.1054687.51758l1.9941407-.40039c.1775526-.0362.2670561-.23605.1757812-.39258l-.9785156-1.69531c-.1860686-.32228-.6412295-.05-.4589844.26562z"
                      font-variant-ligatures="normal" font-variant-position="normal" font-variant-caps="normal"
                      font-variant-numeric="normal" font-variant-alternates="normal" font-feature-settings="normal"
                      text-indent="0" text-align="start" text-decoration-line="none" text-decoration-style="solid"
                      text-decoration-color="#000000" text-transform="none" text-orientation="mixed"
                      white-space="normal" shape-padding="0" isolation="auto" mix-blend-mode="normal"
                      solid-color="#000000" solid-opacity="1" vector-effect="none"/>
                <path id="path22802-8-2"
                      d="m10.959188 285.04492-.794922 1.375 1.632813.33008c.371593.0521.256903.61499-.105469.51758l-1.9941404-.40039c-.1775526-.0362-.2670561-.23605-.1757812-.39258l.9785156-1.69531c.186069-.32228.641229-.05.458984.26562z"
                      font-variant-ligatures="normal" font-variant-position="normal" font-variant-caps="normal"
                      font-variant-numeric="normal" font-variant-alternates="normal" font-feature-settings="normal"
                      text-indent="0" text-align="start" text-decoration-line="none" text-decoration-style="solid"
                      text-decoration-color="#000000" text-transform="none" text-orientation="mixed"
                      white-space="normal" shape-padding="0" isolation="auto" mix-blend-mode="normal"
                      solid-color="#000000" solid-opacity="1" vector-effect="none"/>
            </g>
            <path id="path21586-0"
                  d="m5.853516 290.11719c0-3.39068 5.226562-3.54069 5.226562 0 0 .35286-.529297.35286-.529297 0 0-2.81326-4.167968-2.65917-4.167968 0 0 .37196-.529297.38004-.529297 0z"
                  font-variant-ligatures="normal" font-variant-position="normal" font-variant-caps="normal"
                  font-variant-numeric="normal" font-variant-alternates="normal" font-feature-settings="normal"
                  text-indent="0" text-align="start" text-decoration-line="none" text-decoration-style="solid"
                  text-decoration-color="#000000" text-transform="none" text-orientation="mixed" white-space="normal"
                  shape-padding="0" isolation="auto" mix-blend-mode="normal" solid-color="#000000" solid-opacity="1"
                  vector-effect="none"/>
            <path id="path21590-1"
                  d="m7.761441 288.96484c.37247-.37755 1.016646-.37429 1.402343 0 .290459.24786-.125188.66351-.373047.37305-.168931-.20181-.465508-.20712-.654296 0-.293539.27608-.631964-.11609-.375-.37305z"
                  font-variant-ligatures="normal" font-variant-position="normal" font-variant-caps="normal"
                  font-variant-numeric="normal" font-variant-alternates="normal" font-feature-settings="normal"
                  text-indent="0" text-align="start" text-decoration-line="none" text-decoration-style="solid"
                  text-decoration-color="#000000" text-transform="none" text-orientation="mixed" white-space="normal"
                  shape-padding="0" isolation="auto" mix-blend-mode="normal" solid-color="#000000" solid-opacity="1"
                  vector-effect="none"/>
        </g>
    </g>
</svg>