<?xml version="1.0" encoding="UTF-8"?>
<!DOCTYPE svg PUBLIC "-//W3C//DTD SVG 1.1//EN" "http://www.w3.org/Graphics/SVG/1.1/DTD/svg11.dtd">
<!-- Creator: CorelDRAW 2019 (64-Bit) -->
<svg xmlns="http://www.w3.org/2000/svg" xml:space="preserve" width="469px" height="600px" version="1.1" style="shape-rendering:geometricPrecision; text-rendering:geometricPrecision; image-rendering:optimizeQuality; fill-rule:evenodd; clip-rule:evenodd"
viewBox="0 0 5114.92 6533.79"
 xmlns:xlink="http://www.w3.org/1999/xlink"
 xmlns:xodm="http://www.corel.com/coreldraw/odm/2003">
 <defs>
  <style type="text/css">
   <![CDATA[
    .fil0 {fill:#6d6d6d;fill-rule:nonzero}
   ]]>
  </style>
 </defs>
 <g id="Layer_x0020_1">
  <metadata id="CorelCorpID_0Corel-Layer"/>
  <g id="_1697371557712">
   <path class="fil0" d="M2799.79 4630.24c-639.22,0 -1218.02,-259.16 -1636.99,-678.12 -418.97,-418.97 -678.13,-997.76 -678.13,-1637 0,-639.24 259.16,-1218.02 678.13,-1636.99 418.97,-418.98 997.76,-678.13 1636.99,-678.13 639.24,0 1218.03,259.15 1637,678.13 418.96,418.97 678.13,997.77 678.13,1636.99l-1089.48 0c0,-338.51 -137.18,-644.95 -358.93,-866.71 -221.76,-221.76 -528.21,-358.93 -866.72,-358.93 -338.51,0 -644.95,137.17 -866.71,358.93 -221.76,221.76 -358.93,528.2 -358.93,866.71 0,338.51 137.17,644.95 358.93,866.71 221.76,221.75 528.2,358.93 866.71,358.93l0 1089.48z"/>
   <path class="fil0" d="M2315.12 1903.55c639.24,0 1218.03,259.15 1637,678.12 418.96,418.98 678.12,997.77 678.12,1637 0,639.23 -259.15,1218.01 -678.12,1637 -418.99,418.97 -997.77,678.12 -1637,678.12 -639.22,0 -1218.02,-259.16 -1636.99,-678.12 -418.98,-418.97 -678.13,-997.76 -678.13,-1637l1089.48 0c0,338.51 137.17,644.95 358.93,866.71 221.76,221.75 528.2,358.93 866.71,358.93 338.51,0 644.95,-137.18 866.71,-358.93 221.75,-221.76 358.93,-528.2 358.93,-866.71 0,-338.51 -137.18,-644.95 -358.93,-866.71 -221.76,-221.76 -528.2,-358.93 -866.71,-358.93l0 -1089.48z"/>
  </g>
 </g>
</svg>
