<svg xmlns="http://www.w3.org/2000/svg" xml:space="preserve" width="469" height="600" style="shape-rendering:geometricPrecision;text-rendering:geometricPrecision;image-rendering:optimizeQuality;fill-rule:evenodd;clip-rule:evenodd" viewBox="0 0 159.59 203.86"><defs><linearGradient id="id0" gradientUnits="objectBoundingBox" x1="0%" y1="30.521%" x2="133.053%" y2="68.814%"><stop offset="0" style="stop-opacity:1;stop-color:#ffd1d4"/><stop offset=".2" style="stop-opacity:1;stop-color:#ffd1d4"/><stop offset=".988" style="stop-opacity:1;stop-color:#b8aaff"/><stop offset="1" style="stop-opacity:1;stop-color:#b8aaff"/></linearGradient><style>.fil0{fill:url(#id0);fill-rule:nonzero}</style></defs><g id="Layer_x0020_1"><g id="_1745752012672"><path class="fil0" d="M87.36 144.47c-19.95 0-38.01-8.09-51.08-21.16S15.12 92.18 15.12 72.23c0-19.94 8.09-38 21.16-51.07S67.41 0 87.36 0c19.94 0 38 8.09 51.07 21.16 13.08 13.07 21.16 31.13 21.16 51.07H125.6c0-10.56-4.28-20.12-11.2-27.04-6.92-6.92-16.48-11.2-27.04-11.2-10.56 0-20.13 4.28-27.05 11.2-6.91 6.92-11.19 16.48-11.19 27.04 0 10.57 4.28 20.13 11.19 27.05 6.92 6.92 16.49 11.2 27.05 11.2v33.99z"/><path class="fil0" d="M72.23 59.39c19.95 0 38.01 8.09 51.08 21.16s21.16 31.13 21.16 51.08c0 19.94-8.09 38-21.16 51.07-13.07 13.08-31.13 21.16-51.08 21.16-19.94 0-38-8.08-51.07-21.16C8.09 169.63 0 151.57 0 131.63h33.99c0 10.56 4.28 20.12 11.2 27.04 6.92 6.92 16.48 11.2 27.04 11.2 10.57 0 20.13-4.28 27.05-11.2 6.92-6.92 11.2-16.48 11.2-27.04 0-10.56-4.28-20.13-11.2-27.04-6.92-6.92-16.48-11.2-27.05-11.2v-34z"/></g></g></svg>