<?xml version="1.0" encoding="UTF-8"?>
<!DOCTYPE svg PUBLIC "-//W3C//DTD SVG 1.1//EN" "http://www.w3.org/Graphics/SVG/1.1/DTD/svg11.dtd">
<!-- Creator: CorelDRAW 2021 (64-Bit) -->
<svg xmlns="http://www.w3.org/2000/svg" xml:space="preserve" width="499px" height="499px" version="1.1" style="shape-rendering:geometricPrecision; text-rendering:geometricPrecision; image-rendering:optimizeQuality; fill-rule:evenodd; clip-rule:evenodd"
viewBox="0 0 12.36 12.36"
 xmlns:xlink="http://www.w3.org/1999/xlink"
 xmlns:xodm="http://www.corel.com/coreldraw/odm/2003">
 <defs>
  <style type="text/css">
   <![CDATA[
    .fil1 {fill:#FEFEFE;fill-rule:nonzero}
    .fil0 {fill:url(#id0)}
   ]]>
  </style>
  <linearGradient id="id0" gradientUnits="userSpaceOnUse" x1="1.58" y1="2.04" x2="10.77" y2="10.32">
   <stop offset="0" style="stop-opacity:1; stop-color:#3B3B3B"/>
   <stop offset="1" style="stop-opacity:1; stop-color:#2A2A2A"/>
  </linearGradient>
 </defs>
 <g id="Layer_x0020_1">
  <metadata id="CorelCorpID_0Corel-Layer"/>
  <rect class="fil0" width="12.36" height="12.36" rx="4.16" ry="3.95"/>
  <g id="_2211726277632">
   <path class="fil1" d="M6.47 7.78c-0.75,0 -1.44,-0.3 -1.94,-0.8 -0.49,-0.5 -0.8,-1.18 -0.8,-1.94 0,-0.76 0.31,-1.44 0.8,-1.94 0.5,-0.49 1.19,-0.8 1.94,-0.8 0.76,0 1.45,0.31 1.94,0.8 0.5,0.5 0.81,1.18 0.81,1.94l-1.29 0c0,-0.4 -0.17,-0.76 -0.43,-1.02 -0.26,-0.27 -0.63,-0.43 -1.03,-0.43 -0.4,0 -0.76,0.16 -1.02,0.43 -0.27,0.26 -0.43,0.62 -0.43,1.02 0,0.4 0.16,0.77 0.43,1.03 0.26,0.26 0.62,0.42 1.02,0.42l0 1.29z"/>
   <path class="fil1" d="M5.9 4.55c0.76,0 1.44,0.31 1.94,0.81 0.49,0.49 0.8,1.18 0.8,1.94 0,0.75 -0.31,1.44 -0.8,1.93 -0.5,0.5 -1.18,0.81 -1.94,0.81 -0.76,0 -1.44,-0.31 -1.94,-0.81 -0.5,-0.49 -0.8,-1.18 -0.8,-1.93l1.29 0c0,0.4 0.16,0.76 0.42,1.02 0.27,0.27 0.63,0.43 1.03,0.43 0.4,0 0.76,-0.16 1.03,-0.43 0.26,-0.26 0.42,-0.62 0.42,-1.02 0,-0.4 -0.16,-0.77 -0.42,-1.03 -0.27,-0.26 -0.63,-0.43 -1.03,-0.43l0 -1.29z"/>
  </g>
 </g>
</svg>
