<svg xmlns="http://www.w3.org/2000/svg" xml:space="preserve" width="499" height="499" style="shape-rendering:geometricPrecision;text-rendering:geometricPrecision;image-rendering:optimizeQuality;fill-rule:evenodd;clip-rule:evenodd" viewBox="0 0 12.36 12.36"><defs><linearGradient id="id0" gradientUnits="userSpaceOnUse" x1="1.58" y1="2.04" x2="10.77" y2="10.32"><stop offset="0" style="stop-opacity:1;stop-color:#3b3b3b"/><stop offset="1" style="stop-opacity:1;stop-color:#2a2a2a"/></linearGradient><style>.fil1{fill:#fefefe;fill-rule:nonzero}</style></defs><g id="Layer_x0020_1"><rect width="12.36" height="12.36" rx="4.16" ry="3.95" style="fill:url(#id0)"/><g id="_2211726277632"><path class="fil1" d="M6.47 7.78c-.75 0-1.44-.3-1.94-.8-.49-.5-.8-1.18-.8-1.94s.31-1.44.8-1.94c.5-.49 1.19-.8 1.94-.8.76 0 1.45.31 1.94.8.5.5.81 1.18.81 1.94H7.93c0-.4-.17-.76-.43-1.02-.26-.27-.63-.43-1.03-.43s-.76.16-1.02.43c-.27.26-.43.62-.43 1.02s.16.77.43 1.03c.26.26.62.42 1.02.42v1.29z"/><path class="fil1" d="M5.9 4.55c.76 0 1.44.31 1.94.81a2.743 2.743 0 0 1-1.94 4.68c-.76 0-1.44-.31-1.94-.81-.5-.49-.8-1.18-.8-1.93h1.29c0 .4.16.76.42 1.02.27.27.63.43 1.03.43s.76-.16 1.03-.43a1.46 1.46 0 0 0 0-2.05c-.27-.26-.63-.43-1.03-.43V4.55z"/></g></g></svg>