<?xml version="1.0" encoding="UTF-8"?>


<!DOCTYPE svg PUBLIC "-//W3C//DTD SVG 1.1//EN" "http://www.w3.org/Graphics/SVG/1.1/DTD/svg11.dtd">

<svg xmlns:xlink="http://www.w3.org/1999/xlink" xmlns:xodm="http://www.corel.com/coreldraw/odm/2003" xmlns="http://www.w3.org/2000/svg" xml:space="preserve" width="469px"
     height="600px"
     version="1.1"
     style="shape-rendering:geometricPrecision; text-rendering:geometricPrecision; image-rendering:optimizeQuality; fill-rule:evenodd; clip-rule:evenodd"
     viewBox="0 0 141.45 180.69">
 <defs>
  <style type="text/css">
   <![CDATA[
    .fil0 {fill:#FEFEFE;fill-rule:nonzero}
   ]]>
  </style>
 </defs>
    <g id="Layer_x0020_1">
  <metadata id="CorelCorpID_0Corel-Layer"/>
        <g id="_1748260041648">
   <path class="fil0"
         d="M77.43 128.05c-17.68,0 -33.69,-7.17 -45.27,-18.75 -11.59,-11.59 -18.76,-27.6 -18.76,-45.28 0,-17.67 7.17,-33.68 18.76,-45.27 11.58,-11.58 27.59,-18.75 45.27,-18.75 17.68,0 33.68,7.17 45.27,18.75 11.59,11.59 18.75,27.6 18.75,45.27l-30.13 0c0,-9.36 -3.79,-17.83 -9.92,-23.96 -6.14,-6.14 -14.61,-9.93 -23.97,-9.93 -9.36,0 -17.84,3.79 -23.97,9.93 -6.13,6.13 -9.93,14.6 -9.93,23.96 0,9.37 3.8,17.84 9.93,23.97 6.13,6.14 14.61,9.93 23.97,9.93l0 30.13z"/>
            <path class="fil0"
                  d="M64.02 52.64c17.68,0 33.69,7.17 45.28,18.76 11.58,11.58 18.75,27.59 18.75,45.27 0,17.68 -7.17,33.68 -18.75,45.27 -11.59,11.59 -27.6,18.75 -45.28,18.75 -17.67,0 -33.68,-7.17 -45.27,-18.75 -11.58,-11.59 -18.75,-27.59 -18.75,-45.27l30.13 0c0,9.36 3.79,17.83 9.93,23.97 6.13,6.13 14.6,9.92 23.96,9.92 9.37,0 17.84,-3.79 23.97,-9.92 6.14,-6.14 9.93,-14.61 9.93,-23.97 0,-9.36 -3.79,-17.84 -9.93,-23.97 -6.13,-6.13 -14.6,-9.93 -23.97,-9.93l0 -30.13z"/>
  </g>
 </g>
</svg>
