<svg xmlns="http://www.w3.org/2000/svg" xml:space="preserve" width="469" height="600" style="shape-rendering:geometricPrecision;text-rendering:geometricPrecision;image-rendering:optimizeQuality;fill-rule:evenodd;clip-rule:evenodd" viewBox="0 0 141.45 180.69"><defs><style>.fil0{fill:#fefefe;fill-rule:nonzero}</style></defs><g id="Layer_x0020_1"><g id="_1748260041648"><path class="fil0" d="M77.43 128.05c-17.68 0-33.69-7.17-45.27-18.75C20.57 97.71 13.4 81.7 13.4 64.02c0-17.67 7.17-33.68 18.76-45.27C43.74 7.17 59.75 0 77.43 0c17.68 0 33.68 7.17 45.27 18.75 11.59 11.59 18.75 27.6 18.75 45.27h-30.13c0-9.36-3.79-17.83-9.92-23.96-6.14-6.14-14.61-9.93-23.97-9.93s-17.84 3.79-23.97 9.93c-6.13 6.13-9.93 14.6-9.93 23.96 0 9.37 3.8 17.84 9.93 23.97a33.764 33.764 0 0 0 23.97 9.93v30.13z"/><path class="fil0" d="M64.02 52.64c17.68 0 33.69 7.17 45.28 18.76 11.58 11.58 18.75 27.59 18.75 45.27 0 17.68-7.17 33.68-18.75 45.27-11.59 11.59-27.6 18.75-45.28 18.75-17.67 0-33.68-7.17-45.27-18.75C7.17 150.35 0 134.35 0 116.67h30.13c0 9.36 3.79 17.83 9.93 23.97 6.13 6.13 14.6 9.92 23.96 9.92 9.37 0 17.84-3.79 23.97-9.92 6.14-6.14 9.93-14.61 9.93-23.97s-3.79-17.84-9.93-23.97c-6.13-6.13-14.6-9.93-23.97-9.93V52.64z"/></g></g></svg>