<?xml version="1.0" encoding="UTF-8"?>
<!--
  - Copyright (c) 2023. Selldone® Business OS™
  -
  - Author: M.Pajuhaan
  - Web: https://selldone.com
  - ━━━━━━━━━━━━━━━━━━━━━━━━━━━━━━━━━━━━━━━━━━━━━━━━━━━━━━
  -
  - All rights reserved. In the weave of time, where traditions and innovations intermingle, this content was crafted.
  - From the essence of thought, through the corridors of creativity, each word, and sentiment has been molded.
  - Not just to exist, but to inspire. Like an artist's stroke or a sculptor's chisel, every nuance is deliberate.
  - Our journey is not just about reaching a destination, but about creating a masterpiece.
  - Tread carefully, for you're treading on dreams.
  -->

<!DOCTYPE svg PUBLIC "-//W3C//DTD SVG 1.1//EN" "http://www.w3.org/Graphics/SVG/1.1/DTD/svg11.dtd">
<!-- Creator: CorelDRAW 2019 (64-Bit) -->
<svg xmlns="http://www.w3.org/2000/svg" xml:space="preserve" width="469px" height="600px" version="1.1" style="shape-rendering:geometricPrecision; text-rendering:geometricPrecision; image-rendering:optimizeQuality; fill-rule:evenodd; clip-rule:evenodd"
viewBox="0 0 159.59 203.86"
 xmlns:xlink="http://www.w3.org/1999/xlink"
 xmlns:xodm="http://www.corel.com/coreldraw/odm/2003">
 <defs>
  <style type="text/css">
   <![CDATA[
    .fil0 {fill:url(#id0);fill-rule:nonzero}
   ]]>
  </style>
  <linearGradient id="id0" gradientUnits="objectBoundingBox" x1="0%" y1="30.5209%" x2="133.053%" y2="68.8137%">
   <stop offset="0" style="stop-opacity:1; stop-color:#FFD1D4"/>
   <stop offset="0.2" style="stop-opacity:1; stop-color:#FFD1D4"/>
   <stop offset="0.988235" style="stop-opacity:1; stop-color:#B8AAFF"/>
   <stop offset="1" style="stop-opacity:1; stop-color:#B8AAFF"/>
  </linearGradient>
 </defs>
 <g id="Layer_x0020_1">
  <metadata id="CorelCorpID_0Corel-Layer"/>
  <g id="_1745752012672">
   <path class="fil0" d="M87.36 144.47c-19.95,0 -38.01,-8.09 -51.08,-21.16 -13.07,-13.07 -21.16,-31.13 -21.16,-51.08 0,-19.94 8.09,-38 21.16,-51.07 13.07,-13.07 31.13,-21.16 51.08,-21.16 19.94,0 38,8.09 51.07,21.16 13.08,13.07 21.16,31.13 21.16,51.07l-33.99 0c0,-10.56 -4.28,-20.12 -11.2,-27.04 -6.92,-6.92 -16.48,-11.2 -27.04,-11.2 -10.56,0 -20.13,4.28 -27.05,11.2 -6.91,6.92 -11.19,16.48 -11.19,27.04 0,10.57 4.28,20.13 11.19,27.05 6.92,6.92 16.49,11.2 27.05,11.2l0 33.99z"/>
   <path class="fil0" d="M72.23 59.39c19.95,0 38.01,8.09 51.08,21.16 13.07,13.07 21.16,31.13 21.16,51.08 0,19.94 -8.09,38 -21.16,51.07 -13.07,13.08 -31.13,21.16 -51.08,21.16 -19.94,0 -38,-8.08 -51.07,-21.16 -13.07,-13.07 -21.16,-31.13 -21.16,-51.07l33.99 0c0,10.56 4.28,20.12 11.2,27.04 6.92,6.92 16.48,11.2 27.04,11.2 10.57,0 20.13,-4.28 27.05,-11.2 6.92,-6.92 11.2,-16.48 11.2,-27.04 0,-10.56 -4.28,-20.13 -11.2,-27.04 -6.92,-6.92 -16.48,-11.2 -27.05,-11.2l0 -34z"/>
  </g>
 </g>
</svg>
