<?xml version="1.0" encoding="UTF-8"?>


<!DOCTYPE svg PUBLIC "-//W3C//DTD SVG 1.1//EN" "http://www.w3.org/Graphics/SVG/1.1/DTD/svg11.dtd">

<svg xmlns:xlink="http://www.w3.org/1999/xlink" xmlns:xodm="http://www.corel.com/coreldraw/odm/2003" xmlns="http://www.w3.org/2000/svg" xml:space="preserve" width="0.243457in"
     height="0.310945in"
     version="1.1"
     style="shape-rendering:geometricPrecision; text-rendering:geometricPrecision; image-rendering:optimizeQuality; fill-rule:evenodd; clip-rule:evenodd"
     viewBox="0 0 2.66 3.4">
 <defs>
  <style type="text/css">
   <![CDATA[
    .fil0 {fill:url(#id0);fill-rule:nonzero}
   ]]>
  </style>
     <linearGradient id="id0" gradientUnits="userSpaceOnUse" x1="0.23" y1="1.2" x2="2.44" y2="2.2">
   <stop offset="0" style="stop-opacity:1; stop-color:#683CA3"/>
         <stop offset="0.490196" style="stop-opacity:1; stop-color:#8566E3"/>
         <stop offset="1" style="stop-opacity:1; stop-color:#6A5ACC"/>
  </linearGradient>
 </defs>
    <g id="Layer_x0020_1">
  <metadata id="CorelCorpID_0Corel-Layer"/>
        <path class="fil0"
              d="M1.45 2.41c-0.33,0 -0.63,-0.13 -0.85,-0.35 -0.22,-0.22 -0.35,-0.52 -0.35,-0.85 0,-0.33 0.14,-0.63 0.35,-0.85 0.22,-0.22 0.52,-0.35 0.85,-0.35 0.33,0 0.64,0.14 0.85,0.35 0.22,0.22 0.36,0.52 0.36,0.85l-0.57 0c0,-0.18 -0.07,-0.33 -0.19,-0.45 -0.11,-0.12 -0.28,-0.19 -0.45,-0.19 -0.18,0 -0.33,0.07 -0.45,0.19 -0.12,0.11 -0.19,0.27 -0.19,0.45 0,0.18 0.07,0.34 0.19,0.45 0.11,0.11 0.27,0.18 0.45,0.18l0 0.57zm-0.25 -1.42c0.33,0 0.63,0.14 0.85,0.36 0.22,0.22 0.35,0.52 0.35,0.85 0,0.33 -0.14,0.63 -0.35,0.85 -0.22,0.22 -0.52,0.36 -0.85,0.36 -0.33,0 -0.63,-0.14 -0.85,-0.36 -0.22,-0.22 -0.35,-0.52 -0.35,-0.85l0.57 0c0,0.18 0.07,0.33 0.18,0.45 0.12,0.12 0.28,0.19 0.45,0.19 0.18,0 0.33,-0.07 0.45,-0.19 0.11,-0.11 0.18,-0.27 0.18,-0.45 0,-0.18 -0.07,-0.34 -0.18,-0.45 -0.12,-0.11 -0.28,-0.19 -0.45,-0.19l0 -0.57z"/>
 </g>
</svg>
