<?xml version="1.0" encoding="UTF-8"?>
<!DOCTYPE svg PUBLIC "-//W3C//DTD SVG 1.1//EN" "http://www.w3.org/Graphics/SVG/1.1/DTD/svg11.dtd">
<!-- Creator: CorelDRAW 2019 (64-Bit) -->
<svg xmlns="http://www.w3.org/2000/svg" xml:space="preserve" width="2000px" height="268px" version="1.1" style="shape-rendering:geometricPrecision; text-rendering:geometricPrecision; image-rendering:optimizeQuality; fill-rule:evenodd; clip-rule:evenodd"
viewBox="0 0 3454.58 463.43"
 xmlns:xlink="http://www.w3.org/1999/xlink"
 xmlns:xodm="http://www.corel.com/coreldraw/odm/2003">
 <defs>
  <style type="text/css">
   <![CDATA[
    .fil0 {fill:#373435;fill-rule:nonzero}
    .fil1 {fill:#88B337;fill-rule:nonzero}
   ]]>
  </style>
 </defs>
 <g id="Layer_x0020_1">
  <metadata id="CorelCorpID_0Corel-Layer"/>
  <path class="fil0" d="M376.48 102.98l-239.06 0c-10.84,0 -19.42,4.07 -25.63,12.2 -6.32,8.13 -9.48,17.61 -9.48,28.57 0,10.73 3.04,19.98 9.14,27.66 5.99,7.68 14.68,11.52 25.97,11.52l140.7 0c38.06,0 68.09,14.23 90.11,42.8 20.1,25.74 30.15,57.25 30.15,94.4 0,37.38 -9.93,68.77 -29.81,94.4 -22.02,28.57 -52.17,42.8 -90.33,42.8l-256.11 0 0 -94.85 239.85 0c10.16,0 18.4,-4.52 24.84,-13.44 5.76,-8.02 8.58,-17.73 8.58,-29.02 0,-10.96 -2.82,-20.44 -8.58,-28.35 -5.76,-7.9 -14.01,-11.85 -24.84,-11.85l-140.93 0c-38.17,0 -68.32,-14.12 -90.56,-42.35 -20.33,-25.52 -30.49,-56.68 -30.49,-93.5 0,-36.81 10.05,-67.86 30.15,-93.16 22.47,-28.45 52.73,-42.68 90.9,-42.68l255.43 0 0 94.85z"/>
  <path id="1" class="fil0" d="M795.41 454.62l-255.2 0c-38.17,0 -68.54,-14.12 -91.01,-42.35 -20.22,-25.63 -30.38,-56.8 -30.38,-93.72 0,-16.04 2.15,-31.62 6.44,-46.41 4.29,-14.91 10.73,-28.57 19.42,-40.99 -8.24,-11.63 -14.57,-25.18 -19.08,-40.65 -4.52,-15.36 -6.78,-30.83 -6.78,-46.19 0,-36.81 10.16,-67.98 30.38,-93.5 22.47,-28.45 52.84,-42.68 91.01,-42.68l255.2 0 0 94.85 -238.6 0c-10.73,0 -19.31,4.07 -25.63,12.2 -6.21,8.13 -9.37,17.61 -9.37,28.57 0,10.73 3.04,19.98 9.03,27.66 6.1,7.68 14.79,11.52 25.97,11.52l238.6 0 0 94.29 0 2.6 -252.15 0c-6.78,3.05 -12.08,8.13 -15.81,15.13 -3.72,6.89 -5.64,14.68 -5.64,23.37 0,10.84 3.04,20.1 9.03,27.78 6.1,7.79 14.79,11.63 25.97,11.63l238.6 0 0 96.89z"/>
  <path id="2" class="fil0" d="M1215.59 457.33l-178.98 0c-56.46,0 -101.4,-14.34 -134.94,-43.03 -26.08,-22.24 -44.49,-52.62 -55.22,-91.01 -7.11,-25.18 -10.61,-52.62 -10.61,-82.43 0,-5.53 0.11,-9.94 0.22,-13.21 0.23,-3.39 0.57,-6.21 0.91,-8.7l0 -210.82 99.59 0 0 210.71c0,37.94 7.91,69.9 23.83,95.98 18.29,29.93 43.7,44.95 76.11,44.95l179.09 0 0 97.56z"/>
  <path id="3" class="fil0" d="M1635.09 457.33l-178.98 0c-56.46,0 -101.4,-14.34 -134.94,-43.03 -26.08,-22.24 -44.49,-52.62 -55.22,-91.01 -7.11,-25.18 -10.61,-52.62 -10.61,-82.43 0,-5.53 0.11,-9.94 0.22,-13.21 0.23,-3.39 0.57,-6.21 0.91,-8.7l0 -210.82 99.59 0 0 210.71c0,37.94 7.91,69.9 23.83,95.98 18.29,29.93 43.7,44.95 76.11,44.95l179.09 0 0 97.56z"/>
  <path id="4" class="fil1" d="M1895.71 457.33l-219.74 0 0 -449.2 219.74 0c51.83,0 93.16,23.83 124.1,71.48 27.78,43.02 41.67,95.3 41.67,156.96 0,60.41 -13.55,111.11 -40.66,151.88 -30.48,45.96 -72.15,68.88 -125.11,68.88zm-16.6 -97.56c23.49,0 42.46,-13.78 56.8,-41.33 12.76,-24.62 19.2,-54.77 19.2,-90.23 0,-34.33 -6.21,-63.12 -18.52,-86.27 -13.89,-25.97 -33.09,-38.96 -57.48,-38.96l-103.55 0 0 256.79 103.55 0z"/>
  <path id="5" class="fil1" d="M2388.95 457.33l-146.58 0c-52.73,0 -94.4,-22.92 -124.89,-68.88 -27.32,-40.99 -40.98,-91.69 -40.98,-151.88 0,-61.66 13.89,-113.94 41.66,-156.96 30.94,-47.65 72.27,-71.48 124.21,-71.48l146.58 0c51.94,0 93.27,23.83 124.21,71.48 27.78,43.02 41.67,95.3 41.67,156.96 0,60.41 -13.55,111.11 -40.77,151.88 -30.37,45.96 -72.15,68.88 -125.11,68.88zm-16.38 -97.56c23.72,0 42.69,-13.78 57.03,-41.33 12.98,-24.85 19.53,-55 19.53,-90.23 0,-34.1 -6.32,-62.89 -18.86,-86.27 -13.88,-25.97 -33.08,-38.96 -57.7,-38.96l-113.48 0c-24.39,0 -43.48,12.99 -57.37,38.96 -12.53,23.38 -18.85,52.17 -18.85,86.27 0,35.23 6.43,65.38 19.19,90.23 14.12,27.55 33.09,41.33 57.03,41.33l113.48 0z"/>
  <path id="6" class="fil1" d="M3035.64 366.54c0,28.68 -11.74,52.28 -35.12,70.8 -22.02,17.39 -48.33,26.09 -79.04,26.09 -26.65,0 -50.48,-6.89 -71.48,-20.78 -23.6,-15.7 -40.2,-38.06 -49.91,-67.41 -1.92,-5.65 -10.95,-37.49 -26.76,-95.42 -14.8,-54.09 -27.33,-95.19 -37.72,-123.09 -14.79,-40.31 -26.99,-59.84 -36.36,-58.49 -6.44,1.58 -10.84,4.07 -13.1,7.57 -2.37,3.5 -3.5,8.47 -3.5,14.9l0 336.28 -99.59 0 0 -359.76c0,-32.86 12.3,-57.82 37.03,-75.1 21.46,-14.79 48.79,-22.13 82.21,-22.13 44.38,0 79.72,22.47 106.26,67.41 17.61,29.7 34.44,78.03 50.36,144.77 17.62,73.06 30.6,118.68 38.73,136.74 2.15,4.63 5.2,8.14 8.92,10.62 3.73,2.37 7.57,3.61 11.63,3.61 4.86,0 9.04,-1.92 12.54,-5.76 3.5,-3.84 5.31,-9.26 5.31,-16.03l0 -336.62 99.59 0 0 361.8z"/>
  <path id="7" class="fil1" d="M3454.58 454.62l-255.2 0c-38.17,0 -68.55,-14.12 -91.02,-42.35 -20.21,-25.63 -30.37,-56.8 -30.37,-93.72 0,-16.04 2.14,-31.62 6.43,-46.41 4.29,-14.91 10.73,-28.57 19.43,-40.99 -8.25,-11.63 -14.57,-25.18 -19.09,-40.65 -4.51,-15.36 -6.77,-30.83 -6.77,-46.19 0,-36.81 10.16,-67.98 30.37,-93.5 22.47,-28.45 52.85,-42.68 91.02,-42.68l255.2 0 0 94.85 -238.6 0c-10.73,0 -19.31,4.07 -25.64,12.2 -6.21,8.13 -9.37,17.61 -9.37,28.57 0,10.73 3.05,19.98 9.03,27.66 6.1,7.68 14.8,11.52 25.98,11.52l238.6 0 0 94.29 0 2.6 -252.16 0c-6.77,3.05 -12.08,8.13 -15.8,15.13 -3.73,6.89 -5.65,14.68 -5.65,23.37 0,10.84 3.05,20.1 9.03,27.78 6.1,7.79 14.8,11.63 25.98,11.63l238.6 0 0 96.89z"/>
 </g>
</svg>
