<svg xmlns="http://www.w3.org/2000/svg" xml:space="preserve" width="23.372" height="29.851" style="shape-rendering:geometricPrecision;text-rendering:geometricPrecision;image-rendering:optimizeQuality;fill-rule:evenodd;clip-rule:evenodd" viewBox="0 0 2.66 3.4"><defs><linearGradient id="a" gradientUnits="userSpaceOnUse" x1=".23" y1="1.2" x2="2.44" y2="2.2"><stop offset="0" style="stop-opacity:1;stop-color:#683ca3"/><stop offset=".49" style="stop-opacity:1;stop-color:#8566e3"/><stop offset="1" style="stop-opacity:1;stop-color:#6a5acc"/></linearGradient></defs><path d="M1.45 2.41a1.194 1.194 0 0 1-1.2-1.2C.25.88.39.58.6.36c.22-.22.52-.35.85-.35.33 0 .64.14.85.35.22.22.36.52.36.85h-.57c0-.18-.07-.33-.19-.45a.619.619 0 0 0-.45-.19c-.18 0-.33.07-.45.19-.12.11-.19.27-.19.45s.07.34.19.45c.11.11.27.18.45.18v.57zM1.2.99c.33 0 .63.14.85.36.22.22.35.52.35.85 0 .33-.14.63-.35.85-.22.22-.52.36-.85.36-.33 0-.63-.14-.85-.36C.13 2.83 0 2.53 0 2.2h.57c0 .18.07.33.18.45.12.12.28.19.45.19a.634.634 0 0 0 .63-.64c0-.18-.07-.34-.18-.45a.681.681 0 0 0-.45-.19V.99z" style="fill:url(#a);fill-rule:nonzero"/></svg>