<svg xmlns="http://www.w3.org/2000/svg" xml:space="preserve" width="844" height="799"
     style="shape-rendering:geometricPrecision;text-rendering:geometricPrecision;image-rendering:optimizeQuality;fill-rule:evenodd;clip-rule:evenodd"
     viewBox="0 0 31.57 29.91"><defs><linearGradient id="a" gradientUnits="userSpaceOnUse" x1="9.93" y1="1.06" x2="21.65" y2="28.85"><stop offset="0" style="stop-opacity:1;stop-color:#0061e0"/><stop
        offset="1" style="stop-opacity:1;stop-color:#222abf"/></linearGradient></defs>
    <path d="M0 2C-.04.97.77.11 1.8.07c1.03-.03 1.89.77 1.93 1.8.39 10.7 4.06 12.95 7.28 14.93 1.83 1.12 3.55 2.18 4.75 4.02 1.21-1.89 2.95-2.96 4.81-4.1 3.21-1.97 6.88-4.22 7.28-14.92.03-1.03.9-1.84 1.92-1.8 1.03.04 1.84.9 1.8 1.93-.47 12.71-5.04 15.51-9.06 17.98-2.48 1.52-4.67 2.87-4.67 8.05 0 .97-.74 1.77-1.69 1.87a1.874 1.874 0 0 1-2.41-1.79c0-5.19-2.2-6.54-4.68-8.06C5.05 17.52.47 14.71 0 2z"
          style="fill:url(#a);fill-rule:nonzero"/></svg>