<?xml version="1.0" encoding="UTF-8"?>
<!--
  - Copyright (c) 2023. Selldone® Business OS™
  -
  - Author: M.Pajuhaan
  - Web: https://selldone.com
  - ━━━━━━━━━━━━━━━━━━━━━━━━━━━━━━━━━━━━━━━━━━━━━━━━━━━━━━
  -
  - All rights reserved. In the weave of time, where traditions and innovations intermingle, this content was crafted.
  - From the essence of thought, through the corridors of creativity, each word, and sentiment has been molded.
  - Not just to exist, but to inspire. Like an artist's stroke or a sculptor's chisel, every nuance is deliberate.
  - Our journey is not just about reaching a destination, but about creating a masterpiece.
  - Tread carefully, for you're treading on dreams.
  -->

<!DOCTYPE svg PUBLIC "-//W3C//DTD SVG 1.1//EN" "http://www.w3.org/Graphics/SVG/1.1/DTD/svg11.dtd">
<!-- Creator: CorelDRAW 2019 (64-Bit) -->
<svg xmlns="http://www.w3.org/2000/svg" xml:space="preserve" width="3604px" height="1962px" version="1.1" style="shape-rendering:geometricPrecision; text-rendering:geometricPrecision; image-rendering:optimizeQuality; fill-rule:evenodd; clip-rule:evenodd"
viewBox="0 0 3608.11 1964.55"
 xmlns:xlink="http://www.w3.org/1999/xlink"
 xmlns:xodm="http://www.corel.com/coreldraw/odm/2003">
 <defs>
  <style type="text/css">
   <![CDATA[
    .fil4 {fill:#1C2B6B;fill-rule:nonzero}
    .fil5 {fill:#4E9CFF;fill-rule:nonzero}
    .fil0 {fill:#BDBDBD;fill-rule:nonzero}
    .fil1 {fill:url(#id0)}
    .fil3 {fill:url(#id1)}
    .fil2 {fill:url(#id2)}
   ]]>
  </style>
  <linearGradient id="id0" gradientUnits="userSpaceOnUse" x1="1804.04" y1="397.77" x2="1804.04" y2="1400.66">
   <stop offset="0" style="stop-opacity:1; stop-color:#E5E5E5"/>
   <stop offset="0.419608" style="stop-opacity:1; stop-color:#F2F2F2"/>
   <stop offset="1" style="stop-opacity:1; stop-color:white"/>
  </linearGradient>
  <linearGradient id="id1" gradientUnits="userSpaceOnUse" x1="1381.16" y1="123.28" x2="1943.55" y2="909.45">
   <stop offset="0" style="stop-opacity:1; stop-color:#4E9CFF"/>
   <stop offset="0.419608" style="stop-opacity:1; stop-color:#3383EA"/>
   <stop offset="1" style="stop-opacity:1; stop-color:#176AD4"/>
  </linearGradient>
  <linearGradient id="id2" gradientUnits="userSpaceOnUse" xlink:href="#id1" x1="1294.84" y1="501.08" x2="1398.6" y2="582.9">
  </linearGradient>
 </defs>
 <g id="Layer_x0020_1">
  <metadata id="CorelCorpID_0Corel-Layer"/>
  <path class="fil0" d="M2969.6 401.02c-2.17,-13.67 -14.97,-23.03 -28.66,-20.89 -13.68,2.14 -23.02,14.96 -20.89,28.65 3.58,23.35 8.18,96.5 -17.06,125.93 -5.46,6.37 -12.06,10.19 -20.36,11.7l2.29 -139.32c0.34,-20.25 -15.97,-36.84 -36.2,-36.84 -20.39,0 -36.74,16.78 -36.24,37.14l6.54 264.39c-8.67,-1.4 -15.55,-5.22 -21.18,-11.81 -25.24,-29.43 -20.7,-102.58 -17.06,-125.93 2.13,-13.69 -7.26,-26.51 -20.9,-28.64 -13.73,-2.14 -26.53,7.21 -28.66,20.89 -1.79,11.5 -16.3,113.93 28.49,166.24 15.4,18 36.25,28.19 60.56,29.78l2.85 115.1 54.72 0 3.96 -240.46c23.77,-1.85 44.17,-12 59.31,-29.68 44.76,-52.31 30.28,-154.74 28.49,-166.25z"/>
  <path class="fil0" d="M633.8 625.16c-1.37,-8.71 -9.52,-14.68 -18.27,-13.32 -8.72,1.37 -14.69,9.54 -13.3,18.26 2.29,14.88 5.21,61.52 -10.89,80.28 -3.46,4.06 -7.68,6.5 -12.98,7.46l1.46 -88.82c0.21,-12.9 -10.17,-23.48 -23.1,-23.48 -12.98,0 -23.4,10.69 -23.07,23.68l4.17 168.52c-5.55,-0.88 -9.92,-3.3 -13.51,-7.51 -16.1,-18.77 -13.18,-65.4 -10.89,-80.28 1.38,-8.73 -4.58,-16.9 -13.31,-18.27 -8.75,-1.35 -16.89,4.61 -18.26,13.33 -1.17,7.33 -10.39,72.63 18.14,105.99 9.8,11.48 23.11,17.93 38.63,18.98l1.83 73.37 34.87 0 2.5 -153.29c15.18,-1.19 28.16,-7.66 37.84,-18.93 28.53,-33.34 19.26,-98.63 18.14,-105.97z"/>
  <path class="fil1" d="M3608.11 1325.88c0,352.75 -807.73,638.67 -1804.08,638.67 -996.34,0 -1804.03,-285.92 -1804.03,-638.67 0,-352.71 807.69,-638.67 1804.03,-638.67 996.35,0 1804.08,285.96 1804.08,638.67z"/>
  <path class="fil2" d="M1497.88 656.75l-49.43 0c-41.09,0 -74.53,-33.45 -74.53,-74.56 0,-10.57 -8.6,-19.17 -19.19,-19.17l-57.23 0c-15.31,0 -27.7,-12.4 -27.7,-27.7 0,-15.29 12.39,-27.7 27.7,-27.7l57.23 0c41.13,0 74.57,33.45 74.57,74.57 0,10.57 8.6,19.17 19.15,19.17l49.43 0c15.31,0 27.7,12.4 27.7,27.7 0,15.29 -12.39,27.69 -27.7,27.69z"/>
  <path class="fil3" d="M1660.71 0l0 0c-147.28,-0.04 -271.83,123.63 -275.41,270.33 -3.42,157.12 -1.13,312.27 24.86,467.63 12.43,61.74 28.2,121.39 48.17,181.16 8.39,23.6 35.54,42.71 59.4,42.71 1.72,0 2.59,0 4.34,0 23.81,0 34.38,-18.69 25.02,-41.92 -6.38,-15.85 1.71,-28.57 17.44,-28.36 15.73,0.2 33.41,13.18 40.22,28.86 10,22.98 38.7,41.42 62.56,41.42 1.71,0 2.58,0 4.33,0 23.82,0 32.79,-18.07 21.87,-40.63 -7.48,-15.43 -0.09,-27.86 15.63,-27.65 15.72,0.25 34.17,12.89 42.05,28.15 11.55,22.32 41.83,40.13 65.69,40.13 1.75,0 2.59,0 4.34,0 23.82,0 31.24,-17.43 18.69,-39.38 -8.51,-14.97 -1.93,-27.07 13.8,-26.86 15.73,0.21 34.91,12.6 43.88,27.37 13.14,21.68 45.01,38.87 68.87,38.87 0.87,0 1.29,0 2.16,0 25.03,0 31.12,-17.6 16.44,-40.01 -32.7,-54.3 -55.98,-107.65 -73.7,-168.36 -35.16,-159.09 -20.44,-316.37 -2.38,-476.74 17.72,-150.52 -96.98,-276.78 -248.27,-276.72z"/>
  <path class="fil4" d="M1437.31 325.11c25.95,18.32 68.28,-14.19 47.68,-86.53 -1,-3.61 -6.21,-4.55 -7.89,-0.61 -18.77,45.07 -70.73,65.29 -39.79,87.14z"/>
  <path class="fil4" d="M1554.57 222.48c-31.04,13.11 24.6,186.85 111.03,132.06 52.68,-33.4 5.17,-66.16 -48.3,-85.99 -32.42,-12.04 -44.05,-53.96 -62.73,-46.07z"/>
  <path class="fil4" d="M1580.75 412.06c0,32.95 -18.35,59.66 -40.95,59.66 -22.61,0 -40.96,-26.71 -40.96,-59.66 0,-32.95 18.35,-59.66 40.96,-59.66 22.6,0 40.95,26.71 40.95,59.66z"/>
  <path class="fil5" d="M1698.25 656.75l-49.42 0c-41.13,0 -74.58,-33.45 -74.58,-74.56 0,-10.57 -8.59,-19.17 -19.14,-19.17l-57.23 0c-15.31,0 -27.7,-12.4 -27.7,-27.7 0,-15.29 12.39,-27.7 27.7,-27.7l57.23 0c41.13,0 74.57,33.45 74.57,74.57 0,10.57 8.6,19.17 19.15,19.17l49.42 0c15.27,0 27.7,12.4 27.7,27.7 0,15.29 -12.43,27.69 -27.7,27.69z"/>
 </g>
</svg>
