<?xml version="1.0" encoding="UTF-8"?>


<!DOCTYPE svg PUBLIC "-//W3C//DTD SVG 1.1//EN" "http://www.w3.org/Graphics/SVG/1.1/DTD/svg11.dtd">

<svg xmlns:xlink="http://www.w3.org/1999/xlink" xmlns:xodm="http://www.corel.com/coreldraw/odm/2003" xmlns="http://www.w3.org/2000/svg" xml:space="preserve" width="800px"
     height="1583px"
     version="1.1"
     style="shape-rendering:geometricPrecision; text-rendering:geometricPrecision; image-rendering:optimizeQuality; fill-rule:evenodd; clip-rule:evenodd"
     viewBox="0 0 170.05 336.49">
 <defs>
  <style type="text/css">
   <![CDATA[
    .fil0 {fill:none}
    .fil1 {fill:#3A2C41}
    .fil2 {fill:url(#id0)}
   ]]>
  </style>
     <linearGradient id="id0" gradientUnits="userSpaceOnUse" x1="172.65" y1="140.23" x2="-2.6" y2="196.31">
   <stop offset="0" style="stop-opacity:1; stop-color:#E6E7E8"/>
         <stop offset="1" style="stop-opacity:1; stop-color:#F8F8F8"/>
  </linearGradient>
 </defs>
    <g id="Layer_x0020_1">
  <metadata id="CorelCorpID_0Corel-Layer"/>
        <rect class="fil0" width="170.05" height="336.49"/>
        <path class="fil1"
              d="M0.87 45.7l0 78.65c0.56,0.36 0.85,0.39 1.43,0.64 -0.63,18.89 -0.04,38.84 -0.04,57.84l0 116.06c-0.03,13.27 -1.88,24.85 10.63,33.45 4.24,2.91 9.04,4.05 14.14,4.03 37.82,-0.14 75.64,-0.17 113.47,-0.02l0.09 0c5.55,0.02 8.14,0.26 13.35,-2.23 16.27,-7.8 13.88,-22.91 13.85,-38l0 -173.4c0,-1.18 -0.08,-2.59 -0.03,-3.73 0.08,-2.18 0.33,-2.19 1.42,-3.01l0 -36.98c-0.52,-0.48 -0.74,-0.65 -1.39,-1.03 0,-16.37 0,-32.74 0,-49.11 -0.05,-7.78 -0.89,-16.1 -6.83,-21.78 -3.29,-3.14 -7.83,-5.17 -12.16,-6.41 -2.62,-0.75 -7.82,-0.54 -10.65,-0.48 -0.59,0.01 -1.18,0.02 -1.76,0.03l-0.08 0c-13.9,0.07 -27.81,-0.03 -41.72,-0.04 -22.85,-0.01 -45.7,-0.02 -68.54,-0.01 -4.27,0.01 -7.05,0.98 -10.88,2.78 -5.49,2.58 -8.37,6.33 -10.98,11.66 -3.06,6.61 -1.93,21.74 -1.93,29.97 -0.53,1.55 1.03,0.55 -1.39,1.12zm22.08 -42.97c-8.55,1.43 -14.37,6.88 -16.99,13.65 -2.36,6.11 -1.38,21.92 -1.39,29.59l0 245.99c0,8.06 -1.11,22.25 1.64,28.89 2.59,6.24 9.29,12.43 17.82,13.12 8.32,0.68 49.6,0.06 61.46,0.06 9.52,0 56.52,0.58 61.75,-0.2 8.28,-1.24 14.37,-7.25 16.85,-13.67 2.42,-6.25 1.39,-21.83 1.39,-29.59l0 -245.99c0,-7.77 1.06,-22.65 -1.65,-28.86 -2.74,-6.27 -9.05,-12.46 -17.8,-13.16 -8.5,-0.68 -49.47,-0.06 -61.47,-0.06 -9.19,0 -56.75,-0.58 -61.61,0.23zm79.83 8.07c1.54,0 2.79,1.24 2.79,2.79 0,1.54 -1.25,2.79 -2.79,2.79 -1.54,0 -2.79,-1.25 -2.79,-2.79 0,-1.55 1.25,-2.79 2.79,-2.79zm-29.49 1.66l22.08 0c0.6,0 1.1,0.5 1.1,1.1l0 0.63c0,0.61 -0.5,1.1 -1.1,1.1l-22.08 0c-0.6,0 -1.1,-0.49 -1.1,-1.1l0 -0.63c0,-0.6 0.5,-1.1 1.1,-1.1z"/>
        <path class="fil2"
              d="M22.95 2.73c-8.55,1.43 -14.37,6.88 -16.99,13.65 -2.36,6.11 -1.38,21.92 -1.39,29.59l0 245.99c0,8.06 -1.11,22.25 1.64,28.89 2.59,6.24 9.29,12.43 17.82,13.12 8.32,0.68 49.6,0.06 61.46,0.06 9.52,0 56.52,0.58 61.75,-0.2 8.28,-1.24 14.37,-7.25 16.85,-13.67 2.42,-6.25 1.39,-21.83 1.39,-29.59l0 -245.99c0,-7.77 1.06,-22.65 -1.65,-28.86 -2.74,-6.27 -9.05,-12.46 -17.8,-13.16 -8.5,-0.68 -49.47,-0.06 -61.47,-0.06 -9.19,0 -56.75,-0.58 -61.61,0.23zm79.83 8.07c1.54,0 2.79,1.24 2.79,2.79 0,1.54 -1.25,2.79 -2.79,2.79 -1.54,0 -2.79,-1.25 -2.79,-2.79 0,-1.55 1.25,-2.79 2.79,-2.79zm-29.49 1.66l22.08 0c0.6,0 1.1,0.5 1.1,1.1l0 0.63c0,0.61 -0.5,1.1 -1.1,1.1l-22.08 0c-0.6,0 -1.1,-0.49 -1.1,-1.1l0 -0.63c0,-0.6 0.5,-1.1 1.1,-1.1zm52.84 -1.22c-2.55,8.41 -0.02,10.69 -15.21,10.68l-51.79 0c-15.8,0.01 -12.62,-2.99 -15.12,-10.81 -4.39,-1.65 -19.37,-0.91 -23.66,1.14 -6.62,3.17 -8.11,8.75 -8.28,17.98 -0.32,17.51 -0.1,35.19 -0.1,52.73l0 210.85c0,19.64 -2.81,32.87 19.88,32.83l105.89 0c23.12,0.02 20.35,-12.26 20.35,-32.37l0 -210.85c0,-17.51 0.26,-35.24 -0.11,-52.71 -0.2,-9.32 -1.14,-15.05 -7.91,-18.34 -4.24,-2.06 -19.95,-3.08 -23.94,-1.13z"/>
 </g>
</svg>
