<svg fill="none" height="512" viewBox="0 0 24 24" width="512" xmlns="http://www.w3.org/2000/svg"><g fill="rgb(0,0,0)"><path d="m17.6201 9.62012h-5.25c-.41 0-.75-.34-.75-.75s.34-.75.75-.75h5.25c.41 0 .75.34.75.75s-.33.75-.75.75z"/><path d="m7.11957 10.3801c-.19 0-.38-.07-.53-.22l-.75-.75003c-.29-.29-.29-.77 0-1.06s.77-.29 1.06 0l.22.22 1.72-1.72c.29-.29.77-.29 1.06 0 .29003.29.29003.77 0 1.06l-2.25 2.25003c-.14.14-.33.22-.53.22z"/><path d="m17.6201 16.6201h-5.25c-.41 0-.75-.34-.75-.75s.34-.75.75-.75h5.25c.41 0 .75.34.75.75s-.33.75-.75.75z"/><path d="m7.11957 17.3801c-.19 0-.38-.07-.53-.22l-.75-.75c-.29-.29-.29-.77 0-1.06s.77-.29 1.06 0l.22.22 1.72-1.72c.29-.29.77-.29 1.06 0 .29003.29.29003.77 0 1.06l-2.25 2.25c-.14.14-.33.22-.53.22z"/><path d="m15 22.75h-6c-5.43 0-7.75-2.32-7.75-7.75v-6c0-5.43 2.32-7.75 7.75-7.75h6c5.43 0 7.75 2.32 7.75 7.75v6c0 5.43-2.32 7.75-7.75 7.75zm-6-20c-4.61 0-6.25 1.64-6.25 6.25v6c0 4.61 1.64 6.25 6.25 6.25h6c4.61 0 6.25-1.64 6.25-6.25v-6c0-4.61-1.64-6.25-6.25-6.25z"/></g></svg>