<svg id="Layer_1" enable-background="new 0 0 32 32" height="512" viewBox="0 0 32 32" width="512" xmlns="http://www.w3.org/2000/svg"><g id="_01"><g><path d="m23.8 30h-15.6c-3.3 0-6-2.7-6-6v-.2l.6-16c.1-3.3 2.8-5.8 6-5.8h14.4c3.2 0 5.9 2.5 6 5.8l.6 16c.1 1.6-.5 3.1-1.6 4.3s-2.6 1.9-4.2 1.9c0 0-.1 0-.2 0zm-15-26c-2.2 0-3.9 1.7-4 3.8l-.6 16.2c0 2.2 1.8 4 4 4h15.8c1.1 0 2.1-.5 2.8-1.3s1.1-1.8 1.1-2.9l-.6-16c-.1-2.2-1.8-3.8-4-3.8z"/></g><g><path d="m16 14c-3.9 0-7-3.1-7-7 0-.6.4-1 1-1s1 .4 1 1c0 2.8 2.2 5 5 5s5-2.2 5-5c0-.6.4-1 1-1s1 .4 1 1c0 3.9-3.1 7-7 7z"/></g></g></svg>