<svg id="Capa_1" enable-background="new 0 0 512 512" height="512" viewBox="0 0 512 512" width="512"
     xmlns="http://www.w3.org/2000/svg">
    <g>
        <path d="m409.979 293.198c-29.888 60.968-300.199 60.968-330.087 0-49.091 20.569-79.892 50.188-79.892 83.11 0 62.12 109.661 112.478 244.935 112.478s244.935-50.359 244.935-112.478c0-32.922-30.801-62.541-79.891-83.11z"
              fill="#f6f9f9"/>
        <path d="m383.839 332.661c-33.683 38.884-244.125 38.884-277.808 0-26.354 11.811-42.221 27.033-42.221 43.647 0 37.559 81.093 68.006 181.125 68.006s181.125-30.447 181.125-68.006c0-16.614-15.867-31.836-42.221-43.647z"
              fill="#e7ecf1"/>
        <path d="m508.267 133.859h-95.283l15.652 36.057h47.308v24.958c0 20.967-17.058 38.026-38.025 38.026h-20.044l1.904 36.056h18.14c40.914 0 74.082-33.167 74.082-74.082v-57.281c-.001-2.062-1.673-3.734-3.734-3.734z"
              fill="#dae4ea"/>
        <path d="m61.235 107.573v104.869c0 101.455 82.245 183.7 183.7 183.7 101.455 0 183.7-82.245 183.7-183.7v-104.869z"
              fill="#dae4ea"/>
        <path d="m387.429 138.943v52.895c0 101.455-82.245 183.7-183.7 183.7-21.312 0-41.775-3.63-60.807-10.303 29.182 19.522 64.268 30.907 102.014 30.907 101.455 0 183.7-82.245 183.7-183.7v-104.869z"
              fill="#c6d0da"/>
        <g fill="#dfb9a2">
            <path d="m232.015 146.388c2.074 0 3.957-.817 5.344-2.147-3.258.262-6.554.487-9.883.673 1.275.927 2.843 1.474 4.539 1.474z"/>
            <circle cx="341.184" cy="131.217" r="7.726"/>
        </g>
        <ellipse cx="244.935" cy="107.573" fill="#f6f9f9" rx="183.701" ry="84.358"/>
        <path d="m394.841 126.082c5.216-5.818 8.04-12.041 8.04-18.51 0-32.366-70.715-58.604-157.946-58.604s-157.946 26.239-157.946 58.605c0 6.468 2.825 12.692 8.04 18.51h299.812z"
              fill="#e7ecf1"/>
        <ellipse cx="244.935" cy="126.082" fill="#c6865c" rx="149.906" ry="40.094"/>
        <path d="m320.703 93.159c6.705 14.288.989 33.732-17.15 39.227-27.208 8.243-61.961 13.187-99.826 13.187-39.461 0-75.541-5.369-103.225-14.246 24.563 20.531 79.99 34.85 144.432 34.85 69.799 0 129.022-16.799 149.906-40.094-12.668-14.133-39.447-25.874-74.137-32.924z"
              fill="#c17d4f"/>
        <path d="m348.91 131.217c0 4.267-3.459 7.726-7.726 7.726s-7.726-3.459-7.726-7.726 3.459-7.726 7.726-7.726 7.726 3.459 7.726 7.726zm-38.504-23.469c-4.267 0-7.726 3.459-7.726 7.726s3.459 7.726 7.726 7.726 7.726-3.459 7.726-7.726-3.459-7.726-7.726-7.726zm-137.293 5.793c-4.267 0-7.726 3.459-7.726 7.726s3.459 7.726 7.726 7.726 7.726-3.459 7.726-7.726-3.459-7.726-7.726-7.726zm58.902 17.394c-4.267 0-7.726 3.459-7.726 7.726s3.459 7.726 7.726 7.726 7.726-3.459 7.726-7.726-3.459-7.726-7.726-7.726zm31.711-23.187c-4.267 0-7.726 3.459-7.726 7.726s3.459 7.726 7.726 7.726 7.726-3.459 7.726-7.726-3.459-7.726-7.726-7.726z"
              fill="#ecd5c6"/>
    </g>
</svg>