<svg xmlns:xlink="http://www.w3.org/1999/xlink" id="Capa_1" enable-background="new 0 0 510 510" height="512" viewBox="0 0 510 510"
     width="512" xmlns="http://www.w3.org/2000/svg">
    <linearGradient id="lg1">
        <stop offset="0" stop-color="#ffd945"/>
        <stop offset=".3043" stop-color="#ffcd3e"/>
        <stop offset=".8558" stop-color="#ffad2b"/>
        <stop offset="1" stop-color="#ffa325"/>
    </linearGradient>
    <linearGradient id="SVGID_1_" gradientUnits="userSpaceOnUse" x1="183.132" x2="330.14" xlink:href="#lg1" y1="118.906"
                    y2="357.995"/>
    <linearGradient id="SVGID_2_" gradientUnits="userSpaceOnUse" x1="323.86" x2="133.584" xlink:href="#lg1" y1="345.306"
                    y2="111.231"/>
    <linearGradient id="SVGID_3_" gradientUnits="userSpaceOnUse" x1="168.333" x2="294.282" xlink:href="#lg1"
                    y1="193.415" y2="319.364"/>
    <linearGradient id="SVGID_4_" gradientUnits="userSpaceOnUse" x1="255" x2="255" xlink:href="#lg1" y1="342.222"
                    y2="393.942"/>
    <linearGradient id="SVGID_5_" gradientUnits="userSpaceOnUse" x1="255" x2="255" xlink:href="#lg1" y1="389.367"
                    y2="441.087"/>
    <linearGradient id="SVGID_6_" gradientTransform="matrix(.844 -.537 .537 .844 2595.581 -297.445)"
                    gradientUnits="userSpaceOnUse" x1="-2193.495" x2="-2190.274" xlink:href="#lg1" y1="-936.673"
                    y2="-875.704"/>
    <linearGradient id="lg2">
        <stop offset="0" stop-color="#ffd945" stop-opacity="0"/>
        <stop offset="1" stop-color="#fbed21"/>
    </linearGradient>
    <linearGradient id="SVGID_7_" gradientTransform="matrix(.844 -.537 .537 .844 2595.581 -297.445)"
                    gradientUnits="userSpaceOnUse" x1="-2192.34" x2="-2192.34" xlink:href="#lg2" y1="-906.454"
                    y2="-975.436"/>
    <linearGradient id="lg3">
        <stop offset="0" stop-color="#f35227" stop-opacity="0"/>
        <stop offset="1" stop-color="#f35227"/>
    </linearGradient>
    <linearGradient id="SVGID_8_" gradientTransform="matrix(1 -.014 .014 1 2411.538 -387.88)"
                    gradientUnits="userSpaceOnUse" x1="-2162.096" x2="-2110.043" xlink:href="#lg3" y1="479.924"
                    y2="383.114"/>
    <linearGradient id="SVGID_9_" gradientTransform="matrix(.844 -.537 .537 .844 2595.581 -297.445)"
                    gradientUnits="userSpaceOnUse" x1="-2313.715" x2="-2310.494" xlink:href="#lg1" y1="-949.067"
                    y2="-888.098"/>
    <linearGradient id="SVGID_10_" gradientTransform="matrix(.844 -.537 .537 .844 2595.581 -297.445)"
                    gradientUnits="userSpaceOnUse" x1="-2312.559" x2="-2312.559" xlink:href="#lg2" y1="-918.848"
                    y2="-987.831"/>
    <linearGradient id="SVGID_11_" gradientTransform="matrix(1 -.014 .014 1 2411.538 -387.88)"
                    gradientUnits="userSpaceOnUse" x1="-2270.92" x2="-2218.868" xlink:href="#lg3" y1="532.489"
                    y2="435.678"/>
    <linearGradient id="SVGID_12_" gradientTransform="matrix(.844 -.537 .537 .844 2595.581 -297.445)"
                    gradientUnits="userSpaceOnUse" x1="-2131.408" x2="-2128.187" xlink:href="#lg1" y1="-832.983"
                    y2="-772.014"/>
    <linearGradient id="SVGID_13_" gradientTransform="matrix(.844 -.537 .537 .844 2595.581 -297.445)"
                    gradientUnits="userSpaceOnUse" x1="-2130.253" x2="-2130.253" xlink:href="#lg2" y1="-802.764"
                    y2="-871.747"/>
    <linearGradient id="SVGID_14_" gradientTransform="matrix(1 -.014 .014 1 2411.538 -387.88)"
                    gradientUnits="userSpaceOnUse" x1="-2054.819" x2="-2002.766" xlink:href="#lg3" y1="535.579"
                    y2="438.769"/>
    <linearGradient id="SVGID_15_" gradientTransform="matrix(.844 -.537 .537 .844 2595.581 -297.445)"
                    gradientUnits="userSpaceOnUse" x1="-2437.453" x2="-2434.232" xlink:href="#lg1" y1="-957.799"
                    y2="-896.83"/>
    <linearGradient id="SVGID_16_" gradientTransform="matrix(.844 -.537 .537 .844 2595.581 -297.445)"
                    gradientUnits="userSpaceOnUse" x1="-2436.298" x2="-2436.298" xlink:href="#lg2" y1="-927.58"
                    y2="-996.563"/>
    <linearGradient id="SVGID_17_" gradientTransform="matrix(1 -.014 .014 1 2411.538 -387.88)"
                    gradientUnits="userSpaceOnUse" x1="-2380.817" x2="-2328.765" xlink:href="#lg3" y1="590.017"
                    y2="493.207"/>
    <linearGradient id="SVGID_18_" gradientTransform="matrix(.844 -.537 .537 .844 2595.581 -297.445)"
                    gradientUnits="userSpaceOnUse" x1="-2071.151" x2="-2067.93" xlink:href="#lg1" y1="-724.556"
                    y2="-663.586"/>
    <linearGradient id="SVGID_19_" gradientTransform="matrix(.844 -.537 .537 .844 2595.581 -297.445)"
                    gradientUnits="userSpaceOnUse" x1="-2069.996" x2="-2069.996" xlink:href="#lg2" y1="-694.337"
                    y2="-763.319"/>
    <linearGradient id="SVGID_20_" gradientTransform="matrix(1 -.014 .014 1 2411.538 -387.88)"
                    gradientUnits="userSpaceOnUse" x1="-1946.612" x2="-1894.559" xlink:href="#lg3" y1="596.227"
                    y2="499.417"/>
    <linearGradient id="SVGID_21_" gradientUnits="userSpaceOnUse" x1="297.042" x2="148.683" xlink:href="#lg1"
                    y1="307.829" y2="159.47"/>
    <linearGradient id="SVGID_22_" gradientUnits="userSpaceOnUse" x1="229.247" x2="292.153" y1="246.307" y2="293.89">
        <stop offset="0" stop-color="#ff7044"/>
        <stop offset="1" stop-color="#f82814"/>
    </linearGradient>
    <linearGradient id="SVGID_23_" gradientUnits="userSpaceOnUse" x1="257.862" x2="201.972" y1="268.145" y2="153.522">
        <stop offset="0" stop-color="#ff7044" stop-opacity="0"/>
        <stop offset="1" stop-color="#ffa325"/>
    </linearGradient>
    <linearGradient id="lg4">
        <stop offset="0" stop-color="#f82814" stop-opacity="0"/>
        <stop offset="1" stop-color="#c0272d"/>
    </linearGradient>
    <linearGradient id="SVGID_24_" gradientUnits="userSpaceOnUse" x1="258.953" x2="213.392" xlink:href="#lg4"
                    y1="265.688" y2="191.286"/>
    <linearGradient id="SVGID_25_" gradientUnits="userSpaceOnUse" x1="263.21" x2="230.222" xlink:href="#lg4"
                    y1="280.373" y2="226.502"/>
    <g>
        <path d="m384.138 216.079-5.211-34.835c-2.583-17.265-23.116-24.988-36.436-13.705l-19.808 16.779c-8.193 6.94-20.727 4.335-25.476-5.295l-31.55-63.974c-4.357-8.835-16.955-8.835-21.313 0l-31.55 63.974c-4.749 9.63-17.283 12.235-25.476 5.295l-19.808-16.779c-13.321-11.283-33.854-3.56-36.436 13.705l-5.211 34.835c-1.632 10.911-13.302 17.182-23.301 12.521l-42.808-19.952c-19.561-9.117-39.388 12.071-28.993 30.985l71.987 130.983h304.508l71.987-130.983c10.395-18.913-9.432-40.102-28.993-30.985l-42.811 19.952c-9.999 4.661-21.669-1.61-23.301-12.521z"
              fill="url(#SVGID_1_)"/>
        <path d="m372.959 230.116-4.76-31.671c-2.359-15.697-21.115-22.719-33.282-12.46l-18.094 15.255c-7.484 6.31-18.933 3.941-23.271-4.814l-28.819-58.163c-3.98-8.033-15.488-8.033-19.468 0l-28.819 58.163c-4.338 8.755-15.787 11.124-23.271 4.814l-18.093-15.254c-12.167-10.258-30.923-3.237-33.282 12.46l-4.76 31.671c-1.491 9.92-12.15 15.621-21.284 11.384l-39.102-18.14c-17.868-8.289-35.978 10.975-26.484 28.17l65.755 119.085h278.149l65.755-119.085c9.495-17.195-8.616-36.459-26.484-28.17l-39.102 18.14c-9.134 4.236-19.793-1.465-21.284-11.385z"
              fill="url(#SVGID_2_)"/>
        <path d="m359.339 247.044-4.21-27.855c-2.087-13.805-18.677-19.981-29.439-10.959l-16.004 13.417c-6.62 5.55-16.747 3.466-20.584-4.234l-25.491-51.156c-3.52-7.065-13.699-7.065-17.22 0l-25.491 51.156c-3.837 7.701-13.964 9.784-20.584 4.234l-16.006-13.417c-10.763-9.022-27.353-2.847-29.439 10.959l-4.21 27.855c-1.319 8.725-10.747 13.739-18.827 10.012l-34.587-15.955c-15.805-7.29-31.824 9.652-23.426 24.776l58.163 104.737h246.032l58.163-104.737c8.398-15.124-7.621-32.066-23.426-24.776l-34.587 15.955c-8.08 3.727-17.508-1.287-18.827-10.012z"
              fill="url(#SVGID_3_)"/>
        <path d="m414.453 392.301h-318.906c-13.019 0-23.573-10.554-23.573-23.573 0-13.019 10.554-23.573 23.573-23.573h318.905c13.019 0 23.573 10.554 23.573 23.573 0 13.019-10.554 23.573-23.572 23.573z"
              fill="url(#SVGID_4_)"/>
        <path d="m414.453 439.446h-318.906c-13.019 0-23.573-10.554-23.573-23.573 0-13.019 10.554-23.573 23.573-23.573h318.905c13.019 0 23.573 10.554 23.573 23.573 0 13.019-10.554 23.573-23.572 23.573z"
              fill="url(#SVGID_5_)"/>
        <g>
            <path d="m292.871 107.881c.298 20.912-16.415 38.105-37.331 38.404-20.915.298-38.113-16.412-38.411-37.323s16.415-38.105 37.331-38.403 38.112 16.411 38.411 37.322z"
                  fill="url(#SVGID_6_)"/>
            <path d="m286.606 107.97c.249 17.452-13.7 31.802-31.156 32.051s-31.808-13.697-32.057-31.15c-.249-17.452 13.7-31.802 31.156-32.051 17.456-.248 31.808 13.698 32.057 31.15z"
                  fill="url(#SVGID_7_)"/>
            <path d="m271.458 74.309c2.627 5.06 4.149 10.792 4.236 16.88.298 20.911-16.415 38.105-37.331 38.404-6.09.087-11.863-1.271-16.997-3.752 6.395 12.319 19.35 20.654 34.175 20.443 20.915-.298 37.629-17.492 37.331-38.404-.213-14.821-8.916-27.531-21.414-33.571z"
                  fill="url(#SVGID_8_)"/>
        </g>
        <g>
            <g>
                <path d="m184.809 161.997c.298 20.912-16.415 38.105-37.331 38.404-20.915.298-38.113-16.412-38.411-37.323s16.415-38.105 37.331-38.403c20.915-.3 38.112 16.41 38.411 37.322z"
                      fill="url(#SVGID_9_)"/>
                <path d="m178.544 162.086c.249 17.452-13.7 31.802-31.156 32.051s-31.808-13.697-32.057-31.15c-.249-17.452 13.7-31.802 31.156-32.051s31.808 13.698 32.057 31.15z"
                      fill="url(#SVGID_10_)"/>
                <path d="m163.395 128.425c2.627 5.06 4.149 10.792 4.236 16.88.298 20.911-16.415 38.105-37.331 38.404-6.09.087-11.863-1.271-16.997-3.752 6.395 12.319 19.35 20.654 34.175 20.443 20.915-.298 37.629-17.492 37.331-38.404-.212-14.822-8.915-27.531-21.414-33.571z"
                      fill="url(#SVGID_11_)"/>
            </g>
            <g>
                <path d="m400.933 161.997c.298 20.912-16.415 38.105-37.331 38.404-20.915.298-38.113-16.412-38.411-37.323s16.415-38.105 37.331-38.403c20.915-.3 38.113 16.41 38.411 37.322z"
                      fill="url(#SVGID_12_)"/>
                <path d="m394.669 162.086c.249 17.452-13.7 31.802-31.156 32.051s-31.808-13.697-32.057-31.15c-.249-17.452 13.7-31.802 31.156-32.051 17.455-.249 31.808 13.698 32.057 31.15z"
                      fill="url(#SVGID_13_)"/>
                <path d="m379.52 128.425c2.627 5.06 4.149 10.792 4.236 16.88.298 20.911-16.415 38.105-37.331 38.404-6.09.087-11.863-1.271-16.997-3.752 6.395 12.319 19.35 20.654 34.175 20.443 20.915-.298 37.629-17.492 37.331-38.404-.213-14.822-8.916-27.531-21.414-33.571z"
                      fill="url(#SVGID_14_)"/>
            </g>
        </g>
        <g>
            <g>
                <path d="m75.745 221.091c.298 20.912-16.415 38.105-37.331 38.404-20.915.298-38.113-16.412-38.411-37.323-.298-20.911 16.415-38.105 37.331-38.404s38.113 16.412 38.411 37.323z"
                      fill="url(#SVGID_15_)"/>
                <path d="m69.481 221.18c.249 17.452-13.7 31.802-31.156 32.051s-31.808-13.697-32.057-31.15c-.249-17.452 13.7-31.802 31.156-32.051s31.808 13.698 32.057 31.15z"
                      fill="url(#SVGID_16_)"/>
                <path d="m54.332 187.519c2.627 5.06 4.149 10.792 4.236 16.88.298 20.911-16.415 38.105-37.331 38.404-6.09.087-11.863-1.271-16.997-3.752 6.395 12.319 19.35 20.654 34.175 20.443 20.915-.298 37.629-17.492 37.331-38.404-.212-14.821-8.915-27.531-21.414-33.571z"
                      fill="url(#SVGID_17_)"/>
            </g>
            <g>
                <path d="m509.996 221.091c.298 20.912-16.415 38.105-37.331 38.404-20.915.298-38.112-16.412-38.411-37.323-.298-20.911 16.415-38.105 37.331-38.404s38.113 16.412 38.411 37.323z"
                      fill="url(#SVGID_18_)"/>
                <path d="m503.732 221.18c.249 17.452-13.7 31.802-31.156 32.051s-31.808-13.697-32.057-31.15c-.249-17.452 13.7-31.802 31.156-32.051s31.808 13.698 32.057 31.15z"
                      fill="url(#SVGID_19_)"/>
                <path d="m488.583 187.519c2.627 5.06 4.149 10.792 4.236 16.88.298 20.911-16.415 38.105-37.331 38.404-6.09.087-11.863-1.271-16.997-3.752 6.395 12.319 19.35 20.654 34.175 20.443 20.915-.298 37.629-17.492 37.331-38.404-.212-14.821-8.916-27.531-21.414-33.571z"
                      fill="url(#SVGID_20_)"/>
            </g>
        </g>
        <g>
            <g>
                <g>
                    <path d="m247.149 197.369-43.58 62.986c-2.261 3.268-2.261 7.595 0 10.864l43.58 62.986c3.796 5.486 11.906 5.486 15.702 0l43.58-62.986c2.261-3.268 2.261-7.595 0-10.864l-43.58-62.986c-3.796-5.486-11.906-5.486-15.702 0z"
                          fill="url(#SVGID_21_)"/>
                    <path d="m248.124 205.862-38.17 55.167c-1.981 2.862-1.981 6.652 0 9.515l38.17 55.167c3.325 4.805 10.428 4.805 13.752 0l38.17-55.167c1.981-2.862 1.981-6.652 0-9.515l-38.17-55.167c-3.325-4.805-10.427-4.805-13.752 0z"
                          fill="url(#SVGID_22_)"/>
                    <path d="m265.682 211.362c-2.758-3.986-8.669-4.511-11.77-.785-.161.194-.316.397-.463.61l-35.519 51.336c-3.575 5.168-3.575 12.01 0 17.178l33.888 48.978c3.46 1.416 7.704.435 10.058-2.967l38.17-55.167c1.981-2.863 1.981-6.653 0-9.515z"
                          fill="url(#SVGID_23_)"/>
                </g>
                <path d="m261.876 205.862c-1.895-2.74-5.018-3.911-7.969-3.527v126.903c2.951.384 6.074-.788 7.969-3.527l38.17-55.167c1.98-2.862 1.98-6.652 0-9.515z"
                      fill="url(#SVGID_24_)"/>
                <path d="m248.124 325.711c3.325 4.805 10.427 4.805 13.752 0l38.17-55.167c.99-1.431 1.486-3.094 1.486-4.758h-93.063c0 1.663.495 3.327 1.485 4.758z"
                      fill="url(#SVGID_25_)"/>
            </g>
        </g>
    </g>
</svg>