<?xml version="1.0" encoding="iso-8859-1"?>
<!-- Generator: Adobe Illustrator 16.0.0, SVG Export Plug-In . SVG Version: 6.00 Build 0)  -->
<!DOCTYPE svg PUBLIC "-//W3C//DTD SVG 1.1//EN" "http://www.w3.org/Graphics/SVG/1.1/DTD/svg11.dtd">
<svg version="1.1" id="Capa_1" xmlns="http://www.w3.org/2000/svg" xmlns:xlink="http://www.w3.org/1999/xlink" x="0px" y="0px"
	 width="537.607px" height="537.607px" viewBox="0 0 537.607 537.607" style="enable-background:new 0 0 537.607 537.607;"
	 xml:space="preserve">
<g>
	<g>
		<path d="M332.692,352.102h0.023c9.877,0,19.783-0.036,29.743-0.083l3.995-0.012c11.473-0.053,23.017-0.101,34.679-0.101
			c2.767,0,5.089-2.157,5.284-4.924c5.65-81.406-0.721-115.795-25.251-136.272c-0.951-0.78-2.151-1.215-3.381-1.215l-0.608,0.036
			c-1.454,0.151-2.784,0.931-3.653,2.107c-13.796,18.593-13.405,35.406,1.276,54.498c5.344,6.939,7.406,17.023,9.848,28.962
			c0.757,3.712,1.549,7.53,2.471,11.432c-8.535-0.012-16.804-0.071-25.168-0.13l-2.181-0.012
			c-8.784-0.047-17.301-0.106-25.647-0.106c-14.877,0-27.065,0.177-38.349,0.544l-1.744,0.035c-14.676,0-21.104-5.319-22.186-18.347
			c-1.422-17.225-3.05-37.439-4.596-56.752c-2.01-25.18-3.904-48.844-5.107-62.323c-2.089-23.356-15.034-61.369-16.523-65.683
			c-0.75-2.119-2.76-3.535-5.006-3.535c-2.264,0-4.279,1.439-4.998,3.585c-1.159,3.405-2.787,7.02-4.365,10.53
			c-3.83,8.521-7.785,17.327-6.918,26.33c1.895,19.361,5.405,38.784,8.86,57.887l0.121,0.647
			c2.154,11.931,4.395,24.282,6.168,36.425c1.773,12.203,3.1,25.076,4.262,36.445c1.472,14.387,2.991,29.259,5.423,44.029
			c3.703,22.562,16.349,35.188,35.598,35.583C298.941,351.972,314.174,352.102,332.692,352.102z"/>
		<path d="M326.663,395.782l21.007,23.962c0.945,1.088,2.312,1.749,3.381,1.773l0.614,0.047c1.342,0,2.625-0.508,3.612-1.431
			l22.821-21.308c2.099-1.957,2.258-5.172,0.384-7.341l-22.442-25.812c-0.94-1.076-2.246-1.709-3.996-1.809
			c-1.312,0-2.618,0.52-3.57,1.406l-23.046,21.255c-0.769,0.698-1.188,1.597-1.442,2.53l-20.859-24.707
			c-0.916-1.1-2.275-1.785-4.031-1.88c-1.329,0-2.601,0.497-3.569,1.384l-22.872,20.812c-2.137,1.933-2.334,5.172-0.446,7.376
			l22.78,26.469c0.934,1.082,2.281,1.75,3.877,1.838h0.137c1.33,0,2.601-0.484,3.558-1.377l22.639-20.563
			C325.972,397.661,326.415,396.739,326.663,395.782z"/>
		<path d="M207.951,109.16c-1.082-8.287-7.179-15.64-18.643-22.461c-4.35-2.604-8.316-6.452-12.504-10.521
			c-2.167-2.116-4.418-4.291-6.833-6.422c-0.963-0.866-2.217-1.336-3.523-1.336l-0.836,0.06c-1.578,0.26-2.935,1.206-3.721,2.568
			c-12.77,21.929-8.13,41.065-2.749,63.23l1.241,5.157c9.921,41.721,14.053,85.753,18.061,128.417l1.496,15.838
			c2.565,26.622-0.636,44.33-10.072,55.727c-9.83,11.869-27.054,18.347-55.854,21.007c-4.968,0.461-9.901,0.526-14.041,0.526
			l-10.326-0.054c-26.342-0.06-45.48-7.188-55.357-20.634c-4.788-6.526-6.597-12.159-6.047-18.82
			c0.642-7.749,8.503-32.905,20.623-51.323c1.779-2.695,2.396-5.929,1.74-9.094c-0.647-3.165-2.497-5.899-5.192-7.66
			c-5.405-3.573-13.249-1.897-16.71,3.369c-16.979,23.941-25.138,57.774-26.613,64.395c-4.654,19.364-1.478,38.267,8.926,53.244
			c10.642,15.297,27.783,25.085,48.27,27.567c10.374,1.266,21.234,1.874,33.18,1.874c9.957,0,20.611-0.425,32.589-1.317
			c28.718-2.129,50.351-11.586,64.309-28.118c14.999-17.762,21.007-43.497,17.872-76.503c-2.657-28.064-5.955-56.193-9.15-83.407
			l-0.189-1.611c-2.317-19.833-4.714-40.297-6.827-60.464c-0.574-5.497,0.564-11.621,2.523-13.63
			C204.573,127.492,209.139,118.094,207.951,109.16z"/>
		<path d="M519.709,283.229l-3.127-3.748c-6.076-7.826-21.74-27.795-35.914-43.979c-6.88-7.838-19.896-8.71-27.763-1.835
			c-8.157,7.143-8.973,19.6-1.832,27.76c10.396,11.872,22.018,26.353,30.079,36.603c1.472,1.619,2.589,3.12,3.7,4.609
			c0.999,1.336,1.986,2.654,3.162,4.031c10.291,11.94,24.902,35.926,7.241,62.477c-32.509,48.859-70.09,73.637-111.689,73.637
			c-0.007,0-0.007,0-0.013,0c-3.269,0-6.613-0.153-9.953-0.461c-8.24-0.732-16.65-2.589-24.796-4.374
			c-1.708-0.378-3.57-0.757-5.379-1.123c-2.281-0.461-4.498-0.91-6.283-1.324c-4.214-0.981-7.146,2.128-8.098,4.563
			c-0.567,2.707,1.076,5.42,3.754,6.177c8.931,2.506,18.364,5.94,26.687,8.967c18.891,6.874,38.42,13.967,57.748,13.979
			c1.531,0,3.057-0.059,4.599-0.136c40.478-2.436,68.529-31.279,97.906-73.488c0.709-0.745,17.307-18.643,17.856-54.598
			C538.15,304.98,520.43,284.057,519.709,283.229z"/>
	</g>
</g>
<g>
</g>
<g>
</g>
<g>
</g>
<g>
</g>
<g>
</g>
<g>
</g>
<g>
</g>
<g>
</g>
<g>
</g>
<g>
</g>
<g>
</g>
<g>
</g>
<g>
</g>
<g>
</g>
<g>
</g>
</svg>
