<?xml version="1.0" encoding="UTF-8"?>


<!DOCTYPE svg PUBLIC "-//W3C//DTD SVG 1.1//EN" "http://www.w3.org/Graphics/SVG/1.1/DTD/svg11.dtd">

<svg xmlns:xlink="http://www.w3.org/1999/xlink" xmlns:xodm="http://www.corel.com/coreldraw/odm/2003" xmlns="http://www.w3.org/2000/svg" xml:space="preserve" width="1719px"
     height="1493px"
     version="1.1"
     style="shape-rendering:geometricPrecision; text-rendering:geometricPrecision; image-rendering:optimizeQuality; fill-rule:evenodd; clip-rule:evenodd"
     viewBox="0 0 477.32 414.61">
 <defs>
  <style type="text/css">
   <![CDATA[
    .str0 {stroke:#E6E7E8;stroke-width:4.63;stroke-miterlimit:2.61313}
    .fil0 {fill:none}
    .fil1 {fill:#E6E7E8}
    .fil2 {fill:#E6E7E8}
   ]]>
  </style>
 </defs>
    <g id="Layer_x0020_1">
  <metadata id="CorelCorpID_0Corel-Layer"/>
        <rect class="fil0" width="477.32" height="414.61"/>
        <rect class="fil0 str0" x="12.02" y="13.64" width="447.18" height="221.85" rx="21.56" ry="13.12"/>
        <g id="_2025036291536">
   <g>
    <g>
     <g>
      <path class="fil1"
            d="M298.96 60.76c-0.74,-0.31 -1.59,-0.14 -2.15,0.43l-44.1 44.1 -32.23 -32.25c-7.42,-7.24 -19.31,-7.11 -26.55,0.31 -7.13,7.29 -7.13,18.95 0,26.24l32.24 32.23 -44.11 44.1c-0.78,0.77 -0.79,2.02 -0.02,2.8 0.38,0.38 0.89,0.59 1.42,0.59l114.75 0c1.09,0 1.98,-0.89 1.98,-1.98l0 -114.75c-0.01,-0.8 -0.49,-1.52 -1.23,-1.82zm-110.73 114.59l13.04 -13.04 4.53 4.53c0.83,0.71 2.08,0.62 2.79,-0.21 0.63,-0.75 0.63,-1.84 0,-2.58l-4.53 -4.53 3.14 -3.14 4.53 4.53c0.83,0.71 2.08,0.61 2.79,-0.22 0.64,-0.74 0.64,-1.83 0,-2.57l-4.53 -4.53 3.15 -3.15 4.53 4.53c0.83,0.71 2.08,0.61 2.79,-0.22 0.63,-0.74 0.63,-1.83 0,-2.57l-4.53 -4.53 3.14 -3.15 4.53 4.54c0.83,0.71 2.08,0.61 2.79,-0.22 0.64,-0.74 0.64,-1.83 0,-2.57l-4.53 -4.54 7.1 -7.1 9.09 9.08 -14.43 14.43c-0.77,0.77 -0.78,2.02 -0.01,2.79 0.37,0.38 0.87,0.59 1.4,0.59l30.84 0 13.85 13.85 -81.47 0 0 0zm52.61 -28.87l11.05 11.06 -22.11 0 11.06 -11.06zm17.23 11.66l-15.83 -15.83 -11.87 -11.87 -33.63 -33.64c-2.79,-2.77 -4.35,-6.55 -4.34,-10.48 0.03,-8.19 6.68,-14.8 14.87,-14.78 3.89,0.02 7.63,1.56 10.4,4.31l12.46 12.45 -6.51 6.51c-0.83,0.71 -0.92,1.96 -0.21,2.79 0.71,0.83 1.96,0.92 2.79,0.21 0.07,-0.06 0.15,-0.14 0.21,-0.21l6.51 -6.51 3.15 3.14 -6.51 6.51c-0.83,0.71 -0.93,1.96 -0.22,2.79 0.71,0.83 1.96,0.93 2.79,0.22 0.08,-0.07 0.15,-0.14 0.22,-0.22l6.51 -6.51 3.14 3.15 -6.51 6.51c-0.83,0.71 -0.92,1.96 -0.21,2.79 0.71,0.83 1.96,0.92 2.79,0.21 0.07,-0.06 0.15,-0.14 0.21,-0.21l6.51 -6.51 3.15 3.14 -6.51 6.51c-0.83,0.71 -0.93,1.96 -0.22,2.79 0.71,0.83 1.96,0.93 2.79,0.22 0.08,-0.07 0.15,-0.14 0.22,-0.22l6.51 -6.51 0.57 0.58 2.57 2.57 -6.51 6.51c-0.83,0.71 -0.92,1.96 -0.21,2.79 0.71,0.83 1.96,0.92 2.79,0.21 0.07,-0.06 0.15,-0.14 0.21,-0.21l6.51 -6.51 3.15 3.14 -6.51 6.51c-0.83,0.71 -0.93,1.96 -0.22,2.79 0.71,0.83 1.96,0.93 2.79,0.22 0.08,-0.07 0.15,-0.14 0.22,-0.22l6.51 -6.51 0.57 0.58 2.57 2.57 -6.51 6.51c-0.83,0.71 -0.92,1.96 -0.21,2.79 0.71,0.83 1.96,0.92 2.79,0.21 0.08,-0.06 0.15,-0.13 0.21,-0.21l6.51 -6.51 3.15 3.14 -6.51 6.51c-0.83,0.71 -0.93,1.96 -0.22,2.79 0.71,0.83 1.96,0.93 2.79,0.22 0.08,-0.07 0.15,-0.14 0.22,-0.22l6.51 -6.51 3.14 3.15 -6.5 6.51c-0.83,0.71 -0.93,1.96 -0.22,2.79 0.71,0.83 1.96,0.92 2.79,0.21 0.08,-0.06 0.15,-0.13 0.21,-0.21l6.51 -6.51 3.15 3.14 -6.51 6.51c-0.83,0.71 -0.93,1.96 -0.22,2.79 0.72,0.83 1.96,0.93 2.79,0.22 0.08,-0.07 0.15,-0.14 0.22,-0.22l6.51 -6.51 3.15 3.15 -6.51 6.51c-0.83,0.71 -0.93,1.96 -0.22,2.79 0.71,0.83 1.96,0.93 2.79,0.21 0.08,-0.06 0.15,-0.13 0.22,-0.21l6.5 -6.51 3.15 3.15 -20.95 20.95 -16.4 -16.4zm9.3 -38.19l11.06 -11.06 0 22.12 -11.06 -11.06zm28.86 55.4l-16.99 0 16.99 -17 0 17zm0 -26.53l-13.85 -13.85 0 -30.85c0.01,-1.09 -0.87,-1.98 -1.96,-1.99 -0.54,0 -1.05,0.21 -1.42,0.59l-14.42 14.44 -9.08 -9.08 5.12 -5.12 4.53 4.53c0.83,0.71 2.08,0.61 2.79,-0.22 0.63,-0.74 0.63,-1.83 0,-2.57l-4.53 -4.53 3.14 -3.15 4.54 4.53c0.83,0.71 2.07,0.62 2.79,-0.21 0.63,-0.74 0.63,-1.84 0,-2.58l-4.54 -4.53 3.15 -3.14 4.53 4.53c0.83,0.71 2.08,0.61 2.79,-0.22 0.63,-0.74 0.63,-1.83 0,-2.57l-4.53 -4.53 3.15 -3.15 4.53 4.53c0.83,0.71 2.08,0.62 2.79,-0.21 0.63,-0.74 0.63,-1.84 0,-2.58l-4.53 -4.53 3.14 -3.14 4.53 4.53c0.83,0.71 2.08,0.61 2.79,-0.22 0.64,-0.74 0.64,-1.83 0,-2.57l-4.53 -4.53 9.08 -9.08 0 81.47z"/>
         <path class="fil1"
               d="M208.19 78.4c-4.92,0 -8.9,3.99 -8.9,8.91 0,4.91 3.98,8.9 8.9,8.9 4.92,0 8.9,-3.99 8.9,-8.9 0,-4.92 -3.98,-8.91 -8.9,-8.91zm0 13.85c-2.73,0 -4.95,-2.21 -4.95,-4.94 0,-2.73 2.22,-4.95 4.95,-4.95 2.73,0 4.95,2.22 4.95,4.95 0,2.73 -2.22,4.94 -4.95,4.94z"/>
     </g>
    </g>
   </g>
            <g>
   </g>
            <g>
   </g>
            <g>
   </g>
            <g>
   </g>
            <g>
   </g>
            <g>
   </g>
            <g>
   </g>
            <g>
   </g>
            <g>
   </g>
            <g>
   </g>
            <g>
   </g>
            <g>
   </g>
            <g>
   </g>
            <g>
   </g>
            <g>
   </g>
  </g>
        <rect class="fil2" x="65.1" y="247.9" width="190.58" height="24.3" rx="4.92" ry="3.83"/>
        <circle class="fil2" cx="41.82" cy="260.92" r="12.97"/>
        <rect class="fil1" x="245.26" y="297.54" width="160.72" height="18.75" rx="3.28" ry="3.28"/>
        <rect class="fil1" x="68.92" y="297.54" width="160.72" height="18.75" rx="3.28" ry="3.28"/>
        <rect class="fil1" x="129.58" y="327.57" width="39.4" height="35.06" rx="0.86" ry="6.56"/>
        <rect class="fil1" x="305.92" y="327.57" width="39.4" height="35.06" rx="0.86" ry="6.56"/>
 </g>
</svg>
