<?xml version="1.0" encoding="UTF-8"?>
<!--
  - Copyright (c) 2023. Selldone® Business OS™
  -
  - Author: M.Pajuhaan
  - Web: https://selldone.com
  - ━━━━━━━━━━━━━━━━━━━━━━━━━━━━━━━━━━━━━━━━━━━━━━━━━━━━━━
  -
  - All rights reserved. In the weave of time, where traditions and innovations intermingle, this content was crafted.
  - From the essence of thought, through the corridors of creativity, each word, and sentiment has been molded.
  - Not just to exist, but to inspire. Like an artist's stroke or a sculptor's chisel, every nuance is deliberate.
  - Our journey is not just about reaching a destination, but about creating a masterpiece.
  - Tread carefully, for you're treading on dreams.
  -->

<!DOCTYPE svg PUBLIC "-//W3C//DTD SVG 1.1//EN" "http://www.w3.org/Graphics/SVG/1.1/DTD/svg11.dtd">
<!-- Creator: CorelDRAW 2019 (64-Bit) -->
<svg xmlns="http://www.w3.org/2000/svg" xml:space="preserve" width="1625px" height="3127px" version="1.1" style="shape-rendering:geometricPrecision; text-rendering:geometricPrecision; image-rendering:optimizeQuality; fill-rule:evenodd; clip-rule:evenodd"
viewBox="0 0 253.53 487.85"
 xmlns:xlink="http://www.w3.org/1999/xlink"
 xmlns:xodm="http://www.corel.com/coreldraw/odm/2003">
 <defs>
  <style type="text/css">
   <![CDATA[
    .str0 {stroke:#E6E7E8;stroke-width:0.65;stroke-miterlimit:2.61313}
    .fil0 {fill:none}
    .fil1 {fill:#E6E7E8}
    .fil2 {fill:#E6E7E8;fill-rule:nonzero}
   ]]>
  </style>
 </defs>
 <g id="Layer_x0020_1">
  <metadata id="CorelCorpID_0Corel-Layer"/>
  <rect class="fil0" width="253.53" height="487.85"/>
  <rect class="fil1" x="120.53" y="17.1" width="29.94" height="12.97" rx="3.69" ry="3.69"/>
  <circle class="fil1" cx="112.24" cy="24.31" r="5.36"/>
  <rect class="fil1" x="12.87" y="49.47" width="218.33" height="10.53" rx="3.69" ry="3.69"/>
  <rect class="fil1" x="12.97" y="61.56" width="77.13" height="10.53" rx="3.69" ry="3.69"/>
  <rect class="fil1" x="11.8" y="98.37" width="196.1" height="11.6" rx="3.69" ry="3.69"/>
  <rect class="fil1" x="11.8" y="118.07" width="196.1" height="11.6" rx="3.69" ry="3.69"/>
  <rect class="fil1" x="11.8" y="137.77" width="196.1" height="11.6" rx="3.69" ry="3.69"/>
  <rect class="fil1" x="93.17" y="157.76" width="68.84" height="8.97" rx="1.84" ry="1.84"/>
  <rect class="fil1" x="13.01" y="171.21" width="227.79" height="7.02" rx="3.69" ry="3.69"/>
  <rect class="fil1" x="76.79" y="184.48" width="44.08" height="7.02" rx="2.46" ry="1.84"/>
  <rect class="fil1" x="148.85" y="183.99" width="44.08" height="7.02" rx="2.46" ry="1.84"/>
  <path class="fil2" d="M128.66 190.4l5.71 0 0 2.36 5.7 -4.73 -5.7 -4.72 0 2.36 -5.71 0 0 4.73zm2.85 0m2.86 1.18m2.85 -1.18m0 -4.73m-2.85 -1.18m-2.86 1.18m-2.85 2.36"/>
  <rect class="fil1" x="14.23" y="207.15" width="31.11" height="7.31" rx="1.84" ry="1.84"/>
  <rect class="fil1" x="48.36" y="203.73" width="41.93" height="14.14" rx="3.69" ry="3.69"/>
  <rect class="fil1" x="14.23" y="227.04" width="68.65" height="7.31" rx="4.07" ry="1.84"/>
  <rect class="fil1" x="14.23" y="246.93" width="44.66" height="7.31" rx="2.65" ry="1.84"/>
  <rect class="fil1" x="14.23" y="266.82" width="46.81" height="7.31" rx="2.77" ry="1.84"/>
  <rect class="fil1" x="85.9" y="223.63" width="17.26" height="14.14" rx="1.52" ry="3.69"/>
  <rect class="fil1" x="63.57" y="243.52" width="41.93" height="14.14" rx="3.69" ry="3.69"/>
  <rect class="fil1" x="63.38" y="263.41" width="56.07" height="14.14" rx="4.93" ry="3.69"/>
  <rect class="fil1" x="14.43" y="288.47" width="46.81" height="7.31" rx="2.77" ry="1.84"/>
  <rect class="fil1" x="63.57" y="285.06" width="56.07" height="14.14" rx="4.93" ry="3.69"/>
  <rect class="fil1" x="13.53" y="441.1" width="19.21" height="7.31" rx="1.14" ry="1.84"/>
  <rect class="fil1" x="13.53" y="462.45" width="35.2" height="7.31" rx="2.09" ry="1.84"/>
  <rect class="fil1" x="127.13" y="462.45" width="16.77" height="7.31" rx="0.99" ry="1.84"/>
  <rect class="fil1" x="34.98" y="439.58" width="50.9" height="10.34" rx="3.69" ry="3.69"/>
  <rect class="fil1" x="53.22" y="460.94" width="50.9" height="10.34" rx="3.69" ry="3.69"/>
  <rect class="fil1" x="147.51" y="460.94" width="50.9" height="10.34" rx="3.69" ry="3.69"/>
  <rect class="fil1" x="10.99" y="474.15" width="227.89" height="2.24"/>
  <line class="fil0 str0" x1="239.88" y1="430.08" x2="12.64" y2= "430.08" />
  <line class="fil0 str0" x1="241.28" y1="82.48" x2="14.03" y2= "82.48" />
  <rect class="fil1" x="11.95" y="411.06" width="19.21" height="7.31" rx="1.14" ry="1.84"/>
  <rect class="fil1" x="89.37" y="411.06" width="19.21" height="7.31" rx="1.14" ry="1.84"/>
  <rect class="fil1" x="76.69" y="321.04" width="31.11" height="7.31" rx="1.84" ry="1.84"/>
  <rect class="fil1" x="34.33" y="407.65" width="17.26" height="14.14" rx="1.52" ry="3.69"/>
  <rect class="fil1" x="115.46" y="407.65" width="17.26" height="14.14" rx="1.52" ry="3.69"/>
  <rect class="fil1" x="187.43" y="407.65" width="17.26" height="14.14" rx="1.52" ry="3.69"/>
  <g id="_2868244033648">
   <path class="fil1" d="M146.03 323.71c-0.34,0 -0.65,-0.04 -0.92,-0.12 -0.27,-0.08 -0.5,-0.2 -0.71,-0.35 -0.2,-0.16 -0.37,-0.36 -0.52,-0.6 -0.12,-0.2 -0.23,-0.43 -0.32,-0.68 -0.04,-0.1 0.01,-0.22 0.11,-0.26l0.82 -0.34c0.02,-0.01 0.05,-0.01 0.07,-0.01 0.08,0 0.14,0.03 0.18,0.1 0.14,0.23 0.3,0.52 0.35,0.58 0.07,0.11 0.15,0.2 0.24,0.27 0.09,0.07 0.19,0.13 0.3,0.17 0.11,0.04 0.24,0.06 0.39,0.06 0.18,0 0.34,-0.03 0.48,-0.09 0.14,-0.06 0.25,-0.13 0.34,-0.23 0.09,-0.1 0.16,-0.21 0.21,-0.33 0.04,-0.12 0.07,-0.24 0.07,-0.36 0,-0.16 -0.02,-0.31 -0.05,-0.44 -0.02,-0.12 -0.09,-0.23 -0.19,-0.32 -0.1,-0.08 -0.25,-0.15 -0.46,-0.2 -0.17,-0.05 -0.39,-0.07 -0.67,-0.08 -0.11,0 -0.19,-0.09 -0.19,-0.2l0 -0.61c0,-0.11 0.08,-0.2 0.19,-0.2 0.22,-0.01 0.41,-0.03 0.56,-0.07 0.18,-0.05 0.33,-0.12 0.43,-0.2 0.1,-0.09 0.18,-0.19 0.21,-0.3 0.04,-0.13 0.06,-0.26 0.06,-0.4 0,-0.3 -0.07,-0.53 -0.23,-0.69 -0.15,-0.15 -0.38,-0.23 -0.66,-0.23 -0.13,0 -0.25,0.02 -0.35,0.05 -0.11,0.04 -0.2,0.09 -0.29,0.15 -0.08,0.06 -0.15,0.14 -0.21,0.22 -0.06,0.09 -0.11,0.18 -0.13,0.28 -0.02,0.05 -0.05,0.13 -0.07,0.22 -0.01,0.03 -0.02,0.06 -0.03,0.09 -0.02,0.08 -0.1,0.14 -0.19,0.14 -0.01,0 -0.02,0 -0.03,0l-0.93 -0.16c-0.05,-0.01 -0.1,-0.04 -0.13,-0.09 -0.03,-0.04 -0.04,-0.1 -0.03,-0.15 0.06,-0.28 0.15,-0.53 0.27,-0.75 0.14,-0.26 0.33,-0.48 0.54,-0.65 0.22,-0.18 0.47,-0.31 0.75,-0.4 0.28,-0.09 0.58,-0.13 0.9,-0.13 0.34,0 0.65,0.05 0.92,0.15 0.27,0.09 0.51,0.23 0.7,0.4 0.18,0.16 0.33,0.36 0.43,0.59 0.1,0.22 0.15,0.47 0.15,0.72 0,0.23 -0.02,0.43 -0.07,0.61 -0.05,0.17 -0.12,0.32 -0.21,0.45 -0.1,0.13 -0.22,0.25 -0.36,0.34 -0.11,0.07 -0.24,0.13 -0.38,0.19 0.77,0.28 1.15,0.83 1.15,1.63 0,0.36 -0.06,0.69 -0.2,0.97 -0.13,0.27 -0.32,0.51 -0.55,0.7 -0.22,0.19 -0.49,0.33 -0.79,0.42 -0.3,0.1 -0.62,0.14 -0.95,0.14z"/>
   <g>
    <path class="fil1" d="M147.42 319.87l0 3.52c0.12,-0.07 0.24,-0.15 0.35,-0.24 0.23,-0.19 0.42,-0.43 0.55,-0.7 0.14,-0.28 0.2,-0.61 0.2,-0.97 0,-0.79 -0.37,-1.33 -1.1,-1.61z"/>
    <path class="fil1" d="M148.11 319.32c0.09,-0.13 0.16,-0.28 0.21,-0.45 0.05,-0.18 0.07,-0.38 0.07,-0.61 0,-0.25 -0.05,-0.5 -0.15,-0.72 -0.1,-0.23 -0.25,-0.43 -0.43,-0.59 -0.12,-0.11 -0.25,-0.2 -0.39,-0.27l0 3.15c0.12,-0.05 0.23,-0.11 0.33,-0.17 0.14,-0.09 0.26,-0.21 0.36,-0.34z"/>
   </g>
   <g>
    <path class="fil1" d="M139.36 317.72c0.39,-0.44 0.81,-0.83 1.27,-1.19 0.05,-0.04 0.13,0.01 0.11,0.07 -0.25,0.95 -0.7,1.88 -1.4,2.58 -0.03,-0.49 -0.03,-0.98 0.02,-1.46z"/>
    <path class="fil1" d="M139.34 319.18c-0.4,-0.49 -0.74,-0.98 -1.05,-1.52 -0.03,-0.06 -0.13,-0.04 -0.13,0.03 -0.06,1.1 0.36,2.39 1.39,2.91 -0.1,-0.47 -0.17,-0.94 -0.21,-1.42z"/>
    <path class="fil1" d="M139.55 320.6c0.25,-0.51 0.53,-1 0.86,-1.46 0.04,-0.06 0.13,-0.03 0.13,0.03 0.04,0.96 -0.12,1.97 -0.58,2.8 -0.16,-0.44 -0.31,-0.9 -0.41,-1.37z"/>
    <path class="fil1" d="M139.96 321.97c-0.51,-0.33 -0.99,-0.7 -1.44,-1.11 -0.06,-0.04 -0.14,0.01 -0.12,0.07 0.27,1.06 1.06,2.14 2.17,2.33 -0.23,-0.41 -0.44,-0.84 -0.61,-1.29z"/>
    <path class="fil1" d="M140.57 323.26c0.09,-0.56 0.22,-1.1 0.4,-1.64 0.03,-0.07 0.12,-0.07 0.14,0 0.32,0.89 0.44,1.9 0.25,2.83 -0.29,-0.38 -0.56,-0.77 -0.79,-1.19z"/>
    <path class="fil1" d="M141.36 324.45c-0.59,-0.17 -1.15,-0.38 -1.7,-0.64 -0.06,-0.03 -0.13,0.04 -0.09,0.1 0.57,0.93 1.63,1.74 2.76,1.6 -0.35,-0.33 -0.67,-0.68 -0.97,-1.06z"/>
    <path class="fil1" d="M142.33 325.51c-0.08,-0.57 -0.12,-1.13 -0.1,-1.7 0,-0.06 0.09,-0.09 0.13,-0.04 0.56,0.77 0.99,1.7 1.09,2.65 -0.4,-0.28 -0.78,-0.58 -1.12,-0.91z"/>
    <path class="fil1" d="M152.71 317.72c-0.4,-0.44 -0.81,-0.83 -1.27,-1.19 -0.06,-0.04 -0.13,0.01 -0.12,0.07 0.26,0.95 0.71,1.88 1.4,2.58 0.03,-0.49 0.03,-0.98 -0.01,-1.46z"/>
    <path class="fil1" d="M152.72 319.18c0.4,-0.49 0.75,-0.98 1.06,-1.52 0.03,-0.06 0.13,-0.04 0.13,0.03 0.06,1.1 -0.37,2.39 -1.39,2.91 0.1,-0.47 0.17,-0.94 0.2,-1.42z"/>
    <path class="fil1" d="M152.52 320.6c-0.25,-0.51 -0.54,-1 -0.87,-1.46 -0.04,-0.06 -0.12,-0.03 -0.13,0.03 -0.04,0.96 0.13,1.97 0.58,2.8 0.17,-0.44 0.32,-0.9 0.42,-1.37z"/>
    <path class="fil1" d="M152.1 321.97c0.52,-0.33 1,-0.7 1.45,-1.11 0.05,-0.04 0.14,0.01 0.12,0.07 -0.28,1.06 -1.06,2.14 -2.18,2.33 0.24,-0.41 0.44,-0.84 0.61,-1.29z"/>
    <path class="fil1" d="M151.5 323.26c-0.1,-0.56 -0.23,-1.1 -0.41,-1.64 -0.02,-0.07 -0.11,-0.07 -0.13,0 -0.32,0.89 -0.45,1.9 -0.26,2.83 0.29,-0.38 0.56,-0.77 0.8,-1.19z"/>
    <path class="fil1" d="M150.7 324.45c0.6,-0.17 1.15,-0.38 1.71,-0.64 0.06,-0.03 0.13,0.04 0.09,0.1 -0.57,0.93 -1.64,1.74 -2.76,1.6 0.35,-0.33 0.67,-0.68 0.96,-1.06z"/>
    <path class="fil1" d="M149.74 325.51c0.08,-0.57 0.12,-1.13 0.1,-1.7 0,-0.06 -0.09,-0.09 -0.13,-0.04 -0.56,0.77 -0.99,1.7 -1.09,2.65 0.4,-0.28 0.77,-0.58 1.12,-0.91z"/>
   </g>
   <path class="fil1" d="M152.94 317.73c0,0 0,0 0,-0.01 -0.05,-0.72 -0.19,-1.45 -0.4,-2.16 -0.03,-0.12 -0.17,-0.19 -0.29,-0.16 -0.13,0.04 -0.2,0.17 -0.16,0.3 0.19,0.67 0.32,1.35 0.37,2.04 0,0 0,0.01 0,0.01 0.04,0.44 0.05,0.92 0.02,1.42 0,0 0,0 0,0 -0.03,0.44 -0.1,0.91 -0.21,1.39 0,0 0,0 0,0 -0.09,0.43 -0.22,0.87 -0.4,1.34 0,0 0,0 0,0l0 0c-0.15,0.4 -0.35,0.82 -0.59,1.25l0 0c-0.21,0.38 -0.47,0.77 -0.77,1.16 0,0 0,0 0,0 0,0 0,0 0,0 -0.27,0.34 -0.58,0.69 -0.94,1.03l0 0c-0.32,0.3 -0.68,0.6 -1.09,0.89 0,0 0,0 0,0 -0.01,0 -0.01,0 -0.01,0 -0.68,0.53 -1.03,0.66 -1.4,0.8 -0.29,0.11 -0.59,0.22 -1.04,0.52 -0.45,-0.3 -0.74,-0.41 -1.03,-0.52 -0.37,-0.14 -0.72,-0.27 -1.4,-0.8 -0.01,0 -0.01,0 -0.01,0 0,0 0,0 0,0 -0.41,-0.29 -0.78,-0.59 -1.09,-0.89l0 0c-0.36,-0.34 -0.67,-0.69 -0.94,-1.03 0,0 0,0 0,0 0,0 0,0 0,0 -0.3,-0.39 -0.56,-0.78 -0.77,-1.16l0 0c-0.24,-0.43 -0.44,-0.85 -0.59,-1.25 0,0 0,0 0,0 0,0 0,0 0,0 -0.18,-0.47 -0.31,-0.91 -0.41,-1.34 0,0 0,0 0,0 -0.1,-0.48 -0.17,-0.95 -0.2,-1.39 0,0 0,0 0,0 -0.03,-0.5 -0.03,-0.98 0.01,-1.42 0,0 0,-0.01 0,-0.01 0.06,-0.69 0.18,-1.37 0.38,-2.04 0.04,-0.13 -0.03,-0.26 -0.16,-0.3 -0.13,-0.03 -0.26,0.04 -0.3,0.16 -0.2,0.71 -0.34,1.44 -0.39,2.16 0,0.01 0,0.01 0,0.01 -0.04,0.46 -0.05,0.96 -0.01,1.47 0,0 0,0 0,0 0.03,0.46 0.1,0.95 0.21,1.46 0,0 0,0 0,0 0.1,0.45 0.24,0.92 0.42,1.4 0,0 0,0 0,0 0.16,0.43 0.37,0.87 0.62,1.32 0,0 0,0 0,0 0.23,0.4 0.5,0.81 0.81,1.22 0,0 0,0 0,0 0,0 0,0 0,0 0.28,0.36 0.61,0.72 0.99,1.08 0,0 0,0 0,0 0.33,0.32 0.72,0.64 1.14,0.93 0.74,0.57 1.13,0.72 1.52,0.87 0.24,0.09 0.47,0.17 0.79,0.37 -0.25,0.19 -0.53,0.43 -0.87,0.73 -0.1,0.09 -0.11,0.24 -0.02,0.33 0.05,0.06 0.11,0.08 0.18,0.08 0.06,0 0.11,-0.02 0.16,-0.06 0.39,-0.35 0.7,-0.6 0.96,-0.8 0.26,0.2 0.58,0.45 0.97,0.8 0.05,0.04 0.1,0.06 0.16,0.06 0.06,0 0.13,-0.02 0.18,-0.08 0.08,-0.09 0.08,-0.24 -0.02,-0.33 -0.34,-0.3 -0.63,-0.54 -0.87,-0.73 0.32,-0.2 0.55,-0.28 0.79,-0.37 0.38,-0.15 0.78,-0.3 1.52,-0.87 0.42,-0.29 0.81,-0.61 1.14,-0.93 0,0 0,0 0,0 0.37,-0.36 0.7,-0.72 0.99,-1.08 0,0 0,0 0,0 0,0 0,0 0,0 0.31,-0.41 0.58,-0.82 0.8,-1.22 0,0 0,0 0,0 0.26,-0.45 0.46,-0.89 0.63,-1.32 0,0 0,0 0,0 0.18,-0.48 0.32,-0.95 0.42,-1.4 0,0 0,0 0,0 0.11,-0.51 0.18,-1 0.21,-1.46 0,0 0,0 0,0 0.03,-0.51 0.03,-1.01 -0.01,-1.47z"/>
  </g>
  <g id="_2868233905376">
   <path class="fil1" d="M126 317.61c-0.03,-0.05 -0.09,-0.08 -0.16,-0.08l-2.91 0 -2.9 0c-0.07,0 -0.13,0.03 -0.16,0.08l-1.38 2.18c-0.04,0.06 -0.04,0.15 0.01,0.21l4.29 5.46c0.07,0.1 0.22,0.1 0.29,0l4.29 -5.46c0.05,-0.06 0.05,-0.15 0.01,-0.21l-1.38 -2.18z"/>
   <path class="fil1" d="M119.87 317.61l-0.03 0.04 -1.35 2.14c-0.02,0.03 -0.03,0.07 -0.03,0.11l8.95 0c0,-0.04 -0.01,-0.08 -0.03,-0.11l-1.35 -2.14 -0.03 -0.04c-0.03,-0.05 -0.09,-0.08 -0.16,-0.08l-2.91 0 -2.9 0c-0.07,0 -0.13,0.03 -0.16,0.08z"/>
   <g>
    <polygon class="fil1" points="122.92,317.53 121.41,319.9 122.93,319.9 124.44,319.9 "/>
    <path class="fil1" d="M124.44 319.9l2.97 0 0 0c0,-0.02 0,-0.04 -0.01,-0.06 0,0 0,0 0,0 0,-0.01 0,-0.02 -0.01,-0.02 0,0 0,-0.01 0,-0.01 0,-0.01 -0.01,-0.02 -0.01,-0.02l-0.28 -0.44 -0.9 -1.42 -0.2 -0.32c0,0 -0.01,-0.01 -0.01,-0.02 0,0 0,0 0,0 -0.01,0 -0.01,-0.01 -0.02,-0.01 0,0 0,0 0,0 -0.01,-0.02 -0.02,-0.02 -0.04,-0.03l0 0 -1.49 2.35z"/>
   </g>
   <path class="fil1" d="M127.41 319.9c0,0 0,0 0,0 0,-0.02 0,-0.04 -0.01,-0.06 0,0 0,0 0,0 0,0 0,0 0,0 0,-0.01 0,-0.02 -0.01,-0.02 0,0 0,-0.01 0,-0.01 0,-0.01 -0.01,-0.02 -0.01,-0.02l-0.25 -0.4 -0.31 -0.49 -0.62 -0.97 -0.2 -0.32c0,0 -0.01,-0.01 -0.01,-0.02 0,0 0,0 0,0 0,0 0,0 0,0 -0.01,0 -0.01,-0.01 -0.02,-0.01 0,0 0,0 0,0 0,0 0,0 0,0 -0.01,-0.02 -0.02,-0.02 -0.04,-0.03l0 0 0 0 -0.72 1.13 0.67 1.05c0.03,0.05 0.04,0.11 0.01,0.17l1.52 0z"/>
   <path class="fil1" d="M119.94 317.55c-0.03,0.01 -0.06,0.04 -0.07,0.06l-0.49 0.77 -0.89 1.41c-0.02,0.03 -0.03,0.07 -0.03,0.11l2.97 0 -1.49 -2.35z"/>
   <g>
    <path class="fil1" d="M121.43 319.9l-2.97 0c0,0.04 0.02,0.07 0.04,0.1l4.29 5.46c0.03,0.04 0.07,0.07 0.11,0.07l-1.47 -5.63z"/>
    <path class="fil1" d="M127.37 320c0,0 0.01,-0.01 0.01,-0.02 0.01,-0.01 0.01,-0.02 0.01,-0.02 0,0 0.01,-0.01 0.01,-0.01 0,-0.01 0.01,-0.03 0.01,-0.05 0,0 0,0 0,0l-2.99 0 -1.45 5.63 0 0c0.02,0 0.04,-0.01 0.06,-0.02 0,0 0,0 0,0 0,0 0.01,0 0.01,-0.01 0,0 0.01,0 0.01,0 0,0 0,0 0.01,-0.01 0,0 0,0 0,0 0.01,-0.01 0.01,-0.01 0.01,-0.01 0,0 0.01,-0.01 0.01,-0.02l2.72 -3.46 1.57 -2z"/>
   </g>
   <g>
    <path class="fil1" d="M127.37 320c0,0 0.01,-0.01 0.01,-0.02 0.01,-0.01 0.01,-0.01 0.01,-0.02 0,0 0,0 0,0 0,0 0.01,-0.01 0.01,-0.01 0,-0.01 0.01,-0.03 0.01,-0.05 0,0 0,0 0,0l-1.52 0c0,0.01 -0.01,0.03 -0.02,0.04l-2.17 2.77 -0.73 2.82 0 0c0.02,0 0.04,-0.01 0.06,-0.02 0,0 0,0 0,0 0,0 0,0 0,0 0,0 0.01,0 0.01,0 0,-0.01 0.01,-0.01 0.01,-0.01 0,0 0,0 0.01,-0.01 0,0 0,0 0,0 0,0 0,0 0,0 0.01,-0.01 0.01,-0.01 0.01,-0.01 0,0 0.01,-0.01 0.01,-0.02l2.72 -3.46 1.57 -2z"/>
    <path class="fil1" d="M125.21 318.68l0.72 -1.13c-0.01,-0.01 -0.02,-0.01 -0.04,-0.02 -0.01,0 -0.03,0 -0.05,0l-1.36 0c0.01,0 0.02,0.01 0.02,0.02l0.71 1.13z"/>
   </g>
   <g>
    <path class="fil1" d="M122.81 325.49c-0.01,-0.01 -0.02,-0.02 -0.02,-0.03 0,0.01 0.01,0.02 0.02,0.03z"/>
    <path class="fil1" d="M122.83 325.51c0,-0.01 -0.01,-0.01 -0.01,-0.02 0,0.01 0.01,0.01 0.01,0.02z"/>
    <path class="fil1" d="M122.86 325.52c0,0 -0.01,0 -0.02,-0.01 0.01,0.01 0.02,0.01 0.02,0.01z"/>
    <path class="fil1" d="M122.89 325.53c0,0 0,0 0,0 0,0 0,0 0,0z"/>
    <polygon class="fil1" points="122.16,324.67 122.19,324.7 "/>
    <path class="fil1" d="M122.55 324.17l0.35 1.36c0.02,0.01 0.05,0.01 0.07,0l0.73 -2.82 -1.15 1.46z"/>
   </g>
   <g>
    <path class="fil1" d="M122.9 325.53l0 0c0,0 0,0 -0.01,0 0.01,0 0.01,0 0.01,0z"/>
    <path class="fil1" d="M122.89 325.53c-0.01,0 -0.02,0 -0.03,-0.01 0.01,0.01 0.02,0.01 0.03,0.01z"/>
    <polygon class="fil1" points="122.19,324.7 122.79,325.46 122.79,325.46 122.79,325.46 "/>
    <path class="fil1" d="M122.82 325.49c-0.01,0 -0.01,0 -0.01,0 0,0 0,0 0.01,0z"/>
    <path class="fil1" d="M122.84 325.51c0,0 0,0 -0.01,0 0.01,0 0.01,0 0.01,0z"/>
   </g>
   <path class="fil1" d="M122.16 324.67l0.03 0.03 0.6 0.76c0,0 0,0 0,0 0,0.01 0.01,0.02 0.02,0.03 0,0 0,0 0.01,0 0,0.01 0.01,0.01 0.01,0.02 0.01,0 0.01,0 0.01,0 0.01,0.01 0.02,0.01 0.02,0.01 0.01,0.01 0.02,0.01 0.03,0.01 0,0 0,0 0,0 0.01,0 0.01,0 0.01,0l-0.35 -1.36 -0.39 0.5z"/>
   <g>
    <path class="fil1" d="M115.44 317.17c0.45,-0.49 0.91,-0.93 1.43,-1.33 0.06,-0.05 0.15,0 0.13,0.08 -0.29,1.06 -0.8,2.11 -1.57,2.89 -0.04,-0.55 -0.04,-1.1 0.01,-1.64z"/>
    <path class="fil1" d="M115.43 318.81c-0.45,-0.54 -0.84,-1.1 -1.19,-1.71 -0.04,-0.07 -0.14,-0.04 -0.15,0.04 -0.06,1.24 0.42,2.68 1.57,3.27 -0.12,-0.53 -0.2,-1.06 -0.23,-1.6z"/>
    <path class="fil1" d="M115.66 320.41c0.28,-0.58 0.6,-1.12 0.97,-1.65 0.04,-0.06 0.14,-0.03 0.14,0.04 0.05,1.07 -0.14,2.21 -0.65,3.14 -0.19,-0.5 -0.35,-1.01 -0.46,-1.53z"/>
    <path class="fil1" d="M116.12 321.95c-0.58,-0.38 -1.11,-0.79 -1.62,-1.25 -0.06,-0.05 -0.16,0 -0.14,0.08 0.31,1.18 1.19,2.4 2.44,2.61 -0.26,-0.46 -0.49,-0.95 -0.68,-1.44z"/>
    <path class="fil1" d="M116.8 323.39c0.11,-0.63 0.25,-1.24 0.46,-1.84 0.02,-0.07 0.12,-0.08 0.15,0 0.35,1 0.5,2.13 0.28,3.17 -0.32,-0.42 -0.62,-0.86 -0.89,-1.33z"/>
    <path class="fil1" d="M117.69 324.72c-0.66,-0.19 -1.29,-0.42 -1.91,-0.71 -0.07,-0.03 -0.14,0.05 -0.1,0.11 0.64,1.05 1.83,1.95 3.09,1.79 -0.38,-0.37 -0.75,-0.76 -1.08,-1.19z"/>
    <path class="fil1" d="M118.77 325.91c-0.09,-0.64 -0.13,-1.26 -0.11,-1.9 0,-0.07 0.1,-0.11 0.15,-0.04 0.63,0.86 1.11,1.91 1.22,2.97 -0.44,-0.31 -0.87,-0.65 -1.26,-1.03z"/>
    <path class="fil1" d="M130.43 317.17c-0.45,-0.49 -0.91,-0.93 -1.43,-1.33 -0.06,-0.05 -0.15,0 -0.13,0.08 0.29,1.06 0.8,2.11 1.57,2.89 0.04,-0.55 0.04,-1.1 -0.01,-1.64z"/>
    <path class="fil1" d="M130.44 318.81c0.45,-0.54 0.84,-1.1 1.19,-1.71 0.04,-0.07 0.14,-0.04 0.15,0.04 0.06,1.24 -0.42,2.68 -1.57,3.27 0.12,-0.53 0.2,-1.06 0.23,-1.6z"/>
    <path class="fil1" d="M130.21 320.41c-0.28,-0.58 -0.6,-1.12 -0.97,-1.65 -0.04,-0.06 -0.14,-0.03 -0.14,0.04 -0.05,1.07 0.14,2.21 0.65,3.14 0.19,-0.5 0.35,-1.01 0.46,-1.53z"/>
    <path class="fil1" d="M129.75 321.95c0.58,-0.38 1.11,-0.79 1.62,-1.25 0.06,-0.05 0.16,0 0.14,0.08 -0.31,1.18 -1.19,2.4 -2.44,2.61 0.26,-0.46 0.49,-0.95 0.68,-1.44z"/>
    <path class="fil1" d="M129.07 323.39c-0.11,-0.63 -0.25,-1.24 -0.46,-1.84 -0.02,-0.07 -0.12,-0.08 -0.15,0 -0.35,1 -0.5,2.13 -0.28,3.17 0.32,-0.42 0.62,-0.86 0.89,-1.33z"/>
    <path class="fil1" d="M128.18 324.72c0.66,-0.19 1.29,-0.42 1.91,-0.71 0.07,-0.03 0.14,0.05 0.1,0.11 -0.64,1.05 -1.83,1.95 -3.09,1.79 0.38,-0.37 0.75,-0.76 1.08,-1.19z"/>
    <path class="fil1" d="M127.1 325.91c0.09,-0.64 0.13,-1.26 0.11,-1.9 0,-0.07 -0.1,-0.11 -0.15,-0.04 -0.63,0.86 -1.11,1.91 -1.22,2.97 0.44,-0.31 0.87,-0.65 1.26,-1.03z"/>
   </g>
   <path class="fil1" d="M130.69 317.19c0,-0.01 0,-0.01 0,-0.02 -0.06,-0.81 -0.21,-1.62 -0.45,-2.42 -0.04,-0.14 -0.19,-0.22 -0.33,-0.18 -0.14,0.04 -0.22,0.19 -0.18,0.33 0.22,0.75 0.36,1.52 0.42,2.29 0,0.01 0,0.01 0,0.02 0.05,0.49 0.05,1.03 0.02,1.59 0,0 0,0 0,0 -0.04,0.49 -0.11,1.02 -0.23,1.56 0,0 0,0 0,0 -0.1,0.48 -0.26,0.98 -0.45,1.5 0,0 0,0 0,0l0 0c-0.17,0.45 -0.4,0.93 -0.67,1.41l0 0c-0.23,0.42 -0.53,0.86 -0.86,1.29 0,0 0,0 0,0 0,0 0,0 0,0 -0.3,0.39 -0.65,0.78 -1.05,1.16l0 0c-0.36,0.35 -0.77,0.68 -1.23,1 0,0 0,0 0,0.01 -0.01,0 -0.01,0 -0.01,0 -0.77,0.59 -1.16,0.74 -1.57,0.89 -0.33,0.13 -0.66,0.25 -1.17,0.59 -0.5,-0.34 -0.83,-0.46 -1.16,-0.59 -0.41,-0.15 -0.8,-0.3 -1.57,-0.89 0,0 0,0 -0.01,0 0,-0.01 0,-0.01 0,-0.01 -0.46,-0.32 -0.87,-0.65 -1.23,-1l0 0c-0.4,-0.38 -0.75,-0.77 -1.05,-1.16 0,0 0,0 0,0 0,0 0,0 0,0 -0.33,-0.43 -0.63,-0.87 -0.86,-1.29l0 0c-0.27,-0.48 -0.5,-0.96 -0.67,-1.41 0,0 0,0 0,0 0,0 0,0 0,0 -0.19,-0.52 -0.35,-1.02 -0.45,-1.5 0,0 0,0 0,0 -0.12,-0.54 -0.2,-1.07 -0.23,-1.56 0,0 0,0 0,0 -0.03,-0.56 -0.03,-1.1 0.02,-1.59 0,-0.01 0,-0.01 0,-0.02 0.06,-0.77 0.2,-1.54 0.42,-2.29 0.04,-0.14 -0.04,-0.29 -0.18,-0.33 -0.14,-0.04 -0.29,0.04 -0.33,0.18 -0.24,0.8 -0.39,1.61 -0.45,2.42 0,0.01 0,0.01 0,0.02 -0.04,0.51 -0.05,1.07 -0.01,1.65 0,0 0,0 0,0 0.03,0.51 0.11,1.06 0.24,1.64 0,0 0,0 0,0 0.11,0.5 0.27,1.03 0.47,1.57 0,0 0,0 0,0 0.18,0.48 0.42,0.97 0.7,1.48 0,0 0,0 0,0 0.25,0.45 0.56,0.9 0.91,1.36 0,0 0,0 0,0 0,0 0,0 0,0 0.31,0.41 0.69,0.82 1.1,1.22 0,0 0,0 0.01,0 0.37,0.36 0.8,0.71 1.28,1.05 0.83,0.63 1.27,0.8 1.7,0.96 0.27,0.1 0.53,0.2 0.89,0.42 -0.28,0.22 -0.6,0.48 -0.98,0.82 -0.11,0.1 -0.11,0.27 -0.02,0.38 0.06,0.06 0.13,0.09 0.2,0.09 0.07,0 0.13,-0.03 0.18,-0.07 0.44,-0.39 0.79,-0.68 1.08,-0.9 0.3,0.22 0.65,0.51 1.09,0.9 0.05,0.04 0.11,0.07 0.18,0.07 0.07,0 0.14,-0.03 0.2,-0.09 0.09,-0.11 0.09,-0.28 -0.02,-0.38 -0.38,-0.34 -0.7,-0.6 -0.98,-0.82 0.36,-0.22 0.62,-0.32 0.89,-0.42 0.43,-0.16 0.87,-0.33 1.7,-0.96 0.48,-0.34 0.91,-0.69 1.28,-1.05 0,0 0.01,0 0.01,0 0.41,-0.4 0.79,-0.81 1.1,-1.22 0,0 0,0 0,0 0,0 0,0 0,0 0.35,-0.46 0.66,-0.91 0.91,-1.36 0,0 0,0 0,0 0.28,-0.51 0.52,-1 0.7,-1.48 0,0 0,0 0,0 0.2,-0.54 0.36,-1.07 0.47,-1.57 0,0 0,0 0,0 0.13,-0.58 0.21,-1.13 0.24,-1.64 0,0 0,0 0,0 0.04,-0.58 0.03,-1.14 -0.01,-1.65z"/>
  </g>
  <rect class="fil1" x="164.46" y="411.06" width="19.21" height="7.31" rx="1.14" ry="1.84"/>
  <g id="_2866795294496">
   <path class="fil1" d="M167.12 323.96c-0.06,0 -0.1,-0.04 -0.1,-0.1l0 -1.16c0,-0.05 0.04,-0.1 0.1,-0.1l1.58 0 0 -4.59c0,-0.05 0,-0.29 0,-0.53l-1.32 1.11c-0.04,0.02 -0.08,0.04 -0.12,0.04 -0.06,0 -0.11,-0.03 -0.14,-0.07l-0.66 -0.87c-0.06,-0.08 -0.04,-0.19 0.03,-0.25l2.46 -2.08c0.03,-0.03 0.07,-0.04 0.12,-0.04l1.13 0c0.1,0 0.18,0.08 0.18,0.17l0 7.11 1.36 0c0.06,0 0.1,0.05 0.1,0.1l0 1.16c0,0.06 -0.04,0.1 -0.1,0.1l-4.62 0 0 0z"/>
   <path class="fil1" d="M171.74 322.6l-1.36 0 0 -7.11c0,-0.1 -0.08,-0.17 -0.18,-0.17l-1.13 0c-0.05,0 -0.09,0.01 -0.12,0.04l-0.25 0.21 0 6.37c0,0.37 0.29,0.66 0.66,0.66l0.76 0 0 1.36 1.62 0c0.06,0 0.1,-0.04 0.1,-0.1l0 -1.16c0,-0.05 -0.04,-0.1 -0.1,-0.1z"/>
   <g>
    <path class="fil1" d="M161.1 316.81c0.48,-0.52 0.98,-0.99 1.53,-1.43 0.07,-0.05 0.16,0.01 0.14,0.09 -0.31,1.14 -0.85,2.26 -1.68,3.1 -0.04,-0.59 -0.04,-1.18 0.01,-1.76z"/>
    <path class="fil1" d="M161.09 318.57c-0.48,-0.58 -0.89,-1.18 -1.27,-1.83 -0.04,-0.07 -0.15,-0.05 -0.16,0.04 -0.06,1.32 0.44,2.88 1.68,3.5 -0.13,-0.56 -0.21,-1.14 -0.25,-1.71z"/>
    <path class="fil1" d="M161.34 320.28c0.3,-0.62 0.64,-1.2 1.04,-1.76 0.04,-0.07 0.15,-0.04 0.15,0.04 0.05,1.15 -0.15,2.36 -0.7,3.37 -0.2,-0.54 -0.37,-1.09 -0.49,-1.65z"/>
    <path class="fil1" d="M161.83 321.93c-0.62,-0.4 -1.19,-0.84 -1.74,-1.34 -0.06,-0.05 -0.16,0.01 -0.14,0.09 0.33,1.27 1.27,2.57 2.62,2.8 -0.28,-0.5 -0.53,-1.02 -0.74,-1.55z"/>
    <path class="fil1" d="M162.57 323.48c0.11,-0.68 0.26,-1.33 0.48,-1.98 0.03,-0.08 0.13,-0.08 0.16,0 0.38,1.07 0.54,2.29 0.31,3.4 -0.35,-0.45 -0.68,-0.92 -0.95,-1.42z"/>
    <path class="fil1" d="M163.52 324.9c-0.71,-0.2 -1.39,-0.45 -2.05,-0.76 -0.08,-0.04 -0.16,0.05 -0.11,0.12 0.68,1.12 1.96,2.09 3.31,1.92 -0.41,-0.4 -0.8,-0.82 -1.15,-1.28z"/>
    <path class="fil1" d="M164.67 326.18c-0.09,-0.69 -0.13,-1.35 -0.12,-2.04 0.01,-0.08 0.11,-0.11 0.16,-0.05 0.68,0.93 1.19,2.05 1.31,3.19 -0.47,-0.34 -0.93,-0.7 -1.35,-1.1z"/>
    <path class="fil1" d="M177.16 316.81c-0.48,-0.52 -0.98,-0.99 -1.53,-1.43 -0.06,-0.05 -0.16,0.01 -0.14,0.09 0.31,1.14 0.85,2.26 1.69,3.1 0.03,-0.59 0.03,-1.18 -0.02,-1.76z"/>
    <path class="fil1" d="M177.18 318.57c0.48,-0.58 0.89,-1.18 1.26,-1.83 0.05,-0.07 0.16,-0.05 0.16,0.04 0.07,1.32 -0.44,2.88 -1.67,3.5 0.12,-0.56 0.21,-1.14 0.25,-1.71z"/>
    <path class="fil1" d="M176.93 320.28c-0.3,-0.62 -0.64,-1.2 -1.04,-1.76 -0.05,-0.07 -0.15,-0.04 -0.16,0.04 -0.04,1.15 0.15,2.36 0.7,3.37 0.2,-0.54 0.38,-1.09 0.5,-1.65z"/>
    <path class="fil1" d="M176.43 321.93c0.63,-0.4 1.2,-0.84 1.74,-1.34 0.07,-0.05 0.17,0.01 0.14,0.09 -0.33,1.27 -1.27,2.57 -2.61,2.8 0.28,-0.5 0.53,-1.02 0.73,-1.55z"/>
    <path class="fil1" d="M175.7 323.48c-0.11,-0.68 -0.27,-1.33 -0.48,-1.98 -0.03,-0.08 -0.14,-0.08 -0.17,0 -0.38,1.07 -0.53,2.29 -0.3,3.4 0.35,-0.45 0.67,-0.92 0.95,-1.42z"/>
    <path class="fil1" d="M174.75 324.9c0.71,-0.2 1.38,-0.45 2.05,-0.76 0.08,-0.04 0.15,0.05 0.11,0.12 -0.69,1.12 -1.97,2.09 -3.32,1.92 0.42,-0.4 0.81,-0.82 1.16,-1.28z"/>
    <path class="fil1" d="M173.59 326.18c0.1,-0.69 0.14,-1.35 0.12,-2.04 0,-0.08 -0.11,-0.11 -0.15,-0.05 -0.69,0.93 -1.19,2.05 -1.32,3.19 0.48,-0.34 0.93,-0.7 1.35,-1.1z"/>
   </g>
   <path class="fil1" d="M177.44 316.83c0,0 0,-0.01 0,-0.01 -0.07,-0.87 -0.23,-1.75 -0.48,-2.6 -0.04,-0.15 -0.2,-0.24 -0.36,-0.19 -0.15,0.04 -0.23,0.2 -0.19,0.35 0.24,0.81 0.39,1.63 0.45,2.45 0,0.01 0,0.02 0,0.02 0.05,0.53 0.06,1.11 0.02,1.71 0,0 0,0 0,0 -0.03,0.53 -0.12,1.09 -0.24,1.67 0,0 0,0 0,0 -0.11,0.51 -0.28,1.05 -0.49,1.6 0,0.01 0,0.01 0,0.01l0 0c-0.18,0.48 -0.42,0.99 -0.71,1.5l0 0c-0.25,0.46 -0.57,0.93 -0.93,1.39 0,0 0,0 0,0 0,0 0,0 0,0 -0.32,0.42 -0.7,0.84 -1.12,1.25l0 0c-0.38,0.36 -0.83,0.72 -1.32,1.06 0,0.01 0,0.01 0,0.01 0,0 0,0 -0.01,0 -0.82,0.64 -1.24,0.79 -1.68,0.96 -0.35,0.13 -0.71,0.27 -1.25,0.63 -0.54,-0.36 -0.9,-0.5 -1.25,-0.63 -0.44,-0.17 -0.85,-0.32 -1.68,-0.96 0,0 0,0 0,0 -0.01,0 -0.01,0 -0.01,-0.01 -0.49,-0.34 -0.93,-0.7 -1.31,-1.06l0 0c-0.43,-0.41 -0.81,-0.83 -1.13,-1.25 0,0 0,0 0,0 0,0 0,0 0,0 -0.36,-0.46 -0.67,-0.93 -0.92,-1.39l0 0c-0.29,-0.51 -0.53,-1.02 -0.72,-1.5 0,0 0,0 0,0 0,0 0,0 0,-0.01 -0.21,-0.55 -0.37,-1.09 -0.48,-1.6 0,0 0,0 0,0 -0.13,-0.58 -0.21,-1.14 -0.24,-1.67 0,0 0,0 0,0 -0.04,-0.6 -0.04,-1.18 0.01,-1.71 0,0 0,-0.01 0,-0.02 0.07,-0.82 0.22,-1.64 0.45,-2.45 0.05,-0.15 -0.04,-0.31 -0.19,-0.35 -0.15,-0.05 -0.31,0.04 -0.35,0.19 -0.26,0.85 -0.42,1.73 -0.48,2.6 0,0 0,0.01 0,0.01 -0.05,0.55 -0.05,1.15 -0.01,1.77 0,0 0,0 0,0 0.03,0.55 0.12,1.14 0.25,1.75 0,0 0,0 0,0 0.12,0.54 0.29,1.11 0.51,1.69 0,0 0,0 0,0 0.19,0.51 0.44,1.04 0.75,1.58 0,0 0,0 0,0 0.26,0.48 0.59,0.97 0.97,1.46 0,0 0,0 0,0 0,0 0,0 0,0 0.34,0.44 0.74,0.88 1.18,1.31 0,0 0,0 0,0 0.4,0.38 0.87,0.76 1.38,1.12 0.89,0.68 1.36,0.86 1.82,1.04 0.29,0.1 0.57,0.21 0.95,0.45 -0.29,0.22 -0.63,0.51 -1.04,0.87 -0.12,0.11 -0.13,0.29 -0.02,0.41 0.05,0.06 0.13,0.09 0.21,0.09 0.07,0 0.14,-0.02 0.19,-0.07 0.47,-0.42 0.85,-0.73 1.16,-0.96 0.32,0.23 0.69,0.54 1.16,0.96 0.06,0.05 0.13,0.07 0.2,0.07 0.07,0 0.15,-0.03 0.21,-0.09 0.1,-0.12 0.09,-0.3 -0.02,-0.41 -0.41,-0.36 -0.75,-0.65 -1.05,-0.87 0.39,-0.24 0.67,-0.35 0.95,-0.45 0.46,-0.18 0.94,-0.36 1.83,-1.04 0.51,-0.36 0.97,-0.74 1.37,-1.12 0,0 0,0 0,0 0.45,-0.43 0.85,-0.87 1.19,-1.31 0,0 0,0 0,0 0,0 0,0 0,0 0.37,-0.49 0.7,-0.98 0.97,-1.46 0,0 0,0 0,0 0.3,-0.54 0.55,-1.07 0.75,-1.58 0,0 0,0 0,0 0.22,-0.58 0.39,-1.15 0.51,-1.69 0,0 0,0 0,0 0.13,-0.61 0.21,-1.2 0.25,-1.75 0,0 0,0 0,0 0.04,-0.62 0.04,-1.22 -0.01,-1.77z"/>
  </g>
  <rect class="fil1" x="12.49" y="388.93" width="102.09" height="7.31" rx="6.05" ry="1.84"/>
  <rect class="fil1" x="13.79" y="343.71" width="46.81" height="7.31" rx="2.77" ry="1.84"/>
  <path class="fil1" d="M31.56 360.19c2.46,0 4.73,0.87 6.49,2.32 -2.57,1.86 -4.25,4.88 -4.25,8.3 0,3.19 1.46,6.04 3.75,7.92 -1.69,1.22 -3.76,1.93 -5.99,1.93 -5.66,0 -10.24,-4.58 -10.24,-10.24 0,-5.65 4.58,-10.23 10.24,-10.23z"/>
  <circle class="fil1" cx="100.79" cy="370.42" r="10.24"/>
  <path class="fil1" d="M46.36 360.22c2.09,0.17 3.98,0.97 5.51,2.18 -2.31,1.69 -3.9,4.34 -4.16,7.42 -0.29,3.54 1.25,6.81 3.84,8.87 -1.92,1.4 -4.33,2.15 -6.89,1.94 -5.63,-0.47 -9.82,-5.42 -9.35,-11.05 0.46,-5.64 5.41,-9.83 11.05,-9.36z"/>
  <path class="fil1" d="M60.18 360.22c2.09,0.17 3.99,0.97 5.52,2.18 -2.32,1.69 -3.91,4.34 -4.17,7.42 -0.29,3.54 1.26,6.81 3.84,8.87 -1.92,1.4 -4.33,2.15 -6.88,1.94 -5.64,-0.47 -9.83,-5.42 -9.36,-11.05 0.46,-5.64 5.41,-9.83 11.05,-9.36z"/>
  <path class="fil1" d="M74 360.22c2.09,0.17 3.99,0.97 5.52,2.18 -2.32,1.69 -3.91,4.34 -4.17,7.42 -0.29,3.54 1.26,6.81 3.84,8.87 -1.91,1.4 -4.33,2.15 -6.88,1.94 -5.64,-0.47 -9.83,-5.42 -9.36,-11.05 0.47,-5.64 5.41,-9.83 11.05,-9.36z"/>
  <path class="fil1" d="M87.82 360.22c2.09,0.17 3.99,0.97 5.52,2.18 -2.31,1.69 -3.91,4.34 -4.16,7.42 -0.3,3.54 1.25,6.81 3.83,8.87 -1.91,1.4 -4.33,2.15 -6.88,1.94 -5.64,-0.47 -9.83,-5.42 -9.36,-11.05 0.47,-5.64 5.41,-9.83 11.05,-9.36z"/>
  <line class="fil0 str0" x1="239.49" y1="306.87" x2="12.25" y2= "306.87" />
 </g>
</svg>
