<?xml version="1.0" encoding="UTF-8"?>


<!DOCTYPE svg PUBLIC "-//W3C//DTD SVG 1.1//EN" "http://www.w3.org/Graphics/SVG/1.1/DTD/svg11.dtd">

<svg xmlns:xlink="http://www.w3.org/1999/xlink" xmlns:xodm="http://www.corel.com/coreldraw/odm/2003" xmlns="http://www.w3.org/2000/svg" xml:space="preserve" width="1708px"
     height="1218px"
     version="1.1"
     style="shape-rendering:geometricPrecision; text-rendering:geometricPrecision; image-rendering:optimizeQuality; fill-rule:evenodd; clip-rule:evenodd"
     viewBox="0 0 1703 1214">
 <defs>
  <style type="text/css">
   <![CDATA[
    .str0 {stroke:#E6E7E8;stroke-width:4;stroke-miterlimit:2.61313}
    .fil0 {fill:none}
    .fil1 {fill:#E6E7E8}
   ]]>
  </style>
 </defs>
    <g id="Layer_x0020_1">
  <metadata id="CorelCorpID_0Corel-Layer"/>
        <rect class="fil0" width="1703" height="1214"/>
        <rect class="fil1" x="83" y="492" width="123" height="51" rx="4" ry="12"/>
        <rect class="fil1" x="81" y="234" width="1319" height="59" rx="30" ry="10"/>
        <rect class="fil1" x="1553" y="234" width="80" height="70" rx="2" ry="12"/>
        <rect class="fil1" x="230" y="466" width="268" height="77" rx="5" ry="12"/>
        <rect class="fil1" x="330" y="1035" width="263" height="51" rx="8" ry="12"/>
        <rect class="fil1" x="1025" y="695" width="215" height="51" rx="8" ry="15"/>
        <rect class="fil1" x="1279" y="695" width="215" height="51" rx="8" ry="15"/>
        <rect class="fil1" x="1025" y="803" width="215" height="51" rx="8" ry="15"/>
        <rect class="fil1" x="1279" y="803" width="215" height="51" rx="8" ry="15"/>
        <rect class="fil1" x="1025" y="902" width="215" height="51" rx="8" ry="15"/>
        <rect class="fil1" x="908" y="682" width="80" height="70" rx="2" ry="12"/>
        <rect class="fil1" x="908" y="783" width="80" height="70" rx="2" ry="12"/>
        <rect class="fil1" x="908" y="888" width="80" height="70" rx="2" ry="12"/>
        <rect class="fil1" x="166" y="60" width="456" height="69" rx="10" ry="12"/>
        <circle class="fil1" cx="110" cy="95" r="32"/>
        <circle class="fil1" cx="110" cy="95" r="32"/>
        <circle class="fil1" cx="807" cy="389" r="32"/>
        <circle class="fil1" cx="890" cy="391" r="32"/>
        <circle class="fil1" cx="970" cy="390" r="32"/>
        <circle class="fil1" cx="732" cy="391" r="32"/>
        <polygon class="fil1"
                 points="296,932 305,958 333,958 310,975 319,1002 296,985 273,1002 282,975 259,958 287,958 "/>
        <polygon class="fil1"
                 points="383,932 391,958 420,958 397,975 405,1002 383,985 360,1002 369,975 346,958 374,958 "/>
        <polygon class="fil1"
                 points="469,932 478,958 506,958 483,975 492,1002 469,985 447,1002 455,975 433,958 461,958 "/>
        <polygon class="fil1"
                 points="556,932 565,958 593,958 570,975 579,1002 556,985 533,1002 542,975 519,958 547,958 "/>
        <polygon class="fil1"
                 points="643,932 651,958 680,958 657,975 666,1002 643,985 620,1002 629,975 606,958 634,958 "/>
        <path class="fil1"
              d="M465 674c67,0 122,55 122,122 0,67 -55,122 -122,122 -67,0 -122,-55 -122,-122 0,-67 55,-122 122,-122zm5 25l12 0 0 6 -12 0 0 -6zm14 104l40 0 8 -14 -40 0 -8 14zm-2 6l41 0 0 52 -41 0 0 -52zm46 0l17 0 0 52 -17 0 0 -52zm-35 -32l41 0 0 6 -41 0 0 -6zm37 26l13 0 -7 -12 -7 12zm-83 -35l0 93 -41 0 0 -93 9 0 0 12 6 0 0 -12 26 0zm-61 93l12 0 -6 -9 -6 9zm12 -93l-12 0 6 9 6 -9zm-6 17c-1,0 -2,0 -2,-1l-6 -9 0 79 6 -9c1,-1 1,-1 2,-1 1,0 2,0 2,1l6 9 0 -79 -6 9c-1,1 -1,1 -2,1zm46 -58c-4,0 -8,1 -12,3 -7,-4 -16,-4 -23,0 -7,4 -12,12 -12,20l0 12 6 0 0 -12c0,-6 3,-11 8,-14 5,-3 11,-4 16,-2 -4,4 -7,10 -7,16l0 12 6 0 0 -12c0,-5 2,-10 6,-13 4,3 6,8 6,13l0 12 6 0 0 -12c0,-6 -2,-12 -7,-16 6,-3 14,-1 19,4l4 -4c-4,-4 -10,-7 -16,-7zm61 38l0 5 -9 0c-2,0 -3,1 -3,3l0 11 -11 20c0,0 0,1 0,1l0 55 -23 0 0 -95 17 -34c0,0 0,-1 0,-1l0 -20 12 0 0 20c0,0 0,1 0,1l17 34z"/>
        <rect class="fil1" x="1279" y="902" width="215" height="51" rx="8" ry="15"/>
        <line class="fil0 str0" x1="101" y1="620" x2="1644" y2="620"/>
        <line class="fil0 str0" x1="870" y1="1160" x2="870" y2="620"/>
 </g>
</svg>
