<?xml version="1.0" encoding="UTF-8"?>
<!DOCTYPE svg PUBLIC "-//W3C//DTD SVG 1.1//EN" "http://www.w3.org/Graphics/SVG/1.1/DTD/svg11.dtd">
<!-- Creator: CorelDRAW 2019 (64-Bit) -->
<svg xmlns="http://www.w3.org/2000/svg" xml:space="preserve" width="1642px" height="967px" version="1.1" style="shape-rendering:geometricPrecision; text-rendering:geometricPrecision; image-rendering:optimizeQuality; fill-rule:evenodd; clip-rule:evenodd"
viewBox="0 0 238.69 140.55"
 xmlns:xlink="http://www.w3.org/1999/xlink"
 xmlns:xodm="http://www.corel.com/coreldraw/odm/2003">
 <defs>
  <style type="text/css">
   <![CDATA[
    .str0 {stroke:#E6E7E8;stroke-width:0.61;stroke-miterlimit:2.61313}
    .fil0 {fill:none}
    .fil1 {fill:#E6E7E8}
   ]]>
  </style>
 </defs>
 <g id="Layer_x0020_1">
  <metadata id="CorelCorpID_0Corel-Layer"/>
  <rect class="fil0" width="238.69" height="140.55"/>
  <rect class="fil1" x="22.9" y="8.09" width="85.86" height="13.13" rx="5.37" ry="3.43"/>
  <circle class="fil1" cx="15.71" cy="14.73" r="4.18"/>
  <rect class="fil1" x="20.34" y="25.18" width="50.52" height="9.81" rx="1.72" ry="1.72"/>
  <rect class="fil1" x="11.44" y="39.17" width="84.15" height="9.81" rx="1.72" ry="1.72"/>
  <rect class="fil1" x="11.62" y="51.35" width="119.41" height="8" rx="1.72" ry="1.72"/>
  <path class="fil1" d="M64.87 73.16c12.85,0 23.26,10.41 23.26,23.26 0,12.85 -10.41,23.27 -23.26,23.27 -12.85,0 -23.26,-10.42 -23.26,-23.27 0,-12.85 10.41,-23.26 23.26,-23.26zm10.61 25.11c-1.64,-1.63 -3.58,-2.84 -5.7,-3.57 2.27,-1.57 3.76,-4.19 3.76,-7.15 0,-4.78 -3.89,-8.67 -8.67,-8.67 -4.78,0 -8.67,3.89 -8.67,8.67 0,2.96 1.49,5.58 3.76,7.15 -2.12,0.73 -4.06,1.94 -5.7,3.57 -2.83,2.83 -4.39,6.6 -4.39,10.61l2.35 0c0,-6.98 5.67,-12.66 12.65,-12.66 6.98,0 12.66,5.68 12.66,12.66l2.34 0c0,-4.01 -1.56,-7.78 -4.39,-10.61zm-10.61 -4.39c-3.49,0 -6.33,-2.84 -6.33,-6.33 0,-3.49 2.84,-6.33 6.33,-6.33 3.49,0 6.33,2.84 6.33,6.33 0,3.49 -2.84,6.33 -6.33,6.33z"/>
  <g id="_1542070785744">
   <path class="fil1" d="M176.4 99.6c0.43,0 0.78,-0.35 0.78,-0.78 0,-0.43 -0.35,-0.78 -0.78,-0.78 -0.44,0 -0.79,0.35 -0.79,0.78 0,0.43 0.35,0.78 0.79,0.78zm0 0z"/>
   <path class="fil1" d="M159.22 99.6c0.43,0 0.78,-0.35 0.78,-0.78 0,-0.43 -0.35,-0.78 -0.78,-0.78 -0.44,0 -0.79,0.35 -0.79,0.78 0,0.43 0.35,0.78 0.79,0.78zm0 0z"/>
   <path class="fil1" d="M154.06 87.11c0.43,0 0.78,-0.35 0.78,-0.78l0 -7.5 7.5 0c0.43,0 0.78,-0.35 0.78,-0.78 0,-0.43 -0.35,-0.78 -0.78,-0.78l-8.28 0c-0.43,0 -0.78,0.35 -0.78,0.78l0 8.28c0,0.43 0.35,0.78 0.78,0.78l0 0zm0 0z"/>
   <path class="fil1" d="M163.12 116.47c0,-0.43 -0.35,-0.78 -0.78,-0.78l-7.5 0 0 -7.5c0,-0.43 -0.35,-0.78 -0.78,-0.78 -0.43,0 -0.78,0.35 -0.78,0.78l0 8.28c0,0.43 0.35,0.78 0.78,0.78l8.28 0c0.43,0 0.78,-0.35 0.78,-0.78l0 0zm0 0z"/>
   <path class="fil1" d="M192.48 107.41c-0.43,0 -0.78,0.35 -0.78,0.78l0 7.5 -7.49 0c-0.44,0 -0.79,0.35 -0.79,0.78 0,0.43 0.35,0.78 0.79,0.78l8.27 0c0.43,0 0.78,-0.35 0.78,-0.78l0 -8.28c0,-0.43 -0.35,-0.78 -0.78,-0.78l0 0zm0 0z"/>
   <path class="fil1" d="M192.48 77.27l-8.27 0c-0.44,0 -0.79,0.35 -0.79,0.78 0,0.43 0.35,0.78 0.79,0.78l7.49 0 0 7.5c0,0.43 0.35,0.78 0.78,0.78 0.43,0 0.78,-0.35 0.78,-0.78l0 -8.28c0,-0.43 -0.35,-0.78 -0.78,-0.78zm0 0z"/>
   <path class="fil1" d="M158.43 111.32c0,0.43 0.35,0.78 0.79,0.78l7.8 0c0.44,0 0.79,-0.35 0.79,-0.78l0 -7.81c0,-0.43 -0.35,-0.78 -0.79,-0.78l-7.8 0c-0.44,0 -0.79,0.35 -0.79,0.78l0 7.81zm1.57 -7.03l6.24 0 0 6.25 -6.24 0 0 -6.25zm0 0z"/>
   <path class="fil1" d="M167.02 82.42l-7.8 0c-0.44,0 -0.79,0.35 -0.79,0.78l0 7.81c0,0.43 0.35,0.78 0.79,0.78l7.8 0c0.44,0 0.79,-0.35 0.79,-0.78l0 -7.81c0,-0.43 -0.35,-0.78 -0.79,-0.78zm-0.78 7.81l-6.24 0 0 -6.25 6.24 0 0 6.25zm0 0z"/>
   <path class="fil1" d="M188.11 83.2c0,-0.43 -0.35,-0.78 -0.78,-0.78l-7.81 0c-0.43,0 -0.78,0.35 -0.78,0.78l0 7.81c0,0.43 0.35,0.78 0.78,0.78l7.81 0c0.43,0 0.78,-0.35 0.78,-0.78l0 -7.81zm-1.56 7.03l-6.25 0 0 -6.25 6.25 0 0 6.25zm0 0z"/>
   <path class="fil1" d="M188.11 111.32l0 -7.81c0,-0.43 -0.35,-0.78 -0.78,-0.78l-7.81 0c-0.43,0 -0.78,0.35 -0.78,0.78l0 7.81c0,0.43 0.35,0.78 0.78,0.78l7.81 0c0.43,0 0.78,-0.35 0.78,-0.78zm-1.56 -0.78l-6.25 0 0 -6.25 6.25 0 0 6.25zm0 0z"/>
   <path class="fil1" d="M163.9 105.85l-1.56 0c-0.43,0 -0.78,0.35 -0.78,0.78l0 1.56c0,0.43 0.35,0.78 0.78,0.78l1.56 0c0.43,0 0.78,-0.35 0.78,-0.78l0 -1.56c0,-0.43 -0.35,-0.78 -0.78,-0.78zm0 0z"/>
   <path class="fil1" d="M162.34 88.67l1.56 0c0.43,0 0.78,-0.35 0.78,-0.78l0 -1.56c0,-0.43 -0.35,-0.78 -0.78,-0.78l-1.56 0c-0.43,0 -0.78,0.35 -0.78,0.78l0 1.56c0,0.43 0.35,0.78 0.78,0.78zm0 0z"/>
   <path class="fil1" d="M182.64 88.67l1.57 0c0.43,0 0.78,-0.35 0.78,-0.78l0 -1.56c0,-0.43 -0.35,-0.78 -0.78,-0.78l-1.57 0c-0.43,0 -0.78,0.35 -0.78,0.78l0 1.56c0,0.43 0.35,0.78 0.78,0.78zm0 0z"/>
   <path class="fil1" d="M182.64 108.97l1.57 0c0.43,0 0.78,-0.35 0.78,-0.78l0 -1.56c0,-0.43 -0.35,-0.78 -0.78,-0.78l-1.57 0c-0.43,0 -0.78,0.35 -0.78,0.78l0 1.56c0,0.43 0.35,0.78 0.78,0.78zm0 0z"/>
   <path class="fil1" d="M161.56 98.82c0,0.43 0.35,0.78 0.78,0.78l10.15 0 0 3.91c0,0.43 0.35,0.78 0.78,0.78 0.43,0 0.78,-0.35 0.78,-0.78l0 -4.69c0,-0.43 -0.35,-0.78 -0.78,-0.78l-10.93 0c-0.43,0 -0.78,0.35 -0.78,0.78l0 0zm0 0z"/>
   <path class="fil1" d="M167.02 96.48c0.44,0 0.79,-0.35 0.79,-0.78 0,-0.43 -0.35,-0.78 -0.79,-0.78l-7.8 0c-0.44,0 -0.79,0.35 -0.79,0.78 0,0.43 0.35,0.78 0.79,0.78l7.8 0zm0 0z"/>
   <path class="fil1" d="M170.15 96.48l3.12 0c0.43,0 0.78,-0.35 0.78,-0.78 0,-0.43 -0.35,-0.78 -0.78,-0.78l-3.12 0c-0.43,0 -0.78,0.35 -0.78,0.78 0,0.43 0.35,0.78 0.78,0.78l0 0zm0 0z"/>
   <path class="fil1" d="M170.15 82.42c-0.43,0 -0.78,0.35 -0.78,0.78l0 7.81c0,0.43 0.35,0.78 0.78,0.78l5.46 0 0 3.91c0,0.43 0.35,0.78 0.79,0.78l3.12 0c0.43,0 0.78,-0.35 0.78,-0.78 0,-0.43 -0.35,-0.78 -0.78,-0.78l-2.34 0 0 -3.91c0,-0.43 -0.35,-0.78 -0.78,-0.78l-5.47 0 0 -7.03c0,-0.43 -0.35,-0.78 -0.78,-0.78l0 0zm0 0z"/>
   <path class="fil1" d="M187.33 94.92l-4.69 0c-0.43,0 -0.78,0.35 -0.78,0.78 0,0.43 0.35,0.78 0.78,0.78l4.69 0c0.43,0 0.78,-0.35 0.78,-0.78 0,-0.43 -0.35,-0.78 -0.78,-0.78l0 0zm0 0z"/>
   <path class="fil1" d="M187.33 98.04l-7.81 0c-0.43,0 -0.78,0.35 -0.78,0.78 0,0.43 0.35,0.78 0.78,0.78l7.81 0c0.43,0 0.78,-0.35 0.78,-0.78 0,-0.43 -0.35,-0.78 -0.78,-0.78l0 0zm0 0z"/>
   <path class="fil1" d="M173.27 105.85l-3.12 0c-0.43,0 -0.78,0.35 -0.78,0.78l0 4.69c0,0.43 0.35,0.78 0.78,0.78 0.43,0 0.78,-0.35 0.78,-0.78l0 -3.91 2.34 0c0.43,0 0.78,-0.35 0.78,-0.78 0,-0.43 -0.35,-0.78 -0.78,-0.78zm0 0z"/>
   <path class="fil1" d="M175.61 110.54l-2.34 0c-0.43,0 -0.78,0.35 -0.78,0.78 0,0.43 0.35,0.78 0.78,0.78l3.13 0c0.43,0 0.78,-0.35 0.78,-0.78l0 -9.37c0,-0.44 -0.35,-0.79 -0.78,-0.79 -0.44,0 -0.79,0.35 -0.79,0.79l0 8.59zm0 0z"/>
   <path class="fil1" d="M176.4 88.67c0.43,0 0.78,-0.35 0.78,-0.78l0 -4.69c0,-0.43 -0.35,-0.78 -0.78,-0.78 -0.44,0 -0.79,0.35 -0.79,0.78l0 3.91 -2.34 0c-0.43,0 -0.78,0.35 -0.78,0.78 0,0.43 0.35,0.78 0.78,0.78l3.13 0zm0 0z"/>
  </g>
  <path class="fil1" d="M15.16 26.55l-2.86 1.27 0 1.91c0,1.76 1.22,3.41 2.86,3.81 1.64,-0.4 2.86,-2.05 2.86,-3.81l0 -1.91 -2.86 -1.27zm0 3.49l2.23 0c-0.17,1.31 -1.04,2.48 -2.23,2.85l0 -2.85 -2.22 0 0 -1.81 2.22 -0.99 0 2.8 0 0z"/>
  <line class="fil0 str0" x1="228.09" y1="65.71" x2="12.07" y2= "65.71" />
 </g>
</svg>
