<?xml version="1.0" encoding="UTF-8"?>
<!DOCTYPE svg PUBLIC "-//W3C//DTD SVG 1.1//EN" "http://www.w3.org/Graphics/SVG/1.1/DTD/svg11.dtd">
<!-- Creator: CorelDRAW 2019 (64-Bit) -->
<svg xmlns="http://www.w3.org/2000/svg" xml:space="preserve" width="1625px" height="1512px" version="1.1" style="shape-rendering:geometricPrecision; text-rendering:geometricPrecision; image-rendering:optimizeQuality; fill-rule:evenodd; clip-rule:evenodd"
viewBox="0 0 284.42 264.73"
 xmlns:xlink="http://www.w3.org/1999/xlink"
 xmlns:xodm="http://www.corel.com/coreldraw/odm/2003">
 <defs>
  <style type="text/css">
   <![CDATA[
    .str0 {stroke:#E6E7E8;stroke-width:0.73;stroke-miterlimit:2.61313}
    .fil0 {fill:none}
    .fil1 {fill:#E6E7E8}
   ]]>
  </style>
 </defs>
 <g id="Layer_x0020_1">
  <metadata id="CorelCorpID_0Corel-Layer"/>
  <rect class="fil0" width="284.42" height="264.73"/>
  <circle class="fil1" cx="141.77" cy="33.47" r="17.94"/>
  <circle class="fil1" cx="99.77" cy="67.82" r="6.02"/>
  <rect class="fil1" x="113.62" y="60.25" width="66.07" height="15.81" rx="4.13" ry="4.13"/>
  <rect class="fil1" x="15.2" y="103.59" width="219.99" height="13.02" rx="4.13" ry="4.13"/>
  <rect class="fil1" x="15.2" y="130.72" width="219.99" height="13.02" rx="4.13" ry="4.13"/>
  <rect class="fil1" x="15.02" y="247.88" width="255.65" height="2.52"/>
  <line class="fil0 str0" x1="270.11" y1="198.87" x2="15.18" y2= "198.87" />
  <rect class="fil1" x="15.2" y="155.39" width="34.9" height="8.2" rx="2.07" ry="2.07"/>
  <rect class="fil1" x="56.12" y="151.56" width="47.04" height="15.86" rx="4.13" ry="4.13"/>
  <rect class="fil1" x="15.2" y="179.89" width="34.9" height="8.2" rx="2.07" ry="2.07"/>
  <rect class="fil1" x="56.12" y="176.07" width="47.04" height="15.86" rx="4.13" ry="4.13"/>
  <rect class="fil1" x="15.2" y="211.4" width="34.9" height="8.2" rx="2.07" ry="2.07"/>
  <rect class="fil1" x="56.12" y="207.57" width="47.04" height="15.86" rx="4.13" ry="4.13"/>
  <rect class="fil1" x="15.2" y="232.4" width="34.9" height="8.2" rx="2.07" ry="2.07"/>
  <rect class="fil1" x="56.12" y="228.57" width="47.04" height="15.86" rx="4.13" ry="4.13"/>
 </g>
</svg>
