<?xml version="1.0" encoding="UTF-8"?>


<!DOCTYPE svg PUBLIC "-//W3C//DTD SVG 1.1//EN" "http://www.w3.org/Graphics/SVG/1.1/DTD/svg11.dtd">

<svg xmlns="http://www.w3.org/2000/svg" xml:space="preserve" width="1625px" height="3362px" version="1.1" style="shape-rendering:geometricPrecision; text-rendering:geometricPrecision; image-rendering:optimizeQuality; fill-rule:evenodd; clip-rule:evenodd"
viewBox="0 0 107.54 222.52"
 xmlns:xlink="http://www.w3.org/1999/xlink"
 xmlns:xodm="http://www.corel.com/coreldraw/odm/2003">
 <defs>
  <style type="text/css">
   <![CDATA[
    .str0 {stroke:#E6E7E8;stroke-width:0.28;stroke-miterlimit:2.61313}
    .fil0 {fill:none}
    .fil1 {fill:#E6E7E8}
    .fil2 {fill:#E6E7E8;fill-rule:nonzero}
   ]]>
  </style>
 </defs>
 <g id="Layer_x0020_1">
  <metadata id="CorelCorpID_0Corel-Layer"/>
  <rect class="fil0" width="107.54" height="222.52"/>
  <rect class="fil1" x="4.81" y="21.73" width="92.61" height="4.47" rx="1.56" ry="1.56"/>
  <rect class="fil1" x="4.85" y="26.86" width="32.72" height="4.47" rx="1.56" ry="1.56"/>
  <rect class="fil1" x="47.93" y="8.5" width="12.7" height="5.5" rx="1.56" ry="1.56"/>
  <rect class="fil1" x="5.35" y="41.58" width="83.18" height="4.92" rx="1.56" ry="1.56"/>
  <rect class="fil1" x="4.69" y="50.52" width="83.18" height="4.92" rx="1.56" ry="1.56"/>
  <rect class="fil1" x="5.02" y="59.12" width="83.18" height="4.92" rx="1.56" ry="1.56"/>
  <rect class="fil1" x="39.31" y="67.31" width="29.2" height="3.81" rx="0.78" ry="0.78"/>
  <rect class="fil1" x="5.31" y="73.02" width="96.62" height="2.98" rx="1.56" ry="1.56"/>
  <rect class="fil1" x="32.36" y="78.64" width="18.7" height="2.98" rx="1.04" ry="0.78"/>
  <rect class="fil1" x="62.93" y="78.44" width="18.7" height="2.98" rx="1.04" ry="0.78"/>
  <path class="fil2" d="M54.37 81.16l2.42 0 0 1 2.42 -2.01 -2.42 -2 0 1 -2.42 0 0 2.01zm1.21 0m1.21 0.5m1.21 -0.5m0 -2.01m-1.21 -0.5m-1.21 0.5m-1.21 1"/>
  <rect class="fil1" x="6.05" y="87.78" width="13.19" height="3.1" rx="0.78" ry="0.78"/>
  <rect class="fil1" x="20.52" y="86.34" width="17.79" height="6" rx="1.56" ry="1.56"/>
  <rect class="fil1" x="6.05" y="96.22" width="29.12" height="3.1" rx="1.72" ry="0.78"/>
  <rect class="fil1" x="36.45" y="94.77" width="7.32" height="6" rx="0.64" ry="1.56"/>
  <rect class="fil1" x="5.72" y="111.73" width="19.85" height="3.1" rx="1.18" ry="0.78"/>
  <rect class="fil1" x="5.88" y="134.39" width="19.85" height="3.1" rx="1.18" ry="0.78"/>
  <rect class="fil1" x="26.73" y="132.94" width="23.78" height="6" rx="2.09" ry="1.56"/>
  <rect class="fil1" x="5.97" y="143.57" width="19.85" height="3.1" rx="1.18" ry="0.78"/>
  <rect class="fil1" x="26.81" y="142.13" width="23.78" height="6" rx="2.09" ry="1.56"/>
  <rect class="fil1" x="6.22" y="158" width="19.85" height="3.1" rx="1.18" ry="0.78"/>
  <rect class="fil1" x="5.55" y="180.55" width="19.85" height="3.1" rx="1.18" ry="0.78"/>
  <rect class="fil1" x="26.4" y="179.1" width="23.78" height="6" rx="2.09" ry="1.56"/>
  <rect class="fil1" x="5.63" y="189.73" width="19.85" height="3.1" rx="1.18" ry="0.78"/>
  <rect class="fil1" x="26.48" y="188.29" width="23.78" height="6" rx="2.09" ry="1.56"/>
  <rect class="fil1" x="5.86" y="202.15" width="8.15" height="3.1" rx="0.48" ry="0.78"/>
  <rect class="fil1" x="15.35" y="200.7" width="7.32" height="6" rx="0.64" ry="1.56"/>
  <rect class="fil1" x="5.72" y="209.99" width="8.15" height="3.1" rx="0.48" ry="0.78"/>
  <rect class="fil1" x="15.22" y="208.54" width="7.32" height="6" rx="0.64" ry="1.56"/>
  <rect class="fil1" x="54.03" y="209.99" width="8.15" height="3.1" rx="0.48" ry="0.78"/>
  <rect class="fil1" x="63.53" y="208.54" width="7.32" height="6" rx="0.64" ry="1.56"/>
  <rect class="fil1" x="5.56" y="216" width="96.66" height="0.95"/>
  <line class="fil0 str0" x1="101.69" y1="35.26" x2="5.3" y2= "35.26" />
  <line class="fil0 str0" x1="101.69" y1="104.41" x2="5.3" y2= "104.41" />
  <line class="fil0 str0" x1="101.69" y1="150.9" x2="5.3" y2= "150.9" />
  <line class="fil0 str0" x1="101.69" y1="197.23" x2="5.3" y2= "197.23" />
  <path class="fil1" d="M13.25 118.72c1.05,0 2.01,0.37 2.76,0.99 -1.09,0.79 -1.81,2.07 -1.81,3.52 0,1.35 0.62,2.56 1.59,3.36 -0.71,0.51 -1.59,0.82 -2.54,0.82 -2.39,0 -4.34,-1.95 -4.34,-4.34 0,-2.4 1.95,-4.35 4.34,-4.35z"/>
  <circle class="fil1" cx="42.62" cy="123.07" r="4.34"/>
  <path class="fil1" d="M19.53 118.74c0.89,0.07 1.69,0.41 2.34,0.92 -0.98,0.72 -1.66,1.84 -1.76,3.15 -0.13,1.5 0.53,2.89 1.62,3.76 -0.81,0.6 -1.83,0.91 -2.92,0.82 -2.39,-0.19 -4.17,-2.29 -3.97,-4.68 0.2,-2.39 2.3,-4.17 4.69,-3.97z"/>
  <path class="fil1" d="M12.92 165.21c1.05,0 2.01,0.37 2.76,0.99 -1.1,0.79 -1.81,2.07 -1.81,3.52 0,1.35 0.62,2.56 1.59,3.36 -0.71,0.51 -1.59,0.82 -2.54,0.82 -2.4,0 -4.34,-1.95 -4.34,-4.34 0,-2.4 1.94,-4.35 4.34,-4.35z"/>
  <circle class="fil1" cx="18.98" cy="169.66" r="4.34"/>
  <path class="fil1" d="M25.39 118.74c0.89,0.07 1.69,0.41 2.34,0.92 -0.98,0.72 -1.65,1.84 -1.76,3.15 -0.13,1.5 0.53,2.89 1.63,3.76 -0.82,0.6 -1.84,0.91 -2.93,0.82 -2.39,-0.19 -4.16,-2.29 -3.96,-4.68 0.19,-2.39 2.29,-4.17 4.68,-3.97z"/>
  <path class="fil1" d="M31.25 118.74c0.89,0.07 1.7,0.41 2.35,0.92 -0.99,0.72 -1.66,1.84 -1.77,3.15 -0.12,1.5 0.53,2.89 1.63,3.76 -0.82,0.6 -1.84,0.91 -2.92,0.82 -2.39,-0.19 -4.17,-2.29 -3.97,-4.68 0.2,-2.39 2.29,-4.17 4.68,-3.97z"/>
  <path class="fil1" d="M37.12 118.74c0.89,0.07 1.69,0.41 2.34,0.92 -0.98,0.72 -1.66,1.84 -1.77,3.15 -0.12,1.5 0.53,2.89 1.63,3.76 -0.81,0.6 -1.84,0.91 -2.92,0.82 -2.39,-0.19 -4.17,-2.29 -3.97,-4.68 0.2,-2.39 2.3,-4.17 4.69,-3.97z"/>
 </g>
</svg>
