<?xml version="1.0" encoding="UTF-8"?>


<!DOCTYPE svg PUBLIC "-//W3C//DTD SVG 1.1//EN" "http://www.w3.org/Graphics/SVG/1.1/DTD/svg11.dtd">

<svg xmlns="http://www.w3.org/2000/svg" xml:space="preserve" width="1642px" height="1208px" version="1.1" style="shape-rendering:geometricPrecision; text-rendering:geometricPrecision; image-rendering:optimizeQuality; fill-rule:evenodd; clip-rule:evenodd"
viewBox="0 0 1598 1176"
 xmlns:xlink="http://www.w3.org/1999/xlink"
 xmlns:xodm="http://www.corel.com/coreldraw/odm/2003">
 <defs>
  <style type="text/css">
   <![CDATA[
    .str0 {stroke:#E6E7E8;stroke-width:4;stroke-miterlimit:2.61313}
    .fil0 {fill:none}
    .fil1 {fill:#E6E7E8}
   ]]>
  </style>
 </defs>
 <g id="Layer_x0020_1">
  <metadata id="CorelCorpID_0Corel-Layer"/>
  <rect class="fil0" width="1598" height="1176"/>
  <rect class="fil1" x="168" y="51" width="324" height="80" rx="10" ry="10"/>
  <circle class="fil1" cx="1457" cy="83" r="63"/>
  <rect class="fil1" x="1375" y="171" width="163" height="56" rx="10" ry="10"/>
  <rect class="fil1" x="172" y="535" width="37" height="125"/>
  <rect class="fil1" x="359" y="575" width="37" height="85"/>
  <rect class="fil1" x="453" y="535" width="37" height="125"/>
  <rect class="fil1" x="964" y="496" width="37" height="165"/>
  <rect class="fil1" x="1011" y="598" width="37" height="63"/>
  <rect class="fil1" x="1056" y="535" width="37" height="125"/>
  <rect class="fil1" x="1284" y="577" width="37" height="83"/>
  <rect class="fil1" x="1331" y="641" width="37" height="20"/>
  <g id="_1577996339264">
   <rect class="fil1" x="1011" y="990" width="18" height="52"/>
   <rect class="fil1" x="1034" y="917" width="18" height="125"/>
  </g>
  <g id="_1577996341440">
   <rect class="fil1" x="1090" y="979" width="18" height="64"/>
   <rect class="fil1" x="1112" y="961" width="18" height="81"/>
  </g>
  <g id="_1577996340960">
   <rect class="fil1" x="1235" y="1007" width="18" height="35"/>
   <rect class="fil1" x="1257" y="917" width="18" height="125"/>
  </g>
  <g id="_1577996301376">
   <rect class="fil1" x="1362" y="903" width="18" height="140"/>
   <rect class="fil1" x="1385" y="878" width="18" height="164"/>
  </g>
  <g id="_1577996315872">
   <rect class="fil1" x="1284" y="975" width="18" height="68"/>
   <rect class="fil1" x="1307" y="964" width="18" height="79"/>
  </g>
  <g id="_1577996318944">
   <rect class="fil1" x="420" y="950" width="18" height="92"/>
   <rect class="fil1" x="443" y="874" width="18" height="168"/>
  </g>
  <g id="_1577996317024">
   <rect class="fil1" x="343" y="989" width="18" height="54"/>
   <rect class="fil1" x="365" y="980" width="18" height="63"/>
  </g>
  <g id="_1577996320864">
   <rect class="fil1" x="234" y="999" width="18" height="44"/>
   <rect class="fil1" x="256" y="987" width="18" height="56"/>
  </g>
  <g id="_1577996320736">
   <rect class="fil1" x="124" y="946" width="18" height="97"/>
   <rect class="fil1" x="147" y="917" width="18" height="125"/>
  </g>
  <g id="_1577996320128">
   <rect class="fil1" x="497" y="1030" width="18" height="12"/>
   <rect class="fil1" x="520" y="954" width="18" height="88"/>
  </g>
  <g id="_1577996322784">
   <rect class="fil1" x="748" y="993" width="18" height="50"/>
   <rect class="fil1" x="770" y="980" width="18" height="63"/>
  </g>
  <g id="_1577996323104">
   <rect class="fil1" x="642" y="1022" width="18" height="21"/>
   <rect class="fil1" x="664" y="1010" width="18" height="33"/>
  </g>
  <rect class="fil1" x="85" y="703" width="241" height="51" rx="13" ry="10"/>
  <rect class="fil1" x="1392" y="703" width="133" height="51" rx="10" ry="10"/>
  <rect class="fil1" x="85" y="1087" width="241" height="51" rx="9" ry="10"/>
  <rect class="fil1" x="1392" y="1087" width="133" height="51" rx="12" ry="10"/>
  <circle class="fil1" cx="107" cy="91" r="32"/>
  <line class="fil0 str0" x1="1547" y1="341" x2="63" y2= "341" />
  <rect class="fil1" x="406" y="650" width="37" height="12"/>
 </g>
</svg>
