<?xml version="1.0" encoding="UTF-8"?>


<!DOCTYPE svg PUBLIC "-//W3C//DTD SVG 1.1//EN" "http://www.w3.org/Graphics/SVG/1.1/DTD/svg11.dtd">

<svg xmlns="http://www.w3.org/2000/svg" xml:space="preserve" width="1708px" height="2175px" version="1.1" style="shape-rendering:geometricPrecision; text-rendering:geometricPrecision; image-rendering:optimizeQuality; fill-rule:evenodd; clip-rule:evenodd"
viewBox="0 0 265.98 338.64"
 xmlns:xlink="http://www.w3.org/1999/xlink"
 xmlns:xodm="http://www.corel.com/coreldraw/odm/2003"
 aria-hidden="true"
 focusable="false"
 data-prefix="fas"
 data-icon="users"
 role="img">
 <defs>
  <style type="text/css">
   <![CDATA[
    .str0 {stroke:#E6E7E8;stroke-width:2.59;stroke-miterlimit:2.61313}
    .str1 {stroke:#E6E7E8;stroke-width:0.65;stroke-miterlimit:2.61313}
    .fil0 {fill:none}
    .fil1 {fill:#E6E7E8}
    .fil2 {fill:#E6E7E8;fill-rule:nonzero}
   ]]>
  </style>
 </defs>
 <g id="Layer_x0020_1">
  <metadata id="CorelCorpID_0Corel-Layer"/>
  <rect class="fil0" width="265.98" height="338.64"/>
  <circle class="fil1" cx="133.31" cy="41.45" r="15.96"/>
  <circle class="fil1" cx="16.35" cy="15.96" r="3.89"/>
  <rect class="fil1" x="23.55" y="10.41" width="81.16" height="11.09" rx="3.68" ry="3.68"/>
  <rect class="fil1" x="38.53" y="104.32" width="28.61" height="10.7" rx="1.84" ry="1.84"/>
  <rect class="fil1" x="125.63" y="104.32" width="28.61" height="10.7" rx="1.84" ry="1.84"/>
  <rect class="fil1" x="212.72" y="104.32" width="28.61" height="10.7" rx="1.84" ry="1.84"/>
  <rect class="fil1" x="40.48" y="151.61" width="28.61" height="10.7" rx="1.84" ry="1.84"/>
  <rect class="fil1" x="136.27" y="151.9" width="14.71" height="10.7" rx="0.95" ry="1.84"/>
  <rect class="fil1" x="205.03" y="151.32" width="9.19" height="10.7" rx="0.59" ry="1.84"/>
  <rect class="fil1" x="237.73" y="149.96" width="9.19" height="10.7" rx="0.59" ry="1.84"/>
  <rect class="fil1" x="34.25" y="123.68" width="24.52" height="7.59" rx="1.1" ry="1.1"/>
  <rect class="fil1" x="122.71" y="123.68" width="24.52" height="7.59" rx="1.1" ry="1.1"/>
  <rect class="fil1" x="205.03" y="123.68" width="36.78" height="7.59" rx="1.65" ry="1.1"/>
  <rect class="fil1" x="36" y="171.56" width="24.52" height="7.59" rx="1.1" ry="1.1"/>
  <rect class="fil1" x="123.03" y="171.56" width="27.58" height="7.59" rx="1.24" ry="1.1"/>
  <rect class="fil1" x="194.81" y="171.56" width="24.52" height="7.59" rx="1.1" ry="1.1"/>
  <rect class="fil1" x="24.92" y="220.7" width="147.12" height="7.59" rx="6.62" ry="1.1"/>
  <rect class="fil1" x="21.61" y="265.46" width="147.12" height="7.59" rx="6.62" ry="1.1"/>
  <rect class="fil1" x="25.33" y="292.22" width="27.58" height="7.59" rx="1.24" ry="1.1"/>
  <rect class="fil1" x="84.1" y="292.22" width="27.58" height="7.59" rx="1.24" ry="1.1"/>
  <rect class="fil1" x="154.36" y="292.22" width="27.58" height="7.59" rx="1.24" ry="1.1"/>
  <rect class="fil1" x="215.86" y="292.22" width="27.58" height="7.59" rx="1.24" ry="1.1"/>
  <rect class="fil1" x="24.28" y="234.13" width="9.19" height="10.7" rx="0.59" ry="1.84"/>
  <rect class="fil1" x="68.89" y="234.13" width="9.19" height="10.7" rx="0.59" ry="1.84"/>
  <rect class="fil1" x="113.49" y="234.13" width="9.19" height="10.7" rx="0.59" ry="1.84"/>
  <rect class="fil1" x="158.1" y="234.13" width="9.19" height="10.7" rx="0.59" ry="1.84"/>
  <rect class="fil1" x="202.71" y="234.13" width="9.19" height="10.7" rx="0.59" ry="1.84"/>
  <rect class="fil1" x="247.31" y="234.13" width="9.19" height="10.7" rx="0.59" ry="1.84"/>
  <circle class="fil0 str0" cx="230.04" cy="174.87" r="7.2"/>
  <rect class="fil1" x="107.62" y="62.08" width="50.5" height="10.9" rx="3.68" ry="3.68"/>
  <line class="fil0 str1" x1="262.44" y1="95.65" x2="3.98" y2= "95.65" />
  <line class="fil0 str1" x1="251.84" y1="210.87" x2="11.63" y2= "210.87" />
  <line class="fil0 str1" x1="261.76" y1="306.62" x2="7.39" y2= "306.62" />
  <path class="fil2" d="M37.56 108.05c0,0.92 -0.33,1.71 -0.98,2.36 -0.66,0.66 -1.44,0.98 -2.37,0.98 -0.21,0 -0.42,-0.02 -0.63,-0.05l-0.45 0.51c-0.09,0.1 -0.2,0.15 -0.34,0.15l-0.71 0 0 0.76c0,0.13 -0.04,0.24 -0.13,0.33 -0.09,0.09 -0.2,0.13 -0.32,0.13l-0.76 0 0 0.76c0,0.13 -0.05,0.23 -0.14,0.32 -0.09,0.09 -0.19,0.14 -0.32,0.14l-2.13 0c-0.13,0 -0.23,-0.05 -0.32,-0.14 -0.09,-0.09 -0.14,-0.19 -0.14,-0.32l0 -1.48c0,-0.13 0.05,-0.24 0.14,-0.33l3.08 -3.08c-0.12,-0.34 -0.17,-0.69 -0.17,-1.04 0,-0.61 0.14,-1.17 0.44,-1.68 0.3,-0.52 0.71,-0.92 1.22,-1.22 0.51,-0.3 1.07,-0.45 1.68,-0.45 0.93,0 1.71,0.33 2.37,0.98 0.65,0.66 0.98,1.44 0.98,2.37zm-3.08 -1.56c-0.18,0.18 -0.27,0.39 -0.27,0.65 0,0.25 0.09,0.47 0.27,0.64 0.17,0.18 0.39,0.27 0.64,0.27 0.26,0 0.47,-0.09 0.65,-0.27 0.18,-0.17 0.27,-0.39 0.27,-0.64 0,-0.26 -0.09,-0.47 -0.27,-0.65 -0.18,-0.18 -0.39,-0.27 -0.65,-0.27 -0.25,0 -0.47,0.09 -0.64,0.27z"/>
  <path class="fil2" d="M123.03 105.19c0.23,0 0.43,0.08 0.59,0.25 0.17,0.16 0.25,0.36 0.25,0.59l0 7.27c0,0.24 -0.08,0.43 -0.25,0.6 -0.16,0.16 -0.36,0.24 -0.59,0.24l-5.03 0c-0.24,0 -0.44,-0.08 -0.6,-0.24 -0.16,-0.17 -0.24,-0.36 -0.24,-0.6l0 -7.27c0,-0.23 0.08,-0.43 0.24,-0.59 0.16,-0.17 0.36,-0.25 0.6,-0.25l5.03 0zm-3.36 0.56c-0.08,0 -0.14,0.03 -0.2,0.08 -0.05,0.05 -0.08,0.12 -0.08,0.2 0,0.08 0.03,0.15 0.08,0.2 0.06,0.05 0.12,0.08 0.2,0.08l1.68 0c0.08,0 0.15,-0.03 0.2,-0.08 0.05,-0.05 0.08,-0.12 0.08,-0.2 0,-0.08 -0.03,-0.15 -0.08,-0.2 -0.05,-0.05 -0.12,-0.08 -0.2,-0.08l-1.68 0zm1.63 2.57c-0.22,-0.22 -0.48,-0.33 -0.79,-0.33 -0.3,0 -0.56,0.11 -0.78,0.33 -0.23,0.22 -0.34,0.48 -0.34,0.79 0,0.3 0.11,0.56 0.34,0.78 0.22,0.23 0.48,0.34 0.78,0.34 0.31,0 0.57,-0.11 0.79,-0.34 0.22,-0.22 0.33,-0.48 0.33,-0.78 0,-0.31 -0.11,-0.57 -0.33,-0.79zm1.17 3.81l0 -0.33c0,-0.28 -0.11,-0.52 -0.34,-0.72 -0.23,-0.2 -0.5,-0.29 -0.83,-0.29l-0.09 0c-0.22,0.09 -0.45,0.14 -0.7,0.14 -0.24,0 -0.47,-0.05 -0.7,-0.14l-0.08 0c-0.33,0 -0.61,0.09 -0.83,0.29 -0.23,0.2 -0.34,0.44 -0.34,0.72l0 0.33c0,0.09 0.03,0.17 0.11,0.24 0.07,0.06 0.16,0.09 0.27,0.09l3.15 0c0.1,0 0.19,-0.03 0.27,-0.09 0.07,-0.07 0.11,-0.15 0.11,-0.24z"/>
  <path class="fil2" d="M210.67 110.44l0 1.76c0,0.24 -0.09,0.45 -0.26,0.62 -0.17,0.17 -0.37,0.25 -0.62,0.25l-8.75 0c-0.25,0 -0.45,-0.08 -0.62,-0.25 -0.17,-0.17 -0.26,-0.38 -0.26,-0.62l0 -1.76c0,-0.24 0.09,-0.45 0.26,-0.62 0.17,-0.17 0.37,-0.25 0.62,-0.25l8.75 0c0.25,0 0.45,0.08 0.62,0.25 0.17,0.17 0.26,0.38 0.26,0.62zm-0.88 -1.46l-8.75 0c-0.2,0 -0.39,0.04 -0.57,0.11l1.77 -2.64c0.05,-0.06 0.11,-0.12 0.19,-0.18 0.08,-0.06 0.17,-0.11 0.27,-0.15 0.09,-0.04 0.18,-0.05 0.27,-0.05l4.89 0c0.13,0 0.27,0.03 0.41,0.11 0.14,0.08 0.25,0.17 0.32,0.27l1.77 2.64c-0.18,-0.07 -0.37,-0.11 -0.57,-0.11zm-0.46 1.93c-0.12,-0.12 -0.25,-0.17 -0.41,-0.17 -0.16,0 -0.3,0.05 -0.41,0.17 -0.12,0.12 -0.18,0.25 -0.18,0.41 0,0.16 0.06,0.29 0.18,0.41 0.11,0.12 0.25,0.17 0.41,0.17 0.16,0 0.29,-0.05 0.41,-0.17 0.11,-0.12 0.17,-0.25 0.17,-0.41 0,-0.16 -0.06,-0.29 -0.17,-0.41zm-1.75 0c-0.12,-0.12 -0.25,-0.17 -0.41,-0.17 -0.16,0 -0.3,0.05 -0.41,0.17 -0.12,0.12 -0.18,0.25 -0.18,0.41 0,0.16 0.06,0.29 0.18,0.41 0.11,0.12 0.25,0.17 0.41,0.17 0.16,0 0.29,-0.05 0.41,-0.17 0.11,-0.12 0.17,-0.25 0.17,-0.41 0,-0.16 -0.06,-0.29 -0.17,-0.41z"/>
  <g id="_1542129920464">
   <path class="fil1" d="M34.94 155.96l-7 0c-0.11,0 -0.2,-0.08 -0.2,-0.19l0 -0.6c0,-0.44 0.36,-0.79 0.79,-0.79l0.8 0 0 -0.86c0,-0.11 0.08,-0.2 0.19,-0.2l0.66 0c0.11,0 0.2,0.09 0.2,0.2l0 0.86 2.11 0 0 -0.86c0,-0.11 0.09,-0.2 0.2,-0.2l0.66 0c0.11,0 0.2,0.09 0.2,0.2l0 0.86 0.79 0c0.44,0 0.79,0.35 0.79,0.79l0 0.6c0,0.11 -0.08,0.19 -0.19,0.19zm-7 0.53l7 0c0.11,0 0.19,0.09 0.19,0.2l0 4.29c0,0.44 -0.35,0.79 -0.79,0.79l-5.81 0c-0.43,0 -0.79,-0.35 -0.79,-0.79l0 -4.29c0,-0.11 0.09,-0.2 0.2,-0.2zm5.5 1.59l-0.47 -0.47c-0.07,-0.08 -0.2,-0.08 -0.28,0l-1.75 1.73 -0.75 -0.76c-0.08,-0.08 -0.21,-0.08 -0.28,0l-0.47 0.46c-0.08,0.08 -0.08,0.2 0,0.28l1.36 1.37c0.08,0.08 0.2,0.08 0.28,0.01l2.36 -2.34c0.08,-0.08 0.08,-0.21 0,-0.28l0 0z"/>
  </g>
  <g id="_1542129919888">
   <path class="fil1" d="M134.66 157.8l-1.55 0 0 1.85 -0.61 -0.41 -0.62 0.41 0 -1.85 -1.54 0c-0.17,0 -0.31,0.14 -0.31,0.31l0 3.7c0,0.17 0.14,0.31 0.31,0.31l4.32 0c0.16,0 0.3,-0.14 0.3,-0.31l0 -3.7c0,-0.17 -0.14,-0.31 -0.3,-0.31zm-7.4 -1.23l4.31 0c0.17,0 0.31,-0.14 0.31,-0.31l0 -3.7c0,-0.16 -0.14,-0.3 -0.31,-0.3l-1.54 0 0 1.85 -0.61 -0.41 -0.62 0.41 0 -1.85 -1.54 0c-0.17,0 -0.31,0.14 -0.31,0.3l0 3.7c0,0.17 0.14,0.31 0.31,0.31zm1.23 1.23l-1.54 0 0 1.85 -0.61 -0.41 -0.62 0.41 0 -1.85 -1.54 0c-0.17,0 -0.31,0.14 -0.31,0.31l0 3.7c0,0.17 0.14,0.31 0.31,0.31l4.31 0c0.17,0 0.31,-0.14 0.31,-0.31l0 -3.7c0,-0.17 -0.14,-0.31 -0.31,-0.31z"/>
  </g>
  <g id="_1542129919088">
   <path class="fil1" d="M137.48 85.88l-8.35 0c-0.17,0 -0.32,0.14 -0.32,0.32l0 0.64c0,0.18 0.15,0.32 0.32,0.32l8.35 0c0.18,0 0.32,-0.14 0.32,-0.32l0 -0.64c0,-0.18 -0.14,-0.32 -0.32,-0.32zm1.29 -6.42c-0.54,0 -0.97,0.43 -0.97,0.96 0,0.14 0.03,0.28 0.09,0.4l-1.45 0.87c-0.31,0.18 -0.71,0.08 -0.89,-0.23l-1.64 -2.87c0.22,-0.17 0.36,-0.44 0.36,-0.74 0,-0.53 -0.43,-0.96 -0.96,-0.96 -0.54,0 -0.97,0.43 -0.97,0.96 0,0.3 0.14,0.57 0.36,0.74l-1.64 2.87c-0.18,0.31 -0.58,0.41 -0.88,0.23l-1.46 -0.87c0.06,-0.12 0.09,-0.26 0.09,-0.4 0,-0.53 -0.43,-0.96 -0.96,-0.96 -0.53,0 -0.97,0.43 -0.97,0.96 0,0.53 0.44,0.96 0.97,0.96 0.05,0 0.1,0 0.15,-0.01l1.45 3.87 7.71 0 1.45 -3.87c0.05,0.01 0.1,0.01 0.16,0.01 0.53,0 0.96,-0.43 0.96,-0.96 0,-0.53 -0.43,-0.96 -0.96,-0.96z"/>
  </g>
  <g id="_1542129921168">
   <path class="fil1" d="M192.68 156.18c0.7,0 1.28,-0.58 1.28,-1.28 0,-0.7 -0.58,-1.27 -1.28,-1.27 -0.7,0 -1.27,0.57 -1.27,1.27 0,0.7 0.57,1.28 1.27,1.28zm8.92 0c0.71,0 1.28,-0.58 1.28,-1.28 0,-0.7 -0.57,-1.27 -1.28,-1.27 -0.7,0 -1.27,0.57 -1.27,1.27 0,0.7 0.57,1.28 1.27,1.28zm0.64 0.63l-1.27 0c-0.35,0 -0.67,0.14 -0.9,0.37 0.8,0.44 1.37,1.24 1.49,2.18l1.32 0c0.35,0 0.64,-0.28 0.64,-0.64l0 -0.63c0,-0.71 -0.58,-1.28 -1.28,-1.28zm-5.1 0c1.24,0 2.23,-0.99 2.23,-2.23 0,-1.23 -0.99,-2.23 -2.23,-2.23 -1.23,0 -2.23,1 -2.23,2.23 0,1.24 1,2.23 2.23,2.23zm1.53 0.64l-0.16 0c-0.42,0.2 -0.88,0.32 -1.37,0.32 -0.49,0 -0.95,-0.12 -1.36,-0.32l-0.17 0c-1.26,0 -2.29,1.03 -2.29,2.29l0 0.58c0,0.53 0.43,0.95 0.95,0.95l5.74 0c0.53,0 0.96,-0.42 0.96,-0.95l0 -0.58c0,-1.26 -1.03,-2.29 -2.3,-2.29zm-4.45 -0.27c-0.23,-0.23 -0.55,-0.37 -0.9,-0.37l-1.28 0c-0.7,0 -1.27,0.57 -1.27,1.28l0 0.63c0,0.36 0.28,0.64 0.64,0.64l1.31 0c0.12,-0.94 0.69,-1.74 1.5,-2.18l0 0z"/>
  </g>
  <path class="fil1" d="M227.4 158.79c0,1.59 1.28,2.87 2.87,2.87l1.15 0c1.58,0 2.87,-1.28 2.87,-2.87l0 -2.29 -6.89 0 0 2.29zm3.16 -6.31l-0.29 0c-1.59,0 -2.87,1.29 -2.87,2.87l0 0.57 3.16 0 0 -3.44zm0.57 0l-0.29 0 0 3.44 3.16 0 0 -0.57c0,0 0,-0.01 0,-0.01 0,-1.48 -1.12,-2.71 -2.58,-2.86l-0.29 0z"/>
  <path class="fil1" d="M15.46 227.8c0,0.4 0.32,0.73 0.72,0.73l5.32 0c0.4,0 0.72,-0.33 0.72,-0.73l0 -4.11 -6.76 0 0 4.11zm0.96 -2.9c0,-0.13 0.11,-0.24 0.24,-0.24l1.45 0c0.14,0 0.25,0.11 0.25,0.24l0 1.45c0,0.14 -0.11,0.24 -0.25,0.24l-1.45 0c-0.13,0 -0.24,-0.1 -0.24,-0.24l0 -1.45zm5.08 -3.14l-0.73 0 0 -0.73c0,-0.13 -0.1,-0.24 -0.24,-0.24l-0.48 0c-0.13,0 -0.24,0.11 -0.24,0.24l0 0.73 -1.94 0 0 -0.73c0,-0.13 -0.11,-0.24 -0.24,-0.24l-0.48 0c-0.14,0 -0.24,0.11 -0.24,0.24l0 0.73 -0.73 0c-0.4,0 -0.72,0.32 -0.72,0.73l0 0.72 6.76 0 0 -0.72c0,-0.41 -0.32,-0.73 -0.72,-0.73z"/>
  <path class="fil1" d="M22 235.85c-1,-0.85 -2.47,-0.7 -3.39,0.24l-0.35 0.37 -0.36 -0.37c-0.91,-0.94 -2.39,-1.09 -3.39,-0.24 -1.14,0.97 -1.2,2.71 -0.18,3.77l3.51 3.62c0.23,0.24 0.6,0.24 0.83,0l3.51 -3.62c1.02,-1.06 0.96,-2.8 -0.18,-3.77z"/>
  <path class="fil1" d="M63.11 238c0,-1.2 -1.26,-2.17 -2.81,-2.17 -1.56,0 -2.82,0.97 -2.82,2.17 0,0.46 0.2,0.89 0.52,1.24 -0.18,0.41 -0.48,0.73 -0.49,0.74 -0.03,0.03 -0.03,0.07 -0.02,0.11 0.02,0.04 0.06,0.07 0.1,0.07 0.5,0 0.91,-0.17 1.2,-0.34 0.44,0.21 0.95,0.34 1.51,0.34 1.55,0 2.81,-0.97 2.81,-2.16l0 0zm1.65 2.97c0.32,-0.35 0.51,-0.78 0.51,-1.24 0,-0.91 -0.72,-1.68 -1.75,-2.01 0.02,0.09 0.02,0.18 0.02,0.28 0,1.43 -1.46,2.59 -3.24,2.59 -0.15,0 -0.29,-0.01 -0.43,-0.02 0.42,0.77 1.42,1.32 2.59,1.32 0.55,0 1.07,-0.13 1.5,-0.34 0.3,0.17 0.71,0.34 1.2,0.34 0.05,0 0.09,-0.03 0.1,-0.07 0.02,-0.04 0.01,-0.08 -0.02,-0.11 0,-0.01 -0.3,-0.33 -0.48,-0.74l0 0z"/>
  <path class="fil1" d="M108.23 235.39l-6.12 0c-0.46,0 -0.83,0.37 -0.83,0.83l0 6.12c0,0.46 0.37,0.83 0.83,0.83l6.12 0c0.46,0 0.84,-0.37 0.84,-0.83l0 -6.12c0,-0.46 -0.38,-0.83 -0.84,-0.83zm-4.17 5.84c0,0.15 -0.12,0.28 -0.28,0.28l-0.55 0c-0.16,0 -0.28,-0.13 -0.28,-0.28l0 -2.23c0,-0.15 0.12,-0.28 0.28,-0.28l0.55 0c0.16,0 0.28,0.13 0.28,0.28l0 2.23zm1.67 0c0,0.15 -0.13,0.28 -0.28,0.28l-0.55 0c-0.16,0 -0.28,-0.13 -0.28,-0.28l0 -3.9c0,-0.15 0.12,-0.27 0.28,-0.27l0.55 0c0.15,0 0.28,0.12 0.28,0.27l0 3.9zm1.67 0c0,0.15 -0.13,0.28 -0.28,0.28l-0.56 0c-0.15,0 -0.27,-0.13 -0.27,-0.28l0 -1.11c0,-0.16 0.12,-0.28 0.27,-0.28l0.56 0c0.15,0 0.28,0.12 0.28,0.28l0 1.11z"/>
  <path class="fil1" d="M147.55 236.05l-0.99 2.01 -2.22 0.33c-0.4,0.05 -0.56,0.54 -0.27,0.83l1.61 1.56 -0.38 2.21c-0.07,0.4 0.35,0.7 0.7,0.52l1.99 -1.05 1.99 1.05c0.35,0.18 0.77,-0.12 0.7,-0.52l-0.38 -2.21 1.61 -1.56c0.29,-0.29 0.13,-0.78 -0.27,-0.83l-2.22 -0.33 -0.99 -2.01c-0.18,-0.36 -0.7,-0.37 -0.88,0z"/>
  <path class="fil1" d="M244.04 235.51l-6.11 0c-0.46,0 -0.84,0.38 -0.84,0.84l0 6.12c0,0.46 0.38,0.83 0.84,0.83l6.11 0c0.46,0 0.84,-0.37 0.84,-0.83l0 -6.12c0,-0.46 -0.38,-0.84 -0.84,-0.84zm-0.55 4.38c0,0.12 -0.1,0.21 -0.21,0.21l-1.6 0 0 1.6c0,0.12 -0.09,0.21 -0.21,0.21l-0.97 0c-0.12,0 -0.21,-0.09 -0.21,-0.21l0 -1.6 -1.6 0c-0.11,0 -0.21,-0.09 -0.21,-0.21l0 -0.97c0,-0.11 0.1,-0.21 0.21,-0.21l1.6 0 0 -1.6c0,-0.11 0.09,-0.21 0.21,-0.21l0.97 0c0.12,0 0.21,0.1 0.21,0.21l0 1.6 1.6 0c0.11,0 0.21,0.1 0.21,0.21l0 0.97z"/>
  <path class="fil1" d="M211.11 293.57c-0.47,-0.2 -0.94,-0.28 -1.42,-0.28 -1.49,0 -2.99,0.76 -4.49,0.76 -0.38,0 -0.75,-0.05 -1.13,-0.16 -0.04,-0.02 -0.08,-0.02 -0.12,-0.02 -0.21,0 -0.4,0.16 -0.4,0.38l0 3.86c0,0.16 0.09,0.3 0.23,0.36 0.47,0.2 0.95,0.27 1.42,0.27 1.5,0 3,-0.75 4.49,-0.75 0.38,0 0.75,0.04 1.13,0.16 0.04,0.02 0.09,0.02 0.13,0.02 0.21,0 0.39,-0.16 0.39,-0.38l0 -3.86c0,-0.16 -0.09,-0.3 -0.23,-0.36zm-3.66 3.62c-0.54,0 -0.98,-0.53 -0.98,-1.17 0,-0.65 0.44,-1.17 0.98,-1.17 0.53,0 0.97,0.52 0.97,1.17 0,0.64 -0.44,1.17 -0.97,1.17z"/>
  <path class="fil1" d="M80.83 297.83l-0.39 -2.36c-0.04,-0.23 -0.24,-0.4 -0.47,-0.4l-3.62 0 0 -0.94 1.42 0c0.13,0 0.24,-0.11 0.24,-0.24l0 -1.42c0,-0.13 -0.11,-0.24 -0.24,-0.24l-3.78 0c-0.13,0 -0.24,0.11 -0.24,0.24l0 1.42c0,0.13 0.11,0.24 0.24,0.24l1.42 0 0 0.94 -1.26 0c-0.23,0 -0.43,0.17 -0.47,0.4l-0.39 2.36c-0.01,0.06 -0.01,0.11 -0.01,0.16l0 1.34c0,0.26 0.21,0.47 0.47,0.47l6.62 0c0.27,0 0.48,-0.21 0.48,-0.47l0 -1.34c0,-0.05 -0.01,-0.1 -0.02,-0.16zm-3.41 -1.93c0,-0.13 0.1,-0.24 0.23,-0.24l0.24 0c0.13,0 0.24,0.11 0.24,0.24l0 0.24c0,0.13 -0.11,0.23 -0.24,0.23l-0.24 0c-0.13,0 -0.23,-0.1 -0.23,-0.23l0 -0.24zm-0.48 0.95l0.24 0c0.13,0 0.24,0.1 0.24,0.23l0 0.24c0,0.13 -0.11,0.24 -0.24,0.24l-0.24 0c-0.13,0 -0.23,-0.11 -0.23,-0.24l0 -0.24c0,-0.13 0.1,-0.23 0.23,-0.23zm-0.47 -1.19c0.13,0 0.24,0.11 0.24,0.24l0 0.24c0,0.13 -0.11,0.23 -0.24,0.23l-0.24 0c-0.13,0 -0.23,-0.1 -0.23,-0.23l0 -0.24c0,-0.13 0.1,-0.24 0.23,-0.24l0.24 0zm-2.01 -2.24l0 -0.48 2.84 0 0 0.48 -2.84 0zm0.59 2.95l-0.23 0c-0.14,0 -0.24,-0.1 -0.24,-0.23l0 -0.24c0,-0.13 0.1,-0.24 0.24,-0.24l0.23 0c0.13,0 0.24,0.11 0.24,0.24l0 0.24c0,0.13 -0.11,0.23 -0.24,0.23zm0.24 0.95l0 -0.24c0,-0.13 0.1,-0.23 0.23,-0.23l0.24 0c0.13,0 0.24,0.1 0.24,0.23l0 0.24c0,0.13 -0.11,0.24 -0.24,0.24l-0.24 0c-0.13,0 -0.23,-0.11 -0.23,-0.24zm3.19 1.66c0,0.06 -0.05,0.11 -0.12,0.11l-2.6 0c-0.06,0 -0.12,-0.05 -0.12,-0.11l0 -0.24c0,-0.07 0.06,-0.12 0.12,-0.12l2.6 0c0.07,0 0.12,0.05 0.12,0.12l0 0.24zm0.36 -1.66c0,0.13 -0.11,0.24 -0.24,0.24l-0.24 0c-0.13,0 -0.23,-0.11 -0.23,-0.24l0 -0.24c0,-0.13 0.1,-0.23 0.23,-0.23l0.24 0c0.13,0 0.24,0.1 0.24,0.23l0 0.24zm0.71 -1.18c0,0.13 -0.11,0.23 -0.24,0.23l-0.24 0c-0.13,0 -0.23,-0.1 -0.23,-0.23l0 -0.24c0,-0.13 0.1,-0.24 0.23,-0.24l0.24 0c0.13,0 0.24,0.11 0.24,0.24l0 0.24z"/>
  <g id="_1542129923440">
   <g>
    <g>
     <g>
      <path class="fil1" d="M192.51 238.25c-0.83,0 -1.49,0.67 -1.49,1.49 0,0.82 0.66,1.49 1.49,1.49 0.82,0 1.48,-0.67 1.48,-1.49 0,-0.82 -0.66,-1.49 -1.48,-1.49z"/>
      <path class="fil1" d="M192.51 236.02c-2.49,0 -4.61,1.54 -5.47,3.72 0.86,2.18 2.98,3.72 5.47,3.72 2.48,0 4.6,-1.54 5.46,-3.72 -0.86,-2.18 -2.98,-3.72 -5.46,-3.72zm0 6.2c-1.37,0 -2.49,-1.11 -2.49,-2.48 0,-1.37 1.12,-2.48 2.49,-2.48 1.37,0 2.48,1.11 2.48,2.48 0,1.37 -1.11,2.48 -2.48,2.48z"/>
     </g>
    </g>
   </g>
   <g>
   </g>
   <g>
   </g>
   <g>
   </g>
   <g>
   </g>
   <g>
   </g>
   <g>
   </g>
   <g>
   </g>
   <g>
   </g>
   <g>
   </g>
   <g>
   </g>
   <g>
   </g>
   <g>
   </g>
   <g>
   </g>
   <g>
   </g>
   <g>
   </g>
  </g>
  <rect class="fil1" x="33.7" y="309.78" width="11.29" height="11.29" rx="3.68" ry="3.68"/>
  <rect class="fil1" x="77.09" y="312.12" width="33.96" height="6.62" rx="1.84" ry="1.84"/>
  <rect class="fil1" x="162.73" y="309.78" width="11.29" height="11.29" rx="3.68" ry="3.68"/>
  <rect class="fil1" x="206.13" y="312.12" width="33.96" height="6.62" rx="1.84" ry="1.84"/>
 </g>
</svg>
