

<svg id="Capa_1" enable-background="new 0 0 512 512" height="512" viewBox="0 0 512 512" width="512" xmlns="http://www.w3.org/2000/svg"><g><path d="m479.213 399.896-210-392.601c-2.622-4.863-7.918-7.295-13.213-7.295s-10.591 2.432-13.213 7.295l-210 392.601c-1.992 3.706-2.329 8.071-.952 12.056h224.165 224.165c1.377-3.985 1.04-8.35-.952-12.056z" fill="#6aa9ff"/><path d="m479.213 399.896-210-392.601c-2.622-4.863-7.918-7.295-13.213-7.295v411.951h224.165c1.377-3.984 1.04-8.349-.952-12.055z" fill="#4895ff"/><path d="m262.606 303.533c-2.083-1.022-4.345-1.533-6.606-1.533s-4.523.511-6.606 1.533l-217.559 108.418c1.392 3.97 4.38 7.178 8.262 8.833l210 90c1.875.806 3.896 1.216 5.903 1.216s4.028-.41 5.903-1.216l210-90c3.882-1.655 6.87-4.863 8.262-8.833z" fill="#7ed8f6"/><path d="m471.903 420.784c3.882-1.655 6.87-4.863 8.262-8.833l-217.559-108.418c-2.083-1.022-4.345-1.533-6.606-1.533v210c2.007 0 4.028-.41 5.903-1.216z" fill="#6aa9ff"/></g></svg>