<svg xmlns="http://www.w3.org/2000/svg" xmlns:xlink="http://www.w3.org/1999/xlink" width="512" height="512" viewBox="0 0 510 510"><linearGradient id="a"><stop offset="0" stop-color="#b3dafe"/><stop offset="1" stop-color="#7bacdf"/></linearGradient><linearGradient xlink:href="#a" id="e" x1="342.403" x2="467.979" y1="252.76" y2="352.795" gradientUnits="userSpaceOnUse"/><linearGradient id="b"><stop offset="0" stop-color="#7bacdf" stop-opacity="0"/><stop offset="1" stop-color="#0681af"/></linearGradient><linearGradient xlink:href="#b" id="f" x1="426.255" x2="364.255" y1="302.409" y2="291.076" gradientUnits="userSpaceOnUse"/><linearGradient xlink:href="#a" id="g" x1="129.291" x2="295.428" y1="300.207" y2="300.207" gradientUnits="userSpaceOnUse"/><linearGradient xlink:href="#b" id="h" x1="210.49" x2="210.49" y1="390.677" y2="462.736" gradientUnits="userSpaceOnUse"/><linearGradient id="i" x1="211.214" x2="211.214" y1="477.704" y2="499.925" gradientUnits="userSpaceOnUse"><stop offset="0" stop-color="#f9f5f3"/><stop offset="1" stop-color="#efe2dd"/></linearGradient><linearGradient id="j" x1="211.214" x2="211.214" y1="478.768" y2="512.1" gradientUnits="userSpaceOnUse"><stop offset="0" stop-color="#9e9797" stop-opacity="0"/><stop offset=".311" stop-color="#979090" stop-opacity=".311"/><stop offset=".786" stop-color="#817a7a" stop-opacity=".786"/><stop offset="1" stop-color="#766e6e"/></linearGradient><linearGradient id="c"><stop offset="0" stop-color="#f2f2f2"/><stop offset="1" stop-color="#fff5c6"/></linearGradient><linearGradient xlink:href="#c" id="k" x1="131.274" x2="239.565" y1="79.99" y2="152.475" gradientUnits="userSpaceOnUse"/><linearGradient id="d"><stop offset="0" stop-color="#fea613" stop-opacity="0"/><stop offset=".183" stop-color="#fc9b19" stop-opacity=".183"/><stop offset=".509" stop-color="#f57d28" stop-opacity=".509"/><stop offset=".936" stop-color="#eb4c40" stop-opacity=".936"/><stop offset="1" stop-color="#e94444"/></linearGradient><linearGradient xlink:href="#d" id="l" x1="152.751" x2="354.666" y1="94.366" y2="229.519" gradientUnits="userSpaceOnUse"/><linearGradient xlink:href="#b" id="m" x1="145.958" x2="149.726" y1="116.845" y2="172.655" gradientUnits="userSpaceOnUse"/><linearGradient xlink:href="#c" id="n" x1="138.946" x2="295.152" y1="109.373" y2="248.635" gradientUnits="userSpaceOnUse"/><linearGradient xlink:href="#d" id="o" x1="240.409" x2="338.22" y1="193.637" y2="260.591" gradientUnits="userSpaceOnUse"/><linearGradient xlink:href="#b" id="p" x1="210.49" x2="210.49" y1="192.504" y2="-35.452" gradientUnits="userSpaceOnUse"/><linearGradient id="q" x1="163.01" x2="276.01" y1="226.98" y2="330.98" gradientUnits="userSpaceOnUse"><stop offset="0" stop-color="#883f2e"/><stop offset="1" stop-color="#433f43"/></linearGradient><linearGradient id="r" x1="210.49" x2="210.49" y1="360" y2="419" gradientUnits="userSpaceOnUse"><stop offset="0" stop-color="#433f43" stop-opacity="0"/><stop offset="1" stop-color="#1a1a1a"/></linearGradient><path fill="url(#e)" d="M437.364 181.083c-44.077-19.965-101.763 12.321-128.846 72.112s-13.306 124.446 30.771 144.411 101.763-12.321 128.846-72.112c27.083-59.792 13.306-124.447-30.771-144.411m-4.888 128.258c-14.982 33.076-46.893 50.936-71.276 39.892s-32.004-46.811-17.022-79.886c14.982-33.076 46.893-50.936 71.276-39.892s32.004 46.811 17.022 79.886"/><path fill="url(#f)" d="M380.081 180.89c-28.478 10.876-55.445 36.715-71.557 72.302-27.084 59.798-13.313 124.448 30.766 144.412s101.759-12.323 128.843-72.11c6.598-14.58 10.78-29.446 12.675-43.888zm52.39 128.449c-14.973 33.075-46.889 50.943-71.27 39.897s-32.001-46.814-17.027-79.89c14.984-33.075 46.899-50.933 71.28-39.886 24.382 11.036 32.002 46.804 17.017 79.879"/><path fill="url(#g)" d="M210.49 470.412c-94.002 0-170.206-76.204-170.206-170.205V151.063c0-11.632 9.43-21.062 21.062-21.062h298.287c11.632 0 21.062 9.43 21.062 21.062v149.144c.001 94.001-76.203 170.205-170.205 170.205"/><path fill="url(#h)" d="M43.03 330.787c14.407 79.407 83.899 139.625 167.461 139.625s153.054-60.218 167.461-139.625z"/><path fill="url(#i)" d="M322.804 510H99.623a80.73 80.73 0 0 1-68.916-38.684l-1.315-2.156c-3.855-6.319.693-14.422 8.095-14.422H384.94c7.402 0 11.95 8.103 8.095 14.422l-1.315 2.156A80.73 80.73 0 0 1 322.804 510"/><path fill="url(#j)" d="M322.804 510H99.623a80.73 80.73 0 0 1-68.916-38.684l-1.315-2.156c-3.855-6.319.693-14.422 8.095-14.422H384.94c7.402 0 11.95 8.103 8.095 14.422l-1.315 2.156A80.73 80.73 0 0 1 322.804 510"/><path fill="url(#k)" d="M300.215 104.686a62 62 0 0 0-9.572 1.974l-166.262 48.417c-17.082 4.978-30.269 16.663-37.378 31.212 2.969-18.864 16.733-35.317 36.767-41.151h.017c35.544-10.358 62.564-39.509 67.822-75.297 2.288-15.58.786-31.928-5.152-47.753l-.105-.28c-4.698-12.471 7.144-24.82 20.226-21.152 31.247 8.751 57.726 31.963 68.538 64.73a94 94 0 0 1 3.738 15.597c1.659 10.916 9.519 19.754 20.226 23.318.384.123.768.262 1.135.385"/><path fill="url(#l)" d="M300.215 104.686a62 62 0 0 0-9.572 1.974l-166.262 48.417c-17.082 4.978-30.269 16.663-37.378 31.212 2.969-18.864 16.733-35.317 36.767-41.151h.017c35.544-10.358 62.564-39.509 67.822-75.297 2.288-15.58.786-31.928-5.152-47.753l-.105-.28c-4.698-12.471 7.144-24.82 20.226-21.152 31.247 8.751 57.726 31.963 68.538 64.73a94 94 0 0 1 3.738 15.597c1.659 10.916 9.519 19.754 20.226 23.318.384.123.768.262 1.135.385"/><path fill="url(#m)" d="M154.597 130.001a99.3 99.3 0 0 1-30.81 15.137h-.017c-20.034 5.834-33.797 22.287-36.767 41.151 7.109-14.55 20.296-26.234 37.378-31.212l86.107-25.075h-55.891z"/><path fill="url(#n)" d="m297.217 201.176-143.476 41.779c-27.711 8.069-56.885-7.287-65.163-34.298s7.475-55.45 35.186-63.52l143.476-41.779c27.711-8.069 56.885 7.287 65.163 34.298s-7.476 55.451-35.186 63.52"/><path fill="url(#o)" d="m297.217 201.176-143.476 41.779c-27.711 8.069-56.885-7.287-65.163-34.298s7.475-55.45 35.186-63.52l143.476-41.779c27.711-8.069 56.885 7.287 65.163 34.298s-7.476 55.451-35.186 63.52"/><path fill="url(#p)" d="M332.403 137.657a50.6 50.6 0 0 0-3.055-7.656H175.744l-51.98 15.136c-27.711 8.069-43.464 36.508-35.186 63.52s37.453 42.368 65.163 34.298l143.476-41.779c27.71-8.069 43.464-36.508 35.186-63.519"/><path fill="url(#q)" d="M79.038 205.551v97.698c0 72.599 58.853 131.452 131.452 131.452s131.452-58.853 131.452-131.452V188.04c0-9.044-6.962-16.581-15.98-17.273-110.034-8.442-130.773 25.168-228.288 17.512-10.052-.789-18.636 7.188-18.636 17.272"/><path fill="url(#r)" d="M81.936 330.787c12.658 59.377 65.401 103.915 128.554 103.915s115.896-44.538 128.554-103.915z"/></svg>