<svg xmlns:xlink="http://www.w3.org/1999/xlink" height="512pt" viewBox="0 -58 512 512" width="512pt"
     xmlns="http://www.w3.org/2000/svg">
    <linearGradient id="a" gradientUnits="userSpaceOnUse" x1="237.3677192488" x2="435.3878200218" y1="210.5469637548"
                    y2="454.9505699484">
        <stop offset="0" stop-color="#445ea0"/>
        <stop offset=".3216" stop-color="#415a9b"/>
        <stop offset=".6926" stop-color="#364d8d"/>
        <stop offset="1" stop-color="#2a3d7c"/>
    </linearGradient>
    <linearGradient id="b">
        <stop offset="0" stop-color="#2a3d7c" stop-opacity="0"/>
        <stop offset=".3949" stop-color="#273a77" stop-opacity=".396078"/>
        <stop offset=".8504" stop-color="#1e3069" stop-opacity=".85098"/>
        <stop offset="1" stop-color="#1a2b63"/>
    </linearGradient>
    <linearGradient id="c" gradientUnits="userSpaceOnUse" x1="330.2288979736" x2="310.0095073248" xlink:href="#b"
                    y1="73.3339165608" y2="11.4864986132"/>
    <linearGradient id="d">
        <stop offset="0" stop-color="#ffd00d"/>
        <stop offset=".2378" stop-color="#ffcb0e"/>
        <stop offset=".5353" stop-color="#fb1"/>
        <stop offset=".8632" stop-color="#ffa215"/>
        <stop offset="1" stop-color="#ff9517"/>
    </linearGradient>
    <linearGradient id="e" gradientUnits="userSpaceOnUse" x1="256.00011" x2="256.00011" xlink:href="#d" y1="19.45703694"
                    y2="62.537839765"/>
    <linearGradient id="f" gradientUnits="userSpaceOnUse" x1="256.00011" x2="256.00011" xlink:href="#b"
                    y1="342.5207428152" y2="392.5990827646"/>
    <linearGradient id="g" gradientUnits="userSpaceOnUse" x1="237.0468657776" x2="485.239675168" xlink:href="#d"
                    y1="149.4979649738" y2="149.4979649738"/>
    <linearGradient id="h" gradientUnits="userSpaceOnUse" x1="237.0468657776" x2="485.239675168" xlink:href="#d"
                    y1="205.528458069" y2="205.528458069"/>
    <linearGradient id="i" gradientUnits="userSpaceOnUse" x1="237.0468657776" x2="381.7598126648" xlink:href="#d"
                    y1="261.5589511642" y2="261.5589511642"/>
    <linearGradient id="j" gradientUnits="userSpaceOnUse" x1="237.0468657776" x2="381.7598126648" xlink:href="#d"
                    y1="317.5895446516" y2="317.5895446516"/>
    <linearGradient id="k" gradientUnits="userSpaceOnUse" x1="33.6748568226" x2="201.3677790742" y1="233.5438050088"
                    y2="233.5438050088">
        <stop offset="0" stop-color="#00e7b2"/>
        <stop offset=".2459" stop-color="#05e5b1"/>
        <stop offset=".5301" stop-color="#13ddac"/>
        <stop offset=".8322" stop-color="#2ad1a5"/>
        <stop offset="1" stop-color="#3ac9a0"/>
    </linearGradient>
    <linearGradient id="l">
        <stop offset="0" stop-color="#3ac9a0" stop-opacity="0"/>
        <stop offset=".0351" stop-color="#38c69d" stop-opacity=".035294"/>
        <stop offset=".4167" stop-color="#23aa82" stop-opacity=".415686"/>
        <stop offset=".7511" stop-color="#169971" stop-opacity=".752941"/>
        <stop offset="1" stop-color="#11936b"/>
    </linearGradient>
    <linearGradient id="m" gradientUnits="userSpaceOnUse" x1="182.3400438394" x2="91.150094068" xlink:href="#l"
                    y1="251.8390787524" y2="198.8901242362"/>
    <linearGradient id="n" gradientUnits="userSpaceOnUse" x1="164.4531655654" x2="81.9372022662" xlink:href="#l"
                    y1="338.0761793368" y2="250.8832446162"/>
    <linearGradient id="o">
        <stop offset="0" stop-color="#fffcf8"/>
        <stop offset=".1875" stop-color="#faf8f6"/>
        <stop offset=".4041" stop-color="#eceef2"/>
        <stop offset=".6353" stop-color="#d5dcea"/>
        <stop offset=".875" stop-color="#b5c4df"/>
        <stop offset="1" stop-color="#a1b5d8"/>
    </linearGradient>
    <linearGradient id="p" gradientUnits="userSpaceOnUse" x1="120.045479033" x2="120.045479033" xlink:href="#o"
                    y1="171.2478347116" y2="251.8262285508"/>
    <linearGradient id="q" gradientUnits="userSpaceOnUse" x1="120.045479033" x2="120.045479033" xlink:href="#o"
                    y1="268.1698779264" y2="337.0445490896"/>
    <linearGradient id="r" gradientUnits="userSpaceOnUse" x1="156.8042838474" x2="104.3126158022" y1="296.7524407962"
                    y2="278.1262743614">
        <stop offset="0" stop-color="#a1b5d8" stop-opacity="0"/>
        <stop offset=".2564" stop-color="#98abca" stop-opacity=".254902"/>
        <stop offset=".7358" stop-color="#8292a6" stop-opacity=".737255"/>
        <stop offset="1" stop-color="#748290"/>
    </linearGradient>
    <linearGradient id="s">
        <stop offset="0" stop-color="#ff4974"/>
        <stop offset=".3262" stop-color="#fe4672"/>
        <stop offset=".5324" stop-color="#fb3e6c"/>
        <stop offset=".7054" stop-color="#f52f60"/>
        <stop offset=".8591" stop-color="#ee1a51"/>
        <stop offset="1" stop-color="#e4003d"/>
    </linearGradient>
    <linearGradient id="t" gradientUnits="userSpaceOnUse" x1="108.9279464128" x2="131.1630116532" xlink:href="#s"
                    y1="290.3053541044" y2="290.3053541044"/>
    <linearGradient id="u" gradientUnits="userSpaceOnUse" x1="132.939853201" x2="113.6531060902" y1="275.4723061622"
                    y2="256.1855590514">
        <stop offset="0" stop-color="#e4003d" stop-opacity="0"/>
        <stop offset=".2234" stop-color="#cd1845" stop-opacity=".223529"/>
        <stop offset=".5034" stop-color="#b82e4d" stop-opacity=".501961"/>
        <stop offset=".7682" stop-color="#ab3c51" stop-opacity=".768627"/>
        <stop offset="1" stop-color="#a64153"/>
    </linearGradient>
    <linearGradient id="v" gradientUnits="userSpaceOnUse" x1="107.2283064668" x2="132.8593386566" xlink:href="#s"
                    y1="254.9225247832" y2="254.9225247832"/>
    <path d="m503.648438 70.316406h-114.925782c-4.855468 0-9.101562-3.25-10.371094-7.921875l-7.78125-28.511719c-2.863281-10.523437-12.425781-17.828124-23.347656-17.828124h-182.445312c-10.921875 0-20.484375 7.304687-23.347656 17.828124l-7.78125 28.511719c-1.269532 4.671875-5.515626 7.921875-10.371094 7.921875h-114.925782c-4.617187 0-8.351562 3.734375-8.351562 8.335938v309.78125c0 4.605468 3.734375 8.339844 8.351562 8.339844h495.296876c4.617187 0 8.351562-3.734376 8.351562-8.339844v-309.78125c0-4.601563-3.734375-8.335938-8.351562-8.335938zm-185.300782-4.402344c-2.261718 2.257813-5.378906 3.664063-8.824218 3.664063h-107.046876c-6.898437 0-12.488281-5.589844-12.488281-12.488281 0-3.453125 1.40625-6.566406 3.664063-8.828125 2.261718-2.257813 5.375-3.664063 8.824218-3.664063h107.042969c6.898438 0 12.488281 5.589844 12.488281 12.492188.003907 3.449218-1.402343 6.5625-3.660156 8.824218zm0 0"
          fill="url(#a)"/>
    <path d="m311.472656 16.054688h-26.332031v28.546874h24.378906c6.898438 0 12.492188 5.589844 12.492188 12.488282 0 3.449218-1.40625 6.566406-3.664063 8.824218-2.261718 2.261719-5.378906 3.664063-8.824218 3.664063h-24.382813v22.726563h102.582031zm0 0"
          fill="url(#c)"/>
    <path d="m306.246094 53.519531h-100.492188c-2.550781 0-4.617187-2.070312-4.617187-4.621093v-44.28125c0-2.550782 2.066406-4.617188 4.617187-4.617188h100.492188c2.550781 0 4.621094 2.066406 4.621094 4.617188v44.28125c-.003907 2.550781-2.070313 4.621093-4.621094 4.621093zm0 0"
          fill="url(#e)"/>
    <path d="m0 306.839844v81.59375c0 4.605468 3.734375 8.339844 8.351562 8.339844h495.296876c4.617187 0 8.351562-3.734376 8.351562-8.339844v-81.59375zm0 0"
          fill="url(#f)"/>
    <path d="m237.046875 140.578125h248.191406v17.839844h-248.191406zm0 0" fill="url(#g)"/>
    <path d="m237.046875 196.609375h248.191406v17.839844h-248.191406zm0 0" fill="url(#h)"/>
    <path d="m237.046875 252.640625h144.714844v17.839844h-144.714844zm0 0" fill="url(#i)"/>
    <path d="m237.046875 308.667969h144.714844v17.839843h-144.714844zm0 0" fill="url(#j)"/>
    <path d="m191.601562 354.851562h-148.160156c-5.394531 0-9.765625-4.371093-9.765625-9.765624v-223.085938c0-5.390625 4.371094-9.765625 9.765625-9.765625h148.15625c5.394532 0 9.769532 4.375 9.769532 9.765625v223.085938c0 5.394531-4.371094 9.765624-9.765626 9.765624zm0 0"
          fill="url(#k)"/>
    <path d="m154.214844 161.207031 47.15625 47.15625v131.246094l-91.984375-91.996094-20.789063-20.789062c-9.21875-8.492188-14.988281-20.660157-14.988281-34.171875 0-25.640625 20.792969-46.441406 46.433594-46.441406 13.511719-.003907 25.679687 5.777343 34.171875 14.996093zm0 0"
          fill="url(#m)"/>
    <path d="m167.214844 266.308594 34.15625 34.183594v44.589843c0 5.398438-4.375 9.765625-9.777344 9.765625h-80.695312l-55.960938-55.902344c5.863281-26.460937 27.453125-46.988281 54.449219-51.332031 3.484375-.546875 7.042969-.84375 10.65625-.84375 18.425781 0 35.097656 7.480469 47.171875 19.539063zm0 0"
          fill="url(#n)"/>
    <path d="m166.488281 192.65625c0 25.648438-20.792969 46.441406-46.441406 46.441406-25.652344 0-46.445313-20.792968-46.445313-46.441406s20.792969-46.441406 46.445313-46.441406c25.648437 0 46.441406 20.792968 46.441406 46.441406zm0 0"
          fill="url(#p)"/>
    <path d="m185.15625 298.949219c-16.582031 16.808593-39.632812 27.214843-65.109375 27.214843-25.480469 0-48.53125-10.40625-65.113281-27.214843 6.625-29.859375 33.253906-52.175781 65.113281-52.175781 18.421875 0 35.09375 7.472656 47.160156 19.539062 8.808594 8.792969 15.164063 20.050781 17.949219 32.636719zm0 0"
          fill="url(#q)"/>
    <path d="m185.15625 298.949219c-.257812.269531-.53125.53125-.800781.789062-15.679688 15.519531-36.957031 25.386719-60.527344 26.335938l-11.777344-11.796875-.179687-.148438c-2.078125-1.714844-3.160156-4.34375-2.910156-7.03125l4.097656-42.601562c.078125-.746094.394531-1.414063.867187-1.945313-.042969-.054687-.078125-.109375-.125-.179687-.664062-.429688-1.230469-1.039063-1.566406-1.792969l-4.71875-10.453125c-.328125-.710938-.363281-1.46875-.171875-2.144531.601562-.113281 1.199219-.226563 1.808594-.316407.425781-.078124.867187-.148437 1.296875-.203124.339843-.054688.6875-.101563 1.039062-.148438.394531-.042969.789063-.101562 1.195313-.132812.484375-.058594.972656-.101563 1.457031-.148438.472656-.042969.960937-.078125 1.445313-.113281.496093-.03125.992187-.054688 1.488281-.078125.984375-.042969 1.976562-.066406 2.96875-.066406 1.816406 0 3.625.066406 5.40625.214843.476562.042969.949219.078125 1.414062.136719.960938.089844 1.917969.214844 2.867188.347656.460937.066406.9375.148438 1.398437.226563.542969.078125 1.082032.179687 1.613282.292969 13.332031 2.5625 25.242187 9.097656 34.464843 18.320312 8.808594 8.792969 15.164063 20.046875 17.949219 32.636719zm0 0"
          fill="url(#r)"/>
    <path d="m128.21875 314.136719-4.644531 3.839843c-2.046875 1.695313-5.011719 1.695313-7.058594 0l-4.644531-3.839843c-2.074219-1.71875-3.164063-4.355469-2.90625-7.035157l4.097656-42.605468c.171875-1.777344 1.664062-3.132813 3.449219-3.132813h7.066406c1.785156 0 3.28125 1.355469 3.449219 3.132813l4.097656 42.605468c.257812 2.679688-.828125 5.316407-2.90625 7.035157zm0 0"
          fill="url(#t)"/>
    <path d="m127.027344 264.5c-.171875-1.78125-1.664063-3.136719-3.449219-3.136719h-7.066406c-1.050781 0-1.996094.480469-2.632813 1.230469l14.347656 14.347656zm0 0"
          fill="url(#u)"/>
    <path d="m132.574219 250.125-4.714844 10.453125c-.691406 1.523437-2.203125 2.496094-3.886719 2.496094h-7.855468c-1.679688 0-3.195313-.972657-3.882813-2.496094l-4.71875-10.453125c-.328125-.710938-.359375-1.46875-.167969-2.144531 4.109375-.789063 8.351563-1.207031 12.699219-1.207031 4.34375 0 8.589844.417968 12.699219 1.21875.191406.675781.144531 1.421874-.171875 2.132812zm0 0"
          fill="url(#v)"/>
</svg>