<?xml version="1.0"?>


<svg xmlns="http://www.w3.org/2000/svg" xmlns:xlink="http://www.w3.org/1999/xlink" version="1.1" id="Capa_1" x="0px" y="0px" viewBox="0 0 512 512" style="enable-background:new 0 0 512 512;" xml:space="preserve" width="512px" height="512px" class=""><g><g>
	<path d="M482.32,167h-24.457L343.156,57.129c6.844-14.879,4.138-33.069-8.121-45.328   c-15.734-15.734-41.238-15.734-56.972,0c-15.734,15.734-15.734,41.238,0,56.972c11.722,11.722,28.867,14.709,43.355,8.964   L414.609,167H97.652l93.19-89.261c4.601,1.829,9.618,2.835,14.87,2.835c22.247,0,40.287-18.04,40.287-40.287S227.96,0,205.713,0   c-22.247,0-40.287,18.04-40.287,40.287c0,6.012,1.32,11.716,3.681,16.84L54.398,167H29.68C13.326,167,0,180.325,0,196.679v28.641   C0,241.675,13.326,255,29.68,255h452.64c16.354,0,29.68-13.326,29.68-29.68v-28.641C512,180.326,498.674,167,482.32,167z" data-original="#000000" class="active-path" data-old_color="#000000" fill="#FFFFFF"/>
	<path d="M329.639,285.001H49.514c12.375,54.072,24.79,108.135,37.197,162.199   c4.673,20.363,22.296,34.8,43.105,34.8h158.866c-5.527-8.033-10.262-16.723-14.084-25.951   C248.486,393.011,272.229,320.544,329.639,285.001z M197.999,308.5c8.262,0,15,6.738,15,15c0,8.262-6.739,15-15,15   c-8.262,0-15-6.739-15-15C182.999,315.238,189.738,308.5,197.999,308.5z M108,398.5c-8.262,0-15-6.739-15-15s6.738-15,15-15   c8.262,0,15,6.738,15,15S116.262,398.5,108,398.5z M138,458.5c-8.262,0-15-6.739-15-15c0-8.262,6.739-15,15-15   c8.262,0,15,6.738,15,15C153,451.762,146.261,458.5,138,458.5z M138,338.5c-8.262,0-15-6.739-15-15c0-8.262,6.739-15,15-15   c8.262,0,15,6.738,15,15C153,331.762,146.261,338.5,138,338.5z M168.002,398.5c-8.262,0-15-6.739-15-15s6.739-15,15-15   c8.262,0,15,6.738,15,15S176.264,398.5,168.002,398.5z M197.999,458.5c-8.262,0-15-6.739-15-15c0-8.262,6.738-15,15-15   c8.262,0,15,6.738,15,15C213,451.762,206.261,458.5,197.999,458.5z M228,398.5c-8.262,0-15-6.739-15-15s6.739-15,15-15   c8.262,0,15,6.738,15,15S236.262,398.5,228,398.5z M242.997,323.5c0-8.262,6.739-15,15-15s15,6.738,15,15c0,8.262-6.739,15-15,15   S242.997,331.762,242.997,323.5z" data-original="#000000" class="active-path" data-old_color="#000000" fill="#FFFFFF"/>
	<path d="M403,294c-60.196,0-109,48.804-109,109c0,60.196,48.804,109,109,109   c60.196,0,109-48.804,109-109C512,342.804,463.196,294,403,294z M441.528,418h-23.529v23.528c0,8.284-6.716,15-15,15   s-15-6.716-15-15V418h-23.528c-8.284,0-15-6.716-15-15s6.716-15,15-15h23.528v-23.529c0-8.284,6.716-15,15-15s15,6.716,15,15V388   h23.529c8.284,0,15,6.716,15,15S449.812,418,441.528,418z" data-original="#000000" class="active-path" data-old_color="#000000" fill="#FFFFFF"/>
</g></g> </svg>
