<svg id="Capa_1" enable-background="new 0 0 512 512" height="512" viewBox="0 0 512 512" width="512" xmlns="http://www.w3.org/2000/svg"><g><g><path d="m437.755 181.755c0 141.045-121.407 278.13-165.771 323.514-8.773 8.975-23.196 8.975-31.969 0-44.363-45.384-165.77-182.469-165.77-323.514 0-100.381 81.375-181.755 181.755-181.755s181.755 81.374 181.755 181.755z" fill="#ffd064"/></g><g><path d="m329.512 15.481c26.818 31.669 42.999 72.645 42.999 117.393 0 147.678-133.088 291.008-171.491 329.293 15.363 18.279 29.099 32.978 38.996 43.103 8.773 8.975 23.196 8.975 31.969 0 44.363-45.384 165.771-182.469 165.771-323.514-.001-74.216-44.488-138.044-108.244-166.275z" fill="#ffc250"/></g><g><g><circle cx="256" cy="181.988" fill="#f9f6f9" r="137.489"/></g><g><path d="m328.475 65.131c13.077 21.042 20.628 45.873 20.628 72.47 0 75.933-61.556 137.489-137.489 137.489-26.597 0-51.434-7.559-72.475-20.636 24.257 39.032 67.526 65.023 116.862 65.023 75.933 0 137.489-61.556 137.489-137.489-.001-49.336-25.984-92.6-65.015-116.857z" fill="#ddeafb"/></g></g><path d="m326.407 142.172c-1.707-2.023-4.205-3.185-6.853-3.185h-111.419l-1.548-8.199c-1.59-8.433-8.972-14.553-17.553-14.553h-13.939c-4.118 0-7.457 3.338-7.457 7.457s3.339 7.457 7.457 7.457h13.939c1.416 0 2.634 1.011 2.897 2.404l22.07 116.888c.665 3.523 3.743 6.073 7.327 6.073h5.031c-2.203 2.462-3.553 5.702-3.553 9.266 0 7.686 6.231 13.917 13.917 13.917s13.917-6.231 13.917-13.917c0-3.564-1.351-6.804-3.553-9.266h30.678c-2.203 2.462-3.553 5.702-3.553 9.266 0 7.686 6.231 13.917 13.917 13.917s13.917-6.231 13.917-13.917c0-3.564-1.351-6.804-3.553-9.266h6.711c4.118 0 7.457-3.338 7.457-7.457s-3.339-7.457-7.457-7.457h-77.694l-3.043-16.114h83.338c3.583 0 6.659-2.548 7.326-6.068l13.236-69.824c.008-.043.016-.086.024-.13.446-2.609-.276-5.267-1.984-7.292zm-17.994 32.608h-21.409l1.526-20.879h23.84zm-53.879 35.794-1.526-20.88h17.953l-1.526 20.88zm-2.616-35.794-1.526-20.879h23.185l-1.526 20.879zm-16.48-20.878 1.526 20.879h-22.071l-3.942-20.879zm-17.729 35.792h20.345l1.526 20.88h-17.929zm66.679 20.88 1.526-20.88h19.672l-3.958 20.88z" fill="#756e78"/><g fill="#665e66"><path d="m225.785 274.367c2.548 3.241 6.495 5.331 10.938 5.331 6.351 0 11.697-4.259 13.367-10.073-7.836 2.28-15.958 3.887-24.305 4.742z"/><path d="m288.128 279.698c7.686 0 13.917-6.231 13.917-13.917 0-3.564-1.351-6.804-3.553-9.266h6.71c4.118 0 7.457-3.338 7.457-7.457s-3.339-7.457-7.457-7.457h-3.658c-7.818 6.767-16.412 12.658-25.623 17.542-1.081 1.973-1.71 4.228-1.71 6.638 0 7.686 6.231 13.917 13.917 13.917z"/></g></g></svg>