<?xml version="1.0"?>
<svg xmlns="http://www.w3.org/2000/svg" xmlns:xlink="http://www.w3.org/1999/xlink" xmlns:svgjs="http://svgjs.com/svgjs" version="1.1" width="512" height="512" x="0" y="0" viewBox="0 0 512 512" style="enable-background:new 0 0 512 512" xml:space="preserve" class=""><g>
<g xmlns="http://www.w3.org/2000/svg">
	<g>
		<path d="M192,0C86.112,0,0,86.112,0,192c0,133.088,173.312,307.936,180.672,315.328C183.808,510.432,187.904,512,192,512    s8.192-1.568,11.328-4.672c2.176-2.176,19.136-19.36,41.664-45.536C232,438.656,224,412.384,224,384    c0-87.2,69.824-157.792,156.576-159.648C382.592,213.376,384,202.528,384,192C384,86.112,297.888,0,192,0z M192,288    c-52.928,0-96-43.072-96-96s43.072-96,96-96c52.928,0,96,43.072,96,96C288,244.928,244.928,288,192,288z" fill="#0097a7" data-original="#000000" style=""/>
	</g>
</g>
<g xmlns="http://www.w3.org/2000/svg">
	<g>
		<path d="M384,256c-70.688,0-128,57.312-128,128s57.312,128,128,128s128-57.312,128-128S454.688,256,384,256z M443.328,363.328    l-64,64C376.192,430.432,372.096,432,368,432s-8.192-1.568-11.328-4.672l-32-32c-6.24-6.24-6.24-16.384,0-22.624    s16.384-6.24,22.624,0l20.672,20.672l52.672-52.672c6.24-6.24,16.384-6.24,22.624,0S449.568,357.056,443.328,363.328z" fill="#0097a7" data-original="#000000" style=""/>
	</g>
</g>
<g xmlns="http://www.w3.org/2000/svg">
</g>
<g xmlns="http://www.w3.org/2000/svg">
</g>
<g xmlns="http://www.w3.org/2000/svg">
</g>
<g xmlns="http://www.w3.org/2000/svg">
</g>
<g xmlns="http://www.w3.org/2000/svg">
</g>
<g xmlns="http://www.w3.org/2000/svg">
</g>
<g xmlns="http://www.w3.org/2000/svg">
</g>
<g xmlns="http://www.w3.org/2000/svg">
</g>
<g xmlns="http://www.w3.org/2000/svg">
</g>
<g xmlns="http://www.w3.org/2000/svg">
</g>
<g xmlns="http://www.w3.org/2000/svg">
</g>
<g xmlns="http://www.w3.org/2000/svg">
</g>
<g xmlns="http://www.w3.org/2000/svg">
</g>
<g xmlns="http://www.w3.org/2000/svg">
</g>
<g xmlns="http://www.w3.org/2000/svg">
</g>
</g></svg>
