<svg id="Capa_1" enable-background="new 0 0 512 512" height="512" viewBox="0 0 512 512" width="512" xmlns="http://www.w3.org/2000/svg" xmlns:xlink="http://www.w3.org/1999/xlink"><linearGradient id="SVGID_1_" gradientUnits="userSpaceOnUse" x1="288.716" x2="288.716" y1="270" y2="0"><stop offset="0" stop-color="#5558ff"/><stop offset="1" stop-color="#00c0ff"/></linearGradient><linearGradient id="SVGID_2_" gradientUnits="userSpaceOnUse" x1="256" x2="256" y1="512" y2="90"><stop offset="0" stop-color="#addcff"/><stop offset=".5028" stop-color="#eaf6ff"/><stop offset="1" stop-color="#eaf6ff"/></linearGradient><g><g><g><path d="m318.716 270h-60c-8.284 0-15-6.716-15-15v-25.548c-4.954-2.372-9.715-5.136-14.259-8.279l-22.165 12.798c-3.444 1.99-7.539 2.528-11.382 1.499s-7.119-3.543-9.108-6.989l-30-51.962c-1.989-3.445-2.528-7.54-1.499-11.382 1.03-3.843 3.544-7.119 6.989-9.108l21.823-12.6c-.268-2.9-.399-5.698-.399-8.429 0-2.73.132-5.529.399-8.429l-21.823-12.599c-3.445-1.989-5.959-5.266-6.989-9.108-1.029-3.843-.49-7.937 1.499-11.382l30-51.962c1.989-3.445 5.266-5.959 9.108-6.989 3.839-1.03 7.937-.491 11.382 1.499l22.165 12.797c4.544-3.143 9.305-5.908 14.259-8.28v-25.547c0-8.284 6.716-15 15-15h60c8.284 0 15 6.716 15 15v25.546c4.954 2.372 9.715 5.137 14.259 8.28l22.165-12.797c3.445-1.989 7.54-2.528 11.382-1.499 3.843 1.029 7.119 3.543 9.108 6.989l30 51.962c1.989 3.445 2.528 7.54 1.499 11.382-1.03 3.843-3.544 7.119-6.989 9.108l-21.823 12.599c.268 2.9.399 5.699.399 8.429 0 2.731-.132 5.529-.399 8.429l21.823 12.6c3.445 1.989 5.959 5.265 6.989 9.108 1.029 3.843.49 7.937-1.499 11.382l-30 51.962c-1.989 3.445-5.266 5.959-9.108 6.989-3.84 1.029-7.938.491-11.382-1.499l-22.165-12.797c-4.543 3.143-9.306 5.908-14.259 8.28v25.547c0 8.284-6.716 15-15 15z" fill="url(#SVGID_1_)"/></g></g><g><g><path d="m288.716 180c24.813 0 45-20.187 45-45s-20.187-45-45-45-45 20.187-45 45 20.187 45 45 45zm192.174 129.812c-14.154-14.154-37.103-14.154-51.258 0l-62.035 62.035c-14.069 14.069-33.15 21.973-53.047 21.973h-124.652c-8.291 0-15-6.709-15-15s6.709-15 15-15h105c16.569 0 30-13.431 30-30s-13.431-29.819-30-29.819h-140.145c-11.938 0-23.387 4.562-31.828 13.003l-91.815 91.814c-5.858 5.858-5.858 15.355 0 21.213l77.576 77.575c5.858 5.858 15.355 5.858 21.213 0l49.393-49.393c2.814-2.814 6.63-4.395 10.609-4.395h124.761c27.781 0 54.425-11.033 74.073-30.674l92.153-92.118c5.86-5.857 5.861-15.356.002-21.214z" fill="url(#SVGID_2_)"/></g></g></g></svg>