

<svg id="color" enable-background="new 0 0 24 24" height="512" viewBox="0 0 24 24" width="512" xmlns="http://www.w3.org/2000/svg"><path d="m15.75 0h-13.5c-1.24 0-2.25 1.01-2.25 2.25v12.5c0 1.24 1.01 2.25 2.25 2.25h7.31l-.66-.66c-.57-.57-.88-1.32-.87-2.13 0-.79.31-1.54.88-2.11.57-.56 1.32-.88 2.12-.88s1.55.31 2.11.88l.81.8c.3-.15.63-.24.97-.28.03-.02.05-.05.08-.08.57-.57 1.32-.88 2.12-.88.21 0 .42.02.62.06.08-.06.17-.11.26-.15v-9.32c0-1.24-1.01-2.25-2.25-2.25z" fill="#2196f3"/><path d="m20.166 13.463 2.796 2.796.009.009c1.664 1.664 1.173 3.935-.505 5.613l-1.183 1.183c-1.197 1.179-2.932 1.301-5.625.032s-3.157-.329-3.744-.916c-.214-.214-.23-.702.477-1.409 1.122-1.122 3.284-.487 3.284-.487l-5.36-5.36c-.387-.387-.383-1.015.008-1.406s1.019-.395 1.406-.008l2.796 2.796c-.205-.205-.302-.481-.282-.753.011-.234.106-.469.29-.653.391-.391 1.019-.395 1.406-.008l.466.466c-.205-.205-.302-.481-.282-.753.011-.234.106-.469.29-.653.391-.391 1.019-.395 1.406-.008l.932.932c-.205-.205-.302-.481-.282-.753.011-.234.106-.469.29-.653.393-.39 1.021-.394 1.407-.007z" fill="#ffcc80"/><g fill="#ffa726"><path d="m18.471 14.124 2.148 2.148c-.132.132-.338.133-.469.003l-1.398-1.398c-.205-.205-.302-.481-.281-.753z"/><path d="m16.124 14.606 2.615 2.615c-.132.132-.338.133-.469.003l-1.864-1.864c-.205-.206-.302-.482-.282-.754z"/><path d="m14.244 15.555 2.615 2.615c-.132.132-.338.133-.469.003l-1.864-1.864c-.205-.207-.302-.483-.282-.754z"/></g><path d="m11.5 10h-.75c-.414 0-.75-.336-.75-.75v-4.5c0-.414.336-.75.75-.75h.75c1.654 0 3 1.346 3 3s-1.346 3-3 3zm0-4.5v3c.827 0 1.5-.673 1.5-1.5s-.673-1.5-1.5-1.5z" fill="#fff"/><path d="m7.25 10c-.414 0-.75-.336-.75-.75v-3.25c0-.276-.224-.5-.5-.5s-.5.224-.5.5v3.25c0 .414-.336.75-.75.75s-.75-.336-.75-.75v-3.25c0-1.103.897-2 2-2s2 .897 2 2v3.25c0 .414-.336.75-.75.75z" fill="#fff"/><path d="m7.25 8.5h-2.5c-.414 0-.75-.336-.75-.75s.336-.75.75-.75h2.5c.414 0 .75.336.75.75s-.336.75-.75.75z" fill="#fff"/></svg>