<svg xmlns:xlink="http://www.w3.org/1999/xlink" height="512pt" viewBox="-27 0 512 512" width="512pt"
     xmlns="http://www.w3.org/2000/svg">
    <linearGradient id="a">
        <stop offset="0" stop-color="#ff4974"/>
        <stop offset=".4073" stop-color="#fe4772"/>
        <stop offset=".5963" stop-color="#fb3f6d"/>
        <stop offset=".7403" stop-color="#f73363"/>
        <stop offset=".8615" stop-color="#f02055"/>
        <stop offset=".9673" stop-color="#e70944"/>
        <stop offset="1" stop-color="#e4003d"/>
    </linearGradient>
    <radialGradient id="b" cx="252.0934594972" cy="262.7257850468" gradientUnits="userSpaceOnUse" r="249.0672254524"
                    xlink:href="#a"/>
    <radialGradient id="c" cx="3343.6545" cy="-3093.0195"
                    gradientTransform="matrix(-1.003922 0 0 -1.003922 3689.869553 -2692.517647)"
                    gradientUnits="userSpaceOnUse" r="152.5551" xlink:href="#a"/>
    <linearGradient id="d" gradientUnits="userSpaceOnUse" x1="298.4061884168" x2="212.4124385252" y1="352.7769860936"
                    y2="266.7831358098">
        <stop offset="0" stop-color="#e4003d" stop-opacity="0"/>
        <stop offset=".5838" stop-color="#bd294b" stop-opacity=".584314"/>
        <stop offset="1" stop-color="#a64153"/>
    </linearGradient>
    <radialGradient id="e" cx="173.66948227" cy="52.2549432376" gradientUnits="userSpaceOnUse" r="204.5680816258"
                    xlink:href="#a"/>
    <radialGradient id="f" cx="3436.189" cy="-2856.6931"
                    gradientTransform="matrix(-1.003922 0 0 -1.003922 3689.869553 -2692.517647)"
                    gradientUnits="userSpaceOnUse" r="125.2991" xlink:href="#a"/>
    <radialGradient id="g" cx="69.2044711082" cy="230.1923875382" gradientUnits="userSpaceOnUse" r="162.176069685"
                    xlink:href="#a"/>
    <radialGradient id="h" cx="3553.98" cy="-3008.5205"
                    gradientTransform="matrix(-1.003922 0 0 -1.003922 3689.869553 -2692.517647)"
                    gradientUnits="userSpaceOnUse" r="99.3338" xlink:href="#a"/>
    <path d="m444.929688 311.777344h-3.742188c-12.277344 0-18.417969-14.832032-9.742188-23.515625l2.644532-2.644531c5.382812-5.382813 5.382812-14.097657 0-19.484376l-42.417969-42.414062c-5.382813-5.382812-14.097656-5.382812-19.480469 0l-2.644531 2.640625c-8.683594 8.679687-23.515625 2.535156-23.515625-9.738281v-3.742188c0-7.605468-6.171875-13.773437-13.777344-13.773437h-59.996094c-7.605468 0-13.773437 6.167969-13.773437 13.773437v3.742188c0 12.277344-14.832031 18.417968-23.515625 9.738281l-2.644531-2.640625c-5.382813-5.382812-14.101563-5.382812-19.484375 0l-42.414063 42.414062c-5.382812 5.386719-5.382812 14.101563 0 19.484376l2.640625 2.644531c8.679688 8.683593 2.535156 23.515625-9.738281 23.515625h-3.742187c-7.605469 0-13.777344 6.171875-13.777344 13.777344v59.996093c0 7.605469 6.171875 13.773438 13.777344 13.773438h3.742187c12.277344 0 18.417969 14.832031 9.738281 23.515625l-2.640625 2.644531c-5.382812 5.382813-5.382812 14.101563 0 19.484375l42.414063 42.414062c5.382812 5.382813 14.101562 5.382813 19.484375 0l2.644531-2.640624c8.683594-8.679688 23.515625-2.539063 23.515625 9.738281v3.742187c0 7.605469 6.167969 13.777344 13.773437 13.777344h59.996094c5.699219 0 10.578125-3.46875 12.671875-8.402344.011719-.03125.027344-.066406.039063-.097656.101562-.242188.199218-.484375.285156-.730469.101562-.296875.199219-.59375.285156-.898437.039063-.140625.074219-.289063.113282-.4375.074218-.292969.136718-.589844.183593-.890625.027344-.15625.046875-.304688.066407-.453125.042968-.277344.070312-.554688.089843-.839844.011719-.101562.019531-.21875.019531-.324219.015626-.234375.019532-.46875.019532-.699219v-3.742187c0-12.277344 14.835937-18.421875 23.519531-9.742187l2.640625 2.644531c5.382812 5.382812 14.101562 5.382812 19.484375 0l42.417969-42.417969c5.382812-5.382812 5.382812-14.101562 0-19.484375l-2.644532-2.644531c-8.675781-8.683594-2.535156-23.515625 9.742188-23.515625h3.742188c.230468 0 .46875-.007813.699218-.019531.105469 0 .222656-.007813.324219-.019532.285156-.019531.5625-.046875.839844-.089844.148437-.019531.296875-.039062.453125-.066406.300781-.046875.597656-.109375.890625-.183594.148437-.042968.296875-.074218.441406-.117187.300781-.082031.601563-.179687.894531-.285156.246094-.085938.488282-.183594.730469-.28125.03125-.015625.066406-.027344.101563-.042969 4.933593-2.089844 8.398437-6.96875 8.398437-12.667969v-59.996093c0-7.605469-6.167969-13.777344-13.773437-13.777344zm-186.769532 43.773437c0-24.355469 19.738282-44.097656 44.097656-44.097656 24.355469 0 44.097657 19.742187 44.097657 44.097656 0 24.359375-19.742188 44.097657-44.097657 44.097657-24.359374 0-44.097656-19.738282-44.097656-44.097657zm0 0"
          fill="url(#b)"/>
    <path d="m302.257812 451.753906c53.132813 0 96.199219-43.070312 96.199219-96.203125 0-53.132812-43.066406-96.199219-96.199219-96.199219-1.632812 0-3.253906.039063-4.863281.121094-49.265625 2.449219-88.769531 41.953125-91.21875 91.21875-.082031 1.605469-.121093 3.230469-.121093 4.863282 0 53.128906 43.070312 96.199218 96.203124 96.199218zm0-52.105468c-24.359374 0-44.097656-19.738282-44.097656-44.097657 0-24.355469 19.738282-44.097656 44.097656-44.097656 24.355469 0 44.097657 19.742187 44.097657 44.097656 0 24.359375-19.742188 44.097657-44.097657 44.097657zm0 0"
          fill="url(#c)"/>
    <path d="m435.503906 310.585938c-3.109375-1.386719-5.472656-3.875-6.824218-6.824219l-74.632813-74.632813c-2.953125-1.351562-5.4375-3.714844-6.828125-6.828125l-23.195312-23.195312h-51.765626c-7.605468 0-13.773437 6.167969-13.773437 13.773437v3.742188c0 12.277344-14.832031 18.417968-23.515625 9.742187l-2.644531-2.644531c-5.382813-5.382812-14.101563-5.382812-19.484375 0l-42.414063 42.417969c-5.382812 5.382812-5.382812 14.097656 0 19.480469l2.640625 2.644531c8.679688 8.683593 2.535156 23.519531-9.738281 23.519531h-3.742187c-7.605469 0-13.777344 6.167969-13.777344 13.773438v53.914062l1.59375-2.992188 135.527344 135.523438h49.324218c5.699219 0 10.578125-3.464844 12.671875-8.402344.011719-.03125.027344-.066406.039063-.097656.101562-.242188.199218-.484375.285156-.734375.101562-.292969.199219-.589844.285156-.894531.039063-.140625.074219-.289063.113282-.441406.074218-.289063.136718-.589844.183593-.886719.027344-.15625.046875-.304688.066407-.453125.042968-.28125.070312-.558594.089843-.839844.015625-.101562.019531-.21875.019531-.328125.015626-.230469.019532-.464844.019532-.695313v-3.742187c0-12.277344 14.835937-18.421875 23.519531-9.742187l2.640625 2.644531c5.382812 5.378906 14.101562 5.378906 19.484375 0l42.417969-42.417969c5.382812-5.382812 5.382812-14.101562 0-19.484375l-2.644532-2.644531c-8.675781-8.683594-2.535156-23.515625 9.742188-23.515625h3.742188c.230468 0 .46875-.007813.695312-.019531.109375 0 .226562-.007813.328125-.019532.285156-.019531.5625-.046875.839844-.089844.148437-.019531.296875-.039062.453125-.066406.296875-.046875.597656-.109375.886718-.183594.148438-.039062.300782-.074218.441407-.117187.304687-.082031.601562-.179687.898437-.285156.246094-.085938.488282-.183594.730469-.28125.03125-.015625.066406-.027344.101563-.042969 4.933593-2.089844 8.398437-6.96875 8.398437-12.667969v-51.765625zm-133.246094 89.0625c-24.359374 0-44.097656-19.738282-44.097656-44.097657 0-24.355469 19.738282-44.097656 44.097656-44.097656 24.355469 0 44.097657 19.742187 44.097657 44.097656 0 24.359375-19.742188 44.097657-44.097657 44.097657zm0 0"
          fill="url(#d)"/>
    <path d="m332.054688 92.542969h-3.074219c-10.085938 0-15.128907-12.179688-8.003907-19.3125l2.171876-2.171875c4.421874-4.421875 4.421874-11.582032 0-16.003906l-34.835938-34.835938c-4.421875-4.421875-11.582031-4.421875-16.003906 0l-2.171875 2.167969c-7.132813 7.128906-19.316407 2.082031-19.316407-8v-3.074219c0-6.246094-5.066406-11.3125-11.3125-11.3125h-49.277343c-6.246094 0-11.3125 5.066406-11.3125 11.3125v3.074219c0 10.085937-12.183594 15.128906-19.316407 8.003906l-2.171874-2.171875c-4.421876-4.421875-11.582032-4.421875-16.003907 0l-34.835937 34.835938c-4.421875 4.421874-4.421875 11.582031 0 16.003906l2.171875 2.171875c7.125 7.132812 2.082031 19.316406-8.003907 19.316406h-3.070312c-6.25 0-11.316406 5.066406-11.316406 11.3125v49.277344c0 6.246093 5.066406 11.3125 11.316406 11.3125h3.070312c10.085938 0 15.128907 12.183593 8.003907 19.316406l-2.171875 2.171875c-4.421875 4.421875-4.421875 11.582031 0 16.003906l34.835937 34.835938c4.421875 4.421875 11.582031 4.421875 16.003907 0l2.171874-2.171875c7.132813-7.125 19.316407-2.082031 19.316407 8.003906v3.074219c0 6.246094 5.066406 11.3125 11.3125 11.3125h49.277343c4.679688 0 8.6875-2.847656 10.40625-6.898438.011719-.027344.023438-.054687.035157-.082031.082031-.199219.160156-.398437.230469-.601563.085937-.242187.167968-.488281.234374-.738281.035157-.113281.0625-.238281.09375-.359375.0625-.238281.113282-.484375.152344-.730468.023438-.128907.039063-.25.054688-.375.035156-.226563.054687-.453126.074218-.6875.007813-.085938.015626-.179688.015626-.269532.011718-.1875.015624-.382812.015624-.570312v-3.074219c0-10.085937 12.183594-15.128906 19.316407-8.003906l2.171875 2.171875c4.421875 4.421875 11.582031 4.421875 16.003906 0l34.835938-34.835938c4.421874-4.421875 4.421874-11.582031 0-16.003906l-2.171876-2.171875c-7.125-7.132813-2.082031-19.316406 8.003907-19.316406h3.074219c.1875 0 .382812-.003907.570312-.015625.089844 0 .183594-.007813.269531-.015625.234375-.019531.460938-.039063.691407-.074219.121093-.015625.242187-.03125.371093-.054688.246094-.039062.492188-.089843.730469-.152343.121094-.03125.246094-.058594.363281-.09375.246094-.070313.492188-.148438.734375-.234375.203125-.070313.402344-.148438.601563-.230469.027343-.011719.054687-.023437.082031-.035156 4.050781-1.71875 6.898438-5.726563 6.898438-10.40625v-49.277344c0-6.25-5.066407-11.316406-11.3125-11.316406zm-153.402344 35.953125c0-20.003906 16.210937-36.21875 36.21875-36.21875 20.003906 0 36.21875 16.214844 36.21875 36.21875 0 20.007812-16.214844 36.21875-36.21875 36.21875-20.007813 0-36.21875-16.210938-36.21875-36.21875zm0 0"
          fill="url(#e)"/>
    <path d="m214.871094 207.507812c43.640625 0 79.011718-35.371093 79.011718-79.011718s-35.371093-79.011719-79.011718-79.011719c-1.339844 0-2.675782.03125-3.996094.097656-40.460938 2.015625-72.90625 34.460938-74.917969 74.921875-.066406 1.320313-.101562 2.652344-.101562 3.992188 0 43.640625 35.375 79.011718 79.015625 79.011718zm0-42.792968c-20.007813 0-36.21875-16.214844-36.21875-36.21875s16.210937-36.21875 36.21875-36.21875c20.003906 0 36.21875 16.214844 36.21875 36.21875s-16.214844 36.21875-36.21875 36.21875zm0 0"
          fill="url(#f)"/>
    <path d="m194.765625 262.132812h-2.433594c-7.996093 0-11.996093-9.65625-6.34375-15.3125l1.722657-1.722656c3.503906-3.503906 3.503906-9.179687 0-12.6875l-27.621094-27.617187c-3.503906-3.503907-9.179688-3.503907-12.6875 0l-1.71875 1.722656c-5.65625 5.648437-15.3125 1.648437-15.3125-6.34375v-2.4375c0-4.953125-4.019532-8.96875-8.972656-8.96875h-39.0625c-4.953126 0-8.96875 4.015625-8.96875 8.96875v2.4375c0 7.996094-9.660157 11.992187-15.3125 6.34375l-1.722657-1.722656c-3.503906-3.503907-9.179687-3.503907-12.6875 0l-27.617187 27.617187c-3.503906 3.507813-3.503906 9.183594 0 12.6875l1.722656 1.722656c5.648438 5.652344 1.648438 15.3125-6.34375 15.3125h-2.4375c-4.953125 0-8.96875 4.015626-8.96875 8.96875v39.066407c0 4.949219 4.015625 8.96875 8.96875 8.96875h2.4375c7.992188 0 11.992188 9.65625 6.34375 15.3125l-1.722656 1.722656c-3.503906 3.503906-3.503906 9.179687 0 12.683594l27.617187 27.621093c3.503907 3.503907 9.183594 3.503907 12.6875 0l1.722657-1.722656c5.652343-5.648437 15.3125-1.652344 15.3125 6.34375v2.433594c0 4.953125 4.015624 8.972656 8.96875 8.972656h39.0625c3.710937 0 6.890624-2.257812 8.253906-5.472656.007812-.019531.015625-.042969.023437-.0625.066407-.160156.128907-.316406.183594-.476562.070313-.191407.132813-.386719.1875-.585938.027344-.089844.046875-.1875.074219-.285156.050781-.191406.089844-.382813.121094-.578125.019531-.101563.03125-.199219.042968-.296875.027344-.179688.046875-.363282.058594-.546875.007812-.066407.011719-.140625.011719-.210938.011719-.152343.015625-.304687.015625-.457031v-2.4375c0-7.992188 9.65625-11.992188 15.3125-6.339844l1.71875 1.71875c3.507812 3.507813 9.183594 3.507813 12.6875 0l27.621094-27.617187c3.503906-3.503907 3.503906-9.179688 0-12.6875l-1.722657-1.71875c-5.652343-5.65625-1.652343-15.316407 6.34375-15.316407h2.433594c.152344 0 .304687-.003906.457031-.011718.070313 0 .144532-.003906.210938-.011719.183594-.015625.367187-.03125.546875-.058594.097656-.011719.195312-.027343.296875-.042969.195312-.03125.386718-.070312.578125-.121093.097656-.023438.191406-.046875.285156-.074219.199219-.054688.394531-.117188.585937-.1875.160157-.054688.316407-.117188.472657-.183594.023437-.007812.046875-.015625.066406-.027344 3.214844-1.359374 5.472656-4.539062 5.472656-8.25v-39.0625c-.003906-4.953124-4.019531-8.96875-8.972656-8.96875zm-121.613281 28.5c0-15.859374 12.855468-28.710937 28.714844-28.710937 15.859374 0 28.714843 12.851563 28.714843 28.710937 0 15.863282-12.855469 28.714844-28.714843 28.714844-15.859376 0-28.714844-12.851562-28.714844-28.714844zm0 0"
          fill="url(#g)"/>
    <path d="m101.867188 353.273438c34.597656 0 62.640624-28.042969 62.640624-62.640626 0-34.59375-28.042968-62.636718-62.640624-62.636718-1.0625 0-2.117188.023437-3.164063.078125-32.078125 1.59375-57.800781 27.316406-59.398437 59.394531-.050782 1.046875-.078126 2.101562-.078126 3.164062 0 34.597657 28.042969 62.640626 62.640626 62.640626zm0-33.925782c-15.859376 0-28.714844-12.851562-28.714844-28.714844 0-15.859374 12.855468-28.710937 28.714844-28.710937 15.859374 0 28.714843 12.851563 28.714843 28.710937 0 15.863282-12.855469 28.714844-28.714843 28.714844zm0 0"
          fill="url(#h)"/>
</svg>