<!--
  - Copyright (c) 2023. Selldone® Business OS™
  -
  - Author: M.Pajuhaan
  - Web: https://selldone.com
  - ━━━━━━━━━━━━━━━━━━━━━━━━━━━━━━━━━━━━━━━━━━━━━━━━━━━━━━
  -
  - All rights reserved. In the weave of time, where traditions and innovations intermingle, this content was crafted.
  - From the essence of thought, through the corridors of creativity, each word, and sentiment has been molded.
  - Not just to exist, but to inspire. Like an artist's stroke or a sculptor's chisel, every nuance is deliberate.
  - Our journey is not just about reaching a destination, but about creating a masterpiece.
  - Tread carefully, for you're treading on dreams.
  -->

<svg id="Capa_1" enable-background="new 0 0 510 510" height="512" viewBox="0 0 510 510" width="512" xmlns="http://www.w3.org/2000/svg" xmlns:xlink="http://www.w3.org/1999/xlink"><linearGradient id="lg1"><stop offset="0" stop-color="#fee45a"/><stop offset="1" stop-color="#fea613"/></linearGradient><linearGradient id="SVGID_1_" gradientUnits="userSpaceOnUse" x1="107.554" x2="338.176" xlink:href="#lg1" y1="142.447" y2="373.069"/><linearGradient id="SVGID_2_" gradientUnits="userSpaceOnUse" x1="63.543" x2="316.413" y1="152.458" y2="405.328"><stop offset="0" stop-color="#fedbbd"/><stop offset="1" stop-color="#fd3581"/></linearGradient><linearGradient id="lg2"><stop offset="0" stop-color="#fe646f" stop-opacity="0"/><stop offset=".2966" stop-color="#fc616a" stop-opacity=".297"/><stop offset=".6214" stop-color="#f5575d" stop-opacity=".621"/><stop offset=".9585" stop-color="#eb4747" stop-opacity=".959"/><stop offset="1" stop-color="#e94444"/></linearGradient><linearGradient id="SVGID_3_" gradientUnits="userSpaceOnUse" x1="255" x2="255" xlink:href="#lg2" y1="288" y2="481.494"/><linearGradient id="SVGID_4_" gradientUnits="userSpaceOnUse" x1="380.096" x2="430.08" xlink:href="#lg1" y1="35.492" y2="85.476"/><linearGradient id="SVGID_5_" gradientUnits="userSpaceOnUse" x1="459.51" x2="274.177" xlink:href="#lg2" y1="433.146" y2="367.146"/><linearGradient id="SVGID_6_" gradientUnits="userSpaceOnUse" x1="340.612" x2="206.642" xlink:href="#lg2" y1="438.055" y2="304.086"/><linearGradient id="SVGID_7_" gradientUnits="userSpaceOnUse" x1="460.796" x2="334.796" xlink:href="#lg2" y1="512.9" y2="399.567"/><linearGradient id="SVGID_8_" gradientUnits="userSpaceOnUse" x1="163.435" x2="237.425" y1="337.789" y2="337.789"><stop offset="0" stop-color="#eaf6ff"/><stop offset="1" stop-color="#b3dafe"/></linearGradient><g><g><path d="m479.305 285.695c0 124.008-100.625 224.509-224.69 224.305-123.363-.204-224.056-101.18-223.92-224.554.045-42.547 11.946-82.299 32.558-116.18 3.1-5.079 10.396-5.487 14.028-.769.09.102.17.215.249.317 7.206 9.31 21.867 6.629 25.544-4.548 23.637-71.873 66.587-141.151 117.8-163.442 6.526-2.84 13.733 2.015 13.635 9.132-.003.236-.005.472-.007.708-.215 43.095 34.457 78.952 77.537 80.098 1.589.042 3.167.038 4.734-.012 36.812-1.164 70.522 20.442 83.565 54.885 2.337 6.172 4.536 12.391 6.589 18.63 3.677 11.177 18.338 13.858 25.544 4.548.079-.102.158-.215.249-.317 3.665-4.763 10.973-4.242 14.095.894 20.612 33.915 32.49 73.724 32.49 116.305z" fill="url(#SVGID_1_)"/><path d="m424.253 340.746c0 93.572-75.928 169.407-169.544 169.253-93.086-.154-169.065-76.347-168.963-169.441.034-32.104 9.014-62.1 24.567-87.665 2.339-3.833 7.845-4.14 10.585-.581.068.077.128.162.188.239 5.438 7.025 16.5 5.002 19.274-3.432 17.837-54.233 50.245-106.508 88.889-123.327 4.924-2.143 10.362 1.52 10.289 6.89-.003.178-.004.356-.005.535-.162 32.518 26 59.575 58.507 60.439 1.199.032 2.39.029 3.572-.009 27.777-.878 53.214 15.425 63.055 41.415 1.763 4.657 3.422 9.35 4.972 14.058 2.774 8.434 13.837 10.457 19.274 3.432.06-.077.12-.162.188-.239 2.766-3.594 8.28-3.201 10.636.674 15.554 25.591 24.516 55.63 24.516 87.759z" fill="url(#SVGID_2_)"/><path d="m30.695 285.446c-.136 123.374 100.557 224.35 223.92 224.554 124.065.204 224.69-100.297 224.69-224.305 0-10.352-.707-20.538-2.066-30.518h-444.478c-1.347 9.898-2.055 20.001-2.066 30.269z" fill="url(#SVGID_3_)"/><path d="m420.302 32.692c-.023 0-.045 0-.068 0-2.819.01-4.566 3.176-3.134 5.604 2.387 4.049 3.582 8.882 3.095 14.025-.981 10.344-8.948 18.909-19.193 20.644-2.562.434-5.053.433-7.425.068-3.961-.609-7.63 2.418-7.64 6.425v.082c0 18.979 15.386 34.365 34.365 34.365s34.365-15.386 34.365-34.365c0-18.98-15.386-46.848-34.365-46.848z" fill="url(#SVGID_4_)"/></g><g><path d="m455.132 387.075-141.689-141.689c-2.534-4.645-8.02-7.469-13.113-7.469-4.439 0-8.385 1.974-10.359 6.166l-86.567 177.821c-.74 1.48-1.234 3.206-1.234 4.686 0 4.265 2.599 8.88 6.975 11.323l70.708 70.708c76.743-8.463 141.817-55.621 175.279-121.546z" fill="url(#SVGID_5_)"/><path d="m232.429 260.401c-6.554-8.806-17.883-12.372-30.999-12.372-20.963 0-36.995 8.878-36.995 33.295v35.022c0 12.598 4.275 21.05 11.286 26.29l154.443 154.443c32.323-11.494 61.226-30.187 84.788-54.154z" fill="url(#SVGID_6_)"/><path d="m345.423 339.567c-6.553-8.806-17.883-12.372-30.999-12.372-20.963 0-36.995 8.878-36.995 33.295v35.022c0 12.598 4.275 21.05 11.286 26.29l65.232 65.232c30.031-14.786 56.274-36.084 76.88-62.062z" fill="url(#SVGID_7_)"/><g><path d="m163.435 315.346v-35.022c0-24.416 16.031-33.295 36.995-33.295 20.717 0 36.996 8.878 36.996 33.295v35.022c0 24.416-16.278 33.295-36.996 33.295-20.963 0-36.995-8.879-36.995-33.295zm49.327-35.022c0-8.139-4.686-11.838-12.332-11.838-7.645 0-12.084 3.7-12.084 11.838v35.022c0 8.139 4.439 11.838 12.084 11.838 7.646 0 12.332-3.7 12.332-11.838zm101.119-30.336c0 1.48-.247 3.206-.987 4.687l-86.814 177.821c-1.727 3.7-6.413 6.165-11.099 6.165-8.385 0-13.812-6.905-13.812-13.072 0-1.48.494-3.206 1.234-4.686l86.567-177.821c1.974-4.193 5.92-6.166 10.359-6.166 6.906.001 14.552 5.18 14.552 13.072zm-37.242 144.773v-35.022c0-24.416 16.031-33.295 36.995-33.295 20.717 0 36.995 8.878 36.995 33.295v35.022c0 24.417-16.277 33.295-36.995 33.295-20.963 0-36.995-8.878-36.995-33.295zm49.326-35.022c0-8.139-4.686-11.838-12.331-11.838s-12.085 3.7-12.085 11.838v35.022c0 8.139 4.44 11.838 12.085 11.838s12.331-3.699 12.331-11.838z" fill="url(#SVGID_8_)"/></g></g></g></svg>