<!--
  - Copyright (c) 2023. Selldone® Business OS™
  -
  - Author: M.Pajuhaan
  - Web: https://selldone.com
  - ━━━━━━━━━━━━━━━━━━━━━━━━━━━━━━━━━━━━━━━━━━━━━━━━━━━━━━
  -
  - All rights reserved. In the weave of time, where traditions and innovations intermingle, this content was crafted.
  - From the essence of thought, through the corridors of creativity, each word, and sentiment has been molded.
  - Not just to exist, but to inspire. Like an artist's stroke or a sculptor's chisel, every nuance is deliberate.
  - Our journey is not just about reaching a destination, but about creating a masterpiece.
  - Tread carefully, for you're treading on dreams.
  -->

<svg id="Layer_3" enable-background="new 0 0 64 64" height="512" viewBox="0 0 64 64" width="512" xmlns="http://www.w3.org/2000/svg"><g><path d="m36 32-17.4 17.4c-.4.4-.6.9-.6 1.5 0 1.2 1 2.1 2.1 2.1.6 0 1.1-.2 1.5-.6-.4.4-.6.9-.6 1.5 0 1.2 1 2.1 2.1 2.1.6 0 1.1-.2 1.5-.6-.4.4-.6.9-.6 1.5 0 1.2 1 2.1 2.1 2.1.6 0 1.1-.2 1.5-.6-.4.4-.6.9-.6 1.5 0 1.2 1 2.1 2.1 2.1.6 0 1.1-.2 1.5-.6l13.4-13.4h5l4-3v-13z" fill="#efbe9c"/><path d="m18.6 49.4c-.3.3-.5.6-.6 1 .2.9 1.1 1.6 2.1 1.6.6 0 1.1-.2 1.5-.6-.4.4-.6.9-.6 1.4.2-.1.4-.2.6-.4-.3.3-.5.6-.6 1 .2.9 1.1 1.6 2.1 1.6.6 0 1.1-.2 1.5-.6-.4.4-.6.9-.6 1.4.2-.1.4-.2.6-.4-.3.3-.5.6-.6 1 .2.9 1.1 1.6 2.1 1.6.6 0 1.1-.2 1.5-.6-.4.4-.6.9-.6 1.4.2-.1.4-.2.6-.4-.3.3-.5.6-.6 1 .2.9 1.1 1.6 2.1 1.6.6 0 1.1-.2 1.5-.6l13.4-13.4h5l4-3v-12h-17z" fill="#f5d8c4"/><g fill="#efbe9c"><path d="m36.4 57.4-3.8-3.8c-.4-.4-.9-.6-1.5-.6-1.1 0-2.1 1-2.1 2.1 0 .6.2 1.1.6 1.5l3.8 3.8c.4.4.9.6 1.5.6 1.1 0 2.1-1 2.1-2.1 0-.6-.2-1.1-.6-1.5z"/><path d="m39.4 54.4-3.8-3.8c-.4-.4-.9-.6-1.5-.6-1.1 0-2.1 1-2.1 2.1 0 .6.2 1.1.6 1.5l3.8 3.8c.4.4.9.6 1.5.6 1.1 0 2.1-1 2.1-2.1 0-.6-.2-1.1-.6-1.5z"/><path d="m42.4 51.4-3.8-3.8c-.4-.4-.9-.6-1.5-.6-1.1 0-2.1 1-2.1 2.1 0 .6.2 1.1.6 1.5l3.8 3.8c.4.4.9.6 1.5.6 1.1 0 2.1-1 2.1-2.1 0-.6-.2-1.1-.6-1.5z"/><path d="m45.4 48.4-3.8-3.8c-.4-.4-.9-.6-1.5-.6-1.1 0-2.1 1-2.1 2.1 0 .6.2 1.1.6 1.5l3.8 3.8c.4.4.9.6 1.5.6 1.1 0 2.1-1 2.1-2.1 0-.6-.2-1.1-.6-1.5z"/></g><path d="m32.6 54.6c-.4-.4-.9-.6-1.5-.6-1 0-1.8.7-2.1 1.6.1.4.3.7.6 1l3.8 3.8c.4.4.9.6 1.5.6 1 0 1.8-.7 2.1-1.6-.1-.4-.3-.7-.6-1z" fill="#f5d8c4"/><path d="m35.6 51.6c-.4-.4-.9-.6-1.5-.6-1 0-1.8.7-2.1 1.6.1.4.3.7.6 1l3.8 3.8c.4.4.9.6 1.5.6 1 0 1.8-.7 2.1-1.6-.1-.4-.3-.7-.6-1z" fill="#f5d8c4"/><path d="m38.6 48.6c-.4-.4-.9-.6-1.5-.6-1 0-1.8.7-2.1 1.6.1.4.3.7.6 1l3.8 3.8c.4.4.9.6 1.5.6 1 0 1.8-.7 2.1-1.6-.1-.4-.3-.7-.6-1z" fill="#f5d8c4"/><path d="m41.6 45.6c-.4-.4-.9-.6-1.5-.6-1 0-1.8.7-2.1 1.6.1.4.3.7.6 1l3.8 3.8c.4.4.9.6 1.5.6 1 0 1.8-.7 2.1-1.6-.1-.4-.3-.7-.6-1z" fill="#f5d8c4"/><path d="m30 38 3.4 3.4c.4.4.9.6 1.5.6 1.2 0 2.1-1 2.1-2.1 0-.6-.2-1.1-.6-1.5l-6.4-6.4h-19v13l4 4h4z" fill="#efbe9c"/><path d="m53 30h6v18h-6z" fill="#4472b0"/><path d="m5 30h6v18h-6z" fill="#4472b0"/><path d="m32 2 2 4 4 1-3 3 .7 4-3.7-3-3.7 3 .7-4-3-3 4-1z" fill="#f5b95b"/><path d="m14 10 2 4 4 1-3 3 .7 4-3.7-3-3.7 3 .7-4-3-3 4-1z" fill="#f5b95b"/><path d="m50 10 2 4 4 1-3 3 .7 4-3.7-3-3.7 3 .7-4-3-3 4-1z" fill="#f5b95b"/></g></svg>