

<svg id="Capa_1" enable-background="new 0 0 510 510" height="512" viewBox="0 0 510 510" width="512" xmlns="http://www.w3.org/2000/svg" xmlns:xlink="http://www.w3.org/1999/xlink"><linearGradient id="lg1"><stop offset="0" stop-color="#ffd945"/><stop offset=".3043" stop-color="#ffcd3e"/><stop offset=".8558" stop-color="#ffad2b"/><stop offset="1" stop-color="#ffa325"/></linearGradient><linearGradient id="SVGID_1_" gradientUnits="userSpaceOnUse" x1="156.968" x2="404.068" xlink:href="#lg1" y1="157.468" y2="404.568"/><linearGradient id="SVGID_2_" gradientUnits="userSpaceOnUse" x1="478.144" x2="30.614" xlink:href="#lg1" y1="478.644" y2="31.114"/><linearGradient id="SVGID_3_" gradientUnits="userSpaceOnUse" x1="200.009" x2="359.047" xlink:href="#lg1" y1="200.509" y2="359.547"/><linearGradient id="lg2"><stop offset="0" stop-color="#ffd945" stop-opacity="0"/><stop offset="1" stop-color="#fbed21"/></linearGradient><linearGradient id="SVGID_4_" gradientUnits="userSpaceOnUse" x1="313.998" x2="101.595" xlink:href="#lg2" y1="317.738" y2="105.335"/><linearGradient id="lg3"><stop offset="0" stop-color="#e87264" stop-opacity="0"/><stop offset="1" stop-color="#ff7044"/></linearGradient><linearGradient id="SVGID_5_" gradientUnits="userSpaceOnUse" x1="311.193" x2="-219.235" xlink:href="#lg3" y1="278.49" y2="-110.49"/><linearGradient id="SVGID_6_" gradientUnits="userSpaceOnUse" x1="273.527" x2="388.279" xlink:href="#lg3" y1="304.65" y2="-125.672"/><linearGradient id="SVGID_7_" gradientUnits="userSpaceOnUse" x1="268.647" x2="125.591" xlink:href="#lg3" y1="207.541" y2="710.272"/><linearGradient id="SVGID_8_" gradientUnits="userSpaceOnUse" x1="287.025" x2="182.02" xlink:href="#lg2" y1="278.327" y2="203.482"/><linearGradient id="SVGID_9_" gradientUnits="userSpaceOnUse" x1="279.317" x2="234.495" xlink:href="#lg3" y1="91.939" y2="16.533"/><linearGradient id="SVGID_10_" gradientUnits="userSpaceOnUse" x1="116.368" x2="-130.824" xlink:href="#lg3" y1="284.214" y2="165.817"/><linearGradient id="lg4"><stop offset="0" stop-color="#ffd945"/><stop offset=".4169" stop-color="#ffd744"/><stop offset=".6278" stop-color="#ffcf3f"/><stop offset=".7926" stop-color="#ffc237"/><stop offset=".9326" stop-color="#ffaf2c"/><stop offset="1" stop-color="#ffa325"/></linearGradient><radialGradient id="SVGID_11_" cx="247.138" cy="16.814" gradientUnits="userSpaceOnUse" r="34.011" xlink:href="#lg4"/><linearGradient id="SVGID_12_" gradientUnits="userSpaceOnUse" x1="259.741" x2="227.089" xlink:href="#lg2" y1="32.038" y2="-.615"/><linearGradient id="SVGID_13_" gradientUnits="userSpaceOnUse" x1="266.595" x2="317.443" xlink:href="#lg3" y1="28.321" y2="-14.718"/><linearGradient id="lg5"><stop offset="0" stop-color="#fff" stop-opacity="0"/><stop offset="1" stop-color="#fff"/></linearGradient><linearGradient id="SVGID_14_" gradientUnits="userSpaceOnUse" x1="255" x2="255" xlink:href="#lg5" y1="18.901" y2="-6.838"/><radialGradient id="SVGID_15_" cx="247.138" cy="472.222" gradientUnits="userSpaceOnUse" r="34.011" xlink:href="#lg4"/><linearGradient id="SVGID_16_" gradientUnits="userSpaceOnUse" x1="259.741" x2="227.089" xlink:href="#lg2" y1="487.446" y2="454.793"/><linearGradient id="SVGID_17_" gradientUnits="userSpaceOnUse" x1="266.595" x2="317.443" xlink:href="#lg3" y1="483.729" y2="440.69"/><linearGradient id="SVGID_18_" gradientUnits="userSpaceOnUse" x1="255" x2="255" xlink:href="#lg5" y1="474.309" y2="448.57"/><radialGradient id="SVGID_19_" cx="49.392" cy="362.645" gradientUnits="userSpaceOnUse" r="34.011" xlink:href="#lg4"/><linearGradient id="SVGID_20_" gradientUnits="userSpaceOnUse" x1="61.995" x2="29.342" xlink:href="#lg2" y1="377.869" y2="345.216"/><linearGradient id="SVGID_21_" gradientUnits="userSpaceOnUse" x1="68.849" x2="119.697" xlink:href="#lg3" y1="374.152" y2="331.113"/><linearGradient id="SVGID_22_" gradientUnits="userSpaceOnUse" x1="57.254" x2="57.254" xlink:href="#lg5" y1="364.732" y2="338.993"/><radialGradient id="SVGID_23_" cx="444.885" cy="362.645" gradientUnits="userSpaceOnUse" r="34.011" xlink:href="#lg4"/><linearGradient id="SVGID_24_" gradientUnits="userSpaceOnUse" x1="457.488" x2="424.835" xlink:href="#lg2" y1="377.869" y2="345.216"/><linearGradient id="SVGID_25_" gradientUnits="userSpaceOnUse" x1="464.342" x2="515.189" xlink:href="#lg3" y1="374.152" y2="331.113"/><linearGradient id="SVGID_26_" gradientUnits="userSpaceOnUse" x1="452.746" x2="452.746" xlink:href="#lg5" y1="364.732" y2="338.993"/><radialGradient id="SVGID_27_" cx="49.392" cy="125.39" gradientUnits="userSpaceOnUse" r="34.011" xlink:href="#lg4"/><linearGradient id="SVGID_28_" gradientUnits="userSpaceOnUse" x1="61.995" x2="29.342" xlink:href="#lg2" y1="140.614" y2="107.961"/><linearGradient id="SVGID_29_" gradientUnits="userSpaceOnUse" x1="68.849" x2="119.697" xlink:href="#lg3" y1="136.897" y2="93.859"/><linearGradient id="SVGID_30_" gradientUnits="userSpaceOnUse" x1="57.254" x2="57.254" xlink:href="#lg5" y1="127.478" y2="101.738"/><radialGradient id="SVGID_31_" cx="444.885" cy="125.39" gradientUnits="userSpaceOnUse" r="34.011" xlink:href="#lg4"/><linearGradient id="SVGID_32_" gradientUnits="userSpaceOnUse" x1="457.488" x2="424.835" xlink:href="#lg2" y1="140.614" y2="107.961"/><linearGradient id="SVGID_33_" gradientUnits="userSpaceOnUse" x1="464.342" x2="515.189" xlink:href="#lg3" y1="136.897" y2="93.859"/><linearGradient id="SVGID_34_" gradientUnits="userSpaceOnUse" x1="452.746" x2="452.746" xlink:href="#lg5" y1="127.478" y2="101.738"/><g><g><g><path d="m384.915 255.5 67.831-118.627h-135.662l-62.084-108.576-62.084 108.576h-135.663l67.832 118.627-67.832 118.628h135.663l62.084 108.576 62.084-108.576h135.662z" fill="url(#SVGID_1_)"/><path d="m359.039 255.5 48.405-84.653c2.636-4.609-.693-10.346-6.002-10.346h-96.723l-43.716-76.453c-2.655-4.643-9.35-4.643-12.005 0l-43.716 76.453h-96.723c-5.31 0-8.638 5.737-6.002 10.346l48.405 84.653-48.405 84.653c-2.636 4.609.692 10.346 6.002 10.346h96.723l43.716 76.453c2.655 4.643 9.35 4.643 12.005 0l43.716-76.453h96.723c5.31 0 8.638-5.737 6.002-10.346z" fill="url(#SVGID_2_)"/><path d="m345.363 255.5 41.264-72.166c2.636-4.609-.693-10.346-6.002-10.346h-82.442l-37.181-65.024c-2.655-4.643-9.35-4.643-12.005 0l-37.181 65.024h-82.442c-5.31 0-8.638 5.737-6.002 10.346l41.264 72.166-41.264 72.165c-2.636 4.609.693 10.346 6.002 10.346h82.442l37.181 65.024c2.655 4.643 9.35 4.643 12.005 0l37.181-65.024h82.442c5.31 0 8.638-5.737 6.002-10.346z" fill="url(#SVGID_3_)"/></g><path d="m384.915 255.5 59.78-104.547h-104.014c-9.892 0-19.026-5.299-23.936-13.886l-54.144-94.69-54.144 94.69c-4.91 8.587-14.044 13.886-23.937 13.886h-119.216l59.78 104.547-.225.393c4.849 8.48 4.849 18.893 0 27.374l-51.954 90.86h120.01l62.085 108.577 62.084-108.576h135.212l-59.78-104.547.225-.393z" fill="url(#SVGID_4_)"/><path d="m317.084 374.128h135.662l-67.831-118.628 67.831-118.627h-135.662l-62.084-108.576v454.407z" fill="url(#SVGID_5_)"/><path d="m255 482.704 62.084-108.576h135.662l-67.831-118.628h-259.83l-67.832 118.628h135.663z" fill="url(#SVGID_6_)"/><path d="m192.916 136.873h-135.663l395.493 237.255-67.831-118.628 67.831-118.627h-135.662l-62.084-108.576z" fill="url(#SVGID_7_)"/><path d="m452.746 136.873-395.493 237.255h135.663l62.084 108.576 62.084-108.576h135.662l-67.831-118.628z" fill="url(#SVGID_8_)"/></g><path d="m303.638 113.358-48.638-85.061-13.251 23.173z" fill="url(#SVGID_9_)"/><path d="m125.085 255.5-67.832 118.628h135.663l62.084 108.576 62.084-108.576h4.699l-237.254-237.255h-27.276z" fill="url(#SVGID_10_)"/><g><g><circle cx="255" cy="27.296" fill="url(#SVGID_11_)" r="27.296"/><path d="m279.365 27.296c0 13.457-10.909 24.365-24.365 24.365s-24.365-10.909-24.365-24.365 10.909-24.365 24.365-24.365c13.456 0 24.365 10.909 24.365 24.365z" fill="url(#SVGID_12_)"/><path d="m267.21 2.879c1.841 3.674 2.879 7.821 2.879 12.21 0 15.075-12.221 27.296-27.296 27.296-4.389 0-8.536-1.038-12.21-2.879 4.482 8.945 13.731 15.086 24.417 15.086 15.075 0 27.296-12.221 27.296-27.296 0-10.686-6.141-19.936-15.086-24.417z" fill="url(#SVGID_13_)"/></g><path d="m273.456 15.614c0 7.004-8.263 12.683-18.457 12.683-10.193 0-18.457-5.679-18.457-12.683 0-7.005 8.264-12.683 18.457-12.683 10.194 0 18.457 5.678 18.457 12.683z" fill="url(#SVGID_14_)"/></g><g><g><circle cx="255" cy="482.704" fill="url(#SVGID_15_)" r="27.296"/><path d="m279.365 482.704c0 13.457-10.909 24.365-24.365 24.365s-24.365-10.909-24.365-24.365 10.909-24.365 24.365-24.365 24.365 10.908 24.365 24.365z" fill="url(#SVGID_16_)"/><path d="m267.21 458.287c1.841 3.674 2.879 7.821 2.879 12.21 0 15.075-12.221 27.296-27.296 27.296-4.389 0-8.536-1.038-12.21-2.879 4.481 8.945 13.731 15.086 24.417 15.086 15.075 0 27.296-12.221 27.296-27.296 0-10.686-6.141-19.936-15.086-24.417z" fill="url(#SVGID_17_)"/></g><path d="m273.456 471.022c0 7.004-8.263 12.683-18.457 12.683-10.193 0-18.457-5.678-18.457-12.683s8.264-12.683 18.457-12.683c10.194 0 18.457 5.678 18.457 12.683z" fill="url(#SVGID_18_)"/></g><g><g><circle cx="57.254" cy="373.127" fill="url(#SVGID_19_)" r="27.296"/><path d="m81.619 373.127c0 13.457-10.909 24.365-24.365 24.365s-24.365-10.909-24.365-24.365 10.909-24.365 24.365-24.365 24.365 10.908 24.365 24.365z" fill="url(#SVGID_20_)"/><path d="m69.464 348.71c1.841 3.674 2.879 7.821 2.879 12.21 0 15.075-12.221 27.296-27.296 27.296-4.389 0-8.536-1.038-12.21-2.879 4.482 8.945 13.731 15.086 24.417 15.086 15.075 0 27.296-12.221 27.296-27.296 0-10.686-6.141-19.936-15.086-24.417z" fill="url(#SVGID_21_)"/></g><path d="m75.71 361.445c0 7.004-8.263 12.683-18.457 12.683-10.193 0-18.457-5.678-18.457-12.683s8.264-12.683 18.457-12.683c10.194 0 18.457 5.678 18.457 12.683z" fill="url(#SVGID_22_)"/></g><g><g><circle cx="452.746" cy="373.127" fill="url(#SVGID_23_)" r="27.296"/><path d="m477.112 373.127c0 13.457-10.909 24.365-24.365 24.365s-24.365-10.909-24.365-24.365 10.909-24.365 24.365-24.365 24.365 10.908 24.365 24.365z" fill="url(#SVGID_24_)"/><path d="m464.956 348.71c1.841 3.674 2.879 7.821 2.879 12.21 0 15.075-12.221 27.296-27.296 27.296-4.389 0-8.536-1.038-12.21-2.879 4.482 8.945 13.731 15.086 24.417 15.086 15.075 0 27.296-12.221 27.296-27.296 0-10.686-6.141-19.936-15.086-24.417z" fill="url(#SVGID_25_)"/></g><path d="m471.203 361.445c0 7.004-8.263 12.683-18.457 12.683-10.193 0-18.457-5.678-18.457-12.683s8.263-12.683 18.457-12.683 18.457 5.678 18.457 12.683z" fill="url(#SVGID_26_)"/></g><g><g><circle cx="57.254" cy="135.872" fill="url(#SVGID_27_)" r="27.296"/><path d="m81.619 135.872c0 13.456-10.909 24.365-24.365 24.365s-24.365-10.909-24.365-24.365 10.909-24.365 24.365-24.365 24.365 10.909 24.365 24.365z" fill="url(#SVGID_28_)"/><path d="m69.464 111.455c1.841 3.674 2.879 7.821 2.879 12.21 0 15.075-12.221 27.296-27.296 27.296-4.389 0-8.536-1.038-12.21-2.879 4.482 8.945 13.731 15.086 24.417 15.086 15.075 0 27.296-12.221 27.296-27.296 0-10.685-6.141-19.935-15.086-24.417z" fill="url(#SVGID_29_)"/></g><path d="m75.71 124.19c0 7.005-8.263 12.683-18.457 12.683-10.193 0-18.457-5.678-18.457-12.683s8.264-12.683 18.457-12.683c10.194 0 18.457 5.678 18.457 12.683z" fill="url(#SVGID_30_)"/></g><g><g><circle cx="452.746" cy="135.872" fill="url(#SVGID_31_)" r="27.296"/><path d="m477.112 135.872c0 13.456-10.909 24.365-24.365 24.365s-24.365-10.909-24.365-24.365 10.909-24.365 24.365-24.365 24.365 10.909 24.365 24.365z" fill="url(#SVGID_32_)"/><path d="m464.956 111.455c1.841 3.674 2.879 7.821 2.879 12.21 0 15.075-12.221 27.296-27.296 27.296-4.389 0-8.536-1.038-12.21-2.879 4.482 8.945 13.731 15.086 24.417 15.086 15.075 0 27.296-12.221 27.296-27.296 0-10.685-6.141-19.935-15.086-24.417z" fill="url(#SVGID_33_)"/></g><path d="m471.203 124.19c0 7.005-8.263 12.683-18.457 12.683-10.193 0-18.457-5.678-18.457-12.683s8.263-12.683 18.457-12.683 18.457 5.678 18.457 12.683z" fill="url(#SVGID_34_)"/></g></g></svg>