<svg xmlns="http://www.w3.org/2000/svg" xml:space="preserve" viewBox="0 0 496.008 496.008"><path d="M496.004 152c0-13.232-10.768-24-24-24-2.752 0-5.36.56-7.824 1.416l-35.848-44.808c2.288-3.672 3.672-7.968 3.672-12.608 0-13.232-10.768-24-24-24-6.728 0-12.792 2.8-17.152 7.264L327.788 26.16c.064-.72.216-1.416.216-2.16 0-13.232-10.768-24-24-24-10.416 0-19.216 6.712-22.528 16h-90.944C187.22 6.712 178.42 0 168.004 0c-13.232 0-24 10.768-24 24 0 .992.176 1.944.296 2.912l-39.68 19.84C100.3 42.592 94.46 40 88.004 40c-13.232 0-24 10.768-24 24 0 4.64 1.384 8.936 3.672 12.608l-35.848 44.808c-2.464-.856-5.072-1.416-7.824-1.416-13.232 0-24 10.768-24 24 0 10.416 6.712 19.216 16 22.528v50.952c-9.288 3.304-16 12.104-16 22.52 0 13.232 10.768 24 24 24 8.888 0 16.568-4.912 20.72-12.104l43.672 7.936C90.244 271.24 100.084 280 112.004 280c.32 0 .624-.08.944-.096l15.264 38.168c-4.992 4.4-8.208 10.768-8.208 17.928 0 13.232 10.768 24 24 24 8.048 0 15.144-4.016 19.496-10.104l68.656 19.616c.616 9.744 7.016 17.864 15.848 21.016v58.952c-9.288 3.312-16 12.112-16 22.528 0 13.232 10.768 24 24 24s24-10.768 24-24c0-10.416-6.712-19.216-16-22.528v-58.952c9.288-3.312 16-12.112 16-22.528 0-7.664-3.68-14.424-9.288-18.824l9.552-28.664 71.784 23.928c.192 10.216 6.8 18.816 15.952 22.08v82.952c-9.288 3.312-16 12.112-16 22.528 0 13.232 10.768 24 24 24s24-10.768 24-24c0-10.416-6.712-19.216-16-22.528v-82.944c9.288-3.312 16-12.112 16-22.528 0-2.92-.6-5.688-1.56-8.28l61.384-51.152c3.576 2.128 7.712 3.432 12.176 3.432 13.232 0 24-10.768 24-24 0-10.416-6.712-19.216-16-22.528V174.52c9.288-3.304 16-12.104 16-22.52m-88-88c4.408 0 8 3.584 8 8s-3.592 8-8 8-8-3.584-8-8 3.592-8 8-8m-11.376 29c3.4 1.856 7.24 3 11.376 3 2.752 0 5.352-.56 7.816-1.416l35.848 44.816c-2.28 3.672-3.664 7.96-3.664 12.6 0 1.288.184 2.528.384 3.768l-56.672 30.912-41.272-34.392c.96-2.6 1.56-5.368 1.56-8.288a23.8 23.8 0 0 0-1.84-9.176zM296.004 224c-3.696 0-7.152.904-10.28 2.408l-33.896-33.896 59.84-31.032c4.296 4.016 10.008 6.52 16.336 6.52 4.464 0 8.592-1.304 12.176-3.432l36.424 30.352-64.664 35.272c-4.248-3.808-9.792-6.192-15.936-6.192m8 24c0 4.416-3.592 8-8 8s-8-3.584-8-8 3.592-8 8-8 8 3.584 8 8m-120.952-88.104 13.432 43.28-68.144 35.336c-2.856-2.664-6.352-4.6-10.24-5.632l-11.088-85.024 54.816-2.744a23.99 23.99 0 0 0 21.224 14.784M176.004 136c0-4.416 3.592-8 8-8s8 3.584 8 8-3.592 8-8 8-8-3.584-8-8m25.288 82.712 20.288 65.384-85.624-28.544c-.016-.96-.16-1.888-.288-2.816zm-.056-54.16 23.824 23.816-14.152 7.336zm4.368-18.272c1.496-3.128 2.4-6.584 2.4-10.28 0-3.408-.736-6.64-2.016-9.576l37.984-35.456 61.232 45.92c-.712 2.272-1.2 4.624-1.2 7.112 0 1.12.184 2.184.328 3.264l-64.376 33.376zm114.4-2.28c0-4.416 3.592-8 8-8s8 3.584 8 8-3.592 8-8 8-8-3.584-8-8m69.824 61.936 57.32 47.768-124.2-11.288zM304.004 16c4.408 0 8 3.584 8 8s-3.592 8-8 8-8-3.584-8-8 3.592-8 8-8m-10.992 29.208c3.304 1.72 7.008 2.792 10.992 2.792 6.728 0 12.792-2.8 17.16-7.272l63.056 29.104c-.064.728-.216 1.424-.216 2.168 0 3.256.664 6.352 1.84 9.184L339.38 123c-3.4-1.856-7.24-3-11.376-3-4.912 0-9.48 1.496-13.288 4.04l-58.864-44.152zM281.476 32c.192.52.328 1.064.544 1.568l-39.176 36.56L192.004 32zM168.004 16c4.408 0 8 3.584 8 8s-3.592 8-8 8-8-3.584-8-8 3.592-8 8-8m-56 48c0-.992-.176-1.944-.296-2.904l39.68-19.84c4.32 4.152 10.16 6.744 16.616 6.744 4.912 0 9.48-1.496 13.288-4.04l49.672 37.256-35.968 33.568c-3.304-1.72-7.008-2.784-10.992-2.784-10.832 0-19.904 7.256-22.88 17.128l-56.192 2.808-6.08-46.648c7.768-3.976 13.152-11.976 13.152-21.288m-24-8c4.408 0 8 3.584 8 8s-3.592 8-8 8-8-3.584-8-8 3.592-8 8-8M80.18 86.584c.928.32 1.84.664 2.808.872l5.904 45.288-42.712 2.136c-.504-1.224-1.152-2.368-1.848-3.488zM24.004 136c4.408 0 8 3.584 8 8s-3.592 8-8 8-8-3.584-8-8 3.592-8 8-8m0 112c-4.408 0-8-3.584-8-8s3.592-8 8-8 8 3.584 8 8-3.592 8-8 8m67.28-3.896-43.664-7.936c-1.416-8.712-7.496-15.8-15.616-18.696V166.52a23.96 23.96 0 0 0 14.88-15.656l44.096-2.208 11.152 85.52c-4.592 2.088-8.344 5.584-10.848 9.928M112.004 264c-4.408 0-8-3.584-8-8s3.592-8 8-8 8 3.584 8 8-3.592 8-8 8m32 80c-4.408 0-8-3.584-8-8s3.592-8 8-8 8 3.584 8 8-3.592 8-8 8m92.512 10.104-68.656-19.616c-.808-12.52-11.136-22.488-23.856-22.488-.32 0-.624.08-.944.096l-15.264-38.168a24.7 24.7 0 0 0 3.04-3.224l96.592 32.2 14.264 45.952c-1.976 1.488-3.736 3.24-5.176 5.248M256.004 480c-4.408 0-8-3.584-8-8s3.592-8 8-8 8 3.584 8 8-3.592 8-8 8m0-104c-4.408 0-8-3.584-8-8s3.592-8 8-8 8 3.584 8 8-3.592 8-8 8m.272-34.112-10.168-32.752 18.976 6.328zm13.872-41.608-29.872-9.96-24.544-79.088 21.2-10.992 37.48 37.48c-1.504 3.128-2.408 6.584-2.408 10.28 0 7.664 3.68 14.432 9.296 18.824zM376.004 480c-4.408 0-8-3.584-8-8s3.592-8 8-8 8 3.584 8 8-3.592 8-8 8m0-128c-4.408 0-8-3.584-8-8s3.592-8 8-8 8 3.584 8 8-3.592 8-8 8m12.176-28.576c-3.584-2.12-7.712-3.424-12.176-3.424-7.664 0-14.432 3.68-18.824 9.296l-71.856-23.952 11.128-33.392c9.456-.176 17.544-5.84 21.288-13.944l131.088 11.912c.208.8.448 1.584.736 2.352zm16.76-125.736 51.128-27.888a23.8 23.8 0 0 0 7.944 4.72v66.952a24 24 0 0 0-4.184 1.96zM472.004 272c-4.408 0-8-3.584-8-8s3.592-8 8-8 8 3.584 8 8-3.592 8-8 8m0-112c-4.408 0-8-3.584-8-8s3.592-8 8-8 8 3.584 8 8-3.592 8-8 8M16.004 0h16v16h-16zM16.004 32h16v16h-16z"/><path d="M32.004 16h16v16h-16zM.004 16h16v16h-16zM416.004 368h16v16h-16zM416.004 400h16v16h-16zM432.004 384h16v16h-16zM400.004 384h16v16h-16zM464.004 32h16v16h-16zM464.004 64h16v16h-16zM480.004 48h16v16h-16zM448.004 48h16v16h-16zM96.004 384h16v16h-16zM96.004 416h16v16h-16zM112.004 400h16v16h-16zM80.004 400h16v16h-16zM48.004 296h16v16h-16zM48.004 328h16v16h-16zM64.004 312h16v16h-16zM32.004 312h16v16h-16z"/></svg>