<svg id="Layer_1_1_" enable-background="new 0 0 64 64" height="512" viewBox="0 0 64 64" width="512"
     xmlns="http://www.w3.org/2000/svg">
    <path d="m57.008 24.588c.646-1.077.992-2.31.992-3.588 0-3.529-2.625-6.457-6.026-6.933.017-.189.026-.378.026-.567 0-3.776-3.277-6.825-7.079-6.473-.466-2.847-2.944-5.027-5.921-5.027-3.309 0-6 2.691-6 6v48c0 3.309 2.691 6 6 6 2.977 0 5.455-2.18 5.921-5.027 3.799.355 7.079-2.697 7.079-6.473 0-.189-.009-.378-.026-.567 3.401-.476 6.026-3.404 6.026-6.933 0-1.278-.346-2.511-.992-3.588 2.965-1.203 4.992-4.114 4.992-7.412s-2.027-6.209-4.992-7.412zm-1.856 13.299c-.358.07-.651.33-.762.677-.111.348-.023.729.229.994.891.935 1.381 2.158 1.381 3.442 0 2.755-2.24 4.997-5.052 4.997-.015 0-.116-.006-.13-.007-.328-.013-.625.131-.822.384-.197.252-.261.583-.173.89.117.411.177.827.177 1.236 0 2.481-2.019 4.5-4.5 4.5-.413 0-.832-.061-1.246-.179-.31-.091-.644-.023-.896.176-.253.2-.394.509-.379.831.001.031.017.141.021.172 0 2.206-1.794 4-4 4s-4-1.794-4-4v-20h4v11.184c-1.161.414-2 1.514-2 2.816 0 1.654 1.346 3 3 3s3-1.346 3-3c0-1.302-.839-2.402-2-2.816v-11.184h8v4.184c-1.161.414-2 1.514-2 2.816 0 1.654 1.346 3 3 3s3-1.346 3-3c0-1.302-.839-2.402-2-2.816v-5.184c0-.552-.448-1-1-1h-15v-5h12.184c.414 1.161 1.514 2 2.816 2 1.654 0 3-1.346 3-3s-1.346-3-3-3c-1.302 0-2.402.839-2.816 2h-12.184v-5h9c.552 0 1-.448 1-1v-4.184c1.161-.414 2-1.514 2-2.816 0-1.654-1.346-3-3-3s-3 1.346-3 3c0 1.302.839 2.402 2 2.816v3.184h-8v-12c0-2.206 1.794-4 4-4s4 1.794 3.999 3.979c-.004.031-.018.161-.02.193-.015.322.126.631.379.831.252.199.586.266.896.176.414-.118.833-.179 1.246-.179 2.481 0 4.5 2.019 4.5 4.5 0 .409-.06.825-.177 1.236-.088.307-.023.638.173.89s.494.39.822.384c.012 0 .17-.009.182-.01 2.757 0 5 2.243 5 5 0 1.284-.49 2.507-1.381 3.442-.252.265-.34.646-.229.994s.403.607.762.677c2.809.547 4.848 3.023 4.848 5.887 0 2.865-2.039 5.34-4.848 5.887zm-14.152 12.113c0 .551-.449 1-1 1s-1-.449-1-1 .449-1 1-1 1 .449 1 1zm10-7c0 .551-.449 1-1 1s-1-.449-1-1 .449-1 1-1 1 .449 1 1zm-2-15c0-.551.449-1 1-1s1 .449 1 1-.449 1-1 1-1-.449-1-1zm-6-14c0-.551.449-1 1-1s1 .449 1 1-.449 1-1 1-1-.449-1-1z"/>
    <path d="m6.992 39.412c-.646 1.077-.992 2.31-.992 3.588 0 3.529 2.625 6.457 6.026 6.933-.017.189-.026.378-.026.567 0 3.777 3.293 6.816 7.079 6.474.466 2.846 2.944 5.026 5.921 5.026 3.309 0 6-2.691 6-6v-48c0-3.309-2.691-6-6-6-2.977 0-5.455 2.18-5.921 5.027-3.79-.355-7.079 2.697-7.079 6.473 0 .189.009.378.026.567-3.401.476-6.026 3.404-6.026 6.933 0 1.278.346 2.511.992 3.588-2.965 1.203-4.992 4.114-4.992 7.412s2.027 6.209 4.992 7.412zm14.008 4.588c.551 0 1 .449 1 1s-.449 1-1 1-1-.449-1-1 .449-1 1-1zm1 3.816c1.161-.414 2-1.514 2-2.816s-.839-2.402-2-2.816v-6.184h7v14h-7zm-13.152-21.703c.359-.07.651-.33.762-.677.111-.348.023-.729-.229-.994-.891-.935-1.381-2.158-1.381-3.442 0-2.755 2.24-4.997 5.052-4.997.014 0 .116.006.13.007.31.006.625-.132.822-.384s.261-.583.173-.89c-.117-.411-.177-.827-.177-1.236 0-2.481 2.019-4.5 4.5-4.5.413 0 .832.061 1.246.179.309.088.643.023.896-.176.253-.2.394-.509.379-.831-.001-.031-.017-.141-.021-.172 0-2.206 1.794-4 4-4s4 1.794 4 4v12h-5v-3.184c1.161-.414 2-1.514 2-2.816 0-1.654-1.346-3-3-3s-3 1.346-3 3c0 1.302.839 2.402 2 2.816v3.184h-5.184c-.414-1.161-1.514-2-2.816-2-1.654 0-3 1.346-3 3s1.346 3 3 3c1.302 0 2.402-.839 2.816-2h6.184 6v5h-14c-.552 0-1 .448-1 1v6.184c-1.161.414-2 1.514-2 2.816 0 1.654 1.346 3 3 3s3-1.346 3-3c0-1.302-.839-2.402-2-2.816v-5.184h13v5h-8c-.552 0-1 .448-1 1v7.184c-1.161.414-2 1.514-2 2.816s.839 2.402 2 2.816v3.184c0 .552.448 1 1 1h8v4c0 2.206-1.794 4-4 4s-4-1.794-3.999-3.979c.004-.031.018-.161.02-.193.015-.322-.126-.631-.38-.831-.178-.141-.397-.215-.619-.215-.093 0-.186.013-.277.039-.412.119-.831.179-1.245.179-2.481 0-4.5-2.019-4.5-4.5 0-.409.06-.825.177-1.236.088-.307.023-.638-.173-.89-.197-.252-.512-.396-.822-.384-.012 0-.17.009-.182.01-2.757 0-5-2.243-5-5 0-1.284.49-2.507 1.381-3.442.252-.265.34-.646.229-.994s-.403-.607-.762-.677c-2.809-.547-4.848-3.023-4.848-5.887s2.039-5.34 4.848-5.887zm13.152-12.113c0-.551.449-1 1-1s1 .449 1 1-.449 1-1 1-1-.449-1-1zm-7 7c0 .551-.449 1-1 1s-1-.449-1-1 .449-1 1-1 1 .449 1 1zm1 16c0 .551-.449 1-1 1s-1-.449-1-1 .449-1 1-1 1 .449 1 1z"/>
    <path d="m47 20h2v2h-2z"/>
    <path d="m6 31h2v2h-2z"/>
    <path d="m12 43h2v2h-2z"/>
    <path d="m55 31h2v2h-2z"/>
</svg>