<!--
  - Copyright (c) 2023. Selldone® Business OS™
  -
  - Author: M.Pajuhaan
  - Web: https://selldone.com
  - ━━━━━━━━━━━━━━━━━━━━━━━━━━━━━━━━━━━━━━━━━━━━━━━━━━━━━━
  -
  - All rights reserved. In the weave of time, where traditions and innovations intermingle, this content was crafted.
  - From the essence of thought, through the corridors of creativity, each word, and sentiment has been molded.
  - Not just to exist, but to inspire. Like an artist's stroke or a sculptor's chisel, every nuance is deliberate.
  - Our journey is not just about reaching a destination, but about creating a masterpiece.
  - Tread carefully, for you're treading on dreams.
  -->

<svg id="Layer_1" height="512" viewBox="0 0 256 256" width="512" xmlns="http://www.w3.org/2000/svg"><g><g><g><g><path d="m135.167 101.927c-1.104 0-2-.896-2-2v-78.527c0-1.104.896-2 2-2s2 .896 2 2v78.526c0 1.105-.896 2.001-2 2.001z" fill="#414042"/></g><g><circle cx="135.167" cy="16.587" fill="#b171f4" r="6.813"/></g></g><g><g><path d="m121.655 101.927c-1.104 0-2-.896-2-2v-42.551l-10.249-7.077c-.541-.373-.864-.988-.864-1.646v-16.14c0-1.104.896-2 2-2s2 .896 2 2v15.091l10.249 7.077c.541.373.864.988.864 1.646v43.601c0 1.103-.895 1.999-2 1.999z" fill="#414042"/></g><g><circle cx="110.543" cy="27.7" fill="#b171f4" r="6.813"/></g></g><g><g><path d="m97.842 101.927c-1.104 0-2-.896-2-2v-58.427l-10.249-7.077c-.541-.373-.864-.988-.864-1.646v-14.37c0-1.104.896-2 2-2s2 .896 2 2v13.32l10.249 7.077c.541.373.864.988.864 1.646v59.477c0 1.104-.895 2-2 2z" fill="#414042"/></g><g><circle cx="86.73" cy="13.594" fill="#b171f4" r="6.813"/></g></g><g><g><path d="m148.678 101.927c-1.104 0-2-.896-2-2v-43.601c0-.657.323-1.272.864-1.646l10.249-7.077v-15.09c0-1.104.896-2 2-2s2 .896 2 2v16.141c0 .657-.323 1.272-.864 1.646l-10.249 7.077v42.551c0 1.103-.896 1.999-2 1.999z" fill="#414042"/></g><g><circle cx="159.791" cy="27.7" fill="#b171f4" r="6.813"/></g></g><g><g><path d="m172.491 101.927c-1.104 0-2-.896-2-2v-59.477c0-.657.323-1.272.864-1.646l10.249-7.077v-13.32c0-1.104.896-2 2-2s2 .896 2 2v14.37c0 .657-.323 1.272-.864 1.646l-10.249 7.077v58.427c0 1.104-.896 2-2 2z" fill="#414042"/></g><g><circle cx="183.604" cy="13.594" fill="#b171f4" r="6.813"/></g></g></g><g><g><path d="m199.479 135.157c.047-1.001.151-1.988.151-3.001 0-35.328-28.639-63.967-63.967-63.967-28.863 0-53.242 19.125-61.205 45.387-1.362-.106-2.727-.208-4.117-.208-28.907 0-52.341 23.434-52.341 52.342 0 28.907 23.434 52.342 52.342 52.342h126.135c22.932 0 41.523-18.591 41.523-41.523 0-21.92-16.996-39.828-38.521-41.372z" fill="#478cf7"/></g></g><g><g><path d="m27.648 185.731c-.779 0-1.52-.458-1.842-1.221-2.526-5.959-3.806-12.285-3.806-18.8 0-18.028 9.948-34.445 25.962-42.844.977-.513 2.186-.136 2.7.843.513.979.136 2.187-.842 2.7-14.693 7.705-23.82 22.765-23.82 39.301 0 5.976 1.174 11.776 3.489 17.24.431 1.017-.044 2.19-1.061 2.622-.255.108-.519.159-.78.159zm28.613-62.174c-.84 0-1.623-.534-1.899-1.376-.345-1.05.226-2.18 1.275-2.525l.099-.032c1.044-.351 2.181.217 2.53 1.265s-.217 2.181-1.265 2.53l-.114.038c-.208.066-.419.1-.626.1z" fill="#5e9cf7"/></g></g><g><g><path d="m220.449 142.669c4.757 6.745 7.551 14.972 7.551 23.859 0 22.932-18.591 41.523-41.523 41.523-12.045 0-114.773 0-126.135 0-11.904 0-22.874-3.98-31.668-10.674 9.561 12.561 24.664 20.674 41.668 20.674h126.135c22.932 0 41.523-18.591 41.523-41.523 0-13.996-6.937-26.349-17.551-33.859z" fill="#377de2"/></g></g><g><g><path d="m223.269 144.852c6.07 7.208 9.731 16.509 9.731 26.677 0 22.932-18.591 41.523-41.523 41.523-12.045 0-114.773 0-126.135 0-13.181 0-25.215-4.883-34.417-12.925 9.595 10.979 23.69 17.925 39.417 17.925h126.135c22.932 0 41.523-18.591 41.523-41.523 0-12.716-5.726-24.073-14.731-31.677z" fill="#2266d3"/></g></g><g><g><circle cx="135.167" cy="203.05" fill="#ffc91d" r="21.902"/></g><g><path d="m147.948 185.269c2.591 3.598 4.121 8.009 4.121 12.781 0 12.096-9.806 21.902-21.902 21.902-4.772 0-9.183-1.531-12.781-4.121 3.976 5.522 10.456 9.121 17.781 9.121 12.096 0 21.902-9.806 21.902-21.902 0-7.325-3.599-13.805-9.121-17.781z" fill="#ffa91a"/></g><g><path d="m89.812 210.918h6.802c1.02 5.022 3 9.694 5.735 13.823l-4.816 4.816c-1.099 1.099-1.099 2.881 0 3.981l7.147 7.147c1.099 1.099 2.881 1.099 3.981 0l4.816-4.816c4.129 2.734 8.8 4.715 13.823 5.735v6.802c0 1.555 1.26 2.815 2.815 2.815h10.107c1.555 0 2.815-1.26 2.815-2.815v-6.802c5.022-1.02 9.694-3 13.823-5.735l4.816 4.816c1.099 1.099 2.881 1.099 3.981 0l7.147-7.147c1.099-1.099 1.099-2.881 0-3.981l-4.816-4.816c2.735-4.129 4.715-8.8 5.735-13.823h6.802c1.554 0 2.815-1.26 2.815-2.815v-10.107c0-1.554-1.26-2.815-2.815-2.815h-6.802c-1.02-5.022-3-9.693-5.735-13.823l4.816-4.816c1.099-1.099 1.099-2.881 0-3.981l-7.147-7.147c-1.099-1.099-2.881-1.099-3.981 0l-4.816 4.816c-4.129-2.735-8.8-4.715-13.823-5.735v-6.802c0-1.555-1.26-2.815-2.815-2.815h-10.107c-1.555 0-2.815 1.26-2.815 2.815v6.802c-5.022 1.02-9.694 3-13.823 5.735l-4.816-4.816c-1.099-1.099-2.881-1.099-3.981 0l-7.147 7.147c-1.099 1.099-1.099 2.881 0 3.981l4.816 4.816c-2.735 4.129-4.715 8.8-5.735 13.823h-6.802c-1.554 0-2.815 1.26-2.815 2.815v10.107c0 1.555 1.26 2.815 2.815 2.815zm23.453-7.868c0-12.096 9.806-21.902 21.902-21.902s21.902 9.806 21.902 21.902-9.806 21.902-21.902 21.902c-12.097 0-21.902-9.806-21.902-21.902z" fill="#893add"/></g><g><g><path d="m180.522 195.181h-2.185v7.922c0 1.555-1.26 2.815-2.815 2.815h-6.802c-1.02 5.022-3 9.694-5.735 13.823l4.816 4.816c1.099 1.099 1.099 2.881 0 3.981l-7.147 7.147c-1.099 1.099-2.881 1.099-3.981 0l-4.816-4.816c-4.129 2.734-8.8 4.715-13.823 5.735v6.802c0 1.555-1.26 2.815-2.815 2.815h-7.922v2.185c0 1.555 1.26 2.815 2.815 2.815h10.107c1.555 0 2.815-1.26 2.815-2.815v-6.802c5.022-1.02 9.694-3 13.823-5.735l4.816 4.816c1.099 1.099 2.881 1.099 3.981 0l7.147-7.147c1.099-1.099 1.099-2.882 0-3.981l-4.816-4.816c2.735-4.129 4.715-8.8 5.735-13.823h6.802c1.554 0 2.815-1.26 2.815-2.815v-10.107c-.001-1.555-1.261-2.815-2.815-2.815z" fill="#6c2bc1"/></g></g></g><g fill="#fff"><path d="m110.734 101.55c-.235-.874-1.027-1.48-1.931-1.48s-1.696.606-1.931 1.48l-11.137 41.363c-.287 1.066.345 2.164 1.411 2.451.174.047.349.069.521.069.882 0 1.689-.589 1.93-1.481l3.885-14.429h10.641l3.885 14.429c.288 1.067 1.385 1.699 2.451 1.412s1.698-1.385 1.411-2.451zm-6.174 23.973 4.244-15.761 4.243 15.761z"/><path d="m172.667 141.433h-2.772v-37.363h2.772c1.104 0 2-.896 2-2s-.896-2-2-2h-9.545c-1.104 0-2 .896-2 2s.896 2 2 2h2.773v37.363h-2.773c-1.104 0-2 .896-2 2s.896 2 2 2h9.545c1.104 0 2-.896 2-2s-.896-2-2-2z"/><path d="m145.803 100.069h-14.318c-1.104 0-2 .896-2 2v41.363c0 1.104.896 2 2 2s2-.896 2-2v-23.455h12.318c5.489 0 9.955-4.466 9.955-9.954s-4.466-9.954-9.955-9.954zm0 15.909h-12.318v-11.908h12.318c3.283 0 5.955 2.671 5.955 5.954s-2.672 5.954-5.955 5.954z"/></g></g></svg>