<svg enable-background="new 0 0 32 32" height="512" viewBox="0 0 32 32" width="512" xmlns="http://www.w3.org/2000/svg"><g id="Layer_1"><g fill="rgb(0,0,0)"><path d="m25.86 17.45h-5.02c-1.8701 0-3.39 1.52-3.39 3.39v5.02c0 1.87 1.52 3.39 3.39 3.39h5.02c1.87 0 3.39-1.52 3.39-3.39v-5.02c0-1.87-1.52-3.39-3.39-3.39zm1.39 8.41c0 .76-.63 1.39-1.39 1.39h-5.02c-.76 0-1.39-.63-1.39-1.39v-5.02c0-.77.63-1.39 1.39-1.39h5.02c.76 0 1.39.62 1.39 1.39z"/><path d="m25.86 2.75h-5.02c-1.8701 0-3.39 1.52-3.39 3.39v5.02c0 1.8701 1.52 3.39 3.39 3.39h5.02c1.87 0 3.39-1.52 3.39-3.39v-5.02c0-1.87-1.52-3.39-3.39-3.39zm1.39 8.41c0 .77-.63 1.39-1.39 1.39h-5.02c-.76 0-1.39-.62-1.39-1.39v-5.02c0-.76.63-1.39 1.39-1.39h5.02c.76 0 1.39.63 1.39 1.39z"/><path d="m11.16 17.45h-5.02c-1.87 0-3.39 1.52-3.39 3.39v5.02c0 1.87 1.52 3.39 3.39 3.39h5.02c1.8701 0 3.39-1.52 3.39-3.39v-5.02c0-1.87-1.52-3.39-3.39-3.39zm1.39 8.41c0 .76-.62 1.39-1.39 1.39h-5.02c-.76 0-1.39-.63-1.39-1.39v-5.02c0-.77.63-1.39 1.39-1.39h5.02c.77 0 1.39.62 1.39 1.39z"/><path d="m11.16 2.75h-5.02c-1.87 0-3.39 1.52-3.39 3.39v5.02c0 1.8701 1.52 3.39 3.39 3.39h5.02c1.8701 0 3.39-1.52 3.39-3.39v-5.02c0-1.87-1.52-3.39-3.39-3.39zm1.39 8.41c0 .77-.62 1.39-1.39 1.39h-5.02c-.76 0-1.39-.62-1.39-1.39v-5.02c0-.76.63-1.39 1.39-1.39h5.02c.77 0 1.39.63 1.39 1.39z"/></g></g></svg>