

<svg id="Layer_1" enable-background="new 0 0 50 50" height="512" viewBox="0 0 50 50" width="512" xmlns="http://www.w3.org/2000/svg"><g><g><g enable-background="new"><g><path d="m10.1156521 12.0495396.0823841 29.0593013 18.3781567-10.6106338-.0823842-29.0593011z" fill="#d6b218"/></g><g><path d="m14.321147 15.374177.0823841 29.0593023 19.1383466-11.04953-.0823822-29.0593024z" fill="#d6b218"/></g><g><path d="m8.6002073 12.04953.0823832 29.0592995 5.7209406 3.3246498-.0823841-29.0593023z" fill="#c6a51a"/><path d="m10.0365753 14.5337963.0712795 15.0579167 2.8661528 1.6683673-.0784597-15.065052z" fill="#ecf0f1"/></g><g><path d="m8.6002073 12.04953 5.7209397 3.324647 19.1383485-11.0495301-.7507324-.4362778-18.3781576 10.6106334-4.2149534-2.4494629 18.3781566-10.6106336-.7552547-.438906z" fill="#f1c40f"/></g></g></g><g><path d="m10.8829393 12.3940468 3.4467011 2.0030041 13.8986444-8.0243869-3.446701-2.0030036z" fill="#ecf0f1"/></g><g><path d="m11.984971 37.5319901c.4731083 0 .951438-.347084.9535275-1.1223679.0024366-.8069649-.5486526-1.7587547-1.2550077-2.1667595-.2234993-.1288109-.44491-.1942596-.6583138-.1942596-.4731083 0-.9510899.3449974-.9531794 1.115757-.0024366.8118401.5458679 1.7653656 1.248045 2.1709366.2259369.1305503.4497843.1966934.6649284.1966934z" fill="#ecf0f1"/><path d="m11.5051451 34.6219139c-.5578613-.3220825-1.0138884-.0622063-1.0157061.5788193-.0018396.6489258.4512262 1.4336815 1.0090876 1.755764.5647497.3260574 1.0207777.0661697 1.0226173-.5827599.0018168-.6410255-.4512482-1.425766-1.0159988-1.7518234z" fill="#525566"/></g><g><g enable-background="new"><g><path d="m17.9735699 16.6160622.0823841 29.0592994 18.3781547-10.6106338-.0823822-29.0592995z" fill="#8c56a5"/></g><g><path d="m22.1790638 19.9406986.0823841 29.0593014 19.1383476-11.04953-.0823822-29.0593005z" fill="#8c56a5"/></g><g><path d="m16.4581242 16.6160526.0823841 29.0593014 5.7209396 3.324646-.0823841-29.0593014z" fill="#76508c"/><path d="m17.8944931 19.1003189.0712795 15.0579147 2.8661518 1.6683693-.0784587-15.0650539z" fill="#ecf0f1"/></g><g><path d="m16.4581242 16.6160526 5.7209396 3.324646 19.1383495-11.0495291-.7507324-.4362783-18.3781586 10.6106339-4.2149524-2.4494629 18.3781566-10.6106339-.7552528-.4389062z" fill="#7d5193"/></g></g></g><g><path d="m18.7408562 16.9605694 3.446701 2.0030041 13.8986473-8.0243874-3.446701-2.0030031z" fill="#ecf0f1"/></g><g><path d="m19.8428879 42.0985146c.4731083 0 .9514389-.3470879.9535275-1.1223717.0024376-.8069649-.5486526-1.7587509-1.2550068-2.1667595-.2234993-.1288071-.44491-.1942558-.6583138-.1942558-.4731083 0-.9510918.3449974-.9531803 1.115757-.0024357.8118362.5458679 1.7653656 1.248045 2.1709366.2259368.1305465.4497852.1966934.6649284.1966934z" fill="#ecf0f1"/><path d="m19.3630619 39.1884346c-.5578613-.3220825-1.0138874-.0622063-1.0157051.5788193-.0018406.6489296.4512253 1.4336853 1.0090866 1.755764.5647507.3260612 1.0207787.0661697 1.0226173-.5827599.0018177-.6410217-.4512481-1.425766-1.0159988-1.7518234z" fill="#525566"/></g></g></svg>