<!--
  - Copyright (c) 2023. Selldone® Business OS™
  -
  - Author: M.Pajuhaan
  - Web: https://selldone.com
  - ━━━━━━━━━━━━━━━━━━━━━━━━━━━━━━━━━━━━━━━━━━━━━━━━━━━━━━
  -
  - All rights reserved. In the weave of time, where traditions and innovations intermingle, this content was crafted.
  - From the essence of thought, through the corridors of creativity, each word, and sentiment has been molded.
  - Not just to exist, but to inspire. Like an artist's stroke or a sculptor's chisel, every nuance is deliberate.
  - Our journey is not just about reaching a destination, but about creating a masterpiece.
  - Tread carefully, for you're treading on dreams.
  -->

<svg height="512pt" viewBox="0 -77 512 512" width="512pt" xmlns="http://www.w3.org/2000/svg"><path d="m219.753906 357.222656-219.753906-178.609375 219.753906-178.613281v81.195312h162.359375v194.832032h-162.359375zm0 0" fill="#3a2c41"/><g fill="#3a2c41"><path d="m495.765625 276.027344c-8.964844 0-16.238281-7.273438-16.238281-16.234375v-162.359375c0-8.964844 7.273437-16.238282 16.238281-16.238282 8.960937 0 16.234375 7.273438 16.234375 16.238282v162.359375c0 8.960937-7.273438 16.234375-16.234375 16.234375zm0 0"/><path d="m430.820312 276.027344c-8.960937 0-16.234374-7.273438-16.234374-16.234375v-162.359375c0-8.964844 7.273437-16.238282 16.234374-16.238282 8.960938 0 16.234376 7.273438 16.234376 16.238282v162.359375c0 8.960937-7.273438 16.234375-16.234376 16.234375zm0 0"/><path d="m219.753906 357.222656-219.753906-178.609375h382.113281v97.414063h-162.359375zm0 0"/></g></svg>