<svg id="flat" height="512" viewBox="0 0 512 512" width="512" xmlns="http://www.w3.org/2000/svg"><path d="m320 368 40 120h-32l-48-128z" fill="#ff5086"/><path d="m332.551 405.652-12.551-37.652-40-8 32.591 86.91a71.757 71.757 0 0 1 19.96-41.258z" fill="#e03f81"/><path d="m144.058 258.581a56.005 56.005 0 0 0 89.679 42.12 48.015 48.015 0 0 0 31.6 33.018 40.01 40.01 0 0 0 73.756 29.5 48.041 48.041 0 0 0 58.241-13.04 32 32 0 0 0 34.109-51.96 88.031 88.031 0 0 0 38.236-135.976l.038-.172a72.112 72.112 0 0 0 -44.2-85.42 112.224 112.224 0 0 0 -106.617-43.351 56 56 0 0 0 -68.553 5.252 56.092 56.092 0 0 0 -73.947 19.933 57 57 0 0 0 -16.4-2.485 55.981 55.981 0 0 0 -50.735 32.244q-2.599-.244-5.265-.244a56.05 56.05 0 0 0 -55.2 65.48l-.109.084a56.019 56.019 0 0 0 41.083 101.586 56.073 56.073 0 0 0 54.284 3.431z" fill="#ff5086"/><path d="m488 216a87.614 87.614 0 0 0 -18.324-53.758l.038-.172a72.112 72.112 0 0 0 -44.2-85.42q-2.618-3.474-5.5-6.726c-21.739 123.91-129.876 218.076-260.014 218.076-2.006 0-4-.031-6-.076a56 56 0 0 0 79.737 12.776 48.016 48.016 0 0 0 31.6 33.018 40.011 40.011 0 0 0 73.757 29.5 48.041 48.041 0 0 0 58.241-13.04 32 32 0 0 0 34.109-51.96 88.034 88.034 0 0 0 56.556-82.218z" fill="#e03f81"/><path d="m312 384h-16v-48a8 8 0 0 1 2.343-5.657l69.657-69.656v-73.374l-27.313-27.313h-185.374l-45.656 45.657-11.314-11.314 48-48a8 8 0 0 1 5.657-2.343h192a8 8 0 0 1 5.657 2.343l32 32a8 8 0 0 1 2.343 5.657v80a8 8 0 0 1 -2.343 5.657l-69.657 69.656z" fill="#fccca7"/><path d="m312 339.313 69.657-69.656a8 8 0 0 0 2.343-5.657v-80a8 8 0 0 0 -2.343-5.657l-4.38-4.38q-4.606 6.663-9.607 13.021l.33.329v73.374l-69.657 69.656a8 8 0 0 0 -2.343 5.657v47.2a40.154 40.154 0 0 0 16-.006z" fill="#e5b391"/><path d="m322.343 157.657-53.656-53.657h-44.687v-16h48a8 8 0 0 1 5.657 2.343l56 56z" fill="#fccca7"/><path d="m256 216h-48v-16h44.687l53.656-53.657 11.314 11.314-56 56a8 8 0 0 1 -5.657 2.343z" fill="#fccca7"/><path d="m381.657 229.657-11.314-11.314 37.657-37.656v-44.687h16v48a8 8 0 0 1 -2.343 5.657z" fill="#e5b391"/><path d="m322.343 317.657-26.343-26.344v-51.313h16v44.687l21.657 21.656z" fill="#e5b391"/><circle cx="224" cy="96" fill="#26bfb0" r="24"/><circle cx="208" cy="208" fill="#26bfb0" r="24"/><circle cx="416" cy="136" fill="#26bfb0" r="24"/><circle cx="304" cy="240" fill="#26bfb0" r="24"/><g fill="#d30275"><path d="m40.913 154.824a64.009 64.009 0 0 1 115.609-47.4l-13.122 9.151a48.019 48.019 0 0 0 -86.714 35.56z"/><path d="m116.507 91.663-14.488-6.789a64.28 64.28 0 0 1 57.981-36.874 63.43 63.43 0 0 1 12.97 1.358 63.6 63.6 0 0 1 51.03-25.358 64.384 64.384 0 0 1 61.349 45.717l-15.336 4.564a48.285 48.285 0 0 0 -46.013-34.281 47.765 47.765 0 0 0 -40.8 22.707l-3.24 5.214-5.875-1.78a49.239 49.239 0 0 0 -14.085-2.141 48.219 48.219 0 0 0 -43.493 27.663z"/><path d="m334.013 66.281a48.014 48.014 0 0 0 -78.287-21.812l-10.762-11.84a64.015 64.015 0 0 1 104.385 29.088z"/><path d="m419.115 81.478a103.234 103.234 0 0 0 -83.115-41.478 105.261 105.261 0 0 0 -15.891 1.2l-2.421-15.81a121.328 121.328 0 0 1 18.312-1.39 119.11 119.11 0 0 1 95.9 47.849z"/><path d="m444.452 210.522-8.9-13.295a64.025 64.025 0 0 0 -49.783-115.641l-3.54-15.6a80.014 80.014 0 0 1 62.223 144.54z"/><path d="m400 312v-16a80.091 80.091 0 0 0 80-80 79.233 79.233 0 0 0 -16.653-48.867l12.66-9.783a95.092 95.092 0 0 1 19.993 58.65 96.108 96.108 0 0 1 -96 96z"/><path d="m120 272a63.8 63.8 0 0 1 -31.9-8.509 64.763 64.763 0 0 1 -8.1.509 64 64 0 1 1 18.282-125.349l-4.562 15.336a48 48 0 1 0 -5.333 93.284l3.08-.542 2.631 1.69a48.08 48.08 0 0 0 46.523 2.94l6.879 14.441a63.435 63.435 0 0 1 -27.5 6.2z"/><path d="m200 320a64 64 0 0 1 -44.788-109.717l11.2 11.428a48 48 0 0 0 62.5 72.608l9.649 12.764a63.453 63.453 0 0 1 -38.561 12.917z"/><path d="m408 360a39.979 39.979 0 0 1 -38.739-30l15.494-3.989a24 24 0 1 0 40.824-22.345l11.717-10.9a40 40 0 0 1 -29.296 67.234z"/><path d="m360 376a56.083 56.083 0 0 1 -41.717-18.641l11.917-10.677a40 40 0 0 0 60.914-1.54l12.438 10.065a55.8 55.8 0 0 1 -43.552 20.793z"/><path d="m304 392a48.027 48.027 0 0 1 -47.716-53.242 56.04 56.04 0 0 1 -22.949-81.725l13.324 8.857a40.025 40.025 0 0 0 21.112 60.21l7.246 2.317-1.951 7.353a32.01 32.01 0 0 0 59.018 23.586l14.029 7.692a48.023 48.023 0 0 1 -42.113 24.952z"/></g><circle cx="104" cy="200" fill="#26bfb0" r="24"/><path d="m116.494 179.506a24 24 0 0 1 -32.988 32.988 24 24 0 1 0 32.988-32.988z" fill="#1c998a"/><path d="m236.494 75.506a24 24 0 0 1 -32.988 32.988 24 24 0 1 0 32.988-32.988z" fill="#1c998a"/><path d="m316.494 219.506a24 24 0 0 1 -32.988 32.988 24 24 0 1 0 32.988-32.988z" fill="#1c998a"/><path d="m428.494 115.506a24 24 0 0 1 -32.988 32.988 24 24 0 1 0 32.988-32.988z" fill="#1c998a"/><path d="m220.494 187.506a24 24 0 0 1 -32.988 32.988 24 24 0 1 0 32.988-32.988z" fill="#1c998a"/></svg>