<svg id="Capa_1" enable-background="new 0 0 510 510" height="512" viewBox="0 0 510 510" width="512" xmlns="http://www.w3.org/2000/svg" xmlns:xlink="http://www.w3.org/1999/xlink"><linearGradient id="lg1"><stop offset="0" stop-color="#ff7044"/><stop offset=".2346" stop-color="#fe653c"/><stop offset=".6509" stop-color="#fb4628"/><stop offset="1" stop-color="#f82814"/></linearGradient><linearGradient id="SVGID_1_" gradientTransform="matrix(.707 .707 -.707 .707 255 -105.625)" gradientUnits="userSpaceOnUse" x1="139.108" x2="522.311" xlink:href="#lg1" y1="202.396" y2="585.599"/><linearGradient id="SVGID_2_" gradientTransform="matrix(.707 .707 -.707 .707 255 -105.625)" gradientUnits="userSpaceOnUse" x1="406.772" x2="86.386" xlink:href="#lg1" y1="447.82" y2="127.435"/><linearGradient id="lg2"><stop offset="0" stop-color="#f8f6fb"/><stop offset="1" stop-color="#efdcfb"/></linearGradient><linearGradient id="SVGID_3_" gradientTransform="matrix(.707 .707 -.707 .707 255 -105.625)" gradientUnits="userSpaceOnUse" x1="378.729" x2="378.729" xlink:href="#lg2" y1="238.981" y2="277.649"/><linearGradient id="SVGID_4_" gradientTransform="matrix(.707 .707 -.707 .707 255 -105.625)" gradientUnits="userSpaceOnUse" x1="126.52" x2="126.52" xlink:href="#lg2" y1="238.981" y2="277.649"/><linearGradient id="lg3"><stop offset="0" stop-color="#ffd945"/><stop offset=".3043" stop-color="#ffcd3e"/><stop offset=".8558" stop-color="#ffad2b"/><stop offset="1" stop-color="#ffa325"/></linearGradient><linearGradient id="SVGID_5_" gradientTransform="matrix(.707 .707 -.707 .707 130.45 -280.346)" gradientUnits="userSpaceOnUse" x1="316.672" x2="416.949" xlink:href="#lg3" y1="123.174" y2="123.174"/><linearGradient id="lg4"><stop offset="0" stop-color="#e87264" stop-opacity="0"/><stop offset=".6519" stop-color="#f67150" stop-opacity=".652"/><stop offset="1" stop-color="#ff7044"/></linearGradient><linearGradient id="SVGID_6_" gradientTransform="matrix(.707 .707 -.707 .707 130.45 -280.346)" gradientUnits="userSpaceOnUse" x1="395.688" x2="273.76" xlink:href="#lg4" y1="115.036" y2="154.145"/><linearGradient id="SVGID_7_" gradientTransform="matrix(.707 .707 -.707 .707 130.45 -280.346)" gradientUnits="userSpaceOnUse" x1="520.696" x2="620.973" xlink:href="#lg3" y1="123.174" y2="123.174"/><linearGradient id="SVGID_8_" gradientTransform="matrix(.707 .707 -.707 .707 130.45 -280.346)" gradientUnits="userSpaceOnUse" x1="599.711" x2="477.783" xlink:href="#lg4" y1="115.036" y2="154.145"/><g><g><path d="m289.989 320.064-48.318 48.318c-28.556 28.556-74.855 28.556-103.412 0-28.556-28.556-28.556-74.855 0-103.412l48.318-48.318s61.77-72.624 55.075-79.319l-50.682-50.682c-6.695-6.695-79.319 55.075-79.319 55.075l-59.197 59.197c-69.937 69.937-69.937 183.327 0 253.264 69.937 69.937 183.327 69.937 253.265 0l58.958-58.958.24-.245s61.769-72.618 55.074-79.313l-50.682-50.682c-6.696-6.695-79.32 55.075-79.32 55.075z" fill="url(#SVGID_1_)"/><path d="m396.48 292.286-27.234-27.234c-6.695-6.695-17.487-5.681-24.182 1.014l-103.393 102.316c-28.556 28.556-74.855 28.556-103.412 0-28.556-28.556-28.556-74.855 0-103.412l48.32-48.327s61.84-72.688 55.145-79.383l-27.234-27.234-121.302 121.302c-50.292 50.292-50.292 131.832 0 182.125 50.292 50.292 131.832 50.292 182.125 0z" fill="url(#SVGID_2_)"/><g><path d="m421.066 314.596-50.682-50.682c-6.695-6.695-17.549-6.695-24.244 0l-56.151 56.151 74.926 74.926 56.151-56.151c6.695-6.695 6.695-17.549 0-24.244z" fill="url(#SVGID_3_)"/><path d="m242.727 136.257-50.682-50.682c-6.695-6.695-17.549-6.695-24.244 0l-56.151 56.151 74.926 74.926 56.151-56.151c6.695-6.694 6.695-17.549 0-24.244z" fill="url(#SVGID_4_)"/></g></g><g><g><path d="m249.577 128.546 75.215-16.606c9.338-2.062 13.663-12.884 8.317-20.814l-13.204-19.585c-4.776-7.085-3.323-16.648 3.342-21.995l39.385-31.59c6.757-5.42 1.57-16.251-6.889-14.383l-74.872 16.53c-9.43 2.082-13.72 13.076-8.193 20.995l13.136 18.819c4.949 7.09 3.554 16.804-3.191 22.214l-39.935 32.032c-6.757 5.42-1.57 16.25 6.889 14.383z" fill="url(#SVGID_5_)"/><path d="m333.109 91.126-13.204-19.585c-4.776-7.085-3.323-16.648 3.342-21.995l39.385-31.59c3.138-2.517 3.697-6.2 2.552-9.237l-54.409 27.87c-9.002 4.611-12.918 15.39-8.975 24.704l4.535 10.713c4.018 9.491-.13 20.464-9.42 24.925l-56.499 27.129c1.503 3.165 4.921 5.421 9.161 4.484l75.215-16.606c9.338-2.059 13.663-12.882 8.317-20.812z" fill="url(#SVGID_6_)"/></g><g><path d="m393.843 272.812 75.215-16.606c9.338-2.062 13.663-12.884 8.317-20.814l-13.204-19.585c-4.776-7.085-3.323-16.648 3.342-21.995l39.385-31.59c6.757-5.42 1.57-16.251-6.889-14.383l-74.872 16.53c-9.43 2.082-13.72 13.076-8.193 20.995l13.136 18.819c4.949 7.09 3.554 16.804-3.191 22.214l-39.935 32.032c-6.757 5.42-1.569 16.25 6.889 14.383z" fill="url(#SVGID_7_)"/><path d="m477.375 235.393-13.204-19.585c-4.776-7.085-3.323-16.648 3.342-21.995l39.385-31.59c3.138-2.517 3.697-6.2 2.552-9.237l-54.409 27.87c-9.002 4.611-12.918 15.39-8.975 24.704l4.535 10.713c4.018 9.491-.13 20.464-9.42 24.925l-56.499 27.129c1.503 3.165 4.921 5.421 9.161 4.484l75.215-16.606c9.339-2.06 13.663-12.883 8.317-20.812z" fill="url(#SVGID_8_)"/></g></g></g></svg>