<svg id="Capa_1" enable-background="new 0 0 511.983 511.983" height="512" viewBox="0 0 511.983 511.983" width="512"
     xmlns="http://www.w3.org/2000/svg">
    <path d="m511.493 61.211c-1.176-3.62-4.305-6.259-8.071-6.807l-46.439-6.754-20.774-42.077c-1.685-3.413-5.161-5.573-8.967-5.573s-7.282 2.161-8.967 5.575l-20.764 42.075-46.438 6.754c-3.767.548-6.896 3.187-8.071 6.807s-.194 7.594 2.531 10.25l33.604 32.751-7.932 46.258c-.643 3.752.899 7.544 3.979 9.781 3.052 2.217 7.133 2.547 10.532.76l41.525-21.842 41.535 21.842c3.37 1.771 7.453 1.477 10.531-.76 3.08-2.237 4.622-6.029 3.979-9.781l-7.932-46.258 33.604-32.751c2.73-2.656 3.711-6.63 2.535-10.25zm-53.86 32.348c-2.357 2.297-3.433 5.607-2.877 8.852l5.396 31.468-28.256-14.858c-1.457-.767-3.056-1.149-4.654-1.149s-3.198.384-4.655 1.149l-28.243 14.855 5.396-31.465c.556-3.244-.52-6.555-2.877-8.852l-22.86-22.279 31.589-4.595c3.257-.474 6.071-2.519 7.528-5.471l14.124-28.622 14.132 28.624c1.457 2.95 4.271 4.995 7.527 5.469l31.589 4.595z"/>
    <path d="m215.484 98.512 21.21-21.21c3.905-3.905 3.905-10.237 0-14.143-3.905-3.904-10.237-3.904-14.143 0l-21.21 21.21c-3.905 3.905-3.905 10.237 0 14.143 3.907 3.905 10.238 3.904 14.143 0z"/>
    <path d="m257.904 140.941 21.221-21.22c3.905-3.905 3.905-10.237 0-14.143-3.905-3.903-10.235-3.905-14.143 0l-21.221 21.22c-3.905 3.905-3.905 10.237 0 14.143 3.907 3.906 10.236 3.905 14.143 0z"/>
    <path d="m406.404 232.858c-3.906-3.904-10.238-3.904-14.143 0l-21.22 21.221c-3.905 3.905-3.905 10.237 0 14.143 3.906 3.905 10.237 3.905 14.143 0l21.22-21.221c3.905-3.905 3.905-10.237 0-14.143z"/>
    <path d="m434.681 275.289-21.21 21.21c-3.905 3.905-3.905 10.237 0 14.143 3.907 3.905 10.236 3.904 14.143 0l21.21-21.21c3.905-3.905 3.905-10.237 0-14.143-3.907-3.904-10.237-3.904-14.143 0z"/>
    <circle cx="53.982" cy="457.999" r="10"/>
    <path d="m258.983 450.999c-43.648 43.639-109.636 53.66-164.203 24.938-4.888-2.572-10.935-.697-13.507 4.19-2.573 4.888-.696 10.935 4.19 13.507 59.548 31.347 136.195 22.964 187.661-28.492 8.98-8.981 97.264-97.274 112.061-112.071 3.904-3.905 3.903-10.236-.001-14.142l-63.64-63.64c-1.876-1.875-4.42-2.929-7.072-2.929s-5.195 1.054-7.071 2.93l-112.059 112.068c-19.539 19.54-51.177 19.542-70.718 0-19.538-19.536-19.542-51.177 0-70.717l112.069-112.06c1.875-1.876 2.93-4.419 2.93-7.071s-1.053-5.196-2.929-7.072l-63.64-63.64c-3.904-3.904-10.235-3.903-14.141-.001-10.959 10.959-100.002 99.993-112.072 112.062-51.429 51.438-59.855 128.078-28.493 187.658 2.573 4.888 8.622 6.763 13.507 4.19 4.887-2.572 6.763-8.619 4.191-13.507-28.723-54.566-18.701-120.554 24.938-164.2l62.571-62.566 49.498 49.498-62.572 62.567c-27.354 27.355-27.357 71.644 0 99.002 27.355 27.355 71.645 27.358 99.003 0l62.566-62.571 49.498 49.498zm-121.285-274.706 28.284-28.281 49.498 49.497-28.284 28.282zm148.494 148.494 28.282-28.284 49.497 49.498-28.281 28.284z"/>
</svg>