<svg height="512" viewBox="0 0 88 88" width="512" xmlns="http://www.w3.org/2000/svg"><g id="Purse"><path d="m77 49h-3v8h7v-4a4 4 0 0 0 -4-4z" fill="#2946ed"/><path d="m12 31h48a5 5 0 0 1 5 5v5a0 0 0 0 1 0 0h-58a0 0 0 0 1 0 0v-5a5 5 0 0 1 5-5z" fill="#376cfb"/><path d="m7 36v44a7 7 0 0 0 7 7h54a7 7 0 0 0 7-7v-10a1 1 0 0 0 -1-1h-15.7769a5.152 5.152 0 0 1 -5.1986-4.5 5.0057 5.0057 0 0 1 4.9755-5.5h16a1 1 0 0 0 1-1v-10a7 7 0 0 0 -7-7h-56a5 5 0 0 1 -5-5z" fill="#4294ff"/><path d="m77 57h-19a7.0089 7.0089 0 0 0 -6.9406 7.9222 7.1647 7.1647 0 0 0 7.1853 6.0778h18.7553a4 4 0 0 0 4-4v-14a4 4 0 0 1 -4 4z" fill="#376cfb"/><circle cx="58" cy="64" fill="#2946ed" r="3"/><path d="m53 1h-34a1 1 0 0 0 -1 1v34h36v-34a1 1 0 0 0 -1-1z" fill="#e6ecff"/><path d="m49 11a5.0059 5.0059 0 0 1 -5-5 1 1 0 0 0 -1-1h-14a1 1 0 0 0 -1 1 5.0059 5.0059 0 0 1 -5 5 1 1 0 0 0 -1 1v23a1 1 0 0 0 1 1h26a1 1 0 0 0 1-1v-23a1 1 0 0 0 -1-1z" fill="#d0dbf7"/><path d="m41 28h-.1451a2.8436 2.8436 0 0 0 -5.2621-.4219l-.9746 1.9492a.854.854 0 0 1 -1.6182-.3818v-.291a.8561.8561 0 0 1 .8545-.8545h.1455a1 1 0 0 0 0-2h-.1455a2.8484 2.8484 0 0 0 -2.7094 2h-.1451a1 1 0 0 0 0 2h.1451a2.8436 2.8436 0 0 0 5.2621.4219l.9746-1.9492a.854.854 0 0 1 1.6182.3818v.291a.8561.8561 0 0 1 -.8545.8545h-.1455a1 1 0 0 0 0 2h.1455a2.8484 2.8484 0 0 0 2.7094-2h.1451a1 1 0 0 0 0-2z" fill="#4294ff"/><circle cx="36" cy="19" fill="#4294ff" r="3"/><path d="m58 37h-44a1 1 0 0 1 0-2h44a1 1 0 0 1 0 2z" fill="#2946ed"/></g></svg>