<svg id="Capa_1" enable-background="new 0 0 510 510" height="512" viewBox="0 0 510 510" width="512" xmlns="http://www.w3.org/2000/svg" xmlns:xlink="http://www.w3.org/1999/xlink"><radialGradient id="SVGID_1_" cx="230.176" cy="150.977" gradientUnits="userSpaceOnUse" r="179.797"><stop offset="0" stop-color="#f8f6fb"/><stop offset=".5895" stop-color="#f7f4fb"/><stop offset=".8016" stop-color="#f5edfb"/><stop offset=".9525" stop-color="#f1e2fb"/><stop offset="1" stop-color="#efdcfb"/></radialGradient><linearGradient id="lg1"><stop offset="0" stop-color="#8a7889"/><stop offset="1" stop-color="#6e566e"/></linearGradient><linearGradient id="SVGID_2_" gradientUnits="userSpaceOnUse" x1="336.314" x2="425.952" xlink:href="#lg1" y1="363.967" y2="453.605"/><linearGradient id="SVGID_3_" gradientTransform="matrix(-.707 -.707 .707 -.707 248.991 749.635)" gradientUnits="userSpaceOnUse" x1="132.213" x2="192.112" xlink:href="#lg1" y1="309.186" y2="369.085"/><linearGradient id="SVGID_4_" gradientUnits="userSpaceOnUse" x1="358.569" x2="395.455" xlink:href="#lg1" y1="386.222" y2="423.108"/><linearGradient id="SVGID_5_" gradientUnits="userSpaceOnUse" x1="388.691" x2="357.024" y1="465.798" y2="410.12"><stop offset="0" stop-color="#6e566e" stop-opacity="0"/><stop offset=".2944" stop-color="#674d66" stop-opacity=".294"/><stop offset="1" stop-color="#593b56"/></linearGradient><linearGradient id="lg2"><stop offset="0" stop-color="#65e0db"/><stop offset=".199" stop-color="#60dcd6"/><stop offset=".4277" stop-color="#53d0c8"/><stop offset=".671" stop-color="#3cbcb1"/><stop offset=".9229" stop-color="#1ca191"/><stop offset="1" stop-color="#119786"/></linearGradient><linearGradient id="SVGID_6_" gradientUnits="userSpaceOnUse" x1="151.333" x2="300.274" xlink:href="#lg2" y1="299.769" y2="486.293"/><linearGradient id="lg3"><stop offset="0" stop-color="#119786" stop-opacity="0"/><stop offset="1" stop-color="#119786"/></linearGradient><linearGradient id="SVGID_7_" gradientUnits="userSpaceOnUse" x1="269.835" x2="215.691" xlink:href="#lg3" y1="341.129" y2="286.985"/><linearGradient id="SVGID_8_" gradientUnits="userSpaceOnUse" x1="230.172" x2="230.172" xlink:href="#lg2" y1="232.769" y2="318.612"/><linearGradient id="SVGID_9_" gradientUnits="userSpaceOnUse" x1="227.52" x2="377.157" xlink:href="#lg3" y1="254.38" y2="409.585"/><linearGradient id="lg4"><stop offset="0" stop-color="#ffd945"/><stop offset=".3043" stop-color="#ffcd3e"/><stop offset=".8558" stop-color="#ffad2b"/><stop offset="1" stop-color="#ffa325"/></linearGradient><linearGradient id="SVGID_10_" gradientTransform="matrix(.931 -.365 .365 .931 -12.61 50.078)" gradientUnits="userSpaceOnUse" x1="140.318" x2="170.519" xlink:href="#lg4" y1="39.49" y2="62.75"/><linearGradient id="SVGID_11_" gradientTransform="matrix(.931 -.365 .365 .931 -12.61 50.078)" gradientUnits="userSpaceOnUse" x1="151.148" x2="196.43" xlink:href="#lg4" y1="36.022" y2="70.897"/><linearGradient id="SVGID_12_" gradientTransform="matrix(-.931 -.365 -.365 .931 261.856 50.078)" gradientUnits="userSpaceOnUse" x1="-56.207" x2="-26.006" xlink:href="#lg4" y1="-37.606" y2="-14.346"/><linearGradient id="SVGID_13_" gradientTransform="matrix(-.931 -.365 -.365 .931 261.856 50.078)" gradientUnits="userSpaceOnUse" x1="-45.377" x2="-.095" xlink:href="#lg4" y1="-41.074" y2="-6.199"/><linearGradient id="SVGID_14_" gradientUnits="userSpaceOnUse" x1="283.304" x2="242.146" xlink:href="#lg3" y1="400.043" y2="400.043"/><linearGradient id="SVGID_15_" gradientUnits="userSpaceOnUse" x1="182.734" x2="242.122" xlink:href="#lg3" y1="400.043" y2="400.043"/><g><path d="m230.176 308.173c-92.872 0-168.428-68.844-168.428-153.465 0-48.682 25.727-94.954 68.82-123.777 6.386-4.273 15.033-2.56 19.309 3.831 4.274 6.39 2.558 15.035-3.832 19.309-35.88 23.999-56.458 60.679-56.458 100.636 0 69.27 63.068 125.625 140.589 125.625s140.589-56.355 140.589-125.625c0-39.958-20.578-76.639-56.458-100.636-6.39-4.274-8.106-12.919-3.832-19.309 4.274-6.391 12.919-8.106 19.309-3.831 43.093 28.822 68.82 75.094 68.82 123.777.001 84.621-75.556 153.465-168.428 153.465z" fill="url(#SVGID_1_)"/><g><circle cx="374.13" cy="401.783" fill="url(#SVGID_2_)" r="74.122"/><circle cx="374.13" cy="401.783" fill="url(#SVGID_3_)" r="49.531"/><circle cx="374.13" cy="401.783" fill="url(#SVGID_4_)" r="30.502"/></g><path d="m303.535 379.163c-2.283 7.132-3.528 14.729-3.528 22.62 0 40.937 33.186 74.122 74.122 74.122 26.886 0 50.428-14.316 63.422-35.74l-53.993-53.993c-3.824-4.291-9.376-7.009-15.576-7.009z" fill="url(#SVGID_5_)"/><path d="m186.794 510c-35.435 0-64.263-28.828-64.263-64.263v-2.312c0-35.435 28.828-64.262 64.263-64.262h22.503v-84.91c0-11.531 9.348-20.88 20.88-20.88 11.531 0 20.88 9.348 20.88 20.88v84.91h116.926c11.531 0 20.88 9.348 20.88 20.88 0 11.531-9.348 20.88-20.88 20.88h-116.927v24.815c0 35.434-28.828 64.262-64.262 64.262zm0-89.078c-12.408 0-22.504 10.095-22.504 22.503v2.312c0 12.409 10.096 22.504 22.504 22.504s22.503-10.095 22.503-22.504v-24.815z" fill="url(#SVGID_6_)"/><path d="m251.056 294.253c0-11.531-9.348-20.88-20.88-20.88-11.531 0-20.88 9.348-20.88 20.88v23.083l41.759 41.759v-64.842z" fill="url(#SVGID_7_)"/><path d="m230.172 318.612c-44.743 0-87.557-15.2-120.555-42.798-10.319-8.631-11.688-23.994-3.057-34.313 8.63-10.322 23.995-11.689 34.314-3.058 24.248 20.281 55.962 31.45 89.298 31.45s65.05-11.169 89.298-31.45c10.317-8.63 25.681-7.264 34.314 3.058 8.63 10.319 7.262 25.682-3.057 34.313-32.998 27.599-75.812 42.798-120.555 42.798z" fill="url(#SVGID_8_)"/><path d="m353.784 241.502c-1.553-1.857-3.33-3.412-5.249-4.683.818 7.795-2.132 15.842-8.595 21.249-32.998 27.598-75.812 42.798-120.555 42.798-43.741 0-85.634-14.534-118.319-40.971.684 5.993 3.56 11.745 8.552 15.921 32.998 27.598 75.812 42.798 120.555 42.798s87.557-15.2 120.555-42.798c10.318-8.632 11.687-23.995 3.056-34.314z" fill="url(#SVGID_9_)"/><g><g><path d="m156.853 55.046-8.64 3.39c-5.495 2.156-11.697-.551-13.852-6.046l-5.752-14.662c-2.156-5.495.551-11.697 6.046-13.852l8.64-3.39c5.495-2.156 11.697.551 13.852 6.046l5.752 14.662c2.156 5.494-.551 11.696-6.046 13.852z" fill="url(#SVGID_10_)"/><path d="m169.77 68.332c-3.904 1.532-8.311-.392-9.843-4.296l-20.491-52.234c-1.532-3.904.392-8.311 4.296-9.842 14.532-5.701 30.935 1.458 36.636 15.991l5.392 13.746c5.701 14.532-1.458 30.934-15.99 36.635z" fill="url(#SVGID_11_)"/></g><g><path d="m303.499 55.046 8.64 3.39c5.495 2.156 11.697-.551 13.852-6.046l5.752-14.662c2.156-5.495-.551-11.697-6.046-13.852l-8.64-3.39c-5.495-2.156-11.697.551-13.852 6.046l-5.752 14.662c-2.155 5.494.552 11.696 6.046 13.852z" fill="url(#SVGID_12_)"/><path d="m290.583 68.332c3.904 1.532 8.311-.392 9.843-4.296l20.491-52.234c1.532-3.904-.392-8.311-4.296-9.842-14.532-5.701-30.935 1.458-36.636 15.991l-5.392 13.746c-5.702 14.532 1.458 30.934 15.99 36.635z" fill="url(#SVGID_13_)"/></g></g><path d="m367.982 379.163h-116.926v41.759h116.926c11.531 0 20.88-9.348 20.88-20.88-.001-11.531-9.349-20.879-20.88-20.879z" fill="url(#SVGID_14_)"/><path d="m126.607 420.922h60.187 22.503v-41.759h-22.503c-27.52 0-51.047 17.392-60.187 41.759z" fill="url(#SVGID_15_)"/></g></svg>