<svg height="512" viewBox="0 0 32 32" width="512" xmlns="http://www.w3.org/2000/svg"><g id="Next"><path d="m23.87 20.71a1 1 0 0 1 -.37 1.36l-7 4.06a3 3 0 0 1 -4.5-2.6v-.59l-5.5 3.19a2.95 2.95 0 0 1 -3 0 3 3 0 0 1 -1.5-2.6v-9.53a1 1 0 0 1 2 0v9.53a1 1 0 0 0 1.5.87l13-7.53a1 1 0 0 0 0-1.74l-13-7.53a1 1 0 0 0 -1.5.87 1 1 0 0 1 -2 0 3 3 0 0 1 4.5-2.6l13 7.53a3 3 0 0 1 0 5.2l-5.5 3.19v1.74a1 1 0 0 0 .5.86 1 1 0 0 0 1 0l7-4.05a1 1 0 0 1 1.37.37zm5.64-7.31-13-7.53a1 1 0 1 0 -1 1.74l13 7.53a1 1 0 0 1 0 1.72l-3 1.75a1 1 0 0 0 -.38 1.39 1 1 0 0 0 1.37.37l3-1.74a3 3 0 0 0 0-5.2z"/></g></svg>