<!--
  - Copyright (c) 2023. Selldone® Business OS™
  -
  - Author: M.Pajuhaan
  - Web: https://selldone.com
  - ━━━━━━━━━━━━━━━━━━━━━━━━━━━━━━━━━━━━━━━━━━━━━━━━━━━━━━
  -
  - All rights reserved. In the weave of time, where traditions and innovations intermingle, this content was crafted.
  - From the essence of thought, through the corridors of creativity, each word, and sentiment has been molded.
  - Not just to exist, but to inspire. Like an artist's stroke or a sculptor's chisel, every nuance is deliberate.
  - Our journey is not just about reaching a destination, but about creating a masterpiece.
  - Tread carefully, for you're treading on dreams.
  -->

<svg id="Layer_1_1_" enable-background="new 0 0 64 64" height="512" viewBox="0 0 64 64" width="512" xmlns="http://www.w3.org/2000/svg"><path d="m30 36c0 2.757 2.243 5 5 5s5-2.243 5-5-2.243-5-5-5-5 2.243-5 5zm8 0c0 1.654-1.346 3-3 3s-3-1.346-3-3 1.346-3 3-3 3 1.346 3 3z"/><path d="m61.737 6.965.526-1.93-11-3c-.298-.08-.616-.02-.863.165l-2.79 2.09c-.508-.175-1.043-.29-1.61-.29-1.695 0-3.192.853-4.096 2.147l-34.411 7.879c-3.072.258-5.493 2.837-5.493 5.974 0 2.534 1.581 4.701 3.806 5.579l19.921 10.866-7.391 17.555h-1.336c-2.757 0-5 2.243-5 5v2c0 .552.448 1 1 1h38c.552 0 1-.448 1-1v-2c0-2.757-2.243-5-5-5h-1.1l-1.906-18.103c-.047-4.127-2.886-7.586-6.712-8.592l-13.459-6.355 20.927-7.127c.402.104.816.177 1.25.177.567 0 1.102-.115 1.611-.29l2.79 2.09c.175.131.386.2.6.2.088 0 .176-.012.263-.035l11-3-.526-1.93-10.528 2.872-1.75-1.311c.945-.911 1.54-2.183 1.54-3.596s-.595-2.685-1.541-3.596l1.75-1.311zm-35.586 27.433-16.083-8.773c2.291-.845 3.932-3.044 3.932-5.625 0-.548-.08-1.076-.218-1.581l18.859 8.905c-3.315.903-5.871 3.652-6.49 7.074zm-18.151-18.398c2.206 0 4 1.794 4 4s-1.794 4-4 4c-.494 0-.963-.102-1.4-.266l-.97-.529c-.983-.73-1.63-1.889-1.63-3.205 0-2.206 1.794-4 4-4zm42 43v1h-36v-1c0-1.654 1.346-3 3-3h30c1.654 0 3 1.346 3 3zm-29.494-5 6.157-14.623c1.339 3.293 4.569 5.623 8.337 5.623 3.138 0 5.903-1.617 7.514-4.06l1.375 13.06zm21.494-18c0 3.86-3.14 7-7 7s-7-3.14-7-7 3.14-7 7-7 7 3.14 7 7zm-30.458-20.85 29.52-6.758c-.025.201-.062.4-.062.608 0 1.362.55 2.595 1.436 3.498l-21.213 7.224zm31.458-6.15c0-1.654 1.346-3 3-3s3 1.346 3 3-1.346 3-3 3-3-1.346-3-3z"/><path d="m39 50h2v2h-2z"/><path d="m35 50h2v2h-2z"/><path d="m31 50h2v2h-2z"/><path d="m7 19h2v2h-2z"/><path d="m45 8h2v2h-2z"/></svg>