<svg id="Capa_1" enable-background="new 0 0 510 510" height="512" viewBox="0 0 510 510" width="512" xmlns="http://www.w3.org/2000/svg" xmlns:xlink="http://www.w3.org/1999/xlink"><linearGradient id="lg1"><stop offset="0" stop-color="#ff7044"/><stop offset="1" stop-color="#f82814"/></linearGradient><linearGradient id="SVGID_1_" gradientTransform="matrix(-.707 -.707 .707 -.707 1337.936 1290.446)" gradientUnits="userSpaceOnUse" x1="1527.11" x2="1498.914" xlink:href="#lg1" y1="186.504" y2="186.504"/><linearGradient id="SVGID_2_" gradientTransform="matrix(0 -1 1 0 1555.49 1365.079)" gradientUnits="userSpaceOnUse" x1="1189.423" x2="1161.227" xlink:href="#lg1" y1="-1120.779" y2="-1120.779"/><linearGradient id="SVGID_3_" gradientUnits="userSpaceOnUse" x1="297.6" x2="269.404" xlink:href="#lg1" y1="38.545" y2="38.545"/><linearGradient id="lg2"><stop offset="0" stop-color="#ffd945"/><stop offset=".3043" stop-color="#ffcd3e"/><stop offset=".8558" stop-color="#ffad2b"/><stop offset="1" stop-color="#ffa325"/></linearGradient><linearGradient id="SVGID_4_" gradientTransform="matrix(.707 -.707 .707 .707 -481.904 410.835)" gradientUnits="userSpaceOnUse" x1="450.53" x2="507.948" xlink:href="#lg2" y1="473.788" y2="531.205"/><linearGradient id="SVGID_5_" gradientTransform="matrix(.707 -.707 .707 .707 -481.904 410.835)" gradientUnits="userSpaceOnUse" x1="515.279" x2="411.339" xlink:href="#lg2" y1="516" y2="477.46"/><linearGradient id="SVGID_6_" gradientTransform="matrix(.707 -.707 .707 .707 -481.904 410.835)" gradientUnits="userSpaceOnUse" x1="449.681" x2="501.721" xlink:href="#lg2" y1="479.632" y2="531.672"/><linearGradient id="lg3"><stop offset="0" stop-color="#f8f6fb"/><stop offset="1" stop-color="#efdcfb"/></linearGradient><linearGradient id="SVGID_7_" gradientTransform="matrix(.707 -.707 .707 .707 -481.904 410.835)" gradientUnits="userSpaceOnUse" x1="745.397" x2="616.152" xlink:href="#lg3" y1="437.62" y2="348.862"/><linearGradient id="SVGID_8_" gradientTransform="matrix(.707 -.707 .707 .707 -481.904 410.835)" gradientUnits="userSpaceOnUse" x1="753.199" x2="652.503" y1="447.562" y2="361.4"><stop offset="0" stop-color="#efdcfb" stop-opacity="0"/><stop offset=".2889" stop-color="#c7b6df" stop-opacity=".289"/><stop offset=".5915" stop-color="#a495c7" stop-opacity=".592"/><stop offset=".8395" stop-color="#8e80b7" stop-opacity=".84"/><stop offset="1" stop-color="#8679b2"/></linearGradient><linearGradient id="SVGID_9_" gradientTransform="matrix(.707 -.707 .707 .707 -481.904 410.835)" gradientUnits="userSpaceOnUse" x1="787.133" x2="714.218" xlink:href="#lg2" y1="426.15" y2="376.076"/><linearGradient id="lg4"><stop offset="0" stop-color="#f35227" stop-opacity="0"/><stop offset="1" stop-color="#f35227"/></linearGradient><linearGradient id="SVGID_10_" gradientTransform="matrix(.707 -.707 .707 .707 -481.904 410.835)" gradientUnits="userSpaceOnUse" x1="764.942" x2="700.061" xlink:href="#lg4" y1="454.221" y2="419.445"/><linearGradient id="SVGID_11_" gradientUnits="userSpaceOnUse" x1="254.75" x2="302.179" xlink:href="#lg1" y1="173.575" y2="221.005"/><linearGradient id="SVGID_12_" gradientUnits="userSpaceOnUse" x1="287.222" x2="391.039" y1="202.877" y2="172.424"><stop offset="0" stop-color="#f82814" stop-opacity="0"/><stop offset="1" stop-color="#c0272d"/></linearGradient><linearGradient id="SVGID_13_" gradientUnits="userSpaceOnUse" x1="288.293" x2="217.698" y1="214.404" y2="97.668"><stop offset="0" stop-color="#ff7044" stop-opacity="0"/><stop offset="1" stop-color="#ffa325"/></linearGradient><linearGradient id="lg5"><stop offset="0" stop-color="#8a7889"/><stop offset="1" stop-color="#6e566e"/></linearGradient><linearGradient id="SVGID_14_" gradientTransform="matrix(.707 -.707 .707 .707 -593.42 364.644)" gradientUnits="userSpaceOnUse" x1="455.674" x2="503.104" xlink:href="#lg5" y1="473.922" y2="521.352"/><linearGradient id="SVGID_15_" gradientTransform="matrix(.707 -.707 .707 .707 -593.42 364.644)" gradientUnits="userSpaceOnUse" x1="488.147" x2="591.964" y1="503.224" y2="472.771"><stop offset="0" stop-color="#6e566e" stop-opacity="0"/><stop offset=".2191" stop-color="#685168" stop-opacity=".219"/><stop offset="1" stop-color="#564357"/></linearGradient><linearGradient id="SVGID_16_" gradientTransform="matrix(.707 -.707 .707 .707 -593.42 364.644)" gradientUnits="userSpaceOnUse" x1="489.218" x2="418.622" y1="514.751" y2="398.014"><stop offset="0" stop-color="#8a7889" stop-opacity="0"/><stop offset="1" stop-color="#9d8b91"/></linearGradient><linearGradient id="SVGID_17_" gradientTransform="matrix(.707 -.707 .707 .707 -481.904 410.835)" gradientUnits="userSpaceOnUse" x1="499.534" x2="462.941" xlink:href="#lg4" y1="501.371" y2="394.316"/><linearGradient id="SVGID_18_" gradientTransform="matrix(.707 -.707 .707 .707 -481.904 410.835)" gradientUnits="userSpaceOnUse" x1="570.649" x2="570.649" xlink:href="#lg3" y1="325.818" y2="455.1"/><linearGradient id="SVGID_19_" gradientTransform="matrix(-.707 -.707 .707 -.707 754.073 1587.209)" gradientUnits="userSpaceOnUse" x1="1321.003" x2="1321.003" xlink:href="#lg5" y1="386.728" y2="433.977"/><linearGradient id="SVGID_20_" gradientTransform="matrix(.707 -.707 .707 .707 -481.904 410.835)" gradientUnits="userSpaceOnUse" x1="689.328" x2="689.328" xlink:href="#lg2" y1="328.746" y2="529.916"/><g><g><g><path d="m419.506 53.75c5.351 5.351 5.351 14.027 0 19.378l-35.133 35.133c-5.351 5.351-14.027 5.351-19.378 0-5.351-5.351-5.351-14.027 0-19.378l35.133-35.133c5.351-5.351 14.027-5.351 19.378 0z" fill="url(#SVGID_1_)"/></g><g><path d="m473.257 178.848c0 7.568-6.135 13.703-13.702 13.703h-49.686c-7.568 0-13.702-6.135-13.702-13.702 0-7.568 6.135-13.702 13.702-13.702h49.686c7.567-.002 13.702 6.133 13.702 13.701z" fill="url(#SVGID_2_)"/></g><g><path d="m294.409 77.091c-7.568 0-13.703-6.135-13.703-13.703v-49.685c0-7.568 6.135-13.703 13.703-13.703 7.568 0 13.703 6.135 13.703 13.703v49.686c-.001 7.567-6.135 13.702-13.703 13.702z" fill="url(#SVGID_3_)"/></g></g><g><g><path d="m128.848 392.9 36.79 36.79c12.469 12.469 20.124 28.947 21.61 46.518l3.07 19.512c.726 8.581 8.271 14.95 16.852 14.224l37.042-3.133c8.581-.726 14.95-8.271 14.224-16.852l-4.745-39.314c-1.765-20.866-10.855-40.434-25.662-55.241l-50.842-50.842z" fill="url(#SVGID_4_)"/><path d="m245.111 493.496c-.368.368-1.005.823-1.949.903l-37.042 3.132c-1.07.091-1.834-.346-2.288-.728-.453-.382-1.011-1.063-1.102-2.132l-.037-.446-3.074-19.528c-1.825-20.302-10.753-39.396-25.172-53.815l-27.982-27.982 30.721-30.721 42.034 42.034c12.71 12.71 20.543 29.573 22.058 47.481l.045.443 4.709 39.012c.051 1.186-.549 1.975-.921 2.347z" fill="url(#SVGID_5_)"/><path d="m213.996 492.176c-3.835.324-7.269-2.369-7.867-6.171l-1.871-11.884c-1.953-21.325-11.363-41.4-26.507-56.544l-19.489-19.489c-2.866-2.866-2.866-7.512 0-10.378l13.737-13.737c2.866-2.866 7.512-2.866 10.378 0l33.541 33.541c11.931 11.931 19.284 27.759 20.706 44.572l.053.522 3.586 29.718c.498 4.126-2.526 7.841-6.667 8.191z" fill="url(#SVGID_6_)"/></g><path d="m176.173 40.904c-4.813 4.813-5.164 13.594-1.722 25.236 1.963 37.691-4.042 148.237-121.944 266.139l88.335 88.335c117.902-117.903 228.447-123.907 266.138-121.944 11.642 3.442 20.422 3.091 25.236-1.722 17.766-17.766-25.15-89.485-95.854-160.189-70.705-70.705-142.424-113.621-160.189-95.855z" fill="url(#SVGID_7_)"/><path d="m336.778 137.177-59.63-.033c-32.491 0-58.829 26.339-58.829 58.829 0 32.491 26.339 58.829 58.829 58.829h150.115c-14.935-31.307-47.562-74.633-90.485-117.625z" fill="url(#SVGID_8_)"/><path d="m336.367 136.753c70.7 70.7 113.619 142.423 95.848 160.194-3.05 3.05-7.696 4.305-13.664 3.931-1.784-28.738-41.268-87.975-99.801-146.508s-117.77-98.017-146.508-99.801c-.374-5.968.881-10.614 3.931-13.664 17.771-17.771 89.494 25.148 160.194 95.848z" fill="url(#SVGID_9_)"/><path d="m427.263 254.802c-14.935-31.306-47.562-74.633-90.485-117.625l-35.849-.02c5.926 5.532 11.877 11.269 17.822 17.214 35.552 35.552 64.055 71.352 81.373 100.432z" fill="url(#SVGID_10_)"/><g><g><g><circle cx="277.148" cy="195.973" fill="url(#SVGID_11_)" r="58.829"/></g><path d="m307.381 145.499c5.304 8.836 8.356 19.178 8.356 30.233 0 32.49-26.339 58.829-58.829 58.829-11.056 0-21.398-3.052-30.233-8.356 10.283 17.131 29.038 28.596 50.473 28.596 32.49 0 58.829-26.339 58.829-58.829 0-21.434-11.465-40.189-28.596-50.473z" fill="url(#SVGID_12_)"/><circle cx="277.148" cy="195.973" fill="url(#SVGID_13_)" r="54.221"/></g></g><g><g><g><circle cx="95.573" cy="377.547" fill="url(#SVGID_14_)" r="58.829"/></g><path d="m81.261 320.479c9.998 2.497 19.469 7.652 27.287 15.469 22.974 22.974 22.974 60.223 0 83.197-7.818 7.818-17.288 12.972-27.287 15.47 19.385 4.842 40.753-.313 55.91-15.47 22.974-22.974 22.974-60.223 0-83.197-15.157-15.156-36.525-20.31-55.91-15.469z" fill="url(#SVGID_15_)"/><circle cx="95.573" cy="377.547" fill="url(#SVGID_16_)" r="54.221"/></g></g><path d="m228.029 395.404-50.842-50.842-48.339 48.338 30.167 30.167h87.751c-4.41-10.246-10.729-19.655-18.737-27.663z" fill="url(#SVGID_17_)"/><path d="m272.032 201.088c51.541 51.541 103.632 88.328 134.958 97.588-37.667-1.971-148.237 4.019-266.15 121.932l-88.328-88.328c117.913-117.913 123.903-228.483 121.932-266.15 9.26 31.326 46.036 83.406 97.588 134.958z" fill="url(#SVGID_18_)"/><path d="m76.803 310.615 85.702 85.702c6.65 6.65 6.65 17.432 0 24.082-6.65 6.65-17.432 6.65-24.081 0l-85.702-85.702c-6.65-6.65-6.65-17.432 0-24.082 6.65-6.65 17.431-6.65 24.081 0z" fill="url(#SVGID_19_)"/><path d="m431.752 297.388c-7.234 6.904-18.135 9.414-31.524 8.049l-.011-.011-.033.011c-36.853-3.755-57.861 7.036-148.699-83.802s-80.048-111.847-83.802-148.699l.011-.033-.011-.011c-1.365-13.389 1.145-24.29 8.049-31.524-4.393 4.9-4.624 13.499-1.288 24.763l.011.011v.022c9.282 31.325 46.047 83.395 97.577 134.925 51.519 51.519 103.599 88.295 134.925 97.577h.022l.011.011c11.263 3.335 19.863 3.104 24.762-1.289z" fill="url(#SVGID_20_)"/></g></g></svg>