<!--
  - Copyright (c) 2023. Selldone® Business OS™
  -
  - Author: M.Pajuhaan
  - Web: https://selldone.com
  - ━━━━━━━━━━━━━━━━━━━━━━━━━━━━━━━━━━━━━━━━━━━━━━━━━━━━━━
  -
  - All rights reserved. In the weave of time, where traditions and innovations intermingle, this content was crafted.
  - From the essence of thought, through the corridors of creativity, each word, and sentiment has been molded.
  - Not just to exist, but to inspire. Like an artist's stroke or a sculptor's chisel, every nuance is deliberate.
  - Our journey is not just about reaching a destination, but about creating a masterpiece.
  - Tread carefully, for you're treading on dreams.
  -->

<svg id="Layer_2" height="512" viewBox="0 0 64 64" width="512" xmlns="http://www.w3.org/2000/svg" data-name="Layer 2"><path d="m12.20166 50.84375h23.28272v-3h-23.28272a5.19639 5.19639 0 0 1 -5.20166-5.17969v-26.85254a5.19638 5.19638 0 0 1 5.20166-5.17968h5.73v8.415a4.50493 4.50493 0 0 0 4.5 4.5h10.15525a4.50492 4.50492 0 0 0 4.5-4.5v-8.415h5.73047a5.19638 5.19638 0 0 1 5.20162 5.17968v15.55371h3v-15.55371a8.19965 8.19965 0 0 0 -8.20166-8.17968h-30.61568a8.19965 8.19965 0 0 0 -8.20166 8.17968v26.85254a8.19966 8.19966 0 0 0 8.20166 8.17969zm8.73-40.21191h13.15525v8.415a1.50164 1.50164 0 0 1 -1.5 1.5h-10.15527a1.50164 1.50164 0 0 1 -1.5-1.5z"/><path d="m11.979 40.402h9.233v3h-9.233z"/><path d="m11.979 34.398h13.033v3h-13.033z"/><path d="m48.87793 34.124a11.12207 11.12207 0 1 0 11.12207 11.12209 11.13446 11.13446 0 0 0 -11.12207-11.12209zm0 19.24414a8.12207 8.12207 0 1 1 8.12207-8.12205 8.13117 8.13117 0 0 1 -8.12207 8.12207z"/><path d="m48.25732 45.5918-2.07324-2.07325-2.12108 2.1211 3.13379 3.13379a1.49946 1.49946 0 0 0 2.12109 0l5.65723-5.65723-2.12111-2.12109z"/></svg>