<svg xmlns="http://www.w3.org/2000/svg" xml:space="preserve" viewBox="0 0 512 512"><linearGradient id="a" x1="290.738" x2="500.248" y1="299.048" y2="299.048" gradientTransform="matrix(1.0039 0 0 -1.0039 .192 516.56)" gradientUnits="userSpaceOnUse"><stop offset="0" style="stop-color:#738611"/><stop offset="1" style="stop-color:#4c6606"/></linearGradient><path d="M448.152 383.285a149 149 0 0 0 3.405-3.913l.05-.058a149 149 0 0 0 3.535-4.386 151 151 0 0 0 3.067-4.088l.064-.087a150 150 0 0 0 2.983-4.291l.252-.38a150 150 0 0 0 2.738-4.262l.067-.107q1.364-2.216 2.651-4.479l.26-.462q1.238-2.188 2.403-4.422l.065-.123a147 147 0 0 0 2.312-4.654q.127-.268.252-.538a149 149 0 0 0 2.07-4.583l.054-.123a148 148 0 0 0 1.964-4.817l.233-.609a147 147 0 0 0 1.73-4.741l.04-.113a149 149 0 0 0 1.805-5.637 146 146 0 0 0 1.382-4.9l.024-.09c.443-1.693.852-3.399 1.237-5.115l.157-.714c.367-1.68.713-3.366 1.023-5.066l.009-.046c.316-1.738.597-3.488.853-5.245q.054-.381.107-.764c.243-1.731.463-3.468.646-5.216v-.002c.538-5.153.818-10.384.818-15.679 0-30.483-9.149-58.827-24.849-82.439-20.984-31.559-31.44-68.723-30.959-106.618q.015-1.212 0-2.432C429.955 41.79 388.923.711 338.627.014c-52.137-.723-94.628 41.324-94.628 93.295q0 1.195.03 2.383c.949 37.826-10.869 74.701-31.586 106.362-15.2 23.23-24.092 50.96-24.241 80.759-.41 81.865 66.059 149.228 147.922 149.861 36.601.283 70.175-12.628 96.265-34.254l.064-.053a149 149 0 0 0 4.063-3.495l.004-.003a150 150 0 0 0 3.926-3.632l.133-.128a154 154 0 0 0 3.734-3.711l.031-.032a150 150 0 0 0 3.808-4.081" style="fill:url(#a)"/><linearGradient id="b" x1="398.451" x2="97.961" y1="104.354" y2="404.844" gradientTransform="matrix(1.0039 0 0 -1.0039 .192 516.56)" gradientUnits="userSpaceOnUse"><stop offset="0" style="stop-color:#4c6606;stop-opacity:0"/><stop offset="1" style="stop-color:#4c6606"/></linearGradient><path d="M243.78 110.067c-1.952 32.743-13.253 64.349-31.334 91.983-15.2 23.23-24.092 50.96-24.241 80.759-.41 81.865 66.059 149.228 147.922 149.861 36.601.283 70.175-12.628 96.265-34.254l.064-.053a149 149 0 0 0 4.063-3.495l.004-.003a150 150 0 0 0 3.926-3.632l.133-.128a154 154 0 0 0 3.734-3.711l.031-.032q1.845-1.904 3.622-3.871l.184-.206a149 149 0 0 0 3.405-3.913l.05-.058a149 149 0 0 0 3.535-4.386 151 151 0 0 0 3.067-4.088l.064-.087a150 150 0 0 0 2.983-4.291l.252-.38a150 150 0 0 0 2.738-4.262l.067-.107q1.364-2.216 2.651-4.479l.26-.462q1.238-2.188 2.403-4.422l.065-.123a147 147 0 0 0 2.312-4.654q.127-.268.252-.538a149 149 0 0 0 2.07-4.583l.054-.123c.167-.389.316-.786.48-1.177z" style="fill:url(#b)"/><linearGradient id="c" x1="97.998" x2="403.358" y1="284.381" y2="-20.979" gradientTransform="matrix(1.0039 0 0 -1.0039 .192 516.56)" gradientUnits="userSpaceOnUse"><stop offset="0" style="stop-color:#738611"/><stop offset="1" style="stop-color:#4c6606"/></linearGradient><path d="M267.99 173.837q.015-1.212 0-2.433c-.645-50.296-41.677-91.375-91.973-92.072-52.137-.723-94.628 41.324-94.628 93.295q0 1.195.03 2.383c.949 37.826-10.869 74.701-31.586 106.362-15.2 23.23-24.092 50.96-24.241 80.759-.41 81.865 66.059 149.228 147.923 149.861 82.889.641 150.284-66.358 150.284-149.099 0-30.483-9.149-58.827-24.849-82.439-20.985-31.558-31.442-68.722-30.96-106.617" style="fill:url(#c)"/><radialGradient id="d" cx="175.647" cy="228.379" r="133.37" gradientTransform="matrix(1.0039 .00057 .0008 -1.4093 -.07 649.046)" gradientUnits="userSpaceOnUse"><stop offset="0" style="stop-color:#ffe7a5"/><stop offset=".176" style="stop-color:#fae4a0"/><stop offset=".398" style="stop-color:#eadc90"/><stop offset=".644" style="stop-color:#d0cf76"/><stop offset=".907" style="stop-color:#acbd52"/><stop offset="1" style="stop-color:#9eb644"/></radialGradient><path d="M260.549 179.503q.014-1.156 0-2.319c-.593-47.957-38.353-87.125-84.638-87.79-47.978-.689-87.081 39.402-87.081 88.955q0 1.14.027 2.273c.873 36.066-10.002 71.227-29.068 101.416-13.988 22.15-22.171 48.59-22.308 77.003-.376 78.057 60.79 142.287 136.125 142.891 76.278.611 138.298-63.272 138.298-142.164 0-29.065-8.419-56.09-22.867-78.605-19.309-30.091-28.931-65.528-28.488-101.66" style="fill:url(#d)"/><linearGradient id="e" x1="313.867" x2="171.967" y1="28.961" y2="170.861" gradientTransform="matrix(1.0039 0 0 -1.0039 .192 516.56)" gradientUnits="userSpaceOnUse"><stop offset="0" style="stop-color:#8cc63f;stop-opacity:0"/><stop offset="1" style="stop-color:#738611"/></linearGradient><path d="m322.978 378.574-95.58-95.58c-13.808-14.555-32.334-23.466-52.705-23.466-42.69 0-77.296 39.112-77.296 87.358 0 26.89 10.753 50.938 27.661 66.964l92.026 92.026c56.865-16.834 99.556-66.656 105.894-127.302" style="fill:url(#e)"/><linearGradient id="f" x1="146.448" x2="194.198" y1="196.382" y2="148.632" gradientTransform="matrix(1.0039 0 0 -1.0039 .192 516.56)" gradientUnits="userSpaceOnUse"><stop offset="0" style="stop-color:#654e48"/><stop offset="1" style="stop-color:#503837"/></linearGradient><ellipse cx="174.692" cy="346.884" rx="77.296" ry="87.361" style="fill:url(#f)"/></svg>