<svg id="color" enable-background="new 0 0 24 24" height="512" viewBox="0 0 24 24" width="512"
     xmlns="http://www.w3.org/2000/svg">
    <path d="m24 1.75v2.25h-24v-2.25c0-.96.79-1.75 1.75-1.75h20.5c.96 0 1.75.79 1.75 1.75z" fill="#1976d2"/>
    <path d="m24 4v5.87c0 6.99-4.99 12.92-11.87 14.12l-.13.01-.13-.01c-6.88-1.2-11.87-7.13-11.87-14.12v-5.87z"
          fill="#2196f3"/>
    <path d="m15.979 12.5 1.865-2.417c.184-.237.207-.561.062-.823-.146-.262-.425-.411-.732-.381l-3.202.331-1.292-2.776c-.246-.528-1.113-.528-1.359 0l-1.291 2.776-3.203-.331c-.307-.03-.586.12-.732.381-.146.262-.122.585.062.823l1.864 2.417-1.865 2.417c-.184.237-.207.561-.062.823.146.262.426.411.732.381l3.202-.331 1.291 2.776c.124.265.389.434.681.434s.557-.169.68-.434l1.291-2.776 3.202.331c.307.028.586-.12.732-.381.146-.262.122-.585-.062-.823z"
          fill="#fafafa"/>
    <path d="m12 0h-10.25c-.96 0-1.75.79-1.75 1.75v2.25h12z" fill="#1667b7"/>
    <path d="m12 4h-12v5.87c0 6.99 4.99 12.92 11.87 14.12l.13.01v-5c-.292 0-.557-.169-.68-.434l-1.291-2.776-3.202.331c-.026.002-.051.004-.076.004-.276 0-.522-.145-.656-.385-.146-.262-.122-.585.062-.823l1.864-2.417-1.865-2.417c-.183-.237-.207-.561-.061-.823.134-.239.378-.385.654-.385.026 0 .052.001.078.004l3.202.331 1.291-2.776c.123-.264.401-.396.68-.396z"
          fill="#1d83d4"/>
    <path d="m12 6.037c-.278 0-.557.132-.68.396l-1.291 2.776-3.202-.33c-.026-.003-.052-.004-.078-.004-.276 0-.52.146-.654.385-.146.262-.122.585.062.823l1.864 2.417-1.865 2.417c-.184.237-.207.561-.062.823.134.24.38.385.656.385.025 0 .051-.001.076-.004l3.202-.331 1.291 2.776c.124.265.389.434.681.434z"
          fill="#dadada"/>
</svg>