<svg height="512" viewBox="0 0 64 64" width="512" xmlns="http://www.w3.org/2000/svg">
    <g id="Data_backup" data-name="Data backup">
        <path d="m7 33h24v3h-24z" fill="#a7a9ac"/>
        <path d="m7 22h24v3h-24z" fill="#a7a9ac"/>
        <path d="m7 11h24v3h-24z" fill="#a7a9ac"/>
        <path d="m7 22h24v1h-24z" fill="#808285"/>
        <path d="m7 33h24v1h-24z" fill="#808285"/>
        <path d="m33 3h-28a2 2 0 0 0 -2 2v4a2 2 0 0 0 2 2h28a2 2 0 0 0 2-2v-4a2 2 0 0 0 -2-2z" fill="#2488ff"/>
        <path d="m33 14h-28a2 2 0 0 0 -2 2v4a2 2 0 0 0 2 2h28a2 2 0 0 0 2-2v-4a2 2 0 0 0 -2-2z" fill="#006df0"/>
        <path d="m33 25h-28a2 2 0 0 0 -2 2v4a2 2 0 0 0 2 2h28a2 2 0 0 0 2-2v-4a2 2 0 0 0 -2-2z" fill="#005ece"/>
        <path d="m32.247 43a1 1 0 0 0 -.977 1.217l3.382 15.217a2 2 0 0 0 1.948 1.566h18.8a2 2 0 0 0 1.952-1.566l3.378-15.217a1 1 0 0 0 -.977-1.217z"
              fill="#ffcd00"/>
        <path d="m59.753 43h-1a1.012 1.012 0 0 1 -.022.217l-3.383 15.217a2 2 0 0 1 -1.948 1.566h-18.522a2 2 0 0 0 1.722 1h18.8a2 2 0 0 0 1.952-1.566l3.378-15.217a1 1 0 0 0 -.977-1.217z"
              fill="#ebbf00"/>
        <path d="m39 38h-2a2 2 0 0 0 -2 2v3h23v-3a2 2 0 0 0 -2-2h-9v-1a2 2 0 0 0 -2-2h-4a2 2 0 0 0 -2 2z"
              fill="#cca400"/>
        <path d="m52 16h-13v4h12a1 1 0 0 1 1 1v6h-3l5 7 5-7h-3v-7a4 4 0 0 0 -4-4z" fill="#d80027"/>
        <path d="m14 58h15v-4h-14a1 1 0 0 1 -1-1v-6h3l-5-7-5 7h3v7a4 4 0 0 0 4 4z" fill="#d80027"/>
        <path d="m7 11h24v1h-24z" fill="#808285"/>
        <g fill="#f1f2f2">
            <path d="m6 5h2v4h-2z"/>
            <path d="m10 5h2v4h-2z"/>
            <path d="m14 5h2v4h-2z"/>
            <path d="m18 5h2v4h-2z"/>
            <path d="m6 16h2v4h-2z"/>
            <path d="m10 16h2v4h-2z"/>
            <path d="m14 16h2v4h-2z"/>
            <path d="m18 16h2v4h-2z"/>
            <path d="m6 27h2v4h-2z"/>
            <path d="m10 27h2v4h-2z"/>
            <path d="m14 27h2v4h-2z"/>
            <path d="m18 27h2v4h-2z"/>
        </g>
        <path d="m26 6h2v2h-2z" fill="#d80027"/>
        <path d="m30 6h2v2h-2z" fill="#5eac24"/>
        <path d="m26 17h2v2h-2z" fill="#d80027"/>
        <path d="m30 17h2v2h-2z" fill="#5eac24"/>
        <path d="m26 28h2v2h-2z" fill="#d80027"/>
        <path d="m30 28h2v2h-2z" fill="#5eac24"/>
    </g>
</svg>