<svg height="512" viewBox="0 0 48 48" width="512" xmlns="http://www.w3.org/2000/svg">
    <g id="00-01-app,-bag,-e-commerce,-shop,-shopping,-website" fill="none" fill-rule="nonzero">
        <path id="Path"
              d="m28.6278958 11.0854241c-.2723312-2.38393977-2.3492806-4.0854241-4.6278958-4.0854241s-4.2665422 1.60223326-4.6278958 4.0854241l-.2391042 1.9145759h-2.0169613l.2715098-2.1626454c.392289-3.39267879 3.3317043-5.8373546 6.6124515-5.8373546s6.1331625 2.39437529 6.6124515 5.8373546l.2705872 2.1626454h-2.0170387z"
              fill="#a5e1ff"/>
        <path id="Path"
              d="m35 13c.4593696 0 .9420471.3398895 1 .9129038l3.3377087 23.3799894c.4538364 2.8017518-1.7395416 5.7071068-4.9497474 5.7071068h-20.7759226c-2.7614237 0-5.35617674-2.3620837-4.94974742-5.7071068l3.34775922-23.4343146c.0649647-.4547526.463943-.8585786.9899495-.8585786z"
              fill="#2eaff0"/>
    </g>
</svg>