<svg id="Layer_3" height="512" viewBox="0 0 36 36" width="512" xmlns="http://www.w3.org/2000/svg" data-name="Layer 3"><path d="m30.577 27.3-1.577-17.39a1 1 0 0 0 -1-.91h-3.08a6.991 6.991 0 0 0 -13.84 0h-3.08a1 1 0 0 0 -1 .91l-1.577 17.39a5.225 5.225 0 0 0 5.2 5.7h14.751a5.225 5.225 0 0 0 5.2-5.7zm-12.577-22.3a5.009 5.009 0 0 1 4.9 4h-9.8a5.009 5.009 0 0 1 4.9-4zm9.755 24.95a3.189 3.189 0 0 1 -2.381 1.05h-14.748a3.224 3.224 0 0 1 -3.211-3.517l1.498-16.483h18.174l1.5 16.483a3.189 3.189 0 0 1 -.832 2.467z"/><path d="m23 26h-10a1 1 0 0 0 0 2h10a1 1 0 0 0 0-2z"/></svg>