<?xml version="1.0" encoding="iso-8859-1"?>
<!--
  - Copyright (c) 2023. Selldone® Business OS?
  -
  - Author: M.Pajuhaan
  - Web: https://selldone.com
  - ??????????????????????????????????????????????????????
  -
  - All rights reserved. In the weave of time, where traditions and innovations intermingle, this content was crafted.
  - From the essence of thought, through the corridors of creativity, each word, and sentiment has been molded.
  - Not just to exist, but to inspire. Like an artist's stroke or a sculptor's chisel, every nuance is deliberate.
  - Our journey is not just about reaching a destination, but about creating a masterpiece.
  - Tread carefully, for you're treading on dreams.
  -->

<!-- Generator: Adobe Illustrator 19.0.0, SVG Export Plug-In . SVG Version: 6.00 Build 0)  -->
<svg version="1.1" id="Layer_1" xmlns="http://www.w3.org/2000/svg" xmlns:xlink="http://www.w3.org/1999/xlink" x="0px" y="0px"
	 viewBox="0 0 512 512" style="enable-background:new 0 0 512 512;" xml:space="preserve">
<path style="fill:#EE3840;" d="M411.644,186.252h-23.704V99.378c0-41.727-33.948-75.674-75.675-75.674s-75.674,33.947-75.674,75.674
	v86.875h-23.704V99.378C212.888,44.582,257.468,0,312.265,0s99.379,44.581,99.379,99.378V186.252z"/>
<path style="fill:#FF8C00;" d="M299.111,186.252h-23.704V99.378c0-41.727-33.947-75.674-75.674-75.674s-75.675,33.947-75.675,75.674
	v86.875h-23.704V99.378C100.356,44.581,144.936,0,199.733,0c54.796,0,99.378,44.581,99.378,99.378V186.252z"/>
<polygon style="fill:#FF9E24;" points="481.067,149.393 424.8,149.393 377.393,330.696 424.8,512 481.067,512 "/>
<polygon style="fill:#FF8C00;" points="368.533,149.393 321.126,330.696 368.533,512 424.8,512 424.8,149.393 "/>
<rect x="30.933" y="149.393" style="fill:#FFB14D;" width="337.6" height="362.607"/>
<g>
</g>
<g>
</g>
<g>
</g>
<g>
</g>
<g>
</g>
<g>
</g>
<g>
</g>
<g>
</g>
<g>
</g>
<g>
</g>
<g>
</g>
<g>
</g>
<g>
</g>
<g>
</g>
<g>
</g>
</svg>
