<?xml version="1.0" encoding="iso-8859-1"?>



<svg version="1.1" id="Capa_1" xmlns="http://www.w3.org/2000/svg" xmlns:xlink="http://www.w3.org/1999/xlink" x="0px" y="0px"
	 viewBox="0 0 512.001 512.001" style="enable-background:new 0 0 512.001 512.001;" xml:space="preserve">
<g>
	<path style="fill:#FF2121;" d="M120.544,390.08c-0.003-0.333-0.025-0.665-0.051-0.999c-0.013-0.173-0.021-0.347-0.04-0.518
		c-0.032-0.289-0.082-0.576-0.132-0.864c-0.037-0.217-0.07-0.435-0.116-0.648c-0.049-0.223-0.112-0.444-0.171-0.666
		c-0.073-0.273-0.144-0.546-0.231-0.813c-0.057-0.172-0.125-0.342-0.188-0.514c-0.113-0.305-0.228-0.609-0.359-0.904
		c-0.022-0.05-0.037-0.101-0.06-0.151l-23.721-82.783c0,0-2.644-14.996-14.996-14.996H21.922c-8.128,0-15.545,4.459-19.356,11.638
		c-3.811,7.179-3.351,15.821,1.202,22.554l17.555,25.962L4.248,370.734c-4.711,6.719-5.285,15.415-1.498,22.695
		c3.787,7.28,11.237,11.802,19.443,11.802h83.262c0.037,0,0.073,0.004,0.11,0.004c0.751,0,1.506-0.078,2.259-0.194
		c0.272-0.041,0.546-0.074,0.813-0.13c0.153-0.032,0.305-0.08,0.457-0.118c0.362-0.088,0.723-0.179,1.074-0.293
		c0.131-0.043,0.26-0.097,0.391-0.143c0.368-0.131,0.732-0.269,1.087-0.427c0.047-0.021,0.094-0.034,0.141-0.055
		c0.115-0.053,0.22-0.118,0.334-0.173c0.282-0.138,0.561-0.278,0.832-0.432c0.192-0.109,0.377-0.226,0.563-0.342
		c0.218-0.137,0.434-0.274,0.644-0.422c0.216-0.151,0.424-0.31,0.63-0.471c0.167-0.131,0.332-0.261,0.493-0.399
		c0.219-0.187,0.43-0.38,0.636-0.578c0.14-0.134,0.278-0.268,0.412-0.407c0.2-0.207,0.391-0.419,0.578-0.636
		c0.133-0.154,0.263-0.309,0.389-0.468c0.165-0.209,0.323-0.421,0.477-0.637c0.134-0.188,0.264-0.378,0.389-0.573
		c0.126-0.197,0.247-0.396,0.364-0.598c0.132-0.227,0.258-0.457,0.378-0.691c0.094-0.183,0.182-0.369,0.268-0.556
		c0.119-0.257,0.231-0.517,0.335-0.782c0.072-0.183,0.138-0.368,0.203-0.553c0.093-0.267,0.181-0.536,0.259-0.81
		c0.059-0.207,0.11-0.415,0.161-0.624c0.06-0.251,0.118-0.503,0.165-0.759c0.048-0.256,0.084-0.515,0.118-0.774
		c0.028-0.213,0.057-0.425,0.076-0.641c0.028-0.316,0.04-0.633,0.048-0.951c0.003-0.123,0.018-0.242,0.018-0.365
		C120.552,390.183,120.544,390.133,120.544,390.08z"/>
	<path style="fill:#FF2121;" d="M490.677,346.379l17.555-25.962c4.553-6.732,5.014-15.375,1.202-22.554
		c-3.812-7.179-11.228-11.638-19.356-11.638h-59.214c-11.994,0-14.996,14.996-14.996,14.996l-23.208,83.105
		c-0.211,0.492-0.397,0.997-0.555,1.514c-0.017,0.057-0.027,0.114-0.044,0.171c-0.12,0.41-0.231,0.825-0.316,1.25
		c-0.085,0.419-0.143,0.839-0.192,1.259c-0.007,0.064-0.022,0.126-0.028,0.19c-0.105,1.02-0.103,2.037-0.001,3.039
		c0.014,0.136,0.042,0.266,0.059,0.401c0.044,0.344,0.088,0.688,0.156,1.026c0.06,0.303,0.143,0.596,0.221,0.892
		c0.044,0.167,0.079,0.337,0.129,0.502c0.098,0.326,0.218,0.643,0.337,0.959c0.051,0.134,0.093,0.271,0.148,0.404
		c0.122,0.297,0.262,0.583,0.403,0.87c0.073,0.151,0.14,0.305,0.219,0.454c0.129,0.243,0.274,0.476,0.416,0.71
		c0.112,0.186,0.218,0.375,0.338,0.556c0.122,0.183,0.256,0.356,0.385,0.533c0.16,0.22,0.317,0.442,0.489,0.654
		c0.108,0.132,0.225,0.254,0.337,0.383c0.208,0.239,0.416,0.479,0.641,0.705c0.102,0.103,0.213,0.197,0.319,0.297
		c0.244,0.232,0.488,0.464,0.749,0.68c0.135,0.113,0.281,0.212,0.42,0.32c0.24,0.185,0.475,0.373,0.728,0.544
		c0.29,0.198,0.594,0.375,0.899,0.552c0.113,0.065,0.218,0.139,0.333,0.202c0.883,0.484,1.821,0.882,2.8,1.182
		c0.054,0.017,0.108,0.026,0.162,0.042c0.413,0.121,0.83,0.232,1.256,0.318c0.464,0.095,0.929,0.163,1.394,0.213
		c0.018,0.002,0.035,0.006,0.054,0.008c0.509,0.052,1.018,0.081,1.525,0.081c0.036,0,0.071-0.004,0.107-0.004h83.263
		c8.206,0,15.657-4.523,19.443-11.804c3.786-7.28,3.212-15.976-1.499-22.693L490.677,346.379z"/>
</g>
<path style="fill:#FF873C;" d="M445.863,239.151v89.187c0,16.736-13.616,30.352-30.362,30.352H90.625
	c-13.866,0-25.143-11.277-25.143-25.143v-94.395c0-16.736,13.616-30.352,30.352-30.352H415.5
	C432.247,208.799,445.863,222.416,445.863,239.151z"/>
<path style="fill:#FA732D;" d="M445.863,239.151v89.187c0,16.736-13.616,30.352-30.362,30.352H256.153V208.799h159.348
	C432.247,208.799,445.863,222.416,445.863,239.151z"/>
<g>
	<path style="fill:#FFC44D;" d="M350.129,167.11c0,8.278-6.718,14.996-14.996,14.996H176.214c-8.278,0-14.996-6.718-14.996-14.996
		c0-8.288,6.718-14.996,14.996-14.996h158.918C343.41,152.114,350.129,158.822,350.129,167.11z"/>
	<path style="fill:#FFC44D;" d="M293.533,121.762c0,8.288-6.718,14.996-14.996,14.996h-45.728c-8.278,0-14.996-6.708-14.996-14.996
		c0-8.278,6.718-14.996,14.996-14.996h45.728C286.814,106.766,293.533,113.484,293.533,121.762z"/>
</g>
<g>
	<path style="fill:#FF9D3B;" d="M278.537,136.758h-22.864v-29.992h22.864c8.278,0,14.996,6.718,14.996,14.996
		C293.533,130.05,286.814,136.758,278.537,136.758z"/>
	<path style="fill:#FF9D3B;" d="M350.129,167.11c0,8.278-6.718,14.996-14.996,14.996h-79.459v-29.992h79.459
		C343.41,152.114,350.129,158.822,350.129,167.11z"/>
</g>
<g>
</g>
<g>
</g>
<g>
</g>
<g>
</g>
<g>
</g>
<g>
</g>
<g>
</g>
<g>
</g>
<g>
</g>
<g>
</g>
<g>
</g>
<g>
</g>
<g>
</g>
<g>
</g>
<g>
</g>
</svg>
