<?xml version="1.0" encoding="iso-8859-1"?>


<svg xmlns:xlink="http://www.w3.org/1999/xlink" version="1.1" id="Layer_1" xmlns="http://www.w3.org/2000/svg" x="0px"
     y="0px"
     viewBox="0 0 512 512" style="enable-background:new 0 0 512 512;" xml:space="preserve">
<path style="fill:#EBEBEC;" d="M486.4,8.533H25.6C11.485,8.533,0,20.018,0,34.133v443.733c0,14.115,11.485,25.6,25.6,25.6h460.8
	c14.115,0,25.6-11.485,25.6-25.6V34.133C512,20.018,500.515,8.533,486.4,8.533z"/>
    <g>
	<path style="fill:#88898E;" d="M59.733,460.8c-4.713,0-8.533-3.821-8.533-8.533V59.733c0-4.713,3.821-8.533,8.533-8.533
		s8.533,3.821,8.533,8.533v392.533C68.267,456.979,64.446,460.8,59.733,460.8z"/>
        <path style="fill:#88898E;" d="M85.333,392.533c-4.713,0-8.533-3.821-8.533-8.533V59.733c0-4.713,3.821-8.533,8.533-8.533
		s8.533,3.821,8.533,8.533V384C93.867,388.713,90.046,392.533,85.333,392.533z"/>
        <path style="fill:#88898E;" d="M110.933,392.533c-4.713,0-8.533-3.821-8.533-8.533V59.733c0-4.713,3.821-8.533,8.533-8.533
		s8.533,3.821,8.533,8.533V384C119.467,388.713,115.646,392.533,110.933,392.533z"/>
        <path style="fill:#88898E;" d="M136.533,392.533c-4.713,0-8.533-3.821-8.533-8.533V59.733c0-4.713,3.821-8.533,8.533-8.533
		s8.533,3.821,8.533,8.533V384C145.067,388.713,141.246,392.533,136.533,392.533z"/>
        <path style="fill:#88898E;" d="M179.2,392.533c-4.713,0-8.533-3.821-8.533-8.533V59.733c0-4.713,3.821-8.533,8.533-8.533
		c4.713,0,8.533,3.821,8.533,8.533V384C187.733,388.713,183.913,392.533,179.2,392.533z"/>
        <path style="fill:#88898E;" d="M204.8,392.533c-4.713,0-8.533-3.821-8.533-8.533V59.733c0-4.713,3.821-8.533,8.533-8.533
		c4.713,0,8.533,3.821,8.533,8.533V384C213.333,388.713,209.513,392.533,204.8,392.533z"/>
        <path style="fill:#88898E;" d="M230.4,392.533c-4.713,0-8.533-3.821-8.533-8.533V59.733c0-4.713,3.821-8.533,8.533-8.533
		c4.713,0,8.533,3.821,8.533,8.533V384C238.933,388.713,235.113,392.533,230.4,392.533z"/>
        <path style="fill:#88898E;" d="M256,392.533c-4.713,0-8.533-3.821-8.533-8.533V59.733c0-4.713,3.821-8.533,8.533-8.533
		c4.713,0,8.533,3.821,8.533,8.533V384C264.533,388.713,260.713,392.533,256,392.533z"/>
        <path style="fill:#88898E;" d="M281.6,392.533c-4.713,0-8.533-3.821-8.533-8.533V59.733c0-4.713,3.821-8.533,8.533-8.533
		c4.713,0,8.533,3.821,8.533,8.533V384C290.133,388.713,286.313,392.533,281.6,392.533z"/>
        <path style="fill:#88898E;" d="M307.2,392.533c-4.713,0-8.533-3.821-8.533-8.533V59.733c0-4.713,3.821-8.533,8.533-8.533
		s8.533,3.821,8.533,8.533V384C315.733,388.713,311.913,392.533,307.2,392.533z"/>
        <path style="fill:#88898E;" d="M349.867,392.533c-4.713,0-8.533-3.821-8.533-8.533V59.733c0-4.713,3.821-8.533,8.533-8.533
		c4.713,0,8.533,3.821,8.533,8.533V384C358.4,388.713,354.579,392.533,349.867,392.533z"/>
        <path style="fill:#88898E;" d="M375.467,392.533c-4.713,0-8.533-3.821-8.533-8.533V59.733c0-4.713,3.821-8.533,8.533-8.533
		c4.713,0,8.533,3.821,8.533,8.533V384C384,388.713,380.179,392.533,375.467,392.533z"/>
        <path style="fill:#88898E;" d="M401.067,392.533c-4.713,0-8.533-3.821-8.533-8.533V59.733c0-4.713,3.821-8.533,8.533-8.533
		s8.533,3.821,8.533,8.533V384C409.6,388.713,405.779,392.533,401.067,392.533z"/>
        <path style="fill:#88898E;" d="M426.667,392.533c-4.713,0-8.533-3.821-8.533-8.533V59.733c0-4.713,3.821-8.533,8.533-8.533
		s8.533,3.821,8.533,8.533V384C435.2,388.713,431.379,392.533,426.667,392.533z"/>
        <path style="fill:#88898E;" d="M452.267,460.8c-4.713,0-8.533-3.821-8.533-8.533V59.733c0-4.713,3.821-8.533,8.533-8.533
		s8.533,3.821,8.533,8.533v392.533C460.8,456.979,456.979,460.8,452.267,460.8z"/>
</g>
    <g>
	<path style="fill:#4C4E55;" d="M119.467,460.8H85.333c-4.713,0-8.533-3.821-8.533-8.533V409.6c0-4.713,3.821-8.533,8.533-8.533
		h34.133c4.713,0,8.533,3.821,8.533,8.533v42.667C128,456.979,124.179,460.8,119.467,460.8z M93.867,443.733h17.067v-25.6H93.867
		V443.733z"/>
        <path style="fill:#4C4E55;" d="M179.2,460.8h-34.133c-4.713,0-8.533-3.821-8.533-8.533V409.6c0-4.713,3.821-8.533,8.533-8.533
		H179.2c4.713,0,8.533,3.821,8.533,8.533v42.667C187.733,456.979,183.913,460.8,179.2,460.8z M153.6,443.733h17.067v-25.6H153.6
		V443.733z"/>
        <path style="fill:#4C4E55;" d="M221.867,460.8c-4.713,0-8.533-3.821-8.533-8.533V409.6c0-4.713,3.821-8.533,8.533-8.533
		c4.713,0,8.533,3.821,8.533,8.533v42.667C230.4,456.979,226.579,460.8,221.867,460.8z"/>
        <path style="fill:#4C4E55;" d="M290.133,460.8H256c-4.713,0-8.533-3.821-8.533-8.533V409.6c0-4.713,3.821-8.533,8.533-8.533h34.133
		c4.713,0,8.533,3.821,8.533,8.533v42.667C298.667,456.979,294.846,460.8,290.133,460.8z M264.533,443.733H281.6v-25.6h-17.067
		V443.733z"/>
        <path style="fill:#4C4E55;" d="M324.267,460.8c-4.713,0-8.533-3.821-8.533-8.533V409.6c0-4.713,3.821-8.533,8.533-8.533
		c4.713,0,8.533,3.821,8.533,8.533v42.667C332.8,456.979,328.979,460.8,324.267,460.8z"/>
        <path style="fill:#4C4E55;" d="M358.4,460.8c-4.713,0-8.533-3.821-8.533-8.533V409.6c0-4.713,3.821-8.533,8.533-8.533
		s8.533,3.821,8.533,8.533v42.667C366.933,456.979,363.113,460.8,358.4,460.8z"/>
        <path style="fill:#4C4E55;" d="M426.667,460.8h-34.133c-4.713,0-8.533-3.821-8.533-8.533V409.6c0-4.713,3.821-8.533,8.533-8.533
		h34.133c4.713,0,8.533,3.821,8.533,8.533v42.667C435.2,456.979,431.379,460.8,426.667,460.8z M401.067,443.733h17.067v-25.6
		h-17.067V443.733z"/>
</g>
    <path style="fill:#E5563C;" d="M503.467,162.133H8.533c-4.713,0-8.533,3.821-8.533,8.533V204.8c0,4.713,3.821,8.533,8.533,8.533
	h494.933c4.713,0,8.533-3.821,8.533-8.533v-34.133C512,165.954,508.179,162.133,503.467,162.133z"/>
    <path style="fill:#D7D8D9;" d="M34.133,477.867V34.133c0-14.115,11.485-25.6,25.6-25.6H25.6C11.485,8.533,0,20.018,0,34.133v443.733
	c0,14.115,11.485,25.6,25.6,25.6h34.133C45.618,503.467,34.133,491.982,34.133,477.867z"/>
    <path style="fill:#CF442B;" d="M8.533,162.133c-4.713,0-8.533,3.821-8.533,8.533V204.8c0,4.713,3.821,8.533,8.533,8.533h25.6v-51.2
	H8.533z"/>
    <g>
</g>
    <g>
</g>
    <g>
</g>
    <g>
</g>
    <g>
</g>
    <g>
</g>
    <g>
</g>
    <g>
</g>
    <g>
</g>
    <g>
</g>
    <g>
</g>
    <g>
</g>
    <g>
</g>
    <g>
</g>
    <g>
</g>
</svg>
