<?xml version="1.0" encoding="iso-8859-1"?>
<!--
  - Copyright (c) 2023. Selldone® Business OS?
  -
  - Author: M.Pajuhaan
  - Web: https://selldone.com
  - ??????????????????????????????????????????????????????
  -
  - All rights reserved. In the weave of time, where traditions and innovations intermingle, this content was crafted.
  - From the essence of thought, through the corridors of creativity, each word, and sentiment has been molded.
  - Not just to exist, but to inspire. Like an artist's stroke or a sculptor's chisel, every nuance is deliberate.
  - Our journey is not just about reaching a destination, but about creating a masterpiece.
  - Tread carefully, for you're treading on dreams.
  -->

<!-- Generator: Adobe Illustrator 19.0.0, SVG Export Plug-In . SVG Version: 6.00 Build 0)  -->
<svg version="1.1" id="Capa_1" xmlns="http://www.w3.org/2000/svg" xmlns:xlink="http://www.w3.org/1999/xlink" x="0px" y="0px"
	 viewBox="0 0 409.6 409.6" style="enable-background:new 0 0 409.6 409.6;" xml:space="preserve">
<g>
	<rect x="0" style="fill:#3A556A;" width="8.94" height="132.367"/>
	<rect x="16.026" style="fill:#3A556A;" width="8.94" height="107.223"/>
	<rect x="32.02" style="fill:#3A556A;" width="8.94" height="107.223"/>
	<rect x="48.031" style="fill:#3A556A;" width="8.94" height="107.223"/>
	<rect x="64.046" style="fill:#3A556A;" width="8.94" height="107.223"/>
	<rect x="80.056" style="fill:#3A556A;" width="8.94" height="107.223"/>
	<rect x="96.067" style="fill:#3A556A;" width="8.94" height="107.223"/>
	<rect x="112.077" style="fill:#3A556A;" width="8.94" height="107.223"/>
	<rect x="128.102" style="fill:#3A556A;" width="8.94" height="107.223"/>
	<rect x="144.077" style="fill:#3A556A;" width="8.94" height="107.223"/>
	<rect x="160.102" style="fill:#3A556A;" width="8.94" height="107.223"/>
	<rect x="16.026" y="120.003" style="fill:#3A556A;" width="8.94" height="12.365"/>
	<rect x="32.02" y="120.003" style="fill:#3A556A;" width="8.94" height="12.365"/>
	<rect x="48.031" y="120.003" style="fill:#3A556A;" width="8.94" height="12.365"/>
	<rect x="64.046" y="120.003" style="fill:#3A556A;" width="8.94" height="12.365"/>
	<rect x="80.056" y="120.003" style="fill:#3A556A;" width="8.94" height="12.365"/>
	<rect x="96.067" y="120.003" style="fill:#3A556A;" width="8.94" height="12.365"/>
	<rect x="112.077" y="120.003" style="fill:#3A556A;" width="8.94" height="12.365"/>
	<rect x="128.102" y="120.003" style="fill:#3A556A;" width="8.94" height="12.365"/>
	<rect x="144.077" y="120.003" style="fill:#3A556A;" width="8.94" height="12.365"/>
	<rect x="160.102" y="120.003" style="fill:#3A556A;" width="8.94" height="12.365"/>
	<rect x="176.128" style="fill:#3A556A;" width="8.94" height="132.367"/>
</g>
<rect x="0" y="64.466" style="fill:#E56353;" width="185.037" height="10.092"/>
<path style="fill:#27A2DB;" d="M244.021,33.359h-58c-20.638,43.624-19.315,93.811,0,149.378H350.84v-17.097
	C350.84,92.583,303.015,33.359,244.021,33.359z"/>
<path style="fill:#E56353;" d="M328.093,210.126h-28.001c-3.403,0-5.941,3.884-5.231,8.006l8.07,46.855
	c0.604,3.51,3.356,5.785,6.206,5.132l19.93-4.571c2.536-0.582,4.375-3.32,4.375-6.513v-42.284
	C333.442,213.092,331.047,210.126,328.093,210.126z"/>
<path style="fill:#3A556A;" d="M262.044,33.358l-48.299,0c-20.637,43.624-19.315,93.811,0,149.378h59.145
	c19.113,0,35.711,16.294,40.072,39.339l20.92,110.545l69.588-23.36C403.47,309.261,377.214,33.358,262.044,33.358z"/>
<path style="fill:#2F4859;" d="M403.47,309.261l-69.588,23.36l4.604,24.326c0.282,1.49,0.621,2.944,1.014,4.361
	c2.535,9.14-1.925,19.041-9.303,22.193c-5.656,2.416-8.658,10.053-6.707,17.056c1.942,6.974,8.069,10.696,13.711,8.332
	l44.584-18.682c19.373-5.622,31.396-29.629,26.857-53.619L403.47,309.261z"/>
<g>
</g>
<g>
</g>
<g>
</g>
<g>
</g>
<g>
</g>
<g>
</g>
<g>
</g>
<g>
</g>
<g>
</g>
<g>
</g>
<g>
</g>
<g>
</g>
<g>
</g>
<g>
</g>
<g>
</g>
</svg>
