<?xml version="1.0" encoding="iso-8859-1"?>
<!-- Generator: Adobe Illustrator 19.0.0, SVG Export Plug-In . SVG Version: 6.00 Build 0)  -->
<svg version="1.1" id="Capa_1" xmlns="http://www.w3.org/2000/svg" xmlns:xlink="http://www.w3.org/1999/xlink" x="0px" y="0px"
	 viewBox="0 0 512.048 512.048" style="enable-background:new 0 0 512.048 512.048;" xml:space="preserve">
<path style="fill:#CDD6E0;" d="M365.456,423.392c-8.224,31.787-52.907,63.253-86.72,83.093c-6.507,3.733-13.547,5.547-20.48,5.547
	c-15.253,0-29.984-8.533-37.024-23.467c-4.587-9.813-4.896-20.907-1.493-31.147c1.28-3.733,2.133-7.467,2.784-11.2
	c2.443-14.4,0.96-29.333-4.597-43.2l-58.133-142.827l-31.253-76.693c-7.349-18.24-24.747-30.293-44.267-30.933
	c-9.707-0.427-16.64-0.747-19.936-0.747c-21.771,0-48.117-43.52-60.693-86.933c-12.597-43.413,11.52-59.52,11.52-59.52
	c29.653-11.093,141.867-2.24,195.84,2.773c27.52,2.56,53.973,12.373,75.936,29.013c17.173,13.013,31.147,29.76,25.504,47.787
	c-3.627,5.973-8,11.52-12.917,16.533c-12.48,12.907-17.493,31.467-12.48,48.747l63.264,220.693
	C355.419,370.379,368.656,423.392,365.456,423.392"/>
<path style="fill:#ACB3BA;" d="M15.11,5.408c0,0-24.021,16.011-11.435,59.477c12.587,43.456,38.891,86.912,60.629,86.912
	c21.728,0,197.856,16.011,248.192-66.901c5.643-18.016-8.373-34.752-25.515-47.723c-22.005-16.651-48.459-26.421-75.936-29.003
	C157.03,3.083,44.752-5.76,15.11,5.408"/>
<path style="fill:#CDD6E0;" d="M286.971,37.174c-22.005-16.651-48.459-26.421-75.936-29.013C157.03,3.083,44.752-5.76,15.11,5.408
	c0,0-24.011,16.011-11.435,59.467C6.886,75.926,13.2,88.278,15.76,97.558c52.811,1.344,259.381,2.667,297.227-27.179
	C310.15,57.974,299.398,46.571,286.971,37.174"/>
<g>
	<path style="fill:#F8B64C;" d="M345.552,218.699c-0.459-0.117-0.811-0.117-0.811-0.117s-0.107,0-0.341-0.117
		C344.731,218.592,345.2,218.592,345.552,218.699"/>
	<path style="fill:#F8B64C;" d="M129.723,186.283c-6.763,3.776-27.541,15.477-31.701,18.955
		c-5.003,4.149-13.312,27.221,12.875,32.629c27.648,4.363,37.205-5.813,37.205-5.813l-1.248-3.669L129.723,186.283z"/>
	<path style="fill:#F8B64C;" d="M259.803,264.768c0.107-3.627,0.427-7.253,1.589-10.133c0,0,0.544,4.267,1.397,9.6L259.803,264.768z
		"/>
</g>
<g>
	<path style="fill:#ADB3BA;" d="M173.862,239.254c13.664,14.944,26.667,31.125,47.808,34.997
		c25.728,4.704,49.717-1.547,71.317,15.947c17.835,14.432,20.437,34.549,31.52,53.109c7.232,12.096,17.568,34.795,37.003,29.056
		c13.771-4.064,13.835-31.125,12.672-43.883c-2.443-27.051-16.629-41.899-37.493-57.76c-10.357-7.872-23.147-13.749-34.613-19.061
		c-21.589-9.995-48.789-6.411-71.979-8.235c-18.485-1.451-36.693-3.317-55.381-3.317"/>
	<path style="fill:#ADB3BA;" d="M262.736,396.192c-3.413,8.213-9.6,6.507-8.96,15.467c1.269,18.027,2.123,27.52-19.104,30.507
		c-4.363,0.64-8.213,2.133-12.149,4.053c2.443-14.4,0.96-29.333-4.597-43.2l-58.133-142.827c0.32-1.067,0.747-2.027,1.28-2.987
		l2.56,1.707c6.613,5.227,13.76,10.133,20.053,15.787c7.349,6.613,16,13.013,22.08,20.8c9.813,12.267,23.04,28.373,18.667,45.013
		c16.96,9.493,30.08,15.04,36.267,34.667C262.63,381.046,265.296,390.006,262.736,396.192"/>
</g>
<path style="fill:#FFD15C;" d="M512.027,324.075c-21.291-6.741-47.659-18.389-71.104-38.56
	c-48.832-52.757-87.659-98.485-144.917-103.787l6.571,22.688l0.576,2.197c-3.232-1.621-28.917-10.603-28.917-10.603
	c-8.64-2.421-17.728-2.069-26.144,1.035l-16.235,5.877c-10.251,3.691-20.971,6.219-31.797,7.488l-16.917,1.963
	c-2.997,0.341-5.771,1.952-7.381,4.491c-5.184,7.595-12.32,25.109,15.669,39.168c36.981,18.539,67.509,10.827,70.027,7.712
	c0,0,19.36,8.64,27.435,7.371c18.315,8.064,27.648,22.464,27.648,22.464s16.811,59.445,40.544,92.96
	c2.421,7.605,3.691,15.552,3.691,23.392c0,13.248-3.456,26.379-10.016,38.123l-3.456,6.112c0,0,62.784,34.901,128.907,34.901
	l31.776-3.915l4.064,1.237V324.075H512.027z"/>
<path style="fill:#F2F2F2;" d="M217.776,211.659c-5.461,1.291-11.669,2.272-17.237,2.923l-16.992,1.963
	c-1.792,0.213-3.381,1.152-4.352,2.603c-2.539,3.787-5.227,9.611-3.595,15.851c0.608,2.304,1.76,4.523,3.445,6.667
	c5.109,6.453,13.536,9.205,21.707,8.213c7.083-0.853,13.248-2.421,17.024-5.323C213.894,233.654,213.894,222.016,217.776,211.659"/>
<g>
	<path style="fill:#F8B64C;" d="M333.446,213.174c0,0,3.915,3.573,10.944,5.301c-1.717-0.224-8.864-1.387-17.973-3.691
		c-7.253-1.845-15.669-4.608-23.275-8.181l-0.576-2.187l-0.8-2.997c0,0,3.904-5.525,5.067-8.864c0,0,1.045,5.877,1.045,8.864
		c0,0,5.76-5.184,5.877-8.864c0,0,3.339,5.408,2.293,10.016c0,0,4.619-5.184,9.461-6.795c0,0-4.843,5.995-5.419,10.603
		c0,0,7.019,0,7.829,4.032c0,0,6.56-5.995,10.592-6.219C338.512,204.192,333.904,209.376,333.446,213.174"/>
	<path style="fill:#F8B64C;" d="M357.115,386.582c0.725,2.315,1.333,4.661,1.845,7.019c4.661,4.363,10.187,9.227,15.989,13.749
		c2.005,1.504,4.021,3.008,6.005,4.48c2.037,1.387,4.021,2.805,5.995,4.075c2.005,1.216,3.904,2.475,5.781,3.531
		c1.899,1.024,3.669,1.995,5.323,2.891c1.696,0.789,3.264,1.515,4.64,2.155c1.355,0.693,2.667,1.045,3.669,1.461
		c2.037,0.757,3.211,1.195,3.211,1.195s-1.12-0.523-3.115-1.419c-0.992-0.491-2.229-0.917-3.531-1.696
		c-1.323-0.736-2.816-1.557-4.448-2.453c-1.568-1.003-3.264-2.08-5.056-3.232c-1.792-1.163-3.563-2.539-5.461-3.872
		c-1.856-1.397-3.712-2.923-5.621-4.427c-1.835-1.589-3.712-3.211-5.579-4.821c-7.349-6.624-14.165-13.803-19.061-19.36
		c-1.941-2.219-3.573-4.149-4.832-5.685C354.235,382.379,355.654,384.534,357.115,386.582"/>
</g>
<path style="fill:#FFD15C;" d="M211.174,438.059c-8.512-3.68-15.872-13.056-11.232-35.872c0,0-42.005-18.901-31.797-68.128
	c0,0-44.619-21.909-10.048-78.037c17.632,14.795,33.653,30.752,47.861,48.021c0,0,12.619,20.715-5.696,39.317
	c0,0,50.123,14.763,50.432,36.8c0.299,22.027-11.723,25.333-11.723,25.333s12.149,9.045,0.832,24.075
	C233.126,438.432,221.36,442.454,211.174,438.059"/>
<path style="fill:#F8B64C;" d="M216.432,349.323c-8.971-3.84-16.181-5.963-16.181-5.963c-7.787-1.077-25.771-7.072-33.952-10.965
	C166.31,332.395,179.579,346.134,216.432,349.323"/>
<path style="fill:#F2F2F2;" d="M187.92,340.278c-5.888-1.888-23.211-9.056-21.493-27.627c3.008-11.445,6.432-12.885,11.648-10.133
	c5.035,2.656,12.395,16.085,11.84,36.245C189.904,339.787,188.859,340.576,187.92,340.278"/>
<path style="fill:#F8B64C;" d="M194.448,399.051c8.651,4.768,31.936,10.208,47.829,10.208c-1.547-2.443-3.317-3.765-3.317-3.765
	s0.597-0.171,1.472-0.64C226.694,407.467,194.448,399.051,194.448,399.051"/>
<g>
	<path style="fill:#F2F2F2;" d="M206.747,368.576c17.92-13.184,20.736-3.723,20.736-3.723s6.901,22.293,5.536,34.357
		c-0.299,2.645-3.093,5.024-5.557,4.139C206.288,395.744,188.816,381.76,206.747,368.576"/>
	<path style="fill:#F2F2F2;" d="M212.646,432.139c-2.432-3.595-10.507-17.184-0.992-25.696c0.416-0.363,0.981-0.533,1.536-0.459
		l12.235,1.525c1.227,0.149,1.984,1.397,1.557,2.549c-1.493,4.064-4.235,12.907-3.04,20.181c0.181,1.088-0.651,2.08-1.739,2.165
		l-7.851,0.555C213.67,433.014,213.03,432.704,212.646,432.139"/>
</g>
<g>
</g>
<g>
</g>
<g>
</g>
<g>
</g>
<g>
</g>
<g>
</g>
<g>
</g>
<g>
</g>
<g>
</g>
<g>
</g>
<g>
</g>
<g>
</g>
<g>
</g>
<g>
</g>
<g>
</g>
</svg>
