<?xml version="1.0"?>
<!--
  - Copyright (c) 2023. Selldone® Business OS™
  -
  - Author: M.Pajuhaan
  - Web: https://selldone.com
  - ━━━━━━━━━━━━━━━━━━━━━━━━━━━━━━━━━━━━━━━━━━━━━━━━━━━━━━
  -
  - All rights reserved. In the weave of time, where traditions and innovations intermingle, this content was crafted.
  - From the essence of thought, through the corridors of creativity, each word, and sentiment has been molded.
  - Not just to exist, but to inspire. Like an artist's stroke or a sculptor's chisel, every nuance is deliberate.
  - Our journey is not just about reaching a destination, but about creating a masterpiece.
  - Tread carefully, for you're treading on dreams.
  -->

<svg xmlns="http://www.w3.org/2000/svg" xmlns:xlink="http://www.w3.org/1999/xlink" xmlns:svgjs="http://svgjs.com/svgjs" version="1.1" width="512" height="512" x="0" y="0" viewBox="0 0 512.364 512.364" style="enable-background:new 0 0 512 512" xml:space="preserve" class=""><g><path xmlns="http://www.w3.org/2000/svg" d="m370.949 511.89h-229.534c-61.058 0-112.315-45.748-119.229-106.413l-21.521-188.85c-6.469-49.885 35.155-96.518 85.447-95.736 26.52 1.049 26.53 38.946-.001 39.999-13.284 0-25.472 5.458-34.318 15.37-8.846 9.911-12.889 22.638-11.385 35.837l21.522 188.852c4.609 40.443 38.78 70.942 79.485 70.942h229.534c40.705 0 74.877-30.498 79.485-70.941l21.521-188.852c1.504-13.199-2.539-25.926-11.385-35.837-8.846-9.912-21.033-15.37-34.318-15.37-26.516-1.046-26.534-38.946 0-40 50.288-.785 91.921 45.862 85.445 95.736l-21.521 188.851c-6.912 60.665-58.169 106.412-119.227 106.412zm-186.845-325v-74c4.021-96.868 142.015-96.793 146 0v8h-86c-26.536 1.056-26.516 38.953 0 40h106c11.046 0 20-8.954 20-20v-28c-6.225-149.947-219.831-149.831-226 0v74c0 11.046 8.954 20 20 20s20-8.954 20-20zm11 104c0 13.807-11.193 25-25 25-33.162-1.317-33.153-48.688 0-50 13.807 0 25 11.193 25 25zm61-25c-13.807 0-25 11.193-25 25 1.317 33.162 48.688 33.153 50 0 0-13.807-11.193-25-25-25zm86 0c-13.807 0-25 11.193-25 25 1.317 33.162 48.688 33.153 50 0 0-13.807-11.193-25-25-25zm-172 86c-13.807 0-25 11.193-25 25 1.317 33.162 48.688 33.153 50 0 0-13.807-11.193-25-25-25zm86 0c-13.807 0-25 11.193-25 25 1.317 33.162 48.688 33.153 50 0 0-13.807-11.193-25-25-25zm86 0c-13.807 0-25 11.193-25 25 1.317 33.162 48.688 33.153 50 0 0-13.807-11.193-25-25-25z" fill="#000000" data-original="#000000" style="" class=""/></g></svg>
