<?xml version="1.0" encoding="iso-8859-1"?>
<!-- Generator: Adobe Illustrator 19.0.0, SVG Export Plug-In . SVG Version: 6.00 Build 0)  -->
<svg version="1.1" id="Capa_1" xmlns="http://www.w3.org/2000/svg" xmlns:xlink="http://www.w3.org/1999/xlink" x="0px" y="0px"
	 viewBox="0 0 512 512" style="enable-background:new 0 0 512 512;" xml:space="preserve">
<g>
	<g>
		<g>
			<circle cx="252" cy="260.5" r="20"/>
			<circle cx="177" cy="260.5" r="20"/>
			<circle cx="252" cy="412.5" r="20"/>
			<circle cx="252" cy="336.5" r="20"/>
			<circle cx="177" cy="336.5" r="20"/>
			<path d="M492,290.5c11.046,0,20-8.954,20-20v-90c0-44.112-35.888-80-80-80h-81.299c-7.39-30.216-31.98-53.742-62.769-59.581
				c1.314-0.273,2.675-0.419,4.069-0.419c11.045-0.001,19.999-8.955,19.998-20.001C311.999,9.454,303.045,0.5,292,0.5h-0.002
				H137.002c-25.696,0.002-47.662,16.246-56.193,39H80c-44.112,0-80,35.888-80,80v312c0,44.112,35.888,80,80,80h193
				c37.565,0,69.149-26.032,77.701-61H432c44.112,0,80-35.888,80-80c0-11.046-8.954-20-20-20c-11.046,0-20,8.954-20,20
				c0,22.056-17.944,40-40,40h-79v-270h79c22.056,0,40,17.944,40,40v90C472,281.546,480.954,290.5,492,290.5z M117.008,60.5
				c0-11.027,8.971-19.999,19.996-20h98.428c-2.22,6.26-3.428,12.991-3.428,20.002l0.002,29.998h-115L117.008,60.5z M313,165.5H100
				c-11.046,0-20,8.954-20,20s8.954,20,20,20h213v226c0,22.056-17.944,40-40,40H80c-22.056,0-40-17.944-40-40v-312
				c0-21.048,16.345-38.338,37.006-39.876l-0.002,30.874c0,5.305,2.106,10.393,5.857,14.144c3.751,3.751,8.838,5.858,14.143,5.858
				h155.004c5.305,0,10.392-2.107,14.143-5.858c3.751-3.751,5.857-8.839,5.857-14.144L272.005,79.5H273c22.056,0,40,17.944,40,40
				V165.5z"/>
			<circle cx="101" cy="412.5" r="20"/>
			<circle cx="177" cy="412.5" r="20"/>
			<path d="M402,200.5v100c0,11.046,8.954,20,20,20c11.046,0,20-8.954,20-20v-100c0-11.046-8.954-20-20-20
				C410.954,180.5,402,189.454,402,200.5z"/>
			<circle cx="101" cy="336.5" r="20"/>
			<circle cx="101" cy="260.5" r="20"/>
		</g>
	</g>
</g>
<g>
</g>
<g>
</g>
<g>
</g>
<g>
</g>
<g>
</g>
<g>
</g>
<g>
</g>
<g>
</g>
<g>
</g>
<g>
</g>
<g>
</g>
<g>
</g>
<g>
</g>
<g>
</g>
<g>
</g>
</svg>
