<svg id="Layer_1" enable-background="new 0 0 100 100" height="512" viewBox="0 0 100 100" width="512" xmlns="http://www.w3.org/2000/svg"><g><path d="m32.28 82h35.44c6.22 0 11.28-5.06 11.28-11.28v-33.72c0-1.1-.9-2-2-2h-12v-3c0-8.27-6.73-15-15-15s-15 6.73-15 15v3h-12c-1.1 0-2 .9-2 2v33.72c0 6.22 5.06 11.28 11.28 11.28zm6.72-50c0-6.07 4.93-11 11-11s11 4.93 11 11v3h-22zm-14 7h10v5c0 1.1.9 2 2 2s2-.9 2-2v-5h22v5c0 1.1.9 2 2 2s2-.9 2-2v-5h10v31.72c0 4.01-3.27 7.28-7.28 7.28h-35.44c-4.01 0-7.28-3.27-7.28-7.28z"/></g></svg>