<svg height="512pt" viewBox="-74 0 512 512" width="512pt" xmlns="http://www.w3.org/2000/svg" xmlns:xlink="http://www.w3.org/1999/xlink"><linearGradient id="a" gradientUnits="userSpaceOnUse" x1="202.4041599908" x2="202.4041599908" y1="49.179127014" y2="100.4406894326"><stop offset="0" stop-color="#ff4974"/><stop offset=".3262" stop-color="#fe4672"/><stop offset=".5324" stop-color="#fb3e6c"/><stop offset=".7054" stop-color="#f52f60"/><stop offset=".8591" stop-color="#ee1a51"/><stop offset="1" stop-color="#e4003d"/></linearGradient><linearGradient id="b" gradientUnits="userSpaceOnUse" x1="79.589462513" x2="471.4465218694" y1="205.0708457634" y2="596.9279051198"><stop offset="0" stop-color="#ffc738"/><stop offset=".4286" stop-color="#ffbb23"/><stop offset="1" stop-color="#ffa700"/></linearGradient><linearGradient id="c"><stop offset="0" stop-color="#e58200" stop-opacity="0"/><stop offset=".1879" stop-color="#e07d07" stop-opacity=".188235"/><stop offset=".4612" stop-color="#d16d1a" stop-opacity=".462745"/><stop offset=".7853" stop-color="#b9553a" stop-opacity=".784314"/><stop offset="1" stop-color="#a64153"/></linearGradient><linearGradient id="d" gradientUnits="userSpaceOnUse" x1="494.229828914" x2="6.6303346928" xlink:href="#c" y1="193.4067780064" y2="494.7455114094"/><linearGradient id="e"><stop offset="0" stop-color="#e58200" stop-opacity="0"/><stop offset=".0396" stop-color="#e27f04" stop-opacity=".039216"/><stop offset=".4671" stop-color="#c15d2f" stop-opacity=".466667"/><stop offset=".8016" stop-color="#ad4949" stop-opacity=".8"/><stop offset="1" stop-color="#a64153"/></linearGradient><linearGradient id="f" gradientUnits="userSpaceOnUse" x1="181.571373" x2="181.571373" xlink:href="#e" y1="469.4707711374" y2="547.0723354622"/><linearGradient id="g" gradientUnits="userSpaceOnUse" x1="414.2625223962" x2="179.2816277024" xlink:href="#c" y1="331.0801234374" y2="276.3176842204"/><linearGradient id="h" gradientUnits="userSpaceOnUse" x1="308.8618559304" x2="308.8618559304" xlink:href="#e" y1="498.5573028512" y2="390.5294729036"/><linearGradient id="i" gradientUnits="userSpaceOnUse" x1="267.181323511" x2="16.2759168766" xlink:href="#c" y1="349.6285863094" y2="-20.541248042"/><linearGradient id="j"><stop offset="0" stop-color="#3b395f"/><stop offset=".0633" stop-color="#37355a"/><stop offset=".4033" stop-color="#232543"/><stop offset=".7232" stop-color="#171b35"/><stop offset="1" stop-color="#131830"/></linearGradient><linearGradient id="k" gradientUnits="userSpaceOnUse" x1="230.2266535144" x2="250.8184992252" xlink:href="#j" y1="167.420056252" y2="188.0119019628"/><linearGradient id="l" gradientUnits="userSpaceOnUse" x1="43.6546768762" x2="64.246522587" xlink:href="#j" y1="167.420056252" y2="188.0119019628"/><linearGradient id="m" gradientUnits="userSpaceOnUse" x1="258.8252791362" x2="46.615142462" xlink:href="#c" y1="452.6561819516" y2="240.4460452774"/><linearGradient id="n" gradientUnits="userSpaceOnUse" x1="152.0692175782" x2="152.0692175782" y1="304.2108538528" y2="444.4772294176"><stop offset="0" stop-color="#fffcf8"/><stop offset=".1875" stop-color="#faf8f6"/><stop offset=".4041" stop-color="#eceef2"/><stop offset=".6353" stop-color="#d5dcea"/><stop offset=".875" stop-color="#b5c4df"/><stop offset="1" stop-color="#a1b5d8"/></linearGradient><radialGradient id="o" cx="115.6269493704" cy="166.0109513328" gradientUnits="userSpaceOnUse" r="124.5067076166"><stop offset="0" stop-color="#ff4974"/><stop offset=".3317" stop-color="#fe4672"/><stop offset=".5367" stop-color="#fb3e6c"/><stop offset=".7075" stop-color="#f62f61"/><stop offset=".8584" stop-color="#ee1b51"/><stop offset=".9965" stop-color="#e4013e"/><stop offset="1" stop-color="#e4003d"/></radialGradient><path d="m295.628906 129.5625c-7.445312 0-13.484375-6.039062-13.484375-13.484375v-14.109375c0-41.355469-33.644531-75-75-75h-9.484375c-41.355468 0-74.996094 33.644531-74.996094 75v14.105469c0 7.449219-6.039062 13.484375-13.488281 13.484375-7.445312 0-13.484375-6.035156-13.484375-13.484375v-14.105469c0-56.226562 45.742188-101.96875 101.972656-101.96875h9.484376c56.222656 0 101.96875 45.742188 101.96875 101.96875v14.105469c-.003907 7.449219-6.039063 13.488281-13.488282 13.488281zm0 0" fill="url(#a)"/><path d="m331.246094 512h-299.347656c-17.617188 0-31.898438-14.28125-31.898438-31.898438v-354.300781c0-6.679687 5.417969-12.097656 12.097656-12.097656h338.949219c6.679687 0 12.097656 5.417969 12.097656 12.097656v354.300781c-.003906 17.617188-14.28125 31.898438-31.898437 31.898438zm0 0" fill="url(#b)"/><path d="m351.042969 113.703125h-89.449219c6.683594 0 12.097656 5.417969 12.097656 12.097656v354.300781c0 17.617188-14.277344 31.898438-31.894531 31.898438h89.449219c17.617187 0 31.894531-14.28125 31.894531-31.898438v-354.300781c0-6.679687-5.414063-12.097656-12.097656-12.097656zm0 0" fill="url(#d)"/><path d="m0 397.527344v82.574218c0 17.617188 14.28125 31.898438 31.898438 31.898438h299.347656c17.613281 0 31.894531-14.28125 31.894531-31.898438v-82.574218zm0 0" fill="url(#f)"/><path d="m351.042969 113.703125h-31.398438v398.296875h11.601563c17.613281 0 31.894531-14.28125 31.894531-31.898438v-354.300781c0-6.679687-5.414063-12.097656-12.097656-12.097656zm0 0" fill="url(#g)"/><path d="m361.421875 490.433594-41.777344-41.777344-63.34375 63.34375h74.945313c14 0 25.882812-9.023438 30.175781-21.566406zm0 0" fill="url(#h)"/><path d="m363.140625 480.101562v-199.699218l-120.785156-120.789063c-2.253907-4.296875-6.753907-7.230469-11.941407-7.230469-7.449218 0-13.484374 6.035157-13.484374 13.484376v14.109374c0 38.160157-28.660157 69.734376-65.582032 74.382813l-95.445312-94.746094c-2.253906-4.296875-6.75-7.230469-11.941406-7.230469-7.445313 0-13.484376 6.035157-13.484376 13.484376v14.109374c0 29.554688 12.644532 56.210938 32.804688 74.851563l257.171875 257.171875h10.792969c17.617187 0 31.894531-14.28125 31.894531-31.898438zm0 0" fill="url(#i)"/><path d="m251.109375 167.972656c0 11.226563-9.105469 20.328125-20.332031 20.328125-11.226563 0-20.332032-9.101562-20.332032-20.328125 0-11.230468 9.105469-20.332031 20.332032-20.332031 11.226562 0 20.332031 9.101563 20.332031 20.332031zm0 0" fill="url(#k)"/><path d="m64.535156 167.972656c0 11.226563-9.101562 20.328125-20.328125 20.328125-11.230469 0-20.332031-9.101562-20.332031-20.328125 0-11.230468 9.101562-20.332031 20.332031-20.332031 11.226563 0 20.328125 9.101563 20.328125 20.332031zm0 0" fill="url(#l)"/><path d="m361.46875 490.292969c-4.242188 12.621093-16.171875 21.703125-30.230469 21.703125h-78.082031l-134.203125-134.203125c-2.996094-1.832031-5.402344-4.757813-6.460937-8.609375l-17.175782-61.921875c-3.050781-11.023438 7.089844-21.164063 18.113282-18.113281l61.925781 17.164062c3.847656 1.070312 6.773437 3.472656 8.605469 6.472656zm0 0" fill="url(#m)"/><path d="m175.355469 306.316406-61.921875-17.164062c-11.027344-3.058594-21.167969 7.085937-18.109375 18.109375l17.164062 61.921875c3.011719 10.859375 16.613281 14.445312 24.582031 6.472656l5.164063-5.160156 22.40625 29.804687c2.652344 3.527344 7.8125 3.890625 10.933594.769531l31.667969-31.667968c3.117187-3.117188 2.753906-8.277344-.773438-10.929688l-29.804688-22.40625 5.164063-5.164062c7.96875-7.972656 4.386719-21.574219-6.472656-24.585938zm0 0" fill="url(#n)"/><path d="m141.929688 281.941406h-9.484376c-56.226562 0-101.96875-45.742187-101.96875-101.964844v-14.109374c0-7.449219 6.035157-13.484376 13.484376-13.484376 7.445312 0 13.484374 6.035157 13.484374 13.484376v14.109374c0 41.351563 33.644532 74.996094 75 74.996094h9.484376c41.355468 0 75-33.644531 75-74.996094v-14.109374c0-7.449219 6.035156-13.484376 13.484374-13.484376 7.445313 0 13.484376 6.035157 13.484376 13.484376v14.109374c0 56.222657-45.742188 101.964844-101.96875 101.964844zm0 0" fill="url(#o)"/></svg>