

<svg id="Layer_1" enable-background="new 0 0 512 512" height="512" viewBox="0 0 512 512" width="512" xmlns="http://www.w3.org/2000/svg"><path d="m461.693 266.395c-10.793-2.38-21.46 4.438-23.839 15.222-4.076 18.478-20.053 31.383-38.854 31.383h-247.059l-17.851-164h74.91c11.046 0 20-8.954 20-20s-8.954-20-20-20h-79.264l-1.484-13.632-.053-.438c-7.1-54.119-53.616-94.93-108.199-94.93-11.046 0-20 8.954-20 20s8.954 20 20 20c34.506 0 63.923 25.749 68.512 59.928l23.775 218.42c-20.787 9.437-35.287 31.376-35.287 55.652 0 33.084 26.916 60 60 60h8.157c-2.036 5.967-3.157 12.353-3.157 19 0 32.532 26.468 59 59 59s59-26.468 59-59c0-6.647-1.121-13.033-3.157-19h86.314c-2.036 5.967-3.157 12.353-3.157 19 0 32.532 26.468 59 59 59s59-26.468 59-59-26.468-59-59-59h-262c-11.028 0-20-8.972-20-20s8.972-21 20-21h262c18.161 0 35.934-6.274 50.041-17.666 14.064-11.356 23.964-27.374 27.874-45.101 2.38-10.787-4.436-21.46-15.222-23.838zm-62.693 167.605c10.477 0 19 8.523 19 19s-8.523 19-19 19-19-8.523-19-19 8.523-19 19-19zm-198 0c10.477 0 19 8.523 19 19s-8.523 19-19 19-19-8.523-19-19 8.523-19 19-19zm170-313v-41c0-11.046 8.954-20 20-20s20 8.954 20 20v21h9c11.046 0 20 8.954 20 20s-8.954 20-20 20h-29c-11.046 0-20-8.954-20-20zm20 121c66.72 0 121-54.28 121-121s-54.28-121-121-121-121 54.28-121 121 54.28 121 121 121zm0-202c44.663 0 81 36.336 81 81s-36.337 81-81 81-81-36.336-81-81 36.337-81 81-81z"/></svg>