<svg id="Layer_1" enable-background="new 0 0 512 512" height="512" viewBox="0 0 512 512" width="512" xmlns="http://www.w3.org/2000/svg"><path d="m502.365 163.468c-3.796-4.722-9.528-7.468-15.587-7.468h-70.557v-86c0-11.046-8.954-20-20-20h-53.275c.776-3.218 1.677-6.176 2.844-7.625 1.198-1.487 5.097-2.375 10.431-2.375 11.046 0 20-8.954 20-20s-8.954-20-20-20c-18.354 0-32.343 5.814-41.581 17.282-4.22 5.239-6.838 10.962-8.629 16.397-1.829-5.464-4.477-11.232-8.723-16.492-9.205-11.404-23.022-17.187-41.066-17.187-11.046 0-20 8.954-20 20s8.954 20 20 20c2.429 0 8.259.225 9.943 2.312 1.195 1.481 2.139 4.456 2.959 7.688h-52.902c-11.046 0-20 8.954-20 20v86h-56.148l-6.6-60.632-.053-.438c-7.101-54.119-53.616-94.93-108.199-94.93-11.046 0-20 8.954-20 20s8.954 20 20 20c34.506 0 63.923 25.749 68.512 59.928l23.775 218.419c-20.787 9.438-35.287 30.377-35.287 54.653 0 .169.021.332.025.5-.004.168-.025.331-.025.5 0 33.084 26.916 60 60 60h8.157c-2.036 5.967-3.157 12.353-3.157 19 0 32.533 26.467 59 59 59s59-26.467 59-59c0-6.647-1.121-13.033-3.157-19h86.314c-2.036 5.967-3.157 12.353-3.157 19 0 32.533 26.467 59 59 59s59-26.467 59-59-26.467-59-59-59h-262c-11.028 0-20-8.972-20-20 0-.169-.021-.332-.025-.5.004-.168.025-.331.025-.5 0-11.028 8.972-20 20-20h162c11.046 0 20-8.954 20-20s-8.954-20-20-20h-147.059l-12.735-117h317.475l-18.827 85.617c-4.077 18.478-20.054 31.383-38.854 31.383-11.046 0-20 8.954-20 20s8.954 20 20 20c18.161 0 35.933-6.274 50.041-17.667 14.064-11.356 23.963-27.374 27.876-45.113l24.172-109.925c1.302-5.917-.149-12.105-3.946-16.827zm-277.143 289.532c0 10.477-8.523 19-19 19s-19-8.523-19-19 8.523-19 19-19 19 8.523 19 19zm179 19c-10.477 0-19-8.523-19-19s8.523-19 19-19 19 8.523 19 19-8.524 19-19 19zm-28-316h-50v-66h50zm-140-66h50v66h-50z"/></svg>