<?xml version="1.0" encoding="iso-8859-1"?>
<!--
  - Copyright (c) 2023. Selldone® Business OS?
  -
  - Author: M.Pajuhaan
  - Web: https://selldone.com
  - ??????????????????????????????????????????????????????
  -
  - All rights reserved. In the weave of time, where traditions and innovations intermingle, this content was crafted.
  - From the essence of thought, through the corridors of creativity, each word, and sentiment has been molded.
  - Not just to exist, but to inspire. Like an artist's stroke or a sculptor's chisel, every nuance is deliberate.
  - Our journey is not just about reaching a destination, but about creating a masterpiece.
  - Tread carefully, for you're treading on dreams.
  -->

<!-- Generator: Adobe Illustrator 19.0.0, SVG Export Plug-In . SVG Version: 6.00 Build 0)  -->
<svg version="1.1" id="Capa_1" xmlns="http://www.w3.org/2000/svg" xmlns:xlink="http://www.w3.org/1999/xlink" x="0px" y="0px"
	 viewBox="0 0 512 512" style="enable-background:new 0 0 512 512;" xml:space="preserve">
<g>
	<g>
		<g>
			<path d="M216.855,208.142c3.905,3.905,9.024,5.858,14.143,5.858s10.237-1.953,14.143-5.858l50.857-50.857l50.857,50.857
				c3.905,3.905,9.024,5.858,14.143,5.858c5.119,0,10.237-1.953,14.143-5.858c7.81-7.811,7.81-20.474,0-28.284l-50.858-50.858
				l50.858-50.858c7.81-7.811,7.81-20.474,0-28.284c-7.811-7.811-20.475-7.811-28.285,0l-50.858,50.857L245.141,49.86
				c-7.811-7.811-20.475-7.811-28.285,0c-7.81,7.811-7.81,20.474,0,28.284l50.858,50.858l-50.858,50.858
				C209.046,187.67,209.046,200.332,216.855,208.142z"/>
			<path d="M496.304,109.472c-10.798-2.382-21.46,4.436-23.839,15.222l-34.615,156.924c-4.076,18.478-20.053,31.383-38.854,31.383
				c-11.046,0-20,8.954-20,20s8.954,20,20,20c18.161,0,35.933-6.274,50.042-17.667c14.063-11.356,23.963-27.373,27.873-45.101
				l34.615-156.924C513.906,122.523,507.091,111.85,496.304,109.472z"/>
			<path d="M398.997,394H136.999c-11.028,0-20-8.972-20-20c0-0.169-0.021-0.332-0.025-0.5c0.004-0.168,0.025-0.331,0.025-0.5
				c0-11.028,8.972-20,20-20h161.999c11.046,0,20-8.954,20-20s-8.954-20-20-20H151.94L128.251,95.37l-0.053-0.438
				C121.098,40.813,74.582,0.002,20,0.002c-11.046,0-20,8.954-20,20s8.954,20,20,20c34.506,0,63.923,25.749,68.511,59.927
				l23.775,218.418c-20.787,9.437-35.287,30.376-35.287,54.652c0,0.169,0.021,0.332,0.025,0.5c-0.004,0.168-0.025,0.331-0.025,0.5
				c0,33.084,26.916,60,60,60h8.157c-2.036,5.967-3.157,12.353-3.157,19c0,32.533,26.468,59,59,59s59-26.467,59-59
				c0-6.647-1.121-13.033-3.157-19h86.313c-2.036,5.967-3.157,12.353-3.157,19c0,32.533,26.468,59,59,59c32.532,0,59-26.467,59-59
				C457.996,420.466,431.529,393.999,398.997,394z M200.998,471.998c-10.477,0-19-8.523-19-19c0-10.477,8.523-19,19-19
				s19,8.523,19,19C219.998,463.475,211.475,471.998,200.998,471.998z M398.997,471.998c-10.477,0-19-8.523-19-19
				c0-10.477,8.523-19,19-19c10.477,0,19,8.523,19,19C417.997,463.475,409.474,471.998,398.997,471.998z"/>
		</g>
	</g>
</g>
<g>
</g>
<g>
</g>
<g>
</g>
<g>
</g>
<g>
</g>
<g>
</g>
<g>
</g>
<g>
</g>
<g>
</g>
<g>
</g>
<g>
</g>
<g>
</g>
<g>
</g>
<g>
</g>
<g>
</g>
</svg>
