<?xml version="1.0" encoding="iso-8859-1"?>
<!--
  - Copyright (c) 2023. Selldone® Business OS?
  -
  - Author: M.Pajuhaan
  - Web: https://selldone.com
  - ??????????????????????????????????????????????????????
  -
  - All rights reserved. In the weave of time, where traditions and innovations intermingle, this content was crafted.
  - From the essence of thought, through the corridors of creativity, each word, and sentiment has been molded.
  - Not just to exist, but to inspire. Like an artist's stroke or a sculptor's chisel, every nuance is deliberate.
  - Our journey is not just about reaching a destination, but about creating a masterpiece.
  - Tread carefully, for you're treading on dreams.
  -->

<!-- Generator: Adobe Illustrator 19.0.0, SVG Export Plug-In . SVG Version: 6.00 Build 0)  -->
<svg version="1.1" id="Capa_1" xmlns="http://www.w3.org/2000/svg" xmlns:xlink="http://www.w3.org/1999/xlink" x="0px" y="0px"
	 viewBox="0 0 512 512" style="enable-background:new 0 0 512 512;" xml:space="preserve">
<linearGradient id="SVGID_1_" gradientUnits="userSpaceOnUse" x1="74" y1="258" x2="438" y2="258" gradientTransform="matrix(1 0 0 -1 0 514)">
	<stop  offset="0" style="stop-color:#00F2FE"/>
	<stop  offset="0.021" style="stop-color:#03EFFE"/>
	<stop  offset="0.293" style="stop-color:#24D2FE"/>
	<stop  offset="0.554" style="stop-color:#3CBDFE"/>
	<stop  offset="0.796" style="stop-color:#4AB0FE"/>
	<stop  offset="1" style="stop-color:#4FACFE"/>
</linearGradient>
<path style="fill:url(#SVGID_1_);" d="M357.521,196.512C380.221,175.83,394.5,146.056,394.5,113c0-62.309-50.691-113-113-113
	c-62.164,0-112.765,50.453-112.999,112.563l-0.484,11.604C168.006,124.444,168,124.723,168,125v320c0,14.888-12.112,27-27,27
	s-27-12.112-27-27c0-11.046-8.954-20-20-20s-20,8.954-20,20c0,36.944,30.056,67,67,67s67-30.056,67-67v-29.18
	c24.412,24.205,57.988,39.18,95,39.18c34.199,0,66.825-12.813,91.867-36.078c8.092-7.518,8.558-20.173,1.04-28.265
	s-20.173-8.559-28.265-1.04C350.023,405.985,327.066,415,303,415c-52.383,0-95-42.617-95-95V125.417l0.483-11.584
	c0.011-0.277,0.017-0.556,0.017-0.833c0-40.252,32.748-73,73-73s73,32.748,73,73c0,38.098-29.334,69.473-66.604,72.723l-7.212,0.294
	c-10.878,0.444-19.402,9.507-19.181,20.392C261.726,217.292,270.613,226,281.5,226c2.993,0,5.955-0.116,8.89-0.347l15.161-0.618
	C356.76,226.392,398,268.47,398,320c0,11.046,8.954,20,20,20s20-8.954,20-20C438,264.953,404.878,217.502,357.521,196.512z"/>
<g>
</g>
<g>
</g>
<g>
</g>
<g>
</g>
<g>
</g>
<g>
</g>
<g>
</g>
<g>
</g>
<g>
</g>
<g>
</g>
<g>
</g>
<g>
</g>
<g>
</g>
<g>
</g>
<g>
</g>
</svg>
