<?xml version="1.0" encoding="iso-8859-1"?>



<svg version="1.1" id="Capa_1" xmlns="http://www.w3.org/2000/svg" xmlns:xlink="http://www.w3.org/1999/xlink" x="0px" y="0px"
	 viewBox="0 0 511.999 511.999" style="enable-background:new 0 0 511.999 511.999;" xml:space="preserve">
<path style="fill:#738611;" d="M493.109,375.014H108.492c-10.434,0-18.891-8.458-18.891-18.891V174.766
	c0-10.434,8.458-18.891,18.891-18.891h384.616c10.434,0,18.891,8.458,18.891,18.891v181.357
	C512,366.556,503.542,375.014,493.109,375.014z"/>
<path style="fill:#9EB644;" d="M89.767,351.552l-0.166,0.155v4.416c0,10.434,8.458,18.891,18.891,18.891h4.737L89.767,351.552z"/>
<linearGradient id="SVGID_1_" gradientUnits="userSpaceOnUse" x1="339.5584" y1="24.5894" x2="269.2584" y2="301.5894" gradientTransform="matrix(1.0039 0 0 -1.0039 0.1922 516.5538)">
	<stop  offset="0" style="stop-color:#9EB644"/>
	<stop  offset="1" style="stop-color:#738611"/>
</linearGradient>
<path style="fill:url(#SVGID_1_);" d="M470.082,351.987H85.466c-10.434,0-18.891-8.458-18.891-18.891V151.739
	c0-10.434,8.458-18.891,18.891-18.891h384.616c10.434,0,18.891,8.458,18.891,18.891v181.357
	C488.973,343.529,480.515,351.987,470.082,351.987z"/>
<path style="fill:#9EB644;" d="M66.74,328.525l-0.166,0.155v4.416c0,10.434,8.458,18.891,18.891,18.891h4.737L66.74,328.525z"/>
<linearGradient id="SVGID_2_" gradientUnits="userSpaceOnUse" x1="199.4783" y1="349.0292" x2="482.7183" y2="65.7892" gradientTransform="matrix(1.0039 0 0 -1.0039 0.1922 516.5538)">
	<stop  offset="0" style="stop-color:#9EB644"/>
	<stop  offset="1" style="stop-color:#738611"/>
</linearGradient>
<path style="fill:url(#SVGID_2_);" d="M446.438,329.402H61.821c-10.434,0-18.891-8.458-18.891-18.891V129.154
	c0-10.434,8.458-18.891,18.891-18.891h384.616c10.434,0,18.891,8.458,18.891,18.891v181.357
	C465.329,320.944,456.872,329.402,446.438,329.402z"/>
<path style="fill:#9EB644;" d="M429.929,315.499H78.33c-10.043,0-18.214-8.171-18.214-18.214V142.38
	c0-10.043,8.171-18.214,18.214-18.214h351.599c10.043,0,18.214,8.171,18.214,18.214v154.905
	C448.144,307.328,439.973,315.499,429.929,315.499z M78.33,139.225c-1.739,0-3.155,1.416-3.155,3.155v154.905
	c0,1.739,1.416,3.155,3.155,3.155h351.599c1.739,0,3.155-1.416,3.155-3.155V142.381c0-1.739-1.416-3.155-3.155-3.155L78.33,139.225
	L78.33,139.225z"/>
<g>
	<circle style="fill:#FFE7A5;" cx="254.133" cy="219.835" r="56.111"/>
	<rect x="84.851" y="151.609" style="fill:#FFE7A5;" width="85.886" height="19.99"/>
	<rect x="337.528" y="268.064" style="fill:#FFE7A5;" width="85.886" height="19.99"/>
</g>
<linearGradient id="SVGID_3_" gradientUnits="userSpaceOnUse" x1="240.4292" y1="58.5097" x2="174.1792" y2="231.1697" gradientTransform="matrix(1.0039 0 0 -1.0039 0.1922 516.5538)">
	<stop  offset="0" style="stop-color:#738611;stop-opacity:0"/>
	<stop  offset="1" style="stop-color:#738611"/>
</linearGradient>
<path style="fill:url(#SVGID_3_);" d="M82.563,375.014h290.6L265.161,267.013c-20.019-20.018-50.109-23.8-73.951-11.375
	l-18.391-18.337c-11.549-12.399-28.011-20.161-46.293-20.161c-33.189,0-60.389,25.562-63.033,58.07
	c-11.628-0.042-23.257,3.117-33.482,9.446v37.808C30.011,351.486,53.539,375.014,82.563,375.014z"/>
<linearGradient id="SVGID_4_" gradientUnits="userSpaceOnUse" x1="200.1486" y1="184.7795" x2="290.5986" y2="275.2295" gradientTransform="matrix(1.0039 0 0 -1.0039 0.1922 516.5538)">
	<stop  offset="0" style="stop-color:#FFE7A5"/>
	<stop  offset="0.966" style="stop-color:#FFBF5C"/>
</linearGradient>
<circle style="fill:url(#SVGID_4_);" cx="220.431" cy="311.744" r="63.267"/>
<linearGradient id="SVGID_5_" gradientUnits="userSpaceOnUse" x1="237.6496" y1="222.2784" x2="151.6697" y2="136.3084" gradientTransform="matrix(1.0039 0 0 -1.0039 0.1922 516.5538)">
	<stop  offset="0" style="stop-color:#FFE7A5"/>
	<stop  offset="0.966" style="stop-color:#FFBF5C"/>
</linearGradient>
<circle style="fill:url(#SVGID_5_);" cx="220.431" cy="311.744" r="60.135"/>
<linearGradient id="SVGID_6_" gradientUnits="userSpaceOnUse" x1="205.2075" y1="189.8405" x2="271.8575" y2="256.4805" gradientTransform="matrix(1.0039 0 0 -1.0039 0.1922 516.5538)">
	<stop  offset="0" style="stop-color:#FFE7A5"/>
	<stop  offset="0.966" style="stop-color:#FFBF5C"/>
</linearGradient>
<circle style="fill:url(#SVGID_6_);" cx="220.431" cy="311.744" r="46.612"/>
<g>
	<path style="fill:#DB9E36;" d="M191.757,306.608l3.525-3.488c1.09-1.079,2.548-1.738,4.373-1.977
		c1.824-0.239,3.735-0.199,5.728,0.12l5.998,0.978c1.999,0.326,3.909,0.393,5.731,0.199c1.82-0.194,3.24-0.793,4.257-1.8
		c1.017-1.006,1.576-2.22,1.68-3.642c0.102-1.422-0.482-2.775-1.754-4.061c-1.08-1.092-2.258-1.68-3.532-1.763
		c-1.275-0.084-2.501,0.459-3.681,1.625c-0.386,0.382-0.91,0.527-1.57,0.437c-0.662-0.09-1.292-0.439-1.891-1.045
		c-1.152-1.165-1.013-2.455,0.419-3.87c1.892-1.872,4.164-2.669,6.818-2.388c2.652,0.279,4.987,1.438,7.003,3.476
		c2.135,2.158,3.278,4.665,3.426,7.519c0.148,2.853-0.849,5.341-2.993,7.461c-1.454,1.438-3.218,2.378-5.293,2.824
		c-2.076,0.445-4.125,0.528-6.149,0.25c-2.024-0.278-4-0.603-5.926-0.977c-1.928-0.374-3.692-0.572-5.295-0.594
		c-1.604-0.022-2.781,0.338-3.531,1.081l-1.38,1.365l10.584,10.698c0.336,0.339,0.466,0.799,0.391,1.377
		c-0.075,0.579-0.344,1.096-0.804,1.552c-0.461,0.456-0.993,0.732-1.595,0.826c-0.602,0.095-1.07-0.026-1.403-0.363l-12.729-12.865
		c-0.382-0.385-0.636-0.885-0.763-1.498C191.275,307.454,191.393,306.969,191.757,306.608z"/>
	<path style="fill:#DB9E36;" d="M214.131,319.322c1.189-1.176,2.407-1.133,3.655,0.129c1.296,1.31,1.435,2.469,0.416,3.477
		s-1.418,2.206-1.196,3.595c0.222,1.388,0.933,2.689,2.132,3.902c2.88,2.911,5.849,2.854,8.905-0.17l0.692-0.684
		c1.528-1.512,2.302-3.023,2.322-4.531c0.02-1.508-0.654-2.954-2.022-4.336l-5.22-5.277c-1.08-1.091-1.124-2.127-0.134-3.108
		c0.241-0.238,0.595-0.461,1.063-0.666l10.613-9.086c0.921-0.767,1.633-0.897,2.137-0.387l10.693,10.807
		c0.383,0.387,0.508,0.853,0.372,1.395c-0.137,0.542-0.434,1.042-0.895,1.498c-0.461,0.457-0.964,0.749-1.507,0.878
		c-0.544,0.131-1.008,0-1.391-0.387l-8.316-8.407l-7.563,6.475l3.205,3.239c2.472,2.499,3.827,5.094,4.067,7.785
		c0.239,2.691-0.964,5.346-3.608,7.962l-0.692,0.684c-2.742,2.713-5.499,3.965-8.272,3.757c-2.774-0.208-5.373-1.537-7.797-3.987
		c-2.497-2.523-3.846-5.136-4.049-7.84C211.54,323.338,212.336,321.099,214.131,319.322z"/>
</g>
<linearGradient id="SVGID_7_" gradientUnits="userSpaceOnUse" x1="207.508" y1="181.4388" x2="120.118" y2="266.6989" gradientTransform="matrix(1.0039 0 0 -1.0039 0.1922 516.5538)">
	<stop  offset="0" style="stop-color:#FF5D00;stop-opacity:0"/>
	<stop  offset="1" style="stop-color:#D54003"/>
</linearGradient>
<path style="fill:url(#SVGID_7_);" d="M273.636,345.966l-87.429-87.43c-3.723,2.399-7.255,5.216-10.514,8.475
	c-24.706,24.707-24.706,64.762,0,89.469c24.707,24.706,64.762,24.706,89.468,0C268.421,353.221,271.237,349.688,273.636,345.966z"/>
<linearGradient id="SVGID_8_" gradientUnits="userSpaceOnUse" x1="190.9573" y1="193.6535" x2="-9.3827" y2="321.5635" gradientTransform="matrix(1.0039 0 0 -1.0039 0.1922 516.5538)">
	<stop  offset="0" style="stop-color:#FFE7A5"/>
	<stop  offset="0.966" style="stop-color:#FFBF5C"/>
</linearGradient>
<circle style="fill:url(#SVGID_8_);" cx="126.524" cy="280.402" r="63.267"/>
<linearGradient id="SVGID_9_" gradientUnits="userSpaceOnUse" x1="191.606" y1="275.1449" x2="-8.734" y2="153.5549" gradientTransform="matrix(1.0039 0 0 -1.0039 0.1922 516.5538)">
	<stop  offset="0" style="stop-color:#FFE7A5"/>
	<stop  offset="0.966" style="stop-color:#FFBF5C"/>
</linearGradient>
<circle style="fill:url(#SVGID_9_);" cx="126.524" cy="280.402" r="60.135"/>
<linearGradient id="SVGID_10_" gradientUnits="userSpaceOnUse" x1="194.3979" y1="202.9757" x2="-5.9421" y2="297.2257" gradientTransform="matrix(1.0039 0 0 -1.0039 0.1922 516.5538)">
	<stop  offset="0" style="stop-color:#FFE7A5"/>
	<stop  offset="0.966" style="stop-color:#FFBF5C"/>
</linearGradient>
<circle style="fill:url(#SVGID_10_);" cx="126.524" cy="280.402" r="46.612"/>
<g>
	<path style="fill:#DB9E36;" d="M101.322,290.091c0.009-1.672,0.901-2.504,2.675-2.494c1.843,0.01,2.761,0.732,2.753,2.164
		c-0.008,1.434,0.557,2.562,1.697,3.387c1.138,0.825,2.561,1.243,4.268,1.251c4.095,0.022,6.154-2.117,6.177-6.417l0.005-0.973
		c0.011-2.149-0.51-3.765-1.561-4.845c-1.052-1.081-2.551-1.626-4.496-1.636l-7.422-0.039c-1.535-0.008-2.299-0.709-2.292-2.103
		c0.002-0.339,0.095-0.747,0.281-1.223l1.08-13.93c0.108-1.194,0.521-1.789,1.238-1.785l15.202,0.081
		c0.545,0.003,0.963,0.244,1.25,0.723c0.287,0.48,0.43,1.044,0.426,1.692c-0.003,0.649-0.152,1.211-0.444,1.687
		c-0.293,0.477-0.713,0.713-1.258,0.71l-11.825-0.063l-0.769,9.927l4.556,0.024c3.515,0.019,6.309,0.896,8.381,2.63
		s3.099,4.462,3.079,8.181l-0.005,0.973c-0.021,3.857-1.085,6.692-3.193,8.506c-2.108,1.815-4.886,2.713-8.333,2.694
		c-3.55-0.019-6.352-0.912-8.406-2.68C102.33,294.763,101.309,292.617,101.322,290.091z"/>
	<path style="fill:#DB9E36;" d="M128.669,287.881l0.079-14.895c0.021-3.924,1.077-6.803,3.168-8.634
		c2.091-1.832,4.877-2.739,8.359-2.72c3.481,0.019,6.265,0.955,8.355,2.809c2.089,1.854,3.123,4.744,3.102,8.668l-0.079,14.895
		c-0.021,3.924-1.086,6.803-3.194,8.634c-2.108,1.831-4.903,2.738-8.384,2.72c-3.481-0.019-6.257-0.955-8.329-2.809
		C129.673,294.695,128.648,291.806,128.669,287.881z M134.094,287.91c-0.023,4.402,1.978,6.614,6.005,6.636
		c1.945,0.01,3.449-0.527,4.514-1.614c1.063-1.086,1.601-2.738,1.613-4.956l0.079-14.895c0.012-2.218-0.509-3.875-1.56-4.973
		c-1.052-1.097-2.551-1.651-4.496-1.663c-4.027-0.022-6.052,2.168-6.076,6.571L134.094,287.91z"/>
</g>
<linearGradient id="SVGID_11_" gradientUnits="userSpaceOnUse" x1="134.7605" y1="165.8714" x2="49.9505" y2="250.6814" gradientTransform="matrix(1.0039 0 0 -1.0039 0.1922 516.5538)">
	<stop  offset="0" style="stop-color:#FF5D00;stop-opacity:0"/>
	<stop  offset="1" style="stop-color:#D54003"/>
</linearGradient>
<path style="fill:url(#SVGID_11_);" d="M109.505,295.315c-11.499-12.316-27.849-20.04-46.012-20.106
	c-0.14,1.715-0.23,3.442-0.23,5.193c0,34.939,28.324,63.263,63.263,63.263c9.2,0,17.933-1.98,25.819-5.512L109.505,295.315z"/>
<linearGradient id="SVGID_12_" gradientUnits="userSpaceOnUse" x1="82.0481" y1="158.1689" x2="-8.3969" y2="248.6189" gradientTransform="matrix(1.0039 0 0 -1.0039 0.1922 516.5538)">
	<stop  offset="0" style="stop-color:#FFE7A5"/>
	<stop  offset="0.966" style="stop-color:#FFBF5C"/>
</linearGradient>
<circle style="fill:url(#SVGID_12_);" cx="63.267" cy="338.469" r="63.267"/>
<linearGradient id="SVGID_13_" gradientUnits="userSpaceOnUse" x1="44.5544" y1="195.6622" x2="130.5314" y2="109.6922" gradientTransform="matrix(1.0039 0 0 -1.0039 0.1922 516.5538)">
	<stop  offset="0" style="stop-color:#FFE7A5"/>
	<stop  offset="0.966" style="stop-color:#FFBF5C"/>
</linearGradient>
<circle style="fill:url(#SVGID_13_);" cx="63.267" cy="338.469" r="60.135"/>
<linearGradient id="SVGID_14_" gradientUnits="userSpaceOnUse" x1="76.9944" y1="163.2253" x2="10.3464" y2="229.8653" gradientTransform="matrix(1.0039 0 0 -1.0039 0.1922 516.5538)">
	<stop  offset="0" style="stop-color:#FFE7A5"/>
	<stop  offset="0.966" style="stop-color:#FFBF5C"/>
</linearGradient>
<circle style="fill:url(#SVGID_14_);" cx="63.267" cy="338.469" r="46.612"/>
<g>
	<path style="fill:#DB9E36;" d="M57.426,367.83l-3.488-3.525c-1.079-1.09-1.738-2.548-1.977-4.373
		c-0.239-1.824-0.199-3.735,0.12-5.728l0.977-5.998c0.326-1.999,0.393-3.909,0.199-5.731c-0.194-1.82-0.793-3.24-1.8-4.257
		c-1.006-1.017-2.22-1.576-3.642-1.68c-1.422-0.102-2.775,0.482-4.061,1.754c-1.092,1.08-1.68,2.258-1.763,3.532
		c-0.084,1.275,0.459,2.501,1.625,3.681c0.381,0.385,0.527,0.91,0.438,1.57c-0.09,0.662-0.439,1.292-1.045,1.891
		c-1.165,1.152-2.455,1.013-3.87-0.419c-1.872-1.892-2.669-4.164-2.388-6.818c0.279-2.652,1.438-4.987,3.476-7.003
		c2.158-2.136,4.665-3.278,7.519-3.426c2.853-0.148,5.341,0.849,7.461,2.993c1.438,1.454,2.378,3.218,2.824,5.293
		c0.445,2.076,0.528,4.125,0.25,6.149c-0.278,2.024-0.603,4-0.977,5.926c-0.374,1.928-0.572,3.692-0.594,5.295
		c-0.022,1.604,0.338,2.781,1.081,3.531l1.365,1.38l10.698-10.584c0.339-0.336,0.799-0.466,1.377-0.391
		c0.579,0.075,1.096,0.344,1.552,0.804c0.456,0.461,0.732,0.993,0.826,1.595c0.095,0.602-0.026,1.07-0.363,1.403l-12.864,12.727
		c-0.386,0.382-0.885,0.637-1.498,0.763C58.272,368.312,57.786,368.194,57.426,367.83z"/>
	<path style="fill:#DB9E36;" d="M69.83,342.449l-10.477-10.588c-2.76-2.79-4.049-5.572-3.864-8.346
		c0.183-2.774,1.513-5.385,3.987-7.833c2.475-2.449,5.106-3.756,7.894-3.921c2.788-0.166,5.562,1.146,8.322,3.935l10.477,10.588
		c2.76,2.79,4.042,5.578,3.846,8.364c-0.196,2.786-1.531,5.403-4.006,7.851c-2.475,2.449-5.1,3.75-7.875,3.903
		C75.357,346.556,72.591,345.239,69.83,342.449z M73.687,338.633c3.096,3.129,6.076,3.278,8.938,0.446
		c1.382-1.368,2.066-2.812,2.05-4.333c-0.016-1.52-0.804-3.068-2.364-4.645l-10.476-10.588c-1.56-1.577-3.1-2.38-4.62-2.413
		c-1.52-0.032-2.972,0.635-4.354,2.004c-2.862,2.832-2.746,5.813,0.35,8.942L73.687,338.633z"/>
</g>
<g>
</g>
<g>
</g>
<g>
</g>
<g>
</g>
<g>
</g>
<g>
</g>
<g>
</g>
<g>
</g>
<g>
</g>
<g>
</g>
<g>
</g>
<g>
</g>
<g>
</g>
<g>
</g>
<g>
</g>
</svg>
