<svg id="Capa_1" enable-background="new 0 0 512 512" height="512" viewBox="0 0 512 512" width="512" xmlns="http://www.w3.org/2000/svg"><g><g><g><g><g enable-background="new"><g><g><path d="m209.205 392.444c-1.358 0-2.734-.358-3.982-1.111l-42.348-25.533c-3.654-2.203-4.83-6.952-2.627-10.606 2.203-3.653 6.952-4.831 10.606-2.627l42.348 25.533c3.654 2.203 4.83 6.952 2.627 10.606-1.45 2.406-4.005 3.738-6.624 3.738z" fill="#fca62f"/></g></g><g><g><path d="m298.587 393.388c-2.756 0-5.422-1.478-6.815-4.076-2.017-3.761-.603-8.444 3.157-10.46l49.369-26.476c3.761-2.016 8.444-.603 10.46 3.157 2.017 3.761.603 8.444-3.157 10.46l-49.369 26.476c-1.163.623-2.413.919-3.645.919z" fill="#fca62f"/></g></g><g><g><path d="m348.391 160.996c-1.224 0-2.465-.291-3.621-.906l-49.817-26.49c-3.768-2.004-5.198-6.682-3.195-10.449 2.004-3.768 6.684-5.197 10.449-3.195l49.817 26.489c3.768 2.004 5.198 6.682 3.195 10.449-1.389 2.613-4.063 4.102-6.828 4.102z" fill="#fca62f"/></g><g><path d="m166.873 160.995c-2.608 0-5.152-1.319-6.607-3.71-2.219-3.645-1.063-8.398 2.582-10.617l45.015-27.404c3.644-2.22 8.398-1.063 10.617 2.582s1.063 8.398-2.582 10.617l-45.015 27.404c-1.255.765-2.642 1.128-4.01 1.128z" fill="#fca62f"/></g></g></g></g></g></g><g fill="#fca62f"><path d="m30.897 239.755c-2.608 0-5.152-1.32-6.607-3.71-2.219-3.645-1.063-8.398 2.582-10.617l46.821-28.504c3.646-2.22 8.399-1.062 10.617 2.582 2.219 3.645 1.063 8.398-2.582 10.617l-46.821 28.504c-1.255.764-2.641 1.128-4.01 1.128z"/><path d="m434.102 316.63c-2.608 0-5.152-1.319-6.607-3.71-2.219-3.645-1.063-8.398 2.582-10.617l57.752-35.157c3.645-2.219 8.398-1.063 10.617 2.582s1.063 8.398-2.582 10.617l-57.752 35.157c-1.255.764-2.642 1.128-4.01 1.128z"/><path d="m165.04 315.996c-2.685 0-5.294-1.402-6.719-3.901-2.113-3.707-.821-8.426 2.886-10.539l46.847-26.705c3.706-2.112 8.425-.821 10.539 2.886 2.113 3.707.821 8.426-2.886 10.539l-46.847 26.704c-1.208.688-2.522 1.016-3.82 1.016z"/><path d="m300.446 238.275c-2.685 0-5.293-1.401-6.718-3.9-2.114-3.706-.823-8.425 2.883-10.539l47.376-27.024c3.706-2.114 8.425-.823 10.539 2.883s.823 8.425-2.883 10.539l-47.376 27.024c-1.208.689-2.523 1.017-3.821 1.017z"/></g><g><path d="m126.486 175.87-.093 56.99-2.617 1.514c-1.597.927-3.564.927-5.161 0l-44.452-25.662c-1.597-.917-2.575-2.627-2.575-4.471l.155-54.023 49.613 28.639z" fill="#2944ae"/></g><g><path d="m170.65 150.219-.155 54.054c0 1.823-.979 3.513-2.565 4.44l-44.154 25.662c-.783.464-1.679.69-2.565.69l.154-56.207z" fill="#5169cd"/></g><g><path d="m170.65 150.219-.155 54.054c0 1.823-.979 3.513-2.565 4.44l-16.452 9.56v-56.918z" fill="#3351c5"/></g><g><path d="m74.339 145.688 44.064-25.607c1.617-.94 3.612-.942 5.232-.007l44.405 25.637c3.474 2.006 3.481 7.017.013 9.032l-44.064 25.607c-1.617.94-3.612.942-5.232.007l-44.405-25.637c-3.474-2.006-3.481-7.017-.013-9.032z" fill="#6d81d5"/></g><g><path d="m126.486 175.87-.093 56.99-2.617 1.514c-1.597.927-3.564.927-5.161 0l-44.452-25.662c-1.597-.917-2.575-2.627-2.575-4.471l.155-54.023 49.613 28.639z" fill="#2944ae"/></g><g><path d="m170.65 150.219-.155 54.054c0 1.823-.979 3.513-2.565 4.44l-44.154 25.662c-.783.464-1.679.69-2.565.69l.154-56.207z" fill="#5169cd"/></g><g><path d="m170.65 150.219-.155 54.054c0 1.823-.979 3.513-2.565 4.44l-16.452 9.56v-56.918z" fill="#3351c5"/></g><g><path d="m74.339 145.688 44.064-25.607c1.617-.94 3.612-.942 5.232-.007l44.405 25.637c3.474 2.006 3.481 7.017.013 9.032l-44.064 25.607c-1.617.94-3.612.942-5.232.007l-44.405-25.637c-3.474-2.006-3.481-7.017-.013-9.032z" fill="#6d81d5"/></g><g><path d="m260.292 99.303-.093 56.99-2.617 1.514c-1.597.927-3.564.927-5.161 0l-44.452-25.662c-1.597-.917-2.575-2.627-2.575-4.471l.155-54.023 49.613 28.639z" fill="#2944ae"/></g><g><path d="m304.456 73.652-.155 54.054c0 1.823-.979 3.513-2.565 4.44l-44.154 25.662c-.783.464-1.679.69-2.565.69l.154-56.207z" fill="#5169cd"/></g><g><path d="m304.456 73.652-.155 54.054c0 1.823-.979 3.513-2.565 4.44l-16.452 9.56v-56.918z" fill="#3351c5"/></g><g><path d="m208.146 69.121 44.064-25.607c1.617-.94 3.612-.942 5.232-.007l44.405 25.637c3.474 2.006 3.481 7.017.013 9.032l-44.064 25.607c-1.617.94-3.612.942-5.232.007l-44.405-25.637c-3.474-2.006-3.481-7.017-.013-9.032z" fill="#6d81d5"/></g><g><path d="m396.232 176.671-.093 56.99-2.617 1.514c-1.597.927-3.564.927-5.161 0l-44.452-25.662c-1.597-.917-2.575-2.627-2.575-4.471l.155-54.023 49.613 28.639z" fill="#2944ae"/></g><g><path d="m440.396 151.019-.155 54.054c0 1.823-.979 3.513-2.565 4.44l-44.154 25.662c-.783.464-1.679.69-2.565.69l.154-56.207z" fill="#5169cd"/></g><g><path d="m440.396 151.019-.155 54.054c0 1.823-.979 3.513-2.565 4.44l-16.452 9.56v-56.918z" fill="#3351c5"/></g><g><path d="m344.086 146.488 44.064-25.607c1.617-.94 3.612-.942 5.232-.007l44.405 25.637c3.474 2.006 3.481 7.017.013 9.032l-44.064 25.607c-1.617.94-3.612.942-5.232.007l-44.405-25.637c-3.474-2.005-3.481-7.017-.013-9.032z" fill="#6d81d5"/></g><g><path d="m261.364 255.126-.093 56.99-2.617 1.514c-1.597.927-3.564.927-5.161 0l-44.452-25.662c-1.597-.917-2.575-2.627-2.575-4.471l.155-54.023 49.613 28.639z" fill="#2944ae"/></g><g><path d="m305.528 229.474-.155 54.054c0 1.823-.979 3.513-2.565 4.44l-44.154 25.662c-.783.464-1.679.69-2.565.69l.155-56.207z" fill="#5169cd"/></g><g><path d="m305.528 229.474-.155 54.054c0 1.823-.979 3.513-2.565 4.44l-16.452 9.56v-56.917z" fill="#3351c5"/></g><g><path d="m209.217 224.943 44.064-25.607c1.617-.94 3.612-.942 5.232-.007l44.405 25.637c3.474 2.006 3.481 7.017.013 9.032l-44.064 25.607c-1.617.94-3.612.942-5.232.007l-44.405-25.637c-3.473-2.005-3.481-7.016-.013-9.032z" fill="#6d81d5"/></g><g><path d="m126.486 331.362-.093 56.99-2.617 1.514c-1.597.927-3.564.927-5.161 0l-44.452-25.662c-1.597-.917-2.575-2.627-2.575-4.471l.155-54.023 49.613 28.639z" fill="#2944ae"/></g><g><path d="m170.65 305.711-.155 54.054c0 1.823-.979 3.513-2.565 4.44l-44.154 25.662c-.783.464-1.679.69-2.565.69l.154-56.207z" fill="#5169cd"/></g><g><path d="m170.65 305.711-.155 54.054c0 1.823-.979 3.513-2.565 4.44l-16.452 9.56v-56.918z" fill="#3351c5"/></g><g><path d="m74.339 301.18 44.064-25.607c1.617-.94 3.612-.942 5.232-.007l44.405 25.637c3.474 2.005 3.481 7.017.013 9.032l-44.064 25.607c-1.617.94-3.612.942-5.232.007l-44.405-25.637c-3.474-2.006-3.481-7.017-.013-9.032z" fill="#6d81d5"/></g><g><path d="m260.292 409.994-.093 56.99-2.617 1.514c-1.597.927-3.564.927-5.161 0l-44.452-25.662c-1.597-.917-2.575-2.627-2.575-4.471l.155-54.023 49.613 28.639z" fill="#2944ae"/></g><g><path d="m304.456 384.342-.155 54.054c0 1.823-.979 3.513-2.565 4.44l-44.154 25.662c-.783.464-1.679.69-2.565.69l.154-56.207z" fill="#5169cd"/></g><g><path d="m304.456 384.342-.155 54.054c0 1.823-.979 3.513-2.565 4.44l-16.452 9.56v-56.918z" fill="#3351c5"/></g><g><path d="m208.146 379.811 44.064-25.607c1.617-.94 3.612-.942 5.232-.007l44.405 25.638c3.474 2.005 3.481 7.017.013 9.032l-44.064 25.607c-1.617.94-3.612.942-5.232.007l-44.405-25.637c-3.474-2.006-3.481-7.017-.013-9.033z" fill="#6d81d5"/></g><g><path d="m396.232 332.551-.093 56.99-2.617 1.514c-1.597.927-3.564.927-5.161 0l-44.452-25.662c-1.597-.917-2.575-2.627-2.575-4.471l.155-54.023 49.613 28.639z" fill="#2944ae"/></g><g><path d="m440.396 306.9-.155 54.054c0 1.823-.979 3.513-2.565 4.44l-44.154 25.662c-.783.464-1.679.69-2.565.69l.154-56.207z" fill="#5169cd"/></g><g><path d="m440.396 306.9-.155 54.054c0 1.823-.979 3.513-2.565 4.44l-16.452 9.56v-56.918z" fill="#3351c5"/></g><g><path d="m344.086 302.369 44.064-25.607c1.617-.94 3.612-.942 5.232-.007l44.405 25.638c3.474 2.005 3.481 7.017.013 9.032l-44.064 25.607c-1.617.94-3.612.942-5.232.007l-44.405-25.637c-3.474-2.007-3.481-7.018-.013-9.033z" fill="#6d81d5"/></g><circle cx="20.155" cy="238.563" fill="#72f4c3" r="20.155"/><path d="m40.311 238.567c0 11.126-9.024 20.15-20.161 20.15-4.832 0-9.272-1.7-12.743-4.553 8.035-.659 14.34-7.397 14.34-15.597 0-8.211-6.305-14.948-14.34-15.607 3.472-2.854 7.912-4.553 12.743-4.553 11.137 0 20.161 9.024 20.161 20.16z" fill="#27e19d"/><circle cx="491.845" cy="273.745" fill="#72f4c3" r="20.155"/><path d="m512 273.748c0 11.126-9.024 20.15-20.15 20.15-4.337 0-8.365-1.37-11.662-3.719 7.788-1.422 13.681-8.241 13.681-16.431 0-8.2-5.903-15.02-13.691-16.431 3.297-2.349 7.325-3.729 11.672-3.729 11.126-.001 20.15 9.024 20.15 20.16z" fill="#27e19d"/></g></svg>