<svg xmlns="http://www.w3.org/2000/svg" xml:space="preserve" viewBox="0 0 512.069 512.069"><path d="M448.069 192.037c-11.093 0-21.333-3.563-21.333-29.333v-24C424.046 60.94 359.925-.541 282.117.037H132.784C58.562.93-.882 61.823.011 136.044q.016 1.33.058 2.659V373.37c-2.362 74.189 55.866 136.247 130.056 138.608q1.33.042 2.659.058H355.44c89.301 0 156.629-62.485 156.629-145.323V256.037c0-47.851-16.149-64-64-64m-288-64h106.667c17.673 0 32 14.327 32 32s-14.327 32-32 32H160.069c-17.673 0-32-14.327-32-32s14.327-32 32-32m192 256h-192c-17.673 0-32-14.327-32-32s14.327-32 32-32h192c17.673 0 32 14.327 32 32s-14.327 32-32 32" style="fill:#ffc107"/></svg>