<svg id="Capa_1" enable-background="new 0 0 512 512" height="512" viewBox="0 0 512 512" width="512"
     xmlns="http://www.w3.org/2000/svg">
    <g>
        <g>
            <path d="m286 444 223-48v-300l-233 40-3 133z" fill="#9c6750"/>
            <path d="m3 411 224 33 19-181-10-125-233-33z" fill="#9c6750"/>
            <path d="m227 444h59l-10-308-40 2z" fill="#844f3e"/>
        </g>
        <g fill="#f3d544">
            <path d="m484 406 28-7v-33l-8 1-3 20-17 7z"/>
            <path d="m489 96 23-4v29l-7-1-1-16-13-2z"/>
            <path d="m0 129v-28l26 4-2 8-15 1-3 14z"/>
        </g>
        <g>
            <path d="m256 159-226-103-7 337 239 43z" fill="#e7e2d5"/>
            <path d="m256 159 221-107 12 328-227 56z" fill="#e7e2d5"/>
            <path d="m50 356 33-328 173 131 6 277z" fill="#f4efe3"/>
            <path d="m147 0 109 159 6 277-176-121z" fill="#fdf9f2"/>
            <path d="m256 159 167-130 35 315-196 92z" fill="#f4efe3"/>
            <path d="m256 159 104-159 60 311-158 125z" fill="#fdf9f2"/>
            <path d="m252 151h8l6 361h-20z" fill="#d68034"/>
            <g fill="#e7e2d5">
                <g>
                    <path d="m156 56 82 100-3 87-98-92z"/>
                    <path d="m131 172 102 85-2 13-103-88z"/>
                    <path d="m125 203 92 69-2 10-93-70z"/>
                    <path d="m120 228 106 73-2 12-106-75z"/>
                    <path d="m115 254 115 76v16l-118-82z"/>
                    <path d="m107 282 105 66-4 14-103-69z"/>
                </g>
                <g>
                    <path d="m271 162 81-116 3 12-82 118z"/>
                    <path d="m274 189 86-113 3 14-87.653 108.426z"/>
                    <path d="m279 218 84-92 3 14-87 92z"/>
                    <path d="m279 246 82-81 2 14-84 79z"/>
                    <path d="m386 320 17-14-7-18-13 10z"/>
                </g>
            </g>
        </g>
        <path d="m34 420-34-6v-42l11 3 2 21 20 13z" fill="#f3d544"/>
    </g>
</svg>