<!--
  - Copyright (c) 2023. Selldone® Business OS™
  -
  - Author: M.Pajuhaan
  - Web: https://selldone.com
  - ━━━━━━━━━━━━━━━━━━━━━━━━━━━━━━━━━━━━━━━━━━━━━━━━━━━━━━
  -
  - All rights reserved. In the weave of time, where traditions and innovations intermingle, this content was crafted.
  - From the essence of thought, through the corridors of creativity, each word, and sentiment has been molded.
  - Not just to exist, but to inspire. Like an artist's stroke or a sculptor's chisel, every nuance is deliberate.
  - Our journey is not just about reaching a destination, but about creating a masterpiece.
  - Tread carefully, for you're treading on dreams.
  -->

<svg enable-background="new 0 0 32 32" height="512" viewBox="0 0 32 32" width="512" xmlns="http://www.w3.org/2000/svg"><g id="bot"><path d="m29 17.0921021v-8.5921021c0-.2763672-.2236328-.5-.5-.5s-.5.2236328-.5.5v8.5921021c-.2049561.0731201-.390686.1854248-.5437012.3341064-1.5244751-4.8770752-6.0832519-8.4262085-11.4562988-8.4262085-5.3726807 0-9.9317017 3.5491943-11.4562378 8.4262695-.1530151-.1487426-.3388061-.2610473-.5437622-.3341674v-8.5921021c0-.2763672-.2236328-.5-.5-.5s-.5.2236328-.5.5v8.5921021c-.5807495.2070922-1 .7568969-1 1.4078979v4c0 .8271484.6728516 1.5 1.5 1.5.4707642 0 .8863525-.2223511 1.1615601-.5626221.8584594 1.5211182 2.4708862 2.5626221 4.3384399 2.5626221h14c1.8675537 0 3.4799805-1.0415039 4.3384399-2.5626221.2752076.340271.6907959.5626221 1.1615601.5626221.8271484 0 1.5-.6728516 1.5-1.5v-4c0-.651001-.4192505-1.2008057-1-1.4078979z" fill="#42a5f5"/><path d="m20.5 15h-9c-1.9296875 0-3.5 1.5703125-3.5 3.5s1.5703125 3.5 3.5 3.5h9c1.9296875 0 3.5-1.5703125 3.5-3.5s-1.5703125-3.5-3.5-3.5z" fill="#f1f2f2"/><circle cx="12.5" cy="18.5" fill="#1e88e5" r="1.5"/><circle cx="19.5" cy="18.5" fill="#1e88e5" r="1.5"/><g fill="#f1f2f2"><circle cx="3.5" cy="7.5" r="1.5"/><circle cx="28.5" cy="7.5" r="1.5"/></g></g></svg>