<?xml version="1.0" encoding="iso-8859-1"?>
<!--
  - Copyright (c) 2023. Selldone® Business OS?
  -
  - Author: M.Pajuhaan
  - Web: https://selldone.com
  - ??????????????????????????????????????????????????????
  -
  - All rights reserved. In the weave of time, where traditions and innovations intermingle, this content was crafted.
  - From the essence of thought, through the corridors of creativity, each word, and sentiment has been molded.
  - Not just to exist, but to inspire. Like an artist's stroke or a sculptor's chisel, every nuance is deliberate.
  - Our journey is not just about reaching a destination, but about creating a masterpiece.
  - Tread carefully, for you're treading on dreams.
  -->

<!-- Generator: Adobe Illustrator 19.0.0, SVG Export Plug-In . SVG Version: 6.00 Build 0)  -->
<svg version="1.1" id="Layer_1" xmlns="http://www.w3.org/2000/svg" xmlns:xlink="http://www.w3.org/1999/xlink" x="0px" y="0px"
	 viewBox="0 0 512 512" style="enable-background:new 0 0 512 512;" xml:space="preserve">
<path style="fill:#BC8E50;" d="M489.739,222.609v244.87H372.87H139.13H22.261v-244.87c0-6.147,4.983-11.13,11.13-11.13H139.13V11.13
	c0-6.147,4.983-11.13,11.13-11.13h72.891c6.063,0,10.89,5.075,10.587,11.13l0,0h44.522l-0.007-0.265
	C278.105,4.91,282.893,0,288.851,0h72.888c6.147,0,11.13,4.983,11.13,11.13v200.348h105.739
	C484.756,211.478,489.739,216.461,489.739,222.609z"/>
<path style="fill:#996633;" d="M372.87,11.13v211.478h-33.391V0h22.261C367.886,0,372.87,4.983,372.87,11.13z M222.609,434.087
	h44.522V211.478h-44.522V434.087z"/>
<path style="fill:#D9B166;" d="M489.739,222.609v233.739H256v-244.87h222.609C484.756,211.478,489.739,216.461,489.739,222.609z"/>
<path style="fill:#BC8E50;" d="M489.739,445.217h-33.391V211.478h22.261c6.147,0,11.13,4.983,11.13,11.13V445.217z"/>
<path style="fill:#FFE473;" d="M512,445.217v33.391c0,12.295-9.966,22.261-22.261,22.261H22.261C9.966,500.87,0,490.903,0,478.609
	v-33.391c0-12.295,9.966-22.261,22.261-22.261h467.478C502.034,422.957,512,432.923,512,445.217z"/>
<path style="fill:#FFD34E;" d="M222.609,0h66.783v66.783l-66.783-22.261V0z M105.739,256l66.783,22.261v-66.783h-66.783V256z
	 M339.478,211.478V256l66.783,22.261v-66.783H339.478z"/>
<path style="fill:#4C3623;" d="M342.261,178.087c0,4.61-3.738,8.348-8.348,8.348h-33.391c-4.61,0-8.348-3.738-8.348-8.348
	c0-4.61,3.738-8.348,8.348-8.348h33.391C338.523,169.739,342.261,173.477,342.261,178.087z M217.043,381.217h-33.391
	c-4.61,0-8.348,3.738-8.348,8.348c0,4.61,3.738,8.348,8.348,8.348h33.391c4.61,0,8.348-3.738,8.348-8.348
	C225.391,384.955,221.654,381.217,217.043,381.217z M450.783,381.217h-33.391c-4.61,0-8.348,3.738-8.348,8.348
	c0,4.61,3.738,8.348,8.348,8.348h33.391c4.61,0,8.348-3.738,8.348-8.348C459.13,384.955,455.393,381.217,450.783,381.217z"/>
<path style="fill:#D9B166;" d="M512,467.478v11.13c0,12.295-9.966,22.261-22.261,22.261H22.261C9.966,500.87,0,490.903,0,478.609
	v-11.13H512z"/>
<path style="fill:#996633;" d="M144.696,478.609v22.261c0,6.147-4.983,11.13-11.13,11.13H66.783c-6.147,0-11.13-4.983-11.13-11.13
	v-22.261c0-6.147,4.983-11.13,11.13-11.13h66.783C139.713,467.478,144.696,472.461,144.696,478.609z M445.217,467.478h-66.783
	c-6.147,0-11.13,4.983-11.13,11.13v22.261c0,6.147,4.983,11.13,11.13,11.13h66.783c6.147,0,11.13-4.983,11.13-11.13v-22.261
	C456.348,472.461,451.365,467.478,445.217,467.478z"/>
<path style="fill:#BC8E50;" d="M456.348,478.609v8.534h-89.043v-8.534c0-6.147,4.983-11.13,11.13-11.13h66.783
	C451.365,467.478,456.348,472.461,456.348,478.609z M133.565,467.478H66.783c-6.147,0-11.13,4.983-11.13,11.13v8.534h89.043v-8.534
	C144.696,472.461,139.713,467.478,133.565,467.478z"/>
<g>
</g>
<g>
</g>
<g>
</g>
<g>
</g>
<g>
</g>
<g>
</g>
<g>
</g>
<g>
</g>
<g>
</g>
<g>
</g>
<g>
</g>
<g>
</g>
<g>
</g>
<g>
</g>
<g>
</g>
</svg>
