

<svg height="512" viewBox="0 0 64 64" width="512" xmlns="http://www.w3.org/2000/svg"><g id="Flat"><g id="Color_copy" data-name="Color copy"><g><path d="m22 61h-2a5.006 5.006 0 0 1 -5-5 1 1 0 0 1 2 0 3 3 0 0 0 3 3h2a3 3 0 0 0 3-3 5.006 5.006 0 0 1 5-5h1a1 1 0 0 1 0 2h-1a3 3 0 0 0 -3 3 5.006 5.006 0 0 1 -5 5z" fill="#f9e109"/><path d="m50 53h-3a1 1 0 0 1 0-2h3a3 3 0 0 0 3-3v-9a1 1 0 0 1 2 0v9a5.006 5.006 0 0 1 -5 5z" fill="#f9e109"/><path d="m44.653 54h2.347v-4h-2.347a6 6 0 0 0 -1.095-1.894l1.174-2.034-3.464-2-1.174 2.034a5.961 5.961 0 0 0 -2.188 0l-1.174-2.033-3.464 2 1.173 2.027a5.814 5.814 0 0 0 -1.094 1.9h-2.347v4h2.347a6 6 0 0 0 1.095 1.894l-1.174 2.034 3.464 2 1.174-2.034a5.961 5.961 0 0 0 2.188 0l1.174 2.033 3.464-2-1.173-2.027a5.814 5.814 0 0 0 1.094-1.9zm-3.921-1a2 2 0 1 1 -.732-2.732 2 2 0 0 1 .732 2.732z" fill="#aae1f9"/><path d="m43.8 55.555a11.912 11.912 0 0 1 -3.809-1.828 1.994 1.994 0 0 1 -2.723-2.727 11.9 11.9 0 0 1 -2.215-5.96l-1.785 1.031 1.173 2.029a5.814 5.814 0 0 0 -1.094 1.9h-2.347v4h2.347a6 6 0 0 0 1.095 1.894l-1.174 2.034 3.464 2 1.174-2.034a5.961 5.961 0 0 0 2.188 0l1.174 2.033 3.464-2-1.173-2.027c.089-.109.159-.234.241-.345z" fill="#57b7eb"/><g><path d="m11 51h10a0 0 0 0 1 0 0v1a5 5 0 0 1 -5 5 5 5 0 0 1 -5-5v-1a0 0 0 0 1 0 0z" fill="#93999a"/><path d="m19 53h1.9a4.988 4.988 0 0 0 .1-1v-1h-10v1a4.99 4.99 0 0 0 3.206 4.654 4.986 4.986 0 0 1 4.794-3.654z" fill="#656b76"/><path d="m24 39a8 8 0 1 0 -13 6.24v1.76h10v-1.76a7.984 7.984 0 0 0 3-6.24z" fill="#fcbc04"/><rect fill="#d0d8da" height="4" rx="2" width="14" x="9" y="47"/><path d="m13 36a8.948 8.948 0 0 1 1.422-4.843 8 8 0 0 0 -3.422 14.083v1.76h10v-1.76c.107-.086.2-.184.306-.275a8.995 8.995 0 0 1 -8.306-8.965z" fill="#e59730"/><path d="m11 47a2 2 0 0 0 0 4h10a2 2 0 0 0 2-2h-10a2 2 0 0 1 -2-2z" fill="#93999a"/><g fill="#f9e109"><circle cx="4" cy="39" r="1"/><circle cx="28" cy="39" r="1"/><circle cx="16" cy="27" r="1"/><circle cx="5.608" cy="33" r="1"/><circle cx="26.392" cy="45" r="1"/><circle cx="22" cy="28.608" r="1"/><circle cx="26.392" cy="33" r="1"/><circle cx="5.608" cy="45" r="1"/><circle cx="10" cy="28.608" r="1"/><path d="m14.984 47a1.022 1.022 0 0 0 .01-.11l-.828-7.447 1.518.506a1 1 0 0 0 .632 0l1.518-.506-.828 7.447a1.022 1.022 0 0 0 .01.11h1.99l.988-8.89a1 1 0 0 0 -1.31-1.059l-2.684.895-2.684-.895a1 1 0 0 0 -1.31 1.059l.988 8.89z"/></g></g><path d="m47 31v5a3 3 0 0 0 3 3 1.281 1.281 0 0 1 1.243.97l.438 1.754a1.684 1.684 0 0 0 1.634 1.276 1.684 1.684 0 0 0 1.685-1.685v-10.315z" fill="#e59730"/><path d="m61 21a6 6 0 0 0 -4.017-5.658c.005-.114.017-.226.017-.342a7 7 0 0 0 -7-7c-.186 0-.369.014-.551.028a10.481 10.481 0 0 0 -18.462 1.05 6.939 6.939 0 0 0 -7.957 6.328 4.993 4.993 0 1 0 5.047 8.508 5.984 5.984 0 0 0 9.072 4.186 4.938 4.938 0 0 0 4.906.448 4.983 4.983 0 0 0 4.945 4.452c.061 0 .118-.016.178-.018a2.982 2.982 0 0 0 5.644 0c.06 0 .117.018.178.018a5 5 0 0 0 5-5 4.947 4.947 0 0 0 -.3-1.647 6 6 0 0 0 3.3-5.353z" fill="#f9e109"/><path d="m56 28c-.061 0-.118-.016-.178-.018a2.982 2.982 0 0 1 -5.644 0c-.06 0-.117.018-.178.018a4.983 4.983 0 0 1 -4.945-4.452 4.881 4.881 0 0 1 -4.5-.209 9.985 9.985 0 0 1 -12.334-14.1 7 7 0 0 0 -5.187 6.17 4.993 4.993 0 1 0 5.047 8.508 5.984 5.984 0 0 0 9.068 4.183 4.938 4.938 0 0 0 4.906.448 4.983 4.983 0 0 0 4.945 4.452c.061 0 .118-.016.178-.018a2.982 2.982 0 0 0 5.644 0c.06 0 .117.018.178.018a5 5 0 0 0 5-5c0-.137-.026-.267-.039-.4a4.984 4.984 0 0 1 -1.961.4z" fill="#fcbc04"/><path d="m36 18a3 3 0 0 1 3 3 3.96 3.96 0 0 1 3.929 4.707 3.983 3.983 0 0 0 -2.084-6.614 2.975 2.975 0 0 0 -5.087-1.069c.082-.006.159-.024.242-.024z" fill="#fcbc04"/><path d="m34.273 8.406a7.033 7.033 0 0 0 -2.614-1.87 10.544 10.544 0 0 0 -1.672 2.542 6.988 6.988 0 0 1 4.29 2.329 3.974 3.974 0 0 1 1.723-.407h.021a4.983 4.983 0 0 1 2.791-1.844 3.951 3.951 0 0 0 -4.539-.752z" fill="#fcbc04"/><path d="m40 9a5 5 0 0 1 5 5 5 5 0 0 1 -.071.707 3.988 3.988 0 0 0 -5.636-5.636 5 5 0 0 1 .707-.071z" fill="#fcbc04"/><g fill="#e59730"><path d="m33 26a3 3 0 0 1 -3-3 1 1 0 0 1 2 0 1 1 0 0 0 1 1 1 1 0 0 1 0 2z"/><path d="m26 17a1 1 0 0 1 -1-1 4 4 0 0 1 4-4 1 1 0 0 1 0 2 2 2 0 0 0 -2 2 1 1 0 0 1 -1 1z"/><path d="m24 22a2 2 0 0 1 -2-2 1 1 0 0 1 2 0 1 1 0 0 1 0 2z"/><path d="m45 14.5a1 1 0 0 1 -1-1 3.5 3.5 0 0 0 -3.5-3.5 1 1 0 0 1 0-2 5.506 5.506 0 0 1 5.5 5.5 1 1 0 0 1 -1 1z"/><path d="m32 16a1 1 0 0 1 -1-1 5.006 5.006 0 0 1 5-5 1 1 0 0 1 0 2 3 3 0 0 0 -3 3 1 1 0 0 1 -1 1z"/><path d="m41.121 15.879a1 1 0 0 1 -.707-.293 2.047 2.047 0 0 0 -2.828 0 1 1 0 1 1 -1.414-1.414 4.093 4.093 0 0 1 5.656 0 1 1 0 0 1 -.707 1.707z"/><path d="m55 24a3 3 0 0 1 -3-3 1 1 0 0 1 2 0 1 1 0 0 0 1 1 1 1 0 0 1 0 2z"/><path d="m45 20a1 1 0 0 1 0-2 2 2 0 0 0 2-2 1 1 0 0 1 2 0 4 4 0 0 1 -4 4z"/><path d="m53 16a1 1 0 0 1 -1-1 2 2 0 0 0 -2-2 1 1 0 0 1 0-2 4 4 0 0 1 4 4 1 1 0 0 1 -1 1z"/><path d="m48 31a3 3 0 0 1 -3-3 1 1 0 0 1 2 0 1 1 0 0 0 1 1 1 1 0 0 1 0 2z"/><circle cx="37" cy="7" r="1"/><circle cx="39" cy="25" r="1"/><circle cx="47" cy="22" r="1"/><circle cx="31" cy="19" r="1"/><path d="m60.192 23.983a.974.974 0 0 0 -.243-.447 1 1 0 0 0 -1.414 0 5 5 0 0 1 -7.07 0 1 1 0 0 0 -1.414 1.414 7.005 7.005 0 0 0 7.675 1.5c-.01-.031-.015-.065-.026-.1a6.03 6.03 0 0 0 2.492-2.367z"/><path d="m44 25a5.008 5.008 0 0 0 -4.023-4.9 3.505 3.505 0 0 0 -3.477-3.1 1 1 0 0 0 0 2 1.5 1.5 0 0 1 1.5 1.5v.5a1 1 0 0 0 1 1 3 3 0 0 1 0 6 .99.99 0 0 0 -.978.891 4.744 4.744 0 0 0 3.033-.343 5.018 5.018 0 0 0 .184.9 4.988 4.988 0 0 0 2.761-4.448z"/></g></g></g></g></svg>