<svg height="512pt" viewBox="0 -42 512.001 512" width="512pt" xmlns="http://www.w3.org/2000/svg" xmlns:xlink="http://www.w3.org/1999/xlink"><linearGradient id="a"><stop offset="0" stop-color="#445ea0"/><stop offset=".3216" stop-color="#415a9b"/><stop offset=".6926" stop-color="#364d8d"/><stop offset="1" stop-color="#2a3d7c"/></linearGradient><linearGradient id="b" gradientUnits="userSpaceOnUse" x1="203.262581457" x2="353.6788092262" xlink:href="#a" y1="100.6367461144" y2="500.0187028218"/><linearGradient id="c"><stop offset="0" stop-color="#2a3d7c" stop-opacity="0"/><stop offset=".3949" stop-color="#273a77" stop-opacity=".396078"/><stop offset=".8504" stop-color="#1e3069" stop-opacity=".85098"/><stop offset="1" stop-color="#1a2b63"/></linearGradient><linearGradient id="d" gradientUnits="userSpaceOnUse" x1="258.591734643" x2="258.591734643" xlink:href="#c" y1="429.889831904" y2="259.8163094138"/><linearGradient id="e" gradientUnits="userSpaceOnUse" x1="532.0956262818" x2="450.7821607542" xlink:href="#c" y1="243.4023854982" y2="241.8965024982"/><linearGradient id="f" gradientUnits="userSpaceOnUse" x1="141.4131556654" x2="344.8046407072" y1="38.8498646634" y2="38.8498646634"><stop offset="0" stop-color="#ff4974"/><stop offset=".3262" stop-color="#fe4672"/><stop offset=".5324" stop-color="#fb3e6c"/><stop offset=".7054" stop-color="#f52f60"/><stop offset=".8591" stop-color="#ee1a51"/><stop offset="1" stop-color="#e4003d"/></linearGradient><linearGradient id="g"><stop offset="0" stop-color="#ffd00d"/><stop offset=".2378" stop-color="#ffcb0e"/><stop offset=".5353" stop-color="#fb1"/><stop offset=".8632" stop-color="#ffa215"/><stop offset="1" stop-color="#ff9517"/></linearGradient><linearGradient id="h" gradientUnits="userSpaceOnUse" x1="240.682770085" x2="240.682770085" xlink:href="#g" y1="4.588315824" y2="52.7689420168"/><linearGradient id="i" gradientUnits="userSpaceOnUse" x1="204.916542952" x2="308.0798688486" xlink:href="#a" y1="63.7496400684" y2="337.6666456102"/><linearGradient id="j" gradientUnits="userSpaceOnUse" x1="439.5127347354" x2="331.1738897522" xlink:href="#c" y1="354.7439611834" y2="246.405015808"/><linearGradient id="k" gradientUnits="userSpaceOnUse" x1="189.6019136264" x2="81.262968251" xlink:href="#c" y1="354.7439611834" y2="246.405015808"/><linearGradient id="l" gradientUnits="userSpaceOnUse" x1="342.7493111966" x2="361.0327386606" xlink:href="#g" y1="247.0639902088" y2="295.6098432252"/><linearGradient id="m" gradientUnits="userSpaceOnUse" x1="358.8069431944" x2="358.8069431944" xlink:href="#g" y1="235.8737736358" y2="272.6797627842"/><linearGradient id="n"><stop offset="0" stop-color="#ff9517" stop-opacity="0"/><stop offset=".3074" stop-color="#ee8421" stop-opacity=".305882"/><stop offset=".6784" stop-color="#e07728" stop-opacity=".678431"/><stop offset="1" stop-color="#db722b"/></linearGradient><linearGradient id="o" gradientUnits="userSpaceOnUse" x1="363.1816337016" x2="313.5934084726" xlink:href="#n" y1="278.670064966" y2="251.7076314198"/><linearGradient id="p" gradientUnits="userSpaceOnUse" x1="334.2579381362" x2="349.5304027378" xlink:href="#g" y1="254.4673126056" y2="272.3792889296"/><linearGradient id="q" gradientUnits="userSpaceOnUse" x1="92.8383896954" x2="111.1218171594" xlink:href="#g" y1="247.0639902088" y2="295.6098432252"/><linearGradient id="r" gradientUnits="userSpaceOnUse" x1="108.8960216932" x2="108.8960216932" xlink:href="#g" y1="235.8737736358" y2="272.6797627842"/><linearGradient id="s" gradientUnits="userSpaceOnUse" x1="113.2707122004" x2="63.6825873636" xlink:href="#n" y1="278.670064966" y2="251.7076314198"/><linearGradient id="t" gradientUnits="userSpaceOnUse" x1="84.347016635" x2="99.6194812366" xlink:href="#g" y1="254.4673126056" y2="272.3792889296"/><linearGradient id="u" gradientUnits="userSpaceOnUse" x1="258.591734643" x2="258.591734643" xlink:href="#c" y1="383.8840019398" y2="432.2052776048"/><path d="m499.851562 427.625h-482.519531c-6.710937 0-12.148437-5.4375-12.148437-12.148438v-300.964843c0-32.003907 25.945312-57.949219 57.945312-57.949219h423.382813c14.078125 0 25.488281 11.414062 25.488281 25.488281v333.425781c0 6.710938-5.4375 12.148438-12.148438 12.148438zm0 0" fill="url(#b)"/><path d="m486.511719 56.5625h-423.382813c-32.003906 0-57.945312 25.945312-57.945312 57.949219v157.5625l155.550781 155.550781h339.117187c6.710938 0 12.148438-5.4375 12.148438-12.148438v-333.425781c0-14.074219-11.410156-25.488281-25.488281-25.488281zm0 0" fill="url(#d)"/><path d="m486.351562 56.5625h-49.851562c6.710938 0 12.148438 5.441406 12.148438 12.152344v346.761718c0 6.710938-5.4375 12.148438-12.148438 12.148438h63.351562c6.710938 0 12.148438-5.4375 12.148438-12.148438v-333.261718c0-14.167969-11.484375-25.652344-25.648438-25.652344zm0 0" fill="url(#e)"/><path d="m344.804688 67.121094h-18.195313v-8.09375c0-8.953125-5.683594-16.894532-14.144531-19.773438-20.175782-6.855468-44.15625-10.480468-69.355469-10.480468s-49.179687 3.625-69.355469 10.480468c-8.460937 2.878906-14.144531 10.820313-14.144531 19.773438v8.09375h-18.195313v-8.09375c0-16.746094 10.640626-31.617188 26.484376-37 22.035156-7.492188 48.046874-11.453125 75.210937-11.453125 27.167969 0 53.175781 3.960937 75.214844 11.453125 15.839843 5.382812 26.480469 20.253906 26.480469 37zm0 0" fill="url(#f)"/><path d="m296.738281 45.871094c-37.605469-8.160156-74.5-8.160156-112.109375 0-7.011718 1.523437-14.003906-2.625-16.007812-9.515625-1.15625-3.992188-2.316406-7.980469-3.476563-11.972657-2.191406-7.546874 2.421875-15.429687 10.101563-17.125 43.851562-9.675781 87.023437-9.675781 130.875 0 7.675781 1.695313 12.292968 9.578126 10.097656 17.125-1.15625 3.992188-2.316406 7.984376-3.476562 11.972657-2 6.886719-8.996094 11.039062-16.003907 9.515625zm0 0" fill="url(#h)"/><path d="m444.167969 274.238281h-431.769531c-6.847657 0-12.398438-5.550781-12.398438-12.394531v-155.890625c0-27.277344 22.113281-49.390625 49.390625-49.390625h433.195313c-14.371094 0-26.019532 11.652344-26.019532 26.019531v179.257813c0 6.847656-5.550781 12.398437-12.398437 12.398437zm0 0" fill="url(#i)"/><path d="m374.023438 243.382812c-1.007813-1.460937-2.6875-2.417968-4.589844-2.417968h-42.015625c-3.078125 0-5.578125 2.496094-5.578125 5.578125v28.761719c0 5.5625 2.429687 10.546874 6.265625 13.992187l71.351562 71.355469c3.445313 3.835937 8.429688 6.261718 13.996094 6.261718h15.503906c10.402344 0 18.832031-8.429687 18.832031-18.832031v-28.757812c0-1.90625-.957031-3.582031-2.414062-4.589844zm0 0" fill="url(#j)"/><path d="m124.109375 243.382812c-1.003906-1.460937-2.683594-2.417968-4.589844-2.417968h-42.011719c-3.082031 0-5.578124 2.496094-5.578124 5.578125v28.761719c0 5.5625 2.425781 10.546874 6.261718 13.992187l71.355469 71.355469c3.445313 3.835937 8.429687 6.261718 13.992187 6.261718h15.507813c10.402344 0 18.832031-8.429687 18.832031-18.832031v-28.757812c0-1.90625-.957031-3.582031-2.414062-4.589844zm0 0" fill="url(#k)"/><path d="m356.179688 294.136719h-15.507813c-10.402344 0-18.832031-8.433594-18.832031-18.832031v-28.761719c0-3.078125 2.5-5.578125 5.578125-5.578125h42.011719c3.082031 0 5.582031 2.5 5.582031 5.578125v28.761719c0 10.398437-8.433594 18.832031-18.832031 18.832031zm0 0" fill="url(#l)"/><path d="m369.429688 240.964844h-13.574219c3.082031 0 5.578125 2.496094 5.578125 5.578125v28.761719c0 10.398437-8.429688 18.828124-18.832032 18.828124h13.578126c10.398437 0 18.832031-8.429687 18.832031-18.828124v-28.761719c0-3.082031-2.5-5.578125-5.582031-5.578125zm0 0" fill="url(#m)"/><path d="m356.179688 294.136719c10.3125 0 18.679687-8.296875 18.816406-18.578125l-25.484375-25.488282c-.851563-1.058593-2.144531-1.753906-3.613281-1.753906h-9.652344c-2.566406 0-4.648438 2.082032-4.648438 4.648438v18.988281c0 1.46875.691406 2.757813 1.753906 3.609375l18.570313 18.574219zm0 0" fill="url(#o)"/><path d="m345.898438 276.601562h-9.652344c-2.566406 0-4.648438-2.082031-4.648438-4.648437v-18.988281c0-2.566406 2.078125-4.648438 4.648438-4.648438h9.652344c2.566406 0 4.648437 2.082032 4.648437 4.648438v18.988281c0 2.566406-2.082031 4.648437-4.648437 4.648437zm0 0" fill="url(#p)"/><path d="m106.269531 294.136719h-15.507812c-10.402344 0-18.832031-8.433594-18.832031-18.832031v-28.761719c0-3.078125 2.496093-5.578125 5.578124-5.578125h42.011719c3.082031 0 5.582031 2.5 5.582031 5.578125v28.761719c0 10.398437-8.433593 18.832031-18.832031 18.832031zm0 0" fill="url(#q)"/><path d="m119.519531 240.964844h-13.574219c3.082032 0 5.578126 2.496094 5.578126 5.578125v28.761719c0 10.398437-8.429688 18.828124-18.832032 18.828124h13.578125c10.398438 0 18.832031-8.429687 18.832031-18.828124v-28.761719c0-3.082031-2.5-5.578125-5.582031-5.578125zm0 0" fill="url(#r)"/><path d="m106.269531 294.136719c10.3125 0 18.679688-8.296875 18.816407-18.578125l-25.488282-25.488282c-.851562-1.058593-2.140625-1.753906-3.609375-1.753906h-9.65625c-2.566406 0-4.644531 2.082032-4.644531 4.648438v18.988281c0 1.46875.691406 2.757813 1.753906 3.609375l18.570313 18.574219zm0 0" fill="url(#s)"/><path d="m95.988281 276.601562h-9.65625c-2.566406 0-4.644531-2.082031-4.644531-4.648437v-18.988281c0-2.566406 2.078125-4.648438 4.644531-4.648438h9.65625c2.566407 0 4.648438 2.082032 4.648438 4.648438v18.988281c0 2.566406-2.082031 4.648437-4.648438 4.648437zm0 0" fill="url(#t)"/><path d="m5.183594 360.515625v54.960937c0 6.710938 5.4375 12.148438 12.148437 12.148438h482.519531c6.710938 0 12.148438-5.4375 12.148438-12.148438v-54.960937zm0 0" fill="url(#u)"/></svg>