

<svg height="512pt" viewBox="0 -62 512 512" width="512pt" xmlns="http://www.w3.org/2000/svg"><path d="m512 10.300781v366.726563c0 5.6875-4.613281 10.300781-10.300781 10.300781h-491.398438c-5.6875 0-10.300781-4.613281-10.300781-10.300781v-366.726563c0-5.6875 4.613281-10.300781 10.300781-10.300781h491.398438c5.6875 0 10.300781 4.613281 10.300781 10.300781zm0 0" fill="#e8e6ed"/><path d="m512 10.300781v366.726563c0 5.6875-4.613281 10.300781-10.300781 10.300781h-123.394531c113.976562-98.660156 111.441406-328.0625 108.753906-387.328125h14.640625c5.6875 0 10.300781 4.613281 10.300781 10.300781zm0 0" fill="#d1d0d8"/><path d="m512 10.300781v54.632813h-512v-54.632813c0-5.6875 4.613281-10.300781 10.300781-10.300781h491.398438c5.6875 0 10.300781 4.613281 10.300781 10.300781zm0 0" fill="#d1d0d8"/><path d="m512 10.300781v54.632813h-24.550781c.847656-28.289063.238281-51.191406-.390625-64.933594h14.640625c5.6875 0 10.300781 4.613281 10.300781 10.300781zm0 0" fill="#aaaab2"/><g fill="#717177"><path d="m41.253906 40.195312h-.113281c-4.269531 0-7.726563-3.460937-7.726563-7.726562s3.457032-7.726562 7.726563-7.726562h.113281c4.269532 0 7.726563 3.460937 7.726563 7.726562s-3.457031 7.726562-7.726563 7.726562zm0 0"/><path d="m64.582031 40.195312h-.117187c-4.265625 0-7.726563-3.460937-7.726563-7.726562s3.460938-7.726562 7.726563-7.726562h.117187c4.265625 0 7.726563 3.460937 7.726563 7.726562s-3.460938 7.726562-7.726563 7.726562zm0 0"/><path d="m87.90625 40.195312h-.117188c-4.265624 0-7.722656-3.460937-7.722656-7.726562s3.457032-7.726562 7.722656-7.726562h.117188c4.269531 0 7.726562 3.460937 7.726562 7.726562s-3.457031 7.726562-7.726562 7.726562zm0 0"/><path d="m470.863281 40.195312h-14.378906c-4.265625 0-7.726563-3.460937-7.726563-7.726562s3.460938-7.726562 7.726563-7.726562h14.378906c4.265625 0 7.726563 3.460937 7.726563 7.726562s-3.460938 7.726562-7.726563 7.726562zm0 0"/></g><path d="m420.222656 222.34375v17.832031c0 8.078125-6.554687 14.617188-14.621094 14.617188h-299.203124c-8.066407 0-14.621094-6.539063-14.621094-14.617188v-17.832031c0-8.066406 6.554687-14.609375 14.621094-14.609375h299.203124c8.066407 0 14.621094 6.542969 14.621094 14.609375zm0 0" fill="#d1d0d8"/><path d="m420.222656 222.34375v17.832031c0 8.078125-6.554687 14.617188-14.621094 14.617188h-35.25v-47.058594h35.25c8.066407 0 14.621094 6.542969 14.621094 14.609375zm0 0" fill="#2fd92d"/><path d="m223.851562 311.105469h-58.296874c-8.070313 0-14.613282-6.542969-14.613282-14.617188 0-8.070312 6.542969-14.613281 14.613282-14.613281h58.296874c8.070313 0 14.617188 6.542969 14.617188 14.613281 0 8.074219-6.542969 14.617188-14.617188 14.617188zm0 0" fill="#aaaab2"/><path d="m346.445312 311.105469h-58.296874c-8.070313 0-14.617188-6.542969-14.617188-14.617188 0-8.070312 6.542969-14.613281 14.617188-14.613281h58.296874c8.070313 0 14.613282 6.542969 14.613282 14.613281 0 8.074219-6.542969 14.617188-14.613282 14.617188zm0 0" fill="#aaaab2"/><path d="m185.238281 182.378906c-20.59375 0-37.347656-16.753906-37.347656-37.347656s16.753906-37.347656 37.347656-37.347656c3.785157 0 7.519531.5625 11.105469 1.679687 4.074219 1.265625 6.347656 5.597657 5.082031 9.671875-1.269531 4.074219-5.601562 6.347656-9.671875 5.082032-2.097656-.652344-4.289062-.984376-6.515625-.984376-12.074219 0-21.894531 9.824219-21.894531 21.894532 0 12.074218 9.820312 21.898437 21.894531 21.898437 9.355469 0 17.359375-5.898437 20.488281-14.171875h-20.488281c-4.265625 0-7.726562-3.457031-7.726562-7.726562 0-4.265625 3.460937-7.722656 7.726562-7.722656h29.621094c4.269531 0 7.726563 3.457031 7.726563 7.722656 0 20.597656-16.753907 37.351562-37.347657 37.351562zm0 0" fill="#089bff"/><path d="m256 163.78125c0 6.574219-5.332031 11.90625-11.910156 11.90625-6.574219 0-11.90625-5.332031-11.90625-11.90625 0-6.578125 5.332031-11.910156 11.90625-11.910156 6.578125 0 11.910156 5.332031 11.910156 11.910156zm0 0" fill="#ffd100"/><path d="m298.382812 163.78125c0 6.574219-5.332031 11.90625-11.910156 11.90625s-11.910156-5.332031-11.910156-11.90625c0-6.578125 5.332031-11.910156 11.910156-11.910156s11.910156 5.332031 11.910156 11.910156zm0 0" fill="#2fd92d"/><path d="m340.761719 163.78125c0 6.574219-5.332031 11.90625-11.90625 11.90625-6.578125 0-11.910157-5.332031-11.910157-11.90625 0-6.578125 5.332032-11.910156 11.910157-11.910156 6.574219 0 11.90625 5.332031 11.90625 11.910156zm0 0" fill="#ff5677"/><path d="m347.277344 118.226562-8.285156-8.28125c-3.015626-3.015624-7.90625-3.015624-10.925782 0-1.648437 1.652344-2.390625 3.863282-2.234375 6.019532h-98.695312c-4.269531 0-7.726563 3.460937-7.726563 7.726562s3.457032 7.726563 7.726563 7.726563h98.695312c-.15625 2.15625.585938 4.367187 2.234375 6.019531 1.511719 1.507812 3.488282 2.261719 5.464844 2.261719s3.953125-.753907 5.460938-2.261719l8.285156-8.285156c1.449218-1.449219 2.261718-3.414063 2.261718-5.460938 0-2.050781-.8125-4.015625-2.261718-5.464844zm0 0" fill="#089bff"/><path d="m58.304688 363.128906h-18.097657c-4.265625 0-7.726562-3.457031-7.726562-7.726562 0-4.265625 3.460937-7.726563 7.726562-7.726563h18.097657c4.265624 0 7.726562 3.460938 7.726562 7.726563 0 4.269531-3.460938 7.726562-7.726562 7.726562zm0 0" fill="#d1d0d8"/><path d="m105.074219 363.128906h-18.097657c-4.265624 0-7.726562-3.457031-7.726562-7.726562 0-4.265625 3.460938-7.726563 7.726562-7.726563h18.097657c4.265625 0 7.726562 3.460938 7.726562 7.726563 0 4.269531-3.457031 7.726562-7.726562 7.726562zm0 0" fill="#d1d0d8"/><path d="m151.84375 363.128906h-18.097656c-4.265625 0-7.726563-3.457031-7.726563-7.726562 0-4.265625 3.460938-7.726563 7.726563-7.726563h18.097656c4.265625 0 7.726562 3.460938 7.726562 7.726563 0 4.269531-3.460937 7.726562-7.726562 7.726562zm0 0" fill="#d1d0d8"/><path d="m471.792969 363.128906h-18.097657c-4.265624 0-7.726562-3.457031-7.726562-7.726562 0-4.265625 3.460938-7.726563 7.726562-7.726563h18.097657c4.265625 0 7.726562 3.460938 7.726562 7.726563 0 4.269531-3.460937 7.726562-7.726562 7.726562zm0 0" fill="#aaaab2"/></svg>