<svg id="Capa_1" enable-background="new 0 0 512 512" height="512" viewBox="0 0 512 512" width="512" xmlns="http://www.w3.org/2000/svg" xmlns:xlink="http://www.w3.org/1999/xlink"><linearGradient id="SVGID_1_" gradientUnits="userSpaceOnUse" x1="132.194" x2="229.113" y1="379.81" y2="282.892"><stop offset="0" stop-color="#ffbef9"/><stop offset="1" stop-color="#fff1ff"/></linearGradient><linearGradient id="SVGID_2_" gradientUnits="userSpaceOnUse" x1="4.398" x2="498.828" y1="507.607" y2="13.177"><stop offset="0" stop-color="#a93aff"/><stop offset="1" stop-color="#ff81ff"/></linearGradient><g><g><g><path d="m254.188 310.529c-1.582-5.273-5.889-9.272-11.279-10.415-7.031-1.479-14.063-5.464-19.805-11.206-5.742-5.771-9.727-12.817-11.221-19.834-1.143-5.376-5.156-9.697-10.43-11.265-5.244-1.509-10.986-.103-14.854 3.779l-75.704 75.705c-3.896 3.882-5.332 9.595-3.779 14.868s5.889 9.258 11.25 10.415c7.412 1.567 14.209 5.391 20.039 11.455 5.654 5.42 9.463 12.188 11.016 19.556 1.486 7.012 7.66 11.924 14.678 11.924 3.926 0 7.764-1.538 10.605-4.395l75.704-75.72c3.897-3.896 5.332-9.594 3.78-14.867z" fill="url(#SVGID_1_)"/></g></g><g><g><path d="m159.617 352.806c-9.609-9.976-21.709-16.743-33.955-19.321-25.723-7.441-53.291 0-72.012 19.043-25.488 25.18-48.838 121.962-53.262 141.108-1.172 5.039.352 10.313 4.014 13.975 3.519 3.519 8.694 5.195 13.975 4.014 19.131-4.424 115.664-27.729 141.005-53.188 19.19-18.867 26.514-46.479 19.395-71.016-2.783-13.302-9.551-25.416-19.16-34.615zm339.2-339.641c-17.666-17.578-46.26-17.534-63.809.015-95.391 95.391-145.283 128.027-181.699 151.86-19.863 12.979-35.537 23.247-51.299 39.141-19.248 18.867-26.602 46.523-19.482 71.133 2.725 12.803 9.434 24.829 19.365 34.79 9.814 9.814 22.178 16.685 33.75 19.102 25.802 7.396 53.365-.087 72.041-19.058 16.025-15.938 26.279-31.611 39.258-51.445 23.848-36.431 56.484-86.309 151.875-181.699 17.578-17.594 17.578-46.231 0-63.839z" fill="url(#SVGID_2_)"/></g></g></g></svg>