<svg height="512pt" viewBox="-46 0 512 512" width="512pt" xmlns="http://www.w3.org/2000/svg"><path d="m210 512c-5.683594 0-10.875-3.210938-13.417969-8.292969l-46.140625-92.277343c-88.921875-26.21875-150.441406-108.070313-150.441406-201.429688 0-115.792969 94.207031-210 210-210s210 94.207031 210 210c0 93.359375-61.519531 175.214844-150.445312 201.429688l-46.140626 92.277343c-2.539062 5.082031-7.734374 8.292969-13.414062 8.292969zm0 0" fill="#ff415b"/><path d="m210 0v512c5.679688 0 10.875-3.210938 13.414062-8.292969l46.140626-92.277343c88.925781-26.214844 150.445312-108.070313 150.445312-201.429688 0-115.792969-94.207031-210-210-210zm0 0" fill="#b20042"/><path d="m251.363281 262.5h-86.289062c-7.039063 0-13.132813-4.894531-14.648438-11.769531l-23.867187-108.230469h-8.835938c-8.285156 0-15-6.714844-15-15s6.714844-15 15-15h20.886719c7.042969 0 13.132813 4.894531 14.648437 11.769531l5.125 23.230469h131.945313c5.109375 0 9.867187 2.601562 12.625 6.898438 2.761719 4.300781 3.140625 9.707031 1.011719 14.351562l-38.964844 85c-2.445312 5.332031-7.773438 8.75-13.636719 8.75zm0 0" fill="#f3eee9"/><path d="m170.328125 304.5c8.261719 0 15-6.738281 15-15s-6.738281-15-15-15-15 6.738281-15 15 6.738281 15 15 15zm0 0" fill="#f3eee9" fill-rule="evenodd"/><g fill="#e9dfda"><path d="m245.328125 304.5c8.261719 0 15-6.738281 15-15s-6.738281-15-15-15-15 6.738281-15 15 6.738281 15 15 15zm0 0" fill-rule="evenodd"/><path d="m302.953125 154.398438c-2.757813-4.300782-7.515625-6.898438-12.625-6.898438h-80.328125v115h41.363281c5.863281 0 11.191407-3.417969 13.632813-8.75l38.96875-85c2.128906-4.644531 1.75-10.050781-1.011719-14.351562zm0 0"/></g></svg>