<svg id="Capa_1" enable-background="new 0 0 512 512" height="512" viewBox="0 0 512 512" width="512"
     xmlns="http://www.w3.org/2000/svg">
    <g>
        <g>
            <path d="m314.504 204.905c-30.229 31.971-55.385 62.394-94.236 84.95-60.086 34.884-124.142 37.067-191.381 25.132-20.16-3.578-37.118 18.017-24.609 36.031 6.48 9.332 20.46 16.838 29.762 22.738 108.101 68.572 246.373 65.922 361.624 17.052 26.983-11.442 57.588-24.307 74.907-49.143z"
                  fill="#c58d7c"/>
            <path d="m470.575 341.665c-17.326 24.832-47.927 37.701-74.917 49.145-115.245 48.867-253.517 51.518-361.622-17.055-9.299-5.901-23.282-13.41-29.76-22.742-4.73-6.804-5.245-14.12-2.965-20.392 5.883 4.208 12.341 7.9 17.421 11.12 108.095 68.571 246.367 65.92 361.622 17.055 22.789-9.672 48.176-20.349 65.942-38.404z"
                  fill="#ba7c65"/>
            <path d="m438.717 370.078-18.661-16.355c-10.444 2.812-22.045.521-30.753-7.128-8.694-7.637-12.465-18.812-11.048-29.504l-25.278-22.142c-10.408 2.757-21.957.449-30.63-7.169-8.659-7.606-12.433-18.722-11.066-29.371l-25.741-22.562c9.557-9.988 18.988-20.385 28.964-30.936l156.064 136.756c-8.222 11.792-19.444 20.889-31.851 28.411z"
                  fill="#ba7c65"/>
            <g>
                <path d="m119.094 326.858c-.557 0-1.124-.06-1.69-.187-4.165-.93-6.787-5.059-5.858-9.224l47.396-212.318c.526-2.356 2.122-4.33 4.316-5.338 2.192-1.008 4.73-.933 6.861.204l156.476 83.468c3.765 2.008 5.189 6.688 3.18 10.453-2.008 3.765-6.685 5.19-10.454 3.181l-147.511-78.686-45.183 202.402c-.803 3.598-3.994 6.045-7.533 6.045z"
                      fill="#f3eae6"/>
            </g>
            <path d="m461.46 365.193-166.971-146.317c-3.876-3.397-4.265-9.293-.868-13.169l35.057-40.005c3.397-3.876 9.293-4.265 13.169-.868l166.971 146.317c3.876 3.397 4.265 9.293.868 13.169l-35.057 40.005c-3.397 3.876-9.293 4.265-13.169.868z"
                  fill="#fcc16d"/>
            <g fill="#fcb44d">
                <path d="m509.682 324.322-35.057 40.002c-3.389 3.873-9.292 4.265-13.166.865l-17.245-15.113c3.276.68 6.82-.381 9.179-3.08l36.19-41.3c2.462-2.802 2.998-6.645 1.71-9.9l17.523 15.36c3.874 3.389 4.266 9.292.866 13.166z"/>
                <path d="m383.443 201.287c-12.179 13.61-33.156 14.895-46.905 2.817-10.72-9.417-13.96-24.237-9.21-36.87l1.349-1.535c3.4-3.87 9.293-4.258 13.169-.866z"/>
                <path d="m450.472 260.019c-12.16 13.688-33.202 15.004-46.979 2.902-13.763-12.09-15.187-33.078-3.241-46.904z"/>
                <path d="m509.69 324.322-1.632 1.858c-11.894 6.258-26.931 4.937-37.608-4.443-13.791-12.114-15.192-33.157-3.167-46.988l41.535 36.398c3.876 3.405 4.264 9.298.872 13.175z"/>
            </g>
            <g>
                <path d="m421.31 326.185c-3.306 0-6.365-2.139-7.384-5.465-1.251-4.08 1.044-8.4 5.124-9.65l64.241-19.681c4.082-1.25 8.4 1.043 9.651 5.124 1.25 4.08-1.044 8.4-5.124 9.65l-64.241 19.681c-.755.23-1.518.341-2.267.341z"
                      fill="#fca62f"/>
            </g>
            <g>
                <path d="m413.06 319.103c-.429 0-.864-.036-1.301-.11-4.207-.714-7.039-4.703-6.326-8.91l10.754-63.399c.714-4.206 4.705-7.037 8.909-6.325 4.207.714 7.039 4.703 6.326 8.91l-10.754 63.399c-.639 3.77-3.908 6.435-7.608 6.435z"
                      fill="#fca62f"/>
            </g>
            <g>
                <path d="m354.316 267.38c-3.306 0-6.365-2.139-7.384-5.465-1.25-4.08 1.044-8.401 5.124-9.65l61.854-18.949c4.082-1.25 8.4 1.044 9.651 5.124 1.25 4.08-1.044 8.401-5.124 9.65l-61.854 18.949c-.755.231-1.518.341-2.267.341z"
                      fill="#fca62f"/>
            </g>
            <g>
                <path d="m345.888 261.563c-.429 0-.864-.036-1.301-.11-4.207-.714-7.039-4.703-6.326-8.909l11.259-66.38c.714-4.206 4.703-7.037 8.909-6.325 4.207.714 7.039 4.703 6.326 8.91l-11.259 66.379c-.639 3.77-3.907 6.435-7.608 6.435z"
                      fill="#fca62f"/>
            </g>
            <g>
                <g>
                    <circle cx="358.568" cy="179.023" fill="#fc7d4b" r="14.721"/>
                </g>
                <g>
                    <circle cx="425.524" cy="237.839" fill="#fc7d4b" r="14.721"/>
                </g>
                <g>
                    <circle cx="492.48" cy="296.654" fill="#fc7d4b" r="14.721"/>
                </g>
            </g>
            <g>
                <g>
                    <circle cx="344.376" cy="262.698" fill="#fc7d4b" r="14.721"/>
                </g>
                <g>
                    <circle cx="411.332" cy="321.514" fill="#fc7d4b" r="14.721"/>
                </g>
            </g>
        </g>
        <path d="m116.492 420.3-31.338-10.817c-4.801-1.657-7.592-6.654-6.486-11.611l17.832-79.881c.932-4.173 4.418-7.29 8.669-7.75l34.588-3.742c6.798-.735 12.306 5.426 10.816 12.099l-21.082 94.439c-1.297 5.816-7.367 9.207-12.999 7.263z"
              fill="#fc7d4b"/>
        <path d="m96.03 357.728h25.596v52.914h-25.596z" fill="#fb6a3b"
              transform="matrix(.218 -.976 .976 .218 -289.836 406.751)"/>
        <g>
            <path d="m140.176 383.184-59.848-13.36c-2.69-.601-4.384-3.268-3.784-5.959l3.625-16.237c.601-2.69 3.268-4.384 5.959-3.784l59.848 13.36c2.69.601 4.384 3.268 3.784 5.959l-3.625 16.238c-.601 2.689-3.269 4.384-5.959 3.783z"
                  fill="#fcc16d"/>
        </g>
        <circle cx="166.482" cy="106.812" fill="#e0d3ce" r="21.297"/>
    </g>
</svg>