<!--
  - Copyright (c) 2023. Selldone® Business OS™
  -
  - Author: M.Pajuhaan
  - Web: https://selldone.com
  - ━━━━━━━━━━━━━━━━━━━━━━━━━━━━━━━━━━━━━━━━━━━━━━━━━━━━━━
  -
  - All rights reserved. In the weave of time, where traditions and innovations intermingle, this content was crafted.
  - From the essence of thought, through the corridors of creativity, each word, and sentiment has been molded.
  - Not just to exist, but to inspire. Like an artist's stroke or a sculptor's chisel, every nuance is deliberate.
  - Our journey is not just about reaching a destination, but about creating a masterpiece.
  - Tread carefully, for you're treading on dreams.
  -->

<svg height="512pt" viewBox="0 -64 512 512" width="512pt" xmlns="http://www.w3.org/2000/svg"><path d="m448 310.191406-128-42.65625v-215.070312l128-42.65625zm0 0" fill="#badb31"/><path d="m64 310.191406v-300.382812l128 42.65625v215.070312zm0 0" fill="#badb31"/><path d="m160 0h192v320h-192zm0 0" fill="#ceed5f"/><path d="m480 0h32v320h-32zm0 0" fill="#77959e"/><path d="m0 0h32v320h-32zm0 0" fill="#77959e"/><g fill="#badb31"><path d="m176 352h32v32h-32zm0 0"/><path d="m240 352h32v32h-32zm0 0"/><path d="m304 352h32v32h-32zm0 0"/></g></svg>