

<svg id="Capa_1" enable-background="new 0 0 510 510" height="512" viewBox="0 0 510 510" width="512" xmlns="http://www.w3.org/2000/svg" xmlns:xlink="http://www.w3.org/1999/xlink"><linearGradient id="lg1"><stop offset="0" stop-color="#c4d143"/><stop offset="1" stop-color="#7c8a1a"/></linearGradient><linearGradient id="SVGID_1_" gradientTransform="matrix(.91 .414 -.338 .745 65.444 524.543)" gradientUnits="userSpaceOnUse" x1="40.783" x2="124.741" xlink:href="#lg1" y1="-648.02" y2="-600.485"/><linearGradient id="lg2"><stop offset="0" stop-color="#7c8a1a" stop-opacity="0"/><stop offset=".3152" stop-color="#768319" stop-opacity=".315"/><stop offset=".7806" stop-color="#646f15" stop-opacity=".781"/><stop offset="1" stop-color="#5a6313"/></linearGradient><linearGradient id="SVGID_2_" gradientTransform="matrix(.91 .414 -.338 .745 65.444 524.543)" gradientUnits="userSpaceOnUse" x1="99.165" x2="-32.161" xlink:href="#lg2" y1="-618.503" y2="-656.966"/><linearGradient id="SVGID_3_" gradientTransform="matrix(.416 .91 -.744 .34 -125.844 342.092)" gradientUnits="userSpaceOnUse" x1="8.491" x2="92.445" xlink:href="#lg1" y1="-719.855" y2="-672.322"/><linearGradient id="SVGID_4_" gradientTransform="matrix(.416 .91 -.744 .34 -125.844 342.092)" gradientUnits="userSpaceOnUse" x1="66.871" x2="-64.454" xlink:href="#lg2" y1="-690.339" y2="-728.802"/><linearGradient id="SVGID_5_" gradientTransform="matrix(.709 .705 -.577 .58 -59.494 411.936)" gradientUnits="userSpaceOnUse" x1="67.044" x2="151.004" xlink:href="#lg1" y1="-663.449" y2="-615.913"/><linearGradient id="SVGID_6_" gradientTransform="matrix(.709 .705 -.577 .58 -59.494 411.936)" gradientUnits="userSpaceOnUse" x1="125.428" x2="-5.905" xlink:href="#lg2" y1="-633.931" y2="-672.397"/><linearGradient id="SVGID_7_" gradientTransform="matrix(.707 .707 -.707 .707 203.999 -126.849)" gradientUnits="userSpaceOnUse" x1="306.103" x2="306.103" y1="90.041" y2="109.183"><stop offset="0" stop-color="#5a6313" stop-opacity="0"/><stop offset="1" stop-color="#544f43"/></linearGradient><linearGradient id="SVGID_8_" gradientTransform="matrix(.707 .707 -.707 .707 203.999 -126.849)" gradientUnits="userSpaceOnUse" x1="244.617" x2="366.877" y1="343.24" y2="343.24"><stop offset="0" stop-color="#ffa325"/><stop offset=".3186" stop-color="#ff972c"/><stop offset=".8959" stop-color="#ff7740"/><stop offset="1" stop-color="#ff7044"/></linearGradient><linearGradient id="lg3"><stop offset="0" stop-color="#ff7044" stop-opacity="0"/><stop offset=".5132" stop-color="#f85e33" stop-opacity=".513"/><stop offset="1" stop-color="#f35227"/></linearGradient><linearGradient id="SVGID_9_" gradientTransform="matrix(.608 .794 -.794 .608 253.836 -140.068)" gradientUnits="userSpaceOnUse" x1="356.775" x2="360.302" xlink:href="#lg3" y1="216.833" y2="244.543"/><linearGradient id="SVGID_10_" gradientTransform="matrix(.79 .614 -.614 .79 169.017 -131.079)" gradientUnits="userSpaceOnUse" x1="249.443" x2="252.657" xlink:href="#lg3" y1="298.254" y2="323.507"/><linearGradient id="SVGID_11_" gradientTransform="matrix(.79 .614 -.614 .79 169.017 -131.079)" gradientUnits="userSpaceOnUse" x1="266.19" x2="269.404" xlink:href="#lg3" y1="169.399" y2="194.652"/><linearGradient id="SVGID_12_" gradientTransform="matrix(.622 .783 -.783 .622 254.861 -129.094)" gradientUnits="userSpaceOnUse" x1="353.33" x2="356.276" xlink:href="#lg3" y1="347.06" y2="370.204"/><linearGradient id="SVGID_13_" gradientTransform="matrix(.785 .62 -.62 .785 161.627 -136.975)" gradientUnits="userSpaceOnUse" x1="261.445" x2="264.158" xlink:href="#lg3" y1="413.771" y2="435.088"/><linearGradient id="SVGID_14_" gradientTransform="matrix(.707 .707 -.707 .707 203.999 -126.849)" gradientUnits="userSpaceOnUse" x1="323.441" x2="325.951" xlink:href="#lg3" y1="459.109" y2="478.836"/><g><g><g><path d="m339.647 54.087c-16.314 35.822-35.448 103.063-31.288 136.374.406 3.254 3.434 4.624 6.159 2.788 27.893-18.803 66.171-77.378 82.484-113.2 16.314-35.822 8.04-43.127 3.88-76.439-.406-3.254-3.434-4.624-6.159-2.788-27.893 18.804-38.762 17.443-55.076 53.265z" fill="url(#SVGID_1_)"/><path d="m314.518 193.249c27.893-18.803 66.171-77.378 82.484-113.2 16.314-35.822 8.04-43.127 3.88-76.439-.203-1.627-1.062-2.783-2.21-3.303l-88.104 193.456c1.149.521 2.587.405 3.95-.514z" fill="url(#SVGID_2_)"/></g><g><path d="m429.814 113.14c-35.814 16.331-94.37 54.525-113.085 82.393-1.828 2.722-.442 5.743 2.819 6.145 33.387 4.11 100.705-14.984 136.519-31.315s34.362-27.273 53.078-55.142c1.828-2.722.442-5.743-2.819-6.145-33.388-4.109-40.698-12.267-76.512 4.064z" fill="url(#SVGID_3_)"/><path d="m319.547 201.678c33.387 4.11 100.705-14.984 136.519-31.315s34.362-27.273 53.078-55.142c.914-1.361 1.025-2.797.499-3.942l-193.414 88.197c.526 1.146 1.688 2.001 3.318 2.202z" fill="url(#SVGID_4_)"/></g></g><g><path d="m389.178 76.347c-27.79 27.876-69.188 84.212-76.915 116.88-.755 3.191 1.604 5.532 4.799 4.762 32.701-7.885 89.015-49.419 116.805-77.295s22.586-37.61 30.313-70.278c.755-3.191-1.604-5.532-4.799-4.762-32.702 7.886-42.413 2.817-70.203 30.693z" fill="url(#SVGID_5_)"/><path d="m317.061 197.989c32.701-7.885 89.015-49.419 116.805-77.295s22.586-37.61 30.313-70.278c.377-1.595-.024-2.978-.918-3.866l-150.081 150.544c.895.888 2.284 1.28 3.881.895z" fill="url(#SVGID_6_)"/></g><path d="m322.183 101.853c-9.589 32.009-16.489 67.268-13.824 88.608.289 2.317 1.909 3.671 3.801 3.6-.165 2.372 1.439 4.101 3.76 4.073.059 1.781 1.407 3.27 3.628 3.543 21.368 2.631 56.629-4.248 88.64-13.82z" fill="url(#SVGID_7_)"/><path d="m327.238 343.991c-92.419 92.419-272.327 200.161-316.837 155.651-44.511-44.511 63.231-224.418 155.65-316.837s134.518-62.352 179.028-17.841c44.511 44.51 74.578 86.608-17.841 179.027z" fill="url(#SVGID_8_)"/><g><path d="m242.864 237.632c4.125 1.497 9.849 3.915 16.251 7.437 3.225 1.753 6.597 3.806 10.073 6.093 3.44 2.335 7.026 4.867 10.499 7.731 3.532 2.819 6.986 5.935 10.353 9.236 3.348 3.327 6.578 6.864 9.619 10.561 1.514 1.853 2.974 3.75 4.372 5.684 1.464 1.883 2.73 3.903 4.025 5.875 1.338 1.94 2.476 4.002 3.628 6.012 1.185 1.986 2.181 4.069 3.192 6.088 1.974 4.067 3.632 8.142 4.988 12.112.716 1.957 1.245 3.957 1.793 5.859.55 1.899.993 3.777 1.356 5.607.824 3.598 1.215 7.059 1.59 10.082.262 3.071.369 5.781.424 8.011-.03 2.263-2.161 3.157-2.922 1.272-.855-1.834-1.893-4.063-3.086-6.622-1.297-2.497-2.597-5.377-4.286-8.371-.8-1.52-1.606-3.115-2.575-4.69-.948-1.587-1.784-3.303-2.868-4.941-2-3.371-4.227-6.846-6.585-10.399-1.258-1.728-2.359-3.596-3.683-5.352-1.312-1.763-2.544-3.609-3.909-5.389-1.33-1.803-2.708-3.591-4.103-5.38-1.363-1.812-2.801-3.58-4.265-5.328-2.822-3.577-5.862-6.985-8.783-10.401-1.504-1.674-2.994-3.334-4.467-4.973-1.499-1.62-2.979-3.221-4.435-4.795-5.858-6.263-11.49-11.989-16.385-16.859-4.809-4.747-8.834-8.718-11.698-11.545-3.02-2.983-2.228-4.102 1.887-2.615z" fill="url(#SVGID_9_)"/><path d="m123.575 235.742c4.066.477 9.794 1.443 16.41 3.25 3.327.892 6.861 2.018 10.549 3.332 3.667 1.364 7.515 2.872 11.348 4.699 3.873 1.775 7.753 3.829 11.605 6.067 3.84 2.264 7.63 4.739 11.293 7.396 1.827 1.334 3.617 2.718 5.362 4.148 1.79 1.371 3.44 2.904 5.103 4.389 1.693 1.447 3.24 3.046 4.786 4.595 1.569 1.521 2.996 3.167 4.419 4.753 2.811 3.209 5.344 6.491 7.582 9.743 1.146 1.593 2.136 3.263 3.118 4.843.983 1.577 1.866 3.157 2.665 4.711 1.67 3.034 2.918 6.035 4.039 8.652 1.033 2.683 1.835 5.077 2.465 7.053.563 2.024-1.097 3.269-2.265 1.748-1.238-1.456-2.741-3.226-4.468-5.258-1.803-1.954-3.709-4.25-5.99-6.565-1.107-1.188-2.238-2.44-3.51-3.641-1.256-1.216-2.446-2.571-3.835-3.804-2.655-2.586-5.539-5.216-8.56-7.889-1.568-1.276-3.033-2.711-4.666-3.999-1.625-1.296-3.201-2.684-4.877-3.984-1.652-1.328-3.341-2.634-5.048-3.936-1.683-1.33-3.421-2.604-5.178-3.856-3.44-2.598-7.03-4.999-10.516-7.432-1.773-1.177-3.53-2.345-5.267-3.498-1.755-1.131-3.488-2.248-5.192-3.346-6.84-4.358-13.34-8.285-18.963-11.604-5.515-3.227-10.13-5.927-13.414-7.849-3.468-2.029-3.049-3.189 1.005-2.718z" fill="url(#SVGID_10_)"/><path d="m215.864 144.273c4.066.477 9.794 1.443 16.41 3.25 3.327.892 6.861 2.018 10.549 3.332 3.667 1.364 7.515 2.872 11.348 4.699 3.873 1.775 7.753 3.829 11.605 6.067 3.841 2.264 7.63 4.739 11.293 7.396 1.827 1.334 3.617 2.718 5.362 4.148 1.79 1.371 3.44 2.904 5.103 4.389 1.693 1.447 3.24 3.046 4.786 4.594 1.569 1.521 2.996 3.167 4.419 4.753 2.811 3.209 5.344 6.491 7.582 9.743 1.146 1.593 2.136 3.263 3.118 4.843.983 1.577 1.866 3.157 2.664 4.711 1.67 3.034 2.918 6.035 4.039 8.652 1.033 2.683 1.835 5.077 2.465 7.053.563 2.024-1.097 3.269-2.265 1.748-1.238-1.456-2.741-3.226-4.468-5.258-1.803-1.954-3.71-4.25-5.99-6.565-1.107-1.188-2.238-2.44-3.51-3.641-1.256-1.216-2.446-2.571-3.835-3.804-2.655-2.586-5.539-5.216-8.56-7.889-1.568-1.276-3.032-2.711-4.666-3.999-1.625-1.296-3.201-2.684-4.877-3.984-1.652-1.328-3.342-2.634-5.048-3.936-1.683-1.33-3.422-2.604-5.178-3.856-3.44-2.598-7.03-4.999-10.516-7.433-1.772-1.177-3.53-2.345-5.267-3.498-1.755-1.131-3.488-2.248-5.192-3.346-6.84-4.358-13.34-8.285-18.963-11.604-5.515-3.227-10.13-5.927-13.414-7.849-3.467-2.026-3.049-3.186 1.006-2.716z" fill="url(#SVGID_11_)"/><path d="m153.667 329.441c3.564 1.421 8.528 3.685 14.124 6.918 2.817 1.611 5.774 3.483 8.832 5.56 3.03 2.116 6.193 4.406 9.281 6.978 3.134 2.534 6.219 5.321 9.243 8.265 3.009 2.965 5.931 6.106 8.704 9.38 1.382 1.641 2.72 3.318 4.009 5.024 1.341 1.665 2.525 3.441 3.73 5.178 1.239 1.71 2.318 3.52 3.406 5.285 1.114 1.746 2.076 3.57 3.046 5.339 1.902 3.563 3.541 7.124 4.921 10.588.72 1.709 1.286 3.449 1.862 5.107.577 1.655 1.065 3.289 1.481 4.88.912 3.132 1.453 6.132 1.954 8.757.409 2.663.666 5.01.85 6.941.115 1.958-1.616 2.677-2.371 1.026-.83-1.61-1.838-3.566-2.996-5.811-1.241-2.194-2.509-4.72-4.109-7.354-.764-1.336-1.538-2.736-2.447-4.124-.892-1.398-1.699-2.904-2.708-4.349-1.883-2.968-3.964-6.031-6.16-9.165-1.16-1.527-2.198-3.171-3.416-4.725-1.208-1.559-2.355-3.188-3.608-4.763-1.226-1.594-2.491-3.177-3.771-4.761-1.254-1.603-2.568-3.17-3.903-4.721-2.586-3.168-5.345-6.197-8.005-9.229-1.364-1.488-2.717-2.964-4.053-4.421-1.357-1.442-2.697-2.866-4.015-4.267-5.3-5.576-10.379-10.683-14.788-15.031-4.33-4.24-7.954-7.787-10.534-10.313-2.72-2.667-2.116-3.605 1.441-2.192z" fill="url(#SVGID_12_)"/><path d="m57.782 328.411c3.56.611 8.582 1.72 14.403 3.584 2.926.923 6.04 2.055 9.293 3.353 3.236 1.339 6.634 2.808 10.029 4.547 3.428 1.696 6.871 3.628 10.296 5.714 3.416 2.107 6.794 4.391 10.07 6.821 1.634 1.22 3.238 2.48 4.804 3.777 1.603 1.249 3.091 2.629 4.589 3.969 1.522 1.309 2.923 2.739 4.322 4.127 1.418 1.366 2.716 2.831 4.01 4.244 2.558 2.857 4.878 5.763 6.942 8.63 1.054 1.407 1.976 2.872 2.888 4.261.913 1.386 1.739 2.77 2.491 4.128 1.564 2.657 2.763 5.267 3.837 7.544 1 2.33 1.788 4.404 2.412 6.115.568 1.749-.824 2.73-1.896 1.38-1.13-1.298-2.503-2.875-4.08-4.685-1.64-1.748-3.382-3.791-5.449-5.868-1.006-1.063-2.036-2.181-3.185-3.263-1.136-1.094-2.22-2.302-3.473-3.416-2.402-2.325-5.004-4.698-7.727-7.114-1.409-1.16-2.734-2.449-4.201-3.621-1.459-1.179-2.879-2.434-4.382-3.619-1.484-1.208-2.999-2.398-4.529-3.587-1.511-1.21-3.068-2.377-4.639-3.525-3.083-2.373-6.29-4.586-9.408-6.821-1.583-1.086-3.153-2.163-4.704-3.227-1.566-1.046-3.113-2.079-4.634-3.094-6.104-4.034-11.899-7.687-16.91-10.781-4.914-3.011-9.027-5.531-11.954-7.324-3.093-1.893-2.766-2.854.785-2.249z" fill="url(#SVGID_13_)"/><path d="m60.935 399.874c3.252 1.032 7.818 2.716 13.058 5.2 2.635 1.235 5.425 2.688 8.33 4.312 2.886 1.659 5.909 3.46 8.907 5.507 3.032 2.013 6.056 4.245 9.05 6.617 2.984 2.39 5.918 4.937 8.743 7.606 1.409 1.338 2.786 2.71 4.126 4.11 1.378 1.361 2.637 2.828 3.91 4.259 1.298 1.406 2.472 2.908 3.649 4.37 1.196 1.444 2.273 2.965 3.35 4.438 2.125 2.969 4.025 5.953 5.691 8.867.856 1.436 1.585 2.908 2.311 4.308.727 1.398 1.374 2.783 1.954 4.135 1.222 2.656 2.109 5.222 2.909 7.465.727 2.282 1.28 4.3 1.712 5.962.376 1.69-.997 2.416-1.875 1.029-.936-1.346-2.074-2.981-3.38-4.858-1.37-1.828-2.809-3.941-4.548-6.128-.841-1.112-1.699-2.279-2.672-3.428-.959-1.158-1.86-2.414-2.925-3.606-2.027-2.459-4.235-4.989-6.551-7.574-1.206-1.254-2.324-2.616-3.582-3.89-1.251-1.279-2.459-2.622-3.751-3.912-1.271-1.308-2.574-2.605-3.89-3.901-1.297-1.314-2.639-2.594-3.997-3.859-2.654-2.592-5.437-5.053-8.135-7.523-1.374-1.209-2.737-2.408-4.084-3.592-1.362-1.17-2.708-2.325-4.031-3.461-5.313-4.521-10.372-8.649-14.753-12.16-4.299-3.422-7.896-6.285-10.457-8.324-2.703-2.153-2.314-2.995.931-1.969z" fill="url(#SVGID_14_)"/></g></g></svg>