<?xml version="1.0" encoding="iso-8859-1"?>



<svg version="1.1" id="Capa_1" xmlns="http://www.w3.org/2000/svg" xmlns:xlink="http://www.w3.org/1999/xlink" x="0px" y="0px"
	 viewBox="0 0 512 512" style="enable-background:new 0 0 512 512;" xml:space="preserve">
<path style="fill:#08469C;" d="M407,60h-60c-8.401,0-15,6.599-15,15v62c0,8.399,6.599,15,15,15h60c8.401,0,15-6.601,15-15V75
	C422,66.599,415.401,60,407,60z"/>
<path style="fill:#E1E1E4;" d="M510.499,362L485.3,161.6c-2.699-22.5-21.899-39.6-44.7-39.6H227c-8.401,0-15,6.599-15,15v45h-62v-45
	c0-8.401-6.599-15-15-15H71.4c-22.8,0-42.001,17.1-44.7,39.6L1.802,362L0,375.2v1.199C0,385.699,6.599,392,15,392h482
	c8.401,0,15-6.301,15-15.601V375.2L510.499,362z"/>
<rect x="287" y="15" style="fill:#4DBBEB;" width="180" height="60"/>
<path style="fill:#095C92;" d="M467,0H287c-8.401,0-15,6.599-15,15v60c0,8.399,6.599,15,15,15h180c8.401,0,15-6.601,15-15V15
	C482,6.599,475.401,0,467,0z M452,60H302V30h150V60z"/>
<path style="fill:#D9D8DB;" d="M512,375.2v1.199c0,9.3-6.599,15.601-15,15.601H257V122h183.6c22.8,0,42.001,17.1,44.7,39.6
	L510.499,362L512,375.2z"/>
<path style="fill:#095C92;" d="M510.499,362H1.802L0,375.2V467c0,24.899,20.098,45,45,45h422c24.902,0,45-20.101,45-45v-91.8
	L510.499,362z"/>
<path style="fill:#08469C;" d="M512,375.2V467c0,24.899-20.098,45-45,45H257V362h253.499L512,375.2z"/>
<path style="fill:#FEC478;" d="M242,196.4V45c0-8.4-6.6-15-15-15h-92c-8.4,0-15,6.6-15,15v151.4H242z"/>
<path style="fill:#095C92;" d="M407,332h-90c-19.773,0-19.854-30,0-30h90C426.773,302,426.854,332,407,332z"/>
<g>
	<path style="fill:#0D70B2;" d="M146.865,332H105c-19.773,0-19.854-30,0-30h41.865C166.638,302,166.72,332,146.865,332z"/>
	<path style="fill:#0D70B2;" d="M146.865,272H105c-19.773,0-19.854-30,0-30h41.865C166.638,242,166.72,272,146.865,272z"/>
	<path style="fill:#0D70B2;" d="M257,272h-43.799c-19.801,0-19.801-30,0-30H257C276.797,242,276.797,272,257,272z"/>
	<path style="fill:#0D70B2;" d="M257,332h-41.7c-19.801,0-19.801-30,0-30H257C276.797,302,276.797,332,257,332z"/>
</g>
<g>
	<path style="fill:#095C92;" d="M257,332v-30C276.797,302,276.797,332,257,332z"/>
	<path style="fill:#095C92;" d="M257,272v-30C276.797,242,276.797,272,257,272z"/>
</g>
<path style="fill:#E1E1E4;" d="M287,452h-60c-19.797,0-19.797-30,0-30h60C306.797,422,306.797,452,287,452z"/>
<g>
	<path style="fill:#D9D8DB;" d="M287,452h-30v-30h30C306.797,422,306.797,452,287,452z"/>
	<path style="fill:#D9D8DB;" d="M257,212H105c-19.797,0-19.797-30,0-30h152C276.797,182,276.797,212,257,212z"/>
</g>
<path style="fill:#10BB67;" d="M422,257c0,8.291-6.709,15-15,15h-90c-8.291,0-15-6.709-15-15v-60c0-8.291,6.709-15,15-15h90
	c8.291,0,15,6.709,15,15V257z"/>
<path style="fill:#C8C6CD;" d="M257,212v-30C276.797,182,276.797,212,257,212z"/>
<g>
</g>
<g>
</g>
<g>
</g>
<g>
</g>
<g>
</g>
<g>
</g>
<g>
</g>
<g>
</g>
<g>
</g>
<g>
</g>
<g>
</g>
<g>
</g>
<g>
</g>
<g>
</g>
<g>
</g>
</svg>
