<svg id="Outline" viewBox="0 0 512 512" xmlns="http://www.w3.org/2000/svg"><g id="Outline-2" data-name="Outline"><path d="m436.31 90h-118.18c-27.15-33.67-66.63-51.45-114.42-51.45-26.54 0-71.64 12.57-109.73 51.45h-18.29c-38.43 0-69.69 31.26-69.69 69.69v192.62c0 38.43 31.26 69.69 69.69 69.69h118.18c27.15 33.67 66.64 51.45 114.42 51.45 26.54 0 71.64-12.57 109.73-51.45h18.29c38.43 0 69.69-31.26 69.69-69.69v-192.62c0-38.43-31.26-69.69-69.69-69.69zm-232.6-39.45c45.67 0 81.6 16.53 106.78 49.12 11.73 15.17 18.57 30.78 22.25 41.21 1.02 2.9 4.06 4.55 7.06 3.84l11.34-2.72c4.56-1.09 8.41 3.44 6.6 7.76l-24.21 57.92c-4.23 10.13-17.07 13.2-25.43 6.09l-47.83-40.65c-3.56-3.03-2.19-8.82 2.37-9.91l12.19-2.92c3.74-.9 5.68-5.04 3.98-8.49-11.38-23.08-35.35-61.79-68.09-61.79h-99.39c42.97-38.26 87.12-39.45 92.38-39.45zm104.58 410.9c-45.67 0-81.6-16.53-106.78-49.12-11.73-15.17-18.57-30.78-22.25-41.21-1.02-2.9-4.08-4.55-7.06-3.84l-11.34 2.72c-4.55 1.09-8.41-3.43-6.6-7.76l24.21-57.92c4.23-10.12 17.07-13.2 25.43-6.09l47.83 40.65c3.56 3.03 2.19 8.82-2.37 9.91l-12.19 2.92c-3.74.9-5.68 5.04-3.98 8.49 11.38 23.08 35.35 61.79 68.09 61.79h99.39c-42.97 38.26-87.12 39.45-92.38 39.45zm185.71-109.14c0 31.81-25.88 57.69-57.69 57.69h-135.03c-24.01 0-43.9-29.95-53.87-48.4l4.74-1.14c14.09-3.38 18.38-21.34 7.34-30.72l-47.83-40.65c-14.56-12.37-36.9-7.02-44.27 10.61l-24.21 57.92c-5.59 13.37 6.38 27.43 20.47 24.06l6.17-1.48c3.3 8.43 8.23 18.96 15.32 29.81h-109.46c-31.81 0-57.69-25.88-57.69-57.69v-192.62c0-31.81 25.88-57.69 57.69-57.69h135.03c24.01 0 43.9 29.95 53.87 48.4l-4.74 1.14c-14.09 3.38-18.38 21.34-7.34 30.72l47.83 40.65c14.56 12.37 36.9 7.02 44.27-10.61l24.21-57.92c5.59-13.37-6.38-27.43-20.47-24.06l-6.17 1.48c-3.3-8.43-8.23-18.96-15.32-29.81h109.46c31.81 0 57.69 25.88 57.69 57.69z"/><path d="m466.5 6c-21.78 0-39.5 17.72-39.5 39.5s17.72 39.5 39.5 39.5 39.5-17.72 39.5-39.5-17.72-39.5-39.5-39.5zm0 67c-15.16 0-27.5-12.34-27.5-27.5s12.34-27.5 27.5-27.5 27.5 12.34 27.5 27.5-12.34 27.5-27.5 27.5z"/><path d="m63 34.5c0-15.71-12.79-28.5-28.5-28.5s-28.5 12.79-28.5 28.5 12.79 28.5 28.5 28.5 28.5-12.79 28.5-28.5zm-45 0c0-9.1 7.4-16.5 16.5-16.5s16.5 7.4 16.5 16.5-7.4 16.5-16.5 16.5-16.5-7.4-16.5-16.5z"/><path d="m73 472.5c0-18.47-15.03-33.5-33.5-33.5s-33.5 15.03-33.5 33.5 15.03 33.5 33.5 33.5 33.5-15.03 33.5-33.5zm-55 0c0-11.85 9.65-21.5 21.5-21.5s21.5 9.65 21.5 21.5-9.65 21.5-21.5 21.5-21.5-9.65-21.5-21.5z"/><path d="m480 454c-14.34 0-26 11.66-26 26s11.66 26 26 26 26-11.66 26-26-11.66-26-26-26zm0 40c-7.72 0-14-6.28-14-14s6.28-14 14-14 14 6.28 14 14-6.28 14-14 14z"/><path d="m123.63 166.29h-41.25c-15.65 0-28.37 12.73-28.37 28.37v21.67c0 15.65 12.73 28.37 28.37 28.37h41.25c15.65 0 28.37-12.73 28.37-28.37v-21.67c0-15.65-12.73-28.37-28.37-28.37zm0 66.42h-14.28v-13.58c0-3.31-2.69-6-6-6s-6 2.69-6 6v13.58h-14.98c-9.03 0-16.37-7.35-16.37-16.37v-4.84h13.62c3.31 0 6-2.69 6-6s-2.69-6-6-6h-13.62v-4.84c0-9.03 7.35-16.37 16.37-16.37h14.98v13.58c0 3.31 2.69 6 6 6s6-2.69 6-6v-13.58h14.28c9.03 0 16.37 7.35 16.37 16.37v5.19h-13.58c-3.31 0-6 2.69-6 6s2.69 6 6 6h13.58v4.49c0 9.03-7.35 16.37-16.37 16.37z"/><path d="m112 295.71h-39c-9.93 0-18 8.07-18 18v8c0 9.93 8.07 18 18 18h39c9.93 0 18-8.07 18-18v-8c0-9.93-8.07-18-18-18zm6 26c0 3.31-2.69 6-6 6h-39c-3.31 0-6-2.69-6-6v-8c0-3.31 2.69-6 6-6h39c3.31 0 6 2.69 6 6z"/><path d="m440 295.71h-40c-9.93 0-18 8.07-18 18v8c0 9.93 8.07 18 18 18h40c9.93 0 18-8.07 18-18v-8c0-9.93-8.07-18-18-18zm6 26c0 3.31-2.69 6-6 6h-40c-3.31 0-6-2.69-6-6v-8c0-3.31 2.69-6 6-6h40c3.31 0 6 2.69 6 6z"/><path d="m332 295.71h-39c-9.93 0-18 8.07-18 18v8c0 9.93 8.07 18 18 18h39c9.93 0 18-8.07 18-18v-8c0-9.93-8.07-18-18-18zm6 26c0 3.31-2.69 6-6 6h-39c-3.31 0-6-2.69-6-6v-8c0-3.31 2.69-6 6-6h39c3.31 0 6 2.69 6 6z"/></g></svg>