<svg height="512" viewBox="0 0 64 64" width="512" xmlns="http://www.w3.org/2000/svg"><g id="Layer_6" fill="#9c88ff" data-name="Layer 6"><path d="m31.4 23.3v2.56h-.5a3.49 3.49 0 0 0 -2.44 1 3.35 3.35 0 0 0 -1 2.39 3.42 3.42 0 0 0 3.44 3.35h2.2a2.22 2.22 0 0 1 2.27 2.17 2.13 2.13 0 0 1 -.66 1.53 2.32 2.32 0 0 1 -1.61.64h-4.18a.6.6 0 0 0 0 1.2h2.48v2.56a.6.6 0 0 0 1.2 0v-2.56h.5a3.49 3.49 0 0 0 2.44-1 3.35 3.35 0 0 0 1-2.39 3.42 3.42 0 0 0 -3.44-3.35h-2.2a2.22 2.22 0 0 1 -2.27-2.17 2.13 2.13 0 0 1 .66-1.53 2.32 2.32 0 0 1 1.61-.64h4.18a.6.6 0 0 0 0-1.2h-2.48v-2.56a.6.6 0 1 0 -1.2 0z"/><path d="m50 3.4h-36a10.62 10.62 0 0 0 -10.6 10.6v36a10.62 10.62 0 0 0 10.6 10.6h36a10.62 10.62 0 0 0 10.6-10.6v-36a10.62 10.62 0 0 0 -10.6-10.6zm-37.63 33.93a.59.59 0 0 1 -.42.73.47.47 0 0 1 -.16 0 .59.59 0 0 1 -.58-.44 21.55 21.55 0 0 1 34.7-22.1l-.78-4.36a.6.6 0 1 1 1.18-.16l1.09 6.11a.6.6 0 0 1 -.48.7l-6.12 1.06a.6.6 0 0 1 -.7-.49s0-.07 0-.1a.6.6 0 0 1 .5-.59l4.94-.88a20.34 20.34 0 0 0 -33.17 20.52zm33.39-5.33a13.76 13.76 0 1 1 -13.76-13.76 13.77 13.77 0 0 1 13.76 13.76zm1.47 15.23a21.57 21.57 0 0 1 -29.17 1.2l.72 4.42v.09a.61.61 0 0 1 -.5.6h-.1a.6.6 0 0 1 -.59-.5l-1-6.13a.6.6 0 0 1 .5-.69l6.13-1a.6.6 0 1 1 .19 1.18l-4.93.8a20.34 20.34 0 0 0 33.15-20.53.59.59 0 0 1 .42-.73.6.6 0 0 1 .74.42 21.56 21.56 0 0 1 -5.56 20.87z"/></g></svg>