<?xml version="1.0" encoding="UTF-8"?>
<!--
  - Copyright (c) 2023. Selldone® Business OS™
  -
  - Author: M.Pajuhaan
  - Web: https://selldone.com
  - ━━━━━━━━━━━━━━━━━━━━━━━━━━━━━━━━━━━━━━━━━━━━━━━━━━━━━━
  -
  - All rights reserved. In the weave of time, where traditions and innovations intermingle, this content was crafted.
  - From the essence of thought, through the corridors of creativity, each word, and sentiment has been molded.
  - Not just to exist, but to inspire. Like an artist's stroke or a sculptor's chisel, every nuance is deliberate.
  - Our journey is not just about reaching a destination, but about creating a masterpiece.
  - Tread carefully, for you're treading on dreams.
  -->

<!DOCTYPE svg PUBLIC "-//W3C//DTD SVG 1.1//EN" "http://www.w3.org/Graphics/SVG/1.1/DTD/svg11.dtd">
<!-- Creator: CorelDRAW 2019 (64-Bit) -->
<svg xmlns="http://www.w3.org/2000/svg" xml:space="preserve" width="372px" height="453px" version="1.1" style="shape-rendering:geometricPrecision; text-rendering:geometricPrecision; image-rendering:optimizeQuality; fill-rule:evenodd; clip-rule:evenodd"
viewBox="0 0 50.62 61.62"
 xmlns:xlink="http://www.w3.org/1999/xlink"
 xmlns:xodm="http://www.corel.com/coreldraw/odm/2003">
 <defs>
  <style type="text/css">
   <![CDATA[
    .fil3 {fill:#FEFEFE}
    .fil1 {fill:#10517D}
    .fil0 {fill:#37838A}
    .fil2 {fill:#54BFC9}
   ]]>
  </style>
 </defs>
 <g id="Layer_x0020_1">
  <metadata id="CorelCorpID_0Corel-Layer"/>
  <path class="fil0" d="M7.63 45.21l-7.63 9.81 8.8 -1.1 2.2 7.7 7.71 -9.9 0.03 -0.05c-1.52,-1.54 -3.19,-2.92 -4.98,-4.14 -1.97,-0.97 -4.02,-1.74 -6.13,-2.32z"/>
  <path class="fil0" d="M42.99 45.21c-2.11,0.57 -4.16,1.35 -6.13,2.31 -1.79,1.22 -3.46,2.61 -4.98,4.15l7.73 9.95 2.21 -7.7 8.8 1.1 -7.63 -9.81z"/>
  <path class="fil1" d="M48.42 27.51c0,-4.61 2.87,-10.04 0.72,-13.75 -2.23,-3.85 -8.44,-4.04 -12.28,-6.26 -3.72,-2.16 -6.94,-7.5 -11.55,-7.5 -4.61,0 -7.83,5.34 -11.55,7.49 -3.85,2.23 -10.06,2.42 -12.28,6.26 -2.15,3.72 0.72,9.15 0.72,13.76 0,4.61 -2.87,10.04 -0.72,13.76 2.22,3.84 8.43,4.03 12.28,6.25 3.72,2.16 6.94,7.5 11.55,7.5 4.61,0 7.83,-5.34 11.55,-7.49 3.85,-2.23 10.05,-2.42 12.28,-6.26 2.15,-3.72 -0.72,-9.15 -0.72,-13.76z"/>
  <circle class="fil2" cx="25.31" cy="27.51" r="18.71"/>
  <path class="fil0" d="M49.14 13.76c-0.05,-0.09 -0.11,-0.16 -0.16,-0.24 -1.62,3.09 -3.54,6 -5.73,8.71 2.92,9.9 -2.75,20.3 -12.65,23.22 -6.51,1.92 -13.54,0.16 -18.39,-4.59 -3.3,0.63 -6.65,0.95 -10.01,0.96 -0.12,0 -0.23,-0.01 -0.35,-0.01 2.47,3.32 8.25,3.61 11.91,5.72 3.72,2.15 6.94,7.49 11.55,7.49 4.61,0 7.83,-5.34 11.55,-7.49 3.85,-2.22 10.05,-2.42 12.28,-6.26 2.15,-3.72 -0.72,-9.15 -0.72,-13.76 0,-4.61 2.87,-10.04 0.72,-13.75z"/>
  <path class="fil1" d="M41.27 51.72c2.85,0 5.66,0.64 8.24,1.87l-6.52 -8.38c-2.11,0.57 -4.16,1.35 -6.13,2.31 -1.79,1.22 -3.46,2.61 -4.98,4.15l1.39 1.79c2.51,-1.15 5.24,-1.74 8,-1.74z"/>
  <path class="fil1" d="M13.76 47.53c-1.97,-0.97 -4.02,-1.74 -6.13,-2.31l-0.34 0.44c3.71,2.68 5.91,6.98 5.91,11.56 0,0.58 -0.03,1.15 -0.11,1.72l5.62 -7.22 0.03 -0.05c-1.52,-1.54 -3.19,-2.92 -4.98,-4.14z"/>
  <g id="_3003442687504">
   <g>
    <g>
     <path class="fil3" d="M32.64 23.39l-1.79 0 0 -4.09c0,-2.9 -2.41,-5.26 -5.37,-5.26 -2.96,0 -5.37,2.36 -5.37,5.26l0 4.09 -1.79 0c-1.64,0 -2.98,1.34 -2.98,2.98l0 10.15c0,1.64 1.34,2.98 2.98,2.98l14.32 0c1.64,0 2.98,-1.34 2.98,-2.98l0 -10.15c0,-1.64 -1.34,-2.98 -2.98,-2.98zm-10.54 -4.09c0,-1.8 1.51,-3.27 3.38,-3.27 1.86,0 3.38,1.47 3.38,3.27l0 4.09 -6.76 0 0 -4.09zm11.53 17.22c0,0.55 -0.44,0.99 -0.99,0.99l-14.32 0c-0.55,0 -0.99,-0.44 -0.99,-0.99l0 -10.15c0,-0.54 0.44,-0.99 0.99,-0.99l14.32 0c0.55,0 0.99,0.45 0.99,0.99l0 10.15z"/>
    </g>
   </g>
   <g>
    <g>
     <path class="fil3" d="M25.48 28.26c-1.02,0 -1.84,0.83 -1.84,1.84 0,0.65 0.34,1.22 0.84,1.55l0 2.18c0,0.55 0.45,1 1,1 0.55,0 0.99,-0.45 0.99,-1l0 -2.18c0.51,-0.32 0.85,-0.9 0.85,-1.55 0,-1.01 -0.82,-1.84 -1.84,-1.84z"/>
    </g>
   </g>
   <g>
   </g>
   <g>
   </g>
   <g>
   </g>
   <g>
   </g>
   <g>
   </g>
   <g>
   </g>
   <g>
   </g>
   <g>
   </g>
   <g>
   </g>
   <g>
   </g>
   <g>
   </g>
   <g>
   </g>
   <g>
   </g>
   <g>
   </g>
   <g>
   </g>
  </g>
 </g>
</svg>
