<?xml version="1.0" encoding="UTF-8"?>
<!--
  - Copyright (c) 2023. Selldone® Business OS™
  -
  - Author: M.Pajuhaan
  - Web: https://selldone.com
  - ━━━━━━━━━━━━━━━━━━━━━━━━━━━━━━━━━━━━━━━━━━━━━━━━━━━━━━
  -
  - All rights reserved. In the weave of time, where traditions and innovations intermingle, this content was crafted.
  - From the essence of thought, through the corridors of creativity, each word, and sentiment has been molded.
  - Not just to exist, but to inspire. Like an artist's stroke or a sculptor's chisel, every nuance is deliberate.
  - Our journey is not just about reaching a destination, but about creating a masterpiece.
  - Tread carefully, for you're treading on dreams.
  -->

<!DOCTYPE svg PUBLIC "-//W3C//DTD SVG 1.1//EN" "http://www.w3.org/Graphics/SVG/1.1/DTD/svg11.dtd">
<!-- Creator: CorelDRAW 2019 (64-Bit) -->
<svg xmlns="http://www.w3.org/2000/svg" xml:space="preserve" width="372px" height="453px" version="1.1" style="shape-rendering:geometricPrecision; text-rendering:geometricPrecision; image-rendering:optimizeQuality; fill-rule:evenodd; clip-rule:evenodd"
viewBox="0 0 29.19 35.53"
 xmlns:xlink="http://www.w3.org/1999/xlink"
 xmlns:xodm="http://www.corel.com/coreldraw/odm/2003">
 <defs>
  <style type="text/css">
   <![CDATA[
    .fil3 {fill:#FEFEFE}
    .fil2 {fill:#B26398}
    .fil0 {fill:#694E9E}
    .fil1 {fill:#574262}
   ]]>
  </style>
 </defs>
 <g id="Layer_x0020_1">
  <metadata id="CorelCorpID_0Corel-Layer"/>
  <path class="fil0" d="M4.4 26.07l-4.4 5.66 5.08 -0.64 1.26 4.44 4.45 -5.71 0.02 -0.02c-0.88,-0.89 -1.85,-1.69 -2.88,-2.4 -1.13,-0.55 -2.31,-1 -3.53,-1.33z"/>
  <path class="fil0" d="M24.79 26.07c-1.22,0.33 -2.4,0.78 -3.53,1.33 -1.04,0.7 -2,1.51 -2.88,2.39l4.46 5.74 1.27 -4.44 5.08 0.64 -4.4 -5.66z"/>
  <path class="fil1" d="M27.92 15.86c0,-2.66 1.65,-5.78 0.41,-7.93 -1.28,-2.21 -4.86,-2.33 -7.07,-3.61 -2.15,-1.24 -4.01,-4.32 -6.67,-4.32 -2.66,0 -4.51,3.08 -6.66,4.32 -2.21,1.28 -5.79,1.4 -7.08,3.61 -1.24,2.15 0.42,5.27 0.42,7.93 0,2.66 -1.66,5.79 -0.42,7.93 1.29,2.22 4.87,2.33 7.08,3.61 2.15,1.25 4,4.33 6.66,4.33 2.66,0 4.52,-3.08 6.67,-4.33 2.21,-1.28 5.79,-1.39 7.07,-3.6 1.24,-2.15 -0.41,-5.28 -0.41,-7.94z"/>
  <circle class="fil2" cx="14.59" cy="15.86" r="10.79"/>
  <path class="fil0" d="M28.33 7.93c-0.03,-0.05 -0.06,-0.09 -0.09,-0.13 -0.93,1.78 -2.04,3.46 -3.3,5.02 1.68,5.71 -1.58,11.7 -7.3,13.39 -3.75,1.1 -7.81,0.09 -10.6,-2.65 -1.9,0.36 -3.83,0.55 -5.77,0.55 -0.07,0 -0.14,0 -0.2,0 1.42,1.91 4.75,2.08 6.86,3.3 2.15,1.24 4,4.32 6.66,4.32 2.66,0 4.52,-3.08 6.67,-4.33 2.21,-1.28 5.79,-1.39 7.07,-3.6 1.24,-2.15 -0.41,-5.28 -0.41,-7.94 0,-2.66 1.65,-5.78 0.41,-7.93z"/>
  <path class="fil1" d="M23.79 29.82c1.65,0 3.27,0.37 4.76,1.08l-3.76 -4.83c-1.22,0.33 -2.4,0.77 -3.53,1.33 -1.04,0.7 -2,1.5 -2.88,2.39l0.81 1.04c1.44,-0.67 3.01,-1.01 4.6,-1.01z"/>
  <path class="fil1" d="M7.93 27.4c-1.13,-0.55 -2.31,-1 -3.53,-1.33l-0.2 0.26c2.14,1.54 3.41,4.02 3.41,6.66 0,0.34 -0.02,0.67 -0.06,0.99l3.24 -4.16 0.02 -0.02c-0.88,-0.89 -1.85,-1.69 -2.88,-2.4z"/>
  <g id="_3003415745776">
   <g>
    <g>
     <path class="fil3" d="M18.82 13.49l-1.03 0 0 -2.36c0,-1.67 -1.39,-3.03 -3.1,-3.03 -1.71,0 -3.1,1.36 -3.1,3.03l0 2.36 -1.03 0c-0.94,0 -1.72,0.77 -1.72,1.72l0 5.85c0,0.94 0.78,1.72 1.72,1.72l8.26 0c0.95,0 1.72,-0.78 1.72,-1.72l0 -5.85c0,-0.95 -0.77,-1.72 -1.72,-1.72zm-6.08 -2.36c0,-1.04 0.88,-1.88 1.95,-1.88 1.08,0 1.95,0.84 1.95,1.88l0 2.36 -3.9 0 0 -2.36zm6.65 9.93c0,0.31 -0.25,0.57 -0.57,0.57l-8.26 0c-0.31,0 -0.57,-0.26 -0.57,-0.57l0 -5.85c0,-0.32 0.26,-0.58 0.57,-0.58l8.26 0c0.32,0 0.57,0.26 0.57,0.58l0 5.85z"/>
    </g>
   </g>
   <g>
    <g>
     <path class="fil3" d="M14.69 16.3c-0.58,0 -1.06,0.47 -1.06,1.06 0,0.37 0.2,0.7 0.49,0.89l0 1.26c0,0.31 0.25,0.57 0.57,0.57 0.32,0 0.57,-0.26 0.57,-0.57l0 -1.26c0.3,-0.19 0.49,-0.52 0.49,-0.89 0,-0.59 -0.47,-1.06 -1.06,-1.06z"/>
    </g>
   </g>
   <g>
   </g>
   <g>
   </g>
   <g>
   </g>
   <g>
   </g>
   <g>
   </g>
   <g>
   </g>
   <g>
   </g>
   <g>
   </g>
   <g>
   </g>
   <g>
   </g>
   <g>
   </g>
   <g>
   </g>
   <g>
   </g>
   <g>
   </g>
   <g>
   </g>
  </g>
 </g>
</svg>
