<?xml version="1.0" encoding="UTF-8"?>


<!DOCTYPE svg PUBLIC "-//W3C//DTD SVG 1.1//EN" "http://www.w3.org/Graphics/SVG/1.1/DTD/svg11.dtd">

<svg xmlns="http://www.w3.org/2000/svg" xml:space="preserve" width="512px" height="512px" version="1.1" style="shape-rendering:geometricPrecision; text-rendering:geometricPrecision; image-rendering:optimizeQuality; fill-rule:evenodd; clip-rule:evenodd"
viewBox="0 0 87.83 87.83"
 xmlns:xlink="http://www.w3.org/1999/xlink"
 xmlns:xodm="http://www.corel.com/coreldraw/odm/2003">
 <defs>
  <style type="text/css">
   <![CDATA[
    .fil1 {fill:#1A0B38}
    .fil4 {fill:#331651}
    .fil0 {fill:#582A7C}
    .fil3 {fill:#663C8E}
    .fil2 {fill:#723176}
    .fil5 {fill:#80B4FB}
    .fil7 {fill:#DA4A54}
    .fil8 {fill:#DD636E}
    .fil6 {fill:#E28086}
    .fil10 {fill:#FFD064}
    .fil9 {fill:#FFE07D}
   ]]>
  </style>
 </defs>
 <g id="Layer_x0020_1">
  <metadata id="CorelCorpID_0Corel-Layer"/>
  <path class="fil0" d="M86.25 17.14c-0.08,0.27 -1.66,0.33 -1.72,0.37 -0.02,0.02 -7.19,6.64 -7.23,6.62 3.84,2.21 8.21,2.08 9.71,0.58 1.37,-1.36 0.97,-4.2 -0.76,-7.57z"/>
  <path class="fil0" d="M65.4 11.85c0,0 5.02,-10.19 5.29,-10.27 -3.37,-1.73 -6.21,-2.12 -7.57,-0.76 -1.18,1.18 -1.52,3.94 -0.33,6.74 -0.01,-0.02 2.05,3.76 2.61,4.28l0 0.01z"/>
  <path class="fil1" d="M72.94 14.89c5.52,3.5 10.37,4.81 12.73,3.09 0.06,-0.05 0.12,-0.1 0.18,-0.15 1.59,-1.59 -0.67,-6.43 -5.04,-10.8 -4.38,-4.38 -9.22,-6.64 -10.81,-5.05 -1.55,1.56 -1.54,6.71 2.62,11 0.18,0.18 0.32,1.91 0.32,1.91l0 0z"/>
  <path class="fil2" d="M72.82 15.03l1.78 -1.78c0.18,-0.18 0.18,-0.47 0,-0.65 -4.01,-4.14 -6.11,-8.59 -4.87,-10.3l-4.92 6.48c2.69,2.5 5.42,4.62 8.01,6.25z"/>
  <path class="fil3" d="M66.5 20.5c2.63,2.63 11.99,2.93 11.99,2.93l7.18 -5.45c-3.69,2.7 -13.5,-2.05 -22.41,-10.95l-0.01 0.01c0.01,-0.01 -0.22,9.99 3.25,13.46l0 0z"/>
  <path class="fil4" d="M75.19 21.25c0,0 -29.86,20.53 -32.65,23.01 0.58,1.11 10.92,4.34 13.06,5.62 3.93,-3.73 8.06,-7.26 12.38,-10.56l18.76 -14.37c-2.07,1.52 -6.66,-0.05 -11.55,-3.7l0 0z"/>
  <path class="fil4" d="M13.21 83.8c5,3.64 9.63,5.08 11.5,3.21 0.09,-0.08 0.17,-0.18 0.24,-0.28l13.37 -17.46 2.4 -25.79 -27.51 40.32z"/>
  <path class="fil5" d="M44.08 52.11c-0.01,0 -0.02,0 -0.03,0 0.01,0 0.02,0 0.03,0z"/>
  <path class="fil2" d="M38.32 50.87c0,0 2.4,-10.76 -6.69,-12.35 -3.75,3.52 -7.68,6.86 -11.77,9.99l-18.76 14.37c0,0 0,0 0,0 -0.1,0.08 -0.2,0.15 -0.28,0.24 -2.48,2.48 0.86,9.83 7.46,16.43 1.63,1.63 3.3,3.06 4.93,4.25l25.11 -32.79 0 -0.14z"/>
  <path class="fil2" d="M75.19 21.25c-1.53,-1.14 -3.09,-2.48 -4.61,-4 -6.36,-6.37 -9.7,-13.44 -7.7,-16.15l-14.37 18.76c-3.3,4.31 -6.83,8.44 -10.56,12.37 1.29,2.14 1.21,7.89 2.77,9.81 1.89,-0.08 7.68,-0.61 8,0 2.8,-2.48 5.68,-4.86 8.65,-7.14l17.82 -13.65z"/>
  <path class="fil6" d="M42.23 38.31c-1.58,-1.93 -3.02,-3.98 -4.31,-6.14l-0.15 -0.24c-0.3,-0.5 -1.04,-0.47 -1.3,0.06l-0.7 1.44c-0.68,1.38 -1.87,2.46 -3.31,3l-0.87 0.33c-0.43,0.16 -0.61,0.68 -0.37,1.07l0.39 0.65c1.21,2.02 2.55,3.95 4.02,5.78l6.6 -5.95z"/>
  <path class="fil7" d="M51.69 54.72c0.59,-1.14 1.54,-2.08 2.72,-2.65l1.44 -0.71c0.52,-0.26 0.55,-1 0.05,-1.3l-0.24 -0.14c-2.16,-1.3 -4.21,-2.74 -6.14,-4.32l-2.77 2.92 4.94 6.2z"/>
  <path class="fil8" d="M58.38 68.81l-9.64 -20.29 -5.22 1.64 3.23 13.81 4.02 8.45c0.05,0.1 0.18,0.1 0.23,0.01l1.87 -3.2c0.35,-0.6 1.03,-0.92 1.72,-0.82l3.66 0.57c0.1,0.02 0.18,-0.08 0.13,-0.17l0 0z"/>
  <path class="fil6" d="M38.32 50.87l0 22.46c0,0.1 0.12,0.16 0.2,0.11l3.07 -2.09c0.57,-0.39 1.33,-0.39 1.9,0l3.07 2.09c0.08,0.05 0.19,-0.01 0.19,-0.11l0 -22.46 -8.43 0z"/>
  <circle class="fil9" cx="42.54" cy="45.29" r="6.99"/>
  <circle class="fil10" cx="42.54" cy="45.29" r="2.57"/>
 </g>
</svg>
