<?xml version="1.0" encoding="UTF-8"?>
<!--
  - Copyright (c) 2023. Selldone® Business OS™
  -
  - Author: M.Pajuhaan
  - Web: https://selldone.com
  - ━━━━━━━━━━━━━━━━━━━━━━━━━━━━━━━━━━━━━━━━━━━━━━━━━━━━━━
  -
  - All rights reserved. In the weave of time, where traditions and innovations intermingle, this content was crafted.
  - From the essence of thought, through the corridors of creativity, each word, and sentiment has been molded.
  - Not just to exist, but to inspire. Like an artist's stroke or a sculptor's chisel, every nuance is deliberate.
  - Our journey is not just about reaching a destination, but about creating a masterpiece.
  - Tread carefully, for you're treading on dreams.
  -->

<!DOCTYPE svg PUBLIC "-//W3C//DTD SVG 1.1//EN" "http://www.w3.org/Graphics/SVG/1.1/DTD/svg11.dtd">
<!-- Creator: CorelDRAW 2019 (64-Bit) -->
<svg xmlns="http://www.w3.org/2000/svg" xml:space="preserve" width="372px" height="453px" version="1.1" style="shape-rendering:geometricPrecision; text-rendering:geometricPrecision; image-rendering:optimizeQuality; fill-rule:evenodd; clip-rule:evenodd"
viewBox="0 0 37.57 45.73"
 xmlns:xlink="http://www.w3.org/1999/xlink"
 xmlns:xodm="http://www.corel.com/coreldraw/odm/2003">
 <defs>
  <style type="text/css">
   <![CDATA[
    .fil5 {fill:#FEFEFE}
    .fil1 {fill:#783838}
    .fil3 {fill:#AD3C3C}
    .fil4 {fill:#B20D24}
    .fil2 {fill:#ED4E4E}
    .fil0 {fill:#EF2648}
   ]]>
  </style>
 </defs>
 <g id="Layer_x0020_1">
  <metadata id="CorelCorpID_0Corel-Layer"/>
  <path class="fil0" d="M5.66 33.55l-5.66 7.28 6.53 -0.81 1.64 5.71 5.71 -7.35 0.03 -0.03c-1.13,-1.14 -2.37,-2.17 -3.7,-3.08 -1.46,-0.72 -2.98,-1.29 -4.55,-1.72z"/>
  <path class="fil0" d="M31.9 33.55c-1.56,0.43 -3.09,1 -4.54,1.72 -1.33,0.9 -2.57,1.93 -3.7,3.08l5.74 7.38 1.63 -5.71 6.54 0.81 -5.67 -7.28z"/>
  <path class="fil1" d="M35.93 20.42c0,-3.43 2.13,-7.45 0.54,-10.21 -1.65,-2.85 -6.26,-3 -9.11,-4.65 -2.77,-1.6 -5.16,-5.56 -8.58,-5.56 -3.42,0 -5.81,3.96 -8.57,5.56 -2.85,1.65 -7.46,1.8 -9.11,4.65 -1.6,2.76 0.53,6.78 0.53,10.21 0,3.42 -2.13,7.44 -0.53,10.2 1.65,2.85 6.26,3 9.11,4.65 2.76,1.6 5.15,5.56 8.57,5.56 3.42,0 5.81,-3.96 8.58,-5.56 2.85,-1.65 7.46,-1.8 9.11,-4.64 1.59,-2.77 -0.54,-6.79 -0.54,-10.21z"/>
  <circle class="fil2" cx="18.78" cy="20.42" r="13.88"/>
  <path class="fil3" d="M36.47 10.21c-0.04,-0.06 -0.09,-0.12 -0.12,-0.17 -1.2,2.28 -2.63,4.45 -4.26,6.46 2.17,7.35 -2.03,15.06 -9.38,17.23 -4.83,1.42 -10.05,0.12 -13.65,-3.41 -2.44,0.47 -4.93,0.71 -7.43,0.71 -0.08,0 -0.17,0 -0.26,0 1.84,2.46 6.13,2.67 8.84,4.24 2.76,1.6 5.15,5.56 8.57,5.56 3.42,0 5.81,-3.96 8.58,-5.56 2.85,-1.65 7.46,-1.79 9.11,-4.64 1.59,-2.77 -0.54,-6.79 -0.54,-10.21 0,-3.43 2.13,-7.45 0.54,-10.21z"/>
  <path class="fil4" d="M30.62 38.38c2.12,0 4.21,0.48 6.12,1.39l-4.84 -6.22c-1.56,0.43 -3.09,1 -4.54,1.72 -1.33,0.9 -2.57,1.93 -3.7,3.07l1.03 1.34c1.86,-0.86 3.89,-1.3 5.93,-1.3z"/>
  <path class="fil4" d="M10.21 35.27c-1.46,-0.71 -2.98,-1.29 -4.55,-1.71l-0.25 0.32c2.75,1.99 4.39,5.19 4.39,8.59 0,0.42 -0.03,0.85 -0.08,1.27l4.16 -5.36 0.03 -0.03c-1.13,-1.14 -2.37,-2.17 -3.7,-3.08z"/>
  <g id="_3003490919712">
   <g>
    <g>
     <path class="fil5" d="M24.22 17.36l-1.33 0 0 -3.03c0,-2.16 -1.78,-3.91 -3.98,-3.91 -2.2,0 -3.99,1.75 -3.99,3.91l0 3.03 -1.32 0c-1.22,0 -2.22,0.99 -2.22,2.21l0 7.53c0,1.22 1,2.21 2.22,2.21l10.62 0c1.22,0 2.22,-0.99 2.22,-2.21l0 -7.53c0,-1.22 -1,-2.21 -2.22,-2.21zm-7.82 -3.03c0,-1.34 1.12,-2.43 2.51,-2.43 1.38,0 2.51,1.09 2.51,2.43l0 3.03 -5.02 0 0 -3.03zm8.56 12.77c0,0.41 -0.33,0.74 -0.74,0.74l-10.62 0c-0.41,0 -0.74,-0.33 -0.74,-0.74l0 -7.53c0,-0.4 0.33,-0.73 0.74,-0.73l10.62 0c0.41,0 0.74,0.33 0.74,0.73l0 7.53z"/>
    </g>
   </g>
   <g>
    <g>
     <path class="fil5" d="M18.91 20.98c-0.75,0 -1.37,0.61 -1.37,1.36 0,0.48 0.25,0.91 0.63,1.15l0 1.62c0,0.41 0.33,0.74 0.74,0.74 0.41,0 0.74,-0.33 0.74,-0.74l0 -1.62c0.37,-0.24 0.62,-0.67 0.62,-1.15 0,-0.75 -0.61,-1.36 -1.36,-1.36z"/>
    </g>
   </g>
   <g>
   </g>
   <g>
   </g>
   <g>
   </g>
   <g>
   </g>
   <g>
   </g>
   <g>
   </g>
   <g>
   </g>
   <g>
   </g>
   <g>
   </g>
   <g>
   </g>
   <g>
   </g>
   <g>
   </g>
   <g>
   </g>
   <g>
   </g>
   <g>
   </g>
  </g>
 </g>
</svg>
