

<svg id="Capa_1" enable-background="new 0 0 510 510" height="512" viewBox="0 0 510 510" width="512" xmlns="http://www.w3.org/2000/svg" xmlns:xlink="http://www.w3.org/1999/xlink"><linearGradient id="lg1"><stop offset="0" stop-color="#fd8087"/><stop offset=".5213" stop-color="#fb2b3a"/><stop offset="1" stop-color="#d90d80"/></linearGradient><linearGradient id="SVGID_1_" gradientUnits="userSpaceOnUse" x1="222.471" x2="453.546" xlink:href="#lg1" y1="254.771" y2="254.771"/><linearGradient id="SVGID_2_" gradientUnits="userSpaceOnUse" x1="-.179" x2="304.584" xlink:href="#lg1" y1="254.771" y2="254.771"/><linearGradient id="lg2"><stop offset="0" stop-color="#fef056"/><stop offset=".5213" stop-color="#f4d902"/><stop offset="1" stop-color="#fe9738"/></linearGradient><linearGradient id="SVGID_3_" gradientUnits="userSpaceOnUse" x1="34.302" x2="630.838" xlink:href="#lg2" y1="285.217" y2="285.217"/><linearGradient id="SVGID_4_" gradientUnits="userSpaceOnUse" x1="32.85" x2="504.249" xlink:href="#lg2" y1="256.434" y2="256.434"/><linearGradient id="lg3"><stop offset="0" stop-color="#60b7ff"/><stop offset=".5857" stop-color="#0182fc"/><stop offset="1" stop-color="#2740b0"/></linearGradient><linearGradient id="SVGID_5_" gradientUnits="userSpaceOnUse" x1="13.04" x2="499.646" xlink:href="#lg3" y1="255" y2="255"/><linearGradient id="SVGID_6_" gradientUnits="userSpaceOnUse" x1="-181.926" x2="469.316" xlink:href="#lg3" y1="255.004" y2="255.004"/><g><circle cx="267.511" cy="254.771" fill="url(#SVGID_1_)" r="205.184"/><path d="m429.599 380.579-125.808-125.808v-201.987c-11.776-2.101-23.9-3.198-36.28-3.198-113.32 0-205.184 91.864-205.184 205.184s91.864 205.184 205.184 205.184c65.907.001 124.548-31.079 162.088-79.375z" fill="url(#SVGID_2_)"/><g><path d="m426.232 96.05-158.721 158.721s-117.83-207.731-162.781-162.781c-89.901 89.901-89.901 235.659-.001 325.561 89.681 89.682 235.882 89.682 325.563 0 88.525-88.526 89.879-231.213 4.063-321.396-2.197-2.309-5.869-2.359-8.123-.105z" fill="url(#SVGID_3_)"/></g><path d="m434.351 96.158c-2.192-2.312-5.865-2.362-8.117-.11l-17.196 17.195c48.187 61.66 60.556 142.215 37.11 213.571-7.971 24.258-38.773 31.537-56.828 13.482l-85.526-85.526v-36.283l-36.283 36.283s-26.814-229.046-40.056-226.704c-39.275 6.896-77.099 24.042-109.188 51.426-4.634 3.954-9.148 8.117-13.532 12.501-89.901 89.901-89.911 235.652-.01 325.552 4.854 4.854 9.879 9.449 15.044 13.772 37.153 31.138 81.944 48.674 127.715 52.637 65.449 5.655 132.889-16.485 182.814-66.41 6.135-6.136 11.84-12.521 17.135-19.137 71.154-88.897 66.79-218.313-13.082-302.249z" fill="url(#SVGID_4_)"/><path d="m251.615.029c-133.429 8.199-239.133 118.912-239.333 254.357-.205 139.027 111.96 253.312 250.968 255.579 66.371 1.082 127.062-23.174 173.035-63.729 6.527-5.758 6.878-15.815.723-21.97l-170.352-169.6-6.144-239.606c-.001-8.643-.269-15.562-8.897-15.031z" fill="url(#SVGID_5_)"/><path d="m437.007 424.267-169.496-169.496v-239.71c0-8.709-7.367-15.562-16.059-15.023-9.941.617-19.724 1.815-29.325 3.538 3.244 2.761 5.328 6.869 5.328 11.484v220.185c0 12.501 4.966 24.491 13.806 33.33l155.69 155.69c6.129 6.129 5.843 16.174-.655 21.91-40.279 35.558-91.869 58.597-148.683 63.037 5.172.401 10.382.666 15.636.752 66.421 1.083 127.155-23.211 173.14-63.821 6.483-5.724 6.734-15.761.618-21.876z" fill="url(#SVGID_6_)"/></g></svg>