<svg id="Capa_1" enable-background="new 0 0 509.032 509.032" height="512" viewBox="0 0 509.032 509.032" width="512" xmlns="http://www.w3.org/2000/svg" xmlns:xlink="http://www.w3.org/1999/xlink"><linearGradient id="lg1"><stop offset="0" stop-color="#fef056"/><stop offset=".5213" stop-color="#f4d902"/><stop offset="1" stop-color="#fe9738"/></linearGradient><linearGradient id="SVGID_1_" gradientUnits="userSpaceOnUse" x1="19.991" x2="334.699" xlink:href="#lg1" y1="228.38" y2="228.38"/><linearGradient id="SVGID_2_" gradientUnits="userSpaceOnUse" x1="-89.484" x2="290.865" xlink:href="#lg1" y1="296.65" y2="296.65"/><linearGradient id="SVGID_3_" gradientUnits="userSpaceOnUse" x1="-106.484" x2="259.12" xlink:href="#lg1" y1="232.266" y2="232.266"/><linearGradient id="lg2"><stop offset="0" stop-color="#a2e62e"/><stop offset=".5857" stop-color="#81b823"/><stop offset="1" stop-color="#037e73"/></linearGradient><linearGradient id="SVGID_4_" gradientUnits="userSpaceOnUse" x1="-56.484" x2="257.951" xlink:href="#lg2" y1="269.609" y2="269.609"/><linearGradient id="lg3"><stop offset="0" stop-color="#fd8087"/><stop offset=".5213" stop-color="#fb2b3a"/><stop offset="1" stop-color="#d90d80"/></linearGradient><linearGradient id="SVGID_5_" gradientUnits="userSpaceOnUse" x1="278.516" x2="561.544" xlink:href="#lg3" y1="269.615" y2="269.615"/><linearGradient id="lg4"><stop offset="0" stop-color="#fbc56d"/><stop offset=".5841" stop-color="#fe9738"/><stop offset=".9984" stop-color="#fb2b3a"/></linearGradient><linearGradient id="SVGID_6_" gradientUnits="userSpaceOnUse" x1="80.516" x2="427.76" xlink:href="#lg4" y1="187.638" y2="187.638"/><linearGradient id="SVGID_7_" gradientUnits="userSpaceOnUse" x1="127.516" x2="477.521" xlink:href="#lg3" y1="269.615" y2="269.615"/><linearGradient id="SVGID_8_" gradientUnits="userSpaceOnUse" x1="81.516" x2="376.625" xlink:href="#lg4" y1="152.671" y2="152.671"/><linearGradient id="SVGID_9_" gradientUnits="userSpaceOnUse" x1="-120.484" x2="223.01" xlink:href="#lg2" y1="306.263" y2="306.263"/><linearGradient id="lg5"><stop offset="0" stop-color="#d8ecfe"/><stop offset=".5667" stop-color="#b3dafe"/><stop offset=".9955" stop-color="#8ac9fe"/></linearGradient><linearGradient id="SVGID_10_" gradientUnits="userSpaceOnUse" x1="236.622" x2="284.708" xlink:href="#lg5" y1="256.219" y2="256.219"/><linearGradient id="SVGID_11_" gradientUnits="userSpaceOnUse" x1="138.85" x2="321.521" xlink:href="#lg5" y1="256.219" y2="256.219"/><linearGradient id="lg6"><stop offset="0" stop-color="#60b7ff"/><stop offset=".5857" stop-color="#0182fc"/><stop offset="1" stop-color="#2740b0"/></linearGradient><linearGradient id="SVGID_12_" gradientUnits="userSpaceOnUse" x1="198.516" x2="323.552" xlink:href="#lg6" y1="359.766" y2="359.766"/><linearGradient id="SVGID_13_" gradientUnits="userSpaceOnUse" x1="140.85" x2="322.775" xlink:href="#lg6" y1="359.766" y2="359.766"/><g><g><path d="m254.516 233.533c65.03 0 125.576 49.174 132.481 112.366.86 7.868.426 5.867 8.341 5.867h98.259c8.877 0 8.964.522 8.404-8.337-8.423-133.22-112.14-238.663-247.485-238.663-70.415 0-134.165 28.541-180.31 74.686-42.551 42.55-63.134 100.067-67.175 163.977-.56 8.859-.472 7.337 8.404 7.337h98.259c7.915 0 7.481 3.001 8.341-4.867 3.204-29.319 23.452-55.619 43.225-75.392 22.844-22.844 54.398-36.974 89.256-36.974z" fill="url(#SVGID_1_)"/><path d="m214.496 233.533c-65.03 0-118.576 49.174-125.481 112.366-.86 7.868-7.426 13.867-15.341 13.867h40.02c7.915 0 14.481-5.999 15.341-13.867 6.182-56.575 49.749-101.906 105.471-110.782-6.518-1.038-13.2-1.584-20.01-1.584z" fill="url(#SVGID_2_)"/><g><path d="m509.001 343.429c-8.423-133.22-119.14-238.663-254.485-238.663-6.735 0-13.406.272-20.01.785 126.098 9.79 226.471 111.288 234.475 237.878.56 8.859-6.528 16.337-15.404 16.337h40.02c8.877 0 15.964-7.478 15.404-16.337z" fill="url(#SVGID_3_)"/></g><path d="m.031 343.429c-.56 8.859 6.528 16.337 15.404 16.337h98.259c7.915 0 14.481-5.999 15.341-13.867 3.204-29.319 16.452-55.616 36.225-75.389l-91.056-91.058c-42.549 42.55-70.132 100.068-74.173 163.977z" fill="url(#SVGID_4_)"/><path d="m509.001 343.429c-4.041-63.909-31.633-121.416-74.183-163.965l-91.046 91.046c19.773 19.772 33.021 46.069 36.225 75.389.86 7.868 7.426 13.867 15.341 13.867h98.259c8.877 0 15.964-7.478 15.404-16.337z" fill="url(#SVGID_5_)"/><path d="m254.516 104.766v128.767c34.858 0 66.412 14.134 89.256 36.978l91.046-91.046c-46.146-46.147-109.886-74.699-180.302-74.699z" fill="url(#SVGID_6_)"/><path d="m509.001 343.429c-4.041-63.909-31.633-121.416-74.183-163.965l-21.112 21.112c31.728 39.653 51.869 88.979 55.275 142.853.56 8.859-6.528 16.337-15.404 16.337h40.02c8.877 0 15.964-7.478 15.404-16.337z" fill="url(#SVGID_7_)"/><path d="m413.706 200.576 21.112-21.112c-46.146-46.146-109.886-74.698-180.302-74.698v3.141c64.152 10.114 120.355 44.134 159.19 92.669z" fill="url(#SVGID_8_)"/><path d="m89.016 345.899c-.86 7.868-7.426 13.867-15.341 13.867h40.02c7.915 0 14.481-5.999 15.341-13.867 3.204-29.319 16.452-55.616 36.225-75.389l-17.751-17.751c-31.889 20.004-54.203 53.862-58.494 93.14z" fill="url(#SVGID_9_)"/></g><g><path d="m246.713 157.176-16.977 29.405c-3.44 5.959.8 13.392 7.64 13.509v159.675h34.279v-159.674c6.84-.117 11.081-7.55 7.64-13.509l-16.977-29.405c-3.467-6.008-12.137-6.008-15.605-.001z" fill="url(#SVGID_10_)"/><path d="m279.296 186.582-16.977-29.405c-3.468-6.007-12.138-6.007-15.605 0l-4.703 8.146 12.274 21.26c2.15 3.724 1.3 8.024-1.31 10.754-3.879 4.057-6.33 9.262-6.33 14.875v147.555h25.011v-159.676c6.839-.118 11.08-7.55 7.64-13.509z" fill="url(#SVGID_11_)"/></g><circle cx="254.516" cy="359.766" fill="url(#SVGID_12_)" r="44.5"/><path d="m254.516 315.266c-4.344 0-8.537.634-12.505 1.794 18.486 5.405 31.994 22.473 31.994 42.706s-13.508 37.301-31.994 42.706c3.969 1.16 8.162 1.794 12.505 1.794 24.577 0 44.5-19.923 44.5-44.5s-19.923-44.5-44.5-44.5z" fill="url(#SVGID_13_)"/></g></svg>