<svg xmlns:xlink="http://www.w3.org/1999/xlink" id="Capa_1" enable-background="new 0 0 510 510" height="512" viewBox="0 0 510 510"
     width="512" xmlns="http://www.w3.org/2000/svg">
    <linearGradient id="lg1">
        <stop offset="0" stop-color="#fef056"/>
        <stop offset=".5213" stop-color="#f4d902"/>
        <stop offset="1" stop-color="#fe9738"/>
    </linearGradient>
    <linearGradient id="SVGID_1_" gradientUnits="userSpaceOnUse" x1="15.102" x2="496.861" xlink:href="#lg1" y1="289.288"
                    y2="289.288"/>
    <linearGradient id="SVGID_2_" gradientUnits="userSpaceOnUse" x1="-121.333" x2="461.884" xlink:href="#lg1"
                    y1="289.288" y2="289.288"/>
    <linearGradient id="lg2">
        <stop offset="0" stop-color="#fbc56d"/>
        <stop offset=".5841" stop-color="#fe9738"/>
        <stop offset=".9984" stop-color="#fb2b3a"/>
    </linearGradient>
    <linearGradient id="SVGID_3_" gradientUnits="userSpaceOnUse" x1="64.6" x2="512.819" xlink:href="#lg2" y1="408.534"
                    y2="408.534"/>
    <linearGradient id="SVGID_4_" gradientUnits="userSpaceOnUse" x1="-10.667" x2="490.162" xlink:href="#lg2"
                    y1="408.534" y2="408.534"/>
    <linearGradient id="SVGID_5_" gradientUnits="userSpaceOnUse" x1="-10.667" x2="490.162" xlink:href="#lg2"
                    y1="426.739" y2="426.739"/>
    <linearGradient id="lg3">
        <stop offset="0" stop-color="#d8ecfe"/>
        <stop offset=".5667" stop-color="#b3dafe"/>
        <stop offset=".9955" stop-color="#8ac9fe"/>
    </linearGradient>
    <linearGradient id="SVGID_6_" gradientUnits="userSpaceOnUse" x1="0" x2="510" xlink:href="#lg3" y1="255" y2="255"/>
    <linearGradient id="lg4">
        <stop offset="0" stop-color="#fd8087"/>
        <stop offset=".5213" stop-color="#fb2b3a"/>
        <stop offset="1" stop-color="#d90d80"/>
    </linearGradient>
    <linearGradient id="SVGID_7_" gradientUnits="userSpaceOnUse" x1="136.571" x2="155.15" xlink:href="#lg4" y1="272.429"
                    y2="272.429"/>
    <linearGradient id="SVGID_8_" gradientUnits="userSpaceOnUse" x1="90.642" x2="109.221" xlink:href="#lg4" y1="426"
                    y2="426"/>
    <linearGradient id="SVGID_9_" gradientUnits="userSpaceOnUse" x1="178.142" x2="196.721" xlink:href="#lg4" y1="133"
                    y2="133"/>
    <linearGradient id="SVGID_10_" gradientUnits="userSpaceOnUse" x1="248.284" x2="266.864" xlink:href="#lg4"
                    y1="200.26" y2="200.26"/>
    <linearGradient id="SVGID_11_" gradientUnits="userSpaceOnUse" x1="298.735" x2="317.315" xlink:href="#lg4"
                    y1="306.705" y2="306.705"/>
    <linearGradient id="SVGID_12_" gradientUnits="userSpaceOnUse" x1="349.605" x2="368.184" xlink:href="#lg4"
                    y1="283.676" y2="283.676"/>
    <linearGradient id="SVGID_13_" gradientUnits="userSpaceOnUse" x1="462.294" x2="480.874" xlink:href="#lg4"
                    y1="418.81" y2="418.81"/>
    <linearGradient id="SVGID_14_" gradientUnits="userSpaceOnUse" x1="370.011" x2="521.173" xlink:href="#lg3" y1="31"
                    y2="31"/>
    <linearGradient id="SVGID_15_" gradientUnits="userSpaceOnUse" x1="370.011" x2="521.173" xlink:href="#lg3" y1="78"
                    y2="78"/>
    <linearGradient id="SVGID_16_" gradientUnits="userSpaceOnUse" x1="309.5" x2="355.72" xlink:href="#lg1" y1="31"
                    y2="31"/>
    <linearGradient id="SVGID_17_" gradientUnits="userSpaceOnUse" x1="314.5" x2="358.73" xlink:href="#lg2" y1="78"
                    y2="78"/>
    <g>
        <path d="m335.18 294.466c-13.889 18.931-43.444 13.799-50.138-8.706l-43.53-146.347c-8.16-27.435-47.014-27.435-55.174 0l-95.28 320.325h411.192l-121.256-165.272c-11.352-15.473-34.462-15.473-45.814 0z"
              fill="url(#SVGID_1_)"/>
        <path d="m210.485 160.76 43.53 146.347c6.694 22.506 36.249 27.637 50.138 8.706 11.352-15.473 34.462-15.473 45.814 0l105.594 143.926h46.688l-121.255-165.273c-11.352-15.473-34.462-15.473-45.814 0-13.889 18.931-43.444 13.799-50.138-8.706l-43.53-146.347c-8.16-27.434-47.014-27.434-55.174 0l-.284.956c10.642 1.12 20.717 7.903 24.431 20.391z"
              fill="url(#SVGID_2_)"/>
        <path d="m245.143 409.88 30.486 11.323c10.025 3.723 21.29 1.521 29.175-5.702l55.327-50.685c10.894-9.98 27.61-9.98 38.504 0l103.615 94.922h-411.193l134.24-49.858c6.402-2.378 13.444-2.378 19.846 0z"
              fill="url(#SVGID_3_)"/>
        <g>
            <path d="m398.635 364.816c-10.894-9.98-27.609-9.98-38.504 0l-21.344 19.554c10.724-7.019 25.103-6.077 34.837 2.841l79.169 72.527h49.457z"
                  fill="url(#SVGID_4_)"/>
            <path d="m275.629 421.203-30.486-11.323c-6.402-2.378-13.444-2.378-19.846 0l-30.594 11.363 55.915 22.355c10.025 3.723 21.29 1.521 29.175-5.702l21.388-19.593c-7.499 4.921-16.976 6.085-25.552 2.9z"
                  fill="url(#SVGID_5_)"/>
        </g>
        <path d="m502.426 452.142h-444.568v-444.568c0-4.183-3.391-7.574-7.574-7.574s-7.574 3.391-7.574 7.574v39.065h-35.136c-4.183 0-7.574 3.391-7.574 7.574s3.391 7.574 7.574 7.574h35.136v44.662h-22.247c-4.183 0-7.574 3.391-7.574 7.574s3.391 7.574 7.574 7.574h22.247v44.662h-22.247c-4.183 0-7.574 3.391-7.574 7.574s3.391 7.574 7.574 7.574h22.247v44.662h-35.136c-4.183 0-7.574 3.391-7.574 7.574s3.391 7.574 7.574 7.574h35.136v44.662h-22.247c-4.183 0-7.574 3.391-7.574 7.574s3.391 7.574 7.574 7.574h22.247v44.662h-22.247c-4.183 0-7.574 3.391-7.574 7.574s3.391 7.574 7.574 7.574h22.247v44.662h-35.136c-4.183 0-7.574 3.391-7.574 7.574s3.391 7.574 7.574 7.574h35.136v31.49h-35.136c-4.183 0-7.574 3.391-7.574 7.574s3.391 7.574 7.574 7.574h35.136v35.135c0 4.183 3.391 7.574 7.574 7.574s7.574-3.391 7.574-7.574v-35.13h31.49v35.135c0 4.183 3.391 7.574 7.574 7.574s7.574-3.391 7.574-7.574v-35.135h44.662v22.247c0 4.183 3.391 7.574 7.574 7.574s7.574-3.391 7.574-7.574v-22.247h44.662v22.247c0 4.183 3.391 7.574 7.574 7.574s7.574-3.391 7.574-7.574v-22.247h44.662v35.135c0 4.183 3.391 7.574 7.574 7.574s7.574-3.391 7.574-7.574v-35.135h44.662v22.247c0 4.183 3.391 7.574 7.574 7.574s7.574-3.391 7.574-7.574v-22.247h44.662v22.247c0 4.183 3.391 7.574 7.574 7.574s7.574-3.391 7.574-7.574v-22.247h44.662v35.135c0 4.183 3.391 7.574 7.574 7.574s7.574-3.391 7.574-7.574v-35.135h39.065c4.183 0 7.574-3.391 7.574-7.574s-3.386-7.574-7.569-7.574z"
              fill="url(#SVGID_6_)"/>
        <circle cx="147.429" cy="272.429" fill="url(#SVGID_7_)" r="7.929"/>
        <circle cx="101.5" cy="426" fill="url(#SVGID_8_)" r="7.929"/>
        <circle cx="189" cy="133" fill="url(#SVGID_9_)" r="7.929"/>
        <circle cx="259.143" cy="200.26" fill="url(#SVGID_10_)" r="7.929"/>
        <circle cx="309.594" cy="306.705" fill="url(#SVGID_11_)" r="7.929"/>
        <circle cx="360.463" cy="283.676" fill="url(#SVGID_12_)" r="7.929"/>
        <circle cx="473.152" cy="418.81" fill="url(#SVGID_13_)" r="7.929"/>
        <g>
            <g>
                <path d="m496.391 47h-126.735c-3.236 0-5.859-2.623-5.859-5.859v-20.282c0-3.236 2.623-5.859 5.859-5.859h126.735c3.236 0 5.859 2.623 5.859 5.859v20.282c0 3.236-2.624 5.859-5.859 5.859z"
                      fill="url(#SVGID_14_)"/>
                <path d="m427.165 94h-57.509c-3.236 0-5.859-2.623-5.859-5.859v-20.282c0-3.236 2.623-5.859 5.859-5.859h57.509c3.236 0 5.859 2.623 5.859 5.859v20.282c-.001 3.236-2.624 5.859-5.859 5.859z"
                      fill="url(#SVGID_15_)"/>
            </g>
            <path d="m344.729 47h-20.53c-3.167 0-5.735-2.568-5.735-5.735v-20.53c0-3.167 2.568-5.735 5.735-5.735h20.53c3.167 0 5.735 2.568 5.735 5.735v20.53c0 3.167-2.568 5.735-5.735 5.735z"
                  fill="url(#SVGID_16_)"/>
            <path d="m344.729 94h-20.53c-3.167 0-5.735-2.568-5.735-5.735v-20.53c0-3.167 2.568-5.735 5.735-5.735h20.53c3.167 0 5.735 2.568 5.735 5.735v20.53c0 3.167-2.568 5.735-5.735 5.735z"
                  fill="url(#SVGID_17_)"/>
        </g>
    </g>
</svg>