

<svg id="Capa_1" enable-background="new 0 0 510 510" height="512" viewBox="0 0 510 510" width="512" xmlns="http://www.w3.org/2000/svg" xmlns:xlink="http://www.w3.org/1999/xlink"><linearGradient id="lg1"><stop offset="0" stop-color="#eaf6ff"/><stop offset=".5213" stop-color="#d8ecfe"/><stop offset="1" stop-color="#b3dafe"/></linearGradient><linearGradient id="SVGID_1_" gradientUnits="userSpaceOnUse" x1="48.101" x2="530.622" xlink:href="#lg1" y1="127.5" y2="127.5"/><linearGradient id="SVGID_2_" gradientUnits="userSpaceOnUse" x1="-107" x2="379.988" xlink:href="#lg1" y1="223.345" y2="223.345"/><linearGradient id="SVGID_3_" gradientUnits="userSpaceOnUse" x1="-107" x2="379.988" xlink:href="#lg1" y1="81.228" y2="81.228"/><linearGradient id="SVGID_4_" gradientUnits="userSpaceOnUse" x1="-107" x2="379.988" xlink:href="#lg1" y1="178.967" y2="178.967"/><linearGradient id="lg2"><stop offset="0" stop-color="#60b7ff"/><stop offset=".5857" stop-color="#0182fc"/><stop offset="1" stop-color="#2740b0"/></linearGradient><linearGradient id="SVGID_5_" gradientUnits="userSpaceOnUse" x1="24.102" x2="625.989" xlink:href="#lg2" y1="382.5" y2="382.5"/><linearGradient id="SVGID_6_" gradientUnits="userSpaceOnUse" x1="-194" x2="517.009" xlink:href="#lg2" y1="382.499" y2="382.499"/><linearGradient id="lg3"><stop offset="0" stop-color="#d8ecfe"/><stop offset=".5667" stop-color="#b3dafe"/><stop offset=".9955" stop-color="#8ac9fe"/></linearGradient><linearGradient id="SVGID_7_" gradientUnits="userSpaceOnUse" x1="-6" x2="562.004" xlink:href="#lg3" y1="255" y2="255"/><linearGradient id="SVGID_8_" gradientUnits="userSpaceOnUse" x1="363.013" x2="514.175" xlink:href="#lg3" y1="31" y2="31"/><linearGradient id="SVGID_9_" gradientUnits="userSpaceOnUse" x1="302.502" x2="348.721" xlink:href="#lg1" y1="31" y2="31"/><linearGradient id="SVGID_10_" gradientUnits="userSpaceOnUse" x1="66.296" x2="217.458" xlink:href="#lg3" y1="479" y2="479"/><linearGradient id="SVGID_11_" gradientUnits="userSpaceOnUse" x1="10.785" x2="55.015" xlink:href="#lg2" y1="479" y2="479"/><g><path d="m502.584 255c-.89-1.535-2.189-2.988-3.938-4.276l-72.003-53.018c-10.894-8.022-27.609-8.022-38.504 0l-11.453 8.433c-8.681 6.392-22.345 5.311-29.31-2.318l-54.477-59.68c-11.625-12.735-34.637-14.148-48.533-2.979-16.542 13.296-44.755 7.55-51.424-10.472l-42.245-114.152c-8.16-22.051-47.014-22.051-55.174 0l-88.249 238.462z" fill="url(#SVGID_1_)"/><g><path d="m498.646 250.724-72.003-53.018c-10.894-8.022-27.609-8.022-38.504 0l-11.412 8.403c5.035.772 9.865 2.635 13.896 5.603l58.789 43.288h53.172c-.89-1.535-2.189-2.988-3.938-4.276z" fill="url(#SVGID_2_)"/><path d="m192.941 130.69-42.244-114.152c-7.981-21.567-45.307-22.026-54.576-1.405 8.313 2.122 15.537 7.253 18.556 15.411l42.245 114.152c6.67 18.022 34.882 23.768 51.424 10.472 4.235-3.404 9.318-5.632 14.665-6.735-13.038.123-25.855-6.355-30.07-17.743z" fill="url(#SVGID_3_)"/><path d="m347.375 203.821-54.477-59.68c-11.625-12.735-34.637-14.148-48.533-2.979-4.087 3.285-8.887 5.403-13.897 6.465 9.974-.132 19.95 3.443 26.41 10.519l54.477 59.68c6.965 7.63 20.629 8.711 29.31 2.318l11.453-8.433c1.28-.942 2.646-1.764 4.067-2.485-3.392-1.051-6.48-2.852-8.81-5.405z" fill="url(#SVGID_4_)"/></g><path d="m5.968 255c.295 3.681 1.986 7.344 5.387 10.279l72.003 62.133c10.589 9.137 27.915 9.137 38.504 0l11.453-9.883c8.681-7.491 22.345-6.225 29.31 2.717l54.477 69.941c11.625 14.925 34.637 16.58 48.533 3.491 16.542-15.582 44.755-8.848 51.424 12.273l19.772 62.614c17.446 55.247 82.673 55.247 100.119 0l66.436-210.387c.336-1.063.539-2.126.635-3.178z" fill="url(#SVGID_5_)"/><path d="m504.02 255c-.1 1.05-.3 2.11-.63 3.18l-66.44 210.38c-11.6 36.73-44.32 49.04-70.07 36.94 12.99-6.11 24.2-18.43 30.05-36.94l39.238-124.25c8.873-28.096-12.105-56.72-41.569-56.72h-357.389l-25.86-22.31c-.98-.85-1.82-1.76-2.52-2.71-1.74-2.34-2.65-4.95-2.86-7.57z" fill="url(#SVGID_6_)"/><path d="m502.426 247.426h-494.852c-4.183 0-7.574 3.391-7.574 7.574s3.391 7.574 7.574 7.574h494.852c4.183 0 7.574-3.391 7.574-7.574s-3.391-7.574-7.574-7.574z" fill="url(#SVGID_7_)"/><g><g><g><path d="m489.392 47h-126.734c-3.236 0-5.859-2.623-5.859-5.859v-20.282c0-3.236 2.623-5.859 5.859-5.859h126.735c3.236 0 5.859 2.623 5.859 5.859v20.282c-.001 3.236-2.624 5.859-5.86 5.859z" fill="url(#SVGID_8_)"/></g><path d="m337.731 47h-20.531c-3.167 0-5.735-2.568-5.735-5.735v-20.53c0-3.167 2.568-5.735 5.735-5.735h20.53c3.167 0 5.735 2.568 5.735 5.735v20.53c.001 3.168-2.567 5.735-5.734 5.735z" fill="url(#SVGID_9_)"/></g><g><g><path d="m123.45 495h-57.509c-3.236 0-5.859-2.623-5.859-5.859v-20.282c0-3.236 2.623-5.859 5.859-5.859h57.509c3.236 0 5.859 2.623 5.859 5.859v20.282c-.001 3.236-2.624 5.859-5.859 5.859z" fill="url(#SVGID_10_)"/></g><path d="m41.014 495h-20.53c-3.167 0-5.735-2.568-5.735-5.735v-20.53c0-3.167 2.568-5.735 5.735-5.735h20.53c3.167 0 5.735 2.568 5.735 5.735v20.53c0 3.167-2.568 5.735-5.735 5.735z" fill="url(#SVGID_11_)"/></g></g></g></svg>