<!--
  - Copyright (c) 2023. Selldone® Business OS™
  -
  - Author: M.Pajuhaan
  - Web: https://selldone.com
  - ━━━━━━━━━━━━━━━━━━━━━━━━━━━━━━━━━━━━━━━━━━━━━━━━━━━━━━
  -
  - All rights reserved. In the weave of time, where traditions and innovations intermingle, this content was crafted.
  - From the essence of thought, through the corridors of creativity, each word, and sentiment has been molded.
  - Not just to exist, but to inspire. Like an artist's stroke or a sculptor's chisel, every nuance is deliberate.
  - Our journey is not just about reaching a destination, but about creating a masterpiece.
  - Tread carefully, for you're treading on dreams.
  -->

<svg id="Capa_1" enable-background="new 0 0 510 510" height="512" viewBox="0 0 510 510" width="512" xmlns="http://www.w3.org/2000/svg" xmlns:xlink="http://www.w3.org/1999/xlink"><linearGradient id="lg1"><stop offset="0" stop-color="#d8ecfe"/><stop offset=".5667" stop-color="#b3dafe"/><stop offset=".9955" stop-color="#8ac9fe"/></linearGradient><linearGradient id="SVGID_1_" gradientUnits="userSpaceOnUse" x1="0" x2="510" xlink:href="#lg1" y1="255" y2="255"/><linearGradient id="lg2"><stop offset="0" stop-color="#fd8087"/><stop offset=".5213" stop-color="#fb2b3a"/><stop offset="1" stop-color="#d90d80"/></linearGradient><linearGradient id="SVGID_2_" gradientUnits="userSpaceOnUse" x1="104" x2="533.865" xlink:href="#lg2" y1="242.577" y2="242.577"/><linearGradient id="SVGID_3_" gradientUnits="userSpaceOnUse" x1="-58" x2="496.002" xlink:href="#lg2" y1="242.077" y2="242.077"/><linearGradient id="lg3"><stop offset="0" stop-color="#fbc56d"/><stop offset=".5841" stop-color="#fe9738"/><stop offset=".9984" stop-color="#fb2b3a"/></linearGradient><linearGradient id="SVGID_4_" gradientUnits="userSpaceOnUse" x1="74.913" x2="496.665" xlink:href="#lg3" y1="379.486" y2="379.486"/><linearGradient id="SVGID_5_" gradientUnits="userSpaceOnUse" x1="49.991" x2="476.427" xlink:href="#lg3" y1="379.486" y2="379.486"/><linearGradient id="SVGID_6_" gradientUnits="userSpaceOnUse" x1="-1.916" x2="498.912" xlink:href="#lg3" y1="397.691" y2="397.691"/><linearGradient id="SVGID_7_" gradientUnits="userSpaceOnUse" x1="370.011" x2="521.173" xlink:href="#lg1" y1="31" y2="31"/><linearGradient id="SVGID_8_" gradientUnits="userSpaceOnUse" x1="370.011" x2="521.173" xlink:href="#lg1" y1="78" y2="78"/><linearGradient id="SVGID_9_" gradientUnits="userSpaceOnUse" x1="309.5" x2="355.72" xlink:href="#lg2" y1="31" y2="31"/><linearGradient id="SVGID_10_" gradientUnits="userSpaceOnUse" x1="314.5" x2="358.73" xlink:href="#lg3" y1="78" y2="78"/><g><path d="m502.426 452.142h-444.568v-444.568c0-4.183-3.391-7.574-7.574-7.574s-7.574 3.391-7.574 7.574v39.065h-35.136c-4.183 0-7.574 3.391-7.574 7.574s3.391 7.574 7.574 7.574h35.136v44.662h-22.247c-4.183 0-7.574 3.391-7.574 7.574s3.391 7.574 7.574 7.574h22.247v44.662h-22.247c-4.183 0-7.574 3.391-7.574 7.574s3.391 7.574 7.574 7.574h22.247v44.662h-35.136c-4.183 0-7.574 3.391-7.574 7.574s3.391 7.574 7.574 7.574h35.136v44.662h-22.247c-4.183 0-7.574 3.391-7.574 7.574s3.391 7.574 7.574 7.574h22.247v44.662h-22.247c-4.183 0-7.574 3.391-7.574 7.574s3.391 7.574 7.574 7.574h22.247v44.662h-35.136c-4.183 0-7.574 3.391-7.574 7.574s3.391 7.574 7.574 7.574h35.136v31.49h-35.136c-4.183 0-7.574 3.391-7.574 7.574s3.391 7.574 7.574 7.574h35.136v35.135c0 4.183 3.391 7.574 7.574 7.574s7.574-3.391 7.574-7.574v-35.13h31.49v35.135c0 4.183 3.391 7.574 7.574 7.574s7.574-3.391 7.574-7.574v-35.135h44.662v22.247c0 4.183 3.391 7.574 7.574 7.574s7.574-3.391 7.574-7.574v-22.247h44.662v22.247c0 4.183 3.391 7.574 7.574 7.574s7.574-3.391 7.574-7.574v-22.247h44.662v35.135c0 4.183 3.391 7.574 7.574 7.574s7.574-3.391 7.574-7.574v-35.135h44.662v22.247c0 4.183 3.391 7.574 7.574 7.574s7.574-3.391 7.574-7.574v-22.247h44.662v22.247c0 4.183 3.391 7.574 7.574 7.574s7.574-3.391 7.574-7.574v-22.247h44.662v35.135c0 4.183 3.391 7.574 7.574 7.574s7.574-3.391 7.574-7.574v-35.135h39.065c4.183 0 7.574-3.391 7.574-7.574s-3.386-7.574-7.569-7.574z" fill="url(#SVGID_1_)"/><path d="m365.044 283.965c-6.461 6.461-16.936 6.461-23.397 0l-56.54-56.54c-7.111-7.111-16.756-11.106-26.813-11.106-10.057 0-19.702 3.995-26.813 11.106-15.711 15.711-42.575 4.584-42.575-17.635 0-47.827-18.999-93.694-52.818-127.513l-21.765-21.765c-12.92-12.92-35.012-3.77-35.012 14.503v335.165c0 11.327 9.183 20.51 20.51 20.51l371.205-1c7.442 0 13.475-5.033 13.475-12.475 0-23.813-9.46-46.651-26.298-63.489l-69.76-69.76c-6.463-6.462-16.938-6.462-23.399-.001z" fill="url(#SVGID_2_)"/><path d="m458.202 353.726-69.76-69.76c-6.461-6.461-16.936-6.461-23.397 0s-16.936 6.461-23.397 0l-56.54-56.54c-7.111-7.111-16.756-11.106-26.813-11.106-10.057 0-19.702 3.995-26.813 11.106-15.711 15.711-42.575 4.584-42.575-17.635 0-47.827-18.999-93.694-52.818-127.513l-21.765-21.765c-12.92-12.92-35.012-3.77-35.012 14.503v9.838l16.757 16.757c33.819 33.819 52.818 79.686 52.818 127.513 0 22.219 26.863 33.346 42.575 17.635 7.111-7.111 16.756-11.107 26.813-11.107 10.057 0 19.702 3.995 26.813 11.107l56.54 56.54c6.461 6.461 16.936 6.461 23.397 0 6.461-6.461 16.936-6.461 23.397 0l69.76 69.761c15.451 15.451 24.666 34.958 26.083 56.631h26.76c7.442 0 13.475-5.033 13.475-12.475 0-23.814-9.46-46.652-26.298-63.49z" fill="url(#SVGID_3_)"/><g><path d="m253.893 380.832 30.486 11.323c10.025 3.723 21.29 1.522 29.175-5.702l55.327-50.685c10.894-9.98 27.61-9.98 38.504 0l74.284 68.052c10.402 9.53 3.66 26.87-10.447 26.87h-371.414l134.24-49.858c6.401-2.378 13.444-2.378 19.845 0z" fill="url(#SVGID_4_)"/><g><path d="m407.385 335.768c-10.894-9.98-27.609-9.98-38.504 0l-21.344 19.554c10.724-7.019 25.103-6.077 34.837 2.841l79.169 72.527h9.679c14.107 0 20.849-17.34 10.447-26.87z" fill="url(#SVGID_5_)"/><path d="m284.38 392.155-30.486-11.323c-6.402-2.378-13.444-2.378-19.846 0l-30.594 11.363 55.915 22.355c10.025 3.723 21.29 1.521 29.175-5.702l21.388-19.593c-7.5 4.921-16.977 6.085-25.552 2.9z" fill="url(#SVGID_6_)"/></g></g><g><g><path d="m496.391 47h-126.735c-3.236 0-5.859-2.623-5.859-5.859v-20.282c0-3.236 2.623-5.859 5.859-5.859h126.735c3.236 0 5.859 2.623 5.859 5.859v20.282c0 3.236-2.624 5.859-5.859 5.859z" fill="url(#SVGID_7_)"/><path d="m427.165 94h-57.509c-3.236 0-5.859-2.623-5.859-5.859v-20.282c0-3.236 2.623-5.859 5.859-5.859h57.509c3.236 0 5.859 2.623 5.859 5.859v20.282c-.001 3.236-2.624 5.859-5.859 5.859z" fill="url(#SVGID_8_)"/></g><path d="m344.729 47h-20.53c-3.167 0-5.735-2.568-5.735-5.735v-20.53c0-3.167 2.568-5.735 5.735-5.735h20.53c3.167 0 5.735 2.568 5.735 5.735v20.53c0 3.167-2.568 5.735-5.735 5.735z" fill="url(#SVGID_9_)"/><path d="m344.729 94h-20.53c-3.167 0-5.735-2.568-5.735-5.735v-20.53c0-3.167 2.568-5.735 5.735-5.735h20.53c3.167 0 5.735 2.568 5.735 5.735v20.53c0 3.167-2.568 5.735-5.735 5.735z" fill="url(#SVGID_10_)"/></g></g></svg>