<!--
  - Copyright (c) 2023. Selldone® Business OS™
  -
  - Author: M.Pajuhaan
  - Web: https://selldone.com
  - ━━━━━━━━━━━━━━━━━━━━━━━━━━━━━━━━━━━━━━━━━━━━━━━━━━━━━━
  -
  - All rights reserved. In the weave of time, where traditions and innovations intermingle, this content was crafted.
  - From the essence of thought, through the corridors of creativity, each word, and sentiment has been molded.
  - Not just to exist, but to inspire. Like an artist's stroke or a sculptor's chisel, every nuance is deliberate.
  - Our journey is not just about reaching a destination, but about creating a masterpiece.
  - Tread carefully, for you're treading on dreams.
  -->

<svg height="512pt" viewBox="-63 0 512 512" width="512pt" xmlns="http://www.w3.org/2000/svg" xmlns:xlink="http://www.w3.org/1999/xlink"><linearGradient id="lg1"><stop offset="0" stop-color="#00e7b2"/><stop offset=".158" stop-color="#02e3b0"/><stop offset=".318" stop-color="#08d7ab"/><stop offset=".479" stop-color="#12c2a3"/><stop offset=".6406" stop-color="#21a698"/><stop offset=".8029" stop-color="#338189"/><stop offset=".9635" stop-color="#495577"/><stop offset="1" stop-color="#4f4a72"/></linearGradient><linearGradient id="linear0" gradientUnits="userSpaceOnUse" x1="96.5614613104" x2="323.1346096464" xlink:href="#lg1" y1="89.0504915972" y2="523.3157260386"/><linearGradient id="linear1" gradientUnits="userSpaceOnUse" x1="157.0133272858" x2="283.8717221874" xlink:href="#lg1" y1="-5.2387661726" y2="194.2561964106"/><linearGradient id="lg2"><stop offset="0" stop-color="#3b395f" stop-opacity="0"/><stop offset="1" stop-color="#3b395f"/></linearGradient><linearGradient id="linear2" gradientUnits="userSpaceOnUse" x1="193.7226387456" x2="257.3262174478" xlink:href="#lg2" y1="51.1109741186" y2="420.474157143"/><linearGradient id="linear3" gradientUnits="userSpaceOnUse" x1="160.3708440226" x2="230.2252426656" y1="70.6960868478" y2="204.5838432012"><stop offset="0" stop-color="#ffb5b0"/><stop offset="1" stop-color="#ff70ac"/></linearGradient><linearGradient id="linear4" gradientUnits="userSpaceOnUse" x1="284.9659971674" x2="93.557023941" xlink:href="#lg2" y1="422.4367242608" y2="231.0276506422"/><linearGradient id="lg3"><stop offset="0" stop-color="#ffc738"/><stop offset=".2344" stop-color="#fec33a"/><stop offset=".4454" stop-color="#fbb840"/><stop offset=".6474" stop-color="#f6a649"/><stop offset=".8426" stop-color="#f08d56"/><stop offset="1" stop-color="#e97264"/></linearGradient><linearGradient id="linear5" gradientUnits="userSpaceOnUse" x1="108.1057611728" x2="278.606954435" xlink:href="#lg3" y1="330.817899011" y2="330.817899011"/><linearGradient id="linear6" gradientUnits="userSpaceOnUse" x1="185.2413049052" x2="255.3121491314" y1="315.2118311288" y2="449.9636631476"><stop offset="0" stop-color="#fca17a" stop-opacity="0"/><stop offset=".152" stop-color="#f69373" stop-opacity=".152941"/><stop offset=".416" stop-color="#ef816b" stop-opacity=".415686"/><stop offset=".6926" stop-color="#ea7666" stop-opacity=".694118"/><stop offset="1" stop-color="#e97264"/></linearGradient><linearGradient id="lg4"><stop offset="0" stop-color="#e97264" stop-opacity="0"/><stop offset="1" stop-color="#b53759"/></linearGradient><linearGradient id="linear7" gradientUnits="userSpaceOnUse" x1="190.7334609906" x2="182.4572284148" xlink:href="#lg4" y1="357.4215308344" y2="441.3658743552"/><linearGradient id="linear8" gradientUnits="userSpaceOnUse" x1="176.4713434898" x2="150.8871944574" xlink:href="#lg4" y1="361.6998448296" y2="408.4917457198"/><radialGradient id="radial0" cx="231.2897" cy="737.0634" gradientTransform="matrix(1.003922 0 0 .897807 -62.643702 -395.122849)" gradientUnits="userSpaceOnUse" r="160.1074" xlink:href="#lg3"/><radialGradient id="radial1" cx="-814.8426" cy="-7758.2261" gradientTransform="matrix(-1.003922 0 0 -.897807 -618.816251 -6624.207812)" gradientUnits="userSpaceOnUse" r="118.0817" xlink:href="#lg3"/><radialGradient id="radial2" cx="243.3813" cy="756.7374" gradientTransform="matrix(1.003922 0 0 .897807 -62.643702 -395.122849)" gradientUnits="userSpaceOnUse" r="132.9386" xlink:href="#lg3"/><linearGradient id="linear9" gradientUnits="userSpaceOnUse" x1="240.8289680062" x2="140.6142614158" xlink:href="#lg4" y1="356.8913596262" y2="291.1041501818"/><linearGradient id="linear10" gradientUnits="userSpaceOnUse" x1="212.8130187132" x2="136.4181686324" y1="319.5547977008" y2="319.5547977008"><stop offset="0" stop-color="#ffc738"/><stop offset="1" stop-color="#e97264"/></linearGradient><path d="m278.460938 123.441406 32.121093-87.953125c2.582031-7.066406-2.652343-14.550781-10.175781-14.550781h-214.097656c-7.527344 0-12.761719 7.484375-10.179688 14.550781l32.121094 87.953125c6.914062 18.933594-.128906 40.152344-17.027344 51.140625-54.769531 35.613281-91.222656 97.433594-91.222656 160.746094 0 97.574219 86.566406 176.671875 193.355469 176.671875 106.789062 0 193.355469-79.097656 193.355469-176.671875 0-63.3125-36.449219-125.132813-91.222657-160.746094-16.898437-10.988281-23.941406-32.207031-17.027343-51.140625zm0 0" fill="url(#linear0)"/><path d="m300.410156 20.9375h-60.097656l.144531-1.402344c1.070313-10.449218-7.128906-19.535156-17.632812-19.535156h-58.933594c-10.503906 0-18.707031 9.085938-17.632813 19.535156l.140626 1.398438h-60.09375c-7.519532 0-12.757813 7.492187-10.179688 14.558594l30.710938 84.085937c2.21875 3.148437 3.621093 6.925781 3.855468 11.015625 1.554688 2.078125 7.941406 7.429688 23.082032 12.308594 7.691406 2.480468 16.410156 4.4375 25.738281 5.824218l2.6875 26.203126h62.308593l2.6875-26.203126c9.332032-1.386718 18.046876-3.34375 25.742188-5.824218 15.140625-4.878906 21.523438-10.230469 23.078125-12.308594.234375-4.089844 1.636719-7.867188 3.859375-11.015625l30.710938-84.085937c2.578124-7.066407-2.65625-14.554688-10.175782-14.554688zm0 0" fill="url(#linear1)"/><path d="m224.511719 174.933594h-62.308594l-15.945313-155.398438c-1.074218-10.449218 7.128907-19.535156 17.632813-19.535156h58.933594c10.503906 0 18.703125 9.085938 17.632812 19.535156zm0 0" fill="url(#linear2)"/><path d="m193.355469 193.9375c-30.382813 0-59.265625-4.75-81.332031-13.378906-38.34375-14.988282-44.066407-36.929688-44.066407-48.675782 0-11.8125 9.574219-21.390624 21.390625-21.390624 8.128906 0 15.199219 4.539062 18.816406 11.21875 5.136719 9.480468 13.289063 16.984374 23.488282 20.492187.6875.234375 1.390625.46875 2.117187.703125 16.492188 5.320312 37.652344 8.25 59.585938 8.25 21.929687 0 43.09375-2.929688 59.585937-8.25.726563-.234375 1.433594-.46875 2.117188-.703125 10.199218-3.507813 18.347656-11.011719 23.488281-20.492187 3.617187-6.679688 10.6875-11.21875 18.816406-11.21875 11.8125 0 21.390625 9.578124 21.390625 21.390624 0 11.746094-5.722656 33.6875-44.066406 48.675782-22.0625 8.625-50.949219 13.378906-81.332031 13.378906zm0 0" fill="url(#linear3)"/><path d="m262.269531 276.945312c-15.503906-19.015624-40.585937-31.378906-68.914062-31.378906-47.082031 0-85.25 34.132813-85.25 76.238282v18.023437c0 22.304687 10.714843 42.371094 27.785156 56.3125l109.40625 109.402344c61.84375-15.722657 111.207031-58.820313 131.457031-114.113281zm0 0" fill="url(#linear4)"/><path d="m278.605469 321.804688c0-42.105469-38.167969-76.238282-85.25-76.238282s-85.25 34.132813-85.25 76.238282v18.023437c0 42.105469 38.167969 76.238281 85.25 76.238281s85.25-34.132812 85.25-76.238281c0-.058594 0-17.960937 0-18.023437zm0 0" fill="url(#linear5)"/><path d="m263.566406 278.5625c-15.375-19.929688-41.085937-32.996094-70.210937-32.996094s-54.832031 13.0625-70.210938 32.996094v104.511719c15.378907 19.929687 41.085938 32.992187 70.210938 32.992187s54.835937-13.0625 70.210937-32.992187zm0 0" fill="url(#linear6)"/><path d="m143.355469 401.578125c14.046875 9.113281 31.320312 14.488281 50 14.488281 18.683593 0 35.957031-5.375 50.003906-14.488281v-141.519531c-14.046875-9.113282-31.320313-14.492188-50.003906-14.492188-18.679688 0-35.953125 5.378906-50 14.492188zm0 0" fill="url(#linear7)"/><path d="m173.988281 414.089844c6.222657 1.292968 12.703125 1.976562 19.367188 1.976562 6.664062 0 13.148437-.683594 19.371093-1.976562v-166.542969c-6.222656-1.296875-12.707031-1.980469-19.371093-1.980469-6.660157 0-13.144531.683594-19.367188 1.980469zm0 0" fill="url(#linear8)"/><path d="m278.605469 321.804688c0-42.105469-38.167969-76.238282-85.25-76.238282s-85.25 34.132813-85.25 76.238282c0 42.105468 38.167969 76.238281 85.25 76.238281s85.25-34.132813 85.25-76.238281zm0 0" fill="url(#radial0)"/><path d="m269.097656 321.804688c0-37.410157-33.910156-67.734376-75.742187-67.734376s-75.742188 30.324219-75.742188 67.734376c0 37.410156 33.910157 67.738281 75.742188 67.738281s75.742187-30.328125 75.742187-67.738281zm0 0" fill="url(#radial1)"/><path d="m261.925781 321.804688c0-33.863282-30.699219-61.320313-68.570312-61.320313-37.871094 0-68.570313 27.457031-68.570313 61.320313 0 33.867187 30.699219 61.320312 68.570313 61.320312 37.871093 0 68.570312-27.453125 68.570312-61.320312zm0 0" fill="url(#radial2)"/><path d="m274.421875 345.449219-59.324219-59.324219c-.84375-1.316406-2.472656-2.414062-4.898437-3.285156-2.617188-.941406-5.402344-1.578125-8.359375-1.925782-.15625-.101562-.316406-.191406-.480469-.265624l-4.375-4.6875c-.6875-.503907-1.425781-.757813-2.21875-.757813-.867187 0-1.609375.253906-2.222656.757813-.613281.507812-.917969 1.085937-.917969 1.734374v3.140626c-5.847656.648437-10.742188 2.597656-14.675781 5.847656-3.9375 3.25-5.902344 8.011718-5.902344 14.285156 0 2.234375.25 4.269531.757813 6.105469.503906 1.839843 1.332031 3.441406 2.488281 4.8125 1.15625 1.367187 2.257812 2.539062 3.304687 3.511719.007813.007812.015625.011718.023438.019531 0 0 13.617187 13.621093 13.625 13.625.125.136719.25.261719.375.394531v18.113281c-3.199219-.214843-6.015625-1.042969-8.453125-2.484375-2.4375-1.4375-4.351563-2.789062-5.746094-4.050781s-2.519531-1.894531-3.378906-1.894531c-1.292969 0-2.4375.6875-3.445313 2.054687-1.003906 1.371094-1.503906 2.738281-1.503906 4.105469 0 2.191406 1.234375 4.347656 3.699219 6.472656l43.496093 43.496094c27.46875-6.84375 49.339844-25.679688 58.132813-49.800781zm0 0" fill="url(#linear9)"/><path d="m169.09375 345.28125c0-1.367188.503906-2.734375 1.507812-4.105469 1.003907-1.371093 2.152344-2.054687 3.445313-2.054687.855469 0 1.980469.632812 3.375 1.894531s3.308594 2.613281 5.746094 4.050781c2.4375 1.441406 5.253906 2.269532 8.457031 2.484375v-25.398437c-2.167969-.792969-3.828125-1.421875-4.984375-1.890625s-2.691406-1.152344-4.601563-2.054688c-1.914062-.898437-3.394531-1.835937-4.441406-2.808593-1.046875-.972657-2.148437-2.144532-3.304687-3.515626-1.152344-1.367187-1.984375-2.96875-2.488281-4.808593-.507813-1.835938-.757813-3.875-.757813-6.109375 0-6.269532 1.964844-11.03125 5.902344-14.28125 3.933593-3.25 8.828125-5.199219 14.675781-5.847656v-3.140626c0-.652343.304688-1.226562.921875-1.734374.609375-.503907 1.351563-.757813 2.21875-.757813.792969 0 1.53125.253906 2.21875.757813.6875.507812 1.03125 1.082031 1.03125 1.734374v2.921876c4.402344.148437 8.464844.886718 12.183594 2.222656 3.71875 1.335937 5.578125 3.195312 5.578125 5.578125 0 1.296875-.4375 2.652343-1.3125 4.058593-.871094 1.410157-2.039063 2.113282-3.492188 2.113282-.578125 0-2.160156-.613282-4.746094-1.839844-2.585937-1.226562-5.324218-1.949219-8.210937-2.167969v21.949219c2.871094 1.082031 5.257813 2.109375 7.160156 3.082031 1.902344.972657 3.914063 2.324219 6.035157 4.054688 2.117187 1.726562 3.714843 3.90625 4.789062 6.539062 1.078125 2.628907 1.617188 5.710938 1.617188 9.242188 0 6.449219-1.757813 11.578125-5.277344 15.382812-3.519532 3.800781-8.292969 6.140625-14.324219 7.011719v3.617188c0 .636718-.34375 1.203124-1.03125 1.703124-.6875.496094-1.425781.742188-2.21875.742188-.867187 0-1.609375-.246094-2.21875-.742188-.617187-.496093-.921875-1.0625-.921875-1.703124v-3.292969c-6.28125-.074219-11.609375-1.511719-15.976562-4.3125-4.371094-2.804688-6.554688-5.660157-6.554688-8.574219zm12.675781-45.394531c0 2.8125.871094 4.953125 2.625 6.429687 1.75 1.480469 4.375 2.867188 7.878907 4.164063v-19.691407c-7.003907.867188-10.503907 3.898438-10.503907 9.097657zm15.59375 47.449219c6.351563-1.152344 9.53125-4.71875 9.53125-10.699219 0-3.171875-.832031-5.65625-2.488281-7.457031-1.664062-1.800782-4.007812-3.351563-7.042969-4.648438zm0 0" fill="url(#linear10)"/></svg>