

<svg id="Capa_1" enable-background="new 0 0 510 510" height="512" viewBox="0 0 510 510" width="512" xmlns="http://www.w3.org/2000/svg" xmlns:xlink="http://www.w3.org/1999/xlink"><linearGradient id="lg1"><stop offset="0" stop-color="#fef056"/><stop offset=".5213" stop-color="#f4d902"/><stop offset="1" stop-color="#fe9738"/></linearGradient><linearGradient id="SVGID_1_" gradientUnits="userSpaceOnUse" x1="379.111" x2="558.212" xlink:href="#lg1" y1="306.598" y2="306.598"/><linearGradient id="SVGID_2_" gradientUnits="userSpaceOnUse" x1="148" x2="554.009" xlink:href="#lg1" y1="306.598" y2="306.598"/><linearGradient id="lg2"><stop offset="0" stop-color="#fd8087"/><stop offset=".5213" stop-color="#fb2b3a"/><stop offset="1" stop-color="#d90d80"/></linearGradient><linearGradient id="SVGID_3_" gradientUnits="userSpaceOnUse" x1="258.194" x2="477.113" xlink:href="#lg2" y1="120.783" y2="120.783"/><linearGradient id="SVGID_4_" gradientUnits="userSpaceOnUse" x1="204.093" x2="421.665" xlink:href="#lg2" y1="120.783" y2="120.783"/><linearGradient id="lg3"><stop offset="0" stop-color="#60b7ff"/><stop offset=".5857" stop-color="#0182fc"/><stop offset="1" stop-color="#2740b0"/></linearGradient><linearGradient id="SVGID_5_" gradientUnits="userSpaceOnUse" x1="11.293" x2="407.188" xlink:href="#lg3" y1="227.283" y2="227.283"/><linearGradient id="SVGID_6_" gradientUnits="userSpaceOnUse" x1="-76.667" x2="330.669" xlink:href="#lg3" y1="227.282" y2="227.282"/><linearGradient id="lg4"><stop offset="0" stop-color="#a2e62e"/><stop offset=".5857" stop-color="#81b823"/><stop offset="1" stop-color="#037e73"/></linearGradient><linearGradient id="SVGID_7_" gradientUnits="userSpaceOnUse" x1="104.873" x2="323.792" xlink:href="#lg4" y1="417.662" y2="417.662"/><linearGradient id="SVGID_8_" gradientUnits="userSpaceOnUse" x1="23" x2="324.239" xlink:href="#lg4" y1="417.662" y2="417.662"/><g><g><path d="m431.641 106.749-83.498 83.499c20.189 20.189 32.677 48.08 32.677 78.888 0 61.616-49.949 111.565-111.565 111.565v118.083c0 6.166 5.14 11.122 11.299 10.837 127.714-5.9 229.446-111.312 229.446-240.485 0-62.425-23.759-119.301-62.729-162.078-4.145-4.55-11.277-4.661-15.63-.309z" fill="url(#SVGID_1_)"/></g><path d="m447.271 107.059c-4.146-4.551-11.278-4.662-15.63-.309l-13.343 13.343c32.362 40.995 51.681 92.761 51.681 149.044 0 118.339-85.389 216.72-197.911 236.929 2.084 2.304 5.129 3.711 8.484 3.556 127.716-5.901 229.448-111.313 229.448-240.486 0-62.425-23.759-119.301-62.729-162.077z" fill="url(#SVGID_2_)"/><path d="m348.143 190.248 75.132-75.132c-39.417-39.417-93.872-63.797-154.02-63.797v106.252c30.807 0 58.698 12.488 78.888 32.677z" fill="url(#SVGID_3_)"/><path d="m269.254 51.319v3.682c33.968 6.309 65.169 20.492 91.632 40.594 12.584 9.559 13.886 28.005 2.711 39.179l-38.036 38.036c8.264 4.841 15.853 10.708 22.582 17.438l75.132-75.132c-39.418-39.417-93.872-63.797-154.021-63.797z" fill="url(#SVGID_4_)"/><path d="m269.955 157.571c-61.616 0-112.266 49.949-112.266 111.565 0 30.983 12.633 59.023 33.023 79.243l-101.993 101.993c-5.303 5.303-13.946 5.05-18.985-.504-43.329-47.755-69.734-111.165-69.734-180.732 0-144.012 113.94-261.605 256.228-268.751 7.469-.375 13.736 5.571 13.746 13.049.05 38.063.173 144.137-.019 144.137z" fill="url(#SVGID_5_)"/><path d="m269.974 13.43c-.01-7.462-6.254-13.42-13.707-13.046-10.397.521-20.638 1.648-30.699 3.315 2.676 2.387 4.38 5.849 4.385 9.736.03 23.06.017 71.082.002 105.356-.009 20.135-13.291 37.748-32.563 43.582-45.945 13.907-79.724 56.445-79.724 106.763 0 19.289 4.897 37.437 13.513 53.268 9.556 17.557 6.127 39.359-8.008 53.494l-62.917 62.917c3.065 3.767 6.217 7.46 9.478 11.053 5.039 5.554 13.682 5.807 18.985.504l101.993-101.993c-20.39-20.22-33.023-48.26-33.023-79.243 0-61.616 50.651-111.565 112.266-111.565.192 0 .069-106.083.019-144.141z" fill="url(#SVGID_6_)"/><path d="m269.953 380.699c-.233.002-.465.002-.699.002-30.63 0-58.374-12.347-78.535-32.331l-74.786 74.787c39.417 39.417 93.872 63.797 154.02 63.797z" fill="url(#SVGID_7_)"/><path d="m269.254 380.701c-30.63 0-58.374-12.347-78.535-32.331l-17.348 17.348c6.93 4.018 14.331 7.312 22.101 9.778 20.134 6.391 33.897 24.97 34.04 46.093l.42 61.682c12.974 2.41 26.348 3.682 40.02 3.682v-106.254c-.232.002-.464.002-.698.002z" fill="url(#SVGID_8_)"/></g></svg>