<svg id="Capa_1" enable-background="new 0 0 510 510" height="512" viewBox="0 0 510 510" width="512" xmlns="http://www.w3.org/2000/svg" xmlns:xlink="http://www.w3.org/1999/xlink"><linearGradient id="lg1"><stop offset="0" stop-color="#fef056"/><stop offset=".5213" stop-color="#f4d902"/><stop offset="1" stop-color="#fe9738"/></linearGradient><linearGradient id="SVGID_1_" gradientUnits="userSpaceOnUse" x1="39" x2="571.114" xlink:href="#lg1" y1="222.805" y2="222.805"/><linearGradient id="SVGID_2_" gradientUnits="userSpaceOnUse" x1="-38.667" x2="464.041" xlink:href="#lg1" y1="222.803" y2="222.803"/><linearGradient id="lg2"><stop offset="0" stop-color="#fbc56d"/><stop offset=".5841" stop-color="#fe9738"/><stop offset=".9984" stop-color="#fb2b3a"/></linearGradient><linearGradient id="SVGID_3_" gradientUnits="userSpaceOnUse" x1="189.333" x2="522.001" xlink:href="#lg2" y1="219.277" y2="219.277"/><linearGradient id="SVGID_4_" gradientUnits="userSpaceOnUse" x1="55.333" x2="515.162" xlink:href="#lg2" y1="219.277" y2="219.277"/><linearGradient id="lg3"><stop offset="0" stop-color="#a2e62e"/><stop offset=".5857" stop-color="#81b823"/><stop offset="1" stop-color="#037e73"/></linearGradient><linearGradient id="SVGID_5_" gradientUnits="userSpaceOnUse" x1="18.003" x2="271.505" xlink:href="#lg3" y1="219.277" y2="219.277"/><linearGradient id="SVGID_6_" gradientUnits="userSpaceOnUse" x1="-258.357" x2="283.946" xlink:href="#lg3" y1="219.277" y2="219.277"/><linearGradient id="lg4"><stop offset="0" stop-color="#d8ecfe"/><stop offset=".5667" stop-color="#b3dafe"/><stop offset=".9955" stop-color="#8ac9fe"/></linearGradient><linearGradient id="SVGID_7_" gradientUnits="userSpaceOnUse" x1="44.745" x2="260.131" xlink:href="#lg4" y1="83.356" y2="83.356"/><linearGradient id="SVGID_8_" gradientUnits="userSpaceOnUse" x1="383.715" x2="599.102" xlink:href="#lg4" y1="83.356" y2="83.356"/><linearGradient id="SVGID_9_" gradientUnits="userSpaceOnUse" x1="233.548" x2="448.935" xlink:href="#lg4" y1="493.959" y2="493.959"/><linearGradient id="lg5"><stop offset="0" stop-color="#814aa0"/><stop offset="1" stop-color="#192a7d"/></linearGradient><linearGradient id="SVGID_10_" gradientUnits="userSpaceOnUse" x1="52.891" x2="530.177" xlink:href="#lg5" y1="157.803" y2="157.803"/><linearGradient id="SVGID_11_" gradientTransform="matrix(-1 0 0 1 749.723 0)" gradientUnits="userSpaceOnUse" x1="301.374" x2="778.659" xlink:href="#lg5" y1="157.803" y2="157.803"/><linearGradient id="SVGID_12_" gradientTransform="matrix(.707 -.707 -.707 -.707 159.122 1083.66)" gradientUnits="userSpaceOnUse" x1="397.652" x2="874.937" xlink:href="#lg5" y1="429.001" y2="429.001"/><g><g><path d="m242.191 7.398-240.187 416.024c-5.693 9.86 1.423 22.185 12.809 22.185h480.375c11.386 0 18.502-12.325 12.809-22.185l-240.188-416.024c-5.693-9.86-19.925-9.86-25.618 0z" fill="url(#SVGID_1_)"/><path d="m508 423.425-.35-.61-239.84-415.42c-5.69-9.86-19.93-9.86-25.62 0l-7.2 12.47 205.34 355.68-223.02-156.63-21.73 30.95 263.02 184.712c4.766 3.347 2.537 10.975-3.287 11.028-.048 0-.095.001-.143.001h40.02c4.8 0 8.84-2.19 11.48-5.47.43-.53.82-1.09 1.17-1.67 2.63-4.351 3.06-10.011.16-15.041z" fill="url(#SVGID_2_)"/><path d="m507.786 438.552c2.674-4.36 3.133-10.068.21-15.13l-240.187-416.024c-2.846-4.93-7.828-7.395-12.809-7.395v261.332z" fill="url(#SVGID_3_)"/><path d="m507.996 423.422-240.187-416.024c-2.846-4.93-7.828-7.395-12.809-7.395v54.527l200.582 347.424 52.204 36.598c2.674-4.36 3.133-10.068.21-15.13z" fill="url(#SVGID_4_)"/><path d="m255 .003c-4.981 0-9.962 2.465-12.809 7.395l-240.187 416.024c-2.922 5.062-2.463 10.77.21 15.13l252.786-177.217z" fill="url(#SVGID_5_)"/><path d="m242.191 7.398-12.202 21.135v204.983c0 17.437-8.501 33.778-22.778 43.787l-203.019 142.328-2.189 3.791c-2.922 5.062-2.463 10.77.21 15.13l252.787-177.217v-261.332c-4.981 0-9.962 2.465-12.809 7.395z" fill="url(#SVGID_6_)"/></g><path d="m128.656 99.397h-86.89c-3.244 0-5.874-2.63-5.874-5.874v-20.334c0-3.244 2.63-5.874 5.874-5.874h86.89c3.244 0 5.874 2.63 5.874 5.874v20.335c0 3.244-2.63 5.873-5.874 5.873z" fill="url(#SVGID_7_)"/><path d="m467.626 99.397h-86.89c-3.244 0-5.874-2.63-5.874-5.874v-20.334c0-3.244 2.63-5.874 5.874-5.874h86.89c3.244 0 5.874 2.63 5.874 5.874v20.335c0 3.244-2.63 5.873-5.874 5.873z" fill="url(#SVGID_8_)"/><path d="m317.459 510h-86.89c-3.244 0-5.874-2.63-5.874-5.874v-20.335c0-3.244 2.63-5.874 5.874-5.874h86.89c3.244 0 5.874 2.63 5.874 5.874v20.335c0 3.244-2.63 5.874-5.874 5.874z" fill="url(#SVGID_9_)"/><g><path d="m111.074 130.866c.105-.716.177-1.442.177-2.187 0-8.295-6.724-15.019-15.019-15.019s-15.019 6.724-15.019 15.019c0 8.294 6.724 15.019 15.019 15.019 1.917 0 3.744-.373 5.43-1.028l57.079 57.079c2.93 2.929 7.678 2.929 10.607 0 1.464-1.465 2.196-3.385 2.196-5.304s-.732-3.839-2.196-5.304z" fill="url(#SVGID_10_)"/></g><g><path d="m390.167 130.866c-.105-.716-.177-1.442-.177-2.187 0-8.295 6.724-15.019 15.019-15.019s15.019 6.724 15.019 15.019c0 8.294-6.724 15.019-15.019 15.019-1.917 0-3.744-.373-5.43-1.028l-57.079 57.078c-2.93 2.929-7.678 2.929-10.607 0-1.464-1.465-2.196-3.385-2.196-5.304s.732-3.839 2.196-5.304z" fill="url(#SVGID_11_)"/></g><g><path d="m197.143 477.034c.58.432 1.145.894 1.671 1.421 5.865 5.865 5.865 15.374 0 21.239s-15.374 5.865-21.239 0-5.865-15.374 0-21.239c1.356-1.356 2.912-2.384 4.567-3.113v-80.721c.001-4.143 3.358-7.5 7.501-7.501 2.071.001 3.946.84 5.303 2.197s2.197 3.232 2.197 5.303z" fill="url(#SVGID_12_)"/></g></g></svg>