<svg height="512" viewBox="0 0 64 64" width="512" xmlns="http://www.w3.org/2000/svg">
    <g id="_10-Casino_chip" data-name="10-Casino chip">
        <ellipse cx="24" cy="6" fill="#f7f3e1" rx="16" ry="2"/>
        <path d="m8 6c0 1.1 7.16 2 16 2s16-.9 16-2-7.16-2-16-2-16 .9-16 2zm16-5c12.7 0 23 2.24 23 5 0 2.07-5.77 3.84-14 4.61-2.76.25-5.81.39-9 .39s-6.24-.14-9-.39c-8.23-.77-14-2.54-14-4.61 0-2.76 10.3-5 23-5z"
              fill="#d1013e"/>
        <path d="m33 52.61c8.23-.77 14-2.54 14-4.61v6c0 2.23-6.72 4.12-16 4.77v-6c.68-.05 1.35-.11 2-.16z"
              fill="#8f0029"/>
        <path d="m15 52.61c.65.05 1.32.11 2 .16v6c-9.28-.65-16-2.54-16-4.77v-6c0 2.07 5.77 3.84 14 4.61z"
              fill="#8f0029"/>
        <path d="m31 46.77c.68-.05 1.35-.11 2-.16v6c-.65.05-1.32.11-2 .16-2.21.15-4.56.23-7 .23s-4.79-.08-7-.23c-.68-.05-1.35-.11-2-.16v-6c.65.05 1.32.11 2 .16 2.21.15 4.56.23 7 .23s4.79-.08 7-.23z"
              fill="#8f0029"/>
        <path d="m17 40.77v6c-.68-.05-1.35-.11-2-.16-8.23-.77-14-2.54-14-4.61v-6c0 2.07 5.77 3.84 14 4.61.65.05 1.32.11 2 .16z"
              fill="#8f0029"/>
        <path d="m33 46.61c-.65.05-1.32.11-2 .16v-6c.68-.05 1.35-.11 2-.16 8.23-.77 14-2.54 14-4.61v6c0 2.07-5.77 3.84-14 4.61z"
              fill="#8f0029"/>
        <path d="m31 34.77c.68-.05 1.35-.11 2-.16v6c-.65.05-1.32.11-2 .16-2.21.15-4.56.23-7 .23s-4.79-.08-7-.23c-.68-.05-1.35-.11-2-.16v-6c.65.05 1.32.11 2 .16 2.21.15 4.56.23 7 .23s4.79-.08 7-.23z"
              fill="#8f0029"/>
        <path d="m33 34.61c-.65.05-1.32.11-2 .16v-6c.68-.05 1.35-.11 2-.16 8.23-.77 14-2.54 14-4.61v6c0 2.07-5.77 3.84-14 4.61z"
              fill="#a80132"/>
        <path d="m17 28.77v6c-.68-.05-1.35-.11-2-.16-8.23-.77-14-2.54-14-4.61v-6c0 2.07 5.77 3.84 14 4.61.65.05 1.32.11 2 .16z"
              fill="#a80132"/>
        <path d="m31 22.77c.68-.05 1.35-.11 2-.16v6c-.65.05-1.32.11-2 .16-2.21.15-4.56.23-7 .23s-4.79-.08-7-.23c-.68-.05-1.35-.11-2-.16v-6c.65.05 1.32.11 2 .16 2.21.15 4.56.23 7 .23s4.79-.08 7-.23z"
              fill="#a80132"/>
        <path d="m17 16.77v6c-.68-.05-1.35-.11-2-.16-8.23-.77-14-2.54-14-4.61v-6c0 2.07 5.77 3.84 14 4.61.65.05 1.32.11 2 .16z"
              fill="#a80132"/>
        <path d="m33 22.61c-.65.05-1.32.11-2 .16v-6c.68-.05 1.35-.11 2-.16 8.23-.77 14-2.54 14-4.61v6c0 2.07-5.77 3.84-14 4.61z"
              fill="#a80132"/>
        <path d="m31 16.77c-2.21.15-4.56.23-7 .23s-4.79-.08-7-.23c-.68-.05-1.35-.11-2-.16v-6c2.76.25 5.81.39 9 .39s6.24-.14 9-.39v6c-.65.05-1.32.11-2 .16z"
              fill="#a80132"/>
        <path d="m31 52.77v6c-2.21.15-4.56.23-7 .23s-4.79-.08-7-.23v-6c2.21.15 4.56.23 7 .23s4.79-.08 7-.23z"
              fill="#e3decb"/>
        <g fill="#f7f3e1">
            <path d="m47 42v6c0 2.07-5.77 3.84-14 4.61v-6c8.23-.77 14-2.54 14-4.61z"/>
            <path d="m15 46.61v6c-8.23-.77-14-2.54-14-4.61v-6c0 2.07 5.77 3.84 14 4.61z"/>
            <path d="m31 40.77v6c-2.21.15-4.56.23-7 .23s-4.79-.08-7-.23v-6c2.21.15 4.56.23 7 .23s4.79-.08 7-.23z"/>
            <path d="m47 30v6c0 2.07-5.77 3.84-14 4.61v-6c8.23-.77 14-2.54 14-4.61z"/>
            <path d="m15 34.61v6c-8.23-.77-14-2.54-14-4.61v-6c0 2.07 5.77 3.84 14 4.61z"/>
            <path d="m31 28.77v6c-2.21.15-4.56.23-7 .23s-4.79-.08-7-.23v-6c2.21.15 4.56.23 7 .23s4.79-.08 7-.23z"/>
            <path d="m47 18v6c0 2.07-5.77 3.84-14 4.61v-6c8.23-.77 14-2.54 14-4.61z"/>
            <path d="m15 22.61v6c-8.23-.77-14-2.54-14-4.61v-6c0 2.07 5.77 3.84 14 4.61z"/>
            <path d="m31 16.77v6c-2.21.15-4.56.23-7 .23s-4.79-.08-7-.23v-6c2.21.15 4.56.23 7 .23s4.79-.08 7-.23z"/>
            <path d="m33 10.61c8.23-.77 14-2.54 14-4.61v6c0 2.07-5.77 3.84-14 4.61z"/>
            <path d="m15 10.61v6c-8.23-.77-14-2.54-14-4.61v-6c0 2.07 5.77 3.84 14 4.61z"/>
        </g>
        <path d="m40 6c0 .17-.17.34-.5.5-1.78-.86-8.04-1.5-15.5-1.5s-13.72.64-15.5 1.5c-.33-.16-.5-.33-.5-.5 0-1.1 7.16-2 16-2s16 .9 16 2z"
              fill="#c7c3b2"/>
        <path d="m31 20.77v2c-2.21.15-4.56.23-7 .23s-4.79-.08-7-.23v-2c2.21.15 4.56.23 7 .23s4.79-.08 7-.23z"
              fill="#e3decb"/>
        <path d="m47 16v2c0 2.07-5.77 3.84-14 4.61-.65.05-1.32.11-2 .16v-2c.68-.05 1.35-.11 2-.16 8.23-.77 14-2.54 14-4.61z"
              fill="#7d0126"/>
        <path d="m31 32.77v2c-2.21.15-4.56.23-7 .23s-4.79-.08-7-.23v-2c2.21.15 4.56.23 7 .23s4.79-.08 7-.23z"
              fill="#e3decb"/>
        <path d="m47 28v2c0 2.07-5.77 3.84-14 4.61-.65.05-1.32.11-2 .16v-2c.68-.05 1.35-.11 2-.16 8.23-.77 14-2.54 14-4.61z"
              fill="#7d0126"/>
        <path d="m31 44.77v2c-2.21.15-4.56.23-7 .23s-4.79-.08-7-.23v-2c2.21.15 4.56.23 7 .23s4.79-.08 7-.23z"
              fill="#e3decb"/>
        <path d="m47 40v2c0 2.07-5.77 3.84-14 4.61-.65.05-1.32.11-2 .16v-2c.68-.05 1.35-.11 2-.16 8.23-.77 14-2.54 14-4.61z"
              fill="#7d0126"/>
        <path d="m33 14.61v2c-.65.05-1.32.11-2 .16-2.21.15-4.56.23-7 .23s-4.79-.08-7-.23c-.68-.05-1.35-.11-2-.16v-2c2.76.25 5.81.39 9 .39s6.24-.14 9-.39z"
              fill="#7d0126"/>
        <path d="m47 10v2c0 2.07-5.77 3.84-14 4.61v-2c8.23-.77 14-2.54 14-4.61z" fill="#e3decb"/>
        <path d="m33 26.61v2c-.65.05-1.32.11-2 .16-2.21.15-4.56.23-7 .23s-4.79-.08-7-.23c-.68-.05-1.35-.11-2-.16v-2c2.76.25 5.81.39 9 .39s6.24-.14 9-.39z"
              fill="#7d0126"/>
        <path d="m47 22v2c0 2.07-5.77 3.84-14 4.61v-2c8.23-.77 14-2.54 14-4.61z" fill="#e3decb"/>
        <path d="m33 38.61v2c-.65.05-1.32.11-2 .16-2.21.15-4.56.23-7 .23s-4.79-.08-7-.23c-.68-.05-1.35-.11-2-.16v-2c2.76.25 5.81.39 9 .39s6.24-.14 9-.39z"
              fill="#7d0126"/>
        <path d="m47 34v2c0 2.07-5.77 3.84-14 4.61v-2c8.23-.77 14-2.54 14-4.61z" fill="#e3decb"/>
        <path d="m47 46v2c0 2.07-5.77 3.84-14 4.61v-2c8.23-.77 14-2.54 14-4.61z" fill="#e3decb"/>
        <path d="m47 48v6c0 2.23-6.72 4.12-16 4.77v-6c.68-.05 1.35-.11 2-.16 1.73-.16 3.34-.37 4.82-.61h5.18a4 4 0 0 0 4-4z"
              fill="#7d0126"/>
        <path d="m15 52.61c.65.05 1.32.11 2 .16v6c-9.28-.65-16-2.54-16-4.77v-6c0 2.07 5.77 3.84 14 4.61z"
              fill="#7d0126"/>
        <path d="m28.038 50.919a29.6 29.6 0 0 1 -8.778-4.029h-.01q-1.15-.045-2.25-.12c-.68-.05-1.35-.11-2-.16v6c.65.05 1.32.11 2 .16 2.21.15 4.56.23 7 .23s4.79-.08 7-.23c.68-.05 1.35-.11 2-.16v-2c-1.567.142-3.235.244-4.962.309z"
              fill="#7d0126"/>
        <path d="m16.429 44.724a30.06 30.06 0 0 1 -4.2-4.424c-6.719-.88-11.229-2.47-11.229-4.3v6c0 2.07 5.77 3.84 14 4.61.65.05 1.32.11 2 .16v-2c-.194-.014-.379-.03-.571-.046z"
              fill="#7d0126"/>
        <path d="m15 32.61a60.967 60.967 0 0 1 -7.452-1.118 28.471 28.471 0 0 1 -1.078-4.262c-3.41-.86-5.47-1.99-5.47-3.23v6c0 2.07 5.77 3.84 14 4.61.65.05 1.32.11 2 .16v-2c-.68-.05-1.35-.11-2-.16z"
              fill="#7d0126"/>
        <path d="m15 20.61a54.671 54.671 0 0 1 -9-1.5v-4c-3.13-.85-5-1.93-5-3.11v6c0 2.07 5.77 3.84 14 4.61.65.05 1.32.11 2 .16v-2c-.68-.05-1.35-.11-2-.16z"
              fill="#7d0126"/>
        <path d="m31 52.77v6c-2.21.15-4.56.23-7 .23s-4.79-.08-7-.23v-6c2.21.15 4.56.23 7 .23s4.79-.08 7-.23z"
              fill="#d9d4c2"/>
        <path d="m15 46.61v6c-8.23-.77-14-2.54-14-4.61v-6c0 2.07 5.77 3.84 14 4.61z" fill="#e3decb"/>
        <path d="m15 38.61c-1.528-.143-2.971-.321-4.308-.528a30.335 30.335 0 0 1 -2.332-4.412v-.01c-4.53-.91-7.36-2.21-7.36-3.66v6c0 1.828 4.506 3.422 11.228 4.3q1.331.172 2.77.31z"
              fill="#e3decb"/>
        <path d="m6.177 25.158a29.2 29.2 0 0 1 -.177-3.158v-.89c-3.13-.85-5-1.93-5-3.11v6c0 2.07 5.77 3.84 14 4.61v-2a55.273 55.273 0 0 1 -8.823-1.452z"
              fill="#e3decb"/>
        <path d="m6 13.113v-4c-3.13-.853-5-1.933-5-3.113v6c0 2.07 5.77 3.84 14 4.61v-2a54.671 54.671 0 0 1 -9-1.497z"
              fill="#e3decb"/>
        <path d="m62.5 35.23a23 23 0 0 1 0 9.54l-1.36-.59c-.7-.45-1.68-.02-2.18.95l-3.66 7.06a2 2 0 0 0 .35 2.58l1.1.98a22.9 22.9 0 0 1 -10.75 6.45v-1.6a1.839 1.839 0 0 0 -2-1.6h-8a1.839 1.839 0 0 0 -2 1.6v1.6a22.849 22.849 0 0 1 -10.74-6.44l1.11-.99a2.017 2.017 0 0 0 .35-2.58l-3.66-7.06c-.51-.97-1.48-1.4-2.18-.95l-1.38.59a22.7 22.7 0 0 1 -.5-4.77 22.154 22.154 0 0 1 .51-4.78l1.37.59c.7.45 1.67.03 2.18-.95l3.66-7.05a2.014 2.014 0 0 0 -.35-2.58l-1.1-.99a22.769 22.769 0 0 1 10.73-6.44v1.6a1.839 1.839 0 0 0 2 1.6h8a1.839 1.839 0 0 0 2-1.6v-1.6a22.818 22.818 0 0 1 10.74 6.45l-1.09.98a2 2 0 0 0 -.35 2.58l3.66 7.05c.5.98 1.48 1.4 2.18.95zm-7.5 4.77a15 15 0 1 0 -15 15 15.005 15.005 0 0 0 15-15z"
              fill="#d1013e"/>
        <path d="m40 25a15 15 0 1 1 -15 15 15.005 15.005 0 0 1 15-15zm8 15c-4.57-1.29-8-9-8-9s-3.43 7.71-8 9c4.57 1.29 8 9 8 9s3.43-7.71 8-9z"
              fill="#fffced"/>
        <path d="m40 31s3.43 7.71 8 9c-4.57 1.29-8 9-8 9s-3.43-7.71-8-9c4.57-1.29 8-9 8-9z" fill="#d1013e"/>
        <path d="m46 60.6v1.6a22.9 22.9 0 0 1 -12 0v-1.6a1.839 1.839 0 0 1 2-1.6h8a1.839 1.839 0 0 1 2 1.6z"
              fill="#f7f3e1"/>
        <path d="m18.88 44.18c.7-.45 1.67-.02 2.18.95l3.66 7.06a2.017 2.017 0 0 1 -.35 2.58l-1.11.99a22.938 22.938 0 0 1 -5.76-10.99z"
              fill="#f7f3e1"/>
        <path d="m21.06 34.86c-.51.98-1.48 1.4-2.18.95l-1.37-.59a22.736 22.736 0 0 1 5.76-10.98l1.1.99a2.014 2.014 0 0 1 .35 2.58z"
              fill="#f7f3e1"/>
        <path d="m46 17.8v1.6a1.839 1.839 0 0 1 -2 1.6h-8a1.839 1.839 0 0 1 -2-1.6v-1.6a22.9 22.9 0 0 1 12 0z"
              fill="#f7f3e1"/>
        <path d="m61.14 35.81c-.7.45-1.68.03-2.18-.95l-3.66-7.05a2 2 0 0 1 .35-2.58l1.09-.98a22.82 22.82 0 0 1 5.76 10.98z"
              fill="#f7f3e1"/>
        <path d="m58.96 45.13c.5-.97 1.48-1.4 2.18-.95l1.36.59a22.89 22.89 0 0 1 -5.75 10.98l-1.1-.98a2 2 0 0 1 -.35-2.58z"
              fill="#f7f3e1"/>
        <path d="m40 24a16 16 0 1 0 16 16 16 16 0 0 0 -16-16zm0 31a15 15 0 1 1 15-15 15.005 15.005 0 0 1 -15 15z"
              fill="#a80132"/>
        <path d="m40 25a15 15 0 1 0 15 15 15.005 15.005 0 0 0 -15-15zm0 29a14 14 0 1 1 14-14 14 14 0 0 1 -14 14z"
              fill="#e3decb"/>
        <path d="m46 60.6v1.6a22.9 22.9 0 0 1 -12 0v-1.6a1.839 1.839 0 0 1 2-1.6h8a1.839 1.839 0 0 1 2 1.6z"
              fill="#e3decb"/>
        <path d="m24.37 54.77-1.11.99a22.938 22.938 0 0 1 -5.76-10.99l1.38-.59c.7-.45 1.67-.02 2.18.95l3.66 7.06a2.017 2.017 0 0 1 -.35 2.58z"
              fill="#e3decb"/>
        <path d="m62.5 44.77a22.89 22.89 0 0 1 -5.75 10.98l-1.1-.98a2 2 0 0 1 -.35-2.58l3.66-7.06c.5-.97 1.48-1.4 2.18-.95z"
              fill="#e3decb"/>
        <path d="m18 40a22.111 22.111 0 0 1 .437-4.381l-.927-.4a22.154 22.154 0 0 0 -.51 4.781 22.7 22.7 0 0 0 .5 4.77l.936-.4a22.083 22.083 0 0 1 -.436-4.37z"
              fill="#8f0029"/>
        <path d="m34 18.835v-1.035a22.769 22.769 0 0 0 -10.73 6.44l.736.663a21.987 21.987 0 0 1 9.994-6.068z"
              fill="#8f0029"/>
        <path d="m24.005 55.1-.745.664a22.849 22.849 0 0 0 10.74 6.436v-1.035a21.987 21.987 0 0 1 -9.995-6.065z"
              fill="#8f0029"/>
        <path d="m56 24.912.737-.662a22.818 22.818 0 0 0 -10.737-6.45v1.035a21.986 21.986 0 0 1 10 6.077z"
              fill="#8f0029"/>
        <path d="m62.5 35.23-.936.4a22.123 22.123 0 0 1 0 8.736l.935.405a23 23 0 0 0 0-9.54z" fill="#8f0029"/>
        <path d="m46 61.165v1.035a22.9 22.9 0 0 0 10.75-6.45l-.745-.664a21.987 21.987 0 0 1 -10.005 6.079z"
              fill="#8f0029"/>
        <path d="m40 62a22 22 0 0 1 -6-.835v1.035a22.9 22.9 0 0 0 12 0v-1.035a22 22 0 0 1 -6 .835z" fill="#c7c3b2"/>
        <path d="m18.436 44.37-.936.4a22.938 22.938 0 0 0 5.76 10.99l.745-.664a21.931 21.931 0 0 1 -5.569-10.726z"
              fill="#c7c3b2"/>
        <path d="m24.006 24.9-.736-.663a22.736 22.736 0 0 0 -5.76 10.98l.927.4a21.936 21.936 0 0 1 5.569-10.717z"
              fill="#e3decb"/>
        <path d="m40 18a22 22 0 0 1 6 .835v-1.035a22.9 22.9 0 0 0 -12 0v1.035a22 22 0 0 1 6-.835z" fill="#e3decb"/>
        <path d="m61.564 35.629.936-.4a22.82 22.82 0 0 0 -5.76-10.98l-.74.663a21.932 21.932 0 0 1 5.564 10.717z"
              fill="#e3decb"/>
        <path d="m56.005 55.086.745.664a22.89 22.89 0 0 0 5.75-10.98l-.935-.405a21.935 21.935 0 0 1 -5.56 10.721z"
              fill="#c7c3b2"/>
        <circle cx="59" cy="40" fill="#fffced" r="1"/>
        <circle cx="21" cy="40" fill="#fffced" r="1"/>
        <circle cx="30" cy="56" fill="#fffced" r="1"/>
        <circle cx="50" cy="56" fill="#fffced" r="1"/>
        <circle cx="30" cy="24" fill="#fffced" r="1"/>
        <circle cx="50" cy="24" fill="#fffced" r="1"/>
    </g>
</svg>