<?xml version="1.0"?>


<svg xmlns="http://www.w3.org/2000/svg" xmlns:xlink="http://www.w3.org/1999/xlink" xmlns:svgjs="http://svgjs.com/svgjs" version="1.1" width="512" height="512" x="0" y="0" viewBox="0 0 512 512" style="enable-background:new 0 0 512 512" xml:space="preserve" class=""><g>
<path xmlns="http://www.w3.org/2000/svg" style="" d="M256.04,0h-14.928h-0.264h-1.768h-0.272l0,0h-0.28l0,0h-0.28l0,0h-0.176h-0.128h-0.176h-0.128h-0.176  h-0.12h-0.192l0,0h-0.296l0,0h-0.288l0,0h-0.288l0,0h-0.296l0,0h-0.296l0,0l-0.8,0.064l0,0h-0.304l0,0h-0.296l0,0h-0.304l0,0  c-5.936,0.536-11.8,1.24-17.6,2.128L218.856,18c12.328-1.616,24.76-2.288,37.184-2L256.04,0L256.04,0z M177.32,12.328  c-12.696,4.088-25.048,9.176-36.944,15.2l7.2,14.272c11.152-5.656,22.728-10.424,34.624-14.272l-4.912-15.2H177.32z M106.264,48.328  c-10.816,7.824-21,16.48-30.472,25.888l11.264,11.36c8.888-8.808,18.44-16.912,28.576-24.24l-9.368-12.968  C106.264,48.368,106.264,48.328,106.264,48.328z M49.68,104.472c-2.136,2.928-4.224,5.904-6.272,8.92l0,0l-0.256,0.384l0,0  l-0.168,0.256l0,0l-0.088,0.128l0,0l-0.168,0.248l0,0l-0.08,0.12l0,0l-0.08,0.12l0,0l-0.08,0.12l0,0l-0.16,0.24l0,0l-0.08,0.12l0,0  l-0.08,0.12l0,0l-0.08,0.12l0,0l-0.08,0.12l0,0l-0.072,0.112l0,0l-0.072,0.112l0,0l-0.072,0.112l0,0l-0.08,0.12l0,0l-0.072,0.112  l0,0l-0.072,0.104l0,0l-0.072,0.112l0,0l-0.072,0.112l0,0l-0.072,0.104l0,0L41.28,116.6l0,0l-0.064,0.104l0,0l-0.08,0.12l0,0  l-0.072,0.112l0,0L41,117.032l0,0l-0.072,0.112l0,0l-0.072,0.112l0,0l-0.072,0.104l0,0l-0.072,0.112l0,0l-0.064,0.104l0,0  l-0.072,0.112l0,0l-0.072,0.112l0,0l-0.056,0.096l0,0L40.384,118l0,0l-0.056,0.088l0,0l-0.056,0.096v0.04l-0.064,0.104l0,0  l-0.056,0.088l0,0l-0.064,0.104l0,0l-0.064,0.096l0,0l-0.056,0.088l0,0l-0.064,0.104l0,0l-0.056,0.08l0,0l-0.064,0.096v0.04  l-0.064,0.104l0,0l-0.048,0.08l0,0l-0.064,0.104l0,0l-0.056,0.088v0.048l-0.048,0.08l0,0l-0.064,0.104v0.04l-0.048,0.072v0.048  l-0.056,0.088v0.048l-0.896,1.192v0.04l-0.048,0.072v0.04l-0.064,0.104v0.048l-0.048,0.072v0.064l-0.048,0.08v0.048l-0.064,0.096  v0.04l-0.048,0.08l0,0l-0.064,0.104v0.048L38,122.144v0.048l-0.048,0.08v0.04l-0.064,0.096v0.04l-0.048,0.08v0.048l-0.056,0.088  v0.048l-0.064,0.096v0.048l-0.048,0.072v0.04l-0.064,0.096v0.048l-0.056,0.096l0,0l-0.056,0.088v0.04l-0.064,0.104v0.04l-0.048,0.08  v0.056l-0.056,0.088v0.048l-0.064,0.104v0.04l-0.04,0.072v0.048l-0.056,0.096v0.048l-0.048,0.08v0.056l-0.048,0.08v0.048  l-0.064,0.104v0.04l-0.048,0.072v0.048l-0.056,0.096v0.048l-0.048,0.08v0.064l-0.04,0.072v0.048l-0.056,0.096v0.056v0.064v0.064  l-0.048,0.08v0.048l-0.056,0.104v0.04l-0.048,0.072v0.04l-0.064,0.104v0.04l-0.056,0.088v0.056l-0.048,0.08v0.048l-0.056,0.096  v0.048l-0.04,0.072v0.056l-0.056,0.088v0.048l-0.056,0.104v0.048l-0.04,0.072v0.048l-0.056,0.096V127l-0.048,0.08v0.056l-0.048,0.08  v0.048l-0.056,0.096v0.048l-0.04,0.072v0.048l-0.056,0.096v0.048l-0.056,0.088v0.048l-0.048,0.08v0.04l-0.056,0.104v0.04  l-0.048,0.088v0.048l-0.056,0.088v0.048l-0.056,0.104v0.04l-0.048,0.08l0,0l-0.056,0.104v0.04l-0.056,0.096l0,0l-0.048,0.088v0.048  l-0.056,0.104v0.04l-0.048,0.088v0.04l-0.056,0.096v0.048l-0.056,0.104v0.04l-0.04,0.08v0.04l-0.056,0.104v0.04l-0.056,0.096v0.04  l-0.048,0.088v0.048l-0.056,0.104l0,0l-0.048,0.08l0,0l-0.056,0.104v0.04l-0.056,0.104v0.04l-0.048,0.08l0,0l-0.056,0.104l0,0  l-0.056,0.104l0,0l-0.056,0.104l0,0l-0.064,0.112l0,0l-0.048,0.096l0,0l-0.064,0.112l0,0l-0.056,0.104l0,0l-0.048,0.096l0,0  L32.04,132l0,0l-0.056,0.096l0,0l-0.064,0.112l0,0l-0.064,0.112l0,0l-0.056,0.104l0,0l-0.064,0.12l0,0l-0.064,0.112l0,0  l-0.056,0.104l0,0l-0.064,0.112l0,0l-0.064,0.112l0,0l-0.064,0.12l0,0l-0.064,0.12l0,0l-0.056,0.112l0,0l-0.064,0.12l0,0  l-0.136,0.248l0,0l-0.064,0.12l0,0l-0.064,0.12l0,0l-0.064,0.128l0,0l-0.136,0.256l0,0l-0.064,0.128l0,0l-0.064,0.128l0,0  l-0.064,0.128l0,0l-0.072,0.128l0,0l-0.072,0.128l0,0l-0.064,0.128l0,0l-0.136,0.256l0,0l-0.064,0.128l0,0l-0.064,0.128l0,0  l-0.064,0.128l0,0l-0.072,0.128l0,0l-0.072,0.128l0,0l-0.072,0.136l0,0l-0.144,0.264l0,0l-0.072,0.144l0,0l-0.072,0.136l0,0  l-0.072,0.136l0,0l-0.144,0.272l0,0l-0.072,0.136l0,0l-0.144,0.272l0,0l-0.144,0.272l14.208,7.36  c5.752-11.104,12.368-21.744,19.776-31.816L49.68,104.472z M13.048,175.2c-1.304,3.912-2.512,7.872-3.624,11.872l0,0l-0.08,0.296  l0,0l-0.08,0.296l0,0l-0.12,0.448l0,0l-0.08,0.296l0,0l-0.08,0.288l0,0v0.144l0,0v0.144l0,0v0.144l0,0l-0.072,0.28l0,0v0.136l0,0  v0.128l0,0v0.136l0,0v0.128l0,0v0.136l0,0v0.128l0,0v0.128l0,0v0.128l0,0v0.112l0,0v0.128l0,0v0.112l0,0v0.128l0,0v0.128l0,0v0.112  l0,0v0.12l0,0v0.096v0.04v0.12v0.04v0.104l0,0v0.12v0.048v0.104v0.056v0.088v0.056v0.112v0.048v0.088v0.048v0.112v0.056v0.088v0.064  v0.088v0.056v0.096v0.064v0.072v0.064v0.104v0.064v0.072v0.08v0.08v0.072v0.056v0.112v0.064v0.064v0.072v0.104v0.064v0.064v0.104  v0.072v0.056v0.088v0.08v0.072v0.064v0.104V195v0.072v0.056v0.112v0.056v0.072v0.104v0.072v0.048v0.12v0.056v0.072v0.048v0.12v0.048  v0.072v0.056v0.12v0.048v0.128v0.04v0.08v0.048v0.128v0.04v0.08v0.048v0.128v0.528v0.08l0,0v0.168l0,0V198l0,0v0.08v0.048v0.128  v0.144v0.08l0,0v0.144l0,0l-2.472,0.32l0,0v0.168l0,0v0.088l0,0v0.152l0,0v0.088l0,0v0.152l0,0L6.184,200v0.04v0.144l0,0v0.08l0,0  v0.136v0.04v0.08l0,0v0.136v0.144l-0.056,0.256v0.04v0.128v0.048v0.08v0.048v0.136l0,0v0.08l0,0v0.152v0.048v0.128v0.048v0.08v0.048  v0.136v0.144v0.08v0.048v0.12v0.048v0.072v0.08v0.096V203v0.104v0.064v0.072v0.056v0.112v0.056v0.072v0.064v0.104v0.064v0.072v0.104  v0.072v0.064v0.096v0.072v0.064v0.08v0.08v0.088v0.056v0.104v0.064v0.08v0.056v0.112v0.056v0.088v0.048v0.12v0.056v0.096v0.056  v0.096v0.048v0.12v0.048v0.096V206v0.12v0.04v0.096l0,0v0.12v0.024v0.12l0,0v0.104l0,0v0.128l0,0v0.12l0,0v0.136l0,0v0.128l0,0  v0.144l0,0v0.144l0,0v0.136l0,0v0.144l0,0v0.152l0,0v0.152l0,0l-0.056,0.296l0,0c-0.336,1.8-0.656,3.616-0.96,5.432l15.784,2.608  c2.04-12.336,5.04-24.488,8.976-36.352l-15.2-5.048L13.048,175.2z M0.04,253.824v0.264l0,0v1.168l0,0V256l0,0v1.64l0,0v13.8v0.264  v0.944l0,0v0.152v0.264v1.064v0.264l0,0v0.264v0.448v0.16v0.144v0.168l0,0v0.128v0.256v0.136v0.168v0.456v0.152v0.152v0.256v0.144  v0.152v1.784v0.136v3.2v0.12v0.176v0.12v0.176v0.12v0.176v0.112l0,0v0.112V284v0.12v0.176v0.12v0.168v0.128l0,0v0.112l0,0v0.136l0,0  v0.128l0,0v0.272l0,0v0.128l0,0v0.136l0,0v0.128l0,0v0.28l0,0v0.28l0,0v0.28l0,0c0.28,2.328,0.584,4.64,0.928,6.944L16.8,291.2  c-1.104-11.696-1.36-23.464-0.76-35.2v-2.04L0.04,253.824z M26.968,327.864l-15.264,4.8c0.632,2,1.28,3.992,1.952,5.976l0,0  l0.408,1.184l0,0c0.344,0.984,0.688,1.968,1.04,2.952l0,0c3.312,9.2,7.152,18.2,11.504,26.952l14.328-7.12  C35.376,351.416,30.704,339.8,26.968,327.864L26.968,327.864z M60.176,394.752L47.144,404c7.688,10.832,16.208,21.056,25.48,30.576  l0,0l0.104,0.112l11.456-11.2c-8.736-8.968-16.76-18.592-24-28.8L60.176,394.752z M112.344,448.256l-9.6,12.8  c8.056,6.032,16.464,11.584,25.176,16.632l0,0l0.416,0.24l0,0l0.24,0.136l0,0l0.152,0.088l0,0l0.232,0.136l0,0l0.144,0.08l0,0  l0.08,0.04l0,0l0.128,0.072l0,0l0.12,0.072l0,0h0.072l0,0l0.12,0.064l0,0h0.072h0.056l0.096,0.056h0.048l0.104,0.056h0.056h0.064  h0.048l0.096,0.056h0.056h0.056l0.096,0.056h0.056h0.064l0.08,0.04h0.064h0.056l0.096,0.056h0.048h0.072h0.048l0.104,0.056h0.048  l0.08,0.048h0.064l0.072,0.04h0.048l0.104,0.056h0.048l0.08,0.04h0.056l0.088,0.048h0.056L132,479.28h0.04l0.08,0.048l0,0  l0.104,0.056l0,0l0.104,0.056l0,0l0.096,0.056l0,0l0.12,0.064l0,0l0.096,0.056l0,0l0.112,0.064l0,0l0.112,0.064l0,0l0.104,0.056l0,0  l0.12,0.064l0,0l0.12,0.064l0,0l0.128,0.072l0,0l0.128,0.072l0,0l0.128,0.072l0,0l0.128,0.072l0,0l0.128,0.072l0,0l0.128,0.072l0,0  l0.128,0.072l0,0l0.272,0.144l0,0l0.136,0.072l0,0l0.136,0.072l0,0l0.136,0.072l0,0l0.264,0.144l0,0l0.136,0.072l0,0l0.272,0.144  l0,0l0.408,0.216l0,0l8.176-13.064c-11.056-5.848-21.632-12.552-31.648-20.048L112.344,448.256z M178.376,483.2l-5.176,15.144  c9.984,3.416,20.176,6.2,30.504,8.344l0,0l0.304,0.064l0,0l0.304,0.064l0,0h0.152l0,0l0.288,0.056l0,0l0.28,0.056l0,0h0.136l0,0  h0.128l0,0h0.136l0,0h0.128l0,0h0.136l0,0h0.136l0,0h0.112l0,0h0.128h0.04h0.104l0,0h0.12h0.048h0.104h0.048h0.096h0.056h0.112  h0.048h0.08h0.312h0.112h0.056h0.08h0.072h0.096h0.056h0.08h0.096h0.072h0.064h0.08h0.088h0.056h0.08h0.088h0.08h0.048h0.144l0,0  h0.088l0,0h0.152l0,0l0.272,0.048l0,0l0.28,0.048l0,0h0.192l0,0l0.296,0.056l0,0l1.784,0.312l2.736-15.76  C202.248,489.76,190.176,486.944,178.376,483.2z M289.384,493.744c-11.048,1.512-22.192,2.272-33.344,2.256c-1.36,0-2.72,0-4.08,0  l-0.264,16h0.952h22.464h0.256h0.856h0.256h0.152h0.264h0.432h0.264h0.144h0.272h0.144h0.264l0,0h0.4l0,0h0.416l0,0h0.272l0,0  l0.8-0.08l0,0c3.768-0.36,7.504-0.792,11.2-1.312l-2.2-15.848L289.384,493.744z M360.84,472  c-11.24,5.464-22.896,10.032-34.856,13.672l4.656,15.312c12.76-3.88,25.2-8.76,37.2-14.592L360.84,472z M422.128,429.28  c-9.032,8.656-18.72,16.6-28.984,23.76l9.152,13.128l0,0l0.072-0.048h0.04l0.096-0.064h0.048l0.072-0.056h0.056l0.072-0.048h0.048  l0.096-0.064h0.04L403,465.84l0.064-0.04l0.072-0.048h0.056l0.064-0.048l0.08-0.056h0.048h0.056l0.088-0.064h0.056l0.056-0.04  l0.08-0.056h0.048l0.064-0.04l0.08-0.056l0.056-0.04h0.048l0.088-0.064h0.056l0.056-0.04h0.048l0.096-0.072l0,0l0.112-0.08l0,0  l0.064-0.048l0,0l0.112-0.08l0,0l0.064-0.048l0,0l0.136-0.104l0,0l0.128-0.088l0,0l0.072-0.056l0,0l0.144-0.104l0,0l0.216-0.16l0,0  l0.128-0.096l0,0l0.224-0.16l0,0l0.68-0.952l0,0l0.232-0.168l0,0l0.152-0.112l0,0l0.224-0.168l0,0  c3.288-2.408,6.512-4.88,9.672-7.432l0,0l0.368-0.296l0,0l0.592-0.48l0,0l0.584-0.48l0,0l0.36-0.296l0,0l0.208-0.176l0,0l0.12-0.096  l0,0l0.216-0.184l0,0l0.136-0.112l0,0l0.072-0.056l0,0l0.128-0.112l0,0l0.136-0.112l0,0l0.072-0.056l0,0l0.128-0.104l0,0  l0.208-0.176l0,0l0.12-0.104l0,0l0.208-0.176l0,0l0.128-0.104l0,0l0.064-0.056l0,0l0.112-0.096l0,0l0.2-0.168l0,0l0.096-0.08l0,0  l0.064-0.048l0,0l0.104-0.088l0,0l0.496-0.464l0,0l0.064-0.056l0,0l0.096-0.088l0,0l0.192-0.168l0,0l0.096-0.08l0,0l0.056-0.048  l0.056-0.048l0.08-0.064h0.04l0.088-0.072l0.048-0.04l0.056-0.048l0.048-0.04l0.08-0.072h0.048l0.048-0.048l0.08-0.064l0.056-0.048  l0.048-0.04l0.072-0.064l0.056-0.048l0.048-0.04l0.08-0.064l0.048-0.04l0.056-0.048l0.056-0.048l0.072-0.064h0.048l0.064-0.056  l0.064-0.056l0.056-0.048h0.048l0.08-0.072l0.048-0.048l0.224-0.312l0.064-0.056l0.064-0.056l0.048-0.04l0.08-0.072h0.048  l0.056-0.048l0.056-0.048l0.072-0.064h0.04l0.072-0.064l0.056-0.048l0.064-0.056h0.04l0.08-0.072l0.048-0.04l0.056-0.048  l0.056-0.048l0.064-0.056h0.04l0.088-0.072l0,0l0.112-0.28h0.04l0.08-0.072h0.04l0.08-0.072l0,0l0.064-0.056l0,0l0.088-0.072h0.04  l0.072-0.064h0.04l0.072-0.064l0,0l0.088-0.08l0,0l0.072-0.064l0,0l0.088-0.08l0,0l0.088-0.08l0,0l0.072-0.064l0,0l0.088-0.08l0,0  l0.08-0.072l0,0l0.088-0.08l0,0l0.096-0.08l0,0l0.08-0.072l0,0l0.096-0.088l0,0l0.096-0.088l0,0l0.08-0.072l0,0l0.096-0.08l0,0  l0.088-0.08l0,0l0.088-0.08l0,0l0.696-0.76l0,0l0.096-0.088l0,0l0.104-0.088l0,0l0.096-0.088l0,0l0.088-0.08l0,0l0.104-0.096l0,0  l0.096-0.088l0,0l0.096-0.088l0,0l0.096-0.088l0,0l0.088-0.08l0,0l0.096-0.088l0,0l0.096-0.088l0,0l0.088-0.08l0,0l0.096-0.088l0,0  l0.096-0.088l0,0l0.096-0.088l0,0l0.096-0.088l0,0l0.104-0.096l0,0l0.104-0.096l0,0l0.104-0.096l0,0l0.096-0.088l0,0l0.096-0.096  l0,0l0.104-0.096l0,0l0.104-0.096l0,0l0.096-0.088l0,0l0.096-0.088l0,0l0.104-0.096l0,0l0.096-0.096l0,0l0.088-0.088l0,0  l0.096-0.088l0,0l0.096-0.096l0,0l0.096-0.096l0,0l0.104-0.096l0,0l0.104-0.096l0,0l0.104-0.096l0,0l0.68-0.624l0,0l0.096-0.096l0,0  l0.104-0.096l0,0l0.208-0.192l0,0l0.104-0.096l0,0l0.104-0.096l0,0l0.104-0.096l0,0l0.096-0.096l0,0l0.088-0.088l0,0l0.096-0.096  l0,0l-11.072-11.552L422.128,429.28z M467.4,369.848c-5.944,11.008-12.736,21.528-20.312,31.48l12.728,9.696  c2.864-3.736,5.624-7.576,8.28-11.52l0,0l0.264-0.384l0,0l0.168-0.248l0,0l0.08-0.12l0,0l0.08-0.12l0,0l0.08-0.12l0,0l0.08-0.112  l0,0l0.072-0.104l0,0l0.072-0.112l0,0l0.072-0.104l0,0l0.072-0.104l0,0l0.072-0.104l0,0l0.056-0.088l0,0l0.064-0.096v-0.048  l0.056-0.088v-0.048l0.048-0.072v-0.048l0.064-0.096v-0.048l0.04-0.064l0.048-0.08v-0.056v-0.056l0.048-0.072l0.048-0.072v-0.056  l0.056-0.088v-0.056l0.04-0.064v-0.04l0.072-0.104l0,0l0.144-0.216l0,0l0.08-0.128l0,0l0.152-0.24l0,0l0.152-0.24l0,0  c3.76-5.792,7.288-11.736,10.584-17.84l-14.08-7.6L467.4,369.848z M492.144,299.448c-2.248,12.296-5.456,24.4-9.6,36.192  l15.096,5.304c0.664-1.88,1.304-3.768,1.92-5.672l0,0l0.088-0.272l0,0l0.088-0.272l0,0l0.056-0.176l0,0v-0.088l0,0l0.048-0.152l0,0  l0.08-0.256l0,0l0.04-0.136l0,0v-0.072V333.8v-0.12v-0.048v-0.072v-0.048V333.4v-0.056v-0.064v-0.104v-0.064v-0.064v-0.088v-0.072  v-0.064v-0.08v-0.072v-0.08v-0.056v-0.112v-0.048v-0.088v-0.048v-0.112v-0.048v-0.088v-0.048v-0.112v-0.048v-0.104v-0.056v-0.088  v-0.048v-0.112v-0.048v-0.096l0,0v-0.12v-0.04v-0.112l0,0v-0.12l0,0v-0.128l0,0V330.6l0,0v-0.128l0,0v-0.112l0,0v-0.128l0,0v-0.128  l0,0v-0.128l0,0l0.04-0.144l0,0v-0.128l0,0l0.04-0.136l0,0l0.08-0.272l0,0l0.08-0.28l0,0l0.04-0.144l0,0l0.04-0.144l0,0l1.488-0.728  l0,0l0.08-0.288l0,0l0.128-0.44l0,0l0.088-0.296l0,0l0.088-0.296l0,0c1.304-4.544,2.48-9.136,3.536-13.776l0,0l0.072-0.304l0,0  l0.064-0.296l0,0v-0.144l0,0v-0.144l0,0v-0.144l0,0l0.064-0.288l0,0v-0.144l0,0v-0.136l0,0v-0.136l0,0v-0.128l0,0v-0.136l0,0v-0.136  l0,0v-0.128l0,0v-0.128l0,0V310.4l0,0v-0.128l0,0v-0.112l0,0v-0.112v-0.056v-0.12v-0.04v-0.088v-0.384v-0.112v-0.056v-0.08v-0.056  v-0.104v-0.056v-0.08v-0.088v-0.072v-0.064v-0.072v-0.096v-0.064v-0.072v-0.104v-0.072v-0.056v-0.128v-0.048v-0.08v-0.04v-0.136  v-0.04l0.056-0.264l0,0l0.056-0.28l0,0v-0.184l0,0c0.304-1.504,0.592-3.024,0.872-4.544l-15.736-2.872L492.144,299.448z   M509.896,222.648l-15.864,2.064c1.344,10.376,2.008,20.824,2.008,31.288c0,2.04-0.024,4.08-0.08,6.112l16,0.4  c0-0.616,0-1.24,0-1.864l0,0v-1.792l0,0v-0.088l0,0v-0.088l0,0v-0.088l0,0v-2.4l0,0V256l0,0v-7.432l0,0v-0.184l0,0v-0.504l0,0v-0.12  v-0.384V247.2l0,0v-0.304l0,0V246.8l0,0v-0.408l0,0v-0.104l0,0v-0.408l0,0c-0.304-7.864-0.96-15.632-1.96-23.296L509.896,222.648z   M487.368,146.232l-14.448,6.872c5.36,11.264,9.824,22.936,13.36,34.896l15.344-4.52c-3.768-12.792-8.544-25.272-14.272-37.32  L487.368,146.232z M442.368,80.48l-11.64,10.976c8.576,9.104,16.44,18.864,23.512,29.184l13.2-9.04c-1.064-1.6-2.16-3.16-3.28-4.68  l0,0l-0.28-0.392l0,0l-0.16-0.224l0,0l-0.104-0.144l0,0l-0.056-0.08l0,0l-0.104-0.144l0,0l-0.216-0.336l0,0l-0.088-0.12l0,0  L463,105.272l0,0l-0.072-0.096v-0.04l-0.04-0.064v-0.048l-0.064-0.088v-0.048v-0.056l-0.064-0.088v-0.056v-0.056l-0.056-0.08v-0.056  l-0.04-0.056l-0.064-0.088v-0.048l-0.048-0.056l-0.04-0.056l-0.056-0.08v-0.04l-0.064-0.08v-0.056l-0.048-0.064v-0.04l-0.064-0.088  v-0.048l-0.056-0.072l-0.04-0.056l-0.056-0.072v-0.04l-0.072-0.096l0,0l-0.064-0.08l0,0l-0.072-0.104l0,0l-0.072-0.096l0,0  l-0.064-0.088l0,0l-0.08-0.104l0,0l-0.08-0.104l0,0l-0.784-0.384l0,0l-0.08-0.104l0,0l-0.072-0.104l0,0l-0.08-0.112l0,0l-0.08-0.112  l0,0l-0.08-0.104l0,0l-0.088-0.112l0,0l-0.176-0.232l0,0l-0.144-0.24l0,0l-0.176-0.232l0,0l-0.088-0.12l0,0l-0.096-0.12l0,0  l-0.088-0.12l0,0l-0.184-0.24l0,0l-0.288-0.368l0,0l-0.288-0.368l0,0l-0.192-0.248l0,0c-2.664-3.464-5.432-6.848-8.296-10.168l0,0  l-0.2-0.232l0,0L449.88,88.8l0,0l-0.096-0.112l0,0l-0.192-0.224l0,0l-0.096-0.112l0,0l-0.096-0.104l0,0l-0.096-0.104l0,0  l-0.088-0.104l0,0l-0.088-0.096l0,0l-0.088-0.096l0,0l-0.2-0.248l0,0l-0.08-0.096l0,0l-0.08-0.096l0,0l-0.072-0.08l0,0l-0.088-0.096  l0,0l-0.08-0.088l0,0l-0.064-0.072l0,0l-0.08-0.088l0,0l-0.256-0.304v-0.048l-0.064-0.072v-0.04l-0.072-0.088v-0.04l-0.048-0.056  l-0.048-0.056l-0.056-0.064l-0.04-0.048l-0.064-0.064l-0.056-0.064l-0.04-0.048l-0.064-0.08l-0.048-0.056l-0.048-0.056v-0.04  l-0.08-0.088l0,0L447.08,85.6l0,0l-0.096-0.112l0,0l-0.096-0.112l0,0l-0.056-0.064l0,0l-0.12-0.128l0,0l-0.184-0.208l0,0  L446.4,84.84l0,0c-1.304-1.448-2.624-2.88-3.96-4.296L442.368,80.48z M379.392,31.68l-7.736,13.92  c10.952,6.04,21.416,12.92,31.304,20.584l9.808-12.584l0,0l0,0l-0.104-0.08l0,0l-0.208-0.16l0,0l-0.112-0.088l0,0l-0.064-0.048l0,0  l-0.112-0.088l0,0l-0.128-0.096l0,0l-0.296-0.24l0,0l-0.12-0.088l0,0l-0.216-0.16l0,0l-0.168-0.184l0,0l-0.224-0.168l0,0l-0.272-0.2  l0,0l-0.144-0.112l0,0l-0.224-0.176l0,0L410,51.424l0,0c-2.616-1.968-5.264-3.888-7.944-5.752l0,0l-0.416-0.264l0,0l-1.032-0.712  l0,0l-0.24-0.16l0,0l-0.16-0.104l0,0l-0.232-0.16l0,0l-0.144-0.096l0,0l-0.08-0.056l0,0L399.584,44l0,0l-0.224-0.152l0,0l-0.12-0.08  l0,0l-0.072-0.048l0,0l-0.136-0.088l0,0l-0.144-0.096l0,0l-0.072-0.048l0,0l-0.128-0.088l0,0l-0.224-0.152l0,0l-0.128-0.088l0,0  l-0.072-0.048l0,0l-0.12-0.08l0,0l-0.112-0.08l0,0l-0.392-0.248l0,0l-0.128-0.08l0,0l-0.216-0.144l0,0l-0.12-0.08l0,0l-0.072-0.048  l0,0l-0.128-0.08l0,0l-0.128-0.088l0,0l-0.064-0.04l0,0l-0.112-0.072l0,0l-0.064-0.04h-0.048l-0.096-0.064h-0.04l-0.384-0.304H396  l-0.024-0.064h-0.048l-0.096-0.064h-0.048l-0.08-0.056l-0.064-0.04h-0.064h-0.048l-0.096-0.064h-0.048h-0.056l-0.088-0.256h-0.056  h-0.056l-0.072-0.048l-0.072-0.048h-0.056h-0.056l-0.08-0.056h-0.056h-0.056l-0.088-0.056h-0.056h-0.056l-0.088-0.056h-0.064h-0.056  l-0.08-0.056h-0.056l-0.064-0.04h-0.048l-0.096-0.064h-0.048l-0.072-0.048l-0.064-0.04l-0.104-0.504h-0.048L393.528,40h-0.048  l-0.064-0.04l-0.064-0.04l-0.08-0.048h-0.048l-0.088-0.056h-0.056l-0.072-0.048h-0.048l-0.12-0.168h-0.048l-0.08-0.048h-0.056  l-0.08-0.048h-0.048l-0.096-0.064h-0.048l-0.064-0.04l-0.032-0.2h-0.072h-0.048l-0.128-0.104h-0.048l-0.072-0.048h-0.048  l-0.096-0.064h-0.048l-0.08-0.048H391.6l-0.08-0.048h-0.048l-0.104-0.064l0,0l-0.08-0.048l0,0l-0.096-0.064h-0.04l-0.144-0.312l0,0  l-0.088-0.056l0,0l-0.104-0.064h-0.04l-0.08-0.048h-0.048l-0.088-0.056h-0.04l-0.104-0.064l0,0l-0.08-0.048h-0.04L390.192,38l0,0  l-0.104-0.064l0,0L390,37.88l0,0l-0.32-0.28l0,0l-0.088-0.056l0,0l-0.112-0.064l0,0l-0.104-0.064l0,0l-0.088-0.056l0,0l-0.104-0.064  l0,0l-0.344-0.184l0,0l-0.112-0.072l0,0l-0.112-0.064l0,0l-0.096-0.056l0,0l-0.168-0.12l0,0l-0.112-0.064l0,0l-0.088-0.056l0,0  l-0.104-0.064l0,0l-0.104-0.064l0,0l-0.104-0.064l0,0l-0.112-0.064l0,0l-0.096-0.056l0,0l-0.392-0.216l0,0l-0.112-0.064l0,0  L387.016,36l0,0l-0.104-0.064l0,0l-0.096-0.056l0,0l-0.104-0.064l0,0l-0.272-0.152l0,0l-0.104-0.064l0,0l-0.112-0.064l0,0  l-0.112-0.064l0,0l-0.096-0.056l0,0l-0.112-0.064l0,0L385.64,35.2l0,0l-0.112-0.064l0,0l-0.112-0.064l0,0l-0.096-0.056l0,0  l-0.112-0.064l0,0l-0.112-0.064l0,0l-0.256-0.168l0,0l-0.112-0.064l0,0l-0.096-0.056l0,0l-0.192-0.12l0,0l-0.144-0.08l0,0  l-0.096-0.056l0,0l-0.16-0.096l0,0l-0.096-0.056l0,0l-0.096-0.056l0,0l-0.104-0.064l0,0l-0.096-0.056l0,0l-0.112-0.064l0,0  l-0.296-0.184l0,0l-0.088-0.048l0,0l-0.2-0.12h-0.04l-0.096-0.056l0,0l-0.096-0.056h-0.048l-0.104-0.056l0,0l-0.128-0.12l0,0  l-0.104-0.064l0,0l-0.112-0.064l0,0l-0.088-0.048h-0.04l-0.104-0.056h-0.048l-0.08-0.048h-0.056l-0.08-0.048h-0.048l-0.232-0.184  h-0.04l-0.072-0.04h-0.048l-0.104-0.056h-0.048l-0.08-0.048h-0.064l-0.072-0.04h-0.048l-0.104-0.056h-0.048l-0.08-0.04h-0.064  l-0.08-0.04h-0.056l-0.096-0.056h-0.056h-0.064h-0.056L380.088,32h-0.048h-0.064l-0.088-0.048h-0.056h-0.056l-0.096-0.048h-0.064  h-0.056l-0.088-0.048h-0.064l0,0L379.392,31.68z M304.44,4.568l-3.008,15.712c12.28,2.352,24.352,5.664,36.112,9.904l5.432-15.048  c-6.984-2.52-14.112-4.744-21.376-6.664l0,0l-0.76-0.2l0,0l-0.296-0.08l0,0l-0.448-0.12l0,0L319.784,8l0,0l-0.296-0.08l0,0h-0.136  l0,0h-0.128l0,0h-0.136l0,0l-0.36-0.192l0,0h-0.136l0,0h-0.128l0,0h-0.136l0,0H318.2l0,0h-0.128l0,0h-0.128l0,0h-0.128l0,0h-0.128  l0,0h-0.112l0,0h-0.128l0,0h-0.12l0,0h-0.136l0,0h-0.128l0,0h-0.104l0,0h-0.128l0,0h-0.104l0,0H316.6h-0.04h-0.12l0,0h-0.104h-0.048  h-0.12h-0.528h-0.096h-0.048h-0.12h-0.04L315.24,6.88h-0.04h-0.112h-0.048h-0.112h-0.048h-0.088h-0.048h-0.12h-0.048h-0.088h-0.048  h-0.112h-0.056h-0.096h-0.056h-0.096h-0.048h-0.12h-0.04h-0.088h-0.088h-0.12h-0.048h-0.088h-0.056h-0.104h-0.048h-0.104h-0.056  h-0.088h-0.056h-0.112h-0.048h-0.088H312.6h-0.12h-0.048h-0.096h-0.056h-0.104h-0.056l-0.08-0.744h-0.08h-0.08h-0.056h-0.112h-0.056  h-0.08h-0.056h-0.104h-0.056h-0.096H311.2h-0.088h-0.056h-0.12h-0.048H310.8h-0.04h-0.12h-0.056h-0.088h-0.064h-0.096h-0.056h-0.12  h-0.04h-0.088h-0.048h-0.12h-0.048h-0.088h-0.088L309.56,5.6h-0.048h-0.096h-0.064h-0.088h-0.048h-0.12h-0.048h-0.096h-0.04h-0.12  h-0.048h-0.096l0,0h-0.12h-0.088h-0.128l0,0h-0.104h-0.04l-0.128-0.32l0,0h-0.104l0,0h-0.128l0,0h-0.128l0,0h-0.12h-0.04l-0.28-0.16  l0,0h-0.104l0,0h-0.128h-0.04h-0.112l0,0h-0.128l0,0l-0.288-0.16l0,0h-0.12l0,0h-0.128l0,0h-0.12l0,0h-0.136l0,0h-0.128l0,0h-0.136  l0,0h-0.136l0,0h-0.128l0,0h-0.136l0,0h-0.128l0,0h-0.136l0,0l-0.552-0.392l0,0H304.44z M256.04,0v16  c2.728,0,5.448,0.048,8.152,0.136l0.536-16C262.936,0.088,261.152,0.04,259.36,0H256.04z" fill="#999999" data-original="#999999"/>
<circle xmlns="http://www.w3.org/2000/svg" style="" cx="256.08" cy="256" r="200.08" fill="#1ba9e2" data-original="#e21b1b" class=""/>
<g xmlns="http://www.w3.org/2000/svg">
</g>
<g xmlns="http://www.w3.org/2000/svg">
</g>
<g xmlns="http://www.w3.org/2000/svg">
</g>
<g xmlns="http://www.w3.org/2000/svg">
</g>
<g xmlns="http://www.w3.org/2000/svg">
</g>
<g xmlns="http://www.w3.org/2000/svg">
</g>
<g xmlns="http://www.w3.org/2000/svg">
</g>
<g xmlns="http://www.w3.org/2000/svg">
</g>
<g xmlns="http://www.w3.org/2000/svg">
</g>
<g xmlns="http://www.w3.org/2000/svg">
</g>
<g xmlns="http://www.w3.org/2000/svg">
</g>
<g xmlns="http://www.w3.org/2000/svg">
</g>
<g xmlns="http://www.w3.org/2000/svg">
</g>
<g xmlns="http://www.w3.org/2000/svg">
</g>
<g xmlns="http://www.w3.org/2000/svg">
</g>
</g></svg>
