

<svg height="512pt" viewBox="0 0 512 512" width="512pt" xmlns="http://www.w3.org/2000/svg"><path d="m456.835938 0h-401.667969c-30.421875 0-55.167969 24.746094-55.167969 55.167969v128.53125c0 30.417969 24.746094 55.167969 55.167969 55.167969h401.667969c30.417968 0 55.164062-24.75 55.164062-55.167969v-128.53125c0-30.421875-24.746094-55.167969-55.164062-55.167969zm0 0" fill="#ff4949"/><path d="m456.835938 0h-200.835938v238.867188h200.835938c30.417968 0 55.164062-24.75 55.164062-55.167969v-128.53125c0-30.421875-24.746094-55.167969-55.164062-55.167969zm0 0" fill="#ff2323"/><path d="m181.371094 114.050781c8.519531-3.695312 13.65625-12.371093 13.65625-25.546875 0-22.816406-15.585938-28.28125-32.292969-28.28125h-31.011719c-4.660156 0-9.15625 2.25-9.15625 6.589844v104.441406c0 3.371094 3.53125 6.425782 9.15625 6.425782h34.0625c18.15625 0 32.136719-9 32.136719-34.066407v-3.371093c0-16.070313-6.75-22.335938-16.550781-26.191407zm-38.078125-35.507812h17.832031c8.195312 0 13.015625 5.140625 13.015625 13.496093 0 8.191407-4.175781 13.816407-12.851563 13.816407h-17.996093zm33.738281 63.304687c0 12.210938-5.78125 17.515625-15.582031 17.515625h-18.15625v-37.117187h18.15625c9.800781 0 15.582031 4.5 15.582031 17.03125zm0 0" fill="#fef4f5"/><path d="m279.058594 60.222656c-5.300782 0-10.445313 1.929688-10.445313 6.429688v75.195312c0 12.53125-6.585937 18.476563-17.671875 18.476563-11.089844 0-17.675781-5.941407-17.675781-18.476563v-75.195312c0-4.5-5.304687-6.429688-10.445313-6.429688-5.300781 0-10.441406 1.929688-10.441406 6.429688v75.195312c0 26.832032 16.871094 36.792969 38.5625 36.792969 21.53125 0 38.5625-9.960937 38.5625-36.792969v-75.195312c0-4.5-5.304687-6.429688-10.445312-6.429688zm0 0" fill="#fef4f5"/><path d="m375.617188 60.222656c-3.375 0-4.820313 1.445313-6.265626 4.179688l-24.585937 46.4375-24.421875-46.4375c-1.445312-2.894532-3.050781-4.179688-6.425781-4.179688-5.625 0-13.820313 3.535156-13.820313 8.679688 0 .480468.160156 1.285156.484375 2.085937l33.257813 57.523438c.320312.480469.480468 1.285156.480468 2.089843v40.492188c0 4.335938 5.304688 6.585938 10.445313 6.585938 5.300781 0 10.445313-2.25 10.445313-6.585938v-40.492188c0-.804687.320312-1.605468.640624-2.089843l33.101563-57.523438c.480469-.800781.480469-1.605469.480469-2.085937 0-5.144532-8.191406-8.679688-13.816406-8.679688zm0 0" fill="#d5eded"/><path d="m334.808594 301.074219h-69.902344v-45.070313c0-12.59375-4.898438-24.429687-13.804688-33.332031-8.902343-8.902344-20.738281-13.804687-33.332031-13.804687-25.988281 0-47.128906 21.144531-47.128906 47.132812v76.53125c-.511719-.015625-1.023437-.023438-1.535156-.023438-12.570313 0-24.390625 4.894532-33.277344 13.78125-8.902344 8.902344-13.804687 20.738282-13.804687 33.328126 0 12.589843 4.902343 24.425781 13.804687 33.328124l66.929687 66.929688c20.714844 20.714844 48.257813 32.125 77.550782 32.125 60.472656 0 109.667968-49.195312 109.667968-109.667969v-46.089843c0-30.421876-24.75-55.167969-55.167968-55.167969zm0 0" fill="#fdd1a3"/><path d="m279.058594 60.222656c-5.300782 0-10.445313 1.929688-10.445313 6.429688v75.195312c0 10.480469-4.621093 16.339844-12.613281 17.980469v18.613281c19.078125-1.503906 33.503906-11.902344 33.503906-36.59375v-75.195312c0-4.5-5.304687-6.429688-10.445312-6.429688zm0 0" fill="#d5eded"/><path d="m334.808594 301.074219h-69.902344v209.851562c5.0625.707031 10.203125 1.074219 15.402344 1.074219 60.46875 0 109.667968-49.195312 109.667968-109.667969v-46.089843c0-30.421876-24.75-55.167969-55.167968-55.167969zm0 0" fill="#f5a86c"/></svg>