<svg id="Capa_1" enable-background="new 0 0 512 512" height="512" viewBox="0 0 512 512" width="512"
     xmlns="http://www.w3.org/2000/svg">
    <g>
        <path d="m230.41 294.119h-90.41c-55.141 0-100-44.86-100-100s44.859-100 100-100h156c55.141 0 100 44.86 100 100 0 6.401-.607 12.803-1.804 19.027-2.087 10.847 5.016 21.331 15.862 23.417 10.853 2.087 21.332-5.016 23.417-15.863 1.675-8.708 2.524-17.651 2.524-26.582 0-77.196-62.804-140-140-140h-155.999c-77.196 0-140 62.804-140 140s62.804 140 140 140h90.41c11.046 0 20-8.954 20-20s-8.954-19.999-20-19.999z"/>
        <path d="m505.059 422.733-78.927-68.042 52.672-22.002c7.943-3.318 12.872-11.347 12.236-19.932s-6.694-15.8-15.039-17.912l-173.421-43.878c-7.343-1.857-15.108.593-20.055 6.33-4.946 5.738-6.227 13.778-3.307 20.768l68.949 165.064c3.304 7.908 11.302 12.872 19.933 12.236 8.585-.636 15.8-6.694 17.911-15.04l14.002-55.338 78.927 68.042c8.364 7.212 20.993 6.278 28.207-2.089 7.213-8.366 6.278-20.995-2.088-28.207zm-143.108-50.386-30.405-72.79 76.476 19.35-27.168 11.349c-5.287 2.208-9.566 6.707-11.371 12.463-.112.358-.216.719-.309 1.085z"/>
    </g>
</svg>