

<svg id="Capa_1" enable-background="new 0 0 510 510" height="512" viewBox="0 0 510 510" width="512" xmlns="http://www.w3.org/2000/svg" xmlns:xlink="http://www.w3.org/1999/xlink"><linearGradient id="SVGID_1_" gradientUnits="userSpaceOnUse" x1="230.558" x2="317.558" y1="338.693" y2="532.693"><stop offset="0" stop-color="#bbec6c"/><stop offset=".2905" stop-color="#abdc59"/><stop offset=".8729" stop-color="#82b22a"/><stop offset="1" stop-color="#78a91f"/></linearGradient><linearGradient id="lg1"><stop offset="0" stop-color="#026841" stop-opacity="0"/><stop offset=".238" stop-color="#076743" stop-opacity=".238"/><stop offset=".5198" stop-color="#156349" stop-opacity=".52"/><stop offset=".8225" stop-color="#2d5d52" stop-opacity=".823"/><stop offset="1" stop-color="#3e5959"/></linearGradient><linearGradient id="SVGID_00000039110260381343801150000014144655349771360412_" gradientUnits="userSpaceOnUse" x1="98.06" x2="130.06" xlink:href="#lg1" y1="338.148" y2="334.148"/><linearGradient id="SVGID_00000028304211666017541520000013270029329571063703_" gradientUnits="userSpaceOnUse" x1="203.141" x2="218.141" xlink:href="#lg1" y1="481.126" y2="447.459"/><linearGradient id="SVGID_00000165939235708033023760000007619001710568161173_" gradientUnits="userSpaceOnUse" x1="438" x2="372.724" xlink:href="#lg1" y1="356.558" y2="356.558"/><linearGradient id="lg2"><stop offset="0" stop-color="#5a5a5a"/><stop offset="1" stop-color="#444"/></linearGradient><linearGradient id="SVGID_00000103958575663215595850000014116071116266085794_" gradientUnits="userSpaceOnUse" x1="196.049" x2="313.951" xlink:href="#lg2" y1="410.874" y2="410.874"/><linearGradient id="lg3"><stop offset="0" stop-color="#1a1a1a" stop-opacity="0"/><stop offset="1" stop-color="#1a1a1a"/></linearGradient><linearGradient id="SVGID_00000073707747926173864160000003040037471150251402_" gradientUnits="userSpaceOnUse" x1="255" x2="255" xlink:href="#lg3" y1="445.212" y2="467.055"/><linearGradient id="SVGID_00000087377331556430502790000002261132187841647783_" gradientUnits="userSpaceOnUse" x1="188.25" x2="274.917" y1="66.696" y2="113.363"><stop offset="0" stop-color="#eaf6ff"/><stop offset="1" stop-color="#b3dafe"/></linearGradient><linearGradient id="SVGID_00000160908397616454663360000012397950240166888108_" gradientUnits="userSpaceOnUse" x1="255" x2="255" y1="94.827" y2="134.877"><stop offset="0" stop-color="#d8ecfe" stop-opacity="0"/><stop offset="1" stop-color="#678d98"/></linearGradient><linearGradient id="lg4"><stop offset="0" stop-color="#fd0"/><stop offset="1" stop-color="#ffb000"/></linearGradient><linearGradient id="SVGID_00000121262096436081669210000000077192568506530490_" gradientUnits="userSpaceOnUse" x1="177.823" x2="204.524" xlink:href="#lg4" y1="112.006" y2="112.006"/><linearGradient id="SVGID_00000109009528456669516130000011895353117261546120_" gradientUnits="userSpaceOnUse" x1="239.432" x2="266.143" xlink:href="#lg4" y1="112.006" y2="112.006"/><linearGradient id="SVGID_00000133523105280575427140000001038604339132740236_" gradientUnits="userSpaceOnUse" x1="301.053" x2="327.754" xlink:href="#lg4" y1="112.006" y2="112.006"/><linearGradient id="lg5"><stop offset="0" stop-color="#fea613" stop-opacity="0"/><stop offset="1" stop-color="#e94444"/></linearGradient><linearGradient id="SVGID_00000096035140555835265880000002307052185370058668_" gradientUnits="userSpaceOnUse" x1="193.385" x2="193.385" xlink:href="#lg5" y1="90.661" y2="143.17"/><linearGradient id="SVGID_00000111904366313128005290000000905889313649189813_" gradientUnits="userSpaceOnUse" x1="255" x2="255" xlink:href="#lg5" y1="90.661" y2="143.17"/><linearGradient id="SVGID_00000167378536444054603400000000014441998179617956_" gradientUnits="userSpaceOnUse" x1="316.615" x2="316.615" xlink:href="#lg5" y1="90.661" y2="143.17"/><linearGradient id="SVGID_00000181784588462153710500000003653067830003056769_" gradientUnits="userSpaceOnUse" x1="190.594" x2="345.551" xlink:href="#lg2" y1="263.046" y2="263.046"/><linearGradient id="SVGID_00000094576609626429763430000011267301912961934004_" gradientUnits="userSpaceOnUse" x1="255" x2="255" xlink:href="#lg3" y1="329.866" y2="380.952"/><linearGradient id="SVGID_00000018222155235642318580000016568039665392728969_" gradientUnits="userSpaceOnUse" x1="225.096" x2="205.096" xlink:href="#lg3" y1="346.356" y2="305.356"/><linearGradient id="SVGID_00000082355027114548209040000001464733759161172881_" gradientUnits="userSpaceOnUse" x1="391.204" x2="257.871" xlink:href="#lg3" y1="374.689" y2="318.689"/><linearGradient id="SVGID_00000085232988316167739530000008657576907130788277_" gradientUnits="userSpaceOnUse" x1="216.973" x2="265.346" xlink:href="#lg4" y1="270.003" y2="318.376"/><g><path d="m129.657 510h85.333c29 0 52.51-23.509 52.51-52.51v-92.576c0-6.883-5.385-12.787-12.266-12.912-7.011-.128-12.734 5.516-12.734 12.498v92.99c0 15.193-12.317 27.51-27.51 27.51h-84.365c-41.784 0-76.455-33.365-76.861-75.148-.409-42.192 33.794-76.646 75.893-76.646h290.653c19.313 0 35.567 15.249 35.923 34.558.12 6.492-1.503 12.736-4.648 18.201-2.786 4.84-2.124 10.917 1.825 14.866l.496.496c5.573 5.573 14.979 4.509 18.997-2.272 5.554-9.375 8.461-20.132 8.333-31.334-.38-33.127-27.961-59.516-61.09-59.516h-289.379c-55.676 0-101.685 44.632-102.005 100.307-.32 55.906 45.065 101.488 100.895 101.488z" fill="url(#SVGID_1_)"/><path d="m130.767 308.207c-24.789 0-47.657 8.853-65.434 23.584v37.107c13.433-21.413 37.235-35.691 64.324-35.691h40.009v-25z" fill="url(#SVGID_00000039110260381343801150000014144655349771360412_)"/><path d="m242.5 417.202v40.288c0 15.193-12.317 27.51-27.51 27.51h-72.394v25h72.394c29 0 52.51-23.509 52.51-52.51v-40.288z" fill="url(#SVGID_00000028304211666017541520000013270029329571063703_)"/><path d="m420.145 308.207h-58.145v25h58.31c19.313 0 35.567 15.249 35.923 34.558.12 6.492-1.503 12.736-4.649 18.201-2.786 4.84-2.124 10.917 1.825 14.866l.496.496c5.573 5.573 14.979 4.509 18.997-2.272 5.554-9.375 8.461-20.132 8.333-31.333-.38-33.128-27.961-59.516-61.09-59.516z" fill="url(#SVGID_00000165939235708033023760000007619001710568161173_)"/><g><path d="m278.772 469.825h-47.544c-19.429 0-35.179-15.75-35.179-35.179v-82.724h117.903v82.724c-.001 19.429-15.751 35.179-35.18 35.179z" fill="url(#SVGID_00000103958575663215595850000014116071116266085794_)"/><path d="m196.049 431.744v2.902c0 19.429 15.75 35.179 35.179 35.179h47.544c19.429 0 35.179-15.75 35.179-35.179v-2.902z" fill="url(#SVGID_00000073707747926173864160000003040037471150251402_)"/></g><g><path d="m356.337 190.826h-202.674v-154.922c0-19.829 16.074-35.904 35.903-35.904h130.868c19.829 0 35.904 16.075 35.904 35.904v154.922z" fill="url(#SVGID_00000087377331556430502790000002261132187841647783_)"/><path d="m153.663 59.161h202.675v131.666h-202.675z" fill="url(#SVGID_00000160908397616454663360000012397950240166888108_)"/><g><path d="m207.28 47.081v143.75h-27.79v-143.75c0-7.68 6.22-13.9 13.89-13.9 7.68 0 13.9 6.22 13.9 13.9z" fill="url(#SVGID_00000121262096436081669210000000077192568506530490_)"/><path d="m268.9 47.081v143.75h-27.8v-143.75c0-7.68 6.23-13.9 13.9-13.9s13.9 6.22 13.9 13.9z" fill="url(#SVGID_00000109009528456669516130000011895353117261546120_)"/><path d="m330.51 47.081v143.75h-27.79v-143.75c0-7.68 6.22-13.9 13.9-13.9 7.67 0 13.89 6.22 13.89 13.9z" fill="url(#SVGID_00000133523105280575427140000001038604339132740236_)"/></g><g><path d="m179.49 59.161h27.79v131.67h-27.79z" fill="url(#SVGID_00000096035140555835265880000002307052185370058668_)"/><path d="m241.1 59.161h27.8v131.67h-27.8z" fill="url(#SVGID_00000111904366313128005290000000905889313649189813_)"/><path d="m302.72 59.161h27.79v131.67h-27.79z" fill="url(#SVGID_00000167378536444054603400000000014441998179617956_)"/></g><g><path d="m301.794 398.025h-93.589c-48.703 0-88.184-39.481-88.184-88.184v-156.887c0-13.745 11.142-24.887 24.887-24.887h220.184c13.745 0 24.887 11.142 24.887 24.887v156.886c0 48.704-39.482 88.185-88.185 88.185z" fill="url(#SVGID_00000181784588462153710500000003653067830003056769_)"/><path d="m120.021 263.047v46.794c0 48.703 39.482 88.184 88.184 88.184h93.589c48.703 0 88.184-39.481 88.184-88.184v-46.794z" fill="url(#SVGID_00000094576609626429763430000011267301912961934004_)"/><path d="m226.958 349.042-45.249-45.25h45.249z" fill="url(#SVGID_00000018222155235642318580000016568039665392728969_)"/></g></g><path d="m313.951 397.187c42.949-5.923 76.027-42.769 76.027-87.346v-28.136l-102.509-102.509h-24.803v199.471l-36.805 61.026 30.132 30.132h22.778c19.429 0 35.179-15.75 35.179-35.179v-37.459z" fill="url(#SVGID_00000082355027114548209040000001464733759161172881_)"/><path d="m318.444 308.03h-22.677c-6.297 0-11.233-5.412-10.654-11.683l9.025-97.782c2.353-25.492-30.941-37.183-45.043-15.817l-68.833 104.293c-5.939 8.998.514 20.989 11.295 20.989h22.677c6.297 0 11.233 5.412 10.654 11.683l-9.025 97.782c-2.353 25.492 30.941 37.183 45.043 15.817l68.833-104.293c5.939-8.998-.514-20.989-11.295-20.989z" fill="url(#SVGID_00000085232988316167739530000008657576907130788277_)"/></g></svg>