<svg id="Capa_1" enable-background="new 0 0 512 512" height="512" viewBox="0 0 512 512" width="512" xmlns="http://www.w3.org/2000/svg"><g><g><g><g><g><path d="m256.22 0h-.22c-141.64 0-256 114.44-256 256 0 141.64 114.44 256 256 256h.22c141.54-.12 255.78-114.51 255.78-256 0-141.57-114.32-255.88-255.78-256z" fill="#76e2f8"/></g></g></g></g><path d="m512 256c0 141.49-114.24 255.88-255.78 256v-512c141.46.12 255.78 114.43 255.78 256z" fill="#3aaaff"/><g><path d="m256.22 60h-.22c-108.08 0-196 87.93-196 196s87.92 196 196 196h.22c107.98-.12 195.78-88 195.78-196s-87.8-195.88-195.78-196z" fill="#fff"/></g><path d="m452 256c0 108-87.8 195.88-195.78 196v-392c107.98.12 195.78 88 195.78 196z" fill="#dfe7f4"/><g><g><path d="m319.611 340.824-78.611-78.611v-141.213h30v128.787l69.824 69.824z" fill="#697c86"/></g></g><path d="m256.218 121v156.431l63.393 63.393 21.213-21.213-69.824-69.824v-128.787z" fill="#3b4a51"/></g></svg>