<svg id="Capa_1" enable-background="new 0 0 510 510" height="512" viewBox="0 0 510 510" width="512" xmlns="http://www.w3.org/2000/svg" xmlns:xlink="http://www.w3.org/1999/xlink"><linearGradient id="SVGID_1_" gradientUnits="userSpaceOnUse" x1="108.77" x2="384.977" y1="80.578" y2="356.784"><stop offset="0" stop-color="#b5dbff"/><stop offset="1" stop-color="#76e2f8"/></linearGradient><linearGradient id="lg1"><stop offset="0" stop-color="#b5dbff" stop-opacity="0"/><stop offset=".2428" stop-color="#93cef6" stop-opacity=".243"/><stop offset=".5763" stop-color="#6abfec" stop-opacity=".576"/><stop offset=".8403" stop-color="#51b5e5" stop-opacity=".84"/><stop offset="1" stop-color="#48b2e3"/></linearGradient><linearGradient id="SVGID_2_" gradientUnits="userSpaceOnUse" x1="215.305" x2="393.014" xlink:href="#lg1" y1="116.854" y2="80.72"/><linearGradient id="SVGID_3_" gradientUnits="userSpaceOnUse" x1="345.055" x2="229.942" y1="441.969" y2="252.065"><stop offset="0" stop-color="#b5dbff" stop-opacity="0"/><stop offset=".1734" stop-color="#8fc5e9" stop-opacity=".173"/><stop offset=".4541" stop-color="#56a4c8" stop-opacity=".454"/><stop offset=".6955" stop-color="#2d8db1" stop-opacity=".696"/><stop offset=".8853" stop-color="#147ea2" stop-opacity=".885"/><stop offset="1" stop-color="#0b799d"/></linearGradient><linearGradient id="SVGID_4_" gradientUnits="userSpaceOnUse" x1="251.311" x2="251.311" xlink:href="#lg1" y1="313.944" y2="382.658"/><linearGradient id="SVGID_5_" gradientUnits="userSpaceOnUse" x1="214.897" x2="214.897" xlink:href="#lg1" y1="176" y2="267.006"/><linearGradient id="SVGID_6_" gradientUnits="userSpaceOnUse" x1="255" x2="255" xlink:href="#lg1" y1="123.255" y2="271.324"/><linearGradient id="SVGID_7_" gradientUnits="userSpaceOnUse" x1="295.103" x2="295.103" xlink:href="#lg1" y1="206.666" y2="264.495"/><linearGradient id="SVGID_8_" gradientTransform="matrix(0 -1 1 0 -110.205 442.413)" gradientUnits="userSpaceOnUse" x1="108.22" x2="108.22" xlink:href="#lg1" y1="220.926" y2="289.346"/><linearGradient id="SVGID_9_" gradientTransform="matrix(0 -1 1 0 -110.205 442.413)" gradientUnits="userSpaceOnUse" x1="144.634" x2="144.634" xlink:href="#lg1" y1="181.271" y2="292.593"/><linearGradient id="SVGID_10_" gradientTransform="matrix(0 -1 -1 0 821.53 442.413)" gradientUnits="userSpaceOnUse" x1="108.22" x2="108.22" xlink:href="#lg1" y1="433.404" y2="491.476"/><linearGradient id="SVGID_11_" gradientTransform="matrix(0 -1 -1 0 821.53 442.413)" gradientUnits="userSpaceOnUse" x1="144.634" x2="144.634" xlink:href="#lg1" y1="399.746" y2="494.232"/><linearGradient id="lg2"><stop offset="0" stop-color="#0b799d"/><stop offset="1" stop-color="#07485e"/></linearGradient><linearGradient id="SVGID_12_" gradientUnits="userSpaceOnUse" x1="153.501" x2="219.703" xlink:href="#lg2" y1="456.499" y2="522.701"/><linearGradient id="lg3"><stop offset="0" stop-color="#ffda2d"/><stop offset="1" stop-color="#fdbf00"/></linearGradient><linearGradient id="SVGID_13_" gradientUnits="userSpaceOnUse" x1="71.5" x2="90.238" xlink:href="#lg3" y1="482.25" y2="500.988"/><linearGradient id="SVGID_14_" gradientUnits="userSpaceOnUse" x1="288.348" x2="375.646" xlink:href="#lg2" y1="410.319" y2="497.617"/><linearGradient id="SVGID_15_" gradientUnits="userSpaceOnUse" x1="425" x2="443.739" xlink:href="#lg3" y1="482.25" y2="500.988"/><linearGradient id="SVGID_16_" gradientUnits="userSpaceOnUse" x1="245" x2="265" xlink:href="#lg2" y1="458.287" y2="458.287"/><linearGradient id="lg4"><stop offset="0" stop-color="#edf5ff"/><stop offset="1" stop-color="#b5dbff"/></linearGradient><linearGradient id="SVGID_17_" gradientUnits="userSpaceOnUse" x1="331.702" x2="349.53" xlink:href="#lg4" y1="292.631" y2="306.215"/><linearGradient id="SVGID_18_" gradientUnits="userSpaceOnUse" x1="331.702" x2="349.53" xlink:href="#lg4" y1="332.734" y2="346.318"/><linearGradient id="SVGID_19_" gradientUnits="userSpaceOnUse" x1="331.702" x2="349.53" xlink:href="#lg4" y1="372.837" y2="386.42"/><linearGradient id="SVGID_20_" gradientUnits="userSpaceOnUse" x1="169.627" x2="187.456" xlink:href="#lg4" y1="292.631" y2="306.215"/><linearGradient id="SVGID_21_" gradientUnits="userSpaceOnUse" x1="169.627" x2="187.456" xlink:href="#lg4" y1="332.734" y2="346.318"/><linearGradient id="SVGID_22_" gradientUnits="userSpaceOnUse" x1="169.627" x2="187.456" xlink:href="#lg4" y1="372.837" y2="386.42"/><linearGradient id="SVGID_23_" gradientTransform="matrix(0 1 1 0 0 0)" gradientUnits="userSpaceOnUse" x1="412.739" x2="430.567" xlink:href="#lg4" y1="211.594" y2="225.178"/><linearGradient id="SVGID_24_" gradientTransform="matrix(0 1 1 0 0 0)" gradientUnits="userSpaceOnUse" x1="412.739" x2="430.567" xlink:href="#lg4" y1="251.697" y2="265.28"/><linearGradient id="SVGID_25_" gradientTransform="matrix(0 1 1 0 0 0)" gradientUnits="userSpaceOnUse" x1="412.739" x2="430.567" xlink:href="#lg4" y1="291.799" y2="305.383"/><linearGradient id="SVGID_26_" gradientTransform="matrix(0 1 1 0 0 0)" gradientUnits="userSpaceOnUse" x1="250.664" x2="268.493" xlink:href="#lg4" y1="211.594" y2="225.178"/><linearGradient id="SVGID_27_" gradientTransform="matrix(0 1 1 0 0 0)" gradientUnits="userSpaceOnUse" x1="250.664" x2="268.493" xlink:href="#lg4" y1="251.697" y2="265.28"/><linearGradient id="SVGID_28_" gradientTransform="matrix(0 1 1 0 0 0)" gradientUnits="userSpaceOnUse" x1="250.664" x2="268.493" xlink:href="#lg4" y1="291.799" y2="305.383"/><linearGradient id="SVGID_29_" gradientUnits="userSpaceOnUse" x1="216" x2="336.304" xlink:href="#lg2" y1="297.037" y2="417.341"/><linearGradient id="SVGID_30_" gradientTransform="matrix(-1 0 0 -1 510 510)" gradientUnits="userSpaceOnUse" x1="224.075" x2="319.471" xlink:href="#lg2" y1="143.037" y2="238.434"/><linearGradient id="SVGID_31_" gradientUnits="userSpaceOnUse" x1="233.5" x2="286.68" y1="314.537" y2="367.717"><stop offset="0" stop-color="#b9dd39"/><stop offset="1" stop-color="#90cc1c"/></linearGradient><g><g><path d="m369.219 76.021c-15.263 0-29.954 2.439-43.717 6.931-14.721-48.028-59.411-82.952-112.262-82.952-64.839 0-117.402 52.563-117.402 117.403 0 9.368 1.104 18.478 3.177 27.213-55.335 3.9-99.015 50.02-99.015 106.347 0 58.885 47.735 106.62 106.62 106.62h262.599c77.751 0 140.781-63.03 140.781-140.781s-63.03-140.781-140.781-140.781z" fill="url(#SVGID_1_)"/><path d="m228.435 216.808c0 5.71.343 11.338 1.007 16.871-5.296.746-10.71 1.125-16.207 1.125-64.84 0-117.395-52.566-117.395-117.407 0-64.828 52.555-117.395 117.395-117.395 52.851 0 97.55 34.926 112.265 82.955-56.346 18.375-97.065 71.356-97.065 133.851z" fill="url(#SVGID_2_)"/><path d="m419.683 348.258-107.505-107.352c-2.599-3.359-34.197-1.684-36.215 3.709-.417-.414-2.931-2.968-3.888-3.709-2.599-3.359-34.197-1.684-36.214 3.709-.417-.414-2.931-2.968-3.888-3.709-2.599-3.359-37.126.831-37.126 8.68v7.167c-9.999 1.206-17.923 9.131-19.13 19.13h-7.168c-7.849 0-12.039 34.527-8.68 37.126.74.957 3.294 3.471 3.709 3.888-5.393 2.018-7.068 33.615-3.709 36.214.332.429 2.232 2.382 4.311 4.471h205.04c17.785.001 34.796-3.306 50.463-9.324z" fill="url(#SVGID_3_)"/><path d="m.821 264.234c6.534 52.621 51.408 93.349 105.799 93.349h262.599c61.107 0 113.112-38.936 132.581-93.349z" fill="url(#SVGID_4_)"/></g><path d="m204.397 141.118h21v119h-21z" fill="url(#SVGID_5_)"/><path d="m244.5 66.5h21v193.618h-21z" fill="url(#SVGID_6_)"/><path d="m284.603 184.5h21v75.618h-21z" fill="url(#SVGID_7_)"/><g><path d="m173.963 323.693v21h-89.466v-21z" fill="url(#SVGID_8_)"/><path d="m173.963 287.279v21h-145.565v-21z" fill="url(#SVGID_9_)"/></g><g><path d="m334.449 323.693v21h75.936v-21z" fill="url(#SVGID_10_)"/><path d="m334.449 287.279v21h123.551v-21z" fill="url(#SVGID_11_)"/></g><g><g><path d="m190.291 499.315h-105.544c-5.522 0-10-4.477-10-10s4.478-10 10-10h105.544c8.191 0 14.856-6.665 14.856-14.856v-47.885c0-5.523 4.478-10 10-10s10 4.477 10 10v47.885c0 19.22-15.636 34.856-34.856 34.856z" fill="url(#SVGID_12_)"/><circle cx="78.25" cy="489" fill="url(#SVGID_13_)" r="21"/></g><g><path d="m319.709 499.315h105.544c5.522 0 10-4.477 10-10s-4.478-10-10-10h-105.544c-8.191 0-14.856-6.665-14.856-14.856v-47.885c0-5.523-4.478-10-10-10s-10 4.477-10 10v47.885c0 19.22 15.636 34.856 34.856 34.856z" fill="url(#SVGID_14_)"/><circle cx="431.75" cy="489" fill="url(#SVGID_15_)" r="21"/></g></g><path d="m255 510c-5.523 0-10-4.477-10-10v-83.426c0-5.523 4.477-10 10-10 5.523 0 10 4.477 10 10v83.426c0 5.523-4.477 10-10 10z" fill="url(#SVGID_16_)"/><g><g><path d="m341.451 315.986h-10.828c-7.849 0-14.211-6.363-14.211-14.211v-11.68c0-7.849 6.363-14.211 14.211-14.211h10.828c7.849 0 14.211 6.363 14.211 14.211v11.68c.001 7.848-6.362 14.211-14.211 14.211z" fill="url(#SVGID_17_)"/><path d="m341.451 356.089h-10.828c-7.849 0-14.211-6.363-14.211-14.211v-11.68c0-7.849 6.363-14.211 14.211-14.211h10.828c7.849 0 14.211 6.363 14.211 14.211v11.68c.001 7.848-6.362 14.211-14.211 14.211z" fill="url(#SVGID_18_)"/><path d="m341.451 396.191h-10.828c-7.849 0-14.211-6.363-14.211-14.211v-11.68c0-7.849 6.363-14.211 14.211-14.211h10.828c7.849 0 14.211 6.363 14.211 14.211v11.68c.001 7.848-6.362 14.211-14.211 14.211z" fill="url(#SVGID_19_)"/></g><g><path d="m179.377 315.986h-10.828c-7.849 0-14.211-6.363-14.211-14.211v-11.68c0-7.849 6.363-14.211 14.211-14.211h10.828c7.849 0 14.211 6.363 14.211 14.211v11.68c0 7.848-6.363 14.211-14.211 14.211z" fill="url(#SVGID_20_)"/><path d="m179.377 356.089h-10.828c-7.849 0-14.211-6.363-14.211-14.211v-11.68c0-7.849 6.363-14.211 14.211-14.211h10.828c7.849 0 14.211 6.363 14.211 14.211v11.68c0 7.848-6.363 14.211-14.211 14.211z" fill="url(#SVGID_21_)"/><path d="m179.377 396.191h-10.828c-7.849 0-14.211-6.363-14.211-14.211v-11.68c0-7.849 6.363-14.211 14.211-14.211h10.828c7.849 0 14.211 6.363 14.211 14.211v11.68c0 7.848-6.363 14.211-14.211 14.211z" fill="url(#SVGID_22_)"/></g></g><g><g><path d="m234.949 422.488v-10.828c0-7.849-6.363-14.211-14.211-14.211h-11.68c-7.849 0-14.211 6.363-14.211 14.211v10.828c0 7.849 6.363 14.211 14.211 14.211h11.68c7.848.001 14.211-6.362 14.211-14.211z" fill="url(#SVGID_23_)"/><path d="m275.051 422.488v-10.828c0-7.849-6.363-14.211-14.211-14.211h-11.68c-7.849 0-14.211 6.363-14.211 14.211v10.828c0 7.849 6.363 14.211 14.211 14.211h11.68c7.849.001 14.211-6.362 14.211-14.211z" fill="url(#SVGID_24_)"/><path d="m315.154 422.488v-10.828c0-7.849-6.363-14.211-14.211-14.211h-11.68c-7.849 0-14.211 6.363-14.211 14.211v10.828c0 7.849 6.363 14.211 14.211 14.211h11.68c7.848.001 14.211-6.362 14.211-14.211z" fill="url(#SVGID_25_)"/></g><g><path d="m234.949 260.414v-10.828c0-7.849-6.363-14.211-14.211-14.211h-11.68c-7.849 0-14.211 6.363-14.211 14.211v10.828c0 7.849 6.363 14.211 14.211 14.211h11.68c7.848 0 14.211-6.362 14.211-14.211z" fill="url(#SVGID_26_)"/><path d="m275.051 260.414v-10.828c0-7.849-6.363-14.211-14.211-14.211h-11.68c-7.849 0-14.211 6.363-14.211 14.211v10.828c0 7.849 6.363 14.211 14.211 14.211h11.68c7.849 0 14.211-6.362 14.211-14.211z" fill="url(#SVGID_27_)"/><path d="m315.154 260.414v-10.828c0-7.849-6.363-14.211-14.211-14.211h-11.68c-7.849 0-14.211 6.363-14.211 14.211v10.828c0 7.849 6.363 14.211 14.211 14.211h11.68c7.848 0 14.211-6.362 14.211-14.211z" fill="url(#SVGID_28_)"/></g></g><g><path d="m312.5 415.486h-115c-12.122 0-21.949-9.827-21.949-21.949v-115c0-12.122 9.827-21.949 21.949-21.949h115c12.122 0 21.949 9.827 21.949 21.949v115c0 12.122-9.827 21.949-21.949 21.949z" fill="url(#SVGID_29_)"/><path d="m209.405 273.037h91.191c9.612 0 17.405 7.792 17.405 17.405v91.191c0 9.612-7.792 17.405-17.405 17.405h-91.191c-9.612 0-17.405-7.792-17.405-17.405v-91.191c0-9.612 7.792-17.405 17.405-17.405z" fill="url(#SVGID_30_)"/><path d="m290.825 385.537h-71.65c-7.553 0-13.675-6.123-13.675-13.675v-71.65c0-7.553 6.123-13.675 13.675-13.675h71.65c7.553 0 13.675 6.123 13.675 13.675v71.65c0 7.553-6.123 13.675-13.675 13.675z" fill="url(#SVGID_31_)"/></g></g></svg>