<?xml version="1.0" encoding="iso-8859-1"?>


<svg xmlns:xlink="http://www.w3.org/1999/xlink" version="1.1" id="Capa_1" xmlns="http://www.w3.org/2000/svg" x="0px"
     y="0px"
     viewBox="0 0 462.36 462.36" style="enable-background:new 0 0 462.36 462.36;" xml:space="preserve">
<path style="fill:#E6E6E6;" d="M359.16,295.247h55.2c26.51,0,48-21.49,48-48s-21.49-48-48-48l0,0
	c-10.09,0.001-19.935,3.113-28.192,8.912c2.47-8.758,3.738-17.812,3.768-26.912c-1.005-57.402-48.353-103.122-105.755-102.117
	c-45.742,0.801-85.584,31.412-98.141,75.405c-11.148-9.827-25.491-15.262-40.352-15.288c-33.427-0.288-60.761,26.573-61.056,60
	c0.027,7.603,1.53,15.129,4.424,22.16C80,207.551,64.553,199.213,48,199.247c-26.51,0-48,21.49-48,48s21.49,48,48,48h47.16
	 M215.16,295.247h32"/>
    <path style="fill:#29485A;" d="M303.16,383.247l48-48h-24v-128h-48v128h-24L303.16,383.247z"/>
    <path style="fill:#06AAE9;" d="M159.16,207.247l-48,48h24v128h48v-128h24L159.16,207.247z"/>
    <g>
</g>
    <g>
</g>
    <g>
</g>
    <g>
</g>
    <g>
</g>
    <g>
</g>
    <g>
</g>
    <g>
</g>
    <g>
</g>
    <g>
</g>
    <g>
</g>
    <g>
</g>
    <g>
</g>
    <g>
</g>
    <g>
</g>
</svg>
