<?xml version="1.0" encoding="iso-8859-1"?>
<!-- Generator: Adobe Illustrator 19.0.0, SVG Export Plug-In . SVG Version: 6.00 Build 0)  -->
<svg version="1.1" id="Capa_1" xmlns="http://www.w3.org/2000/svg" xmlns:xlink="http://www.w3.org/1999/xlink" x="0px" y="0px"
	 viewBox="0 0 512 512" style="enable-background:new 0 0 512 512;" xml:space="preserve">
<rect x="241" y="320.14" style="fill:#8B8992;" width="30" height="67.68"/>
<rect x="256" y="320.14" style="fill:#78777F;" width="15" height="67.68"/>
<path style="fill:#4CD1FF;" d="M474.47,225.055c0,60.7-49.38,110.08-110.08,110.08H132.63c-52.44,0-95.1-42.66-95.1-95.1
	s42.66-95.1,95.1-95.1h0.57v-0.6c0-65.26,53.1-118.36,118.36-118.36c1.49,0,2.97,0.03,4.44,0.09c52.52,1.96,97.4,38.73,110.24,88.92
	C426.08,115.975,474.47,164.975,474.47,225.055z"/>
<rect y="409.42" style="fill:#8B8992;" width="219.4" height="30"/>
<rect x="292.6" y="409.42" style="fill:#78777F;" width="219.4" height="30"/>
<path style="fill:#00A6FF;" d="M474.47,225.055c0,60.7-49.38,110.08-110.08,110.08H256V26.065c52.52,1.96,97.4,38.73,110.24,88.92
	C426.08,115.975,474.47,164.975,474.47,225.055z"/>
<path style="fill:#D9D9DB;" d="M256,362.815c-33.97,0-61.6,27.64-61.6,61.61c0,33.96,27.63,61.6,61.6,61.6s61.6-27.64,61.6-61.6
	C317.6,390.455,289.97,362.815,256,362.815z M256,456.025c-17.42,0-31.6-14.18-31.6-31.6c0-17.43,14.18-31.61,31.6-31.61
	s31.6,14.18,31.6,31.61C287.6,441.845,273.42,456.025,256,456.025z"/>
<path style="fill:#AEADB3;" d="M317.6,424.425c0,33.96-27.63,61.6-61.6,61.6v-30c17.42,0,31.6-14.18,31.6-31.6
	c0-17.43-14.18-31.61-31.6-31.61v-30C289.97,362.815,317.6,390.455,317.6,424.425z"/>
<g>
</g>
<g>
</g>
<g>
</g>
<g>
</g>
<g>
</g>
<g>
</g>
<g>
</g>
<g>
</g>
<g>
</g>
<g>
</g>
<g>
</g>
<g>
</g>
<g>
</g>
<g>
</g>
<g>
</g>
</svg>
