<svg id="Layer_1" enable-background="new 0 0 64 64" height="512" viewBox="0 0 64 64" width="512" xmlns="http://www.w3.org/2000/svg"><path d="m46 11h-.7c-3.9-7.3-13-10.1-20.3-6.3-2.7 1.4-4.9 3.6-6.3 6.3h-.7c-6.1 0-11 4.9-11 11s4.9 11 11 11h28c6.1 0 11-4.9 11-11s-4.9-11-11-11z" fill="#428be3"/><path d="m29 44h6c1.1 0 2 .9 2 2v13c0 1.1-.9 2-2 2h-6c-1.1 0-2-.9-2-2v-13c0-1.1.9-2 2-2z" fill="#d9d6d1"/><path d="m27 57h10v2c0 1.1-.9 2-2 2h-6c-1.1 0-2-.9-2-2z" fill="#bab8b4"/><path d="m5 44h14c1.1 0 2 .9 2 2v8c0 1.1-.9 2-2 2h-14c-1.1 0-2-.9-2-2v-8c0-1.1.9-2 2-2z" fill="#d9d6d1"/><path d="m14 56h-4l-1 5h6z" fill="#a8a6a6"/><path d="m6 60h12v2h-12z" fill="#bdbbb9"/><path d="m3 52h18v2c0 1.1-.9 2-2 2h-14c-1.1 0-2-.9-2-2z" fill="#bab8b4"/><path d="m58 44h-12c-1.1 0-2 .9-2 2v7h16v-7c0-1.1-.9-2-2-2z" fill="#d9d6d1"/><path d="m60 53h-16l-1 4v2c0 1.1.9 2 2 2h14c1.1 0 2-.9 2-2v-2z" fill="#bab8b4"/><path d="m43 57h18v2c0 1.1-.9 2-2 2h-14c-1.1 0-2-.9-2-2z" fill="#a8a6a6"/><g fill="#ffa500"><path d="m31 29h2v15h-2z"/><path d="m53 44h-2v-2c0-.6-.4-1-1-1h-11c-1.7 0-3-1.3-3-3v-9h2v9c0 .6.4 1 1 1h11c1.7 0 3 1.3 3 3z"/><path d="m13 44h-2v-2c0-1.7 1.3-3 3-3h11c.6 0 1-.4 1-1v-9h2v9c0 1.7-1.3 3-3 3h-11c-.6 0-1 .4-1 1z"/></g><path d="m17.6 11c-1.1 2.2-1.6 4.6-1.6 7h2c0-2.5.7-4.9 1.9-7z" fill="#2366b5"/><path d="m44.1 11c1.2 2.1 1.9 4.5 1.9 7h2c0-2.4-.6-4.8-1.6-7z" fill="#2366b5"/></svg>