<!--
  - Copyright (c) 2023. Selldone® Business OS™
  -
  - Author: M.Pajuhaan
  - Web: https://selldone.com
  - ━━━━━━━━━━━━━━━━━━━━━━━━━━━━━━━━━━━━━━━━━━━━━━━━━━━━━━
  -
  - All rights reserved. In the weave of time, where traditions and innovations intermingle, this content was crafted.
  - From the essence of thought, through the corridors of creativity, each word, and sentiment has been molded.
  - Not just to exist, but to inspire. Like an artist's stroke or a sculptor's chisel, every nuance is deliberate.
  - Our journey is not just about reaching a destination, but about creating a masterpiece.
  - Tread carefully, for you're treading on dreams.
  -->

<svg id="Layer_1" enable-background="new 0 0 50 50" height="512" viewBox="0 0 50 50" width="512" xmlns="http://www.w3.org/2000/svg"><g><g><path d="m39.43169 18.17375c-2.77553 1.8768-9.88195 6.95955-18.63434 15.25225l-12.17192-7.07004c11.01518-10.43666 19.43195-15.78903 19.87222-16.06512 0 0 2.87461-1.48457 4.15227-1.48457 1.28625 0 15.14153 8.33879 15.14153 8.33879l-5.70216.17279c-.95095.02882-1.86947.32297-2.6576.8559z" fill="#768c95"/><g><g enable-background="new"><g><path d="m22.09005 39.58337-12.17261-7.06675c-.07399-.04938-1.52589-1.82296-1.52589-1.82296-1.06069-1.61569.1726-4.20573.23433-4.34122l12.17261 7.06675c-.06173.14754-1.30729 2.73758-.24668 4.34122.01235.01204 1.4519 1.78563 1.53824 1.82296z" fill="#546f7a"/></g></g></g><g><path d="m19.50347 34.92347v1.06047l-10.71725-6.19056v-1.06107l.32059.18547z" fill="#475e68"/></g><g><path d="m19.50347 34.92347v.62929l-10.39666-6.00629v-.62869z" fill="#35484f"/></g><path d="m48.90504 20.9176c-.3194 2.04602-1.6488 4.29901-3.28037 5.56776-.74342.57114-1.65749 1.0817-2.59842 1.09678-.90845 0-1.67317-.57222-3.13363-.29379-2.08043.43163-3.98825 1.23461-5.67161 2.20999-4.76515 2.7626-7.86427 6.8715-8.57215 7.90758-.11223.15512-.25033.27609-.38842.37978l-2.62434 1.67467c-.06043.04299-.48567.10571-.54605.12299-.25038.08641-1.53438-1.8238-1.53438-1.8238-1.02728-1.5537.10359-4.0225.23304-4.31629.00864-.02571.01728-.03414.03456-.05185 9.79796-9.27118 17.52413-14.511 19.42331-15.75446.29348-.19811.61288-.33637.95821-.42278 1.22581-.31951 4.30765-1.00151 6.12052-.34522.24169.08599.42299.19853.56109.34522.88054.56105 1.32081 1.86479 1.01864 3.70342z" fill="#475e68"/><g><g><path d="m36.52623 16.24872c-.56726.39444-1.22095.86295-1.97324 1.41817-1.61561 1.15923-3.63823 2.6888-5.95683 4.57547l-5.062-2.62394-2.95994-1.57835c.34536-.27159.6783-.54258 1.01131-.78948.76464-.61665 1.47997-1.17127 2.14592-1.67711.46866-.34566.91262-.67807 1.31963-.98639 1.80064-1.33205 3.14489-2.24498 3.89718-2.73818l3.73692 2.17031 1.36894.78948 1.14243.66775z" fill="#28b9fc"/></g><g><path d="m20.10759 17.79017.46444.2481c4.07738-3.26149 7.08527-5.33303 8.37622-6.18815v-.61785c-1.34071.88824-4.5206 3.0742-8.84066 6.5579z" fill="#475e68"/><path d="m28.94825 11.23227v.61785l7.57353 4.40162c.16658-.11562.3364-.23425.48544-.33603z" fill="#546f7a"/></g><g fill="#53c7fd"><path d="m34.05411 14.8087-10.32267.76479c.46866-.34566.91262-.67807 1.31963-.98639l7.6341-.56787z"/><path d="m36.52623 16.24872c-.94464.65683-1.24146.87808-1.97324 1.41817l-11.01884 1.95154-2.95994-1.57835c.34536-.27159.6783-.54258 1.01131-.78948l13.61102-1.77415z"/></g></g><g><g enable-background="new"><g><path d="m32.541 22.25879c.04111.16427-.02739.34928-.20554.50686-.28776.2469-.7674.31516-1.07573.13717l-.93324-.53794c-.11651-.06858-.19187-.16427-.21926-.274l-.11647-.47273c.02739.1094.10275.20542.21922.274l.94014.53794c.30148.17799.78793.1094 1.06887-.14386.17815-.15089.24665-.3359.20555-.50017z" fill="#b0b8bc"/></g><g><path d="m32.20724 21.51139c.30623.1768.30617.52479.01491.77784-.28691.24927-.76817.31944-1.07439.14264l-.93558-.54015c-.30185-.17427-.30617-.52479-.01926-.77406.29126-.25305.7769-.32069 1.07874-.14642z" fill="#dde4e7"/></g></g></g><g><g><g enable-background="new"><g><path d="m13.4052 26.46556c.04111.16427-.02739.34928-.20554.50686-.76863.65949-1.55553-.23014-2.00897-.40077-.27389-.16123-.21514-.3737-.33573-.74673.02739.1094.10275.20542.21922.274.46019.17239 1.26311 1.06647 2.00901.39408.17815-.15089.24665-.3359.20554-.50017z" fill="#ee534f"/></g><g><path d="m13.08635 26.49601c-.77123.67004-1.54602-.22337-2.00997-.39752-.72137-.41648.33502-1.33875 1.05948-.92048 0 0 1.72668.64365.95049 1.318z" fill="#f17572"/></g></g></g><g><g enable-background="new"><g><path d="m16.10106 28.02371c.04111.16427-.02739.34928-.20554.50686-.28776.2469-.7674.31516-1.07573.13717l-.93324-.53794c-.11651-.06858-.19187-.16427-.21926-.274l-.11647-.47273c.02739.1094.10275.20542.21922.274l.94014.53794c.30148.17798.78793.1094 1.06887-.14386.17815-.15089.24665-.3359.20554-.50017z" fill="#fed44c"/></g><g><path d="m15.76729 27.27631c.30623.1768.30617.52479.01491.77784-.28691.24927-.76817.31944-1.07439.14264l-.93557-.54016c-.30185-.17427-.30617-.52479-.01926-.77406.29126-.25305.7769-.32069 1.07874-.14642z" fill="#fee182"/></g></g></g><g><g enable-background="new"><g><path d="m18.79691 29.58185c.04111.16427-.02739.34928-.20555.50686-.28776.2469-.76739.31516-1.07573.13717l-.93324-.53794c-.11651-.06858-.19187-.16427-.21926-.274l-.11647-.47273c.02739.1094.10275.20542.21922.274l.94014.53794c.30148.17798.78793.1094 1.06887-.14386.17815-.15088.24665-.3359.20555-.50016z" fill="#28b9fc"/></g><g><path d="m18.46314 28.83446c.30622.1768.30617.52479.01491.77784-.28691.24927-.76817.31944-1.07439.14264l-.93558-.54016c-.30185-.17427-.30617-.52479-.01926-.77406.29126-.25305.7769-.32069 1.07874-.14642z" fill="#53c7fd"/></g></g></g><g><g enable-background="new"><g><path d="m21.49276 31.14c.04111.16427-.02739.34928-.20555.50686-.28776.2469-.76739.31516-1.07573.13717l-.93324-.53794c-.11651-.06858-.19187-.16427-.21926-.274l-.11647-.47273c.02739.1094.10275.20542.21922.274l.94014.53794c.30148.17798.78793.1094 1.06887-.14386.17815-.15088.24665-.3359.20555-.50017z" fill="#7db343"/></g><g><path d="m21.159 30.3926c.30622.1768.30617.52479.01491.77784-.28691.24927-.76817.31944-1.07439.14264l-.93558-.54015c-.30185-.17427-.30617-.52479-.01926-.77406.29126-.25305.7769-.32069 1.07874-.14642z" fill="#97c269"/></g></g></g></g><g><g><g enable-background="new"><g><path d="m15.17313 24.62224c.04111.16427-.02739.34928-.20555.50686-.28776.2469-.76739.31516-1.07573.13717l-.93324-.53794c-.11651-.06858-.19187-.16427-.21926-.274l-.11647-.47273c.02739.1094.10275.20542.21922.274l.94014.53794c.30148.17799.78793.1094 1.06887-.14386.17815-.15089.24665-.3359.20554-.50017z" fill="#b0b8bc"/></g><g><path d="m14.83937 23.87484c.30623.1768.30617.52479.01491.77784-.28691.24927-.76817.31944-1.07439.14264l-.93557-.54015c-.30185-.17427-.30617-.52479-.01926-.77406.29126-.25305.77689-.32069 1.07874-.14642z" fill="#dde4e7"/></g></g></g><g><g enable-background="new"><g><path d="m17.86898 26.18039c.04111.16427-.02739.34928-.20554.50686-.28776.2469-.7674.31515-1.07573.13717l-.93324-.53794c-.11651-.06858-.19187-.16427-.21926-.274l-.11647-.47273c.02739.1094.10275.20542.21922.274l.94014.53794c.30148.17799.78793.1094 1.06887-.14386.17815-.15089.24665-.3359.20554-.50017z" fill="#b0b8bc"/></g><g><path d="m17.53522 25.43299c.30622.1768.30617.52479.01491.77784-.28691.24927-.76817.31944-1.07439.14264l-.93557-.54015c-.30185-.17427-.30617-.52479-.01926-.77406.29126-.25305.77689-.32069 1.07874-.14642z" fill="#dde4e7"/></g></g></g><g><g enable-background="new"><g><path d="m20.56483 27.73853c.04111.16427-.02739.34928-.20554.50686-.28776.2469-.7674.31515-1.07573.13717l-.93324-.53794c-.11651-.06858-.19187-.16427-.21926-.274l-.11647-.47273c.02739.1094.10275.20542.21922.274l.94014.53794c.30148.17799.78793.1094 1.06887-.14386.17815-.15089.24665-.3359.20554-.50017z" fill="#b0b8bc"/></g><g><path d="m20.23107 26.99113c.30622.1768.30617.52479.01491.77784-.28691.24927-.76817.31944-1.07439.14264l-.93557-.54016c-.30185-.17427-.30617-.52479-.01926-.77406.29126-.25305.7769-.32069 1.07874-.14642z" fill="#dde4e7"/></g></g></g><g><g enable-background="new"><g><path d="m23.26069 29.29667c.04111.16427-.02739.34928-.20554.50686-.28776.2469-.7674.31516-1.07573.13717l-.93324-.53794c-.11651-.06858-.19187-.16427-.21926-.274l-.11647-.47273c.02739.1094.10275.20542.21922.274l.94014.53794c.30148.17798.78793.1094 1.06887-.14386.17815-.15089.24665-.3359.20554-.50017z" fill="#b0b8bc"/></g><g><path d="m22.92692 28.54928c.30622.1768.30617.52479.01491.77784-.28691.24927-.76817.31944-1.07439.14264l-.93557-.54016c-.30185-.17427-.30617-.52479-.01926-.77406.77122-.67004 1.57025.22705 2.01431.39374z" fill="#dde4e7"/></g></g></g></g><g><g><g enable-background="new"><g><path d="m16.94106 22.77892c.04111.16427-.02739.34928-.20555.50686-.28776.2469-.76739.31516-1.07573.13717l-.93324-.53795c-.11651-.06858-.19187-.16427-.21926-.274l-.11647-.47273c.02739.1094.10275.20542.21922.274l.94014.53794c.30148.17798.78793.1094 1.06887-.14386.17815-.15089.24665-.3359.20555-.50017z" fill="#b0b8bc"/></g><g><path d="m16.60729 22.03152c.30623.1768.30617.52479.01491.77784-.28691.24927-.76817.31944-1.07439.14264l-.93557-.54016c-.30185-.17427-.30617-.52479-.01926-.77406.29126-.25305.77689-.32069 1.07874-.14642z" fill="#dde4e7"/></g></g></g><g><g enable-background="new"><g><path d="m19.63691 24.33706c.04111.16427-.02739.34928-.20555.50686-.28776.2469-.7674.31516-1.07573.13717l-.93324-.53794c-.11651-.06858-.19187-.16427-.21926-.274l-.11647-.47273c.02739.1094.10275.20542.21922.274l.94014.53794c.30148.17798.78793.1094 1.06887-.14386.17815-.15088.24665-.3359.20555-.50016z" fill="#b0b8bc"/></g><g><path d="m19.30314 23.58966c.30623.1768.30617.52479.01491.77784-.28691.24927-.76817.31944-1.07439.14264l-.93558-.54015c-.30185-.17427-.30617-.52479-.01926-.77406.29126-.25305.77689-.32069 1.07874-.14642z" fill="#dde4e7"/></g></g></g><g><g enable-background="new"><g><path d="m22.12722 26.40206c-.76863.65949-1.55553-.23015-2.00897-.40077-.11651-.06859-.19187-.16427-.21926-.274l-.11647-.47273c.02739.1094.10275.20542.21922.274l.94014.53794c.30148.17799.78793.1094 1.06887-.14386.17815-.15089.24665-.3359.20555-.50017.03755.34664.30967.6269-.08908.97959z" fill="#b0b8bc"/></g><g><path d="m22.0139 25.92565c-.28691.24927-.76817.31944-1.07439.14264l-.93558-.54015c-.30185-.17427-.30617-.52479-.01926-.77406.29126-.25305.77689-.32069 1.07874-.14642.31299.26841 1.72668.64364.95049 1.31799z" fill="#dde4e7"/></g></g></g><g><g enable-background="new"><g><path d="m25.02861 27.45335c.04111.16427-.02739.34928-.20555.50686-.76863.65949-1.55553-.23015-2.00897-.40077-.27389-.16123-.21514-.3737-.33573-.74673.02739.1094.10275.20542.21922.274l.94014.53794c.30148.17799.78793.1094 1.06887-.14386.17815-.15089.24665-.3359.20555-.50017z" fill="#b0b8bc"/></g><g><path d="m24.70976 27.48379c-.28691.24927-.76817.31944-1.07439.14264-.32082-.27514-1.72487-.64521-.95484-1.31421.29126-.25305.77689-.32069 1.07874-.14642.31298.26841 1.72667.64364.95049 1.31799z" fill="#dde4e7"/></g></g></g></g><g><g><g enable-background="new"><g><path d="m19.0266 20.93559c.04111.16427-.02739.34928-.20555.50686-.28776.2469-.7674.31515-1.07573.13717l-.93324-.53794c-.11651-.06858-.19187-.16427-.21926-.274l-.11647-.47273c.02739.1094.10275.20542.21922.274l.94014.53794c.30148.17799.78793.1094 1.06887-.14386.17815-.15089.24665-.3359.20555-.50017z" fill="#b0b8bc"/></g><g><path d="m18.69283 20.18819c.30623.1768.30617.52479.01491.77784-.28691.24927-.76817.31944-1.07439.14264l-.93558-.54015c-.30185-.17427-.30617-.52479-.01926-.77406.29126-.25305.7769-.32069 1.07874-.14642z" fill="#dde4e7"/></g></g></g><g><g enable-background="new"><g><path d="m21.72245 22.49374c.04111.16427-.02739.34928-.20555.50686-.28776.2469-.7674.31516-1.07573.13717l-.93324-.53794c-.11651-.06858-.19187-.16427-.21926-.274l-.11647-.47273c.02739.1094.10275.20542.21922.274l.94014.53794c.30148.17799.78793.1094 1.06887-.14386.17815-.15089.24665-.3359.20555-.50017z" fill="#b0b8bc"/></g><g><path d="m21.38869 21.74634c.30623.1768.30617.52479.01491.77784-.28691.24927-.76817.31944-1.07439.14264l-.93558-.54016c-.30185-.17427-.30617-.52479-.01926-.77406.29126-.25305.7769-.32069 1.07874-.14642z" fill="#dde4e7"/></g></g></g><g><g enable-background="new"><g><path d="m24.4183 24.05188c.04111.16427-.02739.34928-.20555.50686-.28776.2469-.7674.31516-1.07573.13717l-.93324-.53794c-.11651-.06858-.19187-.16427-.21926-.274l-.11647-.47273c.02739.1094.10275.20542.21922.274.46019.17239 1.26311 1.06647 2.00901.39408.17815-.15089.24665-.3359.20555-.50017z" fill="#b0b8bc"/></g><g><path d="m24.08454 23.30449c.30623.1768.30617.52479.01491.77784-.77123.67004-1.54602-.22336-2.00997-.39752-.30185-.17427-.30617-.52479-.01926-.77406.29126-.25305.7769-.32069 1.07874-.14642z" fill="#dde4e7"/></g></g></g><g><g enable-background="new"><g><path d="m27.11416 25.61003c.04111.16427-.02739.34928-.20555.50686-.28776.2469-.7674.31516-1.07573.13717l-.93324-.53794c-.11651-.06858-.19187-.16427-.21926-.274l-.11647-.47273c.0722.28836.37554.32548 1.15936.81194.30148.17798.78793.1094 1.06887-.14386.17815-.15088.24665-.3359.20555-.50016z" fill="#b0b8bc"/></g><g><path d="m26.78039 24.86263c.30623.1768.30617.52479.01491.77784-.28691.24927-.76817.31944-1.07439.14264-.32082-.27514-1.72487-.64521-.95484-1.31421.29126-.25305.7769-.32069 1.07874-.14642z" fill="#dde4e7"/></g></g></g></g><g><g enable-background="new"><g><path d="m34.55251 20.75762c.04111.16427-.02739.34928-.20555.50686-.28776.2469-.76739.31515-1.07573.13717l-.93324-.53794c-.11651-.06858-.19187-.16427-.21926-.274l-.11647-.47273c.02739.1094.10275.20542.21922.274l.94014.53794c.30148.17799.78793.1094 1.06887-.14386.17815-.15089.24665-.3359.20554-.50017z" fill="#b0b8bc"/></g><g><path d="m34.21874 20.01022c.30622.1768.30617.52479.01491.77784-.28691.24927-.76817.31944-1.07439.14264l-.93558-.54015c-.30185-.17427-.30617-.52479-.01926-.77406.29126-.25305.7769-.32069 1.07875-.14642z" fill="#dde4e7"/></g></g></g><g><g enable-background="new"><g><path d="m36.56401 19.25645c.04111.16427-.02739.34928-.20554.50686-.28776.2469-.7674.31516-1.07573.13717l-.93324-.53794c-.11651-.06858-.19187-.16427-.21926-.274l-.11647-.47273c.02739.1094.10275.20542.21922.274l.94014.53794c.30148.17798.78793.1094 1.06887-.14386.17815-.15089.24665-.3359.20554-.50017z" fill="#b0b8bc"/></g><g><path d="m36.23025 18.50905c.30622.1768.30617.52479.01491.77784-.28691.24927-.76817.31944-1.07439.14264l-.93557-.54016c-.30185-.17427-.30617-.52479-.01926-.77406.29126-.25305.77689-.32069 1.07874-.14642z" fill="#dde4e7"/></g></g></g><g><g enable-background="new"><g><path d="m38.57552 17.75528c.04111.16427-.02739.34928-.20554.50686-.28776.2469-.7674.31516-1.07573.13717l-.93325-.53794c-.11651-.06858-.19187-.16427-.21926-.274l-.11647-.47273c.02739.1094.10275.20542.21922.274l.94014.53794c.30148.17798.78793.1094 1.06887-.14386.17815-.15088.24665-.3359.20555-.50016z" fill="#b0b8bc"/></g><g><path d="m38.24175 17.00788c.30623.1768.30617.52479.01491.77784-.28691.24927-.76817.31944-1.07439.14264l-.93557-.54015c-.30185-.17427-.30617-.52479-.01926-.77406.29126-.25305.77689-.32069 1.07874-.14642z" fill="#dde4e7"/></g></g></g></g><g><g enable-background="new"><g><path d="m19.29549 34.78285c-1.20923-.42931-2.66772-.13387-4.11235.70155-1.90617 1.09841-3.78924 3.13839-5.07695 5.70932l-9.10619-5.28924c1.28307-2.57544 3.17079-4.61541 5.07695-5.71405 1.44463-.83519 2.89846-1.12613 4.11232-.70132z" fill="#fed44c"/></g></g></g></g></svg>