<?xml version="1.0" encoding="iso-8859-1"?>
<!-- Generator: Adobe Illustrator 19.0.0, SVG Export Plug-In . SVG Version: 6.00 Build 0)  -->
<svg version="1.1" id="Capa_1" xmlns="http://www.w3.org/2000/svg" xmlns:xlink="http://www.w3.org/1999/xlink" x="0px" y="0px"
	 viewBox="0 0 417.698 417.698" style="enable-background:new 0 0 417.698 417.698;" xml:space="preserve">
<g>
	<path style="fill:#1185E0;" d="M305.763,326.782c-3.657,0-7.837-1.567-10.971-4.18c-6.269-5.747-6.792-15.673-0.522-21.943
		l86.727-91.951l-86.727-91.429c-5.747-6.269-5.747-16.196,0.522-21.943s16.196-5.747,21.943,0.522l96.653,102.4
		c5.747,6.269,5.747,15.673,0,21.42l-96.131,102.4C314.122,325.214,309.943,326.782,305.763,326.782z"/>
	<path style="fill:#1185E0;" d="M112.457,326.782c-4.18,0-8.359-1.567-11.494-4.702L4.31,219.68c-5.747-6.269-5.747-15.673,0-21.42
		l96.653-102.4c5.747-6.269,15.673-6.792,21.943-0.522c6.269,5.747,6.792,15.673,0.522,21.943l-86.204,91.429l86.727,91.429
		c5.747,6.269,5.747,16.196-0.522,21.943C120.294,325.214,116.114,326.782,112.457,326.782z"/>
</g>
<path style="fill:#4DCFE0;" d="M186.122,374.847c-1.045,0-1.567,0-2.612,0c-8.359-1.045-14.629-9.404-13.061-17.763l45.975-300.931
	c1.045-8.359,9.404-14.629,17.763-13.061c8.359,1.567,14.629,9.404,13.061,17.763l-45.976,300.931
	C200.229,369.1,193.959,374.847,186.122,374.847z"/>
<g>
</g>
<g>
</g>
<g>
</g>
<g>
</g>
<g>
</g>
<g>
</g>
<g>
</g>
<g>
</g>
<g>
</g>
<g>
</g>
<g>
</g>
<g>
</g>
<g>
</g>
<g>
</g>
<g>
</g>
</svg>
