

<svg id="Capa_1" enable-background="new 0 0 511.987 511.987" height="512" viewBox="0 0 511.987 511.987" width="512" xmlns="http://www.w3.org/2000/svg" xmlns:xlink="http://www.w3.org/1999/xlink"><linearGradient id="lg1"><stop offset="0" stop-color="#ffbef9"/><stop offset="1" stop-color="#fff1ff"/></linearGradient><linearGradient id="SVGID_1_" gradientUnits="userSpaceOnUse" x1="255.994" x2="255.994" xlink:href="#lg1" y1="179.973" y2="0"/><linearGradient id="SVGID_2_" gradientUnits="userSpaceOnUse" x1="165.994" x2="165.994" xlink:href="#lg1" y1="179.973" y2="0"/><linearGradient id="SVGID_3_" gradientUnits="userSpaceOnUse" x1="255.994" x2="255.994" y1="511.988" y2="211.988"><stop offset="0" stop-color="#a93aff"/><stop offset="1" stop-color="#ff81ff"/></linearGradient><g><g><g><path d="m256.008 179.973c-3.267 0-6.563-1.069-9.331-3.267-6.475-5.142-7.544-14.561-2.432-21.05 3.267-4.146 11.748-17.271 11.748-28.169 0-11.016-8.672-24.331-11.719-28.125-1.86-2.344-18.281-23.54-18.281-46.875s16.421-44.531 18.281-46.875c5.171-6.416 14.546-7.515 21.035-2.344 6.475 5.142 7.544 14.561 2.432 21.05-3.267 4.146-11.748 17.271-11.748 28.169 0 11.016 8.672 24.331 11.719 28.125 1.86 2.344 18.281 23.54 18.281 46.875s-16.421 44.531-18.281 46.875c-2.958 3.692-7.309 5.611-11.704 5.611z" fill="url(#SVGID_1_)"/></g><g><path d="m166.008 179.973c-3.267 0-6.563-1.069-9.331-3.267-6.475-5.142-7.544-14.561-2.432-21.05 3.267-4.146 11.748-17.271 11.748-28.169 0-11.016-8.672-24.331-11.719-28.125-1.86-2.344-18.281-23.54-18.281-46.875s16.421-44.531 18.281-46.875c5.156-6.416 14.531-7.515 21.035-2.344 6.475 5.142 7.544 14.561 2.432 21.05-3.267 4.146-11.748 17.271-11.748 28.169 0 11.016 8.672 24.331 11.719 28.125 1.86 2.344 18.281 23.54 18.281 46.875s-16.421 44.531-18.281 46.875c-2.959 3.692-7.309 5.611-11.704 5.611z" fill="url(#SVGID_2_)"/></g></g></g><g><g><path d="m495.994 286.987c0-41.353-33.647-75-75-75h-390c-8.291 0-15 6.709-15 15v90c0 107.52 87.48 195 195 195 49.881 0 95.441-18.837 129.962-49.759 17.418-8.789 155.038-81.221 155.038-175.241zm-107.213 110.082c11.054-24.444 17.212-51.557 17.212-80.081v-75h15c24.814 0 45 20.186 45 45 .001 42.761-39.996 82.426-77.212 110.081z" fill="url(#SVGID_3_)"/></g></g></svg>