

<svg height="512" viewBox="0 0 64 64" width="512" xmlns="http://www.w3.org/2000/svg"><g id="Flat"><g id="Flat_copy" data-name="Flat copy"><g><path d="m61 35v-6l-7.432-1.351a21.864 21.864 0 0 0 -.717-2.662l5.764-4.887-3-5.2-7.115 2.55a22.038 22.038 0 0 0 -1.945-1.945l2.545-7.12-5.2-3-4.889 5.764a21.864 21.864 0 0 0 -2.662-.717l-1.349-7.432h-6l-1.351 7.432a21.864 21.864 0 0 0 -2.662.717l-4.887-5.764-5.2 3 2.548 7.12a22.038 22.038 0 0 0 -1.945 1.945l-7.118-2.55-3 5.2 5.764 4.889a21.864 21.864 0 0 0 -.717 2.662l-7.432 1.349v6l7.432 1.351a21.864 21.864 0 0 0 .717 2.662l-5.764 4.887 3 5.2 7.12-2.548a22.038 22.038 0 0 0 1.945 1.948l-2.55 7.115 5.2 3 4.889-5.764a21.864 21.864 0 0 0 2.662.717l1.349 7.432h6l1.351-7.432a21.864 21.864 0 0 0 2.662-.717l4.887 5.764 5.2-3-2.55-7.115a22.038 22.038 0 0 0 1.95-1.95l7.12 2.548 3-5.2-5.764-4.889a21.864 21.864 0 0 0 .717-2.662zm-29 11a14 14 0 1 1 14-14 14 14 0 0 1 -14 14z" fill="#57b7eb"/><path d="m39 32a6.967 6.967 0 0 0 -.2-1.619l1.99-1.149-2-3.464-1.99 1.149a6.973 6.973 0 0 0 -2.8-1.623v-2.294h-4v2.294a6.973 6.973 0 0 0 -2.8 1.623l-1.991-1.149-2 3.464 1.99 1.149a6.785 6.785 0 0 0 0 3.238l-1.99 1.149 2 3.464 1.991-1.149a6.973 6.973 0 0 0 2.8 1.623v2.294h4v-2.294a6.973 6.973 0 0 0 2.8-1.623l1.991 1.149 2-3.464-1.991-1.149a6.967 6.967 0 0 0 .2-1.619zm-7 3a3 3 0 1 1 3-3 3 3 0 0 1 -3 3z" fill="#fcbc04"/><path d="m50.5 44a31.5 31.5 0 0 1 -9.357-1.413 13.986 13.986 0 0 1 -20.194-19.161 31.517 31.517 0 0 1 -1.175-17.853l-4.874 2.812 2.548 7.12a22.038 22.038 0 0 0 -1.945 1.945l-7.118-2.55-3 5.2 5.764 4.889a21.864 21.864 0 0 0 -.717 2.662l-7.432 1.349v6l7.432 1.351a21.864 21.864 0 0 0 .717 2.662l-5.764 4.887 3 5.2 7.12-2.548a22.038 22.038 0 0 0 1.945 1.948l-2.55 7.115 5.2 3 4.889-5.764a21.864 21.864 0 0 0 2.662.717l1.349 7.432h6l1.351-7.432a21.864 21.864 0 0 0 2.662-.717l4.887 5.764 5.2-3-2.55-7.115a22.038 22.038 0 0 0 1.95-1.95l7.12 2.548 3-5.2-.88-.747a31.535 31.535 0 0 1 -7.24.849z" fill="#4891d3"/><path d="m61 35v-6l-7.432-1.351a21.864 21.864 0 0 0 -.717-2.662l5.764-4.887-3-5.2-7.115 2.55a22.038 22.038 0 0 0 -1.945-1.945l2.545-7.12-5.2-3-4.889 5.764a21.864 21.864 0 0 0 -2.662-.717l-1.349-7.432h-6l-.583 3.207a34 34 0 0 1 19.583 30.793 33.832 33.832 0 0 1 -6.035 19.331l1.935 2.284 5.2-3-2.55-7.115a22.038 22.038 0 0 0 1.95-1.95l7.12 2.548 3-5.2-5.764-4.889a21.864 21.864 0 0 0 .717-2.662z" fill="#aae1f9"/><path d="m50.5 44a31.5 31.5 0 0 1 -9.357-1.413 13.986 13.986 0 0 1 -20.194-19.161 31.517 31.517 0 0 1 -1.175-17.853l-4.874 2.812 2.548 7.12a22.038 22.038 0 0 0 -1.945 1.945l-7.118-2.55-3 5.2 5.764 4.889a21.864 21.864 0 0 0 -.717 2.662l-7.432 1.349v6l7.432 1.351a21.864 21.864 0 0 0 .717 2.662l-5.764 4.887 3 5.2 7.12-2.548a22.038 22.038 0 0 0 1.945 1.948l-2.55 7.115 5.2 3 4.889-5.764a21.864 21.864 0 0 0 2.662.717l1.349 7.432h6l1.351-7.432a21.864 21.864 0 0 0 2.662-.717l4.887 5.764 5.2-3-2.55-7.115a22.038 22.038 0 0 0 1.95-1.95l7.12 2.548 3-5.2-.88-.747a31.535 31.535 0 0 1 -7.24.849z" fill="#4891d3"/><path d="m50.5 44a31.5 31.5 0 0 1 -3.21-.182 33.847 33.847 0 0 1 -5.325 12.513l1.935 2.284 5.2-3-2.55-7.115a22.038 22.038 0 0 0 1.95-1.95l7.12 2.548 3-5.2-.88-.747a31.535 31.535 0 0 1 -7.24.849z" fill="#57b7eb"/><path d="m39 36a12.93 12.93 0 0 1 -5.678-1.319 2.989 2.989 0 0 1 -4.255-3.3 12.944 12.944 0 0 1 -2.574-4.866l-1.287-.743-2 3.464 1.99 1.149a6.785 6.785 0 0 0 0 3.238l-1.99 1.149 2 3.464 1.994-1.153a6.973 6.973 0 0 0 2.8 1.623v2.294h4v-2.294a6.973 6.973 0 0 0 2.8-1.623l1.991 1.149 1.321-2.288c-.365.031-.735.056-1.112.056z" fill="#e59730"/><g fill="#f9e109"><path d="m38.81 33.589a6.762 6.762 0 0 0 -.006-3.208l1.99-1.149-2-3.464-1.994 1.149a6.973 6.973 0 0 0 -2.8-1.623v-2.294h-4v2.294a6.893 6.893 0 0 0 -1.688.772 13 13 0 0 1 10.498 7.523z"/><path d="m25.72 26.065-.514-.3-.235.406c.249-.036.496-.082.749-.106z"/><path d="m39.763 36.555 1.031-1.787-1.963-1.133a12.89 12.89 0 0 1 .932 2.92z"/></g><g><g><path d="m32 51a19.019 19.019 0 0 1 -2.846-.215 1 1 0 1 1 .3-1.978 16.846 16.846 0 0 0 5.092 0 1 1 0 0 1 .3 1.978 18.9 18.9 0 0 1 -2.846.215z" fill="#e59730"/><path d="m48.756 26.44a1 1 0 0 1 -.932-.637 16.882 16.882 0 0 0 -2.545-4.41 1 1 0 0 1 1.561-1.249 18.86 18.86 0 0 1 2.848 4.933 1 1 0 0 1 -.932 1.363z" fill="#f9e109"/><path d="m17.941 44.231a1 1 0 0 1 -.781-.375 18.859 18.859 0 0 1 -2.847-4.932 1 1 0 1 1 1.863-.728 16.862 16.862 0 0 0 2.545 4.411 1 1 0 0 1 -.78 1.624z" fill="#e59730"/><path d="m15.257 26.444a1 1 0 0 1 -.93-1.366 19.075 19.075 0 0 1 2.841-4.923 1 1 0 0 1 1.564 1.245 17.08 17.08 0 0 0 -2.544 4.407 1 1 0 0 1 -.931.637z" fill="#e59730"/><path d="m46.049 44.221a1 1 0 0 1 -.781-1.623 17.067 17.067 0 0 0 2.544-4.407 1 1 0 1 1 1.861.731 19.018 19.018 0 0 1 -2.841 4.923 1 1 0 0 1 -.783.376z" fill="#f9e109"/><path d="m29.3 15.209a1 1 0 0 1 -.149-1.988 18.838 18.838 0 0 1 5.694 0 1 1 0 1 1 -.3 1.977 16.872 16.872 0 0 0 -5.091 0 .877.877 0 0 1 -.154.011z" fill="#fcbc04"/></g><path d="m47.449 43.009a34.125 34.125 0 0 0 .514-5.051.961.961 0 0 0 -.151.233 17.067 17.067 0 0 1 -2.544 4.409.983.983 0 0 0 -.152.926c.584.1 1.175.18 1.769.248.197-.251.38-.508.564-.765z" fill="#fcbc04"/><path d="m46.049 44.221a1 1 0 0 0 .783-.376l.053-.073c-.594-.068-1.185-.147-1.769-.248a.979.979 0 0 0 .31.479 1 1 0 0 0 .623.218z" fill="#e59730"/></g></g></g></g></svg>