<svg id="Capa_1" enable-background="new 0 0 512 512" height="512" viewBox="0 0 512 512" width="512" xmlns="http://www.w3.org/2000/svg"><path d="m444.394 3.996h-285.072c-37.183 0-67.606 30.423-67.606 67.606v23.004h257.871c37.183 0 67.606 30.423 67.606 67.606v168.547h27.201c37.183 0 67.606-30.423 67.606-67.606v-191.551c0-37.184-30.423-67.606-67.606-67.606z" fill="#dfebfa"/><path d="m396.461 91.515h-285.072c-6.836 0-13.441 1.036-19.673 2.946v.145h257.871c37.183 0 67.606 30.423 67.606 67.606v168.547h27.2c6.836 0 13.441-1.036 19.673-2.946v-168.692c.001-37.183-30.422-67.606-67.605-67.606z" fill="#b1dbfc"/><path d="m352.678 91.515h-285.072c-37.183 0-67.606 30.423-67.606 67.606v191.55c0 37.183 30.423 67.606 67.606 67.606h171.096c7.335 0 12.811 6.826 11.133 13.966-4.537 19.317-11.48 39.745-21.744 60.686-4.609 9.405 5.876 18.966 14.782 13.454 25.751-15.937 62.389-42.61 93.244-80.317 4.056-4.957 10.156-7.79 16.561-7.79 37.183 0 67.606-30.423 67.606-67.606v-191.55c0-37.182-30.423-67.605-67.606-67.605z" fill="#60b8fe"/><path d="m293.618 432.243c1.677-7.141-3.798-13.966-11.133-13.966h-43.783c7.335 0 12.81 6.825 11.133 13.966-4.537 19.317-11.48 39.745-21.744 60.686-4.609 9.405 5.876 18.966 14.782 13.454 9.88-6.115 21.365-13.816 33.509-23.108 7.832-17.563 13.399-34.696 17.236-51.032z" fill="#23a8fe"/><path d="m43.783 350.671v-191.55c0-37.183 30.423-67.606 67.606-67.606h-43.783c-37.183 0-67.606 30.423-67.606 67.606v191.55c0 37.183 30.423 67.606 67.606 67.606h43.783c-37.184 0-67.606-30.422-67.606-67.606z" fill="#23a8fe"/><path d="m169.562 145.235h-32.155c-7.164 0-13.026 5.862-13.026 13.026v26.727c0 7.165 5.862 13.026 13.026 13.026h17.333c2.811 0 5.09 2.279 5.09 5.09v16.925c0 1.82 2.004 2.933 3.551 1.974 11.943-7.406 19.208-20.46 19.208-34.513v-29.229c0-7.164-5.862-13.026-13.027-13.026z" fill="#dfebfa"/><path d="m255.084 145.235h-32.154c-7.164 0-13.026 5.862-13.026 13.026v26.727c0 7.165 5.862 13.026 13.026 13.026h17.333c2.811 0 5.09 2.279 5.09 5.09v16.925c0 1.82 2.004 2.933 3.551 1.974 11.943-7.406 19.208-20.46 19.208-34.513v-29.229c-.002-7.164-5.863-13.026-13.028-13.026z" fill="#dfebfa"/><path d="m179.403 203.104c0-2.811-2.279-5.09-5.09-5.09h-17.333c-7.164 0-13.026-5.862-13.026-13.026v-26.727c0-7.164 5.862-13.026 13.026-13.026h-19.573c-7.164 0-13.026 5.862-13.026 13.026v26.727c0 7.164 5.862 13.026 13.026 13.026h17.332c2.811 0 5.09 2.279 5.09 5.09v16.925c0 1.82 2.004 2.934 3.551 1.974 7.278-4.513 12.805-11.13 16.023-18.785z" fill="#b1dbfc"/><path d="m264.925 203.104c0-2.811-2.279-5.09-5.09-5.09h-17.333c-7.164 0-13.026-5.862-13.026-13.026v-26.727c0-7.164 5.862-13.026 13.026-13.026h-19.572c-7.164 0-13.026 5.862-13.026 13.026v26.727c0 7.164 5.862 13.026 13.026 13.026h17.332c2.811 0 5.09 2.279 5.09 5.09v16.925c0 1.82 2.004 2.934 3.551 1.974 7.278-4.513 12.805-11.13 16.023-18.785v-.114z" fill="#b1dbfc"/><g fill="#0193fa"><path d="m342.879 267.512h-265.951c-4.267 0-7.726-3.459-7.726-7.726s3.459-7.726 7.726-7.726h265.952c4.267 0 7.726 3.459 7.726 7.726s-3.46 7.726-7.727 7.726z"/><path d="m342.879 303.053h-265.951c-4.267 0-7.726-3.459-7.726-7.726s3.459-7.726 7.726-7.726h265.952c4.267 0 7.726 3.459 7.726 7.726s-3.46 7.726-7.727 7.726z"/><path d="m342.879 338.594h-265.951c-4.267 0-7.726-3.459-7.726-7.726s3.459-7.726 7.726-7.726h265.952c4.267 0 7.726 3.459 7.726 7.726 0 4.266-3.46 7.726-7.727 7.726z"/><path d="m276.391 374.134h-132.976c-4.267 0-7.726-3.459-7.726-7.726s3.459-7.726 7.726-7.726h132.976c4.267 0 7.726 3.459 7.726 7.726.001 4.267-3.459 7.726-7.726 7.726z"/></g></svg>