<?xml version="1.0" encoding="utf-8"?>



<!DOCTYPE svg PUBLIC "-//W3C//DTD SVG 1.1//EN" "http://www.w3.org/Graphics/SVG/1.1/DTD/svg11.dtd">
<svg xmlns="http://www.w3.org/2000/svg" xmlns:xlink="http://www.w3.org/1999/xlink" version="1.1" id="Layer_2" x="0px" y="0px" viewBox="0 0 64 64" style="enable-background:new 0 0 64 64;" xml:space="preserve" width="512" height="512">
<style type="text/css">
	.st0{fill:#EDEFF1;}
	.st1{fill:#D3D3D3;}
	.st2{fill:#98CA69;}
	.st3{fill:#80D6FB;}
	.st4{fill:#FFB0AA;}
	.st5{fill:#FFE352;}
	.st6{fill:#6E83B7;}
	.st7{fill:#466089;}
	.st8{fill:#FFD3B3;}
	.st9{fill:#FCB98B;}
	.st10{fill:#FFB236;}
	.st11{fill:#46BEE8;}
	.st12{fill:#E0E2FF;}
	.st13{fill:#8FA5D1;}
	.st14{fill:#75AA40;}
</style>
<g>
	<g>
		<g>
			<rect x="51" y="41" class="st0" width="3" height="17"/>
		</g>
		<g>
			<rect x="54" y="40" class="st3" width="8" height="19"/>
		</g>
		<g>
			<path class="st8" d="M49,42c-1.438-2.821-5.448-4-8-4s-6.031,1.094-8,4h-9c-1.657,0-3,1.343-3,3s1.343,3,3,3h-3L8.497,40.57     c-1.831-1.099-4.202-0.565-5.386,1.211l-0.775,1.162c-0.613,0.919-0.364,2.161,0.555,2.774l16.102,10.611     C19.649,56.766,20.416,57,21.206,57c3.421,0,12.931,0,12.794,0h17V42H49z"/>
		</g>
		<g>
			<path class="st9" d="M21.779,47c0.549,0.61,1.336,1,2.221,1h10l0-1H21.779z"/>
		</g>
		<g>
			<rect x="53" y="41" class="st1" width="1" height="17"/>
		</g>
	</g>
	<g>
		<g>
			<circle class="st5" cx="20" cy="18" r="13"/>
		</g>
		<path class="st6" d="M21.5,17h-3c-1.378,0-2.5-1.122-2.5-2.5s1.122-2.5,2.5-2.5H21c1.654,0,3,1.346,3,3h2c0-2.757-2.243-5-5-5V8    h-2v2h-0.5c-2.481,0-4.5,2.019-4.5,4.5s2.019,4.5,4.5,4.5h3c1.378,0,2.5,1.122,2.5,2.5S22.878,24,21.5,24H19c-1.654,0-3-1.346-3-3    h-2c0,2.757,2.243,5,5,5v2h2v-2h0.5c2.481,0,4.5-2.019,4.5-4.5S23.981,17,21.5,17z"/>
	</g>
	<g>
		<g>
			<circle class="st6" cx="34" cy="28" r="8"/>
		</g>
		<g>
			<circle class="st0" cx="36.5" cy="31.5" r="1.5"/>
		</g>
		<g>
			<circle class="st0" cx="31.5" cy="24.5" r="1.5"/>
		</g>
		<g>
			
				<rect x="33" y="22.343" transform="matrix(0.7071 0.7071 -0.7071 0.7071 29.7574 -15.8406)" class="st0" width="2" height="11.314"/>
		</g>
	</g>
</g>
</svg>
