<svg id="Capa_1" enable-background="new 0 0 512 512" height="512" viewBox="0 0 512 512" width="512"
     xmlns="http://www.w3.org/2000/svg">
    <g>
        <g>
            <circle cx="393.139" cy="398.066" r="7.229"/>
            <path d="m429.177 398.066c0-19.872-16.167-36.039-36.039-36.039-3.568 0-7.013.529-10.27 1.499l-10.448-29.783h19.737c4.142 0 7.5-3.357 7.5-7.5s-3.358-7.5-7.5-7.5h-24.999l-49.676-141.601c-9.825-28.007-27.729-46.374-27.783-46.659 19.443-29.683 7.824-70.12-24.735-84.86v-28.392c-.001-9.501-7.731-17.231-17.232-17.231h-13.597c-9.501 0-17.231 7.73-17.231 17.231v28.392c-32.526 14.724-44.128 55.046-24.835 84.707-.272 1.382-.422 2.807-.446 4.262-10.618 12.384-18.743 26.462-24.155 41.888l-8.026 22.881c-1.371 3.908.686 8.188 4.595 9.56 3.908 1.371 8.188-.686 9.56-4.595l8.026-22.881c2.625-7.483 5.977-14.606 10.01-21.322.1 4.137 1.253 8.187 3.373 11.747l13.237 22.231c2.096 3.521 5.047 6.388 8.489 8.415l-72.734 207.339-38.092-12.141c.27-1.015.565-2.024.912-3.015l55.317-157.698c1.371-3.908-.686-8.188-4.595-9.56-3.91-1.375-8.189.686-9.56 4.595l-30.415 86.707h-22c-4.142 0-7.5 3.357-7.5 7.5s3.358 7.5 7.5 7.5h16.738l-19.64 55.991c-1.393 3.97-2.334 8.103-2.8 12.284l-.001.011c-.002.018-.004.035-.006.053l-6.894 61.933c-1.074 9.647 4.073 18.677 12.683 22.739l-5.354 15.262c-1.371 3.908.686 8.188 4.595 9.56 3.908 1.371 8.188-.686 9.56-4.595l5.345-15.237c11.183 2.718 22.6-3.49 26.418-14.374l50.384-143.627h33.555v10.978c0 13.076 10.638 23.714 23.713 23.714 13.076 0 23.713-10.638 23.713-23.714v-10.978h30.579l19.574 55.891c1.082 3.089 3.98 5.022 7.079 5.022.822 0 1.659-.137 2.479-.424 3.909-1.369 5.969-5.647 4.6-9.558l-64.385-183.841c2.375-1.827 4.427-4.096 5.997-6.733l13.238-22.232c2.219-3.729 3.392-7.991 3.392-12.329v-3.775c5.486 8.149 9.908 16.959 13.2 26.342l66.217 188.752c-7.615 6.613-12.445 16.353-12.445 27.207 0 16.42 11.042 30.299 26.087 34.63l3.68 33.051c.382 3.429-1.617 6.642-4.861 7.812l-9.8 3.539c-3.892 1.403-8.171-.63-9.539-4.534l-19.138-54.644c-1.369-3.908-5.65-5.967-9.558-4.599-3.909 1.369-5.969 5.647-4.6 9.558l19.138 54.644c4.091 11.679 16.916 17.932 28.733 13.701l5.527 15.756c1.083 3.088 3.98 5.02 7.077 5.02.823 0 1.661-.137 2.482-.425 3.909-1.371 5.966-5.651 4.595-9.56l-5.728-16.33c7.32-4.467 11.559-12.789 10.578-21.599l-3.382-30.37c17.393-2.549 30.787-17.562 30.787-35.649zm-197.273-380.835c0-1.23 1.001-2.231 2.231-2.231h13.597c1.23 0 2.231 1.001 2.231 2.231v40.413c0 1.23-1.001 2.231-2.231 2.231h-13.597c-1.23 0-2.231-1.001-2.231-2.231zm-14.346 45.059c2.035 7.249 8.687 12.586 16.577 12.586h13.597c7.89 0 14.542-5.337 16.577-12.586 18.055 11.609 24.584 34.479 16.318 53.542-4.055-3.098-9.116-4.944-14.602-4.944h-50.31c-5.442 0-10.467 1.815-14.506 4.869-8.238-19.098-1.635-41.904 16.349-53.467zm-95.502 410.115c-1.357 3.865-5.589 5.919-9.483 4.55l-9.785-3.449c-3.279-1.155-5.301-4.376-4.916-7.831l5.888-52.902 35.271 11.242zm130.519-127.685c0 4.805-3.909 8.714-8.713 8.714-4.805 0-8.713-3.909-8.713-8.714v-36.955c0-4.805 3.909-8.714 8.713-8.714 4.805 0 8.713 3.909 8.713 8.714zm40.326-25.977h-25.326v-10.977c0-13.076-10.638-23.714-23.713-23.714-13.076 0-23.713 10.638-23.713 23.714v10.977h-28.293l39.595-112.871h21.337c.193 0 .384-.014.577-.019zm-19.055-154.547-13.237 22.231c-1.632 2.742-4.629 4.445-7.821 4.445h-23.836c-3.191 0-6.188-1.703-7.821-4.445l-13.237-22.231c-.838-1.407-1.281-3.018-1.281-4.656v-24.551c0-5.019 4.083-9.102 9.102-9.102h50.31c4.957 0 8.994 3.985 9.093 8.918l.003.186c0 .032.006.063.006.096v24.453c0 1.637-.443 3.247-1.281 4.656zm119.293 254.909c-11.601 0-21.039-9.438-21.039-21.039s9.438-21.039 21.039-21.039 21.039 9.438 21.039 21.039c-.001 11.6-9.438 21.039-21.039 21.039z"/>
        </g>
    </g>
</svg>