

<svg height="471pt" viewBox="-67 0 471 471.9987" width="471pt" xmlns="http://www.w3.org/2000/svg"><g fill="#277baa"><path d="m298.59375 472 7.539062-72.058594-9.632812-7.941406-16 8-3.816406 12.460938zm0 0"/><path d="m40.035156 472-7.535156-72.058594 8-7.941406h16l5.449219 20.460938zm0 0"/><path d="m192.5 120h-48v-56c0-13.257812 10.746094-24 24-24s24 10.742188 24 24zm0 0"/></g><path d="m192.5 102.46875c-14.835938-8.628906-33.164062-8.628906-48 0v25.53125h48zm0 0" fill="#2574a0"/><path d="m48.019531 88.796875-14.152343-7.4375c5.066406-9.636719 11.148437-18.703125 18.144531-27.046875l12.273437 10.285156c-6.269531 7.464844-11.722656 15.578125-16.265625 24.199219zm239.078125-3.4375c-4.78125-8.488281-10.453125-16.441406-16.925781-23.71875l11.925781-10.617187c7.234375 8.132812 13.574219 17.019531 18.914063 26.503906zm-195.917968-45.28125-9.082032-13.136719c8.953125-6.191406 18.539063-11.414062 28.601563-15.566406l6.097656 14.800781c-9.015625 3.707031-17.605469 8.371094-25.617187 13.917969zm151.398437-2.167969c-8.164063-5.308594-16.878906-9.726562-25.992187-13.175781l5.65625-14.96875c10.183593 3.859375 19.925781 8.796875 29.058593 14.730469zm-90.613281-20.925781-1.929688-15.882813c10.804688-1.292968 21.714844-1.449218 32.550782-.460937l-1.46875 15.925781c-9.707032-.890625-19.476563-.75-29.152344.417969zm0 0" fill="#c0f5f9"/><path d="m132.683594 164.363281 29.449218 12.519531-100.183593 235.585938-29.449219-12.523438zm0 0" fill="#4799cf"/><path d="m132.683594 164.359375-8.984375 21.144531c6.710937 8.960938 15.953125 15.707032 26.535156 19.367188l11.90625-28zm0 0" fill="#3f87b6"/><path d="m306.128906 399.933594-29.449218 12.523437-100.183594-235.582031 29.449218-12.523438zm0 0" fill="#4799cf"/><path d="m205.949219 164.359375-29.449219 12.519531 11.679688 27.472656c10.574218-3.945312 19.695312-11.015624 26.152343-20.273437zm0 0" fill="#3f87b6"/><path d="m168.5 288c66.140625.003906 126.699219-37.082031 156.75-96h-37.03125c-26.71875 39.976562-71.632812 63.980469-119.71875 63.980469s-93-24.003907-119.71875-63.980469h-37.035156c30.054687 58.917969 90.613281 96.003906 156.753906 96zm0 0" fill="#fbb540"/><path d="m24.5 168c-13.253906 0-24-10.746094-24-24 0-13.257812 10.746094-24 24-24s24 10.742188 24 24c0 13.253906-10.746094 24-24 24zm0 0" fill="#ffc971"/><path d="m312.5 168c-13.253906 0-24-10.746094-24-24 0-13.257812 10.746094-24 24-24s24 10.742188 24 24c0 13.253906-10.746094 24-24 24zm0 0" fill="#ffc971"/><path d="m160.5 344h16v16h-16zm0 0" fill="#c0f5f9"/><path d="m192.5 344h16v16h-16zm0 0" fill="#c0f5f9"/><path d="m128.5 344h16v16h-16zm0 0" fill="#c0f5f9"/><path d="m216.5 152c0 26.507812-21.492188 48-48 48-26.511719 0-48-21.492188-48-48 0-26.511719 21.488281-48 48-48 26.507812 0 48 21.488281 48 48zm0 0" fill="#4799cf"/><path d="m184.5 152c0 8.835938-7.164062 16-16 16s-16-7.164062-16-16 7.164062-16 16-16 16 7.164062 16 16zm0 0" fill="#277baa"/></svg>