<svg height="512pt" viewBox="-93 0 512 512.0007" width="512pt" xmlns="http://www.w3.org/2000/svg" xmlns:xlink="http://www.w3.org/1999/xlink"><linearGradient id="a"><stop offset="0" stop-color="#f2e9dc"/><stop offset=".6623" stop-color="#e3c7b3"/><stop offset="1" stop-color="#dab49d"/></linearGradient><linearGradient id="b" gradientTransform="matrix(.7168 .177895 -.241845 .974306 -3068.02005 850.825136)" gradientUnits="userSpaceOnUse" x1="3926.8784" x2="3944.4087" xlink:href="#a" y1="-1095.7562" y2="-1095.7562"/><linearGradient id="c" gradientTransform="matrix(.974306 .241845 -.241845 .974306 -769.185829 -38.971432)" gradientUnits="userSpaceOnUse" x1="903.1423" x2="875.5942" y1="315.8206" y2="288.2725"><stop offset="0" stop-color="#dab49d" stop-opacity="0"/><stop offset=".4581" stop-color="#cd9d79" stop-opacity=".458824"/><stop offset="1" stop-color="#c08552"/></linearGradient><linearGradient id="d"><stop offset="0" stop-color="#ffe548"/><stop offset="1" stop-color="#ffb211"/></linearGradient><linearGradient id="e" gradientTransform="matrix(.974306 .241845 -.241845 .974306 -2836.798943 1235.380505)" gradientUnits="userSpaceOnUse" x1="2568.6289" x2="2598.6489" xlink:href="#d" y1="-1437.3073" y2="-1437.3073"/><linearGradient id="f"><stop offset="0" stop-color="#ffb211" stop-opacity="0"/><stop offset=".2281" stop-color="#ff9f19" stop-opacity=".227451"/><stop offset=".6863" stop-color="#ff6f2e" stop-opacity=".686275"/><stop offset="1" stop-color="#ff4b3e"/></linearGradient><linearGradient id="g" gradientTransform="matrix(.974306 .241845 -.241845 .974306 -2836.798943 1235.380505)" gradientUnits="userSpaceOnUse" x1="2597.4119" x2="2564.2021" xlink:href="#f" y1="-1429.9008" y2="-1463.1105"/><linearGradient id="h"><stop offset="0" stop-color="#d767c7"/><stop offset=".3227" stop-color="#d363c4"/><stop offset=".665" stop-color="#c656bb"/><stop offset="1" stop-color="#b342ac"/></linearGradient><linearGradient id="i" gradientTransform="matrix(.974306 .241845 -.241845 .974306 -18.736185 -60.606344)" gradientUnits="userSpaceOnUse" x1="141.003" x2="185.2032" xlink:href="#h" y1="314.1315" y2="314.1315"/><linearGradient id="j"><stop offset="0" stop-color="#b342ac" stop-opacity="0"/><stop offset=".2597" stop-color="#a4319c" stop-opacity=".258824"/><stop offset=".7199" stop-color="#8d1885" stop-opacity=".721569"/><stop offset="1" stop-color="#850f7c"/></linearGradient><linearGradient id="k" gradientTransform="matrix(.974306 .241845 -.241845 .974306 -18.736185 -60.606344)" gradientUnits="userSpaceOnUse" x1="191.5399" x2="134.2025" xlink:href="#j" y1="486.9539" y2="429.6165"/><linearGradient id="l"><stop offset="0" stop-color="#575c55"/><stop offset="1" stop-color="#45425a"/></linearGradient><linearGradient id="m" gradientTransform="matrix(.974306 .241845 -.241845 .974306 -2540.34261 1765.647059)" gradientUnits="userSpaceOnUse" x1="2156.9673" x2="2193.687" xlink:href="#l" y1="-1961.9232" y2="-1961.9232"/><linearGradient id="n"><stop offset="0" stop-color="#45425a" stop-opacity="0"/><stop offset=".3474" stop-color="#353343" stop-opacity=".34902"/><stop offset="1" stop-color="#1a1a1a"/></linearGradient><linearGradient id="o" gradientTransform="matrix(.974306 .241845 -.241845 .974306 -2540.34261 1765.647059)" gradientUnits="userSpaceOnUse" x1="2208.2363" x2="2090.8384" xlink:href="#n" y1="-1924.0254" y2="-2010.5255"/><linearGradient id="p" gradientTransform="matrix(.974306 .241845 -.241845 .974306 -2540.34261 1765.647059)" gradientUnits="userSpaceOnUse" x1="2140.4363" x2="2190.7949" xlink:href="#l" y1="-1961.7048" y2="-1956.8885"/><linearGradient id="q" gradientTransform="matrix(.974306 .241845 -.241845 .974306 -2540.34261 1765.647059)" gradientUnits="userSpaceOnUse" x1="2167.196" x2="2160.7815" xlink:href="#n" y1="-1967.2507" y2="-2005.3506"/><linearGradient id="r" gradientTransform="matrix(.974306 .241845 -.241845 .974306 -2540.34261 1765.647059)" gradientUnits="userSpaceOnUse" x1="2167.196" x2="2160.7815" xlink:href="#n" y1="-1953.0845" y2="-1991.1844"/><linearGradient id="s" gradientTransform="matrix(.974306 .241845 -.241845 .974306 -2540.34261 1765.647059)" gradientUnits="userSpaceOnUse" x1="2167" x2="2161.0271" xlink:href="#n" y1="-1940.0879" y2="-1975.5662"/><linearGradient id="t" gradientTransform="matrix(.974306 .241845 -.241845 .974306 -2540.34261 1765.647059)" gradientUnits="userSpaceOnUse" x1="2166.314" x2="2161.8645" xlink:href="#n" y1="-1929.9576" y2="-1956.386"/><linearGradient id="u" gradientTransform="matrix(.974306 .241845 -.241845 .974306 -2540.34261 1765.647059)" gradientUnits="userSpaceOnUse" x1="2162.6167" x2="2162.6167" xlink:href="#l" y1="-1982.9711" y2="-1975.9513"/><linearGradient id="v" gradientTransform="matrix(.974306 .241845 -.241845 .974306 -2540.34261 1765.647059)" gradientUnits="userSpaceOnUse" x1="2162.6167" x2="2162.6167" xlink:href="#l" y1="-1968.8049" y2="-1961.7852"/><linearGradient id="w" gradientTransform="matrix(.974306 .241845 -.241845 .974306 -2540.34261 1765.647059)" gradientUnits="userSpaceOnUse" x1="2162.6167" x2="2162.6167" xlink:href="#l" y1="-1954.6388" y2="-1947.6189"/><linearGradient id="x" gradientTransform="matrix(.974306 .241845 -.241845 .974306 -2540.34261 1765.647059)" gradientUnits="userSpaceOnUse" x1="2162.6167" x2="2162.6167" xlink:href="#l" y1="-1940.4725" y2="-1933.4528"/><linearGradient id="y" gradientTransform="matrix(.974306 -.241845 .241845 .974306 66.214453 62.748311)" gradientUnits="userSpaceOnUse" x1="44.6831" x2="88.9795" xlink:href="#h" y1="251.944" y2="251.944"/><linearGradient id="z" gradientTransform="matrix(.974306 -.241845 .241845 .974306 66.214453 62.748311)" gradientUnits="userSpaceOnUse" x1="95.22" x2="37.8826" xlink:href="#j" y1="432.0902" y2="374.7528"/><linearGradient id="A" gradientTransform="matrix(.974306 -.241845 .241845 .974306 85.118497 58.05558)" gradientUnits="userSpaceOnUse" x1="17.9672" x2="96.196" xlink:href="#l" y1="390.6954" y2="390.6954"/><linearGradient id="B" gradientTransform="matrix(.974306 -.241845 .241845 .974306 -1177.50362 3040.88827)" gradientUnits="userSpaceOnUse" x1="2017.1302" x2="2069.301" xlink:href="#a" y1="-2116.4993" y2="-2116.4993"/><linearGradient id="C" gradientTransform="matrix(.974306 -.241845 .241845 .974306 -1177.50362 3040.88827)" gradientUnits="userSpaceOnUse" x1="2051.8765" x2="2021.4067" y1="-2115.1843" y2="-2125.1594"><stop offset="0" stop-color="#dab49d" stop-opacity="0"/><stop offset=".2054" stop-color="#d8b198" stop-opacity=".203922"/><stop offset=".4642" stop-color="#d3a788" stop-opacity=".462745"/><stop offset=".7504" stop-color="#ca976e" stop-opacity=".74902"/><stop offset="1" stop-color="#c08552"/></linearGradient><linearGradient id="D" gradientTransform="matrix(.974306 -.241845 .241845 .974306 -1177.50362 3040.88827)" gradientUnits="userSpaceOnUse" x1="2017.1302" x2="2069.301" xlink:href="#d" y1="-2192.248" y2="-2192.248"/><linearGradient id="E" gradientTransform="matrix(.974306 -.241845 .241845 .974306 -1177.50362 3040.88827)" gradientUnits="userSpaceOnUse" x1="2060.989" x2="2019.7838" xlink:href="#d" y1="-2192.2478" y2="-2192.2478"/><linearGradient id="F" gradientTransform="matrix(.974306 -.241845 .241845 .974306 -1173.388948 3046.802974)" gradientUnits="userSpaceOnUse" x1="2046.3367" x2="2033.9133" xlink:href="#f" y1="-2230.0671" y2="-2291.7554"/><linearGradient id="G" gradientTransform="matrix(.974306 -.241845 .241845 .974306 -1173.388948 3046.802974)" gradientUnits="userSpaceOnUse" x1="2042.9637" x2="2036.4492" xlink:href="#f" y1="-2161.4702" y2="-2193.8184"/><linearGradient id="H" gradientTransform="matrix(.974306 -.241845 .241845 .974306 -1177.50362 3040.88827)" gradientUnits="userSpaceOnUse" x1="2039.0186" x2="2050.9031" xlink:href="#l" y1="-2094.3813" y2="-2094.3813"/><linearGradient id="I" gradientTransform="matrix(.974306 -.241845 .241845 .974306 -1173.388948 3046.802974)" gradientUnits="userSpaceOnUse" x1="2040.4204" x2="2040.4204" xlink:href="#a" y1="-2262.6045" y2="-2241.6187"/><linearGradient id="J" gradientTransform="matrix(.974306 -.241845 .241845 .974306 -1173.388948 3046.802974)" gradientUnits="userSpaceOnUse" x1="2039.3878" x2="2049.9851" xlink:href="#l" y1="-2260.3699" y2="-2249.7727"/><linearGradient id="K" gradientTransform="matrix(.974306 -.241845 .241845 .974306 181.386343 34.15813)" gradientUnits="userSpaceOnUse" x1="-29.3205" x2="44.6734" xlink:href="#l" y1="390.6954" y2="390.6954"/><linearGradient id="L" gradientUnits="userSpaceOnUse" x1="121.7328139708" x2="148.5018921398" xlink:href="#l" y1="34.303010818" y2="34.303010818"/><linearGradient id="M" gradientUnits="userSpaceOnUse" x1="138.6702832094" x2="92.707521499" xlink:href="#j" y1="154.5391346388" y2="108.5763729284"/><linearGradient id="N" gradientUnits="userSpaceOnUse" x1="184.112109794" x2="133.136966322" xlink:href="#j" y1="159.7911525818" y2="108.816109502"/><linearGradient id="O" gradientUnits="userSpaceOnUse" x1="98.2129293548" x2="175.5987508418" xlink:href="#d" y1="64.3641500094" y2="141.7498711042"/><linearGradient id="P" gradientTransform="matrix(-1.003922 0 0 -1.003922 418.550867 149.320584)" gradientUnits="userSpaceOnUse" x1="272.3024" x2="322.8827" xlink:href="#d" y1="37.8404" y2="88.4207"/><path d="m4.859375 506.972656c-.476563-7.164062 7.90625-48.761718 10.410156-55.148437 4.726563 1.175781 9.457031 2.347656 14.183594 3.519531-1.007813 7.179688-12.925781 47.609375-16.625 53.601562-2.996094 4.855469-7.59375 3.722657-7.96875-1.972656zm0 0" fill="url(#b)"/><path d="m15.269531 451.824219c-.976562 2.488281-2.84375 10.324219-4.734375 19.386719l10.003906 16.605468c4.152344-13.242187 8.335938-28.34375 8.914063-32.472656-4.726563-1.171875-9.457031-2.34375-14.183594-3.519531zm0 0" fill="url(#c)"/><path d="m9.023438 467.613281c-2.613282-10.597656-4.28125-22.113281.046874-30.933593 11.003907 2.734374 22.007813 5.464843 33.015626 8.195312-.753907 10.300781-7.382813 19.347656-14.507813 27.332031-5.777344 6.46875-16.480469 3.824219-18.554687-4.59375zm0 0" fill="url(#e)"/><path d="m42.085938 444.875c-11.003907-2.730469-22.007813-5.460938-33.015626-8.195312-1.230468 2.507812-1.960937 5.238281-2.339843 8.097656l17.910156 29.734375c1.058594-.574219 2.058594-1.320313 2.9375-2.304688 7.125-7.984375 13.753906-17.03125 14.507813-27.332031zm0 0" fill="url(#g)"/><path d="m30.566406 454.632812-16-3.96875c-7.472656-1.855468-12.03125-9.421874-10.175781-16.894531l79.917969-321.929687 43.066406 10.691406-79.917969 321.929688c-1.851562 7.472656-9.417969 12.027343-16.890625 10.171874zm0 0" fill="url(#i)"/><path d="m30.566406 454.632812c7.472656 1.855469 15.039063-2.699218 16.894532-10.171874l4.871093-19.628907-43.066406-10.6875-3.035156 12.21875 15.742187 26.136719zm0 0" fill="url(#k)"/><path d="m81.863281 341.328125c2.363281-5.867187-1.015625-12.460937-7.152343-13.988281-13.210938-3.277344-26.421876-6.558594-39.636719-9.835938-6.136719-1.523437-12.207031 2.726563-12.859375 9.015625-3.097656 29.859375-10.230469 58.59375-21.457032 86.429688-2.363281 5.863281 1.015626 12.460937 7.152344 13.984375 13.210938 3.28125 26.421875 6.5625 39.636719 9.839844 6.136719 1.523437 12.207031-2.726563 12.859375-9.015626 3.097656-29.859374 10.230469-58.589843 21.457031-86.429687zm0 0" fill="url(#m)"/><path d="m62.152344 345.902344c-2.238282-4.085938-6.109375-7.261719-10.984375-8.472656-9.253907-2.296876-18.613281 3.34375-20.910157 12.59375l-12.53125 50.472656c-1.210937 4.875-.214843 9.78125 2.351563 13.667968l11.183594 18.566407c5.425781 1.347656 10.855469 2.695312 16.285156 4.042969 6.136719 1.523437 12.207031-2.726563 12.859375-9.015626 2.238281-21.574218 6.597656-42.5625 13.070312-63.050781zm0 0" fill="url(#o)"/><path d="m51.167969 337.429688c9.25 2.296874 14.890625 11.660156 12.59375 20.910156l-12.527344 50.472656c-2.296875 9.25-11.660156 14.890625-20.914063 12.59375-9.25-2.296875-14.886718-11.660156-12.59375-20.910156l12.53125-50.472656c2.296876-9.25 11.65625-14.890626 20.910157-12.59375zm0 0" fill="url(#p)"/><path d="m55.605469 391.203125 5.738281-23.117187-4.058594-6.734376c-.148437-1.332031-4.816406-3.507812-10.816406-4.996093-6.296875-1.5625-11.660156-1.773438-11.984375-.472657-.066406.269532.097656.585938.441406.925782-.003906 0 15.914063 26.554687 20.679688 34.394531zm0 0" fill="url(#q)"/><path d="m52.175781 405.003906 5.742188-23.113281-4.058594-6.738281c-.148437-1.328125-4.816406-3.503906-10.816406-4.996094-6.296875-1.5625-11.660157-1.773438-11.984375-.46875-.066406.269531.097656.582031.4375.925781 0-.003906 15.917968 26.554688 20.679687 34.390625zm0 0" fill="url(#r)"/><path d="m54.492188 395.695312-3.257813 13.117188c-.71875 2.890625-2.128906 5.429688-4.003906 7.480469-5.960938-9.855469-19.160157-31.878907-19.160157-31.878907-.339843-.339843-.503906-.65625-.441406-.925781.324219-1.300781 5.691406-1.089843 11.988282.472657 5.996093 1.488281 10.667968 3.667968 10.816406 4.996093zm0 0" fill="url(#s)"/><path d="m51.054688 409.472656c-.753907 2.621094-2.089844 4.929688-3.824219 6.820313-2.3125 2.527343-5.335938 4.320312-8.664063 5.125-6.277344-10.445313-13.921875-23.199219-13.921875-23.199219-.339843-.339844-.507812-.65625-.4375-.925781.324219-1.304688 5.6875-1.09375 11.984375.472656 5.996094 1.488281 10.667969 3.664063 10.816406 4.996094zm0 0" fill="url(#t)"/><path d="m57.285156 361.542969c-.324218 1.304687-5.691406 1.09375-11.988281-.46875-6.292969-1.5625-11.136719-3.886719-10.8125-5.1875.324219-1.304688 5.6875-1.09375 11.984375.46875s11.140625 3.886719 10.816406 5.1875zm0 0" fill="url(#u)"/><path d="m53.859375 375.347656c-.324219 1.300782-5.691406 1.089844-11.988281-.472656s-11.136719-3.886719-10.8125-5.1875c.324218-1.304688 5.6875-1.089844 11.984375.46875 6.296875 1.566406 11.136719 3.886719 10.816406 5.191406zm0 0" fill="url(#v)"/><path d="m50.433594 389.148438c-.324219 1.304687-5.691406 1.09375-11.988282-.46875-6.296874-1.566407-11.136718-3.886719-10.8125-5.191407.320313-1.300781 5.6875-1.089843 11.984376.472657 6.296874 1.5625 11.136718 3.886718 10.816406 5.1875zm0 0" fill="url(#w)"/><path d="m47.003906 402.953125c-.320312 1.300781-5.6875 1.089844-11.984375-.472656s-11.136719-3.886719-10.8125-5.1875c.320313-1.304688 5.6875-1.089844 11.984375.472656 6.296875 1.558594 11.136719 3.882813 10.8125 5.1875zm0 0" fill="url(#x)"/><path d="m243.628906 464.957031-15.996094 3.972657c-7.476562 1.855468-15.039062-2.699219-16.894531-10.175782l-83.363281-336.222656 43.066406-10.691406 83.363282 336.222656c1.855468 7.476562-2.699219 15.039062-10.175782 16.894531zm0 0" fill="url(#y)"/><path d="m243.628906 464.957031c7.476563-1.855469 12.03125-9.417969 10.175782-16.894531l-4.871094-19.625-43.066406 10.691406 3.035156 12.222656 26.132812 15.738282zm0 0" fill="url(#z)"/><path d="m267.980469 436.839844-56.117188 13.929687c-5.550781 1.378907-11.171875-2.003906-12.546875-7.558593l-4.382812-17.65625c-1.378906-5.550782 2.003906-11.171876 7.554687-12.546876l56.117188-13.929687c5.550781-1.378906 11.171875 2.003906 12.546875 7.554687l4.386718 17.65625c1.375 5.554688-2.007812 11.171876-7.558593 12.550782zm0 0" fill="url(#A)"/><path d="m322.726562 450.167969 1.824219 7.347656c.261719 1.046875.429688 2.101563.5 3.164063.183594 2.488281-.132812 4.992187-.933593 7.375l-14.171876 42c-.671874 1.976562-3.15625 2.59375-4.675781 1.160156l-32.167969-30.496094c-1.824218-1.734375-3.273437-3.796875-4.273437-6.082031-.4375-.972657-.78125-1.984375-1.042969-3.03125l-1.824218-7.347657zm0 0" fill="url(#B)"/><path d="m303.910156 454.839844 1.824219 7.347656c.257813 1.046875.484375 2.085938.675781 3.121094.457032 2.417968.722656 4.777344.792969 6.945312l1.191406 38.1875c.054688 1.796875-.78125 2.003906-1.574219.390625l-16.804687-34.308593c-.953125-1.949219-1.816406-4.160157-2.546875-6.511719-.316406-1.003907-.601562-2.03125-.863281-3.078125l-1.820313-7.347656zm0 0" fill="url(#C)"/><path d="m296.515625 344.578125 28.035156 112.9375c.261719 1.046875.429688 2.101563.5 3.164063-.832031-1.609376-2.097656-2.917969-3.605469-3.820313-2.136718-1.289063-4.765624-1.761719-7.375-1.113281-2.613281.644531-4.714843 2.292968-6 4.429687-1.289062 2.132813-1.765624 4.753907-1.117187 7.371094-.648437-2.617187-2.292969-4.710937-4.429687-5.992187-2.136719-1.289063-4.765626-1.761719-7.375-1.113282-2.613282.648438-4.714844 2.296875-6 4.433594-1.289063 2.132812-1.765626 4.753906-1.117188 7.371094-.648438-2.617188-2.292969-4.714844-4.429688-5.992188-2.136718-1.289062-4.765624-1.761718-7.375-1.113281-2.613281.644531-4.714843 2.292969-6 4.433594-.914062 1.5-1.417968 3.25-1.398437 5.0625-.4375-.972657-.78125-1.984375-1.042969-3.03125l-28.035156-112.9375zm0 0" fill="url(#D)"/><path d="m277.59375 349.273438 29.359375 118.273437c-.648437-2.617187-2.292969-4.714844-4.429687-5.992187-2.136719-1.289063-4.765626-1.761719-7.375-1.113282-2.613282.648438-4.714844 2.292969-6 4.433594-1.289063 2.128906-1.765626 4.75-1.117188 7.367188l-29.359375-118.273438zm0 0" fill="url(#E)"/><path d="m240.8125 360.226562 70.066406 42.199219-14.363281-57.851562-56.765625 14.09375.046875.183593c.140625.574219.507813 1.070313 1.015625 1.375zm0 0" fill="url(#F)"/><path d="m261.457031 443.382812 28.929688 17.425782 32.953125-8.179688-6.179688-24.902344-56.769531 14.09375.046875.183594c.144531.578125.507812 1.074219 1.019531 1.378906zm0 0" fill="url(#G)"/><path d="m305.046875 500.3125c-2.800781.695312-5.296875 1.980469-7.394531 3.683594l7.617187 7.21875c1.519531 1.4375 4.007813.816406 4.675781-1.160156l3.355469-9.941407c-2.652343-.527343-5.457031-.496093-8.253906.199219zm0 0" fill="url(#H)"/><path d="m276.273438 343.945312-18.921876 4.699219-16.605468 8.269531c-1.6875.890626-1.054688 3.445313.855468 3.445313l18.542969-.453125 18.921875-4.699219 16.605469-8.269531c1.683594-.894531 1.050781-3.445312-.855469-3.445312zm0 0" fill="url(#I)"/><path d="m277.816406 349.539062c.304688 1.234376-3.746094 3.300782-9.054687 4.617188-5.304688 1.316406-9.855469 1.386719-10.160157.152344-.304687-1.230469 3.75-3.296875 9.054688-4.613282 5.304688-1.316406 9.855469-1.386718 10.160156-.15625zm0 0" fill="url(#J)"/><path d="m312.664062 430.914062-46.808593 11.617188c-6.984375 1.734375-14.050781-2.519531-15.78125-9.503906l-5.515625-22.207032c-1.730469-6.984374 2.523437-14.050781 9.507812-15.78125l46.804688-11.621093c6.984375-1.734375 14.050781 2.523437 15.785156 9.503906l5.511719 22.207031c1.734375 6.984375-2.523438 14.050782-9.503907 15.785156zm0 0" fill="url(#K)"/><path d="m148.8125 68.605469h-44.480469v-51.875c0-9.238281 7.492188-16.730469 16.730469-16.730469h11.019531c9.238281 0 16.730469 7.492188 16.730469 16.730469zm0 0" fill="url(#L)"/><path d="m83.042969 116.941406c2.382812 4.269532 5.378906 8.160156 8.867187 11.539063l27.226563 27.230469 8.238281-33.179688-43.066406-10.691406zm0 0" fill="url(#M)"/><path d="m132.253906 142.210938 60.789063 60.792968-22.601563-91.164062-43.066406 10.691406zm0 0" fill="url(#N)"/><path d="m176.386719 92.722656c0 27.511719-22.304688 49.8125-49.816407 49.8125-27.507812 0-49.8125-22.300781-49.8125-49.8125 0-27.511718 22.304688-49.8125 49.8125-49.8125 27.511719 0 49.816407 22.300782 49.816407 49.8125zm0 0" fill="url(#O)"/><path d="m159.257812 92.722656c0 18.054688-14.632812 32.6875-32.6875 32.6875-18.050781 0-32.683593-14.632812-32.683593-32.6875 0-18.050781 14.632812-32.6875 32.683593-32.6875 18.054688 0 32.6875 14.636719 32.6875 32.6875zm0 0" fill="url(#P)"/></svg>