<!--
  - Copyright (c) 2023. Selldone® Business OS™
  -
  - Author: M.Pajuhaan
  - Web: https://selldone.com
  - ━━━━━━━━━━━━━━━━━━━━━━━━━━━━━━━━━━━━━━━━━━━━━━━━━━━━━━
  -
  - All rights reserved. In the weave of time, where traditions and innovations intermingle, this content was crafted.
  - From the essence of thought, through the corridors of creativity, each word, and sentiment has been molded.
  - Not just to exist, but to inspire. Like an artist's stroke or a sculptor's chisel, every nuance is deliberate.
  - Our journey is not just about reaching a destination, but about creating a masterpiece.
  - Tread carefully, for you're treading on dreams.
  -->

<svg id="icons" height="512" viewBox="0 0 340 340" width="512" xmlns="http://www.w3.org/2000/svg"><path d="m109.534 37.064h120.43v292.936h-120.43z" fill="#b7cded"/><g fill="#6998d1"><path d="m229.964 37.064h-39.4v46.007c0 9.686 2.133 19.958 4.772 28.73 6.3 20.933 18.845 38.929 34.633 48.053z"/><path d="m128.208 66.404h29.958v35.135h-29.958z"/><path d="m181.835 66.404h29.958v35.135h-29.958z"/><path d="m128.208 126.238h29.958v35.135h-29.958z"/><path d="m181.835 126.238h29.958v35.135h-29.958z"/></g><path d="m211.792 143.813v-17.575h-10.9a90 90 0 0 0 10.9 17.575z" fill="#3d5ea8"/><path d="m128.208 186.072h29.958v35.135h-29.958z" fill="#6998d1"/><path d="m128.208 254.318h83.585v75.682h-83.585z" fill="#6998d1"/><path d="m181.835 186.072h29.958v35.135h-29.958z" fill="#6998d1"/><path d="m10 122.21h99.534v207.79h-99.534z" fill="#6998d1"/><path d="m29.91 215.546h59.714v21.118h-59.714z" fill="#3d5ea8"/><path d="m29.91 265.546h59.714v21.118h-59.714z" fill="#3d5ea8"/><path d="m29.91 165.546h59.714v21.118h-59.714z" fill="#3d5ea8"/><path d="m229.964 207.242h100.036v122.758h-100.036z" fill="#6998d1"/><path d="m289.148 242.549h17.667v87.451h-17.667z" fill="#3d5ea8"/><path d="m253.148 242.549h17.667v87.451h-17.667z" fill="#3d5ea8"/><path d="m190.559 83.071a76.369 76.369 0 0 0 2.13 18.469h19.1v-35.14h-21.23z" fill="#3d5ea8"/><path d="m267.779 10c-18.821 17.869-62.22 9.755-62.22 9.755v63.316a59.515 59.515 0 0 0 4.027 21.915c15.633 39.51 58.193 47.427 58.193 47.427s42.561-7.917 58.194-47.427a59.536 59.536 0 0 0 4.027-21.915v-63.316s-43.4 8.114-62.221-9.755z" fill="#ffdc6c"/><path d="m267.779 10a34.591 34.591 0 0 1 -10.379 6.609l-51.841 51.843v14.619a61.114 61.114 0 0 0 2.282 16.758l80.159-80.156c-7.679-1.673-14.923-4.644-20.221-9.673z" fill="#ffedd2"/><path d="m215.115 116.07a72.02 72.02 0 0 0 7.649 10.307l101.242-100.893v-4.864c-3.349.4-7.874.8-12.988.932z" fill="#ffedd2"/><path d="m325.973 104.986a59.536 59.536 0 0 0 4.027-21.915v-63.316s-43.4 8.114-62.221-9.755v142.413s42.561-7.913 58.194-47.427z" fill="#fca742"/><path d="m205.559 53.692 32.576-32.577c-2.568.247-5.115.386-7.589.444l-24.987 24.987z" fill="#ffedd2"/></svg>