<svg id="svg8" height="512" viewBox="0 0 16.933333 16.933333" width="512" xmlns="http://www.w3.org/2000/svg" xmlns:svg="http://www.w3.org/2000/svg"><g id="layer2"><path id="path4450" d="m1.3668171.52916686c-.45941 0-.83765.37825095-.83765.83767794v9.4366262c0 .459427.37824.838195.83765.838195h14.1991889c.45941 0 .83816-.378769.83816-.838195v-9.4366262c0-.45942699-.37875-.83767794-.83816-.83767794z" fill="#eee" font-variant-ligatures="normal" font-variant-position="normal" font-variant-caps="normal" font-variant-numeric="normal" font-variant-alternates="normal" font-feature-settings="normal" text-indent="0" text-align="start" text-decoration-line="none" text-decoration-style="solid" text-decoration-color="#000000" text-transform="none" text-orientation="mixed" white-space="normal" shape-padding="0" isolation="auto" mix-blend-mode="normal" solid-color="#000000" solid-opacity="1" vector-effect="none"/><path id="path4452" d="m9.6001511 11.5921c1.1972099.661267 1.3935999 1.235123 2.1377899 2.853583-.63494 1.113517-1.40245 1.880512-1.40245 1.880512-.13974.140263-.3783799.08299-.4392399-.10542l-.41391-1.296566-1.5998599.156063c-.24286.02476-.38684-.264563-.22065-.443385 0 0 .8194999-.898984 1.3264899-1.777159.14658-.253878.2889-.542066.41392-.822692.11548-.259226.14118-.309465.19791-.444936z" fill="#5299d3" font-variant-ligatures="normal" font-variant-position="normal" font-variant-caps="normal" font-variant-numeric="normal" font-variant-alternates="normal" font-feature-settings="normal" text-indent="0" text-align="start" text-decoration-line="none" text-decoration-style="solid" text-decoration-color="#000000" text-transform="none" text-orientation="mixed" white-space="normal" shape-padding="0" isolation="auto" mix-blend-mode="normal" solid-color="#000000" solid-opacity="1" vector-effect="none"/><path id="path4519" d="m10.723705 12.510864c.346974.450611.596256 1.025371 1.014408 1.934766-.14416.252819-.295056.484943-.44235.697115-.147345-.212232-.298138-.444204-.44235-.697115-.52544-.92149-.752018-1.681591-.816488-1.923914.227574 0 .457078-.0037.68678-.01085z" fill="#3587cb" font-variant-ligatures="normal" font-variant-position="normal" font-variant-caps="normal" font-variant-numeric="normal" font-variant-alternates="normal" font-feature-settings="normal" text-indent="0" text-align="start" text-decoration-line="none" text-decoration-style="solid" text-decoration-color="#000000" text-transform="none" text-orientation="mixed" white-space="normal" shape-padding="0" isolation="auto" mix-blend-mode="normal" solid-color="#000000" solid-opacity="1" vector-effect="none"/><path id="path4456" d="m13.718641 12.037036c.12614.280114.26735.568821.41392.822692.50699.878175 1.32804 1.777159 1.32804 1.777159.16619.178822.0222.46814-.22065.443385l-1.59986-.156063-.41598 1.296566c-.0609.188409-.29949.245683-.43923.10542 0 0-.76752-.766994-1.40246-1.880512-.52544-.92149-.75199-1.681597-.81646-1.92392 1.05962 0 2.15741-.03833 3.15268-.484727z" fill="#5299d3" font-variant-ligatures="normal" font-variant-position="normal" font-variant-caps="normal" font-variant-numeric="normal" font-variant-alternates="normal" font-feature-settings="normal" text-indent="0" text-align="start" text-decoration-line="none" text-decoration-style="solid" text-decoration-color="#000000" text-transform="none" text-orientation="mixed" white-space="normal" shape-padding="0" isolation="auto" mix-blend-mode="normal" solid-color="#000000" solid-opacity="1" vector-effect="none"/><path id="path4458" d="m15.051036 7.4236016c-.13536.01555-.23678.1269611-.23437.263194v1.6207912c-.18937.05074-.35623.1475719-.48436.2757009-.24999.250001.125.6250023.37499.375001.0993-.09931.23455-.154297.37499-.154297.14617-.000529.26423-.1194549.26367-.2656261v-1.85157c.003-.1600329-.13592-.281555-.29492-.263194z" fill="#5299d3" font-variant-ligatures="normal" font-variant-position="normal" font-variant-caps="normal" font-variant-numeric="normal" font-variant-alternates="normal" font-feature-settings="normal" text-indent="0" text-align="start" text-decoration-line="none" text-decoration-style="solid" text-decoration-color="#000000" text-transform="none" text-orientation="mixed" white-space="normal" shape-padding="0" isolation="auto" mix-blend-mode="normal" solid-color="#000000" solid-opacity="1" vector-effect="none"/><path id="path4460" d="m11.564166 6.6140828a.24570331.24571169 0 0 0 -.121885.03263l-.690973.386285-.7888551.0091a.24570331.24571169 0 0 0 -.208252.1199642l-.404507.679958-.6784929.4045199a.24570331.24571169 0 0 0 -.121403.2068189l-.0093.7908052-.38627.6890747a.24570331.24571169 0 0 0 0 .2408893l.38627.689556.0093.790804a.24570331.24571169 0 0 0 .1214019.208259l.678493.402601.404507.680438a.24570331.24571169 0 0 0 .208253.119484l.7888541.01103.690973.386286a.24570331.24571169 0 0 0 .239443 0l.689052-.386286.790777-.01103a.24570331.24571169 0 0 0 .208735-.119485l.402584-.680438.679933-.402601a.24570331.24571169 0 0 0 .119963-.208259l.01105-.790804.386279-.689557a.24570331.24571169 0 0 0 0-.2408883l-.386756-.6890739-.01059-.790806a.24570331.24571169 0 0 0 -.119963-.2068181l-.679933-.4045199-.402585-.679958a.24570331.24571169 0 0 0 -.208735-.119965l-.790777-.0091-.689051-.386285a.24570331.24571169 0 0 0 -.117558-.03263z" fill="#ffc400"/><path id="path4468" d="m11.569241 8.8975979a.20216108.20516013 0 0 0 -.18892.1169325l-.237438.5051183-.544075.0704a.20216108.20516013 0 0 0 -.112555.3531856l.398512.3834137-.09903.547277a.20216108.20516013 0 0 0 .294708.217559l.481642-.266877.481634.266877a.20216108.20516013 0 0 0 .2951-.217559l-.09903-.547277.398519-.3834137a.20216108.20516013 0 0 0 -.112958-.3507986l-.546069-.0727861-.235044-.5051183a.20216108.20516013 0 0 0 -.174996-.1169334z" fill="#eee" font-variant-ligatures="normal" font-variant-position="normal" font-variant-caps="normal" font-variant-numeric="normal" font-variant-alternates="normal" font-feature-settings="normal" text-indent="0" text-align="start" text-decoration-line="none" text-decoration-style="solid" text-decoration-color="#000000" text-transform="none" text-orientation="mixed" white-space="normal" shape-padding="0" isolation="auto" mix-blend-mode="normal" solid-color="#000000" solid-opacity="1" vector-effect="none"/><g fill="#5299d3"><path id="path4470" d="m12.435476 2.1166666h1.622074c.04185.175119.146428.354172.274393.482143.128202.128195.299966.231068.484723.276988v1.6216119c.01076.353304.519425.351236.52915 0v-1.8515739c.000555-.146119-.117427-.265033-.263541-.265617-.140442 0-.275853-.0552-.37516-.154513-.09931-.09931-.153991-.234212-.153991-.374656-.000584-.146323-.119808-.264394-.266126-.26355h-1.850992c-.350378.0093-.354994.515753-.00053.529167z" font-variant-ligatures="normal" font-variant-position="normal" font-variant-caps="normal" font-variant-numeric="normal" font-variant-alternates="normal" font-feature-settings="normal" text-indent="0" text-align="start" text-decoration-line="none" text-decoration-style="solid" text-decoration-color="#000000" text-transform="none" text-orientation="mixed" white-space="normal" shape-padding="0" isolation="auto" mix-blend-mode="normal" solid-color="#000000" solid-opacity="1" vector-effect="none"/><path id="path4472" d="m2.6458176 1.5874966c-.146115-.000558-.265025.11743-.265609.263551 0 .140443-.0552.275344-.154507.374655-.09931.09931-.234202.154515-.374643.154515-.146115.000583-.264099.119497-.263541.265617v1.851573c-.008.360689.537149.360689.529149 0v-1.620878c.200019-.0532.362362-.153818.482128-.277721.132163-.13217.23308-.302789.275943-.482142h1.6225909c.3606771.008.3606771-.537168 0-.5291689z" font-variant-ligatures="normal" font-variant-position="normal" font-variant-caps="normal" font-variant-numeric="normal" font-variant-alternates="normal" font-feature-settings="normal" text-indent="0" text-align="start" text-decoration-line="none" text-decoration-style="solid" text-decoration-color="#000000" text-transform="none" text-orientation="mixed" white-space="normal" shape-padding="0" isolation="auto" mix-blend-mode="normal" solid-color="#000000" solid-opacity="1" vector-effect="none"/><path id="path4474" d="m6.8782261 2.3812488c-.3504329 0-.354567.529168 0 .529168h3.1759369c.350435 0 .356636-.529168 0-.529168z" font-variant-ligatures="normal" font-variant-position="normal" font-variant-caps="normal" font-variant-numeric="normal" font-variant-alternates="normal" font-feature-settings="normal" text-indent="0" text-align="start" text-decoration-line="none" text-decoration-style="solid" text-decoration-color="#000000" text-transform="none" text-orientation="mixed" white-space="normal" shape-padding="0" isolation="auto" mix-blend-mode="normal" solid-color="#000000" solid-opacity="1" vector-effect="none"/><path id="path4476" d="m3.704874 3.9682857c-.355133 0-.355133.5291691 0 .5291691h9.523159c.354568 0 .352501-.5291691 0-.5291691z" font-variant-ligatures="normal" font-variant-position="normal" font-variant-caps="normal" font-variant-numeric="normal" font-variant-alternates="normal" font-feature-settings="normal" text-indent="0" text-align="start" text-decoration-line="none" text-decoration-style="solid" text-decoration-color="#000000" text-transform="none" text-orientation="mixed" white-space="normal" shape-padding="0" isolation="auto" mix-blend-mode="normal" solid-color="#000000" solid-opacity="1" vector-effect="none"/><path id="path4478" d="m3.704874 5.2901747c-.3531111 0-.3531111.529685 0 .529685h9.523159c.353112 0 .353112-.529685 0-.529685z" font-variant-ligatures="normal" font-variant-position="normal" font-variant-caps="normal" font-variant-numeric="normal" font-variant-alternates="normal" font-feature-settings="normal" text-indent="0" text-align="start" text-decoration-line="none" text-decoration-style="solid" text-decoration-color="#000000" text-transform="none" text-orientation="mixed" white-space="normal" shape-padding="0" isolation="auto" mix-blend-mode="normal" solid-color="#000000" solid-opacity="1" vector-effect="none"/><path id="path4480" d="m4.4642373 6.8170884c-.57615.345703-.978204.9730718-.978204.9730718-.1875119.2983633.240043.5842061.4413031.2924892 0 0 .3927059-.5627441.8087111-.812356.2080037-.1248071.380705-.1640961.5405188-.0956.159815.06849.3747911.288282.560672.8459459.05139.1524161.2257401.22411.369476.1519301l.3581062-.179319.1297037.130742c.04999.04918.1174592.07753.1875801.077h.529667c.3493359 0 .3522109-.5281351 0-.5281351h-.420116l-.1875801-.1875889c-.0801899-.08065-.2029309-.1010372-.3048817-.0506402l-.2662471.133563c-.1726141-.3999129-.4082071-.7345309-.747097-.8797739-.1354-.05803-.272637-.07879-.406164-.072864-.2225461.0099-.4353999.093506-.6154481.2015347z" font-variant-ligatures="normal" font-variant-position="normal" font-variant-caps="normal" font-variant-numeric="normal" font-variant-alternates="normal" font-feature-settings="normal" text-indent="0" text-align="start" text-decoration-line="none" text-decoration-style="solid" text-decoration-color="#000000" text-transform="none" text-orientation="mixed" white-space="normal" shape-padding="0" isolation="auto" mix-blend-mode="normal" solid-color="#000000" solid-opacity="1" vector-effect="none"/><path id="path4482" d="m1.8500246 7.4078061c-.146126.0028-.265375.1194882-.262507.2656181v1.851574c.0005821.145314.118232.2629693.263541.2635503.140441 0 .275336.05675.374643.156064.09931.09931.154507.2326625.154507.3731045-.0005609.146929.118686.266178.265609.265618h1.8515109c.3505951 0 .3537471-.529169 0-.529169h-1.6225909c-.0324-.1635015-.145405-.3546978-.273876-.4831758-.128034-.1280369-.299959-.2309738-.484195-.2785779v-1.6189881c.0028-.1429311-.118468-.2656181-.266642-.2656181z" font-variant-ligatures="normal" font-variant-position="normal" font-variant-caps="normal" font-variant-numeric="normal" font-variant-alternates="normal" font-feature-settings="normal" text-indent="0" text-align="start" text-decoration-line="none" text-decoration-style="solid" text-decoration-color="#000000" text-transform="none" text-orientation="mixed" white-space="normal" shape-padding="0" isolation="auto" mix-blend-mode="normal" solid-color="#000000" solid-opacity="1" vector-effect="none"/><path id="path4484" d="m3.704906 8.7291284c-.353111 0-.353111.5296849 0 .5296849h2.909811c.3531121 0 .3531121-.5296849 0-.5296849z" font-variant-ligatures="normal" font-variant-position="normal" font-variant-caps="normal" font-variant-numeric="normal" font-variant-alternates="normal" font-feature-settings="normal" text-indent="0" text-align="start" text-decoration-line="none" text-decoration-style="solid" text-decoration-color="#000000" text-transform="none" text-orientation="mixed" white-space="normal" shape-padding="0" isolation="auto" mix-blend-mode="normal" solid-color="#000000" solid-opacity="1" vector-effect="none"/></g><path id="path4531" d="m11.564152 6.6140666a.24570331.24571169 0 0 0 -.121956.03256l-.690914.386539-.7885831.0088a.24570331.24571169 0 0 0 -.208256.1198901l-.404626.680062-.6785119.4046259a.24570331.24571169 0 0 0 -.121439.206706l-.0093.7911661-.3865401.688847a.24570331.24571169 0 0 0 0 .2408123l.3865401.68988.0093.79065a.24570331.24571169 0 0 0 .121439.208256l.6785119.402559.404626.680579a.24570331.24571169 0 0 0 .208256.119372l.7885831.01085.690914.386539a.24570331.24571169 0 0 0 .239778 0l.144694-.08113-.54622-.305408-.788582-.01085a.24570331.24571169 0 0 1 -.208256-.119371l-.4046261-.680579-.678512-.402559a.24570331.24571169 0 0 1 -.12144-.208256l-.0093-.79065-.3865389-.68988a.24570331.24571169 0 0 1 0-.2408123l.3865389-.6888469.0093-.7911661a.24570331.24571169 0 0 1 .12144-.2067059l.678512-.404626.4046261-.680062a.24570331.24571169 0 0 1 .208256-.1198901l.788582-.0088.545703-.305407-.144694-.08113a.24570331.24571169 0 0 0 -.117305-.03256z" fill="#ecb200"/><path id="path4543" d="m1.3668421.52916686c-.45941 0-.837675.37824805-.837675.83767494v9.4366332c0 .459427.378265.838192.837675.838192h.529166c-.45941 0-.837675-.378765-.837675-.838192v-9.4366332c0-.45942689.378265-.83767494.837675-.83767494z" fill="#d0d0d0" font-variant-ligatures="normal" font-variant-position="normal" font-variant-caps="normal" font-variant-numeric="normal" font-variant-alternates="normal" font-feature-settings="normal" text-indent="0" text-align="start" text-decoration-line="none" text-decoration-style="solid" text-decoration-color="#000000" text-transform="none" text-orientation="mixed" white-space="normal" shape-padding="0" isolation="auto" mix-blend-mode="normal" solid-color="#000000" solid-opacity="1" vector-effect="none"/><path id="path919" d="m11.5625 7.8574219c-1.209778.0000003-2.1972653.9874878-2.1972656 2.1972661-.0000005 1.209778.9874876 2.195312 2.1972656 2.195312 1.209779 0 2.195313-.985534 2.195312-2.195312 0-1.2097788-.985534-2.1972666-2.195312-2.1972661zm0 .5292969c.923795-.0000004 1.666015.7441733 1.666016 1.6679692 0 .923795-.74222 1.666015-1.666016 1.666015-.923795 0-1.6679691-.74222-1.6679688-1.666015.0000003-.9237955.7441738-1.667969 1.6679688-1.6679692z" fill="#eee" font-variant-ligatures="normal" font-variant-position="normal" font-variant-caps="normal" font-variant-numeric="normal" font-variant-alternates="normal" font-feature-settings="normal" text-indent="0" text-align="start" text-decoration-line="none" text-decoration-style="solid" text-decoration-color="#000000" text-transform="none" text-orientation="mixed" white-space="normal" shape-padding="0" isolation="auto" mix-blend-mode="normal" solid-color="#000000" solid-opacity="1" vector-effect="none"/></g></svg>