<svg id="Layer_1" enable-background="new 0 0 64 64" height="512" viewBox="0 0 64 64" width="512"
     xmlns="http://www.w3.org/2000/svg">
    <g>
        <path d="m43.4 58h-22.8c-.6 0-1-.4-1-1 0-2.8-2.2-5-5-5-.6 0-1-.4-1-1v-37.7c0-.6.4-1 1-1 2.8 0 5-2.2 5-5 0-.6.4-1 1-1h22.8c.6 0 1 .4 1 1 0 2.8 2.2 5 5 5 .6 0 1 .4 1 1v37.7c0 .6-.4 1-1 1-2.8 0-5 2.2-5 5 0 .6-.4 1-1 1zm-21.9-2h21c.4-3.1 2.9-5.5 5.9-5.9v-35.8c-3.1-.4-5.5-2.9-5.9-5.9h-21c-.4 3.1-2.9 5.5-5.9 5.9v35.8c3.1.4 5.5 2.8 5.9 5.9z"/>
    </g>
    <g>
        <path d="m14.6 45h34.8v2h-34.8z"/>
    </g>
    <g>
        <g>
            <path d="m25.6 30.1c-2.3 0-4.1-1.9-4.1-4.1s1.9-4.1 4.1-4.1 4.1 1.9 4.1 4.1-1.8 4.1-4.1 4.1zm0-6.3c-1.2 0-2.1 1-2.1 2.1s1 2.1 2.1 2.1 2.1-1 2.1-2.1-.9-2.1-2.1-2.1z"/>
        </g>
        <g>
            <path d="m38.4 36.1c-2.3 0-4.1-1.9-4.1-4.1s1.9-4.1 4.1-4.1 4.1 1.9 4.1 4.1-1.8 4.1-4.1 4.1zm0-6.2c-1.2 0-2.1 1-2.1 2.1s1 2.1 2.1 2.1 2.1-1 2.1-2.1-.9-2.1-2.1-2.1z"/>
        </g>
        <g>
            <path d="m19.5 28.1h24.4v2h-24.4z" transform="matrix(.385 -.923 .923 .385 -7.372 47.114)"/>
        </g>
    </g>
</svg>