<svg height="512pt" viewBox="0 -4 512.00004 512" width="512pt" xmlns="http://www.w3.org/2000/svg">
    <g fill="#c03a2b">
        <path d="m503.464844 341.332031c-4.710938 0-8.53125 3.820313-8.53125 8.535157v8.53125c0 4.714843 3.820312 8.535156 8.53125 8.535156 4.714844 0 8.535156-3.820313 8.535156-8.535156v-8.53125c0-4.714844-3.820312-8.535157-8.535156-8.535157zm0 0"/>
        <path d="m17.066406 332.195312c0-4.714843-3.820312-8.535156-8.53125-8.535156-4.714844 0-8.535156 3.820313-8.535156 8.535156v17.261719c0 4.714844 3.820312 8.535157 8.535156 8.535157 4.710938 0 8.53125-3.820313 8.53125-8.535157zm0 0"/>
        <path d="m41.046875 384c-4.328125-.277344-8.515625-1.644531-12.171875-3.976562-2.566406-1.726563-5.867188-1.929688-8.628906-.527344-2.757813 1.402344-4.539063 4.1875-4.660156 7.28125-.117188 3.09375 1.449218 6.007812 4.09375 7.617187 6.09375 3.898438 13.078124 6.183594 20.300781 6.636719h.535156c3.050781.097656 5.917969-1.441406 7.523437-4.035156 1.605469-2.59375 1.707032-5.847656.265626-8.535156-1.445313-2.6875-4.210938-4.402344-7.257813-4.496094zm0 0"/>
        <path d="m161.332031 384h-17.253906c-4.714844 0-8.535156 3.820312-8.535156 8.535156 0 4.710938 3.820312 8.53125 8.535156 8.53125h17.253906c4.710938 0 8.53125-3.820312 8.53125-8.53125 0-4.714844-3.820312-8.535156-8.53125-8.535156zm0 0"/>
        <path d="m100.914062 384h-17.289062c-4.710938 0-8.53125 3.820312-8.53125 8.535156 0 4.710938 3.820312 8.53125 8.53125 8.53125h17.257812c4.710938 0 8.53125-3.820312 8.53125-8.53125 0-4.714844-3.820312-8.535156-8.53125-8.535156zm0 0"/>
        <path d="m122.429688 0h-17.273438c-4.710938 0-8.535156 3.820312-8.535156 8.535156 0 4.710938 3.824218 8.53125 8.535156 8.53125h17.273438c4.710937 0 8.53125-3.820312 8.53125-8.53125 0-4.714844-3.820313-8.535156-8.53125-8.535156zm0 0"/>
        <path d="m62.003906 0h-17.261718c-4.714844 0-8.535157 3.820312-8.535157 8.535156 0 4.710938 3.820313 8.53125 8.535157 8.53125h17.261718c4.710938 0 8.53125-3.820312 8.53125-8.53125 0-4.714844-3.820312-8.535156-8.53125-8.535156zm0 0"/>
        <path d="m8.535156 55.902344c4.710938 0 8.53125-3.820313 8.53125-8.535156v-4.699219c0-3.152344.578125-6.277344 1.707032-9.21875 1.695312-4.394531-.492188-9.335938-4.890626-11.03125-4.394531-1.699219-9.335937.492187-11.03125 4.890625-1.890624 4.898437-2.85546825 10.105468-2.851562 15.359375v4.699219c0 4.714843 3.820312 8.535156 8.535156 8.535156zm0 0"/>
        <path d="m8.535156 116.316406c4.710938 0 8.53125-3.820312 8.53125-8.53125v-17.261718c0-4.714844-3.820312-8.535157-8.53125-8.535157-4.714844 0-8.535156 3.820313-8.535156 8.535157v17.261718c0 4.710938 3.820312 8.53125 8.535156 8.53125zm0 0"/>
        <path d="m8.535156 297.574219c4.710938 0 8.53125-3.820313 8.53125-8.53125v-17.265625c0-4.710938-3.820312-8.53125-8.53125-8.53125-4.714844 0-8.535156 3.820312-8.535156 8.53125v17.265625c0 4.710937 3.820312 8.53125 8.535156 8.53125zm0 0"/>
        <path d="m8.535156 237.160156c4.710938 0 8.53125-3.820312 8.53125-8.535156v-17.261719c0-4.714843-3.820312-8.535156-8.53125-8.535156-4.714844 0-8.535156 3.820313-8.535156 8.535156v17.261719c0 2.261719.898438 4.433594 2.5 6.035156 1.601562 1.597656 3.769531 2.5 6.035156 2.5zm0 0"/>
        <path d="m8.535156 176.734375c4.710938 0 8.53125-3.820313 8.53125-8.535156v-17.261719c0-4.710938-3.820312-8.53125-8.53125-8.53125-4.714844 0-8.535156 3.820312-8.535156 8.53125v17.261719c0 4.714843 3.820312 8.535156 8.535156 8.535156zm0 0"/>
        <path d="m488.15625 4.371094c-5.851562-2.890625-12.296875-4.386719-18.824219-4.371094h-1.707031c-4.710938 0-8.53125 3.820312-8.53125 8.535156 0 4.710938 3.820312 8.53125 8.53125 8.53125h1.707031c3.917969-.011718 7.785157.886719 11.300781 2.621094 2.738282 1.355469 5.992188 1.144531 8.53125-.550781 2.542969-1.699219 3.980469-4.628907 3.773438-7.675781-.210938-3.050782-2.03125-5.753907-4.78125-7.089844zm0 0"/>
        <path d="m503.464844 220.5c-4.710938 0-8.53125 3.820312-8.53125 8.535156v17.261719c0 4.714844 3.820312 8.535156 8.53125 8.535156 4.714844 0 8.535156-3.820312 8.535156-8.535156v-17.261719c0-4.714844-3.820312-8.535156-8.535156-8.535156zm0 0"/>
        <path d="m503.464844 280.917969c-4.710938 0-8.53125 3.820312-8.53125 8.53125v17.265625c0 4.710937 3.820312 8.53125 8.53125 8.53125 4.714844 0 8.535156-3.820313 8.535156-8.53125v-17.265625c0-4.710938-3.820312-8.53125-8.535156-8.53125zm0 0"/>
        <path d="m503.464844 39.253906c-4.710938 0-8.53125 3.820313-8.53125 8.53125v17.257813c0 4.710937 3.820312 8.53125 8.53125 8.53125 4.714844 0 8.535156-3.820313 8.535156-8.53125v-17.257813c0-4.710937-3.820312-8.53125-8.535156-8.53125zm0 0"/>
        <path d="m182.84375 0h-17.296875c-4.714844 0-8.535156 3.820312-8.535156 8.535156 0 4.710938 3.820312 8.53125 8.535156 8.53125h17.269531c4.714844 0 8.535156-3.820312 8.535156-8.53125 0-4.714844-3.820312-8.535156-8.535156-8.535156zm0 0"/>
        <path d="m503.464844 160.078125c-4.710938 0-8.53125 3.820313-8.53125 8.53125v17.265625c0 4.710938 3.820312 8.53125 8.53125 8.53125 4.714844 0 8.535156-3.820312 8.535156-8.53125v-17.265625c0-4.710937-3.820312-8.53125-8.535156-8.53125zm0 0"/>
        <path d="m503.464844 99.660156c-4.710938 0-8.53125 3.820313-8.53125 8.535156v17.246094c0 4.710938 3.820312 8.53125 8.53125 8.53125 4.714844 0 8.535156-3.820312 8.535156-8.53125v-17.246094c0-4.714843-3.820312-8.535156-8.535156-8.535156zm0 0"/>
        <path d="m243.257812 0h-17.261718c-4.710938 0-8.53125 3.820312-8.53125 8.535156 0 4.710938 3.820312 8.53125 8.53125 8.53125h17.261718c4.714844 0 8.535157-3.820312 8.535157-8.53125 0-4.714844-3.820313-8.535156-8.535157-8.535156zm0 0"/>
        <path d="m303.675781 0h-17.261719c-4.714843 0-8.535156 3.820312-8.535156 8.535156 0 4.710938 3.820313 8.53125 8.535156 8.53125h17.261719c4.710938 0 8.535157-3.820312 8.535157-8.53125 0-4.714844-3.824219-8.535156-8.535157-8.535156zm0 0"/>
        <path d="m424.515625 0h-17.261719c-4.714844 0-8.535156 3.820312-8.535156 8.535156 0 4.710938 3.820312 8.53125 8.535156 8.53125h17.261719c4.714844 0 8.535156-3.820312 8.535156-8.53125 0-4.714844-3.820312-8.535156-8.535156-8.535156zm0 0"/>
        <path d="m364.089844 0h-17.253906c-4.710938 0-8.53125 3.820312-8.53125 8.535156 0 4.710938 3.820312 8.53125 8.53125 8.53125h17.253906c4.714844 0 8.535156-3.820312 8.535156-8.53125 0-4.714844-3.820312-8.535156-8.535156-8.535156zm0 0"/>
        <path d="m213.332031 384h-8.53125c-4.714843 0-8.535156 3.820312-8.535156 8.535156 0 4.710938 3.820313 8.53125 8.535156 8.53125h8.53125c4.714844 0 8.535157-3.820312 8.535157-8.53125 0-4.714844-3.820313-8.535156-8.535157-8.535156zm0 0"/>
    </g>
    <path d="m396.542969 358.398438h64.257812c4.710938 0 8.53125-3.820313 8.53125-8.53125v-298.667969c0-4.710938-3.820312-8.53125-8.53125-8.53125h-409.601562c-4.710938 0-8.53125 3.820312-8.53125 8.53125v298.667969c0 4.710937 3.820312 8.53125 8.53125 8.53125zm0 0"
          fill="#e64c3c"/>
    <path d="m106.667969 128c16.492187 0 29.867187-13.371094 29.867187-29.867188 0-16.496093-13.375-29.867187-29.867187-29.867187-16.496094 0-29.867188 13.371094-29.867188 29.867187 0 16.496094 13.371094 29.867188 29.867188 29.867188zm0-42.667969c7.066406 0 12.796875 5.730469 12.796875 12.800781 0 7.070313-5.730469 12.800782-12.796875 12.800782-7.070313 0-12.800781-5.730469-12.800781-12.800782 0-7.070312 5.730468-12.800781 12.800781-12.800781zm0 0"
          fill="#fff"/>
    <path d="m183.464844 153.601562c-16.492188 0-29.863282 13.371094-29.863282 29.867188 0 16.492188 13.371094 29.863281 29.863282 29.863281 16.496094 0 29.867187-13.371093 29.867187-29.863281 0-16.496094-13.371093-29.867188-29.867187-29.867188zm0 42.664063c-7.066406 0-12.796875-5.730469-12.796875-12.796875 0-7.070312 5.730469-12.800781 12.796875-12.800781 7.070312 0 12.800781 5.730469 12.800781 12.800781 0 7.066406-5.730469 12.796875-12.800781 12.796875zm0 0"
          fill="#fff"/>
    <path d="m210.628906 70.5625c-1.65625-1.546875-3.855468-2.371094-6.121094-2.292969-2.261718.078125-4.402343 1.054688-5.945312 2.710938l-119.46875 128c-2.160156 2.214843-2.953125 5.425781-2.070312 8.390625.878906 2.96875 3.296874 5.226562 6.320312 5.898437 3.019531.675781 6.167969-.339843 8.226562-2.648437l119.46875-128c3.214844-3.445313 3.03125-8.839844-.410156-12.058594zm0 0"
          fill="#fff"/>
    <path d="m85.84375 247.46875h340.3125c4.992188 0 9.042969 4.046875 9.042969 9.042969v58.710937c0 4.996094-4.050781 9.042969-9.042969 9.042969h-340.3125c-4.992188 0-9.042969-4.046875-9.042969-9.042969v-58.710937c0-4.996094 4.050781-9.042969 9.042969-9.042969zm0 0"
          fill="#c03a2b"/>
    <path d="m136.535156 298.667969h-17.070312c-4.710938 0-8.53125-3.820313-8.53125-8.535157 0-4.710937 3.820312-8.53125 8.53125-8.53125h17.070312c4.710938 0 8.53125 3.820313 8.53125 8.53125 0 4.714844-3.820312 8.535157-8.53125 8.535157zm0 0"
          fill="#fb7b76"/>
    <path d="m187.734375 298.667969h-17.066406c-4.714844 0-8.535157-3.820313-8.535157-8.535157 0-4.710937 3.820313-8.53125 8.535157-8.53125h17.066406c4.710937 0 8.53125 3.820313 8.53125 8.53125 0 4.714844-3.820313 8.535157-8.53125 8.535157zm0 0"
          fill="#fb7b76"/>
    <path d="m238.933594 298.667969h-17.066406c-4.714844 0-8.535157-3.820313-8.535157-8.535157 0-4.710937 3.820313-8.53125 8.535157-8.53125h17.066406c4.710937 0 8.53125 3.820313 8.53125 8.53125 0 4.714844-3.820313 8.535157-8.53125 8.535157zm0 0"
          fill="#fb7b76"/>
    <path d="m264.535156 85.332031h17.066406c4.710938 0 8.53125-3.820312 8.53125-8.53125 0-4.714843-3.820312-8.535156-8.53125-8.535156h-17.066406c-4.714844 0-8.535156 3.820313-8.535156 8.535156 0 4.710938 3.820312 8.53125 8.535156 8.53125zm0 0"
          fill="#c03a2b"/>
    <path d="m315.734375 85.332031h119.464844c4.714843 0 8.535156-3.820312 8.535156-8.53125 0-4.714843-3.820313-8.535156-8.535156-8.535156h-119.464844c-4.714844 0-8.535156 3.820313-8.535156 8.535156 0 4.710938 3.820312 8.53125 8.535156 8.53125zm0 0"
          fill="#c03a2b"/>
    <path d="m281.601562 136.535156h-17.066406c-4.714844 0-8.535156 3.820313-8.535156 8.53125 0 4.714844 3.820312 8.535156 8.535156 8.535156h17.066406c4.710938 0 8.53125-3.820312 8.53125-8.535156 0-4.710937-3.820312-8.53125-8.53125-8.53125zm0 0"
          fill="#c03a2b"/>
    <path d="m435.199219 136.535156h-119.464844c-4.714844 0-8.535156 3.820313-8.535156 8.53125 0 4.714844 3.820312 8.535156 8.535156 8.535156h119.464844c4.714843 0 8.535156-3.820312 8.535156-8.535156 0-4.710937-3.820313-8.53125-8.535156-8.53125zm0 0"
          fill="#c03a2b"/>
    <path d="m264.535156 119.46875h85.332032c4.710937 0 8.53125-3.824219 8.53125-8.535156 0-4.714844-3.820313-8.535156-8.53125-8.535156h-85.332032c-4.714844 0-8.535156 3.820312-8.535156 8.535156 0 4.710937 3.820312 8.535156 8.535156 8.535156zm0 0"
          fill="#c03a2b"/>
    <path d="m435.199219 102.398438h-51.199219c-4.710938 0-8.535156 3.820312-8.535156 8.535156 0 4.710937 3.824218 8.535156 8.535156 8.535156h51.199219c4.714843 0 8.535156-3.824219 8.535156-8.535156 0-4.714844-3.820313-8.535156-8.535156-8.535156zm0 0"
          fill="#c03a2b"/>
    <path d="m324.691406 414.550781 26.796875-46.335937 19.710938-34.132813 64.769531-112.214843 4.265625 2.472656c6.710937 3.859375 11.617187 10.226562 13.632813 17.699218 2.019531 7.472657.980468 15.445313-2.878907 22.152344l-60.078125 104.023438-19.710937 34.132812-29.867188 51.710938zm0 0"
          fill="#bdc3c7"/>
    <path d="m401.066406 454.058594-29.867187-51.710938-19.710938-34.132812-60.074219-104.023438c-3.863281-6.707031-4.898437-14.679687-2.882812-22.152344 2.015625-7.472656 6.921875-13.839843 13.632812-17.699218l4.269532-2.472656 64.765625 112.214843 19.710937 34.132813 26.796875 46.335937zm0 0"
          fill="#d1d4d1"/>
    <path d="m290.132812 401.066406c-28.277343 0-51.199218 22.921875-51.199218 51.199219s22.921875 51.203125 51.199218 51.203125c28.277344 0 51.199219-22.925781 51.199219-51.203125s-22.921875-51.199219-51.199219-51.199219zm0 68.265625c-9.425781 0-17.066406-7.640625-17.066406-17.066406s7.640625-17.066406 17.066406-17.066406c9.425782 0 17.066407 7.640625 17.066407 17.066406-.027344 9.414063-7.652344 17.039063-17.066407 17.066406zm0 0"
          fill="#95a5a5"/>
    <path d="m452.265625 401.066406c-28.277344 0-51.199219 22.921875-51.199219 51.199219s22.921875 51.203125 51.199219 51.203125 51.199219-22.925781 51.199219-51.203125-22.921875-51.199219-51.199219-51.199219zm0 68.265625c-9.425781 0-17.066406-7.640625-17.066406-17.066406s7.640625-17.066406 17.066406-17.066406 17.066406 7.640625 17.066406 17.066406c-.027343 9.414063-7.652343 17.039063-17.066406 17.066406zm0 0"
          fill="#95a5a5"/>
    <path d="m290.132812 418.132812c-18.851562 0-34.132812 15.28125-34.132812 34.132813s15.28125 34.132813 34.132812 34.132813c18.851563 0 34.132813-15.28125 34.132813-34.132813s-15.28125-34.132813-34.132813-34.132813zm0 51.199219c-9.425781 0-17.066406-7.640625-17.066406-17.066406s7.640625-17.066406 17.066406-17.066406c9.425782 0 17.066407 7.640625 17.066407 17.066406-.027344 9.414063-7.652344 17.039063-17.066407 17.066406zm0 0"
          fill="#7f8c8d"/>
    <path d="m452.265625 418.132812c-18.851563 0-34.132813 15.28125-34.132813 34.132813s15.28125 34.132813 34.132813 34.132813 34.132813-15.28125 34.132813-34.132813-15.28125-34.132813-34.132813-34.132813zm0 51.199219c-9.425781 0-17.066406-7.640625-17.066406-17.066406s7.640625-17.066406 17.066406-17.066406 17.066406 7.640625 17.066406 17.066406c-.027343 9.414063-7.652343 17.039063-17.066406 17.066406zm0 0"
          fill="#7f8c8d"/>
</svg>