<svg id="Capa_1" enable-background="new 0 0 510 510" height="512" viewBox="0 0 510 510" width="512" xmlns="http://www.w3.org/2000/svg" xmlns:xlink="http://www.w3.org/1999/xlink"><linearGradient id="lg1"><stop offset="0" stop-color="#fd4755"/><stop offset="1" stop-color="#a72b2b"/></linearGradient><linearGradient id="SVGID_1_" gradientTransform="matrix(-1 0 0 1 510 0)" gradientUnits="userSpaceOnUse" x1="309.561" x2="370.587" xlink:href="#lg1" y1="265.728" y2="344.026"/><linearGradient id="lg2"><stop offset="0" stop-color="#a72b2b" stop-opacity="0"/><stop offset="1" stop-color="#42210b"/></linearGradient><linearGradient id="SVGID_00000173870163883784814000000002412855740103740828_" gradientUnits="userSpaceOnUse" x1="183.905" x2="229.239" xlink:href="#lg2" y1="250.063" y2="318.063"/><linearGradient id="SVGID_00000120525371434718192530000003422220753639135132_" gradientUnits="userSpaceOnUse" x1="203.715" x2="170.715" xlink:href="#lg2" y1="210.767" y2="96.767"/><linearGradient id="SVGID_00000144309890749106587950000007722846029726553247_" gradientTransform="matrix(-1 0 0 1 510 0)" gradientUnits="userSpaceOnUse" x1="293.664" x2="307.482" xlink:href="#lg2" y1="305.873" y2="414.881"/><linearGradient id="lg3"><stop offset="0" stop-color="#bbec6c"/><stop offset="1" stop-color="#81b823"/></linearGradient><linearGradient id="SVGID_00000162351390230641616860000014154848790599191939_" gradientUnits="userSpaceOnUse" x1="112.682" x2="133.682" xlink:href="#lg3" y1="101.096" y2="139.429"/><linearGradient id="lg4"><stop offset="0" stop-color="#47a920" stop-opacity="0"/><stop offset=".242" stop-color="#459a2a" stop-opacity=".242"/><stop offset=".7001" stop-color="#417545" stop-opacity=".7"/><stop offset="1" stop-color="#3e5959"/></linearGradient><linearGradient id="SVGID_00000083057592987787026570000014188522657337570490_" gradientUnits="userSpaceOnUse" x1="126.495" x2="98.828" xlink:href="#lg4" y1="114.24" y2="127.24"/><linearGradient id="SVGID_00000002384489072358925080000005726148201928156578_" gradientUnits="userSpaceOnUse" x1="44.589" x2="74.922" xlink:href="#lg3" y1="115.041" y2="142.708"/><linearGradient id="SVGID_00000016784015014443989680000011394411709557656203_" gradientTransform="matrix(-1 0 0 1 510 0)" gradientUnits="userSpaceOnUse" x1="459.18" x2="427.323" xlink:href="#lg4" y1="123.68" y2="131.74"/><linearGradient id="SVGID_00000047752851969564844020000018189584140148949163_" gradientUnits="userSpaceOnUse" x1="73.667" x2="91.051" xlink:href="#lg3" y1="87.65" y2="87.65"/><linearGradient id="SVGID_00000123410226248449752150000012526249388404968126_" gradientUnits="userSpaceOnUse" x1="78.356" x2="104.69" xlink:href="#lg3" y1="132.659" y2="152.325"/><linearGradient id="SVGID_00000168113610111253878990000017334378520175006887_" gradientUnits="userSpaceOnUse" x1="270.384" x2="349.88" xlink:href="#lg1" y1="296.732" y2="398.727"/><linearGradient id="SVGID_00000070103590281614389990000001170986318266137232_" gradientUnits="userSpaceOnUse" x1="249.676" x2="267.676" xlink:href="#lg2" y1="349.027" y2="491.027"/><linearGradient id="SVGID_00000091012121085109764390000003738429903563479735_" gradientUnits="userSpaceOnUse" x1="422.452" x2="412.952" xlink:href="#lg2" y1="250.429" y2="105.929"/><linearGradient id="SVGID_00000131360645099237845790000011796964459361824180_" gradientUnits="userSpaceOnUse" x1="359.473" x2="387.239" xlink:href="#lg3" y1="88.527" y2="116.293"/><linearGradient id="SVGID_00000052093949075953986100000017211579453543203741_" gradientUnits="userSpaceOnUse" x1="448.886" x2="468.219" xlink:href="#lg3" y1="91.501" y2="131.168"/><linearGradient id="SVGID_00000085964151505623528570000017736900072671857573_" gradientUnits="userSpaceOnUse" x1="474.173" x2="432.673" xlink:href="#lg4" y1="109.443" y2="119.943"/><linearGradient id="SVGID_00000075156844995531600480000014406346740965672876_" gradientTransform="matrix(.993 .122 -.122 .993 -27.257 -49.433)" gradientUnits="userSpaceOnUse" x1="450.429" x2="475.107" xlink:href="#lg3" y1="58.843" y2="58.843"/><linearGradient id="SVGID_00000083804785372890289880000001415483072443015078_" gradientUnits="userSpaceOnUse" x1="394.462" x2="430.128" xlink:href="#lg3" y1="125.121" y2="145.121"/><g><g><path d="m110.467 109.446c27.982 0 52.529 19.153 58.796 46.424 24.102 104.865 118.011 183.072 230.192 183.072h.23c7.734-.008 11.287 9.627 5.329 14.557-41.455 34.298-94.815 54.714-152.961 54.112-129.753-1.345-233.696-106.426-233.696-236.185 0-1.035.007-2.068.02-3.1.422-32.715 27.375-58.88 60.093-58.88z" fill="url(#SVGID_1_)"/><path d="m110.467 109.446c27.982 0 52.529 19.153 58.796 46.424 24.102 104.865 118.011 183.072 230.192 183.072h.23c7.734-.008 11.287 9.627 5.329 14.557-41.455 34.298-94.815 54.714-152.961 54.112-129.753-1.345-233.696-106.426-233.696-236.185 0-1.035.007-2.068.02-3.1.422-32.715 27.375-58.88 60.093-58.88z" fill="url(#SVGID_00000173870163883784814000000002412855740103740828_)"/><path d="m405.013 353.498c5.959-4.93 2.405-14.564-5.329-14.557-.076 0-.153 0-.229 0-112.181 0-206.09-78.207-230.192-183.072-6.268-27.271-30.814-46.424-58.796-46.424h-31.997c-26.615 0-49.414 17.316-57.22 41.387l.001.001 255.725 255.725c48.416-4.561 92.583-23.726 128.037-53.06z" fill="url(#SVGID_00000120525371434718192530000003422220753639135132_)"/><path d="m206.022 238.298c42.724 60.858 113.427 100.644 193.433 100.644h.23c7.734-.008 11.287 9.627 5.329 14.557-41.455 34.298-94.815 54.714-152.961 54.112-106.518-1.103-195.625-72.125-224.128-169.312h178.097z" fill="url(#SVGID_00000144309890749106587950000007722846029726553247_)"/><g><g><path d="m82.676 99.197c29.081-15.23 65.001-4.001 80.231 25.08 1.888 3.606.496 8.06-3.11 9.948-29.081 15.229-65.001 4.001-80.231-25.08-1.889-3.606-.496-8.06 3.11-9.948z" fill="url(#SVGID_00000162351390230641616860000014154848790599191939_)"/><path d="m82.676 99.197c29.081-15.23 65.001-4.001 80.231 25.08 1.888 3.606.496 8.06-3.11 9.948-29.081 15.229-65.001 4.001-80.231-25.08-1.889-3.606-.496-8.06 3.11-9.948z" fill="url(#SVGID_00000083057592987787026570000014188522657337570490_)"/><path d="m88.476 98.484c-31.903-7.735-64.036 11.857-71.771 43.76-.959 3.956 1.47 7.94 5.426 8.899 31.903 7.735 64.036-11.857 71.771-43.76.959-3.955-1.471-7.94-5.426-8.899z" fill="url(#SVGID_00000002384489072358925080000005726148201928156578_)"/><path d="m88.476 98.484c-31.903-7.735-64.036 11.857-71.771 43.76-.959 3.956 1.47 7.94 5.426 8.899 31.903 7.735 64.036-11.857 71.771-43.76.959-3.955-1.471-7.94-5.426-8.899z" fill="url(#SVGID_00000016784015014443989680000011394411709557656203_)"/></g><path d="m85.148 60.04-.279-.051c-8.137-1.493-15.82 4.526-16.124 12.793-.546 14.846 8.09 30.784 18.221 41.368 3.111 3.25 8.59.337 7.623-4.057-2.438-11.084-2.098-21.579 1.207-32.797 2.288-7.764-2.687-15.795-10.648-17.256z" fill="url(#SVGID_00000047752851969564844020000018189584140148949163_)"/><path d="m90.835 184.364c-25.87-20.208-30.461-57.561-10.253-83.432 2.506-3.208 7.137-3.777 10.345-1.271 25.87 20.208 30.461 57.561 10.253 83.432-2.505 3.208-7.137 3.777-10.345 1.271z" fill="url(#SVGID_00000123410226248449752150000012526249388404968126_)"/></g></g><g><path d="m387.588 93.149c-36.451 0-68.427 24.95-76.591 60.475-31.397 136.604-153.729 238.481-299.862 238.481-.1 0-.199 0-.299 0-10.074-.01-14.704 12.54-6.941 18.962 54.002 44.679 123.511 71.274 199.256 70.489 169.023-1.75 304.425-138.636 304.425-307.668 0-1.348-.009-2.694-.026-4.038-.55-42.617-35.66-76.701-78.28-76.701z" fill="url(#SVGID_00000168113610111253878990000017334378520175006887_)"/><path d="m263.112 261c-55.655 79.277-147.757 131.104-251.977 131.104-.1 0-.199 0-.299 0-10.075-.01-14.704 12.54-6.942 18.962 54.002 44.679 123.511 71.274 199.256 70.489 138.757-1.436 254.834-93.954 291.964-220.555z" fill="url(#SVGID_00000070103590281614389990000001170986318266137232_)"/><path d="m429.269 93.149h-41.681c-25.824 0-49.39 12.533-63.846 32.467l162.16 162.16c13.982-35.215 21.675-73.636 21.674-113.888 0-1.348-.009-2.694-.026-4.038-.55-42.616-35.661-76.701-78.281-76.701z" fill="url(#SVGID_00000091012121085109764390000003738429903563479735_)"/><g><g><path d="m423.79 79.799c-37.882-19.839-84.674-5.212-104.513 32.67-2.46 4.697-.646 10.499 4.051 12.959 37.882 19.839 84.674 5.212 104.513-32.67 2.46-4.697.646-10.499-4.051-12.959z" fill="url(#SVGID_00000131360645099237845790000011796964459361824180_)"/><path d="m416.235 78.87c41.559-10.076 83.417 15.446 93.493 57.004 1.249 5.153-1.915 10.343-7.068 11.593-41.559 10.076-83.417-15.446-93.493-57.004-1.25-5.153 1.915-10.343 7.068-11.593z" fill="url(#SVGID_00000052093949075953986100000017211579453543203741_)"/><path d="m416.235 78.87c41.559-10.076 83.417 15.446 93.493 57.004 1.249 5.153-1.915 10.343-7.068 11.593-41.559 10.076-83.417-15.446-93.493-57.004-1.25-5.153 1.915-10.343 7.068-11.593z" fill="url(#SVGID_00000085964151505623528570000017736900072671857573_)"/></g><g><g><path d="m408.27 93.993c3.176-14.439 2.733-28.11-1.572-42.724-2.98-10.114 3.501-20.576 13.871-22.479l.363-.067c10.6-1.945 20.608 5.895 21.004 16.665.711 19.34-10.539 40.101-23.736 53.889-4.052 4.235-11.189.44-9.93-5.284z" fill="url(#SVGID_00000075156844995531600480000014406346740965672876_)"/></g></g><path d="m413.161 190.743c33.7-26.324 39.68-74.983 13.357-108.683-3.264-4.179-9.298-4.92-13.476-1.656-33.7 26.324-39.68 74.983-13.357 108.683 3.264 4.178 9.297 4.92 13.476 1.656z" fill="url(#SVGID_00000083804785372890289880000001415483072443015078_)"/></g></g></g></svg>