<?xml version="1.0" encoding="UTF-8"?>
<svg xmlns="http://www.w3.org/2000/svg" xmlns:xlink="http://www.w3.org/1999/xlink" version="1.1" id="Capa_1" x="0px" y="0px" viewBox="0 0 512 512" style="enable-background:new 0 0 512 512;" xml:space="preserve" width="512" height="512">
<g>
	<g>
		<path style="fill:none;stroke:#000000;stroke-width:15;stroke-linecap:round;stroke-linejoin:round;stroke-miterlimit:10;" d="&#10;&#9;&#9;&#9;M331.335,265.087c-6.1,57.152-29.528,101.068-58.33,134.308"/>
		<path style="fill:none;stroke:#000000;stroke-width:15;stroke-linecap:round;stroke-linejoin:round;stroke-miterlimit:10;" d="&#10;&#9;&#9;&#9;M248.407,424.322c-33.473,29.933-69.426,48.124-92.602,57.811c-7.345,3.07-6.263,13.762,1.534,15.367&#10;&#9;&#9;&#9;c215.313,44.32,279.712-133.89,295.395-195.833c0.51-2.015,0.797-4.048,0.902-6.074"/>
		<g>
			<path style="fill:none;stroke:#000000;stroke-width:15;stroke-linecap:round;stroke-linejoin:round;stroke-miterlimit:10;" d="&#10;&#9;&#9;&#9;&#9;M420.904,203.803l13.884-33.996c3.002-7.351-0.231-15.769-7.382-19.22c-9.297-4.487-20.245,1.517-21.46,11.768l-4.291,36.206"/>
			<path style="fill:none;stroke:#000000;stroke-width:15;stroke-linecap:round;stroke-linejoin:round;stroke-miterlimit:10;" d="&#10;&#9;&#9;&#9;&#9;M349.802,232.73l-27.541,24.825c-1.643,1.481-1.18,4.19,0.874,5.013c13.711,5.489,29.593,5.107,43.505-2.179&#10;&#9;&#9;&#9;&#9;c-2.964,17.691,3.753,35.043,16.577,46.032c0.7,0.6,1.655,0.838,2.555,0.637c16.725-3.734,30.972-16.206,36.494-33.611&#10;&#9;&#9;&#9;&#9;c8.809,13.513,22.919,21.658,37.925,23.313c2.223,0.245,3.912-1.971,3.115-4.06l-25.894-67.848&#10;&#9;&#9;&#9;&#9;c-3.691-12.05-13.421-21.924-26.54-25.196c-13.016-3.246-26.127,0.826-35.041,9.588"/>
		</g>
	</g>
	<g>
		<path style="fill:none;stroke:#000000;stroke-width:15;stroke-linecap:round;stroke-linejoin:round;stroke-miterlimit:10;" d="&#10;&#9;&#9;&#9;M63.774,109.293c-0.893,1.671-1.644,3.436-2.204,5.296C56.608,131.075,50.236,157.375,48.491,188"/>
		<path style="fill:none;stroke:#000000;stroke-width:15;stroke-linecap:round;stroke-linejoin:round;stroke-miterlimit:10;" d="&#10;&#9;&#9;&#9;M48.727,223c4.968,67.274,38.249,144.179,150.789,184.471c7.471,2.675,13.915-5.923,9.257-12.348&#10;&#9;&#9;&#9;c-30.039-41.441-85.997-140.724-34.349-252.055"/>
		<g>
			<path style="fill:none;stroke:#000000;stroke-width:15;stroke-linecap:round;stroke-linejoin:round;stroke-miterlimit:10;" d="&#10;&#9;&#9;&#9;&#9;M150.518,57.482l13.731-30.522c3.888-8.642-1.892-18.54-11.329-19.402c-7.258-0.663-13.78,4.435-14.891,11.638l-5.137,33.315"/>
			<path style="fill:none;stroke:#000000;stroke-width:15;stroke-linecap:round;stroke-linejoin:round;stroke-miterlimit:10;" d="&#10;&#9;&#9;&#9;&#9;M109.952,61.277c8.598-7.74,20.922-10.913,32.793-7.289c11.956,3.65,20.438,13.278,23.186,24.606l19.078,62.448&#10;&#9;&#9;&#9;&#9;c0.652,2.134-1.173,4.219-3.372,3.843c-13.217-2.256-25.351-10.024-32.777-22.2c-6.011,15.284-19.442,25.752-34.679,28.375&#10;&#9;&#9;&#9;&#9;c-0.909,0.156-1.85-0.131-2.517-0.768c-11.338-10.843-16.621-27.348-12.753-43.613c-13.19,6.411-27.983,6.22-40.499,0.593&#10;&#9;&#9;&#9;&#9;c-2.04-0.917-2.341-3.699-0.582-5.08L109.952,61.277z"/>
		</g>
	</g>
	<g>
		<path style="fill:none;stroke:#000000;stroke-width:15;stroke-linecap:round;stroke-linejoin:round;stroke-miterlimit:10;" d="&#10;&#9;&#9;&#9;M246.595,207.607l-17.486,17.486c-1.172,1.172-3.071,1.172-4.243,0l-17.486-17.486c-1.172-1.172-1.172-3.071,0-4.243&#10;&#9;&#9;&#9;l17.486-17.486c1.172-1.172,3.071-1.172,4.243,0l17.486,17.486C247.767,204.536,247.767,206.435,246.595,207.607z"/>
	</g>
	<g>
		<path style="fill:none;stroke:#000000;stroke-width:15;stroke-linecap:round;stroke-linejoin:round;stroke-miterlimit:10;" d="&#10;&#9;&#9;&#9;M272.595,313.607l-17.486,17.486c-1.172,1.172-3.071,1.172-4.243,0l-17.486-17.486c-1.172-1.172-1.172-3.071,0-4.243&#10;&#9;&#9;&#9;l17.486-17.486c1.172-1.172,3.071-1.172,4.243,0l17.486,17.486C273.767,310.536,273.767,312.435,272.595,313.607z"/>
	</g>
	<path style="fill:none;stroke:#000000;stroke-width:15;stroke-linecap:round;stroke-linejoin:round;stroke-miterlimit:10;" d="&#10;&#9;&#9;M297.802,163.824l51.461-13.789c3.718-0.996,4.963-5.644,2.241-8.365l-37.672-37.672c-2.722-2.722-7.369-1.476-8.365,2.241&#10;&#9;&#9;l-13.789,51.461C290.682,161.418,294.084,164.821,297.802,163.824z"/>
	<path style="fill:none;stroke:#000000;stroke-width:15;stroke-linecap:round;stroke-linejoin:round;stroke-miterlimit:10;" d="&#10;&#9;&#9;M117.071,424.775l-46.139-26.638c-3.333-1.924-7.5,0.481-7.5,4.33v53.276c0,3.849,4.167,6.255,7.5,4.33l46.139-26.638&#10;&#9;&#9;C120.404,431.51,120.404,426.699,117.071,424.775z"/>
</g>















</svg>
