<?xml version="1.0" encoding="UTF-8"?>


<!DOCTYPE svg PUBLIC "-//W3C//DTD SVG 1.1//EN" "http://www.w3.org/Graphics/SVG/1.1/DTD/svg11.dtd">

<svg xmlns="http://www.w3.org/2000/svg" xml:space="preserve" width="343px" height="343px" version="1.1" style="shape-rendering:geometricPrecision; text-rendering:geometricPrecision; image-rendering:optimizeQuality; fill-rule:evenodd; clip-rule:evenodd"
viewBox="0 0 18.86 18.86"
 xmlns:xlink="http://www.w3.org/1999/xlink"
 xmlns:xodm="http://www.corel.com/coreldraw/odm/2003">
 <defs>
  <style type="text/css">
   <![CDATA[
    .fil0 {fill:none}
    .fil1 {fill:#4A70A7}
   ]]>
  </style>
 </defs>
 <g id="Layer_x0020_1">
  <metadata id="CorelCorpID_0Corel-Layer"/>
  <rect class="fil0" width="18.86" height="18.86"/>
  <g id="_1982571188960">
   <g id="_2695128847920">
    <path class="fil1" d="M6.68 4.58c0.03,1.48 0.38,3.63 0.38,5.9 0,0.83 0.11,1.29 -0.56,1.75 -0.73,0.49 -1.3,0.55 -2.04,0.08 -1.31,-0.85 -0.36,-1.98 -0.35,-2.73 -0.56,-0.13 -0.53,-0.33 -1.15,-0.38 -0.36,1.52 -0.38,0.36 -0.38,2.69 0,0.53 0.48,1.23 0.8,1.5 1.57,1.35 4.96,0.75 4.96,-2.14l-0.13 -7.05c-0.35,0.03 -1.28,0.26 -1.53,0.38l0 0z"/>
    <path class="fil1" d="M8.6 4.58c0.2,0.88 0.26,2.75 0.26,3.85 -0.01,2.9 0.24,2.82 3.07,2.82 1.15,0 1.92,-0.8 1.92,-1.92 0,-0.89 -0.48,-1.75 -0.64,-2.44 -0.44,0.1 -1.02,0.44 -1.41,0.64 0.32,0.61 0.6,1.17 0.77,1.92 -0.51,0.35 -2.43,0.93 -2.43,-0.38l0 -3.85c-0.03,-0.57 -0.12,-0.46 -0.13,-1.02 -0.47,0.11 -0.91,0.27 -1.41,0.38z"/>
    <path class="fil1" d="M14.62 8.56c0.12,1.41 1.54,1.82 -0.35,3.62 -0.52,0.5 -1,0.73 -1.57,1.12 0.14,0.52 0.48,0.55 0.64,1.15 0.98,-0.08 2.38,-1.55 2.78,-2.34 0.65,-1.29 0.35,-2.88 -0.22,-4.07 -0.43,0.24 -0.73,0.39 -1.28,0.52l0 0z"/>
    <path class="fil1" d="M9.52 12.43l0.84 0.9 0.78 -0.7c0.44,0.31 0.42,0.53 0.92,0.67l0.8 -0.74 -0.9 -0.96 -0.77 0.7 -0.77 -0.69 -0.9 0.82 0 0z"/>
   </g>
  </g>
 </g>
</svg>
