<?xml version="1.0" encoding="iso-8859-1"?>
<!-- Generator: Adobe Illustrator 19.0.0, SVG Export Plug-In . SVG Version: 6.00 Build 0)  -->
<svg version="1.1" id="Capa_1" xmlns="http://www.w3.org/2000/svg" xmlns:xlink="http://www.w3.org/1999/xlink" x="0px" y="0px"
	 viewBox="0 0 496 496" style="enable-background:new 0 0 496 496;" xml:space="preserve">
<polygon style="fill:#656D78;" points="80,456.02 80,472.02 0,472.02 0,256.02 80,256.02 80,272.02 "/>
<path style="fill:#EAC6BB;" d="M304,328.02l154.56-23.512c1.76-0.32,3.592-0.488,5.44-0.488c17.68,0,32,14.32,32,32
	c0,11.84-6.4,22.168-16,27.688L264,480.02l-184-24v-184h72l125.52,24.488C292.56,299.068,304,312.18,304,328.02z"/>
<path style="fill:#D3B1A9;" d="M479.712,308.3c-1.336,10.016-7.288,18.56-15.712,23.408L253.672,440.876L80,417.38v38.64l184,24
	l216-116.312c9.6-5.52,16-15.84,16-27.688C496,324.084,489.4,313.804,479.712,308.3z"/>
<path style="fill:#FFCE54;" d="M40.232,456.02c-4.416,0-8.032-3.576-8.032-8s3.536-8,7.952-8h0.08c4.424,0,8,3.576,8,8
	S44.656,456.02,40.232,456.02z"/>
<path style="fill:#D3B1A9;" d="M319.792,325.62L304,328.02c0,17.672-14.328,32-32,32c-0.904,0-1.808-0.072-2.696-0.144
	c-0.016-0.008-0.024-0.016-0.04-0.016l-100.64-7.824c-4.376-0.28-8.248,2.96-8.6,7.36c-0.336,4.408,2.952,8.248,7.352,8.592
	l99.88,7.76v0.032c1.576,0.16,3.168,0.232,4.744,0.232c26.472,0,48-21.528,48-48C320,327.196,319.832,326.428,319.792,325.62z"/>
<path style="fill:#EDAB37;" d="M301.28,116.74L384,200.02v56h-56l-16-16v-16h-16v-16h-16l-34.88-34.88
	c12.96-3.52,25.28-10.4,35.448-20.56C290.88,142.252,297.76,129.852,301.28,116.74z"/>
<path style="fill:#E29F33;" d="M301.28,116.74c-2.088,7.768-5.504,15.216-9.952,22.192L352,200.02v56h32v-56L301.28,116.74z"/>
<path style="fill:#FFCE54;" d="M280.56,39.38c-31.2-31.2-81.92-31.2-113.128,0c-31.192,31.272-31.192,81.912,0,113.192
	c21.04,21.04,50.88,27.84,77.68,20.56c12.96-3.52,25.28-10.4,35.448-20.56c10.32-10.32,17.192-22.72,20.72-35.832
	C308.48,90.1,301.52,60.34,280.56,39.38z M200.24,79.98c-4.424,0-8.04-3.576-8.04-8s3.536-8,7.952-8h0.088c4.416,0,8,3.576,8,8
	S204.656,79.98,200.24,79.98z"/>
<path style="fill:#F6BB42;" d="M280.56,39.38C260.872,19.692,233.424,12.46,208,17.612c14.864,3.016,29.048,10.248,40.56,21.768
	c20.96,20.96,27.912,50.72,20.72,77.36c-3.52,13.12-10.4,25.512-20.72,35.832c-10.168,10.168-22.488,17.04-35.448,20.56
	c-1.704,0.464-3.448,0.704-5.168,1.056c12.288,2.504,25.032,2.24,37.168-1.056c12.96-3.52,25.28-10.4,35.448-20.56
	c10.32-10.32,17.192-22.72,20.72-35.832C308.48,90.1,301.52,60.34,280.56,39.38z"/>
<g>
</g>
<g>
</g>
<g>
</g>
<g>
</g>
<g>
</g>
<g>
</g>
<g>
</g>
<g>
</g>
<g>
</g>
<g>
</g>
<g>
</g>
<g>
</g>
<g>
</g>
<g>
</g>
<g>
</g>
</svg>
