<svg id="Flat" height="512" viewBox="0 0 512 512" width="512" xmlns="http://www.w3.org/2000/svg">
    <path d="m376 192h-240a8 8 0 0 1 -8-8v-32a128 128 0 0 1 256 0v32a8 8 0 0 1 -8 8zm-232-16h224v-24a112 112 0 0 0 -224 0z"
          fill="#3397e8"/>
    <path d="m256 56a96 96 0 0 0 -96 96v160h192v-160a96 96 0 0 0 -96-96z" fill="#ad6643"/>
    <path d="m376 328a32 32 0 0 0 -32-32h-176a32 32 0 0 0 -32 32v64h48v96h144v-96h48z" fill="#3397e8"/>
    <path d="m136 392h48v96h-48z" fill="#f7cca9"/>
    <path d="m328 392h48v96h-48z" fill="#f7cca9"/>
    <path d="m208 296h48v48h-48z" fill="#2978b8"/>
    <path d="m256 296h48v48h-48z" fill="#2978b8"/>
    <path d="m232 248h48a0 0 0 0 1 0 0v48a16 16 0 0 1 -16 16h-16a16 16 0 0 1 -16-16v-48a0 0 0 0 1 0 0z" fill="#edc4a2"/>
    <path d="m288 120-96 32v48a64 64 0 0 0 64 64 64 64 0 0 0 64-64v-48z" fill="#f7cca9"/>
    <circle cx="224" cy="184" fill="#4f5659" r="8"/>
    <circle cx="288" cy="184" fill="#4f5659" r="8"/>
    <path d="m248 312h16v176h-16z" fill="#1261a0"/>
    <path d="m160 216h16v-64h-16a32 32 0 0 0 -32 32 32 32 0 0 0 32 32z" fill="#1261a0"/>
    <path d="m160 152h16a16 16 0 0 1 16 16v32a16 16 0 0 1 -16 16h-16a0 0 0 0 1 0 0v-64a0 0 0 0 1 0 0z" fill="#6a7073"/>
    <path d="m344 256h-48a8 8 0 0 1 0-16h48a24.027 24.027 0 0 0 24-24v-32a8 8 0 0 1 16 0v32a40.045 40.045 0 0 1 -40 40z"
          fill="#3397e8"/>
    <path d="m352 216h-16v-64h16a32 32 0 0 1 32 32 32 32 0 0 1 -32 32z" fill="#1261a0"/>
    <g fill="#6a7073">
        <path d="m320 152h16a16 16 0 0 1 16 16v32a16 16 0 0 1 -16 16h-16a0 0 0 0 1 0 0v-64a0 0 0 0 1 0 0z"
              transform="matrix(-1 0 0 -1 672 368)"/>
        <circle cx="288" cy="248" r="16"/>
    </g>
</svg>