<?xml version="1.0" encoding="UTF-8" standalone="no"?>
<!-- Created with Inkscape (http://www.inkscape.org/) -->

<svg
   version="1.1"
   id="svg2388"
   xml:space="preserve"
   width="682.66669"
   height="682.66669"
   viewBox="0 0 682.66669 682.66669"
   xmlns="http://www.w3.org/2000/svg"
   xmlns:svg="http://www.w3.org/2000/svg"><defs
     id="defs2392"><clipPath
       clipPathUnits="userSpaceOnUse"
       id="clipPath2402"><path
         d="M 0,512 H 512 V 0 H 0 Z"
         id="path2400" /></clipPath><clipPath
       clipPathUnits="userSpaceOnUse"
       id="clipPath2422"><path
         d="M 0,512 H 512 V 0 H 0 Z"
         id="path2420" /></clipPath></defs><g
     id="g2394"
     transform="matrix(1.3333333,0,0,-1.3333333,0,682.66667)"><g
       id="g2396"><g
         id="g2398"
         clip-path="url(#clipPath2402)"><g
           id="g2404"
           transform="translate(326.5996,468.8501)"><path
             d="m 0,0 54.851,24.62 44.91,-96.26"
             style="fill:none;stroke:#000000;stroke-width:15;stroke-linecap:round;stroke-linejoin:round;stroke-miterlimit:10;stroke-dasharray:none;stroke-opacity:1"
             id="path2406" /></g><g
           id="g2408"
           transform="translate(181.1104,433.3101)"><path
             d="M 0,0 134,60.16 178.909,-36.1"
             style="fill:none;stroke:#000000;stroke-width:15;stroke-linecap:round;stroke-linejoin:round;stroke-miterlimit:10;stroke-dasharray:none;stroke-opacity:1"
             id="path2410" /></g></g></g><g
       id="g2412"
       transform="translate(153.7695,421.04)"><path
         d="M 0,0 -53.079,-23.83"
         style="fill:none;stroke:#000000;stroke-width:15;stroke-linecap:round;stroke-linejoin:round;stroke-miterlimit:10;stroke-dasharray:none;stroke-opacity:1"
         id="path2414" /></g><g
       id="g2416"><g
         id="g2418"
         clip-path="url(#clipPath2422)"><g
           id="g2424"
           transform="translate(368.9805,18.5298)"><path
             d="m 0,0 h -315.931 c -25.16,0 -45.549,20.4 -45.549,45.55 v 287.58 c 0,25.16 20.389,45.55 45.549,45.55 h 380.51 c 25.15,0 45.54,-20.39 45.54,-45.55 v -72.36"
             style="fill:none;stroke:#000000;stroke-width:15;stroke-linecap:round;stroke-linejoin:round;stroke-miterlimit:10;stroke-dasharray:none;stroke-opacity:1"
             id="path2426" /></g><g
           id="g2428"
           transform="translate(479.0996,136.4399)"><path
             d="m 0,0 v -72.36 c 0,-25.15 -20.39,-45.55 -45.54,-45.55 h -34.579"
             style="fill:none;stroke:#000000;stroke-width:15;stroke-linecap:round;stroke-linejoin:round;stroke-miterlimit:10;stroke-dasharray:none;stroke-opacity:1"
             id="path2430" /></g><g
           id="g2432"
           transform="translate(338.1143,136.4238)"><path
             d="m 0,0 h 139.981 c 14.583,0 26.405,11.822 26.405,26.404 v 90.09 c 0,14.582 -11.822,26.404 -26.405,26.404 H 0 c -14.582,0 -26.404,-11.822 -26.404,-26.404 V 26.404 C -26.404,11.822 -14.582,0 0,0 Z"
             style="fill:none;stroke:#000000;stroke-width:15;stroke-linecap:round;stroke-linejoin:round;stroke-miterlimit:10;stroke-dasharray:none;stroke-opacity:1"
             id="path2434" /></g><g
           id="g2436"
           transform="translate(428.2412,207.873)"><path
             d="M 0,0 C 0,19.597 -15.886,35.483 -35.483,35.483 -55.08,35.483 -70.967,19.597 -70.967,0 c 0,-19.597 15.887,-35.483 35.484,-35.483 C -15.886,-35.483 0,-19.597 0,0 Z"
             style="fill:none;stroke:#000000;stroke-width:15;stroke-linecap:round;stroke-linejoin:round;stroke-miterlimit:10;stroke-dasharray:none;stroke-opacity:1"
             id="path2438" /></g></g></g></g></svg>
