<svg id="Layer_1" enable-background="new 0 0 465.586 465.586" height="512" viewBox="0 0 465.586 465.586" width="512" xmlns="http://www.w3.org/2000/svg"><g><path d="m382.899 217.039c-77.684 117.126-335.423 109.463-245.088 13.565 56.491-33.23 130.397-69.811 197.202-81.208 21.943-3.741 37.487-9.294 45.728 27.6 2.212 9.895 3.312 22.92 2.158 40.043z" fill="#3e3e7a"/><path d="m341.194 193.218c-19.592 49.2-85.405 60.435-130.588 63.877-32.632-35.78 55.819-102.99 68.248-105.836 12.428-2.846 71.62 23.761 62.34 41.959z" fill="#88ffc3"/><path d="m363.492 175.136c-1.694 16.224-8.301 24.525-22.298 18.081-4.106-4.652-9.848-11.32-15.498-18.434-10.296 9.58-35.384 26.9-71.222 12.06-21.612 19.551-41.998 44.518-43.868 70.251-12.966 21.154-41.911 23.458-50.551-5.951-1.219-6.27 1.265-15.3 7.949-27.369 32.788-59.203 150.886-143.675 150.886-143.675s22.135 67.85 44.602 95.037z" fill="#00d2a9"/><path d="m396.34 231.923-201.93 123.682c-.385-2.777-31.055-67.545-34.355-104.461 8.942 34.711 152.249-27.613 203.437-76.007 11.162-10.551 24.406-31.59 27.221-39.88 10.115 11.242 10.03 55.088 5.627 96.666z" fill="#00e9b1"/><path d="m403.677 411.072c-22.046 9.555-52.238 21.048-84.177 31.11-28.921 9.112-59.27 17.055-86.278 21.334-43.14 6.832-78.533-3.756-90.814-24.305-17.747-29.701-27.578-71.83-31.065-109.578-6.993-75.84 6.931-87.504 26.468-99.029-6.3 8.16-10.58 17.352-10.482 27.217.527 51.317 207.673-18.11 255.57-40.782 26.009-12.324 40.372-18.943 49.208 13.998 18.437 13.21 9.365 72.914 11.29 96.822 4.825 53.467 5.528 63.593-39.72 83.213z" fill="#51518e"/><path d="m443.397 327.859c-19.133 11.666-47.797 15.648-75.727 2.772 16.997-14.311 18.013-35.427 40.854-50.315 27.534-17.946 30.881-22.278 23.583-49.279 36.686 16.769 44.772 76.406 11.29 96.822z" fill="#3e3e7a"/><ellipse cx="420.295" cy="309.533" fill="#f0e3e7" rx="18.618" ry="13.567" transform="matrix(.89 -.457 .457 .89 -94.961 226.05)"/><path d="m238.18 184.023c-5.52 7.62-12.71 13.8-21.39 17.87-31.62 14.82-70.96-4.03-87.86-42.09s-4.97-80.93 26.64-95.75c7.18-3.36 14.76-5 22.39-5.05 15.079 55.471 18.43 82.35 60.22 125.02z" fill="#f6c719"/><path d="m238.18 184.023c-30.56 32.4-74.55 6.18-91.51-30.44-16.18-34.92-5.39-86.65 31.29-94.58 25.95-.22 52.41 17.72 65.47 47.13 12.26 27.62 9.35 57.76-5.25 77.89z" fill="#f6d14f"/><ellipse cx="200.888" cy="128.692" fill="#f6c719" rx="35.999" ry="51.786" transform="matrix(.922 -.388 .388 .922 -34.211 88.121)"/><path d="m190.332 98.386c1.545 3.084 7.446 19.407-4.487 32.393 21.239 4.753 30.888 20.367 32.543 23.399-1.52-3.034-9.318-21.207 2.616-34.192-21.209-4.693-28.989-18.513-30.672-21.6z" fill="#51518e"/><g><path d="m170.749 36.806c-.853 0-1.643-.55-1.909-1.407-3.564-11.48-8.907-22.33-15.879-32.248-.636-.904-.418-2.151.485-2.786s2.152-.417 2.786.486c7.212 10.26 12.739 21.484 16.428 33.363.327 1.055-.262 2.176-1.317 2.503-.197.06-.397.089-.594.089z" fill="#f6c719"/></g><g><path d="m129.332 59.351c-.565 0-1.127-.238-1.522-.702-39.206-45.942-109.419-53.21-124.699-52.55-1.097.055-2.038-.807-2.085-1.911-.048-1.104.807-2.037 1.911-2.085 24.76-1.072 91.285 11.025 127.916 53.95.717.84.617 2.103-.224 2.82-.376.321-.838.478-1.297.478z" fill="#f6c719"/></g><g><path d="m109.51 99.686c-.307 0-.618-.071-.91-.221-18.239-9.347-49.832-14.629-83.805-1.419-1.032.401-2.188-.111-2.589-1.139-.4-1.03.11-2.188 1.14-2.589 35.204-13.691 68.064-8.157 87.078 1.587.983.504 1.371 1.709.868 2.692-.354.692-1.056 1.089-1.782 1.089z" fill="#f6c719"/></g></g></svg>