

<svg id="Layer_1" enable-background="new 0 0 52 52" height="512" viewBox="0 0 52 52" width="512" xmlns="http://www.w3.org/2000/svg"><g><circle cx="25.996" cy="13.84" fill="#fff" r="9.999"/><g opacity=".05"><path d="m33.28249 20.69118c-3.78435 4.02273-10.10818 4.21532-14.13203.43991-.62984-.58976-1.16986-1.25068-1.60526-1.9539.09597.11084.19297.21272.29996.30673 4.0238 3.77535 10.35664 3.58386 14.13198-.43997 3.19459-3.39285 3.5521-8.43802 1.1674-12.1959 3.73024 3.80484 3.82933 9.91843.13795 13.84313z"/></g><g><g><g><g><path d="m25.99644 15.95643c-2.06689 0-3.97852.75781-5.4425 2.03235-.8717.75885-1.57947 1.70105-2.07544 2.76929 1.65137.80469 3.38525 1.33057 5.10376 1.97247.6012.22455 1.19714.44562 1.79456.65704.09644-.03937.20166-.06842.32544-.07141 1.35449-.03271 2.78052-.04669 4.08301-.46198 1.20752-.38501 2.85242-1.34229 3.49414-2.57635-1.41871-2.59912-4.17225-4.32141-7.28297-4.32141z" fill="#44c7f4"/></g><g opacity=".05"><path d="m31.12071 22.26606c.88428-.48663 1.73413-1.17383 2.15723-1.98541-1.41785-2.60199-4.17273-4.32684-7.28552-4.32684-.49084 0-.98181.04309-1.44678.12921 3.20495.56323 5.78723 2.98547 6.57507 6.18304z"/></g></g><circle cx="25.997" cy="12.088" fill="#44c7f4" r="3.87"/><g opacity=".05"><path d="m29.86761 12.08729c0 2.13563-1.73092 3.86655-3.87517 3.86655-1.20574 0-2.29069-.55115-2.99678-1.42949.47357.21529.99886.32724 1.55001.32724 2.13563 0 3.86655-1.73092 3.86655-3.86655 0-.93006-.32724-1.77402-.86977-2.43707 1.36919.59421 2.32516 1.95479 2.32516 3.53932z"/></g></g></g><g><circle cx="25.996" cy="13.84" fill="none" r="9.998"/></g><circle cx="11.992" cy="38.16" fill="#fff" r="9.999"/><g opacity=".05"><path d="m19.2777 45.0107c-3.78435 4.02274-10.10818 4.21532-14.13203.43991-.62983-.58976-1.16985-1.25068-1.60526-1.9539.09597.11084.19297.21272.29996.30673 4.0238 3.77535 10.35664 3.58387 14.13198-.43996 3.19459-3.39285 3.5521-8.43802 1.1674-12.1959 3.73024 3.80483 3.82932 9.91842.13795 13.84312z"/></g><g><g><g><g><path d="m8.50767 46.6526c1.02563.43335 2.07544.76312 3.14404 1.03687 2.8147-.30859 5.31055-1.26166 7.48267-3.32727-1.4541-2.46533-4.12817-4.08624-7.1427-4.08624-2.06689 0-3.97864.75781-5.44251 2.03235-.7179.625-1.32617 1.37354-1.79626 2.21448 1.26502.68407 2.41516 1.56377 3.75476 2.12981z" fill="#ef5a76"/></g><g opacity=".05"><path d="m16.97154 46.01093c.75293-.4455 1.4729-.99292 2.16113-1.64728-1.45337-2.46759-4.12891-4.09033-7.14502-4.09033-.49097 0-.98181.04309-1.44678.12921 3.01221.52936 5.48902 2.69556 6.43067 5.6084z"/></g></g><circle cx="11.992" cy="36.408" fill="#ef5a76" r="3.87"/><g opacity=".05"><path d="m15.86281 36.40681c0 2.13563-1.73092 3.86655-3.87517 3.86655-1.20574 0-2.29069-.55115-2.99678-1.42949.47357.21529.99886.32724 1.55001.32724 2.13563 0 3.86655-1.73092 3.86655-3.86655 0-.93006-.32724-1.77402-.86977-2.43707 1.3692.59421 2.32516 1.95478 2.32516 3.53932z"/></g></g></g><g><circle cx="11.992" cy="38.16" fill="none" r="9.998"/></g><circle cx="40.001" cy="38.16" fill="#fff" r="9.999"/><g opacity=".05"><path d="m47.28729 45.0107c-3.78435 4.02274-10.10818 4.21532-14.13203.43991-.62983-.58976-1.16985-1.25068-1.60526-1.9539.09597.11084.19297.21272.29996.30673 4.02381 3.77535 10.35663 3.58387 14.13198-.43996 3.19459-3.39285 3.55209-8.43802 1.16739-12.1959 3.73025 3.80483 3.82933 9.91842.13796 13.84312z"/></g><g><g><g><g><path d="m38.73228 47.37739c3.52563.10046 5.8396-.59412 8.33154-3.14648-1.47095-2.39093-4.10217-3.95496-7.0625-3.95496-2.06689 0-3.97876.75781-5.44263 2.03235-.90564.78845-1.63867 1.77222-2.13623 2.89258 2.01685 1.01788 3.82325 2.10571 6.30982 2.17651z" fill="#70c392"/></g><g opacity=".05"><path d="m44.96128 45.96119c.70605-.44757 1.39771-1.00879 2.10095-1.72882-1.47034-2.39325-4.10291-3.95905-7.06506-3.95905-.49084 0-.98169.04309-1.44678.12921 2.99463.52625 5.45655 2.67164 6.41089 5.55866z"/></g></g><circle cx="40.001" cy="36.408" fill="#70c392" r="3.87"/><g opacity=".05"><path d="m43.87241 36.40681c0 2.13563-1.73092 3.86655-3.87517 3.86655-1.20573 0-2.29069-.55115-2.99678-1.42949.47357.21529.99886.32724 1.55001.32724 2.13564 0 3.86655-1.73092 3.86655-3.86655 0-.93006-.32724-1.77402-.86977-2.43707 1.36919.59421 2.32516 1.95478 2.32516 3.53932z"/></g></g></g><g><circle cx="40.001" cy="38.16" fill="none" r="9.998"/></g><path d="m43.11717 27.61012c-.63562-4.52203-3.00684-8.48907-6.4397-11.19067 1.67676-6.99609-3.62477-13.57813-10.67859-13.57813-6.12191 0-11.19274 5.05012-10.99609 11.34082.02368.7644.1283 1.51324.30225 2.24017-3.43164 2.70435-5.79883 6.67664-6.43005 11.20148-8.16521 2.4237-10.56509 12.77127-4.41517 18.55151 2.04688 1.92383 4.7207 2.9834 7.5293 2.9834 2.83765 0 5.57471-1.12286 7.61291-3.07947 1.9801.79608 4.13306 1.24841 6.3949 1.24841 2.25903 0 4.41064-.44733 6.38794-1.24036 2.13538 2.04749 4.84546 3.07141 7.61401 3.07141 6.12183 0 11.19067-5.05005 10.99609-11.34082-.15478-4.95086-3.51586-8.92223-7.8778-10.20775zm-17.11829-22.7688c7.25493 0 11.56028 8.21673 7.33887 14.18659-1.1062-1.5451-2.67334-2.71973-4.48828-3.33374 1.06824-.84705 1.76758-2.14032 1.76758-3.60626 0-2.54736-2.07227-4.62012-4.62012-4.62012s-4.62012 2.07275-4.62012 4.62012c0 1.45844.69263 2.74554 1.75146 3.5929-2.01331.67206-3.39331 1.81415-4.48047 3.35681-1.01538-1.42963-1.59058-3.12512-1.646-4.91748-.15838-5.06143 3.88901-9.27882 8.99708-9.27882zm-.01196 11.86566c.00342 0 .00659.00104.01001.00104.00293 0 .00562-.00085.00854-.00085 2.62769.00305 4.97864 1.396 6.33215 3.50452-1.69604 1.69147-3.93323 2.62769-6.34363 2.62769-2.29736 0-4.56641-.86249-6.33789-2.62512 1.49915-2.36208 3.89478-3.50405 6.33082-3.50728zm-3.11011-4.61908c0-1.72021 1.39941-3.12012 3.12012-3.12012s3.12012 1.3999 3.12012 3.12012c0 1.71722-1.39478 3.11438-3.11133 3.11926-.00293 0-.00586-.00061-.00879-.00061-.00342 0-.00659.00043-.01001.00043-1.71607-.00562-3.11011-1.40229-3.11011-3.11908zm-10.88379 17.07275c4.77434 0 8.84043 3.77587 8.99316 8.71973.06189 1.97797-.52295 3.87256-1.64722 5.4599-1.10669-1.54199-2.67578-2.71637-4.49097-3.32904 1.06616-.84705 1.76416-2.13892 1.76416-3.60352 0-2.54785-2.07226-4.62012-4.62012-4.62012s-4.62012 2.07227-4.62012 4.62012c0 1.4585.69238 2.74536 1.7511 3.59271-2.02021.67461-3.41401 1.83582-4.48169 3.35236-4.19616-5.93779.05163-14.19214 7.3517-14.19214zm.01087 10.36597c-.00403 0-.00781-.00073-.01184-.00073-.00439 0-.00891.00061-.01343.00061-1.71436-.00745-3.10669-1.40265-3.10669-3.11877 0-1.7207 1.39941-3.12012 3.12012-3.12012s3.12012 1.39941 3.12012 3.12012c-.00001 1.71661-1.39307 3.1123-3.10828 3.11889zm-6.36731 4.99152c1.43648-2.25927 3.84665-3.4872 6.34204-3.49164.00464 0 .00879.00134.01343.00134.00391 0 .00757-.00116.01147-.00116 2.62622.00409 4.97681 1.39587 6.32996 3.50317-1.69617 1.69189-3.93359 2.62885-6.34436 2.62885-2.31864 0-4.58813-.87616-6.35254-2.64056zm20.36035.8095c-1.75623 0-3.43579-.3139-5.00696-.86249 1.36218-1.93457 2.07043-4.24042 1.99524-6.64728-.18627-6.0228-5.13364-10.65723-10.99219-10.65723-.34705 0-.69214.021-1.0354.05377.64978-3.47717 2.46948-6.54395 5.04712-8.77069 1.73022 3.75439 5.54028 6.39563 9.98926 6.39563 4.13135 0 8.11768-2.35242 9.97876-6.38623 2.57678 2.22437 4.38916 5.28473 5.04358 8.75531-.33533-.03076-.67334-.04779-1.01355-.04779-8.94922 0-14.06274 10.09985-9.00964 17.30957-1.56727.54768-3.24415.85743-4.99622.85743zm14.00195 1.83106c-2.27441 0-4.5481-.8465-6.33179-2.61902.38611-.61108.83142-1.1853 1.38354-1.66614 1.36597-1.1886 3.1189-1.84406 4.9375-1.84711.00464 0 .00903.0014.01367.0014.00378 0 .0072-.0011.01099-.0011 2.62695.00433 4.97705 1.39594 6.33008 3.50336-1.69604 1.69184-3.93334 2.62861-6.34399 2.62861zm-3.11719-10.75098c0-1.7207 1.39941-3.12012 3.12012-3.12012s3.12012 1.39941 3.12012 3.12012c0 1.71686-1.39343 3.11273-3.10889 3.11896-.00415 0-.00806-.00079-.01221-.00079-.00427 0-.00842.00055-.0127.00055-1.7141-.00757-3.10644-1.40271-3.10644-3.11872zm10.46119 6.94037c-1.10596-1.54523-2.6731-2.71997-4.48828-3.33423 1.06812-.84692 1.76733-2.14008 1.76733-3.60614 0-2.54785-2.07227-4.62012-4.62012-4.62012s-4.62012 2.07227-4.62012 4.62012c0 1.45837.69226 2.74518 1.75073 3.59247-1.1189.3736-2.16431.95697-3.06616 1.74249-.54321.47272-1.01733 1.01025-1.42908 1.59015-4.18066-5.95026.08923-14.17218 7.3656-14.17218 4.79761 0 8.83911 3.79401 8.99316 8.71973.06129 1.9812-.52562 3.87884-1.65306 5.46771z" fill="#293c66"/></g></svg>