<svg height="511pt" viewBox="0 -2 511.97837 511" width="511pt" xmlns="http://www.w3.org/2000/svg"><path d="m360.605469 416.035156c-65.292969 41.808594-149.199219 40.765625-213.429688-2.652344-64.234375-43.417968-96.484375-120.882812-82.035156-197.054687s72.828125-136.449219 148.5-153.324219c4.070313-.851562 6.996094-4.425781 7.023437-8.585937v-45.074219c.015626-2.59375-1.113281-5.058594-3.085937-6.746094-1.972656-1.683594-4.585937-2.414062-7.144531-1.992187-103.042969 18.648437-184.34375 98.167969-205.261719 200.773437-20.917969 102.609375 22.761719 207.609375 110.28125 265.105469 87.519531 57.5 201.230469 55.898437 287.097656-4.039063 2.101563-1.515624 3.429688-3.882812 3.628907-6.464843.199218-2.582031-.75-5.121094-2.589844-6.941407l-31.917969-31.917968c-2.96875-2.929688-7.582031-3.382813-11.066406-1.085938zm0 0" fill="#ff5364"/><path d="m421.34375 366.949219c-2.921875-2.957031-3.390625-7.546875-1.125-11.035157 33.707031-53.375 39.328125-119.816406 15.070312-178.097656-24.253906-58.28125-75.355468-101.113281-136.980468-114.816406-4.066406-.851562-6.992188-4.429688-7.023438-8.585938v-45.0625c-.011718-2.59375 1.117188-5.0625 3.089844-6.746093 1.976562-1.683594 4.589844-2.414063 7.148438-1.992188 85.566406 15.488281 157.421874 73.339844 190.816406 153.625 33.394531 80.28125 23.765625 172.027344-25.570313 243.628907-1.507812 2.117187-3.875 3.460937-6.464843 3.667968-2.589844.207032-5.140626-.738281-6.964844-2.585937zm0 0" fill="#f0c419"/></svg>