<?xml version="1.0" encoding="iso-8859-1"?>


<svg xmlns:xlink="http://www.w3.org/1999/xlink" version="1.1" id="Capa_1" xmlns="http://www.w3.org/2000/svg" x="0px"
     y="0px"
     viewBox="0 0 511.997 511.997" style="enable-background:new 0 0 511.997 511.997;" xml:space="preserve">
<path style="fill:#FFD15C;" d="M511.595,360.814L473.771,82.905c-3.232-23.68-24.939-42.891-48.501-42.891H91.456
	c-23.563,0-40.043,19.211-36.832,42.891l37.835,277.909c3.232,23.669,24.949,42.88,48.512,42.88h333.803
	C498.325,403.694,514.816,384.484,511.595,360.814"/>
    <g>
	<polygon style="fill:#415A6B;" points="300.448,40.014 216.256,40.014 229.6,138.052 313.803,138.052 	"/>
        <path style="fill:#415A6B;" d="M254.987,403.694c0,37.707-30.581,68.288-68.299,68.288c-37.728,0-68.309-30.581-68.309-68.288
		s30.581-68.288,68.309-68.288C224.405,335.396,254.987,365.988,254.987,403.694"/>
</g>
    <path style="fill:#CED6E0;" d="M216.267,403.694c0,16.331-13.248,29.579-29.579,29.579c-16.341,0-29.579-13.248-29.579-29.579
	c0-16.331,13.237-29.579,29.579-29.579C203.019,374.105,216.267,387.353,216.267,403.694"/>
    <path style="fill:#415A6B;" d="M487.829,403.694c0,37.707-30.581,68.288-68.288,68.288c-37.728,0-68.309-30.581-68.309-68.288
	s30.581-68.288,68.309-68.288C457.248,335.396,487.829,365.988,487.829,403.694"/>
    <path style="fill:#CED6E0;" d="M449.12,403.694c0,16.331-13.248,29.579-29.589,29.579s-29.589-13.248-29.589-29.579
	c0-16.331,13.248-29.579,29.589-29.579S449.12,387.353,449.12,403.694"/>
    <g>
	<path style="fill:#F3705A;" d="M130.123,152.665H13.227C5.92,152.665,0,146.745,0,139.449c0-7.296,5.92-13.227,13.216-13.227
		h116.896c7.317,0,13.227,5.931,13.227,13.227C143.339,146.745,137.429,152.665,130.123,152.665"/>
        <path style="fill:#F3705A;" d="M168.437,217.369H51.531c-7.307,0-13.216-5.931-13.216-13.216c0-7.307,5.92-13.227,13.216-13.227
		h116.907c7.317,0,13.227,5.931,13.227,13.227S175.744,217.369,168.437,217.369"/>
        <path style="fill:#F3705A;" d="M92.619,282.062H13.227C5.92,282.062,0,276.142,0,268.857c0-7.307,5.931-13.227,13.227-13.227
		h79.392c7.317,0,13.227,5.92,13.227,13.227C105.845,276.153,99.936,282.062,92.619,282.062"/>
</g>
    <g>
</g>
    <g>
</g>
    <g>
</g>
    <g>
</g>
    <g>
</g>
    <g>
</g>
    <g>
</g>
    <g>
</g>
    <g>
</g>
    <g>
</g>
    <g>
</g>
    <g>
</g>
    <g>
</g>
    <g>
</g>
    <g>
</g>
</svg>
