<svg id="Layer_1_1_" enable-background="new 0 0 64 64" height="512" viewBox="0 0 64 64" width="512" xmlns="http://www.w3.org/2000/svg"><path d="m8.961 15.46h34v32h-34z" fill="#90622a" transform="matrix(.983 -.182 .182 .983 -5.294 5.252)"/><path d="m12.743 9.5-6.41 9.323 12.782-2.367 20.649-3.823 6.41-9.323z" fill="#875c27"/><path d="m46.174 3.31-6.41 9.323 5.826 31.465 6.41-9.323z" fill="#7a5324"/><path d="m20.232 15.619h8v13h-8z" fill="#fca947" transform="matrix(.983 -.182 .182 .983 -3.622 4.781)"/><path d="m26.982 14.999-7.867 1.457 6.41-9.323 7.867-1.456z" fill="#fca947"/><g fill="#7a5324"><path d="m32.674 31.609 1.824.332c-.757-.603-1.169-1.589-.965-2.605.266-1.331 1.488-2.25 2.84-2.137l9.627.801-3.828-5.359c-.676-.947-.569-2.244.254-3.066.231-.231.499-.402.784-.518l-.534-.468c-.943-.825-2.364-.778-3.25.108-.823.823-.93 2.119-.254 3.066l3.828 5.36-9.627-.802c-1.352-.113-2.574.807-2.84 2.137-.293 1.464.672 2.884 2.141 3.151z"/><path d="m37.536 43.848 6.464-4.848-6.023 1.39-3.441 2.58c-.89.667-1.175 1.875-.678 2.87.07.139.152.267.244.384l2.523-.467c-.021-.728.296-1.448.911-1.909z"/><path d="m30.489 39.446c-.271-1.356.597-2.679 1.95-2.969l11.561-2.477-3.838-.698-10.723 2.298c-1.353.29-2.221 1.612-1.95 2.969.28 1.398 1.659 2.289 3.049 1.968l.398-.092c-.213-.289-.372-.623-.447-.999z"/><path d="m18 40 9.627-.802c1.14-.095 2.181.548 2.641 1.549.744-.643 1.14-1.649.933-2.684-.282-1.408-1.574-2.38-3.004-2.261l-7.652.638z"/><path d="m21.574 31.574c.013.013.022.028.034.041l.453-.635c.715-1.001.602-2.373-.268-3.243-.937-.937-2.44-.987-3.438-.115l-6.69 5.854-2.83-1.132.678 3.661 2.487.995 6.324-5.534c.943-.825 2.364-.778 3.25.108z"/><path d="m32.357 45.617-4.706-1.008-7.651 1.391 7.1 1.521 6.546-1.212c-.347-.334-.783-.584-1.289-.692z"/></g><path d="m9 9h-2c0-3.859 3.14-7 7-7h1v2h-1c-2.757 0-5 2.243-5 5z" fill="#fca947"/><path d="m52 62h-1v-2h1c2.757 0 5-2.243 5-5h2c0 3.859-3.14 7-7 7z" fill="#fca947"/><path d="m49 59h-1v-2h1c2.757 0 5-2.243 5-5h2c0 3.859-3.14 7-7 7z" fill="#fca947"/><path d="m2 33 10 4 6.324-5.534c.943-.825 2.364-.778 3.25.108.823.823.93 2.119.254 3.066l-3.828 5.36 9.627-.802c1.352-.113 2.574.807 2.84 2.137.293 1.464-.672 2.884-2.141 3.151l-8.326 1.514 11.561 2.477c1.353.29 2.221 1.612 1.95 2.969-.28 1.398-1.659 2.289-3.049 1.968l-10.462-2.414 6.464 4.848c.89.667 1.175 1.875.678 2.87-.61 1.221-2.143 1.645-3.294.912l-8.848-5.63 2 4c.552 1.105.105 2.448-1 3-1.105.552-2.448.105-3-1l-5-10-6-3" fill="#fee6d5"/><path d="m62 21-10 4-6.324-5.534c-.943-.825-2.364-.778-3.25.108-.823.823-.93 2.119-.254 3.066l3.828 5.36-9.627-.802c-1.352-.113-2.574.807-2.84 2.137-.293 1.464.672 2.884 2.141 3.151l8.326 1.514-11.561 2.477c-1.353.29-2.221 1.612-1.95 2.969.28 1.398 1.659 2.289 3.049 1.968l10.462-2.414-6.464 4.848c-.89.667-1.175 1.875-.678 2.87.61 1.221 2.143 1.645 3.294.912l8.848-5.63-1.544 5.405c-.255.892.238 1.827 1.118 2.12.818.273 1.712-.098 2.098-.869l5.328-10.656 6-3" fill="#fee6d5"/></svg>