<svg id="Capa_1" enable-background="new 0 0 512 512" height="512" viewBox="0 0 512 512" width="512" xmlns="http://www.w3.org/2000/svg" xmlns:xlink="http://www.w3.org/1999/xlink"><linearGradient id="lg1"><stop offset="0" stop-color="#ab2c37"/><stop offset="1" stop-color="#ff7a85"/></linearGradient><linearGradient id="SVGID_1_" gradientUnits="userSpaceOnUse" x1="85.595" x2="126.922" xlink:href="#lg1" y1="121.669" y2="50.089"/><linearGradient id="lg2"><stop offset="0" stop-color="#ff4757"/><stop offset="1" stop-color="#ff7a85"/></linearGradient><linearGradient id="SVGID_2_" gradientTransform="matrix(.866 -.5 0 1.155 38.174 121.213)" gradientUnits="userSpaceOnUse" x1="17.045" x2="184.909" xlink:href="#lg2" y1="37.248" y2="37.248"/><linearGradient id="lg3"><stop offset="0" stop-color="#c5baeb"/><stop offset="1" stop-color="#d7d1eb"/></linearGradient><linearGradient id="SVGID_3_" gradientUnits="userSpaceOnUse" x1="110.457" x2="126.805" xlink:href="#lg3" y1="92.257" y2="63.942"/><linearGradient id="SVGID_4_" gradientUnits="userSpaceOnUse" x1="396.2" x2="437.527" xlink:href="#lg1" y1="294.747" y2="223.167"/><linearGradient id="SVGID_5_" gradientTransform="matrix(.866 -.5 0 1.155 38.174 121.213)" gradientUnits="userSpaceOnUse" x1="375.711" x2="543.575" xlink:href="#lg2" y1="342.444" y2="342.444"/><linearGradient id="SVGID_6_" gradientUnits="userSpaceOnUse" x1="421.061" x2="437.409" xlink:href="#lg3" y1="265.335" y2="237.02"/><g><g><g><path d="m101.462 229.301c-2.113 0-4.178-.848-5.666-2.337-1.49-1.505-2.337-3.569-2.337-5.666 0-2.113.847-4.161 2.337-5.65 1.488-1.489 3.553-2.353 5.666-2.353 2.096 0 4.161.864 5.649 2.353 1.49 1.488 2.354 3.553 2.354 5.65s-.864 4.162-2.354 5.666c-1.488 1.489-3.553 2.337-5.649 2.337z" fill="#7662bd"/></g><g><path d="m183.621 512c-4.419-.032-7.987-3.633-7.956-8.051.016-4.418 3.617-7.987 8.051-7.955 4.417.016 7.97 3.617 7.954 8.051-.031 4.402-3.601 7.955-8.003 7.955-.015 0-.03 0-.046 0zm24.12-9.748c-.975-4.305 1.713-8.595 6.018-9.588 4.306-.992 8.596 1.697 9.588 6.018.993 4.305-1.696 8.595-6.002 9.588-.608.128-1.216.208-1.809.208-3.649.001-6.93-2.512-7.795-6.226zm-57.796 5.666c-4.291-1.04-6.931-5.362-5.907-9.668 1.041-4.289 5.361-6.93 9.668-5.906 4.289 1.04 6.931 5.362 5.89 9.668-.88 3.665-4.161 6.13-7.762 6.13-.625.001-1.25-.079-1.889-.224zm88.641-14.661c-1.937-3.969-.305-8.755 3.648-10.708h.017c3.953-1.953 8.755-.32 10.707 3.649 1.952 3.97.305 8.756-3.65 10.708-1.136.56-2.337.832-3.537.832-2.945.001-5.793-1.648-7.185-4.481zm-120.479 2.961c-3.953-2.001-5.522-6.803-3.537-10.756 2.001-3.937 6.802-5.522 10.756-3.537 3.937 2.001 5.522 6.803 3.537 10.756-1.408 2.785-4.225 4.402-7.154 4.402-1.216-.001-2.45-.289-3.602-.865zm148.713-18.311c-2.224-3.825-.913-8.723 2.914-10.948 3.825-2.209 8.706-.912 10.932 2.913 2.224 3.826.911 8.723-2.914 10.948-1.265.72-2.642 1.072-4.002 1.072-2.769.001-5.442-1.424-6.93-3.985zm-176.21-4.786c-2.401-3.714-1.329-8.659 2.385-11.06 3.712-2.385 8.675-1.313 11.059 2.401 2.401 3.713 1.329 8.659-2.384 11.06-1.344.864-2.849 1.281-4.338 1.281-2.626 0-5.201-1.297-6.722-3.682zm204.012-11.348c-2.209-3.825-.913-8.723 2.914-10.932 3.825-2.225 8.722-.913 10.948 2.913 2.209 3.825.911 8.707-2.914 10.932-1.264.736-2.642 1.088-4.017 1.088-2.752 0-5.443-1.44-6.931-4.001zm27.819-16.118c-2.209-3.826-.913-8.723 2.914-10.932 3.825-2.225 8.724-.928 10.932 2.897 2.224 3.825.911 8.723-2.914 10.948-1.249.721-2.642 1.073-4.001 1.073-2.753 0-5.443-1.425-6.931-3.986zm-233.576.544c-4.419-.24-7.795-4.001-7.572-8.419.241-4.418 4.001-7.795 8.419-7.571 4.419.24 7.795 4.001 7.572 8.419-.224 4.274-3.761 7.587-7.987 7.587-.144 0-.288-.016-.432-.016zm261.394-16.678c-2.224-3.809-.928-8.707 2.898-10.932 3.825-2.209 8.722-.912 10.948 2.913 2.209 3.826.911 8.723-2.914 10.932-1.265.736-2.642 1.088-4.002 1.088-2.768 0-5.458-1.44-6.93-4.001zm27.803-16.118c-2.209-3.825-.913-8.723 2.914-10.932 3.825-2.225 8.724-.912 10.932 2.897 2.224 3.826.911 8.724-2.898 10.948-1.264.72-2.657 1.072-4.017 1.072-2.753 0-5.443-1.424-6.931-3.985zm-282.538 1.473c-3.426-2.785-3.955-7.827-1.169-11.252 2.801-3.426 7.826-3.953 11.268-1.152 3.425 2.785 3.938 7.827 1.152 11.252-1.583 1.937-3.889 2.945-6.21 2.945-1.776-.001-3.553-.577-5.041-1.793zm23.928-20.969c-2.209-3.825-.911-8.723 2.914-10.932 3.825-2.225 8.724-.912 10.948 2.913 2.209 3.826.897 8.723-2.929 10.932-1.265.736-2.64 1.072-4.002 1.072-2.753.001-5.442-1.423-6.931-3.985zm27.818-16.102c-2.209-3.825-.896-8.723 2.929-10.932 3.826-2.225 8.724-.912 10.932 2.913 2.209 3.826.913 8.724-2.912 10.932-1.264.736-2.642 1.072-4.001 1.072-2.77.001-5.458-1.424-6.948-3.985zm27.835-16.101c-2.209-3.826-.913-8.724 2.914-10.932 3.825-2.225 8.722-.913 10.931 2.913 2.226 3.825.913 8.723-2.912 10.932-1.265.736-2.642 1.089-4.001 1.089-2.771-.001-5.443-1.442-6.932-4.002zm27.819-16.103c-2.209-3.826-.896-8.723 2.929-10.932 3.825-2.225 8.706-.912 10.932 2.913 2.209 3.825.911 8.723-2.929 10.932-1.249.736-2.624 1.088-3.986 1.088-2.768.001-5.458-1.44-6.946-4.001zm27.834-16.102c-2.224-3.825-.911-8.723 2.914-10.932 3.825-2.209 8.724-.912 10.932 2.913 2.224 3.826.913 8.723-2.913 10.932-1.265.736-2.64 1.088-4.002 1.088-2.769.001-5.442-1.44-6.931-4.001zm27.818-16.102c-2.209-3.825-.896-8.723 2.929-10.932 3.827-2.209 8.724-.896 10.932 2.913 2.209 3.826.913 8.724-2.912 10.948-1.264.72-2.642 1.072-4.001 1.072-2.77.001-5.458-1.44-6.948-4.001zm27.835-16.102c-2.209-3.826-.913-8.724 2.912-10.932 3.826-2.209 8.724-.897 10.932 2.913 2.226 3.841.913 8.723-2.912 10.948-1.264.72-2.642 1.073-4.001 1.073-2.77 0-5.458-1.425-6.931-4.002zm27.819-16.102c-2.209-3.826-.897-8.707 2.929-10.932 3.825-2.209 8.724-.896 10.932 2.929 2.209 3.825.911 8.707-2.914 10.932-1.265.721-2.657 1.073-4.002 1.073-2.767 0-5.457-1.441-6.945-4.002zm27.834-16.102c-2.209-3.825-.911-8.707 2.914-10.932 3.825-2.209 8.724-.896 10.932 2.929 2.224 3.825.913 8.707-2.914 10.932-1.265.72-2.64 1.072-4.002 1.072-2.768.001-5.458-1.424-6.93-4.001zm27.818-16.086c-2.209-3.841-.896-8.723 2.929-10.948 3.826-2.209 8.724-.896 10.932 2.929 2.209 3.826.897 8.723-2.929 10.932-1.247.736-2.64 1.072-4.001 1.072-2.753 0-5.442-1.424-6.931-3.985zm27.835-16.102c-2.226-3.825-.913-8.723 2.912-10.948 3.827-2.209 8.724-.896 10.932 2.929 2.209 3.825.913 8.723-2.912 10.932-1.264.736-2.642 1.073-4.001 1.073-2.77 0-5.458-1.425-6.931-3.986zm28.139-15.782c-3.042-3.201-2.914-8.259.288-11.3v-.016c3.217-3.041 8.275-2.897 11.317.304 3.04 3.201 2.912 8.275-.289 11.316-1.552 1.473-3.537 2.193-5.505 2.193-2.13 0-4.243-.832-5.811-2.497zm-303.491-7.891c-2.209-3.826-.896-8.723 2.929-10.932 3.825-2.209 8.724-.896 10.932 2.929 2.209 3.825.896 8.723-2.929 10.932-1.264.721-2.642 1.073-4.001 1.073-2.77 0-5.458-1.441-6.931-4.002zm27.834-16.07c-2.209-3.842-.896-8.723 2.929-10.932 3.827-2.209 8.724-.912 10.932 2.913 2.209 3.841.897 8.739-2.929 10.948-1.264.721-2.624 1.073-3.984 1.073-2.77 0-5.458-1.441-6.948-4.002zm294.992-1.504c-4.355-.784-7.236-4.946-6.466-9.3.783-4.338 4.946-7.235 9.283-6.466 4.353.784 7.251 4.946 6.482 9.3-.705 3.873-4.081 6.594-7.875 6.594-.464-.001-.944-.049-1.424-.128zm-267.141-14.582c-2.209-3.825-.896-8.723 2.929-10.932 3.825-2.209 8.724-.896 10.932 2.929 2.209 3.825.896 8.723-2.929 10.932-1.265.736-2.642 1.072-4.002 1.072-2.769 0-5.457-1.424-6.93-4.001zm27.834-16.07c-2.209-3.825-.896-8.723 2.929-10.932 3.827-2.209 8.724-.896 10.932 2.929 2.209 3.826.897 8.723-2.929 10.932-1.264.736-2.624 1.072-3.984 1.072-2.77 0-5.458-1.44-6.948-4.001zm229.351-5.154c-1.904-4.001-.192-8.771 3.794-10.676 4.002-1.889 8.772-.192 10.66 3.809 1.888 3.986.192 8.755-3.794 10.66-1.103.528-2.273.768-3.425.768-2.993.001-5.874-1.68-7.235-4.561zm-201.5-10.916c-2.209-3.825-.896-8.723 2.929-10.932 3.825-2.209 8.724-.896 10.932 2.929 2.209 3.826.896 8.724-2.929 10.932-1.265.72-2.642 1.072-4.002 1.072-2.769 0-5.457-1.44-6.93-4.001zm182.918-8.483c-3.826-2.209-5.138-7.107-2.929-10.932 2.209-3.826 7.106-5.138 10.932-2.929 3.825 2.209 5.138 7.107 2.929 10.932-1.49 2.561-4.178 4.001-6.931 4.001-1.361 0-2.737-.352-4.001-1.072zm-155.084-7.587c-2.209-3.841-.896-8.723 2.929-10.932 3.827-2.209 8.724-.912 10.932 2.913 2.209 3.841.897 8.723-2.929 10.932-1.264.736-2.64 1.088-4.001 1.088-2.753 0-5.441-1.44-6.931-4.001zm127.617-6.723c-4.099-1.633-6.099-6.29-4.45-10.404 1.633-4.097 6.29-6.098 10.388-4.45h.016c4.098 1.633 6.082 6.291 4.45 10.388-1.249 3.137-4.258 5.042-7.428 5.042-.991.001-2.001-.192-2.976-.576zm-99.109-8.131c-1.361-4.21.944-8.724 5.154-10.084 4.194-1.361 8.708.944 10.083 5.154 1.344 4.209-.96 8.707-5.154 10.084-.833.256-1.649.384-2.465.384-3.377 0-6.515-2.161-7.618-5.538zm69.929.224c-4.369-.656-7.378-4.722-6.721-9.091.655-4.386 4.738-7.395 9.107-6.738 4.37.656 7.379 4.738 6.723 9.107-.592 3.97-4.017 6.819-7.908 6.819-.4-.001-.801-.033-1.201-.097zm-38.846-8.323c-.352-4.418 2.914-8.275 7.331-8.643 4.402-.352 8.259 2.913 8.627 7.331.369 4.402-2.914 8.259-7.315 8.628-.224.016-.447.032-.672.032-4.113-.001-7.619-3.17-7.971-7.348z" fill="#7662bd"/></g><g><path d="m412.908 401.206c-2.098 0-4.163-.864-5.666-2.353-1.49-1.489-2.337-3.553-2.337-5.65 0-2.113.847-4.178 2.337-5.666 1.504-1.488 3.568-2.337 5.666-2.337 2.112 0 4.177.848 5.665 2.337 1.49 1.488 2.338 3.553 2.338 5.666 0 2.097-.849 4.161-2.338 5.65s-3.554 2.353-5.665 2.353z" fill="#7662bd"/></g></g><ellipse cx="101.198" cy="223.489" fill="#7662bd" rx="53.219" ry="30.108" transform="matrix(.993 -.121 .121 .993 -26.295 13.885)"/><g><path d="m147.914 41.694 5.515-22.874-23.38-13.499c-11.257-7.801-26.72-7.338-43.664 3.464-30.737 19.597-55.557 67.493-56.546 109.067-.43 18.085 3.584 32.318 10.659 41.72l-.01.016 37.84 48.385c.682.871 1.458 1.523 2.303 1.975l23.454 13.541 22.211-92.126 11.485-27.947-.01-.004c6.73-16.714 10.69-34.602 10.69-51.446 0-3.593-.199-7.007-.547-10.272z" fill="url(#SVGID_1_)"/><path d="m171.588 65.293c0-44.903-28.06-64.866-62.076-43.18-30.736 19.596-55.557 67.492-56.546 109.066-.43 18.085 3.584 32.318 10.659 41.72l-.01.016 37.841 48.385c5.309 6.788 16.303.441 21.612-12.478l37.841-92.079-.01-.004c6.729-16.714 10.689-34.602 10.689-51.446z" fill="url(#SVGID_2_)"/><path d="m155.576 54.379-17.453-10.048-.001.003c-6.889-3.651-15.739-3.131-25.395 2.444-21.968 12.683-39.777 46.71-39.777 76.001 0 16.104 5.39 27.408 13.888 32.229l-.006.013 15.947 9.207z" fill="url(#SVGID_3_)"/><ellipse cx="129.078" cy="109.226" fill="#e9e5f6" rx="61.065" ry="34.547" transform="matrix(.392 -.92 .92 .392 -21.968 185.23)"/></g><ellipse cx="411.802" cy="396.566" fill="#7662bd" rx="53.219" ry="30.108" transform="matrix(.993 -.121 .121 .993 -44.954 52.735)"/><g><path d="m458.518 214.772 5.515-22.874-23.38-13.498c-11.257-7.801-26.72-7.338-43.664 3.464-30.737 19.596-55.557 67.492-56.546 109.066-.43 18.085 3.584 32.318 10.659 41.72l-.01.016 37.84 48.385c.681.871 1.458 1.523 2.302 1.975l23.454 13.541 22.212-92.127 11.485-27.947-.01-.004c6.73-16.714 10.69-34.602 10.69-51.446 0-3.592-.199-7.006-.547-10.271z" fill="url(#SVGID_4_)"/><path d="m482.193 238.371c0-44.903-28.06-64.866-62.076-43.18-30.736 19.596-55.557 67.492-56.546 109.066-.43 18.085 3.584 32.318 10.659 41.72l-.01.016 37.841 48.385c5.309 6.788 16.303.441 21.612-12.478l37.841-92.079-.01-.004c6.728-16.715 10.689-34.603 10.689-51.446z" fill="url(#SVGID_5_)"/><path d="m466.18 227.457-17.453-10.048-.001.003c-6.889-3.651-15.739-3.131-25.395 2.444-21.968 12.683-39.777 46.71-39.777 76.001 0 16.104 5.39 27.408 13.887 32.229l-.006.013 15.947 9.207z" fill="url(#SVGID_6_)"/><ellipse cx="439.682" cy="282.304" fill="#e9e5f6" rx="61.065" ry="34.547" transform="matrix(.392 -.92 .92 .392 7.76 576.343)"/></g></g></svg>