<!--
  - Copyright (c) 2023. Selldone® Business OS™
  -
  - Author: M.Pajuhaan
  - Web: https://selldone.com
  - ━━━━━━━━━━━━━━━━━━━━━━━━━━━━━━━━━━━━━━━━━━━━━━━━━━━━━━
  -
  - All rights reserved. In the weave of time, where traditions and innovations intermingle, this content was crafted.
  - From the essence of thought, through the corridors of creativity, each word, and sentiment has been molded.
  - Not just to exist, but to inspire. Like an artist's stroke or a sculptor's chisel, every nuance is deliberate.
  - Our journey is not just about reaching a destination, but about creating a masterpiece.
  - Tread carefully, for you're treading on dreams.
  -->

<svg id="Layer_1" enable-background="new 0 0 480 480" height="512" viewBox="0 0 480 480" width="512" xmlns="http://www.w3.org/2000/svg"><g><path d="m136.057 108.993c-4.358.727-7.302 4.849-6.576 9.207l3.241 19.445c1.604 9.626 8.748 17.25 18.198 19.424 58.272 13.399 119.884 13.4 178.158 0 9.45-2.174 16.594-9.798 18.198-19.424l2.168-13.005c16.079-.342 32.157 1.248 47.87 4.717 4.314.953 8.584-1.773 9.536-6.089.952-4.314-1.773-8.584-6.088-9.536-19.203-4.237-38.904-5.864-58.554-4.837-3.748.196-6.856 2.972-7.473 6.674l-3.241 19.445c-.535 3.21-2.891 5.746-6.002 6.461-55.93 12.862-115.056 12.86-170.986 0-3.111-.715-5.467-3.251-6.002-6.461l-3.241-19.445c-.726-4.358-4.848-7.292-9.206-6.576z"/><path d="m468.667 141.311c-6.339-3.921-12.94-7.527-19.667-10.792v-41.519c0-13.233-10.766-24-24-24h-6v-27h53c4.418 0 8-3.582 8-8s-3.582-8-8-8h-53v-9c0-4.418-3.582-8-8-8s-8 3.582-8 8v9h-53c-4.418 0-8 3.582-8 8s3.582 8 8 8h53v27h-7c-5.348 0-10.411 1.723-14.641 4.982-3.5 2.697-4.151 7.72-1.454 11.22 2.697 3.499 7.72 4.15 11.22 1.454 1.406-1.084 3.092-1.656 4.875-1.656h29c4.411 0 8 3.589 8 8v46.572c0 1.47.421 2.986 1.274 4.321 2.68 4.154 6.249 2.821 25.974 15.024 2.314 1.433 3.752 4.03 3.752 6.781v28.323c0 4.284-3.353 7.794-7.632 7.991l-83.287 3.829c-8.951.413-16.864 5.714-20.649 13.835l-26.341 56.509c-1.019 2.187-2.933 3.781-5.252 4.376-52.901 13.576-108.813 13.576-161.693-.004-2.309-.593-4.216-2.185-5.234-4.369l-26.342-56.512c-3.786-8.121-11.698-13.422-20.651-13.835l-83.285-3.829c-4.28-.197-7.632-3.707-7.632-7.991v-28.199c0-2.789 1.497-5.424 3.906-6.876 24.844-14.973 52.469-24.637 81.141-28.42 3.885-.502 6.953-3.861 6.953-7.931v-29.595c0-13.233-10.767-24-24-24h-7v-27h53c4.418 0 8-3.582 8-8s-3.582-8-8-8h-53.002v-9c0-4.418-3.582-8-8-8s-8 3.582-8 8v9h-53c-4.418 0-8 3.582-8 8s3.582 8 8 8h53v27h-6c-9.885 0-18.638 5.933-22.299 15.114-1.636 4.104.364 8.757 4.468 10.394s8.757-.363 10.395-4.468c1.22-3.061 4.139-5.04 7.436-5.04h29c4.411 0 8 3.589 8 8v22.7c-28.56 4.682-55.726 14.702-80.353 29.543-7.184 4.33-11.647 12.215-11.647 20.579v28.199c0 12.854 10.058 23.384 22.897 23.974l27.104 1.246-25.983 32.618c-8.694 10.915-11.068 25.817-6.194 38.893l30.068 80.672c7.16 19.206 32.677 23.904 46.053 7.863 5.146-6.173 7.27-14.247 5.824-22.152l-10.634-58.173c-.667-3.65 1.236-7.25 4.629-8.753l11.467-5.08c4.04-1.79 5.864-6.516 4.074-10.555-1.79-4.04-6.517-5.865-10.555-4.074l-11.468 5.08c-10.179 4.51-15.89 15.308-13.888 26.259l10.634 58.173c.589 3.223-.276 6.513-2.374 9.029-5.457 6.544-15.856 4.615-18.771-3.205l-30.068-80.672c-2.924-7.845-1.5-16.787 3.717-23.336l33.201-41.68 36.447 1.676c2.985.138 5.623 1.905 6.885 4.612l26.342 56.512c3.049 6.541 8.792 11.319 15.757 13.107 25.155 6.459 50.962 9.98 76.834 10.583v32.362h-57c-13.233 0-24 10.767-24 24v92c0 13.233 10.767 24 24 24h130c13.233 0 24-10.767 24-24v-92c0-13.233-10.767-24-24-24h-20.968c-4.418 0-8 3.582-8 8s3.582 8 8 8h20.97c4.411 0 8 3.589 8 8v92c0 4.411-3.589 8-8 8h-130c-4.411 0-8-3.589-8-8v-92c0-4.411 3.589-8 8-8h65c4.418 0 8-3.582 8-8v-40.362c25.86-.604 51.663-4.124 76.814-10.579 6.977-1.79 12.727-6.569 15.778-13.114l5.005-10.737 40.636 18.001c3.394 1.503 5.297 5.103 4.63 8.753l-10.634 58.173c-1.445 7.905.678 15.979 5.824 22.152 13.387 16.055 38.901 11.321 46.053-7.863l30.068-80.672c4.874-13.075 2.5-27.978-6.194-38.893l-12.878-16.166c-2.753-3.457-7.787-4.027-11.242-1.272-3.456 2.753-4.026 7.785-1.273 11.241l12.878 16.166c5.216 6.549 6.641 15.491 3.717 23.336l-30.068 80.672c-2.919 7.828-13.319 9.744-18.771 3.205-2.098-2.517-2.963-5.807-2.374-9.029l10.634-58.173c2.002-10.951-3.709-21.749-13.888-26.259l-40.356-17.877 14.575-31.267c1.262-2.707 3.9-4.475 6.884-4.612l83.285-3.829c12.84-.59 22.898-11.12 22.898-23.974v-28.323c-.001-8.374-4.237-15.995-11.334-20.387z"/><path d="m240 427c-4.418 0-8 3.582-8 8s3.582 8 8 8c20.953 0 38-17.047 38-38s-17.047-38-38-38-38 17.047-38 38c0 4.418 3.582 8 8 8s8-3.582 8-8c0-12.131 9.869-22 22-22s22 9.869 22 22-9.869 22-22 22z"/><path d="m283.064 219c-4.418 0-8 3.582-8 8s3.582 8 8 8h1.936c4.418 0 8-3.582 8-8s-3.582-8-8-8z"/><path d="m195 219c-4.418 0-8 3.582-8 8s3.582 8 8 8h48.968c4.418 0 8-3.582 8-8s-3.582-8-8-8z"/></g></svg>