<!--
  - Copyright (c) 2023. Selldone® Business OS™
  -
  - Author: M.Pajuhaan
  - Web: https://selldone.com
  - ━━━━━━━━━━━━━━━━━━━━━━━━━━━━━━━━━━━━━━━━━━━━━━━━━━━━━━
  -
  - All rights reserved. In the weave of time, where traditions and innovations intermingle, this content was crafted.
  - From the essence of thought, through the corridors of creativity, each word, and sentiment has been molded.
  - Not just to exist, but to inspire. Like an artist's stroke or a sculptor's chisel, every nuance is deliberate.
  - Our journey is not just about reaching a destination, but about creating a masterpiece.
  - Tread carefully, for you're treading on dreams.
  -->

<svg height="512pt" viewBox="0 -32 512 512" width="512pt" xmlns="http://www.w3.org/2000/svg" xmlns:xlink="http://www.w3.org/1999/xlink"><linearGradient id="a"><stop offset="0" stop-color="#575c55"/><stop offset="1" stop-color="#45425a"/></linearGradient><linearGradient id="b" gradientUnits="userSpaceOnUse" x1="107.2686641312" x2="112.7668437486" xlink:href="#a" y1="365.0684183724" y2="365.0684183724"/><linearGradient id="c" gradientUnits="userSpaceOnUse" x1="26.9602249178" x2="193.075282962" xlink:href="#a" y1="365.0684183724" y2="365.0684183724"/><linearGradient id="d" gradientUnits="userSpaceOnUse" x1="49.3792086686" x2="170.6562992112" xlink:href="#a" y1="365.0685187646" y2="365.0685187646"/><linearGradient id="e"><stop offset="0" stop-color="#ffd459"/><stop offset=".2296" stop-color="#ffd355"/><stop offset=".4362" stop-color="#ffcf4a"/><stop offset=".634" stop-color="#ffc838"/><stop offset=".825" stop-color="#ffbf1f"/><stop offset="1" stop-color="#ffb400"/></linearGradient><linearGradient id="f" gradientUnits="userSpaceOnUse" x1="102.4295593068" x2="200.6029912946" xlink:href="#e" y1="357.480575112" y2="455.6540070998"/><linearGradient id="g"><stop offset="0" stop-color="#45425a"/><stop offset=".4759" stop-color="#424059"/><stop offset=".7742" stop-color="#3a3b56"/><stop offset="1" stop-color="#2d3251"/></linearGradient><radialGradient id="h" cx="107.2091315566" cy="359.4515751746" gradientUnits="userSpaceOnUse" r="83.05446706" xlink:href="#g"/><linearGradient id="i"><stop offset="0" stop-color="#c6e56f"/><stop offset=".3371" stop-color="#c4e56f"/><stop offset=".4953" stop-color="#bce36e"/><stop offset=".6162" stop-color="#afe16d"/><stop offset=".7182" stop-color="#9ddd6b"/><stop offset=".8083" stop-color="#85d968"/><stop offset=".8899" stop-color="#68d365"/><stop offset=".9635" stop-color="#46cd61"/><stop offset="1" stop-color="#32c95f"/></linearGradient><linearGradient id="j" gradientUnits="userSpaceOnUse" x1="72.659858672" x2="147.3755488156" xlink:href="#i" y1="365.068719549" y2="365.068719549"/><linearGradient id="k"><stop offset=".0029" stop-color="#00e7b2" stop-opacity="0"/><stop offset=".4308" stop-color="#1bc4b7" stop-opacity=".427451"/><stop offset="1" stop-color="#3b9abe"/></linearGradient><linearGradient id="l" gradientUnits="userSpaceOnUse" x1="145.9821050796" x2="112.0911038504" xlink:href="#k" y1="401.0331208848" y2="367.1421196556"/><radialGradient id="m" cx="110.017804136" cy="365.068719549" gradientUnits="userSpaceOnUse" r="19.7528680954" xlink:href="#g"/><linearGradient id="n" gradientUnits="userSpaceOnUse" x1="426.1936011692" x2="431.6917807866" xlink:href="#a" y1="365.0684183724" y2="365.0684183724"/><linearGradient id="o" gradientUnits="userSpaceOnUse" x1="345.8851619558" x2="512.00022" xlink:href="#a" y1="365.0684183724" y2="365.0684183724"/><linearGradient id="p" gradientUnits="userSpaceOnUse" x1="368.3042460988" x2="489.5812362492" xlink:href="#a" y1="365.0685187646" y2="365.0685187646"/><linearGradient id="q" gradientUnits="userSpaceOnUse" x1="421.3544963448" x2="519.5280287248" xlink:href="#e" y1="357.480575112" y2="455.6540070998"/><radialGradient id="r" cx="426.1340685946" cy="359.4515751746" gradientUnits="userSpaceOnUse" r="83.05446706" xlink:href="#g"/><linearGradient id="s" gradientUnits="userSpaceOnUse" x1="391.5848961022" x2="466.3004858536" xlink:href="#i" y1="365.068719549" y2="365.068719549"/><linearGradient id="t" gradientUnits="userSpaceOnUse" x1="464.9070421176" x2="431.0161412806" xlink:href="#k" y1="401.0331208848" y2="367.1421196556"/><radialGradient id="u" cx="428.942741174" cy="365.068719549" gradientUnits="userSpaceOnUse" r="19.7528680954" xlink:href="#g"/><linearGradient id="v"><stop offset="0" stop-color="#ff6e3a"/><stop offset=".1596" stop-color="#ff6440"/><stop offset=".4266" stop-color="#ff4b52"/><stop offset=".7662" stop-color="#ff216e"/><stop offset="1" stop-color="#ff0084"/></linearGradient><linearGradient id="w" gradientUnits="userSpaceOnUse" x1="289.1861572008" x2="192.94376918" xlink:href="#v" y1="286.795431014" y2="335.6348308232"/><linearGradient id="x" gradientUnits="userSpaceOnUse" x1="54.7824172648" x2="212.126208795" xlink:href="#v" y1="206.1352175318" y2="363.479009062"/><linearGradient id="y" gradientUnits="userSpaceOnUse" x1="429.9484702336" x2="429.9484702336" xlink:href="#v" y1="268.2893336504" y2="305.2780366028"/><linearGradient id="z"><stop offset="0" stop-color="#e58200" stop-opacity="0"/><stop offset=".2413" stop-color="#da760f" stop-opacity=".243137"/><stop offset=".7044" stop-color="#bc5737" stop-opacity=".705882"/><stop offset="1" stop-color="#a64153"/></linearGradient><linearGradient id="A" gradientUnits="userSpaceOnUse" x1="426.2038411736" x2="371.3325768118" xlink:href="#z" y1="319.655303957" y2="264.7840395952"/><linearGradient id="B" gradientUnits="userSpaceOnUse" x1="425.2895694082" x2="234.380147769" xlink:href="#v" y1="194.4107136704" y2="297.0244926642"/><linearGradient id="C" gradientUnits="userSpaceOnUse" x1="292.0249474402" x2="292.0249474402" xlink:href="#g" y1="104.8231238032" y2="120.3345218408"/><linearGradient id="D" gradientUnits="userSpaceOnUse" x1="412.274624208" x2="341.7858472532" xlink:href="#z" y1="204.417607382" y2="133.928730035"/><linearGradient id="E" gradientUnits="userSpaceOnUse" x1="351.0590747672" x2="383.530831465" xlink:href="#e" y1="96.1725287136" y2="96.1725287136"/><linearGradient id="F" gradientUnits="userSpaceOnUse" x1="336.8997588792" x2="363.0540352154" xlink:href="#v" y1="85.2298793058" y2="162.2787845696"/><linearGradient id="G" gradientUnits="userSpaceOnUse" x1="168.5712536094" x2="168.5712536094" xlink:href="#g" y1="162.2948473216" y2="182.2169766662"/><linearGradient id="H" gradientUnits="userSpaceOnUse" x1="88.5300584324" x2="38.1728289514" xlink:href="#z" y1="309.7490032298" y2="201.1663055928"/><linearGradient id="I" gradientUnits="userSpaceOnUse" x1="78.8835727188" x2="78.8835727188" xlink:href="#z" y1="318.9996424988" y2="283.963367052"/><linearGradient id="J" gradientUnits="userSpaceOnUse" x1="78.8835727188" x2="78.8835727188" xlink:href="#z" y1="347.2383620836" y2="312.2020866368"/><linearGradient id="K" gradientTransform="matrix(1.003922 .00014135 -.00014135 1.003922 40.495586 188.905612)" gradientUnits="userSpaceOnUse" x1="58.6279" x2="188.1259" xlink:href="#e" y1="-113.6846" y2="-113.6846"/><linearGradient id="L" gradientTransform="matrix(1.003922 .00014135 -.00014135 1.003922 40.495586 188.905612)" gradientUnits="userSpaceOnUse" x1="116.3951" x2="37.1421" y1="-107.2575" y2="-186.5104"><stop offset="0" stop-color="#e58200" stop-opacity="0"/><stop offset=".1923" stop-color="#de7b09" stop-opacity=".192157"/><stop offset=".5014" stop-color="#cd6920" stop-opacity=".501961"/><stop offset=".8866" stop-color="#b04b46" stop-opacity=".886275"/><stop offset="1" stop-color="#a64153"/></linearGradient><linearGradient id="M" gradientTransform="matrix(1.003922 .00014135 -.00014135 1.003922 40.495586 188.905612)" gradientUnits="userSpaceOnUse" x1="48.2734" x2="85.9387" xlink:href="#v" y1="-185.906" y2="-121.1332"/><linearGradient id="N" gradientTransform="matrix(1.003922 .00014135 -.00014135 1.003922 40.495586 188.905612)" gradientUnits="userSpaceOnUse" x1="62.447" x2="62.447" y1="-62.7119" y2="-28.6128"><stop offset="0" stop-color="#ffe600" stop-opacity="0"/><stop offset="1" stop-color="#f59500"/></linearGradient><linearGradient id="O" gradientUnits="userSpaceOnUse" x1="40.5247170208" x2="73.5170072756" xlink:href="#g" y1="132.6917977388" y2="132.6917977388"/><linearGradient id="P" gradientUnits="userSpaceOnUse" x1="40.5276283946" x2="92.8736273576" xlink:href="#g" y1="112.5206957382" y2="112.5206957382"/><path d="m112.765625 282.058594v166.019531c-.914063.035156-1.828125.046875-2.746094.046875-.921875 0-1.835937-.011719-2.75-.046875v-166.019531c.914063-.035156 1.828125-.046875 2.75-.046875.917969 0 1.832031.011719 2.746094.046875zm0 0" fill="url(#b)"/><path d="m193.074219 365.066406c0 .921875-.011719 1.835938-.046875 2.75h-166.019532c-.035156-.914062-.046874-1.828125-.046874-2.75 0-.917968.011718-1.832031.046874-2.746094h166.019532c.035156.914063.046875 1.828126.046875 2.746094zm0 0" fill="url(#c)"/><path d="m170.65625 308.320312-117.386719 117.386719c-1.339843-1.253906-2.640625-2.550781-3.890625-3.890625l57.890625-57.890625 1.609375-1.605469 45.621094-45.621093 12.265625-12.269531c1.339844 1.25 2.640625 2.550781 3.890625 3.890624zm0 0" fill="url(#d)"/><path d="m170.65625 421.816406c-1.25 1.339844-2.550781 2.640625-3.890625 3.890625l-12.265625-12.269531-41.734375-41.730469-63.386719-63.386719c1.25-1.339843 2.550782-2.640624 3.890625-3.890624zm0 0" fill="url(#d)"/><path d="m110.019531 299.621094c-36.148437 0-65.449219 29.300781-65.449219 65.449218 0 36.144532 29.300782 65.449219 65.449219 65.449219 36.144531 0 65.445313-29.304687 65.445313-65.449219 0-36.148437-29.300782-65.449218-65.445313-65.449218zm0 117.234375c-28.605469 0-51.792969-23.183594-51.792969-51.789063 0-28.601562 23.1875-51.789062 51.792969-51.789062 28.601563 0 51.789063 23.1875 51.789063 51.789062 0 28.605469-23.1875 51.789063-51.789063 51.789063zm0 0" fill="url(#f)"/><path d="m110.019531 282.011719c-45.871093 0-83.054687 37.1875-83.054687 83.054687 0 45.871094 37.183594 83.054688 83.054687 83.054688 45.867188 0 83.050781-37.183594 83.050781-83.054688 0-45.867187-37.183593-83.054687-83.050781-83.054687zm0 142.164062c-32.644531 0-59.109375-26.460937-59.109375-59.109375 0-32.644531 26.460938-59.105468 59.109375-59.105468 32.644531 0 59.105469 26.460937 59.105469 59.105468 0 32.644532-26.460938 59.109375-59.105469 59.109375zm0 0" fill="url(#h)"/><path d="m147.375 365.070312c0 20.632813-16.726562 37.355469-37.355469 37.355469-20.632812 0-37.359375-16.722656-37.359375-37.355469 0-20.632812 16.726563-37.359374 37.359375-37.359374 20.628907 0 37.355469 16.726562 37.355469 37.359374zm0 0" fill="url(#j)"/><path d="m146.398438 373.535156-22.015626-22.015625c-3.601562-3.816406-8.703124-6.203125-14.367187-6.203125-10.910156 0-19.753906 8.84375-19.753906 19.75 0 5.664063 2.386719 10.765625 6.207031 14.367188l22.015625 22.015625c13.832031-3.203125 24.707031-14.085938 27.914063-27.914063zm0 0" fill="url(#l)"/><path d="m129.769531 365.070312c0 10.90625-8.84375 19.75-19.75 19.75-10.910156 0-19.753906-8.84375-19.753906-19.75 0-10.910156 8.84375-19.753906 19.753906-19.753906 10.90625 0 19.75 8.84375 19.75 19.753906zm0 0" fill="url(#m)"/><path d="m431.691406 282.058594v166.019531c-.914062.035156-1.828125.046875-2.75.046875-.917968 0-1.835937-.011719-2.746094-.046875v-166.019531c.914063-.035156 1.828126-.046875 2.746094-.046875.921875 0 1.835938.011719 2.75.046875zm0 0" fill="url(#n)"/><path d="m512 365.066406c0 .921875-.015625 1.835938-.046875 2.75h-166.019531c-.035156-.914062-.046875-1.828125-.046875-2.75 0-.917968.011719-1.832031.046875-2.746094h166.019531c.03125.914063.046875 1.828126.046875 2.746094zm0 0" fill="url(#o)"/><path d="m489.582031 308.320312-63.386719 63.386719-41.734374 41.730469-12.265626 12.269531c-1.339843-1.253906-2.640624-2.550781-3.890624-3.890625l54-54 2.746093-2.75 1.140625-1.140625 1.609375-1.605469 57.890625-57.890624c1.339844 1.25 2.640625 2.550781 3.890625 3.890624zm0 0" fill="url(#p)"/><path d="m489.582031 421.816406c-1.25 1.339844-2.550781 2.640625-3.890625 3.890625l-117.386718-117.386719c1.25-1.339843 2.550781-2.640624 3.890624-3.890624l12.265626 12.269531 44.484374 44.480469zm0 0" fill="url(#p)"/><path d="m428.941406 299.621094c-36.144531 0-65.449218 29.300781-65.449218 65.449218 0 36.144532 29.304687 65.449219 65.449218 65.449219 36.148438 0 65.449219-29.304687 65.449219-65.449219 0-36.148437-29.300781-65.449218-65.449219-65.449218zm0 117.234375c-28.601562 0-51.789062-23.183594-51.789062-51.789063 0-28.601562 23.1875-51.789062 51.789062-51.789062 28.605469 0 51.789063 23.1875 51.789063 51.789062 0 28.605469-23.183594 51.789063-51.789063 51.789063zm0 0" fill="url(#q)"/><path d="m428.941406 282.011719c-45.867187 0-83.054687 37.1875-83.054687 83.054687 0 45.871094 37.1875 83.054688 83.054687 83.054688 45.871094 0 83.054688-37.183594 83.054688-83.054688 0-45.867187-37.183594-83.054687-83.054688-83.054687zm0 142.164062c-32.644531 0-59.109375-26.460937-59.109375-59.109375 0-32.644531 26.464844-59.105468 59.109375-59.105468 32.648438 0 59.109375 26.460937 59.109375 59.105468 0 32.644532-26.464843 59.109375-59.109375 59.109375zm0 0" fill="url(#r)"/><path d="m466.300781 365.070312c0 20.632813-16.726562 37.355469-37.359375 37.355469-20.632812 0-37.355468-16.722656-37.355468-37.355469 0-20.632812 16.722656-37.359374 37.355468-37.359374 20.632813 0 37.359375 16.726562 37.359375 37.359374zm0 0" fill="url(#s)"/><path d="m465.324219 373.535156-22.015625-22.015625c-3.601563-3.816406-8.703125-6.203125-14.367188-6.203125-10.910156 0-19.753906 8.84375-19.753906 19.75 0 5.664063 2.386719 10.765625 6.207031 14.367188l22.015625 22.015625c13.828125-3.203125 24.707032-14.085938 27.914063-27.914063zm0 0" fill="url(#t)"/><path d="m448.695312 365.070312c0 10.90625-8.84375 19.75-19.753906 19.75s-19.753906-8.84375-19.753906-19.75c0-10.910156 8.84375-19.753906 19.753906-19.753906s19.753906 8.84375 19.753906 19.753906zm0 0" fill="url(#u)"/><path d="m351.386719 333.316406v25.296875c-2.886719 3.519531-7.242188 5.726563-12.089844 5.726563h-197.96875v-107.386719h39.375v37.980469c0 21.203125 17.179687 38.382812 38.382813 38.382812zm0 0" fill="url(#w)"/><path d="m180.703125 364.339844h-155.113281c-14.132813 0-25.589844-11.457032-25.589844-25.585938v-37.078125c0-61.601562 49.9375-111.539062 111.542969-111.539062h125.238281c0 15.273437-9.929688 28.777343-24.507812 33.328125l-6.222657 1.941406c-21.464843 6.699219-25.347656 26.578125-25.347656 49.066406zm0 0" fill="url(#x)"/><path d="m492.132812 288.691406c3.601563 7.742188-4.699218 15.519532-12.292968 11.613282-13.828125-7.117188-29.511719-11.136719-46.125-11.136719-25.617188 0-49.015625 9.546875-66.816406 25.285156v-70.625h54.886718c31.15625 0 58.019532 18.367187 70.347656 44.863281zm0 0" fill="url(#y)"/><path d="m404.480469 243.828125h-37.582031v70.625c17.800781-15.738281 41.199218-25.285156 66.816406-25.285156 6.023437 0 11.921875.535156 17.65625 1.546875zm0 0" fill="url(#A)"/><path d="m406.320312 256.132812c2.425782 12.246094-2.554687 24.773438-12.738281 31.992188-20.421875 14.476562-34.828125 36.878906-38.734375 62.722656-.441406 2.945313-1.671875 5.605469-3.460937 7.765625-2.886719 3.519531-7.242188 5.726563-12.089844 5.726563h-33.253906v-217.601563c0-12.796875 10.277343-23.347656 23.074219-23.421875 14.820312-.085937 28.628906 5.117188 39.414062 13.984375 10.714844 8.804688 18.457031 21.191407 21.3125 35.605469zm0 0" fill="url(#B)"/><path d="m315.449219 126.300781h-46.847657c-6.007812 0-10.878906-4.871093-10.878906-10.882812v-6.277344c0-6.007813 4.871094-10.878906 10.878906-10.878906h46.847657c6.007812 0 10.878906 4.871093 10.878906 10.878906v6.277344c0 6.011719-4.871094 10.882812-10.878906 10.882812zm0 0" fill="url(#C)"/><path d="m389.84375 172.90625c-2.855469-14.414062-10.597656-26.796875-21.3125-35.605469-10.785156-8.863281-24.59375-14.066406-39.414062-13.984375-6.007813.035156-11.441407 2.398438-15.535157 6.199219l84.375 84.375zm0 0" fill="url(#D)"/><path d="m383.53125 96.171875c0-22.601563-7.269531-40.925781-16.238281-40.925781-8.964844 0-16.234375 18.324218-16.234375 40.925781 0 22.605469 7.269531 40.925781 16.234375 40.925781 8.96875 0 16.238281-18.320312 16.238281-40.925781zm0 0" fill="url(#E)"/><path d="m364.246094 140.023438h-23.261719c-22.59375 0-40.90625-18.316407-40.90625-40.90625v-5.890626c0-22.589843 18.3125-40.902343 40.90625-40.902343h23.261719c4.101562 0 7.421875 3.320312 7.421875 7.421875v72.855468c0 4.097657-3.320313 7.421876-7.421875 7.421876zm0 0" fill="url(#F)"/><path d="m115.214844 149.566406h106.710937c12.378907 0 22.414063 10.035156 22.414063 22.414063v10.769531c0 4.078125-3.308594 7.386719-7.386719 7.386719h-136.765625c-4.078125 0-7.382812-3.308594-7.382812-7.386719v-10.769531c0-12.378907 10.03125-22.414063 22.410156-22.414063zm0 0" fill="url(#G)"/><path d="m175.226562 364.339844c2.109376-4.175782 3.941407-8.511719 5.476563-12.984375v-67.097657c-13.933594-40.644531-52.476563-69.859374-97.84375-69.859374-.21875 0-.4375 0-.660156 0-41.914063.261718-76.441407 32.308593-81.40625 73.929687-.523438 4.375-.792969 8.832031-.792969 13.347656v37.078125c0 14.128906 11.457031 25.585938 25.589844 25.585938zm0 0" fill="url(#H)"/><path d="m108.316406 309.851562h-58.863281c-6.152344 0-11.136719-4.984374-11.136719-11.136718 0-6.148438 4.984375-11.136719 11.136719-11.136719h58.863281c6.148438 0 11.136719 4.984375 11.136719 11.136719s-4.988281 11.136718-11.136719 11.136718zm0 0" fill="url(#I)"/><path d="m108.316406 338.089844h-58.863281c-6.152344 0-11.136719-4.984375-11.136719-11.136719 0-6.148437 4.984375-11.136719 11.136719-11.136719h58.863281c6.148438 0 11.136719 4.988282 11.136719 11.136719 0 6.152344-4.988281 11.136719-11.136719 11.136719zm0 0" fill="url(#J)"/><path d="m170.160156 149.566406-133.9375-.019531c-4.308594 0-7.804687-3.496094-7.800781-7.804687l.015625-133.9375c.003906-4.3125 3.496094-7.804688 7.808594-7.804688l133.9375.0195312c4.3125 0 7.804687 3.4960938 7.804687 7.8046878l-.019531 133.941406c0 4.308594-3.496094 7.800781-7.808594 7.800781zm0 0" fill="url(#K)"/><path d="m80.691406 55.65625 78.21875 78.238281 1.476563 1.308594c1.714843 1.519531 4.292969 1.519531 6.007812.003906l.003907-.003906c1.714843-1.519531 4.292968-1.519531 6.007812 0 1.570312 1.394531 3.871094 1.507813 5.5625.34375l.011719-84.792969-50.726563-50.7421872-48.078125-.0039063-.007812 52.2539065c0 1.296875.554687 2.535156 1.523437 3.394531zm0 0" fill="url(#L)"/><path d="m127.253906.015625-.007812 52.253906c0 1.296875-.554688 2.53125-1.527344 3.390625l-1.484375 1.3125c-1.710937 1.519532-4.289063 1.515625-6.003906 0l-.003907-.003906c-1.714843-1.519531-4.292968-1.519531-6.007812 0s-4.292969 1.519531-6.007812 0l-.003907-.003906c-1.714843-1.519532-4.292969-1.515625-6.007812 0-1.714844 1.519531-4.292969 1.519531-6.007813 0-1.714844-1.519532-4.292968-1.519532-6.007812-.003906l-.003906.003906c-1.714844 1.519531-4.292969 1.519531-6.007813 0l-1.476563-1.3125c-.972656-.859375-1.527343-2.09375-1.527343-3.390625l.007812-52.2539065zm0 0" fill="url(#M)"/><path d="m28.425781 99.808594-.003906 41.933594c-.003906 4.3125 3.492187 7.804687 7.800781 7.808593l133.9375.015625c4.3125.003906 7.808594-3.492187 7.808594-7.800781l.003906-41.9375zm0 0" fill="url(#N)"/><path d="m40.523438 127.9375h32.992187v9.511719h-32.992187zm0 0" fill="url(#O)"/><path d="m40.527344 107.765625h52.34375v9.511719h-52.34375zm0 0" fill="url(#P)"/></svg>