<!--
  - Copyright (c) 2023. Selldone® Business OS™
  -
  - Author: M.Pajuhaan
  - Web: https://selldone.com
  - ━━━━━━━━━━━━━━━━━━━━━━━━━━━━━━━━━━━━━━━━━━━━━━━━━━━━━━
  -
  - All rights reserved. In the weave of time, where traditions and innovations intermingle, this content was crafted.
  - From the essence of thought, through the corridors of creativity, each word, and sentiment has been molded.
  - Not just to exist, but to inspire. Like an artist's stroke or a sculptor's chisel, every nuance is deliberate.
  - Our journey is not just about reaching a destination, but about creating a masterpiece.
  - Tread carefully, for you're treading on dreams.
  -->

<svg id="Capa_1" enable-background="new 0 0 512.013 512.013" height="512" viewBox="0 0 512.013 512.013" width="512" xmlns="http://www.w3.org/2000/svg"><path d="m294.167 107.173h73.429v30h-73.429z" fill="#003365"/><path d="m184 210.506h-184v-184h77l15 10 15-10h77z" fill="#ffd700"/><path d="m184 26.506h-77l-15 10v174h92z" fill="#ffc200"/><path d="m114.972 467.506c-22.222 0-40.309-18.092-40.327-40.346l-.007-8.654h80.706l.007 8.64c.009 10.773-4.187 20.906-11.815 28.531-7.622 7.619-17.754 11.82-28.531 11.829-.011 0-.022 0-.033 0z" fill="#dad0cb"/><path d="m425.998 466.506c-21.329 0-38.689-17.354-38.706-38.699l-.006-8.301h77.412l.007 8.287c.017 21.329-17.332 38.695-38.673 38.713-.013 0-.024 0-.034 0z" fill="#c6bcb7"/><path d="m77 26.506h30v55h-30z" fill="#ff9a00"/><path d="m349 372.71v-182.204c11.716-11.716 18.284-18.284 30-30h47.534l34.964 196.735z" fill="#00b0ff"/><path d="m402 430.506h-202l-85-20-85 20h-30v-104.881c-.038-46.891 38.087-85.08 84.988-85.118h171.012v75c.005 6.672 2.611 12.957 7.337 17.685 4.715 4.717 10.977 7.315 17.63 7.315h.021 121.012z" fill="#57caff"/><path d="m280.967 340.506c-6.653 0-12.915-2.598-17.63-7.315-4.726-4.728-7.332-11.013-7.337-17.685v115h146v-90h-121.013c-.007 0-.012 0-.02 0z" fill="#00b0ff"/><path d="m114.955 485.506c-38.548 0-69.924-31.384-69.955-69.988l-.012-15.012h140l.012 14.988c.015 18.688-7.263 36.266-20.495 49.493-13.221 13.216-30.798 20.504-49.493 20.519-.018 0-.038 0-.057 0zm-37.028-55c5.946 14.647 20.308 25 37.029 25h.032c10.693-.009 20.746-4.177 28.308-11.736 3.858-3.857 6.83-8.361 8.814-13.264z" fill="#003365"/><path d="m426.001 485.506c-38.573 0-69.97-31.384-70.001-69.988l-.012-15.012h140l.012 14.988c.031 38.573-31.345 69.98-69.941 70.012-.02 0-.039 0-.058 0zm-37.071-55c5.953 14.647 20.332 25 37.071 25h.033c16.752-.014 31.124-10.367 37.059-25z" fill="#000a32"/><path d="m512.013 430.506h-172l-.013-14.987c-.019-22.958 8.924-44.551 25.182-60.802 16.245-16.239 37.84-25.192 60.806-25.211h.072c47.356 0 85.901 38.559 85.94 85.989z" fill="#007dfd"/><path d="m200 430.506h-170v-45c-.034-41.315 33.606-74.966 74.988-75h20.012.063c19.998 0 38.809 7.797 52.963 21.96s21.958 32.995 21.974 53.028z" fill="#00b0ff"/><path d="m399 190.506h-50v-100h50c27.57 0 50 22.43 50 50s-22.43 50-50 50z" fill="#007dfd"/><path d="m241 270.506h-160c-24.813 0-45-20.187-45-45s20.187-45 45-45h160c24.813 0 45 20.187 45 45s-20.186 45-45 45z" fill="#004984"/><path d="m92 26.506h15v55h-15z" fill="#f60"/></svg>