<?xml version="1.0" encoding="iso-8859-1"?>
<!-- Generator: Adobe Illustrator 19.0.0, SVG Export Plug-In . SVG Version: 6.00 Build 0)  -->
<svg version="1.1" id="Capa_1" xmlns="http://www.w3.org/2000/svg" xmlns:xlink="http://www.w3.org/1999/xlink" x="0px" y="0px"
	 viewBox="0 0 512 512" style="enable-background:new 0 0 512 512;" xml:space="preserve">
<path style="fill:#AD5F40;" d="M334.574,511.336c-13.09-3.104-21.184-16.232-18.08-29.322l27.62-116.473
	c0.48-2.022,1.218-3.975,2.192-5.811l48.687-91.604c6.314-11.879,21.06-16.39,32.942-10.077
	c11.878,6.314,16.39,21.062,10.077,32.942l-47.218,88.838l-26.9,113.427C360.805,506.282,347.725,514.454,334.574,511.336z"/>
<path style="fill:#BA6746;" d="M498.254,480.785l-31.476-107.406l22.006-107.116l-31.276-142.415
	c-3.367-15.33-18.524-25.028-33.854-21.662l-49.5,10.871c-15.33,3.367-25.028,18.524-21.662,33.854l31.276,142.415l53.042-11.649
	l-18.97,91.793c-0.807,3.907-0.643,7.952,0.479,11.78l33.184,113.236c3.782,12.907,17.309,20.309,30.225,16.525
	C494.64,507.226,502.038,493.694,498.254,480.785z"/>
<path style="fill:#3C5064;" d="M403.195,356.497l34.817-65.506c6.314-11.88,1.801-26.628-10.077-32.942
	c-11.881-6.313-26.628-1.802-32.942,10.077l-46.969,88.371l46.42,16.462L403.195,356.497z"/>
<path style="fill:#3C5A73;" d="M418.653,365.544h49.736l20.396-99.282l-31.276-142.415c-3.367-15.33-18.523-25.028-33.853-21.662
	l-49.5,10.871c-15.33,3.367-25.028,18.523-21.662,33.853l31.276,142.414l53.042-11.648L418.653,365.544z"/>
<path style="fill:#1C9585;" d="M383.769,289.325l105.015-23.063l-31.276-142.415c-3.367-15.33-18.523-25.028-33.853-21.662
	l-49.5,10.871c-15.33,3.367-25.028,18.523-21.662,33.853L383.769,289.325z"/>
<circle style="fill:#BA6746;" cx="387.841" cy="51.48" r="44.865"/>
<path style="fill:#C8A06E;" d="M190.505,277.932h126.69c9.538,0,17.271-7.732,17.271-17.271v-126.69
	c0-9.538-7.732-17.271-17.271-17.271h-126.69c-9.538,0-17.271,7.732-17.271,17.271v126.69
	C173.234,270.2,180.967,277.932,190.505,277.932z"/>
<polygon style="fill:#B48255;" points="228.655,116.7 228.655,178.456 228.655,178.456 228.655,186.904 237.054,178.505 
	245.452,186.904 253.85,178.505 262.249,186.904 270.647,178.505 279.045,186.904 279.045,178.456 279.045,162.8 279.045,116.7 "/>
<path style="fill:#3C5A73;" d="M381.741,56.446h-60.15c-6.657,0-12.053-5.396-12.053-12.052s5.396-12.052,12.053-12.052h60.15
	c6.656,0,12.053,5.396,12.053,12.052S388.398,56.446,381.741,56.446z"/>
<path style="fill:#1C9585;" d="M411.199,41.528L411.199,41.528c0-3.149,2.552-5.701,5.701-5.701h12.983
	C422.225,15.18,400.341,2.8,378.218,7.658c-22.647,4.973-37.506,26.246-34.966,48.789h89.164c0.339-3.02,0.376-6.105,0.083-9.218
	h-15.6C413.752,47.228,411.199,44.676,411.199,41.528z"/>
<path style="fill:#BA6746;" d="M276.764,224.488l77.618,2.703c6.379,0.225,12.444-2.758,16.163-7.946l52.533-75.469
	c6.131-8.556,4.164-20.461-4.392-26.592c-8.552-6.136-20.461-4.164-26.592,4.392l-48.106,67.14l-65.882-2.32
	c-10.519-0.37-19.346,7.856-19.717,18.375C258.018,215.277,266.236,224.118,276.764,224.488z"/>
<path style="fill:#39AE96;" d="M396.105,182.523l26.972-38.748c6.13-8.556,4.164-20.461-4.392-26.592
	c-8.552-6.135-20.461-4.164-26.592,4.392l-28.038,39.131L396.105,182.523z"/>
<path style="fill:#343E6B;" d="M37.159,512c13.477,0,24.402-10.925,24.402-24.402V292.553c0-13.477-10.925-24.402-24.402-24.402
	s-24.402,10.925-24.402,24.402v195.045C12.758,501.075,23.683,512,37.159,512z"/>
<path style="fill:#414B82;" d="M96.065,512c13.477,0,24.402-10.925,24.402-24.402V292.553c0-13.477-10.925-24.402-24.402-24.402
	s-24.402,10.925-24.402,24.402v195.045C71.664,501.075,82.589,512,96.065,512z"/>
<path style="fill:#64AFFF;" d="M120.467,292.553H12.758v-163.66c0-17.469,14.162-31.631,31.631-31.631h44.448
	c17.469,0,31.631,14.162,31.631,31.631L120.467,292.553L120.467,292.553z"/>
<g>
	<circle style="fill:#FFB69E;" cx="66.621" cy="42.14" r="42.14"/>
	<path style="fill:#FFB69E;" d="M110.389,198.126l-62.808-56.601c-8.918-8.037-9.632-21.781-1.596-30.699
		c8.037-8.918,21.781-9.633,30.699-1.596l54.978,49.545l60.809-10.406c11.835-2.027,23.068,5.926,25.092,17.759
		c2.025,11.833-5.925,23.067-17.759,25.092l-71.198,12.184C122.074,204.523,115.354,202.6,110.389,198.126z"/>
</g>
<path style="fill:#78BEFF;" d="M119.926,148.198L76.685,109.23c-8.918-8.037-22.663-7.322-30.699,1.596s-7.322,22.663,1.596,30.699
	l44.337,39.955L119.926,148.198z"/>
<g>
</g>
<g>
</g>
<g>
</g>
<g>
</g>
<g>
</g>
<g>
</g>
<g>
</g>
<g>
</g>
<g>
</g>
<g>
</g>
<g>
</g>
<g>
</g>
<g>
</g>
<g>
</g>
<g>
</g>
</svg>
