<!--
  - Copyright (c) 2023. Selldone® Business OS™
  -
  - Author: M.Pajuhaan
  - Web: https://selldone.com
  - ━━━━━━━━━━━━━━━━━━━━━━━━━━━━━━━━━━━━━━━━━━━━━━━━━━━━━━
  -
  - All rights reserved. In the weave of time, where traditions and innovations intermingle, this content was crafted.
  - From the essence of thought, through the corridors of creativity, each word, and sentiment has been molded.
  - Not just to exist, but to inspire. Like an artist's stroke or a sculptor's chisel, every nuance is deliberate.
  - Our journey is not just about reaching a destination, but about creating a masterpiece.
  - Tread carefully, for you're treading on dreams.
  -->

<svg id="svg8" height="512" viewBox="0 0 33.866666 33.866668" width="512" xmlns="http://www.w3.org/2000/svg" xmlns:svg="http://www.w3.org/2000/svg"><linearGradient id="linearGradient3363" gradientUnits="userSpaceOnUse" x1="-180.440378" x2="-180.440378" y1="97.375304" y2="99.607314"><stop id="stop2198" offset="0" stop-color="#f6f600"/><stop id="stop2200" offset="1" stop-color="#f69134"/></linearGradient><g id="layer1"><path id="path50970" d="m21.16666 1.058333h9.028912c1.46579 0 2.64583 1.18004 2.64583 2.64583v11.411539c0 1.46579-1.18004 2.64583-2.64583 2.64583h-9.028912c-1.46579 0-2.64583-1.18004-2.64583-2.64583v-11.411539c0-1.46579 1.18004-2.64583 2.64583-2.64583z" fill="#00a1ff" stroke-linecap="round" stroke-linejoin="round" stroke-width="5.292" paint-order="fill markers stroke"/><path id="rect47623" d="m3.70416 1.058333h9.028912c1.46579 0 2.64583 1.18004 2.64583 2.64583v11.411539c0 1.46579-1.18004 2.64583-2.64583 2.64583h-9.028912c-1.46579 0-2.64583-1.18004-2.64583-2.64583v-11.411539c0-1.46579 1.18004-2.64583 2.64583-2.64583z" fill="#00a1ff" stroke-linecap="round" stroke-linejoin="round" stroke-width="5.292" paint-order="fill markers stroke"/><path id="path48217-6" d="m2.3818886 23.135172c-.7309.00072-1.3239-.5914-1.3242-1.32228.0004-.73088.5933-1.32298 1.3242-1.32226h12.2039844c.7301.00037 1.32189.59214 1.3222 1.32226-.00027.73013-.5921 1.32191-1.3222 1.32228z" fill="#ffb43f" font-variant-ligatures="normal" font-variant-position="normal" font-variant-caps="normal" font-variant-numeric="normal" font-variant-alternates="normal" font-variant-east-asian="normal" font-feature-settings="normal" font-variation-settings="normal" text-indent="0" text-align="start" text-decoration-line="none" text-decoration-style="solid" text-decoration-color="#000000" text-transform="none" text-orientation="mixed" white-space="normal" shape-padding="0" shape-margin="0" inline-size="0" isolation="auto" mix-blend-mode="normal" solid-color="#000000" solid-opacity="1" vector-effect="none" paint-order="markers fill stroke"/><path id="path48225-0" d="m2.3818886 25.532292c-.7309-.00072-1.3239.5914-1.3242 1.32228.0004.73088.5933 1.32298 1.3242 1.32226h12.2039844c.7301-.00026 1.32189-.59214 1.3222-1.32226-.00027-.73013-.5921-1.32191-1.3222-1.32228z" fill="#c0e0ff" font-variant-ligatures="normal" font-variant-position="normal" font-variant-caps="normal" font-variant-numeric="normal" font-variant-alternates="normal" font-variant-east-asian="normal" font-feature-settings="normal" font-variation-settings="normal" text-indent="0" text-align="start" text-decoration-line="none" text-decoration-style="solid" text-decoration-color="#000000" text-transform="none" text-orientation="mixed" white-space="normal" shape-padding="0" shape-margin="0" inline-size="0" isolation="auto" mix-blend-mode="normal" solid-color="#000000" solid-opacity="1" vector-effect="none" paint-order="markers fill stroke"/><path id="path50458" d="m2.3818886 30.162502c-.7309-.00072-1.3239.5914-1.3242 1.32228.0004.73088.5933 1.32298 1.3242 1.32226h12.2039844c.7301-.00026 1.32189-.59214 1.3222-1.32226-.00027-.73013-.5921-1.32191-1.3222-1.32228z" fill="#c0e0ff" font-variant-ligatures="normal" font-variant-position="normal" font-variant-caps="normal" font-variant-numeric="normal" font-variant-alternates="normal" font-variant-east-asian="normal" font-feature-settings="normal" font-variation-settings="normal" text-indent="0" text-align="start" text-decoration-line="none" text-decoration-style="solid" text-decoration-color="#000000" text-transform="none" text-orientation="mixed" white-space="normal" shape-padding="0" shape-margin="0" inline-size="0" isolation="auto" mix-blend-mode="normal" solid-color="#000000" solid-opacity="1" vector-effect="none" paint-order="markers fill stroke"/><path id="path50775" d="m19.285513 23.135172c-.7309.00072-1.3239-.5914-1.3242-1.32228.0004-.73088.5933-1.32298 1.3242-1.32226h12.203985c.7301.00037 1.32189.59214 1.3222 1.32226-.00027.73013-.5921 1.32191-1.3222 1.32228z" fill="#ffb43f" font-variant-ligatures="normal" font-variant-position="normal" font-variant-caps="normal" font-variant-numeric="normal" font-variant-alternates="normal" font-variant-east-asian="normal" font-feature-settings="normal" font-variation-settings="normal" text-indent="0" text-align="start" text-decoration-line="none" text-decoration-style="solid" text-decoration-color="#000000" text-transform="none" text-orientation="mixed" white-space="normal" shape-padding="0" shape-margin="0" inline-size="0" isolation="auto" mix-blend-mode="normal" solid-color="#000000" solid-opacity="1" vector-effect="none" paint-order="markers fill stroke"/><g fill="#c0e0ff"><path id="path50777" d="m19.285513 25.532292c-.7309-.00072-1.3239.5914-1.3242 1.32228.0004.73088.5933 1.32298 1.3242 1.32226h12.203985c.7301-.00026 1.32189-.59214 1.3222-1.32226-.00027-.73013-.5921-1.32191-1.3222-1.32228z" font-variant-ligatures="normal" font-variant-position="normal" font-variant-caps="normal" font-variant-numeric="normal" font-variant-alternates="normal" font-variant-east-asian="normal" font-feature-settings="normal" font-variation-settings="normal" text-indent="0" text-align="start" text-decoration-line="none" text-decoration-style="solid" text-decoration-color="#000000" text-transform="none" text-orientation="mixed" white-space="normal" shape-padding="0" shape-margin="0" inline-size="0" isolation="auto" mix-blend-mode="normal" solid-color="#000000" solid-opacity="1" vector-effect="none" paint-order="markers fill stroke"/><path id="path50779" d="m19.285513 30.162502c-.7309-.00072-1.3239.5914-1.3242 1.32228.0004.73088.5933 1.32298 1.3242 1.32226h12.203985c.7301-.00026 1.32189-.59214 1.3222-1.32226-.00027-.73013-.5921-1.32191-1.3222-1.32228z" font-variant-ligatures="normal" font-variant-position="normal" font-variant-caps="normal" font-variant-numeric="normal" font-variant-alternates="normal" font-variant-east-asian="normal" font-feature-settings="normal" font-variation-settings="normal" text-indent="0" text-align="start" text-decoration-line="none" text-decoration-style="solid" text-decoration-color="#000000" text-transform="none" text-orientation="mixed" white-space="normal" shape-padding="0" shape-margin="0" inline-size="0" isolation="auto" mix-blend-mode="normal" solid-color="#000000" solid-opacity="1" vector-effect="none" paint-order="markers fill stroke"/></g></g></svg>