

<svg id="Capa_1" enable-background="new 0 0 512 512" height="512" viewBox="0 0 512 512" width="512" xmlns="http://www.w3.org/2000/svg" xmlns:xlink="http://www.w3.org/1999/xlink"><linearGradient id="SVGID_1_" gradientUnits="userSpaceOnUse" x1="256" x2="256" y1="482" y2="30"><stop offset="0" stop-color="#ffe59a"/><stop offset="1" stop-color="#ffffd5"/></linearGradient><linearGradient id="SVGID_2_" gradientUnits="userSpaceOnUse" x1="256" x2="256" y1="512" y2="0"><stop offset="0" stop-color="#fd5900"/><stop offset="1" stop-color="#ffde00"/></linearGradient><g><g><g><path d="m150 30h-75c-8.291 0-15 6.709-15 15s6.709 15 15 15h75c8.291 0 15-6.709 15-15s-6.709-15-15-15zm151 0h-90c-8.291 0-15 6.709-15 15s6.709 15 15 15h90c8.291 0 15-6.709 15-15s-6.709-15-15-15zm61 30h75c8.291 0 15-6.709 15-15s-6.709-15-15-15h-75c-8.291 0-15 6.709-15 15s6.709 15 15 15zm-212 392h-75c-8.291 0-15 6.709-15 15s6.709 15 15 15h75c8.291 0 15-6.709 15-15s-6.709-15-15-15zm151 0h-90c-8.291 0-15 6.709-15 15s6.709 15 15 15h90c8.291 0 15-6.709 15-15s-6.709-15-15-15zm136 0h-75c-8.291 0-15 6.709-15 15s6.709 15 15 15h75c8.291 0 15-6.709 15-15s-6.709-15-15-15zm-377-90c0-8.291-6.709-15-15-15s-15 6.709-15 15v75c0 8.291 6.709 15 15 15s15-6.709 15-15zm-15-46c8.291 0 15-6.709 15-15v-90c0-8.291-6.709-15-15-15s-15 6.709-15 15v90c0 8.291 6.709 15 15 15zm0-151c8.291 0 15-6.709 15-15v-75c0-8.291-6.709-15-15-15s-15 6.709-15 15v75c0 8.291 6.709 15 15 15zm422 182c-8.291 0-15 6.709-15 15v75c0 8.291 6.709 15 15 15s15-6.709 15-15v-75c0-8.291-6.709-15-15-15zm0-151c-8.291 0-15 6.709-15 15v90c0 8.291 6.709 15 15 15s15-6.709 15-15v-90c0-8.291-6.709-15-15-15zm0-136c-8.291 0-15 6.709-15 15v75c0 8.291 6.709 15 15 15s15-6.709 15-15v-75c0-8.291-6.709-15-15-15zm-265.625 141c-21.839 21.744-20.375 66.821-20.375 100l120 15c8.291 0 15-6.709 15-15l-15-120c-32.988 0-77.91-1.619-99.625 20z" fill="url(#SVGID_1_)"/></g></g><g><g><path d="m301 181v-75c0-8.291-6.709-15-15-15h-180c-8.291 0-15 6.709-15 15v180c0 8.291 6.709 15 15 15h75c0-66.167 53.833-120 120-120zm0 0v105c0 8.291-6.709 15-15 15h-105c0 66.167 53.833 120 120 120s120-53.833 120-120-53.833-120-120-120zm-226 241h-60c-8.291 0-15 6.709-15 15v60c0 8.291 6.709 15 15 15h60c8.291 0 15-6.709 15-15v-60c0-8.291-6.709-15-15-15zm0-422h-60c-8.291 0-15 6.709-15 15v60c0 8.291 6.709 15 15 15h60c8.291 0 15-6.709 15-15v-60c0-8.291-6.709-15-15-15zm422 422h-60c-8.291 0-15 6.709-15 15v60c0 8.291 6.709 15 15 15h60c8.291 0 15-6.709 15-15v-60c0-8.291-6.709-15-15-15zm0-422h-60c-8.291 0-15 6.709-15 15v60c0 8.291 6.709 15 15 15h60c8.291 0 15-6.709 15-15v-60c0-8.291-6.709-15-15-15z" fill="url(#SVGID_2_)"/></g></g></g></svg>