<svg height="512pt" viewBox="0 0 512 512" width="512pt" xmlns="http://www.w3.org/2000/svg"><path d="m480 64h-448c-17.679688 0-32 14.320312-32 32v304h512v-304c0-17.679688-14.320312-32-32-32zm0 0" fill="#48c8ef"/><path d="m176 416h160v80h-160zm0 0" fill="#d7e1f2"/><path d="m448 384h-384v-352c0-17.679688 14.320312-32 32-32h320c17.679688 0 32 14.320312 32 32zm0 0" fill="#80deea"/><g fill="#fff"><path d="m161.472656 237.953125-38.304687-45.953125 38.304687-45.953125c5.648438-6.78125 15.742188-7.710937 22.527344-2.046875s7.695312 15.742188 2.046875 22.527344l-21.214844 25.472656 21.214844 25.472656c5.648437 6.785156 4.738281 16.878906-2.046875 22.527344-6.785156 5.664062-16.878906 4.734375-22.527344-2.046875zm0 0"/><path d="m328 240c-6.785156-5.664062-7.695312-15.742188-2.046875-22.527344l21.214844-25.472656-21.214844-25.472656c-5.664063-6.785156-4.738281-16.863282 2.046875-22.527344s16.878906-4.734375 22.527344 2.046875l38.304687 45.953125-38.304687 45.953125c-5.648438 6.78125-15.742188 7.710937-22.527344 2.046875zm0 0"/><path d="m232 240c-7.902344-3.953125-11.105469-13.566406-7.152344-21.472656l33.679688-67.375c3.953125-7.90625 13.570312-11.105469 21.472656-7.152344s11.105469 13.566406 7.152344 21.472656l-33.679688 67.375c-3.953125 7.90625-13.570312 11.105469-21.472656 7.152344zm0 0"/></g><path d="m0 368v48c0 17.679688 14.320312 32 32 32h448c17.679688 0 32-14.320312 32-32v-48zm0 0" fill="#e4edfb"/><path d="m368 512h-224c-8.832031 0-16-7.167969-16-16s7.167969-16 16-16h224c8.832031 0 16 7.167969 16 16s-7.167969 16-16 16zm0 0" fill="#e4edfb"/></svg>