<!--
  - Copyright (c) 2023. Selldone® Business OS™
  -
  - Author: M.Pajuhaan
  - Web: https://selldone.com
  - ━━━━━━━━━━━━━━━━━━━━━━━━━━━━━━━━━━━━━━━━━━━━━━━━━━━━━━
  -
  - All rights reserved. In the weave of time, where traditions and innovations intermingle, this content was crafted.
  - From the essence of thought, through the corridors of creativity, each word, and sentiment has been molded.
  - Not just to exist, but to inspire. Like an artist's stroke or a sculptor's chisel, every nuance is deliberate.
  - Our journey is not just about reaching a destination, but about creating a masterpiece.
  - Tread carefully, for you're treading on dreams.
  -->

<svg id="Layer_1" enable-background="new 0 0 512.024 512.024" height="512" viewBox="0 0 512.024 512.024" width="512" xmlns="http://www.w3.org/2000/svg"><g><path d="m496.012 217.385-201.373-201.373c-21.349-21.347-55.902-21.351-77.254 0l-201.373 201.373c-21.349 21.348-21.35 55.906 0 77.255l201.373 201.373c21.349 21.347 55.902 21.351 77.254 0l201.373-201.373c21.349-21.348 21.351-55.906 0-77.255zm-22.627 54.627-201.373 201.373c-8.844 8.843-23.155 8.844-32 0l-201.373-201.373c-8.842-8.842-8.843-23.155 0-32l201.373-201.372c8.844-8.843 23.155-8.844 32 0l201.373 201.373c0 .282 6.627 5.472 6.627 16 0 6.044-2.353 11.725-6.627 15.999z"/><path d="m373.372 206.338c-1.253-1.898 2.612 2.216-56.236-57.551-6.2-6.297-16.331-6.376-22.627-.175-6.297 6.2-6.375 16.33-.176 22.626l28.332 28.774h-154.653c-8.837 0-16 7.164-16 16v104c0 8.836 7.163 16 16 16s16-7.164 16-16v-88h136.93l-28.332 28.774c-9.985 10.141-2.666 27.226 11.4 27.226 4.137 0 8.271-1.594 11.402-4.774l52.508-53.329c8.912-5.083 10.085-16.561 5.452-23.571z"/></g></svg>