

<svg height="512" viewBox="0 0 64 64" width="512" xmlns="http://www.w3.org/2000/svg"><g id="Blockchain-Money-Ecommerce-Currency-Coin"><path d="m61 16a13 13 0 0 1 -13 13 12.211 12.211 0 0 1 -1.61-.1 12.82 12.82 0 0 1 -4.31-1.33 12.961 12.961 0 0 1 -5.65-5.65 12.82 12.82 0 0 1 -1.33-4.31 12.211 12.211 0 0 1 -.1-1.61 13 13 0 0 1 26 0z" fill="#ff9811"/><circle cx="48" cy="16" fill="#ffd422" r="9"/><path d="m29 48a13 13 0 1 1 -13-13 12.211 12.211 0 0 1 1.61.1 12.82 12.82 0 0 1 4.31 1.33 12.961 12.961 0 0 1 5.65 5.65 12.82 12.82 0 0 1 1.33 4.31 12.211 12.211 0 0 1 .1 1.61z" fill="#ff9811"/><circle cx="16" cy="48" fill="#ffd422" r="9"/><path d="m48 20.79a7.748 7.748 0 0 1 .49 2.73 8.044 8.044 0 0 1 -.14 1.47c-.11.01-.23.01-.35.01a9.1 9.1 0 0 1 -3.58-.74 3.64 3.64 0 0 0 .07-.74 4.023 4.023 0 0 0 -4.75-3.94 9.1 9.1 0 0 1 -.74-3.58c0-.12 0-.24.01-.35a7.987 7.987 0 0 1 7.13 2.21 7.828 7.828 0 0 1 1.52 2.14 4.952 4.952 0 0 1 .34.79z" fill="#ffd422"/><g fill="#c6c5ca"><path d="m48 25c.12 0 .24 0 .35-.01a7.944 7.944 0 0 1 -1.96 3.91 12.82 12.82 0 0 1 -4.31-1.33l1.23-1.23a3.9 3.9 0 0 0 1.11-2.08 9.1 9.1 0 0 0 3.58.74z"/><path d="m48 20.79a4.952 4.952 0 0 0 -.34-.79 7.828 7.828 0 0 0 -1.52-2.14 7.987 7.987 0 0 0 -7.13-2.21c-.01.11-.01.23-.01.35a9.1 9.1 0 0 0 .74 3.58 4.023 4.023 0 0 1 4.75 3.94 3.64 3.64 0 0 1 -.07.74 9.1 9.1 0 0 0 3.58.74c.12 0 .24 0 .35-.01a8.044 8.044 0 0 0 .14-1.47 7.748 7.748 0 0 0 -.49-2.73z"/><path d="m38.31 31.34a7.724 7.724 0 0 1 .28 2.08 7.832 7.832 0 0 1 -1.12 4.05 7.763 7.763 0 0 0 1.6-1.23l7.07-7.07c.09-.09.17-.18.25-.27a12.82 12.82 0 0 1 -4.31-1.33z"/><path d="m30.59 33.41a3.982 3.982 0 0 1 -1.04-3.86 3.849 3.849 0 0 1 1.04-1.79l2.07-2.07 3.77-3.77a12.82 12.82 0 0 1 -1.33-4.31c-.09.08-.18.16-.27.25l-7.07 7.07a7.763 7.763 0 0 0 -1.23 1.6 7.993 7.993 0 0 0 4.81 11.78l2.07-2.07a3.849 3.849 0 0 0 1.04-1.79 3.982 3.982 0 0 1 -3.86-1.04z"/></g><path d="m25.69 32.66-3.77 3.77a12.82 12.82 0 0 0 -4.31-1.33c.08-.09.16-.18.25-.27l7.07-7.07a7.763 7.763 0 0 1 1.6-1.23 7.915 7.915 0 0 0 -.84 6.13z" fill="#d8d7da"/><path d="m16.34 44a4.952 4.952 0 0 1 -.34-.79 7.909 7.909 0 0 1 -.35-4.2c.11-.01.23-.01.35-.01a9.1 9.1 0 0 1 3.58.74 4.018 4.018 0 0 0 4.68 4.68 9.1 9.1 0 0 1 .74 3.58c0 .12 0 .24-.01.35a7.987 7.987 0 0 1 -7.13-2.21 7.828 7.828 0 0 1 -1.52-2.14z" fill="#ffd422"/><path d="m38.31 31.34a8.008 8.008 0 0 0 -5.65-5.65l-2.07 2.07a3.849 3.849 0 0 0 -1.04 1.79 4.016 4.016 0 0 1 5.04 3.87 3.937 3.937 0 0 1 -.14 1.03 3.849 3.849 0 0 1 -1.04 1.79l-2.07 2.07-3.77 3.77-1.23 1.23a3.9 3.9 0 0 1 -2.08 1.11 4.018 4.018 0 0 1 -4.68-4.68 9.1 9.1 0 0 0 -3.58-.74c-.12 0-.24 0-.35.01a7.909 7.909 0 0 0 .35 4.2 4.952 4.952 0 0 0 .34.79 7.828 7.828 0 0 0 1.52 2.14 7.971 7.971 0 0 0 11.04.25c.09-.08.18-.16.27-.25l7.07-7.07a7.942 7.942 0 0 0 2.07-7.73z" fill="#d8d7da"/><g fill="#ed1c24"><path d="m49 15h-2a1 1 0 0 1 0-2h2a1 1 0 0 1 1 1h2a3 3 0 0 0 -3-3v-1h-2v1a3 3 0 0 0 0 6h2a1 1 0 0 1 0 2h-2a1 1 0 0 1 -1-1h-2a3 3 0 0 0 3 3v1h2v-1a3 3 0 0 0 0-6z"/><path d="m17 47h-2a1 1 0 0 1 0-2h2a1 1 0 0 1 1 1h2a3 3 0 0 0 -3-3v-1h-2v1a3 3 0 0 0 0 6h2a1 1 0 0 1 0 2h-2a1 1 0 0 1 -1-1h-2a3 3 0 0 0 3 3v1h2v-1a3 3 0 0 0 0-6z"/></g></g></svg>