<svg id="Layer_1" enable-background="new 0 0 100 100" height="512" viewBox="0 0 100 100" width="512" xmlns="http://www.w3.org/2000/svg"><g><path d="m88.05 40.89c-1.52-1.57-2.22-3.71-1.91-5.88l.28-1.98c.84-5.93-3.12-11.39-9.02-12.42l-1.97-.35c-2.15-.38-3.98-1.7-5-3.63l-.94-1.76c-2.81-5.29-9.22-7.38-14.6-4.74l-1.8.87c-1.96.96-4.22.96-6.18 0l-1.79-.88c-5.38-2.63-11.79-.55-14.6 4.74l-.94 1.76c-1.03 1.93-2.85 3.26-5 3.63l-1.97.35c-5.9 1.03-9.86 6.49-9.02 12.42l.28 1.98c.31 2.17-.39 4.31-1.91 5.88l-1.39 1.43c-4.17 4.3-4.17 11.05 0 15.35l1.39 1.44c1.52 1.57 2.22 3.71 1.91 5.88l-.28 1.98c-.84 5.93 3.12 11.39 9.02 12.42l1.97.35c2.15.38 3.98 1.7 5 3.63l.94 1.76c1.99 3.74 5.77 5.88 9.73 5.88 1.63 0 3.3-.37 4.87-1.14l1.79-.86c1.96-.96 4.22-.96 6.18 0l1.79.88c5.38 2.63 11.79.55 14.6-4.74l.94-1.76c1.03-1.93 2.85-3.26 5-3.63l1.97-.35c5.9-1.03 9.86-6.49 9.02-12.42l-.28-1.98c-.31-2.17.39-4.31 1.91-5.88l1.39-1.43c4.17-4.3 4.17-11.05 0-15.35zm-1.49 14.01-1.39 1.43c-2.38 2.46-3.48 5.83-3 9.22l.28 1.98c.54 3.78-1.99 7.26-5.75 7.92l-1.97.35c-3.38.59-6.24 2.67-7.84 5.7l-.94 1.76c-1.79 3.37-5.88 4.71-9.31 3.03l-1.79-.88c-3.08-1.51-6.62-1.51-9.7 0l-1.79.88c-3.43 1.68-7.52.35-9.31-3.03l-.94-1.76c-1.61-3.03-4.47-5.11-7.84-5.7l-1.97-.35c-3.76-.66-6.29-4.14-5.75-7.92l.28-1.98c.48-3.4-.61-6.76-3-9.22l-1.39-1.44c-2.66-2.75-2.66-7.04 0-9.79l1.39-1.43c2.38-2.46 3.48-5.83 3-9.22l-.28-1.98c-.54-3.78 1.99-7.26 5.75-7.92l1.97-.35c3.38-.59 6.24-2.67 7.84-5.7l.94-1.76c1.27-2.39 3.68-3.75 6.2-3.75 1.04 0 2.1.23 3.11.72l1.79.88c3.08 1.51 6.62 1.51 9.7 0l1.79-.88c3.43-1.68 7.52-.35 9.31 3.03l.94 1.76c1.61 3.03 4.47 5.11 7.84 5.7l1.97.35c3.76.66 6.29 4.14 5.75 7.92l-.28 1.98c-.48 3.4.61 6.76 3 9.22l1.39 1.44c2.66 2.74 2.66 7.04 0 9.79z"/><path d="m65.91 34.09c-.78-.78-2.05-.78-2.83 0l-28.99 28.99c-.78.78-.78 2.05 0 2.83.39.39.9.59 1.41.59s1.02-.2 1.41-.59l28.99-28.99c.79-.78.79-2.05.01-2.83z"/><path d="m41.87 44.71c2.18 0 4.35-.83 6.01-2.49 3.31-3.31 3.31-8.71 0-12.02s-8.71-3.31-12.02 0c-1.61 1.6-2.49 3.74-2.49 6.01s.88 4.41 2.49 6.01c1.66 1.66 3.83 2.49 6.01 2.49zm-3.18-11.68c.88-.88 2.03-1.32 3.18-1.32s2.3.44 3.18 1.32c1.75 1.75 1.75 4.61 0 6.36-1.76 1.75-4.61 1.75-6.36 0-.85-.85-1.32-1.98-1.32-3.18s.47-2.33 1.32-3.18z"/><path d="m52.12 57.78c-3.31 3.31-3.31 8.71 0 12.02 1.66 1.66 3.83 2.49 6.01 2.49s4.35-.83 6.01-2.49c1.61-1.61 2.49-3.74 2.49-6.01s-.88-4.41-2.49-6.01c-3.31-3.32-8.7-3.32-12.02 0zm9.19 9.19c-1.75 1.75-4.61 1.75-6.36 0s-1.75-4.61 0-6.36c.88-.88 2.03-1.32 3.18-1.32s2.3.44 3.18 1.32c.85.85 1.32 1.98 1.32 3.18s-.47 2.33-1.32 3.18z"/></g></svg>