<?xml version="1.0" encoding="iso-8859-1"?>
<!--
  - Copyright (c) 2023. Selldone® Business OS?
  -
  - Author: M.Pajuhaan
  - Web: https://selldone.com
  - ??????????????????????????????????????????????????????
  -
  - All rights reserved. In the weave of time, where traditions and innovations intermingle, this content was crafted.
  - From the essence of thought, through the corridors of creativity, each word, and sentiment has been molded.
  - Not just to exist, but to inspire. Like an artist's stroke or a sculptor's chisel, every nuance is deliberate.
  - Our journey is not just about reaching a destination, but about creating a masterpiece.
  - Tread carefully, for you're treading on dreams.
  -->

<!-- Generator: Adobe Illustrator 19.0.0, SVG Export Plug-In . SVG Version: 6.00 Build 0)  -->
<svg version="1.1" id="Capa_1" xmlns="http://www.w3.org/2000/svg" xmlns:xlink="http://www.w3.org/1999/xlink" x="0px" y="0px"
	 viewBox="0 0 512 512" style="enable-background:new 0 0 512 512;" xml:space="preserve">
<linearGradient id="SVGID_1_" gradientUnits="userSpaceOnUse" x1="210.57" y1="351.4189" x2="-36.08" y2="30.739" gradientTransform="matrix(1.0039 0 0 -1.0039 0.1922 516.5609)">
	<stop  offset="0" style="stop-color:#FFE7A5"/>
	<stop  offset="0.966" style="stop-color:#FFBF5C"/>
</linearGradient>
<path style="fill:url(#SVGID_1_);" d="M299.934,197.021l-6.437-16.519l-24.168-62.008c-4.641-11.899-15.479-20.265-28.169-21.737
	l-84.319-9.766c-12.034-1.396-23.924,3.622-31.314,13.229L16.761,241.631c-13.331,17.333-10.087,42.194,7.254,55.532l106.783,82.132
	c17.333,13.331,42.194,10.087,55.525-7.245c0,0,17.143-22.289,38.498-50.054l70.317-91.422
	C302.506,220.993,304.313,208.277,299.934,197.021z M188.44,167.209c-1.635-12.598,7.228-24.123,19.817-25.766
	c11.479-1.498,22.074,5.738,25.102,16.583c0.208,0.731,0.379,1.491,0.513,2.263c0.05,0.324,0.107,0.639,0.151,0.972
	c1.642,12.589-7.222,24.114-19.817,25.766c-0.627,0.073-1.248,0.139-1.865,0.163c-0.272,0.019-0.552,0.032-0.819,0.026
	c-0.877,0.01-1.761-0.028-2.619-0.117c-0.294-0.026-0.58-0.061-0.86-0.105c-0.294-0.026-0.582-0.077-0.855-0.131
	C197.578,185.149,189.77,177.404,188.44,167.209z"/>
<linearGradient id="SVGID_2_" gradientUnits="userSpaceOnUse" x1="334.2147" y1="223.793" x2="334.2147" y2="-180.747" gradientTransform="matrix(1.0039 0 0 -1.0039 0.1922 516.5609)">
	<stop  offset="0" style="stop-color:#FF7BAC"/>
	<stop  offset="1" style="stop-color:#E24786"/>
</linearGradient>
<path style="fill:url(#SVGID_2_);" d="M426.022,264.403l-15.173-9.17l-56.962-34.416c-10.934-6.603-24.625-6.626-35.581-0.056
	l-72.79,43.666c-10.391,6.229-16.756,17.457-16.756,29.578v178.402c0,21.866,17.728,39.595,39.606,39.595h134.715
	c21.866,0,39.595-17.728,39.595-39.595c0,0,0-28.119,0-63.146V293.923C442.677,281.837,436.357,270.655,426.022,264.403z
	 M319.472,308.746c-8.977-8.988-8.977-23.529,0-32.506c8.186-8.186,20.996-8.91,30.007-2.159c0.61,0.453,1.21,0.95,1.786,1.481
	c0.237,0.226,0.475,0.441,0.713,0.679c8.977,8.977,8.977,23.517,0,32.506c-0.453,0.441-0.905,0.87-1.379,1.266
	c-0.204,0.181-0.419,0.361-0.634,0.52c-0.69,0.543-1.413,1.051-2.148,1.504c-0.249,0.159-0.498,0.305-0.746,0.441
	c-0.249,0.159-0.509,0.294-0.758,0.419C337.652,317.395,326.742,316.015,319.472,308.746z"/>
<linearGradient id="SVGID_3_" gradientUnits="userSpaceOnUse" x1="406.9248" y1="136.8824" x2="390.9248" y2="223.8824" gradientTransform="matrix(1.0039 0 0 -1.0039 0.1922 516.5609)">
	<stop  offset="0" style="stop-color:#FF7BAC;stop-opacity:0"/>
	<stop  offset="1" style="stop-color:#E24786"/>
</linearGradient>
<path style="fill:url(#SVGID_3_);" d="M442.677,293.923v115.336l-96.364-96.364v-0.011c0.249-0.136,0.509-0.271,0.758-0.407
	c0.249-0.147,0.498-0.294,0.746-0.441c0.735-0.453,1.459-0.961,2.148-1.504c0.215-0.17,0.43-0.339,0.634-0.52
	c0.475-0.396,0.928-0.825,1.379-1.266c8.977-8.988,8.977-23.529,0-32.506c-0.238-0.238-0.475-0.453-0.713-0.679
	c-0.588-0.531-1.21-1.018-1.831-1.481c0.011,0,0.022,0,0.022,0c0.011,0,0.011,0,0.023,0c22.579-0.475,43.608-7.327,61.371-18.848
	l15.173,9.17C436.357,270.655,442.677,281.837,442.677,293.923z"/>
<linearGradient id="SVGID_4_" gradientUnits="userSpaceOnUse" x1="248.5192" y1="342.666" x2="152.0392" y2="391.0959" gradientTransform="matrix(1.0039 0 0 -1.0039 0.1922 516.5609)">
	<stop  offset="0" style="stop-color:#FF5D00;stop-opacity:0"/>
	<stop  offset="1" style="stop-color:#D54003"/>
</linearGradient>
<path style="fill:url(#SVGID_4_);" d="M293.497,180.502l-24.168-62.008c-4.641-11.899-15.48-20.265-28.169-21.737l-36.916-4.276
	c-8.485,18.861-13.348,39.708-13.664,61.629c-0.001,0.019,0,0.038-0.001,0.056c3.273-6.701,9.729-11.685,17.679-12.723
	c11.479-1.498,22.074,5.738,25.102,16.583c0.208,0.731,0.379,1.491,0.513,2.263c0.05,0.324,0.107,0.639,0.151,0.972
	c1.642,12.589-7.222,24.114-19.817,25.766c-0.627,0.073-1.248,0.139-1.865,0.163c-0.272,0.019-0.552,0.032-0.819,0.026
	c-0.877,0.01-1.761-0.028-2.619-0.117c-0.293-0.026-0.58-0.061-0.86-0.105c-0.294-0.026-0.582-0.077-0.855-0.131
	c-3.006-0.536-5.835-1.662-8.346-3.27l0.014,0.014l74.838,74.846l21.443-27.879c7.369-9.58,9.176-22.297,4.797-33.553
	L293.497,180.502z"/>
<linearGradient id="SVGID_5_" gradientUnits="userSpaceOnUse" x1="235.3169" y1="316.3513" x2="138.8369" y2="364.7713" gradientTransform="matrix(1.0039 0 0 -1.0039 0.1922 516.5609)">
	<stop  offset="0" style="stop-color:#FF5D00;stop-opacity:0"/>
	<stop  offset="1" style="stop-color:#D54003"/>
</linearGradient>
<path style="fill:url(#SVGID_5_);" d="M191.842,176.556c0.002,0.014,0.003,0.028,0.005,0.041l0.062,0.062
	C191.886,176.625,191.864,176.591,191.842,176.556z"/>
<linearGradient id="SVGID_6_" gradientUnits="userSpaceOnUse" x1="398.9995" y1="411.2912" x2="256.4795" y2="271.3412" gradientTransform="matrix(1.0039 0 0 -1.0039 0.1922 516.5609)">
	<stop  offset="0" style="stop-color:#E2EDF2"/>
	<stop  offset="1" style="stop-color:#9FC7E2"/>
</linearGradient>
<path style="fill:url(#SVGID_6_);" d="M347.003,0c-61.906,0-115.524,36.137-140.865,88.424
	c-9.658,19.911-15.217,42.176-15.554,65.682c-0.026,0.776-0.026,1.564-0.026,2.34c0,6.827,0.44,13.563,1.293,20.157
	c0.879,1.383,1.913,2.676,3.116,3.879c8.973,8.986,23.519,8.986,32.505,0c1.383-1.383,2.547-2.896,3.504-4.5
	c-1.073-6.348-1.629-12.877-1.629-19.536c0-2.056,0.051-4.099,0.156-6.129c0.827-16.11,4.913-31.38,11.61-45.149
	c19.097-39.253,59.385-66.379,105.892-66.379c64.879,0,117.658,52.778,117.658,117.658c0,36.073-16.317,68.409-41.956,90.002
	c-19.899,16.77-45.395,27.062-73.245,27.63c-0.814,0.013-1.642,0.026-2.457,0.026c-7.46,0-14.753-0.698-21.825-2.03
	c-2.056,1.047-3.983,2.444-5.702,4.163c-8.986,8.973-8.986,23.531,0,32.504c0.789,0.789,1.616,1.5,2.483,2.146
	c7.939,1.28,16.072,1.966,24.359,2.004h0.686c36.009,0,69.198-12.219,95.665-32.75c36.952-28.626,60.781-73.439,60.781-123.695
	C503.449,70.181,433.268,0,347.003,0z"/>
<linearGradient id="SVGID_7_" gradientUnits="userSpaceOnUse" x1="340.502" y1="91.4373" x2="277.9521" y2="153.9973" gradientTransform="matrix(1.0039 0 0 -1.0039 0.1922 516.5609)">
	<stop  offset="0" style="stop-color:#FF7BAC;stop-opacity:0"/>
	<stop  offset="1" style="stop-color:#E24786"/>
</linearGradient>
<path style="fill:url(#SVGID_7_);" d="M442.677,472.405c0,0,0-0.953,0-2.713L309.857,336.904
	c-5.153-4.121-11.977-6.185-20.471-6.185c-18.66,0-27.989,8.597-27.989,25.788v31.029c0,9.307,2.759,16.073,8.228,20.34L373.745,512
	h29.337C424.949,512,442.677,494.272,442.677,472.405z"/>
<linearGradient id="SVGID_8_" gradientUnits="userSpaceOnUse" x1="406.9193" y1="36.7845" x2="310.6093" y2="133.0945" gradientTransform="matrix(1.0039 0 0 -1.0039 0.1922 516.5609)">
	<stop  offset="0" style="stop-color:#FF7BAC;stop-opacity:0"/>
	<stop  offset="1" style="stop-color:#E24786"/>
</linearGradient>
<path style="fill:url(#SVGID_8_);" d="M379.727,324.85c-1.832-1.536-3.872-2.307-6.126-2.307c-3.066,0-5.156,1.258-6.271,3.774
	l-76.689,154.049c-0.556,0.98-0.834,2.028-0.834,3.144c0,1.956,0.773,3.738,2.322,5.347L315.273,512h87.809
	c21.866,0,39.595-17.728,39.595-39.595c0,0,0-28.119,0-63.146v-21.152L379.727,324.85z"/>
<linearGradient id="SVGID_9_" gradientUnits="userSpaceOnUse" x1="450.7443" y1="2.8995" x2="355.4142" y2="98.2295" gradientTransform="matrix(1.0039 0 0 -1.0039 0.1922 516.5609)">
	<stop  offset="0" style="stop-color:#FF7BAC;stop-opacity:0"/>
	<stop  offset="1" style="stop-color:#E24786"/>
</linearGradient>
<path style="fill:url(#SVGID_9_);" d="M402.315,407.559c-5.153-4.121-11.977-6.185-20.471-6.185
	c-18.66,0-27.989,8.597-27.989,25.788v31.029c0,9.307,2.759,16.073,8.228,20.34L395.549,512h7.532
	c21.866,0,39.595-17.728,39.595-39.595c0,0,0-9.573,0-24.494L402.315,407.559z"/>
<linearGradient id="SVGID_10_" gradientUnits="userSpaceOnUse" x1="334.2162" y1="154.053" x2="334.2162" y2="-33.577" gradientTransform="matrix(1.0039 0 0 -1.0039 0.1922 516.5609)">
	<stop  offset="0" style="stop-color:#FFFFFF"/>
	<stop  offset="1" style="stop-color:#E2EDF2"/>
</linearGradient>
<path style="fill:url(#SVGID_10_);" d="M261.395,387.537v-31.029c0-17.192,9.329-25.788,27.989-25.788
	c8.494,0,15.318,2.064,20.471,6.185c5.15,4.124,7.728,10.66,7.728,19.604v31.029c0,8.946-2.578,15.481-7.728,19.603
	c-5.153,4.124-11.977,6.185-20.471,6.185C270.725,413.325,261.395,404.729,261.395,387.537z M276.281,387.186
	c0,8.061,4.367,12.091,13.104,12.091c8.874,0,13.313-4.03,13.313-12.091v-30.328c0-8.059-4.438-12.091-13.313-12.091
	c-8.737,0-13.104,4.033-13.104,12.091V387.186z M289.808,483.511c0-1.116,0.278-2.165,0.834-3.144l76.689-154.049
	c1.114-2.516,3.205-3.774,6.271-3.774c2.254,0,4.294,0.77,6.126,2.307c1.83,1.54,2.748,3.426,2.748,5.66
	c0,1.12-0.21,2.238-0.626,3.355l-76.695,153.419c-1.255,2.653-3.624,3.984-7.106,3.984c-2.397,0-4.369-0.806-5.919-2.41
	C290.581,487.248,289.808,485.466,289.808,483.511z M353.854,458.624v-31.265c0-17.323,9.329-25.984,27.989-25.984
	c8.494,0,15.318,2.08,20.471,6.234c5.15,4.154,7.728,10.738,7.728,19.75v31.265c0,9.015-2.578,15.6-7.728,19.753
	c-5.153,4.154-11.977,6.23-20.471,6.23C363.184,484.608,353.854,475.946,353.854,458.624z M368.741,458.332
	c0,8.154,4.367,12.229,13.104,12.229c8.874,0,13.313-4.075,13.313-12.229v-30.682c0-8.15-4.438-12.229-13.313-12.229
	c-8.737,0-13.104,4.079-13.104,12.229V458.332z"/>
<linearGradient id="SVGID_11_" gradientUnits="userSpaceOnUse" x1="215.9465" y1="196.7423" x2="-32.7635" y2="348.4123" gradientTransform="matrix(1.0039 0 0 -1.0039 0.1922 516.5609)">
	<stop  offset="0" style="stop-color:#FF5D00;stop-opacity:0"/>
	<stop  offset="1" style="stop-color:#D54003"/>
</linearGradient>
<path style="fill:url(#SVGID_11_);" d="M185.948,372.162c0,0,0.583-0.754,1.661-2.144l-23.67-186.317
	c-1.549-6.414-5.68-12.224-12.394-17.426c-14.751-11.429-27.391-10.346-37.92,3.244l-19.003,24.529
	c-5.7,7.358-7.663,14.395-5.953,21.118l18.54,146.08l23.192,17.967C147.684,392.605,172.556,389.447,185.948,372.162z"/>
<linearGradient id="SVGID_12_" gradientUnits="userSpaceOnUse" x1="146.3488" y1="218.1706" x2="129.1888" y2="353.2906" gradientTransform="matrix(1.0039 0 0 -1.0039 0.1922 516.5609)">
	<stop  offset="0" style="stop-color:#FF5D00;stop-opacity:0"/>
	<stop  offset="1" style="stop-color:#D54003"/>
</linearGradient>
<path style="fill:url(#SVGID_12_);" d="M226.556,216.965c-0.507-2.336-1.648-4.194-3.429-5.575
	c-2.423-1.878-4.847-2.163-7.268-0.857l-154.97,74.809c-1.04,0.434-1.901,1.091-2.586,1.975c-1.198,1.546-1.679,3.428-1.439,5.649
	l4.121,32.468l69.414,53.779c17.286,13.392,42.158,10.235,55.55-7.051c0,0,17.221-22.228,38.674-49.918l12.955-16.72
	L226.556,216.965z"/>
<linearGradient id="SVGID_13_" gradientUnits="userSpaceOnUse" x1="230.3316" y1="119.9929" x2="-18.3784" y2="340.0929" gradientTransform="matrix(1.0039 0 0 -1.0039 0.1922 516.5609)">
	<stop  offset="0" style="stop-color:#FF5D00;stop-opacity:0"/>
	<stop  offset="1" style="stop-color:#D54003"/>
</linearGradient>
<path style="fill:url(#SVGID_13_);" d="M193.756,296.181c-1.549-6.414-5.68-12.224-12.394-17.426
	c-14.751-11.429-27.391-10.346-37.92,3.244l-19.003,24.529c-5.7,7.358-7.663,14.395-5.953,21.118l5.959,46.953l5.954,4.613
	c17.286,13.392,42.158,10.235,55.55-7.051c0,0,5.864-7.569,15.002-19.363L193.756,296.181z"/>
<linearGradient id="SVGID_14_" gradientUnits="userSpaceOnUse" x1="168.2306" y1="296.1085" x2="53.3206" y2="147.7885" gradientTransform="matrix(1.0039 0 0 -1.0039 0.1922 516.5609)">
	<stop  offset="0" style="stop-color:#FFFFFF"/>
	<stop  offset="1" style="stop-color:#E2EDF2"/>
</linearGradient>
<path style="fill:url(#SVGID_14_);" d="M94.621,194.047l19.003-24.529c10.529-13.59,23.17-14.671,37.92-3.244
	c6.714,5.202,10.845,11.013,12.394,17.426c1.545,6.414-0.42,13.159-5.897,20.23l-19.003,24.529
	c-5.479,7.072-11.52,10.66-18.115,10.763c-6.6,0.104-13.256-2.446-19.97-7.648C86.202,220.147,84.091,207.637,94.621,194.047z
	 M106.603,202.887c-4.937,6.373-3.953,12.233,2.954,17.584c7.015,5.435,12.992,4.967,17.929-1.405l18.575-23.975
	c4.935-6.37,3.896-12.276-3.119-17.711c-6.907-5.351-12.828-4.838-17.763,1.532L106.603,202.887z M58.302,287.316
	c0.684-0.882,1.546-1.541,2.586-1.975l154.97-74.809c2.421-1.306,4.844-1.021,7.268,0.857c1.781,1.38,2.922,3.239,3.429,5.575
	c0.504,2.338,0.074,4.391-1.294,6.158c-0.687,0.885-1.536,1.64-2.55,2.269L68.123,299.7c-2.617,1.329-5.305,0.93-8.057-1.203
	c-1.895-1.468-2.961-3.313-3.203-5.531C56.623,290.745,57.104,288.862,58.302,287.316z M124.173,306.869l19.149-24.716
	c10.609-13.694,23.289-14.827,38.041-3.398c6.714,5.202,10.834,11.026,12.364,17.465c1.527,6.437-0.468,13.222-5.987,20.345
	l-19.149,24.716c-5.522,7.127-11.592,10.753-18.207,10.883c-6.618,0.128-13.284-2.409-19.998-7.612
	C115.635,333.123,113.564,320.562,124.173,306.869z M136.119,315.755c-4.993,6.445-4.038,12.341,2.869,17.692
	c7.015,5.435,13.02,4.931,18.013-1.514l18.791-24.255c4.992-6.443,3.981-12.385-3.034-17.821
	c-6.907-5.351-12.857-4.801-17.849,1.641L136.119,315.755z"/>
<g>
</g>
<g>
</g>
<g>
</g>
<g>
</g>
<g>
</g>
<g>
</g>
<g>
</g>
<g>
</g>
<g>
</g>
<g>
</g>
<g>
</g>
<g>
</g>
<g>
</g>
<g>
</g>
<g>
</g>
</svg>
