<!--
  - Copyright (c) 2023. Selldone® Business OS™
  -
  - Author: M.Pajuhaan
  - Web: https://selldone.com
  - ━━━━━━━━━━━━━━━━━━━━━━━━━━━━━━━━━━━━━━━━━━━━━━━━━━━━━━
  -
  - All rights reserved. In the weave of time, where traditions and innovations intermingle, this content was crafted.
  - From the essence of thought, through the corridors of creativity, each word, and sentiment has been molded.
  - Not just to exist, but to inspire. Like an artist's stroke or a sculptor's chisel, every nuance is deliberate.
  - Our journey is not just about reaching a destination, but about creating a masterpiece.
  - Tread carefully, for you're treading on dreams.
  -->

<svg id="Capa_1" enable-background="new 0 0 512 512" height="512" viewBox="0 0 512 512" width="512" xmlns="http://www.w3.org/2000/svg" xmlns:xlink="http://www.w3.org/1999/xlink"><linearGradient id="SVGID_1_" gradientUnits="userSpaceOnUse" x1="256" x2="256" y1="360" y2="149.987"><stop offset="0" stop-color="#ffe59a"/><stop offset="1" stop-color="#ffffd5"/></linearGradient><linearGradient id="SVGID_2_" gradientUnits="userSpaceOnUse" x1="256" x2="256" y1="210" y2="150"><stop offset="0" stop-color="#ffedad"/><stop offset="1" stop-color="#ffffe5"/></linearGradient><linearGradient id="SVGID_3_" gradientUnits="userSpaceOnUse" x1="256" x2="256" y1="512" y2="0"><stop offset="0" stop-color="#fd5900"/><stop offset="1" stop-color="#ffde00"/></linearGradient><g><g><g><path d="m158.5 293.965-65.889 38.042c-7.178 4.146-9.639 13.315-5.493 20.493 2.783 4.819 7.822 7.5 13.008 7.5 2.549 0 5.127-.645 7.485-2.007l65.889-38.042c7.178-4.146 9.639-13.315 5.493-20.493-4.16-7.207-13.374-9.668-20.493-5.493zm187.515-75.923c2.549 0 5.127-.645 7.485-2.007l65.889-38.042c7.178-4.146 9.639-13.315 5.493-20.493-4.175-7.207-13.359-9.639-20.493-5.493l-65.889 38.042c-7.178 4.146-9.639 13.315-5.493 20.493 2.783 4.819 7.822 7.5 13.008 7.5zm-172.515-27.993-65.889-38.042c-7.163-4.146-16.348-1.714-20.493 5.493-4.146 7.178-1.685 16.348 5.493 20.493l65.889 38.042c2.358 1.362 4.937 2.007 7.485 2.007 5.186 0 10.225-2.681 13.008-7.5 4.146-7.178 1.685-16.348-5.493-20.493zm82.5 139.951c-8.291 0-15 6.709-15 15v92c0 8.291 6.709 15 15 15s15-6.709 15-15v-92c0-8.291-6.709-15-15-15zm163.389 2.007-65.889-38.042c-7.192-4.175-16.333-1.714-20.493 5.493-4.146 7.178-1.685 16.348 5.493 20.493l65.889 38.042c2.358 1.362 4.937 2.007 7.485 2.007 5.186 0 10.225-2.681 13.008-7.5 4.145-7.178 1.684-16.348-5.493-20.493zm-163.389-272.007c-8.401 0-15 6.599-15 15v75h30v-75c0-8.401-6.599-15-15-15z" fill="url(#SVGID_1_)"/></g></g><g><path d="m271 150v45c0 8.399-6.599 15-15 15s-15-6.601-15-15v-45z" fill="url(#SVGID_2_)"/></g><g><g><path d="m346 150h-75v15c0 8.399-6.599 15-15 15s-15-6.601-15-15v-15h-75c-8.401 0-15 6.599-15 15v180c0 8.399 6.599 15 15 15h180c8.401 0 15-6.601 15-15v-180c0-8.401-6.599-15-15-15zm-249.346-38.979c-.015 0-.015 0-.03 0-21.503-12.407-49.057-4.995-61.464 16.494-12.393 21.489-4.995 49.058 16.479 61.465 6.929 3.999 14.619 6.035 22.427 6.035 3.896 0 7.837-.513 11.719-1.553 11.616-3.105 21.313-10.562 27.319-20.962 12.408-21.475 5.025-49.058-16.45-61.479zm-10.869 205.517c-11.631-3.105-23.745-1.523-34.146 4.482-21.474 12.408-28.871 39.976-16.479 61.48 8.335 14.414 23.481 22.485 39.053 22.485 7.632 0 15.366-1.934 22.441-6.006 21.475-12.422 28.857-40.005 16.45-61.465-6.005-10.414-15.703-17.87-27.319-20.976zm374.575 4.483c-10.386-5.977-22.471-7.588-34.146-4.482-11.616 3.105-21.313 10.562-27.319 20.962-12.407 21.475-5.024 49.058 16.479 61.479 7.061 4.072 14.781 6.006 22.398 6.006 15.571 0 30.732-8.071 39.067-22.5 12.393-21.49 4.996-49.058-16.479-61.465zm-204.36-231.021c24.814 0 45-20.186 45-45s-20.186-45-45-45-45 20.186-45 45 20.186 45 45 45zm170.215 103.462c3.882 1.04 7.808 1.553 11.719 1.553 7.793 0 15.498-2.036 22.427-6.035 21.475-12.407 28.872-39.976 16.479-61.479-12.422-21.489-40.005-28.901-61.466-16.479-.014 0-.014 0-.029 0-21.475 12.422-28.857 40.005-16.45 61.465 6.006 10.413 15.704 17.869 27.32 20.975zm-170.215 228.538c-24.814 0-45 20.186-45 45s20.186 45 45 45 45-20.186 45-45-20.186-45-45-45z" fill="url(#SVGID_3_)"/></g></g></g></svg>