<?xml version="1.0" encoding="iso-8859-1"?>
<!-- Generator: Adobe Illustrator 19.0.0, SVG Export Plug-In . SVG Version: 6.00 Build 0)  -->
<svg version="1.1" id="Layer_1" xmlns="http://www.w3.org/2000/svg" xmlns:xlink="http://www.w3.org/1999/xlink" x="0px" y="0px"
	 viewBox="0 0 291.837 291.837" style="enable-background:new 0 0 291.837 291.837;" xml:space="preserve">
<g>
	<path style="fill:#3DB39E;" d="M127.551,260.281v29.97c3.948,1.049,7.011,1.586,17.779,1.586c10.759,0,14.989-0.538,18.928-1.586
		v-29.97c20.724-3.155,40.674-10.576,53.548-22.274c12.856-11.68,19.302-26.231,19.302-43.573c0-31.538-18.254-54.277-54.761-68.209
		l-36.243-13.804c-6.3-2.371-10.896-4.595-13.786-6.711c-2.89-2.097-4.349-4.987-4.349-8.671c0-9.993,7.094-14.989,21.271-14.989
		c14.187,0,34.392,5.261,60.66,15.764c6.3-5.252,11.424-12.281,15.372-21.089c3.939-8.808,5.899-17.679,5.899-26.624
		c-25.73-10.832-48.433-14.853-67.069-16.959V1.979C159.118,0.656,156.609,0,146.882,0c-9.701,0-14.233,0.656-19.193,1.979v31.547
		c-18.126,3.419-33.909,8.762-46.774,23.268c-10.914,12.309-16.731,26.815-16.731,44.175c0,28.921,17.588,50.083,52.782,63.495
		l37.419,13.412c11.816,4.468,17.716,10.786,17.716,18.928c0,5.252-2.225,9.264-6.692,12.026c-4.459,2.754-10.494,4.13-18.108,4.13
		c-19.439,0-42.807-7.23-70.115-21.691c-5.781,3.948-10.905,10.576-15.363,19.922c-4.468,9.336-6.838,17.816-7.094,25.438
		C84.79,254.811,98.932,256.343,127.551,260.281z"/>
</g>
<g>
</g>
<g>
</g>
<g>
</g>
<g>
</g>
<g>
</g>
<g>
</g>
<g>
</g>
<g>
</g>
<g>
</g>
<g>
</g>
<g>
</g>
<g>
</g>
<g>
</g>
<g>
</g>
<g>
</g>
</svg>
