<svg xmlns:xlink="http://www.w3.org/1999/xlink" id="Layer_1" enable-background="new 0 0 64 64" height="512" viewBox="0 0 64 64"
     width="512" xmlns="http://www.w3.org/2000/svg">
    <linearGradient id="SVGID_1_" gradientUnits="userSpaceOnUse" x1="4.156" x2="55.723" y1="60.723" y2="9.156">
        <stop offset="0" stop-color="#165c92"/>
        <stop offset="1" stop-color="#3d9ae2"/>
    </linearGradient>
    <linearGradient id="lg1">
        <stop offset="0" stop-color="#ffb655"/>
        <stop offset="1" stop-color="#ffdaaa"/>
    </linearGradient>
    <linearGradient id="SVGID_2_" gradientUnits="userSpaceOnUse" x1="43.338" x2="55.662" xlink:href="#lg1" y1="66.662"
                    y2="54.338"/>
    <linearGradient id="lg2">
        <stop offset="0" stop-color="#ffa733"/>
        <stop offset="1" stop-color="#ee8700"/>
    </linearGradient>
    <linearGradient id="SVGID_3_" gradientUnits="userSpaceOnUse" x1="41.338" x2="53.662" xlink:href="#lg2" y1="59.662"
                    y2="47.338"/>
    <linearGradient id="SVGID_4_" gradientUnits="userSpaceOnUse" x1="43.338" x2="55.662" xlink:href="#lg1" y1="52.662"
                    y2="40.338"/>
    <linearGradient id="SVGID_5_" gradientUnits="userSpaceOnUse" x1="54.543" x2="56.457" xlink:href="#lg2" y1="47.457"
                    y2="45.543"/>
    <linearGradient id="SVGID_6_" gradientUnits="userSpaceOnUse" x1="50.543" x2="52.457" xlink:href="#lg2" y1="47.457"
                    y2="45.543"/>
    <linearGradient id="SVGID_7_" gradientUnits="userSpaceOnUse" x1="46.543" x2="48.457" xlink:href="#lg2" y1="47.457"
                    y2="45.543"/>
    <linearGradient id="SVGID_8_" gradientUnits="userSpaceOnUse" x1="42.543" x2="44.457" xlink:href="#lg2" y1="47.457"
                    y2="45.543"/>
    <linearGradient id="SVGID_9_" gradientUnits="userSpaceOnUse" x1="54.543" x2="56.457" xlink:href="#lg2" y1="61.457"
                    y2="59.543"/>
    <linearGradient id="SVGID_10_" gradientUnits="userSpaceOnUse" x1="50.543" x2="52.457" xlink:href="#lg2" y1="61.457"
                    y2="59.543"/>
    <linearGradient id="SVGID_11_" gradientUnits="userSpaceOnUse" x1="46.543" x2="48.457" xlink:href="#lg2" y1="61.457"
                    y2="59.543"/>
    <linearGradient id="SVGID_12_" gradientUnits="userSpaceOnUse" x1="42.543" x2="44.457" xlink:href="#lg2" y1="61.457"
                    y2="59.543"/>
    <linearGradient id="SVGID_13_" gradientUnits="userSpaceOnUse" x1="52.543" x2="54.457" xlink:href="#lg1" y1="54.457"
                    y2="52.543"/>
    <linearGradient id="SVGID_14_" gradientUnits="userSpaceOnUse" x1="48.543" x2="50.457" xlink:href="#lg1" y1="54.457"
                    y2="52.543"/>
    <linearGradient id="SVGID_15_" gradientUnits="userSpaceOnUse" x1="44.543" x2="46.457" xlink:href="#lg1" y1="54.457"
                    y2="52.543"/>
    <linearGradient id="SVGID_16_" gradientUnits="userSpaceOnUse" x1="40.543" x2="42.457" xlink:href="#lg1" y1="54.457"
                    y2="52.543"/>
    <linearGradient id="SVGID_17_" gradientUnits="userSpaceOnUse" x1="15.75" x2="38.25" xlink:href="#lg1" y1="24.25"
                    y2="1.75"/>
    <linearGradient id="lg3">
        <stop offset="0" stop-color="#5aaae7"/>
        <stop offset="1" stop-color="#b3d8f4"/>
    </linearGradient>
    <linearGradient id="SVGID_18_" gradientUnits="userSpaceOnUse" x1="11.338" x2="15.662" xlink:href="#lg3" y1="28.662"
                    y2="24.338"/>
    <linearGradient id="SVGID_19_" gradientUnits="userSpaceOnUse" x1="20.838" x2="26.162" xlink:href="#lg3" y1="29.162"
                    y2="23.838"/>
    <linearGradient id="SVGID_20_" gradientUnits="userSpaceOnUse" x1="33.088" x2="40.912" xlink:href="#lg3" y1="30.412"
                    y2="22.588"/>
    <linearGradient id="SVGID_21_" gradientUnits="userSpaceOnUse" x1="11.088" x2="15.912" xlink:href="#lg3" y1="38.412"
                    y2="33.588"/>
    <linearGradient id="SVGID_22_" gradientUnits="userSpaceOnUse" x1="20.088" x2="24.912" xlink:href="#lg3" y1="38.412"
                    y2="33.588"/>
    <linearGradient id="SVGID_23_" gradientUnits="userSpaceOnUse" x1="29.088" x2="33.912" xlink:href="#lg3" y1="38.412"
                    y2="33.588"/>
    <linearGradient id="SVGID_24_" gradientUnits="userSpaceOnUse" x1="38.088" x2="42.912" xlink:href="#lg3" y1="38.412"
                    y2="33.588"/>
    <linearGradient id="SVGID_25_" gradientUnits="userSpaceOnUse" x1="11.088" x2="15.912" xlink:href="#lg3" y1="48.412"
                    y2="43.588"/>
    <linearGradient id="SVGID_26_" gradientUnits="userSpaceOnUse" x1="20.088" x2="24.912" xlink:href="#lg3" y1="48.412"
                    y2="43.588"/>
    <linearGradient id="SVGID_27_" gradientUnits="userSpaceOnUse" x1="29.088" x2="33.912" xlink:href="#lg3" y1="48.412"
                    y2="43.588"/>
    <linearGradient id="SVGID_28_" gradientUnits="userSpaceOnUse" x1="29.088" x2="33.912" xlink:href="#lg3" y1="58.412"
                    y2="53.588"/>
    <linearGradient id="SVGID_29_" gradientUnits="userSpaceOnUse" x1="11.088" x2="15.912" xlink:href="#lg3" y1="58.412"
                    y2="53.588"/>
    <linearGradient id="SVGID_30_" gradientUnits="userSpaceOnUse" x1="20.088" x2="24.912" xlink:href="#lg3" y1="58.412"
                    y2="53.588"/>
    <linearGradient id="lg4">
        <stop offset="0" stop-color="#00b6bd"/>
        <stop offset="1" stop-color="#00aa95"/>
    </linearGradient>
    <linearGradient id="SVGID_31_" gradientUnits="userSpaceOnUse" x1="23.293" x2="27.707" xlink:href="#lg4" y1="15.207"
                    y2="10.793"/>
    <linearGradient id="SVGID_32_" gradientUnits="userSpaceOnUse" x1="27.88" x2="33.12" xlink:href="#lg4" y1="15.62"
                    y2="10.38"/>
    <linearGradient id="SVGID_33_" gradientUnits="userSpaceOnUse" x1="34.88" x2="40.12" xlink:href="#lg4" y1="15.62"
                    y2="10.38"/>
    <g>
        <path d="m59.5 48v-3c0-1.1-.9-2-2-2h-8v-38c0-2.757-2.243-5-5-5h-35c-2.757 0-5 2.243-5 5v54c0 2.757 2.243 5 5 5h48c1.1 0 2-.9 2-2v-3c0-1.1-.9-2-2-2h-2c1.1 0 2-.9 2-2v-3c0-1.1-.9-2-2-2h2c1.1 0 2-.9 2-2z"
              fill="url(#SVGID_1_)"/>
        <g>
            <g>
                <g>
                    <g>
                        <path d="m39.5 62c0 1.1.9 2 2 2h16c1.1 0 2-.9 2-2v-3c0-1.1-.9-2-2-2h-16c-1.1 0-2 .9-2 2z"
                              fill="url(#SVGID_2_)"/>
                    </g>
                    <g>
                        <path d="m37.5 55c0 1.1.9 2 2 2h16c1.1 0 2-.9 2-2v-3c0-1.1-.9-2-2-2h-16c-1.1 0-2 .9-2 2z"
                              fill="url(#SVGID_3_)"/>
                    </g>
                    <g>
                        <path d="m39.5 48c0 1.1.9 2 2 2h16c1.1 0 2-.9 2-2v-3c0-1.1-.9-2-2-2h-16c-1.1 0-2 .9-2 2z"
                              fill="url(#SVGID_4_)"/>
                    </g>
                    <g>
                        <path d="m55.5 48c-.553 0-1-.448-1-1v-1c0-.552.447-1 1-1s1 .448 1 1v1c0 .552-.447 1-1 1z"
                              fill="url(#SVGID_5_)"/>
                    </g>
                    <g>
                        <path d="m51.5 48c-.553 0-1-.448-1-1v-1c0-.552.447-1 1-1s1 .448 1 1v1c0 .552-.447 1-1 1z"
                              fill="url(#SVGID_6_)"/>
                    </g>
                    <g>
                        <path d="m47.5 48c-.553 0-1-.448-1-1v-1c0-.552.447-1 1-1s1 .448 1 1v1c0 .552-.447 1-1 1z"
                              fill="url(#SVGID_7_)"/>
                    </g>
                    <g>
                        <path d="m43.5 48c-.553 0-1-.448-1-1v-1c0-.552.447-1 1-1s1 .448 1 1v1c0 .552-.447 1-1 1z"
                              fill="url(#SVGID_8_)"/>
                    </g>
                    <g>
                        <path d="m55.5 62c-.553 0-1-.448-1-1v-1c0-.552.447-1 1-1s1 .448 1 1v1c0 .552-.447 1-1 1z"
                              fill="url(#SVGID_9_)"/>
                    </g>
                    <g>
                        <path d="m51.5 62c-.553 0-1-.448-1-1v-1c0-.552.447-1 1-1s1 .448 1 1v1c0 .552-.447 1-1 1z"
                              fill="url(#SVGID_10_)"/>
                    </g>
                    <g>
                        <path d="m47.5 62c-.553 0-1-.448-1-1v-1c0-.552.447-1 1-1s1 .448 1 1v1c0 .552-.447 1-1 1z"
                              fill="url(#SVGID_11_)"/>
                    </g>
                    <g>
                        <path d="m43.5 62c-.553 0-1-.448-1-1v-1c0-.552.447-1 1-1s1 .448 1 1v1c0 .552-.447 1-1 1z"
                              fill="url(#SVGID_12_)"/>
                    </g>
                    <g>
                        <path d="m53.5 55c-.553 0-1-.448-1-1v-1c0-.552.447-1 1-1s1 .448 1 1v1c0 .552-.447 1-1 1z"
                              fill="url(#SVGID_13_)"/>
                    </g>
                    <g>
                        <path d="m49.5 55c-.553 0-1-.448-1-1v-1c0-.552.447-1 1-1s1 .448 1 1v1c0 .552-.447 1-1 1z"
                              fill="url(#SVGID_14_)"/>
                    </g>
                    <g>
                        <path d="m45.5 55c-.553 0-1-.448-1-1v-1c0-.552.447-1 1-1s1 .448 1 1v1c0 .552-.447 1-1 1z"
                              fill="url(#SVGID_15_)"/>
                    </g>
                    <g>
                        <path d="m41.5 55c-.553 0-1-.448-1-1v-1c0-.552.447-1 1-1s1 .448 1 1v1c0 .552-.447 1-1 1z"
                              fill="url(#SVGID_16_)"/>
                    </g>
                </g>
                <g>
                    <path d="m10.5 7h33v12h-33z" fill="url(#SVGID_17_)"/>
                </g>
                <g>
                    <path d="m16.5 27c0 1.1-.9 2-2 2h-2c-1.1 0-2-.9-2-2v-1c0-1.1.9-2 2-2h2c1.1 0 2 .9 2 2z"
                          fill="url(#SVGID_18_)"/>
                </g>
                <g>
                    <path d="m27.5 27c0 1.1-.9 2-2 2h-4c-1.1 0-2-.9-2-2v-1c0-1.1.9-2 2-2h4c1.1 0 2 .9 2 2z"
                          fill="url(#SVGID_19_)"/>
                </g>
                <g>
                    <path d="m43.5 27c0 1.1-.9 2-2 2h-9c-1.1 0-2-.9-2-2v-1c0-1.1.9-2 2-2h9c1.1 0 2 .9 2 2z"
                          fill="url(#SVGID_20_)"/>
                </g>
                <g>
                    <path d="m16.5 37c0 1.1-.9 2-2 2h-2c-1.1 0-2-.9-2-2v-2c0-1.1.9-2 2-2h2c1.1 0 2 .9 2 2z"
                          fill="url(#SVGID_21_)"/>
                </g>
                <g>
                    <path d="m25.5 37c0 1.1-.9 2-2 2h-2c-1.1 0-2-.9-2-2v-2c0-1.1.9-2 2-2h2c1.1 0 2 .9 2 2z"
                          fill="url(#SVGID_22_)"/>
                </g>
                <g>
                    <path d="m34.5 37c0 1.1-.9 2-2 2h-2c-1.1 0-2-.9-2-2v-2c0-1.1.9-2 2-2h2c1.1 0 2 .9 2 2z"
                          fill="url(#SVGID_23_)"/>
                </g>
                <g>
                    <path d="m43.5 37c0 1.1-.9 2-2 2h-2c-1.1 0-2-.9-2-2v-2c0-1.1.9-2 2-2h2c1.1 0 2 .9 2 2z"
                          fill="url(#SVGID_24_)"/>
                </g>
                <g>
                    <path d="m16.5 47c0 1.1-.9 2-2 2h-2c-1.1 0-2-.9-2-2v-2c0-1.1.9-2 2-2h2c1.1 0 2 .9 2 2z"
                          fill="url(#SVGID_25_)"/>
                </g>
                <g>
                    <path d="m25.5 47c0 1.1-.9 2-2 2h-2c-1.1 0-2-.9-2-2v-2c0-1.1.9-2 2-2h2c1.1 0 2 .9 2 2z"
                          fill="url(#SVGID_26_)"/>
                </g>
                <g>
                    <path d="m34.5 47c0 1.1-.9 2-2 2h-2c-1.1 0-2-.9-2-2v-2c0-1.1.9-2 2-2h2c1.1 0 2 .9 2 2z"
                          fill="url(#SVGID_27_)"/>
                </g>
                <g>
                    <path d="m34.5 57c0 1.1-.9 2-2 2h-2c-1.1 0-2-.9-2-2v-2c0-1.1.9-2 2-2h2c1.1 0 2 .9 2 2z"
                          fill="url(#SVGID_28_)"/>
                </g>
                <g>
                    <path d="m16.5 57c0 1.1-.9 2-2 2h-2c-1.1 0-2-.9-2-2v-2c0-1.1.9-2 2-2h2c1.1 0 2 .9 2 2z"
                          fill="url(#SVGID_29_)"/>
                </g>
                <g>
                    <path d="m25.5 57c0 1.1-.9 2-2 2h-2c-1.1 0-2-.9-2-2v-2c0-1.1.9-2 2-2h2c1.1 0 2 .9 2 2z"
                          fill="url(#SVGID_30_)"/>
                </g>
            </g>
            <g>
                <path d="m25.5 9c-.553 0-1 .448-1 1-.553 0-1 .448-1 1s.447 1 1 1v4c0 .552.447 1 1 1s1-.448 1-1v-6c0-.552-.447-1-1-1z"
                      fill="url(#SVGID_31_)"/>
                <path d="m30.5 9c-1.654 0-3 1.346-3 3v2c0 1.654 1.346 3 3 3s3-1.346 3-3v-2c0-1.654-1.346-3-3-3zm1 5c0 .551-.448 1-1 1s-1-.449-1-1v-2c0-.551.448-1 1-1s1 .449 1 1z"
                      fill="url(#SVGID_32_)"/>
                <path d="m37.5 9c-1.654 0-3 1.346-3 3v2c0 1.654 1.346 3 3 3s3-1.346 3-3v-2c0-1.654-1.346-3-3-3zm1 5c0 .551-.448 1-1 1s-1-.449-1-1v-2c0-.551.448-1 1-1s1 .449 1 1z"
                      fill="url(#SVGID_33_)"/>
            </g>
        </g>
    </g>
</svg>