

<svg height="512pt" viewBox="-46 0 512 512" width="512pt" xmlns="http://www.w3.org/2000/svg"><path d="m419.832031 209.914062c0-115.746093-94.167969-209.914062-209.917969-209.914062-115.746093 0-209.914062 94.167969-209.914062 209.914062v7.785157l162.550781 114.375h-42.597656v179.925781h179.925781v-179.925781h-42.597656l162.550781-114.375zm-32.648437-30.859374c-30.867188-15.210938-67.59375-14.613282-98.015625 1.757812-2.78125-56.59375-13.691407-110.601562-32.328125-144.609375 66.828125 18.070313 118.355468 73.761719 130.34375 142.851563zm-254.601563 39.792968 39.417969 83.207032-131.972656-92.859376c28.914062-17.578124 66.996094-14.359374 92.554687 9.652344zm77.332031-188.859375c8.019532 0 20.933594 14.480469 31.71875 46.835938 9.414063 28.234375 15.441407 64.097656 17.484376 103.136719-15.023438-7.816407-31.792969-11.976563-49.203126-11.976563-17.40625 0-34.175781 4.15625-49.203124 11.976563 2.042968-39.039063 8.074218-74.902344 17.484374-103.136719 10.785157-32.355469 23.703126-46.835938 31.71875-46.835938zm46.582032 183.726563-46.582032 98.328125-46.582031-98.328125c13.335938-10.199219 29.535157-15.738282 46.582031-15.738282 17.050782 0 33.25 5.539063 46.582032 15.738282zm30.753906 5.132812c25.558594-24.011718 63.636719-27.230468 92.554688-9.652344l-131.976563 92.859376zm-124.257812-182.644531c-18.636719 34.007813-29.546876 88.015625-32.332032 144.609375-30.417968-16.371094-67.144531-16.964844-98.015625-1.757812 11.992188-69.089844 63.515625-124.78125 130.347657-142.851563zm106.898437 445.808594h-119.953125v-119.949219h119.953125zm0 0"/></svg>