<?xml version="1.0"?>


<svg xmlns:xlink="http://www.w3.org/1999/xlink" xmlns:svgjs="http://svgjs.com/svgjs" xmlns="http://www.w3.org/2000/svg"
     version="1.1" width="512" height="512" x="0" y="0" viewBox="0 0 512 512" style="enable-background:new 0 0 512 512"
     xml:space="preserve" class=""><g>
<path xmlns="http://www.w3.org/2000/svg" style=""
      d="M501.044,245.045C501.044,109.926,391.119,0,256,0S10.955,109.926,10.955,245.045  c0,0.243,0.06,0.471,0.073,0.714c-0.073,4.499,1.667,9.007,5.286,12.24l107.733,96.289c3.068,2.742,6.893,4.088,10.706,4.088  c4.414,0,8.811-1.808,11.985-5.363c5.912-6.614,5.343-16.775-1.271-22.686L43.669,239.341c2.809-19.999,19.858-35.491,40.618-35.491  c22.714,0,41.195,18.481,41.195,41.195c0,8.874,7.195,16.068,16.068,16.068c8.874,0,16.068-7.195,16.068-16.068  c0-22.714,18.481-41.195,41.195-41.195s41.195,18.481,41.195,41.195c0,8.874,7.195,16.068,16.068,16.068  c8.874,0,16.068-7.195,16.068-16.068c0-22.714,18.481-41.195,41.195-41.195c22.714,0,41.195,18.481,41.195,41.195  c0,8.874,7.194,16.068,16.068,16.068s16.068-7.195,16.068-16.068c0-22.714,18.481-41.195,41.195-41.195  c20.682,0,37.667,15.492,40.464,35.491l-101.8,90.986c-6.614,5.912-7.183,16.072-1.271,22.686c3.174,3.554,7.571,5.363,11.985,5.363  c3.813,0,7.638-1.35,10.706-4.088l107.733-96.289c3.619-3.232,5.359-7.74,5.287-12.24  C500.984,245.515,501.044,245.288,501.044,245.045z"
      fill="#8bc34a" data-original="#fe5722" class=""/>
<path xmlns="http://www.w3.org/2000/svg" style=""
      d="M256,0c-10.206,0-20.246,0.703-30.129,1.918c107.79,13.283,194.105,96.784,211.617,203.222  c16.118,3.954,28.499,17.426,30.844,34.201l-101.799,90.986c-6.614,5.912-7.183,16.072-1.271,22.686  c3.174,3.554,7.571,5.363,11.985,5.363c3.813,0,7.638-1.35,10.706-4.088l107.733-96.289c3.619-3.232,5.359-7.74,5.287-12.24  c0.012-0.243,0.073-0.471,0.073-0.714C501.044,109.926,391.119,0,256,0z"
      fill="#689f38" data-original="#e54a19" class=""/>
<path xmlns="http://www.w3.org/2000/svg" style=""
      d="M386.59,244.598C386.465,107.404,329.118,0,255.921,0c-73.187,0-130.517,107.638-130.517,245.045  c0,0.533,0.106,1.039,0.157,1.561c0.088,2.484,0.682,4.978,1.985,7.293l54.196,96.289c2.95,5.241,8.399,8.191,14.017,8.191  c2.668,0,5.374-0.667,7.866-2.071c7.732-4.35,10.474-14.15,6.124-21.882l-51.917-92.241c1.499-21.361,19.17-38.335,40.905-38.335  c22.714,0,41.195,18.481,41.195,41.195c0,0.298,0.073,0.581,0.088,0.875c0,0.035-0.01,0.067-0.01,0.098v96.289  c0,8.874,7.195,16.068,16.068,16.068c8.874,0,16.068-7.194,16.068-16.068v-96.29c0-0.298-0.073-0.581-0.088-0.875  c0-0.035,0.01-0.067,0.01-0.098c0-22.714,18.481-41.195,41.195-41.195c21.792,0,39.504,17.061,40.922,38.5l-52.75,91.964  c-4.417,7.697-1.754,17.516,5.944,21.933c2.523,1.443,5.268,2.134,7.98,2.134c5.571,0,10.984-2.903,13.954-8.077l55.232-96.289  C386.247,251.047,386.875,247.764,386.59,244.598z"
      fill="#689f38" data-original="#d74315" class=""/>
<path xmlns="http://www.w3.org/2000/svg" style=""
      d="M377.243,326.239h-61.869c-8.874,0-16.068,7.191-16.068,16.068v153.624  c0,8.874,7.195,16.068,16.068,16.068h61.869c8.874,0,16.068-7.194,16.068-16.068V342.308  C393.312,333.43,386.117,326.239,377.243,326.239z"
      fill="#fe9000" data-original="#fe9000" class=""/>
<path xmlns="http://www.w3.org/2000/svg" style=""
      d="M326.735,330.942c-3.013-3.013-7.101-4.704-11.361-4.704H134.756  c-8.874,0-16.068,7.195-16.068,16.068v153.624c0,8.874,7.195,16.068,16.068,16.068h180.618c8.874,0,16.068-7.194,16.068-16.068  V342.308C331.442,338.043,329.748,333.955,326.735,330.942z"
      fill="#fec007" data-original="#fec007" class=""/>
<g xmlns="http://www.w3.org/2000/svg">
</g>
<g xmlns="http://www.w3.org/2000/svg">
</g>
<g xmlns="http://www.w3.org/2000/svg">
</g>
<g xmlns="http://www.w3.org/2000/svg">
</g>
<g xmlns="http://www.w3.org/2000/svg">
</g>
<g xmlns="http://www.w3.org/2000/svg">
</g>
<g xmlns="http://www.w3.org/2000/svg">
</g>
<g xmlns="http://www.w3.org/2000/svg">
</g>
<g xmlns="http://www.w3.org/2000/svg">
</g>
<g xmlns="http://www.w3.org/2000/svg">
</g>
<g xmlns="http://www.w3.org/2000/svg">
</g>
<g xmlns="http://www.w3.org/2000/svg">
</g>
<g xmlns="http://www.w3.org/2000/svg">
</g>
<g xmlns="http://www.w3.org/2000/svg">
</g>
<g xmlns="http://www.w3.org/2000/svg">
</g>
</g></svg>
