<?xml version="1.0"?>
<svg xmlns="http://www.w3.org/2000/svg" xmlns:xlink="http://www.w3.org/1999/xlink" xmlns:svgjs="http://svgjs.com/svgjs" version="1.1" width="512" height="512" x="0" y="0" viewBox="0 0 64 64" style="enable-background:new 0 0 512 512" xml:space="preserve" class=""><g><path xmlns="http://www.w3.org/2000/svg" d="m54 22c0-11.58-9.42-21-21-21h-2c-11.58 0-21 9.42-21 21 0 .106.03.203.06.299l-.013.004 6.953 21.853v-.156c0-.359.192-.69.504-.868l1.074-.614-6.571-20.653c.072-3.246 2.73-5.865 5.993-5.865 3.309 0 6 2.691 6 6 0 .079.028.149.045.223l-.019.004 3.537 15.157 1.812-1.035-3.37-14.442c.046-2.925 2.192-5.343 4.995-5.816v19.329l.504-.288c.308-.176.685-.176.992 0l.504.288v-19.33c2.803.473 4.95 2.891 4.995 5.816l-3.37 14.442 1.812 1.035 3.537-15.157-.019-.004c.017-.073.045-.143.045-.222 0-3.309 2.691-6 6-6 3.263 0 5.921 2.619 5.993 5.865l-6.571 20.653 1.074.614c.312.178.504.509.504.868v.156l6.953-21.853-.013-.004c.03-.096.06-.193.06-.299z" fill="#ffffff" data-original="#000000" style="" class=""/><path xmlns="http://www.w3.org/2000/svg" d="m19 53.42 12 6.857v-7.697l-12-6.857z" fill="#ffffff" data-original="#000000" style="" class=""/><path xmlns="http://www.w3.org/2000/svg" d="m32 37.152-11.984 6.848 11.984 6.848 11.984-6.848z" fill="#ffffff" data-original="#000000" style="" class=""/><path xmlns="http://www.w3.org/2000/svg" d="m42 52c0 .379-.214.725-.553.895l-4 2c-.141.07-.294.105-.447.105-.183 0-.365-.05-.526-.149-.294-.183-.474-.504-.474-.851v-3.134l-3 1.714v7.697l12-6.857v-7.697l-3 1.714z" fill="#ffffff" data-original="#000000" style="" class=""/><path xmlns="http://www.w3.org/2000/svg" d="m40 51.382v-2.802l-2 1.143v2.659z" fill="#ffffff" data-original="#000000" style="" class=""/></g></svg>
