<svg xmlns:xlink="http://www.w3.org/1999/xlink" id="Capa_1" enable-background="new 0 0 510 510" height="512" viewBox="0 0 510 510"
     width="512" xmlns="http://www.w3.org/2000/svg">
    <linearGradient id="SVGID_1_" gradientUnits="userSpaceOnUse" x1="167.247" x2="385.247" y1="170.06" y2="285.393">
        <stop offset="0" stop-color="#537983"/>
        <stop offset="1" stop-color="#3e5959"/>
    </linearGradient>
    <linearGradient id="lg1">
        <stop offset="0" stop-color="#384949" stop-opacity="0"/>
        <stop offset="1" stop-color="#384949"/>
    </linearGradient>
    <linearGradient id="SVGID_2_" gradientUnits="userSpaceOnUse" x1="434.335" x2="434.335" xlink:href="#lg1" y1="219"
                    y2="176.988"/>
    <linearGradient id="SVGID_3_" gradientUnits="userSpaceOnUse" x1="75.665" x2="75.665" xlink:href="#lg1" y1="219"
                    y2="176.988"/>
    <linearGradient id="SVGID_4_" gradientUnits="userSpaceOnUse" x1="209.117" x2="209.117" xlink:href="#lg1" y1="219"
                    y2="176.988"/>
    <linearGradient id="SVGID_5_" gradientUnits="userSpaceOnUse" x1="300.883" x2="300.883" xlink:href="#lg1" y1="219"
                    y2="176.988"/>
    <linearGradient id="SVGID_6_" gradientUnits="userSpaceOnUse" x1="174.874" x2="367.544" y1="327.858" y2="520.528">
        <stop offset="0" stop-color="#fee45a"/>
        <stop offset="1" stop-color="#fe860a"/>
    </linearGradient>
    <linearGradient id="lg2">
        <stop offset="0" stop-color="#fe860a" stop-opacity="0"/>
        <stop offset="1" stop-color="#fe7701"/>
    </linearGradient>
    <linearGradient id="SVGID_7_" gradientUnits="userSpaceOnUse" x1="359.315" x2="110.889" xlink:href="#lg2" y1="412.31"
                    y2="235.81"/>
    <linearGradient id="SVGID_8_" gradientUnits="userSpaceOnUse" x1="383.685" x2="231.682" xlink:href="#lg2"
                    y1="358.573" y2="518.881"/>
    <linearGradient id="SVGID_9_" gradientUnits="userSpaceOnUse" x1="255" x2="255" xlink:href="#lg2" y1="475.93"
                    y2="519.556"/>
    <linearGradient id="SVGID_10_" gradientUnits="userSpaceOnUse" x1="197.168" x2="265.807" y1="311.355" y2="379.994">
        <stop offset="0" stop-color="#eaf6ff"/>
        <stop offset=".2575" stop-color="#dce8fa"/>
        <stop offset=".7423" stop-color="#b8c4ed"/>
        <stop offset="1" stop-color="#a2aee6"/>
    </linearGradient>
    <linearGradient id="lg3">
        <stop offset="0" stop-color="#fd4755"/>
        <stop offset="1" stop-color="#ac2538"/>
    </linearGradient>
    <linearGradient id="SVGID_11_" gradientUnits="userSpaceOnUse" x1="206.48" x2="316.934" xlink:href="#lg3" y1="19.665"
                    y2="317.681"/>
    <linearGradient id="lg4">
        <stop offset="0" stop-color="#972437" stop-opacity="0"/>
        <stop offset="1" stop-color="#972437"/>
    </linearGradient>
    <linearGradient id="SVGID_12_" gradientUnits="userSpaceOnUse" x1="140.948" x2="252.043" xlink:href="#lg4"
                    y1="40.207" y2="151.302"/>
    <linearGradient id="SVGID_13_" gradientUnits="userSpaceOnUse" x1="250.799" x2="396.785" xlink:href="#lg4"
                    y1="60.729" y2="144.003"/>
    <linearGradient id="SVGID_14_" gradientUnits="userSpaceOnUse" x1="218.347" x2="323.54" xlink:href="#lg3" y1="69.848"
                    y2="161.109"/>
    <g>
        <path d="m453.25 160.67-185.19 198.95 51.61-239.45h-15.34l-49.33 228.89-49.33-228.89h-15.34l51.61 239.45-185.19-198.95h-20.5l202.11 217.124c8.991 9.659 24.289 9.659 33.28 0l202.11-217.124z"
              fill="url(#SVGID_1_)"/>
        <g>
            <path d="m394.921 223.333h20.499l58.33-62.663h-20.5z" fill="url(#SVGID_2_)"/>
            <path d="m56.75 160.67h-20.5l58.33 62.663h20.499z" fill="url(#SVGID_3_)"/>
            <path d="m190.33 120.17 22.235 103.163h15.339l-22.234-103.163z" fill="url(#SVGID_4_)"/>
            <path d="m282.096 223.333h15.339l22.235-103.163h-15.34z" fill="url(#SVGID_5_)"/>
        </g>
        <g>
            <g>
                <path d="m366.586 510h-223.172c-5.013 0-9.078-4.064-9.078-9.078v-185.877c0-5.013 4.064-9.078 9.078-9.078h223.173c5.013 0 9.078 4.064 9.078 9.078v185.877c-.001 5.014-4.065 9.078-9.079 9.078z"
                      fill="url(#SVGID_6_)"/>
                <path d="m375.664 315.044v185.879c0 5.011-4.065 9.076-9.076 9.076h-29.622l-146.202-146.202v-57.829h175.824c5.011 0 9.076 4.065 9.076 9.076z"
                      fill="url(#SVGID_7_)"/>
                <path d="m366.586 305.968h-63.408c5.013 0 9.078 4.064 9.078 9.078v185.877c0 5.013-4.064 9.078-9.078 9.078h63.408c5.013 0 9.078-4.064 9.078-9.078v-185.878c0-5.013-4.064-9.077-9.078-9.077z"
                      fill="url(#SVGID_8_)"/>
                <path d="m134.336 460.788v40.134c0 5.013 4.064 9.078 9.078 9.078h223.173c5.013 0 9.078-4.064 9.078-9.078v-40.134z"
                      fill="url(#SVGID_9_)"/>
            </g>
            <path d="m200.081 365.352.178.108c4.08 2.477 9.21 2.436 13.25-.108 4.128-2.493 9.298-2.493 13.426 0 4.128 2.493 9.298 2.493 13.426 0h.001c1.913-1.108 4.03-1.132 6.162-.732 2.432.456 4.69-1.367 4.69-3.841v-52.966c0-1.764-1.43-3.194-3.194-3.194h-55.6c-1.764 0-3.194 1.43-3.194 3.194v52.891c0 2.459 2.237 4.3 4.654 3.848 2.154-.404 4.29-.36 6.201.8z"
                  fill="url(#SVGID_10_)"/>
        </g>
        <g>
            <path d="m478.061 134.6c-30.05-78.048-118.549-134.599-223.061-134.599-104.511 0-193.009 56.55-223.061 134.598-10.585 27.95 8.672 58.562 36.909 58.562 18.315 0 34.138-13.338 38.549-32.024.424-1.796 1.901-3.076 3.631-3.076 1.566 0 2.963 1.048 3.499 2.624 6.318 18.573 22.962 32.476 43.281 32.476 19.654 0 36.609-13.267 43.105-32.128.611-1.775 2.166-2.973 3.933-2.973 1.655 0 3.152 1.048 3.817 2.671 7.77 18.97 25.488 32.43 46.336 32.43 20.848 0 38.566-13.46 46.336-32.43.665-1.623 2.161-2.671 3.817-2.671 1.767 0 3.322 1.198 3.933 2.973 6.495 18.861 23.451 32.128 43.105 32.128 20.319 0 36.963-13.903 43.281-32.477.536-1.576 1.932-2.624 3.499-2.624 1.73 0 3.207 1.28 3.631 3.076 4.411 18.687 20.235 32.025 38.549 32.025 28.238-.001 47.495-30.611 36.911-58.561z"
                  fill="url(#SVGID_11_)"/>
            <path d="m157.809 193.16c-30.347 0-52.539-30.997-44.304-62.272 19.848-75.38 74.73-129.814 139.565-130.877.64-.011 1.29-.011 1.93-.011-24.89 0-45.759 62.876-51.368 147.542-1.703 25.716-21.746 45.618-45.823 45.618z"
                  fill="url(#SVGID_12_)"/>
            <path d="m352.191 193.16c-24.077 0-44.12-19.902-45.823-45.618-5.609-84.666-26.478-147.542-51.368-147.542.64 0 1.29 0 1.93.011 64.835 1.063 119.717 55.497 139.565 130.877 8.235 31.275-13.957 62.272-44.304 62.272z"
                  fill="url(#SVGID_13_)"/>
            <path d="m309.02 160.876c-.31-.825-.82-1.499-1.47-1.992-.69-.525-1.51-.825-2.4-.825-1.65 0-3.15 1.049-3.81 2.666-3.88 9.487-10.26 17.593-18.26 23.333-8.01 5.739-17.66 9.102-28.08 9.102-20.85 0-38.57-13.46-46.34-32.434-.33-.803-.87-1.478-1.53-1.938-.67-.471-1.45-.728-2.28-.728-1.71 0-3.22 1.124-3.87 2.816 1.43-4.197 2.34-8.673 2.65-13.331 5.57-84.004 26.15-146.56 50.79-147.534.19-.011.39-.011.58-.011s.39 0 .58.011c24.64.974 45.22 63.53 50.79 147.534.31 4.657 1.22 9.133 2.65 13.331z"
                  fill="url(#SVGID_14_)"/>
        </g>
    </g>
</svg>