<?xml version="1.0" encoding="iso-8859-1"?>
<!-- Generator: Adobe Illustrator 19.0.0, SVG Export Plug-In . SVG Version: 6.00 Build 0)  -->
<svg version="1.1" id="Capa_1" xmlns="http://www.w3.org/2000/svg" xmlns:xlink="http://www.w3.org/1999/xlink" x="0px" y="0px"
	 viewBox="0 0 432.588 432.588" style="enable-background:new 0 0 432.588 432.588;" xml:space="preserve">
<path style="fill:#4DCFE0;" d="M216.294,264.359c-26.645,0-48.065-21.42-48.065-48.065s21.42-48.065,48.065-48.065
	s48.065,21.42,48.065,48.065S242.939,264.359,216.294,264.359z M216.294,199.575c-9.404,0-16.718,7.314-16.718,16.718
	c0,9.404,7.314,16.718,16.718,16.718c9.404,0,16.718-7.314,16.718-16.718C233.012,206.89,225.698,199.575,216.294,199.575z"/>
<path style="fill:#1185E0;" d="M364.147,359.967c-4.18,0-7.837-1.567-10.971-4.702c-6.269-6.269-6.269-16.196,0-21.943
	c64.261-64.784,64.261-169.273,0-234.057c-6.269-6.269-6.269-16.196,0-21.943c6.269-6.269,16.196-6.269,21.943,0
	c37.094,37.094,57.469,86.204,57.469,138.971s-20.376,101.878-57.469,138.971C371.984,358.4,368.327,359.967,364.147,359.967z
	 M68.441,359.967c-4.18,0-7.837-1.567-10.971-4.702C20.376,318.171,0,269.061,0,216.294S20.376,114.416,57.469,77.322
	c6.269-6.269,16.196-6.269,21.943,0c6.269,6.269,6.269,16.196,0,21.943c-64.261,64.784-64.261,169.273,0,234.057
	c6.269,6.269,6.269,16.196,0,21.943C76.278,358.4,72.62,359.967,68.441,359.967z M298.841,308.767c-4.18,0-7.837-1.567-10.971-4.702
	c-6.269-6.269-6.269-16.196,0-21.943c17.763-17.763,27.167-40.751,27.167-65.829s-9.404-48.065-27.167-65.829
	c-6.269-6.269-6.269-16.196,0-21.943c6.269-6.269,16.196-6.269,21.943,0c23.51,23.51,36.571,54.857,36.571,87.771
	s-13.061,64.261-36.571,87.771C306.678,307.2,303.02,308.767,298.841,308.767z M133.747,308.767c-4.18,0-7.837-1.567-10.971-4.702
	c-48.588-48.588-48.588-127.478,0-175.543c6.269-6.269,16.196-6.269,21.943,0c6.269,6.269,6.269,16.196,0,21.943
	c-36.049,36.049-36.049,95.086,0,131.657c6.269,6.269,6.269,16.196,0,21.943C141.584,307.2,137.927,308.767,133.747,308.767z"/>
<g>
</g>
<g>
</g>
<g>
</g>
<g>
</g>
<g>
</g>
<g>
</g>
<g>
</g>
<g>
</g>
<g>
</g>
<g>
</g>
<g>
</g>
<g>
</g>
<g>
</g>
<g>
</g>
<g>
</g>
</svg>
