<?xml version="1.0" encoding="UTF-8"?>


<!DOCTYPE svg PUBLIC "-//W3C//DTD SVG 1.1//EN" "http://www.w3.org/Graphics/SVG/1.1/DTD/svg11.dtd">

<svg xmlns="http://www.w3.org/2000/svg" xml:space="preserve" width="600px" height="600px" version="1.1" style="shape-rendering:geometricPrecision; text-rendering:geometricPrecision; image-rendering:optimizeQuality; fill-rule:evenodd; clip-rule:evenodd"
viewBox="0 0 59.66 59.66"
 xmlns:xlink="http://www.w3.org/1999/xlink"
 xmlns:xodm="http://www.corel.com/coreldraw/odm/2003">
 <defs>
  <style type="text/css">
   <![CDATA[
    .fil0 {fill:#E6E7E8;fill-rule:nonzero}
   ]]>
  </style>
 </defs>
 <g id="Layer_x0020_1">
  <metadata id="CorelCorpID_0Corel-Layer"/>
  <path class="fil0" d="M0.21 0l18.03 0 0 0.43 -17.81 0 0 17.81 -0.43 0 0 -18.24 0.21 0zm0.22 41.42l0 17.81 17.81 0 0 0.43 -18.24 0 0 -18.24 0.43 0zm40.99 -41.42l18.24 0 0 18.24 -0.43 0 0 -17.81 -17.81 0 0 -0.43zm18.24 41.42l0 18.24 -18.24 0 0 -0.43 17.81 0 0 -17.81 0.43 0z"/>
  <path class="fil0" d="M28.22 37.06c-0.01,-0.54 -0.02,-0.95 -0.02,-1.22 0,-1.6 0.22,-2.98 0.68,-4.14 0.33,-0.88 0.86,-1.76 1.61,-2.65 0.54,-0.65 1.52,-1.59 2.92,-2.83 1.42,-1.25 2.33,-2.23 2.75,-2.98 0.43,-0.75 0.64,-1.55 0.64,-2.43 0,-1.59 -0.62,-2.99 -1.86,-4.2 -1.23,-1.2 -2.75,-1.8 -4.54,-1.8 -1.74,0 -3.18,0.55 -4.34,1.63 -1.17,1.1 -1.93,2.81 -2.29,5.13l-4.17 -0.51c0.38,-3.09 1.49,-5.47 3.35,-7.12 1.86,-1.64 4.32,-2.47 7.38,-2.47 3.24,0 5.82,0.88 7.75,2.65 1.92,1.77 2.89,3.91 2.89,6.42 0,1.45 -0.34,2.79 -1.02,4.01 -0.68,1.23 -2.01,2.71 -3.99,4.46 -1.33,1.18 -2.19,2.04 -2.6,2.6 -0.41,0.56 -0.71,1.2 -0.9,1.92 -0.2,0.72 -0.31,1.9 -0.34,3.53l-3.9 0zm-0.74 8.16l0 -4.64 4.64 0 0 4.64 -4.64 0z"/>
 </g>
</svg>
