<svg height="512pt" viewBox="0 -72 512 511" width="512pt" xmlns="http://www.w3.org/2000/svg"><path d="m335.054688 193.578125c0 67.902344-55.042969 122.945313-122.945313 122.945313s-122.945313-55.042969-122.945313-122.945313 55.042969-122.945313 122.945313-122.945313 122.945313 55.042969 122.945313 122.945313zm0 0" fill="#fd8f3e"/><path d="m299.039062 106.640625c48.015626 48.015625 48.015626 125.855469 0 173.871094-42.109374 42.113281-107.175781 47.292969-154.921874 15.523437 6.695312-4.449218 13.042968-9.621094 18.949218-15.523437 48.011719-48.015625 48.011719-125.855469 0-173.871094-5.90625-5.902344-12.253906-11.074219-18.949218-15.523437 47.753906-31.761719 112.820312-26.582032 154.921874 15.523437zm0 0" fill="#fe672d"/><path d="m443.511719 225.351562c-4.238281-70.003906-62.339844-125.46875-133.40625-125.46875-57.316407 0-106.199219 36.082032-125.195313 86.765626-49.355468.59375-89.1875 40.769531-89.1875 90.265624 0 49.871094 40.425782 90.300782 90.296875 90.300782h255.011719c39.195312 0 70.964844-31.773438 70.964844-70.964844 0-38.359375-30.441406-69.59375-68.484375-70.898438zm0 0" fill="#fab03c"/><path d="m512 296.246094c0 39.191406-31.777344 70.96875-70.96875 70.96875h-5.496094c5.144532-9.820313 8.058594-21.007813 8.058594-32.859375 0-38.359375-30.441406-69.59375-68.484375-70.90625-4.238281-69.996094-62.34375-125.46875-133.414063-125.46875-9.582031 0-18.925781 1.011719-27.929687 2.925781 24.3125-25.28125 58.484375-41.019531 96.339844-41.019531 71.066406 0 129.171875 55.460937 133.410156 125.46875 38.042969 1.296875 68.484375 32.535156 68.484375 70.890625zm0 0" fill="#fd8f3e"/><path d="m408.132812 217.503906c-3.4375 0-6.558593-2.34375-7.394531-5.835937-1.238281-5.144531-2.929687-10.214844-5.027343-15.066407-1.671876-3.859374.101562-8.339843 3.960937-10.007812 3.863281-1.671875 8.339844.105469 10.007813 3.960938 2.449218 5.65625 4.417968 11.5625 5.859374 17.558593.980469 4.085938-1.535156 8.195313-5.621093 9.179688-.597657.140625-1.195313.210937-1.785157.210937zm0 0" fill="#fab03c"/><path d="m382.878906 171.410156c-2 0-3.996094-.785156-5.492187-2.34375-17.789063-18.53125-41.683594-28.738281-67.28125-28.738281-4.203125 0-7.613281-3.40625-7.613281-7.609375s3.410156-7.609375 7.613281-7.609375c29.785156 0 57.578125 11.867187 78.265625 33.417969 2.910156 3.035156 2.8125 7.851562-.222656 10.761718-1.476563 1.414063-3.375 2.121094-5.269532 2.121094zm0 0" fill="#fab03c"/><path d="m76.273438 265.792969c3.03125-50.046875 44.570312-89.699219 95.375-89.699219 40.976562 0 75.925781 25.792969 89.503906 62.027344 35.289062.425781 63.765625 29.148437 63.765625 64.535156 0 35.652344-28.902344 64.554688-64.554688 64.554688-14.925781 0-166.980469 0-182.316406 0-28.019531 0-50.734375-22.714844-50.734375-50.730469 0-27.425781 21.765625-49.753907 48.960938-50.6875zm0 0" fill="#f8e98e"/><path d="m324.917969 302.664062c0 35.34375-28.421875 64.058594-63.664063 64.535157 10.566406-11.5 17.007813-26.820313 17.007813-43.652344 0-35.386719-28.472657-64.109375-63.765625-64.539063-13.582032-36.226562-48.523438-62.027343-89.507813-62.027343-4.839843 0-9.59375.367187-14.246093 1.058593 16.53125-13.707031 37.753906-21.941406 60.90625-21.941406 40.980468 0 75.921874 25.789063 89.503906 62.027344 35.292968.429688 63.765625 29.140625 63.765625 64.539062zm0 0" fill="#f6cb43"/><path d="m438.683594 51.273438c-8.734375 0-16.597656 3.800781-22.027344 9.832031-5.429688-6.03125-13.292969-9.832031-22.027344-9.832031-16.34375 0-29.636718 13.296874-29.636718 29.636718 0 4.207032 3.40625 7.613282 7.609374 7.613282 4.207032 0 7.613282-3.410157 7.613282-7.613282 0-7.945312 6.464844-14.414062 14.414062-14.414062 5.839844 0 10.867188 3.492187 13.132813 8.496094-3.335938.808593-5.8125 3.804687-5.8125 7.390624 0 4.203126 3.40625 7.609376 7.609375 7.609376h14.195312c4.203125 0 7.613282-3.40625 7.613282-7.609376 0-3.582031-2.480469-6.582031-5.8125-7.390624 2.265624-5 7.292968-8.496094 13.128906-8.496094 7.949218 0 14.417968 6.46875 14.417968 14.417968 0 4.203126 3.40625 7.609376 7.609376 7.609376 4.207031 0 7.613281-3.40625 7.613281-7.609376 0-16.34375-13.296875-29.640624-29.640625-29.640624zm0 0" fill="#be7560"/><path d="m372.601562 37.75c4.203126 0 7.613282-3.40625 7.613282-7.609375 0-16.34375-13.296875-29.640625-29.640625-29.640625-8.734375 0-16.597657 3.800781-22.027344 9.832031-5.429687-6.03125-13.292969-9.832031-22.027344-9.832031-16.34375 0-29.640625 13.296875-29.640625 29.640625 0 4.203125 3.40625 7.609375 7.613282 7.609375 4.203124 0 7.609374-3.40625 7.609374-7.609375 0-7.949219 6.46875-14.417969 14.417969-14.417969 5.835938 0 10.863281 3.496094 13.128907 8.496094-3.332032.808594-5.8125 3.804688-5.8125 7.390625 0 4.203125 3.40625 7.609375 7.613281 7.609375h14.195312c4.203125 0 7.613281-3.40625 7.613281-7.609375 0-3.582031-2.480468-6.578125-5.8125-7.390625 2.265626-5 7.292969-8.496094 13.128907-8.496094 7.949219 0 14.414062 6.46875 14.414062 14.417969 0 4.203125 3.410157 7.609375 7.613281 7.609375zm0 0" fill="#7c3c2f"/><path d="m73.695312 68.777344c-8.734374 0-16.597656 3.800781-22.03125 9.832031-5.425781-6.03125-13.289062-9.832031-22.023437-9.832031-16.34375 0-29.640625 13.292968-29.640625 29.636718 0 4.203126 3.40625 7.613282 7.609375 7.613282 4.207031 0 7.613281-3.410156 7.613281-7.613282 0-7.949218 6.464844-14.414062 14.414063-14.414062 5.839843 0 10.867187 3.492188 13.128906 8.496094-3.332031.808594-5.808594 3.804687-5.808594 7.386718 0 4.203126 3.40625 7.609376 7.609375 7.609376h14.195313c4.203125 0 7.609375-3.40625 7.609375-7.609376 0-3.582031-2.476563-6.578124-5.808594-7.390624 2.261719-5 7.289062-8.496094 13.128906-8.496094 7.949219 0 14.414063 6.46875 14.414063 14.417968 0 4.203126 3.410156 7.609376 7.613281 7.609376s7.609375-3.40625 7.609375-7.609376c.003906-16.34375-13.292969-29.636718-29.632813-29.636718zm0 0" fill="#915040"/></svg>