<svg id="Capa_1" enable-background="new 0 0 510 510" height="512" viewBox="0 0 510 510" width="512" xmlns="http://www.w3.org/2000/svg" xmlns:xlink="http://www.w3.org/1999/xlink"><linearGradient id="lg1"><stop offset="0" stop-color="#4ab272"/><stop offset="1" stop-color="#077565"/></linearGradient><linearGradient id="SVGID_1_" gradientTransform="matrix(1 0 0 -1 0 512)" gradientUnits="userSpaceOnUse" x1="235.39" x2="340.025" xlink:href="#lg1" y1="192.903" y2="-71.814"/><linearGradient id="SVGID_2_" gradientTransform="matrix(1 0 0 -1 0 512)" gradientUnits="userSpaceOnUse" x1="270.738" x2="69.518" y1="109.436" y2="542.283"><stop offset="0" stop-color="#92f37f" stop-opacity="0"/><stop offset="1" stop-color="#ffee83"/></linearGradient><linearGradient id="lg2"><stop offset="0" stop-color="#92f37f"/><stop offset="1" stop-color="#4ab272"/></linearGradient><linearGradient id="SVGID_3_" gradientTransform="matrix(1 0 0 -1 0 512)" gradientUnits="userSpaceOnUse" x1="242.077" x2="300.357" xlink:href="#lg2" y1="182.491" y2="5.706"/><linearGradient id="SVGID_4_" gradientTransform="matrix(1 0 0 -1 0 512)" gradientUnits="userSpaceOnUse" x1="309.696" x2="95.117" xlink:href="#lg2" y1="107.739" y2="247.215"/><linearGradient id="SVGID_5_" gradientTransform="matrix(1 0 0 -1 0 512)" gradientUnits="userSpaceOnUse" x1="305.289" x2="154.448" y1="106.643" y2="173.418"><stop offset="0" stop-color="#4ab272" stop-opacity="0"/><stop offset="1" stop-color="#009245"/></linearGradient><linearGradient id="SVGID_6_" gradientTransform="matrix(1 0 0 -1 0 512)" gradientUnits="userSpaceOnUse" x1="248.224" x2="306.652" xlink:href="#lg1" y1="149.4" y2="110.05"/><linearGradient id="SVGID_7_" gradientTransform="matrix(1 0 0 -1 0 512)" gradientUnits="userSpaceOnUse" x1="98.336" x2="126.231" xlink:href="#lg2" y1="212.531" y2="182.404"/><linearGradient id="SVGID_8_" gradientTransform="matrix(1 0 0 -1 0 512)" gradientUnits="userSpaceOnUse" x1="402.271" x2="430.166" xlink:href="#lg2" y1="212.531" y2="182.404"/><linearGradient id="SVGID_9_" gradientTransform="matrix(1 0 0 -1 0 512)" gradientUnits="userSpaceOnUse" x1="98.336" x2="126.231" xlink:href="#lg2" y1="84.196" y2="54.069"/><linearGradient id="SVGID_10_" gradientTransform="matrix(1 0 0 -1 0 512)" gradientUnits="userSpaceOnUse" x1="402.271" x2="430.166" xlink:href="#lg2" y1="84.195" y2="54.069"/><linearGradient id="lg3"><stop offset="0" stop-color="#00aefc"/><stop offset="1" stop-color="#3f3cee"/></linearGradient><linearGradient id="SVGID_11_" gradientTransform="matrix(1 0 0 -1 0 512)" gradientUnits="userSpaceOnUse" x1="235.39" x2="340.025" xlink:href="#lg3" y1="420.321" y2="155.604"/><linearGradient id="SVGID_12_" gradientTransform="matrix(1 0 0 -1 0 512)" gradientUnits="userSpaceOnUse" x1="300.744" x2="99.524" y1="272.31" y2="705.156"><stop offset="0" stop-color="#00aefc" stop-opacity="0"/><stop offset="1" stop-color="#18cffc"/></linearGradient><linearGradient id="lg4"><stop offset="0" stop-color="#e5f3ff"/><stop offset="1" stop-color="#b3ccff"/></linearGradient><linearGradient id="SVGID_13_" gradientTransform="matrix(1 0 0 -1 0 512)" gradientUnits="userSpaceOnUse" x1="242.077" x2="300.357" xlink:href="#lg4" y1="409.908" y2="233.124"/><linearGradient id="SVGID_14_" gradientTransform="matrix(1 0 0 -1 0 512)" gradientUnits="userSpaceOnUse" x1="309.696" x2="95.117" xlink:href="#lg4" y1="335.157" y2="474.633"/><linearGradient id="SVGID_15_" gradientTransform="matrix(1 0 0 -1 0 512)" gradientUnits="userSpaceOnUse" x1="98.336" x2="126.231" xlink:href="#lg4" y1="439.949" y2="409.822"/><linearGradient id="SVGID_16_" gradientTransform="matrix(1 0 0 -1 0 512)" gradientUnits="userSpaceOnUse" x1="402.271" x2="430.166" xlink:href="#lg4" y1="439.948" y2="409.822"/><linearGradient id="SVGID_17_" gradientTransform="matrix(1 0 0 -1 0 512)" gradientUnits="userSpaceOnUse" x1="98.336" x2="126.231" xlink:href="#lg4" y1="311.613" y2="281.486"/><linearGradient id="SVGID_18_" gradientTransform="matrix(1 0 0 -1 0 512)" gradientUnits="userSpaceOnUse" x1="402.271" x2="430.166" xlink:href="#lg4" y1="311.613" y2="281.486"/><linearGradient id="SVGID_19_" gradientTransform="matrix(1 0 0 -1 0 512)" gradientUnits="userSpaceOnUse" x1="316.959" x2="234.144" y1="325.709" y2="375.932"><stop offset="0" stop-color="#b3ccff" stop-opacity="0"/><stop offset="1" stop-color="#9fb0cb"/></linearGradient><linearGradient id="SVGID_20_" gradientTransform="matrix(1 0 0 -1 0 512)" gradientUnits="userSpaceOnUse" x1="231.629" x2="307.877" xlink:href="#lg3" y1="385.121" y2="329.103"/><linearGradient id="SVGID_21_" gradientTransform="matrix(1 0 0 -1 0 512)" gradientUnits="userSpaceOnUse" x1="163.303" x2="61.436" y1="354.98" y2="465.934"><stop offset="0" stop-color="#3f3cee" stop-opacity="0"/><stop offset="1" stop-color="#2f43bc"/></linearGradient><linearGradient id="lg5"><stop offset="0" stop-color="#f92814"/><stop offset=".4513" stop-color="#f92a15"/><stop offset=".6313" stop-color="#fa311a"/><stop offset=".7629" stop-color="#fb3d22"/><stop offset=".871" stop-color="#fc4f2e"/><stop offset=".9635" stop-color="#fe653d"/><stop offset="1" stop-color="#ff7044"/></linearGradient><radialGradient id="SVGID_22_" cx="219.92" cy="259.539" gradientTransform="matrix(1 0 0 -1 0 512)" gradientUnits="userSpaceOnUse" r="213.698" xlink:href="#lg5"/><linearGradient id="lg6"><stop offset="0" stop-color="#ff7044" stop-opacity="0"/><stop offset="1" stop-color="#ffa425"/></linearGradient><linearGradient id="SVGID_23_" gradientTransform="matrix(1 0 0 -1 0 512)" gradientUnits="userSpaceOnUse" x1="102.079" x2="121.428" xlink:href="#lg6" y1="331.002" y2="574.798"/><linearGradient id="SVGID_24_" gradientTransform="matrix(1 0 0 -1 0 512)" gradientUnits="userSpaceOnUse" x1="101.53" x2="149.967" y1="235.304" y2="668.081"><stop offset="0" stop-color="#f92814" stop-opacity="0"/><stop offset="1" stop-color="#c1272d"/></linearGradient><linearGradient id="SVGID_25_" gradientTransform="matrix(1 0 0 -1 0 512)" gradientUnits="userSpaceOnUse" x1="435.445" x2="417.77" y1="36.316" y2="61.625"><stop offset="0" stop-color="#4ab272" stop-opacity="0"/><stop offset="1" stop-color="#006837"/></linearGradient><radialGradient id="SVGID_26_" cx="-4435.749" cy="-5756.831" gradientTransform="matrix(-1 0 0 1 -4145.59 6014.37)" gradientUnits="userSpaceOnUse" r="213.698" xlink:href="#lg5"/><radialGradient id="SVGID_27_" cx="519.313" cy="171.909" gradientTransform="matrix(1 0 0 -1 0 512)" gradientUnits="userSpaceOnUse" r="213.674" xlink:href="#lg5"/><linearGradient id="SVGID_28_" gradientTransform="matrix(-1 0 0 1 -4145.59 6014.37)" gradientUnits="userSpaceOnUse" x1="-4553.407" x2="-4534.058" xlink:href="#lg6" y1="-5685.376" y2="-5441.58"/><path d="m431.245 471.058h-352.49c-5.719 0-10.356-4.637-10.356-10.356v-183.987c0-5.72 4.637-10.356 10.356-10.356h352.49c5.72 0 10.356 4.637 10.356 10.356v183.986c0 5.72-4.637 10.357-10.356 10.357z" fill="url(#SVGID_1_)"/><path d="m423.582 463.961h-337.164c-5.394 0-9.767-4.373-9.767-9.767v-170.97c0-5.394 4.373-9.767 9.767-9.767h337.164c5.394 0 9.767 4.373 9.767 9.767v170.97c0 5.394-4.373 9.767-9.767 9.767z" fill="url(#SVGID_2_)"/><path d="m410.3 328.961c-17.287 0-31.301-14.014-31.301-31.301 0-.71.024-1.414.071-2.112.227-3.351-2.418-6.192-5.777-6.192h-236.587c-3.358 0-6.004 2.842-5.777 6.192.047.698.071 1.402.071 2.112 0 17.287-14.014 31.301-31.301 31.301-.02 0-.041 0-.061 0-3.247-.006-5.912 2.549-5.912 5.796v67.903c0 3.247 2.665 5.802 5.912 5.796h.061c17.287 0 31.301 14.014 31.301 31.301 0 .71-.024 1.414-.071 2.112-.227 3.351 2.418 6.192 5.777 6.192h236.587c3.358 0 6.004-2.842 5.777-6.192-.047-.698-.071-1.402-.071-2.112 0-17.287 14.014-31.301 31.301-31.301h.061c3.247.006 5.912-2.549 5.912-5.796v-67.903c0-3.247-2.665-5.802-5.912-5.796-.02 0-.041 0-.061 0z" fill="url(#SVGID_3_)"/><circle cx="255" cy="368.709" fill="url(#SVGID_4_)" r="71.304"/><path d="m282.998 325.659c-1.086-1.697-3.184-3.109-6.309-4.233-3.368-1.209-6.958-2.03-10.762-2.481-.204-.129-.411-.243-.622-.339l-5.633-6.036c-.884-.649-1.837-.976-2.859-.976-1.116 0-2.07.327-2.859.976-.791.652-1.186 1.395-1.186 2.232v4.045c-7.531.837-13.832 3.347-18.899 7.531-5.069 4.185-7.601 10.317-7.601 18.394 0 2.877.325 5.498.976 7.865.649 2.367 1.72 4.431 3.208 6.194 1.486 1.763 2.905 3.271 4.254 4.524.009.009.02.018.03.026 0 0 17.538 17.539 17.548 17.548.163.174.323.337.484.505v23.331c-4.121-.279-7.749-1.345-10.888-3.201-3.138-1.855-5.603-3.594-7.399-5.219-1.796-1.624-3.245-2.437-4.348-2.437-1.665 0-3.143.883-4.437 2.646s-1.939 3.526-1.939 5.289c0 2.818 1.588 5.596 4.764 8.334l60.883 60.883h138.993z" fill="url(#SVGID_5_)"/><path d="m223.757 401.841c0-1.763.645-3.526 1.939-5.289 1.295-1.763 2.772-2.646 4.437-2.646 1.103 0 2.552.813 4.348 2.436 1.796 1.626 4.261 3.365 7.399 5.219 3.139 1.857 6.767 2.923 10.888 3.202v-32.709c-2.789-1.02-4.93-1.833-6.416-2.437-1.489-.602-3.465-1.484-5.928-2.644-2.465-1.159-4.372-2.367-5.719-3.62-1.349-1.253-2.768-2.761-4.254-4.524-1.489-1.763-2.559-3.827-3.208-6.194-.652-2.367-.976-4.988-.976-7.865 0-8.077 2.532-14.209 7.601-18.394 5.067-4.184 11.368-6.695 18.899-7.531v-4.045c0-.837.395-1.58 1.186-2.232.789-.649 1.744-.976 2.86-.976 1.022 0 1.975.327 2.859.976.883.652 1.325 1.395 1.325 2.232v3.766c5.671.187 10.901 1.14 15.691 2.859 4.788 1.722 7.183 4.115 7.183 7.183 0 1.674-.564 3.417-1.689 5.23s-2.626 2.72-4.5 2.72c-.741 0-2.779-.789-6.108-2.371-3.332-1.58-6.858-2.511-10.576-2.789v28.266c3.698 1.392 6.773 2.715 9.223 3.968 2.449 1.253 5.041 2.992 7.769 5.22 2.728 2.227 4.786 5.034 6.172 8.421s2.081 7.355 2.081 11.901c0 8.307-2.266 14.911-6.798 19.81-4.533 4.899-10.681 7.909-18.448 9.029v4.659c0 .822-.443 1.552-1.325 2.193-.884.638-1.837.959-2.859.959-1.116 0-2.071-.32-2.86-.957-.791-.641-1.186-1.371-1.186-2.192v-4.243c-8.089-.094-14.948-1.944-20.573-5.553-5.626-3.609-8.437-7.288-8.437-11.038zm16.319-58.461c0 3.62 1.126 6.381 3.382 8.281 2.253 1.903 5.635 3.69 10.147 5.359v-25.356c-9.021 1.116-13.529 5.022-13.529 11.716zm20.084 61.104c8.181-1.484 12.274-6.078 12.274-13.78 0-4.082-1.07-7.283-3.208-9.602-2.14-2.319-5.161-4.315-9.066-5.987z" fill="url(#SVGID_6_)"/><circle cx="103.032" cy="304.541" fill="url(#SVGID_7_)" r="14.805"/><circle cx="406.967" cy="304.541" fill="url(#SVGID_8_)" r="14.805"/><circle cx="103.032" cy="432.876" fill="url(#SVGID_9_)" r="14.805"/><circle cx="406.967" cy="432.876" fill="url(#SVGID_10_)" r="14.805"/><path d="m431.245 243.64h-352.49c-5.719 0-10.356-4.637-10.356-10.356v-183.986c0-5.719 4.637-10.356 10.356-10.356h352.49c5.72 0 10.356 4.637 10.356 10.356v183.986c0 5.72-4.637 10.356-10.356 10.356z" fill="url(#SVGID_11_)"/><path d="m423.582 236.543h-337.164c-5.394 0-9.767-4.373-9.767-9.767v-170.97c0-5.394 4.373-9.767 9.767-9.767h337.164c5.394 0 9.767 4.373 9.767 9.767v170.97c0 5.394-4.373 9.767-9.767 9.767z" fill="url(#SVGID_12_)"/><path d="m410.3 101.544c-17.287 0-31.301-14.014-31.301-31.301 0-.71.024-1.414.071-2.112.227-3.351-2.418-6.193-5.777-6.193h-236.587c-3.358 0-6.004 2.842-5.777 6.193.047.698.071 1.402.071 2.112 0 17.287-14.014 31.301-31.301 31.301-.02 0-.041 0-.061 0-3.247-.006-5.912 2.549-5.912 5.796v67.903c0 3.247 2.665 5.802 5.912 5.796h.061c17.287 0 31.301 14.014 31.301 31.301 0 .71-.024 1.414-.071 2.112-.227 3.351 2.418 6.192 5.777 6.192h236.587c3.358 0 6.004-2.842 5.777-6.192-.047-.698-.071-1.402-.071-2.112 0-17.287 14.014-31.301 31.301-31.301h.061c3.247.006 5.912-2.549 5.912-5.796v-67.903c0-3.247-2.665-5.802-5.912-5.796-.02 0-.041 0-.061 0z" fill="url(#SVGID_13_)"/><circle cx="255" cy="141.291" fill="url(#SVGID_14_)" r="71.304"/><circle cx="103.032" cy="77.123" fill="url(#SVGID_15_)" r="14.805"/><circle cx="406.967" cy="77.123" fill="url(#SVGID_16_)" r="14.805"/><circle cx="103.032" cy="205.459" fill="url(#SVGID_17_)" r="14.805"/><circle cx="406.967" cy="205.459" fill="url(#SVGID_18_)" r="14.805"/><path d="m326.238 143.888-45.913-46.068c-9.596-3.389-19.232-3.551-28.74.149-7.522 2.927-12.765 8.29-15.533 15.952-1.838 5.089-1.927 10.348-1.44 15.649.183 1.986.5 3.96.775 6.087h-8.018c-1.65 0-2.988 1.338-2.988 2.987v8.484c0 1.282.812 2.367 1.947 2.791l10.984 11.337c-.182.546-.39 1.089-.638 1.628-2.5 5.441-6.508 9.365-11.609 12.208-.817.455-1.31 1.332-1.31 2.267v7.363c0 1.185.792 2.176 1.872 2.5l25.245 25.245c1.366.078 2.74.128 4.126.128 38.511 0 69.871-30.532 71.24-68.707z" fill="url(#SVGID_19_)"/><path d="m255.394 135.607h15.992c1.65 0 2.987 1.338 2.987 2.988v8.475c0 1.65-1.338 2.988-2.987 2.988h-14.2c.311 7.872-2.092 14.582-8.076 19.824.057.159.057.159.114.318h34.686c1.288 0 2.332 1.044 2.332 2.332v12.481c0 1.288-1.044 2.332-2.332 2.332h-57.532c-1.448 0-2.622-1.174-2.622-2.622v-7.363c0-.935.492-1.812 1.31-2.267 5.102-2.843 9.11-6.767 11.609-12.208 1.876-4.083 1.752-8.355 1.3-12.768h-10.605c-1.65 0-2.987-1.337-2.987-2.988v-8.484c0-1.65 1.338-2.988 2.987-2.988h8.018c-.275-2.127-.592-4.101-.775-6.087-.487-5.3-.398-10.559 1.44-15.649 2.767-7.662 8.011-13.025 15.533-15.952 9.507-3.7 19.143-3.538 28.74-.149 1.065.378 1.686 1.486 1.454 2.592-.796 3.805-1.587 7.591-2.39 11.431-.288 1.377-1.723 2.2-3.049 1.728-2.389-.85-4.827-1.247-7.322-1.332-1.805-.061-3.655-.081-5.421.233-5.808 1.033-9.195 5.041-9.543 10.977-.238 4.07.319 8.043 1.339 12.158z" fill="url(#SVGID_20_)"/><path d="m411.45 243.64h-332.69c-5.72 0-10.36-4.64-10.36-10.36v-144.26c16.61-18.64 35.74-34.55 56.88-47.35-1.35-.79-2.59-1.71-3.72-2.73h84.022z" fill="url(#SVGID_21_)"/><path d="m204.22 47.13-17.05 46.59c-4.25 11.61-17.1 17.58-28.71 13.33-10.15-3.72-15.99-14.02-14.44-24.32-21.08 13.53-39.6 30.92-54.76 51.58-25.96 35.38-39.68 77.35-39.68 121.38 0 30.15 6.43 59.33 18.82 86.09v80.59c-5.34-6-10.43-12.27-15.23-18.82-31.63-43.11-48.35-94.24-48.35-147.86s16.72-104.75 48.35-147.86c19.74-26.9 44.18-49.24 72.11-66.16-9.16-5.37-13.46-16.66-9.69-26.97 4.25-11.61 17.1-17.58 28.71-13.33l46.6 17.05c1.36.508 9.141 3.56 12.85 12.19 3.387 7.879 1.035 14.952.47 16.52z" fill="url(#SVGID_22_)"/><path d="m197.595 44.857-17.002 46.458c-2.212 6.044-8.018 10.105-14.446 10.105-1.796 0-3.574-.317-5.284-.943-6.829-2.503-11.004-9.528-9.924-16.704l2.299-15.277-13.001 8.345c-21.937 14.079-40.987 32.021-56.623 53.329-26.844 36.586-41.034 79.99-41.034 125.519 0 30.651 6.331 60.121 18.82 87.619v59.564c-.875-1.15-1.736-2.304-2.584-3.46-30.746-41.905-46.996-91.604-46.996-143.723 0-52.12 16.25-101.817 46.994-143.719 19.156-26.104 42.739-47.742 70.093-64.313l10.046-6.086-10.133-5.94c-6.409-3.757-9.208-11.549-6.656-18.526 2.212-6.044 8.017-10.105 14.445-10.105 1.796 0 3.574.317 5.284.943l46.364 16.964c1.067.442 6.278 2.732 8.808 8.691 2.239 5.273.925 9.997.53 11.259z" fill="url(#SVGID_23_)"/><path d="m202.104 27.491c-100.937 29.074-174.775 122.113-174.775 232.407 0 49.935 15.138 96.332 41.071 134.861v-52.979c-12.39-26.76-18.82-55.94-18.82-86.09 0-44.03 13.72-86 39.68-121.38 15.16-20.66 33.68-38.05 54.76-51.58-1.55 10.3 4.29 20.6 14.44 24.32 11.61 4.25 24.46-1.72 28.71-13.33l17.05-46.59c.683-1.904 1.746-5.667 1.163-10.402-.537-4.364-2.224-7.552-3.279-9.237z" fill="url(#SVGID_24_)"/><path d="m441.601 408.813-62.245 62.245h51.889c5.719 0 10.356-4.637 10.356-10.356z" fill="url(#SVGID_25_)"/><path d="m305.78 462.87 17.05-46.59c4.25-11.61 17.1-17.58 28.71-13.33 10.15 3.72 15.99 14.02 14.44 24.32 21.08-13.53 39.6-30.92 54.76-51.58 25.96-35.38 39.68-77.35 39.68-121.38 0-30.15-6.43-59.33-18.82-86.09v-80.59c5.34 6 10.43 12.27 15.23 18.82 31.63 43.11 48.35 94.24 48.35 147.86s-16.72 104.75-48.35 147.86c-19.74 26.9-44.18 49.24-72.11 66.16 9.16 5.37 13.46 16.66 9.69 26.97-4.25 11.61-17.1 17.58-28.71 13.33l-46.6-17.05c-1.674-.64-8.268-3.384-12.078-10.721-4.401-8.474-1.726-16.597-1.242-17.989z" fill="url(#SVGID_26_)"/><path d="m319.101 491.58 46.6 17.05c11.61 4.25 24.46-1.72 28.71-13.33 3.77-10.31-.53-21.6-9.69-26.97 27.93-16.92 52.37-39.26 72.11-66.16 31.63-43.11 48.35-94.24 48.35-147.86-.001-53.62-16.721-104.75-48.351-147.86-4.8-6.55-9.89-12.82-15.23-18.82v27.611c25.932 38.529 41.071 84.926 41.071 134.861 0 110.293-73.837 203.333-174.774 232.407.928 1.443 2.425 3.416 4.701 5.295 2.445 2.02 4.841 3.147 6.503 3.776z" fill="url(#SVGID_27_)"/><path d="m312.4 465.142 17.002-46.458c2.212-6.044 8.018-10.105 14.446-10.105 1.796 0 3.574.317 5.284.943 6.829 2.503 11.004 9.528 9.924 16.704l-2.299 15.277 13.001-8.345c21.937-14.079 40.987-32.021 56.623-53.329 26.846-36.587 41.036-79.991 41.036-125.52 0-30.651-6.331-60.121-18.82-87.619v-59.562h.003c.875 1.15 1.736 2.304 2.584 3.46 30.746 41.905 46.996 91.603 46.996 143.723s-16.251 101.817-46.994 143.719c-19.156 26.104-42.739 47.742-70.093 64.314l-10.046 6.086 10.133 5.94c6.409 3.757 9.208 11.549 6.656 18.526-2.212 6.042-8.018 10.104-14.446 10.104-1.796 0-3.574-.317-5.284-.943l-46.364-16.964c-.912-.312-6.392-2.287-9.046-8.245-2.511-5.636-.668-10.737-.296-11.706z" fill="url(#SVGID_28_)"/></svg>