

<svg id="svg8" fill="none" height="512" viewBox="0 0 48 48" width="512" xmlns="http://www.w3.org/2000/svg" xmlns:svg="http://www.w3.org/2000/svg"><g id="g19" clip-rule="evenodd" fill-rule="evenodd"><path id="path2" d="m37.2737 41.2737c-3.6176 2.9544-8.2387 4.7263-13.2737 4.7263-11.598 0-21-9.402-21-21 0-2.5174.44294-4.9313 1.25514-7.168-.16832.8863-.25514 1.7847-.25514 2.6832 0 9.2382 6.4731 16.4848 16 16.4848 3.7916 0 7.2578-1.071 10.0571-2.9429zm3.8648-4.1352c2.4319-3.4274 3.8615-7.616 3.8615-12.1385 0-11.598-9.402-21-21-21-2.6109 0-5.1105.47647-7.4166 1.34721 1.0869-.22645 2.228-.34721 3.4166-.34721 9.5269 0 17 6.7618 17 16 0 3.4672-1.0526 6.5856-2.8714 9.1286z" fill="#0bf"/><path id="path4" d="m36 20.5c0 8.5604-6.9396 15.5-15.5 15.5s-15.5-6.9396-15.5-15.5 6.9396-15.5 15.5-15.5 15.5 6.9396 15.5 15.5zm-6.1309 14.7833c-2.7088 1.7204-5.9226 2.7167-9.3691 2.7167-9.665 0-17.5-7.835-17.5-17.5s7.835-17.5 17.5-17.5 17.5 7.835 17.5 17.5c0 3.4465-.9963 6.6603-2.7167 9.3691l8.6015 8.6015c1.4951 1.4951 1.4951 3.9191 0 5.4142s-3.9191 1.4951-5.4142 0zm1.6451-1.1834 8.3706 8.3707c.7141.7141 1.8718.7141 2.5858 0 .7141-.714.7141-1.8717 0-2.5858l-8.3707-8.3706c-.7696.9491-1.6366 1.8161-2.5857 2.5857z" fill="#6a7283"/><path id="path6" d="m12.643 10.7774c.4294-.3474.4958-.97711.1484-1.40644s-.9771-.49574-1.4064-.14833c-2.89037 2.33887-4.86564 5.76937-5.29655 9.66747-.06068.549.33513 1.0432.88407 1.1038.54894.0607 1.04314-.3351 1.10382-.884.37097-3.3559 2.07136-6.3133 4.56666-8.3325zm-5.643 12.2226c.55228 0 1-.4477 1-1s-.44772-1-1-1-1 .4477-1 1 .44772 1 1 1z" fill="#ffc524"/></g></svg>