<svg xmlns="http://www.w3.org/2000/svg" xml:space="preserve" viewBox="0 0 512 512"><radialGradient id="a" cx="252.438" cy="266.653" r="266.69" gradientTransform="matrix(1.0039 0 0 -1.0039 .192 516.56)" gradientUnits="userSpaceOnUse"><stop offset="0" style="stop-color:#ffcf42"/><stop offset=".489" style="stop-color:#ffce40"/><stop offset=".665" style="stop-color:#ffcc39"/><stop offset=".79" style="stop-color:#ffc72e"/><stop offset=".892" style="stop-color:#ffc01d"/><stop offset=".978" style="stop-color:#ffb807"/><stop offset="1" style="stop-color:#ffb500"/></radialGradient><path d="M256 504.55c137.27 0 248.55-111.28 248.55-248.55C504.549 118.73 393.27 7.45 256 7.45S7.45 118.73 7.45 256 118.729 504.55 256 504.55m0-349.565c55.789 0 101.015 45.226 101.015 101.015S311.788 357.015 256 357.015 154.985 311.789 154.985 256 200.211 154.985 256 154.985" style="fill:url(#a)"/><radialGradient id="b" cx="256.498" cy="279.823" r="146.2" gradientTransform="matrix(1.0039 0 0 -1.0039 .192 516.56)" gradientUnits="userSpaceOnUse"><stop offset="0" style="stop-color:#ff7000"/><stop offset=".405" style="stop-color:#ff7200;stop-opacity:.595"/><stop offset=".599" style="stop-color:#ff7a00;stop-opacity:.401"/><stop offset=".748" style="stop-color:#ff8700;stop-opacity:.252"/><stop offset=".873" style="stop-color:#f90;stop-opacity:.127"/><stop offset=".984" style="stop-color:#ffb100;stop-opacity:.017"/><stop offset="1" style="stop-color:#ffb500;stop-opacity:0"/></radialGradient><path d="M256 504.55c137.27 0 248.55-111.28 248.55-248.55C504.549 118.73 393.27 7.45 256 7.45S7.45 118.73 7.45 256 118.729 504.55 256 504.55m0-349.565c55.789 0 101.015 45.226 101.015 101.015S311.788 357.015 256 357.015 154.985 311.789 154.985 256 200.211 154.985 256 154.985" style="fill:url(#b)"/><linearGradient id="c" x1="55.044" x2="215.584" y1="140.048" y2="140.048" gradientTransform="matrix(1.0039 0 0 -1.0039 .192 516.56)" gradientUnits="userSpaceOnUse"><stop offset="0" style="stop-color:#ff4c4a"/><stop offset="1" style="stop-color:#ff001c"/></linearGradient><path d="M184.571 327.428c-9.491-9.491-16.692-20.404-21.616-32.049L55.452 402.882a250.4 250.4 0 0 0 24.797 28.869 250.5 250.5 0 0 0 28.869 24.797l107.504-107.504c-11.647-4.924-22.559-12.125-32.051-21.616" style="fill:url(#c)"/><linearGradient id="d" x1="294.033" x2="454.573" y1="379.037" y2="379.037" gradientTransform="matrix(1.0039 0 0 -1.0039 .192 516.56)" gradientUnits="userSpaceOnUse"><stop offset="0" style="stop-color:#ff4c4a"/><stop offset="1" style="stop-color:#ff001c"/></linearGradient><path d="M327.428 184.572c9.491 9.491 16.692 20.404 21.616 32.05l107.504-107.504a250.4 250.4 0 0 0-24.797-28.869 250.5 250.5 0 0 0-28.869-24.797L295.378 162.956c11.646 4.924 22.558 12.125 32.05 21.616" style="fill:url(#d)"/><linearGradient id="e" x1="55.043" x2="215.584" y1="379.037" y2="379.037" gradientTransform="matrix(1.0039 0 0 -1.0039 .192 516.56)" gradientUnits="userSpaceOnUse"><stop offset="0" style="stop-color:#ff4c4a"/><stop offset="1" style="stop-color:#ff001c"/></linearGradient><path d="m55.451 109.118 107.504 107.504c4.924-11.646 12.125-22.558 21.616-32.049s20.404-16.692 32.05-21.616L109.118 55.453A250 250 0 0 0 80.249 80.25a250 250 0 0 0-24.798 28.868" style="fill:url(#e)"/><linearGradient id="f" x1="294.033" x2="454.573" y1="140.048" y2="140.048" gradientTransform="matrix(1.0039 0 0 -1.0039 .192 516.56)" gradientUnits="userSpaceOnUse"><stop offset="0" style="stop-color:#ff4c4a"/><stop offset="1" style="stop-color:#ff001c"/></linearGradient><path d="M456.548 402.882 349.044 295.379c-4.924 11.647-12.124 22.558-21.616 32.05s-20.404 16.692-32.049 21.616l107.504 107.504a250.4 250.4 0 0 0 28.869-24.797 251 251 0 0 0 24.796-28.87" style="fill:url(#f)"/><path d="M276.507 13.551c0 11.324-9.183 20.507-20.507 20.507s-20.507-9.183-20.507-20.507c0-1.834.242-3.625.703-5.316a251.5 251.5 0 0 1 39.608 0c.461 1.692.703 3.482.703 5.316M276.507 498.449c0 1.834-.242 3.625-.703 5.317a251.5 251.5 0 0 1-39.608 0 20.2 20.2 0 0 1-.703-5.317c0-11.324 9.183-20.507 20.507-20.507s20.507 9.182 20.507 20.507M504.544 256c0 6.667-.264 13.269-.78 19.804a20.2 20.2 0 0 1-5.317.703c-11.324 0-20.507-9.183-20.507-20.507s9.183-20.507 20.507-20.507c1.834 0 3.625.242 5.317.703.516 6.535.78 13.137.78 19.804M34.058 256c0 11.324-9.183 20.507-20.507 20.507-1.834 0-3.625-.242-5.317-.703a251.5 251.5 0 0 1 0-39.608 20.2 20.2 0 0 1 5.317-.703c11.325 0 20.507 9.183 20.507 20.507" style="fill:#ff7000"/><radialGradient id="g" cx="254.808" cy="259.543" r="279.5" gradientTransform="matrix(1.0039 0 0 -1.0039 .192 516.56)" gradientUnits="userSpaceOnUse"><stop offset="0" style="stop-color:#ffb500;stop-opacity:0"/><stop offset=".484" style="stop-color:#ffb300;stop-opacity:.484"/><stop offset=".659" style="stop-color:#ffac00;stop-opacity:.659"/><stop offset=".783" style="stop-color:#ffa100;stop-opacity:.783"/><stop offset=".884" style="stop-color:#ff9000;stop-opacity:.884"/><stop offset=".969" style="stop-color:#ff7a00;stop-opacity:.969"/><stop offset="1" style="stop-color:#ff7000"/></radialGradient><path d="M256 504.55c137.27 0 248.55-111.28 248.55-248.55C504.549 118.73 393.27 7.45 256 7.45S7.45 118.73 7.45 256 118.729 504.55 256 504.55m0-349.565c55.789 0 101.015 45.226 101.015 101.015S311.788 357.015 256 357.015 154.985 311.789 154.985 256 200.211 154.985 256 154.985" style="fill:url(#g)"/><circle cx="256" cy="18.481" r="6.325" style="fill:#ffcf42"/><circle cx="256" cy="491.239" r="6.325" style="fill:#ffcf42"/><circle cx="492.383" cy="254.866" r="6.325" style="fill:#ffcf42"/><circle cx="19.618" cy="254.866" r="6.325" style="fill:#ffcf42"/><radialGradient id="h" cx="143.408" cy="263.532" r="149.22" gradientTransform="scale(1.004 -1.004)rotate(45 827.175 140.957)" gradientUnits="userSpaceOnUse"><stop offset="0" style="stop-color:#c1001c"/><stop offset=".478" style="stop-color:#c3001c;stop-opacity:.522"/><stop offset=".661" style="stop-color:#ca001c;stop-opacity:.339"/><stop offset=".793" style="stop-color:#d6001c;stop-opacity:.206"/><stop offset=".901" style="stop-color:#e7001c;stop-opacity:.099"/><stop offset=".993" style="stop-color:#fd001c;stop-opacity:.007"/><stop offset="1" style="stop-color:#ff001c;stop-opacity:0"/></radialGradient><path d="M184.571 327.428c-9.491-9.491-16.692-20.404-21.616-32.049L55.452 402.882a250.4 250.4 0 0 0 24.797 28.869 250.5 250.5 0 0 0 28.869 24.797l107.504-107.504c-11.647-4.924-22.559-12.125-32.051-21.616" style="fill:url(#h)"/><radialGradient id="i" cx="143.408" cy="263.532" r="149.22" gradientTransform="scale(1.004 -1.004)rotate(45 827.175 140.957)" gradientUnits="userSpaceOnUse"><stop offset="0" style="stop-color:#c1001c"/><stop offset=".478" style="stop-color:#c3001c;stop-opacity:.522"/><stop offset=".661" style="stop-color:#ca001c;stop-opacity:.339"/><stop offset=".793" style="stop-color:#d6001c;stop-opacity:.206"/><stop offset=".901" style="stop-color:#e7001c;stop-opacity:.099"/><stop offset=".993" style="stop-color:#fd001c;stop-opacity:.007"/><stop offset="1" style="stop-color:#ff001c;stop-opacity:0"/></radialGradient><path d="M327.428 184.572c9.491 9.491 16.692 20.404 21.616 32.05l107.504-107.504a250.4 250.4 0 0 0-24.797-28.869 250.5 250.5 0 0 0-28.869-24.797L295.378 162.956c11.646 4.924 22.558 12.125 32.05 21.616" style="fill:url(#i)"/><radialGradient id="j" cx="143.408" cy="263.532" r="149.22" gradientTransform="scale(1.004 -1.004)rotate(45 827.175 140.957)" gradientUnits="userSpaceOnUse"><stop offset="0" style="stop-color:#c1001c"/><stop offset=".478" style="stop-color:#c3001c;stop-opacity:.522"/><stop offset=".661" style="stop-color:#ca001c;stop-opacity:.339"/><stop offset=".793" style="stop-color:#d6001c;stop-opacity:.206"/><stop offset=".901" style="stop-color:#e7001c;stop-opacity:.099"/><stop offset=".993" style="stop-color:#fd001c;stop-opacity:.007"/><stop offset="1" style="stop-color:#ff001c;stop-opacity:0"/></radialGradient><path d="m55.451 109.118 107.504 107.504c4.924-11.646 12.125-22.558 21.616-32.049s20.404-16.692 32.05-21.616L109.118 55.453A250 250 0 0 0 80.249 80.25a250 250 0 0 0-24.798 28.868" style="fill:url(#j)"/><radialGradient id="k" cx="143.408" cy="263.532" r="149.22" gradientTransform="scale(1.004 -1.004)rotate(45 827.175 140.957)" gradientUnits="userSpaceOnUse"><stop offset="0" style="stop-color:#c1001c"/><stop offset=".478" style="stop-color:#c3001c;stop-opacity:.522"/><stop offset=".661" style="stop-color:#ca001c;stop-opacity:.339"/><stop offset=".793" style="stop-color:#d6001c;stop-opacity:.206"/><stop offset=".901" style="stop-color:#e7001c;stop-opacity:.099"/><stop offset=".993" style="stop-color:#fd001c;stop-opacity:.007"/><stop offset="1" style="stop-color:#ff001c;stop-opacity:0"/></radialGradient><path d="M456.548 402.882 349.044 295.379c-4.924 11.647-12.124 22.558-21.616 32.05s-20.404 16.692-32.049 21.616l107.504 107.504a250.4 250.4 0 0 0 28.869-24.797 251 251 0 0 0 24.796-28.87" style="fill:url(#k)"/><linearGradient id="l" x1="316.127" x2="220.526" y1="470.594" y2="566.195" gradientTransform="matrix(1.0039 0 0 -1.0039 .192 516.56)" gradientUnits="userSpaceOnUse"><stop offset="0" style="stop-color:#ffb500;stop-opacity:0"/><stop offset="1" style="stop-color:#ff7000"/></linearGradient><path d="M256 7.45a250 250 0 0 0-46.57 4.375l121.312 121.311 80.16-71.505C368.417 27.727 314.579 7.45 256 7.45" style="fill:url(#l)"/><linearGradient id="m" x1="80.801" x2="-56.942" y1="192.173" y2="329.913" gradientTransform="matrix(1.0039 0 0 -1.0039 .192 516.56)" gradientUnits="userSpaceOnUse"><stop offset="0" style="stop-color:#ffb500;stop-opacity:0"/><stop offset="1" style="stop-color:#ff7000"/></linearGradient><path d="M7.45 256c0 19.092 2.159 37.678 6.234 55.535l70.113 70.113 55.182-55.869L13.681 200.48A249.4 249.4 0 0 0 7.45 256" style="fill:url(#m)"/><path d="M319.878 512c104.628 0 189.749-85.12 189.749-189.749 0-23.412-4.215-46.272-12.528-67.943a5.492 5.492 0 1 0-10.256 3.935c7.83 20.411 11.8 41.946 11.8 64.009 0 98.571-80.193 178.764-178.764 178.764-21.464 0-42.451-3.763-62.378-11.183a5.493 5.493 0 0 0-3.834 10.294C274.824 508.005 297.1 512 319.878 512" style="fill:#b2c7d8"/><path d="M192.121 512C87.493 512 2.373 426.88 2.373 322.251c0-23.412 4.215-46.272 12.528-67.943a5.492 5.492 0 1 1 10.256 3.935c-7.83 20.411-11.8 41.946-11.8 64.009 0 98.571 80.193 178.764 178.764 178.764 21.464 0 42.451-3.763 62.378-11.183a5.493 5.493 0 0 1 3.834 10.294C237.175 508.005 214.899 512 192.121 512M319.878 0c104.628 0 189.749 85.121 189.749 189.749 0 23.412-4.215 46.272-12.528 67.943a5.492 5.492 0 1 1-10.256-3.935c7.83-20.411 11.8-41.946 11.8-64.009 0-98.571-80.193-178.764-178.764-178.764-21.464 0-42.451 3.763-62.378 11.183a5.493 5.493 0 0 1-3.834-10.294C274.824 3.995 297.1 0 319.878 0" style="fill:#b2c7d8"/><path d="M192.121 0C87.493 0 2.373 85.121 2.373 189.749c0 23.412 4.215 46.272 12.528 67.943a5.492 5.492 0 1 0 10.256-3.935c-7.83-20.411-11.8-41.946-11.8-64.009 0-98.571 80.193-178.764 178.764-178.764 21.464 0 42.451 3.763 62.378 11.183a5.493 5.493 0 0 0 3.834-10.294C237.175 3.995 214.899 0 192.121 0" style="fill:#b2c7d8"/><ellipse cx="256" cy="490.536" rx="18.824" ry="5.351" style="fill:#879faf"/><circle cx="256" cy="490.536" r="10.059" style="fill:#e7f1fd"/><ellipse cx="256" cy="21.462" rx="18.824" ry="5.351" style="fill:#879faf"/><circle cx="256" cy="21.462" r="10.059" style="fill:#e7f1fd"/><ellipse cx="21.461" cy="256" rx="5.351" ry="18.824" style="fill:#879faf"/><circle cx="21.461" cy="256" r="10.059" style="fill:#e7f1fd"/><ellipse cx="490.536" cy="256" rx="5.351" ry="18.824" style="fill:#879faf"/><circle cx="490.536" cy="256" r="10.059" style="fill:#e7f1fd"/></svg>