

<svg height="512pt" viewBox="0 -106 512.00077 512" width="512pt" xmlns="http://www.w3.org/2000/svg" xmlns:xlink="http://www.w3.org/1999/xlink"><linearGradient id="a" gradientUnits="userSpaceOnUse" x1="222.2002328884" x2="365.5429266378" y1="123.7476699056" y2="454.4416849418"><stop offset="0" stop-color="#ff6e3a"/><stop offset=".1596" stop-color="#ff6440"/><stop offset=".4266" stop-color="#ff4b52"/><stop offset=".7662" stop-color="#ff216e"/><stop offset="1" stop-color="#ff0084"/></linearGradient><radialGradient id="b" cx="253" cy="440.4365" gradientTransform="matrix(1.003922 0 0 .438613 -.000032 143.186203)" gradientUnits="userSpaceOnUse" r="280.0579"><stop offset="0" stop-color="#a64153"/><stop offset=".3871" stop-color="#a83f52" stop-opacity=".611765"/><stop offset=".5898" stop-color="#b03750" stop-opacity=".411765"/><stop offset=".7497" stop-color="#bc294b" stop-opacity=".25098"/><stop offset=".8864" stop-color="#cf1645" stop-opacity=".113725"/><stop offset="1" stop-color="#e4003d" stop-opacity="0"/></radialGradient><linearGradient id="c"><stop offset="0" stop-color="#e4003d" stop-opacity="0"/><stop offset=".5838" stop-color="#bd294b" stop-opacity=".584314"/><stop offset="1" stop-color="#a64153"/></linearGradient><linearGradient id="d" gradientUnits="userSpaceOnUse" x1="188.3309163744" x2="-5.0194412156" xlink:href="#c" y1="283.260033348" y2="89.909675758"/><linearGradient id="e" gradientUnits="userSpaceOnUse" x1="398.6057926092" x2="156.3117277142" xlink:href="#c" y1="319.9502702898" y2="77.6562053948"/><linearGradient id="f" gradientUnits="userSpaceOnUse" x1="477.5175755362" x2="422.3018655362" xlink:href="#c" y1="358.8771450554" y2="169.6378480554"/><linearGradient id="g"><stop offset="0" stop-color="#ffd459"/><stop offset=".2296" stop-color="#ffd355"/><stop offset=".4362" stop-color="#ffcf4a"/><stop offset=".634" stop-color="#ffc838"/><stop offset=".825" stop-color="#ffbf1f"/><stop offset="1" stop-color="#ffb400"/></linearGradient><linearGradient id="h" gradientUnits="userSpaceOnUse" x1="168.0511900134" x2="324.7874079492" xlink:href="#g" y1="45.43191547" y2="202.1680330136"/><linearGradient id="i"><stop offset="0" stop-color="#e58200" stop-opacity="0"/><stop offset=".0396" stop-color="#e27f04" stop-opacity=".039216"/><stop offset=".4671" stop-color="#c15d2f" stop-opacity=".466667"/><stop offset=".8016" stop-color="#ad4949" stop-opacity=".8"/><stop offset="1" stop-color="#a64153"/></linearGradient><linearGradient id="j" gradientUnits="userSpaceOnUse" x1="270.2431209828" x2="106.852908031" xlink:href="#i" y1="72.3752744982" y2="-4.8228135748"/><linearGradient id="k" gradientUnits="userSpaceOnUse" x1="311.8832957378" x2="247.42658412" xlink:href="#i" y1="100.3879108486" y2="-54.0083656896"/><linearGradient id="l" gradientTransform="matrix(-1.003922 0 0 1.003922 593.173954 -105.793875)" gradientUnits="userSpaceOnUse" x1="386.4179" x2="322.213" xlink:href="#i" y1="193.1507" y2="39.3576"/><linearGradient id="m"><stop offset="0" stop-color="#e58200" stop-opacity="0"/><stop offset=".2413" stop-color="#da760f" stop-opacity=".243137"/><stop offset=".7044" stop-color="#bc5737" stop-opacity=".705882"/><stop offset="1" stop-color="#a64153"/></linearGradient><linearGradient id="n" gradientUnits="userSpaceOnUse" x1="224.2842745682" x2="306.2292070338" xlink:href="#m" y1="188.1282842358" y2="287.0617855698"/><linearGradient id="o" gradientUnits="userSpaceOnUse" x1="301.3308708114" x2="394.4837892694" xlink:href="#m" y1="175.1890347544" y2="108.6511928306"/><linearGradient id="p"><stop offset="0" stop-color="#ffd459" stop-opacity="0"/><stop offset=".1903" stop-color="#ffd55c" stop-opacity=".192157"/><stop offset=".3461" stop-color="#ffd766" stop-opacity=".345098"/><stop offset=".4896" stop-color="#ffdc78" stop-opacity=".490196"/><stop offset=".6259" stop-color="#ffe290" stop-opacity=".627451"/><stop offset=".757" stop-color="#ffeaaf" stop-opacity=".756863"/><stop offset=".8824" stop-color="#fff4d4" stop-opacity=".882353"/><stop offset="1" stop-color="#fff"/></linearGradient><linearGradient id="q" gradientUnits="userSpaceOnUse" x1="280.7444462794" x2="185.033333781" xlink:href="#p" y1="158.336999278" y2="32.2647756946"/><linearGradient id="r" gradientTransform="matrix(.969889 -.259112 .259112 .969889 -58.714686 -76.826521)" gradientUnits="userSpaceOnUse" x1="12.7981" x2="117.6975" xlink:href="#g" y1="231.3103" y2="336.2098"/><linearGradient id="s" gradientTransform="matrix(.969889 -.259112 .259112 .969889 -58.714686 -76.826521)" gradientUnits="userSpaceOnUse" x1="81.1925" x2="-28.1604" xlink:href="#i" y1="249.3429" y2="197.6762"/><linearGradient id="t" gradientTransform="matrix(.969889 -.259112 .259112 .969889 -58.714686 -76.826521)" gradientUnits="userSpaceOnUse" x1="109.0612" x2="65.922" xlink:href="#i" y1="268.091" y2="164.7576"/><linearGradient id="u" gradientTransform="matrix(-.969889 .259112 .259112 .969889 514.358682 -229.935302)" gradientUnits="userSpaceOnUse" x1="553.1688" x2="510.0296" xlink:href="#i" y1="259.8766" y2="156.5432"/><linearGradient id="v" gradientTransform="matrix(.969889 -.259112 .259112 .969889 -58.714686 -76.826521)" gradientUnits="userSpaceOnUse" x1="50.4334" x2="105.277" xlink:href="#m" y1="326.8133" y2="393.0269"/><linearGradient id="w" gradientTransform="matrix(.969889 -.259112 .259112 .969889 -58.714686 -76.826521)" gradientUnits="userSpaceOnUse" x1="101.9987" x2="164.3435" xlink:href="#m" y1="318.1534" y2="273.6214"/><linearGradient id="x" gradientTransform="matrix(.969889 -.259112 .259112 .969889 -58.714686 -76.826521)" gradientUnits="userSpaceOnUse" x1="88.2207" x2="24.1637" xlink:href="#p" y1="306.8748" y2="222.4979"/><linearGradient id="y" gradientTransform="matrix(-.969889 -.259112 -.259112 .969889 213.596731 -76.826521)" gradientUnits="userSpaceOnUse" x1="-330.8705" x2="-225.9711" xlink:href="#g" y1="139.4919" y2="244.3914"/><linearGradient id="z" gradientTransform="matrix(-.969889 -.259112 -.259112 .969889 213.596731 -76.826521)" gradientUnits="userSpaceOnUse" x1="-262.4761" x2="-371.829" xlink:href="#i" y1="157.5244" y2="105.8577"/><linearGradient id="A" gradientTransform="matrix(-.969889 -.259112 -.259112 .969889 213.596731 -76.826521)" gradientUnits="userSpaceOnUse" x1="-234.6075" x2="-277.7467" xlink:href="#i" y1="176.2726" y2="72.9391"/><linearGradient id="B" gradientTransform="matrix(.969889 .259112 -.259112 .969889 -359.476637 -229.935302)" gradientUnits="userSpaceOnUse" x1="896.8375" x2="853.6983" xlink:href="#i" y1="168.0582" y2="64.7248"/><linearGradient id="C" gradientTransform="matrix(-.969889 -.259112 -.259112 .969889 213.596731 -76.826521)" gradientUnits="userSpaceOnUse" x1="-293.2352" x2="-238.3916" xlink:href="#m" y1="234.9949" y2="301.2085"/><linearGradient id="D" gradientTransform="matrix(-.969889 -.259112 -.259112 .969889 213.596731 -76.826521)" gradientUnits="userSpaceOnUse" x1="-241.67" x2="-179.3251" xlink:href="#m" y1="226.335" y2="181.8029"/><linearGradient id="E" gradientTransform="matrix(.969587 .260317 -.260317 .969587 728.149 59.223323)" gradientUnits="userSpaceOnUse" x1="-241.5706" x2="-305.6276" xlink:href="#p" y1="217.8266" y2="133.4498"/><path d="m444.628906 298.722656c-121.339844-51.746094-255.917968-51.746094-377.257812 0-10.328125 4.402344-22.292969-.082031-27.230469-10.160156-12.660156-25.839844-25.316406-51.683594-37.976563-77.523438-5.289062-10.796874-.535156-23.867187 10.492188-28.667968 155.855469-67.824219 330.835938-67.820313 486.6875 0 11.027344 4.800781 15.785156 17.871094 10.492188 28.667968-12.660157 25.839844-25.316407 51.683594-37.976563 77.523438-4.941406 10.078125-16.902344 14.5625-27.230469 10.160156zm0 0" fill="url(#a)"/><path d="m21.605469 250.726562c6.179687 12.613282 12.355469 25.222657 18.535156 37.835938 4.9375 10.082031 16.902344 14.5625 27.230469 10.160156 121.335937-51.746094 255.917968-51.746094 377.257812 0 10.324219 4.402344 22.289063-.082031 27.226563-10.160156 6.179687-12.613281 12.359375-25.222656 18.535156-37.835938-150.589844-62.742187-318.191406-62.742187-468.785156 0zm0 0" fill="url(#b)"/><path d="m271.210938 260.164062c-63.230469-2.027343-126.714844 8.585938-187.253907 31.847657l-33.730469-33.734375c-2.910156-2.347656-4.988281-5.832032-5.382812-10.136719l-1.957031-21.445313-37.445313-37.496093c-.28125-.222657-.542968-.453125-.804687-.695313 2.070312-2.578125 4.769531-4.714844 8.023437-6.132812 47.003906-20.449219 95.742188-34.734375 145.1875-42.835938l110.394532 110.394532c2.65625 2.660156 3.890624 6.511718 2.984374 10.160156zm0 0" fill="url(#d)"/><path d="m266.574219 131.609375c-.035157 0-.066407 0-.101563-.003906-7.117187-.121094-14.238281-.117188-21.359375.007812-.171875.003907-.339843.007813-.511719.011719-10.582031.199219-21.164062.675781-31.730468 1.429688-.234375.019531-.464844.035156-.699219.050781-6.972656.503906-13.941406 1.132812-20.898437 1.882812-.292969.03125-.585938.0625-.878907.097657-7.015625.761718-14.019531 1.644531-21.015625 2.65625.238282.253906.472656.511718.722656.757812l1.433594 1.394531c.253906.269531.5.542969.769532.804688l1.433593 1.398437c.253907.269532.5.542969.765625.804688l1.4375 1.398437c.25.269531.496094.539063.765625.800781l1.039063 1.011719c2.832031 4.542969 3.949218 10.015625 3.027344 15.410157l-7.777344 45.339843c-1.417969 8.253907 1.792968 15.605469 7.234375 20.339844l34.511719 34.511719c2.269531-.199219 4.542968-.375 6.8125-.542969.425781-.03125.851562-.058594 1.277343-.085937 1.894531-.132813 3.785157-.253907 5.679688-.363282.484375-.03125.972656-.058594 1.457031-.085937 1.964844-.105469 3.929688-.203125 5.894531-.285157.332031-.015624.667969-.03125 1-.046874 4.699219-.1875 9.398438-.308594 14.09375-.359376.261719-.003906.527344-.003906.789063-.003906 2.015625-.019531 4.035156-.023437 6.054687-.015625.503907 0 1.007813.007813 1.511719.007813 1.839844.015625 3.679688.039062 5.519531.070312.496094.011719.996094.019532 1.492188.027344 2.042969.046875 4.085937.101562 6.128906.175781.242187.007813.480469.011719.722656.023438 4.660157.167969 9.320313.40625 13.980469.710937.457031.03125.917969.066406 1.375.097656 1.828125.125 3.652344.261719 5.472656.40625.585938.046876 1.167969.097657 1.75.144532 1.777344.148437 3.554688.308594 5.332032.476562.523437.050782 1.046874.097656 1.566406.148438 2.164062.214844 4.328125.441406 6.488281.683594.097656.011718.195313.023437.292969.03125 2.351562.269531 4.699218.550781 7.046875.851562.277343.035156.554687.074219.832031.113281 1.96875.253907 3.9375.523438 5.902344.804688.605468.085937 1.210937.175781 1.8125.265625 1.679687.246094 3.351562.5 5.027344.761718.652343.105469 1.300781.207032 1.949218.3125 1.730469.28125 3.457032.570313 5.179688.867188.535156.09375 1.074218.183594 1.609375.277344 4.523437.800781 9.039062 1.664062 13.550781 2.597656.542969.113281 1.082031.230469 1.625.34375 1.6875.355469 3.375.71875 5.0625 1.089844.703125.15625 1.40625.316406 2.109375.476562 1.566406.351563 3.128906.714844 4.695313 1.085938.695312.164062 1.394531.328125 2.089843.496094 1.714844.414062 3.429688.839843 5.140625 1.273437.507813.128906 1.015625.253906 1.523438.382813 2.230468.574218 4.460937 1.160156 6.691406 1.765624.277344.078126.550781.15625.828125.234376 1.917969.523437 3.832031 1.0625 5.746094 1.609374.691406.199219 1.378906.402344 2.070312.605469 1.515625.441407 3.03125.890625 4.546875 1.347657.765625.234374 1.527344.464843 2.292969.703124 1.492187.460938 2.984375.929688 4.476563 1.402344.714843.230469 1.425781.453125 2.140624.683594 1.785157.578125 3.570313 1.171875 5.351563 1.769531.390625.132813.785156.261719 1.179687.394531 2.167969.734376 4.335938 1.488282 6.5 2.257813.574219.203125 1.144532.414063 1.71875.621094 1.589844.574219 3.179688 1.148437 4.765626 1.738281.761718.28125 1.519531.570312 2.28125.855469 1.421874.539062 2.847656 1.082031 4.269531 1.632812.773437.300781 1.550781.605469 2.324219.910157 1.484374.582031 2.964843 1.175781 4.445312 1.773437.671875.273437 1.34375.542969 2.015625.816406 2.132813.875 4.265625 1.761719 6.390625 2.667969.558594.238281 1.125.4375 1.6875.625.546875.175781 1.09375.328125 1.644531.460938 9.457031 2.285156 19.484375-2.234376 23.898438-11.246094 2.308593-4.710938 4.617187-9.425782 6.925781-14.136719l-136.765625-136.765625c-25.035156-3.589844-50.230469-5.605469-75.441406-6.046875zm0 0" fill="url(#e)"/><path d="m471.859375 288.5625c12.660156-25.839844 25.316406-51.683594 37.976563-77.523438 5.289062-10.796874.535156-23.867187-10.492188-28.667968-47.003906-20.453125-95.75-34.730469-145.183594-42.84375-.984375 3.621094-.621094 7.671875 1.597656 11.402344l15.816407 26.554687c2.496093 4.191406 2.769531 9.34375.730469 13.777344l-12.910157 28.085937c-3.039062 6.613282-.808593 13.589844 4.011719 17.613282l49.527344 49.53125c10.652344 3.691406 21.222656 7.761718 31.695312 12.230468 10.328125 4.402344 22.289063-.082031 27.230469-10.160156zm0 0" fill="url(#f)"/><path d="m275.789062 12.300781 20.359376 41.25c3.214843 6.515625 9.425781 11.027344 16.613281 12.074219l45.523437 6.613281c18.101563 2.632813 25.328125 24.875 12.230469 37.640625l-32.941406 32.109375c-5.199219 5.070313-7.574219 12.375-6.347657 19.53125l7.777344 45.339844c3.09375 18.027344-15.828125 31.773437-32.019531 23.265625l-40.714844-21.410156c-6.429687-3.378906-14.109375-3.378906-20.539062 0l-40.714844 21.410156c-16.191406 8.507812-35.109375-5.238281-32.019531-23.265625l7.777344-45.339844c1.226562-7.15625-1.144532-14.460937-6.347657-19.53125l-32.941406-32.109375c-13.097656-12.765625-5.867187-35.007812 12.230469-37.640625l45.523437-6.613281c7.1875-1.042969 13.402344-5.558594 16.617188-12.074219l20.355469-41.25c8.09375-16.402343 31.484374-16.402343 39.578124 0zm0 0" fill="url(#h)"/><path d="m303.203125 61.789062c-2.957031-2.089843-5.40625-4.894531-7.054687-8.238281l-20.359376-41.25c-4.046874-8.199219-11.917968-12.300781-19.789062-12.300781v133.671875zm0 0" fill="url(#j)"/><path d="m256 133.671875 76.082031 17.0625c1.101563-3.261719 2.953125-6.273437 5.492188-8.746094l32.941406-32.109375c13.097656-12.765625 5.871094-35.007812-12.230469-37.640625l-45.523437-6.613281c-3.5-.507812-6.757813-1.851562-9.5625-3.835938zm0 0" fill="url(#k)"/><path d="m256 133.671875-76.082031 17.0625c-1.101563-3.261719-2.953125-6.273437-5.492188-8.746094l-32.941406-32.109375c-13.097656-12.765625-5.871094-35.007812 12.230469-37.640625l45.523437-6.613281c3.5-.507812 6.757813-1.851562 9.5625-3.835938zm0 0" fill="url(#l)"/><path d="m179.917969 150.734375c1.15625 3.421875 1.484375 7.121094.855469 10.785156l-7.777344 45.339844c-3.09375 18.027344 15.828125 31.773437 32.019531 23.265625l40.714844-21.410156c3.214843-1.6875 6.742187-2.53125 10.269531-2.53125v-72.511719zm0 0" fill="url(#n)"/><path d="m306.984375 230.125c16.191406 8.507812 35.113281-5.238281 32.019531-23.265625l-7.777344-45.339844c-.628906-3.664062-.300781-7.363281.855469-10.785156l-76.082031-17.0625v72.511719c3.527344 0 7.054688.84375 10.269531 2.535156zm0 0" fill="url(#o)"/><path d="m272.824219 27.878906 17.3125 35.074219c2.730469 5.539063 8.015625 9.378906 14.125 10.265625l38.710937 5.625c15.390625 2.238281 21.535156 21.148438 10.398438 32.003906l-28.011719 27.304688c-4.421875 4.308594-6.4375 10.519531-5.394531 16.605468l6.613281 38.550782c2.628906 15.328125-13.460937 27.019531-27.226563 19.78125l-34.621093-18.199219c-5.464844-2.875-11.996094-2.875-17.460938 0l-34.621093 18.199219c-13.769532 7.238281-29.855469-4.453125-27.226563-19.78125l6.613281-38.550782c1.042969-6.085937-.976562-12.296874-5.398437-16.605468l-28.007813-27.304688c-11.136718-10.855468-4.992187-29.765625 10.398438-32.003906l38.707031-5.625c6.113281-.890625 11.394531-4.726562 14.128906-10.265625l17.308594-35.074219c6.886719-13.945312 26.769531-13.945312 33.652344 0zm0 0" fill="url(#q)"/><path d="m77.828125 104.015625 20.367187 23.246094c3.21875 3.671875 8.035157 5.523437 12.878907 4.953125l30.699219-3.601563c12.207031-1.429687 20.753906 11.753907 14.46875 22.3125l-15.816407 26.558594c-2.496093 4.191406-2.769531 9.34375-.730469 13.777344l12.910157 28.085937c5.132812 11.164063-4.765625 23.367188-16.75 20.652344l-30.144531-6.832031c-4.757813-1.082031-9.742188.25-13.332032 3.558593l-22.71875 20.957032c-9.03125 8.332031-23.699218 2.691406-24.816406-9.546875l-2.816406-30.777344c-.445313-4.863281-3.25-9.191406-7.507813-11.582031l-26.949219-15.128906c-10.714843-6.015626-9.882812-21.707032 1.410157-26.554688l28.402343-12.1875c4.484376-1.925781 7.734376-5.933594 8.691407-10.71875l6.0625-30.308594c2.410156-12.050781 17.589843-16.105468 25.691406-6.863281zm0 0" fill="url(#r)"/><path d="m104.203125 131.386719c-2.277344-.84375-4.355469-2.242188-6.003906-4.125l-20.371094-23.246094c-4.050781-4.621094-9.871094-5.917969-14.980469-4.554687l23.183594 86.773437zm0 0" fill="url(#s)"/><path d="m86.03125 186.234375 52.347656-2.121094c.148438-2.308593.828125-4.582031 2.046875-6.628906l15.816407-26.558594c6.289062-10.558593-2.261719-23.742187-14.464844-22.3125l-30.699219 3.601563c-2.359375.277344-4.707031-.027344-6.871094-.832032zm0 0" fill="url(#t)"/><path d="m86.03125 186.234375-46.429688 24.269531c-1.28125-1.925781-3.003906-3.558594-5.082031-4.726562l-26.949219-15.128906c-10.714843-6.015626-9.882812-21.707032 1.410157-26.554688l28.40625-12.1875c2.179687-.9375 4.0625-2.375 5.539062-4.148438zm0 0" fill="url(#u)"/><path d="m39.601562 210.503906c1.34375 2.019532 2.199219 4.363282 2.425782 6.851563l2.816406 30.78125c1.117188 12.238281 15.785156 17.878906 24.816406 9.546875l22.71875-20.957032c1.796875-1.65625 3.9375-2.816406 6.226563-3.425781l-12.574219-47.070312zm0 0" fill="url(#v)"/><path d="m135.855469 240c11.984375 2.714844 21.882812-9.488281 16.75-20.65625l-12.910157-28.082031c-1.046874-2.269531-1.472656-4.726563-1.316406-7.148438l-52.347656 2.117188 12.574219 47.070312c2.289062-.613281 4.726562-.675781 7.105469-.136719zm0 0" fill="url(#w)"/><path d="m78.605469 114.640625 17.320312 19.765625c2.734375 3.121094 6.828125 4.699219 10.949219 4.214844l26.101562-3.0625c10.378907-1.21875 17.648438 9.992187 12.304688 18.972656l-13.449219 22.578125c-2.121093 3.566406-2.355469 7.949219-.621093 11.71875l10.976562 23.878906c4.367188 9.492188-4.050781 19.871094-14.242188 17.558594l-25.628906-5.808594c-4.046875-.917969-8.285156.214844-11.335937 3.027344l-19.316407 17.820313c-7.679687 7.085937-20.152343 2.289062-21.101562-8.117188l-2.394531-26.171875c-.378907-4.132813-2.765625-7.8125-6.382813-9.84375l-22.917968-12.867187c-9.109376-5.113282-8.402344-18.457032 1.203124-22.578126l24.148438-10.363281c3.8125-1.636719 6.578125-5.042969 7.390625-9.113281l5.15625-25.769531c2.046875-10.25 14.953125-13.699219 21.839844-5.839844zm0 0" fill="url(#x)"/><path d="m434.171875 104.015625-20.367187 23.246094c-3.21875 3.671875-8.035157 5.523437-12.878907 4.953125l-30.699219-3.601563c-12.207031-1.429687-20.753906 11.753907-14.46875 22.3125l15.816407 26.558594c2.496093 4.191406 2.769531 9.34375.730469 13.777344l-12.910157 28.085937c-5.132812 11.164063 4.765625 23.367188 16.75 20.652344l30.144531-6.832031c4.757813-1.082031 9.742188.25 13.328126 3.558593l22.71875 20.957032c9.035156 8.332031 23.703124 2.691406 24.820312-9.546875l2.816406-30.777344c.445313-4.863281 3.25-9.191406 7.507813-11.582031l26.949219-15.128906c10.714843-6.015626 9.882812-21.707032-1.410157-26.554688l-28.402343-12.1875c-4.484376-1.925781-7.734376-5.933594-8.691407-10.71875l-6.0625-30.308594c-2.410156-12.050781-17.589843-16.105468-25.691406-6.863281zm0 0" fill="url(#y)"/><path d="m407.792969 131.386719c2.28125-.84375 4.359375-2.242188 6.007812-4.125l20.371094-23.246094c4.050781-4.621094 9.871094-5.917969 14.980469-4.554687l-23.183594 86.773437zm0 0" fill="url(#z)"/><path d="m425.96875 186.234375-52.347656-2.121094c-.148438-2.308593-.828125-4.582031-2.046875-6.628906l-15.816407-26.558594c-6.289062-10.558593 2.261719-23.742187 14.464844-22.3125l30.699219 3.601563c2.359375.277344 4.707031-.027344 6.871094-.832032zm0 0" fill="url(#A)"/><path d="m425.96875 186.234375 46.429688 24.269531c1.28125-1.925781 3.003906-3.558594 5.082031-4.726562l26.949219-15.128906c10.714843-6.015626 9.882812-21.707032-1.410157-26.554688l-28.402343-12.1875c-2.183594-.9375-4.066407-2.375-5.542969-4.148438zm0 0" fill="url(#B)"/><path d="m472.398438 210.503906c-1.34375 2.019532-2.199219 4.363282-2.425782 6.851563l-2.816406 30.78125c-1.117188 12.238281-15.785156 17.878906-24.820312 9.546875l-22.71875-20.957032c-1.792969-1.65625-3.933594-2.816406-6.222657-3.425781l12.574219-47.070312zm0 0" fill="url(#C)"/><path d="m376.144531 240c-11.984375 2.714844-21.882812-9.488281-16.75-20.65625l12.910157-28.082031c1.046874-2.269531 1.472656-4.726563 1.316406-7.148438l52.347656 2.117188-12.574219 47.070312c-2.289062-.613281-4.726562-.675781-7.105469-.136719zm0 0" fill="url(#D)"/><path d="m454.816406 121.511719 5.121094 25.777343c.808594 4.070313 3.570312 7.480469 7.378906 9.121094l24.140625 10.394532c9.597657 4.132812 10.289063 17.476562 1.171875 22.578124l-22.933594 12.839844c-3.621093 2.027344-6.011718 5.703125-6.394531 9.835938l-2.425781 26.171875c-.960938 10.402343-13.4375 15.1875-21.109375 8.089843l-19.296875-17.839843c-3.046875-2.820313-7.285156-3.957031-11.332031-3.042969l-25.636719 5.78125c-10.195312 2.296875-18.597656-8.089844-14.222656-17.578125l11.007812-23.867187c1.738282-3.765626 1.511719-8.148438-.609375-11.71875l-13.417969-22.59375c-5.335937-8.984376 1.945313-20.1875 12.324219-18.957032l26.097657 3.089844c4.121093.488281 8.214843-1.082031 10.953124-4.199219l17.34375-19.742187c6.894532-7.851563 19.800782-4.386719 21.839844 5.859375zm0 0" fill="url(#E)"/></svg>