<?xml version="1.0" encoding="iso-8859-1"?>



<svg version="1.1" id="Capa_1" xmlns="http://www.w3.org/2000/svg" xmlns:xlink="http://www.w3.org/1999/xlink" x="0px" y="0px"
	 viewBox="0 0 468.293 468.293" style="enable-background:new 0 0 468.293 468.293;" xml:space="preserve">
<path style="fill:#3A556A;" d="M121.036,468.293H75.994c-17.322,0-31.414-14.096-31.414-31.421v-6.069
	c0-4.659,3.776-8.435,8.435-8.435s8.435,3.776,8.435,8.435v6.069c0,8.02,6.524,14.551,14.544,14.551h45.042
	c15.42,0,27.968-12.547,27.968-27.974c0-24.725,20.116-44.838,44.841-44.838h44.637c4.659,0,8.435,3.776,8.435,8.435
	c0,4.659-3.776,8.435-8.435,8.435h-44.637c-15.424,0-27.971,12.547-27.971,27.968C165.874,448.174,145.758,468.293,121.036,468.293z
	"/>
<path style="fill:#0097A7;" d="M80.111,324.456c-19.672-37.171-4.22-103.328-4.22-103.328l27.955,28.51l-14.122-61.907
	C179.611,52.815,423.712,0,423.712,0s-51.348,100.607-125.535,174.611l-46.268,0.76l31.998,13.254c0,0-37.344,46.364-63.693,63.263
	l-44.434-3.667l29.59,19.068C205.371,267.288,141.23,331.634,80.111,324.456z"/>
<path style="fill:#64798A;" d="M402.775,15.513c0,0-301.97,177.239-350.278,378.527l23.325-24.198
	C75.822,369.842,150.851,206.226,402.775,15.513z"/>
<g>
</g>
<g>
</g>
<g>
</g>
<g>
</g>
<g>
</g>
<g>
</g>
<g>
</g>
<g>
</g>
<g>
</g>
<g>
</g>
<g>
</g>
<g>
</g>
<g>
</g>
<g>
</g>
<g>
</g>
</svg>
