<?xml version="1.0" encoding="iso-8859-1"?>
<!-- Generator: Adobe Illustrator 19.0.0, SVG Export Plug-In . SVG Version: 6.00 Build 0)  -->
<svg version="1.1" id="Capa_1" xmlns="http://www.w3.org/2000/svg" xmlns:xlink="http://www.w3.org/1999/xlink" x="0px" y="0px"
	 viewBox="0 0 486.516 486.516" style="enable-background:new 0 0 486.516 486.516;" xml:space="preserve">
<polygon style="fill:#9E2D00;" points="64.516,449.928 64.516,184.554 370.945,7.637 370.945,273.013 "/>
<polygon style="fill:#FFA511;" points="128.347,486.516 51.74,442.287 358.168,265.374 434.776,309.602 "/>
<polygon style="fill:#88ABBF;" points="77.353,428.895 77.353,186.994 89.953,194.272 89.953,436.171 "/>
<polygon style="fill:#D6D6D6;" points="77.353,186.994 355.818,25.092 369.276,32.505 89.953,194.272 "/>
<polygon style="fill:#FFFFFF;" points="89.953,436.171 369.276,274.903 369.276,32.505 89.953,194.272 "/>
<polygon style="fill:#88ABBF;" points="95.627,439.212 95.627,197.31 108.228,204.588 108.228,446.484 "/>
<polygon style="fill:#D6D6D6;" points="95.627,197.31 374.094,35.403 387.549,42.82 108.228,204.588 "/>
<polygon style="fill:#FFFFFF;" points="108.228,446.484 387.549,285.219 387.549,42.82 108.228,204.588 "/>
<polygon style="fill:#88ABBF;" points="113.659,448.786 113.659,206.889 126.259,214.167 126.259,456.064 "/>
<polygon style="fill:#D6D6D6;" points="113.659,206.889 392.124,44.981 405.581,52.395 126.259,214.167 "/>
<polygon style="fill:#FFFFFF;" points="126.259,456.064 405.581,294.797 405.581,52.395 126.259,214.167 "/>
<polygon style="fill:#FFA511;" points="128.347,486.516 128.347,309.602 281.563,221.145 281.563,132.685 434.776,43.675 
	434.776,309.602 "/>
<polygon style="fill:#EB6B24;" points="421.962,36.83 269.151,125.518 269.151,213.977 116.19,302.581 116.19,464.405 
	64.516,434.912 64.516,184.291 370.945,7.637 358.168,0 51.74,176.915 51.74,442.287 128.347,486.516 128.347,309.602 
	281.563,221.145 281.563,132.685 434.776,43.675 "/>
<polygon style="fill:#FFDC13;" points="269.151,125.518 281.563,132.685 434.776,43.675 421.962,36.83 "/>
<polygon style="fill:#EB6B24;" points="269.151,213.977 281.563,221.145 281.563,132.685 269.151,125.518 "/>
<g>
	<polygon style="fill:#FFDC13;" points="116.19,302.581 128.347,309.602 281.563,221.145 269.151,213.977 	"/>
	<polygon style="fill:#FFDC13;" points="51.74,176.915 64.516,184.291 370.945,7.637 358.168,0 	"/>
</g>
<polygon style="fill:#304E75;" points="159.17,180.427 159.17,103.878 192.327,84.735 196.05,87.527 196.05,159.011 
	162.892,178.263 "/>
<polygon style="fill:#3CA5AF;" points="162.892,178.263 162.892,106.67 196.05,87.527 196.05,158.985 "/>
<g>
</g>
<g>
</g>
<g>
</g>
<g>
</g>
<g>
</g>
<g>
</g>
<g>
</g>
<g>
</g>
<g>
</g>
<g>
</g>
<g>
</g>
<g>
</g>
<g>
</g>
<g>
</g>
<g>
</g>
</svg>
