<svg xmlns="http://www.w3.org/2000/svg" height="591pt" version="1.1" viewBox="-102 1 591 591.6" width="591pt">
<g id="surface1">
<path d="M 366.582031 592 L 22.019531 592 C 10.066406 591.988281 0.367188 582.304688 0.367188 570.351562 C 0.367188 564.605469 2.644531 559.105469 6.707031 555.042969 L 41.195312 520.550781 L 41.195312 420.320312 C 41.214844 354.242188 88.464844 297.625 153.472656 285.792969 L 235.128906 285.792969 C 300.136719 297.625 347.382812 354.242188 347.402344 420.320312 L 347.402344 520.550781 L 381.894531 555.042969 C 385.957031 559.105469 388.230469 564.605469 388.230469 570.351562 C 388.222656 582.304688 378.535156 591.988281 366.582031 592 Z M 366.582031 592 " style=" stroke:none;fill-rule:nonzero;fill:rgb(26.27451%,59.607843%,81.960784%);fill-opacity:1;" />
<path d="M 381.894531 555.042969 L 347.402344 520.550781 L 347.402344 420.320312 C 347.421875 388.421875 336.257812 357.527344 315.863281 333 C 254.234375 483.449219 128.332031 556.917969 33.96875 592 L 366.582031 592 C 378.535156 592 388.230469 582.3125 388.230469 570.351562 C 388.230469 564.613281 385.953125 559.101562 381.894531 555.042969 Z M 381.894531 555.042969 " style=" stroke:none;fill-rule:nonzero;fill:rgb(24.313725%,54.901961%,78.039216%);fill-opacity:1;" />
<path d="M 235.128906 285.792969 L 153.472656 285.792969 L 122.851562 224.550781 L 265.75 224.550781 Z M 235.128906 285.792969 " style=" stroke:none;fill-rule:nonzero;fill:rgb(26.27451%,59.607843%,81.960784%);fill-opacity:1;" />
<path d="M 184.09375 52.308594 L 204.507812 52.308594 L 204.507812 224.550781 L 184.09375 224.550781 Z M 184.09375 52.308594 " style=" stroke:none;fill-rule:nonzero;fill:rgb(41.960784%,58.823529%,16.470588%);fill-opacity:1;" />
<path d="M 194.300781 61.242188 L 184.09375 61.242188 C 150.265625 61.242188 122.851562 33.824219 122.851562 0 L 133.058594 0 C 166.875 0 194.300781 27.414062 194.300781 61.242188 Z M 194.300781 61.242188 " style=" stroke:none;fill-rule:nonzero;fill:rgb(53.333333%,70.196078%,21.568627%);fill-opacity:1;" />
<path d="M 92.230469 91.863281 L 112.644531 91.863281 C 157.738281 91.863281 194.300781 128.421875 194.300781 173.515625 L 173.886719 173.515625 C 128.78125 173.515625 92.230469 136.957031 92.230469 91.863281 Z M 92.230469 91.863281 " style=" stroke:none;fill-rule:nonzero;fill:rgb(53.333333%,70.196078%,21.568627%);fill-opacity:1;" />
<path d="M 265.75 0 L 255.542969 0 C 221.714844 0 194.300781 27.414062 194.300781 61.242188 L 204.507812 61.242188 C 238.324219 61.242188 265.75 33.824219 265.75 0 Z M 265.75 0 " style=" stroke:none;fill-rule:nonzero;fill:rgb(41.960784%,58.823529%,16.470588%);fill-opacity:1;" />
<path d="M 214.714844 173.515625 L 194.300781 173.515625 C 194.300781 128.421875 230.859375 91.863281 275.957031 91.863281 L 296.367188 91.863281 C 296.367188 136.957031 259.808594 173.515625 214.714844 173.515625 Z M 214.714844 173.515625 " style=" stroke:none;fill-rule:nonzero;fill:rgb(41.960784%,58.823529%,16.470588%);fill-opacity:1;" />
<path d="M 51.402344 81.65625 C 47.914062 60.722656 31.511719 44.316406 10.574219 40.828125 C 31.511719 37.335938 47.914062 20.933594 51.402344 0 C 54.894531 20.933594 71.296875 37.335938 92.230469 40.828125 C 71.296875 44.316406 54.894531 60.722656 51.402344 81.65625 Z M 51.402344 81.65625 " style=" stroke:none;fill-rule:nonzero;fill:rgb(99.215686%,71.372549%,18.431373%);fill-opacity:1;" />
<path d="M 296.367188 193.929688 L 296.367188 173.515625 C 313.28125 173.515625 326.988281 159.808594 326.988281 142.898438 L 347.402344 142.898438 C 347.363281 171.066406 324.539062 193.898438 296.367188 193.929688 Z M 296.367188 193.929688 " style=" stroke:none;fill-rule:nonzero;fill:rgb(85.490196%,86.666667%,87.45098%);fill-opacity:1;" />
<path d="M 209.609375 428.691406 L 178.988281 428.691406 C 170.539062 428.691406 163.679688 421.832031 163.679688 413.378906 C 163.679688 404.925781 170.539062 398.070312 178.988281 398.070312 L 235.128906 398.070312 L 235.128906 377.65625 L 204.507812 377.65625 L 204.507812 357.242188 L 184.09375 357.242188 L 184.09375 377.65625 L 178.988281 377.65625 C 159.257812 377.65625 143.265625 393.648438 143.265625 413.378906 C 143.265625 433.109375 159.257812 449.101562 178.988281 449.101562 L 209.609375 449.101562 C 218.0625 449.101562 224.921875 455.960938 224.921875 464.414062 C 224.921875 472.867188 218.0625 479.722656 209.609375 479.722656 L 153.472656 479.722656 L 153.472656 500.136719 L 184.09375 500.136719 L 184.09375 520.550781 L 204.507812 520.550781 L 204.507812 500.136719 L 209.609375 500.136719 C 229.339844 500.136719 245.335938 484.144531 245.335938 464.414062 C 245.335938 444.683594 229.339844 428.691406 209.609375 428.691406 Z M 209.609375 428.691406 " style=" stroke:none;fill-rule:nonzero;fill:rgb(100%,100%,100%);fill-opacity:1;" />
</g>
</svg>