<svg height="512" viewBox="0 0 58 58" width="512" xmlns="http://www.w3.org/2000/svg">
    <g id="Page-1" fill="none" fill-rule="evenodd">
        <g id="034---Easter-Eggs" fill-rule="nonzero">
            <path id="Shape"
                  d="m58 25.52c0 12.15-7.61 18.48-17 18.48-1.9535841.0116364-3.897001-.2819005-5.76-.87l-4.74-10.19-6.01-12.91c1.83-10.36 8.53-20.03 16.51-20.03 3.0965971.10884896 6.0356261 1.39243949 8.22 3.59 5.24 4.78 8.78 13.64 8.78 21.93z"
                  fill="#2980ba"/>
            <path id="Shape"
                  d="m53 16c0 10.49-6.94 19-15.5 19-2.4815426-.0084741-4.9094331-.7229676-7-2.06l-6.01-12.91c1.83-10.36 8.53-20.03 16.51-20.03 3.0965971.10884896 6.0356261 1.39243949 8.22 3.59 2.5094537 3.64795687 3.8297352 7.9825319 3.78 12.41z"
                  fill="#3b97d3"/>
            <path id="Shape"
                  d="m24.04 56.9c-7.36 2.6-15.01.67-19.72-6.62-7.085-11-5.448-31.154 5.03-34.86 5.21-1.84 11.37.88 16.39 5.75 3.6354902 3.5425362 6.4247587 7.8597496 8.16 12.63 4.05 11.46-1.01 19.96-9.86 23.1z"
                  fill="#ff5364"/>
            <path id="Shape"
                  d="m35.31 41.24c.0251086 1.4881673-.1395514 2.9734669-.49 4.42l-26.23 9.28c-1.18663854-.899123-2.25212638-1.947805-3.17-3.12z"
                  fill="#f0c419"/>
            <path id="Shape"
                  d="m35.31 41.24-29.89 10.58c-4.469-5.7-6.036-14.279-5.2-21.5l25.61-9.06c5.209 5.089 9.418 12.861 9.48 19.98z"
                  fill="#894b9d"/>
            <path id="Shape"
                  d="m28.98 33.39c.01-.29.02-.59.02-.89.0063023-2.6216781-.4717171-5.221968-1.41-7.67l.52-1.1c1.210094 1.4632302 2.30029 3.0216085 3.26 4.66z"
                  fill="#f0c419"/>
            <path id="Shape"
                  d="m29 32.5c0 .3-.01.6-.02.89l-3.35 7.03-8.94-4.26-4.26 8.93-12.02-5.74c-.08-.47-.15-.95-.19-1.43-.16244359-1.4072369-.23259357-2.8235985-.21-4.24l10.09 4.81 4.26-8.93 8.93 4.26 4.3-8.99c.9382829 2.448032 1.4163023 5.0483219 1.41 7.67z"
                  fill="#f3d55b"/>
            <path id="Shape"
                  d="m27.59 24.83-4.3 8.99-8.93-4.26-4.26 8.93-10.09-4.81c.01297396-1.520308.13663427-3.0376534.37-4.54.18064997-1.1401131.42773739-2.2687015.74-3.38l21.14-7.48c1.186.823 3.48 2.9 3.49 2.9.7353388 1.1512265 1.3518364 2.3741701 1.84 3.65z"
                  fill="#955ba5"/>
            <path id="Shape"
                  d="m28.98 33.39c-.1456997 4.1436856-1.5283723 8.1489087-3.97 11.5h-.01l-18.12 6.42h-.01c-.87705098-.2721409-1.72998299-.6166585-2.55-1.03-1.02179785-1.6086037-1.85400052-3.3300552-2.48-5.13-.66503293-1.8819649-1.14398962-3.8245865-1.43-5.8l12.02 5.74 4.26-8.93 8.94 4.26z"
                  fill="#955ba5"/>
            <circle id="Oval" cx="41" cy="26" fill="#f3d55b" r="4"/>
            <circle id="Oval" cx="41" cy="12" fill="#f3d55b" r="2"/>
            <circle id="Oval" cx="33" cy="17" fill="#f3d55b" r="3"/>
            <circle id="Oval" cx="43" cy="37" fill="#f0c419" r="3"/>
            <circle id="Oval" cx="49" cy="17" fill="#f3d55b" r="3"/>
            <path id="Shape"
                  d="m38 4c-.000364 2.02846885-1.2262345 3.855705-3.1030484 4.62528641-1.876814.7695814-4.0326024.32898347-5.4569516-1.11528641 1.7992225-2.88228254 4.3885823-5.18702101 7.46-6.64.7104461.88871242 1.0982607 1.99222131 1.1 3.13z"
                  fill="#f3d55b"/>
            <path id="Shape"
                  d="m58 25.52c.0403627 2.8075947-.4411376 5.5982619-1.42 8.23h-.01c-.5070824.1647451-1.0368277.2490994-1.57.25-2.7614237 0-5-2.2385763-5-5s2.2385763-5 5-5c1.0792097-.0026383 2.1295201.3486361 2.99 1 .01.17.01.35.01.52z"
                  fill="#f0c419"/>
            <path id="Shape"
                  d="m52.56 7.51c-1.8726322 1.88847525-4.8958981 1.98054573-6.8799766.20952267-1.9840785-1.77102307-2.2345637-4.78530095-.5700234-6.85952267 3.062821 1.46666065 5.6463129 3.77273061 7.45 6.65z"
                  fill="#f3d55b"/>
            <path id="Shape"
                  d="m25.83 21.26-25.61 9.06c.1849098-1.5404685.4857634-3.0647934.9-4.56l21.14-7.48c.9652649.682313 1.887362 1.4237312 2.761 2.22.842.757.779.771.809.76z"
                  fill="#f0c419"/>
            <g fill="#f29c1f">
                <circle id="Oval" cx="8.094" cy="32.837" r="1"/>
                <circle id="Oval" cx="18.697" cy="41.814" r="1"/>
                <circle id="Oval" cx="6.442" cy="46.152" r="1"/>
                <circle id="Oval" cx="30.952" cy="37.477" r="1"/>
                <circle id="Oval" cx="21.292" cy="28.166" r="1"/>
            </g>
            <path id="Shape"
                  d="m25.01 44.89c-3.1084582 4.3926737-8.1292501 7.0350002-13.51 7.11-1.56901189.0008867-3.12942597-.2316588-4.63-.69z"
                  fill="#f3d55b"/>
            <path id="Shape" d="m25.01 44.89c-.04.05-.08.11-.12.16.0422922-.049239.0791706-.1028803.11-.16z"
                  fill="#f3d55b"/>
            <path id="Shape" d="m22.26 18.28-21.14 7.48c1.148-4.4 3.873-8.735 8.23-10.34 4.06-1.43 8.69-.1 12.91 2.86z"
                  fill="#fb7b76"/>
        </g>
    </g>
</svg>