

<svg id="Capa_1" enable-background="new 0 0 510.036 510.036" height="512" viewBox="0 0 510.036 510.036" width="512" xmlns="http://www.w3.org/2000/svg" xmlns:xlink="http://www.w3.org/1999/xlink"><linearGradient id="lg1"><stop offset="0" stop-color="#b8a3dc"/><stop offset="1" stop-color="#7049bd"/></linearGradient><linearGradient id="SVGID_1_" gradientUnits="userSpaceOnUse" x1="-15.147" x2="340.158" xlink:href="#lg1" y1="26.537" y2="381.841"/><linearGradient id="lg2"><stop offset="0" stop-color="#5531aa" stop-opacity="0"/><stop offset="1" stop-color="#5531aa"/></linearGradient><linearGradient id="SVGID_2_" gradientUnits="userSpaceOnUse" x1="410.128" x2="371.628" xlink:href="#lg2" y1="173.746" y2="61.246"/><linearGradient id="SVGID_3_" gradientUnits="userSpaceOnUse" x1="343.295" x2="388.016" xlink:href="#lg1" y1="58.746" y2="103.468"/><linearGradient id="SVGID_4_" gradientTransform="matrix(-1 0 0 1 2638.046 0)" gradientUnits="userSpaceOnUse" x1="2383.023" x2="2383.023" xlink:href="#lg2" y1="463.718" y2="513.306"/><g><path d="m68.219 31.876-.052 446.25c-.002 17.528 14.338 31.872 31.866 31.874l309.91.036c17.534.002 31.882-14.342 31.884-31.876l.042-360.725c.001-9.787-3.886-19.174-10.805-26.095l-80.484-80.503c-6.92-6.921-16.305-10.81-26.092-10.811l-224.386-.026c-17.534-.002-31.881 14.342-31.883 31.876z" fill="url(#SVGID_1_)"/><g><g><g><g><g><path d="m222.023 341.631h134.889c5.079 0 9.196-4.117 9.196-9.196v-22.425c0-5.079-4.117-9.196-9.196-9.196h-134.889c-5.079 0-9.196 4.117-9.196 9.196v22.425c0 5.079 4.117 9.196 9.196 9.196z" fill="#ebeff0"/></g></g></g><g><g><g><g><path d="m222.023 246.059h134.889c5.079 0 9.196-4.117 9.196-9.196v-22.425c0-5.079-4.117-9.196-9.196-9.196h-134.889c-5.079 0-9.196 4.117-9.196 9.196v22.425c0 5.079 4.117 9.196 9.196 9.196z" fill="#ebeff0"/></g></g></g><g><g><g><path d="m222.023 437.203h134.889c5.079 0 9.196-4.117 9.196-9.196v-22.425c0-5.079-4.117-9.196-9.196-9.196h-134.889c-5.079 0-9.196 4.117-9.196 9.196v22.425c0 5.079 4.117 9.196 9.196 9.196z" fill="#ebeff0"/></g></g></g></g></g><g fill="#ebeff0"><circle cx="164.609" cy="225.651" r="20.667"/><circle cx="164.609" cy="321.223" r="20.667"/><circle cx="164.609" cy="416.794" r="20.667"/></g></g><path d="m350.551 10.826c-4.74-4.74-10.638-8.056-17.028-9.676v103.922l108.33 108.33v-95.99c0-9.787-3.888-19.173-10.808-26.094z" fill="url(#SVGID_2_)"/><path d="m440.76 108.461c.118.513.227 1.011.326 1.492h-97.648c-6.914 0-12.52-5.605-12.52-12.52v-96.834c.763.136 1.565.295 2.392.478 7.279 1.61 13.916 5.353 19.188 10.624l77.655 77.655c5.251 5.251 8.938 11.87 10.607 19.105z" fill="url(#SVGID_3_)"/><path d="m441.853 447.219v30.919c0 17.534-14.346 31.88-31.88 31.88h-309.91c-17.529 0-31.87-14.342-31.87-31.87v-30.929z" fill="url(#SVGID_4_)"/></g></svg>