

<svg id="Capa_1" enable-background="new 0 0 512 512" height="512" viewBox="0 0 512 512" width="512" xmlns="http://www.w3.org/2000/svg"><path d="m256 128.533c-70.285 0-127.467 57.182-127.467 127.467s57.182 127.467 127.467 127.467 127.467-57.182 127.467-127.467-57.182-127.467-127.467-127.467zm0 224.934c-53.743 0-97.467-43.724-97.467-97.467s43.724-97.467 97.467-97.467 97.467 43.724 97.467 97.467-43.724 97.467-97.467 97.467z"/><path d="m260.028 32.184 6.578-6.578c5.858-5.857 5.858-15.355 0-21.213-5.857-5.858-15.355-5.857-21.213 0l-32.133 32.134c-2.813 2.813-4.394 6.628-4.394 10.606s1.58 7.793 4.394 10.606l32.134 32.134c2.929 2.929 6.768 4.393 10.606 4.393s7.678-1.464 10.606-4.394c5.858-5.858 5.858-15.355 0-21.213l-6.475-6.474c104.998 2.208 189.735 88.298 189.735 193.815 0 8.284 6.716 15 15 15s15-6.716 15-15c0-122.094-98.25-221.657-219.838-223.816z"/><path d="m264.033 241h-15.745c-5.195 0-9.422-4.241-9.422-9.469 0-4.814 3.902-8.731 8.698-8.731h24.502c8.284 0 15-6.716 15-15s-6.716-15-15-15h-1.066v-1.066c0-8.284-6.716-15-15-15s-15 6.716-15 15v1.635c-18.221 3.131-32.134 19.048-32.134 38.178 0 21.755 17.685 39.454 39.422 39.454h15.745c5.019 0 9.101 4.083 9.101 9.1s-4.082 9.1-9.101 9.1h-24.1c-8.284 0-15 6.716-15 15s6.716 15 15 15h1.067v1.066c0 8.284 6.716 15 15 15s15-6.716 15-15v-1.7c18.246-3.297 32.134-19.285 32.134-38.466 0-21.561-17.54-39.101-39.101-39.101z"/><path d="m266.606 422.126c-5.857-5.857-15.355-5.858-21.213 0s-5.858 15.355 0 21.213l6.475 6.474c-104.998-2.207-189.734-88.296-189.734-193.813 0-8.284-6.716-15-15-15s-15 6.716-15 15c0 122.094 98.25 221.657 219.838 223.816l-6.578 6.578c-5.858 5.857-5.858 15.355 0 21.213 2.928 2.928 6.767 4.393 10.606 4.393s7.678-1.465 10.606-4.393l32.134-32.134c2.813-2.813 4.394-6.628 4.394-10.606s-1.58-7.793-4.394-10.606z"/></svg>