<?xml version="1.0" encoding="iso-8859-1"?>



<svg version="1.1" id="Capa_1" xmlns="http://www.w3.org/2000/svg" xmlns:xlink="http://www.w3.org/1999/xlink" x="0px" y="0px"
	 viewBox="0 0 507.257 507.257" style="enable-background:new 0 0 507.257 507.257;" xml:space="preserve">
<g>
	<circle style="fill:#3B97D3;" cx="253.628" cy="253.111" r="141.241"/>
	<g>
		<path style="fill:#F0C419;" d="M255.623,1.366l8.413,17.929c0.319,0.663,0.942,1.127,1.668,1.245l18.988,2.895
			c0.818,0.125,1.498,0.697,1.761,1.482s0.063,1.651-0.516,2.243L272.06,41.381c-0.484,0.505-0.706,1.206-0.6,1.898l3.257,19.968
			c0.134,0.832-0.218,1.668-0.906,2.154s-1.594,0.537-2.333,0.132l-16.781-9.278c-0.666-0.363-1.47-0.363-2.136,0l-16.772,9.278
			c-0.739,0.405-1.645,0.354-2.333-0.132c-0.689-0.486-1.04-1.322-0.906-2.154l3.249-19.968c0.106-0.692-0.116-1.393-0.6-1.898
			l-13.877-14.257c-0.579-0.592-0.778-1.458-0.516-2.243c0.262-0.785,0.942-1.358,1.761-1.482l18.988-2.895
			c0.726-0.117,1.349-0.582,1.668-1.245l8.413-17.929c0.366-0.774,1.15-1.265,2.006-1.258C254.496,0.08,255.271,0.585,255.623,1.366
			z"/>
		<path style="fill:#F0C419;" d="M255.623,442.745l8.413,17.929c0.319,0.663,0.942,1.127,1.668,1.245l18.988,2.895
			c0.818,0.125,1.498,0.697,1.761,1.482c0.262,0.785,0.063,1.651-0.516,2.243L272.06,482.76c-0.484,0.505-0.706,1.206-0.6,1.898
			l3.257,19.968c0.134,0.832-0.218,1.668-0.906,2.154c-0.689,0.486-1.594,0.537-2.333,0.132l-16.772-9.278
			c-0.666-0.363-1.47-0.363-2.136,0l-16.772,9.278c-0.739,0.405-1.645,0.354-2.333-0.132c-0.689-0.486-1.04-1.322-0.906-2.154
			l3.257-19.968c0.106-0.692-0.116-1.393-0.6-1.898l-13.895-14.257c-0.579-0.592-0.778-1.458-0.516-2.243
			c0.262-0.785,0.942-1.358,1.761-1.482l18.988-2.895c0.726-0.117,1.349-0.582,1.668-1.245l8.413-17.929
			c0.366-0.774,1.15-1.265,2.006-1.258C254.496,441.459,255.271,441.964,255.623,442.745z"/>
		<path style="fill:#F0C419;" d="M148.13,31.212l8.395,17.929c0.317,0.665,0.941,1.13,1.668,1.245l18.988,2.895
			c0.818,0.125,1.498,0.697,1.761,1.482c0.262,0.785,0.063,1.651-0.516,2.243l-13.859,14.257c-0.492,0.501-0.715,1.206-0.6,1.898
			l3.257,19.968c0.137,0.835-0.216,1.674-0.908,2.161c-0.692,0.487-1.601,0.535-2.341,0.125l-16.772-9.278
			c-0.666-0.363-1.47-0.363-2.136,0l-16.772,9.278c-0.74,0.41-1.649,0.362-2.341-0.125c-0.692-0.487-1.044-1.326-0.908-2.161
			l3.231-20.003c0.114-0.691-0.106-1.394-0.591-1.898l-13.868-14.221c-0.579-0.593-0.778-1.461-0.513-2.246
			c0.264-0.786,0.947-1.357,1.767-1.479l18.988-2.895c0.725-0.114,1.347-0.58,1.66-1.245l8.448-17.929
			c0.371-0.756,1.139-1.236,1.982-1.236C146.99,29.976,147.759,30.455,148.13,31.212z"/>
		<path style="fill:#F0C419;" d="M368.819,413.455l8.395,17.973c0.317,0.665,0.941,1.13,1.668,1.245l18.988,2.904
			c0.819,0.121,1.5,0.692,1.763,1.476c0.263,0.785,0.063,1.65-0.518,2.24l-13.859,14.204c-0.493,0.496-0.716,1.199-0.6,1.889
			l3.257,19.968c0.137,0.835-0.216,1.674-0.908,2.161c-0.692,0.487-1.601,0.535-2.341,0.125l-16.772-9.269
			c-0.664-0.371-1.473-0.371-2.136,0l-16.772,9.269c-0.74,0.41-1.649,0.362-2.341-0.125c-0.692-0.487-1.044-1.326-0.908-2.161
			l3.257-19.968c0.115-0.688-0.105-1.39-0.591-1.889l-13.886-14.23c-0.574-0.593-0.769-1.458-0.505-2.24
			c0.264-0.782,0.942-1.352,1.759-1.476l18.988-2.904c0.725-0.114,1.347-0.58,1.66-1.245l8.413-17.929
			c0.366-0.767,1.139-1.257,1.99-1.261C367.669,412.208,368.446,412.691,368.819,413.455z"/>
		<path style="fill:#F0C419;" d="M68.011,107.455l8.413,17.929c0.319,0.663,0.942,1.127,1.668,1.245l18.988,2.895
			c0.818,0.125,1.498,0.697,1.761,1.482s0.063,1.651-0.516,2.243l-13.877,14.221c-0.484,0.505-0.706,1.206-0.6,1.898l3.257,19.968
			c0.134,0.832-0.218,1.668-0.906,2.154c-0.689,0.486-1.594,0.537-2.333,0.132l-16.772-9.278c-0.666-0.363-1.47-0.363-2.136,0
			l-16.772,9.278c-0.739,0.405-1.645,0.354-2.333-0.132c-0.689-0.486-1.04-1.322-0.906-2.154l3.257-19.968
			c0.106-0.692-0.116-1.393-0.6-1.898l-13.895-14.239c-0.569-0.593-0.761-1.452-0.5-2.231c0.261-0.779,0.934-1.348,1.745-1.477
			l18.988-2.895c0.726-0.117,1.349-0.582,1.668-1.245l8.413-17.929c0.36-0.778,1.138-1.275,1.995-1.275
			S67.651,106.678,68.011,107.455z"/>
		<path style="fill:#F0C419;" d="M450.263,328.145l8.413,17.929c0.313,0.664,0.934,1.13,1.66,1.245l18.988,2.895
			c0.82,0.122,1.502,0.693,1.767,1.479s0.066,1.653-0.513,2.246l-13.886,14.221c-0.486,0.504-0.705,1.207-0.591,1.898l3.257,19.968
			c0.137,0.835-0.216,1.674-0.908,2.161c-0.692,0.487-1.601,0.535-2.341,0.125l-16.772-9.278c-0.666-0.363-1.47-0.363-2.136,0
			l-16.772,9.278c-0.74,0.41-1.649,0.362-2.341-0.125c-0.692-0.487-1.044-1.326-0.908-2.161l3.257-19.968
			c0.114-0.692-0.109-1.397-0.6-1.898l-13.886-14.239c-0.569-0.593-0.761-1.452-0.5-2.231c0.261-0.779,0.934-1.348,1.745-1.477
			l18.988-2.895c0.727-0.115,1.351-0.58,1.668-1.245l8.413-17.929c0.363-0.777,1.142-1.273,1.999-1.273
			S449.9,327.369,450.263,328.145z"/>
		<path style="fill:#F0C419;" d="M34.934,222.055l8.413,17.929c0.319,0.663,0.942,1.127,1.668,1.245l18.988,2.895
			c0.818,0.125,1.498,0.697,1.761,1.482c0.262,0.785,0.063,1.651-0.516,2.243l-13.877,14.221c-0.484,0.505-0.706,1.206-0.6,1.898
			l3.257,19.968c0.134,0.832-0.218,1.668-0.906,2.154s-1.594,0.537-2.333,0.132l-16.781-9.278c-0.666-0.363-1.47-0.363-2.136,0
			l-16.772,9.278c-0.739,0.405-1.645,0.354-2.333-0.132c-0.689-0.486-1.04-1.322-0.906-2.154l3.249-19.968
			c0.106-0.692-0.116-1.393-0.6-1.898L0.63,247.814c-0.579-0.592-0.778-1.458-0.516-2.243c0.262-0.785,0.942-1.358,1.761-1.482
			l18.988-2.895c0.726-0.117,1.349-0.582,1.668-1.245l8.413-17.929c0.366-0.774,1.15-1.265,2.006-1.258
			C33.807,220.77,34.581,221.274,34.934,222.055z"/>
		<path style="fill:#F0C419;" d="M476.313,222.055l8.413,17.929c0.319,0.663,0.942,1.127,1.668,1.245l18.988,2.895
			c0.818,0.125,1.498,0.697,1.761,1.482c0.262,0.785,0.063,1.651-0.516,2.243l-13.877,14.221c-0.484,0.505-0.706,1.206-0.6,1.898
			l3.257,19.968c0.134,0.832-0.218,1.668-0.906,2.154s-1.594,0.537-2.333,0.132l-16.772-9.278c-0.666-0.363-1.47-0.363-2.136,0
			l-16.772,9.278c-0.739,0.405-1.645,0.354-2.333-0.132c-0.689-0.486-1.04-1.322-0.906-2.154l3.257-19.968
			c0.106-0.692-0.116-1.393-0.6-1.898l-13.895-14.257c-0.579-0.592-0.778-1.458-0.516-2.243c0.262-0.785,0.942-1.358,1.761-1.482
			l18.988-2.895c0.726-0.117,1.349-0.582,1.668-1.245l8.413-17.929c0.366-0.774,1.15-1.265,2.006-1.258
			C475.186,220.77,475.96,221.274,476.313,222.055z"/>
		<path style="fill:#F0C419;" d="M71.904,326.318l8.413,17.929c0.317,0.665,0.941,1.13,1.668,1.245l18.988,2.895
			c0.818,0.125,1.498,0.697,1.761,1.482c0.262,0.785,0.063,1.651-0.516,2.243l-13.877,14.23c-0.493,0.496-0.716,1.199-0.6,1.889
			l3.257,19.968c0.137,0.835-0.216,1.674-0.908,2.161s-1.601,0.535-2.341,0.125l-16.772-9.269c-0.664-0.371-1.473-0.371-2.136,0
			l-16.772,9.269c-0.744,0.41-1.657,0.357-2.348-0.136c-0.691-0.493-1.038-1.34-0.892-2.177l3.249-19.968
			c0.115-0.688-0.105-1.39-0.591-1.889L37.6,352.112c-0.579-0.592-0.778-1.458-0.516-2.243c0.262-0.785,0.942-1.358,1.761-1.482
			l18.988-2.895c0.725-0.114,1.347-0.58,1.66-1.245l8.413-17.929c0.368-0.77,1.146-1.261,1.999-1.261S71.536,325.547,71.904,326.318
			z"/>
		<path style="fill:#F0C419;" d="M454.147,105.628l8.413,17.929c0.319,0.663,0.942,1.127,1.668,1.245l18.988,2.895
			c0.818,0.125,1.498,0.697,1.761,1.482s0.063,1.651-0.516,2.243l-13.877,14.23c-0.485,0.501-0.707,1.2-0.6,1.889l3.257,19.968
			c0.134,0.832-0.217,1.668-0.906,2.154c-0.689,0.486-1.594,0.537-2.333,0.132l-16.772-9.269c-0.664-0.371-1.473-0.371-2.136,0
			l-16.772,9.269c-0.745,0.421-1.666,0.373-2.363-0.122c-0.698-0.495-1.046-1.349-0.894-2.191l3.257-19.968
			c0.111-0.689-0.112-1.39-0.6-1.889l-13.877-14.23c-0.579-0.592-0.778-1.458-0.516-2.243s0.942-1.358,1.761-1.482l18.988-2.895
			c0.727-0.115,1.351-0.58,1.668-1.245l8.413-17.929c0.37-0.769,1.15-1.256,2.003-1.25
			C453.014,104.357,453.787,104.854,454.147,105.628z"/>
		<path style="fill:#F0C419;" d="M144.237,402.544l8.413,17.929c0.317,0.665,0.941,1.13,1.668,1.245l18.988,2.895
			c0.818,0.125,1.498,0.697,1.761,1.482s0.063,1.651-0.516,2.243l-13.877,14.221c-0.484,0.505-0.706,1.206-0.6,1.898l3.257,19.968
			c0.134,0.832-0.218,1.668-0.906,2.154c-0.689,0.486-1.594,0.537-2.333,0.132l-16.772-9.278c-0.666-0.363-1.47-0.363-2.136,0
			l-16.79,9.304c-0.739,0.405-1.645,0.354-2.333-0.132c-0.689-0.486-1.04-1.322-0.906-2.154l3.257-19.968
			c0.106-0.692-0.116-1.393-0.6-1.898l-13.877-14.248c-0.579-0.592-0.778-1.458-0.516-2.243s0.942-1.358,1.761-1.482l18.988-2.895
			c0.726-0.117,1.349-0.582,1.668-1.245l8.413-17.929c0.365-0.771,1.142-1.263,1.995-1.263
			C143.095,401.281,143.872,401.773,144.237,402.544z"/>
		<path style="fill:#F0C419;" d="M364.927,20.301l8.413,17.929c0.317,0.665,0.941,1.13,1.668,1.245l18.988,2.895
			c0.818,0.125,1.498,0.697,1.761,1.482c0.262,0.785,0.063,1.651-0.516,2.243l-13.877,14.221c-0.484,0.505-0.706,1.206-0.6,1.898
			l3.257,19.968c0.134,0.832-0.218,1.668-0.906,2.154c-0.689,0.486-1.594,0.537-2.333,0.132l-16.808-9.278
			c-0.666-0.363-1.47-0.363-2.136,0l-16.755,9.313c-0.739,0.405-1.645,0.354-2.333-0.132s-1.04-1.322-0.906-2.154l3.257-19.968
			c0.106-0.692-0.116-1.393-0.6-1.898l-13.877-14.257c-0.579-0.592-0.778-1.458-0.516-2.243c0.262-0.785,0.942-1.358,1.761-1.482
			l18.988-2.887c0.726-0.117,1.349-0.582,1.668-1.245l8.413-17.929c0.358-0.778,1.135-1.278,1.992-1.28
			C363.785,19.028,364.565,19.524,364.927,20.301z"/>
	</g>
	<path style="fill:#B0D3F0;" d="M353.557,353.039c-55.231,55.086-144.625,55.086-199.857,0l2.825-2.825
		c3.371-5.37,8.128-9.731,13.771-12.623l39.548-20.568c5.612-3.307,9.192-9.208,9.534-15.713v-16.596
		c-5.995-10.409-10.399-21.656-13.065-33.368c-3.256-3.155-5.786-6.98-7.415-11.211v-17.832l6.797-9.887v-26.306
		c0,0-5.12-38.753,47.846-38.93c53.054,0.177,48.022,38.93,48.022,38.93v26.306l6.797,9.887v17.832
		c-1.407,4.215-3.762,8.05-6.886,11.211c-2.748,11.769-7.336,23.03-13.594,33.368v16.596c-0.04,6.617,3.646,12.693,9.534,15.713
		l39.548,20.568c5.643,2.892,10.4,7.253,13.771,12.623L353.557,353.039z"/>
</g>
<g>
</g>
<g>
</g>
<g>
</g>
<g>
</g>
<g>
</g>
<g>
</g>
<g>
</g>
<g>
</g>
<g>
</g>
<g>
</g>
<g>
</g>
<g>
</g>
<g>
</g>
<g>
</g>
<g>
</g>
</svg>
