<?xml version="1.0" encoding="iso-8859-1"?>
<!--
  - Copyright (c) 2023. Selldone® Business OS?
  -
  - Author: M.Pajuhaan
  - Web: https://selldone.com
  - ??????????????????????????????????????????????????????
  -
  - All rights reserved. In the weave of time, where traditions and innovations intermingle, this content was crafted.
  - From the essence of thought, through the corridors of creativity, each word, and sentiment has been molded.
  - Not just to exist, but to inspire. Like an artist's stroke or a sculptor's chisel, every nuance is deliberate.
  - Our journey is not just about reaching a destination, but about creating a masterpiece.
  - Tread carefully, for you're treading on dreams.
  -->

<!-- Generator: Adobe Illustrator 19.0.0, SVG Export Plug-In . SVG Version: 6.00 Build 0)  -->
<svg version="1.1" id="Capa_1" xmlns="http://www.w3.org/2000/svg" xmlns:xlink="http://www.w3.org/1999/xlink" x="0px" y="0px"
	 viewBox="0 0 512 512" style="enable-background:new 0 0 512 512;" xml:space="preserve">
<path style="fill:#ECEFF1;" d="M480,432H32c-17.632,0-32-14.336-32-32V112c0-17.632,14.368-32,32-32h448c17.664,0,32,14.368,32,32
	v288C512,417.664,497.664,432,480,432z M480,400v16V400L480,400z"/>
<g>
	<rect y="240" style="fill:#512DA8;" width="512" height="32"/>
	<rect x="288" y="80" style="fill:#512DA8;" width="32" height="352"/>
	<path style="fill:#673AB7;" d="M304,272c-1.408,0-2.816-0.192-4.192-0.576c-41.184-11.2-112.256-32-125.76-45.504
		c-18.72-18.72-18.72-49.152,0-67.872s49.152-18.72,67.872,0c12.672,12.672,68.16,80.128,74.432,87.776
		c4.416,5.376,4.832,12.992,1.056,18.848C314.432,269.344,309.344,272,304,272z M208,176c-4.096,0-8.192,1.568-11.328,4.672
		c-6.24,6.24-6.24,16.384,0,22.624c5.344,4.192,31.264,13.344,61.76,22.784c-16.704-20-33.6-39.872-39.104-45.408
		C216.192,177.568,212.096,176,208,176z"/>
	<path style="fill:#673AB7;" d="M304,272c-5.344,0-10.432-2.656-13.44-7.328c-3.776-5.856-3.328-13.44,1.056-18.848
		c6.272-7.648,61.76-75.104,74.432-87.776c18.688-18.72,49.184-18.72,67.872,0c18.72,18.72,18.72,49.152,0,67.872
		c-13.504,13.504-84.576,34.304-125.76,45.504C306.816,271.808,305.408,272,304,272z M400,176c-4.096,0-8.192,1.536-11.328,4.672
		c-5.504,5.504-22.4,25.408-39.104,45.376c30.496-9.44,56.512-18.688,62.08-23.104c5.888-5.888,5.888-16.032-0.384-22.272
		C408.192,177.568,404.096,176,400,176z"/>
	<path style="fill:#673AB7;" d="M224,352c-4.096,0-8.192-1.568-11.328-4.672c-6.24-6.24-6.24-16.384,0-22.624l80-80
		c6.24-6.24,16.384-6.24,22.624,0c6.24,6.24,6.24,16.384,0,22.624l-80,80C232.192,350.432,228.096,352,224,352z"/>
	<path style="fill:#673AB7;" d="M384,352c-4.096,0-8.192-1.568-11.328-4.672l-80-80c-6.24-6.24-6.24-16.384,0-22.624
		s16.384-6.24,22.624,0l80,80c6.24,6.24,6.24,16.384,0,22.624C392.192,350.432,388.096,352,384,352z"/>
</g>
<path style="fill:#90A4AE;" d="M176,368H80c-8.832,0-16-7.168-16-16s7.168-16,16-16h96c8.832,0,16,7.168,16,16S184.832,368,176,368z
	"/>
<g>
</g>
<g>
</g>
<g>
</g>
<g>
</g>
<g>
</g>
<g>
</g>
<g>
</g>
<g>
</g>
<g>
</g>
<g>
</g>
<g>
</g>
<g>
</g>
<g>
</g>
<g>
</g>
<g>
</g>
</svg>
