<?xml version="1.0" encoding="iso-8859-1"?>


<svg xmlns:xlink="http://www.w3.org/1999/xlink" version="1.1" id="Layer_1" xmlns="http://www.w3.org/2000/svg" x="0px"
     y="0px"
     viewBox="0 0 280.071 280.071" style="enable-background:new 0 0 280.071 280.071;" xml:space="preserve">
<g>
	<path style="fill:#BF392C;" d="M232.986,17.729C227.578,6.624,216.316,0,202.901,0C172.326,0,150.641,33.034,140,53.879
		C129.332,33.052,107.683,0.21,77.168,0.21c-19.357,0-33.393,13.791-33.393,32.492c0,33.166,31.634,54.807,95.227,54.807
		s97.283-27.81,97.283-54.535C236.276,27.67,235.305,22.463,232.986,17.729z M82.559,50.65
		c-9.258-5.531-12.557-11.726-12.557-15.699c0-5.075,5.399-8.751,12.837-8.751c17.922,0,40.849,29.438,48.558,43.842
		C110.745,68.502,89.612,54.868,82.559,50.65z M208.79,39.668c-4.647,9.381-29.219,28.073-59.917,30.365
		c7.745-14.404,30.715-43.842,48.357-43.842c6.826,0,10.746,2.958,12.111,5.723C210.426,34.12,210.243,36.736,208.79,39.668z"/>
    <path style="fill:#EFC75E;" d="M280.048,87.552H0.021v70.024h8.751V280.07h262.526V157.577h8.751
		C280.048,157.577,280.048,87.552,280.048,87.552z"/>
    <path style="fill:#D7B354;" d="M8.772,157.568h262.526v17.502H8.772V157.568z"/>
    <path style="fill:#BF392C;"
          d="M122.533,87.552h35.003v192.519h-35.003C122.533,280.071,122.533,87.552,122.533,87.552z"/>
    <rect x="122.533" y="157.568" style="fill:#AC3327;" width="35.003" height="17.502"/>
</g>
    <g>
</g>
    <g>
</g>
    <g>
</g>
    <g>
</g>
    <g>
</g>
    <g>
</g>
    <g>
</g>
    <g>
</g>
    <g>
</g>
    <g>
</g>
    <g>
</g>
    <g>
</g>
    <g>
</g>
    <g>
</g>
    <g>
</g>
</svg>
