<svg id="Capa_1" enable-background="new 0 0 512 512" height="512" viewBox="0 0 512 512" width="512"
     xmlns="http://www.w3.org/2000/svg">
    <g>
        <path d="m421.181 93.611-225.181 60 60 358.389 153.718-203.621c24.341-32.239 38.782-72.37 38.782-115.879 0-36.16-9.979-69.985-27.319-98.889z"
              fill="#0f9d58"/>
        <path d="m181.016 412.674 74.984 99.326v-198.943z" fill="#31aa52"/>
        <path d="m256 313.057 57.926-76.955-57.926-43.602-60 60.278z" fill="#f69411"/>
        <path d="m256 0-60 65.969 60 65.969 49.338-125.545c-15.748-4.164-32.282-6.393-49.338-6.393z" fill="#4175df"/>
        <path d="m102.198 76.73v115.77h153.802v-192.5c-62.856 0-118.669 30.13-153.802 76.73z" fill="#4086f4"/>
        <path d="m102.198 76.73c-24.291 32.22-38.698 72.311-38.698 115.77 0 36.158 9.981 69.979 27.322 98.88l137.25-119.902z"
              fill="#eb4132"/>
        <path d="m305.338 6.393-49.338 65.546-72.5 164.163h130.426l107.255-142.49c-25.465-42.444-66.82-74.257-115.843-87.219z"
              fill="#4086f4"/>
        <path d="m256 71.939-57.928 76.958 57.928 43.603z" fill="#609af6"/>
        <path d="m196 192.5 60 120.557 57.926-76.955z" fill="#f8a808"/>
        <path d="m198.072 148.897-107.25 142.483c3.525 5.875 7.347 11.552 11.46 16.998l78.734 104.295 74.984-99.616v-120.557z"
              fill="#fbbd00"/>
        <path d="m256 120-36.25 72.5 36.25 72.5c40.041 0 72.5-32.459 72.5-72.5s-32.459-72.5-72.5-72.5z" fill="#e3e7ea"/>
        <path d="m183.5 192.5c0 40.041 32.459 72.5 72.5 72.5v-145c-40.041 0-72.5 32.459-72.5 72.5z" fill="#fff"/>
    </g>
</svg>