<?xml version="1.0" encoding="iso-8859-1"?>


<svg xmlns:xlink="http://www.w3.org/1999/xlink" version="1.1" id="Capa_1" xmlns="http://www.w3.org/2000/svg" x="0px"
     y="0px"
     viewBox="0 0 512 512" style="enable-background:new 0 0 512 512;" xml:space="preserve">
<path style="fill:#F7C800;" d="M263.586,263.586L252.51,252.51l-57.647-57.647L57.428,57.428L46.341,46.341L0,0v512h512
	L263.586,263.586z M228.174,408.733H117.561c-7.899,0-14.305-6.395-14.305-14.294V283.815c0-12.748,15.402-19.122,24.409-10.115
	l110.623,110.623C247.296,393.331,240.922,408.733,228.174,408.733z"/>
    <g>
	<path style="fill:#F89E00;" d="M126.151,126.151l-21.88,21.87c-1.526,1.526-3.532,2.288-5.538,2.288s-4.012-0.763-5.538-2.288
		c-3.062-3.062-3.062-8.025,0-11.086l21.87-21.87L126.151,126.151z"/>
        <path style="fill:#F89E00;" d="M57.428,57.428l-21.87,21.87c-1.536,1.526-3.542,2.299-5.548,2.299s-4.012-0.773-5.538-2.299
		c-3.062-3.062-3.062-8.025,0-11.086l21.87-21.87L57.428,57.428z"/>
        <path style="fill:#F89E00;" d="M194.863,194.863l-21.87,21.88c-1.526,1.526-3.532,2.288-5.538,2.288
		c-2.006,0-4.012-0.762-5.538-2.288c-3.062-3.062-3.062-8.025,0-11.086l21.87-21.87L194.863,194.863z"/>
        <path style="fill:#F89E00;" d="M263.586,263.586l-21.87,21.87c-1.526,1.536-3.532,2.299-5.538,2.299
		c-2.006,0-4.012-0.763-5.548-2.299c-3.062-3.062-3.062-8.014,0-11.076l21.88-21.87L263.586,263.586z"/>
        <path style="fill:#F89E00;" d="M332.309,332.309l-21.87,21.87c-1.536,1.536-3.542,2.299-5.538,2.299
		c-2.006,0-4.012-0.763-5.548-2.299c-3.062-3.062-3.062-8.025,0-11.086l21.87-21.87L332.309,332.309z"/>
        <path style="fill:#F89E00;" d="M401.032,401.032l-21.87,21.87c-1.536,1.526-3.542,2.299-5.548,2.299
		c-2.006,0-4.012-0.773-5.538-2.299c-3.062-3.062-3.062-8.025,0-11.086l21.87-21.87L401.032,401.032z"/>
        <path style="fill:#F89E00;" d="M469.755,469.755l-21.88,21.87c-1.526,1.526-3.532,2.288-5.538,2.288s-4.012-0.763-5.538-2.288
		c-3.062-3.062-3.062-8.025,0-11.086l21.87-21.87L469.755,469.755z"/>
</g>
    <g>
</g>
    <g>
</g>
    <g>
</g>
    <g>
</g>
    <g>
</g>
    <g>
</g>
    <g>
</g>
    <g>
</g>
    <g>
</g>
    <g>
</g>
    <g>
</g>
    <g>
</g>
    <g>
</g>
    <g>
</g>
    <g>
</g>
</svg>
