<svg height="512" viewBox="0 0 48 48" width="512" xmlns="http://www.w3.org/2000/svg">
    <g id="Line">
        <path d="m34.39 5a11.52 11.52 0 0 0 -8.2 3.4l-2.19 2.19-2.19-2.19a11.6 11.6 0 0 0 -19.81 8.21 17 17 0 0 0 6 13l15.35 13.15a1 1 0 0 0 1.3 0l15.35-13.19a17 17 0 0 0 6-13 11.63 11.63 0 0 0 -11.61-11.57z"
              fill="#a30000"/>
        <path d="m16 33h-.06a1 1 0 0 1 -.92-.83l-2.32-13.11-1.7 5.26a1 1 0 0 1 -1 .68h-7a1 1 0 0 1 0-2h6.28l2.77-8.32a1 1 0 0 1 1.93.15l2.28 12.91 2.78-9a1 1 0 0 1 .96-.74 1 1 0 0 1 1 .63l1.68 4.37h8.32a1 1 0 0 1 .89.55l.63 1.25 1.49-9a1 1 0 0 1 2-.08l1.77 7.28h7.22a1 1 0 0 1 0 2h-8a1 1 0 0 1 -1-.76l-.83-3.33-1.17 7.25a1 1 0 0 1 -.84.83 1 1 0 0 1 -1-.54l-1.78-3.45h-8.38a1 1 0 0 1 -.93-.63l-.95-2.37-3.12 10.29a1 1 0 0 1 -1 .71z"
              fill="#fbdebf"/>
    </g>
</svg>