<svg height="512pt" viewBox="0 0 512 512" width="512pt" xmlns="http://www.w3.org/2000/svg"><path d="m392 256c0 19.601562-4.378906 39.101562-11.890625 55.910156l58.578125 56.625 50.707031-6.949218c14.402344-31.941407 22.605469-68.273438 22.605469-105.585938s-8.207031-73.644531-22.605469-105.585938l-53.71875-5.582031-55.566406 55.257813c7.511719 16.808594 11.890625 36.308594 11.890625 55.910156zm0 0" fill="#ff641a"/><g fill="#ff9100"><path d="m120 256c0-19.601562 4.378906-39.101562 11.890625-55.910156l-49.914063-52.6875-59.371093 3.011718c-14.398438 31.941407-22.605469 68.273438-22.605469 105.585938s8.203125 73.644531 22.605469 105.585938l53.71875 5.582031 55.566406-55.257813c-7.511719-16.808594-11.890625-36.308594-11.890625-55.910156zm0 0"/><path d="m373.398438 449.300781-11.699219 40.199219c-32.097657 14.398438-68.5 22.5-105.699219 22.5s-73.597656-8.101562-105.699219-22.5l-9-46.199219 58.796875-63.300781c16.800782 7.5 36.402344 12 55.902344 12s39.101562-4.5 55.902344-12zm0 0"/><path d="m362.300781 87-50.402343 45c-16.796876-7.5-36.398438-12-55.898438-12-19.503906 0-39.101562 4.5-55.902344 12l-53.097656-51.300781 3.300781-58.199219c32.101563-14.398438 68.5-22.5 105.699219-22.5s73.597656 8.101562 105.699219 22.5zm0 0"/></g><path d="m311.902344 132c-16.800782-7.5-36.402344-12-55.902344-12v-120c37.199219 0 73.597656 8.101562 105.699219 22.5l.601562 64.5zm0 0" fill="#ff641a"/><path d="m373.398438 449.300781-11.699219 40.199219c-32.097657 14.398438-68.5 22.5-105.699219 22.5v-120c19.5 0 39.101562-4.5 55.902344-12zm0 0" fill="#ff641a"/><path d="m150.421875 22.601562c-54.394531 24.527344-101.523437 69.496094-127.816406 127.8125l109.285156 49.675782c13.351563-29.867188 39.753906-55.488282 68.207031-68.199219zm0 0" fill="#efeff4"/><path d="m380.109375 311.910156c-13.273437 29.691406-39.582031 55.414063-68.203125 68.199219l49.679688 109.285156c55.917968-25.214843 102.175781-70.96875 127.808593-127.808593zm0 0" fill="#dadae5"/><path d="m131.890625 311.910156-109.285156 49.675782c25.457031 56.476562 71.535156 102.433593 127.808593 127.808593l49.679688-109.285156c-28.273438-12.632813-54.765625-38.140625-68.203125-68.199219zm0 0" fill="#efeff4"/><path d="m361.585938 22.605469-49.679688 109.285156c30.605469 13.675781 55.796875 40.449219 68.203125 68.199219l109.285156-49.675782c-25.261719-56.027343-71.074219-102.226562-127.808593-127.808593zm0 0" fill="#dadae5"/></svg>