<svg height="511pt" viewBox="1 -14 511.99978 511" width="511pt" xmlns="http://www.w3.org/2000/svg">
    <path d="m270.890625.5c-132.945313 0-241.105469 108.160156-241.105469 241.105469h-23.472656c-4.917969 0-7.941406 5.386719-5.378906 9.585937l45.601562 74.773438c2.457032 4.027344 8.308594 4.027344 10.765625 0l45.601563-74.773438c2.5625-4.199218-.460938-9.585937-5.378906-9.585937h-21.148438c0-107.417969 87.527344-194.78125 195.011719-194.511719 106.648437.265625 193.753906 87.371094 194.019531 194.019531.265625 105.429688-83.785156 191.660157-188.378906 194.914063-3.414063.105468-6.132813 2.878906-6.132813 6.296875v33.992187c0 3.550782 2.929688 6.40625 6.476563 6.3125 129.964844-3.445312 234.628906-110.242187 234.628906-241.019531 0-132.800781-108.308594-241.109375-241.109375-241.109375zm0 0"
          fill="#97d57e"/>
    <path d="m40.960938 316.828125 5.574218 9.136719c2.457032 4.027344 8.304688 4.027344 10.761719 0l45.605469-74.773438c2.5625-4.199218-.460938-9.585937-5.382813-9.585937h-10.679687zm0 0"
          fill="#82cd64"/>
    <path d="m257.496094 47.089844c-105.089844 0-190.984375 83.777344-194.410156 188.054687-.113282 3.539063 2.761718 6.460938 6.304687 6.460938h6.984375c0-105.011719 83.652344-190.84375 187.820312-194.386719-2.222656-.074219-4.457031-.128906-6.699218-.128906zm0 0"
          fill="#82cd64"/>
    <path d="m450.28125 80.695312c30.796875 40.492188 49.109375 90.976563 49.109375 145.660157 0 128.71875-101.390625 234.199219-228.496094 240.78125v9.179687c0 3.542969 2.921875 6.40625 6.464844 6.308594 129.96875-3.4375 234.640625-110.234375 234.640625-241.019531 0-61.78125-23.367188-118.203125-61.71875-160.910157zm0 0"
          fill="#82cd64"/>
    <path d="m163.699219 382.390625c-13.015625 0-24.003907-8.691406-27.472657-20.585937-1.171874-4.019532 1.886719-8.03125 6.070313-8.03125h170.945313c3.054687 0 5.648437 2.195312 6.199218 5.199218 2.445313 13.324219 14.117188 23.417969 28.144532 23.417969zm0 0"
          fill="#feba80"/>
    <path d="m163.699219 353.773438v-232.992188c0-3.480469 2.824219-6.300781 6.304687-6.300781h199.898438c3.480468 0 6.300781 2.820312 6.300781 6.300781v232.398438c0 15.59375-12.222656 28.773437-27.8125 29.203124-14.375.390626-26.445313-9.820312-28.945313-23.386718-.554687-2.996094-3.085937-5.222656-6.132812-5.222656zm0 0"
          fill="#f7e5c1"/>
    <path d="m354.800781 114.480469v239.292969c0 12.019531-7.414062 22.300781-17.917969 26.542968 3.636719 1.464844 7.636719 2.214844 11.835938 2.054688 15.464844-.601563 27.484375-13.757813 27.484375-29.230469v-232.359375c0-3.480469-2.820313-6.300781-6.304687-6.300781zm0 0"
          fill="#f3d69e"/>
    <g fill="#5f6c75">
        <path d="m338.59375 196.230469h-137.28125c-4.355469 0-7.882812-3.527344-7.882812-7.878907 0-4.355468 3.527343-7.882812 7.882812-7.882812h137.28125c4.351562 0 7.878906 3.527344 7.878906 7.882812 0 4.351563-3.527344 7.878907-7.878906 7.878907zm0 0"/>
        <path d="m338.59375 235.128906h-137.28125c-4.355469 0-7.882812-3.527344-7.882812-7.882812 0-4.351563 3.527343-7.878906 7.882812-7.878906h137.28125c4.351562 0 7.878906 3.527343 7.878906 7.878906 0 4.355468-3.527344 7.882812-7.878906 7.882812zm0 0"/>
        <path d="m338.59375 274.027344h-137.28125c-4.355469 0-7.882812-3.53125-7.882812-7.882813 0-4.351562 3.527343-7.878906 7.882812-7.878906h137.28125c4.351562 0 7.878906 3.527344 7.878906 7.878906 0 4.351563-3.527344 7.882813-7.878906 7.882813zm0 0"/>
        <path d="m338.59375 312.925781h-137.28125c-4.355469 0-7.882812-3.53125-7.882812-7.882812 0-4.351563 3.527343-7.878907 7.882812-7.878907h137.28125c4.351562 0 7.878906 3.527344 7.878906 7.878907 0 4.351562-3.527344 7.882812-7.878906 7.882812zm0 0"/>
    </g>
</svg>