<svg id="Capa_1" enable-background="new 0 0 510 510" height="512" viewBox="0 0 510 510" width="512" xmlns="http://www.w3.org/2000/svg" xmlns:xlink="http://www.w3.org/1999/xlink"><linearGradient id="SVGID_1_" gradientUnits="userSpaceOnUse" x1="158.398" x2="253.732" y1="76.935" y2="172.268"><stop offset="0" stop-color="#ffdfcf"/><stop offset="1" stop-color="#ffa78f"/></linearGradient><linearGradient id="lg1"><stop offset="0" stop-color="#f89580"/><stop offset="1" stop-color="#c4573a"/></linearGradient><linearGradient id="SVGID_00000056388187222373385830000004389468455196271242_" gradientUnits="userSpaceOnUse" x1="53.5" x2="407.614" xlink:href="#lg1" y1="117.5" y2="471.614"/><linearGradient id="lg2"><stop offset="0" stop-color="#c4573a" stop-opacity="0"/><stop offset="1" stop-color="#883f2e"/></linearGradient><linearGradient id="SVGID_00000087385052554050201680000017037807297448372107_" gradientUnits="userSpaceOnUse" x1="255" x2="255" xlink:href="#lg2" y1="448" y2="510.032"/><linearGradient id="SVGID_00000033352487123432868950000015081813786961178301_" gradientUnits="userSpaceOnUse" x1="160.35" x2="353.861" y1="224.35" y2="417.861"><stop offset="0" stop-color="#5a5a5a"/><stop offset="1" stop-color="#444"/></linearGradient><linearGradient id="lg3"><stop offset="0" stop-color="#433f43" stop-opacity="0"/><stop offset="1" stop-color="#1a1a1a"/></linearGradient><linearGradient id="SVGID_00000123400903133109518880000004269724417070260373_" gradientUnits="userSpaceOnUse" x1="482.165" x2="401.109" xlink:href="#lg3" y1="484.502" y2="403.446"/><linearGradient id="SVGID_00000178903571911066061530000016309839325711757453_" gradientUnits="userSpaceOnUse" x1="419.419" x2="423.157" xlink:href="#lg1" y1="397.902" y2="433.41"/><linearGradient id="SVGID_00000171694543076424897280000009206197928583727263_" gradientTransform="matrix(.707 .707 -.707 .707 -1982.17 -137.113)" gradientUnits="userSpaceOnUse" x1="2120.189" x2="2084.797" xlink:href="#lg2" y1="-1318.406" y2="-1288.971"/><linearGradient id="SVGID_00000014622633181810647150000003823726264232162219_" gradientTransform="matrix(.707 .707 -.707 .707 -1982.17 -137.113)" gradientUnits="userSpaceOnUse" x1="2105.739" x2="2128.176" xlink:href="#lg2" y1="-1303" y2="-1303"/><linearGradient id="SVGID_00000138555040439319123980000011777208527051237268_" gradientTransform="matrix(.707 .707 -.707 .707 -1982.17 -137.113)" gradientUnits="userSpaceOnUse" x1="2097.329" x2="2097.329" xlink:href="#lg2" y1="-1291.086" y2="-1261.227"/><linearGradient id="SVGID_00000126324380680131428460000009471490820707099799_" gradientUnits="userSpaceOnUse" x1="255" x2="255" xlink:href="#lg3" y1="200.667" y2="151.959"/><linearGradient id="SVGID_00000095315539923171257940000009419021387193984156_" gradientUnits="userSpaceOnUse" x1="58.667" x2="17.995" xlink:href="#lg3" y1="319" y2="319"/><linearGradient id="lg4"><stop offset="0" stop-color="#f2f2f2"/><stop offset="1" stop-color="#fff5c6"/></linearGradient><linearGradient id="SVGID_00000146458230685478683810000018066300482176699286_" gradientUnits="userSpaceOnUse" x1="118.902" x2="138.402" xlink:href="#lg4" y1="291.382" y2="300.132"/><linearGradient id="lg5"><stop offset="0" stop-color="#fea613" stop-opacity="0"/><stop offset=".1832" stop-color="#fc9b19" stop-opacity=".183"/><stop offset=".5086" stop-color="#f57d28" stop-opacity=".509"/><stop offset=".9356" stop-color="#eb4c40" stop-opacity=".936"/><stop offset="1" stop-color="#e94444"/></linearGradient><linearGradient id="SVGID_00000007421808517845401280000016875175102529037966_" gradientUnits="userSpaceOnUse" x1="135.516" x2="115.516" xlink:href="#lg5" y1="296.089" y2="296.089"/><linearGradient id="SVGID_00000055696279218764715300000012427990705178064809_" gradientUnits="userSpaceOnUse" x1="72.727" x2="108.462" xlink:href="#lg4" y1="298.525" y2="298.525"/><linearGradient id="SVGID_00000114071037474331360180000013512586075717327783_" gradientUnits="userSpaceOnUse" x1="90.193" x2="90.193" xlink:href="#lg5" y1="318.808" y2="337.335"/><linearGradient id="lg6"><stop offset="0" stop-color="#f9f5f3"/><stop offset="1" stop-color="#efe2dd"/></linearGradient><linearGradient id="SVGID_00000072260402305642460730000010458600927094092478_" gradientUnits="userSpaceOnUse" x1="90.193" x2="90.193" xlink:href="#lg6" y1="337.634" y2="344.24"/><linearGradient id="lg7"><stop offset="0" stop-color="#9e9797" stop-opacity="0"/><stop offset=".3107" stop-color="#979090" stop-opacity=".311"/><stop offset=".7858" stop-color="#817a7a" stop-opacity=".786"/><stop offset="1" stop-color="#766e6e"/></linearGradient><linearGradient id="SVGID_00000020366758511528377580000012998737480818022283_" gradientUnits="userSpaceOnUse" x1="90.193" x2="90.193" xlink:href="#lg7" y1="337.951" y2="347.859"/><linearGradient id="SVGID_00000137813453749294358570000010445034442363164547_" gradientUnits="userSpaceOnUse" x1="118.902" x2="138.402" xlink:href="#lg4" y1="201.925" y2="210.675"/><linearGradient id="SVGID_00000114044003305102517990000009886850936776150962_" gradientUnits="userSpaceOnUse" x1="141.415" x2="121.415" xlink:href="#lg5" y1="209.788" y2="204.538"/><linearGradient id="SVGID_00000038372897860773631390000017561358756064777615_" gradientUnits="userSpaceOnUse" x1="78.17" x2="106.746" xlink:href="#lg4" y1="184.453" y2="220.524"/><linearGradient id="SVGID_00000014602243377887807540000011535735715616021689_" gradientUnits="userSpaceOnUse" x1="90.193" x2="90.193" xlink:href="#lg5" y1="220.886" y2="245.516"/><linearGradient id="SVGID_00000065061203481814513130000017861411654440224413_" gradientUnits="userSpaceOnUse" x1="90.193" x2="90.193" xlink:href="#lg6" y1="241.266" y2="247.871"/><linearGradient id="SVGID_00000122718629630881390700000012670041886144034977_" gradientUnits="userSpaceOnUse" x1="90.193" x2="90.193" xlink:href="#lg7" y1="241.582" y2="251.491"/><linearGradient id="SVGID_00000157309817160514591740000017241307035410074250_" gradientUnits="userSpaceOnUse" x1="71.114" x2="105.556" xlink:href="#lg4" y1="421.211" y2="421.211"/><linearGradient id="SVGID_00000062191864926960389320000007778771280237006250_" gradientUnits="userSpaceOnUse" x1="90.193" x2="90.193" xlink:href="#lg5" y1="450.398" y2="472.438"/><linearGradient id="lg8"><stop offset="0" stop-color="#fee45a"/><stop offset="1" stop-color="#fea613"/></linearGradient><linearGradient id="SVGID_00000023969065249461835570000007284097700786468781_" gradientUnits="userSpaceOnUse" x1="243" x2="268.686" xlink:href="#lg8" y1="15.667" y2="41.353"/><linearGradient id="SVGID_00000027562179843698873940000010624726033275534007_" gradientUnits="userSpaceOnUse" x1="264" x2="235.873" xlink:href="#lg8" y1="36.667" y2="8.54"/><g><path d="m378.448 212.834h-246.896c-2.76 0-5.296-1.516-6.604-3.946s-1.175-5.382.345-7.686l123.447-187.042c1.388-2.103 3.74-3.369 6.26-3.369s4.871 1.266 6.26 3.369l123.448 187.043c1.52 2.303 1.652 5.255.345 7.686s-3.845 3.945-6.605 3.945zm-232.96-15h219.024l-109.512-165.927z" fill="url(#SVGID_1_)"/><g><g><path d="m476.895 510h-443.79c-18.283 0-33.105-14.822-33.105-33.105v-315.79c0-18.283 14.822-33.105 33.105-33.105h443.79c18.283 0 33.105 14.822 33.105 33.105v315.79c0 18.283-14.822 33.105-33.105 33.105z" fill="url(#SVGID_00000056388187222373385830000004389468455196271242_)"/><path d="m0 371v105.895c0 18.283 14.822 33.105 33.105 33.105h443.79c18.283 0 33.105-14.822 33.105-33.105v-105.895z" fill="url(#SVGID_00000087385052554050201680000017037807297448372107_)"/><path d="m461.99 482.891h-413.98c-12.376 0-22.408-10.033-22.408-22.408v-282.966c0-12.376 10.033-22.408 22.408-22.408h413.98c12.376 0 22.408 10.033 22.408 22.408v282.966c0 12.376-10.033 22.408-22.408 22.408z" fill="url(#SVGID_00000033352487123432868950000015081813786961178301_)"/><g><path d="m455.302 391.486-66.153 66.153 25.252 25.252h47.589c12.376 0 22.408-10.033 22.408-22.408v-39.901z" fill="url(#SVGID_00000123400903133109518880000004269724417070260373_)"/><g><path d="m445.825 448.162c-18.268 18.268-43.642 22.511-56.676 9.477s-8.791-38.408 9.477-56.676 43.642-22.511 56.676-9.477 8.791 38.409-9.477 56.676z" fill="url(#SVGID_00000178903571911066061530000016309839325711757453_)"/><path d="m455.302 391.486c-.12-.12-.243-.235-.365-.352-11.053.518-19.848 9.693-19.752 20.895.121 14.129-11.364 25.614-25.493 25.493-11.202-.096-20.377 8.699-20.895 19.752.117.122.232.245.352.365 13.034 13.034 38.408 8.791 56.676-9.477 18.268-18.267 22.511-43.642 9.477-56.676z" fill="url(#SVGID_00000171694543076424897280000009206197928583727263_)"/><path d="m455.302 391.486c-.12-.12-.243-.235-.365-.352-11.053.518-19.848 9.693-19.752 20.895.121 14.129-11.364 25.614-25.493 25.493-11.202-.096-20.377 8.699-20.895 19.752.117.122.232.245.352.365 13.034 13.034 38.408 8.791 56.676-9.477 18.268-18.267 22.511-43.642 9.477-56.676z" fill="url(#SVGID_00000014622633181810647150000003823726264232162219_)"/><path d="m393.715 406.458c-14.014 17.576-16.336 39.411-4.565 51.181 11.77 11.77 33.605 9.449 51.181-4.565z" fill="url(#SVGID_00000138555040439319123980000011777208527051237268_)"/></g></g><g><path d="m461.99 155.109h-413.98c-12.376 0-22.408 10.033-22.408 22.408v90.086h458.796v-90.086c0-12.376-10.033-22.408-22.408-22.408z" fill="url(#SVGID_00000126324380680131428460000009471490820707099799_)"/><path d="m124.667 155.109h-76.657c-12.376 0-22.408 10.033-22.408 22.408v282.966c0 12.376 10.033 22.408 22.408 22.408h76.656v-327.782z" fill="url(#SVGID_00000095315539923171257940000009419021387193984156_)"/></g></g><g><g><g><g><path d="m129.391 320.714c-13.578 0-24.625-11.047-24.625-24.625s11.047-24.625 24.625-24.625 24.625 11.047 24.625 24.625-11.047 24.625-24.625 24.625zm0-34.25c-5.307 0-9.625 4.318-9.625 9.625s4.318 9.625 9.625 9.625 9.625-4.318 9.625-9.625-4.318-9.625-9.625-9.625z" fill="url(#SVGID_00000146458230685478683810000018066300482176699286_)"/><path d="m129.391 320.714c-13.578 0-24.625-11.047-24.625-24.625s11.047-24.625 24.625-24.625 24.625 11.047 24.625 24.625-11.047 24.625-24.625 24.625zm0-34.25c-5.307 0-9.625 4.318-9.625 9.625s4.318 9.625 9.625 9.625 9.625-4.318 9.625-9.625-4.318-9.625-9.625-9.625z" fill="url(#SVGID_00000007421808517845401280000016875175102529037966_)"/></g><g><path d="m104.355 335.135h-28.325c-12.398 0-22.448-10.05-22.448-22.448v-46.243c0-2.502 2.028-4.53 4.53-4.53h64.16c2.502 0 4.53 2.028 4.53 4.53v46.243c.001 12.398-10.049 22.448-22.447 22.448z" fill="url(#SVGID_00000055696279218764715300000012427990705178064809_)"/><path d="m53.582 306.293v6.395c0 12.398 10.05 22.448 22.448 22.448h28.325c12.398 0 22.448-10.05 22.448-22.448v-6.395z" fill="url(#SVGID_00000114071037474331360180000013512586075717327783_)"/></g><g><g><path d="m112.49 347.235h-44.595c-5.624 0-10.841-4.357-13.77-11.499l-.263-.641c-.77-1.878.138-4.287 1.617-4.287h69.425c1.479 0 2.388 2.409 1.618 4.287l-.263.641c-2.928 7.142-8.146 11.499-13.769 11.499z" fill="url(#SVGID_00000072260402305642460730000010458600927094092478_)"/><path d="m112.49 347.235h-44.595c-5.624 0-10.841-4.357-13.77-11.499l-.263-.641c-.77-1.878.138-4.287 1.617-4.287h69.425c1.479 0 2.388 2.409 1.618 4.287l-.263.641c-2.928 7.142-8.146 11.499-13.769 11.499z" fill="url(#SVGID_00000020366758511528377580000012998737480818022283_)"/></g></g></g><g><g><path d="m129.391 231.256c-13.578 0-24.625-11.047-24.625-24.625s11.047-24.625 24.625-24.625 24.625 11.047 24.625 24.625-11.047 24.625-24.625 24.625zm0-34.25c-5.307 0-9.625 4.318-9.625 9.625s4.318 9.625 9.625 9.625 9.625-4.318 9.625-9.625-4.318-9.625-9.625-9.625z" fill="url(#SVGID_00000137813453749294358570000010445034442363164547_)"/><path d="m129.391 231.256c-13.578 0-24.625-11.047-24.625-24.625s11.047-24.625 24.625-24.625 24.625 11.047 24.625 24.625-11.047 24.625-24.625 24.625zm0-34.25c-5.307 0-9.625 4.318-9.625 9.625s4.318 9.625 9.625 9.625 9.625-4.318 9.625-9.625-4.318-9.625-9.625-9.625z" fill="url(#SVGID_00000114044003305102517990000009886850936776150962_)"/></g><g><path d="m121.029 237.084h-61.673l-13.003-53.462c-1.243-5.112 2.629-10.039 7.89-10.039h71.899c5.261 0 9.133 4.927 7.89 10.039z" fill="url(#SVGID_00000038372897860773631390000017561358756064777615_)"/><path d="m51.949 206.631 7.407 30.453h61.673l7.407-30.453z" fill="url(#SVGID_00000014602243377887807540000011535735715616021689_)"/></g><g><path d="m112.49 250.866h-44.595c-5.624 0-10.841-4.357-13.77-11.499l-.263-.641c-.77-1.878.138-4.287 1.617-4.287h69.425c1.479 0 2.388 2.409 1.618 4.287l-.263.641c-2.928 7.142-8.146 11.499-13.769 11.499z" fill="url(#SVGID_00000065061203481814513130000017861411654440224413_)"/><path d="m112.49 250.866h-44.595c-5.624 0-10.841-4.357-13.77-11.499l-.263-.641c-.77-1.878.138-4.287 1.617-4.287h69.425c1.479 0 2.388 2.409 1.618 4.287l-.263.641c-2.928 7.142-8.146 11.499-13.769 11.499z" fill="url(#SVGID_00000122718629630881390700000012670041886144034977_)"/></g></g><g><path d="m90.863 412.523-14.164-4.938 9.312-26.708c3.719-10.664 11.923-19.035 22.509-22.967 3.145-1.168 6.642.435 7.81 3.58l.992 2.671c1.168 3.145-.435 6.642-3.58 7.811-6.36 2.362-11.335 7.438-13.568 13.844z" fill="#fff"/><g><path d="m109.904 464.417h-39.423c-2.581 0-4.737-1.963-4.979-4.532l-7.198-76.41c-.276-2.935 2.032-5.471 4.979-5.471h53.819c2.948 0 5.256 2.536 4.979 5.471l-7.198 76.41c-.241 2.568-2.398 4.532-4.979 4.532z" fill="url(#SVGID_00000157309817160514591740000017241307035410074250_)"/><path d="m63.559 439.267 1.942 20.617c.242 2.569 2.399 4.532 4.979 4.532h39.424c2.581 0 4.737-1.963 4.979-4.532l1.942-20.617z" fill="url(#SVGID_00000062191864926960389320000007778771280237006250_)"/></g></g></g><g fill="#ffeee6"><g><path d="m334.81 211.356c0-5.865 4.754-10.619 10.619-10.619h12.035c5.865 0 10.619 4.754 10.619 10.619s-4.754 10.619-10.619 10.619h-12.035c-5.865 0-10.619-4.754-10.619-10.619z"/><path d="m292.466 221.975h-116.69c-5.865 0-10.619-4.754-10.619-10.619s4.754-10.619 10.619-10.619h116.69c5.865 0 10.619 4.755 10.619 10.619 0 5.865-4.754 10.619-10.619 10.619z"/></g><g><path d="m334.81 298.525c0-5.865 4.754-10.619 10.619-10.619h12.035c5.865 0 10.619 4.754 10.619 10.619s-4.754 10.619-10.619 10.619h-12.035c-5.865 0-10.619-4.754-10.619-10.619z"/><path d="m239.229 309.144h-63.454c-5.865 0-10.619-4.754-10.619-10.619s4.754-10.619 10.619-10.619h63.454c5.865 0 10.619 4.755 10.619 10.619 0 5.865-4.754 10.619-10.619 10.619z"/></g><g><path d="m334.81 385.693c0-5.865 4.754-10.619 10.619-10.619h12.035c5.865 0 10.619 4.754 10.619 10.619s-4.754 10.619-10.619 10.619h-12.035c-5.865.001-10.619-4.754-10.619-10.619z"/><path d="m268.389 396.313h-92.614c-5.865 0-10.619-4.754-10.619-10.619s4.754-10.619 10.619-10.619h92.614c5.865 0 10.619 4.755 10.619 10.619 0 5.865-4.754 10.619-10.619 10.619z"/></g></g><g><path d="m422.37 316.35c-18.246-.608-33.148-10.036-33.148-19.768 0-5.17 4.562-12.772 10.34-12.772 6.386 0 11.556 8.971 22.808 10.948v-24.633c-13.989-5.322-30.411-11.861-30.411-31.324 0-19.311 14.293-28.586 30.411-30.867v-4.258c0-2.128 2.433-4.105 5.778-4.105 2.889 0 5.778 1.977 5.778 4.105v3.802c9.428.304 27.218 2.737 27.218 13.228 0 4.106-2.737 12.469-9.427 12.469-5.018 0-7.907-4.866-17.791-5.626v22.2c13.837 5.17 29.955 12.316 29.955 32.843 0 18.855-12.164 30.259-29.955 33.148v4.41c0 2.129-2.889 4.106-5.778 4.106-3.345 0-5.778-1.977-5.778-4.106zm1.52-70.25v-18.095c-6.842 1.369-9.732 4.866-9.732 8.515.001 4.411 3.954 7.147 9.732 9.58zm8.516 28.13v20.375c5.17-1.216 9.275-4.105 9.275-9.579-.001-5.018-3.802-8.211-9.275-10.796z" fill="#ffeee6"/></g></g></g><g><circle cx="255.398" cy="28.065" fill="url(#SVGID_00000023969065249461835570000007284097700786468781_)" r="28.065"/><circle cx="255.398" cy="28.065" fill="url(#SVGID_00000027562179843698873940000010624726033275534007_)" r="17.259"/></g></g></svg>