<!--
  - Copyright (c) 2023. Selldone® Business OS™
  -
  - Author: M.Pajuhaan
  - Web: https://selldone.com
  - ━━━━━━━━━━━━━━━━━━━━━━━━━━━━━━━━━━━━━━━━━━━━━━━━━━━━━━
  -
  - All rights reserved. In the weave of time, where traditions and innovations intermingle, this content was crafted.
  - From the essence of thought, through the corridors of creativity, each word, and sentiment has been molded.
  - Not just to exist, but to inspire. Like an artist's stroke or a sculptor's chisel, every nuance is deliberate.
  - Our journey is not just about reaching a destination, but about creating a masterpiece.
  - Tread carefully, for you're treading on dreams.
  -->

<svg height="512" viewBox="0 0 32 32" width="512" xmlns="http://www.w3.org/2000/svg"><g id="_9-Home" data-name="9-Home"><path d="m21.82 30h-11.64a5 5 0 0 1 -5.18-4.76v-6.24a1 1 0 0 1 2 0v6.24a3 3 0 0 0 3.18 2.76h11.64a3 3 0 0 0 3.18-2.76v-6.24a1 1 0 0 1 2 0v6.24a5 5 0 0 1 -5.18 4.76zm7.89-13.29a1 1 0 0 0 0-1.42l-13-13a1 1 0 0 0 -1.42 0l-13 13a1 1 0 0 0 1.42 1.42l12.29-12.3 12.29 12.3a1 1 0 0 0 1.42 0z"/></g></svg>