<svg id="Capa_1" enable-background="new 0 0 512.001 512.001" height="512" viewBox="0 0 512.001 512.001" width="512"
     xmlns="http://www.w3.org/2000/svg">
    <g>
        <circle cx="382" cy="196.001" r="10"/>
        <circle cx="367" cy="256.001" r="10"/>
        <ellipse cx="337" cy="10" rx="10" ry="10" transform="matrix(.383 -.924 .924 .383 198.797 317.521)"/>
        <path d="m472 .001h-90c-5.523 0-10 4.477-10 10s4.477 10 10 10h90c11.028 0 20 8.972 20 20s-8.972 20-20 20h-270c-11.028 0-20-8.972-20-20s8.972-20 20-20h90c5.523 0 10-4.477 10-10s-4.477-10-10-10h-90c-22.056 0-40 17.944-40 40 0 20.884 16.09 38.07 36.523 39.839 19.052 14 35.27 32.829 47.262 54.887l-172.675 254.856c-7.201-10.603-19.355-17.582-33.11-17.582-22.056 0-40 17.944-40 40v60c0 22.056 17.944 40 40 40 18.604 0 34.282-12.767 38.734-30h103.586c58.933 0 116.18-16.53 165.545-47.798 102.173-64.62 159.961-190.576 140.863-315.251l-5.5-40.566c16.606-4.866 28.772-20.227 28.772-38.385 0-22.056-17.943-40-40-40zm-242.548 80h233.813s6.066 44.631 6.256 46h-205.718c-9.28-17.259-20.913-32.791-34.351-46zm26.147 75.896c20.523 52.731 18.027 115.911-12.598 165.669-31.244 50.195-95.978 80.046-154.555 81.038zm-135.599 263.811v42.293h-40v-39.452c1.787.048 3.576.081 5.371.081 11.421 0 22.997-.98 34.629-2.922zm-80 72.293c-11.028 0-20-8.972-20-20v-60c0-11.028 8.972-20 20-20s20 8.972 20 20v60c0 11.028-8.972 20-20 20zm142.32-30h-42.32v-46.583c50.444-13.191 94.383-43.285 119-81.762v1.345c0 5.523 4.477 10 10 10h32v33c0 5.523 4.477 10 10 10h33v24.812c-2.249 1.524-4.524 3.031-6.831 4.49-46.165 29.241-99.711 44.698-154.849 44.698zm181.68-64.09v-19.91c0-5.523-4.477-10-10-10h-33v-33c0-5.523-4.477-10-10-10h-32v-34.181c8.186-25.207 11.431-52.839 9.359-80.098-1.688-22.193-6.885-44.282-15.17-64.721h198.437c6.732 96.046-34.573 192.111-107.626 251.91z"/>
    </g>
</svg>