<svg id="Capa_1" enable-background="new 0 0 512 512" height="512" viewBox="0 0 512 512" width="512"
     xmlns="http://www.w3.org/2000/svg">
    <g>
        <path d="m348.495 48.871s-109.864 0-109.868 0c-.358.039-.017 45.711 0 48.957.054 10.525.038 21.491-.131 32.79-.001.053.649.912.649.965-.135 8.929-.846 22.969-1.216 32.253-.671 16.834-1.38 27.427-3.201 44.959-.005.052-.588 1.166-.594 1.218-9.577 92.003-38.454 189.007-122.408 244.574-21.197 14.03-48.021 25.825-74.575 33.674-8.831 2.61-8.338 15.265.689 17.084.234.047.47.095.706.142 91.754 18.385 193.288-2.821 271.394-55.21 11.113-7.454 21.851-15.473 32.102-24.077 67.537-56.693 97.245-135.034 108.944-218.142.01-.073-.304-.619-.294-.691 3.526-25.12 5.429-50.457 6.216-75.979.012-.387.329-.518.34-.905.063-2.12.118-4.239.166-6.358.125-5.549.949-75.254.949-75.254-.021 0-109.868 0-109.868 0z"
              fill="#ae6c6c"/>
        <path d="m458.357 48.881s-.819 69.706-.944 75.255c-.015.67-.031 1.341-.048 2.011-.036 1.444-.069 2.899-.112 4.343 0 .005-.026.022-.026.027-.001.049-.16.148-.162.197-.662 22.246-2.165 44.353-4.861 66.288-.445 3.62-.809 7.14-1.318 10.753l.098.304c-11.697 83.114-41.404 161.452-108.95 218.154-10.255 8.607-20.988 16.622-32.096 24.069-62.748 42.09-140.629 64.056-216.407 61.52 68.126-2.251 136.479-23.808 192.702-61.52 11.119-7.447 21.852-15.463 32.107-24.069 90.012-75.562 112.82-189.575 115.366-302.076.125-5.548.955-75.255.955-75.255h23.696z"
              fill="#9b5e5e"/>
        <path d="m457.259 130.482c-.762 25.979-2.669 52.007-6.273 77.577l-38.962-16.817c-4.957-2.138-10.574-2.138-15.542 0l-40.225 17.373c-4.957 2.137-10.585 2.137-15.542 0l-40.225-17.373c-4.957-2.138-10.585-2.138-15.542 0l-40.225 17.373c-3.365 1.444-7.026 1.921-10.596 1.398 2.854-27.31 3.982-54.176 4.357-79.393 2.126-.159 4.238-.671 6.239-1.535l40.225-17.361c4.957-2.149 10.585-2.149 15.542 0l40.225 17.361c4.957 2.137 10.585 2.137 15.542 0l40.225-17.361c4.968-2.149 10.585-2.149 15.542 0 0-.001 43.897 18.305 45.235 18.758z"
              fill="#ffeee7"/>
        <path d="m457.248 130.483c-.142 4.84-.313 9.683-.539 14.523-.027.578-.05 1.181-.078 1.759-.362 7.39-.822 14.777-1.402 22.137-.103 1.311-.203 2.643-.314 3.952-.215 2.533-.44 5.066-.685 7.589-.045.463-.103.922-.139 1.384-.041.52-.092 1.013-.144 1.516-.022.21-.054.411-.075.622-.029.291-.046.588-.076.879-.627 6.154-1.35 12.292-2.164 18.415-.085.629-.508 3.825-.646 4.799l-22.423-9.677c3.047-24.547 4.593-49.435 5.15-74.254.011-.512.028-1.873.051-3.351z"
              fill="#ffe2db"/>
        <g fill="#855151">
            <circle cx="271.402" cy="80.175" r="8.527"/>
            <circle cx="308.542" cy="80.175" r="8.527"/>
            <circle cx="345.683" cy="80.175" r="8.527"/>
            <circle cx="382.823" cy="80.175" r="8.527"/>
            <circle cx="419.964" cy="80.175" r="8.527"/>
        </g>
        <path d="m469.069 53.583h-245.093c-6.703 0-12.137-5.434-12.137-12.137v-29.309c-.001-6.703 5.433-12.137 12.137-12.137h245.093c6.703 0 12.137 5.434 12.137 12.137v29.308c0 6.704-5.434 12.138-12.137 12.138z"
              fill="#fdb441"/>
        <path d="m481.209 12.136v29.307c0 6.701-5.433 12.145-12.145 12.145h-21.298c6.711 0 12.145-5.444 12.145-12.145v-29.307c0-6.701-5.433-12.134-12.145-12.134h21.298c6.711 0 12.145 5.433 12.145 12.134z"
              fill="#fea613"/>
        <g fill="#855151">
            <circle cx="266.554" cy="240.155" r="8.527"/>
            <circle cx="303.694" cy="240.155" r="8.527"/>
            <circle cx="340.835" cy="240.155" r="8.527"/>
            <circle cx="377.975" cy="240.155" r="8.527"/>
            <circle cx="415.115" cy="240.155" r="8.527"/>
        </g>
    </g>
</svg>