<svg id="Layer_1" enable-background="new 0 0 50 50" height="512" viewBox="0 0 50 50" width="512" xmlns="http://www.w3.org/2000/svg"><g><g><g><g><g enable-background="new"><g><path d="m43.92912 21.71971v4.67537c-.0005.17849-.11781.35671-.35218.49291-.47169.27412-1.23911.27413-1.71389.00001-.23895-.13796-.35828-.31903-.35777-.49983v-4.67537c-.00051.1808.11881.36187.35776.49983.47478.27412 1.2422.27411 1.71389-.00001.23438-.13621.35168-.31443.35219-.49291z" fill="#4c5671"/></g><path d="m43.57135 21.21986c-.47487-.27417-1.2421-.27417-1.71389.00001-.47169.27412-.46928.71858.00559.99275.47479.27411 1.2422.27411 1.71389-.00001.47179-.27417.46919-.71863-.00559-.99275z" fill="#b4bed7"/></g></g><g><g enable-background="new"><g><path d="m43.46929 11.05155v10.57024c-.00031.11077-.07311.22137-.21855.30589-.29272.17011-.76896.17012-1.06361 0-.14829-.08561-.22234-.19799-.22202-.31018v-10.57025c-.00032.1122.07373.22457.22202.31018.29464.17011.77088.17011 1.06361 0 .14544-.08452.21824-.19512.21855-.30588z" fill="#4c5671"/></g><path d="m43.24727 10.74135c-.2947-.17014-.77082-.17014-1.06361 0-.29272.17011-.29123.44594.00347.61608.29464.17011.77088.17011 1.06361 0 .29278-.17014.29117-.44596-.00347-.61608z" fill="#b4bed7"/></g></g></g><g><g><g enable-background="new"><g><path d="m27.27761 12.10596v4.67537c-.00051.17849-.11781.35671-.35218.49291-.47169.27412-1.23911.27413-1.71389.00001-.23895-.13796-.35827-.31903-.35776-.49983v-4.67537c-.00051.1808.11881.36187.35776.49983.47478.27412 1.2422.27411 1.71389-.00001.23438-.1362.35168-.31443.35218-.49291z" fill="#4c5671"/></g><path d="m26.91985 11.60612c-.47487-.27417-1.24211-.27417-1.71389.00001-.47169.27412-.46928.71858.00559.99275.47479.27412 1.2422.27411 1.71389-.00001.47179-.27418.4692-.71864-.00559-.99275z" fill="#b4bed7"/></g></g><g><g enable-background="new"><g><path d="m26.81779 1.4378v10.57024c-.00031.11077-.07311.22137-.21855.30589-.29272.17011-.76896.17012-1.06361 0-.14829-.08561-.22234-.19799-.22202-.31018v-10.57024c-.00032.1122.07373.22457.22202.31018.29464.17011.77088.17011 1.06361 0 .14544-.08453.21823-.19513.21855-.30589z" fill="#4c5671"/></g><path d="m26.59577 1.12761c-.2947-.17014-.77082-.17014-1.06361 0-.29272.17011-.29123.44594.00347.61608.29464.17011.77088.17011 1.06361 0 .29278-.17015.29117-.44597-.00347-.61608z" fill="#b4bed7"/></g></g></g></g><g><g><g><g><g><g><g enable-background="new"><g><path d="m48.99607 36.67768v1.5182c-.00932.81934-.54943 1.63869-1.62959 2.27206l-13.05538 7.58915c-2.1697 1.25721-5.71756 1.25721-7.90584 0l-23.75481-13.71649c-1.0988-.63338-1.64823-1.47136-1.64823-2.30025l.00932-1.51774c0 .82889.54943 1.66688 1.64823 2.2998l23.74549 13.71695c2.18829 1.25675 5.73614 1.25675 7.90584 0l13.0647-7.58961c1.08017-.63292 1.62027-1.45227 1.62027-2.27207z" fill="#b4bed7"/></g><g><path d="m47.34925 34.36825c2.18789 1.26318 2.1995 3.31584.02583 4.57905l-13.05972 7.58948c-2.17368 1.26321-5.71773 1.26337-7.90562.00019l-23.75175-13.71307c-2.18789-1.26318-2.19918-3.31602-.0255-4.57923l13.05972-7.58948c2.17368-1.26321 5.7174-1.26319 7.9053-.00001z" fill="#e3e7f0"/></g></g></g><g><path d="m48.81167 31.27889v5.03578c-.00925.81305-.54521 1.62609-1.61707 2.2546l-12.95506 7.53083c-2.15303 1.24754-5.67362 1.24754-7.84509 0l-23.57226-13.61109c-1.09036-.62851-1.63557-1.46005-1.63557-2.28258l.00925-5.03532c0 .82252.54521 1.65407 1.63557 2.28213l23.56301 13.61154c2.17147 1.24709 5.69206 1.24709 7.84509 0l12.96431-7.53129c1.07186-.62806 1.60782-1.4411 1.60782-2.2546z" fill="#4c5671"/></g><g><g enable-background="new"><g><path d="m48.99607 29.67402v1.51819c-.00932.81934-.54943 1.63869-1.62959 2.27206l-13.05538 7.58915c-2.1697 1.25721-5.71756 1.25721-7.90584 0l-23.75481-13.71649c-1.0988-.63338-1.64823-1.47136-1.64823-2.30025l.00932-1.51774c0 .82889.54943 1.66688 1.64823 2.2998l23.74549 13.71695c2.18829 1.25675 5.73614 1.25675 7.90584 0l13.0647-7.58961c1.08017-.63293 1.62027-1.45227 1.62027-2.27206z" fill="#b4bed7"/></g><g><path d="m47.34925 27.36458c2.18789 1.26318 2.1995 3.31584.02583 4.57904l-13.05972 7.58948c-2.17368 1.26321-5.71773 1.26337-7.90562.00019l-23.75175-13.71306c-2.18789-1.26318-2.19918-3.31602-.02549-4.57923l13.05972-7.58948c2.17368-1.26321 5.7174-1.26319 7.9053-.00001z" fill="#e3e7f0"/></g></g></g></g><g><g><path d="m24.44451 42.12836-.00286 1.00844 1.93415 1.11668.00286-1.00844z" fill="#ffdd94"/></g><g><path d="m21.47208 40.41223-.00286 1.00844 1.93415 1.11668.00286-1.00844z" fill="#ffdd94"/></g><g><path d="m18.50425 38.69875-.00286 1.00843 1.93415 1.11668.00285-1.00843z" fill="#ffdd94"/></g><g><path d="m15.53641 36.98526-.00286 1.00845 1.92955 1.11402.00286-1.00844z" fill="#fe91ab"/></g><g><path d="m12.56398 35.26913-.00286 1.00844 1.93415 1.11668.00286-1.00844z" fill="#fe91ab"/></g></g><g><g><g enable-background="new"><g><path d="m4.76979 29.70918c-.63397-.36602-1.1493-.07234-1.15136.65616-.00207.72843.50992 1.61523 1.14389 1.98125s1.1493.07234 1.15137-.65609c.00206-.72849-.50993-1.6153-1.1439-1.98132z" fill="#272e3a"/></g></g></g><g><g enable-background="new"><path d="m4.12359 30.24309c.13595-.07897.32423-.06785.53208.05217.41307.23848.74666.81627.74531 1.29093-.00067.23577-.08387.40168-.21808.47968l-.75503.43877c.13421-.078.21741-.24384.21808-.47962.00135-.47466-.33224-1.05251-.7453-1.29099-.20786-.11996-.39614-.13115-.53208-.05217z" fill="#96d696"/><g><path d="m3.90063 30.73405c-.41306-.23848-.74883-.04713-.75017.42752-.00135.47461.33224 1.05241.7453 1.29089.41307.23848.74883.04713.75018-.42747.00135-.47466-.33224-1.05246-.74531-1.29094z" fill="#77cb77"/></g></g></g></g></g><g><g><path d="m33.50438 28.29985c1.80248 1.06608 1.81232 2.77919-.01105 3.83881-1.82336 1.05962-4.80321 1.05972-6.63857.00007l-13.29827-7.67776c-1.84639-1.06601-1.85591-2.79203-.03255-3.85165 1.87914-1.09204 5.00941-1.07309 6.84731.12048 2.23934-.63439 5.4739-.21658 6.70065 1.36441 2.31971-.54594 5.04899-.23496 6.84042.79932 2.4728 1.42767 2.48591 3.75004.0293 5.17766-.14218.08264-.29534.15892-.43724.22866z" fill="#7bb1ff"/></g></g><g><g><path d="m24.0864 26.54895c.45686.26377.45924.68809.00528.9519-.44887.26085-1.18625.26366-1.6431-.0001-.45686-.26377-.44945-.68802-.00058-.94888.45395-.26381 1.18154-.26669 1.6384-.00292z" fill="#fff"/></g><g enable-background="new"><g><path d="m30.02277 26.8327c-.00439.12336-.17703.22369-.3849.22368-.15799.00006-.39158-.06991-.3923-.22649-.0191-2.22886-3.39169-3.26408-5.66104-3.2684-.1654.00006-.3866-.06333-.38733-.22363-.00566-.12327.16698-.2236.3849-.22368 2.57598.00001 6.42629 1.17895 6.44067 3.71852z" fill="#fff"/></g><g><path d="m28.28089 26.94177c.00085.12608-.17179.2264-.38972.22648-.15194-.00217-.38612-.07275-.38733-.22363-.00927-1.61678-2.44849-2.37021-4.10176-2.36815-.1525.00005-.3916-.07425-.3923-.22649-.00059-.12623.17206-.22656.38972-.22648 1.98117-.00012 4.86479.89854 4.88139 2.81827z" fill="#fff"/></g><g><path d="m26.53928 27.05069c-.00412.1232-.17703.22369-.38972.22648-.1552-.00198-.38564-.0741-.3923-.22649-.01176-.96307-1.5342-1.46283-2.53753-1.46504-.16064-.00451-.378-.0664-.3923-.22649.00412-.1232.17703-.22369.38972-.22648 1.34039.00871 3.30185.6001 3.32213 1.91802z" fill="#fff"/></g></g></g></g></g></g></g></svg>