<svg xmlns="http://www.w3.org/2000/svg" xmlns:xlink="http://www.w3.org/1999/xlink" xml:space="preserve" width="805" height="805" style="shape-rendering:geometricPrecision;text-rendering:geometricPrecision;image-rendering:optimizeQuality;fill-rule:evenodd;clip-rule:evenodd" version="1.0" viewBox="0 0 21.96 21.96"><defs><linearGradient id="a" x1="6.74" x2="6.7" y1="8.91" y2="7.74" gradientUnits="userSpaceOnUse"><stop offset="0" style="stop-opacity:0;stop-color:#f92814"/><stop offset="1" style="stop-opacity:1;stop-color:#c1272d"/></linearGradient><linearGradient id="f" x1="10.21" x2="12.32" y1="10.28" y2="13.51" gradientUnits="userSpaceOnUse"><stop offset="0" style="stop-opacity:1;stop-color:#f9f7fc"/><stop offset="1" style="stop-opacity:1;stop-color:#f0ddfc"/></linearGradient><linearGradient id="b" x1="33.7" x2="24.88" y1="658.43" y2="649.65" gradientUnits="userSpaceOnUse"><stop offset="0" style="stop-opacity:1;stop-color:#ff7044"/><stop offset="1" style="stop-opacity:1;stop-color:#f92814"/></linearGradient><linearGradient xlink:href="#a" id="e" x1="16.26" x2="12.4" y1="13.59" y2="11.21" gradientUnits="userSpaceOnUse"/><linearGradient id="d" x1="9.61" x2="4.7" y1="10.12" y2="5.17" gradientUnits="userSpaceOnUse"><stop offset="0" style="stop-opacity:0;stop-color:#ff7044"/><stop offset="1" style="stop-opacity:1;stop-color:#ffa425"/></linearGradient><linearGradient xlink:href="#b" id="c" x1="6.88" x2="20.86" y1="7.37" y2="21.3" gradientUnits="userSpaceOnUse"/></defs><path d="M0 0h21.96v21.96H0z" style="fill:none"/><path d="M18.13 11.63c0-3.88-3.14-7.02-7.02-7.02-3.86 0-6.98 3.09-7.02 6.95a7.02 7.02 0 0 0 4.23 6.51c.42.18.78.48 1.04.86l1.25 1.85c.24.35.76.35 1 0l1.26-1.85c.26-.38.61-.68 1.03-.86a7.02 7.02 0 0 0 4.23-6.44" style="fill:url(#c)"/><path d="M11.11 20.69c-.04 0-.14-.01-.21-.11l-1.26-1.85c-.29-.43-.7-.77-1.18-.98a6.65 6.65 0 0 1-4.02-6.19c.02-1.78.72-3.44 1.98-4.68a6.62 6.62 0 0 1 4.69-1.92c3.68 0 6.67 2.99 6.67 6.67 0 2.66-1.58 5.06-4.02 6.12-.48.21-.88.55-1.18.98l-1.26 1.85c-.07.1-.17.11-.21.11" style="fill:url(#d)"/><circle cx="11.11" cy="11.63" r="4.41" style="fill:url(#b)"/><path d="M18.13 11.63c0 2.88-1.74 5.36-4.23 6.44a2.5 2.5 0 0 0-.81.58l-4.42-4.42c-.65-.6-1.07-1.45-1.13-2.4V5.58c1.05-.62 2.27-.97 3.57-.97 3.88 0 7.02 3.14 7.02 7.02" style="fill:url(#e)"/><circle cx="11.11" cy="11.63" r="3.57" style="fill:url(#f)"/><path d="M15.67 7.69a.99.99 0 0 0-.99 1v3.14a3.575 3.575 0 0 1-7.14 0V8.69c0-.55-.44-1-.99-1-.6 0-.99-.49-.99-1 0-.24.09-.49.29-.69l4.56-4.56a.984.984 0 0 1 1.4 0L16.37 6c.63.62.19 1.69-.7 1.69" style="fill:#fdb62f"/><path d="M11.11 13.8c-1.31 0-2.39-1.06-2.48-2.41V8.56C8.63 7.7 7.96 7 7.13 7c-.17 0-.23-.14-.23-.24 0-.06.02-.11.07-.16l3.98-4.13c.06-.06.13-.06.16-.06.04 0 .11 0 .16.06l3.99 4.13c.09.1.07.2.04.26a.21.21 0 0 1-.21.14c-.4 0-.78.17-1.06.46-.28.3-.44.69-.44 1.1v2.83c-.08 1.35-1.17 2.41-2.48 2.41" style="fill:#fefefe"/><path d="M7.54 8.69v.4l-1.6-1.6c.16.12.37.2.61.2.55 0 .99.45.99 1" style="fill:url(#a)"/></svg>