

<svg height="512pt" viewBox="-74 0 512 512" width="512pt" xmlns="http://www.w3.org/2000/svg" xmlns:xlink="http://www.w3.org/1999/xlink"><linearGradient id="a"><stop offset="0" stop-color="#fffcf8"/><stop offset=".1875" stop-color="#faf8f6"/><stop offset=".4041" stop-color="#eceef2"/><stop offset=".6353" stop-color="#d5dcea"/><stop offset=".875" stop-color="#b5c4df"/><stop offset="1" stop-color="#a1b5d8"/></linearGradient><linearGradient id="b" gradientUnits="userSpaceOnUse" x1="337.3456326874" x2="-276.3959580884" xlink:href="#a" y1="440.2314424952" y2="-173.5101482806"/><linearGradient id="c" gradientUnits="userSpaceOnUse" x1="44.7876026652" x2="466.2514261158" xlink:href="#a" y1="147.6735128652" y2="569.1373363158"/><linearGradient id="d" gradientUnits="userSpaceOnUse" x1="232.9543094004" x2="152.4173775398" y1="63.7215395372" y2="-91.2905427558"><stop offset="0" stop-color="#a1b5d8" stop-opacity="0"/><stop offset=".3847" stop-color="#8fa0bb" stop-opacity=".384314"/><stop offset="1" stop-color="#748290"/></linearGradient><linearGradient id="e" gradientUnits="userSpaceOnUse" x1="181.826369" x2="181.826369" y1="16.7904950578" y2="43.455767692"><stop offset="0" stop-color="#ff4974"/><stop offset=".3262" stop-color="#fe4672"/><stop offset=".5324" stop-color="#fb3e6c"/><stop offset=".7054" stop-color="#f52f60"/><stop offset=".8591" stop-color="#ee1a51"/><stop offset="1" stop-color="#e4003d"/></linearGradient><linearGradient id="f" gradientUnits="userSpaceOnUse" x1="181.826369" x2="181.826369" y1="470.9514556952" y2="533.6290167446"><stop offset="0" stop-color="#a1b5d8" stop-opacity="0"/><stop offset=".0343" stop-color="#9fb3d5" stop-opacity=".035294"/><stop offset=".4515" stop-color="#8898af" stop-opacity=".45098"/><stop offset=".788" stop-color="#798898" stop-opacity=".788235"/><stop offset="1" stop-color="#748290"/></linearGradient><linearGradient id="g" gradientUnits="userSpaceOnUse" x1="155.8086260558" x2="358.5289892406" y1="222.2521676558" y2="424.9726312328"><stop offset="0" stop-color="#00e7b2"/><stop offset=".2459" stop-color="#05e5b1"/><stop offset=".5301" stop-color="#13ddac"/><stop offset=".8322" stop-color="#2ad1a5"/><stop offset="1" stop-color="#3ac9a0"/></linearGradient><linearGradient id="h"><stop offset="0" stop-color="#3ac9a0" stop-opacity="0"/><stop offset=".0351" stop-color="#38c69d" stop-opacity=".035294"/><stop offset=".4167" stop-color="#23aa82" stop-opacity=".415686"/><stop offset=".7511" stop-color="#169971" stop-opacity=".752941"/><stop offset="1" stop-color="#11936b"/></linearGradient><linearGradient id="i" gradientUnits="userSpaceOnUse" x1="272.3107623898" x2="150.3596386164" xlink:href="#h" y1="282.4636947044" y2="211.653361533"/><linearGradient id="j" gradientUnits="userSpaceOnUse" x1="245.5230112716" x2="137.5591311554" xlink:href="#h" y1="380.2161821976" y2="266.1328955304"/><linearGradient id="k" gradientUnits="userSpaceOnUse" x1="181.826369" x2="181.826369" xlink:href="#a" y1="174.5995040428" y2="268.2420352602"/><linearGradient id="l" gradientUnits="userSpaceOnUse" x1="181.826369" x2="181.826369" xlink:href="#a" y1="287.2352355782" y2="367.2765311474"/><linearGradient id="m" gradientUnits="userSpaceOnUse" x1="224.5448563752" x2="163.5427407516" y1="320.4518020078" y2="298.805838197"><stop offset="0" stop-color="#a1b5d8" stop-opacity="0"/><stop offset=".2564" stop-color="#98abca" stop-opacity=".254902"/><stop offset=".7358" stop-color="#8292a6" stop-opacity=".737255"/><stop offset="1" stop-color="#748290"/></linearGradient><linearGradient id="n"><stop offset="0" stop-color="#ff4974"/><stop offset=".2115" stop-color="#fd4470"/><stop offset=".4685" stop-color="#f83565"/><stop offset=".748" stop-color="#ef1d52"/><stop offset="1" stop-color="#e4003d"/></linearGradient><linearGradient id="o" gradientUnits="userSpaceOnUse" x1="168.9062944288" x2="194.746343179" xlink:href="#n" y1="312.9595321218" y2="312.9595321218"/><linearGradient id="p" gradientUnits="userSpaceOnUse" x1="196.8112099486" x2="174.3976473766" y1="295.7215890286" y2="273.3080264566"><stop offset="0" stop-color="#e4003d" stop-opacity="0"/><stop offset=".5838" stop-color="#bd294b" stop-opacity=".584314"/><stop offset="1" stop-color="#a64153"/></linearGradient><linearGradient id="q" gradientUnits="userSpaceOnUse" x1="166.931178286" x2="196.7177448104" xlink:href="#n" y1="271.8400917082" y2="271.8400917082"/><path d="m44.09375 512c-24.3125 0-44.09375-19.78125-44.09375-44.09375v-366.390625c0-24.3125 19.78125-44.089844 44.09375-44.089844 12.746094 0 24.582031-7.40625 30.152344-18.871093l5.996094-12.332032c7.332031-15.074218 22.894531-24.8125 39.65625-24.8125h123.855468c16.757813 0 32.324219 9.738282 39.652344 24.8125l5.996094 12.332032c5.574218 11.464843 17.410156 18.871093 30.15625 18.871093 24.3125 0 44.09375 19.777344 44.09375 44.089844v366.390625c0 24.3125-19.78125 44.09375-44.09375 44.09375zm78.585938-465.597656c-2.546876 0-4.621094 2.070312-4.621094 4.617187s2.074218 4.621094 4.621094 4.621094h118.292968c2.546875 0 4.621094-2.070313 4.621094-4.621094 0-2.546875-2.074219-4.617187-4.621094-4.617187zm0 0" fill="url(#b)"/><path d="m319.558594 62.707031c-14.855469 0-28.40625-8.480469-34.902344-21.839843l-5.996094-12.335938c-6.496094-13.359375-20.050781-21.839844-34.90625-21.839844h-123.855468c-14.855469 0-28.40625 8.480469-34.902344 21.839844l-5.996094 12.335938c-6.496094 13.359374-20.050781 21.839843-34.90625 21.839843-21.433594 0-38.8125 17.375-38.8125 38.808594v366.390625c0 21.433594 17.378906 38.8125 38.8125 38.8125h275.464844c21.433594 0 38.8125-17.378906 38.8125-38.8125v-366.390625c0-21.433594-17.378906-38.808594-38.8125-38.808594zm-78.585938-1.785156h-118.292968c-5.46875 0-9.902344-4.429687-9.902344-9.898437s4.433594-9.902344 9.902344-9.902344h118.292968c5.46875 0 9.902344 4.433594 9.902344 9.902344s-4.433594 9.898437-9.902344 9.898437zm0 0" fill="url(#c)"/><path d="m358.367188 133.636719v13.417969h-124.554688l-84.382812-86.125h91.542968c5.472656 0 9.898438-4.4375 9.898438-9.910157 0-5.460937-4.425782-9.898437-9.898438-9.898437h-108.847656c-.097656-.488282-.136719-.992188-.136719-1.511719v-30.929687c0-.6875.074219-1.34375.230469-1.988282h99.214844zm0 0" fill="url(#d)"/><path d="m222.984375 48.285156h-82.316406c-4.792969 0-8.679688-3.882812-8.679688-8.675781v-30.929687c0-4.792969 3.886719-8.679688 8.679688-8.679688h82.316406c4.792969 0 8.679687 3.886719 8.679687 8.679688v30.925781c0 4.796875-3.886718 8.679687-8.679687 8.679687zm0 0" fill="url(#e)"/><path d="m5.28125 443.914062v23.992188c0 21.433594 17.378906 38.8125 38.8125 38.8125h275.464844c21.433594 0 38.8125-17.378906 38.8125-38.8125v-23.992188zm0 0" fill="url(#f)"/><path d="m293.214844 387.972656h-222.777344c-10.976562 0-19.878906-8.902344-19.878906-19.878906v-239.644531c0-10.980469 8.902344-19.882813 19.878906-19.882813h222.777344c10.976562 0 19.878906 8.902344 19.878906 19.882813v239.644531c0 10.976562-8.902344 19.878906-19.878906 19.878906zm0 0" fill="url(#g)"/><path d="m313.09375 368.09375v-113.609375l-91.554688-91.554687c-9.867187-10.707032-24.007812-17.421876-39.710937-17.421876-29.804687 0-53.972656 24.164063-53.972656 53.96875 0 15.703126 6.71875 29.84375 17.421875 39.710938l148.746094 148.746094c10.601562-.429688 19.070312-9.136719 19.070312-19.839844zm0 0" fill="url(#i)"/><path d="m236.636719 285.078125c-14.023438-14.023437-33.402344-22.710937-54.808594-22.710937-4.214844 0-8.34375.34375-12.386719.984374-31.378906 5.039063-56.460937 28.902344-63.285156 59.652344l65.042969 64.96875h122.015625c10.976562 0 19.878906-8.902344 19.878906-19.878906v-6.53125zm0 0" fill="url(#j)"/><path d="m235.796875 199.476562c0 29.808594-24.164063 53.972657-53.96875 53.972657-29.808594 0-53.972656-24.164063-53.972656-53.972657 0-29.804687 24.164062-53.96875 53.972656-53.96875 29.804687 0 53.96875 24.164063 53.96875 53.96875zm0 0" fill="url(#k)"/><path d="m257.496094 323.003906c-19.273438 19.53125-46.0625 31.628906-75.667969 31.628906-29.609375 0-56.398437-12.097656-75.671875-31.628906 7.703125-34.699218 38.648438-60.636718 75.671875-60.636718 21.40625 0 40.785156 8.683593 54.808594 22.710937 10.234375 10.21875 17.617187 23.296875 20.859375 37.925781zm0 0" fill="url(#l)"/><path d="m257.496094 323.003906c-.304688.3125-.617188.613282-.933594.917969-18.222656 18.039063-42.949219 29.503906-70.34375 30.605469l-13.679688-13.710938-.210937-.167968c-2.414063-1.996094-3.671875-5.050782-3.386719-8.175782l4.765625-49.507812c.089844-.867188.457031-1.640625 1.007813-2.257813-.050782-.066406-.089844-.132812-.144532-.210937-.773437-.5-1.429687-1.207032-1.824218-2.085938l-5.480469-12.148437c-.382813-.824219-.421875-1.703125-.199219-2.492188.695313-.128906 1.390625-.261719 2.101563-.367187.496093-.089844 1.007812-.171875 1.507812-.234375.394531-.066407.800781-.121094 1.207031-.171875.457032-.050782.917969-.117188 1.390626-.15625.5625-.066406 1.128906-.121094 1.691406-.171875.550781-.050781 1.117187-.089844 1.679687-.132813.578125-.039062 1.15625-.0625 1.730469-.089844 1.144531-.050781 2.296875-.078124 3.453125-.078124 2.113281 0 4.210937.078124 6.28125.25.550781.050781 1.105469.089843 1.640625.15625 1.117188.105468 2.230469.25 3.332031.40625.539063.078124 1.089844.171874 1.625.261718.632813.09375 1.261719.210938 1.878907.34375 15.492187 2.976563 29.332031 10.570313 40.050781 21.289063 10.234375 10.222656 17.617187 23.300781 20.859375 37.929687zm0 0" fill="url(#m)"/><path d="m191.324219 340.652344-5.394531 4.464844c-2.382813 1.96875-5.824219 1.96875-8.207032 0l-5.394531-4.464844c-2.414063-1.996094-3.679687-5.058594-3.378906-8.175782l4.761719-49.507812c.199218-2.066406 1.933593-3.644531 4.011718-3.644531h8.207032c2.078124 0 3.8125 1.578125 4.011718 3.644531l4.761719 49.507812c.300781 3.117188-.964844 6.179688-3.378906 8.175782zm0 0" fill="url(#o)"/><path d="m189.941406 282.96875c-.199218-2.066406-1.933594-3.644531-4.011718-3.644531h-8.207032c-1.226562 0-2.320312.558593-3.0625 1.429687l16.671875 16.671875zm0 0" fill="url(#p)"/><path d="m196.386719 266.265625-5.480469 12.144531c-.800781 1.773438-2.558594 2.902344-4.515625 2.902344h-9.128906c-1.953125 0-3.710938-1.128906-4.511719-2.902344l-5.484375-12.144531c-.378906-.828125-.417969-1.707031-.195313-2.496094 4.773438-.917969 9.707032-1.402343 14.757813-1.402343s9.980469.484374 14.757813 1.417968c.222656.789063.167968 1.652344-.199219 2.480469zm0 0" fill="url(#q)"/><g fill="#a1b5d8"><path d="m50.558594 413.804688h262.535156v17.121093h-262.535156zm0 0"/><path d="m50.558594 456.117188h209.054687v17.125h-209.054687zm0 0"/></g></svg>