<!--
  - Copyright (c) 2023. Selldone® Business OS™
  -
  - Author: M.Pajuhaan
  - Web: https://selldone.com
  - ━━━━━━━━━━━━━━━━━━━━━━━━━━━━━━━━━━━━━━━━━━━━━━━━━━━━━━
  -
  - All rights reserved. In the weave of time, where traditions and innovations intermingle, this content was crafted.
  - From the essence of thought, through the corridors of creativity, each word, and sentiment has been molded.
  - Not just to exist, but to inspire. Like an artist's stroke or a sculptor's chisel, every nuance is deliberate.
  - Our journey is not just about reaching a destination, but about creating a masterpiece.
  - Tread carefully, for you're treading on dreams.
  -->

<svg id="Capa_1" enable-background="new 0 0 512 512" height="512" viewBox="0 0 512 512" width="512" xmlns="http://www.w3.org/2000/svg" xmlns:xlink="http://www.w3.org/1999/xlink"><linearGradient id="SVGID_1_" gradientUnits="userSpaceOnUse" x1="255.989" x2="255.989" y1="451" y2="91.033"><stop offset="0" stop-color="#fd5900"/><stop offset="1" stop-color="#ffde00"/></linearGradient><linearGradient id="SVGID_2_" gradientUnits="userSpaceOnUse" x1="256" x2="256" y1="512" y2="0"><stop offset="0" stop-color="#ffe59a"/><stop offset="1" stop-color="#ffffd5"/></linearGradient><g><path d="m289.955 451h-67.764c-22.719 0-41.191-18.472-41.191-41.191 0-37.5-12.07-74.121-34.922-105.938-23.203-32.271-30.645-71.895-20.962-111.533 11.763-48.105 50.508-86.411 98.701-97.588 41.323-9.639 83.613-.322 116.089 25.488 32.476 25.782 51.094 64.336 51.094 105.762 0 26.719-7.896 52.529-22.837 74.678-24.668 36.489-37.163 73.257-37.163 109.277 0 22.632-18.413 41.045-41.045 41.045z" fill="url(#SVGID_1_)"/><g><g><path d="m117.865 109.076c5.86 5.86 15.352 5.859 21.211 0s5.859-15.352 0-21.211l-20.889-20.889c-5.859-5.859-15.352-5.859-21.211 0s-5.859 15.352 0 21.211zm275.962.308 21.196-21.196c5.859-5.859 5.859-15.352 0-21.211s-15.352-5.859-21.211 0l-21.196 21.196c-5.859 5.859-5.859 15.352 0 21.211 5.86 5.859 15.352 5.859 21.211 0zm-137.827-49.384c8.291 0 15-6.709 15-15v-30c0-8.291-6.709-15-15-15s-15 6.709-15 15v30c0 8.291 6.709 15 15 15zm-179.971 151h-30.029c-8.291 0-15 6.709-15 15s6.709 15 15 15h30.029c8.291 0 15-6.709 15-15s-6.709-15-15-15zm389.971 0h-30c-8.291 0-15 6.709-15 15s6.709 15 15 15h30c8.291 0 15-6.709 15-15s-6.709-15-15-15zm-347.856 131.646-21.24 21.24c-5.859 5.859-5.859 15.352 0 21.211 5.86 5.86 15.352 5.859 21.211 0l21.24-21.24c5.859-5.859 5.859-15.352 0-21.211s-15.352-5.86-21.211 0zm275.712 0c-5.859-5.859-15.352-5.859-21.211 0s-5.859 15.352 0 21.211l21.24 21.24c5.86 5.86 15.352 5.859 21.211 0s5.859-15.352 0-21.211zm-107.856 139.354h-60c-8.291 0-15 6.709-15 15s6.709 15 15 15h60c8.291 0 15-6.709 15-15s-6.709-15-15-15zm-30-181c8.291 0 15-6.709 15-15v-90c0-8.291-6.709-15-15-15s-15 6.709-15 15v90c0 8.291 6.709 15 15 15zm0 60c8.284 0 15-6.716 15-15s-6.716-15-15-15-15 6.716-15 15 6.716 15 15 15z" fill="url(#SVGID_2_)"/></g></g></g></svg>