

<svg id="Capa_1" enable-background="new 0 0 510 510" height="512" viewBox="0 0 510 510" width="512" xmlns="http://www.w3.org/2000/svg" xmlns:xlink="http://www.w3.org/1999/xlink"><linearGradient id="SVGID_1_" gradientUnits="userSpaceOnUse" x1="222.37" x2="360.642" y1="260.996" y2="433.641"><stop offset="0" stop-color="#ff7044"/><stop offset="1" stop-color="#f82814"/></linearGradient><linearGradient id="lg1"><stop offset="0" stop-color="#f82814" stop-opacity="0"/><stop offset="1" stop-color="#c0272d"/></linearGradient><linearGradient id="SVGID_2_" gradientUnits="userSpaceOnUse" x1="301.781" x2="359.038" xlink:href="#lg1" y1="387.721" y2="510.092"/><linearGradient id="SVGID_3_" gradientUnits="userSpaceOnUse" x1="287.706" x2="105.707" xlink:href="#lg1" y1="311.274" y2="125.707"/><linearGradient id="SVGID_4_" gradientUnits="userSpaceOnUse" x1="305.687" x2="274.252" xlink:href="#lg1" y1="306.115" y2="114.512"/><linearGradient id="lg2"><stop offset="0" stop-color="#ffd945"/><stop offset=".3043" stop-color="#ffcd3e"/><stop offset=".8558" stop-color="#ffad2b"/><stop offset="1" stop-color="#ffa325"/></linearGradient><linearGradient id="SVGID_5_" gradientUnits="userSpaceOnUse" x1="208.455" x2="303.662" xlink:href="#lg2" y1="31.683" y2="186.525"/><linearGradient id="SVGID_6_" gradientUnits="userSpaceOnUse" x1="299.595" x2="176.366" xlink:href="#lg2" y1="178.307" y2="26.713"/><linearGradient id="SVGID_7_" gradientUnits="userSpaceOnUse" x1="198.871" x2="280.439" xlink:href="#lg2" y1="79.937" y2="161.506"/><linearGradient id="lg3"><stop offset="0" stop-color="#f35227" stop-opacity="0"/><stop offset="1" stop-color="#f35227"/></linearGradient><linearGradient id="SVGID_8_" gradientUnits="userSpaceOnUse" x1="309.45" x2="248.783" xlink:href="#lg3" y1="184.385" y2="131.718"/><linearGradient id="SVGID_9_" gradientUnits="userSpaceOnUse" x1="238.286" x2="270.489" y1="115.838" y2="150.071"><stop offset="0" stop-color="#65e0db"/><stop offset="1" stop-color="#119786"/></linearGradient><linearGradient id="lg4"><stop offset="0" stop-color="#fff" stop-opacity="0"/><stop offset="1" stop-color="#fff"/></linearGradient><linearGradient id="SVGID_10_" gradientUnits="userSpaceOnUse" x1="248.871" x2="272.916" xlink:href="#lg4" y1="137.315" y2="149.251"/><linearGradient id="SVGID_11_" gradientUnits="userSpaceOnUse" x1="237.101" x2="266.467" xlink:href="#lg4" y1="148.106" y2="163.488"/><linearGradient id="SVGID_12_" gradientUnits="userSpaceOnUse" x1="261.073" x2="279.548" xlink:href="#lg4" y1="140.934" y2="162.513"/><linearGradient id="SVGID_13_" gradientUnits="userSpaceOnUse" x1="253.427" x2="257.847" xlink:href="#lg4" y1="122.6" y2="152.367"/><linearGradient id="SVGID_14_" gradientUnits="userSpaceOnUse" x1="241.496" x2="234.596" xlink:href="#lg4" y1="119.298" y2="136.887"/><linearGradient id="SVGID_15_" gradientTransform="matrix(-1 0 0 1 -2782.24 0)" gradientUnits="userSpaceOnUse" x1="-3050.741" x2="-3057.641" xlink:href="#lg4" y1="119.298" y2="136.887"/><linearGradient id="SVGID_16_" gradientUnits="userSpaceOnUse" x1="259.181" x2="217.286" xlink:href="#lg4" y1="144.394" y2="183.385"/><linearGradient id="SVGID_17_" gradientUnits="userSpaceOnUse" x1="250.059" x2="270.993" xlink:href="#lg2" y1="12.087" y2="38.225"/><linearGradient id="SVGID_18_" gradientUnits="userSpaceOnUse" x1="257.89" x2="249.03" xlink:href="#lg3" y1="32.326" y2="97.607"/><linearGradient id="SVGID_19_" gradientUnits="userSpaceOnUse" x1="259.951" x2="232.397" xlink:href="#lg3" y1="19.699" y2="-8.395"/><linearGradient id="SVGID_20_" gradientUnits="userSpaceOnUse" x1="320.044" x2="340.978" xlink:href="#lg2" y1="47.134" y2="73.272"/><linearGradient id="SVGID_21_" gradientUnits="userSpaceOnUse" x1="327.874" x2="319.015" xlink:href="#lg3" y1="67.373" y2="132.654"/><linearGradient id="SVGID_22_" gradientUnits="userSpaceOnUse" x1="329.935" x2="302.382" xlink:href="#lg3" y1="54.746" y2="26.652"/><linearGradient id="SVGID_23_" gradientUnits="userSpaceOnUse" x1="390.677" x2="411.611" xlink:href="#lg2" y1="85.406" y2="111.544"/><linearGradient id="SVGID_24_" gradientUnits="userSpaceOnUse" x1="398.507" x2="389.648" xlink:href="#lg3" y1="105.645" y2="170.926"/><linearGradient id="SVGID_25_" gradientUnits="userSpaceOnUse" x1="400.568" x2="373.015" xlink:href="#lg3" y1="93.018" y2="64.924"/><linearGradient id="SVGID_26_" gradientUnits="userSpaceOnUse" x1="109.441" x2="130.375" xlink:href="#lg2" y1="85.406" y2="111.544"/><linearGradient id="SVGID_27_" gradientUnits="userSpaceOnUse" x1="117.272" x2="108.413" xlink:href="#lg3" y1="105.645" y2="170.926"/><linearGradient id="SVGID_28_" gradientUnits="userSpaceOnUse" x1="119.333" x2="91.779" xlink:href="#lg3" y1="93.018" y2="64.924"/><linearGradient id="SVGID_29_" gradientUnits="userSpaceOnUse" x1="180.074" x2="201.008" xlink:href="#lg2" y1="47.134" y2="73.272"/><linearGradient id="SVGID_30_" gradientUnits="userSpaceOnUse" x1="187.905" x2="179.046" xlink:href="#lg3" y1="67.373" y2="132.654"/><linearGradient id="SVGID_31_" gradientUnits="userSpaceOnUse" x1="189.966" x2="162.412" xlink:href="#lg3" y1="54.746" y2="26.652"/><linearGradient id="SVGID_32_" gradientUnits="userSpaceOnUse" x1="254.999" x2="254.999" xlink:href="#lg2" y1="168.842" y2="226.031"/><g><g><path d="m254.999 510c-7.179 0-14.37-1.7-20.796-4.915-19.418-9.718-57.337-30.556-93.106-60.934-46.532-39.518-74.113-81.935-81.976-126.073-6.108-34.288 2.613-69.29 23.926-96.033 19.739-24.767 47.71-39.24 78.76-40.753 1.826-.089 3.676-.134 5.497-.134 29.091 0 56.554 11.212 77.33 31.569 3.753 3.677 7.212 7.579 10.364 11.675 3.153-4.095 6.612-7.998 10.365-11.676 20.775-20.357 48.238-31.568 77.331-31.568 1.821 0 3.671.045 5.497.134 31.051 1.513 59.022 15.987 78.761 40.755 21.313 26.743 30.033 61.745 23.924 96.032-7.863 44.137-35.443 86.555-81.975 126.073-35.768 30.377-73.686 51.215-93.106 60.934-6.425 3.215-13.617 4.914-20.796 4.914z" fill="url(#SVGID_1_)"/><path d="m426.953 222.046c-7.399-9.284-15.955-17.121-25.396-23.372 17.235 25.595 23.918 57.319 18.37 88.455-7.863 44.138-35.443 86.555-81.975 126.073-35.768 30.377-73.686 51.215-93.106 60.934-6.425 3.216-13.617 4.915-20.796 4.915s-14.37-1.7-20.796-4.915c-19.418-9.718-57.337-30.556-93.106-60.934-1.532-1.301-3.041-2.606-4.533-3.914 10.244 11.843 22.071 23.474 35.482 34.863 35.77 30.378 73.689 51.216 93.106 60.934 6.426 3.215 13.617 4.915 20.796 4.915s14.37-1.699 20.796-4.915c19.42-9.718 57.338-30.557 93.106-60.934 46.532-39.518 74.113-81.935 81.975-126.073 6.11-34.287-2.61-69.289-23.923-96.032z" fill="url(#SVGID_2_)"/><path d="m348.191 181.291c-1.826-.089-3.676-.134-5.497-.134-29.092 0-56.556 11.211-77.331 31.568-3.752 3.677-7.212 7.58-10.364 11.675v285.6c7.179 0 14.37-1.699 20.796-4.915 19.42-9.718 57.338-30.557 93.106-60.934 46.532-39.518 74.113-81.935 81.975-126.073 6.109-34.287-2.611-69.29-23.924-96.032-19.739-24.768-47.71-39.241-78.761-40.755z" fill="url(#SVGID_3_)"/></g><path d="m450.872 318.079c-7.297 41-31.626 80.518-72.334 117.6-.034-.045-.079-.09-.112-.135l-232.326-232.325c-6.994-5.86-9.666-12.147-10.441-17.379 6.961-2.144 14.202-3.559 21.634-4.221 1.493-.146 2.998-.247 4.513-.326 1.83-.09 3.682-.135 5.501-.135 16.436 0 32.355 3.581 46.838 10.373 11.159 5.22 21.466 12.349 30.492 21.196 3.75 3.671 7.207 7.578 10.362 11.676 3.155-4.098 6.613-8.005 10.362-11.676 9.038-8.847 19.344-15.987 30.503-21.207 14.471-6.781 30.391-10.362 46.827-10.362 1.83 0 3.671.045 5.501.135 1.515.079 3.02.18 4.524.326 14.202 1.269 27.685 5.288 39.945 11.788 13.012 6.871 24.631 16.526 34.286 28.639 4.277 5.378 8.061 11.081 11.305 17.042 12.923 23.733 17.515 51.598 12.62 78.991z" fill="url(#SVGID_4_)"/><path d="m338.633 94.615-3.375-22.56c-1.673-11.181-14.971-16.183-23.597-8.876l-12.828 10.866c-5.306 4.495-13.424 2.808-16.499-3.429l-20.434-41.432c-2.822-5.722-10.981-5.722-13.803 0l-20.433 41.432c-3.076 6.237-11.193 7.924-16.499 3.429l-12.828-10.866c-8.627-7.307-21.925-2.305-23.597 8.876l-3.375 22.56c-1.057 7.066-8.615 11.127-15.091 8.109l-27.724-12.921c-12.668-5.905-25.509 7.818-18.777 20.067l46.621 84.829h197.21l46.621-84.829c6.732-12.249-6.109-25.971-18.777-20.067l-27.724 12.922c-6.476 3.018-14.034-1.043-15.091-8.11z" fill="url(#SVGID_5_)"/><path d="m331.393 103.706-3.083-20.511c-1.528-10.166-13.675-14.713-21.555-8.07l-11.718 9.879c-4.847 4.086-12.262 2.553-15.071-3.118l-18.664-37.669c-2.578-5.202-10.03-5.202-12.608 0l-18.664 37.668c-2.81 5.67-10.224 7.204-15.071 3.118l-11.718-9.879c-7.88-6.644-20.027-2.096-21.555 8.07l-3.083 20.511c-.966 6.425-7.869 10.117-13.784 7.372l-25.324-11.748c-11.572-5.368-23.301 7.108-17.152 18.244l42.585 77.124h180.138l42.585-77.124c6.149-11.136-5.58-23.612-17.152-18.244l-25.324 11.748c-5.913 2.746-12.816-.946-13.782-7.371z" fill="url(#SVGID_6_)"/><path d="m322.572 114.67-2.727-18.04c-1.351-8.941-12.096-12.941-19.066-7.097l-10.365 8.689c-4.287 3.594-10.846 2.245-13.331-2.742l-16.509-33.13c-2.28-4.575-8.872-4.575-11.152 0l-16.509 33.13c-2.485 4.987-9.044 6.336-13.331 2.742l-10.365-8.689c-6.97-5.843-17.715-1.844-19.066 7.097l-2.727 18.04c-.854 5.65-6.96 8.898-12.193 6.484l-22.4-10.333c-10.236-4.722-20.61 6.251-15.171 16.046l37.668 67.831h159.339l37.668-67.831c5.439-9.795-4.936-20.767-15.171-16.046l-22.4 10.333c-5.231 2.413-11.338-.834-12.192-6.484z" fill="url(#SVGID_7_)"/><path d="m341.472 182.446-63.14-63.139-.003-.004c-.981-1.548-2.592-2.587-4.407-2.842l-5.413-.76c-3.278-.46-6.524 1.032-8.309 3.819l-2.832 4.421c-.395.617-1 1.089-1.712 1.261-.109-.086-5.394-5.519-6.13-6.047-1.829-2.542-4.91-3.893-8.036-3.454l-5.413.76c-1.815.255-3.427 1.294-4.407 2.842l-6.949 10.967c-1.252 1.977-1.113 4.53.347 6.359l27.492 33.638 24.522 24.433h57.588z" fill="url(#SVGID_8_)"/><g><path d="m285.278 130.269-6.949-10.967c-.981-1.548-2.592-2.587-4.407-2.842l-5.413-.76c-3.278-.46-6.524 1.032-8.309 3.819l-2.832 4.421c-.397.62-1.004 1.093-1.72 1.263-1.173.279-2.352-.223-2.975-1.196l-2.875-4.489c-1.785-2.788-5.031-4.279-8.309-3.819l-5.413.76c-1.815.255-3.426 1.294-4.407 2.842l-6.949 10.967c-1.252 1.977-1.113 4.53.347 6.359l27.492 33.638c1.261 1.543 3.62 1.543 4.881 0l27.492-33.638c1.459-1.828 1.599-4.381.346-6.358z" fill="url(#SVGID_9_)"/><path d="m237.528 128.522c-.723 2.369-.642 5.429.2 7.62l16.355 35.142c.596.18 1.235.18 1.831 0l16.355-35.142c.842-2.191.923-5.251.2-7.62l-3.909-12.815-.051-.007c-3.278-.46-6.524 1.032-8.309 3.819l-2.832 4.422c-.397.62-1.004 1.093-1.72 1.263-1.173.279-2.352-.223-2.975-1.196l-2.875-4.489c-1.785-2.788-5.031-4.279-8.309-3.819l-.051.007z" fill="url(#SVGID_10_)"/><path d="m237.728 136.142c-.273-.712-.465-1.515-.579-2.357h-13.247c.108 1.016.496 2.006 1.165 2.843l27.492 33.638c.415.508.95.845 1.525 1.019z" fill="url(#SVGID_11_)"/><path d="m272.849 133.785c-.114.842-.306 1.645-.579 2.357l-16.355 35.142c.575-.174 1.11-.511 1.525-1.019l27.492-33.638c.669-.837 1.057-1.827 1.165-2.843h-13.248z" fill="url(#SVGID_12_)"/><path d="m278.33 119.302c-.981-1.548-2.592-2.587-4.407-2.842l-5.413-.76c-3.278-.46-6.524 1.032-8.309 3.819l-2.875 4.489c-.508.793-1.384 1.272-2.326 1.272s-1.818-.48-2.326-1.272l-2.875-4.489c-1.785-2.788-5.031-4.279-8.309-3.819l-5.413.76c-1.815.255-3.426 1.294-4.407 2.842l-6.949 10.967c-.679 1.072-.946 2.313-.817 3.517h62.193c.128-1.204-.138-2.445-.817-3.517z" fill="url(#SVGID_13_)"/><path d="m237.149 133.785 13.311-13.232-.662-1.034c-1.785-2.788-5.031-4.279-8.309-3.819l-5.413.76c-1.412.198-2.699.873-3.664 1.891z" fill="url(#SVGID_14_)"/><path d="m272.848 133.785-13.311-13.232.662-1.034c1.785-2.788 5.031-4.279 8.309-3.819l5.413.76c1.412.198 2.699.873 3.664 1.891z" fill="url(#SVGID_15_)"/><path d="m278.33 119.302c-.981-1.548-2.592-2.587-4.407-2.842l-5.413-.76c-3.278-.46-6.524 1.032-8.309 3.819l-2.832 4.422c-.397.62-1.004 1.093-1.72 1.263-.217.052-.435.076-.649.076v46.143c.905 0 1.81-.386 2.44-1.157l27.492-33.638c1.46-1.828 1.6-4.382.347-6.359z" fill="url(#SVGID_16_)"/></g><g><path d="m254.999 49.785c-1.087 0-2.176-.257-3.148-.744-2.94-1.471-8.681-4.626-14.096-9.225-7.045-5.983-11.22-12.405-12.411-19.087-.925-5.191.396-10.49 3.622-14.539 2.988-3.75 7.223-5.941 11.924-6.17.276-.013.557-.02.832-.02 4.404 0 8.562 1.697 11.707 4.779.568.557 1.092 1.147 1.569 1.768.477-.62 1.001-1.211 1.569-1.768 3.146-3.082 7.304-4.779 11.709-4.779.276 0 .556.007.832.02 4.701.229 8.936 2.42 11.924 6.17 3.227 4.049 4.547 9.348 3.622 14.539-1.19 6.682-5.366 13.104-12.411 19.087-5.415 4.599-11.156 7.754-14.096 9.225-.972.487-2.061.744-3.148.744z" fill="url(#SVGID_17_)"/><path d="m281.032 6.19c-1.12-1.406-2.415-2.592-3.845-3.538 2.609 3.875 3.621 8.678 2.781 13.392-1.19 6.682-5.366 13.104-12.411 19.087-5.415 4.599-11.156 7.754-14.096 9.225-.973.487-2.062.744-3.148.744s-2.176-.257-3.148-.744c-2.94-1.471-8.681-4.626-14.096-9.225-.232-.197-.46-.395-.686-.593 1.551 1.793 3.341 3.554 5.372 5.278 5.415 4.599 11.156 7.754 14.096 9.225.973.487 2.062.744 3.148.744 1.087 0 2.176-.257 3.148-.744 2.94-1.471 8.681-4.626 14.096-9.225 7.045-5.983 11.22-12.405 12.411-19.087.925-5.191-.395-10.49-3.622-14.539z" fill="url(#SVGID_18_)"/><path d="m269.108.02c-.277-.013-.557-.02-.832-.02-4.404 0-8.562 1.697-11.708 4.779-.568.557-1.092 1.148-1.569 1.768v43.239c1.087 0 2.176-.257 3.148-.744 2.94-1.471 8.681-4.626 14.096-9.225 7.045-5.983 11.22-12.405 12.411-19.087.925-5.191-.395-10.49-3.622-14.539-2.988-3.75-7.223-5.942-11.924-6.171z" fill="url(#SVGID_19_)"/></g><g><path d="m324.984 84.832c-1.087 0-2.176-.257-3.148-.744-2.94-1.471-8.681-4.626-14.096-9.225-7.045-5.983-11.22-12.405-12.411-19.087-.925-5.191.396-10.49 3.622-14.539 2.988-3.75 7.223-5.941 11.924-6.17.276-.013.557-.02.832-.02 4.404 0 8.562 1.697 11.707 4.779.568.557 1.092 1.147 1.569 1.768.477-.62 1.001-1.211 1.569-1.768 3.145-3.082 7.303-4.779 11.708-4.779.276 0 .556.007.832.02 4.701.229 8.936 2.42 11.924 6.17 3.227 4.049 4.547 9.348 3.622 14.539-1.19 6.682-5.366 13.104-12.411 19.087-5.415 4.599-11.156 7.754-14.096 9.225-.972.487-2.06.744-3.147.744z" fill="url(#SVGID_20_)"/><path d="m351.017 41.237c-1.12-1.406-2.415-2.592-3.845-3.538 2.609 3.875 3.621 8.678 2.781 13.392-1.19 6.682-5.366 13.104-12.411 19.087-5.415 4.599-11.156 7.754-14.096 9.225-.973.487-2.062.744-3.148.744s-2.176-.257-3.148-.744c-2.94-1.471-8.681-4.626-14.096-9.225-.232-.197-.46-.395-.686-.593 1.551 1.793 3.342 3.554 5.372 5.278 5.415 4.599 11.156 7.754 14.096 9.225.973.487 2.062.744 3.148.744s2.176-.257 3.148-.744c2.94-1.471 8.681-4.626 14.096-9.225 7.045-5.983 11.22-12.405 12.411-19.087.925-5.191-.396-10.49-3.622-14.539z" fill="url(#SVGID_21_)"/><path d="m339.093 35.067c-.276-.013-.557-.02-.832-.02-4.405 0-8.562 1.697-11.708 4.779-.568.557-1.092 1.148-1.569 1.768v43.239c1.087 0 2.176-.257 3.148-.744 2.94-1.471 8.681-4.626 14.096-9.225 7.045-5.983 11.22-12.405 12.411-19.087.925-5.191-.395-10.49-3.622-14.539-2.989-3.75-7.224-5.942-11.924-6.171z" fill="url(#SVGID_22_)"/></g><g><path d="m395.617 123.104c-1.087 0-2.176-.257-3.148-.744-2.94-1.471-8.681-4.626-14.096-9.225-7.045-5.983-11.22-12.405-12.411-19.087-.925-5.191.396-10.49 3.622-14.539 2.988-3.75 7.223-5.941 11.924-6.17.276-.013.556-.02.832-.02 4.404 0 8.562 1.697 11.707 4.779.568.557 1.092 1.147 1.569 1.768.477-.62 1.001-1.211 1.569-1.768 3.145-3.082 7.303-4.779 11.708-4.779.276 0 .556.007.832.02 4.701.229 8.936 2.42 11.924 6.17 3.227 4.049 4.547 9.348 3.622 14.539-1.19 6.682-5.366 13.104-12.411 19.087-5.415 4.599-11.156 7.754-14.096 9.225-.972.487-2.06.744-3.147.744z" fill="url(#SVGID_23_)"/><path d="m421.65 79.509c-1.12-1.406-2.415-2.592-3.845-3.538 2.609 3.875 3.621 8.678 2.781 13.392-1.19 6.682-5.366 13.104-12.411 19.087-5.415 4.599-11.156 7.754-14.096 9.225-.973.487-2.062.744-3.148.744s-2.176-.257-3.148-.744c-2.94-1.471-8.681-4.626-14.096-9.225-.232-.197-.46-.395-.686-.593 1.551 1.793 3.341 3.554 5.372 5.278 5.415 4.599 11.156 7.754 14.096 9.225.973.487 2.062.744 3.148.744 1.087 0 2.176-.257 3.148-.744 2.94-1.471 8.681-4.626 14.096-9.225 7.045-5.983 11.22-12.405 12.411-19.087.925-5.191-.396-10.49-3.622-14.539z" fill="url(#SVGID_24_)"/><path d="m409.726 73.339c-.276-.013-.557-.02-.832-.02-4.404 0-8.562 1.697-11.708 4.779-.568.557-1.092 1.148-1.569 1.768v43.239c1.087 0 2.176-.257 3.148-.744 2.94-1.471 8.681-4.626 14.096-9.225 7.045-5.983 11.22-12.405 12.411-19.087.925-5.191-.395-10.49-3.622-14.539-2.989-3.751-7.224-5.942-11.924-6.171z" fill="url(#SVGID_25_)"/></g><g><path d="m114.381 123.104c-1.087 0-2.176-.257-3.148-.744-2.94-1.471-8.681-4.626-14.096-9.225-7.045-5.983-11.22-12.405-12.411-19.087-.925-5.191.396-10.49 3.622-14.539 2.988-3.75 7.223-5.941 11.924-6.17.276-.013.556-.02.832-.02 4.404 0 8.562 1.697 11.707 4.779.568.557 1.092 1.147 1.569 1.768.477-.62 1.001-1.211 1.569-1.768 3.145-3.082 7.303-4.779 11.708-4.779.276 0 .556.007.832.02 4.701.229 8.936 2.42 11.924 6.17 3.227 4.049 4.547 9.348 3.622 14.539-1.19 6.682-5.366 13.104-12.411 19.087-5.415 4.599-11.156 7.754-14.096 9.225-.971.487-2.06.744-3.147.744z" fill="url(#SVGID_26_)"/><path d="m140.414 79.509c-1.12-1.406-2.415-2.592-3.845-3.538 2.609 3.875 3.621 8.678 2.781 13.392-1.19 6.682-5.366 13.104-12.411 19.087-5.415 4.599-11.156 7.754-14.096 9.225-.973.487-2.062.744-3.148.744-1.087 0-2.176-.257-3.148-.744-2.94-1.471-8.681-4.626-14.096-9.225-.232-.197-.46-.395-.686-.593 1.551 1.793 3.341 3.554 5.372 5.278 5.415 4.599 11.156 7.754 14.096 9.225.973.487 2.062.744 3.148.744 1.087 0 2.176-.257 3.148-.744 2.94-1.471 8.681-4.626 14.096-9.225 7.045-5.983 11.22-12.405 12.411-19.087.925-5.191-.395-10.49-3.622-14.539z" fill="url(#SVGID_27_)"/><path d="m128.49 73.339c-.276-.013-.557-.02-.832-.02-4.404 0-8.562 1.697-11.708 4.779-.568.557-1.092 1.148-1.569 1.768v43.239c1.087 0 2.176-.257 3.148-.744 2.94-1.471 8.681-4.626 14.096-9.225 7.045-5.983 11.22-12.405 12.411-19.087.925-5.191-.395-10.49-3.622-14.539-2.988-3.751-7.223-5.942-11.924-6.171z" fill="url(#SVGID_28_)"/></g><g><path d="m185.014 84.832c-1.087 0-2.176-.257-3.148-.744-2.94-1.471-8.681-4.626-14.096-9.225-7.045-5.983-11.22-12.405-12.411-19.087-.925-5.191.396-10.49 3.622-14.539 2.988-3.75 7.223-5.941 11.924-6.17.276-.013.556-.02.832-.02 4.404 0 8.562 1.697 11.707 4.779.568.557 1.092 1.147 1.569 1.768.477-.62 1.001-1.211 1.569-1.768 3.145-3.082 7.303-4.779 11.708-4.779.276 0 .556.007.832.02 4.701.229 8.936 2.42 11.924 6.17 3.227 4.049 4.547 9.348 3.622 14.539-1.19 6.682-5.366 13.104-12.411 19.087-5.415 4.599-11.156 7.754-14.096 9.225-.971.487-2.06.744-3.147.744z" fill="url(#SVGID_29_)"/><path d="m211.047 41.237c-1.12-1.406-2.415-2.592-3.845-3.538 2.609 3.875 3.621 8.678 2.781 13.392-1.19 6.682-5.366 13.104-12.411 19.087-5.415 4.599-11.156 7.754-14.096 9.225-.973.487-2.062.744-3.148.744-1.087 0-2.176-.257-3.148-.744-2.94-1.471-8.681-4.626-14.096-9.225-.232-.197-.46-.395-.686-.593 1.551 1.793 3.341 3.554 5.372 5.278 5.415 4.599 11.156 7.754 14.096 9.225.973.487 2.062.744 3.148.744s2.176-.257 3.148-.744c2.94-1.471 8.681-4.626 14.096-9.225 7.045-5.983 11.22-12.405 12.411-19.087.925-5.191-.395-10.49-3.622-14.539z" fill="url(#SVGID_30_)"/><path d="m199.123 35.067c-.276-.013-.557-.02-.832-.02-4.404 0-8.562 1.697-11.708 4.779-.568.557-1.092 1.148-1.569 1.768v43.239c1.087 0 2.176-.257 3.148-.744 2.94-1.471 8.681-4.626 14.096-9.225 7.045-5.983 11.22-12.405 12.411-19.087.925-5.191-.395-10.49-3.622-14.539-2.988-3.75-7.223-5.942-11.924-6.171z" fill="url(#SVGID_31_)"/></g><path d="m374.61 182.247c0 24.07-31.9 32.49-42.391 35.252-20.049 5.299-46.21 8.297-73.973 8.521-1.075.011-2.162.011-3.248.011s-2.173 0-3.248-.011c-27.763-.225-53.924-3.222-73.973-8.521-11.05-2.908-19.983-6.467-26.545-10.564-13.102-8.173-15.846-17.929-15.846-24.688 0-5.535 2.666-10.418 6.76-13.405 3.72 2.245 6.453 5.591 7.561 9.487 8.483 5.333 44.278 14.314 100.715 14.774 1.514.011 3.04.022 4.576.022s3.062-.011 4.576-.022c56.437-.46 92.233-9.442 100.715-14.774 1.108-3.896 3.841-7.241 7.561-9.487 4.094 2.987 6.76 7.87 6.76 13.405z" fill="url(#SVGID_32_)"/></g></svg>