<svg xmlns:xlink="http://www.w3.org/1999/xlink" height="512pt" viewBox="0 0 512 512" width="512pt"
     xmlns="http://www.w3.org/2000/svg">
    <linearGradient id="a" gradientUnits="userSpaceOnUse" x1="159.5674787602" x2="205.7478907602" y1="126.777278004"
                    y2="278.369500004">
        <stop offset="0" stop-color="#ffd00d"/>
        <stop offset=".332" stop-color="#ffc010"/>
        <stop offset=".9779" stop-color="#ff9717"/>
        <stop offset="1" stop-color="#ff9517"/>
    </linearGradient>
    <linearGradient id="b" gradientUnits="userSpaceOnUse" x1="328.183105722" x2="364.324297722" y1="319.4704682528"
                    y2="371.6744122528">
        <stop offset="0" stop-color="#00e7b2"/>
        <stop offset=".2459" stop-color="#05e5b1"/>
        <stop offset=".5301" stop-color="#13ddac"/>
        <stop offset=".8322" stop-color="#2ad1a5"/>
        <stop offset="1" stop-color="#3ac9a0"/>
    </linearGradient>
    <linearGradient id="c" gradientUnits="userSpaceOnUse" x1="198.8426140676" x2="129.5719960676" y1="302.5658272636"
                    y2="392.9188072636">
        <stop offset="0" stop-color="#ff4974"/>
        <stop offset=".3262" stop-color="#fe4672"/>
        <stop offset=".5324" stop-color="#fb3e6c"/>
        <stop offset=".7054" stop-color="#f52f60"/>
        <stop offset=".8591" stop-color="#ee1a51"/>
        <stop offset="1" stop-color="#e4003d"/>
    </linearGradient>
    <linearGradient id="d" gradientUnits="userSpaceOnUse" x1="326.6976023386" x2="373.8819363386" y1="146.1151247446"
                    y2="286.6642047446">
        <stop offset="0" stop-color="#445ea0"/>
        <stop offset=".3216" stop-color="#415a9b"/>
        <stop offset=".6926" stop-color="#364d8d"/>
        <stop offset="1" stop-color="#2a3d7c"/>
    </linearGradient>
    <linearGradient id="e">
        <stop offset="0" stop-color="#fffcf8"/>
        <stop offset=".1875" stop-color="#faf8f6"/>
        <stop offset=".4041" stop-color="#eceef2"/>
        <stop offset=".6353" stop-color="#d5dcea"/>
        <stop offset=".875" stop-color="#b5c4df"/>
        <stop offset="1" stop-color="#a1b5d8"/>
    </linearGradient>
    <linearGradient id="f" gradientUnits="userSpaceOnUse" x1="-28.329172957" x2="407.8887901666" xlink:href="#e"
                    y1="-28.329172957" y2="407.8887901666"/>
    <linearGradient id="g" gradientTransform="matrix(-1.003922 0 0 -1.003922 512.0001 512.0001)"
                    gradientUnits="userSpaceOnUse" x1="40.4642" x2="440.9417" xlink:href="#e" y1="40.4642"
                    y2="440.9417"/>
    <path d="m293.25 164.136719c0 17.601562-12.191406 32.339843-28.578125 36.261719-5.070313 1.207031-8.691406 5.65625-8.691406 10.863281v34.402343c0 .453126-.027344.90625-.09375 1.351563-.652344 5.070313-5 8.984375-10.25 8.984375h-34.394531c-5.207032 0-9.65625-3.621094-10.863282-8.695312-3.921875-16.386719-18.667968-28.578126-36.253906-28.578126-17.601562 0-32.347656 12.191407-36.261719 28.578126-1.214843 5.074218-5.65625 8.695312-10.871093 8.695312h-34.398438c-5.710938 0-10.339844-4.632812-10.339844-10.335938v-75.382812c20.121094-43.046875 54.921875-77.867188 97.964844-98h75.417969c5.714843 0 10.34375 4.621094 10.34375 10.335938v34.394531c0 1.308593.226562 2.5625.640625 3.734375.105468.289062.21875.582031.351562.855468.128906.273438.261719.546876.414063.8125 0 .007813.007812.007813.007812.007813.152344.265625.300781.519531.472657.773437.085937.132813.179687.265626.273437.386719.1875.246094.375.480469.5625.707031 1.511719 1.734376 3.566406 3.015626 5.941406 3.582032.085938.019531.179688.046875.265625.078125 16.261719 3.988281 28.339844 18.679687 28.339844 36.1875zm0 0"
          fill="url(#a)"/>
    <path d="m439.699219 266.332031v75.488281c-20.121094 43.003907-54.90625 77.777344-97.917969 97.898438h-75.46875c-5.703125 0-10.332031-4.621094-10.332031-10.335938v-34.394531c0-5.214843-3.621094-9.65625-8.691407-10.871093-16.386718-3.914063-28.589843-18.660157-28.589843-36.261719 0-17.59375 12.203125-32.332031 28.589843-36.253907 5.070313-1.207031 8.691407-5.660156 8.691407-10.863281v-34.40625c0-5.636719 4.527343-10.21875 10.136719-10.332031h34.601562c5.207031 0 9.65625 3.621094 10.863281 8.691406 3.921875 16.386719 18.65625 28.582032 36.253907 28.582032 6.050781 0 11.765624-1.445313 16.820312-4 .839844-.425782 1.660156-.875 2.449219-1.367188 8.410156-5.082031 14.644531-13.386719 16.992187-23.214844.566406-2.375 1.847656-4.441406 3.582032-5.957031.160156-.140625.332031-.273437.5-.394531 1.886718-1.484375 4.242187-2.339844 6.789062-2.339844h34.394531c.472657 0 .933594.027344 1.386719.101562h.019531c5.042969.679688 8.929688 5.007813 8.929688 10.230469zm0 0"
          fill="url(#b)"/>
    <path d="m218.699219 347.855469c0 17.601562 12.199219 32.347656 28.585937 36.261719 5.074219 1.214843 8.695313 5.65625 8.695313 10.871093v34.394531c0 5.714844-4.628907 10.335938-10.34375 10.335938h-75.421875c-43.042969-20.132812-77.84375-54.953125-97.960938-98.003906v-75.382813c0-5.703125 4.628906-10.332031 10.339844-10.332031h34.398438c5.214843 0 9.652343-3.621094 10.871093-8.691406 3.914063-16.386719 18.65625-28.582032 36.261719-28.582032 17.585938 0 32.332031 12.195313 36.253906 28.582032 1.207032 5.070312 5.65625 8.691406 10.859375 8.691406h34.398438c5.714843 0 10.34375 4.628906 10.34375 10.332031v34.40625c0 5.203125-3.621094 9.65625-8.695313 10.863281-16.386718 3.921876-28.585937 18.660157-28.585937 36.253907zm0 0"
          fill="url(#c)"/>
    <path d="m439.613281 170.011719v.027343l-.105469 75.863282c-.007812 5.167968-3.789062 9.4375-8.738281 10.203125-.011719 0-.019531 0-.019531 0-.519531.085937-1.054688.121093-1.59375.121093l-34.394531-.046874c-2.28125 0-4.421875.6875-6.203125 1.894531-.132813.085937-.257813.179687-.378906.265625-.171876.132812-.339844.253906-.5.394531-1.847657 1.527344-3.207032 3.648437-3.800782 6.121094-2.214844 9.210937-7.851562 17.09375-15.480468 22.222656-1.199219.800781-2.441407 1.535156-3.742188 2.195313-5.113281 2.640624-10.921875 4.128906-17.078125 4.121093-17.59375-.027343-32.320313-12.25-36.214844-28.644531-1.207031-5.0625-5.648437-8.691406-10.851562-8.703125l-34.394531-.046875c-5.253907-.007812-9.582032-3.921875-10.230469-8.984375-.066407-.453125-.09375-.90625-.09375-1.367187l.046875-34.394532c.007812-5.214844 3.628906-9.65625 8.703125-10.855468 16.394531-3.902344 28.613281-18.621094 28.632812-36.222657.027344-15.945312-9.972656-29.570312-24.042969-34.914062-.488281-.191407-.980468-.359375-1.46875-.519531-.433593-.152344-.878906-.285157-1.320312-.40625-.472656-.152344-.953125-.273438-1.433594-.386719-.085937-.027344-.179687-.054688-.265625-.074219-.273437-.066406-.546875-.144531-.820312-.226562-.039063-.019532-.074219-.027344-.113281-.039063-.253907-.085937-.5-.179687-.746094-.273437-.214844-.09375-.433594-.1875-.640625-.292969-.121094-.054688-.246094-.113281-.359375-.175781-.160156-.078126-.308594-.171876-.460938-.257813-.121094-.066406-.234375-.140625-.347656-.214844-.925781-.585937-1.746094-1.292969-2.453125-2.101562-.1875-.226563-.378906-.464844-.566406-.707031-.09375-.125-.1875-.257813-.269531-.386719-.171876-.257813-.320313-.511719-.472657-.773438 0 0-.011719 0-.011719-.007812-.148437-.265625-.28125-.539063-.414062-.8125-.207031-.453125-.386719-.914063-.527344-1.40625-.3125-1.007813-.472656-2.082031-.472656-3.195313l.011719-6.882812.035156-27.511719c.011719-5.714844 4.640625-10.335937 10.355469-10.324219l75.625.101563c42.855468 20.101562 77.515625 54.769531 97.617187 97.625zm0 0"
          fill="url(#d)"/>
    <path d="m256 0c-141.386719 0-256 114.613281-256 256s114.613281 256 256 256 256-114.613281 256-256-114.613281-256-256-256zm0 447.742188c-105.898438 0-191.742188-85.847657-191.742188-191.742188s85.847657-191.742188 191.742188-191.742188 191.742188 85.847657 191.742188 191.742188-85.84375 191.742188-191.742188 191.742188zm0 0"
          fill="url(#f)"/>
    <path d="m256 491.945312c130.308594 0 235.949219-105.636718 235.949219-235.945312s-105.640625-235.945312-235.949219-235.945312-235.945312 105.636718-235.945312 235.945312 105.636718 235.945312 235.945312 235.945312zm0-412.667968c97.601562 0 176.722656 79.121094 176.722656 176.722656s-79.121094 176.722656-176.722656 176.722656-176.722656-79.121094-176.722656-176.722656 79.121094-176.722656 176.722656-176.722656zm0 0"
          fill="url(#g)"/>
</svg>