<svg height="511pt" viewBox="0 0 511 511.99949" width="511pt" xmlns="http://www.w3.org/2000/svg">
    <path d="m262.492188 494v-65.121094c0-36.941406-30.054688-66.996094-67-66.996094h-104.902344c-36.945313 0-67 30.054688-67 66.996094v65.121094zm0 0"
          fill="#fdbf00"/>
    <path d="m195.492188 361.882812h-52.453126v132.117188h119.453126v-65.121094c0-36.941406-30.054688-66.996094-67-66.996094zm0 0"
          fill="#ff9100"/>
    <path d="m497.480469 77.027344h-62.996094c-8.285156 0-15-6.71875-15-15 0-8.285156 6.714844-15 15-15h62.996094c8.285156 0 15 6.714844 15 15 0 8.28125-6.714844 15-15 15zm0 0"
          fill="#001737"/>
    <path d="m340.910156 219.734375-96.65625-146.386719-87.742187 17c-.65625 3.640625.019531 7.527344 2.199219 10.867188l136.007812 208.3125c2.792969 4.28125 7.539062 6.796875 12.554688 6.796875.738281 0 1.488281-.054688 2.230468-.164063 5.804688-.875 10.566406-5.046875 12.1875-10.6875l21.101563-73.351562c1.210937-4.203125.523437-8.730469-1.882813-12.386719zm0 0"
          fill="#ff9100"/>
    <path d="m434.484375 89.996094h-238.976563c-8.28125 0-15-6.714844-15-15v-30c0-8.28125 6.71875-14.996094 15-14.996094h238.976563c8.285156 0 15 6.714844 15 14.996094v30c0 8.285156-6.714844 15-15 15zm0 0"
          fill="#ebe1dc"/>
    <path d="m270.582031 512h-255.082031c-8.285156 0-15-6.714844-15-15s6.714844-15 15-15h255.082031c8.285157 0 15 6.714844 15 15s-6.714843 15-15 15zm0 0"
          fill="#00347b"/>
    <path d="m203.15625 119.996094c-20.746094 0-40.953125-10.761719-52.050781-29.984375-8.015625-13.875-10.144531-30.042969-5.996094-45.523438 4.148437-15.476562 14.074219-28.414062 27.953125-36.425781 13.875-8.0117188 30.042969-10.140625 45.519531-5.992188 15.480469 4.148438 28.417969 14.074219 36.429688 27.949219 8.011719 13.878907 10.140625 30.046875 5.992187 45.523438-4.148437 15.476562-14.074218 28.414062-27.953125 36.425781-9.421875 5.441406-19.722656 8.027344-29.894531 8.027344zm0 0"
          fill="#001737"/>
    <path d="m142.589844 449.90625c-24.976563.003906-49.496094-12.097656-64.308594-34.421875-23.480469-35.398437-13.785156-83.296875 21.609375-106.777344l144.054687-95.566406c35.394532-23.480469 83.296876-13.789063 106.773438 21.609375 11.339844 17.085938 15.328125 37.632812 11.238281 57.847656-4.089843 20.214844-15.753906 37.589844-32.84375 48.929688l-144.054687 95.5625c-13.070313 8.667968-27.847656 12.816406-42.46875 12.816406zm-34.410156-128.703125h.011718zm0 0"
          fill="#f5f0eb"/>
    <path d="m159.792969 362.933594c-6.140625-9.253906-18.617188-11.777344-27.871094-5.636719-9.253906 6.136719-11.78125 18.613281-5.640625 27.867187 6.136719 9.253907 18.617188 11.78125 27.871094 5.640626 9.253906-6.136719 11.777344-18.617188 5.640625-27.871094zm0 0"
          fill="#00429d" fill-rule="evenodd"/>
    <path d="m350.71875 234.75c-23.476562-35.398438-71.378906-45.089844-106.773438-21.609375l-100.902343 66.9375v169.824219c14.472656-.085938 29.082031-4.230469 42.015625-12.8125l144.054687-95.5625c17.089844-11.335938 28.753907-28.714844 32.847657-48.929688 4.089843-20.214844.097656-40.761718-11.242188-57.847656zm0 0"
          fill="#ebe1dc"/>
    <g fill-rule="evenodd">
        <path d="m304.882812 265.152344c-6.105468-9.203125-18.515624-11.714844-27.71875-5.609375-9.203124 6.105469-11.714843 18.515625-5.609374 27.71875 6.105468 9.203125 18.515624 11.714843 27.71875 5.609375 9.203124-6.105469 11.714843-18.515625 5.609374-27.71875zm0 0"
              fill="#001737"/>
        <path d="m224.410156 47.683594c-6.8125-11.796875-21.894531-15.835938-33.6875-9.027344-11.796875 6.808594-15.839844 21.894531-9.027344 33.6875 6.808594 11.796875 21.894532 15.835938 33.6875 9.027344 11.796876-6.808594 15.835938-21.894532 9.027344-33.6875zm0 0"
              fill="#ebe1dc"/>
        <path d="m159.796875 362.9375c-3.867187-5.832031-10.25-8.984375-16.757813-8.988281v40.207031c3.824219.003906 7.691407-1.078125 11.117188-3.347656 9.253906-6.140625 11.777344-18.621094 5.640625-27.871094zm0 0"
              fill="#001737"/>
    </g>
    <path d="m270.582031 482h-127.542969v30h127.542969c8.285157 0 15-6.714844 15-15s-6.714843-15-15-15zm0 0"
          fill="#001737"/>
</svg>