<svg id="Capa_1" enable-background="new 0 0 512 512" height="512" viewBox="0 0 512 512" width="512" xmlns="http://www.w3.org/2000/svg"><g><g><g><g><g><path d="m256 512c-141.559 0-256-114.36-256-256 0-141.559 114.36-256 256-256 141.559 0 256 114.36 256 256 0 141.559-114.36 256-256 256z" fill="#76e2f8"/></g></g></g></g><path d="m512 256c0-141.64-114.441-256-256-256v512c141.64 0 256-114.441 256-256z" fill="#3aaaff"/><g><g><path d="m301 406h-90v-180h90z" fill="#f0f7ff"/></g><g><path d="m301 196h-90v-90h90z" fill="#f0f7ff"/></g></g><g fill="#dfe7f4"><path d="m256 226h45v180h-45z"/><path d="m256 106h45v90h-45z"/></g></g></svg>