<?xml version="1.0" encoding="iso-8859-1"?>
<!-- Generator: Adobe Illustrator 19.0.0, SVG Export Plug-In . SVG Version: 6.00 Build 0)  -->
<svg version="1.1" id="Capa_1" xmlns="http://www.w3.org/2000/svg" xmlns:xlink="http://www.w3.org/1999/xlink" x="0px" y="0px"
	 viewBox="0 0 512 512" style="enable-background:new 0 0 512 512;" xml:space="preserve">
<path style="fill:#FD4E26;" d="M186.7,256c3.9-30-17.701-58.801-48.9-60c-32.999-1.201-58.2,28.5-53.399,60H0v211
	c0,24.899,20.099,45,45,45h226V256H186.7z"/>
<path style="fill:#08469C;" d="M256,256c0,25.444,0,42.382,0,68.481c-30.878-4.964-61.105,19.464-59.956,53.335
	c0.991,30.421,29.136,52.734,59.956,49.028c0,42.89,0,41.967,0,85.155c5.818,0,216.818,0,211,0c24.853,0,45-20.147,45-45V256
	C407.336,256,361.719,256,256,256z"/>
<path style="fill:#159CE4;" d="M512,256.005v-211c0-24.853-20.147-45-45-45H241v256h83.481
	c-4.974,31.529,20.231,61.223,53.335,59.956c31.059-1.011,52.814-30.036,49.028-59.956H512z"/>
<path style="fill:#F9BC35;" d="M316,122.8c-0.901,30.3-29.099,52.8-60,48.9V256h-69.3c3.9-30-17.701-58.801-48.9-60
	c-32.999-1.201-58.2,28.5-53.399,60H0V45C0,20.099,20.099,0,45,0h211v69.399C286.901,64.6,317.199,88.9,316,122.8z"/>
<g>
</g>
<g>
</g>
<g>
</g>
<g>
</g>
<g>
</g>
<g>
</g>
<g>
</g>
<g>
</g>
<g>
</g>
<g>
</g>
<g>
</g>
<g>
</g>
<g>
</g>
<g>
</g>
<g>
</g>
</svg>
