<svg xmlns="http://www.w3.org/2000/svg" xmlns:xlink="http://www.w3.org/1999/xlink" width="512" height="512" viewBox="0 0 510 510"><linearGradient id="a"><stop offset="0" stop-color="#eaf6ff"/><stop offset=".258" stop-color="#dce8fa"/><stop offset=".742" stop-color="#b8c4ed"/><stop offset="1" stop-color="#a2aee6"/></linearGradient><linearGradient xlink:href="#a" id="g" x1="255" x2="255" y1="430" y2="529" gradientUnits="userSpaceOnUse"/><linearGradient id="b"><stop offset="0" stop-color="#8795de" stop-opacity="0"/><stop offset=".468" stop-color="#7d8ddc" stop-opacity=".468"/><stop offset="1" stop-color="#6c7fd8"/></linearGradient><linearGradient xlink:href="#b" id="h" x1="275.674" x2="275.674" y1="499" y2="374.096" gradientUnits="userSpaceOnUse"/><linearGradient id="c"><stop offset="0" stop-color="#537983"/><stop offset="1" stop-color="#3e5959"/></linearGradient><linearGradient xlink:href="#c" id="i" x1="255" x2="255" y1="331.933" y2="429.994" gradientUnits="userSpaceOnUse"/><linearGradient id="d"><stop offset="0" stop-color="#384949" stop-opacity="0"/><stop offset="1" stop-color="#384949"/></linearGradient><linearGradient xlink:href="#d" id="j" x1="164.671" x2="99.338" y1="473.192" y2="373.858" gradientUnits="userSpaceOnUse"/><linearGradient xlink:href="#d" id="k" x1="250.034" x2="184.034" y1="472.249" y2="383.582" gradientUnits="userSpaceOnUse"/><linearGradient xlink:href="#d" id="l" x1="326.999" x2="260.999" y1="465.356" y2="378.023" gradientUnits="userSpaceOnUse"/><linearGradient xlink:href="#d" id="m" x1="403.353" x2="345.353" y1="460.271" y2="379.605" gradientUnits="userSpaceOnUse"/><linearGradient xlink:href="#d" id="n" x1="483.597" x2="423.597" y1="460.342" y2="381.675" gradientUnits="userSpaceOnUse"/><linearGradient xlink:href="#a" id="o" x1="65.697" x2="119.311" y1="356.94" y2="410.554" gradientUnits="userSpaceOnUse"/><linearGradient xlink:href="#a" id="p" x1="105.621" x2="66.865" y1="396.864" y2="358.107" gradientUnits="userSpaceOnUse"/><linearGradient xlink:href="#c" id="q" x1="79.607" x2="106.193" y1="370.849" y2="397.435" gradientUnits="userSpaceOnUse"/><linearGradient xlink:href="#a" id="r" x1="147.301" x2="200.916" y1="356.94" y2="410.554" gradientUnits="userSpaceOnUse"/><linearGradient xlink:href="#a" id="s" x1="187.225" x2="148.469" y1="396.864" y2="358.107" gradientUnits="userSpaceOnUse"/><linearGradient xlink:href="#c" id="t" x1="161.211" x2="187.797" y1="370.849" y2="397.435" gradientUnits="userSpaceOnUse"/><linearGradient xlink:href="#a" id="u" x1="228.906" x2="282.52" y1="356.94" y2="410.554" gradientUnits="userSpaceOnUse"/><linearGradient xlink:href="#a" id="v" x1="268.83" x2="230.073" y1="396.864" y2="358.107" gradientUnits="userSpaceOnUse"/><linearGradient xlink:href="#c" id="w" x1="242.815" x2="269.401" y1="370.849" y2="397.435" gradientUnits="userSpaceOnUse"/><linearGradient xlink:href="#a" id="x" x1="310.51" x2="364.124" y1="356.94" y2="410.554" gradientUnits="userSpaceOnUse"/><linearGradient xlink:href="#a" id="y" x1="350.434" x2="311.678" y1="396.864" y2="358.107" gradientUnits="userSpaceOnUse"/><linearGradient xlink:href="#c" id="z" x1="324.419" x2="351.005" y1="370.849" y2="397.435" gradientUnits="userSpaceOnUse"/><linearGradient xlink:href="#a" id="A" x1="392.114" x2="445.728" y1="356.94" y2="410.554" gradientUnits="userSpaceOnUse"/><linearGradient xlink:href="#a" id="B" x1="432.038" x2="393.282" y1="396.864" y2="358.107" gradientUnits="userSpaceOnUse"/><linearGradient xlink:href="#c" id="C" x1="406.024" x2="432.609" y1="370.849" y2="397.435" gradientUnits="userSpaceOnUse"/><linearGradient xlink:href="#d" id="D" x1="255" x2="255" y1="404.6" y2="437.266" gradientUnits="userSpaceOnUse"/><linearGradient xlink:href="#b" id="E" x1="255" x2="255" y1="483" y2="514" gradientUnits="userSpaceOnUse"/><linearGradient id="e"><stop offset="0" stop-color="#fee45a"/><stop offset="1" stop-color="#fe860a"/></linearGradient><linearGradient xlink:href="#e" id="F" x1="78.264" x2="233.625" y1="18.738" y2="174.1" gradientUnits="userSpaceOnUse"/><linearGradient id="f"><stop offset="0" stop-color="#fe860a" stop-opacity="0"/><stop offset="1" stop-color="#fe7701"/></linearGradient><linearGradient xlink:href="#f" id="G" x1="226.989" x2="26.668" y1="86.838" y2="-55.486" gradientUnits="userSpaceOnUse"/><linearGradient xlink:href="#f" id="H" x1="246.64" x2="124.071" y1="43.506" y2="172.772" gradientUnits="userSpaceOnUse"/><linearGradient xlink:href="#f" id="I" x1="142.874" x2="142.874" y1="138.138" y2="173.317" gradientUnits="userSpaceOnUse"/><linearGradient xlink:href="#a" id="J" x1="96.24" x2="151.588" y1="5.431" y2="60.779" gradientUnits="userSpaceOnUse"/><linearGradient xlink:href="#e" id="K" x1="78.264" x2="233.625" y1="183.262" y2="338.624" gradientUnits="userSpaceOnUse"/><linearGradient xlink:href="#f" id="L" x1="226.989" x2="26.668" y1="251.362" y2="109.038" gradientUnits="userSpaceOnUse"/><linearGradient xlink:href="#f" id="M" x1="246.64" x2="124.071" y1="208.03" y2="337.296" gradientUnits="userSpaceOnUse"/><linearGradient xlink:href="#f" id="N" x1="142.874" x2="142.874" y1="302.662" y2="337.841" gradientUnits="userSpaceOnUse"/><linearGradient xlink:href="#a" id="O" x1="96.24" x2="151.588" y1="169.955" y2="225.303" gradientUnits="userSpaceOnUse"/><linearGradient xlink:href="#e" id="P" x1="256.629" x2="456.022" y1="141.638" y2="341.031" gradientUnits="userSpaceOnUse"/><linearGradient xlink:href="#f" id="Q" x1="447.505" x2="190.411" y1="229.037" y2="46.378" gradientUnits="userSpaceOnUse"/><linearGradient xlink:href="#f" id="R" x1="472.726" x2="315.419" y1="173.424" y2="339.326" gradientUnits="userSpaceOnUse"/><linearGradient xlink:href="#f" id="S" x1="339.551" x2="339.551" y1="294.877" y2="340.025" gradientUnits="userSpaceOnUse"/><linearGradient xlink:href="#a" id="T" x1="279.701" x2="350.734" y1="124.559" y2="195.593" gradientUnits="userSpaceOnUse"/><path fill="url(#g)" d="M490.725 460.816c-10.068 0-18.68-7.195-20.515-17.094-2.946-15.891-7.942-37.124-13.61-37.124H53.4c-5.668 0-10.665 21.233-13.61 37.124-1.835 9.899-10.447 17.094-20.515 17.094-10.593 0-19.18 8.587-19.18 19.18v10.823c0 10.593 8.587 19.18 19.18 19.18h471.45c10.593 0 19.18-8.587 19.18-19.18v-10.823c0-10.592-8.587-19.18-19.18-19.18"/><path fill="url(#h)" d="M490.725 460.816c-10.068 0-18.68-7.195-20.515-17.094-2.946-15.891-7.942-37.124-13.61-37.124H53.4c-4.716 0-8.966 14.697-11.957 28.787L116.057 510h374.668c10.593 0 19.18-8.587 19.18-19.18v-10.823c0-10.593-8.587-19.181-19.18-19.181"/><path fill="url(#i)" d="M457.101 435.933H52.899C23.684 435.933 0 412.249 0 383.034s23.684-52.899 52.899-52.899h404.202c29.215 0 52.899 23.684 52.899 52.899s-23.684 52.899-52.899 52.899"/><path fill="url(#j)" d="M202.24 435.933H87.16l-21.03-21.03c-7.43-6.41-12.51-15.45-13.81-25.68a40 40 0 0 1-.33-5.19c0-22.54 18.27-40.8 40.8-40.8 12.34 0 23.39 5.48 30.87 14.13l12.47 12.47z"/><path fill="url(#k)" d="M283.84 435.933H168.76l-21.03-21.03c-7.43-6.41-12.51-15.45-13.81-25.68a40 40 0 0 1-.33-5.19c0-5 .9-9.78 2.54-14.2 5.77-15.54 20.72-26.6 38.26-26.6 12.34 0 23.39 5.48 30.87 14.13l12.48 12.48z"/><path fill="url(#l)" d="M365.44 435.933H250.37l-21.03-21.03c-7.43-6.41-12.51-15.45-13.81-25.68a40 40 0 0 1-.33-5.19c0-4.99.9-9.77 2.54-14.19 5.76-15.54 20.72-26.61 38.26-26.61 12.34 0 23.39 5.48 30.87 14.13l12.47 12.47z"/><path fill="url(#m)" d="M447.04 435.933H331.97l-21.03-21.03c-7.43-6.41-12.51-15.45-13.81-25.68a40 40 0 0 1-.33-5.19c0-5 .9-9.78 2.54-14.2 5.77-15.54 20.72-26.6 38.26-26.6 12.34 0 23.39 5.48 30.87 14.13l12.48 12.48z"/><path fill="url(#n)" d="M502.65 409.943a52.6 52.6 0 0 1-8.14 10.5c-9.57 9.57-22.8 15.49-37.41 15.49h-43.52l-21.03-21.03c-7.43-6.41-12.51-15.45-13.81-25.68a40 40 0 0 1-.33-5.19c0-4.99.9-9.77 2.54-14.19 5.76-15.54 20.72-26.61 38.26-26.61 12.34 0 23.39 5.48 30.87 14.13z"/><circle cx="91.792" cy="383.034" r="40.802" fill="url(#o)"/><circle cx="91.792" cy="383.034" r="29.898" fill="url(#p)"/><circle cx="91.792" cy="383.034" r="18.606" fill="url(#q)"/><circle cx="173.396" cy="383.034" r="40.802" fill="url(#r)"/><circle cx="173.396" cy="383.034" r="29.898" fill="url(#s)"/><circle cx="173.396" cy="383.034" r="18.606" fill="url(#t)"/><circle cx="255" cy="383.034" r="40.802" fill="url(#u)"/><circle cx="255" cy="383.034" r="29.898" fill="url(#v)"/><circle cx="255" cy="383.034" r="18.606" fill="url(#w)"/><circle cx="336.604" cy="383.034" r="40.802" fill="url(#x)"/><circle cx="336.604" cy="383.034" r="29.898" fill="url(#y)"/><circle cx="336.604" cy="383.034" r="18.606" fill="url(#z)"/><circle cx="418.208" cy="383.034" r="40.802" fill="url(#A)"/><circle cx="418.208" cy="383.034" r="29.898" fill="url(#B)"/><circle cx="418.208" cy="383.034" r="18.606" fill="url(#C)"/><path fill="url(#D)" d="M.082 385.933c1.506 27.866 24.574 50 52.817 50h404.202c28.242 0 51.311-22.134 52.817-50z"/><path fill="url(#E)" d="M.095 479.997v10.823c0 10.593 8.587 19.18 19.18 19.18h471.45c10.593 0 19.18-8.587 19.18-19.18v-10.823c0-5.799-2.584-10.985-6.651-14.502H6.746c-4.067 3.516-6.651 8.703-6.651 14.502"/><path fill="url(#F)" d="M232.853 165.611H52.895a7.32 7.32 0 0 1-7.32-7.32V8.407a7.32 7.32 0 0 1 7.32-7.32h179.958a7.32 7.32 0 0 1 7.32 7.32v149.884a7.32 7.32 0 0 1-7.32 7.32"/><path fill="url(#G)" d="M240.173 8.406v149.886a7.32 7.32 0 0 1-7.318 7.318h-23.886L91.077 47.718V1.087h141.778a7.32 7.32 0 0 1 7.318 7.319"/><path fill="url(#H)" d="M232.853 1.087h-51.13a7.32 7.32 0 0 1 7.32 7.32v149.884a7.32 7.32 0 0 1-7.32 7.32h51.13a7.32 7.32 0 0 0 7.32-7.32V8.407a7.32 7.32 0 0 0-7.32-7.32"/><path fill="url(#I)" d="M45.575 125.928v32.363a7.32 7.32 0 0 0 7.32 7.32h179.958a7.32 7.32 0 0 0 7.32-7.32v-32.363z"/><path fill="url(#J)" d="m98.589 48.972.144.087a10.16 10.16 0 0 0 10.684-.087 10.47 10.47 0 0 1 10.826 0 10.47 10.47 0 0 0 10.826 0c1.543-.893 3.25-.913 4.969-.59 1.961.368 3.782-1.102 3.782-3.097V2.575A2.575 2.575 0 0 0 137.245 0H92.412a2.575 2.575 0 0 0-2.575 2.575v42.649c0 1.983 1.804 3.468 3.753 3.102 1.736-.324 3.458-.29 4.999.646"/><path fill="url(#K)" d="M232.853 330.135H52.895a7.32 7.32 0 0 1-7.32-7.32V172.931a7.32 7.32 0 0 1 7.32-7.32h179.958a7.32 7.32 0 0 1 7.32 7.32v149.885a7.32 7.32 0 0 1-7.32 7.319"/><path fill="url(#L)" d="M240.173 172.93v149.886a7.32 7.32 0 0 1-7.318 7.318h-23.886L91.077 212.242v-46.631h141.778a7.32 7.32 0 0 1 7.318 7.319"/><path fill="url(#M)" d="M232.853 165.611h-51.13a7.32 7.32 0 0 1 7.32 7.32v149.885a7.32 7.32 0 0 1-7.32 7.32h51.13a7.32 7.32 0 0 0 7.32-7.32V172.931a7.32 7.32 0 0 0-7.32-7.32"/><path fill="url(#N)" d="M45.575 290.452v32.363a7.32 7.32 0 0 0 7.32 7.32h179.958a7.32 7.32 0 0 0 7.32-7.32v-32.363z"/><path fill="url(#O)" d="m98.589 213.496.144.087a10.16 10.16 0 0 0 10.684-.087 10.47 10.47 0 0 1 10.826 0 10.47 10.47 0 0 0 10.826 0c1.543-.893 3.25-.913 4.969-.59 1.961.368 3.782-1.102 3.782-3.097v-42.71a2.575 2.575 0 0 0-2.575-2.575H92.412a2.575 2.575 0 0 0-2.575 2.575v42.649c0 1.983 1.804 3.468 3.753 3.102 1.736-.324 3.458-.29 4.999.646"/><path fill="url(#P)" d="M455.031 330.135h-230.96a9.394 9.394 0 0 1-9.394-9.394V128.378a9.394 9.394 0 0 1 9.394-9.394h230.96a9.394 9.394 0 0 1 9.394 9.394v192.363a9.394 9.394 0 0 1-9.394 9.394"/><path fill="url(#Q)" d="M464.425 128.377v192.365c0 5.186-4.207 9.393-9.393 9.393h-30.655L273.074 178.831v-59.847h181.959c5.185 0 9.392 4.207 9.392 9.393"/><path fill="url(#R)" d="M455.031 118.983h-65.62a9.394 9.394 0 0 1 9.394 9.394V320.74a9.394 9.394 0 0 1-9.394 9.394h65.62a9.394 9.394 0 0 0 9.394-9.394V128.378a9.394 9.394 0 0 0-9.394-9.395"/><path fill="url(#S)" d="M214.677 279.206v41.535a9.394 9.394 0 0 0 9.394 9.394h230.96a9.394 9.394 0 0 0 9.394-9.394v-41.535z"/><path fill="url(#T)" d="m282.716 180.44.184.112a13.03 13.03 0 0 0 13.712-.112 13.44 13.44 0 0 1 13.895 0 13.44 13.44 0 0 0 13.895 0h.001c1.98-1.146 4.171-1.171 6.377-.757 2.517.472 4.854-1.415 4.854-3.975v-54.814a3.305 3.305 0 0 0-3.305-3.305h-57.541a3.305 3.305 0 0 0-3.305 3.305v54.736c0 2.545 2.315 4.451 4.816 3.982 2.228-.418 4.439-.373 6.417.828"/></svg>