<svg xmlns:xlink="http://www.w3.org/1999/xlink" id="Capa_1" enable-background="new 0 0 510 510" height="512" viewBox="0 0 510 510"
     width="512" xmlns="http://www.w3.org/2000/svg">
    <linearGradient id="lg1">
        <stop offset="0" stop-color="#eaf6ff"/>
        <stop offset=".2575" stop-color="#dce8fa"/>
        <stop offset=".7423" stop-color="#b8c4ed"/>
        <stop offset="1" stop-color="#a2aee6"/>
    </linearGradient>
    <linearGradient id="SVGID_1_" gradientUnits="userSpaceOnUse" x1="255" x2="255" xlink:href="#lg1" y1="430" y2="529"/>
    <linearGradient id="lg2">
        <stop offset="0" stop-color="#8795de" stop-opacity="0"/>
        <stop offset=".4678" stop-color="#7d8ddc" stop-opacity=".468"/>
        <stop offset="1" stop-color="#6c7fd8"/>
    </linearGradient>
    <linearGradient id="SVGID_2_" gradientUnits="userSpaceOnUse" x1="275.674" x2="275.674" xlink:href="#lg2" y1="499"
                    y2="374.096"/>
    <linearGradient id="lg3">
        <stop offset="0" stop-color="#537983"/>
        <stop offset="1" stop-color="#3e5959"/>
    </linearGradient>
    <linearGradient id="SVGID_3_" gradientUnits="userSpaceOnUse" x1="255" x2="255" xlink:href="#lg3" y1="331.933"
                    y2="429.994"/>
    <linearGradient id="lg4">
        <stop offset="0" stop-color="#384949" stop-opacity="0"/>
        <stop offset="1" stop-color="#384949"/>
    </linearGradient>
    <linearGradient id="SVGID_4_" gradientUnits="userSpaceOnUse" x1="164.671" x2="99.338" xlink:href="#lg4" y1="473.192"
                    y2="373.858"/>
    <linearGradient id="SVGID_5_" gradientUnits="userSpaceOnUse" x1="250.034" x2="184.034" xlink:href="#lg4"
                    y1="472.249" y2="383.582"/>
    <linearGradient id="SVGID_6_" gradientUnits="userSpaceOnUse" x1="326.999" x2="260.999" xlink:href="#lg4"
                    y1="465.356" y2="378.023"/>
    <linearGradient id="SVGID_7_" gradientUnits="userSpaceOnUse" x1="403.353" x2="345.353" xlink:href="#lg4"
                    y1="460.271" y2="379.605"/>
    <linearGradient id="SVGID_8_" gradientUnits="userSpaceOnUse" x1="483.597" x2="423.597" xlink:href="#lg4"
                    y1="460.342" y2="381.675"/>
    <linearGradient id="SVGID_9_" gradientUnits="userSpaceOnUse" x1="65.697" x2="119.311" xlink:href="#lg1" y1="356.94"
                    y2="410.554"/>
    <linearGradient id="SVGID_10_" gradientUnits="userSpaceOnUse" x1="105.621" x2="66.865" xlink:href="#lg1"
                    y1="396.864" y2="358.107"/>
    <linearGradient id="SVGID_11_" gradientUnits="userSpaceOnUse" x1="79.607" x2="106.193" xlink:href="#lg3"
                    y1="370.849" y2="397.435"/>
    <linearGradient id="SVGID_12_" gradientUnits="userSpaceOnUse" x1="147.301" x2="200.916" xlink:href="#lg1"
                    y1="356.94" y2="410.554"/>
    <linearGradient id="SVGID_13_" gradientUnits="userSpaceOnUse" x1="187.225" x2="148.469" xlink:href="#lg1"
                    y1="396.864" y2="358.107"/>
    <linearGradient id="SVGID_14_" gradientUnits="userSpaceOnUse" x1="161.211" x2="187.797" xlink:href="#lg3"
                    y1="370.849" y2="397.435"/>
    <linearGradient id="SVGID_15_" gradientUnits="userSpaceOnUse" x1="228.906" x2="282.52" xlink:href="#lg1" y1="356.94"
                    y2="410.554"/>
    <linearGradient id="SVGID_16_" gradientUnits="userSpaceOnUse" x1="268.83" x2="230.073" xlink:href="#lg1"
                    y1="396.864" y2="358.107"/>
    <linearGradient id="SVGID_17_" gradientUnits="userSpaceOnUse" x1="242.815" x2="269.401" xlink:href="#lg3"
                    y1="370.849" y2="397.435"/>
    <linearGradient id="SVGID_18_" gradientUnits="userSpaceOnUse" x1="310.51" x2="364.124" xlink:href="#lg1" y1="356.94"
                    y2="410.554"/>
    <linearGradient id="SVGID_19_" gradientUnits="userSpaceOnUse" x1="350.434" x2="311.678" xlink:href="#lg1"
                    y1="396.864" y2="358.107"/>
    <linearGradient id="SVGID_20_" gradientUnits="userSpaceOnUse" x1="324.419" x2="351.005" xlink:href="#lg3"
                    y1="370.849" y2="397.435"/>
    <linearGradient id="SVGID_21_" gradientUnits="userSpaceOnUse" x1="392.114" x2="445.728" xlink:href="#lg1"
                    y1="356.94" y2="410.554"/>
    <linearGradient id="SVGID_22_" gradientUnits="userSpaceOnUse" x1="432.038" x2="393.282" xlink:href="#lg1"
                    y1="396.864" y2="358.107"/>
    <linearGradient id="SVGID_23_" gradientUnits="userSpaceOnUse" x1="406.024" x2="432.609" xlink:href="#lg3"
                    y1="370.849" y2="397.435"/>
    <linearGradient id="SVGID_24_" gradientUnits="userSpaceOnUse" x1="255" x2="255" xlink:href="#lg4" y1="404.6"
                    y2="437.266"/>
    <linearGradient id="SVGID_25_" gradientUnits="userSpaceOnUse" x1="255" x2="255" xlink:href="#lg2" y1="483"
                    y2="514"/>
    <linearGradient id="lg5">
        <stop offset="0" stop-color="#fee45a"/>
        <stop offset="1" stop-color="#fe860a"/>
    </linearGradient>
    <linearGradient id="SVGID_26_" gradientUnits="userSpaceOnUse" x1="78.264" x2="233.625" xlink:href="#lg5" y1="18.738"
                    y2="174.1"/>
    <linearGradient id="lg6">
        <stop offset="0" stop-color="#fe860a" stop-opacity="0"/>
        <stop offset="1" stop-color="#fe7701"/>
    </linearGradient>
    <linearGradient id="SVGID_27_" gradientUnits="userSpaceOnUse" x1="226.989" x2="26.668" xlink:href="#lg6" y1="86.838"
                    y2="-55.486"/>
    <linearGradient id="SVGID_28_" gradientUnits="userSpaceOnUse" x1="246.64" x2="124.071" xlink:href="#lg6" y1="43.506"
                    y2="172.772"/>
    <linearGradient id="SVGID_29_" gradientUnits="userSpaceOnUse" x1="142.874" x2="142.874" xlink:href="#lg6"
                    y1="138.138" y2="173.317"/>
    <linearGradient id="SVGID_30_" gradientUnits="userSpaceOnUse" x1="96.24" x2="151.588" xlink:href="#lg1" y1="5.431"
                    y2="60.779"/>
    <linearGradient id="SVGID_31_" gradientUnits="userSpaceOnUse" x1="78.264" x2="233.625" xlink:href="#lg5"
                    y1="183.262" y2="338.624"/>
    <linearGradient id="SVGID_32_" gradientUnits="userSpaceOnUse" x1="226.989" x2="26.668" xlink:href="#lg6"
                    y1="251.362" y2="109.038"/>
    <linearGradient id="SVGID_33_" gradientUnits="userSpaceOnUse" x1="246.64" x2="124.071" xlink:href="#lg6" y1="208.03"
                    y2="337.296"/>
    <linearGradient id="SVGID_34_" gradientUnits="userSpaceOnUse" x1="142.874" x2="142.874" xlink:href="#lg6"
                    y1="302.662" y2="337.841"/>
    <linearGradient id="SVGID_35_" gradientUnits="userSpaceOnUse" x1="96.24" x2="151.588" xlink:href="#lg1" y1="169.955"
                    y2="225.303"/>
    <linearGradient id="SVGID_36_" gradientUnits="userSpaceOnUse" x1="256.629" x2="456.022" xlink:href="#lg5"
                    y1="141.638" y2="341.031"/>
    <linearGradient id="SVGID_37_" gradientUnits="userSpaceOnUse" x1="447.505" x2="190.411" xlink:href="#lg6"
                    y1="229.037" y2="46.378"/>
    <linearGradient id="SVGID_38_" gradientUnits="userSpaceOnUse" x1="472.726" x2="315.419" xlink:href="#lg6"
                    y1="173.424" y2="339.326"/>
    <linearGradient id="SVGID_39_" gradientUnits="userSpaceOnUse" x1="339.551" x2="339.551" xlink:href="#lg6"
                    y1="294.877" y2="340.025"/>
    <linearGradient id="SVGID_40_" gradientUnits="userSpaceOnUse" x1="279.701" x2="350.734" xlink:href="#lg1"
                    y1="124.559" y2="195.593"/>
    <g>
        <path d="m490.725 460.816c-10.068 0-18.68-7.195-20.515-17.094-2.946-15.891-7.942-37.124-13.61-37.124h-403.2c-5.668 0-10.665 21.233-13.61 37.124-1.835 9.899-10.447 17.094-20.515 17.094-10.593 0-19.18 8.587-19.18 19.18v10.823c0 10.593 8.587 19.18 19.18 19.18h471.45c10.593 0 19.18-8.587 19.18-19.18v-10.823c0-10.592-8.587-19.18-19.18-19.18z"
              fill="url(#SVGID_1_)"/>
        <path d="m490.725 460.816c-10.068 0-18.68-7.195-20.515-17.094-2.946-15.891-7.942-37.124-13.61-37.124h-403.2c-4.716 0-8.966 14.697-11.957 28.787l74.614 74.615h374.668c10.593 0 19.18-8.587 19.18-19.18v-10.823c0-10.593-8.587-19.181-19.18-19.181z"
              fill="url(#SVGID_2_)"/>
        <g>
            <path d="m457.101 435.933h-404.202c-29.215 0-52.899-23.684-52.899-52.899 0-29.215 23.684-52.899 52.899-52.899h404.202c29.215 0 52.899 23.684 52.899 52.899 0 29.215-23.684 52.899-52.899 52.899z"
                  fill="url(#SVGID_3_)"/>
            <path d="m202.24 435.933h-115.08l-21.03-21.03c-7.43-6.41-12.51-15.45-13.81-25.68-.22-1.7-.33-3.43-.33-5.19 0-22.54 18.27-40.8 40.8-40.8 12.34 0 23.39 5.48 30.87 14.13l12.47 12.47z"
                  fill="url(#SVGID_4_)"/>
            <path d="m283.84 435.933h-115.08l-21.03-21.03c-7.43-6.41-12.51-15.45-13.81-25.68-.22-1.7-.33-3.43-.33-5.19 0-5 .9-9.78 2.54-14.2 5.77-15.54 20.72-26.6 38.26-26.6 12.34 0 23.39 5.48 30.87 14.13l12.48 12.48z"
                  fill="url(#SVGID_5_)"/>
            <path d="m365.44 435.933h-115.07l-21.03-21.03c-7.43-6.41-12.51-15.45-13.81-25.68-.22-1.7-.33-3.43-.33-5.19 0-4.99.9-9.77 2.54-14.19 5.76-15.54 20.72-26.61 38.26-26.61 12.34 0 23.39 5.48 30.87 14.13l12.47 12.47z"
                  fill="url(#SVGID_6_)"/>
            <path d="m447.04 435.933h-115.07l-21.03-21.03c-7.43-6.41-12.51-15.45-13.81-25.68-.22-1.7-.33-3.43-.33-5.19 0-5 .9-9.78 2.54-14.2 5.77-15.54 20.72-26.6 38.26-26.6 12.34 0 23.39 5.48 30.87 14.13l12.48 12.48z"
                  fill="url(#SVGID_7_)"/>
            <path d="m502.65 409.943c-2.26 3.84-5.01 7.37-8.14 10.5-9.57 9.57-22.8 15.49-37.41 15.49h-43.52l-21.03-21.03c-7.43-6.41-12.51-15.45-13.81-25.68-.22-1.7-.33-3.43-.33-5.19 0-4.99.9-9.77 2.54-14.19 5.76-15.54 20.72-26.61 38.26-26.61 12.34 0 23.39 5.48 30.87 14.13z"
                  fill="url(#SVGID_8_)"/>
            <g>
                <g>
                    <circle cx="91.792" cy="383.034" fill="url(#SVGID_9_)" r="40.802"/>
                    <circle cx="91.792" cy="383.034" fill="url(#SVGID_10_)" r="29.898"/>
                    <circle cx="91.792" cy="383.034" fill="url(#SVGID_11_)" r="18.606"/>
                </g>
                <g>
                    <circle cx="173.396" cy="383.034" fill="url(#SVGID_12_)" r="40.802"/>
                    <circle cx="173.396" cy="383.034" fill="url(#SVGID_13_)" r="29.898"/>
                    <circle cx="173.396" cy="383.034" fill="url(#SVGID_14_)" r="18.606"/>
                </g>
                <g>
                    <circle cx="255" cy="383.034" fill="url(#SVGID_15_)" r="40.802"/>
                    <circle cx="255" cy="383.034" fill="url(#SVGID_16_)" r="29.898"/>
                    <circle cx="255" cy="383.034" fill="url(#SVGID_17_)" r="18.606"/>
                </g>
                <g>
                    <circle cx="336.604" cy="383.034" fill="url(#SVGID_18_)" r="40.802"/>
                    <circle cx="336.604" cy="383.034" fill="url(#SVGID_19_)" r="29.898"/>
                    <circle cx="336.604" cy="383.034" fill="url(#SVGID_20_)" r="18.606"/>
                </g>
                <g>
                    <circle cx="418.208" cy="383.034" fill="url(#SVGID_21_)" r="40.802"/>
                    <circle cx="418.208" cy="383.034" fill="url(#SVGID_22_)" r="29.898"/>
                    <circle cx="418.208" cy="383.034" fill="url(#SVGID_23_)" r="18.606"/>
                </g>
            </g>
            <path d="m.082 385.933c1.506 27.866 24.574 50 52.817 50h404.202c28.242 0 51.311-22.134 52.817-50z"
                  fill="url(#SVGID_24_)"/>
        </g>
        <path d="m.095 479.997v10.823c0 10.593 8.587 19.18 19.18 19.18h471.45c10.593 0 19.18-8.587 19.18-19.18v-10.823c0-5.799-2.584-10.985-6.651-14.502h-496.508c-4.067 3.516-6.651 8.703-6.651 14.502z"
              fill="url(#SVGID_25_)"/>
        <g>
            <g>
                <g>
                    <g>
                        <g>
                            <path d="m232.853 165.611h-179.958c-4.043 0-7.32-3.277-7.32-7.32v-149.884c0-4.043 3.277-7.32 7.32-7.32h179.958c4.043 0 7.32 3.277 7.32 7.32v149.884c0 4.043-3.278 7.32-7.32 7.32z"
                                  fill="url(#SVGID_26_)"/>
                            <path d="m240.173 8.406v149.886c0 4.041-3.278 7.318-7.318 7.318h-23.886l-117.892-117.892v-46.631h141.778c4.04 0 7.318 3.278 7.318 7.319z"
                                  fill="url(#SVGID_27_)"/>
                            <path d="m232.853 1.087h-51.13c4.043 0 7.32 3.277 7.32 7.32v149.884c0 4.043-3.277 7.32-7.32 7.32h51.13c4.043 0 7.32-3.277 7.32-7.32v-149.884c0-4.043-3.278-7.32-7.32-7.32z"
                                  fill="url(#SVGID_28_)"/>
                            <path d="m45.575 125.928v32.363c0 4.043 3.277 7.32 7.32 7.32h179.958c4.043 0 7.32-3.277 7.32-7.32v-32.363z"
                                  fill="url(#SVGID_29_)"/>
                        </g>
                        <path d="m98.589 48.972.144.087c3.29 1.998 7.427 1.964 10.684-.087 3.329-2.01 7.497-2.01 10.826 0 3.329 2.01 7.497 2.01 10.826 0 1.543-.893 3.25-.913 4.969-.59 1.961.368 3.782-1.102 3.782-3.097v-42.71c0-1.422-1.153-2.575-2.575-2.575h-44.833c-1.422 0-2.575 1.153-2.575 2.575v42.649c0 1.983 1.804 3.468 3.753 3.102 1.736-.324 3.458-.29 4.999.646z"
                              fill="url(#SVGID_30_)"/>
                    </g>
                </g>
                <g>
                    <g>
                        <g>
                            <path d="m232.853 330.135h-179.958c-4.043 0-7.32-3.277-7.32-7.32v-149.884c0-4.043 3.277-7.32 7.32-7.32h179.958c4.043 0 7.32 3.277 7.32 7.32v149.885c0 4.042-3.278 7.319-7.32 7.319z"
                                  fill="url(#SVGID_31_)"/>
                            <path d="m240.173 172.93v149.886c0 4.041-3.278 7.318-7.318 7.318h-23.886l-117.892-117.892v-46.631h141.778c4.04 0 7.318 3.278 7.318 7.319z"
                                  fill="url(#SVGID_32_)"/>
                            <path d="m232.853 165.611h-51.13c4.043 0 7.32 3.277 7.32 7.32v149.885c0 4.043-3.277 7.32-7.32 7.32h51.13c4.043 0 7.32-3.277 7.32-7.32v-149.885c0-4.043-3.278-7.32-7.32-7.32z"
                                  fill="url(#SVGID_33_)"/>
                            <path d="m45.575 290.452v32.363c0 4.043 3.277 7.32 7.32 7.32h179.958c4.043 0 7.32-3.277 7.32-7.32v-32.363z"
                                  fill="url(#SVGID_34_)"/>
                        </g>
                        <path d="m98.589 213.496.144.087c3.29 1.998 7.427 1.964 10.684-.087 3.329-2.01 7.497-2.01 10.826 0 3.329 2.01 7.497 2.01 10.826 0 1.543-.893 3.25-.913 4.969-.59 1.961.368 3.782-1.102 3.782-3.097v-42.71c0-1.422-1.153-2.575-2.575-2.575h-44.833c-1.422 0-2.575 1.153-2.575 2.575v42.649c0 1.983 1.804 3.468 3.753 3.102 1.736-.324 3.458-.29 4.999.646z"
                              fill="url(#SVGID_35_)"/>
                    </g>
                </g>
            </g>
            <g>
                <g>
                    <path d="m455.031 330.135h-230.96c-5.188 0-9.394-4.206-9.394-9.394v-192.363c0-5.188 4.206-9.394 9.394-9.394h230.96c5.188 0 9.394 4.206 9.394 9.394v192.363c0 5.188-4.206 9.394-9.394 9.394z"
                          fill="url(#SVGID_36_)"/>
                    <path d="m464.425 128.377v192.365c0 5.186-4.207 9.393-9.393 9.393h-30.655l-151.303-151.304v-59.847h181.959c5.185 0 9.392 4.207 9.392 9.393z"
                          fill="url(#SVGID_37_)"/>
                    <path d="m455.031 118.983h-65.62c5.188 0 9.394 4.206 9.394 9.394v192.363c0 5.188-4.206 9.394-9.394 9.394h65.62c5.188 0 9.394-4.206 9.394-9.394v-192.362c0-5.189-4.206-9.395-9.394-9.395z"
                          fill="url(#SVGID_38_)"/>
                    <path d="m214.677 279.206v41.535c0 5.188 4.206 9.394 9.394 9.394h230.96c5.188 0 9.394-4.206 9.394-9.394v-41.535z"
                          fill="url(#SVGID_39_)"/>
                </g>
                <path d="m282.716 180.44.184.112c4.223 2.564 9.532 2.521 13.712-.112 4.272-2.58 9.622-2.58 13.895 0 4.272 2.58 9.622 2.58 13.895 0h.001c1.98-1.146 4.171-1.171 6.377-.757 2.517.472 4.854-1.415 4.854-3.975v-54.814c0-1.825-1.48-3.305-3.305-3.305h-57.541c-1.825 0-3.305 1.48-3.305 3.305v54.736c0 2.545 2.315 4.451 4.816 3.982 2.228-.418 4.439-.373 6.417.828z"
                      fill="url(#SVGID_40_)"/>
            </g>
        </g>
    </g>
</svg>