<!--
  - Copyright (c) 2023. Selldone® Business OS™
  -
  - Author: M.Pajuhaan
  - Web: https://selldone.com
  - ━━━━━━━━━━━━━━━━━━━━━━━━━━━━━━━━━━━━━━━━━━━━━━━━━━━━━━
  -
  - All rights reserved. In the weave of time, where traditions and innovations intermingle, this content was crafted.
  - From the essence of thought, through the corridors of creativity, each word, and sentiment has been molded.
  - Not just to exist, but to inspire. Like an artist's stroke or a sculptor's chisel, every nuance is deliberate.
  - Our journey is not just about reaching a destination, but about creating a masterpiece.
  - Tread carefully, for you're treading on dreams.
  -->

<svg id="Capa_1" enable-background="new 0 0 510 510" height="512" viewBox="0 0 510 510" width="512" xmlns="http://www.w3.org/2000/svg" xmlns:xlink="http://www.w3.org/1999/xlink"><linearGradient id="lg1"><stop offset="0" stop-color="#534854"/><stop offset="1" stop-color="#342434"/></linearGradient><linearGradient id="SVGID_1_" gradientUnits="userSpaceOnUse" x1="109.898" x2="170.915" xlink:href="#lg1" y1="197.107" y2="197.107"/><linearGradient id="SVGID_2_" gradientUnits="userSpaceOnUse" x1="339.085" x2="400.102" xlink:href="#lg1" y1="197.107" y2="197.107"/><linearGradient id="lg2"><stop offset="0" stop-color="#f8f6fb"/><stop offset="1" stop-color="#efdcfb"/></linearGradient><linearGradient id="SVGID_3_" gradientTransform="matrix(-.92 .392 -.392 -.92 -1258.289 -188.641)" gradientUnits="userSpaceOnUse" x1="-1074.938" x2="-1074.938" xlink:href="#lg2" y1="-1066.044" y2="-1045.249"/><linearGradient id="SVGID_4_" gradientTransform="matrix(-.92 .392 -.392 -.92 -1258.289 -188.641)" gradientUnits="userSpaceOnUse" x1="-1092.483" x2="-1052.429" xlink:href="#lg1" y1="-978.013" y2="-978.013"/><linearGradient id="lg3"><stop offset="0" stop-color="#ffd945"/><stop offset="1" stop-color="#ffa325"/></linearGradient><linearGradient id="SVGID_5_" gradientTransform="matrix(-.92 .392 -.392 -.92 -1258.289 -188.641)" gradientUnits="userSpaceOnUse" x1="-1076.466" x2="-1072.652" xlink:href="#lg3" y1="-1047.137" y2="-1025.962"/><linearGradient id="SVGID_6_" gradientTransform="matrix(-.92 .392 -.392 -.92 -1258.289 -188.641)" gradientUnits="userSpaceOnUse" x1="-1076.093" x2="-1057.053" xlink:href="#lg3" y1="-933.962" y2="-914.922"/><linearGradient id="SVGID_7_" gradientTransform="matrix(-.92 .392 -.392 -.92 -1258.289 -188.641)" gradientUnits="userSpaceOnUse" x1="-1066.53" x2="-1083.603" xlink:href="#lg3" y1="-913.687" y2="-930.76"/><linearGradient id="SVGID_8_" gradientTransform="matrix(.92 -.392 .392 .92 1666.921 -168.625)" gradientUnits="userSpaceOnUse" x1="-1601.028" x2="-1613.833" xlink:href="#lg3" y1="-237.395" y2="-250.2"/><linearGradient id="SVGID_9_" gradientTransform="matrix(-.92 .392 -.392 -.92 -1258.289 -188.641)" gradientUnits="userSpaceOnUse" x1="-1080.207" x2="-1069.63" xlink:href="#lg2" y1="-1022.148" y2="-1011.571"/><linearGradient id="SVGID_10_" gradientTransform="matrix(-.92 .392 -.392 -.92 -1258.289 -188.641)" gradientUnits="userSpaceOnUse" x1="-1080.208" x2="-1069.632" xlink:href="#lg2" y1="-989.598" y2="-979.021"/><linearGradient id="SVGID_11_" gradientTransform="matrix(-.92 .392 -.392 -.92 -1258.289 -188.641)" gradientUnits="userSpaceOnUse" x1="-1080.21" x2="-1069.633" xlink:href="#lg2" y1="-957.048" y2="-946.471"/><linearGradient id="SVGID_12_" gradientUnits="userSpaceOnUse" x1="241.389" x2="302.729" xlink:href="#lg1" y1="430.1" y2="564.281"/><radialGradient id="SVGID_13_" cx="190.583" cy="80.245" gradientUnits="userSpaceOnUse" r="200.724"><stop offset="0" stop-color="#ffdecf"/><stop offset=".3753" stop-color="#ffdccd"/><stop offset=".5809" stop-color="#fed5c5"/><stop offset=".7453" stop-color="#fdc9b7"/><stop offset=".8871" stop-color="#fcb9a4"/><stop offset="1" stop-color="#faa68e"/></radialGradient><linearGradient id="SVGID_14_" gradientUnits="userSpaceOnUse" x1="255" x2="255" y1="205.285" y2="242.484"><stop offset="0" stop-color="#faa68e" stop-opacity="0"/><stop offset="1" stop-color="#faa68e"/></linearGradient><linearGradient id="lg4"><stop offset="0" stop-color="#534854" stop-opacity="0"/><stop offset="1" stop-color="#0a0007"/></linearGradient><linearGradient id="SVGID_15_" gradientUnits="userSpaceOnUse" x1="255" x2="255" xlink:href="#lg4" y1="437.136" y2="531.804"/><linearGradient id="SVGID_16_" gradientUnits="userSpaceOnUse" x1="249.36" x2="220.103" xlink:href="#lg1" y1="381.256" y2="477.308"/><linearGradient id="SVGID_17_" gradientUnits="userSpaceOnUse" x1="157.783" x2="331.464" xlink:href="#lg1" y1="321.2" y2="372.368"/><linearGradient id="SVGID_18_" gradientUnits="userSpaceOnUse" x1="336.948" x2="284.69" xlink:href="#lg4" y1="427.587" y2="294.733"/><linearGradient id="SVGID_19_" gradientUnits="userSpaceOnUse" x1="175.808" x2="345.059" xlink:href="#lg1" y1="132.524" y2="195.436"/><linearGradient id="SVGID_20_" gradientUnits="userSpaceOnUse" x1="255" x2="255" xlink:href="#lg4" y1="224.174" y2="282.669"/><linearGradient id="SVGID_21_" gradientUnits="userSpaceOnUse" x1="186.978" x2="214.475" xlink:href="#lg1" y1="180.889" y2="208.386"/><linearGradient id="lg5"><stop offset="0" stop-color="#bdc2d1" stop-opacity="0"/><stop offset=".3183" stop-color="#c1c6d4" stop-opacity=".318"/><stop offset=".6082" stop-color="#ccd0dd" stop-opacity=".608"/><stop offset=".8861" stop-color="#dee2ec" stop-opacity=".886"/><stop offset="1" stop-color="#e8ecf4"/></linearGradient><linearGradient id="SVGID_22_" gradientUnits="userSpaceOnUse" x1="192.474" x2="177.073" xlink:href="#lg5" y1="185.304" y2="163.103"/><linearGradient id="SVGID_23_" gradientUnits="userSpaceOnUse" x1="195.659" x2="224.842" xlink:href="#lg4" y1="196.969" y2="142.692"/><linearGradient id="SVGID_24_" gradientUnits="userSpaceOnUse" x1="307.135" x2="334.633" xlink:href="#lg1" y1="180.889" y2="208.386"/><linearGradient id="SVGID_25_" gradientUnits="userSpaceOnUse" x1="312.631" x2="297.23" xlink:href="#lg5" y1="185.304" y2="163.103"/><linearGradient id="SVGID_26_" gradientUnits="userSpaceOnUse" x1="315.816" x2="344.999" xlink:href="#lg4" y1="196.969" y2="142.692"/><linearGradient id="SVGID_27_" gradientUnits="userSpaceOnUse" x1="271.603" x2="364.417" xlink:href="#lg4" y1="168.13" y2="202.63"/><g><g><circle cx="140.406" cy="197.107" fill="url(#SVGID_1_)" r="30.509"/><circle cx="369.594" cy="197.107" fill="url(#SVGID_2_)" r="30.509"/></g><g><path d="m122.27 354.322 33.623-14.342c1.419-.605 3.061.054 3.667 1.474l7.855 18.964c.605 1.42-.054 3.061-1.474 3.667l-33.623 14.342c-1.419.605-3.061-.054-3.667-1.474l-7.855-18.964c-.605-1.42.055-3.062 1.474-3.667z" fill="url(#SVGID_3_)"/><path d="m89.988 231.687c10.385-4.43 22.394.398 26.824 10.782l40.764 95.938-37.606 16.041-40.764-95.938c-4.43-10.384.398-22.394 10.782-26.823z" fill="url(#SVGID_4_)"/><path d="m110.455 352.181 52.07-22.211c2.396-1.022 5.168.092 6.19 2.488 1.022 2.396-.092 5.168-2.488 6.19l-52.07 22.211c-2.396 1.022-5.168-.092-6.19-2.488-1.022-2.396.092-5.167 2.488-6.19z" fill="url(#SVGID_5_)"/><path d="m83.471 261.649c2.522-1.076 4.197-3.475 4.421-6.208.372-4.552 3.185-8.749 7.679-10.666s9.47-1.043 13.014 1.839c2.127 1.73 5.018 2.182 7.541 1.106l.48-.205c1.776-.758 2.602-2.812 1.845-4.589-4.632-10.858-17.019-16.504-28.034-12.261-11.564 4.454-17.039 17.563-12.218 28.864.869 2.041 3.23 2.991 5.272 2.12z" fill="url(#SVGID_6_)"/><circle cx="92.61" cy="237.834" fill="url(#SVGID_7_)" r="6.368"/><path d="m97.004 235.96c1.035 2.426-.093 5.232-2.519 6.267s-5.232-.093-6.267-2.519.093-5.232 2.519-6.267 5.232.092 6.267 2.519z" fill="url(#SVGID_8_)"/><g><path d="m127.625 314.099 11.297 4.541c1.655.665 2.457 2.546 1.792 4.201l-4.541 11.297c-.665 1.655-2.546 2.457-4.201 1.792l-11.297-4.541c-1.655-.665-2.457-2.546-1.792-4.201l4.541-11.297c.665-1.655 2.546-2.457 4.201-1.792z" fill="url(#SVGID_9_)"/><path d="m114.854 284.159 11.297 4.541c1.655.665 2.457 2.546 1.792 4.201l-4.541 11.297c-.665 1.655-2.546 2.457-4.201 1.792l-11.297-4.541c-1.655-.665-2.457-2.546-1.792-4.201l4.541-11.297c.665-1.655 2.546-2.457 4.201-1.792z" fill="url(#SVGID_10_)"/><path d="m102.082 254.219 11.297 4.541c1.655.665 2.457 2.546 1.792 4.201l-4.541 11.297c-.665 1.655-2.546 2.457-4.201 1.792l-11.297-4.541c-1.655-.665-2.457-2.546-1.792-4.201l4.541-11.297c.666-1.655 2.546-2.457 4.201-1.792z" fill="url(#SVGID_11_)"/></g></g><path d="m354.481 354.061h-198.962c-43.671 0-79.073 35.402-79.073 79.073v69.035c0 4.325 3.506 7.831 7.832 7.831h341.445c4.325 0 7.831-3.506 7.831-7.831v-69.035c0-43.671-35.403-79.073-79.073-79.073z" fill="url(#SVGID_12_)"/><path d="m255 351.246c-63.289 0-114.594-51.306-114.594-114.594v-120.562c0-63.289 51.305-114.594 114.594-114.594 63.288 0 114.594 51.306 114.594 114.594v120.562c0 63.288-51.305 114.594-114.594 114.594z" fill="url(#SVGID_13_)"/><path d="m261.51 269.246h-13.02c-10.434 0-18.563-9.05-17.447-19.424l6.807-63.279h34.299l6.807 63.279c1.117 10.374-7.012 19.424-17.446 19.424z" fill="url(#SVGID_14_)"/><path d="m114.049 411.371h281.901v98.629h-281.901z" fill="url(#SVGID_15_)"/><path d="m179.659 421.043 28.522 9.53c30.387 10.153 63.25 10.153 93.637 0l28.522-9.53c14.477-4.837 26.886-14.745 34.135-28.178.373-.692.735-1.392 1.085-2.102 4.661-9.509 7.221-20.658 7.44-34.499-5.943-1.427-12.14-2.203-18.52-2.203h-198.961c-6.381 0-12.577.776-18.52 2.203.219 13.841 2.78 24.99 7.44 34.499.35.71.712 1.41 1.085 2.102 7.249 13.433 19.658 23.341 34.135 28.178z" fill="url(#SVGID_16_)"/><path d="m293.687 309.373c-.051-.544-.084-1.088-.101-1.631-.034-.658-.051-1.317-.051-1.975v-21.652h-38.535-38.536v21.652c0 .658-.017 1.317-.05 1.975-.017.544-.051 1.088-.101 1.631-2.173 24.987-26.734 44.693-56.702 44.693 0 11.921 2.089 21.409 6.031 29.452.283.573.575 1.14.877 1.699 5.859 10.857 15.888 18.864 27.589 22.774l23.053 7.702c24.559 8.206 51.121 8.206 75.68 0l23.053-7.702c11.701-3.91 21.73-11.917 27.589-22.774.302-.559.594-1.125.877-1.699 3.942-8.043 6.031-17.531 6.031-29.452-29.97 0-54.531-19.706-56.704-44.693z" fill="url(#SVGID_17_)"/><path d="m354.481 354.061h-4.321c-29.863-.101-54.305-19.766-56.472-44.688-.051-.544-.084-1.088-.101-1.631-.034-.658-.05-1.317-.05-1.975v-21.652h-38.537-38.536v21.652c0 .658-.017 1.317-.05 1.975-.017.544-.051 1.088-.101 1.631-.97 11.155-6.412 21.249-14.795 29.015l171.612 171.612h52.592c4.325 0 7.832-3.506 7.832-7.831v-69.035c0-43.671-35.402-79.073-79.073-79.073z" fill="url(#SVGID_18_)"/><path d="m369.39 30.733c6.423-14.453-4.156-30.733-19.973-30.733h-94.42c-63.83 0-115.574 51.744-115.574 115.574v121.594c0 63.83 51.744 115.574 115.574 115.574 63.83 0 115.574-51.744 115.574-115.574v-121.594c0-26.415-2.52-48.32-4.41-61.035-1.2-8.071-.1-16.317 3.214-23.774zm-22.7 199.766c-61.197 6.335-122.19 6.334-183.386 0-7.114-.736-12.23-7.189-11.334-14.285 2.458-19.458 4.916-38.917 7.375-58.375.867-6.867 7.058-11.772 13.944-11.071 54.561 5.552 108.856 5.552 163.417 0 6.886-.701 13.076 4.204 13.944 11.071 2.458 19.459 4.916 38.917 7.374 58.376.896 7.094-4.221 13.547-11.334 14.284z" fill="url(#SVGID_19_)"/><path d="m232.695 234.463-1.652 15.359c-1.116 10.374 7.013 19.424 17.447 19.424h13.02c10.434 0 18.563-9.05 17.447-19.424l-1.652-15.359c-14.871.379-29.739.379-44.61 0z" fill="url(#SVGID_20_)"/><g><g><g><circle cx="194.921" cy="188.832" fill="url(#SVGID_21_)" r="21.231"/><path d="m212.64 188.832c0 9.786-7.933 17.719-17.719 17.719s-17.719-7.933-17.719-17.719 7.933-17.719 17.719-17.719 17.719 7.933 17.719 17.719z" fill="url(#SVGID_22_)"/><path d="m204.419 169.84c1.432 2.858 2.239 6.083 2.239 9.497 0 11.726-9.506 21.231-21.231 21.231-3.414 0-6.64-.807-9.497-2.239 3.486 6.957 10.68 11.734 18.992 11.734 11.726 0 21.231-9.506 21.231-21.231 0-8.311-4.777-15.506-11.734-18.992z" fill="url(#SVGID_23_)"/></g></g><g><g><circle cx="315.079" cy="188.832" fill="url(#SVGID_24_)" r="21.231"/><circle cx="315.079" cy="188.832" fill="url(#SVGID_25_)" r="17.719"/><path d="m324.576 169.84c1.432 2.858 2.239 6.083 2.239 9.497 0 11.726-9.506 21.231-21.231 21.231-3.414 0-6.639-.807-9.497-2.239 3.486 6.957 10.681 11.734 18.992 11.734 11.725 0 21.231-9.506 21.231-21.231 0-8.311-4.777-15.506-11.734-18.992z" fill="url(#SVGID_26_)"/></g></g></g><path d="m369.375 30.765.015-.033c6.423-14.452-4.156-30.732-19.973-30.732h-18.287c.296 3.496-.252 7.147-1.827 10.69l-.015.033c-3.314 7.457-4.414 15.703-3.214 23.774 1.89 12.714 4.41 34.62 4.41 61.035v51.83c2.073-.195 4.146-.383 6.22-.594 6.886-.701 13.076 4.204 13.944 11.071 2.458 19.459 4.916 38.917 7.374 58.376.896 7.095-4.22 13.548-11.334 14.285-5.724.593-11.447 1.111-17.168 1.593-7.34 56.759-55.853 100.607-114.611 100.607-10.6 0-20.864-1.435-30.616-4.107 19.544 15.136 44.068 24.15 70.701 24.15 63.83 0 115.574-51.744 115.574-115.574v-121.595c0-26.415-2.52-48.32-4.41-61.035-1.197-8.071-.097-16.317 3.217-23.774z" fill="url(#SVGID_27_)"/></g></svg>