<svg id="Layer_1" enable-background="new 0 0 512 512" height="512" viewBox="0 0 512 512" width="512" xmlns="http://www.w3.org/2000/svg"><g><path d="m299.304 3.816-94.262 1.506c-110.849 23.453-194.041 121.843-194.041 239.677 0 135.309 109.69 244.999 244.999 244.999s244.999-109.69 244.999-244.999c0-120.532-87.04-220.735-201.695-241.183z" fill="#746bf9"/><path d="m85.136 383.505v98.265c0 16.627 13.604 30.23 30.23 30.23h281.266c16.627 0 30.23-13.604 30.23-30.23v-98.265z" fill="#5f5f9b"/><path d="m165.822 483.962-3.627-100.458h-77.059v98.265c0 16.627 13.603 30.23 30.23 30.23h50.456c-14.66-14.659 0-28.037 0-28.037z" fill="#47477f"/><path d="m398.826 383.505h-285.652v91.766c0 4.801 3.891 8.692 8.692 8.692h268.267c4.801 0 8.693-3.892 8.693-8.692z" fill="#3b3868"/><g><path d="m153.246 471.387v-52.763c0-4.19 2.085-7.91 5.26-10.198v-24.921h-45.332v91.766c0 4.801 3.891 8.692 8.692 8.692h43.956c-6.917-.001-12.576-5.66-12.576-12.576z" fill="#2d2d59"/></g><path d="m272.204 208.338c-6.943 0-12.623-5.68-12.623-12.623 0 6.943-5.68 12.623-12.623 12.623-6.706 0-12.233-5.3-12.602-11.919v-.995c0 6.545-4.867 12.222-11.381 12.854-7.494.727-13.865-5.21-13.865-12.563 0-3.258 0-90.399 0-92.889v-31.31h85.822v9.521c0 4.427 1.632 8.676 4.505 12.043 6.694 7.845 10.614 17.971 10.614 28.784v73.85c0 7.352-6.37 13.289-13.865 12.563-6.514-.632-11.381-6.309-11.381-12.854v.995c-.368 6.62-5.895 11.92-12.601 11.92z" fill="#fcad6d"/><g><path d="m355.028 241.928c-3.69 0-6.923-2.7-7.483-6.459-2.896-19.428-12.967-36.963-28.356-49.375-1.887-1.522-3.975-2.862-6.205-3.984-3.737-1.88-5.243-6.434-3.363-10.172 1.881-3.737 6.434-5.243 10.172-3.363 3.188 1.604 6.185 3.53 8.907 5.726 18.358 14.805 30.372 35.735 33.831 58.933.617 4.138-2.238 7.992-6.375 8.609-.38.058-.757.085-1.128.085z" fill="#e9efff"/></g><g><path d="m345.436 191.821c-4.757-6.468-10.353-12.371-16.738-17.52-2.722-2.195-5.719-4.122-8.907-5.726-3.738-1.88-8.291-.374-10.172 3.363-1.88 3.738-.374 8.291 3.363 10.172 2.23 1.122 4.318 2.462 6.205 3.984 5.64 4.549 10.557 9.791 14.677 15.556-.9-6.597 5.346-11.749 11.572-9.829z" fill="#bec9f7"/></g><g><path d="m156.972 241.928c-.371 0-.748-.027-1.126-.084-4.138-.617-6.992-4.471-6.375-8.609 3.458-23.199 15.472-44.128 33.83-58.933 2.722-2.196 5.719-4.122 8.907-5.725 3.737-1.882 8.291-.374 10.171 3.364s.374 8.291-3.364 10.171c-2.229 1.121-4.317 2.462-6.204 3.983-15.39 12.412-25.46 29.947-28.356 49.375-.56 3.758-3.793 6.458-7.483 6.458z" fill="#bec9f7"/></g><path d="m310.535 178.393h-109.07c-6.531 0-11.88-5.028-12.409-11.423h-.052v18.623c0 6.882 5.579 12.461 12.461 12.461h109.07c6.882 0 12.461-5.579 12.461-12.461v-18.623h-.052c-.53 6.395-5.878 11.423-12.409 11.423z" fill="#47477f"/><path d="m310.535 179.431h-109.07c-6.882 0-12.461-5.579-12.461-12.461 0-6.882 5.579-12.461 12.461-12.461h109.07c6.882 0 12.461 5.579 12.461 12.461 0 6.882-5.579 12.461-12.461 12.461z" fill="#5f5f9b"/><path d="m246.958 209.436c6.942 0 12.623-5.68 12.623-12.623v-35.536c0-6.943-5.68-12.623-12.623-12.623s-12.623 5.68-12.623 12.623v35.536c0 6.942 5.68 12.623 12.623 12.623z" fill="#fcad6d"/><path d="m272.204 209.436c6.943 0 12.623-5.68 12.623-12.623v-35.536c0-6.943-5.68-12.623-12.623-12.623-6.942 0-12.623 5.68-12.623 12.623v35.536c0 6.942 5.68 12.623 12.623 12.623z" fill="#fcad6d"/><path d="m221.733 209.436c6.943 0 12.623-5.68 12.623-12.623v-35.536c0-6.943-5.68-12.623-12.623-12.623s-12.623 5.68-12.623 12.623v35.536c0 6.942 5.68 12.623 12.623 12.623z" fill="#fcad6d"/><path d="m209.11 161.277v20.518c1.993-5.027 6.909-8.607 12.623-8.607s10.63 3.581 12.623 8.607v-20.518c0-6.943-5.68-12.623-12.623-12.623s-12.623 5.681-12.623 12.623z" fill="#fd995b"/><path d="m297.429 209.436c6.943 0 12.623-5.68 12.623-12.623v-35.536c0-6.943-5.68-12.623-12.623-12.623s-12.623 5.68-12.623 12.623v35.536c0 6.942 5.68 12.623 12.623 12.623z" fill="#fcad6d"/><path d="m234.335 161.277v20.518c1.993-5.027 6.909-8.607 12.623-8.607s10.63 3.581 12.623 8.607v-20.518c0-6.943-5.68-12.623-12.623-12.623s-12.623 5.681-12.623 12.623z" fill="#fd995b"/><path d="m259.581 161.277v20.518c1.993-5.027 6.909-8.607 12.623-8.607s10.63 3.581 12.623 8.607v-20.518c0-6.943-5.68-12.623-12.623-12.623s-12.623 5.681-12.623 12.623z" fill="#fd995b"/><path d="m284.806 161.277v20.518c1.993-5.027 6.909-8.607 12.623-8.607s10.63 3.58 12.623 8.607v-20.518c0-6.943-5.68-12.623-12.623-12.623s-12.623 5.681-12.623 12.623z" fill="#fd995b"/><path d="m234.487 174.844-36.046-11.189c-3.997-1.241-7.196-4.253-8.671-8.169-3.957-10.505-7.756-33.292 13.713-64.691 3.305-4.834 5.101-10.543 5.101-16.399v-2.879h36.933v24.724c0 35.491-28.518 45.369-28.518 45.369 29.805 5.624 29.601 20.755 27.909 27.459-1.118 4.434-5.87 7.188-10.421 5.775z" fill="#fcad6d"/><path d="m204.342 165.477 14.422 4.477c8.139-14.047 20.085-7.478 26.497-2.291 1.287-7.223-.348-20.789-28.213-26.047l-3.889 1.347c9.595 17.044-8.817 22.514-8.817 22.514z" fill="#fd995b"/><path d="m244.957 169.075c.124-.49.239-1.026.335-1.599-6.315-5.266-18.548-12.377-26.726 2.416l15.969 4.957c4.552 1.414 9.304-1.34 10.422-5.774z" fill="#fcd7c3"/><path d="m243.883 109.686c-2.073-.51-4.203.651-4.869 2.679-6.25 19.05-22.446 25.053-23.326 25.366-2.141.748-3.273 3.089-2.531 5.233.744 2.148 3.089 3.286 5.237 2.542.326-.113 8.079-2.854 15.775-10.309 4.503-4.361 9.552-10.94 12.631-20.24.753-2.269-.596-4.7-2.917-5.271z" fill="#fd995b"/><g><path d="m276.568 87.509c-10.994.057-17.317 3.361-20.828 6.443-2.74 2.404-6.71 2.762-9.8.828-8.843-5.536-26.822-12.244-47.037 5.94-.853.767-1.923 1.61-2.767 2.277 2.036-3.907 4.455-7.974 7.347-12.203 3.305-4.834 5.101-10.543 5.101-16.399v-2.879h86.348v9.521c0 4.427 1.632 8.676 4.505 12.043 2.606 3.054 4.785 6.458 6.483 10.11-3.86-5.157-13.699-15.762-29.352-15.681z" fill="#fd995b"/></g><path d="m299.304 3.816c-14.056-2.507-28.527-3.816-43.304-3.816-17.475 0-34.518 1.844-50.958 5.322v30.386h94.262z" fill="#47477f"/><path d="m299.122 31.083h-93.898c-2.544 0-4.625 2.081-4.625 4.625v32.455c0 2.544 2.081 4.625 4.625 4.625h93.898c2.544 0 4.625-2.081 4.625-4.625v-32.454c.001-2.544-2.081-4.626-4.625-4.626z" fill="#e9efff"/><path d="m252.173 68.163v-32.455c0-2.544 2.081-4.625 4.625-4.625h-51.574c-2.544 0-4.625 2.081-4.625 4.625v32.455c0 2.544 2.081 4.625 4.625 4.625h51.574c-2.543 0-4.625-2.081-4.625-4.625z" fill="#bec8f7"/><path d="m427.018 384.543h-342.037c-4.961 0-9.021-4.059-9.021-9.021v-119.173c0-12.099 9.899-21.998 21.998-21.998h316.083c12.099 0 21.998 9.899 21.998 21.998v119.173c0 4.962-4.059 9.021-9.021 9.021z" fill="#47477f"/><g><path d="m158.507 299.027c-5.245-1.493-9.12-6.329-9.12-12.036v-40.118c0-6.886 5.634-12.521 12.521-12.521h-63.95c-12.099 0-21.998 9.899-21.998 21.998v119.173c0 4.961 4.059 9.021 9.021 9.021h73.525v-85.517z" fill="#3b3868"/></g><path d="m142.119 358.386v38.422c0 7.073 5.734 12.807 12.807 12.807s12.807-5.734 12.807-12.807v-38.422z" fill="#7272af"/><path d="m167.734 333.118h-25.614v-33.394c0-1.614 1.308-2.923 2.923-2.923h19.769c1.614 0 2.923 1.309 2.923 2.923v33.394z" fill="#5f5f9b"/><path d="m344.266 358.386v38.422c0 7.073 5.734 12.807 12.807 12.807s12.807-5.734 12.807-12.807v-38.422z" fill="#7272af"/><g fill="#5f5f9b"><path d="m142.119 358.386v34.14c0-7.073 5.734-12.807 12.807-12.807s12.807 5.734 12.807 12.807v-34.14z"/><path d="m344.266 358.386v34.14c0-7.073 5.734-12.807 12.807-12.807s12.807 5.734 12.807 12.807v-34.14z"/><path d="m369.88 333.118h-25.614v-33.394c0-1.614 1.309-2.923 2.923-2.923h19.769c1.614 0 2.923 1.309 2.923 2.923v33.394z"/></g><path d="m191.744 264.582h128.512c4.919 0 8.944-4.025 8.944-8.944v-21.287h-146.4v21.287c0 4.919 4.025 8.944 8.944 8.944z" fill="#3b3868"/><path d="m286.13 234.351v21.287c0 4.919-4.024 8.944-8.944 8.944h43.069c4.919 0 8.944-4.025 8.944-8.944v-21.287z" fill="#2d2d59"/><g><path d="m323.278 345.752c0-11.143 9.066-20.209 20.209-20.209h27.172c11.143 0 20.209 9.066 20.209 20.209s-9.066 20.209-20.209 20.209h-27.172c-11.143 0-20.209-9.066-20.209-20.209zm20.209-5.059c-2.742 0-5.059 2.317-5.059 5.059s2.317 5.059 5.059 5.059h27.172c2.742 0 5.059-2.317 5.059-5.059s-2.317-5.059-5.059-5.059z" fill="#bec8f7"/></g><path d="m357.667 350.811h12.733c2.372 0 4.569-1.523 5.16-3.821.834-3.245-1.753-6.297-4.901-6.297h-12.992c-4.184 0-7.575-3.391-7.575-7.575 0-4.184 3.392-7.575 7.575-7.575h12.495c10.944 0 20.278 8.494 20.691 19.43.435 11.497-8.793 20.988-20.194 20.988h-12.992c-4.184 0-7.575-3.392-7.575-7.575 0-4.183 3.392-7.575 7.575-7.575z" fill="#e9efff"/><g><path d="m121.131 345.752c0-11.143 9.066-20.209 20.209-20.209h27.172c11.143 0 20.209 9.066 20.209 20.209s-9.066 20.209-20.209 20.209h-27.172c-11.143 0-20.209-9.066-20.209-20.209zm20.21-5.059c-2.742 0-5.059 2.317-5.059 5.059s2.317 5.059 5.059 5.059h27.172c2.742 0 5.059-2.317 5.059-5.059s-2.317-5.059-5.059-5.059z" fill="#bec8f7"/></g><path d="m155.521 350.811h12.733c2.372 0 4.569-1.523 5.16-3.821.834-3.245-1.753-6.297-4.901-6.297h-12.992c-4.184 0-7.575-3.391-7.575-7.575 0-4.184 3.392-7.575 7.575-7.575h12.495c10.944 0 20.277 8.494 20.691 19.43.435 11.497-8.793 20.988-20.195 20.988h-12.992c-4.184 0-7.575-3.392-7.575-7.575.001-4.183 3.392-7.575 7.576-7.575z" fill="#e9efff"/></g></svg>