<?xml version="1.0" encoding="iso-8859-1"?>
<!-- Generator: Adobe Illustrator 19.0.0, SVG Export Plug-In . SVG Version: 6.00 Build 0)  -->
<svg version="1.1" id="Capa_1" xmlns="http://www.w3.org/2000/svg" xmlns:xlink="http://www.w3.org/1999/xlink" x="0px" y="0px"
	 viewBox="0 0 511.868 511.868" style="enable-background:new 0 0 511.868 511.868;" xml:space="preserve">
<path style="fill:#C2185B;" d="M243.401,45.734c-42.667,42.667-55.467,103.467-39.467,156.8l-24.533,24.534l104.533,104.533
	l24.533-24.533c54.4,16,115.2,3.2,156.8-39.467c61.867-61.867,61.867-161.067,0-222.933
	C404.468-15.066,305.268-15.066,243.401,45.734z M416.201,218.534L293.535,95.868c34.133-34.133,89.6-34.133,123.733,0
	C450.335,130.001,450.335,184.401,416.201,218.534z"/>
<polygon style="fill:#E91E63;" points="89.801,499.068 90.868,459.601 131.401,458.534 147.401,441.468 148.468,400.934
	189.001,399.868 214.601,374.268 215.668,334.801 256.201,332.668 270.068,318.801 193.268,242.001 0.201,435.068 0.201,511.868 
	77.001,511.868 "/>
<g>
</g>
<g>
</g>
<g>
</g>
<g>
</g>
<g>
</g>
<g>
</g>
<g>
</g>
<g>
</g>
<g>
</g>
<g>
</g>
<g>
</g>
<g>
</g>
<g>
</g>
<g>
</g>
<g>
</g>
</svg>
