<?xml version="1.0" encoding="iso-8859-1"?>


<svg xmlns:xlink="http://www.w3.org/1999/xlink" version="1.1" id="Capa_1" xmlns="http://www.w3.org/2000/svg" x="0px"
     y="0px"
     viewBox="0 0 512 512" style="enable-background:new 0 0 512 512;" xml:space="preserve">
<path style="fill:#A44F3E;" d="M511.5,299.299V467c0,24.899-20.099,45-45,45h-121c-24.901,0-45-20.101-45-45V314.299L395.299,242
	h58.902c9.899,0,19.499,3.3,27.299,9.6c1.5,0.899,2.999,2.1,4.501,3.6l12.299,12.299C506.701,276.2,511.5,287.3,511.5,299.299z"/>
    <path style="fill:#6D3326;" d="M511.5,299.299V467c0,24.899-20.099,45-45,45h-61V242h48.701c9.899,0,19.499,3.3,27.299,9.6
	c1.5,0.899,2.999,2.1,4.501,3.6l12.299,12.299C506.701,276.2,511.5,287.3,511.5,299.299z"/>
    <path style="fill:#FFD400;" d="M386.6,95.9c-14.37-14.453-31.307-24.567-49.274-31.108c-9.756-3.552-19.801-5.735-30.004-6.954
	c-39.661-4.739-81.021,7.56-111.522,38.062c-31.8,31.5-45,77.399-36.601,121.199L5.001,371.6c-1.501,1.199-2.701,2.999-3.301,4.799
	c-0.899,1.8-1.199,3.6-1.199,5.7V467c0,4.2,1.8,7.8,4.501,10.499C7.7,480.2,11.3,482,15.5,482H100.4c8.099,0,15-6.601,15-15v-27.301
	h27.299c8.401,0,14.815-6.899,14.815-15V398h27.785c3.9,0,7.8-1.5,10.501-4.501l69.6-70.2c43.5,8.401,89.399-4.799,121.199-36.599
	C439.4,234.2,439.4,148.4,386.6,95.9z M344.301,201.799c-8.701,8.701-20.4,13.2-31.8,13.2s-23.101-4.499-31.8-13.2
	c-9.001-8.699-13.2-20.4-13.2-31.8s4.499-23.101,13.2-31.8c5.458-5.458,12.458-8.589,19.799-10.589
	c3.955-1.078,7.905-32.311,12.001-32.311c6.193,0.159,12.294,31.582,17.999,33.972c5.07,2.124,9.847,4.975,13.801,8.928
	c8.699,8.699,13.2,20.4,13.2,31.8S353,193.1,344.301,201.799z"/>
    <path style="fill:#FF9F00;" d="M386.6,286.7c-31.8,31.8-77.699,45-121.199,36.599l-69.6,70.2c-2.701,3.001-6.601,4.501-10.501,4.501
	h-27.785v26.699c0,8.101-6.414,15-14.815,15H115.4V467c0,8.399-6.901,15-15,15H15.5c-4.2,0-7.8-1.8-10.499-4.501l275.7-275.7
	c8.699,8.701,20.4,13.2,31.8,13.2s23.099-4.499,31.8-13.2c8.699-8.699,13.2-20.4,13.2-31.8s-4.501-23.101-13.2-31.8L386.6,95.9
	C439.4,148.4,439.4,234.2,386.6,286.7z"/>
    <path style="fill:#FF9100;" d="M238.098,265.399l-63.6,63.6C171.8,332,167.9,333.5,163.999,333.5s-7.8-1.5-10.501-4.501
	c-5.999-5.7-5.999-15.298,0-20.999l63.6-63.602c5.7-5.999,15.3-5.999,21,0C244.1,250.099,244.1,259.699,238.098,265.399z"/>
    <path style="fill:#6D3326;" d="M451.5,437c0,8.399-7.599,15-16,15h-60c-8.401,0-15-6.601-15-15c0-8.401,6.599-15,15-15h60
	C443.901,422,451.5,428.599,451.5,437z"/>
    <path style="fill:#FF7816;" d="M238.098,265.399l-63.6,63.6C171.8,332,167.9,333.5,163.999,333.5s-7.8-1.5-10.501-4.501l84.6-84.6
	C244.1,250.099,244.1,259.699,238.098,265.399z"/>
    <path style="fill:#384949;" d="M481.5,92v159.6c-7.8-6.301-17.401-9.6-27.299-9.6H451.5V92c0-27.9-20.2-53.301-46-59.9
	c-4.799-1.501-9.901-2.1-15-2.1c-23.101,0-43.2,15.5-53.101,34.699C333.201,73.1,330.5,82.099,330.5,92v37.2
	c-5.7-2.401-11.7-3.6-17.999-3.9c-4.2,0-8.101,1.199-12.001,2.401V92c0-12.001,2.401-23.701,6.899-34.2C320.9,25.099,353,0,390.5,0
	c5.099,0,10.201,0.3,15,1.5C448.099,8.399,481.5,47.599,481.5,92z"/>
    <path style="fill:#293939;" d="M481.5,92v159.6c-7.8-6.301-17.401-9.6-27.299-9.6H451.5V92c0-27.9-20.2-53.301-46-59.9V1.5
	C448.099,8.399,481.5,47.599,481.5,92z"/>
    <path style="fill:#55271A;" d="M451.5,437c0,8.399-7.599,15-16,15h-30v-30h30C443.901,422,451.5,428.599,451.5,437z"/>
    <g>
</g>
    <g>
</g>
    <g>
</g>
    <g>
</g>
    <g>
</g>
    <g>
</g>
    <g>
</g>
    <g>
</g>
    <g>
</g>
    <g>
</g>
    <g>
</g>
    <g>
</g>
    <g>
</g>
    <g>
</g>
    <g>
</g>
</svg>
