<!--
  - Copyright (c) 2023. Selldone® Business OS™
  -
  - Author: M.Pajuhaan
  - Web: https://selldone.com
  - ━━━━━━━━━━━━━━━━━━━━━━━━━━━━━━━━━━━━━━━━━━━━━━━━━━━━━━
  -
  - All rights reserved. In the weave of time, where traditions and innovations intermingle, this content was crafted.
  - From the essence of thought, through the corridors of creativity, each word, and sentiment has been molded.
  - Not just to exist, but to inspire. Like an artist's stroke or a sculptor's chisel, every nuance is deliberate.
  - Our journey is not just about reaching a destination, but about creating a masterpiece.
  - Tread carefully, for you're treading on dreams.
  -->

<svg height="512pt" viewBox="0 0 512 512" width="512pt" xmlns="http://www.w3.org/2000/svg" xmlns:xlink="http://www.w3.org/1999/xlink"><linearGradient id="linear0" gradientUnits="userSpaceOnUse" x1="137.1104463656" x2="203.365985423" y1="373.4819738138" y2="457.8072053414"><stop offset="0" stop-color="#ffb5b0"/><stop offset="1" stop-color="#ff70ac"/></linearGradient><linearGradient id="linear1" gradientUnits="userSpaceOnUse" x1="347.1809240812" x2="231.2336554366" y1="409.9321730054" y2="313.560479831"><stop offset="0" stop-color="#af9ce6"/><stop offset="1" stop-color="#ff70ac"/></linearGradient><linearGradient id="linear2" gradientUnits="userSpaceOnUse" x1="396.9873015608" x2="531.0041622834" y1="272.4034927346" y2="454.6062000444"><stop offset="0" stop-color="#af9ce6"/><stop offset=".1591" stop-color="#ab9ce7"/><stop offset=".3136" stop-color="#9f9be8"/><stop offset=".4663" stop-color="#8c9beb"/><stop offset=".6178" stop-color="#709aef"/><stop offset=".7686" stop-color="#4d99f5"/><stop offset=".9167" stop-color="#2297fb"/><stop offset="1" stop-color="#0796ff"/></linearGradient><linearGradient id="lg1"><stop offset="0" stop-color="#4f4a72"/><stop offset="1" stop-color="#3b395f"/></linearGradient><linearGradient id="linear3" gradientTransform="matrix(0 1.003922 -1.003922 0 -1237.033964 -1453.920176)" gradientUnits="userSpaceOnUse" x1="1898.9861" x2="1935.7094" xlink:href="#lg1" y1="-1487.2018" y2="-1487.2018"/><linearGradient id="linear4" gradientUnits="userSpaceOnUse" x1="122.5938346378" x2="43.0840153754" y1="505.7821279164" y2="426.272308654"><stop offset="0" stop-color="#b53759" stop-opacity="0"/><stop offset="1" stop-color="#ffb5b0"/></linearGradient><linearGradient id="linear5" gradientUnits="userSpaceOnUse" x1="60.6904982348" x2="97.5578270174" xlink:href="#lg1" y1="256.00011" y2="256.00011"/><radialGradient id="radial0" cx="151.2397449858" cy="-51.609120215" gradientUnits="userSpaceOnUse" r="492.958329465"><stop offset="0" stop-color="#00e7b2"/><stop offset=".4108" stop-color="#01e5b1"/><stop offset=".5587" stop-color="#04deae"/><stop offset=".6642" stop-color="#0ad3aa"/><stop offset=".7495" stop-color="#13c2a3"/><stop offset=".8225" stop-color="#1eac9a"/><stop offset=".8872" stop-color="#2c908f"/><stop offset=".9442" stop-color="#3b7182"/><stop offset=".9964" stop-color="#4e4d73"/><stop offset="1" stop-color="#4f4a72"/></radialGradient><path d="m210.824219 455.78125h-94.371094v-93.292969c0-6.03125 4.890625-10.917969 10.917969-10.917969h72.535156c6.027344 0 10.917969 4.886719 10.917969 10.917969zm0 0" fill="url(#linear0)"/><path d="m351.371094 455.78125h-94.367188v-158.042969c0-6.03125 4.886719-10.917969 10.917969-10.917969h72.53125c6.03125 0 10.917969 4.886719 10.917969 10.917969zm0 0" fill="url(#linear1)"/><path d="m491.921875 455.78125h-94.367187v-233.332031c0-6.03125 4.886718-10.917969 10.914062-10.917969h72.535156c6.03125 0 10.917969 4.886719 10.917969 10.917969zm0 0" fill="url(#linear2)"/><path d="m0 464.816406c0-9.085937 7.363281-16.445312 16.445312-16.445312h479.109376c9.082031 0 16.445312 7.363281 16.445312 16.445312 0 9.082032-7.363281 16.445313-16.445312 16.445313h-479.109376c-9.082031 0-16.445312-7.363281-16.445312-16.445313zm0 0" fill="url(#linear3)"/><path d="m74.144531 481.261719h47.859375l-32.894531-32.894531h-14.964844zm0 0" fill="url(#linear4)"/><path d="m72.992188 512c-9.082032 0-16.445313-7.363281-16.445313-16.445312v-479.109376c0-9.082031 7.363281-16.445312 16.445313-16.445312 9.085937 0 16.445312 7.363281 16.445312 16.445312v479.109376c0 9.082031-7.359375 16.445312-16.445312 16.445312zm0 0" fill="url(#linear5)"/><path d="m483.894531 22.019531-72.941406 39.699219c-12.792969 6.960938-13.328125 25.132812-.964844 32.835938l19.046875 11.875c-25.207031 34.351562-57.332031 64.992187-95.898437 91.382812-40.726563 27.863281-88.6875 51.113281-142.554688 69.09375-22.800781 7.613281-44.761719 13.628906-64.925781 18.375-8.832031 2.078125-15.074219 9.945312-15.074219 19.019531 0 12.601563 11.746094 21.925781 24.007813 19.027344 20.867187-4.929687 43.605468-11.167969 67.351562-19.054687 57.484375-19.101563 108.871094-43.964844 152.734375-73.898438 43.351563-29.585938 79.40625-64.203125 107.582031-103.238281l17.144532 10.6875c12.363281 7.707031 28.441406-.777344 29.058594-15.328125l3.519531-82.96875c.628906-14.773438-15.101563-24.574219-28.085938-17.507813zm0 0" fill="url(#radial0)"/></svg>