<svg id="Capa_1" enable-background="new 0 0 512 512" height="512" viewBox="0 0 512 512" width="512" xmlns="http://www.w3.org/2000/svg"><g><g><path clip-rule="evenodd" d="m353.597 339.97c-46.08-1.082-92.479 14.103-139.064 38.632-48.295-38.951-132.687-47.8-165.365-28.114l80.828-106.418c10.683-14.082 21.83-41.825 22.685-66.508.041-.968.062-1.926.062-2.874l.031-12.579.062-25.744.031-15.453.062-25.755.041-15.453.103-43.783h104.625l.319 138.765c.062 25.373 11.651 54.754 22.777 69.383z" fill="#f9f7f8" fill-rule="evenodd"/></g><g><path clip-rule="evenodd" d="m15.443 411.749c106.468 14.601 160.257-25.114 199.094-62.346-48.299-38.956-132.691-18.602-165.367 1.08l-13.14 17.288c-9.14 12.06-16.353 27.596-20.587 43.978z" fill="#a1d4ff" fill-rule="evenodd"/></g><g><path clip-rule="evenodd" d="m72.882 512h132.515 132.486c22.427 0 37.903-8.06 47.773-20.617 22.514-35.685 6.599-98.528-10.016-122.386l-22.047-29.027c-53.701-30.867-92.48-15.097-139.057 9.432-48.941 25.785-106.497 61.237-199.094 62.346-12.147 46.666-.466 100.252 57.44 100.252z" fill="#22a6fe" fill-rule="evenodd"/></g><g><path clip-rule="evenodd" d="m477.321 73.236v193.88c-14.052 9.375-36.829 9.375-50.839 0-14.052-9.375-36.798-9.375-50.839 0v-193.88z" fill="#f9f7f8" fill-rule="evenodd"/></g><g><path clip-rule="evenodd" d="m375.641 83.547h101.679 2.103c11.797 0 21.463-10.396 21.463-23.099 0-12.732-9.666-23.128-21.463-23.128h-105.885c-11.827 0-21.463 10.396-21.463 23.128 0 12.703 9.636 23.099 21.463 23.099z" fill="#a1d4ff" fill-rule="evenodd"/></g><g><path clip-rule="evenodd" d="m153.069 46.227h104.628 4.701c12.732 0 23.127-10.396 23.127-23.128.001-12.703-10.424-23.099-23.127-23.099h-114.031c-12.703 0-23.127 10.396-23.127 23.099 0 12.732 10.396 23.128 23.127 23.128z" fill="#a1d4ff" fill-rule="evenodd"/></g><g><path clip-rule="evenodd" d="m184.986 258.876c0 11.272 9.14 20.412 20.383 20.412 11.272 0 20.412-9.14 20.412-20.412s-9.14-20.383-20.412-20.383c-11.243 0-20.383 9.111-20.383 20.383z" fill="#a1d4ff" fill-rule="evenodd"/></g><g><path clip-rule="evenodd" d="m254.251 436.367c0 17.288 14.017 31.305 31.275 31.305 17.287 0 31.304-14.017 31.304-31.305s-14.017-31.275-31.304-31.275c-17.258-.001-31.275 13.987-31.275 31.275z" fill="#a1d4ff" fill-rule="evenodd"/></g><g><path clip-rule="evenodd" d="m109.179 472.928c10.512 0 19.039-8.527 19.039-19.04 0-10.484-8.527-19.011-19.039-19.011s-19.039 8.527-19.039 19.011c0 10.513 8.527 19.04 19.039 19.04z" fill="#a1d4ff" fill-rule="evenodd"/></g><g><path clip-rule="evenodd" d="m258.018 174.687-.321-128.46h-32.297l.321 128.46c.058 25.377 11.651 54.754 22.777 69.384l60.534 79.751c13.929 1.927 28.588 6.979 44.561 16.149l-72.799-95.9c-11.125-14.63-22.718-44.008-22.776-69.384z" fill="#dddaec" fill-rule="evenodd"/></g><g><path clip-rule="evenodd" d="m374.735 367.771-21.142-27.8c-15.973-9.169-30.632-14.221-44.561-16.149l12.294 16.149c31.538 41.583 39.334 172.029-30.427 172.029h46.985c22.427 0 37.903-8.06 47.773-20.617-6.278-8.469-10.016-18.923-10.016-30.224v-92.162z" fill="#0593fc" fill-rule="evenodd"/></g><g><path clip-rule="evenodd" d="m285.526 23.099c0-12.703-10.425-23.099-23.128-23.099h-32.209c12.673.029 23.04 10.425 23.04 23.099 0 12.732-10.396 23.128-23.127 23.128h27.595 4.701c12.732 0 23.128-10.396 23.128-23.128z" fill="#80b4fb" fill-rule="evenodd"/></g><g><path clip-rule="evenodd" d="m477.32 256.803v-173.256h-26.106v173.256 7.009c9.402.116 18.893-2.22 26.106-7.009z" fill="#dddaec" fill-rule="evenodd"/></g><g><path clip-rule="evenodd" d="m500.885 60.448c0-12.732-9.666-23.128-21.463-23.128h-26.048c11.768.029 21.405 10.425 21.405 23.128s-9.666 23.099-21.463 23.099h24.003 2.103c11.797 0 21.463-10.396 21.463-23.099z" fill="#80b4fb" fill-rule="evenodd"/></g><g><path clip-rule="evenodd" d="m375.641 368.997v92.162c0 11.301 3.738 21.756 10.016 30.224 9.081 12.207 23.507 20.267 39.743 20.617h2.161c27.449-.584 49.759-23.245 49.759-50.841v-204.356c-14.046 9.374-36.823 9.374-50.839 0-14.046-9.374-36.794-9.374-50.839 0v112.194z" fill="#eb5468" fill-rule="evenodd"/></g><g><path clip-rule="evenodd" d="m426.48 349.198c10.045 0 18.192-8.147 18.192-18.193 0-10.075-8.147-18.222-18.192-18.222-10.074 0-18.222 8.147-18.222 18.222.001 10.046 8.148 18.193 18.222 18.193z" fill="#a1d4ff" fill-rule="evenodd"/></g><g><path clip-rule="evenodd" d="m477.32 461.159v-204.356c-7.213 4.789-16.703 7.125-26.106 7.009v197.348c0 23.449-16.119 43.336-37.786 49.147 3.825 1.022 7.826 1.606 11.973 1.694h2.161c27.448-.585 49.758-23.246 49.758-50.842z" fill="#e5384f" fill-rule="evenodd"/></g><g><path d="m166.209 424.995c-1.985 0-3.969-.76-5.479-2.279-3.009-3.026-2.995-7.918.031-10.927l.088-.088c3.026-3.009 7.919-2.994 10.927.031 3.009 3.026 2.995 7.918-.031 10.927l-.088.088c-1.507 1.499-3.478 2.248-5.448 2.248z" fill="#a1d4ff"/></g><g><path d="m229.284 400.261c-1.977 0-3.955-.755-5.463-2.263-3.018-3.017-3.018-7.909 0-10.927l.088-.088c3.017-3.017 7.909-3.017 10.927 0s3.018 7.909 0 10.927l-.088.088c-1.509 1.508-3.487 2.263-5.464 2.263z" fill="#a1d4ff"/></g><g><path d="m414.537 404.437c-1.977 0-3.955-.755-5.463-2.263-3.018-3.017-3.018-7.909 0-10.927l.088-.088c3.017-3.017 7.909-3.017 10.927 0s3.018 7.909 0 10.927l-.089.088c-1.508 1.508-3.486 2.263-5.463 2.263z" fill="#a1d4ff"/></g><g><path d="m431.006 463.454c-1.985 0-3.969-.76-5.479-2.279-3.009-3.026-2.995-7.918.031-10.927l.088-.088c3.026-3.009 7.918-2.994 10.927.031 3.009 3.026 2.995 7.918-.031 10.927l-.088.088c-1.507 1.499-3.478 2.248-5.448 2.248z" fill="#a1d4ff"/></g><g><path d="m194.372 87.431c0 4.265-3.451 7.726-7.726 7.726h-33.718l.041-15.453h33.677c4.275.001 7.726 3.462 7.726 7.727z" fill="#2b4d66"/></g><g><path d="m194.372 128.639c0 4.265-3.451 7.726-7.726 7.726h-33.811l.031-15.453h33.78c4.275 0 7.726 3.451 7.726 7.727z" fill="#2b4d66"/></g><g><path d="m194.372 169.836c0 4.275-3.451 7.726-7.726 7.726h-33.966c.041-.968.062-1.926.062-2.874l.031-12.579h33.872c4.276 0 7.727 3.462 7.727 7.727z" fill="#2b4d66"/></g><g><path d="m416.953 124.755c0 4.265-3.461 7.726-7.726 7.726h-33.584v-15.453h33.584c4.264.001 7.726 3.452 7.726 7.727z" fill="#2b4d66"/></g><g><path d="m416.953 165.952c0 4.275-3.461 7.726-7.726 7.726h-33.584v-15.453h33.584c4.264.001 7.726 3.462 7.726 7.727z" fill="#2b4d66"/></g><g><path d="m416.953 207.19c0 4.265-3.461 7.726-7.726 7.726h-33.584v-15.453h33.584c4.264.001 7.726 3.462 7.726 7.727z" fill="#2b4d66"/></g></g></svg>