<!--
  - Copyright (c) 2023. Selldone® Business OS™
  -
  - Author: M.Pajuhaan
  - Web: https://selldone.com
  - ━━━━━━━━━━━━━━━━━━━━━━━━━━━━━━━━━━━━━━━━━━━━━━━━━━━━━━
  -
  - All rights reserved. In the weave of time, where traditions and innovations intermingle, this content was crafted.
  - From the essence of thought, through the corridors of creativity, each word, and sentiment has been molded.
  - Not just to exist, but to inspire. Like an artist's stroke or a sculptor's chisel, every nuance is deliberate.
  - Our journey is not just about reaching a destination, but about creating a masterpiece.
  - Tread carefully, for you're treading on dreams.
  -->

<svg id="Capa_1" enable-background="new 0 0 498.716 498.716" height="512" viewBox="0 0 498.716 498.716" width="512" xmlns="http://www.w3.org/2000/svg"><g><g><g><g><path d="m80.939 210.913 106.873 202.411-66.391 34.815c-13.764 7.287-29.957 1.619-37.244-11.335l-80.963-153.833c-7.287-13.764-1.619-29.957 11.335-37.244z" fill="#0288D1"/></g><g><path d="m444.47 148.57-8.096 69.629 62.342 31.576-310.094 164.358-107.683-203.22 310.094-163.549-8.096 68.82z" fill="#e6e6e6"/></g><g><path d="m68.795 302.402 5.668 11.335-11.335 5.668c-2.429.81-3.239 4.048-1.619 5.668l5.668 11.335c.81 2.429 4.048 3.239 5.668 1.619l11.335-5.668 5.668 10.525-10.525 5.667c-2.429.81-3.239 4.048-1.619 5.668l5.668 11.335c.81 2.429 4.048 3.239 5.668 1.619l11.335-5.668 5.668 11.335c.81 2.429 4.048 3.239 5.668 1.619l11.335-5.668c2.429-.81 3.239-4.048 1.619-5.668l-5.668-11.335c-.81-2.429-4.048-3.239-5.668-1.619l-11.335 5.668-5.668-10.525 11.335-5.668c2.429-.81 3.239-4.048 1.619-5.668l-5.668-12.145c-.81-2.429-4.048-3.239-5.668-1.619l-11.335 5.668-5.668-10.525 11.335-5.668c2.429-.81 3.239-4.048 1.619-5.668l-6.477-11.335c-.81-2.429-4.048-3.239-5.668-1.619l-11.335 5.668c-1.62.812-2.43 4.05-1.62 5.669z" fill="#e6e6e6"/></g><g><path d="m255.823 296.735c-3.239 0-5.668-1.619-7.287-4.048-2.429-4.048-.81-8.906 3.239-11.335l69.63-37.244c4.048-2.429 8.906-.81 11.335 3.239 2.429 4.048.81 8.906-3.239 11.335l-69.629 37.244c-1.62.809-3.24.809-4.049.809z" fill="#969696"/></g><g><path d="m227.485 350.981c-3.239 0-5.668-1.619-7.287-4.048-2.429-4.048-.81-8.906 3.239-11.335l158.69-83.393c4.048-2.429 8.906-.81 11.335 3.239 2.429 4.048.81 8.906-3.239 11.335l-158.69 83.393c-1.619.809-2.429.809-4.048.809z" fill="#969696"/></g></g><g><g><path d="m243.678 212.532-21.86 11.335c-3.239 1.619-6.477.81-8.096-2.429l-11.335-21.86c-1.619-3.239-.81-6.477 2.429-8.096l21.86-11.335c3.239-1.619 6.477-.81 8.096 2.429l11.335 21.86c1.619 2.428 0 6.477-2.429 8.096z" fill="#969696"/></g><g><path d="m280.112 193.1 21.86-11.335c3.239-1.619 4.048-4.858 2.429-8.096l-12.145-21.051c-1.619-3.239-4.858-4.048-8.096-2.429l-21.86 11.335c-3.239 1.619-4.048 4.858-2.429 8.096l11.335 21.86c2.429 2.43 5.668 3.24 8.906 1.62z" fill="#969696"/></g><g><path d="m229.914 256.253-21.051 11.335c-3.239 1.619-6.477.81-8.096-2.429l-11.335-21.86c-1.619-3.239-.81-6.477 2.429-8.096l21.86-11.335c3.239-1.619 6.477-.81 8.096 2.429l11.335 21.86c.81 3.238.001 6.476-3.238 8.096z" fill="#969696"/></g><g><path d="m266.348 237.631 21.86-11.335c3.239-1.619 4.048-4.858 2.429-8.096l-11.335-21.86c-1.619-3.239-4.858-4.048-8.096-2.429l-21.86 11.335c-3.239 1.619-4.048 4.858-2.429 8.096l11.335 21.86c1.619 2.429 4.858 3.238 8.096 2.429z" fill="#969696"/></g><g><path d="m345.693 195.529-21.86 11.335c-3.239 1.619-6.477.81-8.096-2.429l-11.335-21.86c-1.619-3.239-.81-6.477 2.429-8.096l21.86-11.335c3.239-1.619 6.477-.81 8.096 2.429l11.335 21.86c1.62 3.238 0 6.477-2.429 8.096z" fill="#969696"/></g></g></g></g></svg>