<svg height="512" viewBox="0 0 512 512" width="512" xmlns="http://www.w3.org/2000/svg"><g id="flat"><path d="m82 192h348a26 26 0 0 1 26 26v150a0 0 0 0 1 0 0h-400a0 0 0 0 1 0 0v-150a26 26 0 0 1 26-26z" fill="#4799cf"/><path d="m120 264h272a16 16 0 0 1 16 16v88a0 0 0 0 1 0 0h-304a0 0 0 0 1 0 0v-88a16 16 0 0 1 16-16z" fill="#3775a4"/><path d="m408 192h-304l8-32h288z" fill="#3775a4"/><path d="m368 488h-184a40 40 0 0 1 -40-40v-144h224z" fill="#fbb540"/><path d="m404 432h-216a28 28 0 0 1 0 56h216a28 28 0 0 0 0-56z" fill="#fbd699"/><path d="m144 112h224v80h-224z" fill="#fbb540"/><path d="m360 224h16v16h-16z" fill="#aac16b"/><path d="m392 224h16v16h-16z" fill="#fd9226"/><g fill="#da922a"><path d="m176 360h40v16h-40z"/><path d="m232 360h112v16h-112z"/><path d="m176 328h104v16h-104z"/><path d="m296 328h48v16h-48z"/><path d="m176 392h96v16h-96z"/><path d="m288 392h56v16h-56z"/></g><path d="m464 97.539h-16a65.613 65.613 0 0 0 -65.539-65.539v-16a81.631 81.631 0 0 1 81.539 81.539z" fill="#8dc79d"/><path d="m435.716 97.539h-16a37.3 37.3 0 0 0 -37.255-37.255v-16a53.315 53.315 0 0 1 53.255 53.255z" fill="#8dc79d"/><path d="m406.461 97.539h-16a8 8 0 0 0 -8-8v-16a24 24 0 0 1 24 24z" fill="#8dc79d"/><path d="m128 304h16v64h-16z" fill="#30668f"/></g></svg>