<svg xmlns:svg="http://www.w3.org/2000/svg" id="svg4593" height="512" viewBox="0 0 16.933333 16.933334" width="512"
     xmlns="http://www.w3.org/2000/svg">
    <clipPath id="clipPath5337">
        <path id="rect5339" d="m34.774 274.321h35.435v25.702h-35.435z"/>
    </clipPath>
    <clipPath id="clipPath4542">
        <path id="rect4544" d="m-535.214-48.848h501.574v185.586h-501.574z"/>
    </clipPath>
    <clipPath id="clipPath11017">
        <path id="rect11019" d="m36.669 153.503h29.654v28.999h-29.654z" transform="rotate(-90)" vector-effect="none"/>
    </clipPath>
    <clipPath id="clipPath11444">
        <path id="rect11446" d="m-143.933 265.779h28.84v29.104h-28.84z" transform="rotate(-90)" vector-effect="none"/>
    </clipPath>
    <clipPath id="clipPath11781">
        <rect id="rect11783" height="32.411" rx=".634" transform="rotate(-90)" width="32.941" x="-145.124" y="181.377"/>
    </clipPath>
    <clipPath id="clipPath11499">
        <path id="rect11501" d="m-551.399-9.261h16.064v16.347h-16.064z" vector-effect="none"/>
    </clipPath>
    <g id="layer1" transform="translate(0 -280.067)">
        <path id="path7724"
              d="m14.684373 289.61594c-.06691.0846-.135346.16532-.206705.23668l-5.4735679 5.47408 1.9140949.78755c.723022.2851 1.534417-.0676 1.819527-.79065z"
              fill="#ffab61" vector-effect="none"/>
        <path id="path7758"
              d="m55.5 36.091797c-.252888.319748-.511547.624824-.78125.894531l-15.869141 15.871094c.174364 1.789325 2.906534 3.025615 4.347809 1.489316l9.062348-8.752988z"
              fill="#ff8f64" transform="matrix(.265 0 0 .265 0 280.067)" font-variant-ligatures="normal"
              font-variant-position="normal" font-variant-caps="normal" font-variant-numeric="normal"
              font-variant-alternates="normal" font-feature-settings="normal" text-indent="0" text-align="start"
              text-decoration-line="none" text-decoration-style="solid" text-decoration-color="#000000"
              text-transform="none" text-orientation="mixed" white-space="normal" shape-padding="0" isolation="auto"
              mix-blend-mode="normal" solid-color="#000000" solid-opacity="1" vector-effect="none"/>
        <path id="rect7570"
              d="m15.722034 281.31187c1.166102 1.16611.734893 6.94603-.992009 8.67291l-6.0795955 6.07961c-.5495663.54956-1.4344415.54956-1.9840115 0l-5.69690421-5.69691c-.54957061-.54957-.54956371-1.43445.00000254-1.98401l6.07959497-6.07959c1.9225109-1.92252 7.4972117-2.16771 8.6729227-.99201z"
              fill="#55a1ff" vector-effect="none"/>
        <path id="path7805"
              d="m54.847656 14.482422a2.0001999 2.0001999 0 0 0 -1.18164.466797 5.9051622 5.9051622 0 0 1 -1.632813 5.226562 5.9051622 5.9051622 0 0 1 -8.132812.205078 2.0003728 2.0003728 0 0 0 -.621094 3.587891c1.798564 1.22211 4.04979 1.481245 6.216797 1.054688 2.167011-.426558 4.330621-1.612094 5.765625-3.66211 1.150008-1.642885 1.589692-3.340217 1.68164-4.716797a2.0001999 2.0001999 0 0 0 -2.095703-2.162109z"
              fill="#488bff" transform="matrix(.265 0 0 .265 0 280.067)" font-variant-ligatures="normal"
              font-variant-position="normal" font-variant-caps="normal" font-variant-numeric="normal"
              font-variant-alternates="normal" font-feature-settings="normal" text-indent="0" text-align="start"
              text-decoration-line="none" text-decoration-style="solid" text-decoration-color="#000000"
              text-transform="none" text-orientation="mixed" white-space="normal" shape-padding="0" isolation="auto"
              mix-blend-mode="normal" solid-color="#000000" solid-opacity="1" vector-effect="none"/>
        <path id="path8274"
              d="m14.986328 20.111328-11.3222655 11.322266c-2.0771008 2.077077-2.0771173 5.420932 0 7.498047l21.5312495 21.533203c2.077115 2.077077 5.4229 2.077077 7.5 0l11.322266-11.322266z"
              fill="#ffc861" transform="matrix(.265 0 0 .265 0 280.067)" vector-effect="none"/>
        <path id="path7573"
              d="m13.766929 285.40506a1.5624075 1.5624075 0 0 1 -2.209584 0 1.5624075 1.5624075 0 0 1 .000006-2.20959 1.5624075 1.5624075 0 0 1 2.209575.00001 1.5624075 1.5624075 0 0 1 .000003 2.20958z"
              fill="#ffc861" vector-effect="none"/>
        <path id="path7776"
              d="m3.8249643 288.34623 1.4863281 1.48438c.2485279.26621.6399147-.12314.375-.37305l-1.4863281-1.48633c-.2943728-.29437-.6502891.0997-.375.375z"
              fill="#ff8f64" font-variant-ligatures="normal" font-variant-position="normal" font-variant-caps="normal"
              font-variant-numeric="normal" font-variant-alternates="normal" font-feature-settings="normal"
              text-indent="0" text-align="start" text-decoration-line="none" text-decoration-style="solid"
              text-decoration-color="#000000" text-transform="none" text-orientation="mixed" white-space="normal"
              shape-padding="0" isolation="auto" mix-blend-mode="normal" solid-color="#000000" solid-opacity="1"
              vector-effect="none"/>
        <path id="path7778"
              d="m16.216797 280.40822-3.455078 3.45703c-.290458.24786.125188.66351.373047.37305l3.457031-3.45508c.242028-.24203-.134583-.61542-.375-.375z"
              fill="#ffc861" font-variant-ligatures="normal" font-variant-position="normal" font-variant-caps="normal"
              font-variant-numeric="normal" font-variant-alternates="normal" font-feature-settings="normal"
              text-indent="0" text-align="start" text-decoration-line="none" text-decoration-style="solid"
              text-decoration-color="#000000" text-transform="none" text-orientation="mixed" white-space="normal"
              shape-padding="0" isolation="auto" mix-blend-mode="normal" solid-color="#000000" solid-opacity="1"
              vector-effect="none"/>
        <path id="path7799"
              d="m2.6472299 289.42045 2.5371094 2.66602c.2434917.25657.6282573-.10867.3847656-.36524l-2.5390625-2.66601c-.3058294-.30583-.6394405.1086-.3828125.36523z"
              fill="#ff8f64" font-variant-ligatures="normal" font-variant-position="normal" font-variant-caps="normal"
              font-variant-numeric="normal" font-variant-alternates="normal" font-feature-settings="normal"
              text-indent="0" text-align="start" text-decoration-line="none" text-decoration-style="solid"
              text-decoration-color="#000000" text-transform="none" text-orientation="mixed" white-space="normal"
              shape-padding="0" isolation="auto" mix-blend-mode="normal" solid-color="#000000" solid-opacity="1"
              vector-effect="none"/>
    </g>
</svg>