<svg xmlns="http://www.w3.org/2000/svg" xmlns:xlink="http://www.w3.org/1999/xlink" width="512pt" height="512pt" viewBox="-93 0 512 512.001"><linearGradient id="a"><stop offset="0" stop-color="#f2e9dc"/><stop offset=".662" stop-color="#e3c7b3"/><stop offset="1" stop-color="#dab49d"/></linearGradient><linearGradient xlink:href="#a" id="m" x1="3926.878" x2="3944.409" y1="-1095.756" y2="-1095.756" gradientTransform="matrix(.7168 .1779 -.24185 .9743 -3068.02 850.825)" gradientUnits="userSpaceOnUse"/><linearGradient id="o" x1="903.142" x2="875.594" y1="315.821" y2="288.272" gradientTransform="matrix(.9743 .24185 -.24185 .9743 -769.186 -38.971)" gradientUnits="userSpaceOnUse"><stop offset="0" stop-color="#dab49d" stop-opacity="0"/><stop offset=".458" stop-color="#cd9d79" stop-opacity=".459"/><stop offset="1" stop-color="#c08552"/></linearGradient><linearGradient id="b"><stop offset="0" stop-color="#ffe548"/><stop offset="1" stop-color="#ffb211"/></linearGradient><linearGradient xlink:href="#b" id="p" x1="2568.629" x2="2598.649" y1="-1437.307" y2="-1437.307" gradientTransform="matrix(.9743 .24185 -.24185 .9743 -2836.799 1235.38)" gradientUnits="userSpaceOnUse"/><linearGradient id="c"><stop offset="0" stop-color="#ffb211" stop-opacity="0"/><stop offset=".228" stop-color="#ff9f19" stop-opacity=".227"/><stop offset=".686" stop-color="#ff6f2e" stop-opacity=".686"/><stop offset="1" stop-color="#ff4b3e"/></linearGradient><linearGradient xlink:href="#c" id="q" x1="2597.412" x2="2564.202" y1="-1429.901" y2="-1463.111" gradientTransform="matrix(.9743 .24185 -.24185 .9743 -2836.799 1235.38)" gradientUnits="userSpaceOnUse"/><linearGradient id="e"><stop offset="0" stop-color="#d767c7"/><stop offset=".323" stop-color="#d363c4"/><stop offset=".665" stop-color="#c656bb"/><stop offset="1" stop-color="#b342ac"/></linearGradient><linearGradient xlink:href="#e" id="r" x1="141.003" x2="185.203" y1="314.132" y2="314.132" gradientTransform="matrix(.9743 .24185 -.24185 .9743 -18.736 -60.606)" gradientUnits="userSpaceOnUse"/><linearGradient id="g"><stop offset="0" stop-color="#b342ac" stop-opacity="0"/><stop offset=".26" stop-color="#a4319c" stop-opacity=".259"/><stop offset=".72" stop-color="#8d1885" stop-opacity=".722"/><stop offset="1" stop-color="#850f7c"/></linearGradient><linearGradient xlink:href="#g" id="s" x1="191.54" x2="134.202" y1="486.954" y2="429.616" gradientTransform="matrix(.9743 .24185 -.24185 .9743 -18.736 -60.606)" gradientUnits="userSpaceOnUse"/><linearGradient id="i"><stop offset="0" stop-color="#575c55"/><stop offset="1" stop-color="#45425a"/></linearGradient><linearGradient xlink:href="#i" id="t" x1="2156.967" x2="2193.687" y1="-1961.923" y2="-1961.923" gradientTransform="matrix(.9743 .24185 -.24185 .9743 -2540.343 1765.647)" gradientUnits="userSpaceOnUse"/><linearGradient id="k"><stop offset="0" stop-color="#45425a" stop-opacity="0"/><stop offset=".347" stop-color="#353343" stop-opacity=".349"/><stop offset="1" stop-color="#1a1a1a"/></linearGradient><linearGradient xlink:href="#k" id="u" x1="2208.236" x2="2090.838" y1="-1924.025" y2="-2010.525" gradientTransform="matrix(.9743 .24185 -.24185 .9743 -2540.343 1765.647)" gradientUnits="userSpaceOnUse"/><linearGradient xlink:href="#i" id="v" x1="2140.436" x2="2190.795" y1="-1961.705" y2="-1956.889" gradientTransform="matrix(.9743 .24185 -.24185 .9743 -2540.343 1765.647)" gradientUnits="userSpaceOnUse"/><linearGradient xlink:href="#k" id="w" x1="2167.196" x2="2160.782" y1="-1967.251" y2="-2005.351" gradientTransform="matrix(.9743 .24185 -.24185 .9743 -2540.343 1765.647)" gradientUnits="userSpaceOnUse"/><linearGradient xlink:href="#k" id="x" x1="2167.196" x2="2160.782" y1="-1953.084" y2="-1991.184" gradientTransform="matrix(.9743 .24185 -.24185 .9743 -2540.343 1765.647)" gradientUnits="userSpaceOnUse"/><linearGradient xlink:href="#k" id="y" x1="2167" x2="2161.027" y1="-1940.088" y2="-1975.566" gradientTransform="matrix(.9743 .24185 -.24185 .9743 -2540.343 1765.647)" gradientUnits="userSpaceOnUse"/><linearGradient xlink:href="#k" id="z" x1="2166.314" x2="2161.865" y1="-1929.958" y2="-1956.386" gradientTransform="matrix(.9743 .24185 -.24185 .9743 -2540.343 1765.647)" gradientUnits="userSpaceOnUse"/><linearGradient xlink:href="#i" id="A" x1="2162.617" x2="2162.617" y1="-1982.971" y2="-1975.951" gradientTransform="matrix(.9743 .24185 -.24185 .9743 -2540.343 1765.647)" gradientUnits="userSpaceOnUse"/><linearGradient xlink:href="#i" id="B" x1="2162.617" x2="2162.617" y1="-1968.805" y2="-1961.785" gradientTransform="matrix(.9743 .24185 -.24185 .9743 -2540.343 1765.647)" gradientUnits="userSpaceOnUse"/><linearGradient xlink:href="#i" id="C" x1="2162.617" x2="2162.617" y1="-1954.639" y2="-1947.619" gradientTransform="matrix(.9743 .24185 -.24185 .9743 -2540.343 1765.647)" gradientUnits="userSpaceOnUse"/><linearGradient xlink:href="#i" id="D" x1="2162.617" x2="2162.617" y1="-1940.473" y2="-1933.453" gradientTransform="matrix(.9743 .24185 -.24185 .9743 -2540.343 1765.647)" gradientUnits="userSpaceOnUse"/><linearGradient xlink:href="#e" id="E" x1="44.683" x2="88.98" y1="251.944" y2="251.944" gradientTransform="matrix(.9743 -.24185 .24185 .9743 66.214 62.748)" gradientUnits="userSpaceOnUse"/><linearGradient xlink:href="#g" id="F" x1="95.22" x2="37.883" y1="432.09" y2="374.753" gradientTransform="matrix(.9743 -.24185 .24185 .9743 66.214 62.748)" gradientUnits="userSpaceOnUse"/><linearGradient xlink:href="#i" id="G" x1="17.967" x2="96.196" y1="390.695" y2="390.695" gradientTransform="matrix(.9743 -.24185 .24185 .9743 85.118 58.056)" gradientUnits="userSpaceOnUse"/><linearGradient xlink:href="#a" id="H" x1="2017.13" x2="2069.301" y1="-2116.499" y2="-2116.499" gradientTransform="matrix(.9743 -.24185 .24185 .9743 -1177.504 3040.888)" gradientUnits="userSpaceOnUse"/><linearGradient id="I" x1="2051.876" x2="2021.407" y1="-2115.184" y2="-2125.159" gradientTransform="matrix(.9743 -.24185 .24185 .9743 -1177.504 3040.888)" gradientUnits="userSpaceOnUse"><stop offset="0" stop-color="#dab49d" stop-opacity="0"/><stop offset=".205" stop-color="#d8b198" stop-opacity=".204"/><stop offset=".464" stop-color="#d3a788" stop-opacity=".463"/><stop offset=".75" stop-color="#ca976e" stop-opacity=".749"/><stop offset="1" stop-color="#c08552"/></linearGradient><linearGradient xlink:href="#b" id="J" x1="2017.13" x2="2069.301" y1="-2192.248" y2="-2192.248" gradientTransform="matrix(.9743 -.24185 .24185 .9743 -1177.504 3040.888)" gradientUnits="userSpaceOnUse"/><linearGradient xlink:href="#b" id="K" x1="2060.989" x2="2019.784" y1="-2192.248" y2="-2192.248" gradientTransform="matrix(.9743 -.24185 .24185 .9743 -1177.504 3040.888)" gradientUnits="userSpaceOnUse"/><linearGradient xlink:href="#c" id="L" x1="2046.337" x2="2033.913" y1="-2230.067" y2="-2291.755" gradientTransform="matrix(.9743 -.24185 .24185 .9743 -1173.389 3046.803)" gradientUnits="userSpaceOnUse"/><linearGradient xlink:href="#c" id="M" x1="2042.964" x2="2036.449" y1="-2161.47" y2="-2193.818" gradientTransform="matrix(.9743 -.24185 .24185 .9743 -1173.389 3046.803)" gradientUnits="userSpaceOnUse"/><linearGradient xlink:href="#i" id="N" x1="2039.019" x2="2050.903" y1="-2094.381" y2="-2094.381" gradientTransform="matrix(.9743 -.24185 .24185 .9743 -1177.504 3040.888)" gradientUnits="userSpaceOnUse"/><linearGradient xlink:href="#a" id="O" x1="2040.42" x2="2040.42" y1="-2262.604" y2="-2241.619" gradientTransform="matrix(.9743 -.24185 .24185 .9743 -1173.389 3046.803)" gradientUnits="userSpaceOnUse"/><linearGradient xlink:href="#i" id="P" x1="2039.388" x2="2049.985" y1="-2260.37" y2="-2249.773" gradientTransform="matrix(.9743 -.24185 .24185 .9743 -1173.389 3046.803)" gradientUnits="userSpaceOnUse"/><linearGradient xlink:href="#i" id="Q" x1="-29.32" x2="44.673" y1="390.695" y2="390.695" gradientTransform="matrix(.9743 -.24185 .24185 .9743 181.386 34.158)" gradientUnits="userSpaceOnUse"/><linearGradient xlink:href="#i" id="R" x1="121.733" x2="148.502" y1="34.303" y2="34.303" gradientUnits="userSpaceOnUse"/><linearGradient xlink:href="#g" id="S" x1="138.67" x2="92.708" y1="154.539" y2="108.576" gradientUnits="userSpaceOnUse"/><linearGradient xlink:href="#g" id="T" x1="184.112" x2="133.137" y1="159.791" y2="108.816" gradientUnits="userSpaceOnUse"/><linearGradient xlink:href="#b" id="U" x1="98.213" x2="175.599" y1="64.364" y2="141.75" gradientUnits="userSpaceOnUse"/><linearGradient xlink:href="#b" id="V" x1="272.302" x2="322.883" y1="37.84" y2="88.421" gradientTransform="rotate(180 209.275 74.66)scale(1.00392)" gradientUnits="userSpaceOnUse"/><path fill="url(#m)" d="M4.86 506.973c-.477-7.164 7.906-48.762 10.41-55.149 4.726 1.176 9.457 2.348 14.183 3.52-1.008 7.18-12.926 47.61-16.625 53.601-2.996 4.856-7.594 3.723-7.969-1.972m0 0"/><path fill="url(#o)" d="M15.27 451.824c-.977 2.489-2.844 10.324-4.735 19.387l10.004 16.605c4.152-13.242 8.336-28.343 8.914-32.472-4.726-1.172-9.457-2.344-14.183-3.52m0 0"/><path fill="url(#p)" d="M9.023 467.613c-2.613-10.597-4.28-22.113.047-30.933q16.505 4.1 33.016 8.195c-.754 10.3-7.383 19.348-14.508 27.332-5.777 6.469-16.48 3.824-18.555-4.594m0 0"/><path fill="url(#q)" d="M42.086 444.875Q25.58 440.781 9.07 436.68c-1.23 2.507-1.96 5.238-2.34 8.097l17.91 29.735a10.8 10.8 0 0 0 2.938-2.305c7.125-7.984 13.754-17.031 14.508-27.332m0 0"/><path fill="url(#r)" d="m30.566 454.633-16-3.969c-7.472-1.855-12.03-9.422-10.175-16.894l79.918-321.93 43.066 10.691-79.918 321.93c-1.852 7.473-9.418 12.027-16.89 10.172m0 0"/><path fill="url(#s)" d="M30.566 454.633c7.473 1.855 15.04-2.7 16.895-10.172l4.871-19.629-43.066-10.687-3.036 12.218L21.973 452.5zm0 0"/><path fill="url(#t)" d="M81.863 341.328c2.364-5.867-1.015-12.46-7.152-13.988q-19.815-4.919-39.637-9.836c-6.136-1.524-12.207 2.726-12.86 9.016-3.097 29.859-10.23 58.593-21.456 86.43-2.363 5.862 1.015 12.46 7.152 13.984q19.816 4.922 39.637 9.84c6.137 1.523 12.207-2.727 12.86-9.016 3.097-29.86 10.23-58.59 21.456-86.43m0 0"/><path fill="url(#u)" d="M62.152 345.902a17.23 17.23 0 0 0-10.984-8.472c-9.254-2.297-18.613 3.343-20.91 12.593l-12.531 50.473a17.2 17.2 0 0 0 2.351 13.668l11.184 18.566q8.139 2.022 16.285 4.043c6.137 1.524 12.207-2.726 12.86-9.015 2.238-21.574 6.597-42.563 13.07-63.051zm0 0"/><path fill="url(#v)" d="M51.168 337.43c9.25 2.297 14.89 11.66 12.594 20.91l-12.528 50.473c-2.297 9.25-11.66 14.89-20.914 12.593-9.25-2.297-14.886-11.66-12.593-20.91l12.53-50.473c2.298-9.25 11.657-14.89 20.911-12.593m0 0"/><path fill="url(#w)" d="m55.605 391.203 5.739-23.117-4.059-6.734c-.148-1.332-4.816-3.508-10.816-4.997-6.297-1.562-11.66-1.773-11.985-.472-.066.27.098.586.442.926-.004 0 15.914 26.554 20.68 34.394m0 0"/><path fill="url(#x)" d="m52.176 405.004 5.742-23.113-4.059-6.739c-.148-1.328-4.816-3.504-10.816-4.996-6.297-1.562-11.66-1.773-11.984-.469-.067.27.097.583.437.926 0-.004 15.918 26.555 20.68 34.39m0 0"/><path fill="url(#y)" d="m54.492 395.695-3.258 13.118a17.2 17.2 0 0 1-4.004 7.48c-5.96-9.855-19.16-31.879-19.16-31.879-.34-.34-.504-.656-.441-.926.324-1.3 5.691-1.09 11.988.473 5.996 1.488 10.668 3.668 10.817 4.996zm0 0"/><path fill="url(#z)" d="M51.055 409.473a17 17 0 0 1-3.825 6.82 17.27 17.27 0 0 1-8.664 5.125c-6.277-10.445-13.921-23.2-13.921-23.2-.34-.34-.508-.656-.438-.925.324-1.305 5.688-1.094 11.984.473 5.996 1.488 10.668 3.664 10.817 4.996zm0 0"/><path fill="url(#A)" d="M57.285 361.543c-.324 1.305-5.691 1.094-11.988-.469-6.293-1.562-11.137-3.886-10.813-5.187.325-1.305 5.688-1.094 11.985.468s11.14 3.887 10.816 5.188m0 0"/><path fill="url(#B)" d="M53.86 375.348c-.325 1.3-5.692 1.09-11.989-.473s-11.137-3.887-10.812-5.187c.324-1.305 5.687-1.09 11.984.468 6.297 1.567 11.137 3.887 10.816 5.192m0 0"/><path fill="url(#C)" d="M50.434 389.148c-.325 1.305-5.692 1.094-11.989-.468-6.297-1.567-11.136-3.887-10.812-5.192.32-1.3 5.687-1.09 11.984.473 6.297 1.562 11.137 3.887 10.817 5.187m0 0"/><path fill="url(#D)" d="M47.004 402.953c-.32 1.3-5.688 1.09-11.984-.473s-11.137-3.886-10.813-5.187c.32-1.305 5.688-1.09 11.984.473 6.297 1.558 11.137 3.882 10.813 5.187m0 0"/><path fill="url(#E)" d="m243.629 464.957-15.996 3.973c-7.477 1.855-15.04-2.7-16.895-10.176L127.375 122.53l43.066-10.691 83.364 336.222c1.855 7.477-2.7 15.04-10.176 16.895m0 0"/><path fill="url(#F)" d="M243.629 464.957c7.476-1.855 12.031-9.418 10.176-16.895l-4.871-19.625-43.067 10.692 3.035 12.223 26.133 15.738zm0 0"/><path fill="url(#G)" d="m267.98 436.84-56.117 13.93c-5.55 1.378-11.172-2.004-12.547-7.56l-4.382-17.655c-1.38-5.551 2.004-11.172 7.554-12.547l56.117-13.93c5.551-1.379 11.172 2.004 12.547 7.555l4.387 17.656c1.375 5.555-2.008 11.172-7.559 12.55m0 0"/><path fill="url(#H)" d="m322.727 450.168 1.824 7.348q.394 1.57.5 3.164a18.8 18.8 0 0 1-.934 7.375l-14.172 42c-.672 1.976-3.156 2.593-4.675 1.16l-32.168-30.496a18.8 18.8 0 0 1-4.274-6.082 18 18 0 0 1-1.043-3.032l-1.824-7.347zm0 0"/><path fill="url(#I)" d="m303.91 454.84 1.824 7.348q.388 1.568.676 3.12c.457 2.419.723 4.778.793 6.946l1.192 38.187c.054 1.797-.782 2.004-1.575.391l-16.804-34.309c-.954-1.949-1.817-4.16-2.547-6.511a53 53 0 0 1-.864-3.078l-1.82-7.348zm0 0"/><path fill="url(#J)" d="m296.516 344.578 28.035 112.938q.394 1.57.5 3.164a9.6 9.6 0 0 0-3.606-3.82 9.7 9.7 0 0 0-7.375-1.114 9.7 9.7 0 0 0-6 4.43 9.7 9.7 0 0 0-1.117 7.37 9.67 9.67 0 0 0-4.43-5.991 9.7 9.7 0 0 0-7.375-1.114 9.7 9.7 0 0 0-6 4.434 9.7 9.7 0 0 0-1.117 7.371 9.66 9.66 0 0 0-4.43-5.992 9.7 9.7 0 0 0-7.374-1.113 9.68 9.68 0 0 0-6 4.433 9.54 9.54 0 0 0-1.399 5.063 18 18 0 0 1-1.043-3.032L239.75 358.668zm0 0"/><path fill="url(#K)" d="m277.594 349.273 29.36 118.274a9.66 9.66 0 0 0-4.43-5.992 9.7 9.7 0 0 0-7.376-1.114 9.7 9.7 0 0 0-6 4.434 9.68 9.68 0 0 0-1.117 7.367l-29.36-118.273zm0 0"/><path fill="url(#L)" d="m240.813 360.227 70.066 42.199-14.363-57.852-56.766 14.094.047.184c.14.574.508 1.07 1.016 1.375m0 0"/><path fill="url(#M)" d="m261.457 443.383 28.93 17.426 32.953-8.18-6.18-24.902-56.77 14.093.048.184a2.23 2.23 0 0 0 1.019 1.379m0 0"/><path fill="url(#N)" d="M305.047 500.313c-2.8.695-5.297 1.98-7.395 3.683l7.618 7.219c1.52 1.437 4.007.816 4.675-1.16l3.356-9.942a18.9 18.9 0 0 0-8.254.2m0 0"/><path fill="url(#O)" d="m276.273 343.945-18.921 4.7-16.606 8.27c-1.687.89-1.055 3.444.856 3.444l18.543-.453 18.921-4.699 16.606-8.27c1.683-.894 1.05-3.445-.856-3.445zm0 0"/><path fill="url(#P)" d="M277.816 349.54c.305 1.233-3.746 3.3-9.054 4.616-5.305 1.317-9.856 1.387-10.16.153-.305-1.23 3.75-3.297 9.054-4.614s9.856-1.386 10.16-.156m0 0"/><path fill="url(#Q)" d="m312.664 430.914-46.809 11.617c-6.984 1.735-14.05-2.52-15.78-9.504l-5.516-22.207c-1.73-6.984 2.523-14.05 9.507-15.78l46.805-11.622c6.984-1.734 14.05 2.523 15.785 9.504l5.512 22.207c1.734 6.984-2.523 14.05-9.504 15.785m0 0"/><path fill="url(#R)" d="M148.813 68.605h-44.481V16.73c0-9.238 7.492-16.73 16.73-16.73h11.02c9.238 0 16.73 7.492 16.73 16.73zm0 0"/><path fill="url(#S)" d="M83.043 116.941a50 50 0 0 0 8.867 11.54l27.227 27.23 8.238-33.18-43.066-10.691zm0 0"/><path fill="url(#T)" d="m132.254 142.21 60.789 60.794-22.602-91.164-43.066 10.691zm0 0"/><path fill="url(#U)" d="M176.387 92.723c0 27.511-22.305 49.812-49.817 49.812-27.507 0-49.812-22.3-49.812-49.812S99.063 42.91 126.57 42.91c27.512 0 49.817 22.3 49.817 49.813m0 0"/><path fill="url(#V)" d="M159.258 92.723c0 18.054-14.633 32.687-32.688 32.687-18.05 0-32.683-14.633-32.683-32.687 0-18.051 14.633-32.688 32.683-32.688 18.055 0 32.688 14.637 32.688 32.688m0 0"/></svg>