<svg xmlns:svg="http://www.w3.org/2000/svg" id="svg8" clip-rule="evenodd" fill-rule="evenodd" height="512" stroke-linejoin="round"
     stroke-miterlimit="2" viewBox="0 0 24 24" width="512" xmlns="http://www.w3.org/2000/svg">
    <path id="path2" d="m21 4c0-.552-.448-1-1-1h-16c-.552 0-1 .448-1 1v6c0 .552.448 1 1 1h16c.552 0 1-.448 1-1z"
          fill="#29b6f6"/>
    <path id="path4"
          d="m11 14c0-.552-.448-1-1-1h-6c-.552 0-1 .448-1 1v6c0 .552.448 1 1 1h6c.552 0 1-.448 1-1zm10 0c0-.552-.448-1-1-1h-6c-.552 0-1 .448-1 1v6c0 .552.448 1 1 1h6c.552 0 1-.448 1-1z"
          fill="#1565c0"/>
</svg>