<svg id="Layer_1" enable-background="new 0 0 468 468" height="512" viewBox="0 0 468 468" width="512"
     xmlns="http://www.w3.org/2000/svg">
    <g>
        <g>
            <g>
                <path d="m331.526 441.108h-288.162c-11.789 0-21.345-9.574-21.345-21.384v-364.709c0-11.81 9.557-21.384 21.345-21.384h288.162c11.789 0 21.345 9.574 21.345 21.384v364.709c0 11.81-9.556 21.384-21.345 21.384z"
                      fill="#fff"/>

                <g fill="#3e4d6c">
                    <path d="m368.89 256.438h-32.037v-201.423c0-2.953-2.389-5.356-5.326-5.356h-33.465v-32.055h33.465c20.602 0 37.363 16.782 37.363 37.411z"/>
                    <path d="m265.504 457.135h-222.139c-20.604 0-37.365-16.783-37.365-37.411v-364.709c0-20.628 16.761-37.411 37.365-37.411h39.32v32.055h-39.32c-2.938 0-5.327 2.403-5.327 5.356v364.709c0 2.953 2.389 5.357 5.327 5.357h222.139z"/>
                </g>
            </g>
            <path d="m249.49 66.288h-124.09c-9.941 0-18-8.059-18-18v-30.288c0-9.941 8.059-18 18-18h124.09c9.941 0 18 8.059 18 18v30.288c0 9.941-8.059 18-18 18z"
                  fill="#0795fe"/>
            <g>
                <g>
                    <path d="m192.81 245.556h115.389v32.055h-115.389z" fill="#3e4d6c"/>
                </g>
                <g>
                    <path d="m192.81 149.329h115.389v32.055h-115.389z" fill="#3e4d6c"/>
                </g>
                <g>
                    <path d="m192.81 341.782h51.314v32.055h-51.314z" fill="#3e4d6c"/>
                </g>
            </g>
        </g>
        <g>
            <ellipse cx="371.282" cy="377.119" fill="#0795fe" rx="90.718" ry="90.881"/>
            <path d="m393.571 421.329-33.681-34.558c-2.907-2.982-4.539-6.979-4.55-11.144l-.145-50.977 32.037-.091.126 44.482 29.15 29.908z"
                  fill="#fff"/>
        </g>
        <g fill="#3e4d6c">
            <path d="m91.589 389.156-31.108-33.901 23.609-21.647 19.307 21.073 45.891-50.036 23.603 21.675-57.696 62.839c-3.033 3.307-14.167 8.855-23.606-.003z"/>
            <path d="m91.589 292.992-31.108-33.901 23.609-21.647 19.307 21.073 45.891-50.036 23.603 21.675-57.696 62.839c-3.033 3.306-14.167 8.854-23.606-.003z"/>
            <path d="m91.589 195.759-31.108-33.901 23.609-21.647 19.307 21.073 45.891-50.036 23.603 21.675-57.696 62.839c-3.033 3.307-14.167 8.854-23.606-.003z"/>
        </g>
    </g>
</svg>