<!--
  - Copyright (c) 2023. Selldone® Business OS™
  -
  - Author: M.Pajuhaan
  - Web: https://selldone.com
  - ━━━━━━━━━━━━━━━━━━━━━━━━━━━━━━━━━━━━━━━━━━━━━━━━━━━━━━
  -
  - All rights reserved. In the weave of time, where traditions and innovations intermingle, this content was crafted.
  - From the essence of thought, through the corridors of creativity, each word, and sentiment has been molded.
  - Not just to exist, but to inspire. Like an artist's stroke or a sculptor's chisel, every nuance is deliberate.
  - Our journey is not just about reaching a destination, but about creating a masterpiece.
  - Tread carefully, for you're treading on dreams.
  -->

<svg height="512pt" viewBox="-48 0 512 512" width="512pt" xmlns="http://www.w3.org/2000/svg"><path d="m355.488281 62.046875c-39.339843-39.914063-91.6875-61.9492188-147.402343-62.046875h-.367188c-114.535156 0-207.71875 93.179688-207.71875 207.71875 0 20.875 3.09375 41.484375 9.191406 61.257812 8.769532 28.433594 24.472656 55.402344 45.417969 77.976563l153.105469 165.046875 153.207031-165.152344c19.609375-21.136718 34.136719-45.136718 43.183594-71.324218 7.222656-20.910157 11.027343-42.816407 11.3125-65.105469.710937-55.746094-20.574219-108.4375-59.929688-148.371094zm0 0" fill="#ff415b"/><path d="m355.488281 62.046875c-39.339843-39.914063-91.6875-61.9492188-147.402343-62.046875h-.367188v511.996094l153.203125-165.148438c19.609375-21.140625 34.140625-45.136718 43.183594-71.324218 7.222656-20.910157 11.03125-42.816407 11.3125-65.105469.710937-55.746094-20.574219-108.4375-59.929688-148.371094zm0 0" fill="#c30048"/><path d="m161.683594 301.710938c-12.542969 0-22.746094 10.203124-22.746094 22.75 0 12.542968 10.203125 22.746093 22.746094 22.746093 12.546875 0 22.75-10.203125 22.75-22.746093 0-12.546876-10.207032-22.75-22.75-22.75zm0 0" fill="#f3eee9"/><path d="m253.390625 301.714844c-12.539063 0-22.746094 10.203125-22.746094 22.746094 0 12.542968 10.203125 22.746093 22.746094 22.746093s22.75-10.203125 22.75-22.746093c0-12.542969-10.207031-22.746094-22.75-22.746094zm0 0" fill="#ff9d22"/><path d="m146.511719 282.195312h121l33.296875-107.871093h-147.980469l-12.28125-53.378907h-58.898437v30.03125h34.992187zm0 0" fill="#f3eee9"/><g fill="#e9dfda"><path d="m253.390625 301.714844c-12.539063 0-22.746094 10.203125-22.746094 22.746094 0 12.542968 10.203125 22.746093 22.746094 22.746093s22.75-10.203125 22.75-22.746093c0-12.542969-10.207031-22.746094-22.75-22.746094zm0 0"/><path d="m300.808594 174.324219h-93.089844v107.871093h59.792969zm0 0"/></g></svg>