<!--
  - Copyright (c) 2023. Selldone® Business OS™
  -
  - Author: M.Pajuhaan
  - Web: https://selldone.com
  - ━━━━━━━━━━━━━━━━━━━━━━━━━━━━━━━━━━━━━━━━━━━━━━━━━━━━━━
  -
  - All rights reserved. In the weave of time, where traditions and innovations intermingle, this content was crafted.
  - From the essence of thought, through the corridors of creativity, each word, and sentiment has been molded.
  - Not just to exist, but to inspire. Like an artist's stroke or a sculptor's chisel, every nuance is deliberate.
  - Our journey is not just about reaching a destination, but about creating a masterpiece.
  - Tread carefully, for you're treading on dreams.
  -->

<svg id="Capa_1" enable-background="new 0 0 510 510" height="512" viewBox="0 0 510 510" width="512" xmlns="http://www.w3.org/2000/svg" xmlns:xlink="http://www.w3.org/1999/xlink"><linearGradient id="SVGID_1_" gradientUnits="userSpaceOnUse" x1="179.827" x2="561.161" y1="115.342" y2="496.676"><stop offset="0" stop-color="#f9f7fc"/><stop offset="1" stop-color="#f0ddfc"/></linearGradient><linearGradient id="SVGID_2_" gradientUnits="userSpaceOnUse" x1="450.869" x2="95.701" y1="386.384" y2="31.216"><stop offset="0" stop-color="#e9edf5" stop-opacity="0"/><stop offset="1" stop-color="#fff"/></linearGradient><linearGradient id="SVGID_3_" gradientTransform="matrix(.707 .707 -.707 .707 254.987 -105.712)" gradientUnits="userSpaceOnUse" x1="107.768" x2="345.632" y1="92.793" y2="503.505"><stop offset="0" stop-color="#18cffc"/><stop offset="1" stop-color="#4a98f7"/></linearGradient><linearGradient id="lg1"><stop offset="0" stop-color="#18cffc" stop-opacity="0"/><stop offset="1" stop-color="#65e1dc"/></linearGradient><linearGradient id="SVGID_4_" gradientUnits="userSpaceOnUse" x1="257.654" x2="234.551" xlink:href="#lg1" y1="169.647" y2="49.318"/><linearGradient id="lg2"><stop offset="0" stop-color="#4a98f7" stop-opacity="0"/><stop offset="1" stop-color="#0469bc"/></linearGradient><linearGradient id="SVGID_5_" gradientTransform="matrix(.707 .707 -.707 .707 254.987 -105.712)" gradientUnits="userSpaceOnUse" x1="255.073" x2="255.073" xlink:href="#lg2" y1="322.101" y2="120.119"/><linearGradient id="SVGID_6_" gradientTransform="matrix(.707 .707 -.707 .707 254.987 -105.712)" gradientUnits="userSpaceOnUse" x1="324.834" x2="62.971" xlink:href="#lg2" y1="168.591" y2="-73.632"/><linearGradient id="SVGID_7_" gradientTransform="matrix(.707 .707 -.707 .707 254.987 -105.712)" gradientUnits="userSpaceOnUse" x1="350.696" x2="182.257" xlink:href="#lg1" y1="168.541" y2="275.729"/><linearGradient id="lg3"><stop offset="0" stop-color="#f0ddfc" stop-opacity="0"/><stop offset=".2889" stop-color="#c8b7e0" stop-opacity=".289"/><stop offset=".5915" stop-color="#a595c8" stop-opacity=".592"/><stop offset=".8395" stop-color="#8f81b8" stop-opacity=".84"/><stop offset="1" stop-color="#8779b3"/></linearGradient><linearGradient id="SVGID_8_" gradientUnits="userSpaceOnUse" x1="183.886" x2="141.95" xlink:href="#lg3" y1="354.173" y2="173.25"/><linearGradient id="SVGID_9_" gradientUnits="userSpaceOnUse" x1="453.743" x2="405.561" xlink:href="#lg3" y1="277.52" y2="261.787"/><circle cx="287.242" cy="222.758" fill="url(#SVGID_1_)" r="222.758"/><circle cx="287.242" cy="222.758" fill="url(#SVGID_2_)" r="200.335"/><path d="m471.71 18.648-461.021 151.854c-14.311 4.714-14.232 24.986.116 29.588l196.846 63.139c18.589 5.963 33.157 20.531 39.119 39.119l63.139 196.846c4.602 14.348 24.875 14.427 29.588.116l151.855-461.02c3.995-12.127-7.515-23.637-19.642-19.642z" fill="url(#SVGID_3_)"/><path d="m322.05 497.215c-.405-.405-.707-.934-.927-1.618l-63.139-196.845c-3.495-10.896-9.62-20.933-17.711-29.025-8.092-8.092-18.129-14.216-29.025-17.712l-196.846-63.138c-.684-.219-1.212-.522-1.616-.925-.855-.855-1.214-2.338-.892-3.689.407-1.71 1.61-2.288 2.48-2.575l461.02-151.855c1.923-.633 3.241.303 3.855.917s1.55 1.933.917 3.855l-151.853 461.022c-.287.87-.866 2.074-2.576 2.481-1.372.326-2.819-.025-3.687-.893z" fill="url(#SVGID_4_)"/><path d="m269.618 216.861-258.813-16.771 196.846 63.14c18.589 5.962 33.157 20.53 39.119 39.119l63.139 196.846-16.77-258.813c-.818-12.636-10.885-22.703-23.521-23.521z" fill="url(#SVGID_5_)"/><path d="m246.77 302.349 63.139 196.846c4.602 14.348 24.875 14.427 29.588.116l151.855-461.021c1.997-6.064.118-11.973-3.775-15.867l-255.632 255.632c6.711 6.711 11.844 15 14.825 24.294z" fill="url(#SVGID_6_)"/><path d="m339.498 499.311 151.854-461.021c1.997-6.064.118-11.973-3.775-15.867l-201.767 201.767c4.199 4.198 6.92 9.874 7.329 16.192l16.77 258.813c4.603 14.348 24.875 14.427 29.589.116z" fill="url(#SVGID_7_)"/><path d="m292.665 445.446h-.04l-228.071-228.072v-.039l143.102 45.897c18.584 5.965 33.147 20.528 39.112 39.112z" fill="url(#SVGID_8_)"/><path d="m509.997 222.758c0 97.033-62.034 179.569-148.617 210.123l110.338-335.012c24.165 35.62 38.279 78.608 38.279 124.889z" fill="url(#SVGID_9_)"/></svg>