<svg viewBox="-34 0 512 512" xmlns="http://www.w3.org/2000/svg"><path d="m378.65625 64.96875c-41.894531-41.898438-97.597656-64.96875-156.84375-64.96875s-114.949219 23.070312-156.84375 64.96875c-41.894531 41.894531-64.96875 97.59375-64.96875 156.84375 0 59.246094 23.070312 114.945312 64.964844 156.84375l116.816406 116.8125c10.660156 10.660156 24.878906 16.53125 40.03125 16.53125s29.367188-5.871094 40.023438-16.53125l116.820312-116.8125c41.894531-41.894531 64.964844-97.597656 64.964844-156.847656 0-59.246094-23.070313-114.949219-64.964844-156.839844zm0 0" fill="#7fe881"/><path d="m378.65625 64.96875c-41.894531-41.898438-97.597656-64.96875-156.84375-64.96875v512c15.152344 0 29.367188-5.871094 40.023438-16.53125l116.820312-116.8125c41.894531-41.894531 64.964844-97.597656 64.964844-156.847656 0-59.246094-23.070313-114.949219-64.964844-156.839844zm0 0" fill="#1fbf66"/><g fill="#fdf6c8"><path d="m221.8125 186.308594c-45.460938 0-82.445312 36.984375-82.445312 82.445312 0 8.035156 2.320312 15.835938 6.714843 22.550782 7.652344 11.695312 20.554688 18.679687 34.515625 18.679687 10.136719 0 17.964844-2.320313 24.871094-4.367187 5.664062-1.675782 10.558594-3.128907 16.34375-3.128907s10.679688 1.453125 16.347656 3.128907c6.90625 2.046874 14.730469 4.367187 24.867188 4.367187 13.957031 0 26.859375-6.980469 34.515625-18.679687 4.394531-6.714844 6.71875-14.515626 6.71875-22.550782 0-45.460937-36.988281-82.445312-82.449219-82.445312zm0 0"/><path d="m154.867188 172.523438c-3.949219 0-7.808594-1.601563-10.609376-4.390626-2.789062-2.789062-4.390624-6.660156-4.390624-10.609374 0-3.949219 1.601562-7.820313 4.390624-10.609376 2.792969-2.792968 6.660157-4.390624 10.609376-4.390624 3.953124 0 7.820312 1.597656 10.601562 4.390624 2.800781 2.789063 4.398438 6.660157 4.398438 10.609376 0 3.949218-1.597657 7.820312-4.398438 10.609374-2.789062 2.789063-6.648438 4.390626-10.601562 4.390626zm0 0"/><path d="m198.609375 149.320312c-3.949219 0-7.808594-1.609374-10.609375-4.398437-2.789062-2.789063-4.390625-6.648437-4.390625-10.609375 0-3.949219 1.601563-7.808594 4.390625-10.601562 2.789062-2.789063 6.660156-4.398438 10.609375-4.398438s7.808594 1.609375 10.601563 4.398438c2.789062 2.792968 4.398437 6.652343 4.398437 10.601562 0 3.960938-1.609375 7.820312-4.398437 10.609375-2.792969 2.789063-6.652344 4.398437-10.601563 4.398437zm0 0"/></g><path d="m245.019531 149.320312c-3.949219 0-7.8125-1.609374-10.609375-4.398437-2.792968-2.789063-4.390625-6.648437-4.390625-10.609375 0-3.949219 1.597657-7.808594 4.390625-10.601562 2.796875-2.789063 6.660156-4.398438 10.609375-4.398438s7.820313 1.609375 10.609375 4.398438c2.789063 2.792968 4.390625 6.652343 4.390625 10.601562 0 3.960938-1.601562 7.820312-4.390625 10.609375-2.789062 2.789063-6.660156 4.398437-10.609375 4.398437zm0 0" fill="#ffde8d"/><path d="m288.757812 172.523438c-3.949218 0-7.8125-1.601563-10.609374-4.390626-2.789063-2.789062-4.390626-6.660156-4.390626-10.609374 0-3.949219 1.601563-7.820313 4.390626-10.609376 2.789062-2.792968 6.660156-4.390624 10.609374-4.390624 3.949219 0 7.8125 1.597656 10.601563 4.390624 2.800781 2.789063 4.398437 6.660157 4.398437 10.609376 0 3.949218-1.601562 7.820312-4.398437 10.609374-2.789063 2.789063-6.652344 4.390626-10.601563 4.390626zm0 0" fill="#ffde8d"/><path d="m221.8125 186.308594v116.179687c5.789062.003907 10.679688 1.453125 16.347656 3.128907 6.90625 2.046874 14.730469 4.367187 24.867188 4.367187 13.957031 0 26.859375-6.980469 34.515625-18.679687 4.394531-6.714844 6.71875-14.515626 6.71875-22.550782 0-45.460937-36.988281-82.445312-82.449219-82.445312zm0 0" fill="#ffde8d"/></svg>