<svg height="512pt" viewBox="0 -32 512 512" width="512pt" xmlns="http://www.w3.org/2000/svg"><path d="m298.667969 106.667969c0 58.910156-47.757813 106.664062-106.667969 106.664062s-106.667969-47.753906-106.667969-106.664062c0-58.910157 47.757813-106.667969 106.667969-106.667969s106.667969 47.757812 106.667969 106.667969zm0 0" fill="#607d8b"/><path d="m282.667969 256h-181.335938c-55.871093 0-101.332031 45.460938-101.332031 101.332031v74.667969c0 8.832031 7.167969 16 16 16h352c8.832031 0 16-7.167969 16-16v-74.667969c0-55.871093-45.460938-101.332031-101.332031-101.332031zm0 0" fill="#607d8b"/><g fill="#42a5f5"><path d="m458.667969 213.332031h-138.667969c-11.796875 0-21.332031-9.554687-21.332031-21.332031s9.535156-21.332031 21.332031-21.332031h138.667969c11.796875 0 21.332031 9.554687 21.332031 21.332031s-9.535156 21.332031-21.332031 21.332031zm0 0"/><path d="m506.902344 180.265625-74.667969-69.332031c-3.007813-2.796875-6.933594-4.246094-10.878906-4.246094-10.582031 0-16.023438 9.003906-16.023438 15.980469v138.664062c0 8.875 7.210938 16 16 16 3.96875 0 7.875-1.46875 10.902344-4.265625l74.667969-69.332031c3.242187-3.03125 5.097656-7.296875 5.097656-11.734375s-1.855469-8.703125-5.097656-11.734375zm0 0"/></g></svg>