<svg id="Capa_1" enable-background="new 0 0 512 512" height="512" viewBox="0 0 512 512" width="512" xmlns="http://www.w3.org/2000/svg" xmlns:xlink="http://www.w3.org/1999/xlink"><linearGradient id="lg1"><stop offset="0" stop-color="#a93aff"/><stop offset="1" stop-color="#ff81ff"/></linearGradient><linearGradient id="SVGID_1_" gradientUnits="userSpaceOnUse" x1="256.482" x2="254.184" xlink:href="#lg1" y1="509.576" y2="17.831"/><linearGradient id="SVGID_2_" gradientUnits="userSpaceOnUse" x1="256" x2="256" y1="331" y2="0"><stop offset="0" stop-color="#ffbef9"/><stop offset="1" stop-color="#fff1ff"/></linearGradient><linearGradient id="SVGID_3_" gradientUnits="userSpaceOnUse" x1="257.994" x2="255.696" xlink:href="#lg1" y1="509.741" y2="8.805"/><g><path d="m437 512h-362c-8.291 0-15-6.709-15-15v-181c0-8.291 6.709-15 15-15h111.742l55.84-111.709c5.098-10.166 21.738-10.166 26.836 0l55.84 111.709h111.742c8.291 0 15 6.709 15 15v181c0 8.291-6.709 15-15 15z" fill="url(#SVGID_1_)"/><g><g><path d="m96.01 86.191c2.9 2.593 72.422 63.809 159.99 63.809s157.09-61.216 159.99-63.809c3.194-2.856 5.01-6.914 5.01-11.191s-1.816-8.335-5.01-11.191c-2.9-2.593-72.422-63.809-159.99-63.809s-157.09 61.216-159.99 63.809c-3.194 2.856-5.01 6.914-5.01 11.191s1.816 8.335 5.01 11.191zm414.408 223.1-60-120c-2.549-5.083-7.734-8.291-13.418-8.291h-362c-5.684 0-10.869 3.208-13.418 8.291l-60 120c-2.314 4.644-2.08 10.166.645 14.59 2.753 4.424 7.587 7.119 12.773 7.119h181c5.684 0 10.869-3.208 13.418-8.291l46.582-93.164 46.582 93.164c2.549 5.083 7.734 8.291 13.418 8.291h181c5.186 0 10.02-2.695 12.773-7.119 2.725-4.424 2.959-9.946.645-14.59z" fill="url(#SVGID_2_)"/></g></g><path d="m256 0c-41.4 0-75 33.6-75 75s33.6 75 75 75 75-33.6 75-75-33.6-75-75-75zm0 90c-8.401 0-15-6.599-15-15s6.599-15 15-15 15 6.599 15 15-6.599 15-15 15z" fill="url(#SVGID_3_)"/></g></svg>