<!--
  - Copyright (c) 2023. Selldone® Business OS™
  -
  - Author: M.Pajuhaan
  - Web: https://selldone.com
  - ━━━━━━━━━━━━━━━━━━━━━━━━━━━━━━━━━━━━━━━━━━━━━━━━━━━━━━
  -
  - All rights reserved. In the weave of time, where traditions and innovations intermingle, this content was crafted.
  - From the essence of thought, through the corridors of creativity, each word, and sentiment has been molded.
  - Not just to exist, but to inspire. Like an artist's stroke or a sculptor's chisel, every nuance is deliberate.
  - Our journey is not just about reaching a destination, but about creating a masterpiece.
  - Tread carefully, for you're treading on dreams.
  -->

<svg id="Capa_1" enable-background="new 0 0 510 510" height="512" viewBox="0 0 510 510" width="512" xmlns="http://www.w3.org/2000/svg" xmlns:xlink="http://www.w3.org/1999/xlink"><linearGradient id="SVGID_1_" gradientTransform="matrix(.972 -.235 .235 .972 7.442 59.122)" gradientUnits="userSpaceOnUse" x1="94.833" x2="461.764" y1="136.227" y2="503.158"><stop offset="0" stop-color="#d9b1ee"/><stop offset="1" stop-color="#814aa0"/></linearGradient><linearGradient id="lg1"><stop offset="0" stop-color="#5b3374" stop-opacity="0"/><stop offset="1" stop-color="#5b3374"/></linearGradient><linearGradient id="SVGID_00000001646414870940571210000008773136132897523856_" gradientUnits="userSpaceOnUse" x1="475.886" x2="427.787" xlink:href="#lg1" y1="263.011" y2="263.011"/><linearGradient id="SVGID_00000149361674039299963230000005510973586457670827_" gradientUnits="userSpaceOnUse" x1="223.91" x2="223.91" xlink:href="#lg1" y1="37.88" y2="100.191"/><linearGradient id="SVGID_00000163753190795056528910000010025222868126436271_" gradientTransform="matrix(.972 -.235 .235 .972 7.442 59.122)" gradientUnits="userSpaceOnUse" x1="197.091" x2="197.091" xlink:href="#lg1" y1="381.553" y2="482.398"/><linearGradient id="lg2"><stop offset="0" stop-color="#fd0"/><stop offset="1" stop-color="#ffb000"/></linearGradient><linearGradient id="SVGID_00000177474078283300026180000012391895556928401848_" gradientUnits="userSpaceOnUse" x1="27.505" x2="422.661" xlink:href="#lg2" y1="99.916" y2="495.071"/><linearGradient id="lg3"><stop offset="0" stop-color="#fea613" stop-opacity="0"/><stop offset="1" stop-color="#e94444"/></linearGradient><linearGradient id="SVGID_00000083795961522329118590000015009295181247482007_" gradientUnits="userSpaceOnUse" x1="282.233" x2="141.741" xlink:href="#lg3" y1="192.434" y2="51.943"/><linearGradient id="SVGID_00000029041704421322553430000007820316551502123928_" gradientUnits="userSpaceOnUse" x1="209.066" x2="233.485" y1="119.267" y2="143.686"><stop offset="0" stop-color="#fe93bb"/><stop offset="1" stop-color="#fd3581"/></linearGradient><linearGradient id="SVGID_00000168832144893612977600000018016141270813180067_" gradientUnits="userSpaceOnUse" x1="223.867" x2="223.867" xlink:href="#lg3" y1="441.81" y2="561.128"/><linearGradient id="SVGID_00000078729217473764227910000003368734891764292760_" gradientUnits="userSpaceOnUse" x1="348.814" x2="415.945" xlink:href="#lg2" y1="421.391" y2="488.522"/><g><g><path d="m473.928 406.343-339.976 82.086c-18.065 4.362-36.246-6.747-40.608-24.812l-82.085-339.976c-4.362-18.065 6.747-36.246 24.812-40.608l339.976-82.085c18.065-4.362 36.246 6.747 40.608 24.812l82.086 339.976c4.361 18.065-6.747 36.246-24.813 40.607z" fill="url(#SVGID_1_)"/><path d="m406.947 422.516 66.982-16.172c18.065-4.362 29.174-22.542 24.812-40.608l-63.315-262.23h-28.479z" fill="url(#SVGID_00000001646414870940571210000008773136132897523856_)"/><path d="m435.906 105.494-19.251-79.734c-4.362-18.065-22.542-29.174-40.608-24.812l-339.975 82.085c-11.84 2.859-20.69 11.653-24.157 22.461z" fill="url(#SVGID_00000149361674039299963230000005510973586457670827_)"/><path d="m52.302 293.629 41.043 169.988c4.362 18.065 22.542 29.174 40.608 24.812l339.976-82.086c18.065-4.362 29.174-22.543 24.812-40.608l-41.043-169.988z" fill="url(#SVGID_00000163753190795056528910000010025222868126436271_)"/></g><g><g><g><g><g><g><path d="m322.861 510h-284.163c-15.677 0-28.386-12.709-28.386-28.387l.25-370.421c0-15.677 12.709-28.387 28.386-28.387h370.338c15.677 0 28.387 12.709 28.387 28.387l-.25 284.246c0 63.271-51.291 114.562-114.562 114.562z" fill="url(#SVGID_00000177474078283300026180000012391895556928401848_)"/><g><path d="m240.894 117.292-33.804 33.804 104.118 104.118c16.112-4.977 28.826-17.692 33.804-33.804z" fill="url(#SVGID_00000083795961522329118590000015009295181247482007_)"/><circle cx="223.992" cy="134.194" fill="url(#SVGID_00000029041704421322553430000007820316551502123928_)" r="23.903"/></g><path d="m10.312 301.974v179.639c0 15.677 12.709 28.386 28.386 28.386h284.163c63.271 0 114.562-51.291 114.562-114.562v-93.464h-427.111z" fill="url(#SVGID_00000168832144893612977600000018016141270813180067_)"/></g></g></g></g><path d="m322.861 510v-86.175c0-15.677 12.709-28.387 28.387-28.387h86.175c0 63.271-51.291 114.562-114.562 114.562z" fill="url(#SVGID_00000078729217473764227910000003368734891764292760_)"/></g><g fill="#fff"><path d="m370.182 260.77h-163.989c-5.865 0-10.619 4.754-10.619 10.619s4.754 10.619 10.619 10.619h163.989c5.865 0 10.619-4.754 10.619-10.619s-4.754-10.619-10.619-10.619z"/><path d="m77.803 282.008h48.14c5.865 0 10.619-4.754 10.619-10.619s-4.754-10.619-10.619-10.619h-48.14c-5.865 0-10.619 4.754-10.619 10.619s4.754 10.619 10.619 10.619z"/><path d="m152.136 271.389c0 5.865 4.754 10.619 10.619 10.619h12.035c5.865 0 10.619-4.754 10.619-10.619s-4.754-10.619-10.619-10.619h-12.035c-5.864 0-10.619 4.754-10.619 10.619z"/><path d="m241.792 310.798h-163.989c-5.865 0-10.619 4.754-10.619 10.619s4.754 10.619 10.619 10.619h163.989c5.865 0 10.619-4.755 10.619-10.619 0-5.865-4.754-10.619-10.619-10.619z"/><path d="m370.182 310.798h-48.14c-5.865 0-10.619 4.754-10.619 10.619s4.754 10.619 10.619 10.619h48.14c5.865 0 10.619-4.755 10.619-10.619 0-5.865-4.754-10.619-10.619-10.619z"/><path d="m285.229 310.798h-12.035c-5.865 0-10.619 4.754-10.619 10.619s4.754 10.619 10.619 10.619h12.035c5.865 0 10.619-4.755 10.619-10.619 0-5.865-4.754-10.619-10.619-10.619z"/></g></g></g></svg>