<svg height="512pt" viewBox="0 0 512 512" width="512pt" xmlns="http://www.w3.org/2000/svg"><path d="m512 256c0 141.386719-114.613281 256-256 256s-256-114.613281-256-256 114.613281-256 256-256 256 114.613281 256 256zm0 0" fill="#937661"/><path d="m406.070312 256c0 82.878906-67.191406 150.070312-150.070312 150.070312s-150.070312-67.191406-150.070312-150.070312 67.191406-150.070312 150.070312-150.070312 150.070312 67.191406 150.070312 150.070312zm0 0" fill="#937661"/><path d="m432.464844 123.496094-61.972656 35.753906c-5.324219-6.476562-11.265626-12.417969-17.742188-17.742188l35.753906-61.972656c16.613282 12.554688 31.40625 27.347656 43.960938 43.960938zm0 0" fill="#424852"/><path d="m388.503906 79.535156-35.753906 61.972656c-13.539062-11.574218-29.0625-20.605468-45.816406-26.660156l35.664062-61.792968c16.296875 6.972656 31.707032 15.863281 45.90625 26.480468zm0 0" fill="#eb5463"/><path d="m342.597656 53.054688-35.664062 61.792968c-7.941406-2.871094-16.125-5.027344-24.449219-6.445312v-71.414063c20.710937 2.402344 40.964844 7.816407 60.113281 16.066407zm0 0" fill="#424852"/><path d="m282.484375 36.988281v71.414063c-17.503906-3.296875-35.464844-3.296875-52.96875 0v-71.414063c17.585937-2.238281 35.382813-2.238281 52.96875 0zm0 0" fill="#eb5463"/><path d="m229.515625 36.988281v71.414063c-8.324219 1.417968-16.507813 3.574218-24.449219 6.445312l-35.664062-61.792968c19.148437-8.25 39.402344-13.664063 60.113281-16.066407zm0 0" fill="#424852"/><path d="m205.066406 114.847656c-16.753906 6.054688-32.277344 15.085938-45.816406 26.660156l-35.753906-61.972656c14.199218-10.617187 29.609375-19.507812 45.90625-26.480468zm0 0" fill="#eb5463"/><path d="m159.25 141.507812c-6.476562 5.324219-12.417969 11.265626-17.742188 17.742188l-61.972656-35.753906c12.554688-16.613282 27.347656-31.40625 43.960938-43.960938zm0 0" fill="#424852"/><path d="m141.507812 159.25c-11.574218 13.539062-20.605468 29.0625-26.660156 45.816406l-61.792968-35.664062c6.972656-16.296875 15.863281-31.707032 26.480468-45.90625zm0 0" fill="#eb5463"/><path d="m114.847656 205.066406c-2.871094 7.941406-5.027344 16.125-6.445312 24.449219h-71.414063c2.402344-20.710937 7.816407-40.964844 16.066407-60.113281zm0 0" fill="#424852"/><path d="m105.929688 256c-.027344 8.886719.800781 17.753906 2.472656 26.484375h-71.414063c-2.238281-17.585937-2.238281-35.382813 0-52.96875h71.414063c-1.671875 8.730469-2.5 17.597656-2.472656 26.484375zm0 0" fill="#eb5463"/><path d="m114.847656 306.933594-61.792968 35.664062c-8.25-19.148437-13.664063-39.402344-16.066407-60.113281h71.414063c1.417968 8.324219 3.574218 16.507813 6.445312 24.449219zm0 0" fill="#424852"/><path d="m141.507812 352.75-61.972656 35.753906c-10.617187-14.199218-19.507812-29.609375-26.480468-45.90625l61.792968-35.664062c6.054688 16.753906 15.085938 32.277344 26.660156 45.816406zm0 0" fill="#eb5463"/><path d="m159.25 370.492188-35.753906 61.972656c-16.613282-12.554688-31.40625-27.347656-43.960938-43.960938l61.972656-35.753906c5.324219 6.476562 11.265626 12.417969 17.742188 17.742188zm0 0" fill="#424852"/><path d="m205.066406 397.152344-35.664062 61.792968c-16.296875-6.972656-31.707032-15.863281-45.90625-26.480468l35.753906-61.972656c13.539062 11.574218 29.0625 20.605468 45.816406 26.660156zm0 0" fill="#eb5463"/><path d="m229.515625 403.683594v71.328125c-20.710937-2.402344-40.964844-7.816407-60.113281-16.066407l35.664062-61.792968c7.953125 2.859375 16.132813 5.042968 24.449219 6.53125zm0 0" fill="#424852"/><path d="m282.484375 403.683594v71.328125c-17.585937 2.238281-35.382813 2.238281-52.96875 0v-71.328125c17.515625 3.179687 35.453125 3.179687 52.96875 0zm0 0" fill="#eb5463"/><path d="m342.597656 458.945312c-19.148437 8.25-39.402344 13.664063-60.113281 16.066407v-71.328125c8.316406-1.488282 16.496094-3.671875 24.449219-6.53125zm0 0" fill="#424852"/><path d="m388.503906 432.464844c-14.199218 10.617187-29.609375 19.507812-45.90625 26.480468l-35.664062-61.792968c16.753906-6.054688 32.277344-15.085938 45.816406-26.660156zm0 0" fill="#eb5463"/><path d="m432.464844 388.503906c-12.554688 16.613282-27.347656 31.40625-43.960938 43.960938l-35.753906-61.972656c6.476562-5.324219 12.417969-11.265626 17.742188-17.742188zm0 0" fill="#424852"/><path d="m458.945312 342.597656c-6.972656 16.296875-15.863281 31.707032-26.480468 45.90625l-61.972656-35.753906c11.574218-13.539062 20.605468-29.0625 26.660156-45.816406zm0 0" fill="#eb5463"/><path d="m475.011719 282.484375c-2.402344 20.710937-7.816407 40.964844-16.066407 60.113281l-61.792968-35.664062c2.859375-7.953125 5.042968-16.132813 6.53125-24.449219zm0 0" fill="#424852"/><path d="m476.691406 256c.023438 8.855469-.539062 17.703125-1.679687 26.484375h-71.328125c3.179687-17.515625 3.179687-35.453125 0-52.96875h71.328125c1.140625 8.78125 1.703125 17.628906 1.679687 26.484375zm0 0" fill="#eb5463"/><path d="m475.011719 229.515625h-71.328125c-1.488282-8.316406-3.671875-16.496094-6.53125-24.449219l61.792968-35.664062c8.25 19.148437 13.664063 39.402344 16.066407 60.113281zm0 0" fill="#424852"/><path d="m458.945312 169.402344-61.792968 35.664062c-6.054688-16.753906-15.085938-32.277344-26.660156-45.816406l61.972656-35.753906c10.617187 14.199218 19.507812 29.609375 26.480468 45.90625zm0 0" fill="#eb5463"/><g fill="#fdcd56"><path d="m282.484375 256c.015625 3.015625-.523437 6.007812-1.589844 8.828125-2.597656 7.542969-8.523437 13.46875-16.066406 16.066406-5.695313 2.117188-11.960937 2.117188-17.65625 0-7.542969-2.597656-13.46875-8.523437-16.066406-16.066406-2.117188-5.695313-2.117188-11.960937 0-17.65625 2.597656-7.542969 8.523437-13.46875 16.066406-16.066406 5.695313-2.117188 11.960937-2.117188 17.65625 0 7.542969 2.597656 13.46875 8.523437 16.066406 16.066406 1.066407 2.820313 1.605469 5.8125 1.589844 8.828125zm0 0"/><path d="m273.65625 176.550781c0 9.75-7.90625 17.65625-17.65625 17.65625s-17.65625-7.90625-17.65625-17.65625 7.90625-17.652343 17.65625-17.652343 17.65625 7.902343 17.65625 17.652343zm0 0"/><path d="m273.65625 335.449219c.007812 7.992187-5.355469 14.992187-13.074219 17.066406s-15.867187-1.292969-19.867187-8.214844c-4-6.917969-2.851563-15.664062 2.796875-21.316406 5.652343-5.652344 14.394531-6.804687 21.316406-2.808594 5.449219 3.160157 8.808594 8.972657 8.828125 15.273438zm0 0"/><path d="m194.207031 256c.015625 8.859375-6.535156 16.359375-15.320312 17.53125-8.78125 1.171875-17.070313-4.34375-19.378907-12.898438-2.308593-8.550781 2.078126-17.492187 10.253907-20.898437 8.179687-3.40625 17.617187-.226563 22.0625 7.4375 1.558593 2.683594 2.378906 5.726563 2.382812 8.828125zm0 0"/><path d="m353.101562 256c0 9.75-7.902343 17.65625-17.652343 17.65625s-17.65625-7.90625-17.65625-17.65625 7.90625-17.65625 17.65625-17.65625c9.738281.03125 17.625 7.917969 17.652343 17.65625zm0 0"/></g><path d="m512 256c0 141.386719-114.613281 256-256 256-3.882812 0-7.769531-.089844-11.652344-.351562 135.972656-7.152344 242.558594-119.488282 242.558594-255.648438s-106.585938-248.496094-242.558594-255.648438c3.882813-.2617182 7.769532-.351562 11.652344-.351562 141.386719 0 256 114.613281 256 256zm0 0" fill="#846956"/><path d="m406.070312 256c0 82.878906-67.191406 150.070312-150.070312 150.070312-2.914062 0-5.914062-.089843-8.828125-.265624 79.28125-4.714844 141.15625-70.386719 141.15625-149.804688s-61.875-145.089844-141.15625-149.804688c2.914063-.175781 5.914063-.265624 8.828125-.265624 82.878906 0 150.070312 67.191406 150.070312 150.070312zm0 0" fill="#846956"/><path d="m264.828125 256c.007813 1.003906-.171875 2-.53125 2.941406-.863281 2.515625-2.839844 4.492188-5.355469 5.355469-1.898437.707031-3.984375.707031-5.882812 0-2.515625-.863281-4.492188-2.839844-5.355469-5.355469-.707031-1.898437-.707031-3.984375 0-5.882812.863281-2.515625 2.839844-4.492188 5.355469-5.355469 1.898437-.707031 3.984375-.707031 5.882812 0 2.515625.863281 4.492188 2.839844 5.355469 5.355469.359375.941406.539063 1.9375.53125 2.941406zm0 0" fill="#ffd67b"/><path d="m386.117188 150.246094-15.625 9.003906c-5.324219-6.476562-11.265626-12.417969-17.742188-17.742188l9.003906-15.625c8.980469 7.214844 17.148438 15.382813 24.363282 24.363282zm0 0" fill="#353a42"/><path d="m361.753906 125.882812-9.003906 15.625c-13.539062-11.574218-29.0625-20.605468-45.816406-26.660156l8.917968-15.539062c16.617188 6.359375 32.113282 15.332031 45.902344 26.574218zm0 0" fill="#d94452"/><path d="m315.851562 99.308594-8.917968 15.539062c-7.941406-2.871094-16.125-5.027344-24.449219-6.445312v-18.007813c11.40625 1.769531 22.59375 4.761719 33.367187 8.914063zm0 0" fill="#353a42"/><path d="m282.484375 90.394531v18.007813c-17.503906-3.296875-35.464844-3.296875-52.96875 0v-18.007813c17.542969-2.824219 35.425781-2.824219 52.96875 0zm0 0" fill="#d94452"/><path d="m229.515625 90.394531v18.007813c-8.324219 1.417968-16.507813 3.574218-24.449219 6.445312l-8.917968-15.539062c10.773437-4.152344 21.960937-7.144532 33.367187-8.914063zm0 0" fill="#353a42"/><path d="m205.066406 114.847656c-16.753906 6.054688-32.277344 15.085938-45.816406 26.660156l-9.003906-15.625c13.789062-11.242187 29.285156-20.214843 45.902344-26.574218zm0 0" fill="#d94452"/><path d="m159.25 141.507812c-6.476562 5.324219-12.417969 11.265626-17.742188 17.742188l-15.625-9.003906c7.214844-8.980469 15.382813-17.148438 24.363282-24.363282zm0 0" fill="#353a42"/><path d="m141.507812 159.25c-11.574218 13.539062-20.605468 29.0625-26.660156 45.816406l-15.539062-8.917968c6.359375-16.617188 15.332031-32.113282 26.574218-45.902344zm0 0" fill="#d94452"/><path d="m114.847656 205.066406c-2.871094 7.941406-5.027344 16.125-6.445312 24.449219h-18.007813c1.769531-11.40625 4.761719-22.59375 8.914063-33.367187zm0 0" fill="#353a42"/><path d="m105.929688 256c-.027344 8.886719.800781 17.753906 2.472656 26.484375h-18.007813c-2.824219-17.542969-2.824219-35.425781 0-52.96875h18.007813c-1.671875 8.730469-2.5 17.597656-2.472656 26.484375zm0 0" fill="#d94452"/><path d="m114.847656 306.933594-15.539062 8.917968c-4.152344-10.773437-7.144532-21.960937-8.914063-33.367187h18.007813c1.417968 8.324219 3.574218 16.507813 6.445312 24.449219zm0 0" fill="#353a42"/><path d="m141.507812 352.75-15.625 9.003906c-11.242187-13.789062-20.214843-29.285156-26.574218-45.902344l15.539062-8.917968c6.054688 16.753906 15.085938 32.277344 26.660156 45.816406zm0 0" fill="#d94452"/><path d="m159.25 370.492188-9.003906 15.625c-8.980469-7.214844-17.148438-15.382813-24.363282-24.363282l15.625-9.003906c5.324219 6.476562 11.265626 12.417969 17.742188 17.742188zm0 0" fill="#353a42"/><path d="m205.066406 397.152344-8.917968 15.539062c-16.617188-6.359375-32.113282-15.332031-45.902344-26.574218l9.003906-15.625c13.539062 11.574218 29.0625 20.605468 45.816406 26.660156zm0 0" fill="#d94452"/><path d="m229.515625 403.683594v17.921875c-11.40625-1.769531-22.59375-4.761719-33.367187-8.914063l8.917968-15.539062c7.953125 2.859375 16.132813 5.042968 24.449219 6.53125zm0 0" fill="#353a42"/><path d="m282.484375 403.683594v17.921875c-17.542969 2.824219-35.425781 2.824219-52.96875 0v-17.921875c17.515625 3.179687 35.453125 3.179687 52.96875 0zm0 0" fill="#d94452"/><path d="m315.851562 412.691406c-10.773437 4.152344-21.960937 7.144532-33.367187 8.914063v-17.921875c8.316406-1.488282 16.496094-3.671875 24.449219-6.53125zm0 0" fill="#353a42"/><path d="m361.753906 386.117188c-13.789062 11.242187-29.285156 20.214843-45.902344 26.574218l-8.917968-15.539062c16.753906-6.054688 32.277344-15.085938 45.816406-26.660156zm0 0" fill="#d94452"/><path d="m386.117188 361.753906c-7.214844 8.980469-15.382813 17.148438-24.363282 24.363282l-9.003906-15.625c6.476562-5.324219 12.417969-11.265626 17.742188-17.742188zm0 0" fill="#353a42"/><path d="m412.691406 315.851562c-6.359375 16.617188-15.332031 32.113282-26.574218 45.902344l-15.625-9.003906c11.574218-13.539062 20.605468-29.0625 26.660156-45.816406zm0 0" fill="#d94452"/><path d="m421.605469 282.484375c-1.769531 11.40625-4.761719 22.59375-8.914063 33.367187l-15.539062-8.917968c2.859375-7.953125 5.042968-16.132813 6.53125-24.449219zm0 0" fill="#353a42"/><path d="m423.722656 256c.011719 8.871094-.695312 17.726562-2.117187 26.484375h-17.921875c3.179687-17.515625 3.179687-35.453125 0-52.96875h17.921875c1.421875 8.757813 2.128906 17.613281 2.117187 26.484375zm0 0" fill="#d94452"/><path d="m421.605469 229.515625h-17.921875c-1.488282-8.316406-3.671875-16.496094-6.53125-24.449219l15.539062-8.917968c4.152344 10.773437 7.144532 21.960937 8.914063 33.367187zm0 0" fill="#353a42"/><path d="m412.691406 196.148438-15.539062 8.917968c-6.054688-16.753906-15.085938-32.277344-26.660156-45.816406l15.625-9.003906c11.242187 13.789062 20.214843 29.285156 26.574218 45.902344zm0 0" fill="#d94452"/><path d="m264.828125 191.824219v39.28125c-5.695313-2.117188-11.960937-2.117188-17.65625 0v-39.28125c5.457031 3.175781 12.199219 3.175781 17.65625 0zm0 0" fill="#f2a149"/><path d="m229.515625 256c-.015625 3.015625.523437 6.007812 1.589844 8.828125h-39.28125c3.175781-5.457031 3.175781-12.199219 0-17.65625h39.28125c-1.066407 2.820313-1.605469 5.8125-1.589844 8.828125zm0 0" fill="#f2a149"/><path d="m264.828125 280.894531v39.28125c-5.457031-3.175781-12.199219-3.175781-17.65625 0v-39.28125c5.695313 2.117188 11.960937 2.117188 17.65625 0zm0 0" fill="#f2a149"/><path d="m317.792969 256c.003906 3.101562.828125 6.144531 2.382812 8.828125h-39.28125c2.117188-5.695313 2.117188-11.960937 0-17.65625h39.28125c-1.554687 2.683594-2.378906 5.726563-2.382812 8.828125zm0 0" fill="#f2a149"/><path d="m256 485.515625c-126.757812 0-229.515625-102.757813-229.515625-229.515625s102.757813-229.515625 229.515625-229.515625 229.515625 102.757813 229.515625 229.515625c-.140625 126.699219-102.816406 229.375-229.515625 229.515625zm0-441.378906c-117.007812 0-211.863281 94.855469-211.863281 211.863281s94.855469 211.863281 211.863281 211.863281 211.863281-94.855469 211.863281-211.863281c-.136719-116.953125-94.910156-211.726562-211.863281-211.863281zm0 0" fill="#f4f6f8"/></svg>