<svg height="852pt" viewBox="-41 -26 852 852.49995" width="852pt" xmlns="http://www.w3.org/2000/svg"><path d="m35.34375 397.859375c.097656 120.726563 65.484375 231.957031 170.925781 290.757813l-70.480469 82.214843h-47.167968c-7.351563 0-13.316406 5.960938-13.316406 13.316407 0 7.359374 5.964843 13.320312 13.316406 13.320312h133.207031c7.351563 0 13.320313-5.960938 13.320313-13.320312 0-7.355469-5.96875-13.316407-13.320313-13.316407h-50.980469l59.878906-69.855469c84.097657 38.296876 180.332032 39.859376 265.636719 4.316407l56.167969 65.539062h-50.976562c-7.359376 0-13.324219 5.960938-13.324219 13.316407 0 7.359374 5.964843 13.320312 13.324219 13.320312h133.203124c7.359376 0 13.320313-5.960938 13.320313-13.320312 0-7.355469-5.960937-13.316407-13.320313-13.316407h-47.167968l-66.175782-77.257812c51.640626-26.734375 95.390626-66.503907 126.902344-115.382813 3.761719-6.164062 1.921875-14.214844-4.148437-18.128906-6.070313-3.917969-14.164063-2.28125-18.230469 3.691406-82.46875 128.078125-246.503906 176.105469-385.03125 112.742188-138.53125-63.367188-209.457031-218.882813-166.480469-365.03125 42.96875-146.140625 186.789063-238.511719 337.570313-216.816406 150.769531 21.699218 262.707031 150.886718 262.722656 303.210937 0 4.285156-.089844 8.539063-.269531 12.777344-.300781 7.351562 5.414062 13.566406 12.773437 13.863281 7.359375.308594 13.566406-5.414062 13.871094-12.769531.167969-4.546875.265625-9.21875.265625-13.871094 0-183.910156-149.09375-333.003906-333.011719-333.003906-183.914062 0-333.003906 149.09375-333.003906 333.003906zm0 0"/><path d="m368.347656 597.664062c-22.070312 0-39.957031 17.894532-39.957031 39.96875 0 22.0625 17.886719 39.953126 39.957031 39.953126 22.074219 0 39.964844-17.890626 39.964844-39.953126 0-22.074218-17.890625-39.96875-39.964844-39.96875zm0 53.285157c-7.351562 0-13.316406-5.964844-13.316406-13.316407 0-7.363281 5.964844-13.328124 13.316406-13.328124 7.359375 0 13.320313 5.964843 13.320313 13.328124 0 7.351563-5.960938 13.316407-13.320313 13.316407zm0 0"/><path d="m261.785156 637.632812c22.074219 0 39.964844-17.898437 39.964844-39.96875 0-22.066406-17.890625-39.960937-39.964844-39.960937-22.066406 0-39.957031 17.894531-39.957031 39.960937 0 22.070313 17.890625 39.96875 39.957031 39.96875zm0-53.289062c7.363282 0 13.324219 5.972656 13.324219 13.320312 0 7.359376-5.960937 13.324219-13.324219 13.324219-7.351562 0-13.316406-5.964843-13.316406-13.324219 0-7.347656 5.964844-13.320312 13.316406-13.320312zm0 0"/><path d="m368.347656 491.105469c-22.070312 0-39.957031 17.890625-39.957031 39.957031 0 22.070312 17.886719 39.964844 39.957031 39.964844 22.074219 0 39.964844-17.894532 39.964844-39.964844 0-22.066406-17.890625-39.957031-39.964844-39.957031zm0 53.28125c-7.351562 0-13.316406-5.964844-13.316406-13.324219 0-7.351562 5.964844-13.320312 13.316406-13.320312 7.359375 0 13.320313 5.96875 13.320313 13.320312 0 7.359375-5.960938 13.324219-13.320313 13.324219zm0 0"/><path d="m514.875 597.664062c0-22.066406-17.894531-39.960937-39.960938-39.960937-22.074218 0-39.960937 17.894531-39.960937 39.960937 0 22.070313 17.886719 39.96875 39.960937 39.96875 22.066407 0 39.960938-17.898437 39.960938-39.96875zm-53.285156 0c0-7.347656 5.964844-13.320312 13.324218-13.320312 7.355469 0 13.316407 5.972656 13.316407 13.320312 0 7.359376-5.960938 13.324219-13.316407 13.324219-7.359374 0-13.324218-5.964843-13.324218-13.324219zm0 0"/><path d="m128.585938 517.742188c0 22.070312 17.886718 39.960937 39.957031 39.960937 22.074219 0 39.964843-17.890625 39.964843-39.960937 0-22.070313-17.890624-39.960938-39.964843-39.960938-22.070313 0-39.957031 17.890625-39.957031 39.960938zm53.277343 0c0 7.359374-5.960937 13.320312-13.320312 13.320312-7.351563 0-13.316407-5.960938-13.316407-13.320312 0-7.355469 5.964844-13.320313 13.316407-13.320313 7.359375 0 13.320312 5.964844 13.320312 13.320313zm0 0"/><path d="m248.46875 357.898438c0-22.066407-17.898438-39.960938-39.960938-39.960938-22.066406 0-39.964843 17.894531-39.964843 39.960938 0 22.074218 17.898437 39.960937 39.964843 39.960937 22.0625 0 39.960938-17.886719 39.960938-39.960937zm-53.289062 0c0-7.355469 5.96875-13.316407 13.328124-13.316407 7.351563 0 13.320313 5.960938 13.320313 13.316407 0 7.359374-5.96875 13.324218-13.320313 13.324218-7.359374 0-13.328124-5.964844-13.328124-13.324218zm0 0"/><path d="m315.070312 491.105469c0-22.074219-17.894531-39.960938-39.960937-39.960938-22.074219 0-39.960937 17.886719-39.960937 39.960938 0 22.066406 17.886718 39.957031 39.960937 39.957031 22.066406 0 39.960937-17.890625 39.960937-39.957031zm-39.960937 13.316406c-7.359375 0-13.324219-5.960937-13.324219-13.316406 0-7.363281 5.964844-13.324219 13.324219-13.324219 7.355469 0 13.316406 5.960938 13.316406 13.324219 0 7.355469-5.960937 13.316406-13.316406 13.316406zm0 0"/><path d="m501.554688 277.976562c0 22.074219 17.890624 39.960938 39.957031 39.960938 22.074219 0 39.960937-17.886719 39.960937-39.960938 0-22.066406-17.886718-39.953124-39.960937-39.953124-22.066407 0-39.957031 17.886718-39.957031 39.953124zm53.28125 0c0 7.363282-5.960938 13.324219-13.324219 13.324219-7.355469 0-13.316407-5.960937-13.316407-13.324219 0-7.355468 5.960938-13.316406 13.316407-13.316406 7.363281 0 13.324219 5.960938 13.324219 13.316406zm0 0"/><path d="m355.03125 251.339844c22.066406 0 39.953125-17.894532 39.953125-39.960938 0-22.074218-17.886719-39.960937-39.953125-39.960937-22.074219 0-39.960938 17.886719-39.960938 39.960937 0 22.066406 17.886719 39.960938 39.960938 39.960938zm0-53.285156c7.355469 0 13.316406 5.96875 13.316406 13.324218 0 7.355469-5.960937 13.316406-13.316406 13.316406-7.363281 0-13.324219-5.960937-13.324219-13.316406 0-7.355468 5.960938-13.324218 13.324219-13.324218zm0 0"/><path d="m368.347656 357.898438c7.015625-.007813 13.902344 1.832031 19.980469 5.328124 6.332031 3.3125 14.136719 1.042969 17.707031-5.132812 3.574219-6.183594 1.644532-14.082031-4.382812-17.910156-29.433594-17.03125-66.964844-9.15625-87.070313 18.261718-20.109375 27.421876-16.332031 65.585938 8.765625 88.53125 25.09375 22.949219 63.4375 23.304688 88.957032.835938 3.574218-3.148438 5.1875-7.960938 4.25-12.628906-.945313-4.664063-4.304688-8.46875-8.8125-9.984375-4.511719-1.519531-9.488282-.515625-13.058594 2.632812-13.339844 11.765625-32.855469 13.296875-47.867188 3.753907-15.011718-9.539063-21.910156-27.855469-16.917968-44.929688 4.984374-17.082031 20.664062-28.800781 38.449218-28.757812zm0 0"/><path d="m714.679688 451.144531c-24.222657.085938-45.339844 16.5-51.390626 39.960938h-97.425781c-3.535156 0-6.917969-1.410157-9.417969-3.902344l-90.953124-90.953125c-7.472657-7.515625-17.644532-11.734375-28.246094-11.710938h-68.898438c-7.351562 0-13.316406 5.972657-13.316406 13.320313 0 7.359375 5.964844 13.324219 13.316406 13.324219h68.898438c3.53125 0 6.921875 1.402344 9.414062 3.902344l90.949219 90.949218c7.472656 7.523438 17.65625 11.742188 28.253906 11.707032h97.425781c6.964844 26.742187 33.253907 43.695312 60.492188 39 27.230469-4.679688 46.339844-29.445313 43.96875-56.980469-2.375-27.53125-25.4375-48.660157-53.070312-48.617188zm0 79.917969c-14.71875 0-26.644532-11.929688-26.644532-26.640625s11.925782-26.640625 26.644532-26.640625c14.710937 0 26.636718 11.929688 26.636718 26.640625s-11.925781 26.640625-26.636718 26.640625zm0 0"/><path d="m181.863281 72.84375c2.246094.007812 4.460938-.566406 6.425781-1.664062 55.15625-30.367188 117.097657-46.289063 180.058594-46.289063 7.359375 0 13.320313-5.960937 13.320313-13.316406s-5.960938-13.324219-13.320313-13.324219c-67.460937-.003906-133.816406 17.050781-192.914062 49.582031-5.359375 2.921875-8.042969 9.101563-6.527344 15.011719 1.519531 5.910156 6.855469 10.03125 12.957031 10zm0 0"/><path d="m51.421875 154.4375c-21.65625 28.144531-39.449219 59.054688-52.921875 91.90625-2.757812 6.785156.484375 14.515625 7.257812 17.316406 1.605469.664063 3.320313 1.007813 5.058594 1 5.402344 0 10.265625-3.261718 12.324219-8.261718 12.578125-30.652344 29.195313-59.488282 49.402344-85.742188 4.335937-5.839844 3.191406-14.074219-2.582031-18.503906-5.765626-4.421875-14.015626-3.414063-18.539063 2.285156zm0 0"/><path d="m612.710938 679.640625c-3.765626 3.070313-5.558594 7.941406-4.6875 12.722656.875 4.769531 4.273437 8.699219 8.882812 10.234375 4.605469 1.535156 9.683594.453125 13.25-2.84375 20.28125-17.601562 38.746094-37.1875 55.121094-58.464844 4.335937-5.839843 3.1875-14.070312-2.585938-18.5-5.757812-4.425781-14.011718-3.414062-18.539062 2.28125-15.277344 19.859376-32.519532 38.136719-51.441406 54.570313zm0 0"/></svg>