<svg id="Layer_1" enable-background="new 0 0 512 512" height="512" viewBox="0 0 512 512" width="512"
     xmlns="http://www.w3.org/2000/svg">
    <g>
        <g>
            <path d="m118.705 241.365h241.359v45.255h-241.359z" fill="#323232"
                  transform="matrix(.707 -.707 .707 .707 -116.557 246.592)"/>
        </g>
        <g>
            <path d="m110.705 244.678h241.359v22.627h-241.359z" fill="#464646"
                  transform="matrix(.707 -.707 .707 .707 -113.243 238.592)"/>
        </g>
        <g>
            <path d="m170.051 333.326 32-32v-32l-32 32z" fill="#646464"/>
        </g>
        <g>
            <path d="m234.051 269.326 32-32.001v-32l-32 32z" fill="#646464"/>
        </g>
        <g>
            <path d="m170.051 365.326 32-32v-32l-32 32z" fill="#464646"/>
        </g>
        <g>
            <path d="m234.051 301.326 32-32v-32.001l-32 32.001z" fill="#464646"/>
        </g>
        <g>
            <path d="m39.708 415.669 84.686-84.686c3.124-3.124 8.19-3.124 11.314 0l36.686 36.686c3.124 3.124 3.124 8.19 0 11.314l-84.686 84.686c-3.124 3.124-8.19 3.124-11.314 0l-36.686-36.686c-3.124-3.125-3.124-8.19 0-11.314z"
                  fill="#f58caa"/>
        </g>
        <g>
            <path d="m58.051 445.326 96-96 18.343 18.343c3.124 3.124 3.124 8.19 0 11.314l-84.686 84.686c-3.124 3.124-8.19 3.124-11.314 0z"
                  fill="#f0697d"/>
        </g>
        <g>
            <path d="m429.76 85.709-22.569 66.553 42.03 56.322c4.727 6.334.139 15.338-7.764 15.237l-70.27-.898-40.577 57.378c-4.563 6.452-14.544 4.872-16.89-2.675l-20.861-67.109-67.109-20.86c-7.547-2.346-9.128-12.327-2.675-16.89l57.378-40.577-.898-70.27c-.101-7.902 8.903-12.49 15.237-7.764l56.322 42.03 66.553-22.569c7.485-2.538 14.631 4.608 12.093 12.092z"
                  fill="#faa037"/>
        </g>
        <g>
            <path d="m397.26 113.803-14.346 42.305 26.717 35.801c3.004 4.026.088 9.75-4.935 9.685l-44.667-.571-25.793 36.472c-2.901 4.102-9.245 3.097-10.736-1.7l-13.26-42.657-42.657-13.26c-4.797-1.491-5.802-7.836-1.7-10.736l36.472-25.793-.571-44.667c-.064-5.023 5.659-7.939 9.685-4.935l35.801 26.717 42.305-14.346c4.756-1.614 9.298 2.928 7.685 7.685z"
                  fill="#fad241"/>
        </g>
        <g>
            <g>
                <path d="m218.051 61.325h-16v-16c0-4.418 3.582-8 8-8 4.418 0 8 3.582 8 8z" fill="#faa51e"/>
            </g>
            <g>
                <path d="m210.051 101.325c-4.418 0-8-3.582-8-8v-16h16v16c0 4.419-3.581 8-8 8z" fill="#faa51e"/>
            </g>
            <g>
                <path d="m202.051 61.325v16h-16c-4.418 0-8-3.582-8-8 0-4.418 3.582-8 8-8z" fill="#faa51e"/>
            </g>
            <g>
                <path d="m242.051 69.325c0 4.418-3.582 8-8 8h-16v-16h16c4.419 0 8 3.582 8 8z" fill="#faa51e"/>
            </g>
        </g>
        <g>
            <g>
                <path d="m450.051 285.326h-16v-16c0-4.418 3.582-8 8-8 4.418 0 8 3.582 8 8z" fill="#faa51e"/>
            </g>
            <g>
                <path d="m442.051 325.326c-4.418 0-8-3.582-8-8v-16h16v16c0 4.418-3.581 8-8 8z" fill="#faa51e"/>
            </g>
            <g>
                <path d="m434.051 285.326v16h-16c-4.418 0-8-3.582-8-8 0-4.418 3.582-8 8-8z" fill="#faa51e"/>
            </g>
            <g>
                <path d="m474.051 293.325c0 4.418-3.582 8-8 8h-16v-16h16c4.419.001 8 3.582 8 8z" fill="#faa51e"/>
            </g>
        </g>
        <g>
            <g>
                <path d="m298.051 349.326h-16v-16c0-4.418 3.582-8 8-8 4.418 0 8 3.582 8 8z" fill="#faa51e"/>
            </g>
            <g>
                <path d="m290.051 389.326c-4.418 0-8-3.582-8-8v-16h16v16c0 4.418-3.581 8-8 8z" fill="#faa51e"/>
            </g>
            <g>
                <path d="m282.051 349.326v16h-16c-4.418 0-8-3.582-8-8 0-4.418 3.582-8 8-8z" fill="#faa51e"/>
            </g>
            <g>
                <path d="m322.051 357.325c0 4.418-3.582 8-8 8h-16v-16h16c4.419.001 8 3.582 8 8z" fill="#faa51e"/>
            </g>
        </g>
    </g>
</svg>