<svg height="511pt" viewBox="0 -17 511.99917 511" width="511pt" xmlns="http://www.w3.org/2000/svg"><path d="m23.21875 120.046875s-11.015625 32.5-9.429688 73.960937c.777344 20.242188 25.609376 29.433594 39.503907 14.695313 30.242187-32.078125 80.640625-70.722656 138.839843-55.78125-3.84375-3.84375-38.4375-98.660156-38.4375-98.660156s-93.101562-17.0625-130.476562 65.785156zm0 0" fill="#b86eff"/><path d="m192.132812 152.921875c-3.84375-3.84375-38.4375-98.660156-38.4375-98.660156s-93.101562-17.0625-130.476562 65.785156c0 0-1.359375 4.011719-3.050781 11 24.050781 2.148437 51.550781 13.867187 57.867187 54.535156 29.832032-24.269531 69.695313-44.058593 114.097656-32.660156zm0 0" fill="#9f4dff"/><path d="m31.78125 403.921875s111.566406-62.738281 101.085938-175.925781c-10.480469-113.1875-50.058594-202.273438-109.648438-107.949219 0 0 33.835938-138.371094 214.996094-117.378906 190.960937 22.125 208.835937 377.289062 208.835937 377.289062zm0 0" fill="#cf92ff"/><path d="m129.082031 196.40625c1.523438 10.21875 2.785157 20.792969 3.785157 31.589844 10.480468 113.1875-101.082032 175.925781-101.082032 175.925781l138.570313-7.996094c21.796875-119.019531-41.160157-199.375-41.273438-199.519531zm0 0" fill="#b86eff"/><path d="m31.78125 403.921875 415.269531-23.964844s-2.9375-58.332031-19.136719-129.183593c-45.769531 10.140624-102.746093 23.277343-155.171874 36.804687-70.699219 18.246094-119.824219 10.570313-146.441407 2.433594-23.28125 73.847656-94.519531 113.910156-94.519531 113.910156zm0 0" fill="#ffeb99"/><path d="m170.667969 298.058594c-18.574219-1.414063-33.390625-4.691406-44.367188-8.046875-23.28125 73.847656-94.519531 113.910156-94.519531 113.910156l138.574219-7.996094c6.722656-36.710937 5.382812-69.734375.3125-97.867187zm0 0" fill="#ffde55"/><path d="m255.136719 373.65625-18.285157-79.132812c-2.347656-10.164063 3.988282-20.3125 14.152344-22.660157l92.101563-21.285156c10.164062-2.351563 20.3125 3.988281 22.664062 14.152344l18.285157 79.128906c2.347656 10.167969-3.988282 20.3125-14.152344 22.664063l-92.101563 21.285156c-15.796875 3.71875-21.535156-9.269532-22.664062-14.152344zm22.78125-69.230469 9.78125 42.3125 55.289062-12.777343-9.78125-42.3125zm0 0" fill="#898890"/><path d="m9.316406 385.554688c8.84375-9.828126 22.332032-14.0625 35.199219-11.03125 35.480469 8.367187 113.128906 22.105468 199.792969 8.53125 64.347656-10.078126 126.371094-32.175782 172.304687-51.75 39.785157-16.957032 88.84375 10.753906 94.515625 48.996093 5.671875 38.242188-16.757812 75.671875-55.273437 82.539063-43.253907 7.710937-110.492188 14.796875-211.546875 14.796875-120.558594 0-187.484375-18.332031-223.460938-35.066407-22.035156-10.246093-27.785156-38.953124-11.53125-57.015624zm0 0" fill="#dfaeff"/><path d="m508.125 416.433594c-24.242188-24.523438-72.511719-30.304688-117.820312-.53125-81.125 53.3125-188.5625 60.917968-188.5625 60.917968 13.386718.527344 27.558593.8125 42.566406.8125 101.054687 0 168.292968-7.085937 211.546875-14.796874 25.953125-4.628907 44.601562-23.125 52.269531-46.402344zm0 0" fill="#cf92ff"/><g fill="#57565c"><path d="m363.714844 185.941406c-4.191406.820313-8.257813-1.914062-9.078125-6.105468l-2.46875-12.609376c-.820313-4.191406 1.910156-8.257812 6.105469-9.078124 4.195312-.820313 8.257812 1.910156 9.082031 6.105468l2.46875 12.605469c.820312 4.195313-1.914063 8.261719-6.109375 9.082031zm0 0"/><path d="m200.398438 217.921875c-4.195313.824219-8.257813-1.910156-9.082032-6.105469l-2.46875-12.605468c-.820312-4.195313 1.914063-8.257813 6.109375-9.082032 4.191407-.820312 8.257813 1.914063 9.078125 6.109375l2.46875 12.605469c.820313 4.195312-1.910156 8.257812-6.105468 9.078125zm0 0"/><path d="m283.613281 209.882812c-9.828125 1.921876-20.277343.667969-29.722656-4.085937-3.816406-1.921875-5.355469-6.574219-3.433594-10.390625s6.574219-5.355469 10.390625-3.433594c12.582032 6.332032 27.835938 3.347656 37.097656-7.265625 2.808594-3.21875 7.695313-3.550781 10.914063-.738281 3.222656 2.8125 3.554687 7.699219.742187 10.917969-6.953124 7.96875-16.160156 13.070312-25.988281 14.996093zm0 0"/></g><path d="m133.355469 436.710938c.433593-33.820313 31.097656-45.933594 36.929687-47.933594-55.078125.15625-100.835937-8.375-125.769531-14.253906-12.867187-3.035157-26.355469 1.203124-35.199219 11.03125-16.257812 18.0625-10.503906 46.769531 11.53125 57.015624 27.441406 12.765626 72.898438 26.457032 146.421875 32.238282-5.800781-.574219-34.339843-5.074219-33.914062-38.097656zm0 0" fill="#cf92ff"/></svg>