<svg xmlns="http://www.w3.org/2000/svg" width="512" height="512"><path fill="#323232" d="m138.012 333.313 170.641-170.641 31.996 31.995-170.641 170.64z"/><path fill="#464646" d="m138.013 333.31 170.64-170.64 15.998 15.997-170.64 170.641z"/><path fill="#646464" d="m170.051 333.326 32-32v-32l-32 32zM234.051 269.326l32-32.001v-32l-32 32z"/><path fill="#464646" d="m170.051 365.326 32-32v-32l-32 32zM234.051 301.326l32-32v-32.001l-32 32.001z"/><path fill="#f58caa" d="m39.708 415.669 84.686-84.686a8 8 0 0 1 11.314 0l36.686 36.686a8 8 0 0 1 0 11.314l-84.686 84.686a8 8 0 0 1-11.314 0l-36.686-36.686a8 8 0 0 1 0-11.314"/><path fill="#f0697d" d="m58.051 445.326 96-96 18.343 18.343a8 8 0 0 1 0 11.314l-84.686 84.686a8 8 0 0 1-11.314 0z"/><path fill="#faa037" d="m429.76 85.709-22.569 66.553 42.03 56.322c4.727 6.334.139 15.338-7.764 15.237l-70.27-.898-40.577 57.378c-4.563 6.452-14.544 4.872-16.89-2.675l-20.861-67.109-67.109-20.86c-7.547-2.346-9.128-12.327-2.675-16.89l57.378-40.577-.898-70.27c-.101-7.902 8.903-12.49 15.237-7.764l56.322 42.03 66.553-22.569c7.485-2.538 14.631 4.608 12.093 12.092"/><path fill="#fad241" d="m397.26 113.803-14.346 42.305 26.717 35.801c3.004 4.026.088 9.75-4.935 9.685l-44.667-.571-25.793 36.472c-2.901 4.102-9.245 3.097-10.736-1.7l-13.26-42.657-42.657-13.26c-4.797-1.491-5.802-7.836-1.7-10.736l36.472-25.793-.571-44.667c-.064-5.023 5.659-7.939 9.685-4.935l35.801 26.717 42.305-14.346c4.756-1.614 9.298 2.928 7.685 7.685"/><path fill="#faa51e" d="M218.051 61.325h-16v-16a8 8 0 0 1 16 0zM210.051 101.325a8 8 0 0 1-8-8v-16h16v16a8 8 0 0 1-8 8M202.051 61.325v16h-16a8 8 0 0 1 0-16zM242.051 69.325a8 8 0 0 1-8 8h-16v-16h16a8 8 0 0 1 8 8M450.051 285.326h-16v-16a8 8 0 0 1 16 0zM442.051 325.326a8 8 0 0 1-8-8v-16h16v16a8 8 0 0 1-8 8M434.051 285.326v16h-16a8 8 0 0 1 0-16zM474.051 293.325a8 8 0 0 1-8 8h-16v-16h16a8 8 0 0 1 8 8M298.051 349.326h-16v-16a8 8 0 0 1 16 0zM290.051 389.326a8 8 0 0 1-8-8v-16h16v16a8 8 0 0 1-8 8M282.051 349.326v16h-16a8 8 0 0 1 0-16zM322.051 357.325a8 8 0 0 1-8 8h-16v-16h16a8 8 0 0 1 8 8"/></svg>