<!--
  - Copyright (c) 2023. Selldone® Business OS™
  -
  - Author: M.Pajuhaan
  - Web: https://selldone.com
  - ━━━━━━━━━━━━━━━━━━━━━━━━━━━━━━━━━━━━━━━━━━━━━━━━━━━━━━
  -
  - All rights reserved. In the weave of time, where traditions and innovations intermingle, this content was crafted.
  - From the essence of thought, through the corridors of creativity, each word, and sentiment has been molded.
  - Not just to exist, but to inspire. Like an artist's stroke or a sculptor's chisel, every nuance is deliberate.
  - Our journey is not just about reaching a destination, but about creating a masterpiece.
  - Tread carefully, for you're treading on dreams.
  -->

<svg height="512pt" viewBox="-54 0 512 512.00108" width="512pt" xmlns="http://www.w3.org/2000/svg"><path d="m404.363281 202.179688c0-110.605469-88.816406-200.46875-199.019531-202.1562505-111.988281-1.7148435-205.34375 90.1562505-205.34375 202.1601565 0 49.816406 18.027344 95.414062 47.902344 130.652344h-.019532l.558594.644531c.914063 1.0625 1.835938 2.117187 2.769532 3.164062l150.410156 172.109375c3.894531 4.457032 10.871094 4.300782 14.566406-.320312l140.296875-175.597656h-.019531c29.871094-35.238282 47.898437-80.835938 47.898437-130.65625zm0 0" fill="#407fff"/><path d="m404.363281 202.179688c0-110.605469-88.816406-200.46875-199.019531-202.1562505-9.738281-.1484375-19.328125.4257815-28.734375 1.6406245 99.402344 12.742188 176.226563 97.652344 176.226563 200.515626 0 49.816406-18.027344 95.417968-47.898438 130.65625h.019531l-122.777343 153.671874 19.441406 22.246094c3.894531 4.457032 10.871094 4.300782 14.566406-.320312l140.296875-175.597656h-.019531c29.871094-35.238282 47.898437-80.835938 47.898437-130.65625zm0 0" fill="#406aef"/><path d="m139.914062 143.734375 17.199219 93.722656c1.0625 3.46875 4.269531 5.835938 7.894531 5.835938h117.078126c4.585937 0 8.476562-3.359375 9.140624-7.894531l9.261719-63.136719c.617188-4.210938-2.339843-8.113281-6.5625-8.65625z" fill="#e3faff"/><path d="m282.085938 251.023438h-117.078126c-7.066406 0-13.210937-4.539063-15.285156-11.296876-.085937-.285156-.15625-.578124-.210937-.875l-17.164063-93.53125c-.027344-.128906-.050781-.253906-.070312-.382812l-1.628906-8.878906c-.496094-2.699219-2.847657-4.65625-5.589844-4.65625h-16.105469c-4.269531 0-7.730469-3.460938-7.730469-7.730469s3.460938-7.726563 7.730469-7.726563h16.105469c10.207031 0 18.949218 7.285157 20.792968 17.324219l.648438 3.519531 148.414062 19.148438c4.117188.53125 7.761719 2.644531 10.269532 5.953125 2.503906 3.308594 3.554687 7.390625 2.953125 11.492187l-9.261719 63.136719c-1.214844 8.269531-8.429688 14.503907-16.789062 14.503907zm-117.5-15.667969c.097656.128906.25.210937.421874.210937h117.078126c.742187 0 1.386718-.554687 1.492187-1.289062l9.246094-63.023438-143.398438-18.5zm0 0" fill="#48d8ff"/><path d="m111.730469 123.671875c0 8.308594-6.734375 15.042969-15.039063 15.042969-8.304687 0-15.039062-6.734375-15.039062-15.042969 0-8.304687 6.734375-15.039063 15.039062-15.039063 8.304688 0 15.039063 6.734376 15.039063 15.039063zm0 0" fill="#f36986"/><path d="m96.691406 146.441406c-12.554687 0-22.769531-10.210937-22.769531-22.769531 0-12.554687 10.214844-22.765625 22.769531-22.765625 12.554688 0 22.769532 10.210938 22.769532 22.765625 0 12.558594-10.214844 22.769531-22.769532 22.769531zm0-30.078125c-4.03125 0-7.308594 3.28125-7.308594 7.308594 0 4.035156 3.277344 7.3125 7.308594 7.3125s7.3125-3.28125 7.3125-7.3125c0-4.027344-3.28125-7.308594-7.3125-7.308594zm0 0" fill="#f7e249"/><g fill="#48d8ff"><path d="m283.773438 278.304688h-133.277344c-5.464844 0-10.328125-3.058594-12.695313-7.988282-2.359375-4.929687-1.703125-10.640625 1.71875-14.902344l14.78125-18.417968c2.675781-3.328125 7.539063-3.859375 10.867188-1.191406 3.328125 2.675781 3.863281 7.539062 1.191406 10.867187l-12.984375 16.175781h130.398438c4.269531 0 7.726562 3.460938 7.726562 7.730469s-3.457031 7.726563-7.726562 7.726563zm0 0"/><path d="m173.289062 251.023438c-4.269531 0-7.730468-3.460938-7.730468-7.730469v-95.253907c0-4.269531 3.460937-7.730468 7.730468-7.730468 4.265626 0 7.726563 3.460937 7.726563 7.730468v95.253907c0 4.269531-3.460937 7.730469-7.726563 7.730469zm0 0"/><path d="m215.128906 251.023438c-4.269531 0-7.730468-3.460938-7.730468-7.730469v-89.71875c0-4.269531 3.460937-7.726563 7.730468-7.726563 4.269532 0 7.730469 3.457032 7.730469 7.726563v89.71875c0 4.269531-3.460937 7.730469-7.730469 7.730469zm0 0"/><path d="m256.96875 251.023438c-4.265625 0-7.726562-3.460938-7.726562-7.730469v-82.9375c0-4.269531 3.460937-7.730469 7.726562-7.730469 4.269531 0 7.730469 3.460938 7.730469 7.730469v82.9375c0 4.269531-3.460938 7.730469-7.730469 7.730469zm0 0"/><path d="m188.460938 285.617188c0 8.308593-6.734376 15.039062-15.042969 15.039062-8.304688 0-15.039063-6.730469-15.039063-15.039062 0-8.304688 6.734375-15.039063 15.039063-15.039063 8.308593 0 15.042969 6.734375 15.042969 15.039063zm0 0"/></g><path d="m173.417969 308.386719c-12.554688 0-22.765625-10.214844-22.765625-22.769531 0-12.554688 10.214844-22.769532 22.765625-22.769532 12.554687 0 22.769531 10.214844 22.769531 22.769532.003906 12.554687-10.214844 22.769531-22.769531 22.769531zm0-30.082031c-4.03125 0-7.308594 3.28125-7.308594 7.3125s3.277344 7.3125 7.308594 7.3125 7.3125-3.28125 7.3125-7.3125-3.277344-7.3125-7.3125-7.3125zm0 0" fill="#273a9b"/><path d="m298.8125 285.617188c0 8.308593-6.734375 15.039062-15.039062 15.039062-8.308594 0-15.039063-6.730469-15.039063-15.039062 0-8.304688 6.730469-15.039063 15.039063-15.039063 8.304687 0 15.039062 6.734375 15.039062 15.039063zm0 0" fill="#48d8ff"/><path d="m283.773438 308.386719c-12.554688 0-22.769532-10.214844-22.769532-22.769531 0-12.554688 10.214844-22.769532 22.769532-22.769532 12.554687 0 22.769531 10.214844 22.769531 22.769532 0 12.554687-10.214844 22.769531-22.769531 22.769531zm0-30.082031c-4.03125 0-7.3125 3.28125-7.3125 7.3125s3.28125 7.3125 7.3125 7.3125 7.308593-3.28125 7.308593-7.3125-3.277343-7.3125-7.308593-7.3125zm0 0" fill="#273a9b"/></svg>