<?xml version="1.0" encoding="iso-8859-1"?>


<svg xmlns:xlink="http://www.w3.org/1999/xlink" version="1.1" id="Capa_1" xmlns="http://www.w3.org/2000/svg" x="0px"
     y="0px"
     viewBox="0 0 512 512" style="enable-background:new 0 0 512 512;" xml:space="preserve">
<linearGradient id="SVGID_1_" gradientUnits="userSpaceOnUse" x1="254.8086" y1="490.67" x2="254.8086" y2="384.063"
                gradientTransform="matrix(1.0039 0 0 -1.0039 0.1922 516.5609)">
	<stop offset="0" style="stop-color:#456A97"/>
    <stop offset="1" style="stop-color:#1A338C"/>
</linearGradient>
    <path style="fill:url(#SVGID_1_);" d="M256,100.22c-27.631,0-50.11-22.479-50.11-50.11S228.369,0,256,0s50.11,22.479,50.11,50.11
	S283.631,100.22,256,100.22z M256,8.367c-23.017,0-41.743,18.725-41.743,41.743S232.982,91.853,256,91.853
	c23.017,0,41.743-18.725,41.743-41.743S279.017,8.367,256,8.367z"/>
    <linearGradient id="SVGID_2_" gradientUnits="userSpaceOnUse" x1="287.0579" y1="419.4123" x2="279.3379" y2="427.1423"
                    gradientTransform="matrix(1.0039 0 0 -1.0039 0.1922 516.5609)">
	<stop offset="0" style="stop-color:#564D56;stop-opacity:0"/>
        <stop offset="1" style="stop-color:#443742"/>
</linearGradient>
    <path style="fill:url(#SVGID_2_);" d="M281.234,83.337v10.039c2.085-1.221,4.074-2.587,5.953-4.086L281.234,83.337z"/>
    <linearGradient id="SVGID_3_" gradientUnits="userSpaceOnUse" x1="254.8086" y1="426.253" x2="254.8086" y2="410.303"
                    gradientTransform="matrix(1.0039 0 0 -1.0039 0.1922 516.5609)">
	<stop offset="0" style="stop-color:#E7F1FD"/>
        <stop offset="1" style="stop-color:#B2C7D8"/>
</linearGradient>
    <path style="fill:url(#SVGID_3_);" d="M283.987,106.542h-55.975V92.503c0-9.192,7.451-16.643,16.643-16.643h22.689
	c9.192,0,16.643,7.451,16.643,16.643V106.542z"/>
    <linearGradient id="SVGID_4_" gradientUnits="userSpaceOnUse" x1="254.8086" y1="-85.0471" x2="254.8086" y2="430.233"
                    gradientTransform="matrix(1.0039 0 0 -1.0039 0.1922 516.5609)">
	<stop offset="0" style="stop-color:#E7F1FD"/>
        <stop offset="1" style="stop-color:#B2C7D8"/>
</linearGradient>
    <circle style="fill:url(#SVGID_4_);" cx="256" cy="307.973" r="204.027"/>
    <linearGradient id="SVGID_5_" gradientUnits="userSpaceOnUse" x1="254.8086" y1="491.101" x2="254.8086" y2="-7.4771"
                    gradientTransform="matrix(1.0039 0 0 -1.0039 0.1922 516.5609)">
	<stop offset="0" style="stop-color:#E7F1FD"/>
        <stop offset="1" style="stop-color:#B2C7D8"/>
</linearGradient>
    <circle style="fill:url(#SVGID_5_);" cx="256" cy="307.973" r="197.411"/>
    <linearGradient id="SVGID_6_" gradientUnits="userSpaceOnUse" x1="158.486" y1="304.0904" x2="341.776" y2="120.8104"
                    gradientTransform="matrix(1.0039 0 0 -1.0039 0.1922 516.5609)">
	<stop offset="0" style="stop-color:#4E85FB"/>
        <stop offset="1" style="stop-color:#4E85FB"/>
</linearGradient>
    <circle style="fill:url(#SVGID_6_);" cx="256" cy="307.973" r="178.035"/>
    <path style="fill:#3D6CC1;" d="M249.923,347.719L256,392.441l6.077-44.722c1.31-9.642,12.531-14.29,20.275-8.398l20.888,15.89
	l-15.89-20.888c-5.891-7.744-1.244-18.965,8.398-20.275l44.722-6.077l-44.722-6.077c-9.642-1.31-14.29-12.531-8.398-20.275
	l15.89-20.888l-20.888,15.89c-7.744,5.891-18.965,1.244-20.275-8.398L256,223.503l-6.077,44.722
	c-1.31,9.642-12.531,14.29-20.275,8.398l-20.888-15.89l15.89,20.888c5.891,7.744,1.244,18.965-8.398,20.275l-44.722,6.077
	l44.722,6.077c9.642,1.31,14.29,12.531,8.398,20.275l-15.89,20.888l20.888-15.89C237.392,333.43,248.613,338.078,249.923,347.719z"
    />
    <g>
	<path style="fill:#FFFFFF;" d="M126.397,250.096l-18.365-6.993c-1.58-0.601-3.333,0.195-3.949,1.771
		c-0.601,1.579,0.192,3.347,1.771,3.949l18.365,6.993c1.548,0.589,3.277-0.161,3.911-1.678c0.013-0.031,0.025-0.062,0.038-0.094
		C128.769,252.466,127.976,250.698,126.397,250.096z"/>
        <path style="fill:#FFFFFF;" d="M406.146,367.12l-18.365-6.993c-1.58-0.601-3.333,0.195-3.949,1.771
		c-0.601,1.579,0.192,3.347,1.771,3.949l18.365,6.993c1.548,0.589,3.277-0.161,3.911-1.678c0.013-0.031,0.025-0.062,0.038-0.093
		C408.518,369.49,407.725,367.722,406.146,367.12z"/>
        <path style="fill:#FFFFFF;" d="M319.098,156.055c-1.579-0.601-3.347,0.192-3.949,1.771l-6.993,18.365
		c-0.589,1.548,0.161,3.277,1.678,3.911c0.031,0.013,0.062,0.025,0.094,0.038c1.579,0.601,3.347-0.192,3.949-1.771l6.993-18.365
		C321.471,158.424,320.675,156.671,319.098,156.055z"/>
        <path style="fill:#FFFFFF;" d="M202.074,435.803c-1.579-0.601-3.347,0.192-3.949,1.771l-6.993,18.365
		c-0.589,1.548,0.161,3.277,1.678,3.911c0.031,0.013,0.062,0.025,0.093,0.037c1.579,0.601,3.347-0.192,3.949-1.771l6.993-18.365
		C204.447,438.173,203.65,436.42,202.074,435.803z"/>
        <path style="fill:#FFFFFF;" d="M157.354,405.532c-1.23-1.159-3.166-1.101-4.326,0.129l-13.476,14.303
		c-1.159,1.231-1.092,3.155,0.13,4.326c1.23,1.159,3.166,1.101,4.326-0.13l13.476-14.303c1.135-1.206,1.103-3.09-0.057-4.256
		C157.403,405.578,157.378,405.555,157.354,405.532z"/>
        <path style="fill:#FFFFFF;" d="M372.318,191.653c-1.23-1.159-3.167-1.101-4.326,0.13l-13.476,14.303
		c-1.159,1.231-1.092,3.155,0.13,4.326c1.23,1.159,3.166,1.101,4.326-0.13l13.476-14.303c1.135-1.206,1.103-3.09-0.057-4.256
		C372.368,191.7,372.344,191.676,372.318,191.653z"/>
        <path style="fill:#FFFFFF;" d="M144.008,191.523c-1.231-1.159-3.155-1.092-4.326,0.13c-1.159,1.23-1.101,3.166,0.13,4.326
		l14.303,13.476c1.206,1.135,3.09,1.103,4.256-0.057c0.024-0.023,0.047-0.048,0.07-0.072c1.159-1.23,1.101-3.166-0.13-4.326
		L144.008,191.523z"/>
        <path style="fill:#FFFFFF;" d="M357.886,406.488c-1.231-1.159-3.155-1.092-4.326,0.13c-1.159,1.23-1.101,3.167,0.129,4.326
		l14.303,13.476c1.206,1.135,3.09,1.103,4.256-0.057c0.024-0.023,0.047-0.048,0.07-0.072c1.159-1.23,1.101-3.167-0.13-4.326
		L357.886,406.488z"/>
        <path style="fill:#FFFFFF;" d="M127.477,360.231c-0.692-1.542-2.503-2.232-4.045-1.54l-17.931,8.04
		c-1.542,0.693-2.219,2.495-1.54,4.045c0.692,1.542,2.503,2.232,4.045,1.54l17.931-8.04c1.512-0.678,2.204-2.43,1.58-3.952
		C127.504,360.293,127.491,360.262,127.477,360.231z"/>
        <path style="fill:#FFFFFF;" d="M388.567,257.252l17.931-8.04c1.512-0.678,2.204-2.43,1.58-3.952
		c-0.013-0.031-0.026-0.062-0.04-0.093c-0.692-1.542-2.503-2.232-4.045-1.54l-17.931,8.04c-1.542,0.693-2.219,2.495-1.54,4.045
		C385.214,257.254,387.025,257.944,388.567,257.252z"/>
        <path style="fill:#FFFFFF;" d="M197.24,157.473c-0.693-1.542-2.495-2.219-4.045-1.54c-1.542,0.692-2.232,2.503-1.54,4.045
		l8.04,17.931c0.678,1.512,2.431,2.204,3.951,1.58c0.031-0.013,0.062-0.026,0.093-0.04c1.542-0.692,2.232-2.503,1.54-4.045
		L197.24,157.473z"/>
        <path style="fill:#FFFFFF;" d="M312.304,438.034c-0.693-1.542-2.495-2.219-4.045-1.54c-1.542,0.692-2.232,2.503-1.54,4.045
		l8.04,17.931c0.678,1.512,2.43,2.204,3.952,1.58c0.031-0.013,0.062-0.026,0.093-0.04c1.542-0.692,2.232-2.503,1.54-4.045
		L312.304,438.034z"/>
        <path style="fill:#FFFFFF;" d="M235.849,212.595V154.81c0-2.039,1.544-3.06,4.633-3.06c1.631,0,2.942,0.364,3.934,1.092
		c0.99,0.73,2.011,2.113,3.06,4.152l19.408,37.854v-40.127c0-0.99,0.451-1.734,1.355-2.229c0.903-0.495,1.996-0.743,3.278-0.743
		c1.281,0,2.374,0.249,3.278,0.743c0.902,0.496,1.355,1.239,1.355,2.229v57.873c0,0.933-0.452,1.676-1.355,2.23
		c-0.905,0.554-1.997,0.83-3.278,0.83c-2.448,0-4.284-1.136-5.508-3.409l-20.894-39.776v40.127c0,0.933-0.452,1.676-1.354,2.23
		c-0.905,0.554-1.998,0.83-3.279,0.83c-1.224,0-2.303-0.276-3.235-0.83C236.315,214.271,235.849,213.528,235.849,212.595z"/>
        <path style="fill:#FFFFFF;" d="M373.931,336.864v-57.786c0-0.932,0.407-1.675,1.224-2.229c0.816-0.553,1.778-0.83,2.885-0.83
		h31.122c0.991,0,1.749,0.409,2.273,1.224c0.524,0.817,0.787,1.749,0.787,2.798c0,1.167-0.277,2.156-0.83,2.973
		c-0.555,0.817-1.298,1.224-2.23,1.224h-25.964v20.019h13.464c0.932,0,1.675,0.364,2.229,1.092c0.553,0.73,0.83,1.617,0.83,2.666
		c0,0.933-0.262,1.763-0.787,2.492c-0.524,0.73-1.283,1.093-2.273,1.093h-13.463v20.107h25.964c0.932,0,1.675,0.409,2.23,1.224
		c0.553,0.817,0.83,1.807,0.83,2.973c0,1.049-0.263,1.982-0.787,2.798c-0.524,0.817-1.282,1.224-2.273,1.224H378.04
		c-1.107,0-2.07-0.276-2.885-0.83C374.338,338.54,373.931,337.798,373.931,336.864z"/>
        <path style="fill:#FFFFFF;" d="M236.373,453.878c0-1.106,0.407-2.215,1.224-3.322c0.815-1.106,1.749-1.66,2.797-1.66
		c0.641,0,1.413,0.374,2.316,1.121c0.903,0.747,1.792,1.553,2.666,2.419s2.2,1.674,3.978,2.42c1.777,0.747,3.773,1.12,5.988,1.12
		c3.322,0,5.988-0.791,7.999-2.372c2.011-1.582,3.017-3.897,3.017-6.944c0-2.811-0.977-5.155-2.928-7.03
		c-1.954-1.874-4.314-3.368-7.082-4.484c-2.769-1.113-5.552-2.314-8.349-3.603c-2.797-1.29-5.173-3.223-7.125-5.802
		c-1.954-2.578-2.928-5.8-2.928-9.668c0-3.082,0.596-5.757,1.792-8.023c1.194-2.268,2.811-4.012,4.852-5.233
		c2.04-1.221,4.181-2.107,6.425-2.659c2.243-0.552,4.618-0.829,7.125-0.829c1.574,0,3.22,0.101,4.939,0.303
		c1.719,0.202,3.423,0.533,5.114,0.994c1.69,0.462,3.089,1.124,4.196,1.989c1.106,0.864,1.66,1.844,1.66,2.94
		s-0.349,2.2-1.049,3.312c-0.699,1.113-1.632,1.669-2.797,1.669c-0.583,0-1.37-0.277-2.36-0.834
		c-0.992-0.557-2.317-1.113-3.978-1.671c-1.66-0.556-3.571-0.834-5.726-0.834c-3.322,0-5.974,0.66-7.955,1.978
		c-1.982,1.319-2.972,3.326-2.972,6.022c0,1.758,0.524,3.268,1.573,4.527c1.049,1.259,2.404,2.3,4.065,3.12
		c1.66,0.821,3.511,1.626,5.552,2.417c2.04,0.791,4.065,1.713,6.076,2.768c2.011,1.054,3.846,2.272,5.508,3.648
		c1.66,1.377,3.016,3.268,4.065,5.669c1.049,2.402,1.574,5.186,1.574,8.35c0,6.023-1.822,10.612-5.464,13.768
		c-3.643,3.155-8.466,4.733-14.469,4.733c-5.363,0-9.923-1.121-13.681-3.365C238.254,458.584,236.373,456.268,236.373,453.878z"/>
        <path style="fill:#FFFFFF;" d="M99.779,279.516c0-1.049,0.612-1.938,1.836-2.666c1.224-0.728,2.535-1.092,3.933-1.092
		c1.806,0,2.885,0.643,3.235,1.924l14.337,49.831l7.87-31.297c0.399-1.806,1.906-2.71,4.527-2.71c2.506,0,3.987,0.922,4.442,2.763
		l7.954,31.297l14.28-49.935c0.347-1.247,1.42-1.871,3.217-1.871c1.39,0,2.694,0.359,3.912,1.078
		c1.217,0.719,1.826,1.594,1.826,2.628c0,0.403-0.03,0.69-0.087,0.862l-17.294,56.653c-0.345,1.011-1.079,1.798-2.201,2.362
		c-1.121,0.564-2.344,0.846-3.666,0.846c-1.324,0-2.546-0.276-3.667-0.826c-1.121-0.55-1.798-1.319-2.027-2.306l-6.722-26.45
		l-6.639,26.403c-0.228,1.001-0.897,1.781-2.008,2.341c-1.112,0.559-2.359,0.838-3.742,0.838c-1.382,0-2.628-0.277-3.735-0.83
		c-1.107-0.553-1.807-1.325-2.098-2.317l-17.397-56.649C99.807,280.216,99.779,279.924,99.779,279.516z"/>
</g>
    <radialGradient id="SVGID_7_" cx="259.6386" cy="202.413" r="191.47"
                    gradientTransform="matrix(1.0039 0 0 -1.0039 0.1922 516.5609)" gradientUnits="userSpaceOnUse">
	<stop offset="1.000000e-004" style="stop-color:#4E85FB;stop-opacity:0"/>
        <stop offset="0.502" style="stop-color:#4D84F9;stop-opacity:0.502"/>
        <stop offset="0.683" style="stop-color:#4B81F2;stop-opacity:0.682"/>
        <stop offset="0.811" style="stop-color:#487CE7;stop-opacity:0.811"/>
        <stop offset="0.915" style="stop-color:#4375D6;stop-opacity:0.915"/>
        <stop offset="1" style="stop-color:#3D6CC1"/>
</radialGradient>
    <circle style="fill:url(#SVGID_7_);" cx="256" cy="307.973" r="178.035"/>
    <linearGradient id="SVGID_8_" gradientUnits="userSpaceOnUse" x1="294.0531" y1="378.783" x2="294.0531" y2="410.173"
                    gradientTransform="matrix(1.0039 0 0 -1.0039 0.1922 516.5609)">
	<stop offset="0" style="stop-color:#B2C7D8;stop-opacity:0"/>
        <stop offset="1" style="stop-color:#879FAF"/>
</linearGradient>
    <path style="fill:url(#SVGID_8_);" d="M230.807,105.492l-2.794,1.05l78.796,78.797h55.976l-78.797-78.797l-2.302-0.994
	c-8.414-1.057-16.985-1.605-25.685-1.605C247.469,103.943,239.063,104.475,230.807,105.492z"/>
    <linearGradient id="SVGID_9_" gradientUnits="userSpaceOnUse" x1="329.5559" y1="133.0103" x2="256.0259" y2="206.5503"
                    gradientTransform="matrix(1.0039 0 0 -1.0039 0.1922 516.5609)">
	<stop offset="0" style="stop-color:#4E85FB;stop-opacity:0"/>
        <stop offset="1" style="stop-color:#3D6CC1"/>
</linearGradient>
    <path style="fill:url(#SVGID_9_);" d="M458.529,332.736c-25.022-25.017-112.892-112.87-112.93-112.931
	c-0.069-0.113-0.135-0.227-0.214-0.333l0,0c-0.015-0.02-0.033-0.037-0.049-0.057c-0.813-1.05-2.101-1.733-3.481-1.639
	c-0.713,0.048-1.448,0.302-2.149,0.817l-34.149,25.058l-13.402,9.834l-52.281,38.362l-73.253,99.833
	c-1.373,1.872-0.891,3.978,0.403,5.272c0.023,0.024,0.052,0.042,0.076,0.065l113.495,113.505
	C373.556,499.35,447.282,425.675,458.529,332.736z"/>
    <linearGradient id="SVGID_10_" gradientUnits="userSpaceOnUse" x1="296.3726" y1="249.339" x2="200.4226" y2="153.389"
                    gradientTransform="matrix(1.0039 0 0 -1.0039 0.1922 516.5609)">
	<stop offset="0" style="stop-color:#E7F1FD"/>
        <stop offset="1" style="stop-color:#B2C7D8"/>
</linearGradient>
    <path style="fill:url(#SVGID_10_);" d="M339.706,218.592l-99.833,73.253l32.253,32.253l73.253-99.833
	C348.128,220.521,343.451,215.844,339.706,218.592z"/>
    <linearGradient id="SVGID_11_" gradientUnits="userSpaceOnUse" x1="308.6941" y1="242.5185" x2="263.5141"
                    y2="287.6985" gradientTransform="matrix(1.0039 0 0 -1.0039 0.1922 516.5609)">
	<stop offset="0" style="stop-color:#B2C7D8;stop-opacity:0"/>
        <stop offset="1" style="stop-color:#879FAF"/>
</linearGradient>
    <path style="fill:url(#SVGID_11_);" d="M256,307.972l16.127,16.127l73.253-99.833c1.373-1.872,0.891-3.978-0.403-5.272L256,307.972z
	"/>
    <linearGradient id="SVGID_12_" gradientUnits="userSpaceOnUse" x1="330.8209" y1="283.7907" x2="295.4308"
                    y2="248.4007" gradientTransform="matrix(1.0039 0 0 -1.0039 0.1922 516.5609)">
	<stop offset="0" style="stop-color:#FF4C4A"/>
        <stop offset="1" style="stop-color:#FF001C"/>
</linearGradient>
    <path style="fill:url(#SVGID_12_);" d="M339.706,218.592l-47.552,34.892c5.02,7.113,11.231,13.303,18.36,18.298l34.866-47.517
	C348.127,220.521,343.451,215.844,339.706,218.592z"/>
    <linearGradient id="SVGID_13_" gradientUnits="userSpaceOnUse" x1="334.0696" y1="261.514" x2="311.5996" y2="283.984"
                    gradientTransform="matrix(1.0039 0 0 -1.0039 0.1922 516.5609)">
	<stop offset="0" style="stop-color:#FF001C;stop-opacity:0"/>
        <stop offset="1" style="stop-color:#C1001C"/>
</linearGradient>
    <path style="fill:url(#SVGID_13_);" d="M345.384,219.47c-0.125-0.168-0.259-0.328-0.407-0.477l-44.434,44.434
	c3.071,3.061,6.406,5.857,9.97,8.355l34.866-47.517C346.597,222.608,346.354,220.768,345.384,219.47z"/>
    <linearGradient id="SVGID_14_" gradientUnits="userSpaceOnUse" x1="213.2498" y1="166.2118" x2="309.1898"
                    y2="262.1618" gradientTransform="matrix(1.0039 0 0 -1.0039 0.1922 516.5609)">
	<stop offset="0" style="stop-color:#E7F1FD"/>
        <stop offset="1" style="stop-color:#B2C7D8"/>
</linearGradient>
    <path style="fill:url(#SVGID_14_);" d="M166.62,391.678l73.253-99.833l32.253,32.253l-99.833,73.253
	C168.549,400.099,163.872,395.423,166.62,391.678z"/>
    <linearGradient id="SVGID_15_" gradientUnits="userSpaceOnUse" x1="220.0591" y1="153.8935" x2="174.8891"
                    y2="199.0635" gradientTransform="matrix(1.0039 0 0 -1.0039 0.1922 516.5609)">
	<stop offset="0" style="stop-color:#B2C7D8;stop-opacity:0"/>
        <stop offset="1" style="stop-color:#879FAF"/>
</linearGradient>
    <path style="fill:url(#SVGID_15_);" d="M256,307.972l16.127,16.127l-99.833,73.253c-1.872,1.373-3.978,0.891-5.272-0.403
	L256,307.972z"/>
    <linearGradient id="SVGID_16_" gradientUnits="userSpaceOnUse" x1="275.0391" y1="187.5435" x2="260.4491"
                    y2="202.1335" gradientTransform="matrix(1.0039 0 0 -1.0039 0.1922 516.5609)">
	<stop offset="0" style="stop-color:#B2C7D8;stop-opacity:0"/>
        <stop offset="1" style="stop-color:#879FAF"/>
</linearGradient>
    <path style="fill:url(#SVGID_16_);" d="M267.803,296.926c-2.953-3.154-7.142-5.137-11.803-5.137
	c-8.937,0-16.183,7.246-16.183,16.182c0,4.661,1.983,8.851,5.137,11.804l13.993,13.993l13.178-9.67l9.67-13.178L267.803,296.926z"/>
    <linearGradient id="SVGID_17_" gradientUnits="userSpaceOnUse" x1="259.2336" y1="212.198" x2="242.3036" y2="195.268"
                    gradientTransform="matrix(1.0039 0 0 -1.0039 0.1922 516.5609)">
	<stop offset="0" style="stop-color:#E7F1FD"/>
        <stop offset="1" style="stop-color:#B2C7D8"/>
</linearGradient>
    <circle style="fill:url(#SVGID_17_);" cx="256" cy="307.973" r="16.183"/>
    <linearGradient id="SVGID_18_" gradientUnits="userSpaceOnUse" x1="251.8136" y1="204.778" x2="263.2236" y2="216.188"
                    gradientTransform="matrix(1.0039 0 0 -1.0039 0.1922 516.5609)">
	<stop offset="0" style="stop-color:#E7F1FD"/>
        <stop offset="1" style="stop-color:#B2C7D8"/>
</linearGradient>
    <circle style="fill:url(#SVGID_18_);" cx="256" cy="307.973" r="10.903"/>
    <linearGradient id="SVGID_19_" gradientUnits="userSpaceOnUse" x1="243.5336" y1="196.498" x2="262.8536" y2="215.818"
                    gradientTransform="matrix(1.0039 0 0 -1.0039 0.1922 516.5609)">
	<stop offset="0" style="stop-color:#E7F1FD"/>
        <stop offset="1" style="stop-color:#B2C7D8"/>
</linearGradient>
    <circle style="fill:url(#SVGID_19_);" cx="256" cy="307.973" r="8.525"/>
    <g>
</g>
    <g>
</g>
    <g>
</g>
    <g>
</g>
    <g>
</g>
    <g>
</g>
    <g>
</g>
    <g>
</g>
    <g>
</g>
    <g>
</g>
    <g>
</g>
    <g>
</g>
    <g>
</g>
    <g>
</g>
    <g>
</g>
</svg>
