<svg xmlns="http://www.w3.org/2000/svg" xml:space="preserve" viewBox="0 0 512 512"><linearGradient id="a" x1="254.809" x2="254.809" y1="490.67" y2="384.063" gradientTransform="matrix(1.0039 0 0 -1.0039 .192 516.56)" gradientUnits="userSpaceOnUse"><stop offset="0" style="stop-color:#456a97"/><stop offset="1" style="stop-color:#1a338c"/></linearGradient><path d="M256 100.22c-27.631 0-50.11-22.479-50.11-50.11S228.369 0 256 0s50.11 22.479 50.11 50.11-22.479 50.11-50.11 50.11m0-91.853c-23.017 0-41.743 18.725-41.743 41.743S232.982 91.853 256 91.853c23.017 0 41.743-18.725 41.743-41.743S279.017 8.367 256 8.367" style="fill:url(#a)"/><linearGradient id="b" x1="287.058" x2="279.338" y1="419.412" y2="427.142" gradientTransform="matrix(1.0039 0 0 -1.0039 .192 516.56)" gradientUnits="userSpaceOnUse"><stop offset="0" style="stop-color:#564d56;stop-opacity:0"/><stop offset="1" style="stop-color:#443742"/></linearGradient><path d="M281.234 83.337v10.039a50 50 0 0 0 5.953-4.086z" style="fill:url(#b)"/><linearGradient id="c" x1="254.809" x2="254.809" y1="426.253" y2="410.303" gradientTransform="matrix(1.0039 0 0 -1.0039 .192 516.56)" gradientUnits="userSpaceOnUse"><stop offset="0" style="stop-color:#e7f1fd"/><stop offset="1" style="stop-color:#b2c7d8"/></linearGradient><path d="M283.987 106.542h-55.975V92.503c0-9.192 7.451-16.643 16.643-16.643h22.689c9.192 0 16.643 7.451 16.643 16.643z" style="fill:url(#c)"/><linearGradient id="d" x1="254.809" x2="254.809" y1="-85.047" y2="430.233" gradientTransform="matrix(1.0039 0 0 -1.0039 .192 516.56)" gradientUnits="userSpaceOnUse"><stop offset="0" style="stop-color:#e7f1fd"/><stop offset="1" style="stop-color:#b2c7d8"/></linearGradient><circle cx="256" cy="307.973" r="204.027" style="fill:url(#d)"/><linearGradient id="e" x1="254.809" x2="254.809" y1="491.101" y2="-7.477" gradientTransform="matrix(1.0039 0 0 -1.0039 .192 516.56)" gradientUnits="userSpaceOnUse"><stop offset="0" style="stop-color:#e7f1fd"/><stop offset="1" style="stop-color:#b2c7d8"/></linearGradient><circle cx="256" cy="307.973" r="197.411" style="fill:url(#e)"/><linearGradient id="f" x1="158.486" x2="341.776" y1="304.09" y2="120.81" gradientTransform="matrix(1.0039 0 0 -1.0039 .192 516.56)" gradientUnits="userSpaceOnUse"><stop offset="0" style="stop-color:#4e85fb"/><stop offset="1" style="stop-color:#4e85fb"/></linearGradient><circle cx="256" cy="307.973" r="178.035" style="fill:url(#f)"/><path d="M249.923 347.719 256 392.441l6.077-44.722c1.31-9.642 12.531-14.29 20.275-8.398l20.888 15.89-15.89-20.888c-5.891-7.744-1.244-18.965 8.398-20.275l44.722-6.077-44.722-6.077c-9.642-1.31-14.29-12.531-8.398-20.275l15.89-20.888-20.888 15.89c-7.744 5.891-18.965 1.244-20.275-8.398L256 223.503l-6.077 44.722c-1.31 9.642-12.531 14.29-20.275 8.398l-20.888-15.89 15.89 20.888c5.891 7.744 1.244 18.965-8.398 20.275l-44.722 6.077 44.722 6.077c9.642 1.31 14.29 12.531 8.398 20.275l-15.89 20.888 20.888-15.89c7.744-5.893 18.965-1.245 20.275 8.396" style="fill:#3d6cc1"/><path d="m126.397 250.096-18.365-6.993c-1.58-.601-3.333.195-3.949 1.771a3.06 3.06 0 0 0 1.771 3.949l18.365 6.993a3.06 3.06 0 0 0 3.911-1.678l.038-.094a3.06 3.06 0 0 0-1.771-3.948M406.146 367.12l-18.365-6.993c-1.58-.601-3.333.195-3.949 1.771a3.06 3.06 0 0 0 1.771 3.949l18.365 6.993a3.06 3.06 0 0 0 3.911-1.678l.038-.093a3.06 3.06 0 0 0-1.771-3.949M319.098 156.055a3.06 3.06 0 0 0-3.949 1.771l-6.993 18.365a3.06 3.06 0 0 0 1.678 3.911l.094.038a3.06 3.06 0 0 0 3.949-1.771l6.993-18.365c.601-1.58-.195-3.333-1.772-3.949M202.074 435.803a3.06 3.06 0 0 0-3.949 1.771l-6.993 18.365a3.06 3.06 0 0 0 5.72 2.177l6.993-18.365c.602-1.578-.195-3.331-1.771-3.948M157.354 405.532a3.06 3.06 0 0 0-4.326.129l-13.476 14.303c-1.159 1.231-1.092 3.155.13 4.326a3.06 3.06 0 0 0 4.326-.13l13.476-14.303a3.06 3.06 0 0 0-.057-4.256zM372.318 191.653a3.06 3.06 0 0 0-4.326.13l-13.476 14.303c-1.159 1.231-1.092 3.155.13 4.326a3.06 3.06 0 0 0 4.326-.13l13.476-14.303a3.06 3.06 0 0 0-.13-4.326M144.008 191.523c-1.231-1.159-3.155-1.092-4.326.13a3.06 3.06 0 0 0 .13 4.326l14.303 13.476a3.06 3.06 0 0 0 4.256-.057q.036-.035.07-.072a3.06 3.06 0 0 0-.13-4.326zM357.886 406.488c-1.231-1.159-3.155-1.092-4.326.13a3.06 3.06 0 0 0 .129 4.326l14.303 13.476a3.06 3.06 0 0 0 4.256-.057q.036-.035.07-.072a3.06 3.06 0 0 0-.13-4.326zM127.477 360.231a3.06 3.06 0 0 0-4.045-1.54l-17.931 8.04c-1.542.693-2.219 2.495-1.54 4.045a3.06 3.06 0 0 0 4.045 1.54l17.931-8.04a3.06 3.06 0 0 0 1.54-4.045M388.567 257.252l17.931-8.04a3.06 3.06 0 0 0 1.58-3.952l-.04-.093a3.06 3.06 0 0 0-4.045-1.54l-17.931 8.04c-1.542.693-2.219 2.495-1.54 4.045a3.06 3.06 0 0 0 4.045 1.54M197.24 157.473c-.693-1.542-2.495-2.219-4.045-1.54a3.06 3.06 0 0 0-1.54 4.045l8.04 17.931a3.06 3.06 0 0 0 3.951 1.58l.093-.04a3.06 3.06 0 0 0 1.54-4.045zM312.304 438.034c-.693-1.542-2.495-2.219-4.045-1.54a3.06 3.06 0 0 0-1.54 4.045l8.04 17.931a3.06 3.06 0 0 0 3.952 1.58l.093-.04a3.06 3.06 0 0 0 1.54-4.045zM235.849 212.595V154.81q0-3.06 4.633-3.06 2.446 0 3.934 1.092 1.486 1.094 3.06 4.152l19.408 37.854v-40.127q0-1.486 1.355-2.229t3.278-.743 3.278.743q1.354.744 1.355 2.229v57.873q0 1.4-1.355 2.23-1.357.83-3.278.83-3.672 0-5.508-3.409l-20.894-39.776v40.127q0 1.4-1.354 2.23-1.357.83-3.279.83-1.837 0-3.235-.83-1.398-.832-1.398-2.231M373.931 336.864v-57.786q0-1.398 1.224-2.229 1.224-.83 2.885-.83h31.122q1.487 0 2.273 1.224.786 1.225.787 2.798 0 1.749-.83 2.973-.832 1.225-2.23 1.224h-25.964v20.019h13.464q1.398 0 2.229 1.092.83 1.094.83 2.666 0 1.399-.787 2.492-.787 1.094-2.273 1.093h-13.463v20.107h25.964q1.398 0 2.23 1.224.83 1.225.83 2.973 0 1.574-.787 2.798-.786 1.225-2.273 1.224H378.04q-1.661 0-2.885-.83-1.225-.832-1.224-2.232M236.373 453.878q0-1.66 1.224-3.322 1.224-1.66 2.797-1.66.961 0 2.316 1.121t2.666 2.419c1.311 1.299 2.2 1.674 3.978 2.42q2.666 1.12 5.988 1.12 4.983 0 7.999-2.372 3.017-2.373 3.017-6.944 0-4.217-2.928-7.03-2.93-2.81-7.082-4.484a183 183 0 0 1-8.349-3.603q-4.196-1.934-7.125-5.802-2.93-3.866-2.928-9.668-.001-4.623 1.792-8.023 1.79-3.402 4.852-5.233a23.3 23.3 0 0 1 6.425-2.659q3.364-.829 7.125-.829 2.36 0 4.939.303a35 35 0 0 1 5.114.994q2.535.692 4.196 1.989 1.66 1.296 1.66 2.94c0 1.644-.349 2.2-1.049 3.312q-1.049 1.67-2.797 1.669-.875 0-2.36-.834-1.487-.835-3.978-1.671-2.492-.834-5.726-.834-4.983 0-7.955 1.978t-2.972 6.022q0 2.638 1.573 4.527t4.065 3.12a68 68 0 0 0 5.552 2.417 59 59 0 0 1 6.076 2.768 31.6 31.6 0 0 1 5.508 3.648q2.49 2.067 4.065 5.669 1.574 3.603 1.574 8.35 0 9.034-5.464 13.768-5.464 4.733-14.469 4.733-8.044 0-13.681-3.365-5.637-3.37-5.638-6.954M99.779 279.516q0-1.574 1.836-2.666a7.57 7.57 0 0 1 3.933-1.092q2.71.001 3.235 1.924l14.337 49.831 7.87-31.297q.597-2.71 4.527-2.71 3.76 0 4.442 2.763l7.954 31.297 14.28-49.935q.521-1.87 3.217-1.871 2.085 0 3.912 1.078t1.826 2.628q0 .604-.087.862l-17.294 56.653q-.518 1.516-2.201 2.362-1.682.846-3.666.846-1.986 0-3.667-.826-1.683-.825-2.027-2.306l-6.722-26.45-6.639 26.403q-.342 1.501-2.008 2.341-1.668.838-3.742.838t-3.735-.83-2.098-2.317l-17.397-56.649q-.087-.265-.086-.877" style="fill:#fff"/><radialGradient id="g" cx="259.639" cy="202.413" r="191.47" gradientTransform="matrix(1.0039 0 0 -1.0039 .192 516.56)" gradientUnits="userSpaceOnUse"><stop offset="0" style="stop-color:#4e85fb;stop-opacity:0"/><stop offset=".502" style="stop-color:#4d84f9;stop-opacity:.502"/><stop offset=".683" style="stop-color:#4b81f2;stop-opacity:.682"/><stop offset=".811" style="stop-color:#487ce7;stop-opacity:.811"/><stop offset=".915" style="stop-color:#4375d6;stop-opacity:.915"/><stop offset="1" style="stop-color:#3d6cc1"/></radialGradient><circle cx="256" cy="307.973" r="178.035" style="fill:url(#g)"/><linearGradient id="h" x1="294.053" x2="294.053" y1="378.783" y2="410.173" gradientTransform="matrix(1.0039 0 0 -1.0039 .192 516.56)" gradientUnits="userSpaceOnUse"><stop offset="0" style="stop-color:#b2c7d8;stop-opacity:0"/><stop offset="1" style="stop-color:#879faf"/></linearGradient><path d="m230.807 105.492-2.794 1.05 78.796 78.797h55.976l-78.797-78.797-2.302-.994a206 206 0 0 0-50.879-.056" style="fill:url(#h)"/><linearGradient id="i" x1="329.556" x2="256.026" y1="133.01" y2="206.55" gradientTransform="matrix(1.0039 0 0 -1.0039 .192 516.56)" gradientUnits="userSpaceOnUse"><stop offset="0" style="stop-color:#4e85fb;stop-opacity:0"/><stop offset="1" style="stop-color:#3d6cc1"/></linearGradient><path d="M458.529 332.736c-25.022-25.017-112.892-112.87-112.93-112.931-.069-.113-.135-.227-.214-.333q-.024-.028-.049-.057c-.813-1.05-2.101-1.733-3.481-1.639-.713.048-1.448.302-2.149.817l-34.149 25.058-13.402 9.834-52.281 38.362-73.253 99.833c-1.373 1.872-.891 3.978.403 5.272.023.024.052.042.076.065l113.495 113.505c92.961-11.172 166.687-84.847 177.934-177.786" style="fill:url(#i)"/><linearGradient id="j" x1="296.373" x2="200.423" y1="249.339" y2="153.389" gradientTransform="matrix(1.0039 0 0 -1.0039 .192 516.56)" gradientUnits="userSpaceOnUse"><stop offset="0" style="stop-color:#e7f1fd"/><stop offset="1" style="stop-color:#b2c7d8"/></linearGradient><path d="m339.706 218.592-99.833 73.253 32.253 32.253 73.253-99.833c2.749-3.744-1.928-8.421-5.673-5.673" style="fill:url(#j)"/><linearGradient id="k" x1="308.694" x2="263.514" y1="242.518" y2="287.699" gradientTransform="matrix(1.0039 0 0 -1.0039 .192 516.56)" gradientUnits="userSpaceOnUse"><stop offset="0" style="stop-color:#b2c7d8;stop-opacity:0"/><stop offset="1" style="stop-color:#879faf"/></linearGradient><path d="m256 307.972 16.127 16.127 73.253-99.833c1.373-1.872.891-3.978-.403-5.272z" style="fill:url(#k)"/><linearGradient id="l" x1="330.821" x2="295.431" y1="283.791" y2="248.401" gradientTransform="matrix(1.0039 0 0 -1.0039 .192 516.56)" gradientUnits="userSpaceOnUse"><stop offset="0" style="stop-color:#ff4c4a"/><stop offset="1" style="stop-color:#ff001c"/></linearGradient><path d="m339.706 218.592-47.552 34.892a75.5 75.5 0 0 0 18.36 18.298l34.866-47.517c2.747-3.744-1.929-8.421-5.674-5.673" style="fill:url(#l)"/><linearGradient id="m" x1="334.07" x2="311.6" y1="261.514" y2="283.984" gradientTransform="matrix(1.0039 0 0 -1.0039 .192 516.56)" gradientUnits="userSpaceOnUse"><stop offset="0" style="stop-color:#ff001c;stop-opacity:0"/><stop offset="1" style="stop-color:#c1001c"/></linearGradient><path d="M345.384 219.47a4.4 4.4 0 0 0-.407-.477l-44.434 44.434a75.5 75.5 0 0 0 9.97 8.355l34.866-47.517c1.218-1.657.975-3.497.005-4.795" style="fill:url(#m)"/><linearGradient id="n" x1="213.25" x2="309.19" y1="166.212" y2="262.162" gradientTransform="matrix(1.0039 0 0 -1.0039 .192 516.56)" gradientUnits="userSpaceOnUse"><stop offset="0" style="stop-color:#e7f1fd"/><stop offset="1" style="stop-color:#b2c7d8"/></linearGradient><path d="m166.62 391.678 73.253-99.833 32.253 32.253-99.833 73.253c-3.744 2.748-8.421-1.928-5.673-5.673" style="fill:url(#n)"/><linearGradient id="o" x1="220.059" x2="174.889" y1="153.893" y2="199.064" gradientTransform="matrix(1.0039 0 0 -1.0039 .192 516.56)" gradientUnits="userSpaceOnUse"><stop offset="0" style="stop-color:#b2c7d8;stop-opacity:0"/><stop offset="1" style="stop-color:#879faf"/></linearGradient><path d="m256 307.972 16.127 16.127-99.833 73.253c-1.872 1.373-3.978.891-5.272-.403z" style="fill:url(#o)"/><linearGradient id="p" x1="275.039" x2="260.449" y1="187.543" y2="202.133" gradientTransform="matrix(1.0039 0 0 -1.0039 .192 516.56)" gradientUnits="userSpaceOnUse"><stop offset="0" style="stop-color:#b2c7d8;stop-opacity:0"/><stop offset="1" style="stop-color:#879faf"/></linearGradient><path d="M267.803 296.926c-2.953-3.154-7.142-5.137-11.803-5.137-8.937 0-16.183 7.246-16.183 16.182 0 4.661 1.983 8.851 5.137 11.804l13.993 13.993 13.178-9.67 9.67-13.178z" style="fill:url(#p)"/><linearGradient id="q" x1="259.234" x2="242.304" y1="212.198" y2="195.268" gradientTransform="matrix(1.0039 0 0 -1.0039 .192 516.56)" gradientUnits="userSpaceOnUse"><stop offset="0" style="stop-color:#e7f1fd"/><stop offset="1" style="stop-color:#b2c7d8"/></linearGradient><circle cx="256" cy="307.973" r="16.183" style="fill:url(#q)"/><linearGradient id="r" x1="251.814" x2="263.224" y1="204.778" y2="216.188" gradientTransform="matrix(1.0039 0 0 -1.0039 .192 516.56)" gradientUnits="userSpaceOnUse"><stop offset="0" style="stop-color:#e7f1fd"/><stop offset="1" style="stop-color:#b2c7d8"/></linearGradient><circle cx="256" cy="307.973" r="10.903" style="fill:url(#r)"/><linearGradient id="s" x1="243.534" x2="262.854" y1="196.498" y2="215.818" gradientTransform="matrix(1.0039 0 0 -1.0039 .192 516.56)" gradientUnits="userSpaceOnUse"><stop offset="0" style="stop-color:#e7f1fd"/><stop offset="1" style="stop-color:#b2c7d8"/></linearGradient><circle cx="256" cy="307.973" r="8.525" style="fill:url(#s)"/></svg>