<!--
  - Copyright (c) 2023. Selldone® Business OS™
  -
  - Author: M.Pajuhaan
  - Web: https://selldone.com
  - ━━━━━━━━━━━━━━━━━━━━━━━━━━━━━━━━━━━━━━━━━━━━━━━━━━━━━━
  -
  - All rights reserved. In the weave of time, where traditions and innovations intermingle, this content was crafted.
  - From the essence of thought, through the corridors of creativity, each word, and sentiment has been molded.
  - Not just to exist, but to inspire. Like an artist's stroke or a sculptor's chisel, every nuance is deliberate.
  - Our journey is not just about reaching a destination, but about creating a masterpiece.
  - Tread carefully, for you're treading on dreams.
  -->

<svg id="Capa_1" enable-background="new 0 0 506 506" height="512" viewBox="0 0 506 506" width="512" xmlns="http://www.w3.org/2000/svg" xmlns:xlink="http://www.w3.org/1999/xlink"><linearGradient id="lg1"><stop offset="0" stop-color="#d4f7ff"/><stop offset="1" stop-color="#a2e3e9"/></linearGradient><linearGradient id="SVGID_1_" gradientUnits="userSpaceOnUse" x1="245.766" x2="252.44" xlink:href="#lg1" y1="282.468" y2="365.237"/><linearGradient id="SVGID_2_" gradientUnits="userSpaceOnUse" x1="193.195" x2="373.322" xlink:href="#lg1" y1="268.975" y2="474.834"/><linearGradient id="SVGID_4_" gradientUnits="userSpaceOnUse" x1="187.559" x2="349.559" y1="227.496" y2="561.496"><stop offset="0" stop-color="#c4f8b6"/><stop offset="1" stop-color="#3b8eac"/></linearGradient><linearGradient id="lg2"><stop offset="0" stop-color="#a34a9e" stop-opacity="0"/><stop offset="1" stop-color="#343168"/></linearGradient><linearGradient id="SVGID_5_" gradientUnits="userSpaceOnUse" x1="89.749" x2="280.415" xlink:href="#lg2" y1="301.974" y2="388.701"/><linearGradient id="SVGID_6_" gradientUnits="userSpaceOnUse" x1="292.235" x2="54.235" xlink:href="#lg2" y1="299.393" y2="282.059"/><linearGradient id="SVGID_7_" gradientUnits="userSpaceOnUse" x1="384.684" x2="208.916" xlink:href="#lg2" y1="312.242" y2="370.613"/><linearGradient id="SVGID_8_" gradientUnits="userSpaceOnUse" x1="345.861" x2="178.527" xlink:href="#lg2" y1="329.373" y2="198.707"/><linearGradient id="SVGID_9_" gradientUnits="userSpaceOnUse" x1="243.791" x2="335.791" y1="200.654" y2="245.987"><stop offset="0" stop-color="#ff4974"/><stop offset=".2231" stop-color="#fb3f6c"/><stop offset=".6075" stop-color="#f12357"/><stop offset="1" stop-color="#e4003d"/></linearGradient><linearGradient id="SVGID_10_" gradientUnits="userSpaceOnUse" x1="333.285" x2="219.479" xlink:href="#lg2" y1="256.509" y2="142.703"/><linearGradient id="SVGID_11_" gradientUnits="userSpaceOnUse" x1="221.089" x2="281.089" y1="132.41" y2="214.41"><stop offset="0" stop-color="#ffe548"/><stop offset=".1758" stop-color="#ffde50"/><stop offset=".4446" stop-color="#ffca65"/><stop offset=".7709" stop-color="#ffaa87"/><stop offset="1" stop-color="#ff90a4"/></linearGradient><path d="m7.648 381.548 116.348 24.875 128.997-27.579 129.003 27.579 116.357-24.875c6.319-1.351 9.553-8.323 6.463-13.937l-83.975-152.588c-2.255-4.097-7.167-5.993-11.634-4.49l-74.24 24.977-81.972-27.579-81.968 27.579-74.234-24.977c-4.467-1.503-9.38.393-11.634 4.49l-83.975 152.589c-3.089 5.613.145 12.585 6.464 13.936z" fill="url(#SVGID_1_)"/><path d="m10.498 375.548 114.996 24.875 127.498-27.579 127.504 27.579 115.005-24.875c6.246-1.351 9.442-8.323 6.388-13.937l-82.999-152.588c-2.228-4.097-7.084-5.993-11.499-4.49l-73.378 24.977-81.019-27.579-81.016 27.579-73.371-24.977c-4.415-1.503-9.271.393-11.499 4.49l-82.998 152.589c-3.053 5.613.143 12.585 6.388 13.936z" fill="url(#SVGID_2_)"/><path d="m10.498 375.548 114.996 24.875 127.498-27.579 127.504 27.579 115.005-24.875c6.246-1.351 9.442-8.323 6.388-13.937l-82.999-152.588c-2.228-4.097-7.084-5.993-11.499-4.49l-73.378 24.977-81.019-27.579-81.016 27.579-73.371-24.977c-4.415-1.503-9.271.393-11.499 4.49l-82.998 152.589c-3.053 5.613.143 12.585 6.388 13.936z" fill="url(#SVGID_2_)"/><path d="m252.992 357.498-123.063 26.619-109.182-21.699 77.355-142.211 69.727 23.737 85.166-26.167 84.963 26.236 69.94-23.806 77.355 142.211-109.191 21.699z" fill="url(#SVGID_4_)"/><path d="m171.98 229.511-46.485 170.912-114.997-24.875c-6.246-1.351-9.441-8.323-6.388-13.937l82.999-152.588c2.228-4.097 7.084-5.993 11.499-4.49z" fill="url(#SVGID_5_)"/><path d="m252.995 201.932-.003 170.913 127.504 27.578-46.482-170.912z" fill="url(#SVGID_6_)"/><path d="m407.392 204.534-73.378 24.977 46.482 170.912 115.005-24.875c6.246-1.351 9.442-8.323 6.388-13.937l-82.999-152.588c-2.228-4.096-7.083-5.992-11.498-4.489z" fill="url(#SVGID_7_)"/><path d="m380.496 400.423 94.73-20.49-155.176-155.175-67.055-22.825-65.965 22.455c8.899 30.82 23.976 64.144 42.191 80.92l79.616 79.616z" fill="url(#SVGID_8_)"/><path d="m327.672 174.249c0 41.24-33.432 142.039-74.672 142.039s-74.672-100.799-74.672-142.039 33.432-74.672 74.672-74.672 74.672 33.432 74.672 74.672z" fill="url(#SVGID_9_)"/><path d="m327.561 178.518-37.234-37.451c-9.333-9.963-22.599-16.197-37.328-16.197-28.25 0-51.152 22.902-51.152 51.152 0 14.597 6.125 27.756 15.932 37.076l73.78 74.21c20.559-31.372 34.643-80.675 36.002-108.79z" fill="url(#SVGID_10_)"/><circle cx="253" cy="176.022" fill="url(#SVGID_11_)" r="51.152"/></svg>