

<svg id="Capa_1" enable-background="new 0 0 510 510" height="512" viewBox="0 0 510 510" width="512" xmlns="http://www.w3.org/2000/svg" xmlns:xlink="http://www.w3.org/1999/xlink"><linearGradient id="lg1"><stop offset="0" stop-color="#f9f7fc"/><stop offset="1" stop-color="#f0ddfc"/></linearGradient><linearGradient id="SVGID_1_" gradientUnits="userSpaceOnUse" x1="80.619" x2="97.134" xlink:href="#lg1" y1="294.152" y2="294.152"/><linearGradient id="lg2"><stop offset="0" stop-color="#f0ddfc" stop-opacity="0"/><stop offset=".4856" stop-color="#bbabd7" stop-opacity=".486"/><stop offset="1" stop-color="#8779b3"/></linearGradient><linearGradient id="SVGID_2_" gradientUnits="userSpaceOnUse" x1="142.171" x2="93.971" xlink:href="#lg2" y1="316.572" y2="252.965"/><linearGradient id="SVGID_3_" gradientUnits="userSpaceOnUse" x1="381.909" x2="399.467" xlink:href="#lg1" y1="294.152" y2="294.152"/><linearGradient id="SVGID_4_" gradientUnits="userSpaceOnUse" x1="442.79" x2="394.591" xlink:href="#lg2" y1="316.572" y2="252.965"/><linearGradient id="SVGID_5_" gradientUnits="userSpaceOnUse" x1="80.619" x2="97.134" xlink:href="#lg1" y1="101.191" y2="101.191"/><linearGradient id="SVGID_6_" gradientUnits="userSpaceOnUse" x1="381.909" x2="399.467" xlink:href="#lg1" y1="101.191" y2="101.191"/><linearGradient id="lg3"><stop offset="0" stop-color="#9c62ce"/><stop offset="1" stop-color="#843ac2"/></linearGradient><linearGradient id="SVGID_7_" gradientUnits="userSpaceOnUse" x1="237.845" x2="281.971" xlink:href="#lg3" y1="144.052" y2="294.935"/><linearGradient id="lg4"><stop offset="0" stop-color="#843ac2" stop-opacity="0"/><stop offset="1" stop-color="#6e566e"/></linearGradient><linearGradient id="SVGID_8_" gradientUnits="userSpaceOnUse" x1="191.801" x2="70.486" xlink:href="#lg4" y1="292.63" y2="171.316"/><linearGradient id="lg5"><stop offset="0" stop-color="#ffda45"/><stop offset="1" stop-color="#ffa425"/></linearGradient><linearGradient id="SVGID_9_" gradientTransform="matrix(.707 .707 -.707 .707 1332.812 -1707.108)" gradientUnits="userSpaceOnUse" x1="441.921" x2="513.449" xlink:href="#lg5" y1="2212.471" y2="2264.085"/><linearGradient id="lg6"><stop offset="0" stop-color="#ffda45" stop-opacity="0"/><stop offset="1" stop-color="#ffee83"/></linearGradient><linearGradient id="SVGID_10_" gradientTransform="matrix(.707 .707 -.707 .707 1332.812 -1707.108)" gradientUnits="userSpaceOnUse" x1="479.271" x2="397.916" xlink:href="#lg6" y1="2232.304" y2="2194.043"/><linearGradient id="lg7"><stop offset="0" stop-color="#ffda45" stop-opacity="0"/><stop offset="1" stop-color="#b53759"/></linearGradient><linearGradient id="SVGID_11_" gradientTransform="matrix(.707 .707 -.707 .707 1332.812 -1707.108)" gradientUnits="userSpaceOnUse" x1="488.442" x2="412.519" xlink:href="#lg7" y1="2211.32" y2="2324.488"/><linearGradient id="SVGID_12_" gradientUnits="userSpaceOnUse" x1="237.845" x2="281.971" xlink:href="#lg3" y1="312.768" y2="463.651"/><linearGradient id="SVGID_13_" gradientUnits="userSpaceOnUse" x1="173.262" x2="73.155" xlink:href="#lg4" y1="461.367" y2="361.26"/><linearGradient id="SVGID_14_" gradientUnits="userSpaceOnUse" x1="74.677" x2="132.245" xlink:href="#lg5" y1="356.537" y2="428.614"/><linearGradient id="SVGID_15_" gradientUnits="userSpaceOnUse" x1="122.061" x2="40.155" xlink:href="#lg6" y1="399.25" y2="355.255"/><linearGradient id="SVGID_16_" gradientUnits="userSpaceOnUse" x1="79.135" x2="123.598" xlink:href="#lg7" y1="385.643" y2="484.866"/><path d="m82.439 257.326h44.502v73.651h-44.502z" fill="url(#SVGID_1_)"/><path d="m82.439 276.894 44.502 44.502v-64.07h-44.502z" fill="url(#SVGID_2_)"/><path d="m383.059 257.326h44.502v73.651h-44.502z" fill="url(#SVGID_3_)"/><path d="m383.059 276.894 44.502 44.502v-64.07h-44.502z" fill="url(#SVGID_4_)"/><path d="m126.941 138.016h-44.502v-51.4c0-12.289 9.962-22.251 22.251-22.251 12.289 0 22.251 9.962 22.251 22.251z" fill="url(#SVGID_5_)"/><path d="m427.561 138.016h-44.502v-51.4c0-12.289 9.962-22.251 22.251-22.251 12.289 0 22.251 9.962 22.251 22.251z" fill="url(#SVGID_6_)"/><path d="m486.477 276.918h-462.954c-12.992 0-23.523-10.531-23.523-23.522v-101.369c0-12.991 10.531-23.523 23.523-23.523h462.955c12.991 0 23.523 10.532 23.523 23.523v101.368c-.001 12.992-10.532 23.523-23.524 23.523z" fill="url(#SVGID_7_)"/><path d="m135.292 153.513c-1.549-2.464-4.285-4.107-7.411-4.107h-56.927c-7.801 0-11.708 9.43-6.192 14.946 3.42 3.419 3.42 8.962 0 12.381l-33.692 33.686c-2.47 2.47-.189 4.194 2.281 6.663l59.829 59.836h165.518z" fill="url(#SVGID_8_)"/><path d="m109.305 221.268-33.692 33.686c-2.47 2.47-4.195.189-6.665-2.28l-35.598-35.591c-2.47-2.47-4.751-4.194-2.281-6.663l33.692-33.685c3.42-3.419 3.42-8.962 0-12.382-5.516-5.515-1.61-14.946 6.192-14.946h56.927c4.836 0 8.757 3.92 8.757 8.755v56.916c0 7.8-9.432 11.706-14.948 6.191-3.419-3.42-8.964-3.42-12.384-.001z" fill="url(#SVGID_9_)"/><path d="m38.951 212.61 30.848-30.842c6.191-6.19 6.191-16.262 0-22.452-.513-.512-.631-1.111-.354-1.781.277-.669.785-1.009 1.51-1.009h56.927c.56 0 .937.26 1.156.479.218.218.479.596.479 1.155v56.917c0 .725-.339 1.232-1.009 1.51s-1.269.158-1.781-.354c-6.191-6.19-16.265-6.19-22.456 0l-30.848 30.842z" fill="url(#SVGID_10_)"/><path d="m68.949 252.673c2.47 2.47 4.195 4.75 6.665 2.28l33.692-33.686c3.42-3.419 8.964-3.419 12.384 0 5.516 5.515 14.948 1.609 14.948-6.191v-56.916c0-2.418-.98-4.606-2.565-6.191l-82.923 82.909z" fill="url(#SVGID_11_)"/><g fill="#b2c5ff"><path d="m402.437 236.628h-132.028c-2.316 0-4.194-1.878-4.194-4.194v-11.936c0-2.316 1.878-4.194 4.194-4.194h132.028c2.316 0 4.194 1.878 4.194 4.194v11.936c0 2.317-1.878 4.194-4.194 4.194z"/><path d="m245.714 236.628h-40.806c-2.316 0-4.194-1.878-4.194-4.194v-11.936c0-2.316 1.878-4.194 4.194-4.194h40.806c2.316 0 4.194 1.878 4.194 4.194v11.936c-.001 2.317-1.878 4.194-4.194 4.194z"/><path d="m447.603 236.628h-21.151c-2.316 0-4.194-1.878-4.194-4.194v-11.936c0-2.316 1.878-4.194 4.194-4.194h21.151c2.316 0 4.194 1.878 4.194 4.194v11.936c0 2.317-1.878 4.194-4.194 4.194z"/><path d="m315.576 168.795h132.027c2.316 0 4.194 1.878 4.194 4.194v11.936c0 2.316-1.878 4.194-4.194 4.194h-132.027c-2.316 0-4.194-1.877-4.194-4.194v-11.936c0-2.316 1.878-4.194 4.194-4.194z"/><path d="m249.754 168.795h40.806c2.316 0 4.194 1.878 4.194 4.194v11.936c0 2.316-1.878 4.194-4.194 4.194h-40.806c-2.316 0-4.194-1.877-4.194-4.194v-11.936c0-2.316 1.878-4.194 4.194-4.194z"/><path d="m204.907 168.795h21.151c2.316 0 4.194 1.878 4.194 4.194v11.936c0 2.316-1.878 4.194-4.194 4.194h-21.151c-2.316 0-4.194-1.877-4.194-4.194v-11.936c.001-2.316 1.878-4.194 4.194-4.194z"/></g><path d="m486.477 445.635h-462.954c-12.992 0-23.523-10.532-23.523-23.523v-101.368c0-12.991 10.531-23.523 23.523-23.523h462.955c12.991 0 23.523 10.531 23.523 23.523v101.368c-.001 12.991-10.532 23.523-23.524 23.523z" fill="url(#SVGID_12_)"/><path d="m135.03 353.975c-2.928-4.088-9.226-5.226-13.345-1.107-3.398 3.399-8.892 3.416-12.316.059l-33.751-33.751c-2.47-2.47-4.194-.189-6.664 2.281l-35.591 35.598c-2.47 2.47-4.75 4.194-2.28 6.665l33.686 33.692c3.419 3.42 3.419 8.964 0 12.384-4.119 4.12-2.98 10.421 1.108 13.348l22.491 22.492h138.321z" fill="url(#SVGID_13_)"/><path d="m64.769 397.411-33.686-33.692c-2.47-2.47-.189-4.194 2.28-6.665l35.591-35.598c2.47-2.47 4.194-4.751 6.664-2.281l33.685 33.692c3.419 3.42 8.962 3.42 12.381 0 5.515-5.516 14.946-1.609 14.946 6.192v56.927c0 4.836-3.92 8.757-8.755 8.757h-56.916c-7.8 0-11.706-9.432-6.191-14.949 3.42-3.419 3.42-8.963.001-12.383z" fill="url(#SVGID_14_)"/><path d="m73.426 327.056 30.842 30.848c6.19 6.191 16.262 6.191 22.452 0 .512-.512 1.112-.631 1.781-.354s1.009.785 1.008 1.51v56.927c0 .56-.261.937-.479 1.156-.218.218-.596.479-1.155.479h-56.917c-.725 0-1.232-.34-1.51-1.009-.277-.669-.158-1.269.354-1.781 6.19-6.191 6.19-16.265 0-22.456l-30.842-30.848z" fill="url(#SVGID_15_)"/><path d="m33.363 357.055c-2.47 2.47-4.75 4.194-2.28 6.665l33.686 33.692c3.419 3.42 3.419 8.964 0 12.384-5.515 5.516-1.609 14.948 6.191 14.948h56.917c2.418 0 4.606-.98 6.191-2.565l-82.907-82.923z" fill="url(#SVGID_16_)"/><path d="m402.437 357.834h-132.028c-2.316 0-4.194-1.878-4.194-4.194v-11.936c0-2.316 1.878-4.194 4.194-4.194h132.028c2.316 0 4.194 1.878 4.194 4.194v11.936c0 2.317-1.878 4.194-4.194 4.194z" fill="#b3ccff"/><path d="m245.714 357.834h-40.806c-2.316 0-4.194-1.878-4.194-4.194v-11.936c0-2.316 1.878-4.194 4.194-4.194h40.806c2.316 0 4.194 1.878 4.194 4.194v11.936c-.001 2.317-1.878 4.194-4.194 4.194z" fill="#b3ccff"/><path d="m447.603 357.834h-21.151c-2.316 0-4.194-1.878-4.194-4.194v-11.936c0-2.316 1.878-4.194 4.194-4.194h21.151c2.316 0 4.194 1.878 4.194 4.194v11.936c0 2.317-1.878 4.194-4.194 4.194z" fill="#b3ccff"/><path d="m250.074 385.021h132.028c2.316 0 4.194 1.878 4.194 4.194v11.936c0 2.316-1.878 4.194-4.194 4.194h-132.028c-2.316 0-4.194-1.878-4.194-4.194v-11.936c0-2.316 1.877-4.194 4.194-4.194z" fill="#b3ccff"/><path d="m204.907 385.021h21.151c2.316 0 4.194 1.878 4.194 4.194v11.936c0 2.316-1.878 4.194-4.194 4.194h-21.151c-2.316 0-4.194-1.878-4.194-4.194v-11.936c.001-2.316 1.878-4.194 4.194-4.194z" fill="#b3ccff"/></svg>