<svg xmlns="http://www.w3.org/2000/svg" xmlns:xlink="http://www.w3.org/1999/xlink" width="512" height="512" viewBox="0 0 510 510"><linearGradient id="a"><stop offset="0" stop-color="#f9f7fc"/><stop offset="1" stop-color="#f0ddfc"/></linearGradient><linearGradient xlink:href="#a" id="h" x1="80.619" x2="97.134" y1="294.152" y2="294.152" gradientUnits="userSpaceOnUse"/><linearGradient id="b"><stop offset="0" stop-color="#f0ddfc" stop-opacity="0"/><stop offset=".486" stop-color="#bbabd7" stop-opacity=".486"/><stop offset="1" stop-color="#8779b3"/></linearGradient><linearGradient xlink:href="#b" id="i" x1="142.171" x2="93.971" y1="316.572" y2="252.965" gradientUnits="userSpaceOnUse"/><linearGradient xlink:href="#a" id="j" x1="381.909" x2="399.467" y1="294.152" y2="294.152" gradientUnits="userSpaceOnUse"/><linearGradient xlink:href="#b" id="k" x1="442.79" x2="394.591" y1="316.572" y2="252.965" gradientUnits="userSpaceOnUse"/><linearGradient xlink:href="#a" id="l" x1="80.619" x2="97.134" y1="101.191" y2="101.191" gradientUnits="userSpaceOnUse"/><linearGradient xlink:href="#a" id="m" x1="381.909" x2="399.467" y1="101.191" y2="101.191" gradientUnits="userSpaceOnUse"/><linearGradient id="c"><stop offset="0" stop-color="#9c62ce"/><stop offset="1" stop-color="#843ac2"/></linearGradient><linearGradient xlink:href="#c" id="n" x1="237.845" x2="281.971" y1="144.052" y2="294.935" gradientUnits="userSpaceOnUse"/><linearGradient id="d"><stop offset="0" stop-color="#843ac2" stop-opacity="0"/><stop offset="1" stop-color="#6e566e"/></linearGradient><linearGradient xlink:href="#d" id="o" x1="191.801" x2="70.486" y1="292.63" y2="171.316" gradientUnits="userSpaceOnUse"/><linearGradient id="e"><stop offset="0" stop-color="#ffda45"/><stop offset="1" stop-color="#ffa425"/></linearGradient><linearGradient xlink:href="#e" id="p" x1="441.921" x2="513.449" y1="2212.471" y2="2264.085" gradientTransform="rotate(45 2727.411 754.852)" gradientUnits="userSpaceOnUse"/><linearGradient id="f"><stop offset="0" stop-color="#ffda45" stop-opacity="0"/><stop offset="1" stop-color="#ffee83"/></linearGradient><linearGradient xlink:href="#f" id="q" x1="479.271" x2="397.916" y1="2232.304" y2="2194.043" gradientTransform="rotate(45 2727.411 754.852)" gradientUnits="userSpaceOnUse"/><linearGradient id="g"><stop offset="0" stop-color="#ffda45" stop-opacity="0"/><stop offset="1" stop-color="#b53759"/></linearGradient><linearGradient xlink:href="#g" id="r" x1="488.442" x2="412.519" y1="2211.32" y2="2324.488" gradientTransform="rotate(45 2727.411 754.852)" gradientUnits="userSpaceOnUse"/><linearGradient xlink:href="#c" id="s" x1="237.845" x2="281.971" y1="312.768" y2="463.651" gradientUnits="userSpaceOnUse"/><linearGradient xlink:href="#d" id="t" x1="173.262" x2="73.155" y1="461.367" y2="361.26" gradientUnits="userSpaceOnUse"/><linearGradient xlink:href="#e" id="u" x1="74.677" x2="132.245" y1="356.537" y2="428.614" gradientUnits="userSpaceOnUse"/><linearGradient xlink:href="#f" id="v" x1="122.061" x2="40.155" y1="399.25" y2="355.255" gradientUnits="userSpaceOnUse"/><linearGradient xlink:href="#g" id="w" x1="79.135" x2="123.598" y1="385.643" y2="484.866" gradientUnits="userSpaceOnUse"/><path fill="url(#h)" d="M82.439 257.326h44.502v73.651H82.439z"/><path fill="url(#i)" d="m82.439 276.894 44.502 44.502v-64.07H82.439z"/><path fill="url(#j)" d="M383.059 257.326h44.502v73.651h-44.502z"/><path fill="url(#k)" d="m383.059 276.894 44.502 44.502v-64.07h-44.502z"/><path fill="url(#l)" d="M126.941 138.016H82.439v-51.4c0-12.289 9.962-22.251 22.251-22.251s22.251 9.962 22.251 22.251z"/><path fill="url(#m)" d="M427.561 138.016h-44.502v-51.4c0-12.289 9.962-22.251 22.251-22.251s22.251 9.962 22.251 22.251z"/><path fill="url(#n)" d="M486.477 276.918H23.523C10.531 276.918 0 266.387 0 253.396V152.027c0-12.991 10.531-23.523 23.523-23.523h462.955c12.991 0 23.523 10.532 23.523 23.523v101.368c-.001 12.992-10.532 23.523-23.524 23.523"/><path fill="url(#o)" d="M135.292 153.513a8.74 8.74 0 0 0-7.411-4.107H70.954c-7.801 0-11.708 9.43-6.192 14.946a8.753 8.753 0 0 1 0 12.381L31.07 210.419c-2.47 2.47-.189 4.194 2.281 6.663l59.829 59.836h165.518z"/><path fill="url(#p)" d="m109.305 221.268-33.692 33.686c-2.47 2.47-4.195.189-6.665-2.28L33.35 217.083c-2.47-2.47-4.751-4.194-2.281-6.663l33.692-33.685a8.754 8.754 0 0 0 0-12.382c-5.516-5.515-1.61-14.946 6.192-14.946h56.927a8.756 8.756 0 0 1 8.757 8.755v56.916c0 7.8-9.432 11.706-14.948 6.191a8.757 8.757 0 0 0-12.384-.001"/><path fill="url(#q)" d="m38.951 212.61 30.848-30.842c6.191-6.19 6.191-16.262 0-22.452-.513-.512-.631-1.111-.354-1.781s.785-1.009 1.51-1.009h56.927c.56 0 .937.26 1.156.479s.479.596.479 1.155v56.917c0 .725-.339 1.232-1.009 1.51s-1.269.158-1.781-.354c-6.191-6.19-16.265-6.19-22.456 0l-30.848 30.842z"/><path fill="url(#r)" d="M68.949 252.673c2.47 2.47 4.195 4.75 6.665 2.28l33.692-33.686a8.76 8.76 0 0 1 12.384 0c5.516 5.515 14.948 1.609 14.948-6.191V158.16c0-2.418-.98-4.606-2.565-6.191L51.15 234.878z"/><g fill="#b2c5ff"><path d="M402.437 236.628H270.409a4.194 4.194 0 0 1-4.194-4.194v-11.936a4.194 4.194 0 0 1 4.194-4.194h132.028a4.194 4.194 0 0 1 4.194 4.194v11.936a4.194 4.194 0 0 1-4.194 4.194M245.714 236.628h-40.806a4.194 4.194 0 0 1-4.194-4.194v-11.936a4.194 4.194 0 0 1 4.194-4.194h40.806a4.194 4.194 0 0 1 4.194 4.194v11.936a4.194 4.194 0 0 1-4.194 4.194M447.603 236.628h-21.151a4.194 4.194 0 0 1-4.194-4.194v-11.936a4.194 4.194 0 0 1 4.194-4.194h21.151a4.194 4.194 0 0 1 4.194 4.194v11.936a4.194 4.194 0 0 1-4.194 4.194M315.576 168.795h132.027a4.194 4.194 0 0 1 4.194 4.194v11.936a4.194 4.194 0 0 1-4.194 4.194H315.576a4.194 4.194 0 0 1-4.194-4.194v-11.936a4.194 4.194 0 0 1 4.194-4.194M249.754 168.795h40.806a4.194 4.194 0 0 1 4.194 4.194v11.936a4.194 4.194 0 0 1-4.194 4.194h-40.806a4.194 4.194 0 0 1-4.194-4.194v-11.936a4.194 4.194 0 0 1 4.194-4.194M204.907 168.795h21.151a4.194 4.194 0 0 1 4.194 4.194v11.936a4.194 4.194 0 0 1-4.194 4.194h-21.151a4.194 4.194 0 0 1-4.194-4.194v-11.936a4.195 4.195 0 0 1 4.194-4.194"/></g><path fill="url(#s)" d="M486.477 445.635H23.523C10.531 445.635 0 435.103 0 422.112V320.744c0-12.991 10.531-23.523 23.523-23.523h462.955c12.991 0 23.523 10.531 23.523 23.523v101.368c-.001 12.991-10.532 23.523-23.524 23.523"/><path fill="url(#t)" d="M135.03 353.975c-2.928-4.088-9.226-5.226-13.345-1.107-3.398 3.399-8.892 3.416-12.316.059l-33.751-33.751c-2.47-2.47-4.194-.189-6.664 2.281l-35.591 35.598c-2.47 2.47-4.75 4.194-2.28 6.665l33.686 33.692a8.76 8.76 0 0 1 0 12.384c-4.119 4.12-2.98 10.421 1.108 13.348l22.491 22.492h138.321z"/><path fill="url(#u)" d="m64.769 397.411-33.686-33.692c-2.47-2.47-.189-4.194 2.28-6.665l35.591-35.598c2.47-2.47 4.194-4.751 6.664-2.281l33.685 33.692a8.753 8.753 0 0 0 12.381 0c5.515-5.516 14.946-1.609 14.946 6.192v56.927a8.756 8.756 0 0 1-8.755 8.757H70.959c-7.8 0-11.706-9.432-6.191-14.949a8.756 8.756 0 0 0 .001-12.383"/><path fill="url(#v)" d="m73.426 327.056 30.842 30.848c6.19 6.191 16.262 6.191 22.452 0 .512-.512 1.112-.631 1.781-.354s1.009.785 1.008 1.51v56.927c0 .56-.261.937-.479 1.156a1.6 1.6 0 0 1-1.155.479H70.958c-.725 0-1.232-.34-1.51-1.009-.277-.669-.158-1.269.354-1.781 6.19-6.191 6.19-16.265 0-22.456L38.96 361.528z"/><path fill="url(#w)" d="M33.363 357.055c-2.47 2.47-4.75 4.194-2.28 6.665l33.686 33.692a8.76 8.76 0 0 1 0 12.384c-5.515 5.516-1.609 14.948 6.191 14.948h56.917c2.418 0 4.606-.98 6.191-2.565l-82.907-82.923z"/><path fill="#b3ccff" d="M402.437 357.834H270.409a4.194 4.194 0 0 1-4.194-4.194v-11.936a4.194 4.194 0 0 1 4.194-4.194h132.028a4.194 4.194 0 0 1 4.194 4.194v11.936a4.194 4.194 0 0 1-4.194 4.194M245.714 357.834h-40.806a4.194 4.194 0 0 1-4.194-4.194v-11.936a4.194 4.194 0 0 1 4.194-4.194h40.806a4.194 4.194 0 0 1 4.194 4.194v11.936a4.194 4.194 0 0 1-4.194 4.194M447.603 357.834h-21.151a4.194 4.194 0 0 1-4.194-4.194v-11.936a4.194 4.194 0 0 1 4.194-4.194h21.151a4.194 4.194 0 0 1 4.194 4.194v11.936a4.194 4.194 0 0 1-4.194 4.194M250.074 385.021h132.028a4.194 4.194 0 0 1 4.194 4.194v11.936a4.194 4.194 0 0 1-4.194 4.194H250.074a4.194 4.194 0 0 1-4.194-4.194v-11.936a4.194 4.194 0 0 1 4.194-4.194M204.907 385.021h21.151a4.194 4.194 0 0 1 4.194 4.194v11.936a4.194 4.194 0 0 1-4.194 4.194h-21.151a4.194 4.194 0 0 1-4.194-4.194v-11.936a4.195 4.195 0 0 1 4.194-4.194"/></svg>