<svg id="Capa_1" enable-background="new 0 0 512 512" height="512" viewBox="0 0 512 512" width="512" xmlns="http://www.w3.org/2000/svg"><g><path d="m437 136v75 75c41.353 0 75-33.647 75-75s-33.647-75-75-75z" fill="#ff9f22"/><path d="m512 211h-75v75c41.353 0 75-33.647 75-75z" fill="#d10050"/><path d="m195 436h-45l30 30h15c8.291 0 15-6.709 15-15s-6.709-15-15-15z" fill="#07485e"/><path d="m225 376h-60c-8.291 0-15-6.709-15-15s6.709-15 15-15h45v-45c0-8.291 6.709-15 15-15s15 6.709 15 15v60c0 8.291-6.709 15-15 15z" fill="#03232e"/><path d="m120 301v150c0 8.284 6.716 15 15 15h45v-165z" fill="#07485e"/><path d="m437 46c-5.87 0-10.818 3.452-13.282 8.359-2.802 3.005-24.978 51.641-84.793 51.641h-218.925l-30 30v75 75l30 30h218.925c59.833 0 81.995 48.638 84.793 51.641 2.464 4.907 7.412 8.359 13.282 8.359 8.291 0 15-6.709 15-15v-150-150c0-8.291-6.709-15-15-15z" fill="#f0f7ff"/><path d="m120 316h218.925c59.833 0 81.995 48.638 84.793 51.641 2.464 4.907 7.412 8.359 13.282 8.359 8.291 0 15-6.709 15-15v-150h-362v75z" fill="#c7cfe1"/><path d="m105 106c-57.891 0-105 47.109-105 105s47.109 105 105 105h15v-105-105z" fill="#ff9f22"/><path d="m105 316h15v-105h-120c0 57.891 47.109 105 105 105z" fill="#ff4a4a"/></g></svg>