<svg height="512" viewBox="0 0 128 128" width="512" xmlns="http://www.w3.org/2000/svg"><g><path d="m47.5 74.008h-33.75a12 12 0 0 1 -12-12v-26.266a12 12 0 0 1 12-12h33.75z" fill="#efefef"/><path d="m116.448 84.016a157.294 157.294 0 0 0 -55.21-10.008h-13.738v-50.266h13.738a157.294 157.294 0 0 0 55.21-10.008z" fill="#7075e0"/><rect fill="#61c7d2" height="85.75" rx="4.901" width="9.802" x="116.448" y="6"/><path d="m20.418 122a8.671 8.671 0 0 1 -8.51-10.426l7.834-37.566h17.758l-8.573 41.092a8.684 8.684 0 0 1 -8.509 6.9z" fill="#7075e0"/><path d="m61.238 74.008h-4.18l-4.779 10.736a9.007 9.007 0 0 1 -8.221 5.339h-9.914l-1.668 8h11.582a17.015 17.015 0 0 0 15.53-10.083l6.194-13.915c-1.513-.047-3.028-.077-4.544-.077z" fill="#61c7d2"/><g fill="#d3d3d3"><rect height="6" rx="3" width="25.754" x="11.75" y="33.742"/><rect height="6" rx="3" width="25.754" x="11.75" y="45.875"/><rect height="6" rx="3" width="25.754" x="11.75" y="58.008"/></g></g></svg>