<svg xmlns:xlink="http://www.w3.org/1999/xlink" id="Capa_1" enable-background="new 0 0 510 510" height="512" viewBox="0 0 510 510"
     width="512" xmlns="http://www.w3.org/2000/svg">
    <linearGradient id="lg1">
        <stop offset="0" stop-color="#fd0"/>
        <stop offset="1" stop-color="#ffb000"/>
    </linearGradient>
    <linearGradient id="SVGID_1_" gradientUnits="userSpaceOnUse" x1="135" x2="355.273" xlink:href="#lg1" y1="135"
                    y2="355.273"/>
    <linearGradient id="SVGID_2_" gradientUnits="userSpaceOnUse" x1="398.916" x2="87.037" xlink:href="#lg1" y1="398.916"
                    y2="87.037"/>
    <linearGradient id="lg2">
        <stop offset="0" stop-color="#ff8900" stop-opacity="0"/>
        <stop offset="1" stop-color="#ff8900"/>
    </linearGradient>
    <linearGradient id="SVGID_3_" gradientUnits="userSpaceOnUse" x1="410.879" x2="382.379" xlink:href="#lg2"
                    y1="342.324" y2="327.824"/>
    <linearGradient id="SVGID_4_" gradientUnits="userSpaceOnUse" x1="255" x2="255" xlink:href="#lg2" y1="428"
                    y2="402.495"/>
    <linearGradient id="SVGID_5_" gradientUnits="userSpaceOnUse" x1="241.333" x2="261.223" xlink:href="#lg1" y1="14.667"
                    y2="34.557"/>
    <linearGradient id="SVGID_6_" gradientUnits="userSpaceOnUse" x1="255" x2="255" xlink:href="#lg2" y1="36.333"
                    y2="54.67"/>
    <linearGradient id="SVGID_7_" gradientUnits="userSpaceOnUse" x1="241.333" x2="261.223" xlink:href="#lg1" y1="468"
                    y2="487.89"/>
    <linearGradient id="SVGID_8_" gradientUnits="userSpaceOnUse" x1="255" x2="255" xlink:href="#lg2" y1="489.667"
                    y2="508.003"/>
    <linearGradient id="SVGID_9_" gradientUnits="userSpaceOnUse" x1="34.353" x2="54.243" xlink:href="#lg1" y1="360.833"
                    y2="380.723"/>
    <linearGradient id="SVGID_10_" gradientUnits="userSpaceOnUse" x1="48.02" x2="48.02" xlink:href="#lg2" y1="382.5"
                    y2="400.836"/>
    <linearGradient id="SVGID_11_" gradientUnits="userSpaceOnUse" x1="448.313" x2="468.203" xlink:href="#lg1"
                    y1="360.833" y2="380.723"/>
    <linearGradient id="SVGID_12_" gradientUnits="userSpaceOnUse" x1="461.98" x2="461.98" xlink:href="#lg2" y1="382.5"
                    y2="400.836"/>
    <linearGradient id="SVGID_13_" gradientUnits="userSpaceOnUse" x1="34.353" x2="54.243" xlink:href="#lg1" y1="121.833"
                    y2="141.723"/>
    <linearGradient id="SVGID_14_" gradientUnits="userSpaceOnUse" x1="48.02" x2="48.02" xlink:href="#lg2" y1="143.5"
                    y2="161.836"/>
    <linearGradient id="SVGID_15_" gradientUnits="userSpaceOnUse" x1="448.313" x2="468.203" xlink:href="#lg1"
                    y1="121.833" y2="141.723"/>
    <linearGradient id="SVGID_16_" gradientUnits="userSpaceOnUse" x1="461.98" x2="461.98" xlink:href="#lg2" y1="143.5"
                    y2="161.836"/>
    <linearGradient id="SVGID_17_" gradientUnits="userSpaceOnUse" x1="176" x2="377.022" xlink:href="#lg1" y1="176"
                    y2="377.022"/>
    <linearGradient id="SVGID_18_" gradientTransform="matrix(-1 0 0 -1 -2682 -554)" gradientUnits="userSpaceOnUse"
                    x1="-3004.68" x2="-2832.462" xlink:href="#lg1" y1="-876.68" y2="-704.462"/>
    <linearGradient id="SVGID_19_" gradientUnits="userSpaceOnUse" x1="195.548" x2="346.829" xlink:href="#lg1"
                    y1="195.548" y2="346.829"/>
    <linearGradient id="SVGID_20_" gradientUnits="userSpaceOnUse" x1="255" x2="255" xlink:href="#lg2" y1="330"
                    y2="406.901"/>
    <linearGradient id="SVGID_21_" gradientUnits="userSpaceOnUse" x1="387.553" x2="184.34" xlink:href="#lg2"
                    y1="395.201" y2="191.989"/>
    <linearGradient id="lg3">
        <stop offset="0" stop-color="#ffb000"/>
        <stop offset="1" stop-color="#ff5700"/>
    </linearGradient>
    <linearGradient id="SVGID_22_" gradientUnits="userSpaceOnUse" x1="193.381" x2="301.261" xlink:href="#lg3"
                    y1="201.033" y2="308.913"/>
    <linearGradient id="SVGID_23_" gradientUnits="userSpaceOnUse" x1="411.525" x2="186.437" xlink:href="#lg3"
                    y1="411.808" y2="186.719"/>
    <linearGradient id="SVGID_24_" gradientUnits="userSpaceOnUse" x1="255" x2="255" y1="278.667" y2="357.809">
        <stop offset="0" stop-color="#ff5700" stop-opacity="0"/>
        <stop offset="1" stop-color="#ff5700"/>
    </linearGradient>
    <g>
        <path d="m255 16 59.75 135.51 147.23-16.01-87.48 119.5 87.48 119.5-147.23-16.01-59.75 135.51-59.75-135.51-147.23 16.01 87.48-119.5-87.48-119.5 147.23 16.01z"
              fill="url(#SVGID_1_)"/>
        <path d="m203.559 336.621-96.531 10.497c-5.469.595-9.04-5.591-5.791-10.03l57.356-78.35c1.629-2.226 1.629-5.251 0-7.476l-57.356-78.35c-3.25-4.439.322-10.624 5.791-10.03l96.531 10.497c2.742.298 5.362-1.214 6.475-3.738l39.175-88.847c2.219-5.034 9.362-5.034 11.581 0l39.175 88.847c1.113 2.524 3.733 4.036 6.475 3.738l96.531-10.497c5.469-.595 9.04 5.591 5.791 10.03l-57.356 78.35c-1.629 2.226-1.629 5.251 0 7.476l57.356 78.35c3.25 4.439-.322 10.624-5.791 10.03l-96.531-10.497c-2.742-.298-5.362 1.214-6.475 3.738l-39.175 88.846c-2.219 5.034-9.362 5.034-11.581 0l-39.175-88.846c-1.113-2.524-3.732-4.036-6.475-3.738z"
              fill="url(#SVGID_2_)"/>
        <path d="m461.98 374.5-65.797-89.881-44.32 77.907z" fill="url(#SVGID_3_)"/>
        <path d="m207.6 386.5 47.4 107.5 47.4-107.5z" fill="url(#SVGID_4_)"/>
        <g>
            <g>
                <circle cx="255" cy="28.333" fill="url(#SVGID_5_)" r="28.333"/>
                <path d="m226.667 28.333c0 15.648 12.685 28.333 28.333 28.333s28.333-12.685 28.333-28.333c0-1.244-.089-2.466-.244-3.667h-56.178c-.156 1.202-.244 2.424-.244 3.667z"
                      fill="url(#SVGID_6_)"/>
            </g>
            <g>
                <circle cx="255" cy="481.667" fill="url(#SVGID_7_)" r="28.333"/>
                <path d="m226.667 481.667c0 15.648 12.685 28.333 28.333 28.333s28.333-12.685 28.333-28.333c0-1.243-.089-2.465-.244-3.667h-56.178c-.156 1.201-.244 2.423-.244 3.667z"
                      fill="url(#SVGID_8_)"/>
            </g>
            <g>
                <circle cx="48.02" cy="374.5" fill="url(#SVGID_9_)" r="28.333"/>
                <path d="m19.687 374.5c0 15.648 12.685 28.333 28.333 28.333s28.333-12.685 28.333-28.333c0-1.243-.089-2.466-.244-3.667h-56.178c-.156 1.201-.244 2.424-.244 3.667z"
                      fill="url(#SVGID_10_)"/>
            </g>
            <g>
                <circle cx="461.98" cy="374.5" fill="url(#SVGID_11_)" r="28.333"/>
                <path d="m433.647 374.5c0 15.648 12.685 28.333 28.333 28.333s28.333-12.685 28.333-28.333c0-1.243-.089-2.466-.244-3.667h-56.178c-.155 1.201-.244 2.424-.244 3.667z"
                      fill="url(#SVGID_12_)"/>
            </g>
            <g>
                <circle cx="48.02" cy="135.5" fill="url(#SVGID_13_)" r="28.333"/>
                <path d="m19.687 135.5c0 15.648 12.685 28.333 28.333 28.333s28.333-12.685 28.333-28.333c0-1.243-.089-2.465-.244-3.667h-56.178c-.156 1.202-.244 2.424-.244 3.667z"
                      fill="url(#SVGID_14_)"/>
            </g>
            <g>
                <circle cx="461.98" cy="135.5" fill="url(#SVGID_15_)" r="28.333"/>
                <path d="m433.647 135.5c0 15.648 12.685 28.333 28.333 28.333s28.333-12.685 28.333-28.333c0-1.243-.089-2.465-.244-3.667h-56.178c-.155 1.202-.244 2.424-.244 3.667z"
                      fill="url(#SVGID_16_)"/>
            </g>
        </g>
        <circle cx="255" cy="255" fill="url(#SVGID_17_)" r="149.5"/>
        <circle cx="255" cy="255" fill="url(#SVGID_18_)" r="128.078"/>
        <circle cx="255" cy="255" fill="url(#SVGID_19_)" r="112.508"/>
        <path d="m106.544 272.667c8.742 74.238 71.868 131.833 148.456 131.833s139.714-57.595 148.456-131.833z"
              fill="url(#SVGID_20_)"/>
        <path d="m403.575 271.625-49.698-49.698c-2.629-4.59-7.229-8.114-13.296-8.996l-21.169-3.076-47.477-47.457c-7.231-12.593-25.881-12.235-32.455 1.084l-16.746 33.931c-2.683 5.437-7.87 9.206-13.87 10.077l-37.445 5.441c-15.11 2.196-21.143 20.764-10.21 31.422l29.759 29.694c2.44 3.822 3.417 8.457 2.634 13.024l-6.396 37.294c-1.415 8.251 2.7 15.42 8.929 19.049l61.059 61.059c75.952-1.095 138.189-58.82 146.381-132.848z"
              fill="url(#SVGID_21_)"/>
        <g>
            <g>
                <path d="m271.519 162.482 16.746 33.931c2.683 5.437 7.87 9.206 13.87 10.077l37.445 5.441c15.11 2.195 21.143 20.764 10.21 31.422l-27.096 26.412c-4.342 4.232-6.323 10.33-5.298 16.306l6.396 37.294c2.581 15.049-13.214 26.525-26.729 19.42l-33.492-17.608c-5.367-2.821-11.778-2.821-17.145 0l-33.492 17.608c-13.515 7.105-29.31-4.371-26.729-19.42l6.396-37.294c1.025-5.976-.956-12.073-5.298-16.306l-27.096-26.412c-10.934-10.658-4.9-29.226 10.21-31.422l37.445-5.441c6-.872 11.187-4.64 13.87-10.077l16.746-33.931c6.76-13.692 26.284-13.692 33.041 0z"
                      fill="url(#SVGID_22_)"/>
                <path d="m262.87 207.559 7.978 16.166c1.278 2.59 3.75 4.386 6.608 4.801l17.84 2.592c7.199 1.046 10.073 9.893 4.864 14.97l-12.909 12.583c-2.069 2.016-3.013 4.921-2.524 7.768l3.047 17.768c1.23 7.17-6.296 12.637-12.734 9.252l-15.956-8.389c-2.557-1.344-5.611-1.344-8.168 0l-15.956 8.389c-6.439 3.385-13.964-2.082-12.734-9.252l3.047-17.768c.488-2.847-.456-5.752-2.524-7.768l-12.909-12.583c-5.209-5.077-2.335-13.924 4.864-14.97l17.84-2.592c2.859-.415 5.33-2.211 6.608-4.801l7.978-16.166c3.219-6.523 12.521-6.523 15.74 0z"
                      fill="url(#SVGID_23_)"/>
            </g>
            <path d="m335.448 257.333h-160.896l12.753 12.432c4.342 4.232 6.323 10.33 5.298 16.306l-6.396 37.294c-2.581 15.049 13.214 26.525 26.729 19.42l33.492-17.608c5.367-2.821 11.778-2.821 17.145 0l33.492 17.608c13.515 7.105 29.31-4.371 26.729-19.42l-6.396-37.294c-1.025-5.976.956-12.073 5.298-16.306z"
                  fill="url(#SVGID_24_)"/>
        </g>
    </g>
</svg>