

<svg id="Capa_1" enable-background="new 0 0 510 510" height="512" viewBox="0 0 510 510" width="512" xmlns="http://www.w3.org/2000/svg" xmlns:xlink="http://www.w3.org/1999/xlink"><linearGradient id="lg1"><stop offset="0" stop-color="#8a7889"/><stop offset="1" stop-color="#6e566e"/></linearGradient><linearGradient id="SVGID_1_" gradientUnits="userSpaceOnUse" x1="17.73" x2="453.164" xlink:href="#lg1" y1="47.71" y2="428.125"/><linearGradient id="SVGID_2_" gradientUnits="userSpaceOnUse" x1="413.338" x2="-161.039" xlink:href="#lg1" y1="365.507" y2="-35.361"/><linearGradient id="SVGID_3_" gradientUnits="userSpaceOnUse" x1="195.355" x2="38.027" y1="199.558" y2="53.317"><stop offset="0" stop-color="#8a7889" stop-opacity="0"/><stop offset="1" stop-color="#9d8b91"/></linearGradient><linearGradient id="SVGID_4_" gradientUnits="userSpaceOnUse" x1="71.889" x2="407.931" y1="95.026" y2="388.607"><stop offset="0" stop-color="#f8f6fb"/><stop offset="1" stop-color="#efdcfb"/></linearGradient><linearGradient id="SVGID_5_" gradientUnits="userSpaceOnUse" x1="322.203" x2="128" y1="312.195" y2="157.575"><stop offset="0" stop-color="#fff" stop-opacity="0"/><stop offset="1" stop-color="#fff"/></linearGradient><linearGradient id="SVGID_6_" gradientUnits="userSpaceOnUse" x1="255" x2="255" xlink:href="#lg1" y1="49.919" y2="15.196"/><linearGradient id="SVGID_7_" gradientUnits="userSpaceOnUse" x1="182.738" x2="182.738" xlink:href="#lg1" y1="50.104" y2="14.955"/><linearGradient id="SVGID_8_" gradientTransform="matrix(-1 0 0 -1 2638 -2240.253)" gradientUnits="userSpaceOnUse" x1="2365.202" x2="2396.135" xlink:href="#lg1" y1="-2755.894" y2="-2686.778"/><linearGradient id="SVGID_9_" gradientUnits="userSpaceOnUse" x1="242.867" x2="261.642" xlink:href="#lg1" y1="435.276" y2="498.097"/><linearGradient id="SVGID_10_" gradientUnits="userSpaceOnUse" x1="266.715" x2="252.048" y1="263.851" y2="62.518"><stop offset="0" stop-color="#6e566e" stop-opacity="0"/><stop offset=".8228" stop-color="#59465a" stop-opacity=".866"/><stop offset="1" stop-color="#564357"/></linearGradient><linearGradient id="lg2"><stop offset="0" stop-color="#ff7044"/><stop offset="1" stop-color="#f82814"/></linearGradient><linearGradient id="SVGID_11_" gradientUnits="userSpaceOnUse" x1="87.693" x2="146.144" xlink:href="#lg2" y1="109.909" y2="168.36"/><linearGradient id="lg3"><stop offset="0" stop-color="#ffd945"/><stop offset=".3043" stop-color="#ffcd3e"/><stop offset=".8558" stop-color="#ffad2b"/><stop offset="1" stop-color="#ffa325"/></linearGradient><linearGradient id="SVGID_12_" gradientUnits="userSpaceOnUse" x1="158.104" x2="204.639" xlink:href="#lg3" y1="104.321" y2="150.855"/><linearGradient id="SVGID_13_" gradientUnits="userSpaceOnUse" x1="240.438" x2="289.817" xlink:href="#lg2" y1="110.654" y2="160.033"/><linearGradient id="SVGID_14_" gradientUnits="userSpaceOnUse" x1="314.202" x2="364.032" xlink:href="#lg3" y1="108.419" y2="158.248"/><linearGradient id="SVGID_15_" gradientUnits="userSpaceOnUse" x1="380.889" x2="444.292" xlink:href="#lg2" y1="99.105" y2="162.508"/><linearGradient id="SVGID_16_" gradientUnits="userSpaceOnUse" x1="97.472" x2="159.367" xlink:href="#lg2" y1="25.619" y2="87.514"/><linearGradient id="SVGID_17_" gradientUnits="userSpaceOnUse" x1="170.375" x2="216.571" xlink:href="#lg3" y1="28.874" y2="92.953"/><linearGradient id="SVGID_18_" gradientUnits="userSpaceOnUse" x1="218.082" x2="296.337" xlink:href="#lg2" y1="18.264" y2="96.519"/><linearGradient id="SVGID_19_" gradientUnits="userSpaceOnUse" x1="293.772" x2="348.909" xlink:href="#lg3" y1="22.445" y2="99.19"/><linearGradient id="SVGID_20_" gradientUnits="userSpaceOnUse" x1="352.231" x2="445.002" xlink:href="#lg2" y1="26.43" y2="119.201"/><linearGradient id="SVGID_21_" gradientUnits="userSpaceOnUse" x1="301.664" x2="234.164" y1="421.012" y2="234.012"><stop offset="0" stop-color="#efdcfb" stop-opacity="0"/><stop offset=".2889" stop-color="#c7b6df" stop-opacity=".289"/><stop offset=".5915" stop-color="#a495c7" stop-opacity=".592"/><stop offset=".8395" stop-color="#8e80b7" stop-opacity=".84"/><stop offset="1" stop-color="#8679b2"/></linearGradient><linearGradient id="SVGID_22_" gradientUnits="userSpaceOnUse" x1="235.441" x2="327.762" y1="286.227" y2="378.548"><stop offset="0" stop-color="#91f27f"/><stop offset="1" stop-color="#4ab172"/></linearGradient><g><g><g><g><path d="m112.645 477.043v-444.086c0-18.202 14.755-32.957 32.957-32.957h218.796c18.202 0 32.957 14.755 32.957 32.957v444.085c0 18.202-14.755 32.957-32.957 32.957h-218.796c-18.202.001-32.957-14.754-32.957-32.956z" fill="url(#SVGID_1_)"/><path d="m368.784 444.578h-227.568c-5.574 0-10.092-4.518-10.092-10.092v-358.972c0-5.574 4.518-10.092 10.092-10.092h227.567c5.574 0 10.092 4.518 10.092 10.092v358.973c0 5.573-4.518 10.091-10.091 10.091z" fill="url(#SVGID_2_)"/><path d="m120.605 470.966v-431.932c0-17.492 14.18-31.672 31.672-31.672h205.446c17.492 0 31.672 14.18 31.672 31.672v431.931c0 17.492-14.18 31.672-31.672 31.672h-205.446c-17.492.001-31.672-14.18-31.672-31.671z" fill="url(#SVGID_3_)"/><path d="m360.242 436.755h-210.485c-4.713 0-8.534-3.821-8.534-8.534v-346.442c0-4.713 3.821-8.534 8.534-8.534h210.485c4.713 0 8.534 3.821 8.534 8.534v346.441c0 4.714-3.82 8.535-8.534 8.535z" fill="url(#SVGID_4_)"/><path d="m167.117 94.445c-4.713 0-8.534 3.821-8.534 8.534v333.776h201.66c4.713 0 8.534-3.821 8.534-8.534v-333.776z" fill="url(#SVGID_5_)"/><path d="m216.319 25.1h77.362c5.383 0 9.747 4.364 9.747 9.747 0 5.383-4.364 9.747-9.747 9.747h-77.362c-5.383 0-9.747-4.364-9.747-9.747 0-5.383 4.364-9.747 9.747-9.747z" fill="url(#SVGID_6_)"/><path d="m192.604 34.847c0 5.449-4.417 9.866-9.866 9.866s-9.867-4.417-9.867-9.866 4.417-9.867 9.867-9.867c5.449.001 9.866 4.418 9.866 9.867z" fill="url(#SVGID_7_)"/><path d="m241.867 449.832h26.265c14.205 0 25.721 11.516 25.721 25.721v.641c0 14.205-11.516 25.721-25.721 25.721h-26.265c-14.205 0-25.721-11.516-25.721-25.721v-.641c.001-14.206 11.516-25.721 25.721-25.721z" fill="url(#SVGID_8_)"/><path d="m266.945 498.436h-23.89c-12.461 0-22.563-10.102-22.563-22.563 0-12.461 10.102-22.563 22.563-22.563h23.89c12.461 0 22.563 10.102 22.563 22.563 0 12.462-10.102 22.563-22.563 22.563z" fill="url(#SVGID_9_)"/></g></g></g><path d="m397.355 32.957c0-18.202-14.755-32.957-32.957-32.957h-218.796c-18.202 0-32.957 14.755-32.957 32.957v141.389l284.711 284.711v-426.1z" fill="url(#SVGID_10_)"/><g><g><path d="m103 174.346c-20.987 0-38-17.013-38-38v-38l37.761-4 38.239 4v38c0 20.987-17.013 38-38 38z" fill="url(#SVGID_11_)"/><path d="m179 174.346c-20.987 0-38-17.013-38-38v-38l39.292-3 36.708 3v38c0 20.987-17.013 38-38 38z" fill="url(#SVGID_12_)"/><path d="m255 174.346c-20.987 0-38-17.013-38-38v-38l38.149-4 37.851 4v38c0 20.987-17.013 38-38 38z" fill="url(#SVGID_13_)"/><path d="m331 174.346c-20.987 0-38-17.013-38-38v-38l39.298-3 36.702 3v38c0 20.987-17.013 38-38 38z" fill="url(#SVGID_14_)"/><path d="m407 174.346c-20.987 0-38-17.013-38-38v-38l38.155-3 37.845 3v38c0 20.987-17.013 38-38 38z" fill="url(#SVGID_15_)"/></g><g><path d="m177.052 0h-36.8c-9.42 0-18.16 4.903-23.071 12.941l-52.181 85.405h76z" fill="url(#SVGID_16_)"/><path d="m229.017 0h-51.965l-36.052 98.346h76z" fill="url(#SVGID_17_)"/><path d="m280.983 0h-51.966l-12.017 98.346h76z" fill="url(#SVGID_18_)"/><path d="m332.948 0h-51.965l12.017 98.346h76z" fill="url(#SVGID_19_)"/><path d="m369.749 0h-36.8l36.051 98.346h76l-52.18-85.405c-4.911-8.038-13.652-12.941-23.071-12.941z" fill="url(#SVGID_20_)"/></g></g><path d="m368.776 428.221v-149.057l-16.65-16.65c-2.979-4.523-8.097-7.513-13.918-7.513h-166.416c-9.202 0-16.662 7.46-16.662 16.662v68.248c0 5.822 2.99 10.939 7.514 13.918l82.926 82.927h114.673c4.713-.001 8.533-3.822 8.533-8.535z" fill="url(#SVGID_21_)"/><g><path d="m338.208 356.572h-166.416c-9.202 0-16.662-7.46-16.662-16.662v-68.248c0-9.202 7.46-16.662 16.662-16.662h166.416c9.202 0 16.662 7.46 16.662 16.662v68.248c0 9.202-7.46 16.662-16.662 16.662z" fill="url(#SVGID_22_)"/><g fill="#fff"><path d="m177.552 276.737c0-2.9 3.081-4.35 6.163-4.35h18.58c9.063 0 18.127 3.263 18.127 16.133 0 7.341-2.9 12.145-7.704 14.23 5.529 2.084 9.335 5.438 9.335 14.502v1.903c0 14.32-7.976 19.487-18.217 19.487h-20.121c-3.807 0-6.163-1.994-6.163-4.26zm14.048 20.575h9.517c3.444 0 5.166-3.172 5.166-6.254 0-3.172-1.722-6.344-5.166-6.344h-9.517zm9.063 29.003c4.532 0 7.251-2.538 7.251-8.339v-1.45c0-6.163-2.719-8.339-7.251-8.339h-9.063v18.127h9.063z"/><path d="m260.665 276.647c0-2.991 3.444-4.26 7.069-4.26 3.444 0 7.07 1.269 7.07 4.26v41.148c0 15.589-10.06 21.39-22.84 21.39-12.87 0-22.84-5.801-22.84-21.39v-41.148c0-2.991 3.444-4.26 7.07-4.26 3.444 0 7.07 1.269 7.07 4.26v41.148c0 6.163 3.263 9.063 8.701 9.063s8.701-2.9 8.701-9.063v-41.148z"/><path d="m299.095 311.541c0-.544-.181-.997-.363-1.269l-18.761-31.088c-.181-.362-.181-.725-.181-.997 0-3.353 5.71-5.801 9.607-5.801 2.266 0 3.082.906 4.079 2.629l12.689 23.293 12.598-23.293c.906-1.722 1.813-2.629 4.079-2.629 3.897 0 9.607 2.447 9.607 5.801 0 .272 0 .634-.181.997l-18.671 31.088c-.181.272-.363.725-.363 1.269v22.749c0 2.9-3.535 4.351-7.069 4.351-3.535 0-7.07-1.451-7.07-4.351z"/></g></g></g></svg>