<!--
  - Copyright (c) 2023. Selldone® Business OS™
  -
  - Author: M.Pajuhaan
  - Web: https://selldone.com
  - ━━━━━━━━━━━━━━━━━━━━━━━━━━━━━━━━━━━━━━━━━━━━━━━━━━━━━━
  -
  - All rights reserved. In the weave of time, where traditions and innovations intermingle, this content was crafted.
  - From the essence of thought, through the corridors of creativity, each word, and sentiment has been molded.
  - Not just to exist, but to inspire. Like an artist's stroke or a sculptor's chisel, every nuance is deliberate.
  - Our journey is not just about reaching a destination, but about creating a masterpiece.
  - Tread carefully, for you're treading on dreams.
  -->

<svg height="512" viewBox="0 0 128 128" width="512" xmlns="http://www.w3.org/2000/svg"><g><path d="m53.913 52.78a19.109 19.109 0 0 1 18.7 15.2 21.1 21.1 0 0 1 15.706 12.92 16.2 16.2 0 0 1 12.768-3.89 35.077 35.077 0 1 0 -60.931-23.7 35.328 35.328 0 0 0 .358 4.974 19.026 19.026 0 0 1 13.399-5.504z" fill="#ebe1dc"/><path d="m47.31 88.33c.12 0 .236.014.355.018a21.073 21.073 0 0 1 40.654-7.443 16.439 16.439 0 0 1 26.451 7.464c.253-.018.505-.039.762-.039a10.719 10.719 0 0 1 0 21.437h-68.222a10.719 10.719 0 0 1 0-21.437z" fill="#0d91bd"/><path d="m11.471 71.569c.233 0 .461.018.69.034a14.91 14.91 0 0 1 23.989-6.769 19.108 19.108 0 0 1 36.463 3.151 21.018 21.018 0 0 0 -24.948 20.363c-.119 0-.235-.018-.355-.018a10.664 10.664 0 0 0 -7.073 2.68h-28.766a9.721 9.721 0 1 1 0-19.441z" fill="#09607d"/><g fill="#c8beb9"><path d="m85.781 34.389a4.453 4.453 0 1 1 -4.453-4.453 4.453 4.453 0 0 1 4.453 4.453z"/><path d="m100.969 53.983a7.172 7.172 0 1 1 -7.169-7.172 7.172 7.172 0 0 1 7.169 7.172z"/></g></g></svg>