<svg id="Layer_3" enable-background="new 0 0 64 64" height="512" viewBox="0 0 64 64" width="512"
     xmlns="http://www.w3.org/2000/svg">
    <g>
        <g>
            <path d="m12 31h4v2h-4z" fill="#4472b2"/>
        </g>
        <g fill="#f5b953">
            <circle cx="20" cy="12" r="4"/>
            <circle cx="44" cy="12" r="4"/>
            <circle cx="20" cy="32" r="4"/>
            <circle cx="26" cy="22" r="4"/>
            <circle cx="38" cy="22" r="4"/>
            <circle cx="26" cy="42" r="4"/>
            <circle cx="38" cy="42" r="4"/>
            <circle cx="44" cy="32" r="4"/>
            <circle cx="20" cy="52" r="4"/>
            <circle cx="8" cy="12" r="4"/>
            <circle cx="8" cy="32" r="4"/>
            <circle cx="8" cy="52" r="4"/>
            <circle cx="56" cy="12" r="4"/>
            <circle cx="56" cy="32" r="4"/>
            <circle cx="56" cy="52" r="4"/>
            <circle cx="44" cy="52" r="4"/>
        </g>
        <g>
            <path d="m40 45.056h2v3.887h-2z" transform="matrix(.858 -.515 .515 .858 -18.339 27.795)"/>
        </g>
        <g>
            <path d="m30 41h4v2h-4z" fill="#4472b2"/>
        </g>
        <g>
            <path d="m21.056 46h3.887v2h-3.887z" transform="matrix(.515 -.857 .857 .515 -29.135 42.532)"/>
        </g>
        <g>
            <path d="m38 63h-12c-.352 0-.677-.184-.857-.485l-4-6.667 1.715-1.029 3.708 6.181h10.867l3.709-6.181 1.715 1.029-4 6.667c-.18.301-.505.485-.857.485z"
                  fill="#4472b2"/>
        </g>
        <g>
            <path d="m39.056 36h3.887v2h-3.887z" fill="#4472b2"
                  transform="matrix(.515 -.857 .857 .515 -11.824 53.112)"/>
        </g>
        <g>
            <path d="m40 45.056h2v3.887h-2z" fill="#4472b2" transform="matrix(.858 -.515 .515 .858 -18.339 27.795)"/>
        </g>
        <g>
            <path d="m48 51h4v2h-4z" fill="#4472b2"/>
        </g>
        <g>
            <path d="m58.857 49.181-1.715-1.029 3.692-6.152-3.691-6.152 1.715-1.029 4 6.667c.19.317.19.712 0 1.029z"
                  fill="#4472b2"/>
        </g>
        <g>
            <path d="m48 31h4v2h-4z"/>
        </g>
        <g>
            <path d="m5.143 49.181-4-6.667c-.19-.317-.19-.712 0-1.029l4-6.667 1.715 1.029-3.692 6.153 3.691 6.152z"
                  fill="#4472b2"/>
        </g>
        <g>
            <path d="m12 51h4v2h-4z" fill="#4472b2"/>
        </g>
        <g>
            <path d="m21.056 46h3.887v2h-3.887z" fill="#4472b2"
                  transform="matrix(.515 -.857 .857 .515 -29.135 42.532)"/>
        </g>
        <g>
            <path d="m22 35.056h2v3.887h-2z" fill="#4472b2" transform="matrix(.858 -.515 .515 .858 -15.76 17.108)"/>
        </g>
        <g>
            <path d="m22 15.056h2v3.887h-2z" transform="matrix(.858 -.515 .515 .858 -5.469 14.257)"/>
        </g>
        <g>
            <path d="m30 21h4v2h-4z" fill="#4472b2"/>
        </g>
        <g>
            <path d="m39.056 16h3.887v2h-3.887z" transform="matrix(.515 -.857 .857 .515 5.324 43.405)"/>
        </g>
        <g>
            <path d="m41.143 9.181-3.709-6.181h-10.868l-3.709 6.181-1.715-1.029 4-6.667c.181-.301.506-.485.858-.485h12c.352 0 .677.184.857.485l4 6.667z"
                  fill="#4472b2"/>
        </g>
        <g>
            <path d="m12 11h4v2h-4z" fill="#4472b2"/>
        </g>
        <g>
            <path d="m5.143 29.181-4-6.667c-.19-.317-.19-.712 0-1.029l4-6.667 1.715 1.029-3.692 6.153 3.691 6.152z"
                  fill="#4472b2"/>
        </g>
        <g>
            <path d="m12 31h4v2h-4z" fill="#4472b2"/>
        </g>
        <g>
            <path d="m21.056 26h3.887v2h-3.887z" fill="#4472b2"
                  transform="matrix(.515 -.857 .857 .515 -11.987 32.825)"/>
        </g>
        <g>
            <path d="m22 15.056h2v3.887h-2z" fill="#4472b2" transform="matrix(.858 -.515 .515 .858 -5.469 14.257)"/>
        </g>
        <g>
            <path d="m40 25.056h2v3.887h-2z" fill="#4472b2" transform="matrix(.858 -.515 .515 .858 -8.049 24.944)"/>
        </g>
        <g>
            <path d="m48 31h4v2h-4z" fill="#4472b2"/>
        </g>
        <g>
            <path d="m58.857 29.181-1.715-1.029 3.692-6.152-3.691-6.152 1.715-1.029 4 6.667c.19.317.19.712 0 1.029z"
                  fill="#4472b2"/>
        </g>
        <g>
            <path d="m48 11h4v2h-4z" fill="#4472b2"/>
        </g>
        <g>
            <path d="m39.056 16h3.887v2h-3.887z" fill="#4472b2" transform="matrix(.515 -.857 .857 .515 5.324 43.405)"/>
        </g>
        <g>
            <path d="m20 17c-2.757 0-5-2.243-5-5s2.243-5 5-5 5 2.243 5 5-2.243 5-5 5zm0-8c-1.654 0-3 1.346-3 3s1.346 3 3 3 3-1.346 3-3-1.346-3-3-3z"
                  fill="#f9d18b"/>
        </g>
        <g>
            <path d="m44 17c-2.757 0-5-2.243-5-5s2.243-5 5-5 5 2.243 5 5-2.243 5-5 5zm0-8c-1.654 0-3 1.346-3 3s1.346 3 3 3 3-1.346 3-3-1.346-3-3-3z"
                  fill="#f9d18b"/>
        </g>
        <g>
            <path d="m20 37c-2.757 0-5-2.243-5-5s2.243-5 5-5 5 2.243 5 5-2.243 5-5 5zm0-8c-1.654 0-3 1.346-3 3s1.346 3 3 3 3-1.346 3-3-1.346-3-3-3z"
                  fill="#f9d18b"/>
        </g>
        <g>
            <path d="m26 27c-2.757 0-5-2.243-5-5s2.243-5 5-5 5 2.243 5 5-2.243 5-5 5zm0-8c-1.654 0-3 1.346-3 3s1.346 3 3 3 3-1.346 3-3-1.346-3-3-3z"
                  fill="#f9d18b"/>
        </g>
        <g>
            <path d="m38 27c-2.757 0-5-2.243-5-5s2.243-5 5-5 5 2.243 5 5-2.243 5-5 5zm0-8c-1.654 0-3 1.346-3 3s1.346 3 3 3 3-1.346 3-3-1.346-3-3-3z"
                  fill="#f9d18b"/>
        </g>
        <g>
            <path d="m26 47c-2.757 0-5-2.243-5-5s2.243-5 5-5 5 2.243 5 5-2.243 5-5 5zm0-8c-1.654 0-3 1.346-3 3s1.346 3 3 3 3-1.346 3-3-1.346-3-3-3z"
                  fill="#f9d18b"/>
        </g>
        <g>
            <path d="m38 47c-2.757 0-5-2.243-5-5s2.243-5 5-5 5 2.243 5 5-2.243 5-5 5zm0-8c-1.654 0-3 1.346-3 3s1.346 3 3 3 3-1.346 3-3-1.346-3-3-3z"
                  fill="#f9d18b"/>
        </g>
        <g>
            <path d="m44 37c-2.757 0-5-2.243-5-5s2.243-5 5-5 5 2.243 5 5-2.243 5-5 5zm0-8c-1.654 0-3 1.346-3 3s1.346 3 3 3 3-1.346 3-3-1.346-3-3-3z"
                  fill="#f9d18b"/>
        </g>
        <g>
            <path d="m20 57c-2.757 0-5-2.243-5-5s2.243-5 5-5 5 2.243 5 5-2.243 5-5 5zm0-8c-1.654 0-3 1.346-3 3s1.346 3 3 3 3-1.346 3-3-1.346-3-3-3z"
                  fill="#f9d18b"/>
        </g>
        <g>
            <path d="m8 17c-2.757 0-5-2.243-5-5s2.243-5 5-5 5 2.243 5 5-2.243 5-5 5zm0-8c-1.654 0-3 1.346-3 3s1.346 3 3 3 3-1.346 3-3-1.346-3-3-3z"
                  fill="#f9d18b"/>
        </g>
        <g>
            <path d="m8 37c-2.757 0-5-2.243-5-5s2.243-5 5-5 5 2.243 5 5-2.243 5-5 5zm0-8c-1.654 0-3 1.346-3 3s1.346 3 3 3 3-1.346 3-3-1.346-3-3-3z"
                  fill="#f9d18b"/>
        </g>
        <g>
            <path d="m8 57c-2.757 0-5-2.243-5-5s2.243-5 5-5 5 2.243 5 5-2.243 5-5 5zm0-8c-1.654 0-3 1.346-3 3s1.346 3 3 3 3-1.346 3-3-1.346-3-3-3z"
                  fill="#f9d18b"/>
        </g>
        <g>
            <path d="m56 17c-2.757 0-5-2.243-5-5s2.243-5 5-5 5 2.243 5 5-2.243 5-5 5zm0-8c-1.654 0-3 1.346-3 3s1.346 3 3 3 3-1.346 3-3-1.346-3-3-3z"
                  fill="#f9d18b"/>
        </g>
        <g>
            <path d="m56 37c-2.757 0-5-2.243-5-5s2.243-5 5-5 5 2.243 5 5-2.243 5-5 5zm0-8c-1.654 0-3 1.346-3 3s1.346 3 3 3 3-1.346 3-3-1.346-3-3-3z"
                  fill="#f9d18b"/>
        </g>
        <g>
            <path d="m56 57c-2.757 0-5-2.243-5-5s2.243-5 5-5 5 2.243 5 5-2.243 5-5 5zm0-8c-1.654 0-3 1.346-3 3s1.346 3 3 3 3-1.346 3-3-1.346-3-3-3z"
                  fill="#f9d18b"/>
        </g>
        <g>
            <path d="m44 57c-2.757 0-5-2.243-5-5s2.243-5 5-5 5 2.243 5 5-2.243 5-5 5zm0-8c-1.654 0-3 1.346-3 3s1.346 3 3 3 3-1.346 3-3-1.346-3-3-3z"
                  fill="#f9d18b"/>
        </g>
    </g>
</svg>