<svg height="511pt" viewBox="0 -38 511.99957 511" width="511pt" xmlns="http://www.w3.org/2000/svg"><path d="m257.503906 127.75c.003906 76.394531-61.769531 138.167969-138.164062 138.167969-49.726563 0-93.320313-26.269531-117.648438-65.691407-5.441406-8.8125 3.15625-19.683593 12.976563-16.394531 12.636719 4.238281 26.164062 6.535157 40.230469 6.550781 70.023437.066407 127.070312-56.929687 127.070312-126.953124 0-14.109376-2.300781-27.679688-6.550781-40.359376-3.289063-9.816406 7.589843-18.410156 16.398437-12.972656 39.417969 24.335938 65.6875 67.925782 65.6875 117.652344zm0 0" fill="#f6cb43"/><path d="m257.503906 127.753906c0 76.300782-61.863281 138.164063-138.164062 138.164063-46.921875 0-88.382813-23.386719-113.339844-59.144531 22.390625 15.628906 49.625 24.792968 78.988281 24.792968 76.300781 0 138.164063-61.863281 138.164063-138.167968 0-29.378907-9.167969-56.613282-24.800782-79 35.765626 24.96875 59.152344 66.421874 59.152344 113.355468zm0 0" fill="#fab03c"/><path d="m440.550781 286.671875c-4.421875-73.027344-65.035156-130.890625-139.175781-130.890625-59.792969 0-110.789062 37.640625-130.609375 90.515625-51.488281.621094-93.042969 42.53125-93.042969 94.171875 0 52.023438 42.175782 94.199219 94.199219 94.199219h266.042969c40.882812 0 74.03125-33.144531 74.03125-74.03125 0-40.019531-31.757813-72.601563-71.445313-73.964844zm0 0" fill="#1e6be7"/><path d="m512 360.636719c0 40.882812-33.152344 74.035156-74.035156 74.035156h-5.738282c5.367188-10.25 8.40625-21.917969 8.40625-34.28125 0-40.019531-31.753906-72.605469-71.445312-73.972656-4.417969-73.023438-65.035156-130.890625-139.179688-130.890625-9.996093 0-19.746093 1.050781-29.136718 3.050781 25.363281-26.375 61.011718-42.792969 100.503906-42.792969 74.140625 0 134.757812 57.855469 139.179688 130.894532 39.6875 1.351562 71.445312 33.9375 71.445312 73.957031zm0 0" fill="#3e4eb7"/><path d="m403.640625 278.273438c-3.492187 0-6.65625-2.382813-7.507813-5.925782-1.289062-5.375-3.058593-10.675781-5.257812-15.753906-1.695312-3.914062.109375-8.464844 4.023438-10.160156 3.921874-1.695313 8.464843.109375 10.160156 4.023437 2.550781 5.894531 4.601562 12.042969 6.101562 18.28125.996094 4.148438-1.558594 8.320313-5.707031 9.316407-.609375.148437-1.214844.21875-1.8125.21875zm0 0" fill="#1e6be7"/><path d="m377.296875 230.183594c-2.03125 0-4.058594-.792969-5.574219-2.375-18.597656-19.375-43.582031-30.046875-70.347656-30.046875-4.265625 0-7.722656-3.457031-7.722656-7.726563 0-4.265625 3.457031-7.722656 7.722656-7.722656 31.015625 0 59.957031 12.355469 81.496094 34.796875 2.953125 3.078125 2.851562 7.96875-.222656 10.925781-1.5 1.433594-3.429688 2.148438-5.351563 2.148438zm0 0" fill="#1e6be7"/><path d="m57.4375 328.863281c3.15625-52.210937 46.492188-93.578125 99.496094-93.578125 42.746094 0 79.207031 26.910156 93.375 64.710938 36.8125.445312 66.519531 30.410156 66.519531 67.324218 0 37.195313-30.152344 67.347657-67.347656 67.347657-15.570313 0-174.199219 0-190.195313 0-29.230468 0-52.925781-23.695313-52.925781-52.925781 0-28.609376 22.703125-51.902344 51.078125-52.878907zm0 0" fill="#38aaff"/><path d="m316.832031 367.328125c0 36.871094-29.652343 66.824219-66.421875 67.324219 11.023438-11.996094 17.746094-27.980469 17.746094-45.542969 0-36.910156-29.703125-66.878906-66.523438-67.328125-14.167968-37.792969-50.621093-64.707031-93.375-64.707031-5.050781 0-10.011718.378906-14.867187 1.105469 17.246094-14.300782 39.386719-22.890626 63.539063-22.890626 42.757812 0 79.207031 26.902344 93.375 64.707032 36.820312.449218 66.527343 30.40625 66.527343 67.332031zm0 0" fill="#2081f6"/><path d="m456.484375 171.3125c-.011719 0-.023437 0-.039063 0-4.265624-.019531-7.707031-3.496094-7.6875-7.765625l.015626-3.023437c.019531-4.253907 3.476562-7.6875 7.726562-7.6875h.039062c4.265626.019531 7.707032 3.496093 7.6875 7.765624l-.015624 3.023438c-.019532 4.253906-3.476563 7.6875-7.726563 7.6875zm0 0" fill="#f6cb43"/><path d="m456.390625 202.117188c-.011719 0-.023437 0-.035156 0-4.269531-.019532-7.710938-3.496094-7.691407-7.761719l.011719-3.027344c.023438-4.253906 3.476563-7.691406 7.726563-7.691406h.039062c4.265625.019531 7.707032 3.496093 7.6875 7.761719l-.011718 3.027343c-.019532 4.257813-3.476563 7.691407-7.726563 7.691407zm0 0" fill="#f6cb43"/><path d="m473.394531 185.257812c-.011719 0-.023437 0-.035156 0l-3.035156-.015624c-4.265625-.019532-7.707031-3.496094-7.6875-7.761719.019531-4.253907 3.472656-7.691407 7.722656-7.691407h.039063l3.03125.015626c4.269531.019531 7.710937 3.492187 7.691406 7.761718-.019532 4.253906-3.472656 7.691406-7.726563 7.691406zm0 0" fill="#f6cb43"/><path d="m442.527344 185.160156c-.011719 0-.023438 0-.035156 0l-3.035157-.011718c-4.265625-.019532-7.707031-3.496094-7.6875-7.761719.019531-4.257813 3.472657-7.691407 7.722657-7.691407h.039062l3.03125.011719c4.265625.023438 7.710938 3.496094 7.691406 7.765625-.019531 4.253906-3.476562 7.6875-7.726562 7.6875zm0 0" fill="#f6cb43"/><path d="m414.960938 117.121094c-.015626 0-.023438 0-.039063 0-4.265625-.019532-7.710937-3.496094-7.6875-7.761719l.011719-3.027344c.019531-4.253906 3.476562-7.6875 7.726562-7.6875h.035156c4.269532.019531 7.710938 3.492188 7.691407 7.761719l-.015625 3.023438c-.019532 4.257812-3.476563 7.691406-7.722656 7.691406zm0 0" fill="#fab03c"/><path d="m414.863281 147.925781c-.011719 0-.023437 0-.035156 0-4.269531-.019531-7.710937-3.496093-7.691406-7.761719l.015625-3.027343c.019531-4.269531 3.457031-7.691407 7.761718-7.691407 4.265626.019532 7.710938 3.496094 7.691407 7.761719l-.015625 3.027344c-.019532 4.253906-3.476563 7.691406-7.726563 7.691406zm0 0" fill="#fab03c"/><path d="m431.867188 131.066406c-.011719 0-.023438 0-.035157 0l-3.035156-.015625c-4.265625-.023437-7.707031-3.496093-7.6875-7.765625.019531-4.253906 3.476563-7.6875 7.726563-7.6875h.035156l3.035156.015625c4.265625.019531 7.707031 3.496094 7.6875 7.761719-.019531 4.253906-3.476562 7.691406-7.726562 7.691406zm0 0" fill="#fab03c"/><path d="m401 130.96875c-.011719 0-.023438 0-.039062 0l-3.03125-.015625c-4.265626-.019531-7.707032-3.496094-7.6875-7.761719.019531-4.253906 3.476562-7.691406 7.722656-7.691406h.039062l3.03125.015625c4.269532.023437 7.710938 3.496094 7.691406 7.765625-.019531 4.253906-3.476562 7.6875-7.726562 7.6875zm0 0" fill="#fab03c"/><g fill="#f6cb43"><path d="m279.988281 18.980469c-.015625 0-.023437 0-.039062 0-4.265625-.023438-7.707031-3.496094-7.6875-7.765625l.011719-3.023438c.019531-4.253906 3.476562-7.691406 7.726562-7.691406h.035156c4.269532.019531 7.710938 3.496094 7.691406 7.761719l-.015624 3.027343c-.019532 4.253907-3.472657 7.691407-7.722657 7.691407zm0 0"/><path d="m279.890625 49.78125c-.011719 0-.023437 0-.035156 0-4.269531-.019531-7.710938-3.492188-7.691407-7.761719l.015626-3.023437c.019531-4.257813 3.476562-7.691406 7.722656-7.691406h.039062c4.265625.019531 7.710938 3.492187 7.6875 7.761718l-.011718 3.023438c-.019532 4.257812-3.476563 7.691406-7.726563 7.691406zm0 0"/><path d="m296.898438 32.921875c-.015626 0-.027344 0-.039063 0l-3.03125-.015625c-4.269531-.019531-7.710937-3.496094-7.691406-7.761719.019531-4.269531 3.476562-7.675781 7.765625-7.691406l3.03125.015625c4.265625.023438 7.707031 3.496094 7.6875 7.765625-.019532 4.253906-3.472656 7.6875-7.722656 7.6875zm0 0"/><path d="m266.03125 32.828125c-.015625 0-.027344 0-.039062 0l-3.03125-.015625c-4.269532-.019531-7.710938-3.492188-7.691407-7.761719.019531-4.253906 3.476563-7.691406 7.726563-7.691406h.035156l3.035156.015625c4.265625.019531 7.707032 3.496094 7.6875 7.761719-.019531 4.253906-3.472656 7.691406-7.722656 7.691406zm0 0"/><path d="m47.113281 125.105469c-.011719 0-.023437 0-.035156 0-4.269531-.019531-7.710937-3.492188-7.691406-7.761719l.015625-3.023438c.019531-4.257812 3.472656-7.691406 7.722656-7.691406h.039062c4.265626.019532 7.707032 3.492188 7.6875 7.761719l-.011718 3.023437c-.019532 4.257813-3.476563 7.691407-7.726563 7.691407zm0 0"/><path d="m47.015625 155.910156c-.011719 0-.023437 0-.035156 0-4.269531-.019531-7.710938-3.496094-7.691407-7.765625l.015626-3.023437c.023437-4.253906 3.476562-7.6875 7.726562-7.6875h.039062c4.265626.019531 7.707032 3.496094 7.6875 7.761718l-.015624 3.027344c-.019532 4.253906-3.476563 7.6875-7.726563 7.6875zm0 0"/><path d="m64.023438 139.050781c-.011719 0-.027344 0-.039063 0l-3.03125-.015625c-4.265625-.019531-7.710937-3.496094-7.691406-7.761718.023437-4.253907 3.476562-7.691407 7.726562-7.691407h.039063l3.03125.015625c4.265625.019532 7.707031 3.492188 7.6875 7.761719-.019532 4.253906-3.472656 7.691406-7.722656 7.691406zm0 0"/><path d="m33.15625 138.953125c-.011719 0-.023438 0-.039062 0l-3.03125-.011719c-4.265626-.019531-7.710938-3.496094-7.691407-7.761718.019531-4.257813 3.476563-7.691407 7.726563-7.691407h.035156l3.035156.011719c4.265625.023438 7.710938 3.496094 7.6875 7.765625-.019531 4.253906-3.472656 7.6875-7.722656 7.6875zm0 0"/></g></svg>