<?xml version="1.0" encoding="UTF-8"?>


<!DOCTYPE svg PUBLIC "-//W3C//DTD SVG 1.0//EN" "http://www.w3.org/TR/2001/REC-SVG-20010904/DTD/svg10.dtd">

<svg xmlns="http://www.w3.org/2000/svg" xml:space="preserve" width="1790px" height="1790px" version="1.0" shape-rendering="geometricPrecision" text-rendering="geometricPrecision" image-rendering="optimizeQuality" fill-rule="evenodd" clip-rule="evenodd"
viewBox="0 0 117 117"
 xmlns:xlink="http://www.w3.org/1999/xlink">
 <g id="Layer_x0020_1">
  <metadata id="CorelCorpID_0Corel-Layer"/>
  <path fill="#fff" fill-rule="nonzero" d="M58 0c17,0 31,7 42,17 10,11 17,25 17,41 0,17 -7,31 -17,42 -11,10 -25,17 -42,17 -16,0 -30,-7 -41,-17 -10,-11 -17,-25 -17,-42 0,-16 7,-30 17,-41 11,-10 25,-17 41,-17zm34 25c-9,-9 -20,-14 -34,-14 -13,0 -25,5 -33,14 -9,8 -14,20 -14,33 0,14 5,25 14,34 8,9 20,14 33,14 14,0 25,-5 34,-14 9,-9 14,-20 14,-34 0,-13 -5,-25 -14,-33z"/>
  <path fill="#fff" fill-rule="nonzero" d="M32 77l14 -35c2,-4 5,-7 10,-9 4,-1 9,-1 13,1 5,1 8,5 10,9 2,4 2,9 0,13l-14 35 -9 -4 14 -34c1,-2 1,-4 0,-6 -1,-2 -2,-4 -4,-5 -3,-1 -5,-1 -7,0 -2,1 -3,3 -4,5l-14 33 -9 -3z"/>
  <polygon fill="#fff" fill-rule="nonzero" points="71,25 66,35 63,34 67,24 "/>
  <polygon fill="#fff" fill-rule="nonzero" points="77,28 73,38 69,37 73,27 "/>
 </g>
</svg>
