<svg xmlns="http://www.w3.org/2000/svg" xml:space="preserve" width="1790" height="1790" fill-rule="evenodd" clip-rule="evenodd" image-rendering="optimizeQuality" shape-rendering="geometricPrecision" text-rendering="geometricPrecision" version="1.0" viewBox="0 0 117 117"><g fill="#3C7EBF" fill-rule="nonzero"><path d="M58 0c17 0 31 7 42 17 10 11 17 25 17 41 0 17-7 31-17 42-11 10-25 17-42 17-16 0-30-7-41-17C7 89 0 75 0 58c0-16 7-30 17-41C28 7 42 0 58 0m34 25c-9-9-20-14-34-14-13 0-25 5-33 14-9 8-14 20-14 33 0 14 5 25 14 34 8 9 20 14 33 14 14 0 25-5 34-14s14-20 14-34c0-13-5-25-14-33"/><path d="m32 77 14-35c2-4 5-7 10-9 4-1 9-1 13 1 5 1 8 5 10 9s2 9 0 13L65 91l-9-4 14-34q1.5-3 0-6c-1-2-2-4-4-5-3-1-5-1-7 0s-3 3-4 5L41 80z"/><path d="m71 25-5 10-3-1 4-10zM77 28l-4 10-4-1 4-10z"/></g></svg>