<?xml version="1.0" encoding="UTF-8"?>
<!DOCTYPE svg PUBLIC "-//W3C//DTD SVG 1.1//EN" "http://www.w3.org/Graphics/SVG/1.1/DTD/svg11.dtd">
<!-- Creator: CorelDRAW 2018 (64-Bit Evaluation Version) -->
<svg xmlns="http://www.w3.org/2000/svg" xml:space="preserve" width="4.96345in" height="4.96345in" version="1.1" style="shape-rendering:geometricPrecision; text-rendering:geometricPrecision; image-rendering:optimizeQuality; fill-rule:evenodd; clip-rule:evenodd"
viewBox="0 0 2608.35 2608.35"
 xmlns:xlink="http://www.w3.org/1999/xlink">
 <defs>
  <style type="text/css">
   <![CDATA[
    .fil5 {fill:none}
    .fil4 {fill:url(#id0)}
    .fil3 {fill:url(#id1)}
    .fil2 {fill:url(#id2)}
    .fil0 {fill:url(#id3)}
    .fil1 {fill:url(#id4)}
   ]]>
  </style>
  <linearGradient id="id0" gradientUnits="userSpaceOnUse" x1="2067.85" y1="1540.64" x2="2067.85" y2="1932.2">
   <stop offset="0" style="stop-opacity:1; stop-color:#E1EAEA"/>
   <stop offset="1" style="stop-opacity:1; stop-color:#C1C9C9"/>
  </linearGradient>
  <linearGradient id="id1" gradientUnits="userSpaceOnUse" x1="747.95" y1="1928.38" x2="1077.62" y2="1928.38">
   <stop offset="0" style="stop-opacity:1; stop-color:#FEFEFE"/>
   <stop offset="0.54902" style="stop-opacity:1; stop-color:#DFE6E6"/>
   <stop offset="1" style="stop-opacity:1; stop-color:#BFCECE"/>
  </linearGradient>
  <linearGradient id="id2" gradientUnits="userSpaceOnUse" x1="828.54" y1="1304.18" x2="1779.81" y2="1304.18">
   <stop offset="0" style="stop-opacity:1; stop-color:#FEFEFE"/>
   <stop offset="0.729412" style="stop-opacity:1; stop-color:#DCE4E4"/>
   <stop offset="1" style="stop-opacity:1; stop-color:#B9C9C9"/>
  </linearGradient>
  <linearGradient id="id3" gradientUnits="userSpaceOnUse" x1="505.98" y1="987.98" x2="1989.96" y2="1438.23">
   <stop offset="0" style="stop-opacity:1; stop-color:#FC7B16"/>
   <stop offset="0.458824" style="stop-opacity:1; stop-color:#F74D72"/>
   <stop offset="1" style="stop-opacity:1; stop-color:#AF60AF"/>
  </linearGradient>
  <linearGradient id="id4" gradientUnits="userSpaceOnUse" x1="1071.57" y1="2158.2" x2="375.42" y2="1899.97">
   <stop offset="0" style="stop-opacity:1; stop-color:#12B1CE"/>
   <stop offset="1" style="stop-opacity:1; stop-color:#1EDC84"/>
  </linearGradient>
 </defs>
 <g id="Layer_x0020_1">
  <metadata id="CorelCorpID_0Corel-Layer"/>
  <path class="fil0" d="M470.54 921.87c33.16,137.6 123.89,261.07 208.16,345.23 45.38,45.31 83.53,83.82 129.38,127.51 125.96,120.02 258.89,305.04 347.42,458.72 30.42,52.81 69.54,156.99 78.94,208.63 10.17,55.81 20.71,166.47 -9.98,188.38 17.27,-10.49 122.8,-146.49 137.91,-165.3l537.63 -660.68c185.82,-268.54 -312.86,-832.13 -505.81,-995.5 -37.22,-31.51 -86.28,-72.52 -131.35,-91.97 -91.7,-39.56 -153.69,-60.79 -264,-58.08 -212.11,5.2 -434.14,150.14 -502.83,326.99 -39.98,102.94 -57.28,181.82 -25.47,316.06z"/>
  <path class="fil1" d="M1083.35 2313.97c61.38,-115.73 -12.01,-294.51 -82.4,-423.29 -41.95,-76.74 -122.03,-187.57 -180,-255.23 -20.35,-23.75 -38.21,-55.45 -65.17,-69.12 -64.63,17.71 -122.48,62.98 -170.13,100.6 -86.91,68.62 -154.67,180.33 -176.5,291.78 -34.33,189.17 47.88,368.8 234.94,433.79 125.08,43.46 356.9,64.82 434.01,-69.4l5.25 -9.14z"/>
  <path class="fil2" d="M1776.9 1575.96c32.76,-123.85 -220.73,-508.06 -305.44,-604.9 -68.76,-78.6 -210.27,-264.08 -297.33,-302.31 -40.7,-17.87 -63.88,-21.89 -108,-22.07 -79.6,1.95 -190.36,59.9 -220.01,136.23 -40.34,115.97 -8.31,182.89 66.27,274.74 89.95,110.79 195.16,185.33 283.73,308.03 87.22,120.83 176.73,301.8 232.71,440.68 20.06,49.77 37.21,101.03 33.84,155.3 65.03,-76.82 128.07,-157.16 191.65,-235.39 46.5,-57.15 78.91,-95.68 122.59,-150.32z"/>
  <path class="fil3" d="M1077.62 2060.75c-1.94,-15.58 -13.83,-34.16 -17.23,-46.5 -16.82,-60.95 -49.16,-109.1 -64.84,-133.25 -11.79,-23.04 -39.39,-64.82 -58.9,-93.11 -7.53,-10.92 -12.65,-19.58 -17.57,-25.23 -31.24,17.27 -115.27,96.69 -135.81,124.74 -42.4,57.9 -56.67,147.62 14.68,188.55 49.22,28.23 178.08,19.55 228.95,0.92 11.69,-4.28 39.62,-10.96 50.73,-16.11z"/>
  <ellipse class="fil4" cx="2067.85" cy="1736.42" rx="210.28" ry="195.78"/>
  <rect class="fil5" y="0" width="2608.35" height="2608.35"/>
 </g>
</svg>
