<svg id="color" enable-background="new 0 0 24 24" height="512" viewBox="0 0 24 24" width="512" xmlns="http://www.w3.org/2000/svg"><g><g><path d="m4.75 24c-.097 0-.194-.019-.287-.057-.28-.117-.463-.39-.463-.693v-4.25h-1.25c-1.517 0-2.75-1.233-2.75-2.75v-13.5c0-1.517 1.233-2.75 2.75-2.75h18.5c1.517 0 2.75 1.233 2.75 2.75v13.5c0 1.517-1.233 2.75-2.75 2.75h-11.189l-4.78 4.78c-.144.144-.336.22-.531.22z" fill="#2196f3"/></g></g><g><g><path d="m14.041 13.171v.72c0 .61-.5 1.11-1.12 1.11h-1.84c-.54 0-1.12-.4-1.12-1.29v-.54z" fill="#607d8b"/></g></g><g><g><path d="m16.5 7.471c0 1.35-.6 2.61-1.65 3.46-.42.34-.69.78-.78 1.24-.02.109-.03.23-.03.34v.66h-4.08v-.76l-.02-.24c-.07-.45-.32-.87-.73-1.19-1.11-.87-1.74-2.18-1.71-3.6.05-2.38 2.04-4.351 4.43-4.38 1.21-.03 2.37.439 3.24 1.3.861.84 1.33 1.97 1.33 3.17z" fill="#ffc107"/></g></g><g><g><path d="m12 0h-9.25c-1.517 0-2.75 1.233-2.75 2.75v13.5c0 1.517 1.233 2.75 2.75 2.75h1.25v4.25c0 .303.183.576.463.693.093.038.19.057.287.057.195 0 .387-.076.53-.22l4.78-4.78h1.94v-3.999h-.919c-.54 0-1.12-.4-1.12-1.29v-.54h2.039-2.04v-.76l-.02-.24c-.07-.45-.32-.87-.73-1.19-1.11-.87-1.74-2.18-1.71-3.6.05-2.38 2.04-4.351 4.43-4.38.024-.001.047-.001.07-.001z" fill="#1d83d4"/></g></g><g><g><path d="m12 13.171h-2.04v.54c0 .89.58 1.29 1.12 1.29h.92z" fill="#546d79"/></g></g><g><g><path d="m12 3c-.023 0-.046 0-.069.001-2.39.029-4.38 2-4.43 4.38-.03 1.42.6 2.73 1.71 3.6.41.32.66.74.73 1.19l.02.24v.76h2.039z" fill="#dea806"/></g></g></svg>