<!--
  - Copyright (c) 2023. Selldone® Business OS™
  -
  - Author: M.Pajuhaan
  - Web: https://selldone.com
  - ━━━━━━━━━━━━━━━━━━━━━━━━━━━━━━━━━━━━━━━━━━━━━━━━━━━━━━
  -
  - All rights reserved. In the weave of time, where traditions and innovations intermingle, this content was crafted.
  - From the essence of thought, through the corridors of creativity, each word, and sentiment has been molded.
  - Not just to exist, but to inspire. Like an artist's stroke or a sculptor's chisel, every nuance is deliberate.
  - Our journey is not just about reaching a destination, but about creating a masterpiece.
  - Tread carefully, for you're treading on dreams.
  -->

<svg id="Capa_1" enable-background="new 0 0 510 510" height="512" viewBox="0 0 510 510" width="512" xmlns="http://www.w3.org/2000/svg" xmlns:xlink="http://www.w3.org/1999/xlink"><linearGradient id="SVGID_1_" gradientUnits="userSpaceOnUse" x1="154.667" x2="400.018" y1="410" y2="410"><stop offset="0" stop-color="#537983"/><stop offset="1" stop-color="#3e5959"/></linearGradient><linearGradient id="SVGID_2_" gradientUnits="userSpaceOnUse" x1="51.333" x2="370.084" y1="410" y2="410"><stop offset="0" stop-color="#537983"/><stop offset="1" stop-color="#384949"/></linearGradient><linearGradient id="lg1"><stop offset="0" stop-color="#ffe177"/><stop offset=".5725" stop-color="#feb137"/><stop offset="1" stop-color="#fe646f"/></linearGradient><linearGradient id="SVGID_3_" gradientUnits="userSpaceOnUse" x1="47.048" x2="449.041" xlink:href="#lg1" y1="216.581" y2="216.581"/><linearGradient id="SVGID_4_" gradientUnits="userSpaceOnUse" x1="-174.362" x2="441.339" xlink:href="#lg1" y1="216.579" y2="216.579"/><linearGradient id="lg2"><stop offset="0" stop-color="#fe646f"/><stop offset=".5725" stop-color="#fb2b3a"/><stop offset="1" stop-color="#c41926"/></linearGradient><linearGradient id="SVGID_5_" gradientUnits="userSpaceOnUse" x1="-6" x2="112.121" xlink:href="#lg2" y1="90.386" y2="90.386"/><linearGradient id="SVGID_6_" gradientUnits="userSpaceOnUse" x1="-6" x2="112.121" xlink:href="#lg2" y1="75.293" y2="75.293"/><linearGradient id="SVGID_7_" gradientUnits="userSpaceOnUse" x1="367.333" x2="499.333" xlink:href="#lg2" y1="90.386" y2="90.386"/><linearGradient id="SVGID_8_" gradientUnits="userSpaceOnUse" x1="367.333" x2="499.333" xlink:href="#lg2" y1="75.293" y2="75.293"/><g><g><circle cx="255" cy="410" fill="url(#SVGID_1_)" r="100"/></g><path d="m346.117 451.259c5.852-12.903 9.045-27.27 8.876-42.4-.612-54.9-46.062-99.376-100.963-98.854-54.781.52-99.03 45.09-99.03 99.995 0 14.711 3.178 28.68 8.883 41.259 28.411 4.629 59.995 6.93 91.563 6.906 20.688-.016 28.224 27.382 10.426 37.928-9.411 5.577-19.815 9.654-30.884 11.902 6.466 1.314 13.158 2.005 20.012 2.005 40.517 0 75.406-24.096 91.118-58.74z" fill="url(#SVGID_2_)"/><path d="m420.133 189.028c.985-7.327 1.493-14.805 1.493-22.401 0-92.255-74.079-166.468-166.333-166.627-92.16-.158-166.919 74.503-166.919 166.626 0 7.571.505 15.024 1.483 22.327 5.042 37.645-.466 76.091-17.661 109.957-10.172 20.034-15.802 42.082-15.802 65.233 0 92.025 397.211 92.025 397.211 0 0-23.152-5.63-45.2-15.802-65.234-17.183-33.842-22.726-72.265-17.67-109.881z" fill="url(#SVGID_3_)"/><path d="m437.803 298.909c-17.184-33.843-22.726-72.265-17.67-109.881.985-7.327 1.493-14.805 1.493-22.401 0-92.255-74.079-166.468-166.333-166.627-6.859-.012-13.618.4-20.26 1.194 82.846 9.836 146.573 79.869 146.573 165.432 0 7.597-.508 15.074-1.493 22.401-5.056 37.617.487 76.039 17.67 109.881 10.173 20.034 15.802 42.082 15.802 65.234 0 42.917-86.392 65.816-178.596 68.703 105.504 3.304 218.616-19.595 218.616-68.703.001-23.151-5.629-45.199-15.802-65.233z" fill="url(#SVGID_4_)"/><g><path d="m104.112 37.615-.245-.245c-5.41-5.41-14.351-4.599-18.787 1.635-19.415 27.283-32.547 59.34-37.293 94.064-1.008 7.373 4.769 13.931 12.211 13.931h.361c6.116 0 11.358-4.483 12.183-10.543 4.084-30.007 15.305-58.311 32.825-82.899 3.514-4.933 3.027-11.661-1.255-15.943z" fill="url(#SVGID_5_)"/><path d="m68.683 7.25-.002-.002c-5.359-5.359-14.229-4.759-18.799 1.287-26.782 35.434-44.528 78.082-49.8 124.519-.843 7.427 4.94 13.946 12.415 13.946 6.387 0 11.7-4.823 12.42-11.17 2.469-21.765 8.015-42.93 16.577-63.19 7.411-17.514 16.868-33.896 28.264-48.952 3.783-4.999 3.359-12.005-1.075-16.438z" fill="url(#SVGID_6_)"/></g><g><path d="m424.92 39.004c-4.436-6.233-13.377-7.044-18.787-1.635l-.245.245c-4.282 4.282-4.769 11.01-1.254 15.942 17.519 24.589 28.741 52.892 32.825 82.899.825 6.061 6.067 10.543 12.183 10.543h.361c7.442 0 13.219-6.558 12.211-13.931-4.747-34.723-17.879-66.779-37.294-94.063z" fill="url(#SVGID_7_)"/><path d="m509.918 133.054c-5.272-46.437-23.018-89.085-49.8-124.519-4.57-6.046-13.44-6.646-18.799-1.287l-.002.002c-4.433 4.434-4.858 11.439-1.074 16.438 11.396 15.056 20.853 31.438 28.264 48.952 8.562 20.26 14.108 41.425 16.577 63.19.72 6.347 6.032 11.17 12.42 11.17 7.474 0 13.257-6.519 12.414-13.946z" fill="url(#SVGID_8_)"/></g></g></svg>