<svg height="512" viewBox="0 0 64 64" width="512" xmlns="http://www.w3.org/2000/svg">
    <g id="Bell">
        <path d="m42 52h-20a1 1 0 0 0 -1 1 11 11 0 0 0 22 0 1 1 0 0 0 -1-1z" fill="#376cfb"/>
        <path d="m32 0a9.01 9.01 0 0 0 -9 9 9.3431 9.3431 0 0 0 .2461 2.1162 1 1 0 0 0 1.4346.6611 15.96 15.96 0 0 1 14.6386 0 1.0093 1.0093 0 0 0 .461.1123 1 1 0 0 0 .9736-.7734 9.3431 9.3431 0 0 0 .2461-2.1162 9.01 9.01 0 0 0 -9-9z"
              fill="#376cfb"/>
        <path d="m57.9609 42.9629a15.7344 15.7344 0 0 1 -7.9609-13.668v-2.85a18.7521 18.7521 0 0 0 -5.6084-13.2939 17.6806 17.6806 0 0 0 -12.7353-5.1481 18.0879 18.0879 0 0 0 -17.6563 17.9971v3.2949a15.7344 15.7344 0 0 1 -7.9609 13.668 5.8856 5.8856 0 0 0 2.8515 11.0371h46.2188a5.8856 5.8856 0 0 0 2.8515-11.0371z"
              fill="#4294ff"/>
    </g>
</svg>