<?xml version="1.0" encoding="iso-8859-1"?>


<svg xmlns:xlink="http://www.w3.org/1999/xlink" version="1.1" id="Capa_1" xmlns="http://www.w3.org/2000/svg" x="0px"
     y="0px"
     viewBox="0 0 512 512" style="enable-background:new 0 0 512 512;" xml:space="preserve">
<path style="fill:#5E6377;" d="M225.41,225.014c-2.253,0-4.301,0.411-5.94,1.436l-27.04,16.388
	c-10.597,6.352-5.644,23.557,4.097,23.557c1.433,0,3.278-0.411,5.12-1.639l2.596-1.612c1.459-0.906,3.345,0.143,3.345,1.861v100.329
	c0,6.555,7.988,9.833,15.978,9.833c7.988,0,15.978-3.278,15.978-9.833V235.049C239.545,228.905,231.965,225.014,225.41,225.014z"/>
    <path style="fill:#505668;" d="M228.182,365.333V265.004c0-1.717-1.886-2.766-3.345-1.861c-2.789,1.731-4.697,3.25-7.716,3.25
	c-5.941,0-10.038-6.352-10.038-12.704c0-4.298,1.844-8.397,5.941-10.853l23.265-14.1c-2.814-2.365-7.018-3.723-10.879-3.723
	c-2.253,0-4.301,0.411-5.94,1.436l-27.04,16.388c-10.597,6.352-5.644,23.557,4.097,23.557c1.433,0,3.278-0.411,5.12-1.639
	l2.596-1.612c1.459-0.906,3.345,0.143,3.345,1.861v100.329c0,6.555,7.988,9.833,15.978,9.833c3.7,0,7.39-0.712,10.296-2.119
	C230.495,371.417,228.182,368.852,228.182,365.333z"/>
    <path style="fill:#E4EAF8;" d="M325.254,216.552h-8.203l1.999-16.213h6.204c4.265,0,7.722-3.458,7.722-7.722
	c0-4.265-3.457-7.722-7.722-7.722h-4.3l0.779-6.318c0.522-4.233-2.487-8.087-6.72-8.609c-4.23-0.518-8.087,2.487-8.609,6.72
	l-1.012,8.207h-16.095l0.779-6.317c0.522-4.233-2.487-8.088-6.719-8.61c-4.239-0.518-8.087,2.487-8.61,6.719l-1.012,8.208h-10.107
	c-4.265,0-7.722,3.458-7.722,7.722c0,4.265,3.458,7.722,7.722,7.722h8.203l-1.999,16.213h-6.204c-4.265,0-7.722,3.458-7.722,7.722
	s3.458,7.722,7.722,7.722h4.3l-0.779,6.317c-0.567,4.596,3.014,8.669,7.674,8.669c3.844,0,7.172-2.866,7.655-6.778l1.012-8.208
	h16.095l-0.779,6.318c-0.567,4.596,3.015,8.668,7.674,8.668c3.844,0,7.172-2.866,7.655-6.779l1.012-8.207h10.107
	c4.265,0,7.722-3.458,7.722-7.722S329.519,216.552,325.254,216.552z M285.393,216.552l1.999-16.213h16.095l-1.999,16.213H285.393z"
    />
    <path style="fill:#FFC850;" d="M257.424,23.365l11.037,22.364c0.249,0.505,0.731,0.855,1.288,0.936l24.68,3.586
	c1.403,0.204,1.963,1.928,0.948,2.918l-17.858,17.408c-0.403,0.393-0.587,0.959-0.492,1.514l4.216,24.58
	c0.24,1.397-1.227,2.463-2.482,1.803l-22.074-11.605c-0.498-0.262-1.094-0.262-1.592,0l-22.074,11.605
	c-1.255,0.66-2.722-0.406-2.482-1.803l4.216-24.58c0.095-0.555-0.089-1.121-0.492-1.514l-17.859-17.408
	c-1.015-0.99-0.455-2.714,0.948-2.918l24.68-3.586c0.557-0.081,1.039-0.431,1.288-0.936l11.037-22.364
	C254.984,22.094,256.797,22.094,257.424,23.365z"/>
    <g>
	<path style="fill:#F9B428;" d="M262.624,43.619c0.557-0.081,1.039-0.431,1.288-0.936l1.523-3.086l-8.011-16.232
		c-0.627-1.271-2.44-1.271-3.068,0l-11.037,22.364c-0.186,0.376-0.501,0.666-0.88,0.823L262.624,43.619z"/>
        <path style="fill:#F9B428;" d="M255.347,69.045c0.095-0.555-0.089-1.121-0.492-1.514l-17.859-17.408
		c-0.922-0.898-0.537-2.39,0.59-2.812l-20.235,2.94c-1.403,0.204-1.963,1.928-0.948,2.918l17.859,17.408
		c0.403,0.393,0.587,0.959,0.492,1.514l-4.216,24.58c-0.24,1.397,1.227,2.463,2.482,1.803l18.992-9.985L255.347,69.045z"/>
</g>
    <g>
	<path style="fill:#5EC62E;" d="M155.5,390.293c0.708-0.367,1.578-0.291,2.213,0.192c19.263,14.659,16.65,44.318-4.804,55.423
		c-0.708,0.367-1.578,0.291-2.213-0.192C131.428,431.054,134.047,401.398,155.5,390.293z"/>
        <path style="fill:#5EC62E;" d="M126.675,346.416c0.797-0.028,1.551,0.413,1.918,1.121c11.128,21.501-3.928,47.178-28.076,48.025
		c-0.797,0.028-1.551-0.413-1.918-1.121C87.467,372.942,102.532,347.259,126.675,346.416z"/>
        <path style="fill:#5EC62E;" d="M97.947,290.44c0.797,0.031,1.516,0.526,1.83,1.259c9.518,22.264-7.4,46.755-31.539,45.824
		c-0.797-0.031-1.517-0.526-1.83-1.26C56.909,314.04,73.762,289.503,97.947,290.44z"/>
        <path style="fill:#5EC62E;" d="M114.828,239.06c0.631,0.488,0.929,1.309,0.759,2.088c-2.333,10.655-9.898,19.916-20.907,23.913
		c-11.008,4.001-22.754,1.752-31.38-4.918c-0.631-0.488-0.929-1.309-0.759-2.088c2.333-10.654,9.901-19.918,20.908-23.914
		C94.456,230.142,106.203,232.391,114.828,239.06z"/>
        <path style="fill:#5EC62E;" d="M142.834,189.184c0.5,0.622,0.599,1.489,0.251,2.207c-10.552,21.791-40.133,25.11-55.276,6.284
		c-0.5-0.622-0.599-1.489-0.251-2.207C98.11,173.676,127.694,170.361,142.834,189.184z"/>
        <path style="fill:#5EC62E;" d="M68.516,122.605c0.579-0.549,1.436-0.717,2.18-0.429c22.579,8.746,28.283,37.961,10.75,54.582
		c-0.579,0.549-1.436,0.718-2.18,0.43C56.691,168.442,50.983,139.222,68.516,122.605z"/>
        <path style="fill:#5EC62E;" d="M36.094,181.75c0.52-0.605,1.356-0.859,2.125-0.648c23.346,6.41,31.99,34.892,16.232,53.21
		c-0.52,0.605-1.356,0.86-2.125,0.648c-10.516-2.889-19.371-10.93-22.788-22.134C26.124,201.625,28.984,190.013,36.094,181.75z"/>
        <path style="fill:#5EC62E;" d="M5.429,252.837c0.184-0.776,0.808-1.387,1.588-1.553c23.677-5.052,44.46,16.263,38.893,39.775
		c-0.184,0.776-0.808,1.387-1.589,1.553c-10.664,2.272-22.225-0.793-30.415-9.165C5.722,275.073,2.918,263.446,5.429,252.837z"/>
        <path style="fill:#5EC62E;" d="M0.061,328.505c-0.194-0.774,0.08-1.603,0.696-2.11c18.699-15.375,46.957-6.012,52.831,17.427
		c0.194,0.774-0.08,1.603-0.696,2.11C34.22,361.277,5.942,351.983,0.061,328.505z"/>
        <path style="fill:#5EC62E;" d="M20.817,394.34c-0.464-0.649-0.514-1.521-0.127-2.218c11.757-21.167,41.478-22.817,55.544-3.174
		c0.465,0.649,0.514,1.521,0.127,2.219C64.62,412.294,34.907,414.02,20.817,394.34z"/>
        <path style="fill:#5EC62E;" d="M57.713,452.206c-0.683-0.413-1.073-1.194-0.992-1.988c2.45-24.085,29.102-37.339,49.781-24.838
		c0.683,0.413,1.073,1.194,0.992,1.988C105.049,451.416,78.43,464.728,57.713,452.206z"/>
        <path style="fill:#5EC62E;" d="M99.982,484.796c-0.683-0.413-1.073-1.194-0.992-1.988c2.448-24.086,29.096-37.343,49.78-24.841
		c0.683,0.413,1.073,1.195,0.992,1.989C147.311,484.003,120.697,497.315,99.982,484.796z"/>
</g>
    <g>
	<path style="fill:#50B21D;" d="M165.29,398.618c-2.049-3.109-4.603-5.87-7.576-8.133c-0.634-0.483-1.505-0.558-2.213-0.192
		c-21.502,11.13-24.028,40.794-4.804,55.423c0.635,0.483,1.505,0.558,2.213,0.192c3.959-2.049,7.455-4.893,10.289-8.324
		C155.201,425.451,156.152,409.683,165.29,398.618z"/>
        <path style="fill:#50B21D;" d="M130.313,351.485c-0.488-1.349-1.058-2.669-1.72-3.948c-0.367-0.708-1.12-1.149-1.918-1.121
		c-24.196,0.845-39.184,26.573-28.076,48.025c0.367,0.708,1.121,1.149,1.918,1.121c5.812-0.204,11.496-1.957,16.439-5.071
		C111.666,375.879,117.278,359.695,130.313,351.485z"/>
        <path style="fill:#50B21D;" d="M100.815,294.517c-0.308-0.952-0.645-1.895-1.039-2.818c-0.314-0.733-1.033-1.228-1.83-1.259
		c-24.146-0.936-41.051,23.568-31.54,45.824c0.314,0.734,1.033,1.229,1.831,1.26c5.977,0.23,11.942-1.177,17.209-4.078
		C80.519,318.21,87.202,302.016,100.815,294.517z"/>
        <path style="fill:#50B21D;" d="M83.378,260.143c-0.631-0.488-0.929-1.309-0.759-2.088c2.332-10.654,9.901-19.917,20.908-23.914
		c0.395-0.144,0.793-0.261,1.19-0.389c-6.702-2.157-14.138-2.202-21.268,0.389c-11.007,3.996-18.576,13.26-20.908,23.914
		c-0.17,0.779,0.128,1.6,0.759,2.088c8.316,6.43,19.529,8.734,30.188,5.308C89.844,264.279,86.415,262.492,83.378,260.143z"/>
        <path style="fill:#50B21D;" d="M107.888,197.676c-0.5-0.622-0.599-1.49-0.251-2.208c3.855-7.961,10.845-14.229,19.558-17.02
		c-15.483-4.966-32.424,2.125-39.636,17.02c-0.348,0.718-0.249,1.586,0.251,2.208c8.504,10.573,22.622,14.93,35.718,10.737
		C117.358,206.433,111.914,202.682,107.888,197.676z"/>
        <path style="fill:#50B21D;" d="M82.659,130.174c-3.35-3.507-7.439-6.246-11.963-7.998c-0.744-0.288-1.6-0.119-2.179,0.429
		c-17.57,16.653-11.781,45.854,10.75,54.582c0.744,0.288,1.601,0.119,2.179-0.429c2.344-2.222,4.336-4.78,5.936-7.57
		C77.536,158.878,75.275,143.055,82.659,130.174z"/>
        <path style="fill:#50B21D;" d="M51.673,188.508c-3.842-3.486-8.455-6.034-13.453-7.406c-0.769-0.211-1.604,0.044-2.125,0.648
		c-15.792,18.351-7.063,46.81,16.232,53.21c0.769,0.211,1.605-0.043,2.126-0.648c1.775-2.064,3.286-4.337,4.5-6.76
		C48.096,217.7,45.024,201.776,51.673,188.508z"/>
        <path style="fill:#50B21D;" d="M25.566,252.69c-5.934-2.242-12.389-2.72-18.548-1.406c-0.78,0.166-1.405,0.777-1.588,1.553
		c-5.567,23.521,15.223,44.817,38.893,39.775c0.729-0.155,1.307-0.705,1.532-1.409C28.196,284.533,21.535,265.026,25.566,252.69z"/>
        <path style="fill:#50B21D;" d="M20.139,328.505c-0.194-0.774,0.08-1.603,0.696-2.109c3.221-2.648,6.919-4.657,10.877-5.931
		c-11.043-3.543-22.598-0.94-30.955,5.931c-0.616,0.507-0.889,1.336-0.696,2.109c4.656,18.581,23.974,29.14,41.951,23.357
		C30.845,348.269,22.842,339.294,20.139,328.505z"/>
        <path style="fill:#50B21D;" d="M40.895,394.34c-0.464-0.649-0.514-1.521-0.127-2.218c4.007-7.213,10.657-12.798,18.72-15.382
		c-14.943-4.792-31.156,1.624-38.798,15.382c-0.388,0.697-0.337,1.57,0.127,2.218c8.336,11.643,23.159,16.585,36.821,12.207
		C50.856,404.371,44.988,400.056,40.895,394.34z"/>
        <path style="fill:#50B21D;" d="M77.792,452.206c-0.683-0.413-1.073-1.194-0.992-1.988c1.3-12.778,9.895-23.904,22.681-28.022
		c-19.896-6.379-40.636,7.148-42.759,28.022c-0.08,0.794,0.309,1.576,0.992,1.988c7.98,4.824,17.854,6.161,27.102,3.184
		C82.366,454.604,80.004,453.544,77.792,452.206z"/>
        <path style="fill:#50B21D;" d="M120.061,484.796c-0.683-0.413-1.073-1.194-0.992-1.988c1.103-10.85,7.56-20.917,18.037-26.146
		c1.52-0.758,3.073-1.373,4.642-1.878c-19.895-6.378-40.636,7.144-42.758,28.024c-0.08,0.794,0.31,1.575,0.992,1.988
		c7.978,4.822,17.852,6.159,27.099,3.181C124.633,487.193,122.272,486.133,120.061,484.796z"/>
</g>
    <g>
	<path style="fill:#5EC62E;" d="M182.714,475.54c2.297-3.594,1.246-8.369-2.348-10.666
		C75.984,398.157,25.632,307.253,85.154,199.806c15.123-27.3,31.709-44.315,31.875-44.484c2.988-3.04,2.95-7.928-0.088-10.919
		c-3.039-2.989-7.922-2.955-10.914,0.079c-0.727,0.737-17.984,18.384-34.124,47.373c-21.479,38.579-30.581,79.017-26.321,116.943
		c7.086,63.093,49.636,119.983,126.467,169.09C175.64,480.184,180.416,479.136,182.714,475.54z"/>
        <path style="fill:#5EC62E;" d="M356.498,390.293c-0.708-0.367-1.578-0.291-2.213,0.192c-19.263,14.659-16.65,44.318,4.804,55.423
		c0.708,0.367,1.578,0.291,2.213-0.192C380.57,431.054,377.952,401.398,356.498,390.293z"/>
        <path style="fill:#5EC62E;" d="M385.323,346.416c-0.797-0.028-1.551,0.413-1.918,1.121c-11.128,21.501,3.928,47.178,28.076,48.025
		c0.797,0.028,1.551-0.413,1.918-1.121C424.531,372.942,409.466,347.259,385.323,346.416z"/>
        <path style="fill:#5EC62E;" d="M414.051,290.44c-0.797,0.031-1.516,0.526-1.83,1.259c-9.518,22.264,7.4,46.755,31.539,45.824
		c0.797-0.031,1.517-0.526,1.83-1.26C455.089,314.04,438.236,289.503,414.051,290.44z"/>
        <path style="fill:#5EC62E;" d="M397.17,239.06c-0.631,0.488-0.929,1.309-0.759,2.088c2.333,10.655,9.898,19.916,20.907,23.913
		c11.008,4.001,22.754,1.752,31.38-4.918c0.631-0.488,0.929-1.309,0.759-2.088c-2.333-10.654-9.901-19.918-20.908-23.914
		C417.542,230.142,405.795,232.391,397.17,239.06z"/>
        <path style="fill:#5EC62E;" d="M369.164,189.184c-0.5,0.622-0.599,1.489-0.251,2.207c10.552,21.791,40.133,25.11,55.276,6.284
		c0.5-0.622,0.599-1.489,0.251-2.207C413.888,173.676,384.304,170.361,369.164,189.184z"/>
        <path style="fill:#5EC62E;" d="M443.482,122.605c-0.579-0.549-1.436-0.717-2.18-0.429c-22.579,8.746-28.283,37.961-10.75,54.582
		c0.579,0.549,1.436,0.718,2.18,0.43C455.307,168.442,461.015,139.222,443.482,122.605z"/>
        <path style="fill:#5EC62E;" d="M475.904,181.75c-0.52-0.605-1.356-0.859-2.125-0.648c-23.346,6.41-31.99,34.892-16.232,53.21
		c0.52,0.605,1.356,0.86,2.125,0.648C483.02,228.545,491.661,200.061,475.904,181.75z"/>
        <path style="fill:#5EC62E;" d="M506.569,252.837c-0.184-0.776-0.808-1.387-1.588-1.553c-23.677-5.052-44.46,16.263-38.893,39.775
		c0.184,0.776,0.808,1.387,1.589,1.553C491.317,297.648,512.143,276.388,506.569,252.837z"/>
        <path style="fill:#5EC62E;" d="M511.938,328.505c0.194-0.774-0.08-1.603-0.696-2.11c-18.699-15.375-46.957-6.012-52.831,17.427
		c-0.194,0.774,0.08,1.603,0.696,2.11C477.778,361.277,506.056,351.983,511.938,328.505z"/>
        <path style="fill:#5EC62E;" d="M491.181,394.34c0.464-0.649,0.514-1.521,0.127-2.218c-5.295-9.533-15.203-16.233-26.897-16.901
		c-11.691-0.667-22.297,4.86-28.647,13.728c-0.465,0.649-0.514,1.521-0.127,2.219c5.297,9.531,15.205,16.231,26.898,16.9
		C474.227,408.734,484.833,403.206,491.181,394.34z"/>
        <path style="fill:#5EC62E;" d="M454.285,452.206c0.683-0.413,1.073-1.194,0.992-1.988c-2.45-24.085-29.102-37.339-49.781-24.838
		c-0.683,0.413-1.073,1.194-0.992,1.988c1.103,10.848,7.565,20.915,18.042,26.146C433.027,458.741,444.952,457.847,454.285,452.206z
		"/>
        <path style="fill:#5EC62E;" d="M412.016,484.796c0.683-0.413,1.073-1.194,0.992-1.988c-2.448-24.086-29.096-37.343-49.78-24.841
		c-0.683,0.413-1.073,1.195-0.992,1.989C364.687,484.003,391.301,497.315,412.016,484.796z"/>
</g>
    <g>
	<path style="fill:#50B21D;" d="M367.074,398.964c-2.882-3.588-6.484-6.553-10.576-8.671c-0.708-0.367-1.578-0.291-2.213,0.192
		c-19.263,14.659-16.651,44.318,4.804,55.423c0.708,0.367,1.578,0.291,2.213-0.192c3.084-2.347,5.719-5.227,7.804-8.478
		C360.398,426.395,359.349,411.015,367.074,398.964z"/>
        <path style="fill:#50B21D;" d="M402.189,351.752c-5.04-3.283-10.886-5.127-16.866-5.336c-0.797-0.028-1.551,0.413-1.917,1.121
		c-11.128,21.5,3.926,47.178,28.076,48.025c1.377,0.048,2.134-0.81,3.729-5.337C402.568,381.99,397.112,366.16,402.189,351.752z"/>
        <path style="fill:#50B21D;" d="M431.7,294.752c-5.373-3.067-11.507-4.55-17.649-4.312c-0.797,0.031-1.516,0.526-1.83,1.259
		c-9.518,22.263,7.399,46.755,31.539,45.824c1.549-0.06,1.999-1.314,2.945-4.313C433.551,325.702,426.939,309.848,431.7,294.752z"/>
        <path style="fill:#50B21D;" d="M437.912,265.061c-11.01-3.996-18.575-13.258-20.907-23.913c-0.171-0.779,0.127-1.6,0.758-2.088
		c2.967-2.294,6.308-4.05,9.855-5.223c-10.735-3.547-22.066-1.258-30.449,5.223c-0.631,0.488-0.929,1.309-0.758,2.088
		c2.333,10.655,9.898,19.916,20.907,23.913c7.223,2.625,14.758,2.545,21.527,0.305C438.534,265.264,438.222,265.174,437.912,265.061
		z"/>
        <path style="fill:#50B21D;" d="M389.506,191.391c-0.347-0.718-0.249-1.586,0.251-2.207c3.968-4.933,9.31-8.649,15.367-10.65
		c-13.322-4.385-27.504,0.136-35.96,10.65c-0.5,0.622-0.599,1.489-0.251,2.207c7.286,15.046,24.426,22.051,39.908,16.935
		C400.223,205.498,393.326,199.279,389.506,191.391z"/>
        <path style="fill:#50B21D;" d="M449.62,130.516c-1.63-2.925-3.698-5.598-6.139-7.911c-0.579-0.549-1.436-0.717-2.179-0.429
		c-22.579,8.747-28.282,37.961-10.75,54.582c0.579,0.549,1.436,0.718,2.18,0.429c4.668-1.808,8.867-4.672,12.275-8.342
		C438.045,156.354,439.973,140.905,449.62,130.516z"/>
        <path style="fill:#50B21D;" d="M480.555,188.834c-1.24-2.543-2.797-4.929-4.651-7.084c-0.52-0.605-1.356-0.859-2.125-0.648
		c-23.346,6.41-31.99,34.892-16.232,53.21c0.52,0.605,1.356,0.86,2.125,0.648c5.154-1.416,9.905-4.077,13.816-7.734
		C467.012,213.944,470.268,198.451,480.555,188.834z"/>
        <path style="fill:#50B21D;" d="M506.575,252.868c-0.002-0.01-0.004-0.021-0.006-0.031c-0.184-0.776-0.808-1.387-1.588-1.553
		c-23.677-5.052-44.459,16.263-38.894,39.775c0.184,0.776,0.808,1.387,1.589,1.553c6.315,1.345,12.94,0.804,18.997-1.588
		C482.892,274.973,491.487,258.824,506.575,252.868z"/>
        <path style="fill:#50B21D;" d="M479.701,345.932c-0.616-0.507-0.89-1.336-0.696-2.11c2.652-10.58,10.489-19.613,21.611-23.28
		c0.001,0,0.003-0.001,0.004-0.001c-17.965-5.943-37.511,4.541-42.208,23.281c-0.194,0.774,0.08,1.603,0.696,2.11
		c8.423,6.923,20.098,9.52,31.219,5.853C486.462,350.508,482.853,348.523,479.701,345.932z"/>
        <path style="fill:#50B21D;" d="M456.231,391.166c-0.388-0.697-0.338-1.57,0.127-2.218c4.043-5.646,9.814-9.928,16.489-12.129
		c-2.669-0.88-5.495-1.43-8.435-1.598c-11.691-0.667-22.297,4.86-28.647,13.728c-0.465,0.649-0.515,1.521-0.127,2.218
		c5.296,9.531,15.205,16.231,26.899,16.9c4.248,0.242,8.349-0.342,12.158-1.599C466.746,403.849,460.196,398.302,456.231,391.166z"
        />
        <path style="fill:#50B21D;" d="M425.097,427.368c-0.081-0.794,0.309-1.575,0.992-1.988c2.138-1.292,4.416-2.322,6.778-3.1
		c-9.322-3.092-19.312-1.772-27.371,3.1c-0.683,0.413-1.073,1.194-0.992,1.988c1.103,10.848,7.566,20.915,18.042,26.146
		c8.08,4.03,17.014,4.408,24.961,1.793C434.963,451.148,426.395,440.138,425.097,427.368z"/>
        <path style="fill:#50B21D;" d="M382.829,459.956c-0.081-0.794,0.309-1.576,0.992-1.989c2.138-1.292,4.416-2.322,6.777-3.099
		c-9.323-3.09-19.312-1.772-27.37,3.099c-0.683,0.413-1.073,1.195-0.992,1.989c2.141,21.011,23.075,34.498,43.004,27.938
		C392.683,483.731,384.13,472.714,382.829,459.956z"/>
</g>
    <g>
	<path style="fill:#5EC62E;" d="M335.798,479.105c-2.547,0-5.04-1.259-6.514-3.565c-2.297-3.594-1.246-8.369,2.348-10.666
		c104.382-66.717,154.734-157.622,95.212-265.069c-15.123-27.3-31.709-44.315-31.875-44.484c-2.988-3.04-2.95-7.928,0.088-10.919
		c3.039-2.989,7.922-2.955,10.914,0.079c0.727,0.737,17.984,18.384,34.124,47.373c21.479,38.579,30.581,79.017,26.321,116.943
		c-7.086,63.093-49.636,119.983-126.467,169.09C338.662,478.712,337.221,479.105,335.798,479.105z"/>
        <path style="fill:#5EC62E;" d="M151.999,110.518c0.587,0.156,1.043,0.638,1.165,1.233c4.908,23.966-17.055,44.689-40.687,38.421
		c-0.587-0.156-1.043-0.638-1.165-1.233C106.404,124.973,128.371,104.251,151.999,110.518z"/>
</g>
    <path style="fill:#50B21D;" d="M141.023,118.384c3.525-3.328,7.595-5.708,11.899-7.182c-0.215-0.327-0.535-0.582-0.923-0.685
	c-23.646-6.272-45.592,14.473-40.687,38.421c0.122,0.595,0.578,1.078,1.164,1.233c6.28,1.665,12.962,1.437,19.156-0.684
	C130.8,148.223,127.608,131.056,141.023,118.384z"/>
    <path style="fill:#5EC62E;" d="M359.999,110.518c-0.587,0.156-1.043,0.638-1.165,1.233c-4.908,23.966,17.055,44.689,40.687,38.421
	c0.587-0.156,1.043-0.638,1.165-1.233C405.594,124.973,383.627,104.251,359.999,110.518z"/>
    <path style="fill:#50B21D;" d="M389.06,142.304c-8.596-8.116-11.842-19.762-9.632-30.553c0.029-0.142,0.08-0.277,0.145-0.404
	c-6.31-2.257-13.153-2.532-19.573-0.829c-0.587,0.156-1.043,0.638-1.165,1.233c-4.908,23.966,17.055,44.689,40.687,38.421
	c0.446-0.118,0.814-0.427,1.02-0.829C396.391,147.859,392.47,145.525,389.06,142.304z"/>
    <g>
</g>
    <g>
</g>
    <g>
</g>
    <g>
</g>
    <g>
</g>
    <g>
</g>
    <g>
</g>
    <g>
</g>
    <g>
</g>
    <g>
</g>
    <g>
</g>
    <g>
</g>
    <g>
</g>
    <g>
</g>
    <g>
</g>
</svg>
