<svg id="Layer_1" enable-background="new 0 0 100 100" viewBox="0 0 100 100" xmlns="http://www.w3.org/2000/svg"><path d="m57.3211403 97.5c-.6199684 0-1.2234726-.2204514-1.6987991-.6209641-.5496407-.4598618-.8853073-1.1017761-.947155-1.8095245-.061348-.7037582.1556129-1.3895645.6109886-1.9302216 4.9951439-6.1627579 8.7398796-13.1140594 11.142437-20.6758575l.0543671-.1281815.0004959-.0384064c.3910294-1.0199738 1.3676147-1.6963043 2.4728851-1.6963043.0314178 0 .0628433.0009995.0942612.0019989v.1725693l.8553848.0084763c.6119919.2304306 1.11026.6728363 1.4125061 1.2583923.3237.627449.384552 1.3446732.1700821 2.0195007-2.596077 8.1932373-6.6560364 15.7305908-12.0671501 22.4040833-.032917.0413971-.0588531.0738144-.0802994.1022415-.5067482.592537-1.2414322.9321976-2.0200043.9321976zm-17.6259003-2.8290024c-.8020134 0-1.5531578-.3561172-2.0614014-.9770813-.448391-.5446548-.6558762-1.2299576-.5865479-1.9317245.069828-.7092438.4119797-1.3481598.9641151-1.7995453 10.6042673-9.2860336 16.6772462-22.6714173 16.6877214-36.7456055v-11.3085251c0-2.5910912-2.1077881-4.6988754-4.6988792-4.6988754-2.5955772 0-4.6988754 2.1077843-4.6988754 4.6988754v11.3180008c.0099754 4.8894081-.881321 9.6750679-2.6479492 14.2273102l-.0952644.2638474c-.4039993.9281998-1.3656235 1.5571442-2.4304886 1.5571442-.3596077 0-.7102432-.072319-1.0429192-.2144699-.651886-.2817993-1.1561394-.8010178-1.4179916-1.4623795-.2603569-.6573715-.2488861-1.3760986.0324173-2.0234985 1.5357018-3.9766617 2.3013077-8.1189117 2.2903366-12.3504448v-11.3155099c.0094757-5.5003929 4.4928856-9.9922829 9.9937782-10.0107365 5.5313187 0 10.0172195 4.4908924 10.0172195 10.0107365v11.3075294c0 15.5924263-6.7313499 30.4317207-18.4678154 40.7137871l-.1695824.1431427c-.474823.391037-1.0518951.5980225-1.6678734.5980225zm37.5895195-.8089981c-.4379196 0-.8583832-.1052399-1.2499084-.3122253-1.2828293-.688797-1.7731171-2.3018112-1.0873108-3.5921173 5.9856873-11.2701187 9.1493607-23.9751892 9.1493607-36.7416115v-11.3075295c0-6.020607-1.595047-11.9484444-4.6120911-17.1430931-.3576126-.6149788-.4548721-1.3322048-.273819-2.0200043.1810532-.6877975.6184692-1.2628746 1.2314529-1.6189938.4045029-.2354183.8628693-.3596115 1.3262177-.3596115.944664 0 1.8274841.5087414 2.3033066 1.3277168 3.49086 6.0071392 5.3362961 12.8586903 5.3362961 19.8139858v11.3075294c0 13.628788-3.381134 27.1962242-9.7783127 39.2354393-.4598618.8708496-1.358139 1.4105148-2.344696 1.4105148-.0000001.0000002-.0000001.0000002-.000496.0000002zm-52.9230881-6.1916809c-.9740906 0-1.8678799-.5281982-2.3317318-1.3780975-.3441486-.6234512-.4229546-1.3386841-.2244453-2.0175095.1990089-.6803131.6523857-1.2414246 1.2758446-1.5800858 2.6918411-1.5820847 5.1078644-3.4739075 7.2116604-5.6405487.5057487-.5202103 1.1825752-.8065033 1.9057846-.8065033.6942825 0 1.3501625.267334 1.8464317.7531357.5137291.4992676.8005219 1.1646194.8090019 1.8753586.008976.7072525-.2583618 1.3746033-.7526398 1.8793564-2.4803638 2.5402145-5.2804375 4.7273026-8.3244076 6.5024109l-.0638428.036911-.0578556.0463867c-.4159717.2169571-.8538894.3291855-1.2938003.3291855zm-5.7183551-13.7873993c-1.0972843 0-2.1008034-.6897888-2.4968224-1.7162552-.4364214-1.1312027-.0443916-2.4145279.95364-3.1202774 5.1198349-3.6230392 8.1817608-9.5364113 8.1907387-15.8183708l.0304241-12.6347466c.0508747-1.3955498 1.2179871-2.5152779 2.6559315-2.5152779h.1326714c1.4269695.0508728 2.5751305 1.28582 2.523756 2.7526894l-.0314217 12.3933449c-.0079803 8.0156708-3.9282818 15.5629997-10.4880562 20.1905556-.4344254.3062439-.9431667.468338-1.4708614.468338zm52.8891697-12.5768852c-1.3696136-.1212006-2.4594193-1.4055252-2.3422089-2.8594284.1376648-1.7591476.207489-3.5182953.207489-5.2305603v-11.3075295c0-10.6960411-8.7014771-19.398016-19.3975182-19.398016-5.6330643.010973-10.9578934 2.4399643-14.6318054 6.6640148-.5037537.5725842-1.2349434.9032669-2.0025444.9032669-.6409149 0-1.2603836-.2324257-1.7441864-.6553783-.5376701-.4658489-.8588753-1.1087589-.9082527-1.8140144-.0488796-.7052536.1810513-1.3885651.6483955-1.9232426 4.6869049-5.3836823 11.4766121-8.4765301 18.6294174-8.4860077 13.6237984.0094776 24.7088776 11.0945568 24.7183533 24.709877v11.3070297c0 1.7391968-.0758133 3.5921135-.231926 5.66399-.1102295 1.3641243-1.2693634 2.43647-2.6384735 2.43647.0000001.0000001-.2379073-.0104712-.3067397-.0104712zm-58.2848215-5.4240837c-1.4643784 0-2.6559305-1.1910553-2.6559305-2.6554337v-11.3180008c.0294275-21.6998214 17.6997165-39.3790886 39.3895625-39.4085159 7.0445747 0 13.9579735 1.8828425 20.025959 5.4450307l.0224457.0224447.1057434.0643411c.6030045.3650961 1.0264587.9441643 1.192543 1.6309652.1665878.6897936.0538712 1.4020319-.3177109 2.0060377-.4882889.7980261-1.334198 1.272851-2.2643967 1.272851h-.0005035c-.4872894 0-.9676056-.1361628-1.3880615-.3935261-5.2644806-3.1013288-11.2377014-4.7362843-17.2892342-4.7362843-18.8523635.0204497-34.1430396 15.3156138-34.174961 34.0951606v11.3194962c0 1.4643783-1.1865644 2.6554336-2.6454553 2.6554336z" fill="#ff8818"/></svg>