<?xml version="1.0" encoding="UTF-8"?>
<!--
  - Copyright (c) 2023. Selldone® Business OS™
  -
  - Author: M.Pajuhaan
  - Web: https://selldone.com
  - ━━━━━━━━━━━━━━━━━━━━━━━━━━━━━━━━━━━━━━━━━━━━━━━━━━━━━━
  -
  - All rights reserved. In the weave of time, where traditions and innovations intermingle, this content was crafted.
  - From the essence of thought, through the corridors of creativity, each word, and sentiment has been molded.
  - Not just to exist, but to inspire. Like an artist's stroke or a sculptor's chisel, every nuance is deliberate.
  - Our journey is not just about reaching a destination, but about creating a masterpiece.
  - Tread carefully, for you're treading on dreams.
  -->

<!DOCTYPE svg PUBLIC "-//W3C//DTD SVG 1.1//EN" "http://www.w3.org/Graphics/SVG/1.1/DTD/svg11.dtd">
<!-- Creator: CorelDRAW 2019 (64-Bit) -->
<svg xmlns="http://www.w3.org/2000/svg" xml:space="preserve" width="500px" height="500px" version="1.1" style="shape-rendering:geometricPrecision; text-rendering:geometricPrecision; image-rendering:optimizeQuality; fill-rule:evenodd; clip-rule:evenodd"
viewBox="0 0 248.08 248.08"
 xmlns:xlink="http://www.w3.org/1999/xlink"
 xmlns:xodm="http://www.corel.com/coreldraw/odm/2003">
 <defs>
  <style type="text/css">
   <![CDATA[
    .fil2 {fill:#FEFEFE}
    .fil0 {fill:#27A2DB}
    .fil1 {fill:#2D93BA}
   ]]>
  </style>
 </defs>
 <g id="Layer_x0020_1">
  <metadata id="CorelCorpID_0Corel-Layer"/>
  <polygon class="fil0" points="227.74,144.39 248.08,124.04 227.27,103.23 238.39,75.98 211.75,65.11 211.75,36.33 182.32,36.33 170.91,9.2 144.39,20.35 124.04,0 103.23,20.81 75.98,9.69 65.11,36.33 36.33,36.33 36.33,65.76 9.2,77.17 20.35,103.7 0,124.04 20.81,144.85 9.69,172.1 36.33,182.98 36.33,211.75 65.76,211.75 77.17,238.89 103.7,227.74 124.04,248.08 144.85,227.27 172.1,238.39 182.98,211.75 211.75,211.75 211.75,182.32 238.89,170.91 "/>
  <circle class="fil1" cx="124.04" cy="124.04" r="81.77"/>
  <g id="_3269260738672">
  </g>
  <g id="_3269260737168">
  </g>
  <g id="_3269260739696">
  </g>
  <g id="_3269260740912">
  </g>
  <g id="_3269260739792">
  </g>
  <g id="_3269260740080">
  </g>
  <g id="_3269260742672">
  </g>
  <g id="_3269260742960">
  </g>
  <g id="_3269260743056">
  </g>
  <g id="_3269260744272">
  </g>
  <g id="_3269260746608">
  </g>
  <g id="_3269260755920">
  </g>
  <g id="_3269260756112">
  </g>
  <g id="_3269260718832">
  </g>
  <g id="_3269260721616">
  </g>
  <polygon class="fil2" points="124.04,67.9 140.92,101.93 178.5,107.47 151.36,134.04 157.7,171.49 124.04,153.89 90.38,171.49 96.72,134.04 69.58,107.47 107.16,101.93 "/>
 </g>
</svg>
