<svg xmlns="http://www.w3.org/2000/svg" xml:space="preserve" width="500" height="500" style="shape-rendering:geometricPrecision;text-rendering:geometricPrecision;image-rendering:optimizeQuality;fill-rule:evenodd;clip-rule:evenodd" viewBox="0 0 248.08 248.08"><path d="m227.74 144.39 20.34-20.35-20.81-20.81 11.12-27.25-26.64-10.87V36.33h-29.43L170.91 9.2l-26.52 11.15L124.04 0l-20.81 20.81L75.98 9.69 65.11 36.33H36.33v29.43L9.2 77.17l11.15 26.53L0 124.04l20.81 20.81L9.69 172.1l26.64 10.88v28.77h29.43l11.41 27.14 26.53-11.15 20.34 20.34 20.81-20.81 27.25 11.12 10.88-26.64h28.77v-29.43l27.14-11.41z" style="fill:#27a2db"/><circle cx="124.04" cy="124.04" r="81.77" style="fill:#2d93ba"/><path d="m124.04 67.9 16.88 34.03 37.58 5.54-27.14 26.57 6.34 37.45-33.66-17.6-33.66 17.6 6.34-37.45-27.14-26.57 37.58-5.54z" style="fill:#fefefe"/></svg>