<svg height="512pt" viewBox="-19 0 512 512.00225" width="512pt" xmlns="http://www.w3.org/2000/svg"><path d="m62.980469 210.664062h78.234375v-14.316406l-36.140625-35.910156c-12.769531-12.691406-33.546875-12.691406-46.316407 0-12.769531 12.6875-12.769531 33.339844 0 46.027344zm0 0" fill="#ef5050"/><path d="m267.589844 210.664062 4.222656-4.199218c12.773438-12.6875 12.773438-33.339844 0-46.027344-12.769531-12.691406-33.546875-12.691406-46.316406 0l-36.140625 35.910156v14.316406zm0 0" fill="#ef5050"/><path d="m190.355469 210.664062v-31.828124c0-2.832032-2.316407-5.148438-5.152344-5.148438h-39.835937c-2.832032 0-5.152344 2.316406-5.152344 5.148438v31.828124zm0 0" fill="#c0272d"/><path d="m287.808594 479.882812c-.171875.019532-.335938.027344-.5.027344-.898438 0-1.679688-.320312-2.199219-.910156-.546875-.617188-.777344-1.5-.65625-2.476562l4.886719-38.8125c.398437-3.183594-1.277344-7.214844-3.816406-9.175782l-31.097657-24.035156c-.835937-.644531-1.292969-1.480469-1.292969-2.359375 0-.875.457032-1.714844 1.292969-2.355469l31.097657-24.035156c2.539062-1.964844 4.214843-5.992188 3.816406-9.179688l-4.886719-38.8125c-.121094-.976562.109375-1.855468.65625-2.476562.519531-.585938 1.300781-.910156 2.195313-.910156.164062 0 .332031.011718.503906.03125l21.671875 2.691406v-51.339844h-288.390625v230.847656c0 2.832032 2.320312 5.152344 5.152344 5.152344h278.085937c2.835937 0 5.152344-2.320312 5.152344-5.152344v-29.414062zm0 0" fill="#fcdb67"/><path d="m105.507812 384.402344c0 2.832031-2.316406 5.148437-5.152343 5.148437h-44.921875c-2.835938 0-5.15625-2.316406-5.15625-5.148437v-66.746094c0-2.835938 2.320312-5.152344 5.15625-5.152344h44.921875c2.832031 0 5.152343 2.316406 5.152343 5.152344zm0 0" fill="#fff"/><path d="m100.355469 312.503906h-15.960938v13.722656c0 3.582032-2.917969 6.5-6.5 6.5-3.585937 0-6.5-2.917968-6.5-6.5v-13.722656h-15.960937c-2.835938 0-5.15625 2.316406-5.15625 5.152344v66.746094c0 2.832031 2.320312 5.148437 5.15625 5.148437h44.921875c2.832031 0 5.152343-2.316406 5.152343-5.148437v-66.746094c0-2.835938-2.320312-5.152344-5.152343-5.152344zm0 0" fill="#0291c9"/><path d="m70.394531 275.757812v50.46875c0 4.140626 3.355469 7.5 7.5 7.5 4.140625 0 7.5-3.359374 7.5-7.5v-50.46875zm0 0" fill="#08375e"/><path d="m137.054688 275.664062h56.460937v236.089844h-56.460937zm0 0" fill="#c0272d"/><path d="m5.152344 209.664062c-2.832032 0-5.152344 2.316407-5.152344 5.148438v56.792969c0 2.832031 2.320312 5.152343 5.152344 5.152343h123.847656v-67.097656h-123.847656zm0 0" fill="#ffc502"/><path d="m325.417969 209.664062h-123.84375v67.09375h123.84375c2.832031 0 5.152343-2.316406 5.152343-5.152343v-56.789063c0-2.835937-2.320312-5.152344-5.152343-5.152344zm0 0" fill="#ffc502"/><path d="m128.5 209.664062h73.574219v67.09375h-73.574219zm0 0" fill="#ef5050"/><path d="m359.511719 293.957031c1.746093-2.230469 4.601562-2.230469 6.347656 0l24.179687 30.894531c1.742188 2.230469 5.472657 3.769532 8.285157 3.421876l39.117187-4.863282c2.8125-.347656 4.824219 1.664063 4.46875 4.476563l-4.886718 38.8125c-.351563 2.8125 1.191406 6.527343 3.4375 8.261719l31.097656 24.03125c2.242187 1.734374 2.242187 4.570312 0 6.304687l-31.097656 24.03125c-2.242188 1.730469-3.789063 5.449219-3.4375 8.261719l4.886718 38.808594c.355469 2.8125-1.65625 4.828124-4.46875 4.476562l-39.117187-4.859375c-2.8125-.351563-6.542969 1.1875-8.285157 3.421875l-24.179687 30.890625c-1.746094 2.230469-4.601563 2.230469-6.347656 0l-24.175781-30.890625c-1.746094-2.234375-5.476563-3.773438-8.289063-3.421875l-39.113281 4.859375c-2.816406.347656-4.824219-1.664062-4.472656-4.476562l4.886718-38.808594c.351563-2.8125-1.191406-6.527344-3.433594-8.261719l-31.101562-24.03125c-2.242188-1.734375-2.242188-4.570313 0-6.304687l31.101562-24.03125c2.242188-1.734376 3.785157-5.449219 3.433594-8.261719l-4.886718-38.8125c-.351563-2.8125 1.65625-4.824219 4.472656-4.476563l39.113281 4.863282c2.8125.351562 6.542969-1.1875 8.289063-3.421876zm0 0" fill="#d5e962"/><path d="m412.140625 424.734375c0 10.402344-6.847656 18.832031-15.296875 18.832031-8.441406 0-15.285156-8.429687-15.285156-18.832031 0-10.398437 6.84375-18.824219 15.285156-18.824219 8.449219 0 15.296875 8.425782 15.296875 18.824219zm0 0" fill="#368c0e"/><path d="m396.84375 451.066406c-12.5625 0-22.785156-11.8125-22.785156-26.332031 0-14.515625 10.222656-26.324219 22.785156-26.324219 12.570312 0 22.796875 11.808594 22.796875 26.324219 0 14.519531-10.226563 26.332031-22.796875 26.332031zm0-37.65625c-4.21875 0-7.785156 5.183594-7.785156 11.324219 0 6.144531 3.566406 11.332031 7.785156 11.332031 4.226562 0 7.796875-5.1875 7.796875-11.332031 0-6.136719-3.570313-11.324219-7.796875-11.324219zm0 0" fill="#89c947"/><path d="m343.816406 379.546875c0-10.402344-6.847656-18.832031-15.292968-18.832031-8.445313 0-15.289063 8.429687-15.289063 18.832031s6.84375 18.832031 15.289063 18.832031c8.445312 0 15.292968-8.429687 15.292968-18.832031zm0 0" fill="#368c0e"/><path d="m328.523438 405.878906c-12.566407 0-22.792969-11.8125-22.792969-26.332031s10.226562-26.328125 22.792969-26.328125c12.570312 0 22.792968 11.808594 22.792968 26.328125s-10.222656 26.332031-22.792968 26.332031zm0-37.660156c-4.222657 0-7.792969 5.1875-7.792969 11.328125 0 6.144531 3.570312 11.332031 7.792969 11.332031 4.226562 0 7.792968-5.1875 7.792968-11.332031 0-6.140625-3.566406-11.328125-7.792968-11.328125zm0 0" fill="#89c947"/><path d="m344.527344 449.097656c-1.082032 0-2.179688-.234375-3.21875-.730468-3.738282-1.78125-5.328125-6.257813-3.546875-9.996094l37.589843-78.902344c1.78125-3.738281 6.257813-5.324219 9.996094-3.542969 3.738282 1.777344 5.324219 6.253907 3.542969 9.996094l-37.585937 78.898437c-1.285157 2.699219-3.972657 4.277344-6.777344 4.277344zm0 0" fill="#89c947"/><g fill="#f7931e"><path d="m198.277344 114.234375c-1.4375 0-2.882813-.34375-4.203125-1.039063l-27.054688-14.214843-27.050781 14.214843c-1.320312.695313-2.765625 1.039063-4.207031 1.039063-1.875 0-3.738281-.582031-5.316407-1.726563-2.78125-2.023437-4.175781-5.449218-3.59375-8.839843l5.164063-30.105469-21.882813-21.324219c-2.464843-2.398437-3.351562-5.992187-2.289062-9.265625 1.0625-3.269531 3.894531-5.652344 7.296875-6.148437l30.246094-4.390625 13.527343-27.398438c1.523438-3.082031 4.667969-5.035156 8.105469-5.035156 3.441407 0 6.585938 1.953125 8.109375 5.035156l13.523438 27.398438 30.246094 4.390625c3.40625.496093 6.234374 2.878906 7.296874 6.152343 1.066407 3.269532.179688 6.863282-2.285156 9.261719l-21.886718 21.324219 5.167968 30.105469c.578125 3.390625-.8125 6.816406-3.597656 8.839843-1.574219 1.144532-3.441406 1.726563-5.316406 1.726563zm0 0"/><path d="m71.441406 132.050781c-1.109375 0-2.226562-.265625-3.25-.804687l-20.902344-10.980469-20.902343 10.980469c-1.019531.539062-2.136719.804687-3.25.804687-1.449219 0-2.890625-.449219-4.105469-1.332031-2.152344-1.566406-3.230469-4.210938-2.78125-6.832031l3.992188-23.265625-16.910157-16.472656c-1.90625-1.855469-2.589843-4.632813-1.769531-7.160157.824219-2.527343 3.007812-4.367187 5.640625-4.75l23.371094-3.394531 10.449219-21.167969c1.175781-2.382812 3.605468-3.894531 6.265624-3.894531 2.660157 0 5.089844 1.511719 6.265626 3.894531l10.453124 21.167969 23.367188 3.394531c2.632812.382813 4.816406 2.222657 5.640625 4.75.820313 2.527344.136719 5.304688-1.765625 7.160157l-16.910156 16.472656 3.988281 23.265625c.449219 2.621093-.628906 5.269531-2.777344 6.832031-1.21875.882812-2.660156 1.332031-4.109375 1.332031zm0 0"/><path d="m312.621094 132.050781c-1.113282 0-2.230469-.265625-3.253906-.804687l-20.898438-10.980469-20.902344 10.980469c-1.023437.539062-2.140625.804687-3.25.804687-1.449218 0-2.890625-.449219-4.109375-1.332031-2.148437-1.566406-3.226562-4.210938-2.777343-6.832031l3.992187-23.265625-16.910156-16.472656c-1.90625-1.855469-2.589844-4.632813-1.769531-7.160157.820312-2.527343 3.007812-4.367187 5.640624-4.75l23.371094-3.394531 10.449219-21.167969c1.175781-2.382812 3.605469-3.894531 6.265625-3.894531s5.085938 1.511719 6.265625 3.894531l10.449219 21.167969 23.371094 3.394531c2.632812.382813 4.816406 2.222657 5.636718 4.75.824219 2.527344.140625 5.304688-1.765625 7.160157l-16.910156 16.472656 3.992187 23.265625c.449219 2.621093-.628906 5.269531-2.78125 6.832031-1.21875.882812-2.660156 1.332031-4.105468 1.332031zm0 0"/></g></svg>