<!--
  - Copyright (c) 2023. Selldone® Business OS™
  -
  - Author: M.Pajuhaan
  - Web: https://selldone.com
  - ━━━━━━━━━━━━━━━━━━━━━━━━━━━━━━━━━━━━━━━━━━━━━━━━━━━━━━
  -
  - All rights reserved. In the weave of time, where traditions and innovations intermingle, this content was crafted.
  - From the essence of thought, through the corridors of creativity, each word, and sentiment has been molded.
  - Not just to exist, but to inspire. Like an artist's stroke or a sculptor's chisel, every nuance is deliberate.
  - Our journey is not just about reaching a destination, but about creating a masterpiece.
  - Tread carefully, for you're treading on dreams.
  -->

<svg height="512" viewBox="0 0 64 64" width="512" xmlns="http://www.w3.org/2000/svg" xmlns:xlink="http://www.w3.org/1999/xlink"><linearGradient id="linear-gradient" gradientUnits="userSpaceOnUse" x1="35.87" x2="46.02" y1="22.76" y2="12.61"><stop offset="0" stop-color="#54a5ff"/><stop offset="1" stop-color="#8ad3fe"/></linearGradient><linearGradient id="linear-gradient-2" x1="16.54" x2="32.46" xlink:href="#linear-gradient" y1="31.96" y2="16.04"/><linearGradient id="linear-gradient-3" x1="29" x2="29" xlink:href="#linear-gradient" y1="61" y2="23"/><g id="Wallet"><path d="m56.84 23.42-19.07-19.07a4.64 4.64 0 0 0 -6.54 0l-6.18 6.18a1 1 0 0 0 -.27.93 1 1 0 0 0 .65.72 2.64 2.64 0 0 1 .92.59l11.94 11.94a1 1 0 0 0 .71.29h16a3.57 3.57 0 0 1 .89.1 1 1 0 0 0 .24 0 1 1 0 0 0 .71-1.71z" fill="url(#linear-gradient)"/><path d="m39.71 23.29-11.94-11.94a4.48 4.48 0 0 0 -1.64-1 4.63 4.63 0 0 0 -4.9 1l-11.94 11.94a1 1 0 0 0 -.21 1.09 1 1 0 0 0 .92.62h29a1 1 0 0 0 .92-.62 1 1 0 0 0 -.21-1.09z" fill="url(#linear-gradient-2)"/><path d="m54 23h-43a4 4 0 0 0 -4 4v30a4 4 0 0 0 4 4h43a6 6 0 0 0 6-6v-26a6 6 0 0 0 -6-6z" fill="#4795ea"/><path d="m55 29v26a6 6 0 0 1 -5.89 6h-42.19a4 4 0 0 1 -3.92-4v-30a4 4 0 0 1 3.92-4h42.19a6 6 0 0 1 5.89 6z" fill="url(#linear-gradient-3)"/><path d="m60 36h-8a5 5 0 0 0 -5 5v2a5 5 0 0 0 5 5h8a1 1 0 0 0 1-1v-10a1 1 0 0 0 -1-1z" fill="#4795ea"/><g fill="#d7e9f7"><path d="m31 27h-8a3 3 0 0 0 -3 3v2a3 3 0 0 0 3 3h8a3 3 0 0 0 3-3v-2a3 3 0 0 0 -3-3zm1 5a1 1 0 0 1 -1 1h-8a1 1 0 0 1 -1-1v-2a1 1 0 0 1 1-1h8a1 1 0 0 1 1 1z"/><circle cx="54" cy="42" r="2"/><path d="m10 23h2v38h-2z"/><path d="m14 23h2v38h-2z"/></g></g></svg>