

<svg id="color" enable-background="new 0 0 24 24" height="512" viewBox="0 0 24 24" width="512" xmlns="http://www.w3.org/2000/svg"><path d="m22.249 24c-.37 0-.692-.273-.742-.65l-.67-5c-.056-.411.233-.788.644-.843.414-.061.788.232.843.644l.67 5c.056.411-.233.788-.644.843-.035.004-.068.006-.101.006z" fill="#607d8b"/><path d="m7.75 19h-5c-.414 0-.75-.336-.75-.75s.336-.75.75-.75h5c.414 0 .75.336.75.75s-.336.75-.75.75z" fill="#607d8b"/><path d="m8.5 18.25h-6.5c0 .414.336.75.75.75h5c.414 0 .75-.336.75-.75z" fill="#546d79"/><path d="m1.751 24-.132-.012c-.408-.072-.68-.462-.607-.87l4-22.5c.072-.408.473-.675.869-.607.408.072.68.462.607.87l-4 22.5c-.064.364-.381.619-.737.619z" fill="#607d8b"/><path d="m5.756.001c-.352 0-.68.253-.745.618l-4 22.5c-.072.408.199.797.607.87l.032.003 4.184-23.987c-.026-.003-.052-.004-.078-.004z" fill="#546d79"/><path d="m8.749 24c-.37 0-.692-.273-.742-.65l-.67-5c-.056-.411.233-.788.644-.843.415-.061.788.232.843.644l.67 5c.056.411-.233.788-.644.843z" fill="#607d8b"/><path d="m7.953 17.511c-.396.067-.671.437-.617.839l.67 5c.051.377.373.65.743.65l.101-.007c.004 0 .007-.001.01-.001z" fill="#546d79"/><path d="m21.453 17.511c-.396.067-.671.437-.617.839l.67 5c.05.377.372.65.742.65l.101-.007c.004 0 .007-.001.01-.001z" fill="#546d79"/><path d="m21.58 19h-13.5c-.376 0-.693-.278-.743-.651l-2.33-17.5c-.028-.214.036-.431.179-.593.142-.163.348-.256.564-.256h13.5c.376 0 .693.278.743.651l2.33 17.5c.028.214-.036.431-.179.593-.142.163-.348.256-.564.256z" fill="#2196f3"/><path d="m12.351 0h-6.601c-.216 0-.422.093-.564.256-.143.162-.207.379-.179.593l2.33 17.5c.05.373.367.651.743.651h7.358z" fill="#1d83d4"/></svg>