<svg height="511pt" viewBox="1 0 511.99998 511" width="511pt" xmlns="http://www.w3.org/2000/svg"><path d="m512 44.457031v275.84375c0 24.523438-19.894531 44.417969-44.429688 44.417969h-423.152343c-24.535157 0-44.417969-19.894531-44.417969-44.417969v-275.84375c0-24.269531 19.675781-43.957031 43.949219-43.957031h424.09375c24.269531 0 43.957031 19.6875 43.957031 43.957031zm0 0" fill="#c4e2f2"/><path d="m359.265625 423.988281-103.269531 23.53125-103.277344-23.53125 14.148438-59.265625 84.742187-31.160156 93.507813 31.160156 4.578124 19.183594zm0 0" fill="#2d303b"/><path d="m512 315.066406v5.222656c0 24.535157-19.894531 44.429688-44.429688 44.429688h-423.152343c-24.535157 0-44.417969-19.894531-44.417969-44.429688v-5.222656zm0 0" fill="#3c3f4d"/><path d="m359.265625 423.988281h-157.957031l9.570312-40.082031h138.816406zm0 0" fill="#3c3f4d"/><path d="m420.128906 456.984375v14.074219h-328.261718v-14.074219c0-18.222656 14.773437-32.996094 32.996093-32.996094h262.269531c18.222657 0 32.996094 14.773438 32.996094 32.996094zm0 0" fill="#2d303b"/><path d="m457.257812 364.71875h-231.851562l11.355469-109.335938h209.136719zm0 0" fill="#83b2c6"/><path d="m239.375 132.207031-2.738281 20.894531-8.765625 66.761719c-1.578125 12.023438-11.816406 21.011719-23.949219 21.011719h-104.636719c-12.128906 0-22.371094-8.988281-23.949218-21.011719l-11.503907-87.65625 87.773438-23.511719zm0 0" fill="#1f81a3"/><path d="m236.636719 153.101562-8.765625 66.761719c-1.578125 12.023438-11.816406 21.011719-23.949219 21.011719h-71.199219c-12.132812 0-22.371094-8.988281-23.949218-21.011719l-5.941407-45.246093c-1.496093-11.398438 7.378907-21.515626 18.875-21.515626zm0 0" fill="#2c92bf"/><path d="m251.390625 108.570312v12.789063c0 5.988281-4.855469 10.847656-10.84375 10.847656h-177.882813c-5.988281 0-10.847656-4.859375-10.847656-10.847656v-12.789063c0-5.988281 4.859375-10.847656 10.847656-10.847656h177.882813c5.988281 0 10.84375 4.859375 10.84375 10.847656zm0 0" fill="#1f81a3"/><path d="m251.390625 108.570312v12.789063c0 5.988281-4.855469 10.847656-10.84375 10.847656h-136.089844c-5.984375 0-10.84375-4.859375-10.84375-10.847656v-12.789063c0-5.988281 4.859375-10.847656 10.84375-10.847656h136.089844c5.988281 0 10.84375 4.859375 10.84375 10.847656zm0 0" fill="#2c92bf"/><path d="m151.605469 48.613281c-9.8125 0-17.765625 7.953125-17.765625 17.761719v84.636719c0 9.8125 7.953125 17.765625 17.765625 17.765625 9.808593 0 17.761719-7.953125 17.761719-17.765625v-84.636719c0-9.808594-7.953126-17.761719-17.761719-17.761719zm0 0" fill="#3c3f4d"/><path d="m456.214844 364.71875h-231.855469l5.152344-49.652344h221.550781zm0 0" fill="#2d303b"/><path d="m459.480469 255.378906h-209.132813l-26.644531 256.433594h262.421875zm0 0" fill="#ff491f"/><path d="m336.796875 338.292969h-145.371094l-18.519531 173.519531h182.414062zm0 0" fill="#ffe14d"/><path d="m411.335938 288.292969c-4.332032 0-7.839844-3.507813-7.839844-7.835938v-51.714843c0-26.792969-21.792969-48.585938-48.582032-48.585938-26.792968 0-48.585937 21.796875-48.585937 48.585938v51.714843c0 4.328125-3.507813 7.835938-7.835937 7.835938-4.328126 0-7.835938-3.507813-7.835938-7.835938v-51.714843c0-35.433594 28.824219-64.257813 64.257812-64.257813 35.429688 0 64.257813 28.824219 64.257813 64.257813v51.714843c0 4.328125-3.507813 7.835938-7.835937 7.835938zm0 0" fill="#fff"/><path d="m264.113281 445.164062c-22.902343 0-41.535156-18.632812-41.535156-41.535156v-33.695312c0-4.328125 3.511719-7.835938 7.839844-7.835938s7.835937 3.507813 7.835937 7.835938v33.695312c0 14.257813 11.601563 25.859375 25.859375 25.859375 14.261719 0 25.859375-11.597656 25.859375-25.859375v-33.695312c0-4.328125 3.507813-7.835938 7.835938-7.835938s7.835937 3.507813 7.835937 7.835938v33.695312c0 22.902344-18.628906 41.535156-41.53125 41.535156zm0 0" fill="#3c3f4d"/><path d="m330.078125 87.945312h-33.4375c-4.328125 0-7.835937-3.507812-7.835937-7.835937s3.507812-7.835937 7.835937-7.835937h33.4375c4.328125 0 7.835937 3.507812 7.835937 7.835937s-3.507812 7.835937-7.835937 7.835937zm0 0" fill="#ff491f"/><path d="m473.226562 87.945312h-108.667968c-4.328125 0-7.835938-3.507812-7.835938-7.835937s3.507813-7.835937 7.835938-7.835937h108.667968c4.332032 0 7.839844 3.507812 7.839844 7.835937s-3.511718 7.835937-7.839844 7.835937zm0 0" fill="#3c3f4d"/><path d="m330.078125 124.519531h-33.4375c-4.328125 0-7.835937-3.511719-7.835937-7.839843 0-4.328126 3.507812-7.835938 7.835937-7.835938h33.4375c4.328125 0 7.835937 3.507812 7.835937 7.835938 0 4.328124-3.507812 7.839843-7.835937 7.839843zm0 0" fill="#ff491f"/><path d="m473.226562 124.519531h-108.667968c-4.328125 0-7.835938-3.511719-7.835938-7.839843 0-4.328126 3.507813-7.835938 7.835938-7.835938h108.667968c4.332032 0 7.839844 3.507812 7.839844 7.835938 0 4.328124-3.511718 7.839843-7.839844 7.839843zm0 0" fill="#3c3f4d"/></svg>