<!--
  - Copyright (c) 2023. Selldone® Business OS™
  -
  - Author: M.Pajuhaan
  - Web: https://selldone.com
  - ━━━━━━━━━━━━━━━━━━━━━━━━━━━━━━━━━━━━━━━━━━━━━━━━━━━━━━
  -
  - All rights reserved. In the weave of time, where traditions and innovations intermingle, this content was crafted.
  - From the essence of thought, through the corridors of creativity, each word, and sentiment has been molded.
  - Not just to exist, but to inspire. Like an artist's stroke or a sculptor's chisel, every nuance is deliberate.
  - Our journey is not just about reaching a destination, but about creating a masterpiece.
  - Tread carefully, for you're treading on dreams.
  -->

<svg id="Capa_1" enable-background="new 0 0 510 510" height="512" viewBox="0 0 510 510" width="512" xmlns="http://www.w3.org/2000/svg" xmlns:xlink="http://www.w3.org/1999/xlink"><linearGradient id="lg1"><stop offset="0" stop-color="#ff7044"/><stop offset="1" stop-color="#f92814"/></linearGradient><linearGradient id="SVGID_1_" gradientUnits="userSpaceOnUse" x1="146.378" x2="505.477" xlink:href="#lg1" y1="160.032" y2="519.132"/><linearGradient id="SVGID_2_" gradientUnits="userSpaceOnUse" x1="216.405" x2="90.213" y1="230.165" y2="103.974"><stop offset="0" stop-color="#ff7044" stop-opacity="0"/><stop offset="1" stop-color="#ffa425"/></linearGradient><linearGradient id="SVGID_3_" gradientTransform="matrix(-1 0 0 -1 510 -8002)" gradientUnits="userSpaceOnUse" x1="186.784" x2="412.418" xlink:href="#lg1" y1="-8338.876" y2="-8113.243"/><linearGradient id="lg2"><stop offset="0" stop-color="#f92814" stop-opacity="0"/><stop offset="1" stop-color="#c1272d"/></linearGradient><linearGradient id="SVGID_4_" gradientUnits="userSpaceOnUse" x1="387.925" x2="288.663" xlink:href="#lg2" y1="319.156" y2="258.288"/><linearGradient id="lg3"><stop offset="0" stop-color="#f9f7fc"/><stop offset="1" stop-color="#f0ddfc"/></linearGradient><linearGradient id="SVGID_5_" gradientUnits="userSpaceOnUse" x1="232.565" x2="286.721" xlink:href="#lg3" y1="234.446" y2="317.035"/><linearGradient id="SVGID_6_" gradientUnits="userSpaceOnUse" x1="193.92" x2="289.431" xlink:href="#lg3" y1="69.699" y2="229.82"/><linearGradient id="SVGID_7_" gradientUnits="userSpaceOnUse" x1="280.907" x2="150.282" y1="198.565" y2="128.337"><stop offset="0" stop-color="#e9edf5" stop-opacity="0"/><stop offset="1" stop-color="#fff"/></linearGradient><linearGradient id="SVGID_8_" gradientUnits="userSpaceOnUse" x1="292.128" x2="18.236" y1="202.797" y2="15.989"><stop offset="0" stop-color="#f0ddfc" stop-opacity="0"/><stop offset=".2889" stop-color="#c8b7e0" stop-opacity=".289"/><stop offset=".5915" stop-color="#a595c8" stop-opacity=".592"/><stop offset=".8395" stop-color="#8f81b8" stop-opacity=".84"/><stop offset="1" stop-color="#8779b3"/></linearGradient><linearGradient id="SVGID_9_" gradientUnits="userSpaceOnUse" x1="143.391" x2="142.767" xlink:href="#lg2" y1="199.72" y2="169.442"/><path d="m434.974 268.66c0-99.396-80.577-179.973-179.973-179.973-98.964 0-178.973 79.168-179.965 178.127-.75 74.74 44.069 139.092 108.372 167.003 10.76 4.671 19.964 12.315 26.558 22.016l32.201 47.373c6.157 9.058 19.508 9.058 25.665 0l32.201-47.372c6.574-9.671 15.73-17.324 26.459-21.974 63.827-27.657 108.482-91.209 108.482-165.2z" fill="url(#SVGID_1_)"/><path d="m255 501.032c-1.042 0-3.657-.279-5.416-2.867l-32.2-47.373c-7.573-11.14-18.087-19.855-30.405-25.201-63.247-27.452-103.667-89.74-102.975-158.687.456-45.479 18.42-88.057 50.584-119.889 32.16-31.829 74.928-49.36 120.412-49.36h.001c94.292 0 171.005 76.713 171.005 171.005 0 68.222-40.461 129.837-103.078 156.971-12.248 5.308-22.73 14.008-30.31 25.161l-32.201 47.372c-1.76 2.588-4.374 2.868-5.417 2.868z" fill="url(#SVGID_2_)"/><circle cx="255" cy="268.66" fill="url(#SVGID_3_)" r="113.13"/><path d="m434.972 268.659c0 73.997-44.649 137.543-108.476 165.205-7.978 3.456-15.077 8.568-20.901 14.936l-113.289-113.299c-16.612-15.592-27.419-37.298-28.795-61.542v-70.335c-.019-.028-.047-.056-.066-.084v-89.991c26.801-15.807 58.096-24.862 91.555-24.862 99.392 0 179.972 80.579 179.972 179.972z" fill="url(#SVGID_4_)"/><circle cx="255" cy="268.66" fill="url(#SVGID_5_)" r="91.648"/><path d="m371.932 167.806c-7.033 0-13.391 2.847-17.989 7.445-4.607 4.607-7.454 10.966-7.454 17.989v80.72c-2.734 48.151-42.654 86.348-91.489 86.348s-88.755-38.197-91.489-86.348v-80.72c0-14.046-11.387-25.433-25.443-25.433-15.329 0-25.48-12.539-25.48-25.621 0-6.246 2.322-12.623 7.501-17.801l116.922-116.933c9.936-9.935 26.042-9.935 35.978 0l116.922 116.932c16.022 16.022 4.682 43.422-17.979 43.422z" fill="url(#SVGID_6_)"/><path d="m255 341.579c-38.463 0-70.326-29.907-72.761-68.181v-80.159c0-24.351-19.815-44.162-44.171-44.162-4.919 0-6.752-4.228-6.752-6.892 0-1.711.659-3.202 2.016-4.558l116.923-116.933c1.71-1.71 3.707-1.965 4.745-1.965s3.035.255 4.746 1.966l116.921 116.931c2.759 2.76 2.096 5.768 1.455 7.315-.64 1.545-2.295 4.136-6.191 4.136-11.802 0-22.893 4.592-31.231 12.929-8.345 8.345-12.94 19.436-12.94 31.233v80.159c-2.434 38.274-34.297 68.181-72.76 68.181z" fill="url(#SVGID_7_)"/><path d="m346.489 273.959v-80.72c0-7.023 2.847-13.382 7.454-17.989 4.598-4.598 10.956-7.445 17.989-7.445 22.662 0 34.002-27.4 17.979-43.422l-116.922-116.931c-4.968-4.968-11.479-7.452-17.989-7.452v360.307c48.835 0 88.755-38.197 91.489-86.348z" fill="url(#SVGID_8_)"/><path d="m163.511 193.239v10.385c-.019-.028-.047-.056-.066-.084l-41.081-41.072c4.167 3.296 9.514 5.338 15.704 5.338 14.056 0 25.443 11.386 25.443 25.433z" fill="url(#SVGID_9_)"/></svg>