<svg id="Capa_1" enable-background="new 0 0 512 512" height="512" viewBox="0 0 512 512" width="512" xmlns="http://www.w3.org/2000/svg" xmlns:xlink="http://www.w3.org/1999/xlink"><linearGradient id="SVGID_1_" gradientUnits="userSpaceOnUse" x1="206.919" x2="264.513" y1="314.199" y2="314.199"><stop offset="0" stop-color="#cc8241"/><stop offset="1" stop-color="#dea861"/></linearGradient><linearGradient id="SVGID_2_" gradientUnits="userSpaceOnUse" x1="139.275" x2="354.964" y1="57.996" y2="182.524"><stop offset="0" stop-color="#dea861"/><stop offset="1" stop-color="#ebcba0"/></linearGradient><g><path d="m465.636 377.621v-261.223l-419.272 17.979v261.224c-.001 5.986 2.961 11.971 8.885 15.392l166.091 95.893c11.813 6.82 26.366 6.82 38.179 0l197.232-113.872c5.924-3.421 8.886-9.407 8.885-15.393z" fill="url(#SVGID_1_)"/><path d="m55.25 118.987 197.231-113.872c11.812-6.82 26.366-6.82 38.178 0l166.091 95.893c11.847 6.84 11.847 23.94 0 30.78l-197.231 113.871c-11.812 6.82-26.366 6.82-38.178 0l-166.091-95.892c-11.848-6.84-11.848-23.94 0-30.78z" fill="url(#SVGID_2_)"/><path d="m119.201 82.064 211.836 122.304 56.193-32.443-211.837-122.303z" fill="#dea861"/><path d="m152.786 62.657 211.836 122.304-11.007 6.355-211.836-122.304z" fill="#cc8241"/><g fill="#5d3645"><path d="m451.604 199.238-18.631-27.947-18.631 49.46 9.81-5.664v16.754l17.642-10.185v-16.754z"/><path d="m451.604 220.199-37.262 21.513v9.062l37.262-21.513z"/></g><path d="m331.037 204.368v46.406l56.193-32.443v-46.406z" fill="#cc8241"/></g></svg>