

<svg id="Layer_1" enable-background="new 0 0 64 64" height="512" viewBox="0 0 64 64" width="512" xmlns="http://www.w3.org/2000/svg"><path d="m24.2 11.3-.2.1c-6.7 2.8-11 9.3-11 16.6v1.7c0 5.9 2.6 11.6 7.2 15.4l1.2 1c2.3 1.9 3.6 4.7 3.6 7.7v5.2c0 1.1.9 2 2 2h10c1.1 0 2-.9 2-2v-5.3c0-3 1.3-5.8 3.6-7.7l1.2-1c4.6-3.8 7.2-9.4 7.2-15.4v-1.6c0-7.2-4.3-13.8-11-16.6l-.2-.1c-5-2.1-10.6-2.1-15.6 0z" fill="#0db283"/><g fill="#e8e2a5"><path d="m31 2h2v5h-2z"/><path d="m11 9.2h2v5.7h-2z" transform="matrix(.707 -.707 .707 .707 -4.971 12)"/><path d="m20 3.8h2v4.5h-2z" transform="matrix(.894 -.447 .447 .894 -.466 10.025)"/><path d="m6 17.8h2v6.3h-2z" transform="matrix(.316 -.949 .949 .316 -15.136 21)"/><path d="m2 31h6v2h-6z"/><path d="m6.2 42h5.7v2h-5.7z" transform="matrix(.707 -.707 .707 .707 -27.77 18.958)"/><path d="m49.2 11h5.7v2h-5.7z" transform="matrix(.707 -.707 .707 .707 6.745 40.284)"/><path d="m40.8 5h4.5v2h-4.5z" transform="matrix(.447 -.894 .894 .447 18.403 41.777)"/><path d="m53.8 20h6.3v2h-6.3z" transform="matrix(.949 -.317 .317 .949 -3.716 19.121)"/><path d="m56 31h6v2h-6z"/><path d="m54 40.2h2v5.7h-2z" transform="matrix(.707 -.707 .707 .707 -14.297 51.485)"/></g><path d="m31 41h2v10h-2z" fill="#1a4569"/><path d="m43 22c-2.8-2.8-7.3-2.8-10-.1l-1 1.1-1.1-1.1c-2.7-2.7-7.2-2.7-9.9 0l-.1.1c-2.7 2.7-2.7 7.2 0 9.9l11.1 11.1 11.1-11c2.7-2.8 2.7-7.2-.1-10z" fill="#215987"/><path d="m24.6 51c.2.9.4 1.8.4 2.7v2.3h14v-2.3c0-.9.1-1.8.4-2.7z" fill="#3f3f3f"/><path d="m25 56h14v3c0 1.1-.9 2-2 2h-10c-1.1 0-2-.9-2-2z" fill="#2b2b2b"/><path d="m31.9 36-3.9-7.8-2.4 4.8h-9.6v-2h8.4l3.6-7.2 4.1 8.2 4-6 2.5 5h9.4v2h-10.6l-1.5-3z" fill="#ede064"/></svg>