<svg id="Capa_1" enable-background="new 0 0 512 512" height="512" viewBox="0 0 512 512" width="512" xmlns="http://www.w3.org/2000/svg" xmlns:xlink="http://www.w3.org/1999/xlink"><linearGradient id="lg1"><stop offset="0" stop-color="#5558ff"/><stop offset="1" stop-color="#00c0ff"/></linearGradient><linearGradient id="SVGID_1_" gradientUnits="userSpaceOnUse" x1="256" x2="256" xlink:href="#lg1" y1="512" y2="0"/><linearGradient id="SVGID_2_" gradientUnits="userSpaceOnUse" x1="255.981" x2="255.981" y1="211" y2="61"><stop offset="0" stop-color="#addcff"/><stop offset=".5028" stop-color="#eaf6ff"/><stop offset="1" stop-color="#eaf6ff"/></linearGradient><linearGradient id="SVGID_3_" gradientUnits="userSpaceOnUse" x1="255.981" x2="255.981" xlink:href="#lg1" y1="151" y2="121"/><g><g><g><path d="m255.981 91c8.291 0 15-6.709 15-15v-61c0-8.291-6.709-15-15-15s-15 6.709-15 15v61c0 8.291 6.709 15 15 15zm139.365 293.276-72.598-223.813c-1.831-5.64-6.812-9.683-12.715-10.298-5.962-.381-11.602 2.329-14.561 7.456-8.275 14.429-23.407 23.379-39.491 23.379s-31.216-8.95-39.492-23.379c-2.944-5.127-8.438-7.837-14.561-7.456-5.903.615-10.884 4.658-12.715 10.298l-72.363 223.125c-7.075 18.691-6.387 39.038 1.963 57.29 6.801 14.901 18.035 26.925 32.168 34.681v21.441c0 8.291 6.709 15 15 15s15-6.709 15-15v-28.583l20.002-60.005c14.989 5.713 28.353 9.48 39.998 11.297v16.291c0 8.291 6.709 15 15 15s15-6.709 15-15v-16.291c11.646-1.817 25.01-5.584 39.998-11.297l20.002 60.005v28.583c0 8.291 6.709 15 15 15s15-6.709 15-15v-21.441c14.133-7.756 25.366-19.78 32.168-34.681 8.35-18.252 9.038-38.599 2.197-56.602zm-124.365 4.818v-13.094c0-8.291-6.709-15-15-15s-15 6.709-15 15v13.094c-8.846-1.788-19.116-4.849-30.494-9.196l45.494-136.481 45.494 136.481c-11.378 4.346-21.648 7.407-30.494 9.196z" fill="url(#SVGID_1_)"/></g></g><g><g><path d="m255.981 61c-41.353 0-75 33.647-75 75 0 12.7 3.237 25.269 9.492 36.563 13.594 23.701 38.701 38.437 65.508 38.437s51.914-14.736 65.625-38.643c6.138-11.089 9.375-23.657 9.375-36.357 0-41.353-33.647-75-75-75z" fill="url(#SVGID_2_)"/></g></g><g><g><circle cx="255.981" cy="136" fill="url(#SVGID_3_)" r="15"/></g></g></g></svg>