<svg xmlns:xlink="http://www.w3.org/1999/xlink" id="Capa_1" enable-background="new 0 0 510 510" height="512" viewBox="0 0 510 510"
     width="512" xmlns="http://www.w3.org/2000/svg">
    <linearGradient id="SVGID_1_" gradientUnits="userSpaceOnUse" x1="232.581" x2="326.126" y1="333.125" y2="494.703">
        <stop offset="0" stop-color="#2f73a0"/>
        <stop offset="1" stop-color="#174461"/>
    </linearGradient>
    <linearGradient id="lg1">
        <stop offset="0" stop-color="#092a40" stop-opacity="0"/>
        <stop offset="1" stop-color="#092a40"/>
    </linearGradient>
    <linearGradient id="SVGID_2_" gradientUnits="userSpaceOnUse" x1="166.178" x2="140.447" xlink:href="#lg1"
                    y1="417.133" y2="478.093"/>
    <linearGradient id="SVGID_3_" gradientTransform="matrix(-1 0 0 1 400.993 0)" gradientUnits="userSpaceOnUse"
                    x1="57.17" x2="31.439" xlink:href="#lg1" y1="417.133" y2="478.093"/>
    <linearGradient id="SVGID_4_" gradientUnits="userSpaceOnUse" x1="232.581" x2="326.126" y1="255.225" y2="416.804">
        <stop offset="0" stop-color="#45a2e0"/>
        <stop offset="1" stop-color="#2f73a0"/>
    </linearGradient>
    <linearGradient id="lg2">
        <stop offset="0" stop-color="#2f73a0" stop-opacity="0"/>
        <stop offset="1" stop-color="#2f73a0"/>
    </linearGradient>
    <linearGradient id="SVGID_5_" gradientUnits="userSpaceOnUse" x1="255" x2="255" xlink:href="#lg2" y1="366.482"
                    y2="204.088"/>
    <linearGradient id="lg3">
        <stop offset="0" stop-color="#174461" stop-opacity="0"/>
        <stop offset="1" stop-color="#174461"/>
    </linearGradient>
    <linearGradient id="SVGID_6_" gradientUnits="userSpaceOnUse" x1="166.178" x2="140.447" xlink:href="#lg3"
                    y1="339.234" y2="400.193"/>
    <linearGradient id="SVGID_7_" gradientTransform="matrix(-1 0 0 1 400.993 0)" gradientUnits="userSpaceOnUse"
                    x1="57.17" x2="31.439" xlink:href="#lg3" y1="339.234" y2="400.193"/>
    <linearGradient id="SVGID_8_" gradientUnits="userSpaceOnUse" x1="232.581" x2="326.126" y1="177.326" y2="338.904">
        <stop offset="0" stop-color="#7acbff"/>
        <stop offset="1" stop-color="#45a2e0"/>
    </linearGradient>
    <linearGradient id="SVGID_9_" gradientUnits="userSpaceOnUse" x1="255" x2="255" xlink:href="#lg2" y1="279.31"
                    y2="41.798"/>
    <linearGradient id="SVGID_10_" gradientUnits="userSpaceOnUse" x1="166.178" x2="140.447" xlink:href="#lg2"
                    y1="261.334" y2="322.294"/>
    <linearGradient id="SVGID_11_" gradientTransform="matrix(-1 0 0 1 400.993 0)" gradientUnits="userSpaceOnUse"
                    x1="57.17" x2="31.439" xlink:href="#lg2" y1="261.334" y2="322.294"/>
    <linearGradient id="SVGID_12_" gradientUnits="userSpaceOnUse" x1="232.581" x2="326.126" y1="99.426" y2="261.005">
        <stop offset="0" stop-color="#c7e9ff"/>
        <stop offset="1" stop-color="#7acbff"/>
    </linearGradient>
    <linearGradient id="lg4">
        <stop offset="0" stop-color="#7acbff" stop-opacity="0"/>
        <stop offset="1" stop-color="#2f73a0"/>
    </linearGradient>
    <linearGradient id="SVGID_13_" gradientUnits="userSpaceOnUse" x1="243.477" x2="328.523" xlink:href="#lg4"
                    y1="212.566" y2="-49.185"/>
    <linearGradient id="SVGID_14_" gradientUnits="userSpaceOnUse" x1="166.178" x2="140.447" xlink:href="#lg4"
                    y1="183.435" y2="244.394"/>
    <linearGradient id="SVGID_15_" gradientTransform="matrix(-1 0 0 1 400.993 0)" gradientUnits="userSpaceOnUse"
                    x1="57.17" x2="31.439" xlink:href="#lg4" y1="183.435" y2="244.394"/>
    <g>
        <g>
            <path d="m221.93 260.977-211.082 94.155c-14.464 6.452-14.464 26.983 0 33.435l211.081 94.155c21.047 9.388 45.093 9.388 66.141 0l211.081-94.155c14.464-6.452 14.464-26.983 0-33.435l-211.081-94.155c-21.047-9.389-45.093-9.389-66.14 0z"
                  fill="url(#SVGID_1_)"/>
            <path d="m334.042 462.215-45.967 20.51c-21.049 9.383-45.102 9.383-66.151 0l-211.069-94.16c-14.472-6.449-14.472-26.988 0-33.437l41.502-18.512c-.001.001 280.678 125.174 281.685 125.599z"
                  fill="url(#SVGID_2_)"/>
            <path d="m175.958 462.215 45.967 20.51c21.049 9.383 45.102 9.383 66.151 0l211.069-94.16c14.472-6.449 14.472-26.988 0-33.437l-41.502-18.512c.001.001-280.678 125.174-281.685 125.599z"
                  fill="url(#SVGID_3_)"/>
        </g>
        <g>
            <path d="m221.93 183.077-211.082 94.155c-14.464 6.452-14.464 26.983 0 33.435l211.081 94.155c21.047 9.388 45.093 9.388 66.141 0l211.081-94.155c14.464-6.452 14.464-26.983 0-33.435l-211.081-94.155c-21.047-9.388-45.093-9.388-66.14 0z"
                  fill="url(#SVGID_4_)"/>
            <path d="m221.93 260.977-161.24 71.923 161.24 71.923c21.047 9.388 45.093 9.388 66.141 0l161.239-71.923-161.24-71.923c-21.047-9.389-45.093-9.389-66.14 0z"
                  fill="url(#SVGID_5_)"/>
            <path d="m334.042 384.315-45.967 20.51c-21.049 9.383-45.102 9.383-66.151 0l-211.069-94.16c-14.472-6.449-14.472-26.988 0-33.437l41.502-18.512c-.001.001 280.678 125.174 281.685 125.599z"
                  fill="url(#SVGID_6_)"/>
            <path d="m175.958 384.315 45.967 20.51c21.049 9.383 45.102 9.383 66.151 0l211.069-94.16c14.472-6.449 14.472-26.988 0-33.437l-41.502-18.512c.001.001-280.678 125.174-281.685 125.599z"
                  fill="url(#SVGID_7_)"/>
        </g>
        <g>
            <path d="m221.93 105.178-211.082 94.155c-14.464 6.452-14.464 26.983 0 33.435l211.081 94.155c21.047 9.388 45.093 9.388 66.141 0l211.081-94.155c14.464-6.452 14.464-26.983 0-33.435l-211.081-94.155c-21.047-9.389-45.093-9.389-66.14 0z"
                  fill="url(#SVGID_8_)"/>
            <path d="m221.93 183.077-161.24 71.923 161.24 71.923c21.047 9.388 45.093 9.388 66.141 0l161.239-71.923-161.24-71.923c-21.047-9.388-45.093-9.388-66.14 0z"
                  fill="url(#SVGID_9_)"/>
            <path d="m334.042 306.416-45.967 20.51c-21.049 9.383-45.102 9.383-66.151 0l-211.069-94.16c-14.472-6.449-14.472-26.988 0-33.437l41.502-18.512c-.001.001 280.678 125.174 281.685 125.599z"
                  fill="url(#SVGID_10_)"/>
            <path d="m175.958 306.416 45.967 20.51c21.049 9.383 45.102 9.383 66.151 0l211.069-94.16c14.472-6.449 14.472-26.988 0-33.437l-41.502-18.512c.001.001-280.678 125.174-281.685 125.599z"
                  fill="url(#SVGID_11_)"/>
        </g>
        <g>
            <path d="m221.93 27.278-211.082 94.155c-14.464 6.452-14.464 26.983 0 33.435l211.081 94.155c21.047 9.388 45.093 9.388 66.141 0l211.081-94.155c14.464-6.452 14.464-26.983 0-33.435l-211.08-94.155c-21.048-9.388-45.094-9.388-66.141 0z"
                  fill="url(#SVGID_12_)"/>
            <path d="m221.93 105.178-161.24 71.923 161.24 71.923c21.047 9.388 45.093 9.388 66.141 0l161.24-71.923-161.24-71.923c-21.048-9.389-45.094-9.389-66.141 0z"
                  fill="url(#SVGID_13_)"/>
            <path d="m334.042 228.516-45.967 20.51c-21.049 9.383-45.102 9.383-66.151 0l-211.069-94.16c-14.472-6.449-14.472-26.988 0-33.437l41.502-18.512c-.001.001 280.678 125.174 281.685 125.599z"
                  fill="url(#SVGID_14_)"/>
            <path d="m175.958 228.516 45.967 20.51c21.049 9.383 45.102 9.383 66.151 0l211.069-94.16c14.472-6.449 14.472-26.988 0-33.437l-41.502-18.512c.001.001-280.678 125.174-281.685 125.599z"
                  fill="url(#SVGID_15_)"/>
        </g>
    </g>
</svg>