

<svg id="Layer_1" height="512" viewBox="0 0 512 512" width="512" xmlns="http://www.w3.org/2000/svg" data-name="Layer 1"><path d="m233.23 446.44v19.56a19.994 19.994 0 0 0 20 20h48.69a19.994 19.994 0 0 0 20-20v-19.56z" fill="#b0b5ca"/><path d="m244.01 311.25h67.13v135.19h-67.13z" fill="#6d7486"/><path d="m284.65 282.48h-12v-33.94a37.188 37.188 0 0 0 -37.15-37.14h-154.12a49.2 49.2 0 0 1 -49.15-49.15v-35.46a49.2 49.2 0 0 1 49.15-49.15v12a37.193 37.193 0 0 0 -37.15 37.15v35.46a37.193 37.193 0 0 0 37.15 37.15h154.12a49.2 49.2 0 0 1 49.15 49.14z" fill="#4a5160"/><path d="m284.653 284.478h-12v-35.933a37.192 37.192 0 0 0 -37.153-37.145h-154.124a49.2 49.2 0 0 1 -49.148-49.148v-35.462a49.2 49.2 0 0 1 49.148-49.148v12a37.191 37.191 0 0 0 -37.148 37.148v35.458a37.191 37.191 0 0 0 37.148 37.152h154.124a49.2 49.2 0 0 1 49.149 49.149z" fill="#ccd3df"/><path d="m244.01 311.25h30v135.19h-30z" fill="#4a5160"/><path d="m220.82 282.48 1.56 10.39a21.572 21.572 0 0 0 21.34 18.38h67.71a21.58 21.58 0 0 0 21.34-18.38l1.56-10.39z" fill="#b0b5ca"/><rect fill="#4689d3" height="115.28" rx="20" width="392.39" x="80.38" y="26"/><path d="m110.38 121.28v-75.28a19.994 19.994 0 0 1 20-20h-30a19.994 19.994 0 0 0 -20 20v75.28a19.994 19.994 0 0 0 20 20h30a19.994 19.994 0 0 1 -20-20z" fill="#5fa8ed"/></svg>