<svg xmlns="http://www.w3.org/2000/svg" xml:space="preserve" viewBox="0 0 58 58"><path d="M54.783 50H3.217A3.217 3.217 0 0 1 0 46.783V11.217A3.217 3.217 0 0 1 3.217 8h51.566A3.217 3.217 0 0 1 58 11.217v35.566A3.217 3.217 0 0 1 54.783 50" style="fill:#8798cc"/><path d="M0 13h58v8H0z" style="fill:#556180"/><path d="M15 26H6a1 1 0 1 0 0 2h9a1 1 0 1 0 0-2M29 27a1 1 0 0 0-1-1h-9a1 1 0 1 0 0 2h9a1 1 0 0 0 1-1M7 31H6a1 1 0 1 0 0 2h1a1 1 0 1 0 0-2M13 31h-2a1 1 0 1 0 0 2h2a1 1 0 1 0 0-2M18 31h-1a1 1 0 1 0 0 2h1a1 1 0 1 0 0-2M24 31h-2a1 1 0 1 0 0 2h2a1 1 0 1 0 0-2M27.29 31.29c-.181.19-.29.45-.29.71s.109.52.29.71c.188.18.438.29.71.29.26 0 .519-.11.71-.29.18-.19.29-.45.29-.71s-.11-.52-.29-.71c-.37-.37-1.05-.37-1.42 0" style="fill:#b0d3f0"/><path d="M36 34h16v10H36z" style="fill:#91bae1"/></svg>