

<svg height="512pt" viewBox="0 -9 512.0015 512" width="512pt" xmlns="http://www.w3.org/2000/svg" xmlns:xlink="http://www.w3.org/1999/xlink"><linearGradient id="lg1"><stop offset="0" stop-color="#f9f7fc"/><stop offset="1" stop-color="#f0ddfc"/></linearGradient><linearGradient id="linear0" gradientUnits="userSpaceOnUse" x1="95.0860850534" x2="451.4665487738" xlink:href="#lg1" y1="43.1370732706" y2="399.5176373832"/><linearGradient id="linear1" gradientUnits="userSpaceOnUse" x1="447.8373707438" x2="94.5084283346" xlink:href="#lg1" y1="395.919480543" y2="42.5905381338"/><linearGradient id="linear2" gradientUnits="userSpaceOnUse" x1="195.92031191" x2="419.6800692332" xlink:href="#lg1" y1="143.9941895488" y2="367.753946872"/><linearGradient id="linear3" gradientUnits="userSpaceOnUse" x1="364.1101755516" x2="208.2601195652" y1="337.9087513028" y2="182.0586953164"><stop offset="0" stop-color="#f0ddfc" stop-opacity="0"/><stop offset=".2889" stop-color="#c8b7e0" stop-opacity=".290196"/><stop offset=".5915" stop-color="#a595c8" stop-opacity=".592157"/><stop offset=".8395" stop-color="#8f81b8" stop-opacity=".839216"/><stop offset="1" stop-color="#8779b3"/></linearGradient><linearGradient id="lg2"><stop offset="0" stop-color="#4f4a72"/><stop offset="1" stop-color="#3b395f"/></linearGradient><linearGradient id="linear4" gradientUnits="userSpaceOnUse" x1="192.2597111214" x2="192.2597111214" xlink:href="#lg2" y1="186.2983583146" y2="128.2715663224"/><linearGradient id="lg3"><stop offset="0" stop-color="#af9ce6"/><stop offset="1" stop-color="#0796ff"/></linearGradient><linearGradient id="linear5" gradientUnits="userSpaceOnUse" x1="154.5233874556" x2="168.602088407" xlink:href="#lg3" y1="132.4434645856" y2="146.522165537"/><linearGradient id="linear6" gradientTransform="matrix(-1.003922 0 0 1.003922 2825.035209 -9.19467)" gradientUnits="userSpaceOnUse" x1="2559.2749" x2="2559.2749" xlink:href="#lg2" y1="194.7293" y2="116.907"/><linearGradient id="lg4"><stop offset="0" stop-color="#ffc738"/><stop offset=".2344" stop-color="#fec33a"/><stop offset=".4454" stop-color="#fbb840"/><stop offset=".6474" stop-color="#f6a649"/><stop offset=".8426" stop-color="#f08d56"/><stop offset="1" stop-color="#e97264"/></linearGradient><radialGradient id="radial0" cx="247.8744801164" cy="84.8163005914" gradientUnits="userSpaceOnUse" r="35.3037202676" xlink:href="#lg4"/><linearGradient id="linear7" gradientTransform="matrix(-1.003922 0 0 1.003922 2825.035209 -9.19467)" gradientUnits="userSpaceOnUse" x1="2495.7825" x2="2495.7825" xlink:href="#lg2" y1="194.7293" y2="111.2403"/><linearGradient id="lg5"><stop offset="0" stop-color="#00e7b2"/><stop offset=".4139" stop-color="#1fa999"/><stop offset="1" stop-color="#4f4a72"/></linearGradient><linearGradient id="linear8" gradientUnits="userSpaceOnUse" x1="340.135213093" x2="364.3900690052" xlink:href="#lg5" y1="97.1722713908" y2="121.427127303"/><linearGradient id="linear9" gradientTransform="matrix(-1.003922 0 0 -1.003922 510.261223 326.578344)" gradientUnits="userSpaceOnUse" x1="191.5616" x2="191.5616" xlink:href="#lg2" y1="51.7413" y2="-6.0587"/><linearGradient id="linear10" gradientUnits="userSpaceOnUse" x1="346.5825214112" x2="360.6612223626" xlink:href="#lg3" y1="319.3866385824" y2="333.4653395338"/><linearGradient id="linear11" gradientTransform="matrix(1.003922 0 0 -1.003922 -2314.774071 326.578344)" gradientUnits="userSpaceOnUse" x1="2559.2222" x2="2559.2222" xlink:href="#lg2" y1="51.7413" y2="-26.0809"/><radialGradient id="radial1" cx="246.6348385712" cy="329.4069600478" gradientUnits="userSpaceOnUse" r="35.3037202676" xlink:href="#lg4"/><linearGradient id="linear12" gradientTransform="matrix(1.003922 0 0 -1.003922 -2314.774071 326.578344)" gradientUnits="userSpaceOnUse" x1="2495.7295" x2="2495.7295" xlink:href="#lg2" y1="51.7413" y2="-31.7476"/><linearGradient id="linear13" gradientUnits="userSpaceOnUse" x1="148.0760801374" x2="172.3309360496" xlink:href="#lg5" y1="341.7630312394" y2="366.0178871516"/><linearGradient id="linear14" gradientUnits="userSpaceOnUse" x1="191.2331004842" x2="320.7669475158" xlink:href="#lg4" y1="229.7907691596" y2="229.7907691596"/><linearGradient id="linear15" gradientUnits="userSpaceOnUse" x1="249.8348386058" x2="303.0692081466" y1="217.9345507318" y2="320.3086935442"><stop offset="0" stop-color="#fca17a" stop-opacity="0"/><stop offset=".152" stop-color="#f69373" stop-opacity=".152941"/><stop offset=".416" stop-color="#ef816b" stop-opacity=".415686"/><stop offset=".6926" stop-color="#ea7666" stop-opacity=".694118"/><stop offset="1" stop-color="#e97264"/></linearGradient><linearGradient id="lg6"><stop offset="0" stop-color="#e97264" stop-opacity="0"/><stop offset="1" stop-color="#b53759"/></linearGradient><linearGradient id="linear16" gradientUnits="userSpaceOnUse" x1="254.0073392222" x2="247.719675344" xlink:href="#lg6" y1="250.0022288246" y2="313.7767754434"/><linearGradient id="linear17" gradientUnits="userSpaceOnUse" x1="243.1720090762" x2="223.7351756264" xlink:href="#lg6" y1="253.2525266918" y2="288.8014047118"/><radialGradient id="radial2" cx="236.9867" cy="589.0811" gradientTransform="matrix(1.003922 0 0 .897807 -.000086 -347.864599)" gradientUnits="userSpaceOnUse" r="121.6374" xlink:href="#lg4"/><radialGradient id="radial3" cx="250.5612" cy="-6526.2881" gradientTransform="matrix(-1.003922 0 0 -.897807 511.999914 -5621.682952)" gradientUnits="userSpaceOnUse" r="89.7094" xlink:href="#lg4"/><radialGradient id="radial4" cx="246.173" cy="604.0279" gradientTransform="matrix(1.003922 0 0 .897807 -.000086 -347.864599)" gradientUnits="userSpaceOnUse" r="100.9966" xlink:href="#lg4"/><linearGradient id="linear18" gradientUnits="userSpaceOnUse" x1="292.0660222422" x2="215.9305856062" xlink:href="#lg6" y1="249.5994553182" y2="199.6193993326"/><linearGradient id="linear19" gradientUnits="userSpaceOnUse" x1="270.7816711358" x2="212.7427316874" y1="221.234040777" y2="221.234040777"><stop offset="0" stop-color="#ffc738"/><stop offset="1" stop-color="#e97264"/></linearGradient><path d="m460.007812 87.003906c-49.734374-8.109375-94.976562-29.597656-131.910156-60.648437-41.796875-35.140625-102.398437-35.140625-144.195312 0-36.933594 31.050781-82.175782 52.539062-131.910156 60.648437-26.484376 4.316406-47.015626 25.445313-50.128907 52.097656-9.777343 83.722657 19.285157 167.320313 78.886719 226.925782l93.878906 93.878906c44.941406 44.9375 117.804688 44.9375 162.742188 0l93.878906-93.878906c59.605469-59.605469 88.664062-143.203125 78.886719-226.925782-3.113281-26.652343-23.644531-47.78125-50.128907-52.097656zm0 0" fill="url(#linear0)"/><path d="m256 462.570312c-22.449219 0-43.550781-8.738281-59.425781-24.613281l-93.878907-93.878906c-25.953124-25.953125-46.039062-57.992187-58.089843-92.660156s-16.171875-72.261719-11.914063-108.714844c1.476563-12.667969 11.46875-22.976563 24.292969-25.066406 54.03125-8.808594 104.824219-32.15625 146.890625-67.523438 14.632812-12.300781 33.144531-19.074219 52.125-19.074219s37.492188 6.773438 52.125 19.074219c42.066406 35.367188 92.859375 58.714844 146.890625 67.523438 12.824219 2.089843 22.8125 12.398437 24.292969 25.0625 4.257812 36.457031.136718 74.050781-11.914063 108.71875-12.050781 34.664062-32.136719 66.707031-58.089843 92.660156l-93.878907 93.878906c-15.875 15.875-36.976562 24.613281-59.425781 24.613281zm0 0" fill="url(#linear1)"/><path d="m256 452.226562c-19.683594 0-38.191406-7.664062-52.109375-21.585937l-93.878906-93.875c-24.855469-24.855469-44.09375-55.542969-55.632813-88.746094-11.542968-33.199219-15.488281-69.203125-11.414062-104.117187.949218-8.101563 7.398437-14.703125 15.683594-16.054688 55.871093-9.109375 108.390624-33.25 151.886718-69.816406 12.769532-10.734375 28.914063-16.648438 45.464844-16.648438s32.695312 5.914063 45.464844 16.648438c43.496094 36.566406 96.015625 60.707031 151.886718 69.816406 8.285157 1.351563 14.734376 7.949219 15.679688 16.054688 4.078125 34.910156.132812 70.914062-11.40625 104.117187-11.542969 33.203125-30.78125 63.886719-55.636719 88.742188l-93.878906 93.878906c-13.917969 13.921875-32.425781 21.585937-52.109375 21.585937zm0 0" fill="url(#linear2)"/><path d="m306.65625 186.875c-11.867188-13.3125-30.140625-21.851562-50.65625-21.851562-35.769531 0-64.765625 25.933593-64.765625 57.921874v13.691407c0 16.074219 7.324219 30.617187 19.148437 41.109375l154.574219 154.574218 66.292969-66.292968c9.1875-9.191406 17.648438-18.957032 25.355469-29.203125zm0 0" fill="url(#linear3)"/><path d="m223.925781 186.296875h-11.375v-33.691406c0-7.144531-5.8125-12.957031-12.957031-12.957031h-39v-11.375h39c13.417969 0 24.335938 10.914062 24.335938 24.332031v33.691406zm0 0" fill="url(#linear4)"/><path d="m175.570312 136.996094c0 9.109375-7.382812 16.496094-16.496093 16.496094-9.109375 0-16.496094-7.386719-16.496094-16.496094 0-9.113282 7.386719-16.5 16.496094-16.5 9.113281 0 16.496093 7.386718 16.496093 16.5zm0 0" fill="url(#linear5)"/><path d="m250.035156 108.171875h11.375v78.125h-11.375zm0 0" fill="url(#linear6)"/><path d="m272.222656 108.171875c0 9.109375-7.386718 16.496094-16.5 16.496094-9.109375 0-16.496094-7.386719-16.496094-16.496094 0-9.113281 7.386719-16.5 16.496094-16.5 9.113282 0 16.5 7.386719 16.5 16.5zm0 0" fill="url(#radial0)"/><path d="m299.175781 186.296875h-11.378906v-59.480469c0-13.417968 10.914063-24.335937 24.332031-24.335937h39.003906v11.378906h-39.003906c-7.140625 0-12.953125 5.8125-12.953125 12.953125zm0 0" fill="url(#linear7)"/><path d="m367.632812 108.171875c0 9.109375-7.386718 16.496094-16.5 16.496094-9.109374 0-16.496093-7.386719-16.496093-16.496094 0-9.113281 7.386719-16.5 16.496093-16.5 9.113282 0 16.5 7.386719 16.5 16.5zm0 0" fill="url(#linear8)"/><path d="m286.28125 274.632812h11.375v33.695313c0 7.144531 5.8125 12.957031 12.957031 12.957031h39.003907v11.375h-39.003907c-13.417969 0-24.332031-10.914062-24.332031-24.332031zm0 0" fill="url(#linear9)"/><path d="m367.632812 323.9375c0 9.113281-7.386718 16.496094-16.5 16.496094-9.109374 0-16.496093-7.382813-16.496093-16.496094 0-9.109375 7.386719-16.496094 16.496093-16.496094 9.113282 0 16.5 7.386719 16.5 16.496094zm0 0" fill="url(#linear10)"/><path d="m248.796875 274.632812h11.375v78.128907h-11.375zm0 0" fill="url(#linear11)"/><path d="m270.980469 352.761719c0 9.109375-7.386719 16.496093-16.496094 16.496093-9.113281 0-16.496094-7.386718-16.496094-16.496093 0-9.113281 7.382813-16.496094 16.496094-16.496094 9.109375 0 16.496094 7.382813 16.496094 16.496094zm0 0" fill="url(#radial1)"/><path d="m211.035156 274.632812h11.375v59.484376c0 13.417968-10.914062 24.332031-24.332031 24.332031h-39.003906v-11.375h39.003906c7.140625 0 12.953125-5.8125 12.953125-12.957031v-59.484376zm0 0" fill="url(#linear12)"/><path d="m175.570312 352.761719c0 9.109375-7.382812 16.496093-16.496093 16.496093-9.109375 0-16.496094-7.386718-16.496094-16.496093 0-9.113281 7.386719-16.496094 16.496094-16.496094 9.113281 0 16.496093 7.382813 16.496093 16.496094zm0 0" fill="url(#linear13)"/><path d="m320.765625 222.945312c0-31.988281-28.996094-57.921874-64.765625-57.921874s-64.765625 25.933593-64.765625 57.921874v13.691407c0 31.988281 28.996094 57.921875 64.765625 57.921875s64.765625-25.933594 64.765625-57.921875c0-.042969 0-13.648438 0-13.691407zm0 0" fill="url(#linear14)"/><path d="m309.339844 190.089844c-11.679688-15.140625-31.214844-25.066406-53.339844-25.066406s-41.660156 9.925781-53.339844 25.066406v79.402344c11.679688 15.140624 31.214844 25.066406 53.339844 25.066406s41.660156-9.925782 53.339844-25.066406zm0 0" fill="url(#linear15)"/><path d="m218.011719 283.550781c10.671875 6.921875 23.796875 11.007813 37.988281 11.007813s27.316406-4.085938 37.988281-11.007813v-107.519531c-10.671875-6.921875-23.796875-11.007812-37.988281-11.007812s-27.316406 4.085937-37.988281 11.007812zm0 0" fill="url(#linear16)"/><path d="m241.285156 293.054688c4.726563.980468 9.652344 1.503906 14.714844 1.503906s9.988281-.523438 14.714844-1.503906v-126.527344c-4.726563-.984375-9.652344-1.503906-14.714844-1.503906s-9.988281.519531-14.714844 1.503906zm0 0" fill="url(#linear17)"/><path d="m320.765625 222.945312c0-31.988281-28.996094-57.921874-64.765625-57.921874s-64.765625 25.933593-64.765625 57.921874c0 31.988282 28.996094 57.917969 64.765625 57.917969s64.765625-25.929687 64.765625-57.917969zm0 0" fill="url(#radial2)"/><path d="m313.542969 222.945312c0-28.421874-25.761719-51.460937-57.542969-51.460937s-57.542969 23.039063-57.542969 51.460937c0 28.421876 25.761719 51.460938 57.542969 51.460938s57.542969-23.039062 57.542969-51.460938zm0 0" fill="url(#radial3)"/><path d="m308.09375 222.945312c0-25.730468-23.324219-46.589843-52.09375-46.589843s-52.09375 20.859375-52.09375 46.589843c0 25.726563 23.324219 46.585938 52.09375 46.585938s52.09375-20.859375 52.09375-46.585938zm0 0" fill="url(#radial4)"/><path d="m317.585938 240.90625-45.070313-45.070312c-.640625-1-1.878906-1.832032-3.722656-2.496094-1.984375-.714844-4.105469-1.199219-6.347657-1.464844-.121093-.074219-.242187-.144531-.367187-.199219l-3.324219-3.5625c-.519531-.378906-1.082031-.574219-1.6875-.574219-.65625 0-1.21875.191407-1.683594.574219-.46875.386719-.699218.824219-.699218 1.316407v2.386718c-4.445313.496094-8.160156 1.976563-11.152344 4.445313-2.988281 2.46875-4.484375 6.085937-4.484375 10.851562 0 1.695313.191406 3.242188.578125 4.640625.382812 1.394532 1.015625 2.613282 1.890625 3.652344.878906 1.039062 1.714844 1.929688 2.511719 2.667969.003906.007812.011718.011719.015625.015625 0 0 10.347656 10.347656 10.355469 10.355468.09375.101563.1875.195313.285156.296876v13.761718c-2.433594-.164062-4.574219-.792968-6.425782-1.886718-1.851562-1.09375-3.304687-2.121094-4.363281-3.078126-1.058593-.957031-1.914062-1.4375-2.566406-1.4375-.980469 0-1.855469.519532-2.617187 1.558594-.761719 1.042969-1.144532 2.082032-1.144532 3.121094 0 1.664062.9375 3.300781 2.8125 4.917969l33.042969 33.042969c20.867187-5.203126 37.488281-19.511719 44.164063-37.835938zm0 0" fill="url(#linear18)"/><path d="m237.570312 240.78125c0-1.042969.378907-2.082031 1.144532-3.121094.761718-1.039062 1.632812-1.5625 2.617187-1.5625.648438 0 1.503907.480469 2.5625 1.4375 1.058594.960938 2.515625 1.984375 4.367188 3.078125 1.851562 1.097657 3.992187 1.726563 6.421875 1.890625v-19.296875c-1.644532-.601562-2.90625-1.082031-3.785156-1.4375-.878907-.355469-2.042969-.875-3.496094-1.558593-1.453125-.683594-2.578125-1.398438-3.375-2.136719-.792969-.738281-1.628906-1.628907-2.507813-2.667969-.878906-1.039062-1.511719-2.257812-1.890625-3.65625-.386718-1.394531-.578125-2.941406-.578125-4.640625 0-4.761719 1.492188-8.378906 4.484375-10.847656 2.988282-2.46875 6.707032-3.953125 11.148438-4.445313v-2.386718c0-.492188.234375-.933594.699218-1.316407.46875-.382812 1.03125-.574219 1.6875-.574219.605469 0 1.164063.191407 1.6875.574219.519532.386719.78125.824219.78125 1.316407v2.222656c3.347657.109375 6.433594.671875 9.257813 1.6875s4.238281 2.425781 4.238281 4.234375c0 .988281-.335937 2.019531-.996094 3.085937-.664062 1.070313-1.550781 1.605469-2.65625 1.605469-.4375 0-1.640624-.464844-3.601562-1.398437-1.96875-.933594-4.046875-1.480469-6.242188-1.644532v16.675782c2.183594.820312 3.996094 1.601562 5.441407 2.339843 1.445312.738281 2.976562 1.765625 4.585937 3.078125 1.609375 1.316406 2.820313 2.972656 3.640625 4.96875.816407 1.996094 1.226563 4.339844 1.226563 7.019532 0 4.902343-1.335938 8.796874-4.007813 11.6875-2.675781 2.890624-6.300781 4.667968-10.886719 5.328124v2.75c0 .484376-.257812.914063-.78125 1.292969-.519531.375-1.082031.5625-1.6875.5625-.65625 0-1.21875-.1875-1.683593-.5625-.46875-.378906-.699219-.808593-.699219-1.292969v-2.503906c-4.773438-.054687-8.820312-1.144531-12.136719-3.273437-3.324219-2.128907-4.980469-4.300781-4.980469-6.511719zm9.625-34.488281c0 2.132812.664063 3.765625 1.996094 4.882812 1.328125 1.125 3.324219 2.179688 5.984375 3.164063v-14.960938c-5.320312.660156-7.980469 2.964844-7.980469 6.914063zm11.847657 36.046875c4.828125-.875 7.242187-3.585938 7.242187-8.128906 0-2.410157-.628906-4.296876-1.890625-5.664063-1.265625-1.371094-3.046875-2.546875-5.351562-3.535156zm0 0" fill="url(#linear19)"/></svg>