<!--
  - Copyright (c) 2023. Selldone® Business OS™
  -
  - Author: M.Pajuhaan
  - Web: https://selldone.com
  - ━━━━━━━━━━━━━━━━━━━━━━━━━━━━━━━━━━━━━━━━━━━━━━━━━━━━━━
  -
  - All rights reserved. In the weave of time, where traditions and innovations intermingle, this content was crafted.
  - From the essence of thought, through the corridors of creativity, each word, and sentiment has been molded.
  - Not just to exist, but to inspire. Like an artist's stroke or a sculptor's chisel, every nuance is deliberate.
  - Our journey is not just about reaching a destination, but about creating a masterpiece.
  - Tread carefully, for you're treading on dreams.
  -->

<svg height="512" viewBox="0 0 58 58" width="512" xmlns="http://www.w3.org/2000/svg"><g id="Page-1" fill="none" fill-rule="evenodd"><g id="003---Call" fill-rule="nonzero"><path id="Shape" d="m24.077 33.983c-5.536-5.536-6.786-11.072-7.069-13.29-.077916-.6133801.1334169-1.2281665.572-1.664l4.478-4.478c.6590136-.6586066.7759629-1.685024.282-2.475l-7.131-11.076c-.5464837-.87475134-1.6685624-1.19045777-2.591-.729l-11.451 5.393c-.74594117.367308-1.18469338 1.15985405-1.1 1.987.6 5.7 3.084 19.712 16.855 33.483s27.783 16.255 33.487 16.855c.827146.0846934 1.619692-.3540588 1.987-1.1l5.393-11.451c.4614578-.9224376.1457513-2.0445163-.729-2.591l-11.077-7.127c-.7893026-.4939406-1.8150535-.3778492-2.474.28l-4.478 4.48c-.435995.4389166-1.0514009.6499657-1.665.571-2.217-.282-7.753-1.532-13.289-7.068z" fill="#2fa8cc"/><g fill="#f0c419"><path id="Shape" d="m46 31c-1.1045695 0-2-.8954305-2-2-.0093685-8.2803876-6.7196124-14.9906315-15-15-1.1045695 0-2-.8954305-2-2s.8954305-2 2-2c10.4886126.0115735 18.9884265 8.5113874 19 19 0 1.1045695-.8954305 2-2 2z"/><path id="Shape" d="m56 31c-1.1045695 0-2-.8954305-2-2-.0154309-13.800722-11.199278-24.9845691-25-25-1.1045695 0-2-.8954305-2-2s.8954305-2 2-2c16.008947.01763587 28.9823641 12.991053 29 29 0 .530433-.2107137 1.0391408-.5857864 1.4142136-.3750728.3750727-.8837806.5857864-1.4142136.5857864z"/></g></g></g></svg>