<svg xmlns="http://www.w3.org/2000/svg" xmlns:xlink="http://www.w3.org/1999/xlink" width="512" height="512" viewBox="0 0 510 510"><linearGradient id="a"><stop offset="0" stop-color="#ffdaaa"/><stop offset="1" stop-color="#fcb37e"/></linearGradient><linearGradient xlink:href="#a" id="e" x1="82.463" x2="368.828" y1="214.442" y2="500.807" gradientUnits="userSpaceOnUse"/><linearGradient id="f" x1="165.768" x2="2.268" y1="301.757" y2="212.863" gradientUnits="userSpaceOnUse"><stop offset="0" stop-color="#ffdaaa" stop-opacity="0"/><stop offset="1" stop-color="#e9edf5"/></linearGradient><linearGradient id="b"><stop offset="0" stop-color="#fcb37e" stop-opacity="0"/><stop offset="1" stop-color="#ff7044"/></linearGradient><linearGradient xlink:href="#b" id="g" x1="258.548" x2="-9.611" y1="298.193" y2="-197.218" gradientUnits="userSpaceOnUse"/><linearGradient xlink:href="#b" id="h" x1="278.13" x2="-191.884" y1="323.961" y2="109.669" gradientUnits="userSpaceOnUse"/><linearGradient xlink:href="#a" id="i" x1="171.151" x2="198.139" y1="371.22" y2="542.532" gradientUnits="userSpaceOnUse"/><linearGradient xlink:href="#b" id="j" x1="300.064" x2="212.273" y1="301.046" y2="71.714" gradientUnits="userSpaceOnUse"/><linearGradient id="c"><stop offset="0" stop-color="#ffda45"/><stop offset="1" stop-color="#fcb37e"/></linearGradient><linearGradient xlink:href="#c" id="k" x1="191.993" x2="191.993" y1="248.078" y2="179.611" gradientUnits="userSpaceOnUse"/><linearGradient xlink:href="#a" id="l" x1="184.379" x2="227.275" y1="138.031" y2="281.488" gradientUnits="userSpaceOnUse"/><linearGradient xlink:href="#c" id="m" x1="181.258" x2="215.489" y1="134.035" y2="227.972" gradientUnits="userSpaceOnUse"/><linearGradient xlink:href="#b" id="n" x1="374.108" x2="322.343" y1="334.185" y2="181.965" gradientUnits="userSpaceOnUse"/><linearGradient id="d"><stop offset="0" stop-color="#ff7044"/><stop offset="1" stop-color="#f92814"/></linearGradient><linearGradient xlink:href="#d" id="o" x1="299.054" x2="561.534" y1="52.149" y2="314.629" gradientUnits="userSpaceOnUse"/><linearGradient id="p" x1="350.239" x2="258.001" y1="103.412" y2="11.174" gradientUnits="userSpaceOnUse"><stop offset="0" stop-color="#ff7044" stop-opacity="0"/><stop offset="1" stop-color="#ffa425"/></linearGradient><linearGradient xlink:href="#d" id="q" x1="81.688" x2="246.613" y1="-735.411" y2="-570.487" gradientTransform="rotate(180 255 -277)" gradientUnits="userSpaceOnUse"/><linearGradient id="r" x1="464.478" x2="391.382" y1="217.578" y2="144.481" gradientUnits="userSpaceOnUse"><stop offset="0" stop-color="#f92814" stop-opacity="0"/><stop offset="1" stop-color="#c1272d"/></linearGradient><linearGradient id="s" x1="362.051" x2="401.636" y1="106.541" y2="166.909" gradientUnits="userSpaceOnUse"><stop offset="0" stop-color="#f9f7fc"/><stop offset="1" stop-color="#f0ddfc"/></linearGradient><path fill="url(#e)" d="M360.505 510H23.481c-9.673 0-17.515-7.842-17.515-17.515V155.461c0-9.674 7.842-17.515 17.515-17.515h337.024c9.673 0 17.515 7.842 17.515 17.515v337.024c0 9.673-7.842 17.515-17.515 17.515"/><path fill="url(#f)" d="M378.02 492.485V155.461c0-9.673-7.842-17.515-17.515-17.515H52.754c-9.673 0-17.515 7.842-17.515 17.515v337.024c0 9.673 7.842 17.515 17.515 17.515h307.751c9.673 0 17.515-7.842 17.515-17.515"/><path fill="url(#g)" d="M377.93 153.67a17.4 17.4 0 0 0-1.286-5.027c-2.659-6.287-8.884-10.698-16.139-10.698H23.481c-7.255 0-13.48 4.411-16.139 10.698a17.4 17.4 0 0 0-1.286 5.027q-.09.883-.091 1.791v43.995L316.51 510h43.995c7.86 0 14.51-5.177 16.728-12.307a17.618 17.618 0 0 0 .788-5.209V155.461a18 18 0 0 0-.091-1.791"/><path fill="url(#h)" d="M360.505 137.946H191.993V510h168.512c9.674 0 17.515-7.842 17.515-17.515V155.461c0-9.674-7.842-17.515-17.515-17.515"/><path fill="url(#i)" d="M338.139 444.072a22.57 22.57 0 0 0-19.308-10.886H65.155a22.57 22.57 0 0 0-19.308 10.886L9.886 503.52c3.212 3.952 8.106 6.48 13.595 6.48h337.024c5.489 0 10.384-2.529 13.595-6.48z"/><path fill="url(#j)" d="M378.023 155.459v323.619L147.361 248.416a25.56 25.56 0 0 1-7.489-18.081v-92.392h220.635c9.669 0 17.516 7.847 17.516 17.516"/><path fill="url(#k)" d="m152.88 248.411 4.943-4.944a3.906 3.906 0 0 1 5.525 0l4.943 4.944a3.906 3.906 0 0 0 5.525 0l4.944-4.944a3.906 3.906 0 0 1 5.525 0l4.944 4.944a3.906 3.906 0 0 0 5.525 0l4.943-4.944a3.906 3.906 0 0 1 5.525 0l4.943 4.944a3.906 3.906 0 0 0 5.525 0l4.943-4.944a3.906 3.906 0 0 1 5.525 0l4.943 4.944a3.906 3.906 0 0 0 5.525 0 25.56 25.56 0 0 0 7.487-18.075v-92.391h-104.25v92.391a25.56 25.56 0 0 0 7.487 18.075 3.91 3.91 0 0 0 5.53 0"/><path fill="url(#l)" d="M378.781 199.455H5.205A5.205 5.205 0 0 1 0 194.25v-61.511a5.205 5.205 0 0 1 5.205-5.206H378.78a5.206 5.206 0 0 1 5.206 5.206v61.511a5.205 5.205 0 0 1-5.205 5.205"/><path fill="url(#m)" d="M139.868 127.534h104.25v71.922h-104.25z"/><g fill="#ff7044"><path d="M140.862 377.361H58.1a5.346 5.346 0 0 1-5.346-5.346v-11.019a5.346 5.346 0 0 1 5.346-5.346h82.762a5.346 5.346 0 0 1 5.346 5.346v11.019a5.347 5.347 0 0 1-5.346 5.346M110.588 411.604H58.1a5.346 5.346 0 0 1-5.346-5.346v-11.019a5.346 5.346 0 0 1 5.346-5.346h52.488a5.346 5.346 0 0 1 5.346 5.346v11.019a5.346 5.346 0 0 1-5.346 5.346M186.647 411.604h-46.805a5.346 5.346 0 0 1-5.346-5.346v-11.019a5.346 5.346 0 0 1 5.346-5.346h46.805a5.346 5.346 0 0 1 5.346 5.346v11.019a5.346 5.346 0 0 1-5.346 5.346"/></g><path fill="url(#n)" d="M360.507 137.943H247.068c1.686 34.52 16.674 65.542 39.954 88.049l91.001 91.001V155.459c0-9.669-7.847-17.516-17.516-17.516"/><path fill="url(#o)" d="M510 131.55C510 58.897 451.103 0 378.451 0c-72.337 0-130.818 57.867-131.543 130.2-.548 54.63 32.212 101.668 79.213 122.069a45.3 45.3 0 0 1 19.413 16.093l23.537 34.627c4.501 6.621 14.259 6.621 18.76 0l23.537-34.626c4.805-7.069 11.498-12.663 19.34-16.062C477.36 232.085 510 185.633 510 131.55"/><path fill="url(#p)" d="M378.45 301.399c-.762 0-2.673-.204-3.959-2.095l-23.537-34.627a51.76 51.76 0 0 0-22.224-18.421c-46.229-20.066-75.774-65.595-75.268-115.99.333-33.243 13.464-64.364 36.974-87.631C313.943 19.37 345.203 6.556 378.45 6.556h.001c68.922 0 124.994 56.073 124.994 124.995 0 49.866-29.574 94.903-75.344 114.736-8.953 3.88-16.614 10.239-22.155 18.391l-23.537 34.626c-1.286 1.891-3.197 2.095-3.959 2.095"/><circle cx="378.45" cy="131.55" r="82.691" fill="url(#q)"/><path fill="url(#r)" d="m505.884 164.302-78.563-78.563c-12.222-13.033-29.594-21.178-48.871-21.178-36.997 0-66.989 29.992-66.989 66.989 0 19.277 8.145 36.649 21.178 48.871l82.797 82.797a44.9 44.9 0 0 1 15.271-10.916c36.898-15.99 65.026-48.393 75.177-88"/><circle cx="378.45" cy="131.55" r="66.989" fill="url(#s)"/></svg>