

<svg id="Capa_1" enable-background="new 0 0 510 510" height="512" viewBox="0 0 510 510" width="512" xmlns="http://www.w3.org/2000/svg" xmlns:xlink="http://www.w3.org/1999/xlink"><linearGradient id="lg1"><stop offset="0" stop-color="#ffdaaa"/><stop offset="1" stop-color="#fcb37e"/></linearGradient><linearGradient id="SVGID_1_" gradientUnits="userSpaceOnUse" x1="82.463" x2="368.828" xlink:href="#lg1" y1="214.442" y2="500.807"/><linearGradient id="SVGID_2_" gradientUnits="userSpaceOnUse" x1="165.768" x2="2.268" y1="301.757" y2="212.863"><stop offset="0" stop-color="#ffdaaa" stop-opacity="0"/><stop offset="1" stop-color="#e9edf5"/></linearGradient><linearGradient id="lg2"><stop offset="0" stop-color="#fcb37e" stop-opacity="0"/><stop offset="1" stop-color="#ff7044"/></linearGradient><linearGradient id="SVGID_3_" gradientUnits="userSpaceOnUse" x1="258.548" x2="-9.611" xlink:href="#lg2" y1="298.193" y2="-197.218"/><linearGradient id="SVGID_4_" gradientUnits="userSpaceOnUse" x1="278.13" x2="-191.884" xlink:href="#lg2" y1="323.961" y2="109.669"/><linearGradient id="SVGID_5_" gradientUnits="userSpaceOnUse" x1="171.151" x2="198.139" xlink:href="#lg1" y1="371.22" y2="542.532"/><linearGradient id="SVGID_6_" gradientUnits="userSpaceOnUse" x1="300.064" x2="212.273" xlink:href="#lg2" y1="301.046" y2="71.714"/><linearGradient id="lg3"><stop offset="0" stop-color="#ffda45"/><stop offset="1" stop-color="#fcb37e"/></linearGradient><linearGradient id="SVGID_7_" gradientUnits="userSpaceOnUse" x1="191.993" x2="191.993" xlink:href="#lg3" y1="248.078" y2="179.611"/><linearGradient id="SVGID_8_" gradientUnits="userSpaceOnUse" x1="184.379" x2="227.275" xlink:href="#lg1" y1="138.031" y2="281.488"/><linearGradient id="SVGID_9_" gradientUnits="userSpaceOnUse" x1="181.258" x2="215.489" xlink:href="#lg3" y1="134.035" y2="227.972"/><linearGradient id="SVGID_10_" gradientUnits="userSpaceOnUse" x1="374.108" x2="322.343" xlink:href="#lg2" y1="334.185" y2="181.965"/><linearGradient id="lg4"><stop offset="0" stop-color="#ff7044"/><stop offset="1" stop-color="#f92814"/></linearGradient><linearGradient id="SVGID_11_" gradientUnits="userSpaceOnUse" x1="299.054" x2="561.534" xlink:href="#lg4" y1="52.149" y2="314.629"/><linearGradient id="SVGID_12_" gradientUnits="userSpaceOnUse" x1="350.239" x2="258.001" y1="103.412" y2="11.174"><stop offset="0" stop-color="#ff7044" stop-opacity="0"/><stop offset="1" stop-color="#ffa425"/></linearGradient><linearGradient id="SVGID_13_" gradientTransform="matrix(-1 0 0 -1 510 -554)" gradientUnits="userSpaceOnUse" x1="81.688" x2="246.613" xlink:href="#lg4" y1="-735.411" y2="-570.487"/><linearGradient id="SVGID_14_" gradientUnits="userSpaceOnUse" x1="464.478" x2="391.382" y1="217.578" y2="144.481"><stop offset="0" stop-color="#f92814" stop-opacity="0"/><stop offset="1" stop-color="#c1272d"/></linearGradient><linearGradient id="SVGID_15_" gradientUnits="userSpaceOnUse" x1="362.051" x2="401.636" y1="106.541" y2="166.909"><stop offset="0" stop-color="#f9f7fc"/><stop offset="1" stop-color="#f0ddfc"/></linearGradient><path d="m360.505 510h-337.024c-9.673 0-17.515-7.842-17.515-17.515v-337.024c0-9.674 7.842-17.515 17.515-17.515h337.024c9.673 0 17.515 7.842 17.515 17.515v337.024c0 9.673-7.842 17.515-17.515 17.515z" fill="url(#SVGID_1_)"/><path d="m378.02 492.485v-337.024c0-9.673-7.842-17.515-17.515-17.515h-307.751c-9.673 0-17.515 7.842-17.515 17.515v337.024c0 9.673 7.842 17.515 17.515 17.515h307.751c9.673 0 17.515-7.842 17.515-17.515z" fill="url(#SVGID_2_)"/><path d="m377.93 153.67c-.179-1.766-.621-3.455-1.286-5.027-2.659-6.287-8.884-10.698-16.139-10.698h-337.024c-7.255 0-13.48 4.411-16.139 10.698-.665 1.572-1.107 3.26-1.286 5.027-.06.589-.091 1.186-.091 1.791v43.995l310.545 310.544h43.995c7.86 0 14.51-5.177 16.728-12.307.171-.548.315-1.109.432-1.679.233-1.14.356-2.321.356-3.53v-337.023c-.001-.605-.031-1.202-.091-1.791z" fill="url(#SVGID_3_)"/><path d="m360.505 137.946h-168.512v372.054h168.512c9.674 0 17.515-7.842 17.515-17.515v-337.024c0-9.674-7.842-17.515-17.515-17.515z" fill="url(#SVGID_4_)"/><path d="m338.139 444.072c-4.088-6.758-11.411-10.886-19.308-10.886h-253.676c-7.898 0-15.221 4.129-19.308 10.886l-35.961 59.448c3.212 3.952 8.106 6.48 13.595 6.48h337.024c5.489 0 10.384-2.529 13.595-6.48z" fill="url(#SVGID_5_)"/><path d="m378.023 155.459v323.619l-230.662-230.662c-4.8-4.8-7.489-11.297-7.489-18.081v-92.392h220.635c9.669 0 17.516 7.847 17.516 17.516z" fill="url(#SVGID_6_)"/><path d="m152.88 248.411 4.943-4.944c1.526-1.526 4-1.526 5.525 0l4.943 4.944c1.526 1.526 4 1.526 5.525 0l4.944-4.944c1.526-1.526 4-1.526 5.525 0l4.944 4.944c1.526 1.526 4 1.526 5.525 0l4.943-4.944c1.526-1.526 4-1.526 5.525 0l4.943 4.944c1.526 1.526 4 1.526 5.525 0l4.943-4.944c1.526-1.526 4-1.526 5.525 0l4.943 4.944c1.526 1.526 4 1.526 5.525 0 4.794-4.794 7.487-11.295 7.487-18.075v-92.391h-104.25v92.391c0 6.779 2.693 13.281 7.487 18.075 1.531 1.526 4.005 1.526 5.53 0z" fill="url(#SVGID_7_)"/><path d="m378.781 199.455h-373.576c-2.875 0-5.205-2.33-5.205-5.205v-61.511c0-2.875 2.33-5.206 5.205-5.206h373.575c2.875 0 5.206 2.331 5.206 5.206v61.511c0 2.875-2.331 5.205-5.205 5.205z" fill="url(#SVGID_8_)"/><path d="m139.868 127.534h104.25v71.922h-104.25z" fill="url(#SVGID_9_)"/><g fill="#ff7044"><path d="m140.862 377.361h-82.762c-2.953 0-5.346-2.394-5.346-5.346v-11.019c0-2.953 2.394-5.346 5.346-5.346h82.762c2.953 0 5.346 2.394 5.346 5.346v11.019c0 2.952-2.394 5.346-5.346 5.346z"/><path d="m110.588 411.604h-52.488c-2.953 0-5.346-2.394-5.346-5.346v-11.019c0-2.953 2.394-5.346 5.346-5.346h52.488c2.953 0 5.346 2.394 5.346 5.346v11.019c0 2.953-2.394 5.346-5.346 5.346z"/><path d="m186.647 411.604h-46.805c-2.953 0-5.346-2.394-5.346-5.346v-11.019c0-2.953 2.394-5.346 5.346-5.346h46.805c2.953 0 5.346 2.394 5.346 5.346v11.019c0 2.953-2.394 5.346-5.346 5.346z"/></g><path d="m360.507 137.943h-113.439c1.686 34.52 16.674 65.542 39.954 88.049l91.001 91.001v-161.534c0-9.669-7.847-17.516-17.516-17.516z" fill="url(#SVGID_10_)"/><path d="m510 131.55c0-72.653-58.897-131.55-131.549-131.55-72.337 0-130.818 57.867-131.543 130.2-.548 54.63 32.212 101.668 79.213 122.069 7.865 3.414 14.593 9.001 19.413 16.093l23.537 34.627c4.501 6.621 14.259 6.621 18.76 0l23.537-34.626c4.805-7.069 11.498-12.663 19.34-16.062 46.652-20.216 79.292-66.668 79.292-120.751z" fill="url(#SVGID_11_)"/><path d="m378.45 301.399c-.762 0-2.673-.204-3.959-2.095l-23.537-34.627c-5.535-8.143-13.22-14.513-22.224-18.421-46.229-20.066-75.774-65.595-75.268-115.99.333-33.243 13.464-64.364 36.974-87.631 23.507-23.265 54.767-36.079 88.014-36.079h.001c68.922 0 124.994 56.073 124.994 124.995 0 49.866-29.574 94.903-75.344 114.736-8.953 3.88-16.614 10.239-22.155 18.391l-23.537 34.626c-1.286 1.891-3.197 2.095-3.959 2.095z" fill="url(#SVGID_12_)"/><circle cx="378.45" cy="131.55" fill="url(#SVGID_13_)" r="82.691"/><path d="m505.884 164.302-78.563-78.563c-12.222-13.033-29.594-21.178-48.871-21.178-36.997 0-66.989 29.992-66.989 66.989 0 19.277 8.145 36.649 21.178 48.871l82.797 82.797c4.254-4.653 9.444-8.391 15.271-10.916 36.898-15.99 65.026-48.393 75.177-88z" fill="url(#SVGID_14_)"/><circle cx="378.45" cy="131.55" fill="url(#SVGID_15_)" r="66.989"/></svg>