<!--
  - Copyright (c) 2023. Selldone® Business OS™
  -
  - Author: M.Pajuhaan
  - Web: https://selldone.com
  - ━━━━━━━━━━━━━━━━━━━━━━━━━━━━━━━━━━━━━━━━━━━━━━━━━━━━━━
  -
  - All rights reserved. In the weave of time, where traditions and innovations intermingle, this content was crafted.
  - From the essence of thought, through the corridors of creativity, each word, and sentiment has been molded.
  - Not just to exist, but to inspire. Like an artist's stroke or a sculptor's chisel, every nuance is deliberate.
  - Our journey is not just about reaching a destination, but about creating a masterpiece.
  - Tread carefully, for you're treading on dreams.
  -->

<svg height="512" viewBox="0 0 32 32" width="512" xmlns="http://www.w3.org/2000/svg"><g id="05-bar,-chart,-diagram,-pie" fill="none" fill-rule="nonzero"><path id="Path" d="m16.0001777 10.9291637.0001142-6.97848661-1.0897443.09817479c-6.1561664.55460748-10.9105476 5.72953626-10.9105476 11.95114812 0 6.627417 5.372583 12 12 12 5.8146172 0 10.7632739-4.1644771 11.8021025-9.8189757l.2169152-1.1807022-7.0676886.0000533-.2356892.6666864c-.7003687 1.9811096-2.5796093 3.3329382-4.7156399 3.3329382-2.7614237 0-5-2.2385763-5-5 0-2.4509256 1.7759759-4.5300253 4.1656154-4.9308511z" fill="#2eaff0"/><path id="Path" d="m19.2723097 4.45185529-1.272375-.35989175.0011167 7.28800566.499025.2887941c1.0290323.595518 1.8188742 1.5424829 2.2153738 2.6636385l.2357225.6665368 7.0678338.000467-.2169727-1.1808037c-.8245764-4.48748914-4.1533423-8.1288853-8.5297241-9.36674661z" fill="#a5e1ff"/></g></svg>