<?xml version="1.0" encoding="iso-8859-1"?>



<svg version="1.1" id="Capa_1" xmlns="http://www.w3.org/2000/svg" xmlns:xlink="http://www.w3.org/1999/xlink" x="0px" y="0px"
	 viewBox="0 0 512 512" style="enable-background:new 0 0 512 512;" xml:space="preserve">
<path style="fill:#00ABE9;" d="M511.871,240.857c-1.499,18.591-11.094,35.083-26.387,45.277l-34.583,19.19H61.098l-34.583-19.19
	C11.223,275.94,1.627,259.448,0.129,240.857c-1.198-18.591,5.997-36.281,19.789-48.576l52.575-47.076
	C124.666,98.429,190.333,75.342,256,75.342s131.334,23.087,183.508,69.864l52.575,47.076
	C505.874,204.576,513.069,222.267,511.871,240.857z"/>
<path style="fill:#1A96E2;" d="M511.871,240.857c-1.499,18.591-11.094,35.083-26.387,45.277l-34.583,19.19H256V75.341
	c65.667,0,131.334,23.087,183.508,69.864l52.575,47.076C505.874,204.576,513.069,222.267,511.871,240.857z"/>
<polygon style="fill:#DEECF1;" points="350.751,180.887 270.992,207.574 270.992,226.765 241.008,226.765 241.008,207.574 
	161.249,180.887 170.842,152.702 241.008,176.091 241.008,136.811 270.992,136.811 270.992,176.091 341.158,152.702 "/>
<polygon style="fill:#C6E2E7;" points="341.158,152.702 350.751,180.887 270.992,207.574 270.992,226.765 256,226.765 256,136.811 
	270.992,136.811 270.992,176.091 "/>
<path style="fill:#FDBF00;" d="M450.902,305.326v55.772l-389.804,0.601v-56.372c63.268-22.489,129.235-33.583,194.902-33.583
	C321.967,271.743,387.935,282.837,450.902,305.326z"/>
<path style="fill:#0065A3;" d="M450.902,361.097v0.601c0,11.694-5.697,22.189-15.593,31.183
	C403.825,421.667,329.763,436.66,256,436.66c-73.463,0-147.526-14.992-179.009-43.478c-10.196-9.295-15.893-19.491-15.893-31.484
	c62.967-22.189,128.935-33.583,194.902-33.583S387.935,338.909,450.902,361.097z"/>
<path style="fill:#FF9F00;" d="M450.902,305.326v55.772L256,361.397v-89.655C321.967,271.743,387.935,282.837,450.902,305.326z"/>
<path style="fill:#003E67;" d="M256,328.114c65.967,0,131.935,10.795,194.902,32.982v0.601c0,11.694-5.697,22.189-15.593,31.183
	C403.825,421.667,329.763,436.659,256,436.659L256,328.114L256,328.114z"/>
<g>
</g>
<g>
</g>
<g>
</g>
<g>
</g>
<g>
</g>
<g>
</g>
<g>
</g>
<g>
</g>
<g>
</g>
<g>
</g>
<g>
</g>
<g>
</g>
<g>
</g>
<g>
</g>
<g>
</g>
</svg>
