

<svg id="Capa_1" enable-background="new 0 0 512 512" height="512" viewBox="0 0 512 512" width="512"
     xmlns="http://www.w3.org/2000/svg">
    <g>
        <path d="m436.657 370.99s-62.962 57.386-180.657 57.386c-117.687 0-180.657-57.386-180.657-57.386l78.325-47.343 102.332-61.851z"
              fill="#665e66"/>
        <path d="m255.999 428.376c-117.687 0-180.657-57.386-180.657-57.386l78.325-47.343c14.069 5.616 22.298 12.463 19.445 20.772-11.687 34.009 19.126 83.957 82.887 83.957z"
              fill="#454045"/>
        <path d="m436.657 332.73v38.26s-88.2-18.335-180.657-18.335c-29.799 0-59.159 1.909-85.268 4.49-54.885 5.425-95.39 13.845-95.39 13.845v-38.26l52.344-62.259 127.194-151.274z"
              fill="#f4dd45"/>
        <path d="m170.732 257.018v100.127c-54.885 5.425-95.39 13.845-95.39 13.845v-38.26l52.344-62.259z"
              fill="#eab14d"/>
        <path d="m501.297 300.83c-26.004 26.045-64.64 31.901-64.64 31.901-56.171-31.221-118.414-46.824-180.657-46.824-28.617 0-57.234 3.299-85.268 9.906h-.008c-32.931 7.749-65.039 20.053-95.382 36.918 0 0-38.635-5.856-64.632-31.901-15.147-15.163-14.077-40.041 2.253-53.918 26.668-22.665 73.691-63.937 123.615-113.821 29.088-29.056 66.086-45.314 104.026-48.765 48.182-4.394 97.882 11.864 134.816 48.765 49.924 49.884 96.956 91.156 123.615 113.821 16.33 13.876 17.401 38.755 2.262 53.918z"
              fill="#30579d"/>
        <path d="m170.724 295.813c-32.931 7.749-65.039 20.053-95.382 36.918 0 0-38.635-5.856-64.632-31.901-15.147-15.163-14.077-40.041 2.253-53.918 26.668-22.665 73.691-63.937 123.615-113.821 29.088-29.056 66.086-45.314 104.026-48.765l.008.008c-51.026 7.701-142.126 148.245-69.888 211.479z"
              fill="#21386b"/>
        <g>
            <g fill="#f4dd45">
                <path d="m204.053 214.774v-4.114c0-12.401-10.053-22.453-22.453-22.453h-34.052c-7.445 0-13.769 6.093-13.629 13.537.135 7.219 6.029 13.03 13.281 13.03h14.346c-7.252 0-13.146 5.811-13.281 13.03-.139 7.444 6.184 13.537 13.629 13.537h78.29v-26.567z"/>
                <path d="m307.95 214.774v-4.114c0-12.401 10.053-22.453 22.453-22.453h34.052c7.445 0 13.769 6.093 13.629 13.537-.135 7.219-6.029 13.03-13.281 13.03h-14.346c7.252 0 13.146 5.811 13.281 13.03.139 7.444-6.184 13.537-13.629 13.537h-78.29v-26.567z"/>
            </g>
            <circle cx="256.001" cy="223.541" fill="#eab14d" r="38.256"/>
            <circle cx="256.001" cy="223.541" fill="#f4dd45" r="22.578"/>
        </g>
    </g>
</svg>