<svg id="Layer_1" enable-background="new 0 0 50 50" height="512" viewBox="0 0 50 50" width="512" xmlns="http://www.w3.org/2000/svg"><g><g><g enable-background="new"><g><path d="m35.13817 48.82579-4.81944-3.30634c-.03247-.02229-.06427-.04683-.09537-.07367-1.68271-1.43936-.14749-5.68624-.06668-5.90976l4.81942 3.30635c-.0808.22352-1.61603 4.47041.06668 5.90977.0311.02683.06291.05136.09539.07365z" fill="#485f69"/></g><g><path d="m29.85085 35.16088 4.81941 3.30637c.78493.53847 1.5219 1.82953.30584 4.37511l-4.81942-3.30635c1.21606-2.54558.47909-3.83664-.30583-4.37513z" fill="#485f69"/></g><g><path d="m33.46607 38.02433-4.81943-3.30634c-.6627-.45466-1.45342-2.07155-1.4052-3.63595.0187-.60634-.18298-.955-.46565-1.14893l4.81942 3.30637c.28268.19391.48435.54257.46566 1.14891-.04822 1.5644.74249 3.18129 1.4052 3.63594z" fill="#485f69"/></g><g><path d="m25.21807 29.80406c-.02718-.02911-.05411-.05709-.08111-.08568l4.81942 3.30635c.027.02858.05393.05657.08111.08568-1.44584-.9919-3.46984-2.14068-4.81942-3.30635z" fill="#40545d"/></g><g><path d="m25.13696 29.71838c.25149-1.00947.01742-2.4031-.98606-3.62441 1.60645 1.10213 3.21296 2.20426 4.81942 3.30637 1.00348 1.22129 1.23755 2.61492.98606 3.62439-1.44583-.9919-3.3736-2.31444-4.81942-3.30635z" fill="#40545d"/></g><g><path d="m24.1509 26.09397c-.1386-.16828-.28803-.30468-.44595-.41302l4.81942 3.30636c.15792.10833.30735.24474.44595.41302-.80323-.55102-1.60649-1.10211-2.40972-1.65315-.41667-.28584-.83336-.57176-1.25004-.8576-.29436-.20193-.58881-.40394-.88318-.60588-.08294-.05693-.20087-.12001-.27648-.18973z" fill="#40545d"/></g><g><path d="m27.7664 34.22114-4.81943-3.30635c-.79358-.54444-.39291-2.00049-1.06475-2.61028-.04335-.03944-.09186-.07732-.14486-.11367l4.8194 3.30636c.05302.03635.10153.07422.14488.11367.67184.60979.27118 2.06583 1.06476 2.61027z" fill="#ee5550"/></g><g><path d="m26.92774 28.66904-4.81942-3.30635 15.44937-10.52994 4.81942 3.30635z" fill="#778c95"/></g><g><path d="m23.70494 25.68094 4.81941 3.30637c-.47652-.32694-1.03027-.39824-1.59661-.31827-.91826.12896-1.8695.65565-2.57754 1.13823l-4.81942-3.30635c.70804-.48259 1.65928-1.00927 2.57754-1.13823.56634-.07998 1.12009-.00867 1.59662.31825z" fill="#ee5550"/></g><g><path d="m42.37711 18.1391c-.30644 3.49479.27739 6.24118.68047 6.55927.63968.51342 1.01391 3.39044 1.31408 8.20453.30894 4.80811-.90085 7.28175-2.39947 9.64329-1.04961 1.64614-3.20264 4.74272-4.97668 5.95187-.75897.51729-1.44854.68927-1.95273.25408-1.68272-1.43936-.14748-5.68624-.06668-5.90977 1.72303-3.6068-.4748-4.69506-1.17445-4.69258-.69094-.0041-1.79757-1.91914-1.74078-3.76139.05679-1.84162-1.91937-1.30616-2.02338-1.27798-.02718-.02911-.05411-.05709-.08111-.08568.25149-1.00946.01742-2.4031-.98606-3.62441-.55685-.67608-1.28856-.83776-2.04259-.73128z" fill="#40545d"/></g><g><path d="m23.22725 30.68078-4.81944-3.30634c.02263-.02083.45246-.41652 1.12296-.87351l4.81942 3.30635c-.67049.45699-1.10032.85267-1.12294.8735z" fill="#ee5550"/></g><g><path d="m24.3502 29.80727c.70804-.48259 1.65928-1.00927 2.57754-1.13823.75402-.10648 1.48573.0552 2.04259.73128 1.00348 1.22131 1.23755 2.61494.98606 3.62441-.1303.52264-.39104.94302-.74284 1.1828-.23337.15906-.50649.23901-.80839.21692-1.63586-.13054-.89712-2.08165-1.70351-2.81357-.7976-.72569-3.34056-.91986-3.47439-.93009.02261-.02084.45244-.41652 1.12294-.87352z" fill="#cb4844"/></g></g></g><g><g><path d="m21.83035 33.51377c.10935.27379.16411.53355.16411.75258 0 .30117-.10943.53355-.27354.64307-.1778.12287-.45133.09549-.73856-.06878l-14.78384-8.53352c-.28714-.16427-.54699-.45142-.72479-.77996-.1778-.31452-.28723-.65643-.27354-.95759 0-.20501.05467-.39599.15042-.53289.73856-.94357 1.12145-2.05141 1.12145-3.37829 0-1.24407-.32821-2.66644-1.02571-4.36259-.12304-.27379-.1778-.53289-.1778-.75192 0-.28714.10943-.51953.28723-.62905.16411-.12354.43764-.10952.72479.05476l14.79753 8.53353c.27354.16427.54708.46544.71118.77929.1778.31519.28723.67045.28723.95759 0 .21903-.05476.41002-.16411.54691-.72487.93021-1.10776 2.05141-1.12145 3.37828.00001 1.24475.32822 2.66712 1.0394 4.34858z" fill="#4bb5e7"/></g><path d="m26.11941 31.01962-14.78743-8.53419c-.09132-.04608-.15217-.1222-.19775-.21369-.00985-.01603-.00818-.03673-.01644-.05543-1.64273.8828-3.72887 2.002-5.18604 2.77729l-.00058.002c0 .07546.03038.1823.07613.25843.04558.09082.10651.15225.19775.21302l14.78743 8.53419c.07604.04541.13698.04541.18255.01603l5.12695-2.98229c-.0456.03005-.10653.03005-.18257-.01536z" fill="#778c95"/><g><path d="m11.05811 22.02141.04566-.15225c.79107-1.00434 1.2323-2.23572 1.2323-3.75692 0-1.41569-.38038-3.05842-1.14106-4.88412l-.06077-.22838c0-.07613.0303-.13689.07604-.16694l-5.12694 2.96627c-.04566.04541-.07604.09082-.07604.1823l.06077.21302c.76068 1.84106 1.14106 3.48446 1.14106 4.89948 0 1.50584-.44115 2.75325-1.2323 3.75692l-.04508.15091c1.45717-.77529 3.54331-1.89448 5.18604-2.77729-.03014-.06811-.05968-.14357-.05968-.203z" fill="#40545d"/></g><g><g enable-background="new"><g><path d="m21.76838 34.86839-.04568.04605c-.01514 0-.01514 0-.03036 0z" fill="#f17572"/></g><g><path d="m20.79739 29.16109c-.00352 1.24287.31805 2.66556 1.03094 4.35977.11222.26324.16467.52261.16404.7439-.00084.29738-.10118.52943-.27428.64328-.17976.11785-.44551.10195-.73081-.06277l-14.7883-8.53803c-.29192-.16854-.55024-.45521-.72878-.77993-.17851-.31685-.27724-.65639-.27638-.9612.00058-.20598.0543-.3962.161-.53303.73364-.93568 1.11559-2.05164 1.11935-3.37807.0035-1.23501-.3247-2.6694-1.03094-4.35233-.11888-.27453-.17128-.53387-.17066-.75516.00084-.29738.1012-.52942.28092-.63945.1731-.11383.43889-.10537.73079.06316l14.78832 8.53804c.28525.16469.55022.46267.72211.77567.17856.31688.27722.66382.27638.9612-.0006.21344-.04765.40004-.15435.5373-.73364.93526-1.11559 2.05122-1.11935 3.37765zm.38493 4.85719c.04659-.02653.07337-.09477.0736-.17871l-.05254-.22132c-.7723-1.83539-1.14645-3.47198-1.14245-4.88235.00428-1.50925.43978-2.7546 1.22681-3.76634l.04692-.14858c.00024-.08394-.02608-.17537-.07235-.26299-.05294-.08402-.10591-.15312-.19212-.20289l-14.78831-8.53804c-.09286-.05362-.14605-.0458-.19264-.01925-.04661.03399-.08002.09093-.08026.17487l.05255.22133c.77228 1.8358 1.15308 3.47581 1.14908 4.88618-.0043 1.51711-.43978 2.7546-1.23341 3.76253l-.04693.14858c-.00024.08394.0327.18666.07897.2668.04629.08058.10593.15313.19214.2029l14.7883 8.53803c.08625.0498.13941.04238.19264.01925" fill="#56707b"/></g></g></g><g><path d="m44.80615 11.42704c.01369 3.32353-4.33538 12.82867-11.69303 17.08175-2.33864 1.35358-4.77302 2.98162-7.19363 3.96593v-.01336l-4.15758 2.40667c.13681-.12287.23255-.32855.23255-.60167 0-.21903-.05476-.47879-.16411-.75258-.71118-1.68147-1.03939-3.10383-1.03939-4.34857 0-1.32687.39658-2.44807 1.13505-3.37828.09574-.13689.1505-.31452.1505-.54691 0-.28715-.10943-.6424-.27354-.95759-.19148-.3005-.45133-.61502-.73848-.77929l5.12853-2.98163c2.42061-.97095 4.54039-1.805 6.87902-3.15859 7.35774-4.25374 11.70672-9.05373 11.70672-12.36323z" fill="#485f69"/></g></g><g><path d="m33.08255 17.36251c-2.33864 1.35358-4.78663 2.51619-7.20732 3.50116l-4.80032 2.63906-14.79752-8.53354c-.27354-.16427-.5333-.16427-.7111-.08214 0 0 8.61591-5.81233 10.94086-7.15256 10.03819-5.79898 21.89533-8.34254 26.46318-5.67544 4.58145 2.65308.15042 9.50448-9.88778 15.30346z" fill="#778c95"/><path d="m8.41419 14.62295c2.69381-1.80116 7.22134-4.807 8.77593-5.70365 6.89013-3.98029 15.00629-6.5519 20.67572-6.5519 1.91118 0 3.43772.30184 4.41534.87262 1.01235.58664 1.12854 1.28146 1.12854 1.75325-.00134 2.3242-3.4484 6.81584-11.01165 11.18494-2.14089 1.23906-4.50883 2.38897-7.03837 3.41869l-.07346.03005-4.19498 2.30634z" fill="#56707b"/></g><g><g><g enable-background="new"><g><path d="m22.31183 29.33626c0 .40239.14243.68113.36532.81113l.29198.16962c-.22289-.13-.36532-.41479-.36532-.81113-.0062-.79873.56345-1.77674 1.2569-2.17944.35292-.20437.67486-.22281.90394-.08646l-.29198-.16993c-.22908-.13635-.55102-.11156-.90394.08677-.69345.40239-1.2631 1.3807-1.2569 2.17944z" fill="#778c95"/></g><g><path d="m23.86364 27.32615c-.69574.40169-1.26315 1.37996-1.26088 2.17942.00228.80389.57337 1.12486 1.26911.72317.6997-.40397 1.26315-1.37996 1.26087-2.18385-.00227-.79946-.5694-1.12271-1.2691-.71874z" fill="#56707b"/></g></g></g><g><g enable-background="new"><g><path d="m22.85781 29.44906c0 .34117.12076.57751.30974.68773l.57755.33586c-.18898-.11022-.30974-.35168-.30974-.68773-.00525-.67722.47773-1.50644 1.06568-1.84787.29923-.17328.57219-.18891.76642-.07331l-.57755-.33611c-.19423-.1156-.46719-.09458-.76642.07357-.58795.34116-1.07094 1.17064-1.06568 1.84786z" fill="#fee182"/></g><g><path d="m24.50352 27.9368c-.5899.34058-1.07098 1.17002-1.06906 1.84785.00193.68159.48614.95373 1.07603.61315.59325-.34251 1.07098-1.17002 1.06905-1.85161-.00192-.67783-.48277-.9519-1.07602-.60939z" fill="#fed44c"/></g></g></g></g><g><g><g enable-background="new"><g><path d="m26.29843 27.35351c0 .40239.14243.68113.36532.81113l.29198.16962c-.22289-.13-.36532-.41479-.36532-.81113-.0062-.79873.56345-1.77674 1.2569-2.17944.35292-.20437.67486-.22281.90394-.08646l-.29198-.16992c-.22908-.13635-.55102-.11156-.90394.08677-.69344.40238-1.26309 1.3807-1.2569 2.17943z" fill="#778c95"/></g><g><path d="m27.85024 25.34341c-.69574.40169-1.26315 1.37996-1.26088 2.17942.00228.80389.57337 1.12486 1.26911.72317.6997-.40397 1.26315-1.37996 1.26087-2.18385-.00226-.79947-.5694-1.12271-1.2691-.71874z" fill="#56707b"/></g></g></g><g><g enable-background="new"><g><path d="m26.84442 27.46631c0 .34117.12076.57751.30974.68773l.57755.33586c-.18898-.11022-.30974-.35168-.30974-.68773-.00525-.67722.47773-1.50644 1.06568-1.84787.29923-.17328.57219-.18891.76642-.07331l-.57755-.33611c-.19423-.1156-.46719-.09459-.76642.07357-.58795.34117-1.07094 1.17064-1.06568 1.84786z" fill="#fee182"/></g><g><path d="m28.49012 25.95406c-.5899.34058-1.07098 1.17002-1.06906 1.84785.00193.68159.48614.95373 1.07603.61315.59325-.34251 1.07098-1.17002 1.06905-1.85161-.00191-.67784-.48277-.95191-1.07602-.60939z" fill="#fed44c"/></g></g></g></g></g></svg>