<svg id="Capa_1" enable-background="new 0 0 511.378 511.378" height="512" viewBox="0 0 511.378 511.378" width="512" xmlns="http://www.w3.org/2000/svg"><g><path d="m511.375 438.223c-.011-21.437-5.296-40.281-13.961-50.429l-.084-165.735c-.002-4.141-3.359-7.496-7.5-7.496-.001 0-.002 0-.004 0-4.142.002-7.498 3.361-7.496 7.504l.082 161.399-453.5.229-.044-88.399c-.002-4.141-3.359-7.496-7.5-7.496-.001 0-.002 0-.004 0-4.142.002-7.498 3.361-7.496 7.504l.047 92.729c-8.657 10.156-13.926 29.008-13.915 50.449l.003 6.195c.007 14.663 2.543 28.563 7.142 39.14 5.461 12.563 13.479 19.479 22.581 19.479h.01l451.97-.229c9.104-.004 17.121-6.93 22.571-19.502 4.587-10.581 7.11-24.483 7.103-39.147zm-20.861 39.376c-3.135 7.229-6.686 10.467-8.816 10.468l-451.971.229c-2.129.001-5.684-3.232-8.826-10.459-3.742-8.607-5.892-20.696-5.898-33.167l-.003-6.196c-.01-19.038 4.661-33.214 9.58-39.776l462.175-.234c4.926 6.556 9.611 20.727 9.621 39.767l.003 6.194c.006 12.471-2.132 24.563-5.865 33.174z"/><path d="m267.386 250.241h.007l30.661-.016c7.968-.004 14.447-6.49 14.443-14.458l-.009-18.473c-.004-7.966-6.486-14.443-14.451-14.443-.002 0-.005 0-.007 0l-30.661.016c-7.968.004-14.447 6.49-14.443 14.458l.009 18.473c.004 7.965 6.486 14.443 14.451 14.443zm30.103-32.39.008 17.374-29.563.016-.008-17.374z"/><path d="m411.168 250.169 30.661-.016c7.968-.004 14.448-6.49 14.444-14.458l-.01-18.473c-.004-7.966-6.486-14.443-14.45-14.443-.002 0-.005 0-.007 0l-30.662.015c-7.968.004-14.447 6.49-14.443 14.459l.009 18.473c.004 7.966 6.486 14.443 14.451 14.443zm30.095-32.39.009 17.374-29.563.016-.008-17.375z"/><path d="m339.273 250.205h.007l30.661-.016c3.86-.002 7.488-1.507 10.216-4.237 2.729-2.73 4.23-6.36 4.228-10.221l-.009-18.473c-.004-7.966-6.486-14.443-14.451-14.443-.002 0-.005 0-.007 0l-30.661.016c-7.968.004-14.447 6.49-14.443 14.458l.009 18.473c.003 7.965 6.485 14.443 14.45 14.443zm30.103-32.39.008 17.374-29.563.016-.008-17.374z"/><path d="m313.429 276.011c-.004-7.966-6.486-14.443-14.451-14.443-.002 0-.005 0-.007 0l-30.661.016c-7.968.004-14.448 6.49-14.444 14.458l.01 18.473c.004 7.966 6.486 14.443 14.451 14.443h.007l30.661-.016c7.968-.004 14.447-6.49 14.443-14.458zm-44.553 17.946-.009-17.374 29.563-.016.008 17.374z"/><path d="m412.274 366.532h.007l30.661-.016c7.968-.004 14.447-6.49 14.443-14.459l-.037-72.148c-.004-7.966-6.486-14.443-14.451-14.443-.002 0-.005 0-.007 0l-30.661.016c-7.968.004-14.447 6.49-14.443 14.459l.036 72.147c.005 7.965 6.487 14.444 14.452 14.444zm30.076-86.066.036 71.051-29.563.016-.035-71.051z"/><path d="m385.844 275.974c-.004-7.966-6.486-14.443-14.451-14.443-.002 0-.005 0-.007 0l-30.662.015c-7.968.004-14.447 6.49-14.443 14.459l.009 18.473c.004 7.966 6.486 14.443 14.451 14.443h.007l30.661-.016c7.968-.004 14.448-6.49 14.444-14.458zm-44.554 17.947-.008-17.375 29.563-.015.008 17.374z"/><path d="m298.097 320.284c-.002 0-.005 0-.007 0l-30.661.016c-7.968.004-14.447 6.49-14.443 14.458l.009 18.473c.004 7.966 6.486 14.443 14.451 14.443h.007l30.661-.016c7.968-.004 14.447-6.49 14.443-14.458l-.009-18.473c-.004-7.965-6.486-14.443-14.451-14.443zm-30.103 32.39-.008-17.374 29.563-.016.008 17.374z"/><path d="m370.512 320.248c-.002 0-.005 0-.007 0l-30.661.015c-7.968.004-14.447 6.49-14.443 14.459l.009 18.473c.004 7.966 6.486 14.443 14.451 14.443h.007l30.661-.016c7.968-.004 14.447-6.49 14.443-14.458l-.009-18.473c-.004-7.966-6.486-14.443-14.451-14.443zm-30.103 32.389-.008-17.375 29.563-.015.008 17.374z"/><path d="m21.351 268.801h.004c4.142-.002 7.498-3.361 7.496-7.504l-.043-85.91c-.003-5.701 2.214-11.062 6.242-15.094s9.386-6.254 15.087-6.257l30.425-.016.012 24.144-15.571.008c-4.142.002-7.498 3.361-7.496 7.504.002 4.141 3.359 7.496 7.5 7.496h.004l174.412-.088c4.142-.002 7.498-3.361 7.496-7.504-.002-4.141-3.359-7.496-7.5-7.496-.001 0-.002 0-.004 0l-20.646.01-.012-24.144 242.2-.122h.012c5.696 0 11.052 2.217 15.081 6.241 4.032 4.028 6.254 9.387 6.257 15.088l.006 11.91c.002 4.141 3.359 7.496 7.5 7.496h.004c4.142-.002 7.498-3.361 7.496-7.504l-.006-11.91c-.005-9.708-3.79-18.832-10.656-25.691-6.862-6.855-15.981-10.63-25.681-10.63-.007 0-.014 0-.021 0l-58.561.03-.021-41.022 47.916-.024c4.589-.002 8.903-1.791 12.147-5.038s5.028-7.563 5.026-12.152l-.028-55.365c-.005-9.471-7.712-17.173-17.184-17.173-.001 0-.004 0-.006 0l-175.35.089c-9.474.005-17.177 7.717-17.173 17.19l.028 55.365c.002 4.59 1.792 8.903 5.039 12.147 3.245 3.241 7.556 5.025 12.142 5.025h.01l47.835-.024.021 41.022-104.04.052-.045-89.349c-.002-4.565-2.7-8.711-6.873-10.561-4.171-1.849-9.052-1.065-12.435 1.998l-19.099 17.292-20.485-18.51c-4.419-3.991-11.081-3.986-15.497.01l-22.255 20.15-22.254-20.106c-3.385-3.06-8.266-3.84-12.436-1.985-4.171 1.854-6.865 6.001-6.863 10.567l.046 90.564-30.425.016c-9.708.005-18.832 3.789-25.691 10.655-6.86 6.867-10.635 15.995-10.63 25.703l.043 85.91c.002 4.141 3.359 7.497 7.5 7.497zm253.574-185.901h-.001c-.746 0-1.25-.347-1.542-.638-.292-.292-.639-.796-.64-1.543l-.028-55.365c0-1.203.978-2.182 2.181-2.183l175.349-.089c1.203 0 2.183.978 2.184 2.181l.028 55.365c0 .747-.347 1.252-.638 1.543-.291.292-.795.64-1.542.64 0 0 0 0-.001 0zm62.843 14.968 49.599-.025.021 41.022-49.599.025zm-223.45-24.667c4.42 3.995 11.083 3.991 15.499-.008l22.255-20.15 20.483 18.508c4.419 3.995 11.083 3.991 15.499-.008l15.654-14.173.061 120.732-108.195.055-.062-121.948z"/><path d="m207.555 222.636c-.002 0-.006 0-.009 0l-110.631.056c-10.904.006-19.771 8.883-19.766 19.787l.043 84.824c.005 10.901 8.876 19.767 19.778 19.767h.009l110.63-.057c5.282-.003 10.248-2.062 13.981-5.799s5.788-8.704 5.786-13.987l-.043-84.824c-.005-10.902-8.876-19.767-19.778-19.767zm3.424 107.976c-.901.902-2.101 1.399-3.376 1.4l-110.629.057s-.001 0-.002 0c-2.633 0-4.776-2.142-4.777-4.774l-.045-84.825c-.001-2.634 2.141-4.777 4.774-4.779l110.63-.056h.002c2.633 0 4.776 2.142 4.777 4.774l.043 84.824c0 1.277-.496 2.477-1.397 3.379z"/><path d="m437.124 435.697c-.001 0-.002 0-.004 0l-297.336.15c-4.142.002-7.498 3.361-7.496 7.504.002 4.141 3.359 7.496 7.5 7.496h.004l297.336-.15c4.142-.002 7.498-3.361 7.496-7.504-.002-4.14-3.36-7.496-7.5-7.496z"/><path d="m80.026 416.174c-.005 0-.01 0-.015 0-15.405.008-27.933 12.218-27.925 27.219.003 7.318 2.948 14.183 8.291 19.328 5.265 5.069 12.241 7.861 19.647 7.861h.015c7.411-.004 14.391-2.803 19.654-7.882 5.337-5.15 8.275-12.019 8.271-19.337-.003-7.318-2.948-14.183-8.291-19.328-5.265-5.069-12.241-7.861-19.647-7.861zm9.25 35.732c-2.454 2.369-5.738 3.674-9.246 3.676-.002 0-.005 0-.007 0-3.505 0-6.787-1.302-9.242-3.666-2.382-2.294-3.694-5.323-3.696-8.531-.003-6.729 5.798-12.207 12.933-12.211h.007c3.505 0 6.787 1.302 9.242 3.666 2.382 2.294 3.694 5.323 3.696 8.531s-1.307 6.239-3.687 8.535z"/></g></svg>