<svg xmlns="http://www.w3.org/2000/svg" width="512" height="512" viewBox="0 0 50 50"><path fill="#485f69" d="m35.138 48.826-4.82-3.307a1 1 0 0 1-.095-.073c-1.682-1.44-.147-5.686-.066-5.91l4.82 3.306c-.082.224-1.617 4.47.066 5.91q.046.04.095.074"/><path fill="#485f69" d="m29.85 35.16 4.82 3.307c.785.539 1.522 1.83.306 4.375l-4.82-3.306c1.217-2.546.48-3.837-.305-4.375"/><path fill="#485f69" d="m33.466 38.024-4.82-3.306c-.662-.455-1.453-2.072-1.405-3.636.02-.606-.183-.955-.465-1.149l4.82 3.306c.282.194.484.543.465 1.15-.048 1.564.742 3.18 1.405 3.635"/><path fill="#40545d" d="m25.218 29.804-.081-.086 4.82 3.307.08.085c-1.445-.991-3.47-2.14-4.819-3.306"/><path fill="#40545d" d="M25.137 29.718c.251-1.01.017-2.403-.986-3.624l4.82 3.306c1.003 1.222 1.237 2.615.985 3.625z"/><path fill="#40545d" d="M24.15 26.094a2.2 2.2 0 0 0-.445-.413l4.82 3.306q.237.162.445.413l-2.41-1.653-1.25-.857-.883-.606c-.083-.057-.2-.12-.276-.19"/><path fill="#ee5550" d="m27.766 34.221-4.819-3.306c-.794-.545-.393-2-1.065-2.61a1.4 1.4 0 0 0-.145-.114l4.82 3.306q.08.055.145.114c.671.61.27 2.066 1.064 2.61"/><path fill="#778c95" d="m26.928 28.669-4.82-3.306 15.45-10.53 4.82 3.306z"/><path fill="#ee5550" d="m23.705 25.68 4.82 3.307c-.477-.327-1.03-.398-1.597-.318-.919.129-1.87.656-2.578 1.138l-4.82-3.306c.709-.483 1.66-1.01 2.578-1.138.567-.08 1.12-.009 1.597.318"/><path fill="#40545d" d="M42.377 18.14c-.306 3.494.277 6.24.68 6.558.64.514 1.014 3.39 1.315 8.205.309 4.808-.901 7.282-2.4 9.643-1.05 1.646-3.202 4.743-4.976 5.952-.76.517-1.449.69-1.953.254-1.683-1.44-.148-5.686-.067-5.91 1.723-3.606-.475-4.695-1.174-4.692-.691-.004-1.798-1.92-1.741-3.762.057-1.841-1.92-1.306-2.024-1.278l-.08-.085c.25-1.01.017-2.403-.987-3.625-.557-.676-1.288-.837-2.042-.731z"/><path fill="#ee5550" d="m23.227 30.68-4.82-3.306c.023-.02.453-.416 1.124-.873l4.82 3.306c-.671.457-1.101.853-1.124.874"/><path fill="#cb4844" d="M24.35 29.807c.708-.482 1.66-1.009 2.578-1.138.754-.106 1.485.055 2.042.731 1.004 1.222 1.238 2.615.986 3.625-.13.522-.39.943-.742 1.183-.234.159-.507.239-.809.216-1.636-.13-.897-2.081-1.703-2.813-.798-.726-3.34-.92-3.475-.93.023-.021.453-.417 1.123-.874"/><path fill="#4bb5e7" d="M21.83 33.514c.11.274.164.533.164.752 0 .302-.109.534-.273.643-.178.123-.451.096-.739-.068L6.2 26.307c-.288-.164-.547-.451-.725-.78-.178-.314-.288-.656-.274-.957 0-.205.055-.396.15-.533.74-.944 1.122-2.052 1.122-3.379 0-1.244-.328-2.666-1.026-4.362a1.9 1.9 0 0 1-.177-.752c0-.287.109-.52.287-.63.164-.123.437-.109.725.056l14.797 8.533c.274.164.547.466.711.78.178.315.288.67.288.957 0 .219-.055.41-.165.547-.724.93-1.107 2.051-1.121 3.378 0 1.245.328 2.667 1.04 4.349"/><path fill="#778c95" d="m26.12 31.02-14.788-8.535a.45.45 0 0 1-.198-.213c-.01-.016-.008-.037-.016-.056-1.643.883-3.73 2.002-5.186 2.778v.002c0 .075.03.182.075.258.046.09.107.152.198.213l14.787 8.534c.077.046.137.046.183.016l5.127-2.982c-.046.03-.107.03-.183-.015"/><path fill="#40545d" d="m11.058 22.021.046-.152c.79-1.004 1.232-2.236 1.232-3.757 0-1.415-.38-3.058-1.141-4.884l-.06-.228c0-.076.03-.137.075-.167l-5.127 2.966a.23.23 0 0 0-.076.182l.061.213c.76 1.841 1.141 3.485 1.141 4.9 0 1.506-.441 2.753-1.232 3.757l-.045.15c1.457-.775 3.543-1.894 5.186-2.777a.6.6 0 0 1-.06-.203"/><path fill="#f17572" d="m21.768 34.868-.045.046h-.03z"/><path fill="#56707b" d="M20.797 29.161c-.003 1.243.318 2.666 1.031 4.36.113.263.165.522.164.744 0 .297-.1.53-.274.643-.18.118-.445.102-.73-.063L6.198 26.307c-.292-.168-.55-.455-.729-.78a2 2 0 0 1-.276-.96c0-.207.054-.397.16-.534.734-.936 1.116-2.052 1.12-3.378.004-1.235-.325-2.67-1.03-4.352a1.9 1.9 0 0 1-.171-.755c0-.298.1-.53.28-.64.174-.114.44-.105.731.063l14.789 8.538c.285.165.55.463.722.776.178.317.277.664.276.961 0 .214-.048.4-.154.537-.734.936-1.116 2.052-1.12 3.378m.385 4.857c.047-.026.074-.094.074-.178l-.053-.222c-.772-1.835-1.146-3.472-1.142-4.882.004-1.51.44-2.755 1.227-3.766l.047-.149a.57.57 0 0 0-.265-.466L6.282 15.817c-.093-.054-.146-.046-.193-.02-.046.035-.08.092-.08.176l.053.221c.772 1.836 1.153 3.476 1.149 4.886-.005 1.517-.44 2.755-1.234 3.763l-.047.148c0 .084.033.187.08.267.046.08.105.153.191.203l14.789 8.538c.086.05.14.042.192.02"/><path fill="#485f69" d="M44.806 11.427c.014 3.324-4.335 12.829-11.693 17.082-2.339 1.353-4.773 2.981-7.194 3.966v-.014l-4.157 2.407c.137-.123.232-.329.232-.602 0-.219-.054-.478-.164-.752-.71-1.682-1.039-3.104-1.039-4.349 0-1.327.397-2.448 1.135-3.378a.93.93 0 0 0 .15-.547c0-.287-.109-.642-.273-.958-.192-.3-.451-.615-.739-.779l5.129-2.981c2.42-.971 4.54-1.805 6.879-3.16C40.43 13.11 44.779 8.31 44.779 5z"/><path fill="#778c95" d="M33.083 17.363c-2.34 1.353-4.787 2.516-7.208 3.5l-4.8 2.64-14.798-8.534c-.273-.164-.533-.164-.71-.082 0 0 8.615-5.812 10.94-7.153C26.545 1.936 38.402-.608 42.97 2.06c4.582 2.653.15 9.505-9.887 15.304"/><path fill="#56707b" d="M8.414 14.623c2.694-1.801 7.222-4.807 8.776-5.704 6.89-3.98 15.006-6.552 20.676-6.552 1.911 0 3.438.302 4.415.873 1.013.587 1.129 1.281 1.129 1.753-.002 2.324-3.449 6.816-11.012 11.185-2.14 1.24-4.509 2.39-7.038 3.419l-.074.03-4.195 2.306z"/><path fill="#778c95" d="M22.312 29.336c0 .403.142.681.365.811l.292.17c-.223-.13-.365-.415-.365-.811-.006-.799.563-1.777 1.257-2.18.353-.204.675-.222.904-.086l-.292-.17c-.23-.136-.551-.112-.904.087-.694.402-1.263 1.38-1.257 2.18"/><path fill="#56707b" d="M23.864 27.326c-.696.402-1.264 1.38-1.261 2.18.002.803.573 1.124 1.269.723.7-.404 1.263-1.38 1.26-2.184-.002-.8-.569-1.123-1.268-.719"/><path fill="#fee182" d="M22.858 29.45c0 .34.12.577.31.687l.577.336c-.189-.11-.31-.352-.31-.688-.005-.677.478-1.507 1.066-1.848.3-.173.572-.189.766-.073l-.577-.336c-.194-.116-.467-.095-.767.073-.587.341-1.07 1.17-1.065 1.848"/><path fill="#fed44c" d="M24.504 27.937c-.59.34-1.071 1.17-1.07 1.848.002.681.487.953 1.076.613.594-.343 1.071-1.17 1.07-1.852-.002-.678-.483-.952-1.076-.61"/><path fill="#778c95" d="M26.298 27.354c0 .402.143.68.366.81l.292.17c-.223-.13-.366-.415-.366-.81-.006-.8.564-1.778 1.257-2.18.353-.205.675-.223.904-.087l-.292-.17c-.229-.136-.55-.111-.904.087-.693.402-1.263 1.38-1.257 2.18"/><path fill="#56707b" d="M27.85 25.343c-.696.402-1.263 1.38-1.26 2.18.002.804.573 1.125 1.268.723.7-.404 1.264-1.38 1.261-2.184-.002-.8-.57-1.123-1.269-.719"/><path fill="#fee182" d="M26.844 27.466c0 .341.121.578.31.688l.578.336c-.19-.11-.31-.352-.31-.688-.005-.677.478-1.506 1.066-1.848.299-.173.572-.189.766-.073l-.577-.336c-.195-.116-.468-.095-.767.073-.588.342-1.07 1.171-1.066 1.848"/><path fill="#fed44c" d="M28.49 25.954c-.59.34-1.07 1.17-1.069 1.848.002.681.486.954 1.076.613.593-.342 1.071-1.17 1.07-1.852-.003-.677-.484-.951-1.077-.609"/></svg>