

<svg id="Capa_1" enable-background="new 0 0 497 497" height="512" viewBox="0 0 497 497" width="512" xmlns="http://www.w3.org/2000/svg"><g><path d="m359.78 430.833-99.279-4.667-99.279 4.667v45.339c0 11.503 9.325 20.828 20.828 20.828h156.902c11.503 0 20.828-9.325 20.828-20.828z" fill="#ffd15b"/><path d="m359.781 430.83v45.34c0 11.5-9.33 20.83-20.83 20.83h-26.67c11.51 0 20.83-9.33 20.83-20.83v-45.34l12.39-4.663z" fill="#ffc344"/><path d="m200.68 465.894c-4.143 0-7.5-3.358-7.5-7.5v-27.561c0-4.142 3.357-7.5 7.5-7.5s7.5 3.358 7.5 7.5v27.561c0 4.142-3.358 7.5-7.5 7.5z" fill="#ffefd2"/><path d="m394.022 28.772-133.52 8.061-157.523-8.061c-.001-15.89 12.881-28.772 28.772-28.772h233.499c15.89 0 28.772 12.882 28.772 28.772z" fill="#a79ba7"/><path d="m394.021 28.77-6.853 2.397-7.477-2.397c0-15.89-12.88-28.77-28.77-28.77h14.33c15.89 0 28.77 12.88 28.77 28.77z" fill="#918291"/><path d="m374.113 430.833h-14.333l-4.946-201.031 4.946-201.031h34.241v382.152c.001 10.997-8.913 19.91-19.908 19.91z" fill="#eaf6ff"/><path d="m394.021 28.77v382.15c0 11-8.91 19.91-19.91 19.91h-14.33c10.99 0 19.91-8.91 19.91-19.91v-382.15z" fill="#c8effe"/><path d="m359.78 430.833h-210.156c-8.126 0-15.036-5.927-16.274-13.958l-23.615-153.23c-4.497-29.182-6.756-58.666-6.756-88.193v-146.68h256.801z" fill="#7a6d79"/><path d="m315.362 172.231h-152.382c-5.467 0-9.899-4.432-9.899-9.899v-90.577c0-5.467 4.432-9.899 9.899-9.899h152.382c5.467 0 9.899 4.432 9.899 9.899v90.576c.001 5.468-4.431 9.9-9.899 9.9z" fill="#eaf6ff"/><path d="m325.262 71.76v90.57c0 5.47-4.43 9.9-9.9 9.9h-19c5.47 0 9.9-4.43 9.9-9.9v-90.57c0-5.47-4.43-9.9-9.9-9.9h19c5.47 0 9.9 4.43 9.9 9.9z" fill="#c8effe"/><g fill="#a79ba7"><path d="m191.603 238.203h-23.155c-2.688 0-4.867-2.179-4.867-4.867v-23.155c0-2.688 2.179-4.867 4.867-4.867h23.155c2.688 0 4.867 2.179 4.867 4.867v23.155c0 2.688-2.179 4.867-4.867 4.867z"/><path d="m250.748 238.203h-23.155c-2.688 0-4.867-2.179-4.867-4.867v-23.155c0-2.688 2.179-4.867 4.867-4.867h23.155c2.688 0 4.867 2.179 4.867 4.867v23.155c0 2.688-2.179 4.867-4.867 4.867z"/><path d="m309.894 238.203h-23.155c-2.688 0-4.867-2.179-4.867-4.867v-23.155c0-2.688 2.179-4.867 4.867-4.867h23.155c2.688 0 4.867 2.179 4.867 4.867v23.155c0 2.688-2.179 4.867-4.867 4.867z"/><path d="m191.603 300.058h-23.155c-2.688 0-4.867-2.179-4.867-4.867v-23.155c0-2.688 2.179-4.867 4.867-4.867h23.155c2.688 0 4.867 2.179 4.867 4.867v23.155c0 2.688-2.179 4.867-4.867 4.867z"/><path d="m250.748 300.058h-23.155c-2.688 0-4.867-2.179-4.867-4.867v-23.155c0-2.688 2.179-4.867 4.867-4.867h23.155c2.688 0 4.867 2.179 4.867 4.867v23.155c0 2.688-2.179 4.867-4.867 4.867z"/><path d="m309.894 300.058h-23.155c-2.688 0-4.867-2.179-4.867-4.867v-23.155c0-2.688 2.179-4.867 4.867-4.867h23.155c2.688 0 4.867 2.179 4.867 4.867v23.155c0 2.688-2.179 4.867-4.867 4.867z"/><path d="m191.603 361.914h-23.155c-2.688 0-4.867-2.179-4.867-4.867v-23.155c0-2.688 2.179-4.867 4.867-4.867h23.155c2.688 0 4.867 2.179 4.867 4.867v23.155c0 2.688-2.179 4.867-4.867 4.867z"/><path d="m250.748 361.914h-23.155c-2.688 0-4.867-2.179-4.867-4.867v-23.155c0-2.688 2.179-4.867 4.867-4.867h23.155c2.688 0 4.867 2.179 4.867 4.867v23.155c0 2.688-2.179 4.867-4.867 4.867z"/><path d="m309.894 361.914h-23.155c-2.688 0-4.867-2.179-4.867-4.867v-23.155c0-2.688 2.179-4.867 4.867-4.867h23.155c2.688 0 4.867 2.179 4.867 4.867v23.155c0 2.688-2.179 4.867-4.867 4.867z"/></g><g><g><path d="m296.834 149.667h-56.666c-4.143 0-7.5-3.358-7.5-7.5s3.357-7.5 7.5-7.5h56.666c4.143 0 7.5 3.358 7.5 7.5s-3.357 7.5-7.5 7.5z" fill="#62dbfb"/></g></g><g><g><path d="m296.834 124.545h-42.333c-4.143 0-7.5-3.358-7.5-7.5s3.357-7.5 7.5-7.5h42.333c4.143 0 7.5 3.358 7.5 7.5s-3.357 7.5-7.5 7.5z" fill="#62dbfb"/></g></g></g></svg>