

<svg xmlns="http://www.w3.org/2000/svg" height="601pt" version="1.1" viewBox="-10 1 601 601.8" width="601pt">
<g id="surface1">
<path d="M 82.03125 173.457031 L 102.4375 173.457031 L 102.4375 193.863281 L 82.03125 193.863281 Z M 82.03125 173.457031 " style=" stroke:none;fill-rule:nonzero;fill:rgb(52.941176%,80.784314%,85.098039%);fill-opacity:1;" />
<path d="M 82.03125 132.644531 L 102.4375 132.644531 L 102.4375 153.050781 L 82.03125 153.050781 Z M 82.03125 132.644531 " style=" stroke:none;fill-rule:nonzero;fill:rgb(52.941176%,80.784314%,85.098039%);fill-opacity:1;" />
<path d="M 82.03125 91.832031 L 102.4375 91.832031 L 102.4375 112.238281 L 82.03125 112.238281 Z M 82.03125 91.832031 " style=" stroke:none;fill-rule:nonzero;fill:rgb(52.941176%,80.784314%,85.098039%);fill-opacity:1;" />
<path d="M 122.84375 91.832031 L 143.25 91.832031 L 143.25 112.238281 L 122.84375 112.238281 Z M 122.84375 91.832031 " style=" stroke:none;fill-rule:nonzero;fill:rgb(52.941176%,80.784314%,85.098039%);fill-opacity:1;" />
<path d="M 163.65625 91.832031 L 184.0625 91.832031 L 184.0625 112.238281 L 163.65625 112.238281 Z M 163.65625 91.832031 " style=" stroke:none;fill-rule:nonzero;fill:rgb(52.941176%,80.784314%,85.098039%);fill-opacity:1;" />
<path d="M 520.777344 387.730469 L 541.183594 387.730469 L 541.183594 408.136719 L 520.777344 408.136719 Z M 520.777344 387.730469 " style=" stroke:none;fill-rule:nonzero;fill:rgb(52.941176%,80.784314%,85.098039%);fill-opacity:1;" />
<path d="M 520.777344 346.914062 L 541.183594 346.914062 L 541.183594 367.320312 L 520.777344 367.320312 Z M 520.777344 346.914062 " style=" stroke:none;fill-rule:nonzero;fill:rgb(52.941176%,80.784314%,85.098039%);fill-opacity:1;" />
<path d="M 520.777344 306.101562 L 541.183594 306.101562 L 541.183594 326.507812 L 520.777344 326.507812 Z M 520.777344 306.101562 " style=" stroke:none;fill-rule:nonzero;fill:rgb(52.941176%,80.784314%,85.098039%);fill-opacity:1;" />
<path d="M 520.777344 428.542969 L 541.183594 428.542969 L 541.183594 448.949219 L 520.777344 448.949219 Z M 520.777344 428.542969 " style=" stroke:none;fill-rule:nonzero;fill:rgb(52.941176%,80.784314%,85.098039%);fill-opacity:1;" />
<path d="M 520.777344 469.355469 L 541.183594 469.355469 L 541.183594 489.761719 L 520.777344 489.761719 Z M 520.777344 469.355469 " style=" stroke:none;fill-rule:nonzero;fill:rgb(52.941176%,80.784314%,85.098039%);fill-opacity:1;" />
<path d="M 479.960938 469.355469 L 500.371094 469.355469 L 500.371094 489.761719 L 479.960938 489.761719 Z M 479.960938 469.355469 " style=" stroke:none;fill-rule:nonzero;fill:rgb(52.941176%,80.784314%,85.098039%);fill-opacity:1;" />
<path d="M 439.148438 469.355469 L 459.554688 469.355469 L 459.554688 489.761719 L 439.148438 489.761719 Z M 439.148438 469.355469 " style=" stroke:none;fill-rule:nonzero;fill:rgb(52.941176%,80.784314%,85.098039%);fill-opacity:1;" />
<path d="M 398.335938 469.355469 L 418.742188 469.355469 L 418.742188 489.761719 L 398.335938 489.761719 Z M 398.335938 469.355469 " style=" stroke:none;fill-rule:nonzero;fill:rgb(52.941176%,80.784314%,85.098039%);fill-opacity:1;" />
<path d="M 551.386719 0 L 245.285156 0 C 228.378906 0 214.675781 13.703125 214.675781 30.609375 L 214.675781 224.472656 L 581.996094 224.472656 L 581.996094 30.609375 C 581.996094 13.703125 568.292969 0 551.386719 0 Z M 551.386719 0 " style=" stroke:none;fill-rule:nonzero;fill:rgb(26.27451%,59.607843%,81.960784%);fill-opacity:1;" />
<path d="M 551.386719 0 L 326.910156 224.472656 L 581.996094 224.472656 L 581.996094 30.609375 C 581.996094 13.703125 568.292969 0 551.386719 0 Z M 551.386719 0 " style=" stroke:none;fill-rule:nonzero;fill:rgb(24.313725%,54.901961%,78.039216%);fill-opacity:1;" />
<path d="M 214.675781 244.882812 C 214.675781 261.789062 228.378906 275.492188 245.285156 275.492188 L 551.386719 275.492188 C 568.292969 275.492188 581.996094 261.789062 581.996094 244.882812 L 581.996094 224.472656 L 214.675781 224.472656 Z M 214.675781 244.882812 " style=" stroke:none;fill-rule:nonzero;fill:rgb(85.490196%,86.666667%,87.45098%);fill-opacity:1;" />
<path d="M 457.292969 357.117188 L 439.148438 275.492188 L 357.523438 275.492188 L 339.378906 357.117188 L 306.503906 357.117188 L 306.503906 377.527344 L 490.167969 377.527344 L 490.167969 357.117188 Z M 457.292969 357.117188 " style=" stroke:none;fill-rule:nonzero;fill:rgb(85.490196%,86.666667%,87.45098%);fill-opacity:1;" />
<path d="M 443.679688 295.898438 L 439.148438 275.492188 L 357.523438 275.492188 L 352.992188 295.898438 Z M 443.679688 295.898438 " style=" stroke:none;fill-rule:nonzero;fill:rgb(78.039216%,79.215686%,80%);fill-opacity:1;" />
<path d="M 459.554688 142.847656 L 459.554688 173.457031 C 459.554688 179.089844 454.984375 183.660156 449.351562 183.660156 L 296.300781 183.660156 L 296.300781 193.863281 C 296.300781 199.496094 300.875 204.066406 306.503906 204.066406 L 469.757812 204.066406 C 475.390625 204.066406 479.960938 199.496094 479.960938 193.863281 L 479.960938 142.847656 Z M 459.554688 142.847656 " style=" stroke:none;fill-rule:nonzero;fill:rgb(24.313725%,54.901961%,78.039216%);fill-opacity:1;" />
<path d="M 357.523438 224.472656 L 214.675781 224.472656 L 214.675781 244.882812 C 214.675781 261.789062 228.378906 275.492188 245.285156 275.492188 L 388.132812 275.492188 L 388.132812 255.085938 C 388.132812 238.179688 374.429688 224.472656 357.523438 224.472656 Z M 357.523438 224.472656 " style=" stroke:none;fill-rule:nonzero;fill:rgb(78.039216%,79.215686%,80%);fill-opacity:1;" />
<path d="M 347.320312 40.8125 L 510.574219 40.8125 C 516.203125 40.8125 520.777344 45.386719 520.777344 51.015625 L 520.777344 132.644531 C 520.777344 138.277344 516.203125 142.847656 510.574219 142.847656 L 347.320312 142.847656 C 341.6875 142.847656 337.117188 138.277344 337.117188 132.644531 L 337.117188 51.015625 C 337.117188 45.386719 341.6875 40.8125 347.320312 40.8125 Z M 347.320312 40.8125 " style=" stroke:none;fill-rule:nonzero;fill:rgb(52.941176%,80.784314%,85.098039%);fill-opacity:1;" />
<path d="M 469.757812 102.035156 L 459.554688 102.035156 L 459.554688 142.847656 L 479.960938 142.847656 L 479.960938 112.238281 C 479.960938 106.605469 475.390625 102.035156 469.757812 102.035156 Z M 469.757812 102.035156 " style=" stroke:none;fill-rule:nonzero;fill:rgb(44.313725%,76.862745%,81.960784%);fill-opacity:1;" />
<path d="M 286.097656 81.628906 L 449.351562 81.628906 C 454.984375 81.628906 459.554688 86.199219 459.554688 91.832031 L 459.554688 173.457031 C 459.554688 179.089844 454.984375 183.660156 449.351562 183.660156 L 286.097656 183.660156 C 280.464844 183.660156 275.894531 179.089844 275.894531 173.457031 L 275.894531 91.832031 C 275.894531 86.199219 280.464844 81.628906 286.097656 81.628906 Z M 286.097656 81.628906 " style=" stroke:none;fill-rule:nonzero;fill:rgb(99.215686%,71.372549%,18.431373%);fill-opacity:1;" />
<path d="M 337.117188 224.472656 L 31.011719 224.472656 C 14.105469 224.472656 0.402344 238.179688 0.402344 255.085938 L 0.402344 448.949219 L 367.726562 448.949219 L 367.726562 255.085938 C 367.726562 238.179688 354.023438 224.472656 337.117188 224.472656 Z M 337.117188 224.472656 " style=" stroke:none;fill-rule:nonzero;fill:rgb(26.27451%,59.607843%,81.960784%);fill-opacity:1;" />
<path d="M 337.117188 224.472656 L 275.894531 224.472656 L 51.421875 448.949219 L 367.726562 448.949219 L 367.726562 255.085938 C 367.726562 238.179688 354.023438 224.472656 337.117188 224.472656 Z M 337.117188 224.472656 " style=" stroke:none;fill-rule:nonzero;fill:rgb(24.313725%,54.901961%,78.039216%);fill-opacity:1;" />
<path d="M 0.402344 469.355469 C 0.402344 486.261719 14.105469 499.964844 31.011719 499.964844 L 337.117188 499.964844 C 354.023438 499.964844 367.726562 486.261719 367.726562 469.355469 L 367.726562 448.949219 L 0.402344 448.949219 Z M 0.402344 469.355469 " style=" stroke:none;fill-rule:nonzero;fill:rgb(85.490196%,86.666667%,87.45098%);fill-opacity:1;" />
<path d="M 243.019531 581.59375 L 224.878906 499.964844 L 143.25 499.964844 L 125.109375 581.59375 L 92.234375 581.59375 L 92.234375 602 L 275.894531 602 L 275.894531 581.59375 Z M 243.019531 581.59375 " style=" stroke:none;fill-rule:nonzero;fill:rgb(85.490196%,86.666667%,87.45098%);fill-opacity:1;" />
<path d="M 133.046875 265.289062 L 296.300781 265.289062 C 301.933594 265.289062 306.503906 269.859375 306.503906 275.492188 L 306.503906 357.117188 C 306.503906 362.75 301.933594 367.320312 296.300781 367.320312 L 133.046875 367.320312 C 127.414062 367.320312 122.84375 362.75 122.84375 357.117188 L 122.84375 275.492188 C 122.84375 269.859375 127.414062 265.289062 133.046875 265.289062 Z M 133.046875 265.289062 " style=" stroke:none;fill-rule:nonzero;fill:rgb(52.941176%,80.784314%,85.098039%);fill-opacity:1;" />
<path d="M 71.828125 306.101562 L 235.082031 306.101562 C 240.714844 306.101562 245.285156 310.671875 245.285156 316.304688 L 245.285156 397.933594 C 245.285156 403.5625 240.714844 408.136719 235.082031 408.136719 L 71.828125 408.136719 C 66.195312 408.136719 61.625 403.5625 61.625 397.933594 L 61.625 316.304688 C 61.625 310.671875 66.195312 306.101562 71.828125 306.101562 Z M 71.828125 306.101562 " style=" stroke:none;fill-rule:nonzero;fill:rgb(52.941176%,80.784314%,85.098039%);fill-opacity:1;" />
<path d="M 229.410156 520.371094 L 224.878906 499.964844 L 143.25 499.964844 L 138.71875 520.371094 Z M 229.410156 520.371094 " style=" stroke:none;fill-rule:nonzero;fill:rgb(78.039216%,79.215686%,80%);fill-opacity:1;" />
<path d="M 255.488281 326.507812 L 245.285156 326.507812 L 245.285156 367.320312 L 265.691406 367.320312 L 265.691406 336.710938 C 265.691406 331.078125 261.121094 326.507812 255.488281 326.507812 Z M 255.488281 326.507812 " style=" stroke:none;fill-rule:nonzero;fill:rgb(44.313725%,76.862745%,81.960784%);fill-opacity:1;" />
<path d="M 71.828125 306.101562 L 235.082031 306.101562 C 240.714844 306.101562 245.285156 310.671875 245.285156 316.304688 L 245.285156 397.933594 C 245.285156 403.5625 240.714844 408.136719 235.082031 408.136719 L 71.828125 408.136719 C 66.195312 408.136719 61.625 403.5625 61.625 397.933594 L 61.625 316.304688 C 61.625 310.671875 66.195312 306.101562 71.828125 306.101562 Z M 71.828125 306.101562 " style=" stroke:none;fill-rule:nonzero;fill:rgb(99.215686%,71.372549%,18.431373%);fill-opacity:1;" />
</g>
</svg>