<!--
  - Copyright (c) 2023. Selldone® Business OS™
  -
  - Author: M.Pajuhaan
  - Web: https://selldone.com
  - ━━━━━━━━━━━━━━━━━━━━━━━━━━━━━━━━━━━━━━━━━━━━━━━━━━━━━━
  -
  - All rights reserved. In the weave of time, where traditions and innovations intermingle, this content was crafted.
  - From the essence of thought, through the corridors of creativity, each word, and sentiment has been molded.
  - Not just to exist, but to inspire. Like an artist's stroke or a sculptor's chisel, every nuance is deliberate.
  - Our journey is not just about reaching a destination, but about creating a masterpiece.
  - Tread carefully, for you're treading on dreams.
  -->

<svg id="Layer_1" enable-background="new 0 0 50 50" height="512" viewBox="0 0 50 50" width="512" xmlns="http://www.w3.org/2000/svg"><g><g><g><g enable-background="new"><g><path d="m40.30847 32.87506-14.0967-8.1921c-.15168-.08815-.29339-.19375-.42405-.31623l14.09668 8.19212c.13068.12246.27239.22806.42407.31621z" fill="#ffd69a"/></g><g><path d="m33.03691 12.91867 14.09669 8.19212c-.8745-.50822-2.08374-.43667-3.41601.33251-.27364.15799-.5472.34725-.81157.55229l-14.09671-8.19209c.26439-.20505.53795-.39431.81159-.5523 1.33227-.76919 2.5415-.84074 3.41601-.33253z" fill="#56707b"/></g><g><path d="m39.20505 21.55478-14.0967-8.19209c1.70192.98903 2.94477.78889 3.70098.4408l14.09668 8.19212c-.7562.34807-1.99905.54821-3.70096-.44083z" fill="#56707b"/></g><g><path d="m17.32614 47.04797-14.08648-8.18614c-.08572-.0572-.14283-.1144-.18573-.21486-.29996-.67108-.61431-1.77116-.64291-1.84232l14.10077 8.20009c.0143.0572.34295 1.17194.64291 1.84301.04291.08581.10002.15696.17144.20022z" fill="#40545d"/></g><g><path d="m48.42789 25.4752c-.37146 2.37178-1.91443 4.98632-3.80017 6.45753-.30005.22881-.60009.44296-.88575.59992-.77153.44297-1.48586.65712-2.12877.67177-.68572 0-1.27143-.21486-1.72861-.64317-3.15735.34321-6.01465 1.4426-8.47189 2.8573-5.51466 3.20051-9.1005 7.95803-9.92914 9.15787-.12862.18556-.28575.32856-.44288.44297l-3.04303 1.94277c-.38576.22881-.71432.1716-.84294-.11441-.29996-.67107-.62861-1.78581-.64291-1.84301-.70003.40041-.91427 0-.92857-.01395-1.22862-1.85767.21425-4.85797.28575-5.02888 12.75784-12.08633 22.50124-18.27249 23.01554-18.60106 1.87153 1.21379 3.21446.99964 4.0145.62852.27145-.2002.5429-.38576.81434-.54272 3.00013-1.7293 5.37173.05651 4.71453 4.02855z" fill="#485f69"/></g><g><path d="m15.72605 45.11915-14.10077-8.18614c-.08572-.0572-.12853-.12836-.12853-.12836-1.22871-1.87162.19994-4.87192.27145-5.02888l14.10077 8.18614c-.0715.17091-1.51437 3.17122-.28575 5.02888.0143.01396.04282.08511.14283.12836z" fill="#56707b"/></g><g><path d="m15.86763 39.96881-14.09671-8.19211c12.75666-12.08968 22.5036-18.28522 23.0166-18.61131l14.09669 8.19211c-.51299.32609-10.25993 6.52163-23.01658 18.61131z" fill="#778c95"/><path d="m35.62714 21.83242c-.65712.45692-1.41435.99964-2.2858 1.64281-1.87153 1.34285-4.21454 3.11471-6.90041 5.30024l-7.88609-4.2148-3.4288-1.82837c.40006-.31461.78574-.62852 1.1715-.91453.88576-.71432 1.7144-1.3568 2.48584-1.94277.54289-.40041 1.05719-.78548 1.52867-1.14264 2.08586-1.54305 3.64304-2.60059 4.5145-3.17191l4.32885 2.51409 1.58578.91453 2.67157 1.55701z" fill="#4bb5e7"/></g></g></g><g><path d="m14.36882 41.70448v1.22844l-12.41489-7.17115v-1.22914l.37137.21485z" fill="#485f69"/></g><g><path d="m14.36882 41.70448v.72897l-12.04352-6.95769v-.72828z" fill="#35484f"/></g><g><g enable-background="new"><g><path d="m17.37378 25.28335.09157.65816-1.90324 1.47084-.09157-.65816z" fill="#40545d"/></g><g><path d="m15.47054 26.75419.09157.65816-3.72823-1.93165-.09157-.65815z" fill="#485f69"/></g><g><path d="m17.37378 25.28335-1.90324 1.47084-3.72823-1.93164 1.90324-1.47084z" fill="#56707b"/></g></g><g enable-background="new"><g><path d="m21.6209 27.48384.09158.65816-1.90324 1.47084-.09157-.65816z" fill="#40545d"/></g><g><path d="m19.71767 28.95468.09157.65816-3.72822-1.93164-.09157-.65816z" fill="#485f69"/></g><g><path d="m21.6209 27.48384-1.90323 1.47084-3.72822-1.93164 1.90323-1.47083z" fill="#56707b"/></g></g><g enable-background="new"><g><path d="m25.86804 29.68434.09158.65816-1.90324 1.47084-.09157-.65816z" fill="#40545d"/></g><g><path d="m23.96481 31.15518.09157.65816-3.72823-1.93165-.09157-.65815z" fill="#485f69"/></g><g><path d="m25.86804 29.68434-1.90323 1.47084-3.72823-1.93164 1.90323-1.47084z" fill="#56707b"/></g></g><g enable-background="new"><g><path d="m14.69236 27.35558.09157.65815-1.90352 1.47106-.09158-.65816z" fill="#40545d"/></g><g><path d="m12.78883 28.82663.09158.65816-3.72823-1.93165-.09157-.65815z" fill="#485f69"/></g><g><path d="m14.69236 27.35558-1.90353 1.47105-3.72822-1.93164 1.90352-1.47106z" fill="#56707b"/></g></g><g enable-background="new"><g><path d="m18.93949 29.55607.09157.65815-1.90353 1.47106-.09157-.65815z" fill="#40545d"/></g><g><path d="m17.03596 31.02713.09157.65815-3.72822-1.93164-.09157-.65815z" fill="#485f69"/></g><g><path d="m18.93949 29.55607-1.90353 1.47106-3.72822-1.93164 1.90353-1.47106z" fill="#56707b"/></g></g><g enable-background="new"><g><path d="m23.18662 31.75657.09157.65815-1.90352 1.47106-.09157-.65816z" fill="#40545d"/></g><g><path d="m21.2831 33.22762.09157.65816-3.72823-1.93164-.09157-.65816z" fill="#485f69"/></g><g><path d="m23.18662 31.75657-1.90352 1.47105-3.72823-1.93164 1.90352-1.47106z" fill="#56707b"/></g></g><g enable-background="new"><g><path d="m12.00552 29.43199.09157.65815-1.90324 1.47084-.09157-.65816z" fill="#40545d"/></g><g><path d="m10.10228 30.90282.09157.65816-3.72823-1.93164-.09157-.65816z" fill="#485f69"/></g><g><path d="m12.00552 29.43199-1.90324 1.47083-3.72823-1.93164 1.90324-1.47084z" fill="#56707b"/></g></g><g enable-background="new"><g><path d="m16.25265 31.63248.09157.65816-1.90324 1.47083-.09157-.65815z" fill="#40545d"/></g><g><path d="m14.34941 33.10332.09157.65815-3.72822-1.93164-.09157-.65815z" fill="#485f69"/></g><g><path d="m16.25265 31.63248-1.90324 1.47084-3.72822-1.93164 1.90324-1.47084z" fill="#56707b"/></g></g><g enable-background="new"><g><path d="m20.49978 33.83298.09157.65815-1.90323 1.47084-.09158-.65816z" fill="#40545d"/></g><g><path d="m18.59654 35.30381.09158.65816-3.72823-1.93164-.09158-.65816z" fill="#485f69"/></g><g><path d="m20.49978 33.83298-1.90324 1.47083-3.72823-1.93164 1.90324-1.47084z" fill="#56707b"/></g></g><g enable-background="new"><g><path d="m9.3241 31.50421.09157.65815-1.90352 1.47106-.09158-.65815z" fill="#cb4844"/></g><g><path d="m7.42057 32.97527.09158.65815-3.72823-1.93164-.09158-.65816z" fill="#ee5550"/></g><g><path d="m9.3241 31.50421-1.90353 1.47106-3.72823-1.93165 1.90353-1.47105z" fill="#f17572"/></g></g><g enable-background="new"><g><path d="m13.57122 33.7047.09158.65816-1.90353 1.47106-.09157-.65816z" fill="#269dd6"/></g><g><path d="m11.6677 35.17576.09157.65816-3.72822-1.93164-.09157-.65816z" fill="#4bb5e7"/></g><g><path d="m13.57122 33.7047-1.90352 1.47106-3.72822-1.93164 1.90352-1.47106z" fill="#78cfe2"/></g></g><g enable-background="new"><g><path d="m17.81836 35.9052.09157.65816-1.90352 1.47106-.09157-.65816z" fill="#d8b441"/></g><g><path d="m15.91484 37.37626.09157.65816-3.72823-1.93165-.09157-.65816z" fill="#fed44c"/></g><g><path d="m17.81836 35.9052-1.90352 1.47106-3.72823-1.93165 1.90352-1.47105z" fill="#fee182"/></g></g></g><g><path d="m43.4835 21.2808.15355-.07657c1.1953-.69075 2.39066-.72395 3.30088-.2083l-13.7957-8.01647c-.91023-.52636-2.10552-.48246-3.30089.2083l-.15354.07657c-.00803.00482-.03715.0257-.05542.03802l13.80139 8.0138c.01553-.01126.0425-.03054.04973-.03535z" fill="#485f69"/><path d="m43.18739 20.25002c-.19739.14243-.65796.4937-.65796.4937l-11.72304-6.81007c.01098-.01124.21934-.18688.23032-.18688.02189-.02142.1425-.10924.41666-.30682z" fill="#40545d"/><g><g enable-background="new"><g><path d="m42.74982 20.37631-11.33072-6.65481c-.01125-3.97046 2.79164-8.82864 6.24991-10.82527l11.33072 6.65482c-3.45828 1.99662-6.26116 6.85481-6.24991 10.82526z" fill="#dde4e7"/></g><g><path d="m48.99973 9.55104.00027.09492c-3.41106 1.96938-6.17867 6.76315-6.16756 10.68265l-.08262.0477c-.01125-3.97045 2.79163-8.82864 6.24991-10.82527z" fill="#cfd8dd"/></g></g></g></g><g><path d="m14.58551 22.44281.53801.28741c4.72325-3.77811 8.20759-6.1778 9.70304-7.16837v-.71572c-1.55309 1.02893-5.23668 3.56116-10.24105 7.59668z" fill="#485f69"/><path d="m24.82655 14.84613v.71572l10.79545 6.27406c.19297-.13394.38969-.27136.56234-.38925z" fill="#56707b"/></g><g fill="#61c4f0"><path d="m30.74118 18.98907-11.9578.88593c.54289-.40041 1.05719-.78548 1.52867-1.14264l8.84335-.65782z"/><path d="m35.62714 21.83242c-.65712.45692-1.41435.99964-2.2858 1.64281l-14.7865 1.08544-3.4288-1.82837c.40006-.31461.78574-.62852 1.1715-.91453l17.11521-1.27169z"/></g></g><path d="m39.88458 32.56126c-3.15735.34321-6.01465 1.4426-8.47189 2.8573-5.51466 3.20051-9.1005 7.95803-9.92914 9.15787-.12862.18556-.28575.32856-.44288.44297l-3.04303 1.94277c-.38576.22881-.71432.1716-.84294-.11441-.29996-.67107-.62861-1.78581-.64291-1.84301.00001 0 10.37202-16.05767 23.37279-12.44349z" fill="#778c95"/></g></svg>