

<svg id="grid" viewBox="0 0 32 32" xmlns="http://www.w3.org/2000/svg"><g><path d="m30.261 13.558a5.075 5.075 0 0 1 -.841-1.364 5.284 5.284 0 0 1 -.011-1.681 4.8 4.8 0 0 0 -.452-3.2 4.831 4.831 0 0 0 -2.806-1.641 5.251 5.251 0 0 1 -1.532-.637 5.208 5.208 0 0 1 -.963-1.322 4.839 4.839 0 0 0 -2.277-2.359 4.767 4.767 0 0 0 -3.178.317 5.106 5.106 0 0 1 -1.673.392 5.365 5.365 0 0 1 -1.638-.517 4.769 4.769 0 0 0 -3.146-.556 4.832 4.832 0 0 0 -2.444 2.179 5.168 5.168 0 0 1 -1.065 1.246 5.224 5.224 0 0 1 -1.576.52 4.823 4.823 0 0 0 -2.922 1.424 4.8 4.8 0 0 0 -.693 3.155 5.271 5.271 0 0 1 -.138 1.676 5.076 5.076 0 0 1 -.941 1.3 4.862 4.862 0 0 0 -1.552 2.92 4.867 4.867 0 0 0 1.326 3.032 5.075 5.075 0 0 1 .841 1.364 5.284 5.284 0 0 1 .011 1.681 4.8 4.8 0 0 0 .452 3.2 4.831 4.831 0 0 0 2.806 1.641 5.251 5.251 0 0 1 1.532.637 5.208 5.208 0 0 1 .963 1.322 4.839 4.839 0 0 0 2.277 2.359 4.767 4.767 0 0 0 3.178-.317 4.942 4.942 0 0 1 1.673-.392 5.365 5.365 0 0 1 1.638.517 6.265 6.265 0 0 0 2.388.66 2.768 2.768 0 0 0 .758-.1 4.832 4.832 0 0 0 2.444-2.183 5.168 5.168 0 0 1 1.061-1.246 5.224 5.224 0 0 1 1.576-.52 4.823 4.823 0 0 0 2.922-1.424 4.8 4.8 0 0 0 .693-3.155 5.271 5.271 0 0 1 .138-1.676 5.076 5.076 0 0 1 .941-1.3 4.862 4.862 0 0 0 1.552-2.924 4.867 4.867 0 0 0 -1.322-3.028z" fill="#f9a825"/><path d="m27.781 13.982a4.185 4.185 0 0 1 -.694-1.126 4.345 4.345 0 0 1 -.009-1.389 3.968 3.968 0 0 0 -.378-2.642 3.983 3.983 0 0 0 -2.318-1.356 4.341 4.341 0 0 1 -1.266-.527 4.266 4.266 0 0 1 -.8-1.092 4 4 0 0 0 -1.872-1.95 3.941 3.941 0 0 0 -2.626.263 4.259 4.259 0 0 1 -1.382.324 4.451 4.451 0 0 1 -1.353-.428 3.938 3.938 0 0 0 -2.6-.46 3.991 3.991 0 0 0 -2.022 1.8 4.288 4.288 0 0 1 -.877 1.029 4.326 4.326 0 0 1 -1.3.43 3.981 3.981 0 0 0 -2.414 1.177 3.966 3.966 0 0 0 -.57 2.606 4.375 4.375 0 0 1 -.114 1.385 4.213 4.213 0 0 1 -.781 1.074 4.017 4.017 0 0 0 -1.282 2.415 4.027 4.027 0 0 0 1.1 2.506 4.185 4.185 0 0 1 .694 1.126 4.345 4.345 0 0 1 .009 1.389 3.968 3.968 0 0 0 .374 2.639 3.983 3.983 0 0 0 2.318 1.356 4.341 4.341 0 0 1 1.266.527 4.266 4.266 0 0 1 .8 1.092 4 4 0 0 0 1.872 1.95 3.941 3.941 0 0 0 2.626-.263 4.117 4.117 0 0 1 1.382-.324 4.451 4.451 0 0 1 1.353.428 5.185 5.185 0 0 0 1.972.545 2.266 2.266 0 0 0 .627-.085 3.991 3.991 0 0 0 2.022-1.8 4.288 4.288 0 0 1 .877-1.029 4.326 4.326 0 0 1 1.3-.43 3.981 3.981 0 0 0 2.413-1.176 3.968 3.968 0 0 0 .573-2.607 4.371 4.371 0 0 1 .114-1.384 4.213 4.213 0 0 1 .785-1.075 4.017 4.017 0 0 0 1.282-2.415 4.027 4.027 0 0 0 -1.101-2.503z" fill="#e89721"/><path d="m23.136 11.864a1 1 0 0 0 -1.024-.241l-3.524 1.177-1.731-2.886a1.039 1.039 0 0 0 -1.714 0l-1.731 2.886-3.524-1.177a1 1 0 0 0 -1.265 1.265l2.143 6.428a1 1 0 0 0 .948.684h8.572a1 1 0 0 0 .948-.684l2.143-6.428a1 1 0 0 0 -.241-1.024z" fill="#fbc02d"/></g></svg>