<svg id="Capa_1" enable-background="new 0 0 512.003 512.003" height="512" viewBox="0 0 512.003 512.003" width="512"
     xmlns="http://www.w3.org/2000/svg">
    <path d="m511.159 410.98-47.915-271.736c-3.3-18.715-15.773-34.179-33.366-41.365l-114.333-46.703c-4.924-2.011-10.054-3.255-15.223-3.768l-6.173-35.009c-1.438-8.158-9.213-13.604-17.376-12.167-8.159 1.438-13.606 9.218-12.167 17.376l6.174 35.013c-4.612 2.219-8.945 5.095-12.838 8.601l-12.95 11.663-1.92-1.742c-3.939-3.574-8.334-6.498-13.016-8.748l7.897-44.787c1.438-8.158-4.009-15.938-12.167-17.376-8.157-1.443-15.938 4.008-17.376 12.167l-7.898 44.79c-5.093.508-10.148 1.729-15.006 3.693l-115.364 46.621c-17.697 7.152-30.242 22.644-33.557 41.443l-35.741 202.702c-5.266 29.867 14.748 58.449 44.614 63.715l146.08 25.758 4.483 25.427c4.699 26.651 27.961 45.455 54.137 45.455 3.159 0 6.362-.274 9.578-.841l206.81-36.466c29.865-5.267 49.879-33.849 44.613-63.716zm-49.823 34.171-206.81 36.466c-6.577 1.159-13.21-.311-18.681-4.142-5.47-3.83-9.121-9.562-10.281-16.138l-2.587-14.673 29.289 5.165c3.227.569 6.458.85 9.667.85 11.181 0 22.08-3.414 31.43-9.961 12.035-8.426 20.067-21.035 22.618-35.502l35.759-202.8c3.3-18.716-3.133-37.513-17.206-50.282l-67.214-60.987 10.695-9.632c4.656-4.192 10.69-6.403 16.786-6.403 3.178 0 6.374.602 9.398 1.837l114.333 46.703c7.997 3.267 13.667 10.295 15.167 18.802l47.915 271.735c2.395 13.576-6.703 26.568-20.278 28.962zm-430.949-88.294 35.743-202.702c1.507-8.545 7.209-15.587 15.253-18.838l113.434-45.842-3.251 18.44c-1.438 8.158 4.009 15.938 12.167 17.376.881.156 1.757.23 2.622.23 7.142 0 13.471-5.121 14.754-12.398l3.253-18.447 90.014 81.675c6.396 5.804 9.32 14.348 7.821 22.855l-35.759 202.8c-1.16 6.576-4.811 12.307-10.281 16.137-5.47 3.831-12.104 5.301-18.681 4.142l-206.81-36.466c-13.575-2.394-22.672-15.386-20.279-28.962z"/>
    <path d="m151.107 348.849-2.395 13.582c-.959 5.439 2.673 10.625 8.112 11.584.587.104 1.171.153 1.748.153 4.761 0 8.981-3.414 9.836-8.265l2.528-14.334c10.277-.032 20.086-2.888 28.79-8.45 10.361-6.621 18.337-16.66 22.458-28.27 8.39-23.635-.627-47.065-22.971-59.69-3.692-2.086-7.088-4.059-10.229-5.942l9.991-56.662c7.023 2.587 11.065 6.848 13.756 9.69.766.809 1.49 1.574 2.23 2.258 4.056 3.749 10.382 3.5 14.131-.554 3.749-4.055 3.501-10.382-.554-14.131-.251-.232-.776-.786-1.283-1.322-3.626-3.831-11.205-11.834-24.775-15.818l2.065-11.714c.959-5.439-2.673-10.625-8.112-11.584-5.439-.958-10.625 2.672-11.584 8.112l-2.273 12.889c-2.06.077-4.191.231-6.417.495-16.463 1.953-30.508 13.287-36.656 29.58-5.588 14.81-3.313 30.417 5.938 40.73 5.162 5.755 11.904 11.378 21.512 17.793l-12.373 70.171c-9.74-2.245-15.677-5.39-25.201-14.33-4.026-3.78-10.355-3.581-14.135.446-3.78 4.026-3.581 10.355.446 14.135 12.963 12.167 22.364 16.54 35.417 19.448zm52.229-40.689c-3.902 10.993-14.198 21.625-28.837 23.202l10.778-61.126c1.328.765 2.693 1.544 4.096 2.337 20.555 11.613 15.885 30.175 13.963 35.587zm-43.007-80.329c-4.246-4.734-5.056-12.518-2.114-20.315 2.744-7.273 9.518-15.5 20.299-16.779.163-.019.319-.032.481-.05l-8.2 46.505c-4.376-3.317-7.794-6.384-10.466-9.361z"/>
</svg>