<?xml version="1.0" encoding="iso-8859-1"?>
<!-- Generator: Adobe Illustrator 19.0.0, SVG Export Plug-In . SVG Version: 6.00 Build 0)  -->
<svg version="1.1" id="Capa_1" xmlns="http://www.w3.org/2000/svg" xmlns:xlink="http://www.w3.org/1999/xlink" x="0px" y="0px"
	 viewBox="0 0 512 512" style="enable-background:new 0 0 512 512;" xml:space="preserve">
<linearGradient id="SVGID_1_" gradientUnits="userSpaceOnUse" x1="254.8086" y1="316.4935" x2="254.8086" y2="170.8935" gradientTransform="matrix(1.0039 0 0 -1.0039 0.1922 516.5618)">
	<stop  offset="0" style="stop-color:#4D4D4D"/>
	<stop  offset="1" style="stop-color:#333333"/>
</linearGradient>
<path style="fill:url(#SVGID_1_);" d="M442.815,299.521H69.185V150.6c0-10.136,8.216-18.352,18.352-18.352h336.925
	c10.136,0,18.352,8.216,18.352,18.352L442.815,299.521L442.815,299.521z"/>
<linearGradient id="SVGID_2_" gradientUnits="userSpaceOnUse" x1="447.2491" y1="263.284" x2="331.0392" y2="379.484" gradientTransform="matrix(1.0039 0 0 -1.0039 0.1922 516.5618)">
	<stop  offset="0" style="stop-color:#4D4D4D;stop-opacity:0"/>
	<stop  offset="1" style="stop-color:#000000"/>
</linearGradient>
<polygon style="fill:url(#SVGID_2_);" points="442.815,153.569 421.493,132.248 404.169,132.248 404.169,299.521 442.815,299.521 
	"/>
<linearGradient id="SVGID_3_" gradientUnits="userSpaceOnUse" x1="254.8091" y1="151.2035" x2="254.8091" y2="998.0535" gradientTransform="matrix(1.0039 0 0 -1.0039 0.1922 516.5618)">
	<stop  offset="0" style="stop-color:#FFF2EB"/>
	<stop  offset="1" style="stop-color:#F1DACB"/>
</linearGradient>
<path style="fill:url(#SVGID_3_);" d="M311.602,12.293H112.46c-12.039,0-21.799,9.76-21.799,21.799v372.041
	c0,12.039,9.76,21.799,21.799,21.799h287.08c12.039,0,21.799-9.76,21.799-21.799v-289.81c0-3.336-1.312-6.538-3.653-8.914
	l-85.037-86.306C327.096,15.466,319.514,12.293,311.602,12.293z"/>
<linearGradient id="SVGID_4_" gradientUnits="userSpaceOnUse" x1="443.4762" y1="338.411" x2="308.6262" y2="473.271" gradientTransform="matrix(1.0039 0 0 -1.0039 0.1922 516.5618)">
	<stop  offset="0" style="stop-color:#FFF2EB;stop-opacity:0"/>
	<stop  offset="1" style="stop-color:#D3B4A0"/>
</linearGradient>
<path style="fill:url(#SVGID_4_);" d="M333.759,22.228c-0.297-0.3-0.481-0.487-0.556-0.564l-0.065-0.066
	c-5.696-5.777-13.402-9.1-21.501-9.296c-0.192-0.01-0.39-0.009-0.584-0.01h-0.103c0.358,0.001,0.708,0.012,1.056,0.046
	c0.343,0.024,0.688,0.073,1.019,0.122l0.233,0.049c0.664,0.122,1.314,0.295,1.941,0.516c0.331,0.11,0.663,0.246,0.982,0.393
	c1.486,0.638,2.824,1.572,3.953,2.702c0.934,0.934,1.719,2.002,2.333,3.18c0.136,0.233,0.258,0.479,0.356,0.737
	c0.197,0.418,0.368,0.847,0.503,1.289c0.037,0.11,0.073,0.209,0.098,0.319c0.27,0.884,0.442,1.817,0.503,2.763
	c0.024,0.319,0.037,0.638,0.037,0.958v63.95c0,0.418,0.012,0.822,0.037,1.228c0.025,0.393,0.049,0.786,0.098,1.179
	c0,0.024,0,0.061,0.012,0.086c0.037,0.38,0.086,0.761,0.16,1.129c0.049,0.356,0.122,0.7,0.197,1.044
	c0.024,0.11,0.049,0.221,0.073,0.331c0.073,0.295,0.148,0.589,0.233,0.871c0,0.049,0.012,0.098,0.037,0.148
	c0.073,0.258,0.16,0.516,0.246,0.774c0.049,0.184,0.11,0.368,0.185,0.552c0.037,0.11,0.073,0.221,0.122,0.319
	c0.073,0.246,0.172,0.491,0.282,0.725c0.098,0.27,0.221,0.54,0.356,0.81c0.16,0.356,0.331,0.7,0.516,1.031
	c0.368,0.676,0.761,1.326,1.167,1.953c0.012,0.012,0.012,0.024,0.024,0.024c0.651,0.946,1.375,1.842,2.148,2.676
	c0.258,0.27,0.528,0.552,0.798,0.81c0.282,0.27,0.565,0.528,0.847,0.774l0.098,0.098l89.737,89.737V116.32
	c0-3.336-1.312-6.538-3.653-8.914L333.759,22.228z"/>
<linearGradient id="SVGID_5_" gradientUnits="userSpaceOnUse" x1="347.0992" y1="436.2428" x2="417.5592" y2="506.7018" gradientTransform="matrix(1.0039 0 0 -1.0039 0.1922 516.5618)">
	<stop  offset="0" style="stop-color:#FFF2EB"/>
	<stop  offset="1" style="stop-color:#F1DACB"/>
</linearGradient>
<path style="fill:url(#SVGID_5_);" d="M420.224,111.117c0,0-0.645-1.824-3.179-4.36c-0.942-0.942-83.895-85.147-83.895-85.147
	c-5.873-5.96-13.891-9.317-22.26-9.317l0,0l0,0c7.223,0,13.079,5.856,13.079,13.079v63.945c0,12.039,9.76,21.799,21.799,21.799
	L420.224,111.117L420.224,111.117z"/>
<linearGradient id="SVGID_6_" gradientUnits="userSpaceOnUse" x1="254.8136" y1="301.0235" x2="254.8136" y2="238.8535" gradientTransform="matrix(1.0039 0 0 -1.0039 0.1922 516.5618)">
	<stop  offset="0" style="stop-color:#FFF2EB;stop-opacity:0"/>
	<stop  offset="1" style="stop-color:#D3B4A0"/>
</linearGradient>
<rect x="90.664" y="180.204" style="fill:url(#SVGID_6_);" width="330.682" height="119.316"/>
<linearGradient id="SVGID_7_" gradientUnits="userSpaceOnUse" x1="257.9318" y1="126.2267" x2="453.8118" y2="-69.6534" gradientTransform="matrix(1.0039 0 0 -1.0039 0.1922 516.5618)">
	<stop  offset="0" style="stop-color:#E6E6E6"/>
	<stop  offset="1" style="stop-color:#999999"/>
</linearGradient>
<path style="fill:url(#SVGID_7_);" d="M511.996,328.473v115.528c0,13.414-10.874,24.288-24.288,24.288H24.28
	c-13.407,0-24.276-10.868-24.276-24.276v-115.54c0-5.846,2.322-11.452,6.456-15.586l42.32-42.32
	c4.133-4.133,9.74-6.456,15.586-6.456h383.269c5.846,0,11.452,2.322,15.586,6.456l42.32,42.32
	C509.674,317.021,511.996,322.627,511.996,328.473z"/>
<linearGradient id="SVGID_8_" gradientUnits="userSpaceOnUse" x1="254.8086" y1="93.8635" x2="254.8086" y2="48.2135" gradientTransform="matrix(1.0039 0 0 -1.0039 0.1922 516.5618)">
	<stop  offset="0" style="stop-color:#E6E6E6;stop-opacity:0"/>
	<stop  offset="0.143" style="stop-color:#DCDCDC;stop-opacity:0.143"/>
	<stop  offset="0.384" style="stop-color:#C2C2C2;stop-opacity:0.384"/>
	<stop  offset="0.692" style="stop-color:#979797;stop-opacity:0.692"/>
	<stop  offset="1" style="stop-color:#666666"/>
</linearGradient>
<path style="fill:url(#SVGID_8_);" d="M0,419.508v24.495c0,13.412,10.872,24.285,24.285,24.285h463.43
	c13.411,0,24.285-10.872,24.285-24.285v-24.495H0z"/>
<linearGradient id="SVGID_9_" gradientUnits="userSpaceOnUse" x1="254.8081" y1="52.8535" x2="254.8081" y2="8.8735" gradientTransform="matrix(1.0039 0 0 -1.0039 0.1922 516.5618)">
	<stop  offset="0" style="stop-color:#4D4D4D"/>
	<stop  offset="1" style="stop-color:#333333"/>
</linearGradient>
<path style="fill:url(#SVGID_9_);" d="M450.107,499.709H61.893c-17.353,0-31.421-14.067-31.421-31.421l0,0h451.055l0,0
	C481.527,485.641,467.46,499.709,450.107,499.709z"/>
<linearGradient id="SVGID_10_" gradientUnits="userSpaceOnUse" x1="446.9939" y1="21.3339" x2="-0.5907" y2="49.483" gradientTransform="matrix(1.0039 0 0 -1.0039 0.1922 516.5618)">
	<stop  offset="0" style="stop-color:#4D4D4D;stop-opacity:0"/>
	<stop  offset="1" style="stop-color:#000000"/>
</linearGradient>
<path style="fill:url(#SVGID_10_);" d="M481.527,468.288H30.473l31.421,31.421h388.215
	C467.46,499.709,481.527,485.641,481.527,468.288z"/>
<linearGradient id="SVGID_11_" gradientUnits="userSpaceOnUse" x1="254.8086" y1="15.2735" x2="254.8086" y2="99.0835" gradientTransform="matrix(1.0039 0 0 -1.0039 0.1922 516.5618)">
	<stop  offset="0" style="stop-color:#4D4D4D"/>
	<stop  offset="1" style="stop-color:#333333"/>
</linearGradient>
<path style="fill:url(#SVGID_11_);" d="M426.681,468.288H85.319v-24.216c0-10.136,8.216-18.352,18.352-18.352h304.657
	c10.136,0,18.352,8.216,18.352,18.352v24.216H426.681z"/>
<linearGradient id="SVGID_12_" gradientUnits="userSpaceOnUse" x1="254.8086" y1="221.9035" x2="254.8086" y2="157.4035" gradientTransform="matrix(1.0039 0 0 -1.0039 0.1922 516.5618)">
	<stop  offset="0" style="stop-color:#E6E6E6;stop-opacity:0"/>
	<stop  offset="0.097" style="stop-color:#DDDDDD;stop-opacity:0.202"/>
	<stop  offset="0.293" style="stop-color:#D0D0D0;stop-opacity:0.611"/>
	<stop  offset="0.479" style="stop-color:#CCCCCC"/>
	<stop  offset="1" style="stop-color:#E6E6E6;stop-opacity:0"/>
</linearGradient>
<path style="fill:url(#SVGID_12_);" d="M6.46,312.887c-4.133,4.133-6.456,9.74-6.456,15.586v40.63h511.992v-40.63
	c0-5.846-2.322-11.452-6.456-15.586l-32.195-32.195H38.655L6.46,312.887z"/>
<linearGradient id="SVGID_13_" gradientUnits="userSpaceOnUse" x1="40.9986" y1="176.7735" x2="40.9986" y2="158.2435" gradientTransform="matrix(1.0039 0 0 -1.0039 0.1922 516.5618)">
	<stop  offset="0" style="stop-color:#FE7695"/>
	<stop  offset="1" style="stop-color:#FE547B"/>
</linearGradient>
<circle style="fill:url(#SVGID_13_);" cx="41.352" cy="341.274" r="10.642"/>
<linearGradient id="SVGID_14_" gradientUnits="userSpaceOnUse" x1="40.9986" y1="147.4135" x2="40.9986" y2="128.8935" gradientTransform="matrix(1.0039 0 0 -1.0039 0.1922 516.5618)">
	<stop  offset="0" style="stop-color:#FCC344"/>
	<stop  offset="1" style="stop-color:#D48000"/>
</linearGradient>
<circle style="fill:url(#SVGID_14_);" cx="41.352" cy="370.739" r="10.642"/>
<linearGradient id="SVGID_15_" gradientUnits="userSpaceOnUse" x1="40.9986" y1="118.0635" x2="40.9986" y2="99.5335" gradientTransform="matrix(1.0039 0 0 -1.0039 0.1922 516.5618)">
	<stop  offset="0" style="stop-color:#B8DE6F"/>
	<stop  offset="1" style="stop-color:#8AA753"/>
</linearGradient>
<circle style="fill:url(#SVGID_15_);" cx="41.352" cy="400.214" r="10.642"/>
<g>
</g>
<g>
</g>
<g>
</g>
<g>
</g>
<g>
</g>
<g>
</g>
<g>
</g>
<g>
</g>
<g>
</g>
<g>
</g>
<g>
</g>
<g>
</g>
<g>
</g>
<g>
</g>
<g>
</g>
</svg>
