<?xml version="1.0" encoding="iso-8859-1"?>
<!-- Generator: Adobe Illustrator 19.0.0, SVG Export Plug-In . SVG Version: 6.00 Build 0)  -->
<svg version="1.1" id="Capa_1" xmlns="http://www.w3.org/2000/svg" xmlns:xlink="http://www.w3.org/1999/xlink" x="0px" y="0px"
	 viewBox="0 0 512 512" style="enable-background:new 0 0 512 512;" xml:space="preserve">
<linearGradient id="SVGID_1_" gradientUnits="userSpaceOnUse" x1="236.9371" y1="-111.4125" x2="236.9371" y2="470.1675" gradientTransform="matrix(1.0667 0 0 -1.0667 3.2667 557.5334)">
	<stop  offset="0" style="stop-color:#B761C6"/>
	<stop  offset="1" style="stop-color:#9C44B3"/>
</linearGradient>
<path style="fill:url(#SVGID_1_);" d="M415.34,26.851v476.222c0,7.937-9.596,11.911-15.209,6.3L262.3,371.54
	c-3.479-3.479-9.12-3.479-12.599,0L111.868,509.373c-5.613,5.613-15.209,1.637-15.209-6.3V26.851C96.66,12.021,108.682,0,123.51,0
	h264.978C403.319,0,415.34,12.021,415.34,26.851z"/>
<linearGradient id="SVGID_2_" gradientUnits="userSpaceOnUse" x1="236.9371" y1="536.2985" x2="236.9371" y2="93.2375" gradientTransform="matrix(1.0667 0 0 -1.0667 3.2667 557.5334)">
	<stop  offset="0" style="stop-color:#B761C6"/>
	<stop  offset="1" style="stop-color:#9C44B3"/>
</linearGradient>
<path style="fill:url(#SVGID_2_);" d="M114.577,26.851c0-4.926,4.007-8.932,8.933-8.932h264.978c4.933,0,8.933,4,8.933,8.933
	v440.731c0,5.069-6.129,7.607-9.713,4.023l-112.74-112.737c-5.066-5.066-11.803-7.856-18.969-7.856
	c-7.167,0-13.904,2.79-18.971,7.859L124.294,471.605c-3.584,3.584-9.713,1.045-9.713-4.023L114.577,26.851z"/>
<linearGradient id="SVGID_3_" gradientUnits="userSpaceOnUse" x1="421.7477" y1="155.5276" x2="164.9776" y2="412.2976" gradientTransform="matrix(1.0667 0 0 -1.0667 3.2667 557.5334)">
	<stop  offset="1.000000e-004" style="stop-color:#AA53BC;stop-opacity:0"/>
	<stop  offset="1" style="stop-color:#61479E"/>
</linearGradient>
<path style="fill:url(#SVGID_3_);" d="M415.34,207.862l-59.403-59.403l-30.02-4.362c-0.662-0.394-1.391-0.64-2.138-0.754
	l-62.428-63.603c-2.19-4.436-8.515-4.436-10.705,0l-27.84,56.409c-0.869,1.762-2.55,2.982-4.494,3.265l-62.251,9.045
	c-4.896,0.711-6.85,6.727-3.308,10.181l46.614,46.562c0.239,0.844,0.301,1.74,0.148,2.629l-10.634,62
	c-0.319,1.859,0.228,3.548,1.269,4.798c0.841,1.009,162.745,161.465,225.188,223.343V207.862H415.34z"/>
<linearGradient id="SVGID_4_" gradientUnits="userSpaceOnUse" x1="236.9376" y1="419.4675" x2="236.9376" y2="227.2075" gradientTransform="matrix(1.0667 0 0 -1.0667 3.2667 557.5334)">
	<stop  offset="0" style="stop-color:#FFCF95"/>
	<stop  offset="0.427" style="stop-color:#FFC954"/>
	<stop  offset="1" style="stop-color:#FFC200"/>
</linearGradient>
<path style="fill:url(#SVGID_4_);" d="M261.353,79.74l27.84,56.41c0.869,1.762,2.55,2.982,4.494,3.265l62.251,9.045
	c4.896,0.711,6.85,6.727,3.308,10.181L314.2,202.549c-1.407,1.372-2.049,3.347-1.716,5.283l10.634,62
	c0.836,4.876-4.282,8.594-8.66,6.292l-55.679-29.273c-1.739-0.914-3.817-0.914-5.555,0l-55.679,29.273
	c-4.379,2.302-9.497-1.417-8.66-6.292l10.634-62c0.332-1.936-0.309-3.911-1.716-5.283l-45.045-43.908
	c-3.542-3.453-1.588-9.47,3.308-10.181l62.251-9.045c1.945-0.283,3.625-1.504,4.494-3.265l27.84-56.41
	C252.837,75.303,259.163,75.303,261.353,79.74z"/>
<linearGradient id="SVGID_5_" gradientUnits="userSpaceOnUse" x1="256.9648" y1="380.7047" x2="198.2448" y2="439.4147" gradientTransform="matrix(1.0667 0 0 -1.0667 3.2667 557.5334)">
	<stop  offset="0" style="stop-color:#FFC200;stop-opacity:0"/>
	<stop  offset="0.203" style="stop-color:#FFBB00;stop-opacity:0.203"/>
	<stop  offset="0.499" style="stop-color:#FFA700;stop-opacity:0.499"/>
	<stop  offset="0.852" style="stop-color:#FF8800;stop-opacity:0.852"/>
	<stop  offset="1" style="stop-color:#FF7800"/>
</linearGradient>
<path style="fill:url(#SVGID_5_);" d="M290.559,137.945c-0.558-0.5-1.026-1.104-1.367-1.795l-27.84-56.409
	c-1.094-2.219-3.223-3.327-5.353-3.327v109.837L290.559,137.945z"/>
<linearGradient id="SVGID_6_" gradientUnits="userSpaceOnUse" x1="294.3078" y1="356.0577" x2="237.7278" y2="412.6377" gradientTransform="matrix(1.0667 0 0 -1.0667 3.2667 557.5334)">
	<stop  offset="0" style="stop-color:#FFC200;stop-opacity:0"/>
	<stop  offset="0.203" style="stop-color:#FFBB00;stop-opacity:0.203"/>
	<stop  offset="0.499" style="stop-color:#FFA700;stop-opacity:0.499"/>
	<stop  offset="0.852" style="stop-color:#FF8800;stop-opacity:0.852"/>
	<stop  offset="1" style="stop-color:#FF7800"/>
</linearGradient>
<path style="fill:url(#SVGID_6_);" d="M355.937,148.46l-62.251-9.045c-1.182-0.172-2.262-0.694-3.126-1.47L256,186.249
	l104.377-34.619C359.553,150.021,358.014,148.762,355.937,148.46z"/>
<linearGradient id="SVGID_7_" gradientUnits="userSpaceOnUse" x1="315.4076" y1="334.7675" x2="261.6576" y2="388.5175" gradientTransform="matrix(1.0667 0 0 -1.0667 3.2667 557.5334)">
	<stop  offset="0" style="stop-color:#FFC200;stop-opacity:0"/>
	<stop  offset="0.203" style="stop-color:#FFBB00;stop-opacity:0.203"/>
	<stop  offset="0.499" style="stop-color:#FFA700;stop-opacity:0.499"/>
	<stop  offset="0.852" style="stop-color:#FF8800;stop-opacity:0.852"/>
	<stop  offset="1" style="stop-color:#FF7800"/>
</linearGradient>
<path style="fill:url(#SVGID_7_);" d="M359.245,158.642l-45.051,43.911c-0.883,0.87-1.472,1.984-1.702,3.174L256,186.249
	l104.371-34.62h0.013C361.498,153.818,361.28,156.658,359.245,158.642z"/>
<linearGradient id="SVGID_8_" gradientUnits="userSpaceOnUse" x1="294.9378" y1="296.2878" x2="210.3478" y2="380.8777" gradientTransform="matrix(1.0667 0 0 -1.0667 3.2667 557.5334)">
	<stop  offset="0" style="stop-color:#FFC200;stop-opacity:0"/>
	<stop  offset="0.203" style="stop-color:#FFBB00;stop-opacity:0.203"/>
	<stop  offset="0.499" style="stop-color:#FFA700;stop-opacity:0.499"/>
	<stop  offset="0.852" style="stop-color:#FF8800;stop-opacity:0.852"/>
	<stop  offset="1" style="stop-color:#FF7800"/>
</linearGradient>
<path style="fill:url(#SVGID_8_);" d="M321.246,275.262L256,186.249l56.492,19.479c-0.128,0.678-0.141,1.395-0.013,2.099
	l10.636,62.009C323.499,272.023,322.667,273.982,321.246,275.262z"/>
<linearGradient id="SVGID_9_" gradientUnits="userSpaceOnUse" x1="273.3883" y1="283.5382" x2="206.2883" y2="350.6382" gradientTransform="matrix(1.0667 0 0 -1.0667 3.2667 557.5334)">
	<stop  offset="0" style="stop-color:#FFC200;stop-opacity:0"/>
	<stop  offset="0.203" style="stop-color:#FFBB00;stop-opacity:0.203"/>
	<stop  offset="0.499" style="stop-color:#FFA700;stop-opacity:0.499"/>
	<stop  offset="0.852" style="stop-color:#FF8800;stop-opacity:0.852"/>
	<stop  offset="1" style="stop-color:#FF7800"/>
</linearGradient>
<path style="fill:url(#SVGID_9_);" d="M321.246,275.262c-1.741,1.574-4.377,2.125-6.796,0.858l-55.674-29.269
	c-0.87-0.448-1.83-0.678-2.778-0.678V186.25L321.246,275.262z"/>
<linearGradient id="SVGID_10_" gradientUnits="userSpaceOnUse" x1="216.9099" y1="380.7052" x2="275.6199" y2="439.4152" gradientTransform="matrix(1.0667 0 0 -1.0667 3.2667 557.5334)">
	<stop  offset="0" style="stop-color:#FFC200;stop-opacity:0"/>
	<stop  offset="0.203" style="stop-color:#FFBB00;stop-opacity:0.203"/>
	<stop  offset="0.499" style="stop-color:#FFA700;stop-opacity:0.499"/>
	<stop  offset="0.852" style="stop-color:#FF8800;stop-opacity:0.852"/>
	<stop  offset="1" style="stop-color:#FF7800"/>
</linearGradient>
<path style="fill:url(#SVGID_10_);" d="M221.437,137.945c0.558-0.5,1.026-1.104,1.367-1.795l27.84-56.409
	c1.094-2.219,3.223-3.327,5.353-3.327v109.837L221.437,137.945z"/>
<linearGradient id="SVGID_11_" gradientUnits="userSpaceOnUse" x1="179.5663" y1="356.0587" x2="236.1363" y2="412.6388" gradientTransform="matrix(1.0667 0 0 -1.0667 3.2667 557.5334)">
	<stop  offset="0" style="stop-color:#FFC200;stop-opacity:0"/>
	<stop  offset="0.203" style="stop-color:#FFBB00;stop-opacity:0.203"/>
	<stop  offset="0.499" style="stop-color:#FFA700;stop-opacity:0.499"/>
	<stop  offset="0.852" style="stop-color:#FF8800;stop-opacity:0.852"/>
	<stop  offset="1" style="stop-color:#FF7800"/>
</linearGradient>
<path style="fill:url(#SVGID_11_);" d="M156.059,148.46l62.251-9.045c1.182-0.172,2.262-0.694,3.126-1.47l34.559,48.305
	l-104.377-34.619C152.444,150.021,153.983,148.762,156.059,148.46z"/>
<linearGradient id="SVGID_12_" gradientUnits="userSpaceOnUse" x1="158.4606" y1="334.7645" x2="212.2106" y2="388.5145" gradientTransform="matrix(1.0667 0 0 -1.0667 3.2667 557.5334)">
	<stop  offset="0" style="stop-color:#FFC200;stop-opacity:0"/>
	<stop  offset="0.203" style="stop-color:#FFBB00;stop-opacity:0.203"/>
	<stop  offset="0.499" style="stop-color:#FFA700;stop-opacity:0.499"/>
	<stop  offset="0.852" style="stop-color:#FF8800;stop-opacity:0.852"/>
	<stop  offset="1" style="stop-color:#FF7800"/>
</linearGradient>
<path style="fill:url(#SVGID_12_);" d="M152.751,158.642l45.051,43.911c0.883,0.87,1.472,1.984,1.702,3.174l56.492-19.479
	l-104.371-34.62h-0.013C150.499,153.818,150.717,156.658,152.751,158.642z"/>
<linearGradient id="SVGID_13_" gradientUnits="userSpaceOnUse" x1="178.9353" y1="296.2898" x2="263.5253" y2="380.8798" gradientTransform="matrix(1.0667 0 0 -1.0667 3.2667 557.5334)">
	<stop  offset="0" style="stop-color:#FFC200;stop-opacity:0"/>
	<stop  offset="0.203" style="stop-color:#FFBB00;stop-opacity:0.203"/>
	<stop  offset="0.499" style="stop-color:#FFA700;stop-opacity:0.499"/>
	<stop  offset="0.852" style="stop-color:#FF8800;stop-opacity:0.852"/>
	<stop  offset="1" style="stop-color:#FF7800"/>
</linearGradient>
<path style="fill:url(#SVGID_13_);" d="M190.75,275.262l65.246-89.013l-56.492,19.479c0.128,0.678,0.141,1.395,0.013,2.099
	l-10.636,62.009C188.497,272.023,189.329,273.982,190.75,275.262z"/>
<linearGradient id="SVGID_14_" gradientUnits="userSpaceOnUse" x1="244.0801" y1="268.63" x2="180.8701" y2="331.83" gradientTransform="matrix(1.0667 0 0 -1.0667 3.2667 557.5334)">
	<stop  offset="0" style="stop-color:#FFC200;stop-opacity:0"/>
	<stop  offset="0.203" style="stop-color:#FFBB00;stop-opacity:0.203"/>
	<stop  offset="0.499" style="stop-color:#FFA700;stop-opacity:0.499"/>
	<stop  offset="0.852" style="stop-color:#FF8800;stop-opacity:0.852"/>
	<stop  offset="1" style="stop-color:#FF7800"/>
</linearGradient>
<path style="fill:url(#SVGID_14_);" d="M190.75,275.262c1.741,1.574,4.377,2.125,6.796,0.858l55.674-29.269
	c0.87-0.448,1.83-0.678,2.778-0.678V186.25L190.75,275.262z"/>
<g>
</g>
<g>
</g>
<g>
</g>
<g>
</g>
<g>
</g>
<g>
</g>
<g>
</g>
<g>
</g>
<g>
</g>
<g>
</g>
<g>
</g>
<g>
</g>
<g>
</g>
<g>
</g>
<g>
</g>
</svg>
