<svg xmlns="http://www.w3.org/2000/svg" width="512" height="512" viewBox="0 0 64 64"><path fill="#304b68" d="M17 9h6v2h-6zM37 9h6v2h-6zM21 53h6v2h-6zM41 53h6v2h-6zM57 9v2c1.654 0 3 1.346 3 3v14c0 1.654-1.346 3-3 3H40.414l2.293-2.293-1.414-1.414L37.586 31h-5.172l2.293-2.293-1.414-1.414L29.586 31h-5.172l2.293-2.293-1.414-1.414L21.586 31H7c-2.757 0-5 2.243-5 5v14c0 2.757 2.243 5 5 5v-2c-1.654 0-3-1.346-3-3V36c0-1.654 1.346-3 3-3h14.586l3.707 3.707 1.414-1.414L24.414 33h5.172l3.707 3.707 1.414-1.414L32.414 33h5.172l3.707 3.707 1.414-1.414L40.414 33H57c2.757 0 5-2.243 5-5V14c0-2.757-2.243-5-5-5"/><circle cx="10" cy="10" r="8" fill="#76cc7a"/><circle cx="30" cy="10" r="8" fill="#76cc7a"/><circle cx="50" cy="10" r="8" fill="#76cc7a"/><circle cx="14" cy="54" r="8" fill="#76cc7a"/><circle cx="34" cy="54" r="8" fill="#76cc7a"/><circle cx="54" cy="54" r="8" fill="#76cc7a"/><g fill="#304b68"><path d="m9 13.414-2.707-2.707 1.414-1.414L9 10.586l4.293-4.293 1.414 1.414zM29 13.414l-2.707-2.707 1.414-1.414L29 10.586l4.293-4.293 1.414 1.414zM49 13.414l-2.707-2.707 1.414-1.414L49 10.586l4.293-4.293 1.414 1.414zM13 57.414l-2.707-2.707 1.414-1.414L13 54.586l4.293-4.293 1.414 1.414zM33 57.414l-2.707-2.707 1.414-1.414L33 54.586l4.293-4.293 1.414 1.414zM53 57.414l-2.707-2.707 1.414-1.414L53 54.586l4.293-4.293 1.414 1.414z"/></g></svg>