<svg id="Flat-Expanded" enable-background="new 0 0 64 64" height="512" viewBox="0 0 64 64" width="512" xmlns="http://www.w3.org/2000/svg"><path d="m17 9h6v2h-6z" fill="#304b68"/><path d="m37 9h6v2h-6z" fill="#304b68"/><path d="m21 53h6v2h-6z" fill="#304b68"/><path d="m41 53h6v2h-6z" fill="#304b68"/><path d="m57 9v2c1.654 0 3 1.346 3 3v14c0 1.654-1.346 3-3 3h-16.586l2.293-2.293-1.414-1.414-3.707 3.707h-5.172l2.293-2.293-1.414-1.414-3.707 3.707h-5.172l2.293-2.293-1.414-1.414-3.707 3.707h-14.586c-2.757 0-5 2.243-5 5v14c0 2.757 2.243 5 5 5v-2c-1.654 0-3-1.346-3-3v-14c0-1.654 1.346-3 3-3h14.586l3.707 3.707 1.414-1.414-2.293-2.293h5.172l3.707 3.707 1.414-1.414-2.293-2.293h5.172l3.707 3.707 1.414-1.414-2.293-2.293h16.586c2.757 0 5-2.243 5-5v-14c0-2.757-2.243-5-5-5z" fill="#304b68"/><circle cx="10" cy="10" fill="#76cc7a" r="8"/><circle cx="30" cy="10" fill="#76cc7a" r="8"/><circle cx="50" cy="10" fill="#76cc7a" r="8"/><circle cx="14" cy="54" fill="#76cc7a" r="8"/><circle cx="34" cy="54" fill="#76cc7a" r="8"/><circle cx="54" cy="54" fill="#76cc7a" r="8"/><g fill="#304b68"><path d="m9 13.414-2.707-2.707 1.414-1.414 1.293 1.293 4.293-4.293 1.414 1.414z"/><path d="m29 13.414-2.707-2.707 1.414-1.414 1.293 1.293 4.293-4.293 1.414 1.414z"/><path d="m49 13.414-2.707-2.707 1.414-1.414 1.293 1.293 4.293-4.293 1.414 1.414z"/><path d="m13 57.414-2.707-2.707 1.414-1.414 1.293 1.293 4.293-4.293 1.414 1.414z"/><path d="m33 57.414-2.707-2.707 1.414-1.414 1.293 1.293 4.293-4.293 1.414 1.414z"/><path d="m53 57.414-2.707-2.707 1.414-1.414 1.293 1.293 4.293-4.293 1.414 1.414z"/></g></svg>