<!--
  - Copyright (c) 2023. Selldone® Business OS™
  -
  - Author: M.Pajuhaan
  - Web: https://selldone.com
  - ━━━━━━━━━━━━━━━━━━━━━━━━━━━━━━━━━━━━━━━━━━━━━━━━━━━━━━
  -
  - All rights reserved. In the weave of time, where traditions and innovations intermingle, this content was crafted.
  - From the essence of thought, through the corridors of creativity, each word, and sentiment has been molded.
  - Not just to exist, but to inspire. Like an artist's stroke or a sculptor's chisel, every nuance is deliberate.
  - Our journey is not just about reaching a destination, but about creating a masterpiece.
  - Tread carefully, for you're treading on dreams.
  -->

<svg id="Layer_1" enable-background="new 0 0 100 100" height="512" viewBox="0 0 100 100" width="512" xmlns="http://www.w3.org/2000/svg"><g><path d="m72.7 19.22-16.68-3.13c-2.27-.42-4.6.29-6.24 1.93l-32.78 32.79c-1.32 1.32-2.05 3.08-2.05 4.95s.73 3.63 2.05 4.95l19.8 19.8c1.32 1.32 3.08 2.05 4.95 2.05s3.63-.73 4.95-2.05l32.79-32.79c1.63-1.63 2.36-3.96 1.93-6.24l-3.14-16.68c-.53-2.85-2.73-5.05-5.58-5.58zm3.95 25.67-32.78 32.79c-1.17 1.17-3.07 1.17-4.24 0l-19.8-19.8c-1.17-1.17-1.17-3.07 0-4.24l32.79-32.79c.57-.57 1.33-.88 2.12-.88.18 0 .37.02.55.05l16.68 3.13c1.22.23 2.16 1.17 2.39 2.39l3.13 16.68c.17.97-.14 1.97-.84 2.67z"/><path d="m59.07 29.43c-2.4 0-4.66.94-6.36 2.64-3.51 3.51-3.51 9.22 0 12.73 1.75 1.75 4.06 2.63 6.36 2.63s4.61-.88 6.36-2.63c1.7-1.7 2.64-3.96 2.64-6.36s-.94-4.66-2.64-6.36c-1.69-1.71-3.95-2.65-6.36-2.65zm3.54 12.53c-1.95 1.95-5.12 1.95-7.07 0s-1.95-5.12 0-7.07c.95-.94 2.2-1.46 3.54-1.46 1.33 0 2.59.52 3.54 1.46s1.46 2.2 1.46 3.54c-.01 1.33-.53 2.59-1.47 3.53z"/></g></svg>