

<svg height="496pt" viewBox="0 0 496 496.028" width="496pt" xmlns="http://www.w3.org/2000/svg"><path d="m359.953125 192.046875c.054687-92.832031-75.175781-168.070313-168-168.015625-92.152344-.054688-166.992187 74.214844-167.894531 166.199219l-.058594.046875v1.707031c0 72.964844 46.503906 135.078125 111.554688 158.277344 17.582031 6.273437 36.65625 9.722656 56.453124 9.714843.570313.015626 1.136719.015626 1.695313.015626l.066406-.066407c91.96875-.902343 166.238281-75.742187 166.183594-167.878906zm0 0" fill="#5d9cec"/><path d="m216 104.015625c-26.472656 0-48 21.527344-48 48v32c0 4.421875 3.578125 8 8 8 4.425781 0 8-3.578125 8-8v-32c0-17.648437 14.351562-32 32-32s32 14.351563 32 32v32c0 4.421875 3.578125 8 8 8 4.425781 0 8-3.578125 8-8v-32c0-26.472656-21.527344-48-48-48zm0 0" fill="#434a54"/><path d="m191.953125 24.023438c-4.0625.007812-8.054687.320312-12.046875.597656 87.207031 6.121094 156.085938 78.632812 156.023438 167.417968.0625 89.167969-69.542969 161.910157-157.382813 167.351563 4.445313.359375 8.917969.585937 13.460937.578125.570313.015625 1.136719.015625 1.695313.015625l.066406-.066406c91.96875-.902344 166.238281-75.742188 166.183594-167.878907.054687-92.824218-75.175781-168.0625-168-168.015624zm0 0" fill="#4a89dc"/><path d="m360.082031 382.6875-44.160156-44.160156c4.070313-3.359375 8-6.960938 11.832031-10.808594 3.839844-3.757812 7.445313-7.679688 10.808594-11.75l44.078125 44.078125zm0 0" fill="#ccd1d9"/><path d="m382.714844 360.046875 11.277344-11.351563 92.640624 92.71875c12.480469 12.488282 12.488282 32.722657 0 45.191407-12.480468 12.5625-32.71875 12.5625-45.28125.007812l-92.636718-92.636719 11.367187-11.289062 22.550781-22.632812zm0 0" fill="#656d78"/><path d="m382.714844 360.046875-.082032.007813-5.617187 5.632812 92.632813 92.710938c9.480468 9.496093 11.710937 23.449218 6.785156 35.089843 3.703125-1.578125 7.183594-3.832031 10.199218-6.875 12.488282-12.476562 12.480469-32.710937 0-45.191406l-92.640624-92.71875zm0 0" fill="#434a54"/><path d="m312 184.0625v125.519531c-.398438.402344-.800781.800781-1.207031 1.183594-13.992188 14-29.910157 25.050781-46.792969 33.050781v-159.769531zm0 0" fill="#f6bb42"/><path d="m264 184.046875v159.769531c-62.40625 29.589844-139.199219 18.550782-190.800781-33.042968-.40625-.398438-.804688-.796876-1.207031-1.199219v-125.527344l56 .015625 48-.015625 32.007812.015625h47.992188zm0 0" fill="#ffce54"/><path d="m56.242188 56.222656c74.949218-74.960937 196.550781-74.96875 271.511718 0 71.117188 71.191406 74.800782 184.328125 10.800782 259.753906-3.363282 4.070313-6.960938 7.992188-10.808594 11.75-3.832032 3.839844-7.761719 7.449219-11.832032 10.808594-75.367187 64.085938-188.570312 60.40625-259.679687-10.800781-74.960937-74.953125-74.960937-196.472656.007813-271.511719zm255.757812 253.265625c64.394531-65.671875 63.992188-171.105469-1.207031-236.226562-65.59375-65.679688-172-65.679688-237.59375-.007813-65.199219 65.128906-65.597657 170.5625-1.199219 236.242188v.078125c.410156.410156.808594.808593 1.210938 1.199219 51.589843 51.59375 128.390624 62.632812 190.796874 33.042968 16.875-8 32.800782-19.050781 46.792969-33.050781.398438-.390625.800781-.789063 1.199219-1.191406zm0 0" fill="#e6e9ed"/><path d="m168 104.015625c-26.472656 0-48 21.527344-48 48v56c0 4.421875 3.578125 8 8 8 4.425781 0 8-3.578125 8-8v-56c0-17.648437 14.351562-32 32-32s32 14.351563 32 32v56c0 4.421875 3.578125 8 8 8 4.425781 0 8-3.578125 8-8v-56c0-26.472656-21.527344-48-48-48zm0 0" fill="#656d78"/></svg>