<svg height="512" viewBox="0 0 64 64" width="512" xmlns="http://www.w3.org/2000/svg"><g id="Flat"><g id="Color_copy" data-name="Color copy"><g><path d="m3 27h58a0 0 0 0 1 0 0v34a0 0 0 0 1 0 0h-52a6 6 0 0 1 -6-6v-28a0 0 0 0 1 0 0z" fill="#57b7eb"/><path d="m23 27h-20v28a6 6 0 0 0 6 6h52v-8h-12a26 26 0 0 1 -26-26z" fill="#4891d3"/><path d="m9 17a6 6 0 0 0 -6 6v32a6 6 0 0 1 12 0v-32a6 6 0 0 0 -6-6z" fill="#aae1f9"/><path d="m43 45a6.065 6.065 0 0 0 -.1-1.094l2.032-1.174-2-3.464-2.032 1.174a5.965 5.965 0 0 0 -1.9-1.093v-2.349h-4v2.349a5.965 5.965 0 0 0 -1.9 1.093l-2.033-1.174-2 3.464 2.033 1.174a5.806 5.806 0 0 0 0 2.188l-2.032 1.174 2 3.464 2.032-1.174a5.965 5.965 0 0 0 1.9 1.093v2.349h4v-2.349a5.965 5.965 0 0 0 1.9-1.093l2.033 1.174 2-3.464-2.033-1.174a6.065 6.065 0 0 0 .1-1.094zm-6 2a2 2 0 1 1 2-2 2 2 0 0 1 -2 2z" fill="#f9e109"/><circle cx="23" cy="54" fill="#fcbc04" r="2"/><path d="m10 33.194v-16.104a5.967 5.967 0 0 0 -7 5.91v32a6 6 0 0 1 12 0v-6.276a26.636 26.636 0 0 1 -5-15.53z" fill="#57b7eb"/><path d="m44 48a9.952 9.952 0 0 1 -5.521-1.665 1.993 1.993 0 1 1 -2.814-2.815 9.932 9.932 0 0 1 -1.505-3.785 5.981 5.981 0 0 0 -1.055.707l-2.033-1.174-2 3.464 2.028 1.174a5.806 5.806 0 0 0 0 2.188l-2.032 1.174 2 3.464 2.032-1.174a5.965 5.965 0 0 0 1.9 1.093v2.349h4v-2.349a5.965 5.965 0 0 0 1.9-1.093l2.033 1.174 1.573-2.732z" fill="#fcbc04"/><path d="m24 55a1.992 1.992 0 0 1 -1.82-2.82 2 2 0 1 0 2.64 2.64 1.99 1.99 0 0 1 -.82.18z" fill="#e59730"/><path d="m33.1 49.558a5.965 5.965 0 0 0 1.9 1.093v2.349h4v-2a26.014 26.014 0 0 1 -7.936-5.191c.014.094.023.189.04.281l-2.032 1.174 2 3.464z" fill="#e59730"/><path d="m50 58h-12a1 1 0 0 1 0-2h12a2 2 0 0 0 2-2v-2a1 1 0 0 1 2 0v2a4 4 0 0 1 -4 4z" fill="#c4f236"/><path d="m26 46h-2.07a4.931 4.931 0 0 1 -1.2-9.714l1.525-.382a8.306 8.306 0 0 0 4.909-3.459 1 1 0 0 1 1.664 1.11 10.31 10.31 0 0 1 -6.087 4.29l-1.525.381a2.931 2.931 0 0 0 .714 5.774h2.07a1 1 0 0 1 0 2z" fill="#c4f236"/><g><path d="m38 16a8 8 0 1 0 -13 6.24v1.76h10v-1.76a7.984 7.984 0 0 0 3-6.24z" fill="#fcbc04"/><rect fill="#d0d8da" height="4" rx="2" width="14" x="23" y="24"/><path d="m25 28h10a0 0 0 0 1 0 0v1a5 5 0 0 1 -5 5 5 5 0 0 1 -5-5v-1a0 0 0 0 1 0 0z" fill="#93999a"/><path d="m27 13a8.948 8.948 0 0 1 1.422-4.843 8 8 0 0 0 -3.422 14.083v1.76h10v-1.76c.107-.086.2-.184.306-.275a8.995 8.995 0 0 1 -8.306-8.965z" fill="#e59730"/><path d="m25 24a2 2 0 0 0 0 4h10a2 2 0 0 0 2-2h-10a2 2 0 0 1 -2-2z" fill="#93999a"/><path d="m33 30h1.9a4.988 4.988 0 0 0 .1-1v-1h-10v1a4.99 4.99 0 0 0 3.206 4.654 4.986 4.986 0 0 1 4.794-3.654z" fill="#656b76"/><g fill="#f9e109"><circle cx="18" cy="16" r="1"/><circle cx="42" cy="16" r="1"/><circle cx="30" cy="4" r="1"/><circle cx="19.608" cy="10" r="1"/><circle cx="40.392" cy="22" r="1"/><circle cx="36" cy="5.608" r="1"/><circle cx="40.392" cy="10" r="1"/><circle cx="19.608" cy="22" r="1"/><circle cx="24" cy="5.608" r="1"/><path d="m28.984 24a1.022 1.022 0 0 0 .01-.11l-.827-7.447 1.517.506a1 1 0 0 0 .632 0l1.517-.506-.827 7.447a1.022 1.022 0 0 0 .01.11h1.99l.988-8.89a1 1 0 0 0 -1.31-1.059l-2.684.895-2.684-.895a1 1 0 0 0 -1.31 1.059l.988 8.89z"/></g></g><g><path d="m49 13h8v25h-8z" fill="#a1d51c" transform="matrix(-1 0 0 -1 106 51)"/><path d="m53 48 4-10h-8z" fill="#fcbc04"/><path d="m49 3h8a0 0 0 0 1 0 0v2a4 4 0 0 1 -4 4 4 4 0 0 1 -4-4v-2a0 0 0 0 1 0 0z" fill="#aae1f9" transform="matrix(-1 0 0 -1 106 12)"/><path d="m49 9h8v4h-8z" fill="#d0d8da" transform="matrix(-1 0 0 -1 106 22)"/><path d="m50.6 42h4.8l-2.4 6z" fill="#93999a"/><path d="m52.536 26.523a55.846 55.846 0 0 0 1.205 11.477h-4.741v-25h3.536z" fill="#7ab92d"/><path d="m54.726 42h-4.126l2.4 6-4-10h4.741c.282 1.344.605 2.679.985 4z" fill="#e59730"/><path d="m53 3a3.969 3.969 0 0 1 1.074.164 3.977 3.977 0 0 0 -1.538 3.129v2.707h-3.536v-2a4 4 0 0 1 4-4z" fill="#57b7eb"/><path d="m49 9h3.535v4h-3.535z" fill="#93999a"/><path d="m54.726 42c.092.32.194.637.292.956l-2.018 5.044-2.4-6z" fill="#656b76"/><path d="m51.5 13h3v25h-3z" fill="#57b7eb"/><path d="m52.536 13h-1.036v25h2.241a55.846 55.846 0 0 1 -1.2-11.477z" fill="#4891d3"/></g><g fill="#a1d51c"><path d="m23.93 46h2.07a1 1 0 0 0 0-2h-2.07a2.931 2.931 0 0 1 -.71-5.774l1.525-.381c.187-.047.368-.109.551-.165-.275-.609-.53-1.227-.758-1.859-.094.027-.184.06-.279.083l-1.525.382a4.931 4.931 0 0 0 1.196 9.714z"/><path d="m52 53v1a2 2 0 0 1 -2 2h-12a1 1 0 0 0 0 2h12a4 4 0 0 0 4-4v-1z"/></g></g></g></g></svg>