<?xml version="1.0" encoding="iso-8859-1"?>



<svg version="1.1" id="Layer_1" xmlns="http://www.w3.org/2000/svg" xmlns:xlink="http://www.w3.org/1999/xlink" x="0px" y="0px"
	 viewBox="0 0 512.002 512.002" style="enable-background:new 0 0 512.002 512.002;" xml:space="preserve">
<path style="fill:#00D7DF;" d="M501.223,410.671L270.539,8.423C267.56,3.228,261.988,0,256,0c-5.988,0-11.56,3.228-14.539,8.423
	L10.777,410.671c-2.503,4.363-2.912,9.629-1.114,14.328s5.618,8.346,10.395,9.924l230.684,76.235c3.4,1.124,7.118,1.124,10.518,0
	l230.684-76.235c4.776-1.579,8.597-5.226,10.395-9.924C504.136,420.301,503.726,415.035,501.223,410.671z"/>
<path style="fill:#00B6BD;" d="M261.259,511.158l230.684-76.235c4.776-1.579,8.597-5.226,10.395-9.924
	c1.798-4.698,1.388-9.965-1.114-14.328L270.54,8.422C267.56,3.228,261.988,0,256,0v512C257.78,512,259.559,511.72,261.259,511.158z"
	/>
<path style="fill:#00F6FF;" d="M491.943,403.096l-115.343-38.118l-115.341-38.117c-1.701-0.562-3.479-0.842-5.259-0.842
	s-3.559,0.28-5.259,0.842l-115.343,38.117L20.056,403.096c-3.437,1.135-6.312,3.304-8.328,6.094s-3.173,6.2-3.173,9.819
	c0,3.619,1.158,7.029,3.173,9.819c2.016,2.79,4.892,4.959,8.328,6.094l115.343,38.118l115.343,38.118
	c1.701,0.562,3.479,0.842,5.259,0.842c1.78,0,3.559-0.28,5.259-0.842l115.343-38.118l115.343-38.118
	c3.436-1.135,6.312-3.304,8.328-6.094c2.016-2.79,3.173-6.2,3.173-9.819c0-3.619-1.158-7.03-3.173-9.819
	C498.255,406.4,495.379,404.231,491.943,403.096z"/>
<path style="fill:#00D7DF;" d="M261.259,511.158l115.343-38.118l115.343-38.118c3.436-1.135,6.312-3.304,8.328-6.094
	c2.016-2.79,3.173-6.2,3.173-9.819s-1.158-7.03-3.173-9.819c-2.016-2.79-4.892-4.959-8.328-6.094l-115.343-38.118l-115.343-38.117
	c-1.701-0.562-3.479-0.842-5.259-0.842V512C257.78,512,259.559,511.72,261.259,511.158z"/>
<g>
</g>
<g>
</g>
<g>
</g>
<g>
</g>
<g>
</g>
<g>
</g>
<g>
</g>
<g>
</g>
<g>
</g>
<g>
</g>
<g>
</g>
<g>
</g>
<g>
</g>
<g>
</g>
<g>
</g>
</svg>
