<?xml version="1.0" encoding="iso-8859-1"?>
<!-- Generator: Adobe Illustrator 19.0.0, SVG Export Plug-In . SVG Version: 6.00 Build 0)  -->
<svg version="1.1" id="Capa_1" xmlns="http://www.w3.org/2000/svg" xmlns:xlink="http://www.w3.org/1999/xlink" x="0px" y="0px"
     viewBox="0 0 512 512" style="enable-background:new 0 0 512 512;" xml:space="preserve">
<path style="fill:#3a2c41;" d="M497,512h-30c-8.291,0-15-6.709-15-15s6.709-15,15-15h15V346c0-8.291,6.709-15,15-15s15,6.709,15,15
	v151C512,505.291,505.291,512,497,512z"/>
    <g>
	<path style="fill:#3a2c41;" d="M347,421h-60c-8.291,0-15-6.709-15-15s6.709-15,15-15h60c8.291,0,15,6.709,15,15
		S355.291,421,347,421z"/>
        <path style="fill:#3a2c41;" d="M317,512h-30c-8.291,0-15-6.709-15-15V286c0-8.291,6.709-15,15-15h30c8.291,0,15,6.709,15,15
		s-6.709,15-15,15h-15v181h15c8.291,0,15,6.709,15,15S325.291,512,317,512z"/>
</g>
    <g>
	<path style="fill:#3a2c41;" d="M497,301h-30c-8.291,0-15-6.709-15-15s6.709-15,15-15h30c8.291,0,15,6.709,15,15
		S505.291,301,497,301z"/>
        <path style="fill:#3a2c41;" d="M452,376v60c0,8.399-6.599,15-15,15h-90c-8.401,0-15-6.601-15-15v-90c0-8.401,6.599-15,15-15h60
		c8.401,0,15,6.599,15,15c0,8.399-6.599,15-15,15h-45v60h60v-45c0-8.401,6.599-15,15-15S452,367.599,452,376z"/>
        <path style="fill:#3a2c41;" d="M407,361h-15v-30h15c8.401,0,15,6.599,15,15C422,354.399,415.401,361,407,361z"/>
        <path style="fill:#3a2c41;" d="M452,376v60c0,8.399-6.599,15-15,15h-45v-30h30v-45c0-8.401,6.599-15,15-15S452,367.599,452,376z"/>
        <path style="fill:#3a2c41;" d="M422,286c0,8.399-6.599,15-15,15h-30c-8.401,0-15-6.601-15-15c0-8.401,6.599-15,15-15h30
		C415.401,271,422,277.599,422,286z"/>
        <path style="fill:#3a2c41;" d="M422,286c0,8.399-6.599,15-15,15h-15v-30h15C415.401,271,422,277.599,422,286z"/>
        <path style="fill:#3a2c41;" d="M422,497c0,8.399-6.599,15-15,15h-30c-8.401,0-15-6.601-15-15c0-8.401,6.599-15,15-15h30
		C415.401,482,422,488.599,422,497z"/>
        <path style="fill:#3a2c41;" d="M422,497c0,8.399-6.599,15-15,15h-15v-30h15C415.401,482,422,488.599,422,497z"/>
</g>
    <path style="fill:#3a2c41;" d="M167,60H75c-8.401,0-15,6.599-15,15v91c0,8.399,6.599,15,15,15h92c8.401,0,15-6.601,15-15V75
	C182,66.599,175.401,60,167,60z"/>
    <path style="fill:#3a2c41;" d="M182,75v91c0,8.399-6.599,15-15,15h-46V60h46C175.401,60,182,66.599,182,75z"/>
    <path style="fill:#3a2c41;" d="M227,0H15C6.599,0,0,6.599,0,15v211c0,8.399,6.599,15,15,15h212c8.401,0,15-6.601,15-15V15
	C242,6.599,235.401,0,227,0z M212,211H30V30h182V211z"/>
    <path style="fill:#3a2c41;" d="M227,0H121v30h91v181h-91v30h106c8.401,0,15-6.601,15-15V15C242,6.599,235.401,0,227,0z"/>
    <path style="fill:#3a2c41;" d="M437,60h-90c-8.401,0-15,6.599-15,15v91c0,8.399,6.599,15,15,15h90c8.401,0,15-6.601,15-15V75
	C452,66.599,445.401,60,437,60z"/>
    <path style="fill:#3a2c41;" d="M452,75v91c0,8.399-6.599,15-15,15h-45V60h45C445.401,60,452,66.599,452,75z"/>
    <path style="fill:#3a2c41;" d="M497,0H287c-8.401,0-15,6.599-15,15v211c0,8.399,6.599,15,15,15h210c8.401,0,15-6.601,15-15V15
	C512,6.599,505.401,0,497,0z M482,211H302V30h180V211z"/>
    <path style="fill:#3a2c41;" d="M497,0H392v30h90v181h-90v30h105c8.401,0,15-6.601,15-15V15C512,6.599,505.401,0,497,0z"/>
    <path style="fill:#3a2c41;" d="M167,331H75c-8.401,0-15,6.599-15,15v90c0,8.399,6.599,15,15,15h92c8.401,0,15-6.601,15-15v-90
	C182,337.599,175.401,331,167,331z"/>
    <path style="fill:#3a2c41;" d="M182,346v90c0,8.399-6.599,15-15,15h-46V331h46C175.401,331,182,337.599,182,346z"/>
    <path style="fill:#3a2c41;" d="M227,271H15c-8.401,0-15,6.599-15,15v211c0,8.399,6.599,15,15,15h212c8.401,0,15-6.601,15-15V286
	C242,277.599,235.401,271,227,271z M212,482H30V301h182V482z"/>
    <path style="fill:#3a2c41;" d="M227,271H121v30h91v181h-91v30h106c8.401,0,15-6.601,15-15V286C242,277.599,235.401,271,227,271z"/>
    <g>
</g>
    <g>
</g>
    <g>
</g>
    <g>
</g>
    <g>
</g>
    <g>
</g>
    <g>
</g>
    <g>
</g>
    <g>
</g>
    <g>
</g>
    <g>
</g>
    <g>
</g>
    <g>
</g>
    <g>
</g>
    <g>
</g>
</svg>
