<svg xmlns="http://www.w3.org/2000/svg" xml:space="preserve" viewBox="0 0 512 512"><path d="M497 512h-30c-8.291 0-15-6.709-15-15s6.709-15 15-15h15V346c0-8.291 6.709-15 15-15s15 6.709 15 15v151c0 8.291-6.709 15-15 15M347 421h-60c-8.291 0-15-6.709-15-15s6.709-15 15-15h60c8.291 0 15 6.709 15 15s-6.709 15-15 15" style="fill:#3a2c41"/><path d="M317 512h-30c-8.291 0-15-6.709-15-15V286c0-8.291 6.709-15 15-15h30c8.291 0 15 6.709 15 15s-6.709 15-15 15h-15v181h15c8.291 0 15 6.709 15 15s-6.709 15-15 15M497 301h-30c-8.291 0-15-6.709-15-15s6.709-15 15-15h30c8.291 0 15 6.709 15 15s-6.709 15-15 15M452 376v60c0 8.399-6.599 15-15 15h-90c-8.401 0-15-6.601-15-15v-90c0-8.401 6.599-15 15-15h60c8.401 0 15 6.599 15 15 0 8.399-6.599 15-15 15h-45v60h60v-45c0-8.401 6.599-15 15-15s15 6.599 15 15" style="fill:#3a2c41"/><path d="M407 361h-15v-30h15c8.401 0 15 6.599 15 15 0 8.399-6.599 15-15 15M452 376v60c0 8.399-6.599 15-15 15h-45v-30h30v-45c0-8.401 6.599-15 15-15s15 6.599 15 15M422 286c0 8.399-6.599 15-15 15h-30c-8.401 0-15-6.601-15-15 0-8.401 6.599-15 15-15h30c8.401 0 15 6.599 15 15" style="fill:#3a2c41"/><path d="M422 286c0 8.399-6.599 15-15 15h-15v-30h15c8.401 0 15 6.599 15 15M422 497c0 8.399-6.599 15-15 15h-30c-8.401 0-15-6.601-15-15 0-8.401 6.599-15 15-15h30c8.401 0 15 6.599 15 15" style="fill:#3a2c41"/><path d="M422 497c0 8.399-6.599 15-15 15h-15v-30h15c8.401 0 15 6.599 15 15M167 60H75c-8.401 0-15 6.599-15 15v91c0 8.399 6.599 15 15 15h92c8.401 0 15-6.601 15-15V75c0-8.401-6.599-15-15-15" style="fill:#3a2c41"/><path d="M182 75v91c0 8.399-6.599 15-15 15h-46V60h46c8.401 0 15 6.599 15 15" style="fill:#3a2c41"/><path d="M227 0H15C6.599 0 0 6.599 0 15v211c0 8.399 6.599 15 15 15h212c8.401 0 15-6.601 15-15V15c0-8.401-6.599-15-15-15m-15 211H30V30h182z" style="fill:#3a2c41"/><path d="M227 0H121v30h91v181h-91v30h106c8.401 0 15-6.601 15-15V15c0-8.401-6.599-15-15-15M437 60h-90c-8.401 0-15 6.599-15 15v91c0 8.399 6.599 15 15 15h90c8.401 0 15-6.601 15-15V75c0-8.401-6.599-15-15-15" style="fill:#3a2c41"/><path d="M452 75v91c0 8.399-6.599 15-15 15h-45V60h45c8.401 0 15 6.599 15 15" style="fill:#3a2c41"/><path d="M497 0H287c-8.401 0-15 6.599-15 15v211c0 8.399 6.599 15 15 15h210c8.401 0 15-6.601 15-15V15c0-8.401-6.599-15-15-15m-15 211H302V30h180z" style="fill:#3a2c41"/><path d="M497 0H392v30h90v181h-90v30h105c8.401 0 15-6.601 15-15V15c0-8.401-6.599-15-15-15M167 331H75c-8.401 0-15 6.599-15 15v90c0 8.399 6.599 15 15 15h92c8.401 0 15-6.601 15-15v-90c0-8.401-6.599-15-15-15" style="fill:#3a2c41"/><path d="M182 346v90c0 8.399-6.599 15-15 15h-46V331h46c8.401 0 15 6.599 15 15" style="fill:#3a2c41"/><path d="M227 271H15c-8.401 0-15 6.599-15 15v211c0 8.399 6.599 15 15 15h212c8.401 0 15-6.601 15-15V286c0-8.401-6.599-15-15-15m-15 211H30V301h182z" style="fill:#3a2c41"/><path d="M227 271H121v30h91v181h-91v30h106c8.401 0 15-6.601 15-15V286c0-8.401-6.599-15-15-15" style="fill:#3a2c41"/></svg>