<svg xmlns:svg="http://www.w3.org/2000/svg" id="svg20279" height="512" viewBox="0 0 16.933333 16.933334" width="512"
     xmlns="http://www.w3.org/2000/svg">
    <linearGradient id="linearGradient22361" gradientUnits="userSpaceOnUse" x1=".524" x2="16.424" y1="288.85807"
                    y2="288.85807">
        <stop id="stop21969" offset="0" stop-color="#ff7043"/>
        <stop id="stop21971" offset="1" stop-color="#ffca28"/>
    </linearGradient>
    <g id="layer1" transform="translate(0 -280.067)">
        <path id="path10490"
              d="m8.199365 280.80422-.002 2.63867c-.000556.14693.118693.26618.265625.26562 2.669514-.00096 4.826169 2.15553 4.826172 4.82422.000001 2.6687-2.157477 4.82617-4.826172 4.82617-2.6686952 0-4.8261741-2.15747-4.8261723-4.82617-.0005127-.14541-.1182739-.26316-.2636818-.26367h-2.63861488c-.145408.0005-.263156.11826-.263672.26367.000001 4.41153 3.58065288 7.99414 7.99218798 7.99414 4.411533 0 7.994138-3.58261 7.994139-7.99414-.000001-4.41153-3.582625-8.00529-8.006834-7.99219-.148729.00044-.251174.12759-.250977.26368z"
              fill="#06aae9" font-variant-ligatures="normal" font-variant-position="normal" font-variant-caps="normal"
              font-variant-numeric="normal" font-variant-alternates="normal" font-feature-settings="normal"
              text-indent="0" text-align="start" text-decoration-line="none" text-decoration-style="solid"
              text-decoration-color="#000000" text-transform="none" text-orientation="mixed" white-space="normal"
              shape-padding="0" isolation="auto" mix-blend-mode="normal" solid-color="#000000" solid-opacity="1"
              vector-effect="none"/>
        <path id="path10494"
              d="m.47084902 288.53273c-.0005636.14617.117499.26511.263672.26563h2.63867198c.1461728-.00053.264236-.11946.2636719-.26563.0000029-2.66869 2.157481-4.82617 4.8261721-4.82617.14617.00055.265107-.1175.265625-.26367l.002-2.63867c-.000524-.14617-.119461-.26368-.26566-.26368-4.4130149.00007-7.99416288 3.58066-7.99416298 7.99219z"
              fill="#fbb03b" font-variant-ligatures="normal" font-variant-position="normal" font-variant-caps="normal"
              font-variant-numeric="normal" font-variant-alternates="normal" font-feature-settings="normal"
              text-indent="0" text-align="start" text-decoration-line="none" text-decoration-style="solid"
              text-decoration-color="#000000" text-transform="none" text-orientation="mixed" white-space="normal"
              shape-padding="0" isolation="auto" mix-blend-mode="normal" solid-color="#000000" solid-opacity="1"
              vector-effect="none"/>
    </g>
</svg>