<?xml version="1.0" encoding="iso-8859-1"?>



<svg version="1.1" id="Layer_1" xmlns="http://www.w3.org/2000/svg" xmlns:xlink="http://www.w3.org/1999/xlink" x="0px" y="0px"
	 viewBox="0 0 481.882 481.882" style="enable-background:new 0 0 481.882 481.882;" xml:space="preserve">
<ellipse style="fill:#1565C0;" cx="244.631" cy="240.949" rx="222.404" ry="225.882"/>
<path style="fill:#1E88E5;" d="M244.646,15.066c-122.827,0-222.404,101.135-222.404,225.882c0,60.687,23.605,115.735,61.944,156.318
	l316.86-316.868C360.877,40.019,305.641,15.066,244.646,15.066z"/>
<ellipse style="fill:#90CAF9;" cx="333.628" cy="304.949" rx="14.833" ry="15.059"/>
<ellipse style="fill:#BBDEFB;" cx="155.686" cy="128.008" rx="14.825" ry="15.059"/>
<g>
	<ellipse style="fill:#90CAF9;" cx="363.294" cy="406.588" rx="14.833" ry="15.059"/>
	<path style="fill:#90CAF9;" d="M244.646,236.8L411.505,69.941C368.61,26.775,309.685,0.008,244.646,0.008V236.8z"/>
</g>
<ellipse style="fill:#E3F2FD;" cx="322.485" cy="86.596" rx="25.946" ry="26.353"/>
<ellipse style="fill:#BBDEFB;" cx="81.544" cy="286.118" rx="14.825" ry="15.059"/>
<path style="fill:#42A5F5;" d="M466.854,233.419h-44.461c-3.855-94.871-80.045-171.046-173.922-173.079V15.157
	c-1.272-0.015-2.537-0.09-3.825-0.09c-3.689,0-7.364,0.105-11.008,0.286v45.274c-90.541,5.647-162.982,80.354-166.731,172.792
	H22.423c-0.083,2.507-0.181,5.007-0.181,7.529c0,2.522,0.105,5.022,0.181,7.529h44.484c3.75,92.439,76.183,167.16,166.731,172.808
	v45.274c3.644,0.181,7.319,0.286,11.008,0.286c1.288,0,2.552-0.075,3.825-0.105v-45.176
	c93.877-2.033,170.067-78.216,173.922-173.086h44.499c0.075-2.5,0.166-5.007,0.158-7.529
	C467.049,238.426,466.936,235.927,466.854,233.419z M233.638,406.182c-82.364-5.602-148.179-73.562-151.898-157.688h44.664
	c3.629,59.189,49.423,106.94,107.234,112.376V406.182z M233.638,345.751c-49.641-5.338-88.84-46.366-92.401-97.28h44.619
	c3.215,25.969,22.724,46.833,47.789,51.622L233.638,345.751L233.638,345.751z M233.638,284.672
	c-16.866-4.382-29.877-18.545-32.798-36.201h32.798V284.672z M233.638,233.419H200.84c2.929-17.641,15.932-31.812,32.798-36.186
	V233.419z M233.638,181.798c-25.065,4.804-44.574,25.66-47.789,51.622h-44.619c3.569-50.899,42.767-91.934,92.401-97.265
	L233.638,181.798L233.638,181.798z M233.638,121.05c-57.811,5.436-103.605,53.18-107.234,112.376H81.739
	c3.72-84.134,69.527-152.087,151.898-157.696V121.05z M248.471,135.74c52.969,1.973,95.842,44.363,99.599,97.687H303.45
	c-3.516-28.393-26.526-50.658-54.98-52.51L248.471,135.74L248.471,135.74z M248.471,195.976
	c20.254,1.762,36.653,17.363,39.996,37.451h-39.996V195.976z M248.471,248.471h39.996c-3.328,20.088-19.72,35.689-39.996,37.459
	V248.471z M248.471,300.988c28.439-1.852,51.464-24.109,54.98-52.518h44.619c-3.735,53.323-46.615,95.721-99.599,97.694
	L248.471,300.988L248.471,300.988z M248.471,406.505v-45.282c61.139-2.003,110.637-51.11,114.417-112.753h44.672
	C403.727,335.044,334.17,404.48,248.471,406.505z M362.888,233.419c-3.78-61.621-53.278-110.75-114.417-112.738V75.407
	c85.7,2.018,155.256,71.454,159.089,158.02L362.888,233.419L362.888,233.419z"/>
<path style="fill:#64B5F6;" d="M115.991,365.455l10.549-10.549c-26.225-28.024-42.978-65.25-44.8-106.436h44.664
	c1.762,28.823,13.591,54.882,31.857,74.714l10.534-10.541c-15.646-17.107-25.841-39.447-27.565-64.166h44.619
	c1.536,12.408,6.859,23.582,14.667,32.459l10.556-10.556c-5.188-6.114-8.87-13.591-10.24-21.896h32.128l15.511-15.503v-37.007
	c9.848,0.851,18.718,5.022,25.683,11.324l10.571-10.586c-9.675-9.05-22.31-14.893-36.254-15.797V135.74
	c26.33,0.979,50.161,11.964,67.93,29.304l10.556-10.556c-20.48-20.111-48.038-32.806-78.502-33.807V75.407
	c42.85,1.016,81.679,18.876,110.268,47.322l10.541-10.564c-31.262-31.209-73.826-50.808-120.809-51.817V15.157
	c-1.265-0.015-2.53-0.09-3.817-0.09c-3.689,0-7.364,0.105-11.008,0.286v45.274c-90.541,5.647-162.982,80.354-166.731,172.792H22.415
	c-0.083,2.507-0.181,5.007-0.181,7.529c0,2.522,0.105,5.022,0.181,7.529h44.484C68.751,293.76,87.138,334.72,115.991,365.455z
	 M233.638,233.419H200.84c2.929-17.641,15.932-31.812,32.798-36.186V233.419z M233.638,181.798
	c-25.065,4.804-44.574,25.66-47.789,51.622h-44.619c3.569-50.899,42.767-91.934,92.401-97.265L233.638,181.798L233.638,181.798z
	 M233.638,75.723v45.327c-57.811,5.436-103.605,53.18-107.234,112.376H81.739C85.459,149.286,151.273,81.333,233.638,75.723z"/>
<path style="fill:#FFFFFF;" d="M244.646,481.882C113.83,481.882,0,373.805,0,240.941S113.83,0,244.646,0
	s237.237,108.077,237.237,240.941C481.882,373.805,375.462,481.882,244.646,481.882z M244.646,15.066
	c-122.639,0-222.404,101.331-222.404,225.882s99.765,225.882,222.404,225.882s222.682-101.323,222.404-225.882
	C466.771,116.134,367.096,14.886,244.646,15.066z"/>
<g>
</g>
<g>
</g>
<g>
</g>
<g>
</g>
<g>
</g>
<g>
</g>
<g>
</g>
<g>
</g>
<g>
</g>
<g>
</g>
<g>
</g>
<g>
</g>
<g>
</g>
<g>
</g>
<g>
</g>
</svg>
