<svg fill="none" height="64" viewBox="0 0 64 64" width="64" xmlns="http://www.w3.org/2000/svg"><path d="m23.4702 12.6469c3.9076-6.19588 13.152-6.19587 17.0596 0l17.9736 28.499c4.0973 6.4967-.7019 14.8541-8.5298 14.8541h-35.9472c-7.82793 0-12.62711-8.3574-8.52981-14.8541z" fill="#fa1228"/><g fill="#000"><path d="m32 41c-1.1046 0-2-.8954-2-2v-20c0-1.1046.8954-2 2-2s2 .8954 2 2v20c0 1.1046-.8954 2-2 2z"/><path d="m32 47c-1.1046 0-2-.8954-2-2s.8954-2 2-2 2 .8954 2 2-.8954 2-2 2z"/><path clip-rule="evenodd" d="m21.7785 11.58c4.6922-7.44002 15.7508-7.44 20.443 0l17.9736 28.499c4.9876 7.9084-.9145 17.921-10.2216 17.921h-35.9471c-9.30707 0-15.20913-10.0126-10.22149-17.921zm17.0597 2.1338c-3.123-4.95174-10.5534-4.95174-13.6764 0l-17.97355 28.499c-3.20696 5.0849.48932 11.7872 6.83815 11.7872h35.9471c6.3489 0 10.0452-6.7023 6.8382-11.7872z" fill-rule="evenodd"/></g></svg>