<svg viewBox="0 -18 512.00004 512" xmlns="http://www.w3.org/2000/svg">
    <path d="m512 372.632812-131.714844 102.96875-.03125-50.484374c-57.613281-4.527344-110.269531-34.921876-143-83.242188l-94.765625-139.902344c-18.359375-27.105468-48.871093-43.289062-81.609375-43.289062h-60.878906v-101.769532h70.800781c57.550781 0 111.210938 28.425782 143.539063 76.039063l99.355468 146.339844c15.511719 22.84375 39.667969 37.914062 66.496094 42.050781l-.03125-52.386719zm0 0"
          fill="#a24bdb"/>
    <path d="m380.191406 321.34375c-26.828125-4.136719-50.984375-19.207031-66.496094-42.050781l-28.167968-41.492188h-118.769532l70.496094 104.078125c32.730469 48.316406 85.386719 78.710938 143 83.238282l.03125 50.488281 131.714844-102.972657-131.839844-103.675781zm0 0"
          fill="#ac2ca5"/>
    <path d="m512 102.972656-131.714844-102.972656-.03125 50.484375c-57.613281 4.53125-110.269531 34.925781-143 83.242187l-94.765625 139.902344c-18.359375 27.105469-48.871093 43.289063-81.609375 43.289063h-60.878906v101.773437h70.800781c57.550781 0 111.210938-28.425781 143.539063-76.042968l99.355468-146.339844c15.511719-22.84375 39.667969-37.914063 66.496094-42.046875l-.03125 52.382812zm0 0"
          fill="#ff0059"/>
    <path d="m166.757812 237.800781-24.269531 35.828125c-18.359375 27.109375-48.871093 43.292969-81.609375 43.292969h-60.878906v101.769531h70.800781c57.550781 0 111.210938-28.425781 143.539063-76.039062l71.1875-104.851563zm0 0"
          fill="#d20041"/>
</svg>