

<svg id="Capa_1" enable-background="new 0 0 510.855 510.855" height="512" viewBox="0 0 510.855 510.855" width="512" xmlns="http://www.w3.org/2000/svg" xmlns:xlink="http://www.w3.org/1999/xlink"><linearGradient id="lg1"><stop offset="0" stop-color="#eaf6ff"/><stop offset="1" stop-color="#b3dafe"/></linearGradient><linearGradient id="SVGID_1_" gradientTransform="matrix(-1 0 0 1 -1580.346 0)" gradientUnits="userSpaceOnUse" x1="-1821.197" x2="-1808.947" xlink:href="#lg1" y1="33.838" y2="52.338"/><linearGradient id="SVGID_00000148653068471166434810000012866016981206887846_" gradientTransform="matrix(-1 0 0 1 -1580.346 0)" gradientUnits="userSpaceOnUse" x1="-1819.263" x2="-1808.43" y1="44.434" y2="37.601"><stop offset="0" stop-color="#b3dafe" stop-opacity="0"/><stop offset="1" stop-color="#7bacdf"/></linearGradient><linearGradient id="SVGID_00000125592129479805607810000011925544623352299401_" gradientTransform="matrix(-1 0 0 1 -1580.346 0)" gradientUnits="userSpaceOnUse" x1="-1795.544" x2="-1811.674" xlink:href="#lg1" y1="22.039" y2="38.169"/><linearGradient id="SVGID_00000119828403772910809870000001001816443709562801_" gradientUnits="userSpaceOnUse" x1="159.641" x2="354.641" y1="95.428" y2="420.428"><stop offset="0" stop-color="#9be69d"/><stop offset="1" stop-color="#0996a4"/></linearGradient><linearGradient id="lg2"><stop offset="0" stop-color="#01525a" stop-opacity="0"/><stop offset="1" stop-color="#01525a"/></linearGradient><linearGradient id="SVGID_00000074423543643269449960000015761375037062369727_" gradientUnits="userSpaceOnUse" x1="164.418" x2="218.418" xlink:href="#lg2" y1="341.047" y2="141.047"/><linearGradient id="SVGID_00000142858645886491162540000007573114551180628897_" gradientUnits="userSpaceOnUse" x1="351.011" x2="405.011" xlink:href="#lg2" y1="154.454" y2="-45.546"/><linearGradient id="SVGID_00000096028180481954096480000015288368954933458825_" gradientUnits="userSpaceOnUse" x1="185.541" x2="185.541" xlink:href="#lg2" y1="356.428" y2="517.874"/><linearGradient id="SVGID_00000121965476519811131440000001101056591931231142_" gradientUnits="userSpaceOnUse" x1="187.345" x2="310.982" xlink:href="#lg2" y1="373.724" y2="497.362"/><linearGradient id="SVGID_00000130627542633964580400000016246522983556678566_" gradientUnits="userSpaceOnUse" x1="289.744" x2="250.572" xlink:href="#lg1" y1="92.659" y2="53.487"/><linearGradient id="SVGID_00000109738849797462203690000012165366548740610220_" gradientUnits="userSpaceOnUse" x1="451.744" x2="421.394" xlink:href="#lg1" y1="254.659" y2="224.309"/><linearGradient id="SVGID_00000038401265093753034400000005420770878655461009_" gradientUnits="userSpaceOnUse" x1="266.26" x2="278.279" xlink:href="#lg1" y1="69.175" y2="81.194"/><linearGradient id="SVGID_00000134935746617233317430000001982608992812626610_" gradientUnits="userSpaceOnUse" x1="94.306" x2="58.005" xlink:href="#lg1" y1="285.429" y2="249.128"/><linearGradient id="SVGID_00000083067413930379735620000001140272285591143599_" gradientUnits="userSpaceOnUse" x1="262.973" x2="219.295" xlink:href="#lg1" y1="454.096" y2="410.418"/><linearGradient id="SVGID_00000100353125103982761050000009822053806246806678_" gradientUnits="userSpaceOnUse" x1="72.156" x2="84.175" xlink:href="#lg1" y1="263.279" y2="275.298"/><linearGradient id="SVGID_00000079455706332456736610000006732895660875986588_" gradientUnits="userSpaceOnUse" x1="236.299" x2="248.317" xlink:href="#lg1" y1="427.422" y2="439.441"/><linearGradient id="SVGID_00000173154292317861434110000008968583135221492892_" gradientUnits="userSpaceOnUse" x1="430.403" x2="442.422" xlink:href="#lg1" y1="233.318" y2="245.336"/><g><g><path d="m238.337 62.502 17.325-17.324-23.335-23.335-17.324 17.324z" fill="url(#SVGID_1_)"/><path d="m238.337 62.502 17.325-17.324-23.335-23.335-17.324 17.324z" fill="url(#SVGID_00000148653068471166434810000012866016981206887846_)"/><path d="m218.892 48.006 22.274-22.274c4.393-4.393 4.393-11.516 0-15.91-4.393-4.393-11.516-4.393-15.91 0l-22.274 22.274c-4.393 4.393-4.393 11.516 0 15.91 4.394 4.394 11.517 4.394 15.91 0z" fill="url(#SVGID_00000125592129479805607810000011925544623352299401_)"/></g><path d="m377.742 321.694c31.442-5.646 61.538-20.618 85.839-44.919 63.257-63.256 62.658-168.001-1.287-230.562-63.413-62.04-165.112-61.615-228.001 1.273-24.287 24.287-39.256 54.363-44.91 85.786-5.127 28.498-27.344 50.77-55.844 55.887-31.442 5.646-61.538 20.618-85.839 44.919-63.257 63.256-62.658 168.001 1.287 230.562 63.413 62.04 165.112 61.615 228.001-1.273 24.287-24.287 39.257-54.363 44.91-85.786 5.127-28.497 27.345-50.769 55.844-55.887zm-268.442 80.075c-29.296-29.296-29.296-76.793 0-106.089s76.793-29.296 106.089 0 29.296 76.793 0 106.089-76.793 29.295-106.089 0zm186.593-186.593c-29.296-29.296-29.296-76.793 0-106.089s76.793-29.296 106.089 0 29.296 76.793 0 106.089-76.793 29.295-106.089 0z" fill="url(#SVGID_00000119828403772910809870000001001816443709562801_)"/><path d="m238.378 272.691c-41.992-41.992-110.075-41.992-152.067 0s-41.992 110.075 0 152.067 110.075 41.992 152.067 0c41.992-41.993 41.992-110.075 0-152.067zm-22.989 129.078c-29.296 29.296-76.793 29.296-106.089 0s-29.296-76.793 0-106.089 76.793-29.296 106.089 0c29.296 29.295 29.296 76.793 0 106.089z" fill="url(#SVGID_00000074423543643269449960000015761375037062369727_)"/><path d="m424.971 86.098c-41.992-41.992-110.075-41.992-152.067 0s-41.992 110.075 0 152.067 110.075 41.992 152.067 0c41.992-41.993 41.992-110.075 0-152.067zm-22.989 129.078c-29.296 29.296-76.793 29.296-106.089 0s-29.296-76.793 0-106.089 76.793-29.296 106.089 0c29.296 29.295 29.296 76.793 0 106.089z" fill="url(#SVGID_00000142858645886491162540000007573114551180628897_)"/><path d="m232.975 323.428c9.455 26.456 3.6 57.156-17.585 78.341-29.296 29.296-76.793 29.296-106.089 0-21.185-21.185-27.04-51.885-17.585-78.341h-89.126c-7.754 50.165 7.743 103.396 46.398 141.214 63.413 62.04 165.112 61.615 228.001-1.273 24.287-24.287 39.256-54.363 44.91-85.786 4.679-26.01 23.598-46.825 48.533-54.154h-137.457z" fill="url(#SVGID_00000096028180481954096480000015288368954933458825_)"/><circle cx="162.345" cy="348.724" fill="url(#SVGID_00000121965476519811131440000001101056591931231142_)" r="162.131"/><g><path d="m246.31 100.617c-7.205-7.205-7.205-18.886 0-26.091l25.301-25.301c7.205-7.205 18.886-7.205 26.091 0 7.205 7.205 7.205 18.886 0 26.091l-25.301 25.301c-7.205 7.204-18.886 7.204-26.091 0z" fill="url(#SVGID_00000130627542633964580400000016246522983556678566_)"/><path d="m410.453 264.759c-7.205-7.205-7.205-18.886 0-26.091l25.301-25.301c7.205-7.205 18.886-7.205 26.091 0 7.205 7.205 7.205 18.886 0 26.091l-25.301 25.301c-7.205 7.205-18.887 7.205-26.091 0z" fill="url(#SVGID_00000109738849797462203690000012165366548740610220_)"/></g><path d="m260.944 95.982c2.559 0 5.119-.976 7.071-2.929l22.123-22.123c3.905-3.905 3.905-10.237 0-14.143-3.905-3.905-10.237-3.905-14.143 0l-22.123 22.123c-3.905 3.905-3.905 10.237 0 14.143 1.954 1.953 4.513 2.929 7.072 2.929z" fill="url(#SVGID_00000038401265093753034400000005420770878655461009_)"/><g><path d="m52.205 294.721c-7.205-7.205-7.205-18.886 0-26.091l25.301-25.301c7.205-7.205 18.886-7.205 26.091 0 7.205 7.205 7.205 18.886 0 26.091l-25.301 25.301c-7.204 7.205-18.886 7.205-26.091 0z" fill="url(#SVGID_00000134935746617233317430000001982608992812626610_)"/><path d="m216.348 458.864c-7.205-7.205-7.205-18.886 0-26.091l25.301-25.301c7.205-7.205 18.886-7.205 26.091 0 7.205 7.205 7.205 18.886 0 26.091l-25.301 25.301c-7.204 7.205-18.886 7.205-26.091 0z" fill="url(#SVGID_00000083067413930379735620000001140272285591143599_)"/></g><path d="m66.84 290.086c2.559 0 5.119-.976 7.071-2.929l22.123-22.123c3.905-3.905 3.905-10.237 0-14.143-3.905-3.905-10.237-3.905-14.143 0l-22.123 22.123c-3.905 3.905-3.905 10.237 0 14.143 1.954 1.953 4.513 2.929 7.072 2.929z" fill="url(#SVGID_00000100353125103982761050000009822053806246806678_)"/><path d="m230.983 454.229c2.559 0 5.119-.976 7.071-2.929l22.123-22.123c3.905-3.905 3.905-10.237 0-14.143-3.905-3.905-10.237-3.905-14.143 0l-22.123 22.123c-3.905 3.905-3.905 10.237 0 14.143 1.954 1.953 4.513 2.929 7.072 2.929z" fill="url(#SVGID_00000079455706332456736610000006732895660875986588_)"/><path d="m425.087 260.125c2.559 0 5.119-.976 7.071-2.929l22.123-22.123c3.905-3.905 3.905-10.237 0-14.143-3.905-3.905-10.237-3.905-14.143 0l-22.123 22.123c-3.905 3.905-3.905 10.237 0 14.143 1.954 1.953 4.513 2.929 7.072 2.929z" fill="url(#SVGID_00000173154292317861434110000008968583135221492892_)"/></g></svg>