<svg xmlns="http://www.w3.org/2000/svg" xmlns:xlink="http://www.w3.org/1999/xlink" width="512" height="512" viewBox="0 0 510.855 510.855"><linearGradient id="a"><stop offset="0" stop-color="#eaf6ff"/><stop offset="1" stop-color="#b3dafe"/></linearGradient><linearGradient xlink:href="#a" id="c" x1="-1821.197" x2="-1808.947" y1="33.838" y2="52.338" gradientTransform="matrix(-1 0 0 1 -1580.346 0)" gradientUnits="userSpaceOnUse"/><linearGradient id="d" x1="-1819.263" x2="-1808.43" y1="44.434" y2="37.601" gradientTransform="matrix(-1 0 0 1 -1580.346 0)" gradientUnits="userSpaceOnUse"><stop offset="0" stop-color="#b3dafe" stop-opacity="0"/><stop offset="1" stop-color="#7bacdf"/></linearGradient><linearGradient xlink:href="#a" id="e" x1="-1795.544" x2="-1811.674" y1="22.039" y2="38.169" gradientTransform="matrix(-1 0 0 1 -1580.346 0)" gradientUnits="userSpaceOnUse"/><linearGradient id="f" x1="159.641" x2="354.641" y1="95.428" y2="420.428" gradientUnits="userSpaceOnUse"><stop offset="0" stop-color="#9be69d"/><stop offset="1" stop-color="#0996a4"/></linearGradient><linearGradient id="b"><stop offset="0" stop-color="#01525a" stop-opacity="0"/><stop offset="1" stop-color="#01525a"/></linearGradient><linearGradient xlink:href="#b" id="g" x1="164.418" x2="218.418" y1="341.047" y2="141.047" gradientUnits="userSpaceOnUse"/><linearGradient xlink:href="#b" id="h" x1="351.011" x2="405.011" y1="154.454" y2="-45.546" gradientUnits="userSpaceOnUse"/><linearGradient xlink:href="#b" id="i" x1="185.541" x2="185.541" y1="356.428" y2="517.874" gradientUnits="userSpaceOnUse"/><linearGradient xlink:href="#b" id="j" x1="187.345" x2="310.982" y1="373.724" y2="497.362" gradientUnits="userSpaceOnUse"/><linearGradient xlink:href="#a" id="k" x1="289.744" x2="250.572" y1="92.659" y2="53.487" gradientUnits="userSpaceOnUse"/><linearGradient xlink:href="#a" id="l" x1="451.744" x2="421.394" y1="254.659" y2="224.309" gradientUnits="userSpaceOnUse"/><linearGradient xlink:href="#a" id="m" x1="266.26" x2="278.279" y1="69.175" y2="81.194" gradientUnits="userSpaceOnUse"/><linearGradient xlink:href="#a" id="n" x1="94.306" x2="58.005" y1="285.429" y2="249.128" gradientUnits="userSpaceOnUse"/><linearGradient xlink:href="#a" id="o" x1="262.973" x2="219.295" y1="454.096" y2="410.418" gradientUnits="userSpaceOnUse"/><linearGradient xlink:href="#a" id="p" x1="72.156" x2="84.175" y1="263.279" y2="275.298" gradientUnits="userSpaceOnUse"/><linearGradient xlink:href="#a" id="q" x1="236.299" x2="248.317" y1="427.422" y2="439.441" gradientUnits="userSpaceOnUse"/><linearGradient xlink:href="#a" id="r" x1="430.403" x2="442.422" y1="233.318" y2="245.336" gradientUnits="userSpaceOnUse"/><path fill="url(#c)" d="m238.337 62.502 17.325-17.324-23.335-23.335-17.324 17.324z"/><path fill="url(#d)" d="m238.337 62.502 17.325-17.324-23.335-23.335-17.324 17.324z"/><path fill="url(#e)" d="m218.892 48.006 22.274-22.274c4.393-4.393 4.393-11.516 0-15.91-4.393-4.393-11.516-4.393-15.91 0l-22.274 22.274c-4.393 4.393-4.393 11.516 0 15.91 4.394 4.394 11.517 4.394 15.91 0"/><path fill="url(#f)" d="M377.742 321.694c31.442-5.646 61.538-20.618 85.839-44.919 63.257-63.256 62.658-168.001-1.287-230.562-63.413-62.04-165.112-61.615-228.001 1.273-24.287 24.287-39.256 54.363-44.91 85.786-5.127 28.498-27.344 50.77-55.844 55.887-31.442 5.646-61.538 20.618-85.839 44.919-63.257 63.256-62.658 168.001 1.287 230.562 63.413 62.04 165.112 61.615 228.001-1.273 24.287-24.287 39.257-54.363 44.91-85.786 5.127-28.497 27.345-50.769 55.844-55.887M109.3 401.769c-29.296-29.296-29.296-76.793 0-106.089s76.793-29.296 106.089 0 29.296 76.793 0 106.089-76.793 29.295-106.089 0m186.593-186.593c-29.296-29.296-29.296-76.793 0-106.089s76.793-29.296 106.089 0 29.296 76.793 0 106.089-76.793 29.295-106.089 0"/><path fill="url(#g)" d="M238.378 272.691c-41.992-41.992-110.075-41.992-152.067 0s-41.992 110.075 0 152.067 110.075 41.992 152.067 0c41.992-41.993 41.992-110.075 0-152.067m-22.989 129.078c-29.296 29.296-76.793 29.296-106.089 0s-29.296-76.793 0-106.089 76.793-29.296 106.089 0 29.296 76.793 0 106.089"/><path fill="url(#h)" d="M424.971 86.098c-41.992-41.992-110.075-41.992-152.067 0s-41.992 110.075 0 152.067 110.075 41.992 152.067 0c41.992-41.993 41.992-110.075 0-152.067m-22.989 129.078c-29.296 29.296-76.793 29.296-106.089 0s-29.296-76.793 0-106.089 76.793-29.296 106.089 0 29.296 76.793 0 106.089"/><path fill="url(#i)" d="M232.975 323.428c9.455 26.456 3.6 57.156-17.585 78.341-29.296 29.296-76.793 29.296-106.089 0-21.185-21.185-27.04-51.885-17.585-78.341H2.59c-7.754 50.165 7.743 103.396 46.398 141.214 63.413 62.04 165.112 61.615 228.001-1.273 24.287-24.287 39.256-54.363 44.91-85.786 4.679-26.01 23.598-46.825 48.533-54.154z"/><circle cx="162.345" cy="348.724" r="162.131" fill="url(#j)"/><path fill="url(#k)" d="M246.31 100.617c-7.205-7.205-7.205-18.886 0-26.091l25.301-25.301c7.205-7.205 18.886-7.205 26.091 0s7.205 18.886 0 26.091l-25.301 25.301c-7.205 7.204-18.886 7.204-26.091 0"/><path fill="url(#l)" d="M410.453 264.759c-7.205-7.205-7.205-18.886 0-26.091l25.301-25.301c7.205-7.205 18.886-7.205 26.091 0s7.205 18.886 0 26.091l-25.301 25.301c-7.205 7.205-18.887 7.205-26.091 0"/><path fill="url(#m)" d="M260.944 95.982a9.97 9.97 0 0 0 7.071-2.929l22.123-22.123c3.905-3.905 3.905-10.237 0-14.143-3.905-3.905-10.237-3.905-14.143 0L253.872 78.91c-3.905 3.905-3.905 10.237 0 14.143a9.97 9.97 0 0 0 7.072 2.929"/><path fill="url(#n)" d="M52.205 294.721c-7.205-7.205-7.205-18.886 0-26.091l25.301-25.301c7.205-7.205 18.886-7.205 26.091 0s7.205 18.886 0 26.091l-25.301 25.301c-7.204 7.205-18.886 7.205-26.091 0"/><path fill="url(#o)" d="M216.348 458.864c-7.205-7.205-7.205-18.886 0-26.091l25.301-25.301c7.205-7.205 18.886-7.205 26.091 0s7.205 18.886 0 26.091l-25.301 25.301c-7.204 7.205-18.886 7.205-26.091 0"/><path fill="url(#p)" d="M66.84 290.086a9.97 9.97 0 0 0 7.071-2.929l22.123-22.123c3.905-3.905 3.905-10.237 0-14.143-3.905-3.905-10.237-3.905-14.143 0l-22.123 22.123c-3.905 3.905-3.905 10.237 0 14.143a9.97 9.97 0 0 0 7.072 2.929"/><path fill="url(#q)" d="M230.983 454.229a9.97 9.97 0 0 0 7.071-2.929l22.123-22.123c3.905-3.905 3.905-10.237 0-14.143-3.905-3.905-10.237-3.905-14.143 0l-22.123 22.123c-3.905 3.905-3.905 10.237 0 14.143a9.97 9.97 0 0 0 7.072 2.929"/><path fill="url(#r)" d="M425.087 260.125a9.97 9.97 0 0 0 7.071-2.929l22.123-22.123c3.905-3.905 3.905-10.237 0-14.143-3.905-3.905-10.237-3.905-14.143 0l-22.123 22.123c-3.905 3.905-3.905 10.237 0 14.143a9.97 9.97 0 0 0 7.072 2.929"/></svg>