<svg id="Layer_1" enable-background="new 0 0 512 512" viewBox="0 0 512 512" xmlns="http://www.w3.org/2000/svg"><path d="m225.571 335.839c0 4.555-3.693 8.248-8.248 8.248h-190.853c-14.32 0-25.97-11.65-25.97-25.97v-204.51c0-14.32 11.65-25.971 25.97-25.971h334.944c14.304 0 25.941 11.651 25.941 25.971 0 4.555-3.693 8.248-8.248 8.248s-8.248-3.693-8.248-8.248c0-5.225-4.237-9.476-9.445-9.476h-334.944c-5.225 0-9.475 4.251-9.475 9.476v204.51c0 5.225 4.25 9.475 9.475 9.475h190.853c4.555-.001 8.248 3.692 8.248 8.247zm208.313-34.539v69.048c0 4.555-3.693 8.248-8.248 8.248h-87.589v37.521c0 3.336-2.01 6.343-5.092 7.619-1.02.423-2.092.629-3.154.629-2.147 0-4.256-.838-5.834-2.416l-80.277-80.278c-3.22-3.22-3.221-8.441-.001-11.662l80.277-80.306c2.359-2.358 5.905-3.065 8.988-1.789 3.082 1.277 5.092 4.284 5.092 7.62v37.52h87.589c4.556-.001 8.249 3.691 8.249 8.246zm-16.495 8.248h-87.589c-4.555 0-8.248-3.693-8.248-8.248v-25.852l-60.368 60.39 60.368 60.369v-25.858c0-4.555 3.693-8.248 8.248-8.248h87.589zm-223.461-171.055c42.668 0 77.383 34.701 77.383 77.353 0 42.669-34.714 77.384-77.383 77.384-42.653 0-77.354-34.714-77.354-77.384-.001-42.652 34.7-77.353 77.354-77.353zm0 16.495c-33.558 0-60.859 27.301-60.859 60.858 0 33.575 27.301 60.888 60.859 60.888 33.574 0 60.887-27.314 60.887-60.888 0-33.557-27.314-60.858-60.887-60.858zm0 9.387c4.555 0 8.248 3.693 8.248 8.248v7.924h15.938c4.555 0 8.248 3.693 8.248 8.248s-3.693 8.248-8.248 8.248h-15.938v10.557h2.397c12.014 0 21.789 9.775 21.789 21.789s-9.775 21.788-21.789 21.788h-2.397v7.925c0 4.555-3.693 8.248-8.248 8.248s-8.248-3.693-8.248-8.248v-7.925h-15.938c-4.555 0-8.248-3.693-8.248-8.248s3.693-8.248 8.248-8.248h15.938v-10.586h-2.398c-12.014 0-21.788-9.761-21.788-21.758 0-12.014 9.774-21.789 21.788-21.789h2.398v-7.924c0-4.556 3.693-8.249 8.248-8.249zm10.644 59.719h-2.397v10.586h2.397c2.919 0 5.294-2.374 5.294-5.292 0-2.87-2.424-5.294-5.294-5.294zm-18.892-27.052h-2.398c-2.919 0-5.293 2.375-5.293 5.294 0 2.903 2.374 5.263 5.293 5.263h2.398zm317.572-62.556h-124.145c-4.555 0-8.248 3.693-8.248 8.248s3.693 8.248 8.248 8.248h124.146c4.555 0 8.248-3.693 8.248-8.248-.001-4.555-3.694-8.248-8.249-8.248zm-80.365 35.562h-43.78c-4.555 0-8.248 3.693-8.248 8.248s3.693 8.248 8.248 8.248h43.78c4.555 0 8.248-3.693 8.248-8.248s-3.693-8.248-8.248-8.248zm-43.517 43.809c0 4.555 3.693 8.248 8.248 8.248h61.854c4.555 0 8.248-3.693 8.248-8.248s-3.693-8.248-8.248-8.248h-61.854c-4.556.001-8.248 3.693-8.248 8.248zm100.106 27.315h-100.369c-4.555 0-8.248 3.693-8.248 8.248s3.693 8.248 8.248 8.248h100.369c4.555 0 8.248-3.693 8.248-8.248s-3.693-8.248-8.248-8.248z"/></svg>