<svg height="512" viewBox="0 0 64 64" width="512" xmlns="http://www.w3.org/2000/svg"><g id="_45_Refund" data-name="45 Refund"><path d="m30 32c-10.6662.187-10.6678 15.8115 0 16 10.6658-.187 10.6674-15.8115 0-16zm0 14c-7.9593-.04-7.96-11.9586 0-12 7.959.04 7.96 11.9587 0 12zm15-9a3 3 0 1 0 0 6 3 3 0 0 0 0-6zm0 4a1 1 0 0 1 0-2 1 1 0 0 1 0 2zm-29-4a3 3 0 1 0 0 6 3 3 0 0 0 0-6zm0 4a1 1 0 0 1 0-2 1 1 0 0 1 0 2zm42.748-14.6006c-3.04-5.24-9.0087-8.6064-17.748-10.0156v-6.29a1.0063 1.0063 0 0 0 -1.707-.7071l-12.7891 12.7891a1 1 0 0 0 0 1.414l1.41 1.41h-22.9139a3.0088 3.0088 0 0 0 -3 3v24.0002a3.0088 3.0088 0 0 0 3 3h50a3.0088 3.0088 0 0 0 3-3v-6.0257a.916.916 0 0 0 .8174-.6061c2.0226-5.1133 3.6526-12.5557-.0694-18.9688zm-3.748 26.6006h-50a1.0029 1.0029 0 0 1 -1-1v-24a1.0029 1.0029 0 0 1 1-1h24.9141l2 2h-21.9141a1.0029 1.0029 0 0 0 -1 1 2.0059 2.0059 0 0 1 -2 2 1.0029 1.0029 0 0 0 -1 1v14a1.0029 1.0029 0 0 0 1 1 2.0059 2.0059 0 0 1 2 2 1.0029 1.0029 0 0 0 1 1h40a1.0029 1.0029 0 0 0 1-1 2.0059 2.0059 0 0 1 2-2 1.0029 1.0029 0 0 0 1-1v-8.9653a22.6156 22.6156 0 0 1 2 3.8236v10.1417a1.0029 1.0029 0 0 1 -1 1zm-3-17.6523v10.7823a4.0093 4.0093 0 0 0 -2.87 2.87h-38.26a4.0093 4.0093 0 0 0 -2.87-2.87v-12.26a4.0093 4.0093 0 0 0 2.87-2.87h23.0441l5.3789 5.3789a1.0062 1.0062 0 0 0 1.707-.707v-6.3467c4.0892-.1544 8.0479 2.5577 11 6.0225zm6.0361 6.0986c-2.5728-6.46-10.4513-15.7171-18.3193-13.8828a1.0005 1.0005 0 0 0 -.7168.959v4.7353l-10.375-10.375 10.375-10.375v4.7354a1.0008 1.0008 0 0 0 .8574.99c8.5713 1.2314 14.3447 4.3164 17.1612 9.1689 2.6269 4.5295 2.2226 9.7379 1.0175 14.0442zm-27.6679-2.4424v-2.1592a1.01 1.01 0 0 1 .7881 1.0039.2993.2993 0 0 0 .2978.2657h1.0547a.3017.3017 0 0 0 .3-.3038 2.4849 2.4849 0 0 0 -2.44-2.5224v-.56c0-.4518-1.2165-.4513-1.2159 0v.5537a2.59 2.59 0 0 0 0 5.17v2.502c-.7332-.1934-.98-.6594-.9882-1.5137a.2993.2993 0 0 0 -.3-.3h-1.0493a.2993.2993 0 0 0 -.3.3 2.7272 2.7272 0 0 0 2.6367 3.0616v.8193c-.0006.4513 1.2162.4518 1.2159 0v-.8389c3.4955-.4209 3.6414-4.9837.0002-5.4782zm-1.2159-.2285a1 1 0 0 1 0-1.9629zm1.8565 3.89a1.3455 1.3455 0 0 1 -.6406.3252v-2.2318a1.1356 1.1356 0 0 1 .6406 1.9062z"/></g></svg>