<?xml version="1.0" encoding="UTF-8" standalone="no"?>
<!-- Created with Inkscape (http://www.inkscape.org/) -->

<svg
        xmlns:svg="http://www.w3.org/2000/svg"
        version="1.1"
        id="svg735"
        xml:space="preserve"
        width="682.66669"
        height="682.66669"
        viewBox="0 0 682.66669 682.66669"
        xmlns="http://www.w3.org/2000/svg"><defs
     id="defs739"><clipPath
       clipPathUnits="userSpaceOnUse"
       id="clipPath749"><path
         d="M 0,512 H 512 V 0 H 0 Z"
         id="path747" /></clipPath></defs>
    <g
            id="g741"
            transform="matrix(1.3333333,0,0,-1.3333333,0,682.66667)"><g
       id="g743"><g
         id="g745"
         clip-path="url(#clipPath749)"><g
           id="g751"
           transform="translate(20,492)"><path
             d="M 0,0 H 26.54 C 45.906,0 62.49,-13.873 65.911,-32.933 L 116,-312"
             style="fill:none;stroke:#000000;stroke-width:40;stroke-linecap:round;stroke-linejoin:round;stroke-miterlimit:10;stroke-dasharray:none;stroke-opacity:1"
             id="path753" /></g><g
            id="g755"
            transform="translate(456,100)"><path
             d="m 0,0 h -320 c -22.091,0 -40,17.909 -40,40 0,22.091 17.909,40 40,40 h 276 c 18.734,0 34.461,12.879 38.808,30.267 l 40,152 C 35.587,265.383 36,268.643 36,272 c 0,22.091 -17.908,40 -40,40 h -358"
             style="fill:none;stroke:#000000;stroke-width:40;stroke-linecap:round;stroke-linejoin:round;stroke-miterlimit:10;stroke-dasharray:none;stroke-opacity:1"
             id="path757" /></g><g
            id="g759"
            transform="translate(216,60)"><path
             d="m 0,0 c 0,-22.091 -17.909,-40 -40,-40 -22.091,0 -40,17.909 -40,40 0,22.091 17.909,40 40,40 C -17.909,40 0,22.091 0,0 Z"
             style="fill:none;stroke:#000000;stroke-width:40;stroke-linecap:round;stroke-linejoin:round;stroke-miterlimit:10;stroke-dasharray:none;stroke-opacity:1"
             id="path761" /></g><g
            id="g763"
            transform="translate(456,60)"><path
             d="m 0,0 c 0,-22.091 -17.908,-40 -40,-40 -22.092,0 -40,17.909 -40,40 0,22.091 17.908,40 40,40 C -17.908,40 0,22.091 0,0 Z"
             style="fill:none;stroke:#000000;stroke-width:40;stroke-linecap:round;stroke-linejoin:round;stroke-miterlimit:10;stroke-dasharray:none;stroke-opacity:1"
             id="path765" /></g><g
            id="g767"
            transform="translate(256,296)"><path
             d="M 0,0 H 80"
             style="fill:none;stroke:#000000;stroke-width:40;stroke-linecap:round;stroke-linejoin:round;stroke-miterlimit:10;stroke-dasharray:none;stroke-opacity:1"
             id="path769" /></g></g></g></g></svg>
