<!--
  - Copyright (c) 2023. Selldone® Business OS™
  -
  - Author: M.Pajuhaan
  - Web: https://selldone.com
  - ━━━━━━━━━━━━━━━━━━━━━━━━━━━━━━━━━━━━━━━━━━━━━━━━━━━━━━
  -
  - All rights reserved. In the weave of time, where traditions and innovations intermingle, this content was crafted.
  - From the essence of thought, through the corridors of creativity, each word, and sentiment has been molded.
  - Not just to exist, but to inspire. Like an artist's stroke or a sculptor's chisel, every nuance is deliberate.
  - Our journey is not just about reaching a destination, but about creating a masterpiece.
  - Tread carefully, for you're treading on dreams.
  -->

<svg id="Capa_1" enable-background="new 0 0 512 512" height="512" viewBox="0 0 512 512" width="512" xmlns="http://www.w3.org/2000/svg"><g><path d="m275.965 403.566h-49.669c-12.53 0-22.725 10.194-22.725 22.724v77.76c0 4.142 3.357 7.5 7.5 7.5h80.117c4.143 0 7.5-3.358 7.5-7.5v-77.76c0-12.53-10.193-22.724-22.723-22.724zm7.723 92.985h-65.117v-70.26c0-4.259 3.465-7.724 7.725-7.724h49.669c4.259 0 7.724 3.465 7.724 7.724v70.26z"/><path d="m387.873 208.219c1.508-9.401 2.278-18.975 2.278-28.57 0-38.096-11.958-73.446-32.306-102.514l12.247-21.824h101.444c4.143 0 7.5-3.358 7.5-7.5s-3.357-7.5-7.5-7.5h-105.836c-2.712 0-5.213 1.464-6.54 3.83l-11.263 20.071c-32.898-38.966-82.077-63.763-136.947-63.763-44.042 0-86.375 16.125-119.202 45.403-3.091 2.757-3.362 7.498-.605 10.589 2.759 3.092 7.5 3.363 10.59.605 30.075-26.824 68.863-41.597 109.218-41.597 52.305 0 98.976 24.584 129.067 62.804l-30.629 54.58c-2.027 3.612-.742 8.184 2.87 10.211 1.16.651 2.42.961 3.663.961 2.624 0 5.172-1.38 6.547-3.831l27.146-48.373c16.162 25.42 25.536 55.559 25.536 87.848 0 9.399-.81 18.772-2.385 27.95h-39.816c-12.527 0-22.72 10.192-22.72 22.72v80.13c-26.74 20.358-58.261 31.766-91.78 33.245v-164.045c0-4.142-3.357-7.5-7.5-7.5h-164.035c1.53-34.636 13.663-67.153 35.32-94.448 2.575-3.245 2.031-7.962-1.213-10.537-3.245-2.575-7.963-2.033-10.537 1.213-25.34 31.938-38.735 70.415-38.735 111.272 0 4.142 3.357 7.5 7.5 7.5h164.2v164.21c0 4.142 3.357 7.5 7.5 7.5 35.869 0 69.896-10.321 99.28-29.982v175.172c0 4.142 3.357 7.5 7.5 7.5h80.109c4.143 0 7.5-3.358 7.5-7.5v-56.31c0-4.142-3.357-7.5-7.5-7.5s-7.5 3.358-7.5 7.5v48.81h-65.109v-266.23c0-4.257 3.463-7.72 7.72-7.72h49.67c4.257 0 7.72 3.463 7.72 7.72v187.42c0 4.142 3.357 7.5 7.5 7.5s7.5-3.358 7.5-7.5v-187.42c0-10.72-7.465-19.723-17.467-22.1z"/><path d="m489.275 321.109h-49.669c-12.53 0-22.724 10.194-22.724 22.724v160.217c0 4.142 3.357 7.5 7.5 7.5h80.118c4.143 0 7.5-3.358 7.5-7.5v-160.217c0-12.53-10.194-22.724-22.725-22.724zm7.725 175.442h-65.117v-152.718c0-4.259 3.465-7.724 7.724-7.724h49.669c4.26 0 7.725 3.465 7.725 7.724v152.718z"/><path d="m179.2 203.894h-171.7c-4.143 0-7.5 3.358-7.5 7.5 0 77.757 49.781 144.096 119.14 168.845l-20.755 45.004h-80.69c-4.143 0-7.5 3.358-7.5 7.5s3.357 7.5 7.5 7.5h85.489c2.926 0 5.585-1.702 6.811-4.359l23.598-51.168c14.568 3.837 29.851 5.889 45.607 5.889 4.143 0 7.5-3.358 7.5-7.5v-171.71c0-4.143-3.357-7.501-7.5-7.501zm-7.5 171.542c-10.88-.492-21.485-2.055-31.718-4.573l9.141-19.821c1.734-3.762.092-8.217-3.67-9.952-3.76-1.735-8.217-.091-9.951 3.669l-10.054 21.801c-61.97-21.533-107.185-79.205-110.279-147.667h156.531z"/><path d="m17.695 407.954h62.309c4.143 0 7.5-3.358 7.5-7.5s-3.357-7.5-7.5-7.5h-62.309c-4.143 0-7.5 3.358-7.5 7.5s3.358 7.5 7.5 7.5z"/><path d="m397.646 25.448h73.89c4.143 0 7.5-3.358 7.5-7.5s-3.357-7.5-7.5-7.5h-73.89c-4.143 0-7.5 3.358-7.5 7.5s3.358 7.5 7.5 7.5z"/><path d="m427.51 176.448c0 4.142 3.357 7.5 7.5 7.5h54.49c4.143 0 7.5-3.358 7.5-7.5s-3.357-7.5-7.5-7.5h-54.49c-4.143 0-7.5 3.357-7.5 7.5z"/><path d="m489.5 201.271h-54.49c-4.143 0-7.5 3.358-7.5 7.5s3.357 7.5 7.5 7.5h54.49c4.143 0 7.5-3.358 7.5-7.5s-3.357-7.5-7.5-7.5z"/><path d="m489.5 233.594h-54.49c-4.143 0-7.5 3.358-7.5 7.5s3.357 7.5 7.5 7.5h54.49c4.143 0 7.5-3.358 7.5-7.5s-3.357-7.5-7.5-7.5z"/></g></svg>