<!--
  - Copyright (c) 2023. Selldone® Business OS™
  -
  - Author: M.Pajuhaan
  - Web: https://selldone.com
  - ━━━━━━━━━━━━━━━━━━━━━━━━━━━━━━━━━━━━━━━━━━━━━━━━━━━━━━
  -
  - All rights reserved. In the weave of time, where traditions and innovations intermingle, this content was crafted.
  - From the essence of thought, through the corridors of creativity, each word, and sentiment has been molded.
  - Not just to exist, but to inspire. Like an artist's stroke or a sculptor's chisel, every nuance is deliberate.
  - Our journey is not just about reaching a destination, but about creating a masterpiece.
  - Tread carefully, for you're treading on dreams.
  -->

<svg height="512pt" viewBox="0 0 512 511" width="512pt" xmlns="http://www.w3.org/2000/svg" xmlns:xlink="http://www.w3.org/1999/xlink"><linearGradient id="a"><stop offset="0" stop-color="#3b395f"/><stop offset=".8022" stop-color="#1b1f3a"/><stop offset="1" stop-color="#131830"/></linearGradient><linearGradient id="b" gradientUnits="userSpaceOnUse" x1="197.7734371376" x2="211.8283451376" xlink:href="#a" y1="464.1108784234" y2="480.1736304234"/><linearGradient id="c" gradientTransform="matrix(-1.003922 0 0 1.003922 406.252925 .5)" gradientUnits="userSpaceOnUse" x1="91.6668" x2="105.6668" xlink:href="#a" y1="461.7997" y2="477.7997"/><linearGradient id="d"><stop offset="0" stop-color="#3b395f"/><stop offset=".0633" stop-color="#37355a"/><stop offset=".4033" stop-color="#232543"/><stop offset=".7232" stop-color="#171b35"/><stop offset="1" stop-color="#131830"/></linearGradient><linearGradient id="e" gradientUnits="userSpaceOnUse" x1="252.60685364" x2="284.4041755382" xlink:href="#d" y1="394.721094882" y2="394.721094882"/><linearGradient id="f"><stop offset="0" stop-color="#fffcf8"/><stop offset=".1875" stop-color="#faf8f6"/><stop offset=".4041" stop-color="#eceef2"/><stop offset=".6353" stop-color="#d5dcea"/><stop offset=".875" stop-color="#b5c4df"/><stop offset="1" stop-color="#a1b5d8"/></linearGradient><linearGradient id="g" gradientUnits="userSpaceOnUse" x1="256.00011" x2="256.00011" xlink:href="#f" y1="168.125860262" y2="421.0520614902"/><linearGradient id="h" gradientUnits="userSpaceOnUse" x1="271.461512722" x2="233.8165459582" y1="196.3318519896" y2="-146.9919033754"><stop offset="0" stop-color="#a1b5d8" stop-opacity="0"/><stop offset="1" stop-color="#748290"/></linearGradient><linearGradient id="i" gradientUnits="userSpaceOnUse" x1="17.3235776398" x2="17.3235776398" xlink:href="#d" y1="31.6616384878" y2="65.4121910292"/><linearGradient id="j" gradientTransform="matrix(-1.003922 0 0 1.003922 931.639216 .5)" gradientUnits="userSpaceOnUse" x1="435.2559" x2="435.2559" xlink:href="#d" y1="31.0399" y2="64.6586"/><linearGradient id="k"><stop offset="0" stop-color="#3b395f" stop-opacity="0"/><stop offset=".0633" stop-color="#37355a" stop-opacity=".062745"/><stop offset=".4033" stop-color="#232543" stop-opacity=".403922"/><stop offset=".7232" stop-color="#171b35" stop-opacity=".721569"/><stop offset="1" stop-color="#131830"/></linearGradient><linearGradient id="l" gradientUnits="userSpaceOnUse" x1="504.3728222128" x2="463.705548268" xlink:href="#k" y1="61.7511886718" y2="21.083914727"/><linearGradient id="m" gradientUnits="userSpaceOnUse" x1="256.00011" x2="256.00011" xlink:href="#f" y1="27.1559361596" y2="89.8419301538"/><linearGradient id="n" gradientUnits="userSpaceOnUse" x1="295.0296859862" x2="261.8935337088" xlink:href="#k" y1="398.5111012164" y2="365.374948939"/><linearGradient id="o" gradientUnits="userSpaceOnUse" x1="17.3235776398" x2="17.3235776398" xlink:href="#d" y1="332.8230792656" y2="366.5737321992"/><linearGradient id="p" gradientTransform="matrix(-1.003922 0 0 1.003922 931.639216 .5)" gradientUnits="userSpaceOnUse" x1="435.2559" x2="435.2559" xlink:href="#d" y1="331.0248" y2="364.6436"/><linearGradient id="q" gradientUnits="userSpaceOnUse" x1="504.3728222128" x2="463.705548268" xlink:href="#k" y1="362.9127298418" y2="322.245455897"/><linearGradient id="r" gradientUnits="userSpaceOnUse" x1="256.00011" x2="256.00011" xlink:href="#f" y1="328.3173769374" y2="391.0033709316"/><linearGradient id="s"><stop offset="0" stop-color="#00e7b2"/><stop offset=".2459" stop-color="#05e5b1"/><stop offset=".5301" stop-color="#13ddac"/><stop offset=".8322" stop-color="#2ad1a5"/><stop offset="1" stop-color="#3ac9a0"/></linearGradient><linearGradient id="t" gradientUnits="userSpaceOnUse" x1="161.1341994334" x2="161.1341994334" xlink:href="#s" y1="182.8372328578" y2="261.7643757914"/><linearGradient id="u" gradientUnits="userSpaceOnUse" x1="224.3781732752" x2="224.3781732752" xlink:href="#s" y1="216.4193272876" y2="264.7053652904"/><linearGradient id="v" gradientUnits="userSpaceOnUse" x1="287.6220467248" x2="287.6220467248" xlink:href="#s" y1="184.7008132664" y2="261.9276135086"/><linearGradient id="w" gradientUnits="userSpaceOnUse" x1="350.8660205666" x2="350.8660205666" xlink:href="#s" y1="153.392802951" y2="259.1858021344"/><linearGradient id="x" gradientUnits="userSpaceOnUse" x1="298.1606175276" x2="211.832059649" y1="160.4540891224" y2="74.125631636"><stop offset="0" stop-color="#ff4974"/><stop offset=".3262" stop-color="#fe4672"/><stop offset=".5324" stop-color="#fb3e6c"/><stop offset=".7054" stop-color="#f52f60"/><stop offset=".8591" stop-color="#ee1a51"/><stop offset="1" stop-color="#e4003d"/></linearGradient><path d="m151.113281 507.449219c-4.140625-5.558594-2.992187-13.421875 2.566407-17.5625l82.273437-61.300781c5.558594-4.140626 13.417969-2.992188 17.558594 2.5625 4.144531 5.558593 2.996093 13.421874-2.5625 17.5625l-82.273438 61.300781c-5.558593 4.140625-13.421875 2.996093-17.5625-2.5625zm0 0" fill="url(#b)"/><path d="m360.886719 507.449219c4.140625-5.558594 2.992187-13.421875-2.566407-17.5625l-82.273437-61.300781c-5.558594-4.140626-13.417969-2.992188-17.558594 2.5625-4.144531 5.558593-2.996093 13.421874 2.5625 17.5625l82.273438 61.300781c5.558593 4.140625 13.421875 2.996093 17.5625-2.5625zm0 0" fill="url(#c)"/><path d="m270.296875 447.785156c-8.871094 5.011719-19.722656 5.011719-28.59375 0-2.699219-1.523437-4.367187-4.382812-4.367187-7.480468v-102.40625h37.328124v102.40625c0 3.097656-1.667968 5.957031-4.367187 7.480468zm0 0" fill="url(#e)"/><path d="m39.917969 30.457031h432.164062v320.738281h-432.164062zm0 0" fill="url(#g)"/><path d="m39.917969 80.1875 271.007812 271.007812h161.15625v-320.738281h-432.164062zm0 0" fill="url(#h)"/><path d="m34.648438 60.109375h-22.789063c-6.550781 0-11.859375-5.308594-11.859375-11.859375v-19.078125c0-6.550781 5.308594-11.863281 11.859375-11.863281h22.789063zm0 0" fill="url(#i)"/><path d="m477.351562 60.109375h22.789063c6.550781 0 11.859375-5.308594 11.859375-11.859375v-19.078125c0-6.550781-5.308594-11.863281-11.859375-11.863281h-22.789063zm0 0" fill="url(#j)"/><path d="m512 48.25v-4.25l-26.691406-26.691406h-7.957032v42.800781h22.789063c6.550781 0 11.859375-5.308594 11.859375-11.859375zm0 0" fill="url(#l)"/><path d="m472.277344 79.992188h-432.554688c-7.035156 0-12.738281-5.703126-12.738281-12.738282v-54.015625c0-7.035156 5.703125-12.738281 12.738281-12.738281h432.554688c7.035156 0 12.738281 5.703125 12.738281 12.738281v54.015625c0 7.035156-5.703125 12.738282-12.738281 12.738282zm0 0" fill="url(#m)"/><path d="m237.335938 381.0625 37.328124 37.328125v-80.492187h-37.328124zm0 0" fill="url(#n)"/><path d="m34.648438 361.269531h-22.789063c-6.550781 0-11.859375-5.308593-11.859375-11.859375v-19.078125c0-6.550781 5.308594-11.859375 11.859375-11.859375h22.789063zm0 0" fill="url(#o)"/><path d="m477.351562 361.269531h22.789063c6.550781 0 11.859375-5.308593 11.859375-11.859375v-19.078125c0-6.550781-5.308594-11.859375-11.859375-11.859375h-22.789063zm0 0" fill="url(#p)"/><path d="m512 349.410156v-4.246094l-26.691406-26.691406h-7.957032v42.796875h22.789063c6.550781 0 11.859375-5.308593 11.859375-11.859375zm0 0" fill="url(#q)"/><path d="m472.277344 381.152344h-432.554688c-7.035156 0-12.738281-5.699219-12.738281-12.734375v-54.019531c0-7.035157 5.703125-12.738282 12.738281-12.738282h432.554688c7.035156 0 12.738281 5.703125 12.738281 12.738282v54.019531c0 7.035156-5.703125 12.734375-12.738281 12.734375zm0 0" fill="url(#r)"/><path d="m135.535156 161.492188h51.199219v107.847656h-51.199219zm0 0" fill="url(#t)"/><path d="m198.78125 203.359375h51.195312v65.980469h-51.195312zm0 0" fill="url(#u)"/><path d="m262.023438 163.816406h51.199218v105.523438h-51.199218zm0 0" fill="url(#v)"/><path d="m325.265625 124.78125h51.199219v144.558594h-51.199219zm0 0" fill="url(#w)"/><path d="m224.453125 176.125c-4.507813 0-9.023437-1.375-12.925781-4.140625l-53.222656-37.699219c-1.808594-1.28125-2.238282-3.785156-.953126-5.597656 1.277344-1.808594 3.785157-2.238281 5.597657-.953125l53.222656 37.699219c5.152344 3.648437 11.980469 3.519531 16.988281-.324219l46.4375-35.597656c2.316406-1.777344 4.855469-3.246094 7.550782-4.367188l60.671874-25.285156c2.046876-.851563 4.398438.117187 5.25 2.164063.855469 2.046874-.113281 4.398437-2.160156 5.25l-60.675781 25.285156c-2.050781.855468-3.988281 1.972656-5.75 3.324218l-46.4375 35.601563c-4.027344 3.089844-8.808594 4.640625-13.59375 4.640625zm0 0" fill="url(#x)"/></svg>