<svg height="512" viewBox="0 0 58 58" width="512" xmlns="http://www.w3.org/2000/svg">
    <g id="Page-1" fill="none" fill-rule="evenodd">
        <g id="066---Comment-Note" fill-rule="nonzero">
            <path id="Shape"
                  d="m29 16h-23c-3.3137085 0-6 2.6862915-6 6v22c0 3.3137085 2.6862915 6 6 6h15c.6286808-.0023633 1.2216582.2919017 1.6.794l4.821 6.406c.3695939.5018496.9557403.7981243 1.579.7981243s1.2094061-.2962747 1.579-.7981243l4.821-6.4c.3777088-.5036117.9704854-.8 1.6-.8h15c3.3137085 0 6-2.6862915 6-6v-22c0-3.3137085-2.6862915-6-6-6z"
                  fill="#f0c419"/>
            <path id="Shape"
                  d="m29.25 33.46c.3755541-.3751365.5865733-.8841815.5865733-1.415s-.2110192-1.0398635-.5865733-1.415c-.3535122-.3553333-.8290669-.5627181-1.33-.58-.29991-.0126619-.575363-.1690001-.74-.42l.35-.1 17.98-17.99 2.13 2.12.7.71z"
                  fill="#802d40"/>
            <path id="Shape"
                  d="m56.12 6.59-4.95 4.95-5.66-5.66 4.95-4.95c1.1751514-1.16986609 3.0748486-1.16986609 4.25 0l1.41 1.42c1.1698135 1.17127019 1.1698135 3.06872981 0 4.24z"
                  fill="#ff5364"/>
            <path id="Shape"
                  d="m45.51 11.54-17.98 17.99-.35.1c-.1020092-.1476409-.1608759-.3207782-.17-.5-.0368433-.7929452-.5375815-1.4896709-1.2774074-1.7773809-.739826-.2877101-1.579713-.1123387-2.1425926.4473809l19.1-19.09 2.12 2.12z"
                  fill="#d25627"/>
            <path id="Shape"
                  d="m53.293 3.762c-.2859742-.28606061-.7161158-.37167172-1.0898272-.21690842-.3737115.1547633-.6173863.51941869-.6173863.92390842s.2436748.76914512.6173863.92390842c.3737114.1547633.803853.06915219 1.0898272-.21690842.3903819-.39049985.3903819-1.02350015 0-1.414z"
                  fill="#fff"/>
            <path id="Shape"
                  d="m49.051 6.59-1.415 1.415c-.2599566.25107447-.3642126.62287789-.2726972.97250732.0915155.34962944.3645604.6226744.7141899.71418984.3496294.09151544.7214328-.01274058.9725073-.27269716l1.415-1.419c.3530417-.39605424.3353217-.99888375-.0403743-1.37351689-.3756959-.37463313-.9785732-.39064539-1.3736257-.03648311z"
                  fill="#fff"/>
            <path id="Shape"
                  d="m24.83 35.5-3.62 1.68c-.3844854.1904922-.8476428.1144645-1.1510537-.1889463-.3034108-.3034109-.3794385-.7665683-.1889463-1.1510537l1.68-3.62c.7683989.2463963 1.4674904.6713343 2.04 1.24.5754244.5671908 1.001437 1.2680503 1.24 2.04z"
                  fill="#35495e"/>
            <path id="Shape"
                  d="m29.25 33.46-4.42 2.04c-.238563-.7719497-.6645756-1.4728092-1.24-2.04-.5725096-.5686657-1.2716011-.9936037-2.04-1.24l2.04-4.42c.5628796-.5597196 1.4027666-.735091 2.1425926-.4473809.7398259.28771 1.2405641.9844357 1.2774074 1.7773809.0091241.1792218.0679908.3523591.17.5.164637.2509999.44009.4073381.74.42.5009331.0172819.9764878.2246667 1.33.58.3755541.3751365.5865733.8841815.5865733 1.415s-.2110192 1.0398635-.5865733 1.415z"
                  fill="#f9eab0"/>
            <g fill="#fff">
                <path id="Shape"
                      d="m6 22h-1c-.55228475 0-1-.4477153-1-1s.44771525-1 1-1h1c.55228475 0 1 .4477153 1 1s-.44771525 1-1 1z"/>
                <path id="Shape"
                      d="m24 22h-14c-.55228475 0-1-.4477153-1-1s.44771525-1 1-1h14c.5522847 0 1 .4477153 1 1s-.4477153 1-1 1z"/>
                <path id="Shape"
                      d="m53 46h-2c-.5522847 0-1-.4477153-1-1s.4477153-1 1-1h2c.5522847 0 1 .4477153 1 1s-.4477153 1-1 1z"/>
                <path id="Shape"
                      d="m47 46h-10c-.5522847 0-1-.4477153-1-1s.4477153-1 1-1h10c.5522847 0 1 .4477153 1 1s-.4477153 1-1 1z"/>
            </g>
            <path id="Shape" d="m51.17 11.54-2.83 2.83-.7-.71-2.13-2.12-.7-.71-2.12-2.12 2.82-2.83z" fill="#95a5a5"/>
        </g>
    </g>
</svg>