<svg fill="none" height="512" viewBox="0 0 24 24" width="512" xmlns="http://www.w3.org/2000/svg"><g fill="rgb(0,0,0)"><path clip-rule="evenodd" d="m1.25 8c0-2.62335 2.12665-4.75 4.75-4.75h12c2.6234 0 4.75 2.12665 4.75 4.75v5c0 .4142-.3358.75-.75.75s-.75-.3358-.75-.75v-5c0-1.79493-1.4551-3.25-3.25-3.25h-12c-1.79493 0-3.25 1.45507-3.25 3.25v8c0 1.7949 1.45507 3.25 3.25 3.25h7c.4142 0 .75.3358.75.75s-.3358.75-.75.75h-7c-2.62335 0-4.75-2.1266-4.75-4.75z" fill-rule="evenodd"/><path d="m7 8c0-.55228-.44772-1-1-1s-1 .44772-1 1 .44772 1 1 1 1-.44772 1-1z"/><g clip-rule="evenodd" fill-rule="evenodd"><path d="m12 13.25c-.6904 0-1.25-.5596-1.25-1.25s.5596-1.25 1.25-1.25 1.25.5596 1.25 1.25-.5596 1.25-1.25 1.25zm-2.75-1.25c0 1.5188 1.2312 2.75 2.75 2.75s2.75-1.2312 2.75-2.75-1.2312-2.75-2.75-2.75-2.75 1.2312-2.75 2.75z"/><path d="m22.4939 15.4356c.3117.2727.3433.7466.0706 1.0583l-2.8699 3.2799c-.6167.7048-1.679.7991-2.4103.2141l-1.7528-1.4022c-.3234-.2588-.3759-.7308-.1171-1.0542.2587-.3235.7307-.3759 1.0541-.1171l1.7529 1.4022c.1044.0836.2562.0701.3443-.0306l2.8699-3.2799c.2728-.3117.7466-.3433 1.0583-.0705z"/></g></g></svg>