<svg height="512" viewBox="0 0 64 64" width="512" xmlns="http://www.w3.org/2000/svg">
    <g id="Layer_14" data-name="Layer 14">
        <path d="m62 16.049-30 18-30-12 32-17z" fill="#e5a961"/>
        <path d="m32 34.049v23l-30-13v-22l13 5.2 5 2z" fill="#d6914c"/>
        <path d="m62 16.049v22l-30 19v-23z" fill="#f8c985"/>
        <path d="m49.34 11.079-29.34 18.17h-.01l-4.99-2 29.31-18.15 2.58 1.01 2.11.83z" fill="#f4ddb4"/>
        <path d="m20 29.249v6.8l-5-2v-6.8z" fill="#e0c292"/>
        <path d="m9 42.249v1.8l-5-2v-1.8z" fill="#594a42"/>
        <path d="m9 39.149v1.8l-5-2v-1.8z" fill="#594a42"/>
        <circle cx="48" cy="47.049" fill="#f1f2f2" r="12"/>
        <path d="m60 47.049a12 12 0 0 1 -24 0z" fill="#dbdcdd"/>
        <path d="m48 50.463-6.414-6.414 6.414-6.414 1.414 1.414-5 5 5 5z" fill="#58595b"/>
        <path d="m49 55.049h-6v-2h6a4 4 0 0 0 0-8h-6v-2h6a6 6 0 0 1 0 12z" fill="#58595b"/>
        <g fill="#414042">
            <path d="m49.41 49.05-1.41 1.41-3.41-3.41h2.82z"/>
            <path d="m55 49.05a6 6 0 0 1 -6 6h-6v-2h6a4 4 0 0 0 4-4 4.058 4.058 0 0 0 -.53-2h2.18a5.762 5.762 0 0 1 .35 2z"/>
            <path d="m48 50.46-3.41-3.41h2.82l2 2z"/>
            <path d="m55 49.05a6 6 0 0 1 -6 6h-6v-2h6a4 4 0 0 0 4-4 4.058 4.058 0 0 0 -.53-2h2.18a5.762 5.762 0 0 1 .35 2z"/>
        </g>
    </g>
</svg>