<svg height="392pt" viewBox="0 -32 392 392" width="392pt" xmlns="http://www.w3.org/2000/svg"><path d="m0 0h224v192h-224zm0 0" fill="#e8b35c"/><path d="m88 0h48v48h-48zm0 0" fill="#a8d6da"/><path d="m64 120h-32c-4.417969 0-8-3.582031-8-8s3.582031-8 8-8h32c4.417969 0 8 3.582031 8 8s-3.582031 8-8 8zm0 0" fill="#c99b50"/><path d="m48 152h-16c-4.417969 0-8-3.582031-8-8s3.582031-8 8-8h16c4.417969 0 8 3.582031 8 8s-3.582031 8-8 8zm0 0" fill="#c99b50"/><g fill="#e06661"><path d="m360 72h-40v48h24v128h-264v-24l-80 48 80 56v-32h280c17.671875 0 32-14.328125 32-32v-160c0-17.671875-14.328125-32-32-32zm0 0"/><path d="m280 72h16v48h-16zm0 0"/><path d="m248 72h16v48h-16zm0 0"/></g></svg>