

<svg id="Capa_1" enable-background="new 0 0 510 510" height="512" viewBox="0 0 510 510" width="512" xmlns="http://www.w3.org/2000/svg" xmlns:xlink="http://www.w3.org/1999/xlink"><linearGradient id="SVGID_1_" gradientUnits="userSpaceOnUse" x1="10.43" x2="499.57" y1="255" y2="255"><stop offset="0" stop-color="#5a5a5a"/><stop offset="1" stop-color="#444"/></linearGradient><linearGradient id="lg1"><stop offset="0" stop-color="#1a1a1a" stop-opacity="0"/><stop offset="1" stop-color="#1a1a1a"/></linearGradient><linearGradient id="SVGID_00000070093253780726545110000001004383736747977863_" gradientUnits="userSpaceOnUse" x1="255" x2="255" xlink:href="#lg1" y1="184" y2="138.427"/><linearGradient id="lg2"><stop offset="0" stop-color="#fd0"/><stop offset="1" stop-color="#ffb000"/></linearGradient><linearGradient id="SVGID_00000028326143988875238310000007535445970641699003_" gradientUnits="userSpaceOnUse" x1="196.554" x2="313.446" xlink:href="#lg2" y1="393.968" y2="393.968"/><linearGradient id="SVGID_00000147190670158843625660000008635219337796389031_" gradientUnits="userSpaceOnUse" x1="209.109" x2="300.892" xlink:href="#lg2" y1="225.732" y2="225.732"/><linearGradient id="SVGID_00000085954810869000511170000017011214532232678077_" gradientUnits="userSpaceOnUse" x1="219.57" x2="290.43" xlink:href="#lg2" y1="86.764" y2="86.764"/><linearGradient id="SVGID_00000054979603135726891630000007961116374434824632_" gradientUnits="userSpaceOnUse" x1="255" x2="255" xlink:href="#lg1" y1="418.069" y2="502.078"/><linearGradient id="lg3"><stop offset="0" stop-color="#eaf6ff"/><stop offset="1" stop-color="#b3dafe"/></linearGradient><linearGradient id="SVGID_00000099658376864890058850000004868625582206599563_" gradientUnits="userSpaceOnUse" x1="25.333" x2="60.574" xlink:href="#lg3" y1="158.323" y2="158.323"/><linearGradient id="lg4"><stop offset="0" stop-color="#d8ecfe" stop-opacity="0"/><stop offset="1" stop-color="#678d98"/></linearGradient><linearGradient id="SVGID_00000111155631529781247540000008049009294211041722_" gradientUnits="userSpaceOnUse" x1="40" x2="40" xlink:href="#lg4" y1="160.75" y2="133.24"/><linearGradient id="SVGID_00000057120277752247555930000012872640943391998390_" gradientUnits="userSpaceOnUse" x1="40" x2="40" xlink:href="#lg4" y1="176.5" y2="192.75"/><linearGradient id="SVGID_00000152963367308363163520000002850333970072237487_" gradientUnits="userSpaceOnUse" x1="34.01" x2="47.812" xlink:href="#lg3" y1="195.929" y2="233.052"/><linearGradient id="SVGID_00000071555878120701114570000000525334990536558743_" gradientUnits="userSpaceOnUse" x1="455.333" x2="490.574" xlink:href="#lg3" y1="158.323" y2="158.323"/><linearGradient id="SVGID_00000013898808401553738430000000692534727686332328_" gradientUnits="userSpaceOnUse" x1="470" x2="470" xlink:href="#lg4" y1="160.75" y2="133.24"/><linearGradient id="SVGID_00000074401108260331511100000009617202891501879937_" gradientUnits="userSpaceOnUse" x1="470" x2="470" xlink:href="#lg4" y1="176.5" y2="192.75"/><linearGradient id="SVGID_00000136404772523170791100000012650162899234566039_" gradientUnits="userSpaceOnUse" x1="464.01" x2="477.812" xlink:href="#lg3" y1="195.929" y2="233.052"/><linearGradient id="SVGID_00000029763506904936982350000018301372664453748137_" gradientUnits="userSpaceOnUse" x1="39" x2="39" xlink:href="#lg3" y1="68.333" y2="88.011"/><linearGradient id="SVGID_00000153670169066590803190000003200338141684352398_" gradientUnits="userSpaceOnUse" x1="93" x2="93" xlink:href="#lg3" y1="68.333" y2="88.011"/><linearGradient id="SVGID_00000095297134791259199290000017612568458021945257_" gradientUnits="userSpaceOnUse" x1="147" x2="147" xlink:href="#lg3" y1="68.333" y2="88.011"/><linearGradient id="SVGID_00000029012521810160173560000006453646265559608503_" gradientUnits="userSpaceOnUse" x1="201" x2="201" xlink:href="#lg3" y1="68.333" y2="88.011"/><linearGradient id="SVGID_00000170263213975840448220000003675918534685850025_" gradientUnits="userSpaceOnUse" x1="255" x2="255" xlink:href="#lg3" y1="68.333" y2="88.011"/><linearGradient id="SVGID_00000047020864746251486680000008652541455231808678_" gradientUnits="userSpaceOnUse" x1="309" x2="309" xlink:href="#lg3" y1="68.333" y2="88.011"/><linearGradient id="SVGID_00000147904281029553691700000015463317619488324224_" gradientUnits="userSpaceOnUse" x1="363" x2="363" xlink:href="#lg3" y1="68.333" y2="88.011"/><linearGradient id="SVGID_00000052078993958289039620000009347159744034067854_" gradientUnits="userSpaceOnUse" x1="417" x2="417" xlink:href="#lg3" y1="68.333" y2="88.011"/><linearGradient id="SVGID_00000109747442943127351080000006011507380619347863_" gradientUnits="userSpaceOnUse" x1="471" x2="471" xlink:href="#lg3" y1="68.333" y2="88.011"/><linearGradient id="SVGID_00000032635186272987664810000001205948220787665031_" gradientUnits="userSpaceOnUse" x1="255" x2="255" xlink:href="#lg3" y1="54.667" y2="68.41"/><linearGradient id="SVGID_00000125575135861774725570000012955003466682583690_" gradientUnits="userSpaceOnUse" x1="255" x2="255" xlink:href="#lg3" y1="102.439" y2="133.823"/><g><g><path d="m466.865 510h-423.73c-21.656 0-37.325-20.678-31.467-41.527l121.293-431.686c6.112-21.755 25.95-36.787 48.547-36.787h146.983c22.597 0 42.435 15.032 48.548 36.787l121.293 431.686c5.858 20.849-9.811 41.527-31.467 41.527z" fill="url(#SVGID_1_)"/><path d="m77.046 235.789h355.908l-33.096-117.789h-289.716z" fill="url(#SVGID_00000070093253780726545110000001004383736747977863_)"/><g><path d="m291.105 316.936h-72.21c-7.189 0-13.15 5.567-13.64 12.739l-8.668 126.719c-.54 7.9 5.722 14.605 13.64 14.605h89.546c7.918 0 14.181-6.706 13.64-14.605l-8.668-126.719c-.49-7.172-6.451-12.739-13.64-12.739z" fill="url(#SVGID_00000028326143988875238310000007535445970641699003_)"/><path d="m215.716 176.737-6.575 96.123c-.54 7.9 5.722 14.605 13.64 14.605h64.437c7.918 0 14.181-6.706 13.64-14.605l-6.575-96.123c-.491-7.172-6.452-12.739-13.64-12.739h-51.287c-7.188 0-13.149 5.567-13.64 12.739z" fill="url(#SVGID_00000147190670158843625660000008635219337796389031_)"/><path d="m224.266 51.739-4.664 68.183c-.54 7.9 5.722 14.605 13.64 14.605h43.514c7.918 0 14.181-6.706 13.64-14.605l-4.664-68.183c-.489-7.172-6.45-12.739-13.639-12.739h-34.186c-7.189 0-13.15 5.567-13.641 12.739z" fill="url(#SVGID_00000085954810869000511170000017011214532232678077_)"/></g><path d="m11.668 468.473c-5.858 20.849 9.811 41.527 31.467 41.527h423.731c21.656 0 37.324-20.678 31.467-41.527l-27.648-98.402h-431.369z" fill="url(#SVGID_00000054979603135726891630000007961116374434824632_)"/></g><g><path d="m19.206 110.646h41.588v95.354h-41.588z" fill="url(#SVGID_00000099658376864890058850000004868625582206599563_)"/><path d="m19.206 110.646h41.588v95.354h-41.588z" fill="url(#SVGID_00000111155631529781247540000008049009294211041722_)"/><path d="m19.206 110.646h41.588v95.354h-41.588z" fill="url(#SVGID_00000057120277752247555930000012872640943391998390_)"/><path d="m65.722 235.789h-51.444c-7.886 0-14.278-6.392-14.278-14.277v-18.944c0-7.885 6.392-14.278 14.278-14.278h51.445c7.885 0 14.278 6.392 14.278 14.278v18.944c-.001 7.885-6.393 14.277-14.279 14.277z" fill="url(#SVGID_00000152963367308363163520000002850333970072237487_)"/></g><g><path d="m449.206 110.646h41.588v95.354h-41.588z" fill="url(#SVGID_00000071555878120701114570000000525334990536558743_)"/><path d="m449.206 110.646h41.588v95.354h-41.588z" fill="url(#SVGID_00000013898808401553738430000000692534727686332328_)"/><path d="m449.206 110.646h41.588v95.354h-41.588z" fill="url(#SVGID_00000074401108260331511100000009617202891501879937_)"/><path d="m495.722 235.789h-51.445c-7.885 0-14.278-6.392-14.278-14.278v-18.944c0-7.885 6.392-14.278 14.278-14.278h51.445c7.885 0 14.278 6.392 14.278 14.278v18.944c0 7.886-6.392 14.278-14.278 14.278z" fill="url(#SVGID_00000136404772523170791100000012650162899234566039_)"/></g><g><path d="m46.5 69.764v34c0 4.143-3.358 7.5-7.5 7.5s-7.5-3.357-7.5-7.5v-34c0-4.143 3.358-7.5 7.5-7.5s7.5 3.357 7.5 7.5z" fill="url(#SVGID_00000029763506904936982350000018301372664453748137_)"/><path d="m100.5 69.764v34c0 4.143-3.358 7.5-7.5 7.5s-7.5-3.357-7.5-7.5v-34c0-4.143 3.358-7.5 7.5-7.5s7.5 3.357 7.5 7.5z" fill="url(#SVGID_00000153670169066590803190000003200338141684352398_)"/><path d="m154.5 69.764v34c0 4.143-3.358 7.5-7.5 7.5s-7.5-3.357-7.5-7.5v-34c0-4.143 3.358-7.5 7.5-7.5s7.5 3.357 7.5 7.5z" fill="url(#SVGID_00000095297134791259199290000017612568458021945257_)"/><path d="m208.5 69.764v34c0 4.143-3.358 7.5-7.5 7.5s-7.5-3.357-7.5-7.5v-34c0-4.143 3.358-7.5 7.5-7.5s7.5 3.357 7.5 7.5z" fill="url(#SVGID_00000029012521810160173560000006453646265559608503_)"/><path d="m262.5 69.764v34c0 4.143-3.358 7.5-7.5 7.5s-7.5-3.357-7.5-7.5v-34c0-4.143 3.358-7.5 7.5-7.5s7.5 3.357 7.5 7.5z" fill="url(#SVGID_00000170263213975840448220000003675918534685850025_)"/><path d="m316.5 69.764v34c0 4.143-3.358 7.5-7.5 7.5s-7.5-3.357-7.5-7.5v-34c0-4.143 3.358-7.5 7.5-7.5s7.5 3.357 7.5 7.5z" fill="url(#SVGID_00000047020864746251486680000008652541455231808678_)"/><path d="m370.5 69.764v34c0 4.143-3.358 7.5-7.5 7.5s-7.5-3.357-7.5-7.5v-34c0-4.143 3.358-7.5 7.5-7.5s7.5 3.357 7.5 7.5z" fill="url(#SVGID_00000147904281029553691700000015463317619488324224_)"/><path d="m424.5 69.764v34c0 4.143-3.358 7.5-7.5 7.5s-7.5-3.357-7.5-7.5v-34c0-4.143 3.358-7.5 7.5-7.5s7.5 3.357 7.5 7.5z" fill="url(#SVGID_00000052078993958289039620000009347159744034067854_)"/><path d="m478.5 69.764v34c0 4.143-3.358 7.5-7.5 7.5s-7.5-3.357-7.5-7.5v-34c0-4.143 3.358-7.5 7.5-7.5s7.5 3.357 7.5 7.5z" fill="url(#SVGID_00000109747442943127351080000006011507380619347863_)"/><path d="m487.693 62.264c0-4.142-3.358-7.5-7.5-7.5h-450.386c-4.142 0-7.5 3.358-7.5 7.5 0 4.142 3.358 7.5 7.5 7.5h450.386c4.142 0 7.5-3.358 7.5-7.5z" fill="url(#SVGID_00000032635186272987664810000001205948220787665031_)"/></g><path d="m494.321 136.782h-478.642c-8.659 0-15.679-7.019-15.679-15.679v-20.915c0-8.659 7.02-15.679 15.679-15.679h478.642c8.659 0 15.679 7.02 15.679 15.679v20.915c0 8.66-7.02 15.679-15.679 15.679z" fill="url(#SVGID_00000125575135861774725570000012955003466682583690_)"/></g></svg>