<svg id="Capa_1" enable-background="new 0 0 512 512" height="512" viewBox="0 0 512 512" width="512" xmlns="http://www.w3.org/2000/svg"><path d="m384.855 131.712-23.547 6.515-4.308-23.08c-30.4-15.319-64.635-24.147-101-24.147s-70.6 8.828-100.999 24.146l-4.308 23.08-23.547-6.515c-58.078 40.687-97.146 107.994-97.146 184.289v45h226 226v-45c0-76.295-39.068-143.602-97.145-184.288z" fill="#fdbf00"/><path d="m482 316c0-76.295-39.068-143.602-97.145-184.288l-23.547 6.515-4.308-23.08c-30.4-15.319-64.635-24.147-101-24.147v270h226z" fill="#ff9100"/><path d="m361.308 288.227 23.547-156.515c-8.833-6.189-18.155-11.677-27.856-16.566l-25.369 168.627z" fill="#fdbf00"/><path d="m180.37 283.773-25.369-168.627c-9.701 4.889-19.023 10.377-27.856 16.566l23.547 156.515z" fill="#ffda2d"/><path d="m178.599 61 34.501 240h85.8l34.501-240z" fill="#ffda2d"/><path d="m298.9 301h-42.9v-240h77.401z" fill="#fdbf00"/><path d="m0 331v69.901l9.3 3.9c4.501 1.8 112.601 46.199 246.7 46.199s242.199-44.399 246.7-46.199l9.3-3.9v-69.901z" fill="#ffda2d"/><path d="m512 331v69.901l-9.3 3.9c-4.501 1.8-112.601 46.199-246.7 46.199v-120z" fill="#fdbf00"/></svg>