<?xml version="1.0" encoding="iso-8859-1"?>



<svg version="1.1" id="Capa_1" xmlns="http://www.w3.org/2000/svg" xmlns:xlink="http://www.w3.org/1999/xlink" x="0px" y="0px"
	 viewBox="0 0 512 512" style="enable-background:new 0 0 512 512;" xml:space="preserve">
<path style="fill:#FEA832;" d="M75,0C33.6,0,0,33.6,0,75v362c0,19.799,30,19.799,30,0c0-24.3,20.099-45,45-45h60
	c8.401,0,15-6.601,15-15V75C150,33.6,116.4,0,75,0z"/>
<path style="fill:#FEDB41;" d="M497,362H75c-41.7,0-75,33.6-75,75s33.6,75,75,75h422c8.401,0,15-6.601,15-15V377
	C512,368.599,505.401,362,497,362z"/>
<g>
	<path style="fill:#6E351C;" d="M90,75c0,8.399-6.599,15-15,15s-15-6.601-15-15c0-8.401,6.599-15,15-15S90,66.599,90,75z"/>
	<path style="fill:#6E351C;" d="M150,122.399v30h-45c-19.994,0-19.652-30,0-30H150z"/>
	<path style="fill:#6E351C;" d="M150,182v30H75c-19.799,0-19.799-30,0-30H150z"/>
	<path style="fill:#6E351C;" d="M150,242v30h-45c-19.872,0-19.872-30,0-30H150z"/>
	<path style="fill:#6E351C;" d="M150,302v30H75c-19.799,0-19.799-30,0-30H150z"/>
</g>
<g>
	<path style="fill:#9D481A;" d="M90,437c0,8.399-6.599,15-15,15s-15-6.601-15-15c0-8.401,6.599-15,15-15S90,428.599,90,437z"/>
	<path style="fill:#9D481A;" d="M210,362v75c0,19.799-30,19.799-30,0v-75H210z"/>
	<path style="fill:#9D481A;" d="M270,362v45c0,19.87-30,19.87-30,0v-45H270z"/>
	<path style="fill:#9D481A;" d="M150,362v45c0,19.827-30,19.908-30,0v-45H150z"/>
	<path style="fill:#9D481A;" d="M330,362v75c0,19.799-30,19.799-30,0v-75H330z"/>
	<path style="fill:#9D481A;" d="M392,362v45c0,19.827-30,19.908-30,0v-45H392z"/>
	<path style="fill:#9D481A;" d="M452,362v75c0,19.799-30,19.799-30,0v-75H452z"/>
</g>
<g>
</g>
<g>
</g>
<g>
</g>
<g>
</g>
<g>
</g>
<g>
</g>
<g>
</g>
<g>
</g>
<g>
</g>
<g>
</g>
<g>
</g>
<g>
</g>
<g>
</g>
<g>
</g>
<g>
</g>
</svg>
