<svg height="512" viewBox="0 0 64 64" width="512" xmlns="http://www.w3.org/2000/svg"><g id="Safety"><path d="m23.048 37.512-6.838-4.012a3.006 3.006 0 0 0 -4.176 1.24c-.007.013-.01.028-.016.042l-2.834-10.558a3.116 3.116 0 0 0 -3.559-2.324 3 3 0 0 0 -2.285 3.71l4.34 16.19a4 4 0 0 0 1.26 2l4.663 4a4 4 0 0 1 1.397 3.04v2.16h12v-8.588a8 8 0 0 0 -3.952-6.9z" fill="#ffbcab"/><path d="m58.375 21.9a3.116 3.116 0 0 0 -3.559 2.323l-2.834 10.559c-.006-.014-.009-.029-.016-.042a3.006 3.006 0 0 0 -4.176-1.24l-6.838 4.012a8 8 0 0 0 -3.952 6.9v8.588h12v-2.16a4 4 0 0 1 1.4-3.04l4.663-4a4 4 0 0 0 1.26-2l4.337-16.19a3 3 0 0 0 -2.285-3.71z" fill="#ffbcab"/><path d="m34 53v8h18v-8h-3-12z" fill="#005ece"/><path d="m12 53v8h18v-8h-3-12z" fill="#005ece"/><path d="m47 3v12.6a24.014 24.014 0 0 1 -12.71 21.18l-2.29 1.22-2.29-1.22a24.014 24.014 0 0 1 -12.71-21.18v-12.6l1.42.81a12.015 12.015 0 0 0 11.32.32l2.26-1.13 2.26 1.13a11.994 11.994 0 0 0 11.31-.32z" fill="#b2fa09"/><path d="m39.621 9.4a16.08 16.08 0 0 1 -7.152-1.688l-.469-.24-.462.232a16.088 16.088 0 0 1 -7.159 1.69 15.986 15.986 0 0 1 -3.379-.361v6.567a19.962 19.962 0 0 0 10.589 17.647l.411.219.412-.219a19.965 19.965 0 0 0 10.588-17.647v-6.566a16.015 16.015 0 0 1 -3.379.366z" fill="#5eac24"/><path d="m39.621 9.4c-.207 0-.414-.029-.621-.037v6.237a19.95 19.95 0 0 1 -9 16.691c.514.338 1.039.663 1.589.956l.411.219.412-.219a19.965 19.965 0 0 0 10.588-17.647v-6.566a16.015 16.015 0 0 1 -3.379.366z" fill="#4e901e"/><path d="m34 53h18v3h-18z" fill="#004fac"/><path d="m12 53h18v3h-18z" fill="#004fac"/><path d="m37.657 13.929-7.657 7.657-3.122-3.122a1 1 0 0 0 -1.414 1.414l3.829 3.829a1 1 0 0 0 1.414 0l8.364-8.364a1 1 0 1 0 -1.414-1.414z" fill="#f1f2f2"/><g fill="#ff9478"><path d="m52.219 35.56a3.216 3.216 0 0 1 -1.556 2.213l-5.7 3.146.442.884 5.261-3.03a3.152 3.152 0 0 0 1.553-3.213z"/><path d="m11.781 35.56a3.216 3.216 0 0 0 1.556 2.213l5.7 3.146-.437.881-5.261-3.03a3.152 3.152 0 0 1 -1.558-3.21z"/></g></g></svg>