<!--
  - Copyright (c) 2023. Selldone® Business OS™
  -
  - Author: M.Pajuhaan
  - Web: https://selldone.com
  - ━━━━━━━━━━━━━━━━━━━━━━━━━━━━━━━━━━━━━━━━━━━━━━━━━━━━━━
  -
  - All rights reserved. In the weave of time, where traditions and innovations intermingle, this content was crafted.
  - From the essence of thought, through the corridors of creativity, each word, and sentiment has been molded.
  - Not just to exist, but to inspire. Like an artist's stroke or a sculptor's chisel, every nuance is deliberate.
  - Our journey is not just about reaching a destination, but about creating a masterpiece.
  - Tread carefully, for you're treading on dreams.
  -->

<svg id="Capa_1" enable-background="new 0 0 512 512" height="512" viewBox="0 0 512 512" width="512" xmlns="http://www.w3.org/2000/svg" xmlns:xlink="http://www.w3.org/1999/xlink"><linearGradient id="lg1"><stop offset="0" stop-color="#addcff"/><stop offset=".5028" stop-color="#eaf6ff"/><stop offset="1" stop-color="#eaf6ff"/></linearGradient><linearGradient id="SVGID_1_" gradientUnits="userSpaceOnUse" x1="163.675" x2="225.931" xlink:href="#lg1" y1="348.325" y2="286.069"/><linearGradient id="SVGID_2_" gradientUnits="userSpaceOnUse" x1="25.606" x2="459.222" y1="486.395" y2="52.778"><stop offset="0" stop-color="#5558ff"/><stop offset="1" stop-color="#00c0ff"/></linearGradient><linearGradient id="SVGID_3_" gradientUnits="userSpaceOnUse" x1="247.187" x2="416.813" xlink:href="#lg1" y1="264.813" y2="95.187"/><g><g><path d="m163.675 348.325c-5.859-5.859-5.859-15.352 0-21.211l41.045-41.045c5.859-5.859 15.352-5.859 21.211 0s5.859 15.352 0 21.211l-41.045 41.045c-5.859 5.859-15.352 5.86-21.211 0z" fill="url(#SVGID_1_)"/></g><g id="Search_1_"><g><g><path d="m332 0c-99.258 0-180 80.742-180 180s80.742 180 180 180 180-80.742 180-180-80.742-180-180-180zm-168.325 305.903c-5.859-5.859-15.352-5.859-21.211 0l-138.069 138.07c-5.859 5.859-5.859 15.352 0 21.211l42.422 42.422c5.86 5.859 15.352 5.859 21.211 0l138.069-138.069c5.859-5.859 5.859-15.352 0-21.211z" fill="url(#SVGID_2_)"/></g></g><g><g><circle cx="332" cy="180" fill="url(#SVGID_3_)" r="120"/></g></g></g></g></svg>