<?xml version="1.0" encoding="UTF-8"?>


<!DOCTYPE svg PUBLIC "-//W3C//DTD SVG 1.1//EN" "http://www.w3.org/Graphics/SVG/1.1/DTD/svg11.dtd">

<svg xmlns:xlink="http://www.w3.org/1999/xlink" xmlns:xodm="http://www.corel.com/coreldraw/odm/2003" xmlns="http://www.w3.org/2000/svg" xml:space="preserve" width="543px"
     height="542px"
     version="1.1"
     style="shape-rendering:geometricPrecision; text-rendering:geometricPrecision; image-rendering:optimizeQuality; fill-rule:evenodd; clip-rule:evenodd"
     viewBox="0 0 40.97 40.91">
 <defs>
  <style type="text/css">
   <![CDATA[
    .fil0 {fill:none}
    .fil2 {fill:#FEFEFE;fill-rule:nonzero}
    .fil1 {fill:url(#id0)}
    .fil5 {fill:url(#id1)}
    .fil3 {fill:url(#id2)}
    .fil4 {fill:url(#id3)}
   ]]>
  </style>
     <linearGradient id="id0" gradientUnits="userSpaceOnUse" x1="24.94" y1="36.61" x2="24.94" y2="3.88">
   <stop offset="0" style="stop-opacity:1; stop-color:#F8A990"/>
         <stop offset="0.0392157" style="stop-opacity:1; stop-color:#F8A990"/>
         <stop offset="0.980392" style="stop-opacity:1; stop-color:#9A499A"/>
         <stop offset="1" style="stop-opacity:1; stop-color:#9A499A"/>
  </linearGradient>
     <linearGradient id="id1" gradientUnits="userSpaceOnUse" x1="31.3" y1="12.36" x2="25.57" y2="37.85">
   <stop offset="0" style="stop-opacity:1; stop-color:#60436E"/>
         <stop offset="1" style="stop-opacity:1; stop-color:#70557E"/>
  </linearGradient>
     <linearGradient id="id2" gradientUnits="userSpaceOnUse" xlink:href="#id1" x1="23.29" y1="15.27" x2="14.69"
                     y2="21.54">
  </linearGradient>
     <linearGradient id="id3" gradientUnits="userSpaceOnUse" xlink:href="#id1" x1="2.91" y1="23.18" x2="21.43"
                     y2="32.15">
  </linearGradient>
 </defs>
    <g id="Layer_x0020_1">
  <metadata id="CorelCorpID_0Corel-Layer"/>
        <circle class="fil0" cx="20.45" cy="20.45" r="20.45"/>
        <polygon class="fil1" points="38.39,20.45 24.94,28.63 11.48,36.82 11.48,20.45 11.48,4.09 24.94,12.27 "/>
        <g id="_2081513831984">
   <path class="fil2"
         d="M20.13 23.92c-1.48,0 -2.81,-0.6 -3.78,-1.56 -0.97,-0.97 -1.57,-2.3 -1.57,-3.78 0,-1.47 0.6,-2.81 1.57,-3.78 0.97,-0.96 2.3,-1.56 3.78,-1.56 1.47,0 2.81,0.6 3.77,1.56 0.97,0.97 1.57,2.31 1.57,3.78l-2.52 0c0,-0.78 -0.31,-1.49 -0.83,-2 -0.51,-0.51 -1.21,-0.83 -1.99,-0.83 -0.79,0 -1.49,0.32 -2,0.83 -0.52,0.51 -0.83,1.22 -0.83,2 0,0.78 0.31,1.49 0.83,2 0.51,0.51 1.21,0.83 2,0.83l0 2.51z"/>
            <path class="fil2"
                  d="M19.01 17.63c1.47,0 2.81,0.6 3.77,1.57 0.97,0.96 1.57,2.3 1.57,3.77 0,1.48 -0.6,2.81 -1.57,3.78 -0.96,0.97 -2.3,1.56 -3.77,1.56 -1.48,0 -2.81,-0.59 -3.78,-1.56 -0.97,-0.97 -1.56,-2.3 -1.56,-3.78l2.51 0c0,0.78 0.32,1.49 0.83,2 0.51,0.51 1.22,0.83 2,0.83 0.78,0 1.48,-0.32 2,-0.83 0.51,-0.51 0.82,-1.22 0.82,-2 0,-0.78 -0.31,-1.49 -0.82,-2 -0.52,-0.51 -1.22,-0.82 -2,-0.82l0 -2.52z"/>
  </g>
        <g id="_2081513832688">
   <path class="fil3"
         d="M13.28 39.07l0 0 -0.07 0c-0.05,0 -0.1,-0.01 -0.15,-0.01l0 0 -0.02 0c-0.03,-0.01 -0.06,-0.01 -0.09,-0.01l0 0 -0.03 0c-0.03,-0.01 -0.05,-0.01 -0.08,-0.01l0 0 -0.02 0c-0.05,-0.01 -0.1,-0.02 -0.15,-0.02l0 -0.01 -0.01 0c-0.02,0 -0.04,0 -0.05,0l0 -0.01 -0.02 0 -0.05 0 0 -0.01 -0.01 0 -0.05 -0.01 0 0 -0.01 0 -0.06 -0.01 0 0 0 0c-0.04,-0.01 -0.07,-0.01 -0.1,-0.02l0 0 -0.01 0 -0.04 -0.01 0 0 -0.01 0 -0.04 -0.01 0 0 0 0 -0.04 -0.01 0 0 -0.01 0 -0.04 -0.01 0 0 0 0 -0.04 -0.01 0 0 0 0c-0.03,-0.01 -0.06,-0.02 -0.08,-0.02l0 -0.01 -0.01 0c-0.02,0 -0.05,-0.01 -0.07,-0.02l0 0 0 0 -0.03 -0.01 0 0 -0.01 0c-0.02,0 -0.04,-0.01 -0.07,-0.02l0 0 0 0 -0.03 -0.01 0 0 0 0 -0.03 -0.01 0 0 -0.01 0c-0.05,-0.02 -0.1,-0.03 -0.15,-0.05l0 0 -0.01 0 -0.02 -0.01 0 0 -0.01 0 -0.05 -0.02 0 -0.01 0 0 -0.03 -0.01 0 0 0 0 -0.05 -0.02 0 0 -0.01 0c-0.05,-0.02 -0.1,-0.04 -0.15,-0.06l0 0 -0.01 0 -0.02 -0.01 0 0 0 0 -0.05 -0.02 0 0 -0.02 -0.01 0 -0.01 0 0 -0.02 0 0 -0.01 -0.01 0 -0.01 0 0 -0.01 -0.01 0c-0.02,-0.01 -0.05,-0.02 -0.07,-0.03l0 0 0 0 -0.02 -0.01 0 0 0 0 -0.02 -0.01 0 0 -0.01 0c-0.03,-0.02 -0.06,-0.03 -0.1,-0.05l0 0 0 0 -0.02 -0.01 0 -0.01 0 0 -0.02 0 0 -0.01 0 0 -0.02 -0.01 0 0 -0.01 0 -0.02 -0.01 0 0 0 0c-0.02,-0.01 -0.05,-0.02 -0.07,-0.04l0 0 -0.01 0 -0.01 -0.01 0 0 0 0 -0.02 -0.01 0 0 0 0c-0.03,-0.01 -0.05,-0.03 -0.07,-0.04 -0.02,-0.01 -0.04,-0.02 -0.06,-0.04l0 0 0 0c-0.02,-0.01 -0.04,-0.02 -0.06,-0.03l0 0 0 0 -0.03 -0.02 0 0 0 0 -0.02 -0.01 0 0 0 0 -0.03 -0.02 0 0 0 0 -0.03 -0.02 0 0 -0.01 0c-0.01,-0.01 -0.03,-0.03 -0.05,-0.04l0 0 0 0c-0.02,-0.01 -0.04,-0.02 -0.06,-0.04l0 0 0 0c-0.03,-0.02 -0.05,-0.03 -0.08,-0.05l0 0 0 0 -0.03 -0.02 0 0 0 0c-0.01,-0.01 -0.02,-0.02 -0.03,-0.03l0 0 0 0 -0.01 0 0 -0.01 -0.01 0 -0.02 -0.02 0 0 -0.01 0c-0.01,-0.01 -0.02,-0.02 -0.04,-0.03l0 0 0 0c-0.05,-0.03 -0.09,-0.07 -0.14,-0.1l0 -0.01 0 0c-0.02,-0.01 -0.03,-0.02 -0.05,-0.04l0 0 0 0c-0.02,-0.01 -0.04,-0.03 -0.05,-0.04l0 0 0 0 -0.01 -0.01 0 0 -0.01 0c-0.02,-0.02 -0.04,-0.04 -0.06,-0.06l0 0 0 0c-0.03,-0.02 -0.05,-0.04 -0.07,-0.06l0 0 0 0 -0.01 -0.01 0 0 -0.01 0 -0.01 -0.01 0 0 0 0c-0.04,-0.04 -0.08,-0.07 -0.11,-0.11l0 0 0 0 -0.01 -0.01 0 0 0 0 -0.01 -0.01 0 0 -0.01 0 -0.01 -0.01 0 0 0 0 -0.01 -0.01 0 0 0 0c-0.03,-0.03 -0.06,-0.07 -0.09,-0.1l0 0 0 0 -0.01 -0.01 0 0 -0.01 0 0 -0.01 0 0 -0.01 0 0 -0.01 0 0 -0.01 0 -0.01 -0.01 0 0 0 0 -0.01 -0.01 0 0 0 0c-0.03,-0.04 -0.07,-0.08 -0.1,-0.12l0 0 -0.01 0 0 -0.01 0 0 -0.01 0c-0.02,-0.03 -0.05,-0.06 -0.07,-0.09l0 0 0 0c-0.02,-0.02 -0.04,-0.04 -0.05,-0.06l0 0 -0.01 0 0 -0.01 0 0 0 0 -0.04 -0.04 0 -0.01 0 0 -0.01 0 0 -0.01 0 0c-0.01,-0.01 -0.03,-0.03 -0.04,-0.05l0 0 0 0c-0.03,-0.03 -0.05,-0.06 -0.07,-0.1l0 0 -0.01 0c-0.01,-0.01 -0.02,-0.02 -0.03,-0.04l0 0 0 0 -0.02 -0.03 0 0 0 0 -0.01 -0.01 0 0 -0.02 -0.03 0 0 0 0 -0.02 -0.03 0 -0.01 -0.01 0c0,-0.01 -0.01,-0.02 -0.02,-0.04l0 0 -0.01 0c-0.02,-0.04 -0.05,-0.08 -0.08,-0.13l0 0 0 0 -0.02 -0.03 0 0 0 0c-0.01,-0.02 -0.02,-0.03 -0.03,-0.05l0 0 -0.01 0 -0.02 -0.04 0 0 0 0c-0.01,-0.01 -0.02,-0.03 -0.03,-0.05l0 0 0 0c-0.01,-0.02 -0.02,-0.04 -0.03,-0.05l0 0 0 0c-0.01,-0.03 -0.03,-0.05 -0.04,-0.08l0 0 0 0c-0.02,-0.03 -0.04,-0.06 -0.06,-0.09l0 -0.01 0 0 -0.01 -0.01 0 -0.01 0 0 -0.01 -0.01 0 -0.01 0 0 -0.01 -0.01 0 -0.01 0 0c-0.03,-0.06 -0.06,-0.12 -0.09,-0.19l0 0 -0.01 0 -0.01 -0.02 0 0 0 0 -0.01 -0.02 0 -0.01 0 0 -0.01 -0.02 0 0c0,-0.01 -0.01,-0.03 -0.02,-0.04l0 -0.01 0 0 -0.01 -0.02 0 0 0 0 -0.01 -0.02 0 0 0 0c-0.01,-0.03 -0.02,-0.05 -0.03,-0.08l0 0 0 0c-0.02,-0.03 -0.03,-0.07 -0.04,-0.1l0 -0.01 -0.01 0c0,-0.01 -0.01,-0.03 -0.02,-0.05l0 0 0 0 -0.01 -0.03 0 0 0 0c-0.01,-0.02 -0.01,-0.04 -0.02,-0.06l0 0 0 0 -0.01 -0.02 0 -0.01 0 0c-0.02,-0.06 -0.04,-0.12 -0.06,-0.18l0 -0.01 -0.01 0 0 -0.03 0 0 -0.01 0 -0.01 -0.03 0 -0.01 0 0 -0.01 -0.03 0 -0.01 0 0 -0.01 -0.03 0 0 0 0c0,-0.02 -0.01,-0.05 -0.02,-0.07l0 -0.01 0 0c-0.01,-0.03 -0.02,-0.07 -0.03,-0.11l0 0 -0.01 -0.05 0 -0.01 0 0 -0.01 -0.03 0 -0.01 0 0 -0.01 -0.04 0 0 0 0c-0.01,-0.02 -0.01,-0.03 -0.01,-0.05l0 -0.01 -0.01 0c0,-0.01 0,-0.02 0,-0.04l0 0 0 0c-0.01,-0.03 -0.02,-0.07 -0.03,-0.11l0 0 0 0c0,-0.02 0,-0.04 -0.01,-0.05l0 -0.01 0 0c0,-0.02 0,-0.04 -0.01,-0.06l0 -0.01 0 0c0,-0.02 0,-0.04 -0.01,-0.05l0 -0.02 0 0c0,-0.02 -0.01,-0.04 -0.01,-0.06l0 0 0 0c0,-0.03 -0.01,-0.05 -0.01,-0.08l0 0 0 0c0,-0.03 -0.01,-0.06 -0.01,-0.09l0 -0.02 0 0c0,-0.03 -0.01,-0.06 -0.01,-0.09l0 -0.01 0 0c-0.01,-0.04 -0.01,-0.08 -0.01,-0.12l0 0 0 0c-0.01,-0.07 -0.01,-0.14 -0.01,-0.21l0 -0.08 0 0c0,-0.04 -0.01,-0.08 -0.01,-0.12l0 -25.13c0,-0.04 0.01,-0.07 0.01,-0.11l0 0 0 -0.09c0,-0.07 0,-0.14 0.01,-0.21l0 0 0 0c0,-0.04 0,-0.07 0.01,-0.11l0 0 0 -0.02c0,-0.03 0.01,-0.07 0.01,-0.1l0 0 0 -0.01c0.01,-0.06 0.01,-0.11 0.02,-0.17l0 0 0 0c0,-0.02 0.01,-0.04 0.01,-0.06l0 0 0 -0.01c0.01,-0.02 0.01,-0.04 0.01,-0.06l0 0 0 -0.01c0.01,-0.02 0.01,-0.03 0.01,-0.05l0 0 0 -0.01 0.01 -0.06 0 0 0 0c0.01,-0.05 0.02,-0.11 0.04,-0.16l0 0 0 0 0 -0.04 0.01 0 0 -0.01 0.01 -0.04 0 0 0 -0.01 0.01 -0.04 0 0 0 0 0.01 -0.04 0 0 0 -0.01c0.01,-0.04 0.02,-0.08 0.03,-0.12l0 0 0 0c0.01,-0.02 0.02,-0.05 0.02,-0.07l0 0 0 0 0.01 -0.03 0 0 0 -0.01 0.01 -0.03 0 0 0 -0.01 0.02 -0.03 0 0 0 0 0.01 -0.03 0 0 0 -0.01 0.01 -0.02 0 0 0 -0.01c0.01,-0.04 0.02,-0.08 0.04,-0.12l0 0 0 0 0.01 -0.03 0 0 0 -0.01c0.01,-0.01 0.01,-0.03 0.02,-0.05l0 0 0 0 0.01 -0.03 0 0 0 0c0.01,-0.02 0.02,-0.04 0.02,-0.05l0 0 0 -0.01c0.02,-0.05 0.05,-0.1 0.07,-0.16l0 0 0 0c0.01,-0.02 0.02,-0.05 0.03,-0.07l0 0 0 0 0.01 -0.02 0 0 0 -0.01 0.01 -0.01 0 0 0 -0.01c0.01,-0.02 0.02,-0.05 0.03,-0.07l0 0 0 0 0.01 -0.02 0.01 0 0 0 0 -0.02 0.01 0 0 0c0.02,-0.05 0.04,-0.09 0.06,-0.13l0 0 0 0 0.01 -0.02 0 0 0 0 0.01 -0.02 0 0 0 0 0.01 -0.02 0 0 0 -0.01 0.01 -0.02 0 0 0 0c0.02,-0.02 0.03,-0.05 0.04,-0.07l0.01 0 0 0 0.01 -0.02 0 0 0 0c0.02,-0.05 0.05,-0.09 0.07,-0.13l0 0 0 0c0.01,-0.02 0.02,-0.04 0.03,-0.05l0 0 0 -0.01 0.02 -0.03 0.01 0 0 0 0.01 -0.02 0 0 0 0 0.02 -0.03 0 0 0 0 0.02 -0.03 0 0 0 -0.01c0.03,-0.05 0.07,-0.1 0.1,-0.15l0.01 0 0 -0.01 0.02 -0.03 0 0 0 0c0.01,-0.01 0.02,-0.02 0.03,-0.04l0 0 0 0 0.02 -0.03 0 0 0 0c0.01,-0.02 0.02,-0.03 0.03,-0.04l0 0 0 -0.01c0.02,-0.02 0.05,-0.05 0.07,-0.08l0 0 0 0c0.01,-0.02 0.03,-0.04 0.04,-0.05l0 0 0 0c0.01,-0.02 0.03,-0.04 0.04,-0.06l0 0 0 0 0.01 -0.01 0 0 0 0c0.02,-0.02 0.03,-0.03 0.05,-0.05l0 0 0 0c0.02,-0.02 0.03,-0.04 0.05,-0.07l0 0 0 0c0.03,-0.03 0.06,-0.06 0.09,-0.09l0 0 0 0 0.01 -0.01 0 0 0 0 0.01 -0.01 0 0 0 -0.01 0.01 0 0 0 0 -0.01c0.1,-0.11 0.21,-0.22 0.33,-0.33l0 0 0 0 0.01 -0.01 0 0 0 0 0.01 -0.01 0 0 0 0 0.01 -0.01 0 0 0 0c0.04,-0.03 0.07,-0.06 0.1,-0.08l0 0 0 0c0.02,-0.02 0.03,-0.03 0.05,-0.05l0 0 0 0 0.01 -0.01 0 0 0 0c0.02,-0.01 0.04,-0.03 0.05,-0.04l0.01 0 0 0 0.01 -0.01 0 0 0 0c0.02,-0.02 0.03,-0.03 0.05,-0.04l0 0 0 -0.01c0.02,-0.01 0.04,-0.02 0.06,-0.04l0 0 0 0c0.02,-0.02 0.05,-0.04 0.08,-0.06l0 0 0 0 0.04 -0.03 0.01 0 0 -0.01 0.02 -0.02 0.01 0 0 0 0.01 -0.01 0 0 0 0 0.03 -0.02 0 0 0 0 0.03 -0.02 0 0 0 0c0.02,-0.01 0.03,-0.02 0.04,-0.03l0.01 0 0 0 0.03 -0.02 0 0 0 0c0.02,-0.02 0.04,-0.03 0.06,-0.05l0 0 0 0 0.03 -0.02 0 0 0 0c0.02,-0.01 0.04,-0.02 0.05,-0.03l0.01 0 0 0 0.03 -0.02 0 0 0 0 0.03 -0.02 0 0 0 0 0.02 -0.01 0 0 0 -0.01 0.03 -0.01 0.01 0 0 -0.01c0.01,-0.01 0.03,-0.02 0.05,-0.03l0 0 0 0c0.01,0 0.02,-0.01 0.04,-0.02l0.03 -0.02 0 0 0 0c0.04,-0.02 0.07,-0.04 0.1,-0.05l0 0 0 0 0.02 -0.01 0 0 0 -0.01 0.02 0 0 0 0 -0.01 0.02 -0.01 0.01 0 0 0c0.08,-0.04 0.16,-0.08 0.25,-0.12l0 0 0 -0.01 0.02 0 0 0 0 -0.01 0.02 -0.01 0.01 0 0 0c0.02,-0.01 0.04,-0.02 0.07,-0.03l0 0 0 0 0.02 -0.01 0 0 0 0c0.03,-0.01 0.05,-0.02 0.08,-0.03l0 0 0 0 0.05 -0.02 0 0 0 0c0.02,-0.01 0.03,-0.02 0.05,-0.02l0 0 0 0 0.06 -0.03 0 0 0 0 0.02 -0.01 0.01 0 0 0 0.05 -0.02 0 0 0 0 0.03 -0.01 0.01 0 0 0c0.07,-0.03 0.14,-0.05 0.21,-0.07l0.01 0 0 -0.01 0.03 0 0 0 0 -0.01 0.03 0 0.01 0 0 -0.01 0.03 -0.01 0.01 0 0 0 0.03 -0.01 0 0 0 0c0.05,-0.01 0.1,-0.03 0.16,-0.04l0 0 0 0 0.04 -0.01 0 0 0 0 0.04 -0.01 0.01 0 0 0 0.04 -0.01 0.01 0 0 0 0.04 -0.01 0 0 0 0 0.05 -0.01 0 0 0 0c0.03,-0.01 0.07,-0.02 0.1,-0.02l0 0 0 0c0.02,-0.01 0.04,-0.01 0.06,-0.01l0.01 0 0 -0.01c0.02,0 0.03,0 0.05,-0.01l0.01 0 0 0c0.02,0 0.04,0 0.06,-0.01l0.01 0 0 0c0.02,0 0.04,0 0.06,-0.01l0 0 0 0c0.06,-0.01 0.11,-0.01 0.17,-0.02l0.01 0 0 0c0.03,0 0.06,-0.01 0.09,-0.01l0.02 0 0 0c0.1,-0.01 0.21,-0.02 0.31,-0.02l0.39 0c0.07,0 0.14,0.01 0.2,0.01l0 0 0.01 0c0.03,0 0.06,0.01 0.1,0.01l0 0 0.02 0c0.03,0 0.06,0.01 0.09,0.01l0 0 0.02 0c0.03,0 0.06,0.01 0.08,0.01l0 0 0.01 0c0.02,0.01 0.04,0.01 0.07,0.01l0 0 0.01 0c0.01,0.01 0.03,0.01 0.05,0.01l0 0 0.02 0 0.05 0.01 0 0 0.01 0 0.05 0.01 0 0.01 0.01 0c0.02,0 0.04,0 0.06,0.01l0 0 0 0c0.04,0 0.07,0.01 0.1,0.02l0 0 0.01 0 0.05 0.01 0 0 0 0 0.04 0.01 0 0 0.01 0 0.03 0.01 0 0 0.01 0 0.04 0.01 0 0 0.01 0c0.05,0.01 0.1,0.03 0.16,0.04l0 0 0 0 0.03 0.01 0 0 0.01 0 0.03 0.01 0 0 0 0 0.04 0.01 0 0.01 0 0 0.03 0 0 0.01 0.01 0c0.02,0 0.04,0.01 0.06,0.02l0 0 0 0 0.03 0.01 0 0 0.01 0 0.03 0.01 0 0 0 0c0.02,0.01 0.04,0.01 0.06,0.02l0 0 0 0c0.03,0.01 0.06,0.02 0.09,0.03l0 0 0 0 0.03 0.01 0 0 0 0 0.05 0.02 0 0 0.01 0 0.03 0.02 0 0 0 0c0.01,0 0.03,0.01 0.05,0.02l0 0 0 0 0.05 0.02 0 0 0 0c0.03,0.01 0.05,0.02 0.08,0.03l0 0 0 0 0.02 0.01 0 0 0 0c0.03,0.01 0.05,0.02 0.07,0.03l0 0 0.01 0 0.02 0.01 0 0 0 0 0.02 0.01 0 0.01 0 0c0.03,0.01 0.06,0.02 0.09,0.04l0 0 0 0 0.02 0.01 0 0 0.01 0c0.02,0.01 0.04,0.02 0.06,0.03l0 0 0 0 0.02 0.01 0 0 0 0 0.02 0.01 0 0 0 0 0.02 0.01 0 0 0 0c0.03,0.02 0.05,0.03 0.08,0.04l0 0.01 0 0 0.02 0 0 0.01 0 0 0.02 0.01 0 0 0 0 0.02 0.01 0 0 0 0c0.04,0.02 0.07,0.03 0.1,0.05l4.7 2.72 4.51 2.6 12.56 7.25c0.03,0.02 0.06,0.04 0.09,0.05l0 0.01 0 0c0.02,0.01 0.04,0.02 0.05,0.03l0 0 0.01 0 0.03 0.02 0 0 0 0 0.02 0.01 0 0 0 0 0.03 0.02 0 0 0 0 0.03 0.02 0 0 0.01 0c0.04,0.03 0.08,0.06 0.12,0.09l0 0 0 0 0.03 0.02 0 0 0 0 0.05 0.03 0 0 0 0 0.03 0.02 0 0.01 0 0 0.04 0.03 0 0 0 0c0.05,0.03 0.09,0.06 0.13,0.09l0 0 0 0c0.02,0.01 0.03,0.03 0.04,0.04l0 0 0 0 0.01 0 0 0.01 0.01 0c0.01,0.01 0.03,0.02 0.05,0.04l0 0 0 0 0.01 0.01 0 0 0 0c0.01,0.01 0.03,0.02 0.04,0.03l0 0 0 0 0.01 0.01 0 0 0 0c0.02,0.02 0.05,0.04 0.07,0.06l0 0 0 0c0.03,0.02 0.06,0.05 0.09,0.08l0 0 0 0 0.01 0.01 0 0 0 0 0.01 0.01 0 0 0.01 0 0 0.01 0 0 0.01 0c0.11,0.11 0.22,0.22 0.33,0.33l0 0.01 0 0 0.01 0.01 0 0 0 0 0.01 0.01 0 0 0 0 0.01 0.01 0 0 0 0c0.04,0.05 0.09,0.1 0.13,0.15l0 0 0 0 0.01 0.01 0 0 0 0c0.01,0.02 0.03,0.03 0.04,0.05l0 0 0 0 0.01 0.01 0 0 0 0c0.01,0.02 0.02,0.03 0.03,0.04l0 0.01 0.01 0 0.01 0.01 0 0 0 0c0.02,0.03 0.05,0.06 0.07,0.09l0 0.01 0 0c0.01,0.01 0.02,0.02 0.03,0.04l0 0 0 0 0.02 0.03 0 0 0.01 0c0.01,0.01 0.02,0.03 0.03,0.04l0 0 0 0c0,0.01 0.01,0.02 0.02,0.03l0 0.01 0 0c0.01,0.01 0.02,0.02 0.03,0.04l0 0 0 0c0.01,0.01 0.01,0.02 0.02,0.03l0 0 0 0c0.03,0.04 0.06,0.08 0.09,0.13l0 0 0 0c0,0.01 0.01,0.02 0.02,0.03l0 0 0 0 0.01 0.02 0 0 0 0 0.02 0.03 0 0 0 0c0.01,0.02 0.02,0.04 0.03,0.05l0 0.01 0 0 0.02 0.03 0 0 0 0c0.03,0.05 0.06,0.1 0.09,0.15l0 0 0 0 0.01 0.02 0 0 0 0 0.01 0.02 0 0 0 0 0.01 0.02 0 0.01 0.01 0c0.01,0.03 0.03,0.06 0.05,0.09l0 0 0 0 0.01 0.02 0 0 0 0 0.01 0.02 0 0 0 0c0,0.02 0.01,0.03 0.02,0.05l0 0 0 0c0.02,0.03 0.03,0.07 0.05,0.11l0 0.01 0 0 0.01 0.01 0 0.01 0 0 0.01 0.02 0 0 0 0c0.02,0.02 0.03,0.05 0.04,0.07l0 0 0 0 0.01 0.02 0 0 0 0c0.02,0.06 0.04,0.11 0.06,0.16l0 0.01 0 0c0.01,0.01 0.02,0.03 0.02,0.05l0 0 0 0 0.01 0.02 0 0.01 0.01 0c0,0.02 0.01,0.04 0.01,0.05l0 0.01 0.01 0 0.01 0.02 0 0.01 0 0c0.02,0.06 0.04,0.12 0.06,0.18l0 0.01 0 0 0.01 0.03 0 0 0 0 0.01 0.03 0 0 0 0c0.01,0.02 0.01,0.03 0.01,0.04l0 0.01 0 0 0.01 0.03 0 0 0 0c0.01,0.02 0.02,0.05 0.02,0.07l0 0.01 0 0c0.02,0.04 0.03,0.08 0.04,0.12l0 0 0 0 0.01 0.04 0 0.01 0 0c0,0.01 0,0.02 0.01,0.04l0 0 0 0c0,0.01 0.01,0.03 0.01,0.04l0 0.01 0 0 0.01 0.04 0 0.01 0 0c0.01,0.05 0.02,0.1 0.03,0.15l0 0.01 0 0c0.01,0.02 0.01,0.04 0.01,0.05l0 0.01 0 0c0.01,0.02 0.01,0.04 0.01,0.06l0 0.02 0.01 0c0,0.01 0,0.03 0,0.05l0 0.01 0.01 0c0,0.02 0,0.04 0,0.06l0 0.01 0 0c0.01,0.02 0.01,0.05 0.01,0.08l0 0.01 0.01 0c0,0.03 0,0.06 0.01,0.08l0 0.03 0 0c0,0.03 0,0.06 0.01,0.09l0 0.02 0 0c0,0.04 0,0.08 0.01,0.13l0 0.02 0 0c0,0.11 0.01,0.21 0.01,0.32 0,0.11 -0.01,0.22 -0.01,0.33l0 0 0 0.02c-0.01,0.05 -0.01,0.09 -0.01,0.13l0 0 0 0.02c-0.01,0.03 -0.01,0.06 -0.01,0.09l0 0 0 0.03c-0.01,0.03 -0.01,0.06 -0.01,0.09l-0.01 0 0 0c0,0.03 0,0.06 -0.01,0.08l0 0 0 0.01c0,0.02 0,0.04 -0.01,0.07l0 0 0 0c0,0.02 0,0.04 -0.01,0.06l0 0 0 0.01c0,0.02 0,0.04 -0.01,0.06l0 0 0 0.01c0,0.01 0,0.03 -0.01,0.05l0 0 0 0.01c-0.01,0.05 -0.02,0.1 -0.03,0.15l0 0 0 0.01c0,0.01 -0.01,0.03 -0.01,0.04l0 0 0 0.01c0,0.01 -0.01,0.02 -0.01,0.04l0 0 0 0 -0.01 0.04 0 0 0 0.01 -0.01 0.03 0 0 0 0.01c-0.02,0.06 -0.03,0.11 -0.05,0.17l0 0 0 0 -0.01 0.03 0 0 0 0c0,0.03 -0.01,0.05 -0.02,0.07l0 0 0 0.01c0,0.01 0,0.02 -0.01,0.02l0 0 0 0.01c-0.01,0.05 -0.03,0.09 -0.04,0.13l0 0 0 0c-0.02,0.04 -0.03,0.08 -0.04,0.12l-0.01 0 0 0.01 -0.01 0.02 0 0 0 0.01c0,0.01 -0.01,0.03 -0.02,0.05l0 0 0 0 -0.01 0.03 0 0 0 0c-0.01,0.02 -0.01,0.04 -0.02,0.05l0 0 0 0.01c-0.02,0.04 -0.03,0.08 -0.05,0.12l0 0 0 0.01c-0.01,0.02 -0.02,0.04 -0.03,0.07l-0.01 0 0 0 0 0.02 -0.01 0 0 0 0 0.02 -0.01 0 0 0.01c-0.01,0.02 -0.02,0.04 -0.03,0.07l0 0 0 0 -0.01 0.02 0 0 0 0 -0.01 0.02 0 0 0 0c-0.02,0.04 -0.04,0.07 -0.05,0.11l0 0 0 0 -0.01 0.02 -0.01 0 0 0 -0.01 0.02 0 0 0 0 -0.01 0.02 0 0 0 0c-0.01,0.03 -0.02,0.05 -0.04,0.08l0 0 0 0 -0.01 0.02 0 0 0 0 -0.01 0.02 0 0 0 0c-0.02,0.04 -0.05,0.08 -0.07,0.13l-0.01 0 0 0c-0.01,0.02 -0.02,0.03 -0.03,0.05l0 0 0 0c-0.01,0.02 -0.02,0.04 -0.03,0.05l0 0 0 0.01c-0.01,0.01 -0.01,0.02 -0.02,0.03l0 0 0 0c-0.01,0.02 -0.02,0.03 -0.03,0.05l-0.03 0.03 0 0 0 0c-0.01,0.02 -0.02,0.05 -0.04,0.07l0 0 0 0c-0.02,0.02 -0.03,0.05 -0.05,0.07l0 0 0 0 -0.02 0.03 0 0 0 0c-0.01,0.02 -0.02,0.03 -0.03,0.05l-0.01 0 0 0c-0.01,0.01 -0.02,0.03 -0.03,0.04l0 0 0 0c-0.03,0.05 -0.06,0.09 -0.09,0.13l0 0 0 0c-0.02,0.02 -0.03,0.03 -0.05,0.05l0 0 0 0 -0.01 0.01 0 0 0 0.01c-0.01,0.01 -0.03,0.03 -0.04,0.05l0 0 0 0 -0.01 0.01 0 0 0 0c-0.02,0.02 -0.03,0.03 -0.04,0.05l0 0 0 0c-0.03,0.03 -0.05,0.06 -0.08,0.09l0 0 0 0 -0.01 0.01 0 0 0 0c-0.04,0.04 -0.08,0.08 -0.12,0.13l0 0 0 0 -0.01 0.01 0 0 0 0 -0.01 0.01 0 0 0 0 -0.01 0.01 0 0 0 0 -0.01 0.01 0 0 0 0c-0.03,0.03 -0.06,0.06 -0.1,0.1l0 0 0 0 -0.01 0.01 0 0 0 0 -0.01 0.01 0 0 0 0 -0.01 0.01 0 0 0 0 -0.01 0.01 0 0 0 0c-0.04,0.03 -0.08,0.07 -0.12,0.11l0 0 0 0 -0.01 0.01 0 0 0 0 -0.01 0.01 0 0 0 0c-0.03,0.02 -0.06,0.05 -0.09,0.07l0 0 0 0c-0.01,0.02 -0.03,0.03 -0.05,0.04l0 0 0 0.01 -0.01 0.01 0 0 0 0c-0.02,0.01 -0.03,0.02 -0.05,0.04l0 0 0 0 -0.01 0.01 0 0 0 0c-0.02,0.01 -0.03,0.02 -0.04,0.03l-0.01 0 0 0 -0.01 0.01 0 0 0 0c-0.03,0.03 -0.06,0.05 -0.09,0.08l0 0 0 0c-0.02,0.01 -0.03,0.02 -0.05,0.03l0 0 0 0 -0.03 0.02 0 0 0 0c-0.01,0.01 -0.03,0.02 -0.04,0.03l0 0 0 0 -0.03 0.02 0 0 0 0.01c-0.02,0.01 -0.03,0.02 -0.05,0.03l0 0 0 0 -0.03 0.02 0 0 0 0c-0.04,0.03 -0.08,0.06 -0.13,0.08l0 0 0 0.01c-0.01,0 -0.02,0.01 -0.03,0.02l0 0 0 0 -0.02 0.01 0 0 0 0 -0.03 0.02 0 0 0 0c-0.02,0.01 -0.03,0.01 -0.04,0.02l0 0 0 0 -0.01 0.01 -0.01 0 0 0 -0.03 0.02 0 0 0 0c-0.02,0.01 -0.04,0.02 -0.05,0.03l0 0 0 0c-0.01,0.01 -0.02,0.02 -0.03,0.02l-3.5 2.02 0 0 0 0 -5.97 3.44 0 0 0 0 -3.36 1.95 -5.18 2.99 -1.03 0.59 -1.8 1.04 -0.93 0.54c-0.02,0.01 -0.04,0.02 -0.05,0.03l0 0 0 0 -0.02 0.01 -0.01 0 0 0c-0.02,0.01 -0.04,0.03 -0.07,0.04l0 0 0 0 -0.02 0.01 0 0 0 0 -0.02 0.01 0 0 0 0 -0.02 0.01 0 0 0 0.01 -0.02 0 -0.01 0 0 0.01c-0.06,0.03 -0.12,0.06 -0.19,0.09l0 0 0 0 -0.02 0.01 0 0 0 0 -0.02 0.01 0 0 0 0c-0.03,0.01 -0.05,0.02 -0.07,0.03l-0.01 0 0 0.01 -0.02 0.01 0 0 0 0 -0.02 0.01 0 0 0 0c-0.03,0.01 -0.05,0.02 -0.08,0.03l0 0 0 0 -0.05 0.02 0 0 0 0c-0.02,0.01 -0.03,0.01 -0.05,0.02l0 0 0 0c-0.02,0.01 -0.04,0.02 -0.05,0.02l-0.01 0 0 0 -0.02 0.01 -0.01 0 0 0.01c-0.02,0 -0.03,0.01 -0.05,0.01l0 0 0 0.01 -0.03 0.01 0 0 0 0c-0.08,0.02 -0.15,0.05 -0.22,0.07l-0.01 0 0 0 -0.03 0.01 0 0 0 0 -0.03 0.01 0 0 0 0c-0.03,0.01 -0.05,0.02 -0.07,0.02l-0.01 0 0 0.01 -0.03 0 0 0 0 0c-0.05,0.02 -0.11,0.03 -0.16,0.05l-0.01 0 0 0 -0.04 0.01 -0.01 0 0 0 -0.03 0.01 -0.01 0 0 0 -0.04 0.01 0 0 0 0 -0.05 0.01 -0.01 0 0 0c-0.05,0.01 -0.1,0.02 -0.15,0.03l-0.01 0 0 0c-0.01,0.01 -0.03,0.01 -0.05,0.01l-0.01 0 0 0c-0.02,0.01 -0.04,0.01 -0.06,0.01l0 0 0 0.01c-0.02,0 -0.05,0 -0.07,0l0 0 0 0c-0.05,0.01 -0.1,0.02 -0.16,0.03l-0.01 0 0 0c-0.03,0 -0.06,0 -0.09,0.01l-0.02 0 0 0c-0.03,0 -0.06,0 -0.1,0.01l-0.01 0 0 0c-0.05,0 -0.1,0.01 -0.16,0.01l-0.06 0 0 0c-0.07,0 -0.14,0 -0.2,0 -0.07,0 -0.13,0 -0.2,0zm22.53 -17.31l-13.71 7.92 -1.23 0.71 0 0 -0.6 0.35 -1.97 1.13 0 0 0 0 -4.25 2.46c-0.52,0.29 -0.97,0.1 -1.14,0 -0.17,-0.1 -0.57,-0.4 -0.57,-0.99l0 -25.13c0,-0.6 0.4,-0.89 0.57,-0.99 0.1,-0.06 0.31,-0.15 0.57,-0.15 0.17,0 0.36,0.04 0.57,0.15l0.68 0.4 0 0 0 0 1.04 0.6 0 0 0 0 1.04 0.6 1.04 0.6 3.03 1.75 5.78 3.33 0 0 1.8 1.04 0 0 0 0 1.8 1.04 2.85 1.65 0 0 0 0 1.8 1.04 0 0 0 0 0.9 0.52c0.52,0.3 0.57,0.79 0.57,0.98 0,0.2 -0.05,0.69 -0.57,0.99z"/>
            <path class="fil4"
                  d="M25.28 33.14l-8.94 5.16c-0.9,0.52 -1.88,0.77 -2.86,0.77 -0.99,0 -1.97,-0.25 -2.86,-0.77 -1.8,-1.04 -2.87,-2.89 -2.87,-4.96l0 -19.22 4.59 4.97 0 14.25c0,0.59 0.4,0.89 0.57,0.99 0.17,0.1 0.62,0.29 1.14,0l8.05 -4.65 3.18 3.46z"/>
            <path class="fil5"
                  d="M40.97 20.77c0,2.07 -1.07,3.93 -2.86,4.96l-12.83 7.41 -5.18 2.99 0.17 -5.39 1.83 -1.06 13.71 -7.92c0.52,-0.3 0.57,-0.79 0.57,-0.99 0,-0.19 -0.05,-0.68 -0.57,-0.98l-14.93 -8.62 0.16 -5.2 17.07 9.85c1.79,1.03 2.86,2.89 2.86,4.95z"/>
  </g>
 </g>
</svg>
