<?xml version="1.0" encoding="UTF-8"?>
<!DOCTYPE svg PUBLIC "-//W3C//DTD SVG 1.1//EN" "http://www.w3.org/Graphics/SVG/1.1/DTD/svg11.dtd">
<!-- Creator: CorelDRAW 2019 (64-Bit) -->
<svg xmlns="http://www.w3.org/2000/svg" xml:space="preserve" width="512px" height="512px" version="1.1" style="shape-rendering:geometricPrecision; text-rendering:geometricPrecision; image-rendering:optimizeQuality; fill-rule:evenodd; clip-rule:evenodd"
viewBox="0 0 53.87 53.87"
 xmlns:xlink="http://www.w3.org/1999/xlink"
 xmlns:xodm="http://www.corel.com/coreldraw/odm/2003">
 <defs>
  <style type="text/css">
   <![CDATA[
    .fil2 {fill:none}
    .fil0 {fill:#70557E}
    .fil1 {fill:#FEFEFE;fill-rule:nonzero}
   ]]>
  </style>
 </defs>
 <g id="Layer_x0020_1">
  <metadata id="CorelCorpID_0Corel-Layer"/>
  <g id="_2477496450256">
   <g>
    <g>
     <path class="fil0" d="M43.27 43.4l-2.45 -26.87c-0.06,-0.74 -0.68,-1.3 -1.43,-1.3l-4.3 0 0 -2.87c0,-2.31 -0.9,-4.47 -2.52,-6.1 -1.59,-1.59 -3.81,-2.51 -6.09,-2.51 -4.75,0 -8.61,3.86 -8.61,8.61l0 2.87 -4.3 0c-0.75,0 -1.37,0.56 -1.43,1.3l-2.44 26.87c-0.15,1.61 0.39,3.2 1.47,4.39 1.09,1.19 2.63,1.87 4.24,1.87l22.14 0c1.61,0 3.15,-0.68 4.24,-1.86 1.08,-1.19 1.62,-2.79 1.48,-4.4zm-11.05 -28.17l-11.48 0 0 -2.87c0,-3.17 2.57,-5.74 5.74,-5.74 1.52,0 3,0.61 4.06,1.67 1.08,1.08 1.68,2.53 1.68,4.07l0 2.87z"/>
    </g>
   </g>
   <g>
   </g>
   <g>
   </g>
   <g>
   </g>
   <g>
   </g>
   <g>
   </g>
   <g>
   </g>
   <g>
   </g>
   <g>
   </g>
   <g>
   </g>
   <g>
   </g>
   <g>
   </g>
   <g>
   </g>
   <g>
   </g>
   <g>
   </g>
   <g>
   </g>
  </g>
  <g id="_2477496461392">
   <path class="fil1" d="M26.99 37.66c-2.4,0 -4.58,-0.97 -6.16,-2.55 -1.58,-1.57 -2.55,-3.75 -2.55,-6.16 0,-2.4 0.97,-4.58 2.55,-6.16 1.58,-1.58 3.76,-2.55 6.16,-2.55 2.41,0 4.59,0.97 6.16,2.55 1.58,1.58 2.55,3.76 2.55,6.16l-4.1 0c0,-1.27 -0.51,-2.43 -1.35,-3.26 -0.83,-0.83 -1.98,-1.35 -3.26,-1.35 -1.27,0 -2.43,0.52 -3.26,1.35 -0.83,0.83 -1.35,1.99 -1.35,3.26 0,1.28 0.52,2.43 1.35,3.26 0.83,0.84 1.99,1.35 3.26,1.35l0 4.1z"/>
   <path class="fil1" d="M25.17 27.4c2.4,0 4.58,0.98 6.16,2.56 1.57,1.57 2.55,3.75 2.55,6.16 0,2.4 -0.98,4.58 -2.55,6.16 -1.58,1.57 -3.76,2.55 -6.16,2.55 -2.41,0 -4.59,-0.98 -6.16,-2.55 -1.58,-1.58 -2.56,-3.76 -2.56,-6.16l4.1 0c0,1.27 0.52,2.42 1.36,3.26 0.83,0.83 1.98,1.35 3.26,1.35 1.27,0 2.42,-0.52 3.26,-1.35 0.83,-0.84 1.35,-1.99 1.35,-3.26 0,-1.28 -0.52,-2.43 -1.35,-3.27 -0.84,-0.83 -1.99,-1.35 -3.26,-1.35l0 -4.1z"/>
  </g>
  <rect class="fil2" width="53.87" height="53.87"/>
 </g>
</svg>
