<svg xmlns="http://www.w3.org/2000/svg" xmlns:xlink="http://www.w3.org/1999/xlink" xml:space="preserve" width="543" height="542" style="shape-rendering:geometricPrecision;text-rendering:geometricPrecision;image-rendering:optimizeQuality;fill-rule:evenodd;clip-rule:evenodd" viewBox="0 0 40.97 40.91"><defs><linearGradient id="id0" x1="24.94" x2="24.94" y1="36.61" y2="3.88" gradientUnits="userSpaceOnUse"><stop offset="0" style="stop-opacity:1;stop-color:#f8a990"/><stop offset=".039" style="stop-opacity:1;stop-color:#f8a990"/><stop offset=".98" style="stop-opacity:1;stop-color:#9a499a"/><stop offset="1" style="stop-opacity:1;stop-color:#9a499a"/></linearGradient><linearGradient id="id1" x1="31.3" x2="25.57" y1="12.36" y2="37.85" gradientUnits="userSpaceOnUse"><stop offset="0" style="stop-opacity:1;stop-color:#60436e"/><stop offset="1" style="stop-opacity:1;stop-color:#70557e"/></linearGradient><linearGradient xlink:href="#id1" id="id2" x1="23.29" x2="14.69" y1="15.27" y2="21.54" gradientUnits="userSpaceOnUse"/><linearGradient xlink:href="#id1" id="id3" x1="2.91" x2="21.43" y1="23.18" y2="32.15" gradientUnits="userSpaceOnUse"/><style>.fil2{fill:#fefefe;fill-rule:nonzero}</style></defs><g id="Layer_x0020_1"><circle cx="20.45" cy="20.45" r="20.45" style="fill:none"/><path d="m38.39 20.45-13.45 8.18-13.46 8.19V4.09l13.46 8.18z" style="fill:url(#id0)"/><g id="_2081513831984"><path d="M20.13 23.92c-1.48 0-2.81-.6-3.78-1.56a5.337 5.337 0 0 1 0-7.56c.97-.96 2.3-1.56 3.78-1.56 1.47 0 2.81.6 3.77 1.56.97.97 1.57 2.31 1.57 3.78h-2.52c0-.78-.31-1.49-.83-2a2.81 2.81 0 0 0-3.99 0c-.52.51-.83 1.22-.83 2s.31 1.49.83 2c.51.51 1.21.83 2 .83z" class="fil2"/><path d="M19.01 17.63c1.47 0 2.81.6 3.77 1.57.97.96 1.57 2.3 1.57 3.77 0 1.48-.6 2.81-1.57 3.78-.96.97-2.3 1.56-3.77 1.56-1.48 0-2.81-.59-3.78-1.56s-1.56-2.3-1.56-3.78h2.51c0 .78.32 1.49.83 2s1.22.83 2 .83 1.48-.32 2-.83c.51-.51.82-1.22.82-2s-.31-1.49-.82-2c-.52-.51-1.22-.82-2-.82z" class="fil2"/></g><g id="_2081513832688"><path d="M13.28 39.07h-.07c-.05 0-.1-.01-.15-.01h-.02c-.03-.01-.06-.01-.09-.01h-.03c-.03-.01-.05-.01-.08-.01h-.02c-.05-.01-.1-.02-.15-.02v-.01h-.06V39h-.07v-.01h-.01l-.05-.01h-.01l-.06-.01c-.04-.01-.07-.01-.1-.02h-.01l-.04-.01h-.01l-.04-.01-.04-.01h-.01l-.04-.01-.04-.01a.3.3 0 0 0-.08-.02v-.01h-.01c-.02 0-.05-.01-.07-.02l-.03-.01h-.01c-.02 0-.04-.01-.07-.02l-.03-.01-.03-.01h-.01c-.05-.02-.1-.03-.15-.05h-.01l-.02-.01h-.01l-.05-.02v-.01l-.03-.01-.05-.02h-.01l-.15-.06h-.01l-.02-.01-.05-.02-.02-.01v-.01h-.02v-.01h-.02v-.01h-.01c-.02-.01-.05-.02-.07-.03l-.02-.01-.02-.01h-.01c-.03-.02-.06-.03-.1-.05l-.02-.01v-.01h-.02v-.01l-.02-.01h-.01l-.02-.01c-.02-.01-.05-.02-.07-.04h-.01l-.01-.01-.02-.01c-.03-.01-.05-.03-.07-.04a.2.2 0 0 1-.06-.04l-.06-.03-.03-.02-.02-.01-.03-.02-.03-.02h-.01a.2.2 0 0 0-.05-.04.2.2 0 0 1-.06-.04c-.03-.02-.05-.03-.08-.05l-.03-.02-.03-.03h-.01v-.01h-.01l-.02-.02h-.01a.1.1 0 0 0-.04-.03c-.05-.03-.09-.07-.14-.1v-.01c-.02-.01-.03-.02-.05-.04-.02-.01-.04-.03-.05-.04l-.01-.01h-.01l-.06-.06c-.03-.02-.05-.04-.07-.06l-.01-.01h-.01l-.01-.01c-.04-.04-.08-.07-.11-.11l-.01-.01-.01-.01h-.01l-.01-.01-.01-.01c-.03-.03-.06-.07-.09-.1l-.01-.01h-.01v-.01h-.01v-.01h-.01l-.01-.01-.01-.01c-.03-.04-.07-.08-.1-.12H9.2v-.01h-.01c-.02-.03-.05-.06-.07-.09-.02-.02-.04-.04-.05-.06h-.01v-.01l-.04-.04v-.01h-.01v-.01a.2.2 0 0 1-.04-.05.4.4 0 0 1-.07-.1h-.01a.1.1 0 0 1-.03-.04l-.02-.03-.01-.01-.02-.03-.02-.03v-.01h-.01c0-.01-.01-.02-.02-.04h-.01c-.02-.04-.05-.08-.08-.13l-.02-.03c-.01-.02-.02-.03-.03-.05h-.01l-.02-.04a.2.2 0 0 1-.03-.05c-.01-.02-.02-.04-.03-.05-.01-.03-.03-.05-.04-.08l-.06-.09v-.01l-.01-.01v-.01l-.01-.01v-.01l-.01-.01V36c-.03-.06-.06-.12-.09-.19H8.3l-.01-.02-.01-.02v-.01l-.01-.02c0-.01-.01-.03-.02-.04v-.01l-.01-.02-.01-.02c-.01-.03-.02-.05-.03-.08-.02-.03-.03-.07-.04-.1v-.01h-.01c0-.01-.01-.03-.02-.05l-.01-.03c-.01-.02-.01-.04-.02-.06l-.01-.02v-.01l-.06-.18v-.01h-.01v-.03h-.01L8 35.04v-.01L7.99 35v-.01l-.01-.03c0-.02-.01-.05-.02-.07v-.01c-.01-.03-.02-.07-.03-.11l-.01-.05v-.01l-.01-.03v-.01l-.01-.04c-.01-.02-.01-.03-.01-.05v-.01h-.01v-.04c-.01-.03-.02-.07-.03-.11 0-.02 0-.04-.01-.05v-.01c0-.02 0-.04-.01-.06v-.01c0-.02 0-.04-.01-.05v-.02c0-.02-.01-.04-.01-.06 0-.03-.01-.05-.01-.08s-.01-.06-.01-.09v-.02c0-.03-.01-.06-.01-.09v-.01c-.01-.04-.01-.08-.01-.12-.01-.07-.01-.14-.01-.21v-.08c0-.04-.01-.08-.01-.12V8.21c0-.04.01-.07.01-.11v-.09c0-.07 0-.14.01-.21 0-.04 0-.07.01-.11v-.02c0-.03.01-.07.01-.1v-.01c.01-.06.01-.11.02-.17 0-.02.01-.04.01-.06v-.01c.01-.02.01-.04.01-.06v-.01c.01-.02.01-.03.01-.05v-.01l.01-.06c.01-.05.02-.11.04-.16v-.04h.01v-.01l.01-.04v-.01l.01-.04.01-.04v-.01l.03-.12c.01-.02.02-.05.02-.07l.01-.03v-.01L8 6.52v-.01l.02-.03.01-.03v-.01l.01-.02v-.01c.01-.04.02-.08.04-.12l.01-.03v-.01c.01-.01.01-.03.02-.05l.01-.03c.01-.02.02-.04.02-.05v-.01c.02-.05.05-.1.07-.16.01-.02.02-.05.03-.07l.01-.02v-.01l.01-.01v-.01c.01-.02.02-.05.03-.07l.01-.02h.01v-.02h.01c.02-.05.04-.09.06-.13l.01-.02.01-.02.01-.02v-.01l.01-.02c.02-.02.03-.05.04-.07h.01l.01-.02c.02-.05.05-.09.07-.13.01-.02.02-.04.03-.05v-.01l.02-.03h.01l.01-.02.02-.03.02-.03V5.1c.03-.05.07-.1.1-.15h.01v-.01l.02-.03c.01-.01.02-.02.03-.04l.02-.03c.01-.02.02-.03.03-.04v-.01c.02-.02.05-.05.07-.08.01-.02.03-.04.04-.05.01-.02.03-.04.04-.06l.01-.01.05-.05c.02-.02.03-.04.05-.07l.09-.09.01-.01.01-.01v-.01h.01v-.01q.15-.165.33-.33L9.59 4l.01-.01.01-.01c.04-.03.07-.06.1-.08l.05-.05.01-.01c.02-.01.04-.03.05-.04h.01l.01-.01c.02-.02.03-.03.05-.04v-.01a.2.2 0 0 0 .06-.04c.02-.02.05-.04.08-.06l.04-.03h.01V3.6l.02-.02h.01l.01-.01.03-.02.03-.02c.02-.01.03-.02.04-.03h.01l.03-.02c.02-.02.04-.03.06-.05l.03-.02c.02-.01.04-.02.05-.03h.01l.03-.02.03-.02.02-.01v-.01l.03-.01h.01V3.3c.01-.01.03-.02.05-.03.01 0 .02-.01.04-.02l.03-.02c.04-.02.07-.04.1-.05l.02-.01v-.01h.02v-.01l.02-.01h.01c.08-.04.16-.08.25-.12v-.01h.02V3l.02-.01h.01c.02-.01.04-.02.07-.03l.02-.01c.03-.01.05-.02.08-.03l.05-.02c.02-.01.03-.02.05-.02l.06-.03.02-.01h.01l.05-.02.03-.01h.01c.07-.03.14-.05.21-.07h.01v-.01h.03v-.01h.04v-.01l.03-.01h.01l.03-.01c.05-.01.1-.03.16-.04l.04-.01.04-.01h.01l.04-.01h.01l.04-.01.05-.01c.03-.01.07-.02.1-.02.02-.01.04-.01.06-.01h.01v-.01c.02 0 .03 0 .05-.01h.01c.02 0 .04 0 .06-.01h.01c.02 0 .04 0 .06-.01.06-.01.11-.01.17-.02h.01c.03 0 .06-.01.09-.01h.02c.1-.01.21-.02.31-.02h.39c.07 0 .14.01.2.01h.01c.03 0 .06.01.1.01H14c.03 0 .06.01.09.01h.02c.03 0 .06.01.08.01h.01c.02.01.04.01.07.01h.01c.01.01.03.01.05.01h.02l.05.01h.01l.05.01v.01h.01c.02 0 .04 0 .06.01.04 0 .07.01.1.02h.01l.05.01.04.01h.01l.03.01h.01l.04.01h.01c.05.01.1.03.16.04l.03.01h.01l.03.01.04.01v.01h.03v.01h.01c.02 0 .04.01.06.02l.03.01h.01l.03.01c.02.01.04.01.06.02l.09.03.03.01.05.02h.01l.03.02c.01 0 .03.01.05.02l.05.02c.03.01.05.02.08.03l.02.01c.03.01.05.02.07.03h.01l.02.01.02.01v.01c.03.01.06.02.09.04l.02.01h.01l.06.03.02.01.02.01.02.01a.3.3 0 0 0 .08.04v.01h.02v.01l.02.01.02.01c.04.02.07.03.1.05l4.7 2.72 4.51 2.6 12.56 7.25c.03.02.06.04.09.05v.01c.02.01.04.02.05.03h.01l.03.02.02.01.03.02.03.02h.01l.12.09.03.02.05.03.03.02v.01l.04.03c.05.03.09.06.13.09.02.01.03.03.04.04h.01v.01h.01c.01.01.03.02.05.04l.01.01c.01.01.03.02.04.03l.01.01c.02.02.05.04.07.06.03.02.06.05.09.08l.01.01.01.01h.01v.01h.01l.33.33v.01l.01.01.01.01.01.01c.04.05.09.1.13.15l.01.01c.01.02.03.03.04.05l.01.01c.01.02.02.03.03.04v.01h.01l.01.01c.02.03.05.06.07.09v.01c.01.01.02.02.03.04l.02.03h.01c.01.01.02.03.03.04 0 .01.01.02.02.03v.01c.01.01.02.02.03.04.01.01.01.02.02.03.03.04.06.08.09.13 0 .01.01.02.02.03l.01.02.02.03c.01.02.02.04.03.05v.01l.02.03.09.15.01.02.01.02.01.02v.01h.01c.01.03.03.06.05.09l.01.02.01.02c0 .02.01.03.02.05.02.03.03.07.05.11v.01l.01.01v.01l.01.02c.02.02.03.05.04.07l.01.02c.02.06.04.11.06.16v.01c.01.01.02.03.02.05l.01.02v.01h.01c0 .02.01.04.01.05v.01h.01l.01.02v.01l.06.18v.01l.01.03.01.03c.01.02.01.03.01.04v.01l.01.03c.01.02.02.05.02.07v.01c.02.04.03.08.04.12l.01.04v.01c0 .01 0 .02.01.04 0 .01.01.03.01.04v.01l.01.04v.01l.03.15v.01c.01.02.01.04.01.05v.01c.01.02.01.04.01.06v.02h.01v.06h.01v.07c.01.02.01.05.01.08v.01h.01c0 .03 0 .06.01.08v.03c0 .03 0 .06.01.09v.02c0 .04 0 .08.01.13v.02c0 .11.01.21.01.32s-.01.22-.01.33v.02c-.01.05-.01.09-.01.13v.02c-.01.03-.01.06-.01.09v.03c-.01.03-.01.06-.01.09h-.01c0 .03 0 .06-.01.08v.01c0 .02 0 .04-.01.07 0 .02 0 .04-.01.06v.01c0 .02 0 .04-.01.06v.01c0 .01 0 .03-.01.05v.01l-.03.15V22c0 .01-.01.03-.01.04v.01c0 .01-.01.02-.01.04l-.01.04v.01l-.01.03v.01c-.02.06-.03.11-.05.17l-.01.03c0 .03-.01.05-.02.07v.01c0 .01 0 .02-.01.02v.01c-.01.05-.03.09-.04.13-.02.04-.03.08-.04.12h-.01v.01l-.01.02v.01c0 .01-.01.03-.02.05l-.01.03c-.01.02-.01.04-.02.05v.01c-.02.04-.03.08-.05.12v.01c-.01.02-.02.04-.03.07h-.01v.02h-.01v.02h-.01v.01c-.01.02-.02.04-.03.07l-.01.02-.01.02c-.02.04-.04.07-.05.11l-.01.02h-.01l-.01.02-.01.02a.3.3 0 0 1-.04.08l-.01.02-.01.02c-.02.04-.05.08-.07.13h-.01c-.01.02-.02.03-.03.05s-.02.04-.03.05v.01c-.01.01-.01.02-.02.03-.01.02-.02.03-.03.05l-.03.03c-.01.02-.02.05-.04.07s-.03.05-.05.07l-.02.03c-.01.02-.02.03-.03.05h-.01c-.01.01-.02.03-.03.04-.03.05-.06.09-.09.13l-.05.05-.01.01v.01c-.01.01-.03.03-.04.05l-.01.01c-.02.02-.03.03-.04.05-.03.03-.05.06-.08.09l-.01.01c-.04.04-.08.08-.12.13l-.01.01-.01.01-.01.01-.01.01-.1.1-.01.01-.01.01-.01.01-.01.01c-.04.03-.08.07-.12.11l-.01.01-.01.01c-.03.02-.06.05-.09.07-.01.02-.03.03-.05.04v.01l-.01.01c-.02.01-.03.02-.05.04l-.01.01c-.02.01-.03.02-.04.03h-.01l-.01.01c-.03.03-.06.05-.09.08-.02.01-.03.02-.05.03l-.03.02c-.01.01-.03.02-.04.03l-.03.02v.01c-.02.01-.03.02-.05.03l-.03.02c-.04.03-.08.06-.13.08v.01c-.01 0-.02.01-.03.02l-.02.01-.03.02c-.02.01-.03.01-.04.02l-.01.01h-.01l-.03.02c-.02.01-.04.02-.05.03s-.02.02-.03.02l-3.5 2.02-5.97 3.44-3.36 1.95-5.18 2.99-1.03.59-1.8 1.04-.93.54c-.02.01-.04.02-.05.03l-.02.01h-.01c-.02.01-.04.03-.07.04l-.02.01-.02.01-.02.01v.01h-.03v.01c-.06.03-.12.06-.19.09l-.02.01-.02.01c-.03.01-.05.02-.07.03h-.01v.01l-.02.01-.02.01c-.03.01-.05.02-.08.03l-.05.02c-.02.01-.03.01-.05.02s-.04.02-.05.02h-.01l-.02.01h-.01v.01c-.02 0-.03.01-.05.01v.01l-.03.01c-.08.02-.15.05-.22.07h-.01l-.03.01-.03.01c-.03.01-.05.02-.07.02h-.01v.01H15c-.05.02-.11.03-.16.05h-.01l-.04.01h-.01l-.03.01h-.01l-.04.01-.05.01h-.01l-.15.03h-.01c-.01.01-.03.01-.05.01h-.01c-.02.01-.04.01-.06.01v.01h-.07c-.05.01-.1.02-.16.03h-.01c-.03 0-.06 0-.09.01h-.02c-.03 0-.06 0-.1.01h-.01c-.05 0-.1.01-.16.01h-.46m22.53-17.31L22.1 29.68l-1.23.71-.6.35-1.97 1.13-4.25 2.46c-.52.29-.97.1-1.14 0s-.57-.4-.57-.99V8.21c0-.6.4-.89.57-.99a1.16 1.16 0 0 1 1.14 0l.68.4 1.04.6 1.04.6 1.04.6 3.03 1.75 5.78 3.33 1.8 1.04 1.8 1.04 2.85 1.65 1.8 1.04.9.52c.52.3.57.79.57.98 0 .2-.05.69-.57.99" style="fill:url(#id2)"/><path d="m25.28 33.14-8.94 5.16c-.9.52-1.88.77-2.86.77-.99 0-1.97-.25-2.86-.77-1.8-1.04-2.87-2.89-2.87-4.96V14.12l4.59 4.97v14.25c0 .59.4.89.57.99s.62.29 1.14 0l8.05-4.65z" style="fill:url(#id3)"/><path d="M40.97 20.77c0 2.07-1.07 3.93-2.86 4.96l-12.83 7.41-5.18 2.99.17-5.39 1.83-1.06 13.71-7.92c.52-.3.57-.79.57-.99 0-.19-.05-.68-.57-.98l-14.93-8.62.16-5.2 17.07 9.85a5.66 5.66 0 0 1 2.86 4.95" style="fill:url(#id1)"/></g></g></svg>