

<svg id="flat" height="512" viewBox="0 0 512 512" width="512" xmlns="http://www.w3.org/2000/svg"><path d="m488 240-56-48v96h56z" fill="#486be0"/><path d="m24 240 56-48v96h-56z" fill="#486be0"/><path d="m432 129.93994v206.06006h-352v-288a24.00619 24.00619 0 0 1 24-24h222.06a24.04713 24.04713 0 0 1 16.97 7.03l81.94 81.94a24.0478 24.0478 0 0 1 7.03 16.97z" fill="#e8f2ff"/><path d="m152 208h208v128h-208z" fill="#ffb401"/><path d="m136 160h240v48h-240z" fill="#ffc431"/><path d="m224 160h64v48h-64z" fill="#ef5e3b"/><path d="m232 208h48v128h-48z" fill="#e35430"/><path d="m240 128h32v32h-32z" fill="#e35430"/><path d="m240 128v32h-56a32 32 0 1 1 0-64 57.9242 57.9242 0 0 1 40.97 16.97z" fill="#ef5e3b"/><path d="m240 156.68994v3.31006h-19.31l-19.32-19.31006a15.86 15.86 0 0 0 -11.31-4.68994h-14.06v-16h14.06a31.81646 31.81646 0 0 1 22.63 9.37z" fill="#e35430"/><path d="m272 128v32h56a32 32 0 1 0 0-64 57.9242 57.9242 0 0 0 -40.97 16.97z" fill="#ef5e3b"/><path d="m272 156.68994v3.31006h19.31l19.32-19.31006a15.86 15.86 0 0 1 11.31-4.68994h14.06v-16h-14.06a31.81646 31.81646 0 0 0 -22.63 9.37z" fill="#e35430"/><path d="m429.84 120h-69.84a24.00619 24.00619 0 0 1 -24-24v-69.84009a23.901 23.901 0 0 1 7.03 4.87009l81.94 81.94a23.89929 23.89929 0 0 1 4.87 7.03z" fill="#bdd1f2"/><path d="m488 240-152 96h-160l-152-96v248h464z" fill="#4976f2"/><path d="m24 488 152-152h160l152 152z" fill="#548aff"/></svg>