<svg xmlns="http://www.w3.org/2000/svg" width="512pt" height="512pt" viewBox="-60 0 512 512.001"><path fill="#00e2c7" d="M316.656 28.121a10.18 10.18 0 0 0-8.148-8.148c-29.438-5.414-64.293 5.855-90.77 32.328-13.84 13.844-23.511 29.984-28.828 46.441v51.445c30.367 7.59 67.54-3.421 95.418-31.296 26.477-26.477 37.75-61.325 32.328-90.77m0 0"/><path fill="#00c6a9" d="M284.324 118.895c-27.867 27.87-65.043 38.878-95.414 31.296v-15.836c26.156.418 54.758-11.093 77.27-33.605 23.851-23.855 35.375-54.516 33.453-81.895 2.918.204 5.8.56 8.633 1.07 4.218.759 7.613 3.973 8.39 8.188 5.422 29.45-5.855 64.305-32.332 90.782m0 0"/><path fill="#fd8f3e" d="M188.91 220.102a7.725 7.725 0 0 1-7.726-7.723V102.223c0-4.27 3.46-7.727 7.726-7.727a7.724 7.724 0 0 1 7.727 7.727v110.152a7.724 7.724 0 0 1-7.727 7.727m0 0"/><path fill="#fd8f3e" d="M188.91 157.914a7.7 7.7 0 0 1-5.46-2.266 7.72 7.72 0 0 1 0-10.925L250.8 77.37a7.73 7.73 0 0 1 10.927 0 7.72 7.72 0 0 1 0 10.926l-67.352 67.351a7.7 7.7 0 0 1-5.465 2.266m0 0"/><path fill="#00e2c7" d="M89.305 9.36A10.305 10.305 0 0 1 97.969.694c22.441-3.355 48.562 5.48 68.539 25.457.11.11.215.215.32.325C181.11 40.89 188.91 60.5 188.91 80.789v21.43c-23.597 5.898-52.484-2.656-74.148-24.32-19.98-19.977-28.82-46.09-25.457-68.54m0 0"/><path fill="#00c6a9" d="M114.762 77.902c21.66 21.66 50.55 30.215 74.148 24.32V89.919c-20.324.324-42.55-8.621-60.043-26.117-18.539-18.535-27.492-42.363-26-63.64-1.656.116-3.3.292-4.922.534-4.465.668-7.972 4.196-8.64 8.66-3.364 22.45 5.48 48.57 25.457 68.547m0 0"/><path fill="#fd8f3e" d="M188.91 109.95a7.7 7.7 0 0 1-5.46-2.266l-52.34-52.34a7.728 7.728 0 0 1 10.926-10.93l52.339 52.344a7.72 7.72 0 0 1 0 10.926 7.7 7.7 0 0 1-5.465 2.265m0 0"/><path fill="#f1eded" d="M327.879 312.25H49.938C22.359 312.25 0 289.895 0 262.313c0-27.579 22.36-49.938 49.938-49.938h277.94c27.579 0 49.938 22.36 49.938 49.938s-22.359 49.937-49.937 49.937m0 0"/><path fill="#dad0cd" d="M377.82 262.316c0 13.79-5.593 26.282-14.629 35.317-9.039 9.039-21.515 14.62-35.308 14.62h-33.117c13.789 0 26.27-5.581 35.304-14.62 9.04-9.035 14.633-21.528 14.633-35.317 0-27.586-22.367-49.937-49.937-49.937h33.117c27.57-.004 49.937 22.351 49.937 49.937m0 0"/><path fill="#14f2d7" d="M65.629 212.375h63.867v99.875H65.63zm0 0"/><path fill="#00e2c7" d="M105.512 212.375h23.984v99.875h-23.984zm0 0"/><path fill="#14f2d7" d="M312.305 262.313c0 8.82-7.149 15.968-15.97 15.968-8.815 0-15.964-7.148-15.964-15.969s7.149-15.968 15.965-15.968c8.82 0 15.969 7.148 15.969 15.969m0 0"/><g fill="#00e2c7"><path d="M235.16 271.234h-.12a7.73 7.73 0 0 1-7.727-7.726 7.73 7.73 0 0 1 7.726-7.727h.121a7.73 7.73 0 0 1 7.727 7.727 7.73 7.73 0 0 1-7.727 7.726M205.59 271.234h-.121a7.726 7.726 0 0 1-7.727-7.726 7.726 7.726 0 0 1 7.727-7.727h.12c4.27 0 7.727 3.461 7.727 7.727a7.726 7.726 0 0 1-7.726 7.726M176.02 271.234h-.122a7.726 7.726 0 0 1-7.726-7.726 7.726 7.726 0 0 1 7.726-7.727h.122a7.726 7.726 0 1 1 0 15.453m0 0"/></g><path fill="#dad0cd" d="M327.879 412.121H49.938C22.359 412.121 0 389.766 0 362.188c0-27.583 22.36-49.938 49.938-49.938h277.94c27.579 0 49.938 22.355 49.938 49.938 0 27.578-22.359 49.933-49.937 49.933m0 0"/><path fill="#c1bab8" d="M377.82 362.188c0 13.792-5.593 26.28-14.629 35.32-9.039 9.035-21.515 14.62-35.308 14.62h-33.117c13.789 0 26.27-5.585 35.304-14.62 9.04-9.04 14.633-21.528 14.633-35.32 0-27.583-22.367-49.938-49.937-49.938h33.117c27.57 0 49.937 22.355 49.937 49.938m0 0"/><path fill="#00e2c7" d="M65.629 312.25h63.867v99.875H65.63zm0 0"/><path fill="#00c6a9" d="M105.512 312.25h23.984v99.875h-23.984zm0 0"/><path fill="#00e2c7" d="M312.305 362.188c0 8.82-7.149 15.968-15.97 15.968-8.815 0-15.964-7.148-15.964-15.969s7.149-15.968 15.965-15.968c8.82 0 15.969 7.148 15.969 15.969m0 0"/><path fill="#00c6a9" d="M235.16 371.11h-.12a7.726 7.726 0 1 1 0-15.453h.12a7.726 7.726 0 1 1 0 15.452M205.59 371.11h-.121a7.726 7.726 0 0 1-7.727-7.727 7.724 7.724 0 0 1 7.727-7.727h.12a7.724 7.724 0 0 1 7.727 7.727 7.726 7.726 0 0 1-7.726 7.726M176.02 371.11h-.122a7.726 7.726 0 0 1-7.726-7.727 7.724 7.724 0 0 1 7.726-7.727h.122a7.726 7.726 0 0 1 7.726 7.727 7.726 7.726 0 0 1-7.726 7.726m0 0"/><path fill="#f1eded" d="M327.879 511.996H49.938C22.359 511.996 0 489.641 0 462.06c0-27.579 22.36-49.938 49.938-49.938h277.94c27.579 0 49.938 22.36 49.938 49.938 0 27.582-22.359 49.937-49.937 49.937m0 0"/><path fill="#dad0cd" d="M377.82 462.063c0 13.792-5.593 26.28-14.629 35.32-9.039 9.035-21.515 14.617-35.308 14.617h-33.117c13.789 0 26.27-5.582 35.304-14.617 9.04-9.04 14.633-21.528 14.633-35.32 0-27.583-22.367-49.938-49.937-49.938h33.117c27.57-.004 49.937 22.355 49.937 49.938m0 0"/><path fill="#14f2d7" d="M65.629 412.121h63.867v99.875H65.63zm0 0"/><path fill="#00e2c7" d="M105.512 412.121h23.984v99.875h-23.984zm0 0"/><path fill="#14f2d7" d="M312.305 462.059c0 8.82-7.149 15.968-15.97 15.968-8.815 0-15.964-7.148-15.964-15.968 0-8.817 7.149-15.965 15.965-15.965 8.82 0 15.969 7.148 15.969 15.965m0 0"/><path fill="#00e2c7" d="M235.16 470.98h-.187a7.727 7.727 0 0 1 .063-15.453h.186a7.727 7.727 0 0 1-.062 15.453M205.59 470.98h-.188a7.726 7.726 0 0 1-7.66-7.789 7.725 7.725 0 0 1 7.723-7.664h.187a7.727 7.727 0 0 1-.062 15.453M176.023 470.98h-.191a7.727 7.727 0 0 1 .063-15.453h.187a7.727 7.727 0 0 1-.059 15.453m0 0"/><path fill="#fc6393" d="M47.836 92.941a7.7 7.7 0 0 1-5.813-2.632l-10.27-11.704L21.489 90.31a7.73 7.73 0 0 1-10.906.71 7.723 7.723 0 0 1-.71-10.902l16.077-18.324a7.722 7.722 0 0 1 11.613 0l16.079 18.324c2.812 3.207 2.496 8.09-.711 10.903a7.7 7.7 0 0 1-5.094 1.921M344.46 183.406a7.7 7.7 0 0 1-5.808-2.629l-10.27-11.707-10.269 11.707a7.727 7.727 0 0 1-10.902.711 7.724 7.724 0 0 1-.715-10.902l16.078-18.324a7.724 7.724 0 0 1 11.617 0l16.075 18.324c2.812 3.207 2.496 8.09-.711 10.902a7.7 7.7 0 0 1-5.094 1.918M384.805 119.11a7.7 7.7 0 0 1-5.809-2.63l-10.27-11.707-10.269 11.707c-2.812 3.207-7.695 3.524-10.902.711a7.723 7.723 0 0 1-.711-10.902l16.074-18.324a7.73 7.73 0 0 1 5.809-2.633c2.222 0 4.34.961 5.808 2.633l16.074 18.324a7.723 7.723 0 0 1-5.804 12.82m0 0"/></svg>