<!--
  - Copyright (c) 2023. Selldone® Business OS™
  -
  - Author: M.Pajuhaan
  - Web: https://selldone.com
  - ━━━━━━━━━━━━━━━━━━━━━━━━━━━━━━━━━━━━━━━━━━━━━━━━━━━━━━
  -
  - All rights reserved. In the weave of time, where traditions and innovations intermingle, this content was crafted.
  - From the essence of thought, through the corridors of creativity, each word, and sentiment has been molded.
  - Not just to exist, but to inspire. Like an artist's stroke or a sculptor's chisel, every nuance is deliberate.
  - Our journey is not just about reaching a destination, but about creating a masterpiece.
  - Tread carefully, for you're treading on dreams.
  -->

<svg height="512pt" viewBox="-60 0 512 512.00101" width="512pt" xmlns="http://www.w3.org/2000/svg"><path d="m316.65625 28.121094c-.757812-4.128906-4.019531-7.386719-8.148438-8.148438-29.4375-5.414062-64.292968 5.855469-90.769531 32.328125-13.839843 13.84375-23.511719 29.984375-28.828125 46.441407v51.445312c30.367188 7.589844 67.539063-3.421875 95.417969-31.296875 26.476563-26.476563 37.75-61.324219 32.328125-90.769531zm0 0" fill="#00e2c7"/><path d="m284.324219 118.894531c-27.867188 27.871094-65.042969 38.878907-95.414063 31.296875v-15.835937c26.15625.417969 54.757813-11.09375 77.269532-33.605469 23.851562-23.855469 35.375-54.515625 33.453124-81.894531 2.917969.203125 5.800782.558593 8.632813 1.070312 4.21875.757813 7.613281 3.972657 8.390625 8.1875 5.421875 29.449219-5.855469 64.304688-32.332031 90.78125zm0 0" fill="#00c6a9"/><path d="m188.910156 220.101562c-4.265625 0-7.726562-3.457031-7.726562-7.722656v-110.15625c0-4.269531 3.460937-7.726562 7.726562-7.726562 4.269532 0 7.726563 3.457031 7.726563 7.726562v110.152344c0 4.269531-3.457031 7.726562-7.726563 7.726562zm0 0" fill="#fd8f3e"/><path d="m188.910156 157.914062c-1.976562 0-3.953125-.757812-5.460937-2.265624-3.019531-3.015626-3.019531-7.90625 0-10.925782l67.351562-67.351562c3.015625-3.015625 7.910157-3.015625 10.925781 0 3.019532 3.015625 3.019532 7.90625 0 10.925781l-67.351562 67.351563c-1.507812 1.511718-3.488281 2.265624-5.464844 2.265624zm0 0" fill="#fd8f3e"/><path d="m89.304688 9.359375c.667968-4.472656 4.1875-7.996094 8.664062-8.664063 22.441406-3.355468 48.5625 5.480469 68.539062 25.457032.109376.109375.214844.214844.320313.324218 14.28125 14.414063 22.082031 34.023438 22.082031 54.3125v21.429688c-23.597656 5.898438-52.484375-2.65625-74.148437-24.320312-19.980469-19.976563-28.820313-46.089844-25.457031-68.539063zm0 0" fill="#00e2c7"/><path d="m114.761719 77.902344c21.660156 21.660156 50.550781 30.214844 74.148437 24.320312v-12.304687c-20.324218.324219-42.550781-8.621094-60.042968-26.117188-18.539063-18.535156-27.492188-42.363281-26-63.640625-1.65625.117188-3.300782.292969-4.921876.535156-4.464843.667969-7.972656 4.195313-8.640624 8.660157-3.363282 22.449219 5.480468 48.570312 25.457031 68.546875zm0 0" fill="#00c6a9"/><path d="m188.910156 109.949219c-1.976562 0-3.953125-.757813-5.460937-2.265625l-52.339844-52.339844c-3.019531-3.019531-3.019531-7.910156 0-10.929688 3.015625-3.015624 7.90625-3.015624 10.925781 0l52.339844 52.34375c3.019531 3.015626 3.019531 7.90625 0 10.925782-1.507812 1.507812-3.488281 2.265625-5.464844 2.265625zm0 0" fill="#fd8f3e"/><path d="m327.878906 312.25h-277.941406c-27.578125 0-49.9375-22.355469-49.9375-49.9375 0-27.578125 22.359375-49.9375 49.9375-49.9375h277.941406c27.578125 0 49.9375 22.359375 49.9375 49.9375s-22.359375 49.9375-49.9375 49.9375zm0 0" fill="#f1eded"/><path d="m377.820312 262.316406c0 13.789063-5.59375 26.28125-14.628906 35.316406-9.039062 9.039063-21.515625 14.621094-35.308594 14.621094h-33.117187c13.789063 0 26.269531-5.582031 35.304687-14.621094 9.039063-9.035156 14.632813-21.527343 14.632813-35.316406 0-27.585937-22.367187-49.9375-49.9375-49.9375h33.117187c27.570313-.003906 49.9375 22.351563 49.9375 49.9375zm0 0" fill="#dad0cd"/><path d="m65.628906 212.375h63.867188v99.875h-63.867188zm0 0" fill="#14f2d7"/><path d="m105.511719 212.375h23.984375v99.875h-23.984375zm0 0" fill="#00e2c7"/><path d="m312.304688 262.3125c0 8.820312-7.148438 15.96875-15.96875 15.96875-8.816407 0-15.964844-7.148438-15.964844-15.96875s7.148437-15.96875 15.964844-15.96875c8.820312 0 15.96875 7.148438 15.96875 15.96875zm0 0" fill="#14f2d7"/><g fill="#00e2c7"><path d="m235.160156 271.234375h-.121094c-4.265624 0-7.726562-3.460937-7.726562-7.726563 0-4.265624 3.460938-7.726562 7.726562-7.726562h.121094c4.265625 0 7.726563 3.460938 7.726563 7.726562 0 4.265626-3.460938 7.726563-7.726563 7.726563zm0 0"/><path d="m205.589844 271.234375h-.121094c-4.269531 0-7.726562-3.460937-7.726562-7.726563 0-4.265624 3.457031-7.726562 7.726562-7.726562h.121094c4.269531 0 7.726562 3.460938 7.726562 7.726562 0 4.265626-3.457031 7.726563-7.726562 7.726563zm0 0"/><path d="m176.019531 271.234375h-.121093c-4.269532 0-7.726563-3.460937-7.726563-7.726563 0-4.265624 3.457031-7.726562 7.726563-7.726562h.121093c4.265625 0 7.726563 3.460938 7.726563 7.726562 0 4.265626-3.457032 7.726563-7.726563 7.726563zm0 0"/></g><path d="m327.878906 412.121094h-277.941406c-27.578125 0-49.9375-22.355469-49.9375-49.933594 0-27.582031 22.359375-49.9375 49.9375-49.9375h277.941406c27.578125 0 49.9375 22.355469 49.9375 49.9375 0 27.578125-22.359375 49.933594-49.9375 49.933594zm0 0" fill="#dad0cd"/><path d="m377.820312 362.1875c0 13.792969-5.59375 26.28125-14.628906 35.320312-9.039062 9.035157-21.515625 14.621094-35.308594 14.621094h-33.117187c13.789063 0 26.269531-5.585937 35.304687-14.621094 9.039063-9.039062 14.632813-21.527343 14.632813-35.320312 0-27.582031-22.367187-49.9375-49.9375-49.9375h33.117187c27.570313 0 49.9375 22.355469 49.9375 49.9375zm0 0" fill="#c1bab8"/><path d="m65.628906 312.25h63.867188v99.875h-63.867188zm0 0" fill="#00e2c7"/><path d="m105.511719 312.25h23.984375v99.875h-23.984375zm0 0" fill="#00c6a9"/><path d="m312.304688 362.1875c0 8.820312-7.148438 15.96875-15.96875 15.96875-8.816407 0-15.964844-7.148438-15.964844-15.96875s7.148437-15.96875 15.964844-15.96875c8.820312 0 15.96875 7.148438 15.96875 15.96875zm0 0" fill="#00e2c7"/><path d="m235.160156 371.109375h-.121094c-4.265624 0-7.726562-3.460937-7.726562-7.726563 0-4.269531 3.460938-7.726562 7.726562-7.726562h.121094c4.265625 0 7.726563 3.457031 7.726563 7.726562 0 4.265626-3.460938 7.726563-7.726563 7.726563zm0 0" fill="#00c6a9"/><path d="m205.589844 371.109375h-.121094c-4.269531 0-7.726562-3.460937-7.726562-7.726563 0-4.269531 3.457031-7.726562 7.726562-7.726562h.121094c4.269531 0 7.726562 3.457031 7.726562 7.726562 0 4.265626-3.457031 7.726563-7.726562 7.726563zm0 0" fill="#00c6a9"/><path d="m176.019531 371.109375h-.121093c-4.269532 0-7.726563-3.460937-7.726563-7.726563 0-4.269531 3.457031-7.726562 7.726563-7.726562h.121093c4.265625 0 7.726563 3.457031 7.726563 7.726562 0 4.265626-3.457032 7.726563-7.726563 7.726563zm0 0" fill="#00c6a9"/><path d="m327.878906 511.996094h-277.941406c-27.578125 0-49.9375-22.355469-49.9375-49.9375 0-27.578125 22.359375-49.9375 49.9375-49.9375h277.941406c27.578125 0 49.9375 22.359375 49.9375 49.9375 0 27.582031-22.359375 49.9375-49.9375 49.9375zm0 0" fill="#f1eded"/><path d="m377.820312 462.0625c0 13.792969-5.59375 26.28125-14.628906 35.320312-9.039062 9.035157-21.515625 14.617188-35.308594 14.617188h-33.117187c13.789063 0 26.269531-5.582031 35.304687-14.617188 9.039063-9.039062 14.632813-21.527343 14.632813-35.320312 0-27.582031-22.367187-49.9375-49.9375-49.9375h33.117187c27.570313-.003906 49.9375 22.355469 49.9375 49.9375zm0 0" fill="#dad0cd"/><path d="m65.628906 412.121094h63.867188v99.875h-63.867188zm0 0" fill="#14f2d7"/><path d="m105.511719 412.121094h23.984375v99.875h-23.984375zm0 0" fill="#00e2c7"/><path d="m312.304688 462.058594c0 8.820312-7.148438 15.96875-15.96875 15.96875-8.816407 0-15.964844-7.148438-15.964844-15.96875 0-8.816406 7.148437-15.964844 15.964844-15.964844 8.820312 0 15.96875 7.148438 15.96875 15.964844zm0 0" fill="#14f2d7"/><path d="m235.160156 470.980469c-.019531 0-.042968 0-.0625 0h-.125c-4.265625-.035157-7.695312-3.523438-7.660156-7.789063.035156-4.246094 3.488281-7.664062 7.722656-7.664062h.066406.121094c4.269532.035156 7.699219 3.523437 7.664063 7.792968-.035157 4.242188-3.488281 7.660157-7.726563 7.660157zm0 0" fill="#00e2c7"/><path d="m205.589844 470.980469c-.019532 0-.042969 0-.0625 0h-.125c-4.265625-.035157-7.695313-3.523438-7.660156-7.789063.035156-4.246094 3.484374-7.664062 7.722656-7.664062h.066406.121094c4.269531.035156 7.699218 3.523437 7.664062 7.792968-.035156 4.242188-3.488281 7.660157-7.726562 7.660157zm0 0" fill="#00e2c7"/><path d="m176.023438 470.980469c-.023438 0-.046876 0-.066407 0h-.125c-4.265625-.035157-7.695312-3.523438-7.660156-7.789063.035156-4.246094 3.488281-7.664062 7.722656-7.664062h.066407.121093c4.269531.035156 7.699219 3.523437 7.664063 7.792968-.035156 4.242188-3.488282 7.660157-7.722656 7.660157zm0 0" fill="#00e2c7"/><path d="m47.835938 92.941406c-2.148438 0-4.285157-.890625-5.8125-2.632812l-10.269532-11.703125-10.265625 11.703125c-2.816406 3.207031-7.699219 3.527344-10.90625.710937-3.207031-2.8125-3.527343-7.695312-.710937-10.902343l16.078125-18.324219c1.464843-1.671875 3.582031-2.632813 5.804687-2.632813 2.226563 0 4.34375.960938 5.808594 2.632813l16.078125 18.324219c2.8125 3.207031 2.496094 8.089843-.710937 10.902343-1.46875 1.289063-3.285157 1.921875-5.09375 1.921875zm0 0" fill="#fc6393"/><path d="m344.460938 183.40625c-2.144532 0-4.285157-.890625-5.808594-2.628906l-10.269532-11.707032-10.269531 11.707032c-2.816406 3.207031-7.695312 3.523437-10.902343.710937-3.210938-2.8125-3.527344-7.695312-.714844-10.902343l16.078125-18.324219c1.464843-1.671875 3.582031-2.632813 5.808593-2.632813 2.222657 0 4.339844.960938 5.808594 2.632813l16.074219 18.324219c2.8125 3.207031 2.496094 8.089843-.710937 10.902343-1.46875 1.289063-3.285157 1.917969-5.09375 1.917969zm0 0" fill="#fc6393"/><path d="m384.804688 119.109375c-2.144532 0-4.28125-.886719-5.808594-2.628906l-10.269532-11.707031-10.269531 11.707031c-2.8125 3.207031-7.695312 3.523437-10.902343.710937-3.207032-2.8125-3.527344-7.695312-.710938-10.902344l16.074219-18.324218c1.46875-1.671875 3.582031-2.632813 5.808593-2.632813 2.222657 0 4.339844.960938 5.808594 2.632813l16.074219 18.324218c2.816406 3.207032 2.496094 8.089844-.710937 10.902344-1.464844 1.285156-3.28125 1.917969-5.09375 1.917969zm0 0" fill="#fc6393"/></svg>