<?xml version="1.0" encoding="iso-8859-1"?>
<!--
  - Copyright (c) 2023. Selldone® Business OS?
  -
  - Author: M.Pajuhaan
  - Web: https://selldone.com
  - ??????????????????????????????????????????????????????
  -
  - All rights reserved. In the weave of time, where traditions and innovations intermingle, this content was crafted.
  - From the essence of thought, through the corridors of creativity, each word, and sentiment has been molded.
  - Not just to exist, but to inspire. Like an artist's stroke or a sculptor's chisel, every nuance is deliberate.
  - Our journey is not just about reaching a destination, but about creating a masterpiece.
  - Tread carefully, for you're treading on dreams.
  -->

<!-- Generator: Adobe Illustrator 19.0.0, SVG Export Plug-In . SVG Version: 6.00 Build 0)  -->
<svg version="1.1" id="Capa_1" xmlns="http://www.w3.org/2000/svg" xmlns:xlink="http://www.w3.org/1999/xlink" x="0px" y="0px"
	 viewBox="0 0 512 512" style="enable-background:new 0 0 512 512;" xml:space="preserve">
<linearGradient id="SVGID_1_" gradientUnits="userSpaceOnUse" x1="-34.1074" y1="646.2129" x2="-34.1074" y2="621.2129" gradientTransform="matrix(20.48 0 0 -20.48 954.52 13234.4395)">
	<stop  offset="0" style="stop-color:#1AD6FD"/>
	<stop  offset="1" style="stop-color:#1D67F0"/>
</linearGradient>
<path style="fill:url(#SVGID_1_);" d="M327.68,256c0,39.526-32.154,71.68-71.68,71.68s-71.68-32.154-71.68-71.68
	s32.154-71.68,71.68-71.68S327.68,216.474,327.68,256 M487.322,211.948L487.322,211.948l-38.769-7.741
	c-10.015-2.007-18.35-8.929-22.467-18.944c-3.973-9.564-2.949-20.316,2.703-28.795l21.914-32.87
	c8.11-12.165,6.492-28.447-3.85-38.748l-19.702-19.722c-10.301-10.322-26.604-11.94-38.748-3.83l-32.87,21.893
	c-8.52,5.652-19.272,6.656-29.204,2.56c-9.605-3.953-16.527-12.288-18.534-22.303l-7.741-38.769C297.206,10.383,284.529,0,269.926,0
	h-27.853c-14.602,0-27.279,10.383-30.126,24.699l-7.741,38.748c-2.007,10.015-8.929,18.35-18.944,22.467
	c-9.564,3.973-20.316,2.97-28.795-2.724l-32.87-21.893c-12.145-8.09-28.447-6.492-38.748,3.83L65.147,84.828
	c-10.342,10.322-11.96,26.604-3.85,38.769l21.893,32.87c5.673,8.479,6.697,19.231,2.56,29.204
	c-3.953,9.605-12.288,16.527-22.303,18.534l-38.769,7.741C10.383,214.815,0,227.471,0,242.053v27.873
	c0,14.602,10.383,27.259,24.699,30.126l38.748,7.741c10.015,2.007,18.35,8.929,22.467,18.944c3.973,9.564,2.949,20.316-2.724,28.795
	l-21.893,32.87c-8.11,12.165-6.492,28.447,3.85,38.748l19.681,19.702c10.322,10.301,26.624,11.96,38.769,3.85l32.87-21.893
	c8.499-5.693,19.251-6.697,29.204-2.56c9.605,3.953,16.527,12.288,18.534,22.303l7.741,38.769
	C214.815,501.617,227.471,512,242.074,512h27.853c14.602,0,27.259-10.383,30.126-24.699l7.741-38.748
	c2.007-10.015,8.929-18.35,18.944-22.467c9.585-3.994,20.316-2.949,28.795,2.724l32.87,21.893c12.165,8.11,28.467,6.472,38.748-3.85
	l19.702-19.681c10.342-10.322,11.96-26.604,3.85-38.769l-21.914-32.87c-5.652-8.479-6.676-19.231-2.56-29.204
	c3.973-9.605,12.309-16.527,22.323-18.534l38.769-7.741C501.617,297.185,512,284.529,512,269.926v-27.873
	C512,227.471,501.617,214.815,487.322,211.948"/>
<g>
</g>
<g>
</g>
<g>
</g>
<g>
</g>
<g>
</g>
<g>
</g>
<g>
</g>
<g>
</g>
<g>
</g>
<g>
</g>
<g>
</g>
<g>
</g>
<g>
</g>
<g>
</g>
<g>
</g>
</svg>
