<svg xmlns="http://www.w3.org/2000/svg" xmlns:xlink="http://www.w3.org/1999/xlink" width="512pt" height="512pt" viewBox="0 -32 512 512"><linearGradient id="a"><stop offset="0" stop-color="#575c55"/><stop offset="1" stop-color="#45425a"/></linearGradient><linearGradient xlink:href="#a" id="l" x1="107.269" x2="112.767" y1="365.068" y2="365.068" gradientUnits="userSpaceOnUse"/><linearGradient xlink:href="#a" id="m" x1="26.96" x2="193.075" y1="365.068" y2="365.068" gradientUnits="userSpaceOnUse"/><linearGradient xlink:href="#a" id="n" x1="49.379" x2="170.656" y1="365.069" y2="365.069" gradientUnits="userSpaceOnUse"/><linearGradient id="b"><stop offset="0" stop-color="#ffd459"/><stop offset=".23" stop-color="#ffd355"/><stop offset=".436" stop-color="#ffcf4a"/><stop offset=".634" stop-color="#ffc838"/><stop offset=".825" stop-color="#ffbf1f"/><stop offset="1" stop-color="#ffb400"/></linearGradient><linearGradient xlink:href="#b" id="o" x1="102.43" x2="200.603" y1="357.481" y2="455.654" gradientUnits="userSpaceOnUse"/><linearGradient id="c"><stop offset="0" stop-color="#45425a"/><stop offset=".476" stop-color="#424059"/><stop offset=".774" stop-color="#3a3b56"/><stop offset="1" stop-color="#2d3251"/></linearGradient><radialGradient xlink:href="#c" id="p" cx="107.209" cy="359.452" r="83.054" gradientUnits="userSpaceOnUse"/><linearGradient id="d"><stop offset="0" stop-color="#c6e56f"/><stop offset=".337" stop-color="#c4e56f"/><stop offset=".495" stop-color="#bce36e"/><stop offset=".616" stop-color="#afe16d"/><stop offset=".718" stop-color="#9ddd6b"/><stop offset=".808" stop-color="#85d968"/><stop offset=".89" stop-color="#68d365"/><stop offset=".964" stop-color="#46cd61"/><stop offset="1" stop-color="#32c95f"/></linearGradient><linearGradient xlink:href="#d" id="q" x1="72.66" x2="147.376" y1="365.069" y2="365.069" gradientUnits="userSpaceOnUse"/><linearGradient id="f"><stop offset=".003" stop-color="#00e7b2" stop-opacity="0"/><stop offset=".431" stop-color="#1bc4b7" stop-opacity=".427"/><stop offset="1" stop-color="#3b9abe"/></linearGradient><linearGradient xlink:href="#f" id="r" x1="145.982" x2="112.091" y1="401.033" y2="367.142" gradientUnits="userSpaceOnUse"/><radialGradient xlink:href="#c" id="s" cx="110.018" cy="365.069" r="19.753" gradientUnits="userSpaceOnUse"/><linearGradient xlink:href="#a" id="t" x1="426.194" x2="431.692" y1="365.068" y2="365.068" gradientUnits="userSpaceOnUse"/><linearGradient xlink:href="#a" id="u" x1="345.885" x2="512" y1="365.068" y2="365.068" gradientUnits="userSpaceOnUse"/><linearGradient xlink:href="#a" id="w" x1="368.304" x2="489.581" y1="365.069" y2="365.069" gradientUnits="userSpaceOnUse"/><linearGradient xlink:href="#b" id="x" x1="421.354" x2="519.528" y1="357.481" y2="455.654" gradientUnits="userSpaceOnUse"/><radialGradient xlink:href="#c" id="y" cx="426.134" cy="359.452" r="83.054" gradientUnits="userSpaceOnUse"/><linearGradient xlink:href="#d" id="A" x1="391.585" x2="466.3" y1="365.069" y2="365.069" gradientUnits="userSpaceOnUse"/><linearGradient xlink:href="#f" id="B" x1="464.907" x2="431.016" y1="401.033" y2="367.142" gradientUnits="userSpaceOnUse"/><radialGradient xlink:href="#c" id="C" cx="428.943" cy="365.069" r="19.753" gradientUnits="userSpaceOnUse"/><linearGradient id="h"><stop offset="0" stop-color="#ff6e3a"/><stop offset=".16" stop-color="#ff6440"/><stop offset=".427" stop-color="#ff4b52"/><stop offset=".766" stop-color="#ff216e"/><stop offset="1" stop-color="#ff0084"/></linearGradient><linearGradient xlink:href="#h" id="D" x1="289.186" x2="192.944" y1="286.795" y2="335.635" gradientUnits="userSpaceOnUse"/><linearGradient xlink:href="#h" id="E" x1="54.782" x2="212.126" y1="206.135" y2="363.479" gradientUnits="userSpaceOnUse"/><linearGradient xlink:href="#h" id="F" x1="429.948" x2="429.948" y1="268.289" y2="305.278" gradientUnits="userSpaceOnUse"/><linearGradient id="j"><stop offset="0" stop-color="#e58200" stop-opacity="0"/><stop offset=".241" stop-color="#da760f" stop-opacity=".243"/><stop offset=".704" stop-color="#bc5737" stop-opacity=".706"/><stop offset="1" stop-color="#a64153"/></linearGradient><linearGradient xlink:href="#j" id="G" x1="426.204" x2="371.333" y1="319.655" y2="264.784" gradientUnits="userSpaceOnUse"/><linearGradient xlink:href="#h" id="H" x1="425.29" x2="234.38" y1="194.411" y2="297.024" gradientUnits="userSpaceOnUse"/><linearGradient xlink:href="#c" id="I" x1="292.025" x2="292.025" y1="104.823" y2="120.335" gradientUnits="userSpaceOnUse"/><linearGradient xlink:href="#j" id="J" x1="412.275" x2="341.786" y1="204.418" y2="133.929" gradientUnits="userSpaceOnUse"/><linearGradient xlink:href="#b" id="K" x1="351.059" x2="383.531" y1="96.173" y2="96.173" gradientUnits="userSpaceOnUse"/><linearGradient xlink:href="#h" id="L" x1="336.9" x2="363.054" y1="85.23" y2="162.279" gradientUnits="userSpaceOnUse"/><linearGradient xlink:href="#c" id="M" x1="168.571" x2="168.571" y1="162.295" y2="182.217" gradientUnits="userSpaceOnUse"/><linearGradient xlink:href="#j" id="N" x1="88.53" x2="38.173" y1="309.749" y2="201.166" gradientUnits="userSpaceOnUse"/><linearGradient xlink:href="#j" id="O" x1="78.884" x2="78.884" y1="319" y2="283.963" gradientUnits="userSpaceOnUse"/><linearGradient xlink:href="#j" id="P" x1="78.884" x2="78.884" y1="347.238" y2="312.202" gradientUnits="userSpaceOnUse"/><linearGradient xlink:href="#b" id="Q" x1="58.628" x2="188.126" y1="-113.685" y2="-113.685" gradientTransform="translate(40.496 188.906)scale(1.00392)" gradientUnits="userSpaceOnUse"/><linearGradient id="R" x1="116.395" x2="37.142" y1="-107.257" y2="-186.51" gradientTransform="translate(40.496 188.906)scale(1.00392)" gradientUnits="userSpaceOnUse"><stop offset="0" stop-color="#e58200" stop-opacity="0"/><stop offset=".192" stop-color="#de7b09" stop-opacity=".192"/><stop offset=".501" stop-color="#cd6920" stop-opacity=".502"/><stop offset=".887" stop-color="#b04b46" stop-opacity=".886"/><stop offset="1" stop-color="#a64153"/></linearGradient><linearGradient xlink:href="#h" id="S" x1="48.273" x2="85.939" y1="-185.906" y2="-121.133" gradientTransform="translate(40.496 188.906)scale(1.00392)" gradientUnits="userSpaceOnUse"/><linearGradient id="T" x1="62.447" x2="62.447" y1="-62.712" y2="-28.613" gradientTransform="translate(40.496 188.906)scale(1.00392)" gradientUnits="userSpaceOnUse"><stop offset="0" stop-color="#ffe600" stop-opacity="0"/><stop offset="1" stop-color="#f59500"/></linearGradient><linearGradient xlink:href="#c" id="U" x1="40.525" x2="73.517" y1="132.692" y2="132.692" gradientUnits="userSpaceOnUse"/><linearGradient xlink:href="#c" id="V" x1="40.528" x2="92.874" y1="112.521" y2="112.521" gradientUnits="userSpaceOnUse"/><path fill="url(#l)" d="M112.766 282.059v166.02c-.914.034-1.829.046-2.746.046-.922 0-1.836-.012-2.75-.047v-166.02a72 72 0 0 1 2.75-.046c.918 0 1.832.011 2.746.047m0 0"/><path fill="url(#m)" d="M193.074 365.066c0 .922-.012 1.836-.047 2.75H27.007a72 72 0 0 1-.046-2.75c0-.918.012-1.832.047-2.746h166.02c.035.914.046 1.828.046 2.746m0 0"/><path fill="url(#n)" d="M170.656 308.32 53.27 425.707a81 81 0 0 1-3.891-3.89l57.89-57.891 1.61-1.606L154.5 316.7l12.266-12.27c1.34 1.25 2.64 2.55 3.89 3.89m0 0"/><path fill="url(#n)" d="M170.656 421.816a80 80 0 0 1-3.89 3.891l-12.266-12.27-41.734-41.73-63.387-63.387c1.25-1.34 2.55-2.64 3.89-3.89zm0 0"/><path fill="url(#o)" d="M110.02 299.621c-36.149 0-65.45 29.3-65.45 65.45 0 36.144 29.301 65.449 65.45 65.449 36.144 0 65.445-29.305 65.445-65.45 0-36.148-29.3-65.449-65.445-65.449m0 117.234c-28.606 0-51.793-23.183-51.793-51.789 0-28.601 23.187-51.789 51.793-51.789 28.601 0 51.789 23.188 51.789 51.79 0 28.605-23.188 51.788-51.79 51.788m0 0"/><path fill="url(#p)" d="M110.02 282.012c-45.872 0-83.055 37.187-83.055 83.054 0 45.872 37.183 83.055 83.055 83.055 45.867 0 83.05-37.183 83.05-83.055 0-45.867-37.183-83.054-83.05-83.054m0 142.164c-32.645 0-59.11-26.461-59.11-59.11 0-32.644 26.461-59.105 59.11-59.105 32.644 0 59.105 26.46 59.105 59.105s-26.46 59.11-59.105 59.11m0 0"/><path fill="url(#q)" d="M147.375 365.07c0 20.633-16.727 37.356-37.355 37.356-20.633 0-37.36-16.723-37.36-37.356 0-20.632 16.727-37.36 37.36-37.36 20.628 0 37.355 16.728 37.355 37.36m0 0"/><path fill="url(#r)" d="m146.398 373.535-22.015-22.015c-3.602-3.817-8.703-6.204-14.367-6.204-10.91 0-19.754 8.844-19.754 19.75 0 5.664 2.386 10.766 6.207 14.368l22.015 22.015c13.832-3.203 24.707-14.086 27.914-27.914m0 0"/><path fill="url(#s)" d="M129.77 365.07c0 10.907-8.844 19.75-19.75 19.75-10.91 0-19.754-8.843-19.754-19.75 0-10.91 8.843-19.754 19.754-19.754 10.906 0 19.75 8.844 19.75 19.754m0 0"/><path fill="url(#t)" d="M431.691 282.059v166.02c-.914.034-1.828.046-2.75.046-.918 0-1.836-.012-2.746-.047v-166.02a71 71 0 0 1 2.746-.046c.922 0 1.836.011 2.75.047m0 0"/><path fill="url(#u)" d="M512 365.066c0 .922-.016 1.836-.047 2.75h-166.02a72 72 0 0 1-.046-2.75c0-.918.011-1.832.047-2.746h166.02q.045 1.37.046 2.746m0 0"/><path fill="url(#w)" d="m489.582 308.32-63.387 63.387-41.734 41.73-12.266 12.27a81 81 0 0 1-3.89-3.89l54-54 2.746-2.75 1.14-1.141 1.61-1.606 57.89-57.89c1.34 1.25 2.641 2.55 3.891 3.89m0 0"/><path fill="url(#w)" d="M489.582 421.816a80 80 0 0 1-3.89 3.891L368.304 308.32c1.25-1.34 2.55-2.64 3.89-3.89l12.266 12.27 44.484 44.48zm0 0"/><path fill="url(#x)" d="M428.941 299.621c-36.144 0-65.449 29.3-65.449 65.45 0 36.144 29.305 65.449 65.45 65.449 36.148 0 65.449-29.305 65.449-65.45 0-36.148-29.301-65.449-65.45-65.449m0 117.234c-28.601 0-51.789-23.183-51.789-51.789 0-28.601 23.188-51.789 51.79-51.789 28.605 0 51.788 23.188 51.788 51.79 0 28.605-23.183 51.788-51.789 51.788m0 0"/><path fill="url(#y)" d="M428.941 282.012c-45.867 0-83.054 37.187-83.054 83.054 0 45.872 37.187 83.055 83.054 83.055 45.872 0 83.055-37.183 83.055-83.055 0-45.867-37.184-83.054-83.055-83.054m0 142.164c-32.644 0-59.109-26.461-59.109-59.11 0-32.644 26.465-59.105 59.11-59.105 32.648 0 59.109 26.46 59.109 59.105s-26.465 59.11-59.11 59.11m0 0"/><path fill="url(#A)" d="M466.3 365.07c0 20.633-16.726 37.356-37.359 37.356-20.632 0-37.355-16.723-37.355-37.356 0-20.632 16.723-37.36 37.355-37.36 20.633 0 37.36 16.728 37.36 37.36m0 0"/><path fill="url(#B)" d="M465.324 373.535 443.31 351.52c-3.602-3.817-8.704-6.204-14.368-6.204-10.91 0-19.753 8.844-19.753 19.75 0 5.664 2.386 10.766 6.207 14.368l22.015 22.015c13.828-3.203 24.707-14.086 27.914-27.914m0 0"/><path fill="url(#C)" d="M448.695 365.07c0 10.907-8.843 19.75-19.754 19.75s-19.753-8.843-19.753-19.75c0-10.91 8.843-19.754 19.753-19.754s19.754 8.844 19.754 19.754m0 0"/><path fill="url(#D)" d="M351.387 333.316v25.297a15.59 15.59 0 0 1-12.09 5.727H141.328V256.953h39.375v37.98c0 21.204 17.18 38.383 38.383 38.383zm0 0"/><path fill="url(#E)" d="M180.703 364.34H25.59C11.457 364.34 0 352.883 0 338.754v-37.078c0-61.602 49.938-111.54 111.543-111.54h125.238c0 15.274-9.93 28.778-24.508 33.329l-6.222 1.941c-21.465 6.7-25.348 26.578-25.348 49.067zm0 0"/><path fill="url(#F)" d="M492.133 288.691c3.601 7.743-4.7 15.52-12.293 11.614-13.828-7.118-29.512-11.137-46.125-11.137-25.617 0-49.016 9.547-66.817 25.285v-70.625h54.887c31.156 0 58.02 18.367 70.348 44.863m0 0"/><path fill="url(#G)" d="M404.48 243.828h-37.582v70.625c17.801-15.738 41.2-25.285 66.817-25.285 6.023 0 11.922.535 17.656 1.547zm0 0"/><path fill="url(#H)" d="M406.32 256.133c2.426 12.246-2.554 24.773-12.738 31.992-20.422 14.477-34.828 36.879-38.734 62.723a15.83 15.83 0 0 1-3.461 7.765 15.59 15.59 0 0 1-12.09 5.727h-33.254V146.738c0-12.797 10.277-23.347 23.074-23.422a61.4 61.4 0 0 1 39.414 13.985c10.715 8.804 18.457 21.191 21.313 35.605zm0 0"/><path fill="url(#I)" d="M315.45 126.3h-46.848c-6.008 0-10.88-4.87-10.88-10.882v-6.277c0-6.008 4.872-10.88 10.88-10.88h46.847c6.008 0 10.88 4.872 10.88 10.88v6.277c0 6.012-4.872 10.883-10.88 10.883m0 0"/><path fill="url(#J)" d="M389.844 172.906c-2.856-14.414-10.598-26.797-21.313-35.605a61.44 61.44 0 0 0-39.414-13.985c-6.008.036-11.441 2.399-15.535 6.2l84.375 84.375zm0 0"/><path fill="url(#K)" d="M383.531 96.172c0-22.602-7.27-40.926-16.238-40.926-8.965 0-16.234 18.324-16.234 40.926 0 22.605 7.27 40.926 16.234 40.926 8.969 0 16.238-18.32 16.238-40.926m0 0"/><path fill="url(#L)" d="M364.246 140.023h-23.262c-22.593 0-40.906-18.316-40.906-40.906v-5.89c0-22.59 18.313-40.903 40.906-40.903h23.262a7.42 7.42 0 0 1 7.422 7.422v72.856a7.42 7.42 0 0 1-7.422 7.421m0 0"/><path fill="url(#M)" d="M115.215 149.566h106.71c12.38 0 22.415 10.036 22.415 22.414v10.77a7.39 7.39 0 0 1-7.387 7.387H100.188a7.385 7.385 0 0 1-7.383-7.387v-10.77c0-12.378 10.03-22.414 22.41-22.414m0 0"/><path fill="url(#N)" d="M175.227 364.34a103 103 0 0 0 5.476-12.985v-67.097c-13.933-40.645-52.476-69.86-97.844-69.86h-.66c-41.914.262-76.441 32.309-81.406 73.93A112 112 0 0 0 0 301.676v37.078c0 14.129 11.457 25.586 25.59 25.586zm0 0"/><path fill="url(#O)" d="M108.316 309.852H49.453c-6.152 0-11.137-4.985-11.137-11.137 0-6.149 4.985-11.137 11.137-11.137h58.863c6.149 0 11.137 4.985 11.137 11.137s-4.988 11.137-11.137 11.137m0 0"/><path fill="url(#P)" d="M108.316 338.09H49.453c-6.152 0-11.137-4.985-11.137-11.137 0-6.148 4.985-11.137 11.137-11.137h58.863c6.149 0 11.137 4.989 11.137 11.137 0 6.152-4.988 11.137-11.137 11.137m0 0"/><path fill="url(#Q)" d="m170.16 149.566-133.937-.02a7.8 7.8 0 0 1-7.801-7.804l.015-133.937A7.81 7.81 0 0 1 36.248 0l133.937.02a7.805 7.805 0 0 1 7.804 7.804l-.02 133.942c0 4.308-3.495 7.8-7.808 7.8m0 0"/><path fill="url(#R)" d="m80.691 55.656 78.22 78.239 1.476 1.308a4.533 4.533 0 0 0 6.008.004l.003-.004a4.53 4.53 0 0 1 6.008 0 4.52 4.52 0 0 0 5.563.344l.011-84.793L127.254.012 79.176.008l-.008 52.254a4.54 4.54 0 0 0 1.523 3.394m0 0"/><path fill="url(#S)" d="m127.254.016-.008 52.254a4.52 4.52 0 0 1-1.527 3.39l-1.485 1.313a4.53 4.53 0 0 1-6.004 0l-.003-.004c-1.715-1.52-4.293-1.52-6.008 0s-4.293 1.52-6.008 0l-.004-.004a4.533 4.533 0 0 0-6.008 0 4.53 4.53 0 0 1-6.008 0 4.533 4.533 0 0 0-6.007-.004l-.004.004a4.53 4.53 0 0 1-6.008 0l-1.477-1.313a4.52 4.52 0 0 1-1.527-3.39L79.176.008zm0 0"/><path fill="url(#T)" d="m28.426 99.809-.004 41.933c-.004 4.313 3.492 7.805 7.8 7.809l133.938.015a7.8 7.8 0 0 0 7.809-7.8l.004-41.938zm0 0"/><path fill="url(#U)" d="M40.523 127.938h32.993v9.511H40.523zm0 0"/><path fill="url(#V)" d="M40.527 107.766h52.344v9.511H40.527zm0 0"/></svg>