

<svg id="Layer_1" height="512" viewBox="0 0 64 64" width="512" xmlns="http://www.w3.org/2000/svg" data-name="Layer 1"><path d="m43 61v-30a2 2 0 0 0 -2-2h-30a2 2 0 0 0 -2 2v30a2 2 0 0 0 2 2h30a2 2 0 0 0 2-2zm-21-30h8v7.92l-3.38-2.7a1 1 0 0 0 -1.24 0l-3.38 2.7zm-11 0h9v10a1 1 0 0 0 .57.9 1 1 0 0 0 1.05-.12l4.38-3.5 4.38 3.5a1 1 0 0 0 .62.22.91.91 0 0 0 .43-.1 1 1 0 0 0 .57-.9v-10h9v30h-30z"/><path d="m11 21a10 10 0 1 0 -10-10 10 10 0 0 0 10 10zm0-18a8 8 0 1 1 -8 8 8 8 0 0 1 8-8z"/><path d="m62.92 19.4a1 1 0 0 0 -.19-1.09l-16-17a1 1 0 0 0 -1.46 0l-16 17a1 1 0 0 0 .73 1.69h7v6h2v-7a1 1 0 0 0 -1-1h-5.69l13.69-14.54 13.69 14.54h-5.69a1 1 0 0 0 -1 1v36h-7v2h8a1 1 0 0 0 1-1v-36h7a1 1 0 0 0 .92-.6z"/><path d="m11.5 14h-1a1 1 0 0 1 -1-1h-2a3 3 0 0 0 2.5 3v1h2v-1a3 3 0 0 0 -.5-6h-1a1 1 0 0 1 0-2h1a1 1 0 0 1 1 1h2a3 3 0 0 0 -2.5-2.95v-1.05h-2v1a3 3 0 0 0 .5 6h1a1 1 0 0 1 0 2z"/></svg>