<!--
  - Copyright (c) 2023. Selldone® Business OS™
  -
  - Author: M.Pajuhaan
  - Web: https://selldone.com
  - ━━━━━━━━━━━━━━━━━━━━━━━━━━━━━━━━━━━━━━━━━━━━━━━━━━━━━━
  -
  - All rights reserved. In the weave of time, where traditions and innovations intermingle, this content was crafted.
  - From the essence of thought, through the corridors of creativity, each word, and sentiment has been molded.
  - Not just to exist, but to inspire. Like an artist's stroke or a sculptor's chisel, every nuance is deliberate.
  - Our journey is not just about reaching a destination, but about creating a masterpiece.
  - Tread carefully, for you're treading on dreams.
  -->

<svg id="Layer_1" height="512" viewBox="0 0 64 64" width="512" xmlns="http://www.w3.org/2000/svg" data-name="Layer 1"><path d="m47 3h-40a2 2 0 0 0 -2 2v52a2 2 0 0 0 2 2h2l40-52v-2a2 2 0 0 0 -2-2z" fill="#97a3be"/><path d="m51 38.17v20.83a2 2 0 0 1 -2 2h-38a2 2 0 0 1 -2-2v-50a2 2 0 0 1 2-2h38a2 2 0 0 1 2 2z" fill="#7aaeed"/><path d="m49 7h-38a2.05 2.05 0 0 0 -.86.2 28 28 0 0 1 0 53.6 2.05 2.05 0 0 0 .86.2h38a2 2 0 0 0 2-2v-50a2 2 0 0 0 -2-2z" fill="#5e96cc"/><path d="m31 11h16v22h-16z" fill="#f2f3f4"/><path d="m43 23-4 6h8z" fill="#356baa"/><path d="m38 21-7 10h14z" fill="#417ace"/><path d="m46.43 49.92-6.26 5.08-1.17-8 12.29-31.7a4 4 0 0 1 5.18-2.28 4 4 0 0 1 2.28 5.17z" fill="#bcae73"/><circle cx="39" cy="16" fill="#f6897d" r="3"/><rect fill="#f2f3f4" height="14" rx="4" width="8" x="17" y="11"/><path d="m38.98 47.03 7.45 2.89-6.26 5.08z" fill="#e2e2e2"/><path d="m49.83 19.06 7.45 2.94 1.45-3.73a4.13 4.13 0 0 0 .27-1.5 4 4 0 0 0 -7.73-1.44l-1.45 3.73" fill="#e2e2e2"/><path d="m20 28.93v3.07h-4v2h10v-2h-4v-3.07a8 8 0 0 0 7-7.93h-2a6 6 0 0 1 -12 0h-2a8 8 0 0 0 7 7.93z" fill="#f2f3f4"/><path d="m12.99 57h34v-2h-7.38-26.62z" fill="#f2f3f4"/><g fill="#97a3be"><path d="m17 15h3v2h-3z"/><path d="m17 19h3v2h-3z"/><path d="m22 15h3v2h-3z"/><path d="m22 19h3v2h-3z"/></g></svg>