<!--
  - Copyright (c) 2023. Selldone® Business OS™
  -
  - Author: M.Pajuhaan
  - Web: https://selldone.com
  - ━━━━━━━━━━━━━━━━━━━━━━━━━━━━━━━━━━━━━━━━━━━━━━━━━━━━━━
  -
  - All rights reserved. In the weave of time, where traditions and innovations intermingle, this content was crafted.
  - From the essence of thought, through the corridors of creativity, each word, and sentiment has been molded.
  - Not just to exist, but to inspire. Like an artist's stroke or a sculptor's chisel, every nuance is deliberate.
  - Our journey is not just about reaching a destination, but about creating a masterpiece.
  - Tread carefully, for you're treading on dreams.
  -->

<svg id="Capa_1" enable-background="new 0 0 510 510" height="512" viewBox="0 0 510 510" width="512" xmlns="http://www.w3.org/2000/svg" xmlns:xlink="http://www.w3.org/1999/xlink"><linearGradient id="SVGID_1_" gradientUnits="userSpaceOnUse" x1="0" x2="353.934" y1="255" y2="255"><stop offset="0" stop-color="#5a5a5a"/><stop offset="1" stop-color="#444"/></linearGradient><linearGradient id="lg1"><stop offset="0" stop-color="#433f43" stop-opacity="0"/><stop offset="1" stop-color="#1a1a1a"/></linearGradient><linearGradient id="SVGID_2_" gradientUnits="userSpaceOnUse" x1="176.967" x2="176.967" xlink:href="#lg1" y1="417.789" y2="498.298"/><linearGradient id="SVGID_3_" gradientUnits="userSpaceOnUse" x1="366.274" x2="290.274" xlink:href="#lg1" y1="534.769" y2="408.102"/><linearGradient id="SVGID_4_" gradientUnits="userSpaceOnUse" x1="26.47" x2="327.464" y1="255" y2="255"><stop offset="0" stop-color="#eaf6ff"/><stop offset="1" stop-color="#b3dafe"/></linearGradient><linearGradient id="SVGID_5_" gradientUnits="userSpaceOnUse" x1="58.358" x2="134.478" y1="304.316" y2="380.436"><stop offset="0" stop-color="#b3dafe"/><stop offset="1" stop-color="#4fc123"/></linearGradient><linearGradient id="lg2"><stop offset="0" stop-color="#d8ecfe" stop-opacity="0"/><stop offset="1" stop-color="#678d98"/></linearGradient><linearGradient id="SVGID_6_" gradientUnits="userSpaceOnUse" x1="198.467" x2="245.607" xlink:href="#lg2" y1="149.133" y2="101.993"/><linearGradient id="SVGID_7_" gradientUnits="userSpaceOnUse" x1="327.461" x2="250.128" xlink:href="#lg2" y1="514.549" y2="359.216"/><linearGradient id="SVGID_8_" gradientUnits="userSpaceOnUse" x1="176.967" x2="176.967" xlink:href="#lg1" y1="77.824" y2="31.067"/><linearGradient id="lg3"><stop offset="0" stop-color="#8ac9fe"/><stop offset="1" stop-color="#814aa0"/></linearGradient><linearGradient id="SVGID_9_" gradientUnits="userSpaceOnUse" x1="314.976" x2="388.11" xlink:href="#lg3" y1="182.608" y2="454.543"/><linearGradient id="SVGID_10_" gradientTransform="matrix(-1 0 0 1 -3746 0)" gradientUnits="userSpaceOnUse" x1="-4195.897" x2="-4138.23" xlink:href="#lg3" y1="292.108" y2="292.108"/><linearGradient id="SVGID_11_" gradientTransform="matrix(-1 0 0 1 -3746 0)" gradientUnits="userSpaceOnUse" x1="-3990.242" x2="-3932.576" xlink:href="#lg3" y1="292.108" y2="292.108"/><linearGradient id="SVGID_12_" gradientTransform="matrix(-1 0 0 1 -3746 0)" gradientUnits="userSpaceOnUse" x1="-4116.074" x2="-4074.054" xlink:href="#lg3" y1="292.108" y2="292.108"/><linearGradient id="SVGID_13_" gradientTransform="matrix(-1 0 0 1 -3746 0)" gradientUnits="userSpaceOnUse" x1="-4054.418" x2="-4012.398" xlink:href="#lg3" y1="292.108" y2="292.108"/><linearGradient id="lg4"><stop offset="0" stop-color="#5b3374" stop-opacity="0"/><stop offset="1" stop-color="#5b3374"/></linearGradient><linearGradient id="SVGID_14_" gradientUnits="userSpaceOnUse" x1="318.236" x2="318.236" xlink:href="#lg4" y1="337.434" y2="381.47"/><linearGradient id="SVGID_15_" gradientUnits="userSpaceOnUse" x1="318.236" x2="318.236" xlink:href="#lg4" y1="295.808" y2="168.818"/><linearGradient id="SVGID_16_" gradientUnits="userSpaceOnUse" x1="318.236" x2="318.236" xlink:href="#lg3" y1="164.961" y2="207.848"/><linearGradient id="SVGID_17_" gradientUnits="userSpaceOnUse" x1="270.316" x2="243.316" y1="108.913" y2="137.913"><stop offset="0" stop-color="#fee45a"/><stop offset="1" stop-color="#fea613"/></linearGradient><g><g><g><path d="m307.408 510h-260.882c-25.696 0-46.526-20.83-46.526-46.526v-416.948c0-25.696 20.83-46.526 46.526-46.526h260.882c25.695 0 46.526 20.83 46.526 46.526v416.948c0 25.696-20.83 46.526-46.526 46.526z" fill="url(#SVGID_1_)"/><path d="m0 363.85v99.624c0 25.696 20.83 46.526 46.526 46.526h260.882c25.695 0 46.526-20.83 46.526-46.526v-99.624z" fill="url(#SVGID_2_)"/><path d="m196.388 382.914 124.959 124.959c18.885-5.923 32.587-23.56 32.587-44.399v-80.56z" fill="url(#SVGID_3_)"/><path d="m327.464 77.479v355.043c0 21.865-17.725 39.591-39.591 39.591h-221.812c-21.865 0-39.591-17.725-39.591-39.591v-355.043c0-21.866 17.725-39.591 39.591-39.591h37.646c8.543 0 15.468 6.925 15.468 15.468 0 8.543 6.926 15.469 15.469 15.469h84.646c8.543 0 15.469-6.925 15.469-15.469 0-8.543 6.926-15.468 15.469-15.468h37.646c21.864 0 39.59 17.725 39.59 39.591z" fill="url(#SVGID_4_)"/><path d="m133.13 375.688h-57.744c-9.321 0-16.878-7.557-16.878-16.878v-17.188c0-9.321 7.557-16.878 16.878-16.878h57.744c9.321 0 16.878 7.557 16.878 16.878v17.188c0 9.321-7.557 16.878-16.878 16.878z" fill="url(#SVGID_5_)"/><path d="m327.464 280.186v-88.722l-122.639-122.639h-70.181c-8.543 0-15.469-6.926-15.469-15.469 0-8.543-6.925-15.469-15.468-15.469h-37.646c-21.865 0-39.591 17.726-39.591 39.591v202.708z" fill="url(#SVGID_6_)"/><path d="m327.464 382.914h-131.076l89.198 89.198h2.286c21.865 0 39.591-17.726 39.591-39.591v-49.607z" fill="url(#SVGID_7_)"/><path d="m158.894 48.422h36.146c4.404 0 7.974-3.57 7.974-7.974s-3.57-7.973-7.974-7.973h-36.146c-4.404 0-7.973 3.57-7.973 7.973s3.569 7.974 7.973 7.974z" fill="url(#SVGID_8_)"/></g><g fill="#678d98"><path d="m66.008 432.868h34c4.142 0 7.5 3.358 7.5 7.5s-3.358 7.5-7.5 7.5h-34c-4.142 0-7.5-3.358-7.5-7.5s3.358-7.5 7.5-7.5z"/><path d="m126.008 447.868c-4.142 0-7.5-3.358-7.5-7.5s3.358-7.5 7.5-7.5h8.5c4.142 0 7.5 3.358 7.5 7.5s-3.358 7.5-7.5 7.5z"/><path d="m181.829 412.535h-115.821c-4.142 0-7.5-3.358-7.5-7.5s3.358-7.5 7.5-7.5h115.821c4.142 0 7.5 3.358 7.5 7.5s-3.357 7.5-7.5 7.5z"/></g></g><g><g><g><g><path d="m420.643 389.486h-204.814c-14.353 0-26.996-9.442-31.072-23.204l-50.809-171.552h368.576l-50.809 171.553c-4.076 13.762-16.719 23.203-31.072 23.203z" fill="url(#SVGID_9_)"/><g><path d="m409.912 366.785c8.273 0 15.66-5.843 17.31-14.267l22.341-114.029c1.875-9.571-4.363-18.85-13.934-20.725-9.569-1.878-18.85 4.363-20.725 13.934l-22.341 114.028c-1.875 9.571 4.363 18.85 13.934 20.725 1.147.226 2.29.334 3.415.334z" fill="url(#SVGID_10_)"/><path d="m226.56 366.785c1.126 0 2.268-.108 3.415-.333 9.571-1.875 15.81-11.154 13.934-20.725l-22.341-114.028c-1.876-9.57-11.153-15.809-20.725-13.934-9.571 1.875-15.81 11.154-13.934 20.725l22.341 114.029c1.65 8.423 9.037 14.266 17.31 14.266z" fill="url(#SVGID_11_)"/><path d="m345.73 366.782c9.28 0 17.061-7.24 17.612-16.624l6.701-114.029c.572-9.736-6.857-18.092-16.593-18.664-9.725-.572-18.092 6.857-18.664 16.593l-6.701 114.029c-.572 9.736 6.857 18.092 16.593 18.664.352.021.704.031 1.052.031z" fill="url(#SVGID_12_)"/><path d="m290.742 366.782c.349 0 .699-.01 1.052-.031 9.736-.572 17.165-8.929 16.593-18.664l-6.701-114.029c-.572-9.736-8.922-17.172-18.664-16.593-9.736.572-17.165 8.929-16.593 18.664l6.701 114.029c.551 9.384 8.334 16.624 17.612 16.624z" fill="url(#SVGID_13_)"/></g><path d="m162.789 292.108 21.968 74.175c4.076 13.762 16.719 23.204 31.072 23.204h204.814c14.353 0 26.996-9.442 31.072-23.204l21.968-74.175z" fill="url(#SVGID_14_)"/></g><path d="m502.528 194.73-50.808 171.557c-4.077 13.754-16.721 23.199-31.08 23.199h-94.26l-191.447-191.446-.01.01-.979-3.32z" fill="url(#SVGID_15_)"/><path d="m489.818 201.793h-343.164c-11.146 0-20.182-9.036-20.182-20.182 0-11.146 9.036-20.182 20.182-20.182h343.164c11.146 0 20.182 9.036 20.182 20.182 0 11.146-9.036 20.182-20.182 20.182z" fill="url(#SVGID_16_)"/></g></g><path d="m318.236 192.666c-3.423 0-6.844-1.305-9.456-3.917l-117.499-117.499c-5.222-5.223-5.222-13.689 0-18.911s13.689-5.222 18.911 0l117.499 117.5c5.222 5.222 5.222 13.689 0 18.911-2.61 2.61-6.033 3.916-9.455 3.916z" fill="url(#SVGID_17_)"/></g></g></svg>