<svg xmlns="http://www.w3.org/2000/svg" width="512" height="512" data-name="Layer 1" viewBox="0 0 64 64"><path fill="#97a3be" d="M47 3H7a2 2 0 0 0-2 2v52a2 2 0 0 0 2 2h2L49 7V5a2 2 0 0 0-2-2"/><path fill="#7aaeed" d="M51 38.17V59a2 2 0 0 1-2 2H11a2 2 0 0 1-2-2V9a2 2 0 0 1 2-2h38a2 2 0 0 1 2 2z"/><path fill="#5e96cc" d="M49 7H11a2.05 2.05 0 0 0-.86.2 28 28 0 0 1 0 53.6 2.05 2.05 0 0 0 .86.2h38a2 2 0 0 0 2-2V9a2 2 0 0 0-2-2"/><path fill="#f2f3f4" d="M31 11h16v22H31z"/><path fill="#356baa" d="m43 23-4 6h8z"/><path fill="#417ace" d="m38 21-7 10h14z"/><path fill="#bcae73" d="M46.43 49.92 40.17 55 39 47l12.29-31.7a4 4 0 0 1 5.18-2.28 4 4 0 0 1 2.28 5.17z"/><circle cx="39" cy="16" r="3" fill="#f6897d"/><rect width="8" height="14" x="17" y="11" fill="#f2f3f4" rx="4"/><path fill="#e2e2e2" d="m38.98 47.03 7.45 2.89L40.17 55zM49.83 19.06 57.28 22l1.45-3.73a4.1 4.1 0 0 0 .27-1.5 4 4 0 0 0-7.73-1.44l-1.45 3.73"/><path fill="#f2f3f4" d="M20 28.93V32h-4v2h10v-2h-4v-3.07A8 8 0 0 0 29 21h-2a6 6 0 0 1-12 0h-2a8 8 0 0 0 7 7.93M12.99 57h34v-2h-34z"/><g fill="#97a3be"><path d="M17 15h3v2h-3zM17 19h3v2h-3zM22 15h3v2h-3zM22 19h3v2h-3z"/></g></svg>