

<svg height="512pt" viewBox="-91 0 512 512" width="512pt" xmlns="http://www.w3.org/2000/svg"><path d="m315.03125 42.113281v427.722657c0 15.050781-12.203125 27.253906-27.25 27.253906h-245.5c-15.050781 0-27.25-12.203125-27.25-27.253906v-427.722657c0-15.050781 12.199219-27.253906 27.25-27.253906h245.5c15.046875 0 27.25 12.203125 27.25 27.253906zm0 0" fill="#fff"/><path d="m315.03125 42.113281v427.722657c0 15.050781-12.203125 27.253906-27.25 27.253906h-122.78125v-482.230469h122.78125c15.046875 0 27.25 12.203125 27.25 27.253906zm0 0" fill="#ececf1"/><path d="m274.96875 0h-219.9375c-30.339844 0-55.03125 24.691406-55.03125 55.035156v401.929688c0 30.34375 24.691406 55.035156 55.03125 55.035156h219.9375c30.339844 0 55.03125-24.691406 55.03125-55.035156v-401.929688c0-30.34375-24.691406-55.035156-55.03125-55.035156zm25.03125 456.964844c0 13.800781-11.230469 25.03125-25.03125 25.03125h-219.9375c-13.800781 0-25.03125-11.230469-25.03125-25.03125v-401.929688c0-13.800781 11.230469-25.03125 25.03125-25.03125h31.339844c.789062 19.5625 16.9375 35.222656 36.679687 35.222656h83.898438c19.742187 0 35.890625-15.664062 36.679687-35.222656h31.339844c13.800781 0 25.03125 11.230469 25.03125 25.03125zm0 0" fill="#7a5d56"/><path d="m210 446.773438c0 8.292968-6.71875 15-15 15h-60c-8.28125 0-15-6.710938-15-15 0-8.28125 6.71875-15 15-15h60c8.28125 0 15 6.71875 15 15zm0 0" fill="#7a5d56"/><path d="m195 461.773438h-30v-30h30c8.28125 0 15 6.71875 15 15 0 8.292968-6.71875 15-15 15zm0 0" fill="#402e2a"/><path d="m330 55.035156v401.929688c0 30.34375-24.691406 55.035156-55.03125 55.035156h-109.96875v-30.003906h109.96875c13.800781 0 25.03125-11.230469 25.03125-25.03125v-401.929688c0-13.800781-11.230469-25.03125-25.03125-25.03125h-31.339844c-.789062 19.5625-16.9375 35.222656-36.679687 35.222656h-41.949219v-65.226562h109.96875c30.339844 0 55.03125 24.691406 55.03125 55.035156zm0 0" fill="#402e2a"/><path d="m254.261719 257.089844c-13.953125 29.738281-40.863281 59.140625-79.992188 87.378906-2.769531 2-6.019531 3.011719-9.269531 3.03125h-.109375c-3.28125 0-6.5625-1.011719-9.359375-3.03125h-.011719c-38.941406-28.109375-65.808593-57.527344-79.839843-87.449219-7.820313-16.667969-8.460938-36.019531-1.78125-53.089843 6.363281-16.25 18.550781-28.730469 34.332031-35.140626 22.398437-9.109374 42.429687-2.558593 56.710937 8.929688.019532-.019531.039063-.027344.058594-.046875 14.320312-11.410156 34.359375-17.902344 56.710938-8.820313 15.777343 6.417969 27.96875 18.898438 34.328124 35.148438 6.679688 17.070312 6.039063 36.421875-1.777343 53.089844zm0 0" fill="#ff4a00"/><path d="m254.261719 257.089844c-13.953125 29.738281-40.863281 59.140625-79.992188 87.378906-2.769531 2-6.019531 3.011719-9.269531 3.03125v-169.828125c14.320312-11.410156 34.359375-17.902344 56.710938-8.820313 15.777343 6.417969 27.96875 18.898438 34.328124 35.148438 6.679688 17.070312 6.039063 36.421875-1.777343 53.089844zm0 0" fill="#e10000"/></svg>