<svg xmlns="http://www.w3.org/2000/svg" width="512" height="512" viewBox="0 0 64 64"><g data-name="Flat copy"><rect width="38" height="58" x="13" y="3" fill="#aae1f9" rx="4"/><path fill="#57b7eb" d="M21.667 3H17a4 4 0 0 0-4 4v50a4 4 0 0 0 4 4h30a4 4 0 0 0 4-4V34.429z"/><path fill="#4891d3" d="M45 53a24 24 0 0 1-24-24V3h-4a4 4 0 0 0-4 4v50a4 4 0 0 0 4 4h30a4 4 0 0 0 4-4v-4z"/><circle cx="32" cy="54" r="3" fill="#f9e109"/><rect width="8" height="8" x="20" y="12" fill="#f9e109" rx="2"/><path fill="#fcbc04" d="M20 14v4a2 2 0 0 0 2 2h4a2 2 0 0 0 2-2l-6-6a2 2 0 0 0-2 2"/><rect width="12" height="12" x="34" y="12" fill="#c4f236" rx="2"/><path fill="#a1d51c" d="M38 12h-2a2 2 0 0 0-2 2v8a2 2 0 0 0 2 2h8a2 2 0 0 0 2-2v-2z"/><rect width="12" height="12" x="18" y="26" fill="#f9e109" rx="2"/><path fill="#fcbc04" d="M22 26h-2a2 2 0 0 0-2 2v8a2 2 0 0 0 2 2h8a2 2 0 0 0 2-2v-2z"/><rect width="8" height="8" x="37" y="30" fill="#f9e109" rx="2"/><path fill="#e59730" d="M20 14v4a2 2 0 0 0 1 1.723v-7.446A2 2 0 0 0 20 14"/><path fill="#7ab92d" d="M36 24h5.267L34 16.214V22a2 2 0 0 0 2 2"/><path fill="#e59730" d="M18 28v8a2 2 0 0 0 2 2h2.751A23.9 23.9 0 0 1 21 29v-3h-1a2 2 0 0 0-2 2"/><path fill="#fcbc04" d="M34 55a2.96 2.96 0 0 1-2.86-3.86 2.992 2.992 0 1 0 3.72 3.72A3 3 0 0 1 34 55M37 32v4a2 2 0 0 0 2 2h4a2 2 0 0 0 2-2l-6-6a2 2 0 0 0-2 2M43 55h-4a1 1 0 0 1 0-2h4a1 1 0 0 1 0 2M25 55h-4a1 1 0 0 1 0-2h4a1 1 0 0 1 0 2"/><circle cx="22" cy="7" r="1" fill="#aae1f9"/><circle cx="18" cy="7" r="1" fill="#57b7eb"/><g fill="#a1d51c"><path d="M44 44H19a1 1 0 0 1 0-2h25a1 1 0 0 1 0 2M30 48H19a1 1 0 0 1 0-2h11a1 1 0 0 1 0 2"/></g><g fill="#7ab92d"><path d="M18 43a1 1 0 0 0 1 1h7.271a24 24 0 0 1-1.441-2H19a1 1 0 0 0-1 1M18 47a1 1 0 0 0 1 1h11a1 1 0 0 0 .275-.055A24 24 0 0 1 28.06 46H19a1 1 0 0 0-1 1"/></g></g></svg>