<svg height="512" viewBox="0 0 64 64" width="512" xmlns="http://www.w3.org/2000/svg">
    <g id="Flat">
        <g id="Flat_copy" data-name="Flat copy">
            <g>
                <rect fill="#aae1f9" height="58" rx="4" width="38" x="13" y="3"/>
                <path d="m21.667 3h-4.667a4 4 0 0 0 -4 4v50a4 4 0 0 0 4 4h30a4 4 0 0 0 4-4v-22.571z" fill="#57b7eb"/>
                <path d="m45 53a24 24 0 0 1 -24-24v-26h-4a4 4 0 0 0 -4 4v50a4 4 0 0 0 4 4h30a4 4 0 0 0 4-4v-4z"
                      fill="#4891d3"/>
                <circle cx="32" cy="54" fill="#f9e109" r="3"/>
                <rect fill="#f9e109" height="8" rx="2" width="8" x="20" y="12"/>
                <path d="m20 14v4a2 2 0 0 0 2 2h4a2 2 0 0 0 2-2l-6-6a2 2 0 0 0 -2 2z" fill="#fcbc04"/>
                <rect fill="#c4f236" height="12" rx="2" width="12" x="34" y="12"/>
                <path d="m38 12h-2a2 2 0 0 0 -2 2v8a2 2 0 0 0 2 2h8a2 2 0 0 0 2-2v-2z" fill="#a1d51c"/>
                <rect fill="#f9e109" height="12" rx="2" width="12" x="18" y="26"/>
                <path d="m22 26h-2a2 2 0 0 0 -2 2v8a2 2 0 0 0 2 2h8a2 2 0 0 0 2-2v-2z" fill="#fcbc04"/>
                <rect fill="#f9e109" height="8" rx="2" width="8" x="37" y="30"/>
                <path d="m20 14v4a1.994 1.994 0 0 0 1 1.723v-7.446a1.994 1.994 0 0 0 -1 1.723z" fill="#e59730"/>
                <path d="m36 24h5.267l-7.267-7.786v5.786a2 2 0 0 0 2 2z" fill="#7ab92d"/>
                <path d="m18 28v8a2 2 0 0 0 2 2h2.751a23.915 23.915 0 0 1 -1.751-9v-3h-1a2 2 0 0 0 -2 2z"
                      fill="#e59730"/>
                <path d="m34 55a2.96 2.96 0 0 1 -2.86-3.86 2.992 2.992 0 1 0 3.72 3.72 2.983 2.983 0 0 1 -.86.14z"
                      fill="#fcbc04"/>
                <path d="m37 32v4a2 2 0 0 0 2 2h4a2 2 0 0 0 2-2l-6-6a2 2 0 0 0 -2 2z" fill="#fcbc04"/>
                <g>
                    <path d="m43 55h-4a1 1 0 0 1 0-2h4a1 1 0 0 1 0 2z" fill="#fcbc04"/>
                    <path d="m25 55h-4a1 1 0 0 1 0-2h4a1 1 0 0 1 0 2z" fill="#fcbc04"/>
                    <circle cx="22" cy="7" fill="#aae1f9" r="1"/>
                    <circle cx="18" cy="7" fill="#57b7eb" r="1"/>
                    <g fill="#a1d51c">
                        <path d="m44 44h-25a1 1 0 0 1 0-2h25a1 1 0 0 1 0 2z"/>
                        <path d="m30 48h-11a1 1 0 0 1 0-2h11a1 1 0 0 1 0 2z"/>
                    </g>
                </g>
                <g fill="#7ab92d">
                    <path d="m18 43a1 1 0 0 0 1 1h7.271a24.313 24.313 0 0 1 -1.441-2h-5.83a1 1 0 0 0 -1 1z"/>
                    <path d="m18 47a1 1 0 0 0 1 1h11a.974.974 0 0 0 .275-.055 24.1 24.1 0 0 1 -2.215-1.945h-9.06a1 1 0 0 0 -1 1z"/>
                </g>
            </g>
        </g>
    </g>
</svg>