<svg height="464pt" viewBox="-104 0 464 464" width="464pt" xmlns="http://www.w3.org/2000/svg">
    <path d="m32 0h192c17.671875 0 32 14.328125 32 32v32h-256v-32c0-17.671875 14.328125-32 32-32zm0 0" fill="#acabb1"/>
    <path d="m0 384h256v48c0 17.671875-14.328125 32-32 32h-192c-17.671875 0-32-14.328125-32-32zm0 0" fill="#acabb1"/>
    <path d="m0 64h256v320h-256zm0 0" fill="#ffeb99"/>
    <path d="m256 84.160156v299.839844h-256v-26.160156c112.425781-61.476563 202.160156-157.40625 256-273.679688zm0 0"
          fill="#ffe477"/>
    <g fill="#57565c">
        <path d="m120 416h16v16h-16zm0 0"/>
        <path d="m64 24h16v16h-16zm0 0"/>
        <path d="m96 24h16v16h-16zm0 0"/>
    </g>
    <path d="m40 104h24v-16h-32c-4.417969 0-8 3.582031-8 8v32h16zm0 0" fill="#ffd422"/>
    <path d="m176 200h-120l16 104h112l16-104zm0 0" fill="#ff9478"/>
    <path d="m64.097656 305.214844c.597656 3.902344 3.953125 6.785156 7.902344 6.785156h112c3.949219 0 7.304688-2.882812 7.902344-6.785156l14.960937-97.214844h17.136719v-16h-41.753906l-14.484375-57.945312-15.523438 3.890624 13.515625 54.054688h-75.507812l13.515625-54.054688-15.523438-3.890624-14.484375 57.945312h-41.753906v16h17.136719zm126.574219-97.214844-13.535156 88h-98.273438l-13.535156-88zm0 0"
          fill="#ffc477"/>
    <path d="m88 224h16v56h-16zm0 0" fill="#ff6243"/>
    <path d="m120 224h16v56h-16zm0 0" fill="#ff6243"/>
    <path d="m152 224h16v56h-16zm0 0" fill="#ff6243"/>
</svg>