<!--
  - Copyright (c) 2023. Selldone® Business OS™
  -
  - Author: M.Pajuhaan
  - Web: https://selldone.com
  - ━━━━━━━━━━━━━━━━━━━━━━━━━━━━━━━━━━━━━━━━━━━━━━━━━━━━━━
  -
  - All rights reserved. In the weave of time, where traditions and innovations intermingle, this content was crafted.
  - From the essence of thought, through the corridors of creativity, each word, and sentiment has been molded.
  - Not just to exist, but to inspire. Like an artist's stroke or a sculptor's chisel, every nuance is deliberate.
  - Our journey is not just about reaching a destination, but about creating a masterpiece.
  - Tread carefully, for you're treading on dreams.
  -->

<svg clip-rule="evenodd" fill-rule="evenodd" height="512" stroke-linejoin="round" stroke-miterlimit="2" viewBox="0 0 32 32" width="512" xmlns="http://www.w3.org/2000/svg"><path d="m8.697 17.902c-.126.239-.197.511-.197.8v7.071c0 .947.768 1.714 1.714 1.714h11.572c.946 0 1.714-.767 1.714-1.714v-7.071c0-.289-.071-.561-.197-.8-1.157.776-4.499 3.005-5.953 3.854-.834.486-1.866.486-2.7 0-1.454-.849-4.796-3.078-5.953-3.854zm2.258 7.737h3.357c.414 0 .751-.336.75-.75 0-.414-.336-.75-.75-.75h-3.357c-.414 0-.75.336-.75.75s.336.75.75.75zm0-1.567h1.767c.414 0 .75-.336.75-.75s-.336-.75-.75-.75h-1.767c-.414 0-.75.336-.75.75s.336.75.75.75zm-.919-7.075c1.448.966 4.114 2.73 5.37 3.463.367.214.821.214 1.188 0 1.256-.733 3.922-2.497 5.37-3.463-.059-.007-.118-.01-.178-.01-2.485 0-9.087 0-11.572 0-.06 0-.119.003-.178.01z"/><path d="m7 22.403v-3.701c0-1.776 1.439-3.215 3.214-3.215h11.572c1.775 0 3.214 1.439 3.214 3.215v3.701h.931c2.671 0 4.836-2.166 4.836-4.837 0-.001 0-.002 0-.004 0-2.139-1.389-3.953-3.314-4.592.049-.343.075-.694.075-1.051 0-4.088-3.319-7.406-7.407-7.406-2.836 0-5.302 1.597-6.546 3.94-.766-.38-1.629-.593-2.541-.593-2.889 0-5.282 2.142-5.676 4.923-2.317.358-4.091 2.362-4.091 4.779v.004c0 2.671 2.166 4.837 4.837 4.837z"/></svg>