<svg id="Capa_1" enable-background="new 0 0 512 512" height="512" viewBox="0 0 512 512" width="512" xmlns="http://www.w3.org/2000/svg"><g><path d="m89.279 129.021h192.625v29.999h-192.625z" fill="#6b61b1" transform="matrix(.918 -.396 .396 .918 -41.85 85.229)"/><path d="m169.55 152.352h29.999v190.355h-29.999z" fill="#6b61b1" transform="matrix(.396 -.918 .918 .396 -115.813 319.026)"/><path d="m65 261c-35.841 0-65-29.159-65-65s29.159-65 65-65 65 29.159 65 65-29.159 65-65 65z" fill="#8bb9ff"/><path d="m65 131v130c35.841 0 65-29.159 65-65s-29.159-65-65-65z" fill="#7d81e7"/><path d="m297 151c-30.327 0-55-24.673-55-55s24.673-55 55-55 55 24.673 55 55-24.673 55-55 55z" fill="#8bb9ff"/><path d="m297 41v110c30.327 0 55-24.673 55-55s-24.673-55-55-55z" fill="#7d81e7"/><g><circle cx="372" cy="331" fill="#8bb9ff" r="125"/><path d="m497 331c0-69.036-55.964-125-125-125v250c69.036 0 125-55.964 125-125z" fill="#7d81e7"/><path d="m371.161 341.004c-45.339.44-81.827 36.905-84.053 81.737 22.293 20.639 52.117 33.259 84.892 33.259 32.794 0 62.633-12.635 84.93-33.295-1.748-45.624-39.623-82.148-85.769-81.701z" fill="#ffe278"/><path d="m372 341.017v114.983c32.794 0 62.633-12.635 84.93-33.295-1.738-45.346-39.166-81.686-84.93-81.688z" fill="#ffb454"/><path d="m372 371c-30.327 0-55-24.673-55-55s24.673-55 55-55 55 24.673 55 55-24.673 55-55 55z" fill="#ffddce"/><path d="m427 316c0-30.327-24.673-55-55-55v110c30.327 0 55-24.673 55-55z" fill="#ffbca7"/><path d="m372 471c-77.196 0-140-62.804-140-140s62.804-140 140-140 140 62.804 140 140-62.804 140-140 140zm0-250c-60.654 0-110 49.346-110 110s49.346 110 110 110 110-49.346 110-110-49.346-110-110-110z" fill="#f4f4f6"/><path d="m482 331c0 60.654-49.346 110-110 110v30c77.196 0 140-62.804 140-140s-62.804-140-140-140v30c60.654 0 110 49.346 110 110z" fill="#e2dff4"/></g></g></svg>