<?xml version="1.0" encoding="iso-8859-1"?>



<svg version="1.1" id="Layer_1" xmlns="http://www.w3.org/2000/svg" xmlns:xlink="http://www.w3.org/1999/xlink" x="0px" y="0px"
	 viewBox="0 0 511.962 511.962" style="enable-background:new 0 0 511.962 511.962;" xml:space="preserve">
<polygon style="fill:#2C3E50;" points="417.645,206.937 300.301,56.473 140.877,154.105 136.709,147.281 302.221,45.929 
	423.957,202.017 "/>
<circle style="fill:#415E72;" cx="299.173" cy="62.393" r="34.232"/>
<circle style="fill:#517A91;" cx="299.173" cy="62.393" r="17.84"/>
<rect x="22.182" y="161.458" transform="matrix(-0.9823 -0.1873 0.1873 -0.9823 450.8715 646.557)" style="fill:#E04F5F;" width="467.599" height="281.039"/>
<g>
	<path style="fill:#FFFFFF;" d="M89.765,296.257c6.312,5.32,13.872,8.96,21.968,10.576c11.2,2.168,18.488-1.872,20-9.688
		c1.4-7.248-2.608-12.44-13.976-19.2c-14.664-8.72-23.128-19.048-20.472-32.8c3.016-15.624,18.4-25.032,39.12-21.032
		c7.984,1.312,15.552,4.496,22.08,9.28l-6.976,13.232c-5.288-4.184-11.528-7.008-18.16-8.216
		c-11.072-2.144-17.064,2.888-18.136,8.44c-1.424,7.376,3.464,11.856,15.288,19.296c15.408,9.456,21.888,19.392,19.2,33.168
		c-2.96,15.344-17.184,26.456-41.896,21.672c-8.968-1.664-17.408-5.424-24.64-10.976L89.765,296.257z"/>
	<path style="fill:#FFFFFF;" d="M254.597,297.145c-6.192,32.096-29.192,46.672-55.608,41.6c-26.992-5.2-40.056-29.096-34.632-57.216
		c5.68-29.408,28.152-46.576,55.136-41.36C247.461,245.521,259.853,269.865,254.597,297.145z M182.877,284.769
		c-3.76,19.456,3.056,36.8,19.816,40.064c16.904,3.264,29.44-10.512,33.304-30.544c3.48-18.032-2.176-36.8-19.648-40.184
		c-17.328-3.344-29.656,10.92-33.472,30.672V284.769z"/>
	<path style="fill:#FFFFFF;" d="M278.709,253.177l17.472,3.376l-15.664,81.096l39.344,7.592l-2.816,14.616l-56.8-10.968
		L278.709,253.177z"/>
	<path style="fill:#FFFFFF;" d="M348.477,267.977c9.48,0.376,18.92,1.504,28.224,3.376c14.136,1.576,27.24,8.192,36.912,18.624
		c8.552,10.712,11.56,24.824,8.12,38.096c-2.008,14.392-10.112,27.216-22.256,35.2c-14.192,7.112-30.496,8.792-45.84,4.72
		c-7.888-1.464-15.68-3.416-23.328-5.84L348.477,267.977z M350.301,352.449c3.136,1,6.344,1.768,9.6,2.28
		c22.704,4.544,38.608-5.36,43.296-29.64c4.224-21.144-5.656-35.576-27.528-39.8c-3.984-0.864-8.048-1.304-12.128-1.296
		L350.301,352.449z"/>
</g>
<g>
</g>
<g>
</g>
<g>
</g>
<g>
</g>
<g>
</g>
<g>
</g>
<g>
</g>
<g>
</g>
<g>
</g>
<g>
</g>
<g>
</g>
<g>
</g>
<g>
</g>
<g>
</g>
<g>
</g>
</svg>
