<svg xmlns="http://www.w3.org/2000/svg" xml:space="preserve" viewBox="0 0 511.962 511.962"><path d="M417.645 206.937 300.301 56.473l-159.424 97.632-4.168-6.824L302.221 45.929l121.736 156.088z" style="fill:#2c3e50"/><circle cx="299.173" cy="62.393" r="34.232" style="fill:#415e72"/><circle cx="299.173" cy="62.393" r="17.84" style="fill:#517a91"/><path d="M22.182 161.458h467.599v281.039H22.182z" style="fill:#e04f5f" transform="rotate(-169.204 255.981 301.978)"/><path d="M89.765 296.257a48.97 48.97 0 0 0 21.968 10.576c11.2 2.168 18.488-1.872 20-9.688 1.4-7.248-2.608-12.44-13.976-19.2-14.664-8.72-23.128-19.048-20.472-32.8 3.016-15.624 18.4-25.032 39.12-21.032a51.5 51.5 0 0 1 22.08 9.28l-6.976 13.232a41.17 41.17 0 0 0-18.16-8.216c-11.072-2.144-17.064 2.888-18.136 8.44-1.424 7.376 3.464 11.856 15.288 19.296 15.408 9.456 21.888 19.392 19.2 33.168-2.96 15.344-17.184 26.456-41.896 21.672a57.76 57.76 0 0 1-24.64-10.976zM254.597 297.145c-6.192 32.096-29.192 46.672-55.608 41.6-26.992-5.2-40.056-29.096-34.632-57.216 5.68-29.408 28.152-46.576 55.136-41.36 27.968 5.352 40.36 29.696 35.104 56.976m-71.72-12.376c-3.76 19.456 3.056 36.8 19.816 40.064 16.904 3.264 29.44-10.512 33.304-30.544 3.48-18.032-2.176-36.8-19.648-40.184-17.328-3.344-29.656 10.92-33.472 30.672zM278.709 253.177l17.472 3.376-15.664 81.096 39.344 7.592-2.816 14.616-56.8-10.968zM348.477 267.977c9.48.376 18.92 1.504 28.224 3.376a59.3 59.3 0 0 1 36.912 18.624 43.54 43.54 0 0 1 8.12 38.096 50.46 50.46 0 0 1-22.256 35.2 65.07 65.07 0 0 1-45.84 4.72 195 195 0 0 1-23.328-5.84zm1.824 84.472c3.136 1 6.344 1.768 9.6 2.28 22.704 4.544 38.608-5.36 43.296-29.64 4.224-21.144-5.656-35.576-27.528-39.8a56.7 56.7 0 0 0-12.128-1.296z" style="fill:#fff"/></svg>