<?xml version="1.0" encoding="iso-8859-1"?>
<!--
  - Copyright (c) 2023. Selldone® Business OS?
  -
  - Author: M.Pajuhaan
  - Web: https://selldone.com
  - ??????????????????????????????????????????????????????
  -
  - All rights reserved. In the weave of time, where traditions and innovations intermingle, this content was crafted.
  - From the essence of thought, through the corridors of creativity, each word, and sentiment has been molded.
  - Not just to exist, but to inspire. Like an artist's stroke or a sculptor's chisel, every nuance is deliberate.
  - Our journey is not just about reaching a destination, but about creating a masterpiece.
  - Tread carefully, for you're treading on dreams.
  -->

<!-- Generator: Adobe Illustrator 19.0.0, SVG Export Plug-In . SVG Version: 6.00 Build 0)  -->
<svg version="1.1" id="Capa_1" xmlns="http://www.w3.org/2000/svg" xmlns:xlink="http://www.w3.org/1999/xlink" x="0px" y="0px"
	 viewBox="0 0 512 512" style="enable-background:new 0 0 512 512;" xml:space="preserve">
<path style="fill:#EC3E42;" d="M428.261,512H83.738c-15.963,0-28.904-12.941-28.904-28.904V28.904C54.834,12.941,67.775,0,83.738,0
	h344.523c15.963,0,28.904,12.941,28.904,28.904v454.193C457.164,499.06,444.223,512,428.261,512z"/>
<path style="fill:#D8353D;" d="M428.26,0h-52.528c15.963,0,28.904,12.941,28.904,28.903v454.193
	c0,15.963-12.941,28.903-28.904,28.903h52.528c15.963,0,28.904-12.941,28.904-28.903V28.904C457.164,12.941,444.223,0,428.26,0z"/>
<g>
	<circle style="fill:#DFEAEF;" cx="110.359" cy="56.09" r="21.01"/>
	<circle style="fill:#DFEAEF;" cx="401.639" cy="56.09" r="21.01"/>
	<circle style="fill:#DFEAEF;" cx="110.359" cy="455.91" r="21.01"/>
	<circle style="fill:#DFEAEF;" cx="401.639" cy="455.91" r="21.01"/>
</g>
<g>
	<path style="fill:#FFFFFF;" d="M89.357,56.094c0,11.601,9.405,21.006,21.006,21.006V35.089
		C98.762,35.089,89.357,44.493,89.357,56.094z"/>
	<path style="fill:#FFFFFF;" d="M380.629,56.094c0,11.601,9.405,21.006,21.006,21.006V35.089
		C390.034,35.089,380.629,44.493,380.629,56.094z"/>
	<path style="fill:#FFFFFF;" d="M380.629,455.906c0,11.601,9.405,21.006,21.006,21.006V434.9
		C390.034,434.9,380.629,444.305,380.629,455.906z"/>
	<path style="fill:#FFFFFF;" d="M89.357,455.906c0,11.601,9.405,21.006,21.006,21.006V434.9
		C98.762,434.9,89.357,444.305,89.357,455.906z"/>
	<path style="fill:#FFFFFF;" d="M345.598,83.518c-4.269,0-7.728,3.46-7.728,7.728v30.365c0,4.268,3.46,7.728,7.728,7.728
		s7.728-3.46,7.728-7.728V91.247C353.326,86.979,349.867,83.518,345.598,83.518z"/>
	<path style="fill:#FFFFFF;" d="M166.4,83.518c-4.268,0-7.728,3.46-7.728,7.728v30.365c0,4.268,3.46,7.728,7.728,7.728
		c4.268,0,7.728-3.46,7.728-7.728V91.247C174.128,86.979,170.669,83.518,166.4,83.518z"/>
	<path style="fill:#FFFFFF;" d="M211.201,83.518c-4.268,0-7.728,3.46-7.728,7.728v30.365c0,4.268,3.46,7.728,7.728,7.728
		c4.268,0,7.728-3.46,7.728-7.728V91.247C218.928,86.979,215.468,83.518,211.201,83.518z"/>
	<path style="fill:#FFFFFF;" d="M255.999,83.518c-4.268,0-7.728,3.46-7.728,7.728v30.365c0,4.268,3.46,7.728,7.728,7.728
		c4.269,0,7.728-3.46,7.728-7.728V91.247C263.727,86.979,260.268,83.518,255.999,83.518z"/>
	<path style="fill:#FFFFFF;" d="M300.799,83.518c-4.269,0-7.728,3.46-7.728,7.728v30.365c0,4.268,3.46,7.728,7.728,7.728
		c4.269,0,7.728-3.46,7.728-7.728V91.247C308.527,86.979,305.068,83.518,300.799,83.518z"/>
	<path style="fill:#FFFFFF;" d="M345.598,382.66c-4.269,0-7.728,3.46-7.728,7.728v30.365c0,4.268,3.46,7.728,7.728,7.728
		s7.728-3.46,7.728-7.728v-30.365C353.326,386.12,349.867,382.66,345.598,382.66z"/>
	<path style="fill:#FFFFFF;" d="M166.4,382.66c-4.268,0-7.728,3.46-7.728,7.728v30.365c0,4.268,3.46,7.728,7.728,7.728
		c4.268,0,7.728-3.46,7.728-7.728v-30.365C174.128,386.12,170.669,382.66,166.4,382.66z"/>
	<path style="fill:#FFFFFF;" d="M211.201,382.66c-4.268,0-7.728,3.46-7.728,7.728v30.365c0,4.268,3.46,7.728,7.728,7.728
		c4.268,0,7.728-3.46,7.728-7.728v-30.365C218.928,386.12,215.468,382.66,211.201,382.66z"/>
	<path style="fill:#FFFFFF;" d="M255.999,382.66c-4.268,0-7.728,3.46-7.728,7.728v30.365c0,4.268,3.46,7.728,7.728,7.728
		c4.269,0,7.728-3.46,7.728-7.728v-30.365C263.727,386.12,260.268,382.66,255.999,382.66z"/>
	<path style="fill:#FFFFFF;" d="M300.799,382.66c-4.269,0-7.728,3.46-7.728,7.728v30.365c0,4.268,3.46,7.728,7.728,7.728
		c4.269,0,7.728-3.46,7.728-7.728v-30.365C308.527,386.12,305.068,382.66,300.799,382.66z"/>
</g>
<path style="fill:#DFEAEF;" d="M363.286,398.651H148.714c-6.961,0-12.603-5.643-12.603-12.603V125.952
	c0-6.961,5.643-12.603,12.603-12.603h214.573c6.961,0,12.603,5.643,12.603,12.603v260.096
	C375.889,393.009,370.246,398.651,363.286,398.651z"/>
<path style="fill:#BFCFD6;" d="M363.286,113.349h-54.127c6.961,0,12.603,5.643,12.603,12.603v260.096
	c0,6.961-5.643,12.603-12.603,12.603h54.127c6.961,0,12.603-5.643,12.603-12.603V125.952
	C375.889,118.992,370.246,113.349,363.286,113.349z"/>
<g>
	<path style="fill:#FC5F61;" d="M209.432,267.7c0-14.715-34.327-10.203-34.327-33.451c0-14.617,13.688-19.62,25.985-19.62
		c6.309,0,20.317,1.374,20.317,7.847c0,2.257-1.711,6.769-5.56,6.769c-3.316,0-5.775-3.727-14.757-3.727
		c-7.699,0-12.084,2.845-12.084,7.553c0,12.164,34.326,7.946,34.326,33.352c0,14.029-10.693,21.288-25.45,21.288
		c-14.009,0-24.701-6.474-24.701-12.164c0-2.747,2.78-6.867,6.095-6.867c4.384,0,7.271,7.553,18.179,7.553
		C203.87,276.235,209.432,273.586,209.432,267.7z"/>
	<path style="fill:#FC5F61;" d="M265.249,267.7c0-14.715-34.327-10.203-34.327-33.451c0-14.617,13.688-19.62,25.985-19.62
		c6.309,0,20.317,1.374,20.317,7.847c0,2.257-1.711,6.769-5.56,6.769c-3.316,0-5.775-3.727-14.757-3.727
		c-7.699,0-12.084,2.845-12.084,7.553c0,12.164,34.326,7.946,34.326,33.352c0,14.029-10.693,21.288-25.45,21.288
		c-14.009,0-24.701-6.474-24.701-12.164c0-2.747,2.78-6.867,6.095-6.867c4.384,0,7.271,7.553,18.179,7.553
		C259.688,276.235,265.249,273.586,265.249,267.7z"/>
	<path style="fill:#FC5F61;" d="M313.688,215.12c14.115,0,25.13,6.082,25.13,22.464v26.78c0,16.382-11.015,22.464-25.13,22.464
		h-18.927c-3.636,0-6.095-1.864-6.095-3.924v-63.861c0-2.061,2.459-3.925,6.095-3.925h18.927V215.12z M302.567,226.302v49.343
		h11.121c7.058,0,11.228-3.63,11.228-11.282v-26.78c0-7.652-4.17-11.282-11.228-11.282h-11.121V226.302z"/>
</g>
<g>
</g>
<g>
</g>
<g>
</g>
<g>
</g>
<g>
</g>
<g>
</g>
<g>
</g>
<g>
</g>
<g>
</g>
<g>
</g>
<g>
</g>
<g>
</g>
<g>
</g>
<g>
</g>
<g>
</g>
</svg>
