<svg height="512" viewBox="0 0 64 64" width="512" xmlns="http://www.w3.org/2000/svg"><g id="id_card-passport-badge-2" data-name="id card-passport-badge"><path d="m13 14h38v47h-38z" fill="#57a4ff"/><path d="m29 36h6v7h-6z" fill="#ffc477"/><path d="m37 28v6a5 5 0 0 1 -10 0v-6z" fill="#ffeb99"/><path d="m38 26v2h-12v-2a4 4 0 0 1 7.2-2.39 2.96 2.96 0 0 1 1.8-.61 3 3 0 0 1 3 3z" fill="#ff9811"/><path d="m27 3v15h10v-15zm5 7a2 2 0 1 1 2-2 2.006 2.006 0 0 1 -2 2z" fill="#e0e0e2"/><path d="m20 45.5c0-1.933 5.373-3.5 12-3.5s12 1.567 12 3.5z" fill="#2488ff"/><path d="m21 49h22v2h-22z" fill="#fff"/><path d="m21 53h22v2h-22z" fill="#fff"/><path d="m30 13h4v2h-4z" fill="#005ece"/><rect fill="#79b6ff" height="12" rx="2" width="4" x="15" y="16"/><g fill="#337ed8"><path d="m28 18h10v1h-10z"/><path d="m37 14h1v5h-1z"/></g></g></svg>