<svg xmlns="http://www.w3.org/2000/svg" xml:space="preserve" viewBox="0 0 512 512"><path d="M460.676 93.752H61.28c-11.217 0-20.321 9.104-20.321 20.321v366.45c0 11.217 9.104 20.321 20.321 20.321h399.397c11.217 0 20.321-9.104 20.321-20.321v-366.45c-.001-11.217-9.105-20.321-20.322-20.321" style="fill:#ff9102"/><linearGradient id="a" x1="97.348" x2="475.968" y1="487.608" y2="108.988" gradientTransform="matrix(1.0667 0 0 -1.0667 3.267 557.533)" gradientUnits="userSpaceOnUse"><stop offset="0" style="stop-color:#fff"/><stop offset="1" style="stop-color:#e8efee"/></linearGradient><path d="M434.382 373.501H87.574c-11.222 0-20.321-9.098-20.321-20.321V29.404c0-11.222 9.098-20.321 20.321-20.321h346.807c11.222 0 20.321 9.098 20.321 20.321v323.777c.001 11.222-9.098 20.32-20.32 20.32" style="fill:url(#a)"/><linearGradient id="b" x1="252.768" x2="11.85" y1="332.188" y2="573.108" gradientTransform="matrix(1.0667 0 0 -1.0667 3.267 557.533)" gradientUnits="userSpaceOnUse"><stop offset="0" style="stop-color:#fff"/><stop offset="1" style="stop-color:#e8efee"/></linearGradient><path d="M73.688 359.615V35.839c0-11.222 9.098-20.321 20.321-20.321h346.807c3.963 0 7.647 1.152 10.773 3.113-3.594-5.728-9.947-9.548-17.207-9.548H87.574c-11.222 0-20.321 9.098-20.321 20.321v323.777c0 7.261 3.82 13.614 9.548 17.207a20.2 20.2 0 0 1-3.113-10.773" style="fill:url(#b)"/><path d="M130.25 77.493h261.461v14.901H130.25zM130.25 134.389h261.461v14.901H130.25zM130.25 191.296h261.461v14.901H130.25zM130.25 248.192h261.461v14.901H130.25z" style="fill:#c2cece"/><linearGradient id="c" x1="188.946" x2="114.496" y1="263.607" y2="338.057" gradientTransform="matrix(1.0667 0 0 -1.0667 3.267 557.533)" gradientUnits="userSpaceOnUse"><stop offset="0" style="stop-color:#c2cece;stop-opacity:0"/><stop offset=".179" style="stop-color:#afbcbc;stop-opacity:.179"/><stop offset="1" style="stop-color:#5b6a6a"/></linearGradient><path d="m161.407 200.098 65.703 65.703h-65.703z" style="fill:url(#c)"/><linearGradient id="d" x1="537.564" x2="370.454" y1="237.264" y2="404.374" gradientTransform="matrix(1.0667 0 0 -1.0667 3.267 557.533)" gradientUnits="userSpaceOnUse"><stop offset="0" style="stop-color:#ffc200;stop-opacity:0"/><stop offset=".161" style="stop-color:#fdbb00;stop-opacity:.161"/><stop offset=".397" style="stop-color:#f7a700;stop-opacity:.397"/><stop offset=".678" style="stop-color:#ee8700;stop-opacity:.678"/><stop offset=".992" style="stop-color:#e05b00;stop-opacity:.992"/><stop offset="1" style="stop-color:#e05a00"/></linearGradient><path d="M480.997 271.22V120.048l-26.294-26.296V271.22z" style="fill:url(#d)"/><linearGradient id="e" x1="236.937" x2="236.937" y1="81.907" y2="54.937" gradientTransform="matrix(1.0667 0 0 -1.0667 3.267 557.533)" gradientUnits="userSpaceOnUse"><stop offset="0" style="stop-color:#ffc200"/><stop offset=".268" style="stop-color:#fb0"/><stop offset=".659" style="stop-color:#ffa801"/><stop offset="1" style="stop-color:#ff9102"/></linearGradient><path d="m511.796 284.895-28.33 200.544c-1.417 10.026-9.997 17.478-20.121 17.478H58.61c-10.125 0-18.704-7.453-20.121-17.478L.204 214.455c-1.728-12.233 7.767-23.164 20.121-23.164h124.99c10.124 0 18.704 7.452 20.121 17.476l5.017 35.487c1.417 10.025 9.997 17.476 20.121 17.476h301.103c12.352.001 21.847 10.932 20.119 23.165" style="fill:url(#e)"/><linearGradient id="f" x1="241.605" x2="241.605" y1="111.407" y2="142.897" gradientTransform="matrix(1.0667 0 0 -1.0667 3.267 557.533)" gradientUnits="userSpaceOnUse"><stop offset="0" style="stop-color:#ff9102"/><stop offset=".128" style="stop-color:#ff9409"/><stop offset=".314" style="stop-color:#ff9c1d"/><stop offset=".537" style="stop-color:#ffaa3d"/><stop offset=".785" style="stop-color:#ffbc69"/><stop offset="1" style="stop-color:#ffcf95"/></linearGradient><path d="M411.42 413.465H110.537a6.774 6.774 0 0 1-6.72-5.924l-3.764-29.804c-.511-4.046 2.642-7.622 6.72-7.622h308.411c4.078 0 7.231 3.577 6.72 7.622l-3.764 29.804a6.774 6.774 0 0 1-6.72 5.924" style="fill:url(#f)"/></svg>