<svg id="Capa_1" enable-background="new 0 0 502 502" height="512" viewBox="0 0 502 502" width="512" xmlns="http://www.w3.org/2000/svg" xmlns:xlink="http://www.w3.org/1999/xlink"><linearGradient id="SVGID_1_" gradientUnits="userSpaceOnUse" x1="251" x2="251" y1="-45.981" y2="537.589"><stop offset="0" stop-color="#465260"/><stop offset="1" stop-color="#5a708d"/></linearGradient><linearGradient id="SVGID_2_" gradientUnits="userSpaceOnUse" x1="251" x2="251" y1="118.386" y2="510.894"><stop offset="0" stop-color="#a98bdb"/><stop offset="1" stop-color="#c3afe8"/></linearGradient><linearGradient id="lg1"><stop offset="0" stop-color="#f9ea9d"/><stop offset="1" stop-color="#fffac7"/></linearGradient><linearGradient id="SVGID_3_" gradientUnits="userSpaceOnUse" x1="188.26" x2="188.26" xlink:href="#lg1" y1="300.979" y2="221.505"/><linearGradient id="SVGID_4_" gradientTransform="matrix(-1 0 0 1 -1698.396 0)" gradientUnits="userSpaceOnUse" x1="-2012.136" x2="-2012.136" xlink:href="#lg1" y1="300.979" y2="221.505"/><linearGradient id="SVGID_5_" gradientUnits="userSpaceOnUse" x1="313.74" x2="313.74" y1="236.777" y2="285.076"><stop offset="0" stop-color="#68d0e8"/><stop offset="1" stop-color="#a7e7f5"/></linearGradient><linearGradient id="lg2"><stop offset="0" stop-color="#ec6476"/><stop offset="1" stop-color="#ec909c"/></linearGradient><linearGradient id="SVGID_6_" gradientUnits="userSpaceOnUse" x1="251" x2="251" xlink:href="#lg2" y1="176.956" y2="-4.619"/><linearGradient id="SVGID_7_" gradientUnits="userSpaceOnUse" x1="71.254" x2="71.254" xlink:href="#lg2" y1="176.956" y2="-4.619"/><linearGradient id="lg3"><stop offset="0" stop-color="#f4d84a"/><stop offset="1" stop-color="#f9ea9d"/></linearGradient><linearGradient id="SVGID_8_" gradientUnits="userSpaceOnUse" x1="159.239" x2="159.239" xlink:href="#lg3" y1="176.956" y2="-4.619"/><linearGradient id="SVGID_9_" gradientTransform="matrix(-1 0 0 1 102 0)" gradientUnits="userSpaceOnUse" x1="-328.746" x2="-328.746" xlink:href="#lg2" y1="176.956" y2="-4.619"/><linearGradient id="SVGID_10_" gradientTransform="matrix(-1 0 0 1 102 0)" gradientUnits="userSpaceOnUse" x1="-240.761" x2="-240.761" xlink:href="#lg3" y1="176.956" y2="-4.619"/><linearGradient id="SVGID_11_" gradientUnits="userSpaceOnUse" x1="188.26" x2="188.26" y1="239.617" y2="274.584"><stop offset="0" stop-color="#64cd89"/><stop offset=".2218" stop-color="#66cf8e"/><stop offset=".5016" stop-color="#6dd39e"/><stop offset=".8113" stop-color="#77dbb8"/><stop offset="1" stop-color="#7fe1cb"/></linearGradient><g><path d="m140.766 502c-47.771 0-86.637-38.865-86.637-86.638v-299.342c0-47.772 38.865-86.638 86.637-86.638h220.466c47.774 0 86.639 38.865 86.639 86.638v299.343c0 47.773-38.865 86.638-86.639 86.638h-220.466z" fill="url(#SVGID_1_)"/><path d="m251 29.382h-110.234c-47.771 0-86.637 38.865-86.637 86.638v95.71c19.783 1.377 38.403-4.235 53.563-14.985 28.623 20.297 66.932 20.285 95.538 0 13.504 9.576 29.992 15.21 47.77 15.21z" fill="#3b4a5e"/><path d="m361.232 68.679h-32.246c-7.758 0-14.047 6.289-14.047 14.047 0 10.522-8.53 19.052-19.052 19.052h-89.777c-10.522 0-19.052-8.53-19.052-19.052 0-7.758-6.289-14.047-14.047-14.047h-32.245c-26.146 0-47.341 21.195-47.341 47.341v299.342c0 26.146 21.195 47.341 47.341 47.341h220.465c26.146 0 47.341-21.195 47.341-47.341v-299.342c.001-26.146-21.194-47.341-47.34-47.341z" fill="url(#SVGID_2_)"/><path d="m361.232 442.703h-24.682c-5.523 0-10-4.477-10-10s4.477-10 10-10h24.682c2.684 0 5.156-1.474 6.453-3.847 2.648-4.846 8.723-6.628 13.57-3.982 4.847 2.648 6.629 8.724 3.98 13.57-4.803 8.795-14.002 14.259-24.003 14.259z" fill="#dac0f5"/><path d="m204.702 299.906h-32.885c-13.889 0-25.149-11.26-25.149-25.149v-32.885c0-13.889 11.26-25.149 25.149-25.149h32.885c13.889 0 25.149 11.26 25.149 25.149v32.885c0 13.889-11.259 25.149-25.149 25.149z" fill="url(#SVGID_3_)"/><path d="m297.298 299.906h32.885c13.889 0 25.149-11.26 25.149-25.149v-32.885c0-13.889-11.26-25.149-25.149-25.149h-32.885c-13.889 0-25.149 11.26-25.149 25.149v32.885c0 13.889 11.259 25.149 25.149 25.149z" fill="url(#SVGID_4_)"/><path d="m307.311 239.127-12.758 12.758c-3.551 3.551-3.551 9.308 0 12.858l12.758 12.758c3.551 3.551 9.307 3.551 12.858 0l12.758-12.758c3.551-3.551 3.551-9.308 0-12.858l-12.758-12.758c-3.551-3.551-9.307-3.551-12.858 0z" fill="url(#SVGID_5_)"/><path d="m251 176.956c-26.382 0-47.769-21.387-47.769-47.769l-10.089-26.984 17.643-102.203h80.431l17.643 102.202-10.089 26.984c-.001 26.383-21.388 47.77-47.77 47.77z" fill="url(#SVGID_6_)"/><path d="m59.924 176.956c-26.382 0-47.769-21.387-47.769-47.769v-14.645c0-8.161 1.448-16.258 4.277-23.914l21.46-58.069c7.23-19.567 25.882-32.559 46.742-32.559h45.72v102.202l-22.661 26.984c0 26.383-21.387 47.77-47.769 47.77z" fill="url(#SVGID_7_)"/><path d="m155.462 176.956c-26.382 0-47.769-21.387-47.769-47.769v-16.89c0-6.71.733-13.4 2.185-19.95l20.476-92.347h80.431l-7.354 99.5c-.133 1.801-.2 3.606-.2 5.412v24.275c0 26.382-21.387 47.769-47.769 47.769z" fill="url(#SVGID_8_)"/><path d="m442.077 176.956c26.382 0 47.769-21.387 47.769-47.769v-14.645c0-8.161-1.448-16.258-4.277-23.914l-21.46-58.069c-7.231-19.567-25.883-32.559-46.743-32.559h-45.72v102.202l22.661 26.984c0 26.383 21.387 47.77 47.77 47.77z" fill="url(#SVGID_9_)"/><path d="m346.538 176.956c26.382 0 47.769-21.387 47.769-47.769v-16.89c0-6.71-.733-13.4-2.185-19.95l-20.476-92.347h-80.431l7.354 99.5c.133 1.801.2 3.606.2 5.412v24.275c0 26.382 21.387 47.769 47.769 47.769z" fill="url(#SVGID_10_)"/><g><ellipse cx="163.114" cy="384.748" fill="#efb1d2" rx="14.936" ry="12.003"/><ellipse cx="338.886" cy="384.748" fill="#efb1d2" rx="14.936" ry="12.003"/><ellipse cx="188.721" cy="355.13" fill="#fff" rx="29.618" ry="29.618" transform="matrix(.068 -.998 .998 .068 -178.451 519.196)"/><ellipse cx="313.279" cy="355.13" fill="#fff" rx="29.618" ry="29.618" transform="matrix(.398 -.918 .918 .398 -137.153 501.321)"/><g fill="#353544"><g><ellipse cx="188.721" cy="355.13" rx="17.652" ry="17.652" transform="matrix(.996 -.092 .092 .996 -31.777 18.807)"/><ellipse cx="313.279" cy="355.13" rx="17.652" ry="17.652" transform="matrix(.392 -.92 .92 .392 -136.16 504.347)"/></g><path d="m251 385.69c-5.247 0-10.495-1.984-14.775-5.954-2.025-1.877-2.145-5.041-.267-7.066 1.876-2.025 5.042-2.143 7.065-.267 4.697 4.354 11.256 4.354 15.953 0 2.024-1.876 5.188-1.759 7.065.267 1.878 2.025 1.759 5.189-.267 7.066-4.279 3.97-9.527 5.954-14.774 5.954z"/></g></g><circle cx="188.26" cy="258.314" fill="url(#SVGID_11_)" r="18.114"/><path d="m383.018 181.652c-4.311-7.042-12.946-10.081-20.741-7.357-4.927 1.722-10.223 2.66-15.738 2.66-26.382 0-47.769-21.387-47.769-47.769 0 26.382-21.387 47.769-47.769 47.769s-47.769-21.387-47.769-47.769c0 26.382-21.387 47.769-47.769 47.769-26.382 0-47.769-21.387-47.769-47.769 0 13.328-5.463 25.375-14.266 34.04v41.63c5.037-2.239 9.816-4.956 14.266-8.111 28.623 20.297 66.932 20.285 95.538 0 13.504 9.576 29.992 15.21 47.77 15.21s34.266-5.635 47.77-15.21c22.816 16.179 51.092 19.068 75.292 10.497 10.433-3.695 14.734-16.148 8.954-25.59z" fill="#916fce"/><path d="m295.302 442.703h-12.382c-5.522 0-10-4.477-10-10s4.478-10 10-10h12.382c5.522 0 10 4.477 10 10s-4.478 10-10 10z" fill="#dac0f5"/></g></svg>