

<svg id="Capa_1" enable-background="new 0 0 512 512" height="512" viewBox="0 0 512 512" width="512" xmlns="http://www.w3.org/2000/svg" xmlns:xlink="http://www.w3.org/1999/xlink"><linearGradient id="SVGID_1_" gradientUnits="userSpaceOnUse" x1="165.5" x2="165.5" y1="512" y2="0"><stop offset="0" stop-color="#a93aff"/><stop offset="1" stop-color="#ff81ff"/></linearGradient><linearGradient id="SVGID_2_" gradientUnits="userSpaceOnUse" x1="346.5" x2="346.5" y1="512" y2="180"><stop offset="0" stop-color="#ffbef9"/><stop offset="1" stop-color="#fff1ff"/></linearGradient><g><path d="m316 120h-45v-15c0-57.891-47.109-105-105-105s-105 47.109-105 105v15h-46c-8.291 0-15 6.709-15 15v362c0 8.291 6.709 15 15 15h181c8.291 0 15-6.709 15-15v-167h105c8.291 0 15-6.709 15-15v-180c0-8.291-6.709-15-15-15zm-225 0v-15c0-41.353 33.633-75 75-75s75 33.647 75 75v15z" fill="url(#SVGID_1_)"/><path d="m497 300h-46v-15c0-57.9-47.102-105-105-105s-105 47.1-105 105v15h-45c-8.401 0-15 6.599-15 15v182c0 8.401 6.599 15 15 15h301c8.401 0 15-6.599 15-15v-182c0-8.401-6.599-15-15-15zm-226-15c0-41.4 33.6-75 75-75s75 33.6 75 75v15h-150z" fill="url(#SVGID_2_)"/></g></svg>