<?xml version="1.0"?>
<svg xmlns="http://www.w3.org/2000/svg" xmlns:xlink="http://www.w3.org/1999/xlink" xmlns:svgjs="http://svgjs.com/svgjs" version="1.1" width="512" height="512" x="0" y="0" viewBox="0 0 64 64" style="enable-background:new 0 0 512 512" xml:space="preserve" class=""><g><path xmlns="http://www.w3.org/2000/svg" d="m59.74 22-8-14a2 2 0 0 0 -1.74-1h-36a2 2 0 0 0 -1.74 1l-8 14a2 2 0 0 0 1.74 3h3v26a6 6 0 0 0 6 6h34a6 6 0 0 0 6-6v-26h3a2 2 0 0 0 1.74-3zm-15.74 22a2 2 0 0 1 -2 2h-20a2 2 0 0 1 -2-2v-9a2 2 0 0 1 2-2h20a2 2 0 0 1 2 2z" fill="#ffffff" data-original="#000000" style="" class=""/></g></svg>
