<svg xmlns:xlink="http://www.w3.org/1999/xlink" id="Capa_1" enable-background="new 0 0 510 510" height="512" viewBox="0 0 510 510"
     width="512" xmlns="http://www.w3.org/2000/svg">
    <linearGradient id="lg1">
        <stop offset="0" stop-color="#bbec6c"/>
        <stop offset="1" stop-color="#81b823"/>
    </linearGradient>
    <linearGradient id="SVGID_1_" gradientUnits="userSpaceOnUse" x1="342.604" x2="395.237" xlink:href="#lg1" y1="82.367"
                    y2="134.999"/>
    <linearGradient id="lg2">
        <stop offset="0" stop-color="#78a91f" stop-opacity="0"/>
        <stop offset="1" stop-color="#78a91f"/>
    </linearGradient>
    <linearGradient id="SVGID_00000072266911574119620560000017477693321250635682_" gradientUnits="userSpaceOnUse"
                    x1="383.282" x2="341.949" xlink:href="#lg2" y1="112.238" y2="108.904"/>
    <linearGradient id="SVGID_00000055692436453897531160000016732640775332961155_" gradientUnits="userSpaceOnUse"
                    x1="364.433" x2="320.433" y1="135.663" y2="92.329">
        <stop offset="0" stop-color="#433f43" stop-opacity="0"/>
        <stop offset="1" stop-color="#1a1a1a"/>
    </linearGradient>
    <linearGradient id="SVGID_00000155830984794694219670000007401873851096547001_" gradientUnits="userSpaceOnUse"
                    x1="292.25" x2="316.839" xlink:href="#lg1" y1="48.982" y2="101.331"/>
    <linearGradient id="SVGID_00000012473277015198223940000018038172623550167192_" gradientUnits="userSpaceOnUse"
                    x1="341.333" x2="354.07" xlink:href="#lg2" y1="70.866" y2="70.866"/>
    <linearGradient id="SVGID_00000008828220772522874060000003354301167448672144_" gradientUnits="userSpaceOnUse"
                    x1="241" x2="276.355" y1="110.865" y2="110.865">
        <stop offset="0" stop-color="#e6e6e6"/>
        <stop offset="1" stop-color="#999"/>
    </linearGradient>
    <linearGradient id="SVGID_00000081612948162261652500000000902129775063576216_" gradientUnits="userSpaceOnUse"
                    x1="156.868" x2="251.529" y1="230.785" y2="454.186">
        <stop offset="0" stop-color="#f9f5f3"/>
        <stop offset="1" stop-color="#d8e8f0"/>
    </linearGradient>
    <linearGradient id="SVGID_00000162352348613103183220000011344429178762037174_" gradientUnits="userSpaceOnUse"
                    x1="175.605" x2="258.368" y1="275.004" y2="470.325">
        <stop offset="0" stop-color="#b3dafe"/>
        <stop offset="1" stop-color="#0182fc"/>
    </linearGradient>
    <linearGradient id="lg3">
        <stop offset="0" stop-color="#0182fc" stop-opacity="0"/>
        <stop offset=".1877" stop-color="#0181f8" stop-opacity=".188"/>
        <stop offset=".351" stop-color="#017dee" stop-opacity=".351"/>
        <stop offset=".5052" stop-color="#0176dc" stop-opacity=".505"/>
        <stop offset=".6539" stop-color="#016dc3" stop-opacity=".654"/>
        <stop offset=".7986" stop-color="#0261a2" stop-opacity=".799"/>
        <stop offset=".9384" stop-color="#02537b" stop-opacity=".938"/>
        <stop offset="1" stop-color="#024c67"/>
    </linearGradient>
    <linearGradient id="SVGID_00000153685057822242836300000012645735146690868365_" gradientUnits="userSpaceOnUse"
                    x1="135.079" x2="279.079" xlink:href="#lg3" y1="169.829" y2="547.829"/>
    <linearGradient id="SVGID_00000171695173009715521850000011593314265731936689_" gradientUnits="userSpaceOnUse"
                    x1="328.934" x2="186.934" xlink:href="#lg3" y1="306.027" y2="414.027"/>
    <linearGradient id="SVGID_00000181788572824928214080000001159846301644070804_" gradientUnits="userSpaceOnUse"
                    x1="255" x2="255" xlink:href="#lg3" y1="433.669" y2="505.696"/>
    <linearGradient id="lg4">
        <stop offset="0" stop-color="#fef0ae"/>
        <stop offset="1" stop-color="#fbc56d"/>
    </linearGradient>
    <linearGradient id="SVGID_00000183213017939022810020000010810119574714725041_" gradientUnits="userSpaceOnUse"
                    x1="101.816" x2="144.985" xlink:href="#lg4" y1="125.644" y2="168.814"/>
    <linearGradient id="lg5">
        <stop offset="0" stop-color="#f6a96c" stop-opacity="0"/>
        <stop offset=".9957" stop-color="#f6a96c" stop-opacity=".996"/>
        <stop offset="1" stop-color="#f6a96c"/>
    </linearGradient>
    <linearGradient id="SVGID_00000041987225676700736080000001733765072075622031_" gradientUnits="userSpaceOnUse"
                    x1="151.622" x2="91.955" xlink:href="#lg5" y1="137.415" y2="162.081"/>
    <linearGradient id="SVGID_00000145739695684948128170000018365202393981283759_" gradientUnits="userSpaceOnUse"
                    x1="136.043" x2="103.376" xlink:href="#lg5" y1="158.589" y2="144.589"/>
    <linearGradient id="SVGID_00000086679628280072941650000011215629856704642490_"
                    gradientTransform="matrix(-1 0 0 1 -1599.296 0)" gradientUnits="userSpaceOnUse" x1="-1714.763"
                    x2="-1747.43" xlink:href="#lg5" y1="158.589" y2="144.589"/>
    <linearGradient id="SVGID_00000015335900807909611700000008018324558400538033_" gradientUnits="userSpaceOnUse"
                    x1="116.193" x2="137.193" xlink:href="#lg5" y1="160.227" y2="126.477"/>
    <linearGradient id="SVGID_00000083048515805996410030000017389826031591131575_" gradientUnits="userSpaceOnUse"
                    x1="133.707" x2="131.957" xlink:href="#lg5" y1="155.965" y2="122.965"/>
    <linearGradient id="lg6">
        <stop offset="0" stop-color="#dc8758" stop-opacity="0"/>
        <stop offset=".9957" stop-color="#dc8758" stop-opacity=".996"/>
        <stop offset="1" stop-color="#dc8758"/>
    </linearGradient>
    <linearGradient id="SVGID_00000114048179967247148560000000066813195564742059_" gradientUnits="userSpaceOnUse"
                    x1="125.755" x2="125.755" xlink:href="#lg6" y1="164.077" y2="200.744"/>
    <linearGradient id="SVGID_00000139275108810997279780000003602338750491651741_" gradientUnits="userSpaceOnUse"
                    x1="29.816" x2="72.985" xlink:href="#lg4" y1="233.644" y2="276.814"/>
    <linearGradient id="SVGID_00000138568025375373061400000014194531526024757130_" gradientUnits="userSpaceOnUse"
                    x1="79.622" x2="19.955" xlink:href="#lg5" y1="245.415" y2="270.081"/>
    <linearGradient id="SVGID_00000131351558236042418360000014858110224445060759_" gradientUnits="userSpaceOnUse"
                    x1="64.043" x2="31.376" xlink:href="#lg5" y1="266.589" y2="252.589"/>
    <linearGradient id="SVGID_00000099663332113633557750000000568405336837344147_"
                    gradientTransform="matrix(-1 0 0 1 -1599.296 0)" gradientUnits="userSpaceOnUse" x1="-1642.763"
                    x2="-1675.43" xlink:href="#lg5" y1="266.589" y2="252.589"/>
    <linearGradient id="SVGID_00000125582346148177067040000016740919621639975089_" gradientUnits="userSpaceOnUse"
                    x1="44.193" x2="65.193" xlink:href="#lg5" y1="268.227" y2="234.477"/>
    <linearGradient id="SVGID_00000154421012574169734410000009998055419005716925_" gradientUnits="userSpaceOnUse"
                    x1="61.707" x2="59.957" xlink:href="#lg5" y1="263.965" y2="230.965"/>
    <linearGradient id="SVGID_00000114752366324140512320000011859464217021343417_" gradientUnits="userSpaceOnUse"
                    x1="53.755" x2="53.755" xlink:href="#lg6" y1="272.077" y2="308.744"/>
    <linearGradient id="SVGID_00000134207329458176740700000013711181979134319026_" gradientUnits="userSpaceOnUse"
                    x1="432.306" x2="475.475" xlink:href="#lg4" y1="233.644" y2="276.814"/>
    <linearGradient id="SVGID_00000044899651835603248050000001950572443114574996_" gradientUnits="userSpaceOnUse"
                    x1="482.112" x2="422.445" xlink:href="#lg5" y1="245.415" y2="270.081"/>
    <linearGradient id="SVGID_00000134214951418537016790000005406390190211239613_" gradientUnits="userSpaceOnUse"
                    x1="466.533" x2="433.866" xlink:href="#lg5" y1="266.589" y2="252.589"/>
    <linearGradient id="SVGID_00000096772781819881225710000006040504987776429738_"
                    gradientTransform="matrix(-1 0 0 1 -866.316 0)" gradientUnits="userSpaceOnUse" x1="-1312.273"
                    x2="-1344.94" xlink:href="#lg5" y1="266.589" y2="252.589"/>
    <linearGradient id="SVGID_00000036250062577028526820000004462329401819620027_" gradientUnits="userSpaceOnUse"
                    x1="446.683" x2="467.683" xlink:href="#lg5" y1="268.227" y2="234.477"/>
    <linearGradient id="SVGID_00000081647046778189144700000017668306033735732877_" gradientUnits="userSpaceOnUse"
                    x1="464.196" x2="462.446" xlink:href="#lg5" y1="263.965" y2="230.965"/>
    <linearGradient id="SVGID_00000143590279078781771920000002395070307949919373_" gradientUnits="userSpaceOnUse"
                    x1="456.245" x2="456.245" xlink:href="#lg6" y1="272.077" y2="308.744"/>
    <g>
        <g>
            <path d="m339.896 70.239h68.729c4.189 0 7.585 3.396 7.585 7.585v72.535c0 4.189-3.396 7.585-7.585 7.585h-65.767c-7.953 0-14.401-6.447-14.401-14.401v-84.743c0 6.318 5.121 11.439 11.439 11.439z"
                  fill="url(#SVGID_1_)"/>
            <path d="m396.699 70.239h-56.803c-6.318 0-11.439-5.121-11.439-11.439v84.744c0 7.953 6.447 14.401 14.401 14.401h53.841z"
                  fill="url(#SVGID_00000072266911574119620560000017477693321250635682_)"/>
            <path d="m342.433 90.986h-13.977v54.099c0-5.659 4.587-10.246 10.246-10.246h.336c7.953 0 14.401-6.447 14.401-14.401v-40.457c0 6.078-4.927 11.005-11.006 11.005z"
                  fill="url(#SVGID_00000055692436453897531160000016732640775332961155_)"/>
            <path d="m342 109h-90.502v-87.706h87.54c7.953 0 14.401 6.447 14.401 14.401v84.744c0-6.318-5.121-11.439-11.439-11.439z"
                  fill="url(#SVGID_00000155830984794694219670000007401873851096547001_)"/>
            <path d="m342 109c6.318 0 11.439 5.121 11.439 11.439v-84.745c0-7.953-6.447-14.401-14.401-14.401h-10.581v87.707z"
                  fill="url(#SVGID_00000012473277015198223940000018038172623550167192_)"/>
        </g>
        <path d="m233.5 21.5v178.73c0 11.874 9.626 21.5 21.5 21.5 11.874 0 21.5-9.626 21.5-21.5v-178.73c0-11.874-9.626-21.5-21.5-21.5-11.874 0-21.5 9.626-21.5 21.5z"
              fill="url(#SVGID_00000008828220772522874060000003354301167448672144_)"/>
        <g>
            <path d="m490.497 417.254c-21.037-16.926-39.887-33.657-56.777-50.039-75.71-73.44-112.03-139.87-129.42-185.47-5.99-15.71-28.61-14.51-32.9 1.76-2.225 8.42-9.313 12.63-16.4 12.63s-14.175-4.21-16.4-12.63c-4.29-16.27-26.91-17.47-32.9-1.76-17.39 45.6-53.71 112.03-129.42 185.47-16.89 16.382-35.74 33.114-56.777 50.039-12.355 9.94-19.503 24.976-19.503 40.834v10.912c0 22.644 18.356 41 41 41h214 214c22.644 0 41-18.356 41-41v-10.912c0-15.858-7.148-30.894-19.503-40.834z"
                  fill="url(#SVGID_00000081612948162261652500000000902129775063576216_)"/>
            <path d="m510 458.085v10.91c0 22.65-18.36 41-41 41h-428c-22.64 0-41-18.35-41-41v-10.91c0-15.85 7.15-30.89 19.5-40.83 21.04-16.93 39.89-33.66 56.78-50.04 42.46-41.19 72.53-80.17 93.82-114.51.95-.35 1.89-.76 2.8-1.22l66.48-33.32c9.83-4.92 21.41-4.92 31.24 0l66.48 33.32c.91.46 1.85.87 2.8 1.22 21.29 34.34 51.36 73.32 93.82 114.51 16.89 16.38 35.74 33.11 56.78 50.04 12.35 9.94 19.5 24.98 19.5 40.83z"
                  fill="url(#SVGID_00000162352348613103183220000011344429178762037174_)"/>
            <g>
                <path d="m407.298 510v-16.397c0-49.342-13.279-72.44-38.411-114.902-2.445-4.131-4.827-8.245-7.147-12.338-43.448-76.671-65.169-146.297-76.017-195.584-6.392.875-12.332 5.174-14.323 12.725-4.45 16.84-28.35 16.84-32.8 0-1.987-7.549-7.926-11.848-14.323-12.725-10.848 49.286-32.569 118.913-76.017 195.583-2.32 4.093-4.701 8.207-7.147 12.338-25.132 42.462-38.411 65.56-38.411 114.902v16.398z"
                      fill="url(#SVGID_00000153685057822242836300000012645735146690868365_)"/>
                <path d="m284.584 369.899c-.635-4.364-1.254-8.708-1.856-13.031-8.504-61.014-13.802-117.8-17.104-164.36-6.094 4.82-15.152 4.82-21.247 0-3.302 46.56-8.6 103.346-17.104 164.36-.603 4.323-1.221 8.668-1.856 13.031-6.528 44.848-9.978 70.668-9.978 122.782v17.319h79.124v-17.319c-.001-52.114-3.451-77.934-9.979-122.782z"
                      fill="url(#SVGID_00000171695173009715521850000011593314265731936689_)"/>
            </g>
            <path d="m76.28 367.215c-16.89 16.382-35.74 33.114-56.777 50.039-12.355 9.94-19.503 24.976-19.503 40.834v10.912c0 22.644 18.356 41 41 41h214 214c22.644 0 41-18.356 41-41v-10.912c0-15.857-7.148-30.894-19.503-40.834-21.037-16.926-39.887-33.657-56.777-50.039-8.43-8.178-16.369-16.268-23.851-24.252h-309.738c-7.482 7.984-15.421 16.074-23.851 24.252z"
                  fill="url(#SVGID_00000181788572824928214080000001159846301644070804_)"/>
        </g>
        <g>
            <g>
                <g>
                    <path d="m172.88 122.516-22.538-5.446c-2.097-.507-3.929-1.778-5.137-3.564l-12.992-19.205c-1.572-2.323-3.979-3.569-6.457-3.77-2.477.201-4.885 1.447-6.457 3.77l-12.992 19.205c-1.209 1.786-3.041 3.058-5.137 3.564l-22.538 5.446c-6.114 1.477-8.661 8.774-4.796 13.736l14.25 18.291c1.326 1.702 1.968 3.837 1.802 5.987l-1.786 23.118c-.484 6.271 5.668 10.949 11.581 8.806l21.8-7.901c1.377-.499 2.846-.628 4.273-.407 1.426-.221 2.895-.092 4.273.407l21.8 7.901c5.913 2.143 12.066-2.535 11.581-8.806l-1.786-23.118c-.166-2.151.477-4.286 1.802-5.987l14.25-18.291c3.865-4.961 1.317-12.259-4.796-13.736z"
                          fill="url(#SVGID_00000183213017939022810020000010810119574714725041_)"/>
                    <path d="m130.028 184.554 21.8 7.901c5.913 2.143 12.066-2.535 11.581-8.806l-1.786-23.118c-.166-2.151.477-4.286 1.802-5.987l14.25-18.291c3.865-4.961 1.317-12.259-4.796-13.736l-22.538-5.446c-2.097-.507-3.929-1.778-5.137-3.564l-12.992-19.205c-1.572-2.323-3.979-3.569-6.457-3.77v93.616c1.426-.222 2.895-.093 4.273.406z"
                          fill="url(#SVGID_00000041987225676700736080000001733765072075622031_)"/>
                    <path d="m172.88 122.516-22.538-5.446c-.769-.186-1.502-.477-2.183-.856l-57.454 74.315c2.254 2.178 5.654 3.13 8.979 1.925l21.8-7.901c1.377-.499 2.846-.628 4.273-.407 1.426-.221 2.895-.092 4.273.407l21.8 7.901c5.913 2.143 12.066-2.535 11.581-8.806l-1.786-23.118c-.166-2.151.477-4.286 1.802-5.987l14.25-18.291c3.864-4.961 1.316-12.259-4.797-13.736z"
                          fill="url(#SVGID_00000145739695684948128170000018365202393981283759_)"/>
                    <path d="m78.63 122.516 22.538-5.446c.769-.186 1.502-.477 2.183-.856l57.454 74.315c-2.254 2.178-5.654 3.13-8.979 1.925l-21.8-7.901c-1.377-.499-2.846-.628-4.273-.407-1.426-.221-2.895-.092-4.273.407l-21.8 7.901c-5.913 2.143-12.066-2.535-11.581-8.806l1.786-23.118c.166-2.151-.477-4.286-1.802-5.987l-14.25-18.291c-3.864-4.961-1.316-12.259 4.797-13.736z"
                          fill="url(#SVGID_00000086679628280072941650000011215629856704642490_)"/>
                    <path d="m72.632 127.739c-1.072 2.703-.815 5.923 1.203 8.513l14.25 18.291c1.326 1.702 1.968 3.837 1.802 5.987l-1.786 23.118c-.484 6.271 5.668 10.949 11.581 8.806l21.8-7.901c1.377-.499 2.846-.628 4.273-.407 1.426-.221 2.895-.092 4.273.407l21.8 7.901c5.913 2.143 12.066-2.535 11.581-8.806l-1.786-23.118c-.092-1.193.073-2.379.458-3.491z"
                          fill="url(#SVGID_00000015335900807909611700000008018324558400538033_)"/>
                    <path d="m178.887 127.739c1.072 2.703.815 5.923-1.203 8.513l-14.25 18.291c-1.326 1.702-1.968 3.837-1.802 5.987l1.786 23.118c.484 6.271-5.668 10.949-11.581 8.806l-21.8-7.901c-1.377-.499-2.846-.628-4.273-.407-1.426-.221-2.895-.092-4.273.407l-21.8 7.901c-5.913 2.143-12.066-2.535-11.581-8.806l1.786-23.118c.092-1.193-.073-2.379-.458-3.491z"
                          fill="url(#SVGID_00000083048515805996410030000017389826031591131575_)"/>
                </g>
                <path d="m170.521 145.436h-89.532l7.095 9.107c1.326 1.702 1.968 3.837 1.802 5.987l-1.786 23.118c-.484 6.271 5.668 10.949 11.581 8.806l21.8-7.901c1.377-.499 2.846-.628 4.273-.407 1.426-.221 2.895-.092 4.273.407l21.8 7.901c5.913 2.143 12.066-2.535 11.581-8.806l-1.786-23.118c-.166-2.151.477-4.286 1.802-5.987z"
                      fill="url(#SVGID_00000114048179967247148560000000066813195564742059_)"/>
            </g>
            <g>
                <g>
                    <path d="m100.88 230.516-22.538-5.446c-2.097-.507-3.929-1.778-5.137-3.564l-12.992-19.205c-1.572-2.323-3.979-3.569-6.457-3.77-2.477.201-4.885 1.447-6.457 3.77l-12.992 19.205c-1.209 1.786-3.041 3.058-5.137 3.564l-22.54 5.446c-6.114 1.477-8.661 8.774-4.796 13.736l14.25 18.291c1.326 1.702 1.968 3.837 1.802 5.987l-1.786 23.118c-.484 6.271 5.668 10.949 11.581 8.806l21.8-7.901c1.377-.499 2.846-.628 4.273-.407 1.426-.221 2.895-.092 4.273.407l21.8 7.901c5.913 2.143 12.066-2.535 11.581-8.806l-1.786-23.118c-.166-2.151.477-4.286 1.802-5.987l14.25-18.291c3.867-4.961 1.319-12.259-4.794-13.736z"
                          fill="url(#SVGID_00000139275108810997279780000003602338750491651741_)"/>
                    <path d="m58.028 292.554 21.8 7.901c5.913 2.143 12.066-2.535 11.581-8.806l-1.786-23.118c-.166-2.151.477-4.286 1.802-5.987l14.25-18.291c3.865-4.961 1.317-12.259-4.796-13.736l-22.538-5.446c-2.097-.507-3.929-1.778-5.137-3.564l-12.992-19.205c-1.572-2.323-3.979-3.569-6.457-3.77v93.616c1.426-.222 2.895-.093 4.273.406z"
                          fill="url(#SVGID_00000138568025375373061400000014194531526024757130_)"/>
                    <path d="m100.88 230.516-22.538-5.446c-.769-.186-1.502-.477-2.183-.856l-57.454 74.315c2.254 2.178 5.654 3.13 8.979 1.925l21.8-7.901c1.377-.499 2.846-.628 4.273-.407 1.426-.221 2.895-.092 4.273.407l21.8 7.901c5.913 2.143 12.066-2.535 11.581-8.806l-1.786-23.118c-.166-2.151.477-4.286 1.802-5.987l14.25-18.291c3.864-4.961 1.316-12.259-4.797-13.736z"
                          fill="url(#SVGID_00000131351558236042418360000014858110224445060759_)"/>
                    <path d="m6.63 230.516 22.538-5.446c.769-.186 1.502-.477 2.183-.856l57.454 74.315c-2.254 2.178-5.654 3.13-8.979 1.925l-21.8-7.901c-1.377-.499-2.846-.628-4.273-.407-1.426-.221-2.895-.092-4.273.407l-21.8 7.901c-5.913 2.143-12.066-2.535-11.581-8.806l1.786-23.118c.166-2.151-.477-4.286-1.802-5.987l-14.25-18.291c-3.864-4.961-1.316-12.259 4.797-13.736z"
                          fill="url(#SVGID_00000099663332113633557750000000568405336837344147_)"/>
                    <path d="m.632 235.739c-1.072 2.703-.815 5.923 1.203 8.513l14.25 18.291c1.326 1.702 1.968 3.837 1.802 5.987l-1.786 23.118c-.484 6.271 5.668 10.949 11.581 8.806l21.8-7.901c1.377-.499 2.846-.628 4.273-.407 1.426-.221 2.895-.092 4.273.407l21.8 7.901c5.913 2.143 12.066-2.535 11.581-8.806l-1.786-23.118c-.092-1.193.073-2.379.458-3.491z"
                          fill="url(#SVGID_00000125582346148177067040000016740919621639975089_)"/>
                    <path d="m106.887 235.739c1.072 2.703.815 5.923-1.203 8.513l-14.25 18.291c-1.326 1.702-1.968 3.837-1.802 5.987l1.786 23.118c.484 6.271-5.668 10.949-11.581 8.806l-21.8-7.901c-1.377-.499-2.846-.628-4.273-.407-1.426-.221-2.895-.092-4.273.407l-21.8 7.901c-5.913 2.143-12.066-2.535-11.581-8.806l1.786-23.118c.092-1.193-.073-2.379-.458-3.491z"
                          fill="url(#SVGID_00000154421012574169734410000009998055419005716925_)"/>
                </g>
                <path d="m98.521 253.436h-89.532l7.095 9.107c1.326 1.702 1.968 3.837 1.802 5.987l-1.786 23.118c-.484 6.271 5.668 10.949 11.581 8.806l21.8-7.901c1.377-.499 2.846-.628 4.273-.407 1.426-.221 2.895-.092 4.273.407l21.8 7.901c5.913 2.143 12.066-2.535 11.581-8.806l-1.786-23.118c-.166-2.151.477-4.286 1.802-5.987z"
                      fill="url(#SVGID_00000114752366324140512320000011859464217021343417_)"/>
            </g>
        </g>
        <g>
            <g>
                <path d="m503.37 230.516-22.538-5.446c-2.097-.507-3.929-1.778-5.137-3.564l-12.992-19.205c-1.572-2.323-3.979-3.569-6.457-3.77-2.477.201-4.885 1.447-6.457 3.77l-12.992 19.205c-1.209 1.786-3.041 3.058-5.137 3.564l-22.538 5.446c-6.114 1.477-8.661 8.774-4.796 13.736l14.25 18.291c1.326 1.702 1.968 3.837 1.802 5.987l-1.786 23.118c-.484 6.271 5.668 10.949 11.581 8.806l21.799-7.901c1.377-.499 2.846-.628 4.273-.407 1.426-.221 2.895-.092 4.273.407l21.8 7.901c5.913 2.143 12.066-2.535 11.581-8.806l-1.786-23.118c-.166-2.151.477-4.286 1.802-5.987l14.25-18.291c3.866-4.961 1.318-12.259-4.795-13.736z"
                      fill="url(#SVGID_00000134207329458176740700000013711181979134319026_)"/>
                <path d="m460.518 292.554 21.8 7.901c5.913 2.143 12.066-2.535 11.581-8.806l-1.786-23.118c-.166-2.151.477-4.286 1.802-5.987l14.25-18.291c3.865-4.961 1.317-12.259-4.796-13.736l-22.538-5.446c-2.097-.507-3.929-1.778-5.137-3.564l-12.992-19.205c-1.572-2.323-3.979-3.569-6.457-3.77v93.616c1.426-.222 2.895-.093 4.273.406z"
                      fill="url(#SVGID_00000044899651835603248050000001950572443114574996_)"/>
                <path d="m503.37 230.516-22.538-5.446c-.769-.186-1.502-.477-2.183-.856l-57.454 74.315c2.254 2.178 5.654 3.13 8.979 1.925l21.799-7.901c1.377-.499 2.846-.628 4.273-.407 1.426-.221 2.895-.092 4.273.407l21.8 7.901c5.913 2.143 12.066-2.535 11.581-8.806l-1.786-23.118c-.166-2.151.477-4.286 1.802-5.987l14.25-18.291c3.865-4.961 1.317-12.259-4.796-13.736z"
                      fill="url(#SVGID_00000134214951418537016790000005406390190211239613_)"/>
                <path d="m409.12 230.516 22.538-5.446c.769-.186 1.502-.477 2.183-.856l57.454 74.315c-2.254 2.178-5.654 3.13-8.979 1.925l-21.8-7.901c-1.377-.499-2.846-.628-4.273-.407-1.426-.221-2.895-.092-4.273.407l-21.799 7.901c-5.913 2.143-12.066-2.535-11.581-8.806l1.786-23.118c.166-2.151-.477-4.286-1.802-5.987l-14.25-18.291c-3.865-4.961-1.317-12.259 4.796-13.736z"
                      fill="url(#SVGID_00000096772781819881225710000006040504987776429738_)"/>
                <path d="m403.122 235.739c-1.072 2.703-.815 5.923 1.203 8.513l14.25 18.291c1.326 1.702 1.968 3.837 1.802 5.987l-1.786 23.118c-.484 6.271 5.668 10.949 11.581 8.806l21.799-7.901c1.377-.499 2.846-.628 4.273-.407 1.426-.221 2.895-.092 4.273.407l21.8 7.901c5.913 2.143 12.066-2.535 11.581-8.806l-1.786-23.118c-.092-1.193.073-2.379.458-3.491z"
                      fill="url(#SVGID_00000036250062577028526820000004462329401819620027_)"/>
                <path d="m509.377 235.739c1.072 2.703.815 5.923-1.203 8.513l-14.25 18.291c-1.326 1.702-1.968 3.837-1.802 5.987l1.786 23.118c.484 6.271-5.668 10.949-11.581 8.806l-21.799-7.901c-1.377-.499-2.846-.628-4.273-.407-1.426-.221-2.895-.092-4.273.407l-21.799 7.901c-5.913 2.143-12.066-2.535-11.581-8.806l1.786-23.118c.092-1.193-.073-2.379-.458-3.491z"
                      fill="url(#SVGID_00000081647046778189144700000017668306033735732877_)"/>
            </g>
            <path d="m501.011 253.436h-89.531l7.095 9.107c1.326 1.702 1.968 3.837 1.802 5.987l-1.786 23.118c-.484 6.271 5.668 10.949 11.581 8.806l21.8-7.901c1.377-.499 2.846-.628 4.273-.407 1.426-.221 2.895-.092 4.273.407l21.8 7.901c5.913 2.143 12.066-2.535 11.581-8.806l-1.786-23.118c-.166-2.151.477-4.286 1.802-5.987z"
                  fill="url(#SVGID_00000143590279078781771920000002395070307949919373_)"/>
        </g>
    </g>
</svg>