<svg xmlns="http://www.w3.org/2000/svg" xmlns:xlink="http://www.w3.org/1999/xlink" width="512" height="512" viewBox="0 0 502 502"><linearGradient id="d" x1="251" x2="251" y1="-45.981" y2="537.589" gradientUnits="userSpaceOnUse"><stop offset="0" stop-color="#465260"/><stop offset="1" stop-color="#5a708d"/></linearGradient><linearGradient id="e" x1="251" x2="251" y1="118.386" y2="510.894" gradientUnits="userSpaceOnUse"><stop offset="0" stop-color="#a98bdb"/><stop offset="1" stop-color="#c3afe8"/></linearGradient><linearGradient id="a"><stop offset="0" stop-color="#f9ea9d"/><stop offset="1" stop-color="#fffac7"/></linearGradient><linearGradient xlink:href="#a" id="f" x1="188.26" x2="188.26" y1="300.979" y2="221.505" gradientUnits="userSpaceOnUse"/><linearGradient xlink:href="#a" id="g" x1="-2012.136" x2="-2012.136" y1="300.979" y2="221.505" gradientTransform="matrix(-1 0 0 1 -1698.396 0)" gradientUnits="userSpaceOnUse"/><linearGradient id="h" x1="313.74" x2="313.74" y1="236.777" y2="285.076" gradientUnits="userSpaceOnUse"><stop offset="0" stop-color="#68d0e8"/><stop offset="1" stop-color="#a7e7f5"/></linearGradient><linearGradient id="b"><stop offset="0" stop-color="#ec6476"/><stop offset="1" stop-color="#ec909c"/></linearGradient><linearGradient xlink:href="#b" id="i" x1="251" x2="251" y1="176.956" y2="-4.619" gradientUnits="userSpaceOnUse"/><linearGradient xlink:href="#b" id="j" x1="71.254" x2="71.254" y1="176.956" y2="-4.619" gradientUnits="userSpaceOnUse"/><linearGradient id="c"><stop offset="0" stop-color="#f4d84a"/><stop offset="1" stop-color="#f9ea9d"/></linearGradient><linearGradient xlink:href="#c" id="k" x1="159.239" x2="159.239" y1="176.956" y2="-4.619" gradientUnits="userSpaceOnUse"/><linearGradient xlink:href="#b" id="l" x1="-328.746" x2="-328.746" y1="176.956" y2="-4.619" gradientTransform="matrix(-1 0 0 1 102 0)" gradientUnits="userSpaceOnUse"/><linearGradient xlink:href="#c" id="m" x1="-240.761" x2="-240.761" y1="176.956" y2="-4.619" gradientTransform="matrix(-1 0 0 1 102 0)" gradientUnits="userSpaceOnUse"/><linearGradient id="n" x1="188.26" x2="188.26" y1="239.617" y2="274.584" gradientUnits="userSpaceOnUse"><stop offset="0" stop-color="#64cd89"/><stop offset=".222" stop-color="#66cf8e"/><stop offset=".502" stop-color="#6dd39e"/><stop offset=".811" stop-color="#77dbb8"/><stop offset="1" stop-color="#7fe1cb"/></linearGradient><path fill="url(#d)" d="M140.766 502c-47.771 0-86.637-38.865-86.637-86.638V116.02c0-47.772 38.865-86.638 86.637-86.638h220.466c47.774 0 86.639 38.865 86.639 86.638v299.343c0 47.773-38.865 86.638-86.639 86.638z"/><path fill="#3b4a5e" d="M251 29.382H140.766c-47.771 0-86.637 38.865-86.637 86.638v95.71c19.783 1.377 38.403-4.235 53.563-14.985 28.623 20.297 66.932 20.285 95.538 0 13.504 9.576 29.992 15.21 47.77 15.21z"/><path fill="url(#e)" d="M361.232 68.679h-32.246c-7.758 0-14.047 6.289-14.047 14.047 0 10.522-8.53 19.052-19.052 19.052H206.11c-10.522 0-19.052-8.53-19.052-19.052 0-7.758-6.289-14.047-14.047-14.047h-32.245c-26.146 0-47.341 21.195-47.341 47.341v299.342c0 26.146 21.195 47.341 47.341 47.341h220.465c26.146 0 47.341-21.195 47.341-47.341V116.02c.001-26.146-21.194-47.341-47.34-47.341"/><path fill="#dac0f5" d="M361.232 442.703H336.55c-5.523 0-10-4.477-10-10s4.477-10 10-10h24.682a7.36 7.36 0 0 0 6.453-3.847c2.648-4.846 8.723-6.628 13.57-3.982 4.847 2.648 6.629 8.724 3.98 13.57a27.35 27.35 0 0 1-24.003 14.259"/><path fill="url(#f)" d="M204.702 299.906h-32.885c-13.889 0-25.149-11.26-25.149-25.149v-32.885c0-13.889 11.26-25.149 25.149-25.149h32.885c13.889 0 25.149 11.26 25.149 25.149v32.885c0 13.889-11.259 25.149-25.149 25.149"/><path fill="url(#g)" d="M297.298 299.906h32.885c13.889 0 25.149-11.26 25.149-25.149v-32.885c0-13.889-11.26-25.149-25.149-25.149h-32.885c-13.889 0-25.149 11.26-25.149 25.149v32.885c0 13.889 11.259 25.149 25.149 25.149"/><path fill="url(#h)" d="m307.311 239.127-12.758 12.758a9.09 9.09 0 0 0 0 12.858l12.758 12.758a9.09 9.09 0 0 0 12.858 0l12.758-12.758a9.09 9.09 0 0 0 0-12.858l-12.758-12.758a9.09 9.09 0 0 0-12.858 0"/><path fill="url(#i)" d="M251 176.956c-26.382 0-47.769-21.387-47.769-47.769l-10.089-26.984L210.785 0h80.431l17.643 102.202-10.089 26.984c-.001 26.383-21.388 47.77-47.77 47.77"/><path fill="url(#j)" d="M59.924 176.956c-26.382 0-47.769-21.387-47.769-47.769v-14.645a69 69 0 0 1 4.277-23.914l21.46-58.069C45.122 12.992 63.774 0 84.634 0h45.72v102.202l-22.661 26.984c0 26.383-21.387 47.77-47.769 47.77"/><path fill="url(#k)" d="M155.462 176.956c-26.382 0-47.769-21.387-47.769-47.769v-16.89c0-6.71.733-13.4 2.185-19.95L130.354 0h80.431l-7.354 99.5a74 74 0 0 0-.2 5.412v24.275c0 26.382-21.387 47.769-47.769 47.769"/><path fill="url(#l)" d="M442.077 176.956c26.382 0 47.769-21.387 47.769-47.769v-14.645a69 69 0 0 0-4.277-23.914l-21.46-58.069C456.878 12.992 438.226 0 417.366 0h-45.72v102.202l22.661 26.984c0 26.383 21.387 47.77 47.77 47.77"/><path fill="url(#m)" d="M346.538 176.956c26.382 0 47.769-21.387 47.769-47.769v-16.89c0-6.71-.733-13.4-2.185-19.95L371.646 0h-80.431l7.354 99.5q.2 2.702.2 5.412v24.275c0 26.382 21.387 47.769 47.769 47.769"/><ellipse cx="163.114" cy="384.748" fill="#efb1d2" rx="14.936" ry="12.003"/><ellipse cx="338.886" cy="384.748" fill="#efb1d2" rx="14.936" ry="12.003"/><circle cx="188.721" cy="355.13" r="29.618" fill="#fff" transform="rotate(-86.1 188.603 354.998)"/><circle cx="313.279" cy="355.13" r="29.618" fill="#fff" transform="rotate(-66.56 313.126 354.936)"/><g fill="#353544"><circle cx="188.721" cy="355.13" r="17.652" transform="rotate(-5.13 189.05 353.622)"/><circle cx="313.279" cy="355.13" r="17.652" transform="rotate(-66.92 313.482 355.17)"/><path d="M251 385.69c-5.247 0-10.495-1.984-14.775-5.954a5 5 0 1 1 6.798-7.333c4.697 4.354 11.256 4.354 15.953 0a5 5 0 1 1 6.798 7.333c-4.279 3.97-9.527 5.954-14.774 5.954"/></g><circle cx="188.26" cy="258.314" r="18.114" fill="url(#n)"/><path fill="#916fce" d="M383.018 181.652c-4.311-7.042-12.946-10.081-20.741-7.357a47.6 47.6 0 0 1-15.738 2.66c-26.382 0-47.769-21.387-47.769-47.769 0 26.382-21.387 47.769-47.769 47.769s-47.769-21.387-47.769-47.769c0 26.382-21.387 47.769-47.769 47.769s-47.769-21.387-47.769-47.769c0 13.328-5.463 25.375-14.266 34.04v41.63a83 83 0 0 0 14.266-8.111c28.623 20.297 66.932 20.285 95.538 0 13.504 9.576 29.992 15.21 47.77 15.21s34.266-5.635 47.77-15.21c22.816 16.179 51.092 19.068 75.292 10.497 10.433-3.695 14.734-16.148 8.954-25.59"/><path fill="#dac0f5" d="M295.302 442.703H282.92c-5.522 0-10-4.477-10-10s4.478-10 10-10h12.382c5.522 0 10 4.477 10 10s-4.478 10-10 10"/></svg>