<svg height="512" viewBox="0 0 64 64" width="512" xmlns="http://www.w3.org/2000/svg"><g id="Online_Shopping-Ecommerce-Online_Shop-Shopping_Cart-Smartphone" data-name="Online Shopping-Ecommerce-Online Shop-Shopping Cart-Smartphone"><rect fill="#5aaae7" height="58" rx="5" width="38" x="20" y="3"/><path d="m52 42h-2a1 1 0 0 0 -1-1h-16a1 1 0 0 1 -1-1v-15.586l-1.414-1.414h-2.586v-2h3a1 1 0 0 1 .707.293l2 2a1 1 0 0 1 .293.707v15h15a3 3 0 0 1 3 3z" fill="#3d9ae2"/><path d="m45 24h-4-4-4v4 4 4h4 4 4 4l.33-4 .34-4 .33-4z" fill="#3d9ae2"/><circle cx="45" cy="43" fill="#3d9ae2" r="2"/><circle cx="37" cy="43" fill="#3d9ae2" r="2"/><path d="m27 20h-2a2.006 2.006 0 0 0 -2 2 2.015 2.015 0 0 0 2 2h2a2.006 2.006 0 0 0 2-2 2.015 2.015 0 0 0 -2-2z" fill="#3d9ae2"/><path d="m48 22-.33 4h-4.67v-4z" fill="#ebbf00"/><path d="m47.67 26-.34 4h-4.33v-4z" fill="#ffde55"/><path d="m47.33 30-.33 4h-4v-4z" fill="#ebbf00"/><circle cx="43" cy="41" fill="#57565c" r="2"/><path d="m39 30h4v4h-4z" fill="#ffde55"/><path d="m39 26h4v4h-4z" fill="#ebbf00"/><path d="m39 22h4v4h-4z" fill="#ffde55"/><path d="m42.41 53.59a1.955 1.955 0 0 1 .59 1.41 2.006 2.006 0 0 1 -2 2h-4a2.015 2.015 0 0 1 -2-2 2.006 2.006 0 0 1 2-2h4a1.955 1.955 0 0 1 1.41.59z" fill="#e6e7e8"/><path d="m35 30h4v4h-4z" fill="#ebbf00"/><path d="m35 26h4v4h-4z" fill="#ffde55"/><path d="m35 22h4v4h-4z" fill="#ebbf00"/><circle cx="35" cy="41" fill="#57565c" r="2"/><path d="m31 30h4v4h-4z" fill="#ffde55"/><path d="m31 26h4v4h-4z" fill="#ebbf00"/><path d="m31 22h4v4h-4z" fill="#ffde55"/><path d="m19 25h2v2h-2z" fill="#ffa733"/><path d="m32 6h2v2h-2z" fill="#3d9ae2"/><path d="m36 6h6v2h-6z" fill="#3d9ae2"/><path d="m50 40h-2a1 1 0 0 0 -1-1h-16a1 1 0 0 1 -1-1v-15.586l-1.414-1.414h-2.586v-2h3a1 1 0 0 1 .707.293l2 2a1 1 0 0 1 .293.707v15h15a3 3 0 0 1 3 3z" fill="#c6c5ca"/><g fill="#ffa733"><path d="m6 37h2v2h-2z"/><path d="m10 37h4v2h-4z"/><path d="m16 37h12v2h-12z"/><path d="m13 33h10v2h-10z"/><path d="m18 29h8v2h-8z"/><path d="m14 29h2v2h-2z"/><path d="m9 33h2v2h-2z"/></g><path d="m26.41 18.59a1.955 1.955 0 0 1 .59 1.41 2.006 2.006 0 0 1 -2 2h-2a2.015 2.015 0 0 1 -2-2 2.006 2.006 0 0 1 2-2h2a1.955 1.955 0 0 1 1.41.59z" fill="#ff9811"/></g></svg>