<!--
  - Copyright (c) 2023. Selldone® Business OS™
  -
  - Author: M.Pajuhaan
  - Web: https://selldone.com
  - ━━━━━━━━━━━━━━━━━━━━━━━━━━━━━━━━━━━━━━━━━━━━━━━━━━━━━━
  -
  - All rights reserved. In the weave of time, where traditions and innovations intermingle, this content was crafted.
  - From the essence of thought, through the corridors of creativity, each word, and sentiment has been molded.
  - Not just to exist, but to inspire. Like an artist's stroke or a sculptor's chisel, every nuance is deliberate.
  - Our journey is not just about reaching a destination, but about creating a masterpiece.
  - Tread carefully, for you're treading on dreams.
  -->

<svg id="Capa_1" enable-background="new 0 0 510 510" height="512" viewBox="0 0 510 510" width="512" xmlns="http://www.w3.org/2000/svg" xmlns:xlink="http://www.w3.org/1999/xlink"><linearGradient id="lg1"><stop offset="0" stop-color="#bbec6c"/><stop offset="1" stop-color="#81b823"/></linearGradient><linearGradient id="SVGID_1_" gradientUnits="userSpaceOnUse" x1="236.252" x2="372.554" xlink:href="#lg1" y1="218.824" y2="298.244"/><linearGradient id="lg2"><stop offset="0" stop-color="#8bc727"/><stop offset="1" stop-color="#017b4e"/></linearGradient><linearGradient id="SVGID_00000167395150258168332510000015879108662170364575_" gradientUnits="userSpaceOnUse" x1="240.361" x2="372.66" xlink:href="#lg2" y1="248.11" y2="279.681"/><linearGradient id="lg3"><stop offset="0" stop-color="#026841" stop-opacity="0"/><stop offset=".2391" stop-color="#0a6644" stop-opacity=".239"/><stop offset=".6113" stop-color="#20604d" stop-opacity=".611"/><stop offset="1" stop-color="#3e5959"/></linearGradient><linearGradient id="SVGID_00000131362487635792936630000000521834023450029957_" gradientUnits="userSpaceOnUse" x1="280.85" x2="380.479" xlink:href="#lg3" y1="175.658" y2="234.755"/><linearGradient id="SVGID_00000107552935157039621730000001795756519655767709_" gradientUnits="userSpaceOnUse" x1="265.556" x2="411.219" xlink:href="#lg3" y1="132.79" y2="219.194"/><linearGradient id="SVGID_00000054957875461471827630000006575658335344176518_" gradientUnits="userSpaceOnUse" x1="282.741" x2="410.476" xlink:href="#lg3" y1="41.334" y2="117.103"/><linearGradient id="SVGID_00000106122554040066232190000005994215226489097124_" gradientUnits="userSpaceOnUse" x1="254.513" x2="459.809" xlink:href="#lg3" y1="91.298" y2="213.075"/><linearGradient id="SVGID_00000076561678472553046510000003994308070172353714_" gradientUnits="userSpaceOnUse" x1="260.526" x2="465.823" xlink:href="#lg3" y1="60.666" y2="182.443"/><linearGradient id="SVGID_00000057113023554746027040000016331061377410297003_" gradientUnits="userSpaceOnUse" x1="205.664" x2="399.391" xlink:href="#lg3" y1="260.446" y2="375.36"/><linearGradient id="SVGID_00000088105549811884443640000012678980362156541339_" gradientUnits="userSpaceOnUse" x1="187.27" x2="382.535" xlink:href="#lg3" y1="288.633" y2="404.46"/><linearGradient id="SVGID_00000113354230199497369690000006368079234550121601_" gradientUnits="userSpaceOnUse" x1="178.617" x2="360.44" xlink:href="#lg3" y1="317.048" y2="424.901"/><linearGradient id="SVGID_00000047023482391105528750000012842324761327648935_" gradientUnits="userSpaceOnUse" x1="183.045" x2="344.14" xlink:href="#lg3" y1="352.576" y2="448.134"/><linearGradient id="SVGID_00000116921858726527051770000000526184336100208562_" gradientUnits="userSpaceOnUse" x1="191.321" x2="333.315" xlink:href="#lg3" y1="389.157" y2="473.384"/><linearGradient id="SVGID_00000078021990564357579810000001011454377930395568_" gradientUnits="userSpaceOnUse" x1="228.913" x2="404.889" xlink:href="#lg3" y1="243.869" y2="348.254"/><linearGradient id="SVGID_00000167374526537295909240000013300479085161236415_" gradientUnits="userSpaceOnUse" x1="257.125" x2="393.1" xlink:href="#lg3" y1="225.412" y2="306.07"/><linearGradient id="SVGID_00000014635759282268942860000002946974927179229111_" gradientUnits="userSpaceOnUse" x1="275.888" x2="380.178" xlink:href="#lg3" y1="201.573" y2="263.435"/><linearGradient id="SVGID_00000042725694917825049450000011567623990218354822_" gradientUnits="userSpaceOnUse" x1="332.218" x2="332.218" xlink:href="#lg3" y1="405.702" y2="494.673"/><linearGradient id="SVGID_00000171691533791840417620000017971365571928726427_" gradientUnits="userSpaceOnUse" x1="121.653" x2="211.153" xlink:href="#lg1" y1="290.184" y2="326.184"/><linearGradient id="SVGID_00000172406619939141434240000006403970319215868311_" gradientUnits="userSpaceOnUse" x1="135.939" x2="202.439" xlink:href="#lg2" y1="301.531" y2="315.531"/><linearGradient id="SVGID_00000096741601896246392970000012274511348472073364_" gradientTransform="matrix(-1 0 0 1 -825.658 0)" gradientUnits="userSpaceOnUse" x1="-1054.261" x2="-956.649" xlink:href="#lg3" y1="228.872" y2="286.773"/><linearGradient id="SVGID_00000015331338639672663090000006220073742429641389_" gradientTransform="matrix(-1 0 0 1 -825.658 0)" gradientUnits="userSpaceOnUse" x1="-1069.759" x2="-926.156" xlink:href="#lg3" y1="191.856" y2="277.038"/><linearGradient id="SVGID_00000016048595495555360630000002831264793241290893_" gradientTransform="matrix(-1 0 0 1 -825.658 0)" gradientUnits="userSpaceOnUse" x1="-1052.87" x2="-926.299" xlink:href="#lg3" y1="116.406" y2="191.485"/><linearGradient id="SVGID_00000126306648391594420860000011618448743198926756_" gradientTransform="matrix(-1 0 0 1 -825.658 0)" gradientUnits="userSpaceOnUse" x1="-1081.521" x2="-876.977" xlink:href="#lg3" y1="155.972" y2="277.303"/><linearGradient id="SVGID_00000036965757791462442150000017003025181871163023_" gradientTransform="matrix(-1 0 0 1 -825.658 0)" gradientUnits="userSpaceOnUse" x1="-1075.508" x2="-870.963" xlink:href="#lg3" y1="130.552" y2="251.883"/><linearGradient id="SVGID_00000140711269262917810140000008020240552836977087_" gradientTransform="matrix(-1 0 0 1 -825.658 0)" gradientUnits="userSpaceOnUse" x1="-1130.059" x2="-937.227" xlink:href="#lg3" y1="291.291" y2="405.674"/><linearGradient id="SVGID_00000070076893067433003280000010145266081768641200_" gradientTransform="matrix(-1 0 0 1 -825.658 0)" gradientUnits="userSpaceOnUse" x1="-1148.386" x2="-953.992" xlink:href="#lg3" y1="312.704" y2="428.014"/><linearGradient id="SVGID_00000007408719340628410410000016922501339755603601_" gradientTransform="matrix(-1 0 0 1 -825.658 0)" gradientUnits="userSpaceOnUse" x1="-1156.171" x2="-976.074" xlink:href="#lg3" y1="336.12" y2="442.949"/><linearGradient id="SVGID_00000042700582091135034990000011465051182685142432_" gradientTransform="matrix(-1 0 0 1 -825.658 0)" gradientUnits="userSpaceOnUse" x1="-1150.017" x2="-992.307" xlink:href="#lg3" y1="366.78" y2="460.33"/><linearGradient id="SVGID_00000016060333220624774550000000400575460930241189_" gradientTransform="matrix(-1 0 0 1 -825.658 0)" gradientUnits="userSpaceOnUse" x1="-1142.867" x2="-1002.779" xlink:href="#lg3" y1="396.946" y2="480.043"/><linearGradient id="SVGID_00000080910989096842049180000012160604863710622091_" gradientTransform="matrix(-1 0 0 1 -825.658 0)" gradientUnits="userSpaceOnUse" x1="-1106.604" x2="-931.922" xlink:href="#lg3" y1="280.009" y2="383.626"/><linearGradient id="SVGID_00000039112929482494820740000006402383433342689930_" gradientTransform="matrix(-1 0 0 1 -825.658 0)" gradientUnits="userSpaceOnUse" x1="-1078.456" x2="-943.502" xlink:href="#lg3" y1="267.341" y2="347.393"/><linearGradient id="SVGID_00000049900147211679100700000012050271380664896157_" gradientTransform="matrix(-1 0 0 1 -825.658 0)" gradientUnits="userSpaceOnUse" x1="-1059.597" x2="-956.383" xlink:href="#lg3" y1="249.496" y2="310.72"/><linearGradient id="SVGID_00000171705731385648869020000000223186334010656941_" gradientTransform="matrix(-1 0 0 1 -825.658 0)" gradientUnits="userSpaceOnUse" x1="-1003.44" x2="-1003.44" xlink:href="#lg3" y1="423.448" y2="497.281"/><linearGradient id="SVGID_00000173868731297963752600000017251950610580854699_" gradientUnits="userSpaceOnUse" x1="170.551" x2="224.053" xlink:href="#lg3" y1="309.184" y2="309.184"/><linearGradient id="SVGID_00000049203680575914175130000011668667156599021717_" gradientUnits="userSpaceOnUse" x1="355.777" x2="304.443" xlink:href="#lg3" y1="439.455" y2="432.455"/><linearGradient id="SVGID_00000069390769023020020270000000577924640266198710_" gradientUnits="userSpaceOnUse" x1="216.225" x2="275.225" xlink:href="#lg1" y1="23.748" y2="124.748"/><linearGradient id="SVGID_00000086654616915233431020000008322756940547428763_" gradientUnits="userSpaceOnUse" x1="230.52" x2="263.52" xlink:href="#lg2" y1="43.992" y2="111.492"/><linearGradient id="SVGID_00000161602357552370231190000001541087143615360444_" gradientUnits="userSpaceOnUse" x1="157.376" x2="273.042" xlink:href="#lg3" y1="82.111" y2="149.111"/><linearGradient id="SVGID_00000029763640322090032290000003481436578111949707_" gradientUnits="userSpaceOnUse" x1="174.016" x2="289.683" xlink:href="#lg3" y1="53.383" y2="120.383"/><linearGradient id="SVGID_00000110454645248199771960000016169489886308641949_" gradientUnits="userSpaceOnUse" x1="190.241" x2="305.908" xlink:href="#lg3" y1="25.373" y2="92.373"/><linearGradient id="SVGID_00000029021086301242249960000001928589291114523814_" gradientUnits="userSpaceOnUse" x1="210.904" x2="326.57" xlink:href="#lg3" y1="-10.299" y2="56.701"/><linearGradient id="SVGID_00000036969379816206715910000002829481608633203892_" gradientUnits="userSpaceOnUse" x1="256.934" x2="217.6" xlink:href="#lg3" y1="75.479" y2="134.813"/><linearGradient id="SVGID_00000176752631421318409270000017258439653280221353_" gradientUnits="userSpaceOnUse" x1="222.541" x2="355.541" xlink:href="#lg2" y1="337.62" y2="468.62"/><linearGradient id="SVGID_00000144309275851122710260000007020344941767656100_" gradientUnits="userSpaceOnUse" x1="315.471" x2="271.471" xlink:href="#lg3" y1="376.299" y2="390.799"/><linearGradient id="SVGID_00000183952226101151752580000006532389675742240922_" gradientUnits="userSpaceOnUse" x1="217.723" x2="292.389" xlink:href="#lg1" y1="287.795" y2="311.795"/><linearGradient id="SVGID_00000093162372860880101890000002692941531181766822_" gradientUnits="userSpaceOnUse" x1="193.214" x2="310.547" xlink:href="#lg2" y1="282.845" y2="333.512"/><linearGradient id="SVGID_00000039823137294516614330000000993241399973541513_" gradientUnits="userSpaceOnUse" x1="146.642" x2="323.308" xlink:href="#lg3" y1="175.035" y2="248.369"/><linearGradient id="SVGID_00000037683522795403251890000003881836995156398220_" gradientUnits="userSpaceOnUse" x1="159.364" x2="336.031" xlink:href="#lg3" y1="144.386" y2="217.719"/><linearGradient id="SVGID_00000014624737482554390300000003925234490924880771_" gradientUnits="userSpaceOnUse" x1="99.145" x2="275.812" xlink:href="#lg3" y1="289.458" y2="362.792"/><linearGradient id="SVGID_00000019644388252846760320000005279010345904193163_" gradientUnits="userSpaceOnUse" x1="86.117" x2="262.783" xlink:href="#lg3" y1="320.846" y2="394.179"/><linearGradient id="SVGID_00000091716522539984456840000008177787668967647161_" gradientUnits="userSpaceOnUse" x1="74.976" x2="251.642" xlink:href="#lg3" y1="347.685" y2="421.019"/><linearGradient id="SVGID_00000072989048775335325990000014203461233880669081_" gradientUnits="userSpaceOnUse" x1="62.801" x2="239.468" xlink:href="#lg3" y1="377.016" y2="450.349"/><linearGradient id="SVGID_00000032634027500652682160000014802791444560498362_" gradientUnits="userSpaceOnUse" x1="50.695" x2="227.362" xlink:href="#lg3" y1="406.179" y2="479.512"/><linearGradient id="SVGID_00000043454480297980290060000000413544520718379448_" gradientUnits="userSpaceOnUse" x1="108.398" x2="285.064" xlink:href="#lg3" y1="267.169" y2="340.502"/><linearGradient id="SVGID_00000068673010929379531050000001823952557744658872_" gradientUnits="userSpaceOnUse" x1="121.359" x2="298.026" xlink:href="#lg3" y1="235.943" y2="309.277"/><linearGradient id="SVGID_00000150825170005138482020000005630557885088058796_" gradientUnits="userSpaceOnUse" x1="134.386" x2="311.052" xlink:href="#lg3" y1="204.561" y2="277.895"/><linearGradient id="SVGID_00000019644514424932001930000006088099731549054376_" gradientUnits="userSpaceOnUse" x1="261.819" x2="261.819" xlink:href="#lg3" y1="422" y2="504.691"/><g><g><path d="m334.344 28.751c-3.067-4.618-10.186-3.085-11.1 2.383-2.877 17.202-10.351 43.409-29.69 69.001-32.803 43.411 8.917 67.516 10.044 123.116s-28.82 98.082-10.044 197.314c8.001 42.288 9.596 67.405 9.734 79.795.059 5.342 4.393 9.64 9.736 9.64h39.049c6.235 0 10.896-5.693 9.7-11.812-3.94-20.164-9.017-61.849 8.351-90.795 23.679-39.464-20.296-155.602-24.806-190.556s45.489-90.204 31.765-122.903c-10.481-24.972-30.055-46.086-42.739-65.183z" fill="url(#SVGID_1_)"/><path d="m333.126 28.751c-2.157-4.618-7.163-3.085-7.806 2.383-2.023 17.202-7.279 43.409-20.878 69.001-23.067 43.411 6.27 67.516 7.063 123.116s-20.266 98.082-7.063 197.314c5.627 42.288 6.748 67.405 6.845 79.795.042 5.342 3.089 9.64 6.846 9.64h27.46c4.384 0 7.662-5.693 6.821-11.812-2.771-20.164-6.341-61.849 5.872-90.795 16.651-39.464-14.272-155.602-17.444-190.556s31.988-90.204 22.337-122.903c-7.369-24.972-21.134-46.086-30.053-65.183z" fill="url(#SVGID_00000167395150258168332510000015879108662170364575_)"/><g><path d="m339.935 205.477c-.956-2.905-2.55-6.66-4.458-6.914-3.138-.417-3.411-1.461-4.366-5.218s-3.07-3.757-4.434 0c-.003.009-.007.019-.01.028-.643 1.744-1.705 1.744-2.348 0-.003-.009-.007-.018-.01-.028-1.364-3.757-3.479-3.757-4.434 0s-1.228 4.8-4.366 5.218c-1.908.254-3.502 4.009-4.458 6.914-.284.864-.031 2.347.362 2.113 1.669-.995 2.531 1.044 3.414 1.269 1.091.278 2.251-5.496 3.752-2.991.761 1.269 1.416 2.214 2.046 2.514.784.789 1.87.606 2.71-.636.007-.011.015-.022.022-.033 1.331-1.953 2.941-1.953 4.272 0 .007.011.015.022.022.033.841 1.242 1.926 1.424 2.71.636.63-.3 1.286-1.245 2.046-2.514 1.501-2.505 2.66 3.269 3.752 2.991.883-.225 1.745-2.264 3.414-1.269.393.234.646-1.25.362-2.113z" fill="url(#SVGID_00000131362487635792936630000000521834023450029957_)"/><path d="m347.204 171.939c-1.425-3.644-3.801-8.354-6.644-8.673-4.677-.524-5.083-1.833-6.507-6.545-1.423-4.712-4.575-4.712-6.608 0-.005.012-.01.023-.015.035-.958 2.188-2.541 2.188-3.5 0-.005-.012-.01-.023-.015-.035-2.033-4.712-5.185-4.712-6.608 0s-1.83 6.021-6.507 6.545c-2.844.318-5.219 5.029-6.644 8.673-.424 1.083-.047 2.945.54 2.65 2.487-1.248 3.772 1.31 5.088 1.592 1.627.348 3.355-6.893 5.592-3.752 1.133 1.592 2.11 2.777 3.049 3.153 1.168.989 2.786.76 4.039-.797.011-.014.022-.027.033-.041 1.984-2.45 4.384-2.45 6.367 0 .011.014.022.027.033.041 1.253 1.557 2.871 1.786 4.039.797.939-.376 1.916-1.561 3.049-3.153 2.237-3.142 3.965 4.1 5.592 3.752 1.316-.282 2.601-2.84 5.088-1.592.586.294.963-1.567.539-2.65z" fill="url(#SVGID_00000107552935157039621730000001795756519655767709_)"/><path d="m354.93 74.943c-1.265-2.784-3.373-6.384-5.896-6.627-4.15-.4-4.511-1.4-5.774-5.001s-4.06-3.601-5.865 0c-.004.009-.009.018-.013.027-.85 1.672-2.255 1.672-3.106 0-.004-.009-.009-.018-.013-.027-1.805-3.601-4.601-3.601-5.865 0-1.263 3.601-1.624 4.601-5.774 5.001-2.524.243-4.632 3.843-5.896 6.627-.376.828-.041 2.25.479 2.025 2.207-.954 3.348 1.001 4.515 1.216 1.444.266 2.977-5.268 4.962-2.867 1.006 1.217 1.873 2.122 2.706 2.41 1.037.756 2.473.581 3.584-.609.01-.01.02-.021.029-.031 1.76-1.872 3.89-1.872 5.651 0 .01.01.02.021.029.031 1.112 1.19 2.548 1.365 3.584.609.833-.288 1.7-1.193 2.706-2.41 1.985-2.401 3.519 3.133 4.962 2.867 1.168-.215 2.308-2.17 4.515-1.216.521.225.856-1.197.48-2.025z" fill="url(#SVGID_00000054957875461471827630000006575658335344176518_)"/><path d="m358.588 136.195c-2.053-3.644-5.475-8.354-9.572-8.673-6.738-.524-7.324-1.833-9.374-6.545-2.051-4.712-6.591-4.712-9.521 0-.007.012-.014.023-.022.035-1.381 2.188-3.661 2.188-5.042 0-.007-.012-.015-.023-.022-.035-2.929-4.712-7.47-4.712-9.521 0s-2.636 6.021-9.374 6.545c-4.097.318-7.519 5.029-9.572 8.673-.611 1.084-.067 2.945.777 2.65 3.583-1.248 5.435 1.31 7.33 1.592 2.344.348 4.834-6.893 8.056-3.752 1.633 1.592 3.04 2.777 4.393 3.153 1.683.989 4.014.76 5.819-.797.016-.014.032-.027.048-.041 2.858-2.45 6.316-2.45 9.174 0 .016.014.032.027.048.041 1.805 1.557 4.136 1.786 5.819.797 1.353-.376 2.76-1.561 4.393-3.153 3.222-3.142 5.712 4.1 8.056 3.752 1.895-.282 3.747-2.84 7.33-1.592.844.294 1.387-1.567.777-2.65z" fill="url(#SVGID_00000106122554040066232190000005994215226489097124_)"/><path d="m364.601 105.563c-2.053-3.644-5.475-8.354-9.572-8.673-6.738-.524-7.324-1.833-9.374-6.545-2.051-4.712-6.591-4.712-9.521 0-.007.012-.014.023-.022.035-1.381 2.188-3.661 2.188-5.042 0-.007-.012-.015-.023-.022-.035-2.929-4.712-7.47-4.712-9.521 0s-2.637 6.021-9.374 6.545c-4.097.318-7.519 5.029-9.572 8.673-.611 1.084-.067 2.945.777 2.65 3.583-1.248 5.435 1.31 7.33 1.592 2.344.348 4.834-6.893 8.056-3.752 1.633 1.592 3.04 2.777 4.393 3.153 1.683.989 4.014.76 5.819-.797.016-.014.032-.027.048-.041 2.858-2.45 6.316-2.45 9.173 0 .016.014.032.027.048.041 1.805 1.557 4.136 1.786 5.819.797 1.353-.376 2.76-1.561 4.393-3.153 3.222-3.142 5.712 4.1 8.056 3.752 1.895-.282 3.747-2.84 7.33-1.592.846.294 1.389-1.567.778-2.65z" fill="url(#SVGID_00000076561678472553046510000003994308070172353714_)"/><path d="m359.455 336.268c-1.934-3.644-5.157-8.354-9.015-8.673-6.345-.524-6.897-1.833-8.828-6.545s-6.207-4.712-8.966 0c-.007.012-.014.023-.021.035-1.3 2.188-3.448 2.188-4.749 0-.007-.012-.014-.023-.02-.035-2.759-4.712-7.035-4.712-8.966 0s-2.483 6.021-8.828 6.545c-3.858.318-7.081 5.029-9.015 8.673-.575 1.083-.063 2.945.732 2.65 3.375-1.248 5.118 1.31 6.903 1.592 2.207.348 4.552-6.893 7.587-3.752 1.538 1.592 2.863 2.777 4.137 3.153 1.585.989 3.78.76 5.48-.797.015-.014.03-.027.045-.041 2.692-2.45 5.948-2.45 8.639 0 .015.014.03.027.045.041 1.7 1.557 3.895 1.786 5.48.797 1.274-.376 2.599-1.561 4.137-3.153 3.035-3.142 5.38 4.1 7.587 3.752 1.785-.282 3.529-2.84 6.903-1.592.796.294 1.308-1.567.733-2.65z" fill="url(#SVGID_00000057113023554746027040000016331061377410297003_)"/><path d="m361.372 376.312c-1.95-3.644-5.199-8.354-9.089-8.673-6.398-.524-6.954-1.833-8.901-6.545s-6.259-4.712-9.04 0c-.007.012-.014.023-.021.035-1.311 2.188-3.477 2.188-4.788 0-.007-.012-.014-.023-.021-.035-2.782-4.712-7.093-4.712-9.04 0s-2.503 6.021-8.901 6.545c-3.89.318-7.14 5.029-9.089 8.673-.58 1.084-.064 2.945.738 2.65 3.402-1.248 5.161 1.31 6.96 1.592 2.225.348 4.59-6.893 7.65-3.752 1.551 1.592 2.887 2.777 4.171 3.153 1.598.989 3.812.76 5.526-.797.015-.014.03-.027.045-.041 2.714-2.45 5.997-2.45 8.711 0 .015.014.03.027.045.041 1.714 1.557 3.928 1.786 5.525.797 1.285-.376 2.621-1.561 4.171-3.153 3.06-3.142 5.424 4.1 7.649 3.752 1.8-.282 3.558-2.84 6.96-1.592.803.294 1.319-1.567.739-2.65z" fill="url(#SVGID_00000088105549811884443640000012678980362156541339_)"/><path d="m347.266 400.227c-5.94-.524-6.456-1.833-8.264-6.545s-5.811-4.712-8.393 0c-.006.012-.013.023-.019.035-1.217 2.188-3.228 2.188-4.445 0-.006-.012-.013-.023-.019-.035-2.582-4.712-6.585-4.712-8.393 0s-2.324 6.021-8.264 6.545c-2.664.235-5.002 2.86-6.773 5.683.185 1.751.377 3.515.584 5.304 2.182-.062 3.528 1.696 4.898 1.928 2.066.348 4.261-6.893 7.102-3.752 1.44 1.592 2.68 2.777 3.873 3.153 1.483.989 3.539.76 5.13-.797.014-.014.028-.027.042-.041 2.519-2.45 5.568-2.45 8.087 0 .014.014.028.027.042.041 1.591 1.557 3.646 1.786 5.13.797 1.193-.376 2.433-1.561 3.873-3.153 2.841-3.142 5.036 4.1 7.102 3.752 1.671-.282 3.303-2.84 6.462-1.592.744.294 1.224-1.567.685-2.65-1.812-3.644-4.829-8.355-8.44-8.673z" fill="url(#SVGID_00000113354230199497369690000006368079234550121601_)"/><path d="m340.435 427.818c-1.808-4.712-5.811-4.712-8.393 0-.006.012-.013.023-.019.035-1.217 2.188-3.228 2.188-4.445 0-.006-.012-.013-.023-.019-.035-2.582-4.712-6.585-4.712-8.393 0s-2.324 6.021-8.264 6.545c-1.603.141-3.088 1.15-4.403 2.545.383 3.237.738 6.358 1.064 9.353.74.445 1.391.906 2.048 1.017 2.066.348 4.261-6.893 7.102-3.752 1.439 1.592 2.68 2.777 3.873 3.153 1.483.989 3.539.76 5.13-.797.014-.014.028-.027.042-.041 2.519-2.45 5.568-2.45 8.087 0 .014.014.028.027.042.041 1.591 1.557 3.646 1.786 5.13.797 1.193-.376 2.433-1.561 3.873-3.153 2.841-3.142 5.036 4.1 7.102 3.752.027-.005.055-.015.082-.021.24-3.99.61-7.996 1.13-11.967-.794-.512-1.631-.85-2.503-.927-5.942-.524-6.458-1.833-8.266-6.545z" fill="url(#SVGID_00000047023482391105528750000012842324761327648935_)"/><path d="m344.687 461.953c-1.808-4.712-5.811-4.712-8.393 0-.006.012-.013.023-.019.035-1.217 2.188-3.228 2.188-4.445 0-.006-.012-.013-.023-.019-.035-2.582-4.712-6.585-4.712-8.393 0s-2.324 6.021-8.264 6.545c-1.935.171-3.696 1.606-5.195 3.458.208 2.762.385 5.352.536 7.785 1.344.486 2.35 1.5 3.368 1.671 2.066.348 4.261-6.893 7.102-3.752 1.439 1.592 2.68 2.777 3.873 3.153 1.484.989 3.539.76 5.13-.797.014-.014.028-.027.042-.041 2.519-2.449 5.568-2.449 8.087 0 .014.014.028.027.042.041 1.591 1.557 3.646 1.786 5.13.797 1.193-.376 2.433-1.561 3.873-3.153 1.156-1.279 2.204-.828 3.181.121-.213-3.129-.385-6.391-.493-9.757-3.087-.769-3.722-2.367-5.143-6.071z" fill="url(#SVGID_00000116921858726527051770000000526184336100208562_)"/><path d="m355.712 305.909c-1.748-3.644-4.662-8.354-8.15-8.673-5.737-.524-6.236-1.833-7.982-6.545s-5.612-4.712-8.106 0c-.006.012-.012.023-.019.035-1.176 2.188-3.118 2.188-4.293 0-.006-.012-.012-.023-.019-.035-2.494-4.712-6.36-4.712-8.106 0s-2.245 6.021-7.982 6.545c-3.488.318-6.402 5.029-8.15 8.673-.52 1.084-.057 2.945.662 2.65 3.051-1.248 4.627 1.31 6.241 1.592 1.995.348 4.116-6.893 6.859-3.752 1.39 1.592 2.588 2.777 3.74 3.153 1.433.989 3.418.76 4.955-.797l.041-.041c2.433-2.45 5.377-2.45 7.811 0 .013.014.027.027.04.041 1.537 1.557 3.522 1.786 4.955.797 1.152-.376 2.35-1.561 3.74-3.153 2.744-3.142 4.864 4.1 6.859 3.752 1.614-.282 3.19-2.84 6.241-1.592.72.294 1.183-1.567.663-2.65z" fill="url(#SVGID_00000078021990564357579810000001011454377930395568_)"/><path d="m349.261 269.918c-1.35-2.828-3.601-6.485-6.296-6.732-4.432-.406-4.817-1.423-6.166-5.081s-4.335-3.658-6.262 0c-.005.009-.01.018-.014.027-.908 1.698-2.408 1.698-3.316 0-.005-.009-.01-.018-.014-.027-1.927-3.658-4.913-3.658-6.262 0s-1.734 4.674-6.166 5.081c-2.695.247-4.945 3.904-6.296 6.732-.402.841-.044 2.286.511 2.057 2.357-.969 3.575 1.017 4.821 1.236 1.541.27 3.179-5.351 5.299-2.912 1.074 1.236 1.999 2.156 2.889 2.448 1.107.768 2.64.59 3.827-.619.01-.011.021-.021.031-.032 1.88-1.902 4.154-1.902 6.034 0 .01.011.021.021.031.032 1.187 1.209 2.721 1.387 3.827.619.89-.292 1.815-1.212 2.889-2.448 2.119-2.439 3.757 3.183 5.299 2.912 1.247-.219 2.464-2.204 4.821-1.236.557.228.914-1.216.513-2.057z" fill="url(#SVGID_00000167374526537295909240000013300479085161236415_)"/><path d="m342.922 234.019c-1.03-2.353-2.747-5.394-4.802-5.6-3.38-.338-3.674-1.183-4.703-4.226s-3.306-3.043-4.776 0c-.004.008-.007.015-.011.022-.693 1.413-1.837 1.413-2.529 0-.004-.007-.007-.015-.011-.022-1.47-3.043-3.747-3.043-4.776 0s-1.323 3.888-4.702 4.226c-2.055.206-3.772 3.247-4.802 5.6-.306.7-.034 1.901.39 1.711 1.798-.806 2.726.846 3.677 1.028 1.176.225 2.425-4.451 4.041-2.423.819 1.028 1.525 1.793 2.204 2.036.844.639 2.014.491 2.919-.515.008-.009.016-.018.024-.026 1.434-1.582 3.168-1.582 4.602 0 .008.009.016.018.024.026.905 1.006 2.075 1.154 2.919.515.679-.243 1.385-1.008 2.204-2.036 1.616-2.029 2.866 2.648 4.041 2.423.951-.182 1.88-1.834 3.677-1.028.424.19.697-1.011.39-1.711z" fill="url(#SVGID_00000014635759282268942860000002946974927179229111_)"/></g><path d="m293.554 420.565c8.001 42.288 9.596 67.405 9.734 79.795.059 5.342 4.393 9.64 9.736 9.64h39.049c6.235 0 10.896-5.693 9.7-11.812-3.94-20.164-9.017-61.849 8.351-90.795 8.159-13.598 8.284-36.3 4.761-61.647h-87.273c-.894 21.196.402 45.535 5.942 74.819z" fill="url(#SVGID_00000042725694917825049450000011567623990218354822_)"/></g><g><path d="m175.656 110.635c3.067-3.833 10.186-2.56 11.1 1.978 2.877 14.275 10.351 36.023 29.69 57.261 32.803 36.024-8.917 56.028-10.044 102.168s28.82 81.394 10.044 163.741c-8.001 35.093-9.596 55.936-9.734 66.218-.059 4.433-4.393 8-9.736 8h-39.049c-6.235 0-10.896-4.724-9.7-9.802 3.94-16.733 9.017-51.325-8.351-75.346-23.679-32.749 20.296-129.126 24.806-158.133s-45.489-74.856-31.765-101.991c10.481-20.724 30.055-38.246 42.739-54.094z" fill="url(#SVGID_00000171691533791840417620000017971365571928726427_)"/><path d="m176.874 110.635c2.157-3.833 7.163-2.56 7.806 1.978 2.023 14.275 7.279 36.023 20.878 57.261 23.067 36.024-6.27 56.028-7.063 102.168s20.266 81.394 7.063 163.741c-5.627 35.093-6.748 55.936-6.845 66.218-.042 4.433-3.089 8-6.846 8h-27.46c-4.384 0-7.662-4.724-6.821-9.802 2.771-16.733 6.341-51.325-5.872-75.346-16.651-32.749 14.272-129.126 17.444-158.133s-31.989-74.856-22.337-101.991c7.369-20.724 21.134-38.246 30.053-54.094z" fill="url(#SVGID_00000172406619939141434240000006403970319215868311_)"/><g><path d="m170.065 257.291c.956-2.411 2.55-5.527 4.458-5.738 3.138-.346 3.411-1.212 4.366-4.33s3.07-3.118 4.434 0c.003.008.007.015.01.023.643 1.447 1.705 1.447 2.348 0 .003-.008.007-.015.01-.023 1.364-3.118 3.479-3.118 4.434 0s1.228 3.984 4.366 4.33c1.908.211 3.502 3.327 4.458 5.738.284.717.031 1.948-.362 1.753-1.669-.826-2.531.867-3.414 1.053-1.092.23-2.251-4.561-3.752-2.482-.76 1.053-1.416 1.837-2.046 2.086-.784.654-1.87.503-2.71-.527-.007-.009-.015-.018-.022-.027-1.331-1.621-2.941-1.621-4.272 0-.007.009-.015.018-.022.027-.841 1.03-1.926 1.182-2.71.527-.63-.249-1.286-1.033-2.046-2.086-1.501-2.078-2.661 2.713-3.752 2.482-.883-.186-1.745-1.879-3.414-1.053-.393.195-.646-1.036-.362-1.753z" fill="url(#SVGID_00000096741601896246392970000012274511348472073364_)"/><path d="m162.796 229.46c1.425-3.024 3.801-6.933 6.644-7.197 4.677-.434 5.083-1.521 6.507-5.431 1.423-3.911 4.575-3.911 6.608 0 .005.01.01.019.015.029.958 1.816 2.541 1.816 3.5 0 .005-.01.01-.019.015-.029 2.033-3.911 5.185-3.911 6.608 0s1.83 4.997 6.507 5.431c2.844.264 5.219 4.173 6.644 7.197.424.899.047 2.443-.54 2.199-2.487-1.036-3.772 1.087-5.088 1.321-1.627.289-3.355-5.72-5.592-3.113-1.133 1.321-2.11 2.304-3.049 2.617-1.168.821-2.786.631-4.039-.662-.011-.011-.022-.023-.033-.034-1.984-2.033-4.384-2.033-6.367 0-.011.011-.022.023-.033.034-1.253 1.292-2.871 1.482-4.039.662-.939-.312-1.916-1.296-3.049-2.617-2.237-2.607-3.965 3.403-5.592 3.113-1.316-.234-2.601-2.356-5.088-1.321-.586.244-.963-1.3-.539-2.199z" fill="url(#SVGID_00000015331338639672663090000006220073742429641389_)"/><path d="m155.07 148.968c1.265-2.311 3.373-5.298 5.896-5.5 4.15-.332 4.511-1.162 5.774-4.15s4.06-2.988 5.865 0c.004.007.009.015.013.022.85 1.387 2.255 1.387 3.106 0 .004-.007.009-.015.013-.022 1.804-2.988 4.601-2.988 5.865 0 1.263 2.988 1.624 3.818 5.774 4.15 2.524.202 4.632 3.189 5.896 5.5.376.687.041 1.867-.479 1.681-2.207-.791-3.348.831-4.515 1.009-1.444.221-2.977-4.371-4.962-2.379-1.006 1.01-1.873 1.761-2.706 2-1.037.627-2.473.482-3.584-.506-.01-.009-.02-.017-.029-.026-1.76-1.553-3.89-1.553-5.651 0-.01.009-.02.017-.029.026-1.112.988-2.548 1.133-3.584.506-.833-.239-1.7-.99-2.706-2-1.985-1.992-3.519 2.6-4.962 2.379-1.168-.179-2.308-1.801-4.515-1.009-.521.186-.856-.994-.48-1.681z" fill="url(#SVGID_00000016048595495555360630000002831264793241290893_)"/><path d="m151.412 199.798c2.053-3.024 5.475-6.933 9.572-7.197 6.738-.434 7.324-1.521 9.374-5.431 2.051-3.911 6.591-3.911 9.521 0 .007.01.014.019.022.029 1.381 1.816 3.661 1.816 5.042 0 .007-.01.015-.019.022-.029 2.929-3.911 7.47-3.911 9.521 0s2.637 4.997 9.374 5.431c4.097.264 7.519 4.173 9.572 7.197.611.899.067 2.443-.777 2.199-3.583-1.036-5.435 1.087-7.33 1.321-2.344.289-4.834-5.72-8.056-3.113-1.633 1.321-3.04 2.304-4.393 2.617-1.683.821-4.014.631-5.819-.662-.016-.011-.032-.023-.048-.034-2.858-2.033-6.316-2.033-9.174 0-.016.011-.032.023-.048.034-1.805 1.292-4.136 1.482-5.819.662-1.353-.312-2.76-1.296-4.393-2.617-3.222-2.607-5.712 3.403-8.056 3.113-1.895-.234-3.747-2.356-7.33-1.321-.844.244-1.387-1.3-.777-2.199z" fill="url(#SVGID_00000126306648391594420860000011618448743198926756_)"/><path d="m145.399 174.378c2.053-3.024 5.475-6.933 9.572-7.197 6.738-.434 7.324-1.521 9.374-5.431 2.051-3.911 6.591-3.911 9.521 0 .007.01.014.019.022.029 1.381 1.816 3.661 1.816 5.042 0 .007-.01.015-.019.022-.029 2.929-3.911 7.47-3.911 9.521 0s2.636 4.997 9.374 5.431c4.097.264 7.519 4.173 9.572 7.197.611.899.067 2.443-.777 2.199-3.583-1.036-5.435 1.087-7.33 1.321-2.344.289-4.834-5.72-8.056-3.113-1.633 1.321-3.04 2.304-4.393 2.617-1.683.821-4.014.631-5.819-.662-.016-.011-.032-.023-.048-.034-2.858-2.033-6.316-2.033-9.174 0-.016.011-.032.023-.048.034-1.805 1.292-4.136 1.482-5.819.662-1.353-.312-2.76-1.296-4.393-2.617-3.222-2.607-5.712 3.403-8.056 3.113-1.895-.234-3.747-2.356-7.33-1.321-.845.244-1.388-1.3-.777-2.199z" fill="url(#SVGID_00000036965757791462442150000017003025181871163023_)"/><path d="m150.545 365.828c1.934-3.024 5.157-6.933 9.015-7.197 6.345-.434 6.897-1.521 8.828-5.431 1.931-3.911 6.207-3.911 8.966 0 .007.01.014.019.02.029 1.3 1.816 3.448 1.816 4.749 0 .007-.01.014-.019.02-.029 2.759-3.911 7.035-3.911 8.966 0s2.483 4.997 8.828 5.431c3.858.264 7.081 4.173 9.015 7.197.575.899.063 2.444-.732 2.199-3.375-1.036-5.118 1.087-6.903 1.321-2.207.289-4.552-5.72-7.587-3.113-1.538 1.321-2.863 2.304-4.137 2.617-1.585.821-3.78.631-5.48-.662-.015-.011-.03-.023-.045-.034-2.692-2.033-5.948-2.033-8.639 0-.015.011-.03.023-.045.034-1.7 1.292-3.895 1.483-5.48.662-1.274-.312-2.599-1.296-4.137-2.617-3.035-2.607-5.38 3.403-7.587 3.113-1.785-.234-3.529-2.356-6.903-1.321-.795.245-1.307-1.299-.732-2.199z" fill="url(#SVGID_00000140711269262917810140000008020240552836977087_)"/><path d="m148.628 399.059c1.95-3.024 5.199-6.933 9.089-7.197 6.398-.434 6.954-1.521 8.901-5.431 1.947-3.911 6.259-3.911 9.04 0 .007.01.014.019.021.029 1.311 1.816 3.477 1.816 4.788 0 .007-.01.014-.019.021-.029 2.782-3.911 7.093-3.911 9.04 0s2.503 4.997 8.901 5.431c3.89.264 7.14 4.173 9.089 7.197.58.899.064 2.444-.738 2.199-3.403-1.036-5.161 1.087-6.96 1.321-2.225.289-4.59-5.72-7.65-3.113-1.551 1.321-2.887 2.304-4.171 2.617-1.598.821-3.812.631-5.525-.662-.015-.011-.03-.023-.045-.034-2.714-2.033-5.997-2.033-8.711 0-.015.011-.03.023-.045.034-1.714 1.292-3.928 1.482-5.525.662-1.285-.312-2.621-1.296-4.171-2.617-3.06-2.607-5.424 3.403-7.649 3.113-1.8-.234-3.558-2.356-6.96-1.321-.804.244-1.32-1.3-.74-2.199z" fill="url(#SVGID_00000070076893067433003280000010145266081768641200_)"/><path d="m162.734 418.905c5.94-.435 6.456-1.521 8.264-5.431 1.808-3.911 5.811-3.911 8.393 0 .006.01.013.019.019.029 1.217 1.816 3.228 1.816 4.445 0 .006-.01.013-.019.019-.029 2.582-3.911 6.585-3.911 8.393 0s2.324 4.997 8.264 5.431c2.664.195 5.002 2.373 6.773 4.716-.185 1.453-.377 2.917-.584 4.401-2.182-.052-3.528 1.408-4.898 1.6-2.066.289-4.261-5.721-7.102-3.113-1.44 1.321-2.68 2.304-3.873 2.617-1.483.821-3.539.631-5.13-.662-.014-.011-.028-.023-.042-.034-2.519-2.033-5.567-2.033-8.087 0-.014.011-.028.023-.042.034-1.591 1.292-3.646 1.482-5.13.662-1.193-.312-2.433-1.296-3.873-2.617-2.841-2.607-5.036 3.403-7.102 3.113-1.671-.234-3.303-2.357-6.462-1.321-.744.244-1.224-1.3-.685-2.199 1.812-3.024 4.829-6.933 8.44-7.197z" fill="url(#SVGID_00000007408719340628410410000016922501339755603601_)"/><path d="m169.565 441.801c1.808-3.911 5.81-3.911 8.393 0 .006.01.013.019.019.029 1.217 1.816 3.228 1.816 4.445 0 .006-.01.013-.019.019-.029 2.582-3.911 6.585-3.911 8.393 0s2.324 4.997 8.264 5.431c1.603.117 3.088.954 4.403 2.112-.383 2.686-.738 5.276-1.064 7.762-.739.369-1.391.752-2.048.844-2.066.289-4.261-5.72-7.102-3.113-1.439 1.321-2.68 2.304-3.873 2.617-1.483.821-3.539.631-5.13-.662-.014-.011-.028-.023-.042-.034-2.519-2.033-5.567-2.033-8.087 0-.014.011-.028.023-.042.034-1.591 1.292-3.646 1.483-5.13.662-1.193-.312-2.433-1.296-3.873-2.617-2.841-2.607-5.036 3.403-7.102 3.113-.027-.004-.055-.012-.082-.017-.24-3.311-.61-6.636-1.13-9.931.794-.425 1.631-.705 2.503-.769 5.942-.435 6.458-1.522 8.266-5.432z" fill="url(#SVGID_00000042700582091135034990000011465051182685142432_)"/><path d="m165.313 470.128c1.808-3.911 5.81-3.911 8.393 0 .006.01.013.019.019.029 1.217 1.816 3.228 1.816 4.445 0 .006-.01.013-.019.019-.029 2.582-3.911 6.585-3.911 8.393 0s2.324 4.997 8.264 5.431c1.935.142 3.696 1.333 5.195 2.87-.208 2.292-.385 4.441-.536 6.461-1.344.403-2.35 1.245-3.368 1.387-2.066.289-4.261-5.721-7.102-3.113-1.439 1.321-2.68 2.304-3.873 2.617-1.484.821-3.539.631-5.13-.662-.014-.011-.028-.023-.042-.034-2.519-2.033-5.567-2.033-8.087 0-.014.011-.028.023-.042.034-1.591 1.292-3.646 1.482-5.13.662-1.193-.312-2.433-1.296-3.873-2.617-1.156-1.061-2.204-.688-3.181.1.213-2.596.385-5.303.493-8.097 3.087-.639 3.722-1.965 5.143-5.039z" fill="url(#SVGID_00000016060333220624774550000000400575460930241189_)"/><path d="m154.288 340.635c1.748-3.024 4.662-6.933 8.15-7.197 5.737-.434 6.236-1.521 7.982-5.431 1.746-3.911 5.612-3.911 8.106 0 .006.01.012.019.019.029 1.176 1.816 3.118 1.816 4.293 0 .006-.01.012-.019.019-.029 2.494-3.911 6.36-3.911 8.106 0s2.245 4.997 7.982 5.431c3.488.264 6.402 4.173 8.15 7.197.52.899.057 2.444-.662 2.199-3.051-1.036-4.627 1.087-6.241 1.321-1.995.289-4.116-5.72-6.859-3.113-1.39 1.321-2.588 2.304-3.74 2.617-1.433.821-3.418.631-4.955-.662-.014-.011-.027-.023-.04-.034-2.433-2.033-5.377-2.033-7.811 0-.013.011-.027.023-.04.034-1.537 1.292-3.522 1.482-4.955.662-1.152-.312-2.35-1.296-3.74-2.617-2.744-2.607-4.864 3.403-6.859 3.113-1.614-.234-3.19-2.356-6.241-1.321-.721.245-1.184-1.3-.664-2.199z" fill="url(#SVGID_00000080910989096842049180000012160604863710622091_)"/><path d="m160.739 310.768c1.35-2.347 3.601-5.382 6.296-5.587 4.432-.337 4.817-1.18 6.166-4.216s4.335-3.036 6.262 0c.005.008.01.015.014.022.908 1.409 2.408 1.409 3.316 0 .005-.007.01-.015.014-.022 1.927-3.036 4.913-3.036 6.262 0s1.734 3.879 6.166 4.216c2.695.205 4.945 3.24 6.296 5.587.402.698.044 1.897-.511 1.707-2.357-.804-3.575.844-4.821 1.025-1.541.224-3.179-4.441-5.299-2.417-1.074 1.026-1.999 1.789-2.889 2.031-1.107.637-2.64.49-3.827-.514-.01-.009-.021-.018-.031-.026-1.88-1.578-4.154-1.578-6.034 0-.01.009-.021.018-.031.026-1.187 1.003-2.721 1.151-3.827.514-.89-.242-1.815-1.006-2.889-2.031-2.119-2.024-3.757 2.641-5.299 2.417-1.247-.182-2.464-1.829-4.821-1.025-.557.189-.914-1.009-.513-1.707z" fill="url(#SVGID_00000039112929482494820740000006402383433342689930_)"/><path d="m167.078 280.977c1.03-1.952 2.747-4.477 4.802-4.647 3.38-.281 3.674-.982 4.702-3.507 1.029-2.525 3.306-2.525 4.776 0 .004.006.007.012.011.019.693 1.172 1.837 1.172 2.529 0 .004-.006.007-.012.011-.019 1.47-2.525 3.747-2.525 4.776 0s1.323 3.227 4.702 3.507c2.055.171 3.772 2.695 4.802 4.647.306.581.034 1.578-.39 1.42-1.798-.669-2.726.702-3.677.853-1.176.187-2.425-3.694-4.041-2.01-.819.853-1.525 1.488-2.204 1.69-.844.53-2.014.407-2.919-.427-.008-.007-.016-.015-.024-.022-1.434-1.313-3.168-1.313-4.602 0-.008.007-.016.015-.024.022-.905.835-2.075.957-2.919.427-.679-.202-1.385-.837-2.204-1.69-1.616-1.683-2.866 2.197-4.041 2.01-.951-.151-1.88-1.522-3.677-.853-.423.158-.696-.839-.389-1.42z" fill="url(#SVGID_00000049900147211679100700000012050271380664896157_)"/></g><path d="m216.446 435.782c-8.001 35.093-9.596 55.936-9.734 66.218-.059 4.433-4.393 8-9.736 8h-39.049c-6.235 0-10.896-4.724-9.7-9.802 3.94-16.733 9.017-51.325-8.351-75.346-8.159-11.284-8.284-30.124-4.761-51.157h87.273c.894 17.588-.402 37.786-5.942 62.087z" fill="url(#SVGID_00000171705731385648869020000000223186334010656941_)"/></g><path d="m175.656 110.635c3.067-3.833 10.186-2.56 11.1 1.978 2.877 14.275 10.351 36.023 29.69 57.261 32.803 36.024-8.917 56.028-10.044 102.168s28.82 81.394 10.044 163.741c-8.001 35.093-9.596 55.936-9.734 66.218-.059 4.433-4.393 8-9.736 8h-39.049c-6.235 0-10.896-4.724-9.7-9.802 3.94-16.733 9.017-51.325-8.351-75.346-23.679-32.749 20.296-129.126 24.806-158.133s-45.489-74.856-31.765-101.991c10.481-20.724 30.055-38.246 42.739-54.094z" fill="url(#SVGID_00000173868731297963752600000017251950610580854699_)"/><path d="m303.288 500.36c.059 5.342 4.393 9.64 9.736 9.64h39.049c6.235 0 10.896-5.693 9.7-11.812-3.48-17.81-7.836-52.406 3.161-80.188l-62.251-62.251h-15.313c-.147 18.794 1.494 40.029 6.184 64.816 8.002 42.288 9.597 67.405 9.734 79.795z" fill="url(#SVGID_00000049203680575914175130000011668667156599021717_)"/><g><path d="m225.496 74.386s19.859-38.63 32.363-69.928c2.737-6.85 12.831-5.473 13.639 1.859 4.875 44.246 7.435 125.656-32.625 162.202-.001 0-42.61-31.84-13.377-94.133z" fill="url(#SVGID_00000069390769023020020270000000577924640266198710_)"/><path d="m230.32 159.783c14.351-20.81 46.674-77.634 38.26-157.671-.161-1.528-2.312-1.733-2.761-.264-6.632 21.713-29.01 92.032-49.951 123.859 2.045 15.61 8.789 26.989 14.452 34.076z" fill="url(#SVGID_00000086654616915233431020000008322756940547428763_)"/><g><path d="m239.996 120.09c-.01.01-.03.01-.04.02-2.4 1.46-5.04.45-5.85-2.24 0-.01-.01-.02-.01-.04-1.69-5.77-6.96-7.78-11.05-4.22-.04.04-.09.08-.13.11-2.35 4.4-4.71 8.43-7.05 11.99.24 1.85.55 3.65.92 5.38.41.44.84.82 1.29 1.12 1.59 1.69 4.38 2.5 7.04 1.83.02-.01.04-.01.07-.02 4.2-1.06 8.21.48 10.64 4.07.01.02.03.04.04.06 1.35 2.01 3.54 3.21 5.61 3.35 3-5.52 6.12-11.83 9.16-18.9-1.47-4.06-6.12-5.32-10.64-2.51z" fill="url(#SVGID_00000161602357552370231190000001541087143615360444_)"/><path d="m250.396 90.1c-.01 0-.02.01-.03.02-1.83 1.11-3.84.34-4.46-1.71 0-.01 0-.02-.01-.03-1.28-4.4-5.3-5.93-8.41-3.22-.7.61-1.29 1.12-1.85 1.53-1.43 3.36-2.87 6.67-4.33 9.89.77 1.22 1.53 2.17 2.39 2.75 1.21 1.29 3.34 1.91 5.36 1.4.02-.01.04-.01.05-.02 3.21-.8 6.26.37 8.11 3.1.01.02.02.03.03.05 1.17 1.73 3.16 2.69 4.93 2.54 1.3.19 2.87-.19 4.75-.79.09-.03.18-.05.26-.06.9-2.64 1.77-5.35 2.61-8.13-.61-1.05-.77-2.28-.99-4.1-.51-4.1-4.52-5.64-8.41-3.22z" fill="url(#SVGID_00000029763640322090032290000003481436578111949707_)"/><path d="m258.606 58.82c-.01 0-.02.01-.03.01-1.49.91-3.14.28-3.64-1.39 0-.01-.01-.02-.01-.03-1.04-3.54-4.25-4.82-6.78-2.71-1.3 3.6-2.66 7.24-4.06 10.89.27.31.56.58.86.78 1 1.05 2.73 1.56 4.39 1.14.01-.01.03-.01.04-.01 2.62-.66 5.12.29 6.63 2.53.01.01.02.03.03.04.95 1.42 2.58 2.2 4.02 2.08 1.06.15 2.35-.16 3.89-.65.88-.28 1.52-.06 2.03.4.38-2.04.73-4.1 1.06-6.19-1.15-1.07-1.3-2.22-1.55-4.26-.42-3.35-3.7-4.61-6.88-2.63z" fill="url(#SVGID_00000110454645248199771960000016169489886308641949_)"/><path d="m268.576 2.11c-.16-1.53-2.31-1.73-2.76-.26-1.5 4.91-3.81 12.32-6.73 21.21-1.39 4.23-2.91 8.79-4.55 13.59.5.03 1.01-.01 1.51-.14.02-.01.03-.01.05-.01 2.62-.66 5.11.29 6.63 2.53 0 .01.01.03.02.04.95 1.42 2.59 2.2 4.03 2.08.81.12 1.76-.04 2.85-.34.23-4.43.35-8.97.32-13.6v-.01c-.02-8.08-.46-16.45-1.37-25.09z" fill="url(#SVGID_00000029021086301242249960000001928589291114523814_)"/></g><path d="m225.496 74.386s19.859-38.63 32.363-69.928c2.737-6.85 12.831-5.473 13.639 1.859 4.875 44.246 7.435 125.656-32.625 162.202-.001 0-42.61-31.84-13.377-94.133z" fill="url(#SVGID_00000036969379816206715910000002829481608633203892_)"/><path d="m249.697 282.708s8.501 34.538 46.154 61.168 4.979 152.514 4.979 152.514-20.99-106.517-51.133-143.96 0-69.722 0-69.722z" fill="url(#SVGID_00000176752631421318409270000017258439653280221353_)"/><path d="m249.697 282.708s8.501 34.538 46.154 61.168 4.979 152.514 4.979 152.514-20.99-106.517-51.133-143.96 0-69.722 0-69.722z" fill="url(#SVGID_00000144309275851122710260000007020344941767656100_)"/><path d="m282.298 510h-41.976c-10.312 0-18.551-8.464-18.422-18.776.631-50.379 29.11-99.924 11.029-124.036-44.589-59.448-29.504-127.822-5.946-166.465 14.204-23.296-57.959-38.643-1.501-126.308-.62 1.156-18.732 36.379 14.883 80.23 34.175 44.589 50.535 72.83 26.751 147.149-15.786 49.345 22.815 102.628 34.434 185.97 1.634 11.736-7.402 22.236-19.252 22.236z" fill="url(#SVGID_00000183952226101151752580000006532389675742240922_)"/><path d="m285.193 487.763c-11.619-83.341-50.22-136.625-34.434-185.97 23.784-74.319 7.424-102.56-26.751-147.149-.103-.135-.206-.269-.308-.403-15.131-19.902-16.966-46.944-4.865-68.79-43.679 77.972 21.732 92.991 8.146 115.273-23.558 38.643-38.643 107.017 5.946 166.465 18.081 24.112-10.397 73.658-11.029 124.036-.128 10.311 8.111 18.775 18.423 18.775h25.621c11.85 0 20.887-10.5 19.251-22.237z" fill="url(#SVGID_00000093162372860880101890000002692941531181766822_)"/><g><path d="m228.476 197.3c-.3 1.13-.79 2.26-1.49 3.42-3.1 5.08-6.05 10.67-8.73 16.69 2.5-.46 5.1.11 7.38 1.71.02.01.04.02.06.04 2.24 1.58 5.13 1.81 7.22.81 1.68-.39 3.43-1.59 5.46-3.21 4-3.19 7.09 4.17 10.01 3.81 2.35-.28 4.65-2.88 9.1-1.61 1.05.3 1.72-1.59.97-2.69-2.55-3.7-6.81-8.49-11.89-8.81-8.37-.53-9.1-1.86-11.65-6.65-1.45-2.73-3.92-3.9-6.44-3.51z" fill="url(#SVGID_00000039823137294516614330000000993241399973541513_)"/><path d="m226.716 180.19c2.35-.29 4.65-2.89 9.1-1.62 1.05.3 1.72-1.59.97-2.69-2.55-3.7-6.8-8.48-11.89-8.81-8.37-.53-9.1-1.86-11.65-6.64-1.2-2.25-3.08-3.45-5.12-3.58 3.1 7.39 7.34 13.46 11.17 18.78 2.8.49 5.17 4.83 7.42 4.56z" fill="url(#SVGID_00000037683522795403251890000003881836995156398220_)"/><path d="m234.316 351.91c2.35-.29 4.65-2.89 9.11-1.62 1.04.3 1.72-1.59.96-2.69-2.55-3.7-6.8-8.48-11.89-8.81-8.37-.53-9.1-1.86-11.64-6.64-1.84-3.47-5.31-4.42-8.46-2.87 2.47 6.93 5.57 13.84 9.36 20.69.81-.52 1.65-1.15 2.55-1.87 4.01-3.19 7.1 4.16 10.01 3.81z" fill="url(#SVGID_00000014624737482554390300000003925234490924880771_)"/><path d="m252.806 390.96c1.04.3 1.72-1.59.96-2.69-2.55-3.7-6.8-8.49-11.89-8.81-1.51-.09-2.77-.21-3.83-.38.66 3.22.92 6.69.87 10.37 1.71 1.41 3.27 3.31 4.78 3.12 2.35-.28 4.65-2.88 9.11-1.61z" fill="url(#SVGID_00000019644388252846760320000005279010345904193163_)"/><path d="m240.106 405.91c-.65-1.22-1.5-2.13-2.47-2.73-1.08 6.92-2.75 14.35-4.6 22.14 1.76.54 3.61.45 5.07-.26 1.68-.38 3.43-1.58 5.46-3.2 4-3.19 7.09 4.16 10 3.81 2.36-.29 4.66-2.88 9.11-1.62 1.05.3 1.72-1.59.97-2.69-2.56-3.7-6.81-8.48-11.89-8.81-8.37-.53-9.1-1.86-11.65-6.64z" fill="url(#SVGID_00000091716522539984456840000008177787668967647161_)"/><path d="m246.096 440.57c-2.54-4.78-8.18-4.78-11.82 0-.01.02-.02.03-.03.04-1.37 1.77-3.45 2.13-5.11 1.07-1.3 5.61-2.57 11.35-3.67 17.17 3.54-2.46 7.82-2.45 11.35.03.02.01.04.03.06.04 2.24 1.58 5.13 1.81 7.22.81 1.68-.38 3.43-1.59 5.46-3.2 4-3.19 7.1 4.16 10.01 3.81 2.35-.29 4.65-2.89 9.1-1.62 1.05.3 1.72-1.59.97-2.69-2.55-3.7-6.8-8.49-11.89-8.81-8.37-.53-9.1-1.86-11.65-6.65z" fill="url(#SVGID_00000072989048775335325990000014203461233880669081_)"/><path d="m275.626 490.69c-2.55-3.7-6.8-8.48-11.89-8.8-8.37-.53-9.1-1.86-11.65-6.65-2.54-4.79-8.18-4.79-11.82 0-.01.01-.02.02-.03.04-1.71 2.22-4.55 2.22-6.26 0-.01-.02-.02-.03-.03-.04-3.22-4.24-8-4.73-10.82-1.47-.71 5.78-1.16 11.61-1.23 17.45-.01.78.03 1.55.11 2.31.73.41 1.43.71 2.12.87 2.09 1 4.98.77 7.22-.81.02-.02.04-.03.06-.05 3.55-2.48 7.85-2.48 11.4 0 .02.02.04.03.06.05 2.24 1.58 5.13 1.81 7.22.81 1.69-.39 3.43-1.59 5.46-3.21 4-3.19 7.1 4.17 10.01 3.81 2.35-.28 4.65-2.88 9.1-1.61 1.05.3 1.73-1.59.97-2.7z" fill="url(#SVGID_00000032634027500652682160000014802791444560498362_)"/><path d="m218.306 317.27c4.01-3.19 7.1 4.16 10.01 3.81 2.35-.29 4.65-2.89 9.11-1.62 1.04.3 1.72-1.59.96-2.69-2.55-3.7-6.8-8.49-11.89-8.81-8.37-.53-9.1-1.86-11.64-6.65-2.06-3.86-6.14-4.6-9.55-2.23.86 7.27 2.31 14.62 4.43 21.98 1.11.05 2.2-.15 3.12-.59 1.68-.38 3.43-1.59 5.45-3.2z" fill="url(#SVGID_00000043454480297980290060000000413544520718379448_)"/><path d="m211.566 284.71c.02.02.04.03.06.05 2.24 1.58 5.14 1.81 7.23.81 1.68-.39 3.43-1.59 5.45-3.21 4.01-3.19 7.1 4.17 10.01 3.81 2.35-.28 4.65-2.88 9.11-1.61 1.04.29 1.72-1.6.96-2.7-2.55-3.7-6.8-8.48-11.89-8.8-8.37-.53-9.1-1.86-11.64-6.65-2.55-4.79-8.19-4.79-11.83 0-.01.01-.02.02-.02.04-1.1 1.42-2.65 1.93-4.07 1.54-.45 4.91-.68 9.92-.64 15 2.47-.43 5.02.15 7.27 1.72z" fill="url(#SVGID_00000068673010929379531050000001823952557744658872_)"/><path d="m210.116 249.22c3.55-2.49 7.85-2.49 11.4 0 .02.01.04.03.06.04 2.24 1.58 5.13 1.81 7.22.81 1.68-.38 3.43-1.59 5.46-3.2 4-3.19 7.1 4.16 10.01 3.81 2.35-.29 4.65-2.89 9.1-1.62 1.05.3 1.72-1.59.97-2.69-2.55-3.7-6.8-8.49-11.89-8.81-8.37-.53-9.1-1.86-11.65-6.65-2.54-4.78-8.18-4.78-11.82 0-.01.02-.02.03-.03.04-1.65 2.15-4.37 2.22-6.08.21-2.09 6.12-3.88 12.56-5.28 19.24.86-.22 1.7-.6 2.47-1.14.02-.01.04-.03.06-.04z" fill="url(#SVGID_00000150825170005138482020000005630557885088058796_)"/></g><path d="m221.899 491.224c-.129 10.312 8.11 18.776 18.422 18.776h41.976c11.85 0 20.887-10.5 19.25-22.237-4.842-34.735-14.371-64.246-22.696-90.43h-40.434c-2.782 25.754-16.088 59.628-16.518 93.891z" fill="url(#SVGID_00000019644514424932001930000006088099731549054376_)"/></g></g></svg>