

<svg id="Capa_1" enable-background="new 0 0 510 510" height="512" viewBox="0 0 510 510" width="512" xmlns="http://www.w3.org/2000/svg" xmlns:xlink="http://www.w3.org/1999/xlink"><linearGradient id="lg1"><stop offset="0" stop-color="#00adfb"/><stop offset="1" stop-color="#3f3ced"/></linearGradient><linearGradient id="SVGID_1_" gradientUnits="userSpaceOnUse" x1="255" x2="255" xlink:href="#lg1" y1="10.085" y2="130.605"/><linearGradient id="lg2"><stop offset="0" stop-color="#00adfb" stop-opacity="0"/><stop offset="1" stop-color="#18cefb"/></linearGradient><linearGradient id="SVGID_2_" gradientUnits="userSpaceOnUse" x1="255" x2="255" xlink:href="#lg2" y1="63.125" y2="-10.223"/><linearGradient id="lg3"><stop offset="0" stop-color="#3f3ced" stop-opacity="0"/><stop offset="1" stop-color="#2f43bb"/></linearGradient><linearGradient id="SVGID_3_" gradientUnits="userSpaceOnUse" x1="178.637" x2="102.098" xlink:href="#lg3" y1="118.746" y2="69.178"/><linearGradient id="SVGID_4_" gradientUnits="userSpaceOnUse" x1="220.912" x2="339.777" xlink:href="#lg1" y1="258.656" y2="427.81"/><linearGradient id="SVGID_5_" gradientUnits="userSpaceOnUse" x1="249.593" x2="152.108" xlink:href="#lg2" y1="296.402" y2="241.641"/><linearGradient id="SVGID_6_" gradientUnits="userSpaceOnUse" x1="209.477" x2="241.949" xlink:href="#lg3" y1="323.025" y2="295.049"/><linearGradient id="SVGID_7_" gradientUnits="userSpaceOnUse" x1="299.549" x2="271.224" xlink:href="#lg3" y1="223.853" y2="250.672"/><linearGradient id="SVGID_8_" gradientUnits="userSpaceOnUse" x1="97.376" x2="589.731" xlink:href="#lg1" y1="164.911" y2="493.148"/><linearGradient id="SVGID_9_" gradientUnits="userSpaceOnUse" x1="291.3" x2="-56.477" xlink:href="#lg2" y1="297.828" y2="123.939"/><path d="m349.476 24.538c-58.735-32.717-130.216-32.717-188.951 0-21.95 12.227-35.557 35.382-35.557 60.507v38.531l35.557-19.806c58.735-32.717 130.216-32.717 188.951 0l35.557 19.806v-38.531c0-25.125-13.607-48.28-35.557-60.507z" fill="url(#SVGID_1_)"/><path d="m349.476 36.89c-58.735-32.717-130.217-32.717-188.952 0-21.95 12.227-35.557 35.382-35.557 60.507v26.179l35.557-19.806c58.735-32.717 130.216-32.717 188.951 0l35.557 19.806v-26.178c0-25.126-13.606-48.281-35.556-60.508z" fill="url(#SVGID_2_)"/><path d="m134.254 50.415c-5.977 10.352-9.287 22.25-9.287 34.63v38.531l35.557-19.806c5.938-3.307 12.011-6.263 18.183-8.902z" fill="url(#SVGID_3_)"/><path d="m107.536 507.024 225.24-254.423c18.465-20.857 35.799-44.941 48.067-70.775 18.991-39.991 18.458-86.68-2.025-125.929-1.042-1.996-2.069-3.844-3.068-5.488 3.32 7.256 2.063 15.786-3.21 21.774l-305.649 347.152c-2.131 2.411-2.777 5.792-1.684 8.819l27.456 76.031c2.27 6.288 10.446 7.848 14.873 2.839z" fill="url(#SVGID_4_)"/><path d="m332.776 252.602c18.465-20.857 35.799-44.941 48.067-70.775 15.939-33.564 18.118-71.845 6.299-106.486.575 5.521-1.127 11.148-4.922 15.459l-305.65 347.15c-2.131 2.411-2.777 5.792-1.684 8.819l22.569 62.499c3.297 1.41 7.382.809 10.08-2.243z" fill="url(#SVGID_5_)"/><path d="m259.381 335.516-27.752 31.339-59.754-66.759 27.676-31.435z" fill="url(#SVGID_6_)"/><path d="m336.99 247.754c-1.382 1.639-2.796 3.256-4.209 4.852l-23.499 26.541-59.969-67.006 27.676-31.436z" fill="url(#SVGID_7_)"/><path d="m402.464 507.024-225.24-254.423c-18.465-20.857-35.799-44.941-48.067-70.775-18.991-39.991-18.458-86.68 2.025-125.929 1.042-1.996 2.07-3.844 3.068-5.488-3.32 7.256-2.063 15.786 3.21 21.774l305.65 347.151c2.131 2.411 2.777 5.792 1.684 8.819l-27.456 76.031c-2.271 6.289-10.447 7.849-14.874 2.84z" fill="url(#SVGID_8_)"/><path d="m443.109 419.335-298.49-339.019c-12.093 34.829-9.99 73.406 6.059 107.2 12.268 25.834 29.602 49.918 48.067 70.775l218.293 246.576c.103-.225.213-.444.299-.683l27.456-76.031c1.093-3.025.447-6.407-1.684-8.818z" fill="url(#SVGID_9_)"/></svg>