

<svg id="Capa_1" enable-background="new 0 0 510 510" height="512" viewBox="0 0 510 510" width="512" xmlns="http://www.w3.org/2000/svg" xmlns:xlink="http://www.w3.org/1999/xlink"><linearGradient id="lg1"><stop offset="0" stop-color="#fee45a"/><stop offset="1" stop-color="#fea613"/></linearGradient><linearGradient id="SVGID_1_" gradientUnits="userSpaceOnUse" x1="144.309" x2="232.588" xlink:href="#lg1" y1="68.662" y2="156.941"/><linearGradient id="lg2"><stop offset="0" stop-color="#fea613" stop-opacity="0"/><stop offset="1" stop-color="#e94444"/></linearGradient><linearGradient id="SVGID_00000050634780936049150220000011289517579554089127_" gradientUnits="userSpaceOnUse" x1="182.41" x2="191.743" xlink:href="#lg2" y1="97.757" y2="139.09"/><linearGradient id="SVGID_00000028324606814346093130000013466791260209511356_" gradientUnits="userSpaceOnUse" x1="193.892" x2="270.225" xlink:href="#lg2" y1="93.674" y2="30.601"/><linearGradient id="SVGID_00000003068793168972696280000005432226120193164674_" gradientUnits="userSpaceOnUse" x1="197.502" x2="209.687" xlink:href="#lg2" y1="115.948" y2="53.233"/><linearGradient id="SVGID_00000179645977016548360270000004141186662139950720_" gradientUnits="userSpaceOnUse" x1="319.748" x2="399.15" xlink:href="#lg1" y1="71.095" y2="150.497"/><linearGradient id="SVGID_00000024693839571508564600000017050037697680042165_" gradientUnits="userSpaceOnUse" x1="330.663" x2="317.329" xlink:href="#lg2" y1="93.04" y2="135.707"/><linearGradient id="SVGID_00000001649179071244793650000015084600727475995290_" gradientTransform="matrix(-1 0 0 1 -1750.263 0)" gradientUnits="userSpaceOnUse" x1="-2066.371" x2="-1990.038" xlink:href="#lg2" y1="93.674" y2="30.601"/><linearGradient id="SVGID_00000150811341905794905430000012554170370921918593_" gradientTransform="matrix(-1 0 0 1 -1750.263 0)" gradientUnits="userSpaceOnUse" x1="-2062.761" x2="-2050.577" xlink:href="#lg2" y1="115.948" y2="53.233"/><linearGradient id="SVGID_00000169556043711505675170000010989616219679230138_" gradientTransform="matrix(.844 -.537 .537 .844 -1019.307 119.448)" gradientUnits="userSpaceOnUse" x1="1077.589" x2="1080.804" xlink:href="#lg1" y1="656.607" y2="717.468"/><linearGradient id="lg3"><stop offset="0" stop-color="#d9b1ee"/><stop offset="1" stop-color="#814aa0"/></linearGradient><linearGradient id="SVGID_00000013159896205091411800000002705288943383300480_" gradientUnits="userSpaceOnUse" x1="201.759" x2="349.759" xlink:href="#lg3" y1="243.458" y2="551.458"/><linearGradient id="lg4"><stop offset="0" stop-color="#5b3374" stop-opacity="0"/><stop offset="1" stop-color="#5b3374"/></linearGradient><linearGradient id="SVGID_00000047759672179589826090000010566341100024465572_" gradientUnits="userSpaceOnUse" x1="255" x2="255" xlink:href="#lg4" y1="407" y2="233.584"/><linearGradient id="SVGID_00000071551859516271432800000015721873222402580917_" gradientUnits="userSpaceOnUse" x1="368" x2="296.468" xlink:href="#lg4" y1="354.257" y2="354.257"/><linearGradient id="SVGID_00000066515129249794764650000012173642791368576676_" gradientUnits="userSpaceOnUse" x1="255" x2="255" xlink:href="#lg4" y1="452.667" y2="499.333"/><linearGradient id="SVGID_00000057862732920715470790000014075879408240732849_" gradientUnits="userSpaceOnUse" x1="205.812" x2="304.188" xlink:href="#lg1" y1="356.924" y2="356.924"/><linearGradient id="SVGID_00000016792817107608505120000014658975935217366463_" gradientUnits="userSpaceOnUse" x1="255" x2="255" xlink:href="#lg2" y1="340.667" y2="241.012"/><linearGradient id="SVGID_00000008148379404653195080000013575709505240967041_" gradientUnits="userSpaceOnUse" x1="255" x2="255" xlink:href="#lg3" y1="144" y2="263.08"/><linearGradient id="SVGID_00000130617829054530679000000012968099002927879566_" gradientUnits="userSpaceOnUse" x1="332.532" x2="260.532" xlink:href="#lg4" y1="179.804" y2="70.804"/><linearGradient id="SVGID_00000132793092443688904700000009893071831106929081_" gradientUnits="userSpaceOnUse" x1="368" x2="296.468" xlink:href="#lg4" y1="197.181" y2="197.181"/><linearGradient id="SVGID_00000109711426820125591360000011287978082164781453_" gradientUnits="userSpaceOnUse" x1="359.817" x2="328.817" xlink:href="#lg4" y1="269.653" y2="173.653"/><linearGradient id="SVGID_00000037670169066545122720000016899386740684367748_" gradientUnits="userSpaceOnUse" x1="229.769" x2="289.769" xlink:href="#lg1" y1="178.678" y2="222.678"/><linearGradient id="SVGID_00000047762192925841544550000005327594784625165246_" gradientUnits="userSpaceOnUse" x1="276.316" x2="234.316" xlink:href="#lg2" y1="234.705" y2="145.705"/><linearGradient id="SVGID_00000019638133875415941060000014895431497048999310_" gradientUnits="userSpaceOnUse" x1="183.196" x2="208.216" xlink:href="#lg1" y1="139.762" y2="164.782"/><linearGradient id="SVGID_00000000191155899783099440000008994356039336691345_" gradientTransform="matrix(-1 0 0 1 375.752 0)" gradientUnits="userSpaceOnUse" x1="48.948" x2="73.968" xlink:href="#lg1" y1="139.762" y2="164.782"/><g><g><g><g><path d="m239.264 91.374v34.414c0 13.299-7.644 25.426-19.632 31.157l-46.197 22.104c-16.546 7.924-35.919-3.075-37.607-21.341l-1.785-19.438c-.828-9.009 1.043-17.718 4.989-25.265 5.978-11.407 5.236-25.147-1.871-35.887-9.988-15.116-14.256-33.941-10.687-52.949 2.637-14.016 14.878-24.169 29.14-24.169h.005c16.762 0 32.838 6.66 44.689 18.515l14.97 14.975c15.352 15.352 23.986 36.177 23.986 57.884z" fill="url(#SVGID_1_)"/></g><path d="m235.44 66.67h-104.01c1.62 3.64 3.54 7.13 5.73 10.45 7.11 10.74 7.85 24.48 1.87 35.88-3.94 7.55-5.82 16.26-4.99 25.27l1.79 19.44c1.69 18.26 21.06 29.26 37.6 21.34l46.2-22.11c11.99-5.73 19.63-17.85 19.63-31.15v-34.42c0-8.46-1.31-16.78-3.82-24.7z" fill="url(#SVGID_00000050634780936049150220000011289517579554089127_)"/><path d="m233.823 110.863c0-30.749-27.196-55.676-60.744-55.676-15.512 0-29.658 5.337-40.393 14.107 1.333 2.696 2.817 5.315 4.474 7.824 7.106 10.74 7.848 24.48 1.871 35.887-3.946 7.547-5.816 16.256-4.989 25.265l1.501 16.35c10.334 7.458 23.363 11.92 37.536 11.92 33.549-.001 60.744-24.928 60.744-55.677z" fill="url(#SVGID_00000028324606814346093130000013466791260209511356_)"/><ellipse cx="198.208" cy="112.315" fill="url(#SVGID_00000003068793168972696280000005432226120193164674_)" rx="47.168" ry="27.464"/><g><path d="m370.964 113.005c3.956 7.547 5.827 16.256 4.988 25.265l-1.785 19.438c-1.677 18.266-21.051 29.264-37.607 21.341l-46.187-22.104c-11.998-5.73-19.632-17.858-19.632-31.157v-34.418c0-21.709 8.624-42.53 23.975-57.881l14.984-14.981c11.85-11.851 27.922-18.508 44.681-18.508 14.262 0 26.503 10.153 29.14 24.168 3.58 19.008-.699 37.833-10.687 52.949-7.095 10.741-7.836 24.481-1.87 35.888z" fill="url(#SVGID_00000179645977016548360270000004141186662139950720_)"/></g><path d="m372.84 77.12c2.19-3.32 4.11-6.81 5.73-10.45h-104.01c-2.51 7.92-3.82 16.24-3.82 24.7v34.42c0 13.3 7.64 25.42 19.63 31.15l46.19 22.11c16.56 7.92 35.93-3.08 37.61-21.34l1.78-19.44c.84-9.01-1.03-17.72-4.99-25.27-5.96-11.4-5.22-25.14 1.88-35.88z" fill="url(#SVGID_00000024693839571508564600000017050037697680042165_)"/><g><path d="m276.177 110.863c0-30.749 27.196-55.676 60.744-55.676 15.512 0 29.658 5.337 40.393 14.107-1.333 2.696-2.816 5.315-4.474 7.824-7.106 10.74-7.848 24.48-1.871 35.887 3.946 7.547 5.816 16.256 4.989 25.265l-1.501 16.35c-10.334 7.458-23.363 11.92-37.536 11.92-33.549-.001-60.744-24.928-60.744-55.677z" fill="url(#SVGID_00000001649179071244793650000015084600727475995290_)"/><ellipse cx="311.792" cy="112.315" fill="url(#SVGID_00000150811341905794905430000012554170370921918593_)" rx="47.168" ry="27.464"/></g></g><g><path d="m292.802 111.776c.298 20.874-16.386 38.037-37.264 38.335s-38.044-16.383-38.342-37.257 16.386-38.037 37.264-38.335c20.878-.297 38.045 16.383 38.342 37.257z" fill="url(#SVGID_00000169556043711505675170000010989616219679230138_)"/></g></g><g><path d="m462.21 504.667h-414.42c-13.371 0-24.21-10.839-24.21-24.21v-252.4c0-13.371 10.839-24.21 24.21-24.21h414.42c13.371 0 24.21 10.839 24.21 24.21v252.399c0 13.372-10.839 24.211-24.21 24.211z" fill="url(#SVGID_00000013159896205091411800000002705288943383300480_)"/><path d="m462.21 203.848h-414.42c-13.371 0-24.21 10.839-24.21 24.21v25.409s136.22 143.395 242.942 251.2h195.688c13.371 0 24.21-10.839 24.21-24.21v-252.4c0-13.37-10.839-24.209-24.21-24.209z" fill="url(#SVGID_00000047759672179589826090000010566341100024465572_)"/><path d="m255 203.848h153.667v300.819h-153.667z" fill="url(#SVGID_00000071551859516271432800000015721873222402580917_)"/><path d="m23.58 383v97.457c0 13.371 10.839 24.21 24.21 24.21h414.42c13.371 0 24.21-10.839 24.21-24.21v-97.457z" fill="url(#SVGID_00000066515129249794764650000012173642791368576676_)"/><path d="m291.094 510h-72.188c-7.232 0-13.094-5.862-13.094-13.094v-279.964c0-7.232 5.862-13.094 13.094-13.094h72.188c7.232 0 13.094 5.862 13.094 13.094v279.964c0 7.232-5.862 13.094-13.094 13.094z" fill="url(#SVGID_00000057862732920715470790000014075879408240732849_)"/><path d="m205.812 216.942v225.884c20.548 21.075 41.126 42.057 60.711 61.841h35.101c1.605-2.173 2.565-4.852 2.565-7.761v-279.964c0-7.232-5.862-13.094-13.094-13.094h-72.188c-7.233 0-13.095 5.862-13.095 13.094z" fill="url(#SVGID_00000016792817107608505120000014658975935217366463_)"/><path d="m476.35 255h-442.7c-18.584 0-33.65-15.066-33.65-33.65v-48.338c0-18.584 15.066-33.65 33.65-33.65h442.7c18.584 0 33.65 15.066 33.65 33.65v48.338c0 18.584-15.066 33.65-33.65 33.65z" fill="url(#SVGID_00000008148379404653195080000013575709505240967041_)"/><path d="m476.35 139.362h-297.462l-37.161 37.161 78.478 78.477h256.145c18.584 0 33.65-15.066 33.65-33.65v-48.338c0-18.585-15.066-33.65-33.65-33.65z" fill="url(#SVGID_00000130617829054530679000000012968099002927879566_)"/><path d="m255 139.362h153.667v115.638h-153.667z" fill="url(#SVGID_00000132793092443688904700000009893071831106929081_)"/><path d="m455.17 255h-200.17v-86.94h113.23z" fill="url(#SVGID_00000109711426820125591360000011287978082164781453_)"/><path d="m297.579 261.031h-85.158c-3.65 0-6.61-2.959-6.61-6.61v-114.48c0-3.65 2.959-6.61 6.61-6.61h85.158c3.65 0 6.61 2.959 6.61 6.61v114.48c-.001 3.65-2.96 6.61-6.61 6.61z" fill="url(#SVGID_00000037670169066545122720000016899386740684367748_)"/><path d="m304.19 139.94v114.48c0 3.65-2.96 6.61-6.61 6.61h-71.35l-20.42-20.42v-100.67c0-.2.01-.39.03-.58.29-3.38 3.13-6.03 6.58-6.03h85.16c3.45 0 6.29 2.65 6.58 6.03.02.19.03.38.03.58z" fill="url(#SVGID_00000047762192925841544550000005327594784625165246_)"/></g><g><path d="m255 133.331-.791-.526c-26.976-17.919-62.845-14.337-85.745 8.563l-26.691 26.691c-3.786 3.786-1.104 10.259 4.249 10.259h3.094c10.222 0 18.508 8.286 18.508 18.508 0 5.354 6.473 8.035 10.259 4.249l59.958-59.958c4.588-4.588 10.685-7.355 17.159-7.786z" fill="url(#SVGID_00000019638133875415941060000014895431497048999310_)"/><path d="m255 133.331.791-.526c26.976-17.919 62.845-14.337 85.745 8.563l26.691 26.691c3.786 3.786 1.105 10.259-4.249 10.259h-3.094c-10.222 0-18.508 8.286-18.508 18.508 0 5.354-6.473 8.035-10.259 4.249l-59.958-59.958c-4.588-4.588-10.685-7.355-17.159-7.786z" fill="url(#SVGID_00000000191155899783099440000008994356039336691345_)"/></g></g></svg>