<svg id="Icons" height="512" viewBox="0 0 60 60" width="512" xmlns="http://www.w3.org/2000/svg">
    <path d="m47 59h-34a3 3 0 0 1 -3-3v-21.89a3 3 0 0 1 .722-1.953l10.378-12.109a3 3 0 0 1 2.28-1.048h23.62a3 3 0 0 1 3 3v34a3 3 0 0 1 -3 3z"
          fill="#4793ff"/>
    <rect fill="#fff" height="6" rx="2" width="6" x="27" y="37"/>
    <path d="m33 39h4v-7h-9.021l-4.979 5.809v8.191h17a1 1 0 0 0 1-1v-16a1 1 0 0 0 -1-1h-13.4a1 1 0 0 0 -.759.349l-6.6 7.7a1 1 0 0 0 -.241.651v12.3a1 1 0 0 0 1 1h24a1 1 0 0 0 1-1v-24a1 1 0 0 0 -1-1h-19.24a1 1 0 0 0 -.759.349l-8.76 10.22a1.006 1.006 0 0 0 -.241.652v17.779a1 1 0 0 0 1 1h30a1 1 0 0 1 0 2h-30a3 3 0 0 1 -3-3v-17.779a3 3 0 0 1 .723-1.952l8.758-10.221a3 3 0 0 1 2.279-1.048h19.24a3 3 0 0 1 3 3v24a3 3 0 0 1 -3 3h-24a3 3 0 0 1 -3-3v-12.3a3 3 0 0 1 .723-1.952l6.6-7.7a3 3 0 0 1 2.277-1.048h13.4a3 3 0 0 1 3 3v16a3 3 0 0 1 -3 3h-17a2 2 0 0 1 -2-2v-8.19a2 2 0 0 1 .483-1.3l4.978-5.81a2 2 0 0 1 1.518-.7h9.021a2 2 0 0 1 2 2v7a2 2 0 0 1 -2 2h-4z"
          fill="#3376c4"/>
    <g fill="#f96378">
        <path d="m36.02 14.73a1 1 0 0 1 -.751-.339 7 7 0 0 0 -10.538 0 1 1 0 0 1 -1.5-1.321 9 9 0 0 1 13.542 0 1 1 0 0 1 -.751 1.66z"/>
        <path d="m39.78 11.44a1 1 0 0 1 -.753-.341 11.989 11.989 0 0 0 -18.054 0 1 1 0 0 1 -1.506-1.317 13.991 13.991 0 0 1 21.066 0 1 1 0 0 1 -.753 1.658z"/>
        <path d="m43.54 8.15a1 1 0 0 1 -.754-.342 16.978 16.978 0 0 0 -25.572 0 1 1 0 0 1 -1.508-1.315 18.98 18.98 0 0 1 28.588 0 1 1 0 0 1 -.754 1.657z"/>
    </g>
</svg>