<svg height="512pt" viewBox="0 0 512.00068 512" width="512pt" xmlns="http://www.w3.org/2000/svg" xmlns:xlink="http://www.w3.org/1999/xlink"><radialGradient id="a" cx="182.7021585048" cy="153.2396611786" gradientUnits="userSpaceOnUse" r="348.3359363422"><stop offset="0" stop-color="#fffcf8"/><stop offset=".2239" stop-color="#fbf9f7"/><stop offset=".4254" stop-color="#f0f1f3"/><stop offset=".6183" stop-color="#dee3ed"/><stop offset=".8059" stop-color="#c4d0e4"/><stop offset=".9882" stop-color="#a3b7d9"/><stop offset="1" stop-color="#a1b5d8"/></radialGradient><linearGradient id="b" gradientUnits="userSpaceOnUse" x1="407.0004195888" x2="250.6494065244" y1="320.169000357" y2="163.8180876848"><stop offset="0" stop-color="#a1b5d8" stop-opacity="0"/><stop offset=".2632" stop-color="#8ea0ba" stop-opacity=".262745"/><stop offset=".5306" stop-color="#808fa3" stop-opacity=".529412"/><stop offset=".7822" stop-color="#778595" stop-opacity=".780392"/><stop offset="1" stop-color="#748290"/></linearGradient><linearGradient id="c"><stop offset="0" stop-color="#ff4974"/><stop offset=".3262" stop-color="#fe4672"/><stop offset=".5324" stop-color="#fb3e6c"/><stop offset=".7054" stop-color="#f52f60"/><stop offset=".8591" stop-color="#ee1a51"/><stop offset="1" stop-color="#e4003d"/></linearGradient><radialGradient id="d" cx="214.7829879758" cy="262.8492706294" gradientUnits="userSpaceOnUse" r="67.9972433352" xlink:href="#c"/><radialGradient id="e" cx="182.7021585048" cy="153.2396611786" gradientUnits="userSpaceOnUse" r="348.3359363422" xlink:href="#c"/><radialGradient id="f" cx="197.7985351876" cy="204.8189649102" gradientUnits="userSpaceOnUse" r="216.4161682854" xlink:href="#c"/><linearGradient id="g"><stop offset="0" stop-color="#e4003d" stop-opacity="0"/><stop offset=".2023" stop-color="#d01544" stop-opacity=".203922"/><stop offset=".4993" stop-color="#b92d4c" stop-opacity=".498039"/><stop offset=".7732" stop-color="#ab3c51" stop-opacity=".772549"/><stop offset="1" stop-color="#a64153"/></linearGradient><linearGradient id="h" gradientUnits="userSpaceOnUse" x1="403.4110972622" x2="187.1981227896" xlink:href="#g" y1="443.2238359772" y2="227.0108615046"/><linearGradient id="i" gradientUnits="userSpaceOnUse" x1="466.8718178638" x2="250.6596465288" xlink:href="#g" y1="379.7625130224" y2="163.5502412952"/><linearGradient id="j" gradientUnits="userSpaceOnUse" x1="437.076015257" x2="220.8631411766" xlink:href="#g" y1="409.5586168058" y2="193.3457427254"/><linearGradient id="k"><stop offset="0" stop-color="#3b395f"/><stop offset=".0633" stop-color="#37355a"/><stop offset=".4033" stop-color="#232543"/><stop offset=".7232" stop-color="#171b35"/><stop offset="1" stop-color="#131830"/></linearGradient><linearGradient id="l" gradientTransform="matrix(.709873 .709873 -.709873 .709873 353.1776 -508.328355)" gradientUnits="userSpaceOnUse" x1="468.9221" x2="483.4793" xlink:href="#k" y1="624.5371" y2="624.5371"/><linearGradient id="m"><stop offset="0" stop-color="#ffc738"/><stop offset=".4286" stop-color="#ffbb23"/><stop offset="1" stop-color="#ffa700"/></linearGradient><linearGradient id="n" gradientTransform="matrix(.709873 .709873 -.709873 .709873 353.1776 -508.328355)" gradientUnits="userSpaceOnUse" x1="421.3387" x2="469.9084" xlink:href="#m" y1="357.5683" y2="357.5683"/><linearGradient id="o" gradientTransform="matrix(-.709873 -.709873 -.709873 .709873 1435.267313 573.761358)" gradientUnits="userSpaceOnUse" x1="1005.8648" x2="1054.4344" xlink:href="#m" y1="357.5683" y2="357.5683"/><linearGradient id="p" gradientTransform="matrix(.709873 .709873 -.709873 .709873 353.1776 -508.328355)" gradientUnits="userSpaceOnUse" x1="487.1266" x2="418.7939" y1="387.071" y2="318.7384"><stop offset="0" stop-color="#e58200" stop-opacity="0"/><stop offset=".0396" stop-color="#e27f04" stop-opacity=".039216"/><stop offset=".4671" stop-color="#c15d2f" stop-opacity=".466667"/><stop offset=".8016" stop-color="#ad4949" stop-opacity=".8"/><stop offset="1" stop-color="#a64153"/></linearGradient><linearGradient id="q" gradientTransform="matrix(.709873 .709873 -.709873 .709873 353.1776 -508.328355)" gradientUnits="userSpaceOnUse" x1="462.3861" x2="477.4306" xlink:href="#m" y1="361.3002" y2="361.3002"/><linearGradient id="r" gradientTransform="matrix(.709873 .709873 -.709873 .709873 353.1776 -508.328355)" gradientUnits="userSpaceOnUse" x1="493.4975" x2="478.1896" y1="619.0281" y2="603.7202"><stop offset="0" stop-color="#3b395f" stop-opacity="0"/><stop offset=".0633" stop-color="#37355a" stop-opacity=".062745"/><stop offset=".4033" stop-color="#232543" stop-opacity=".403922"/><stop offset=".7232" stop-color="#171b35" stop-opacity=".721569"/><stop offset="1" stop-color="#131830"/></linearGradient><linearGradient id="s" gradientTransform="matrix(.709873 .709873 -.709873 .709873 353.1776 -508.328355)" gradientUnits="userSpaceOnUse" x1="464.4843" x2="493.5935" xlink:href="#k" y1="499.9491" y2="499.9491"/><linearGradient id="t" gradientUnits="userSpaceOnUse" x1="268.1558987526" x2="279.1261560154" xlink:href="#m" y1="237.5736268276" y2="248.5438840904"/><linearGradient id="u" gradientTransform="matrix(.709873 .709873 -.709873 .709873 353.1776 -508.328355)" gradientUnits="userSpaceOnUse" x1="447.3869" x2="492.4298" xlink:href="#m" y1="555.3992" y2="555.3992"/><path d="m445.128906 289.433594c0 122.921875-99.644531 222.566406-222.566406 222.566406-122.917969 0-222.5625-99.644531-222.5625-222.566406 0-122.917969 99.644531-222.5625 222.5625-222.5625 122.921875 0 222.566406 99.644531 222.566406 222.5625zm0 0" fill="url(#a)"/><path d="m365.835938 119.132812c-16.75 11.492188-36.628907 28.1875-56.617188 48.179688-12.574219 12.574219-23.074219 24.332031-31.460938 34.953125v.003906c-.027343.035157-.050781.066407-.074218.097657-.6875.871093-1.351563 1.726562-2.003906 2.578124-1.886719 2.453126-3.660157 4.84375-5.3125 7.160157-.3125.441406-.613282.871093-.914063 1.304687-.34375.488282-.679687.972656-1.007813 1.453125-.300781.429688-.597656.863281-.886718 1.289063-.496094.738281-.976563 1.464844-1.449219 2.1875-.28125.425781-.550781.847656-.820313 1.269531-.3125.480469-.613281.960937-.914062 1.441406-.355469.566407-.703125 1.132813-1.046875 1.691407-.300781.5-.601563.996093-.890625 1.488281-.230469.390625-.460938.78125-.683594 1.164062-.355468.621094-.703125 1.234375-1.039062 1.839844-.222656.398437-.433594.789063-.644532 1.179687-.246093.460938-.488281.917969-.722656 1.371094-.171875.328125-.347656.660156-.511718.988282-.328126.652343-.640626 1.292968-.941407 1.921874-.144531.308594-.28125.609376-.421875.910157-.21875.476562-.425781.945312-.628906 1.410156-.132812.300781-.265625.605469-.390625.902344-.234375.5625-.457031 1.117187-.664063 1.664062-.101562.257813-.199218.515625-.292968.769531-.222656.601563-.433594 1.195313-.621094 1.777344-.0625.179688-.109375.355469-.167969.53125-.148437.476563-.285156.941406-.410156 1.398438-.054687.199218-.113281.402344-.164063.597656-.144531.558594-.269531 1.105469-.382812 1.640625-.035156.167969-.0625.335937-.09375.5-.027344.140625-.054688.28125-.078125.421875l-34.957031 38.742188c-3.460938 3.910156-1.375 8.761718 2.203125 10.515624l155.683593 155.6875c42.285157-40.511718 68.621094-97.542968 68.621094-160.730468 0-68.339844-30.8125-129.472656-79.292968-170.300782zm0 0" fill="url(#b)"/><path d="m266.011719 289.433594c0 23.996094-19.453125 43.449218-43.449219 43.449218-23.992188 0-43.445312-19.453124-43.445312-43.449218 0-23.992188 19.453124-43.445313 43.445312-43.445313 23.996094 0 43.449219 19.453125 43.449219 43.445313zm0 0" fill="url(#d)"/><path d="m222.5625 66.871094c-122.917969 0-222.5625 99.644531-222.5625 222.5625 0 122.921875 99.644531 222.566406 222.5625 222.566406 122.921875 0 222.566406-99.644531 222.566406-222.566406 0-122.917969-99.644531-222.5625-222.566406-222.5625zm0 403.742187c-100.058594 0-181.175781-81.117187-181.175781-181.179687 0-100.058594 81.117187-181.175782 181.175781-181.175782 100.0625 0 181.179688 81.117188 181.179688 181.175782 0 100.0625-81.117188 181.179687-181.179688 181.179687zm0 0" fill="url(#e)"/><path d="m222.5625 151.160156c-76.367188 0-138.273438 61.90625-138.273438 138.273438 0 76.367187 61.90625 138.277344 138.273438 138.277344 76.371094 0 138.277344-61.90625 138.277344-138.277344 0-76.367188-61.90625-138.273438-138.277344-138.273438zm0 234.308594c-53.035156 0-96.03125-42.996094-96.03125-96.035156 0-53.035156 42.996094-96.03125 96.03125-96.03125 53.039062 0 96.035156 42.996094 96.035156 96.03125 0 53.039062-42.996094 96.035156-96.035156 96.035156zm0 0" fill="url(#f)"/><path d="m266.007812 289.433594c0 13.734375-6.367187 25.96875-16.304687 33.921875l-28.882813-28.882813c-3.574218-1.75-5.660156-6.601562-2.195312-10.511718l27.808594-30.832032c11.792968 7.765625 19.574218 21.128906 19.574218 36.304688zm0 0" fill="url(#h)"/><path d="m445.105469 286.554688c-.011719-.515626-.011719-1.039063-.03125-1.554688-.007813-.644531-.019531-1.285156-.039063-1.921875v-.109375c-.027344-.917969-.058594-1.828125-.097656-2.75-.011719-.378906-.03125-.746094-.050781-1.121094-.019531-.574218-.046875-1.136718-.089844-1.710937-.027344-.753907-.078125-1.496094-.125-2.25-.0625-.9375-.121094-1.890625-.199219-2.832031-.050781-.75-.117187-1.503907-.179687-2.257813-.070313-.820313-.148438-1.632813-.226563-2.445313-.058594-.621093-.121094-1.253906-.199218-1.878906-.058594-.617187-.117188-1.230468-.195313-1.84375-.4375-3.878906-.980469-7.71875-1.617187-11.523437-.097657-.574219-.195313-1.136719-.296876-1.710938-.136718-.773437-.277343-1.535156-.414062-2.296875-.148438-.773437-.296875-1.542968-.457031-2.316406-.207031-1.101562-.433594-2.199219-.671875-3.296875-.210938-.972656-.417969-1.941406-.644532-2.914063-1.40625-6.195312-3.078124-12.292968-5-18.285156-.226562-.734375-.464843-1.457031-.703124-2.179687-.039063-.117188-.078126-.238281-.117188-.355469-.308594-.910156-.613281-1.820312-.929688-2.722656-.328124-.949219-.675781-1.910156-1.011718-2.851563-.347656-.949219-.703125-1.898437-1.058594-2.839843-.347656-.921876-.703125-1.84375-1.058594-2.761719-.011718-.019531-.019531-.039063-.03125-.058594-.742187-1.871094-1.503906-3.734375-2.285156-5.574219-.398438-.921875-.804688-1.84375-1.210938-2.761718-.363281-.832032-.730468-1.65625-1.105468-2.476563-.089844-.195313-.179688-.40625-.277344-.601563-.367188-.792968-.734375-1.585937-1.109375-2.367187 0-.019531-.011719-.03125-.019531-.042969-.425782-.898437-.863282-1.789062-1.296875-2.679687-.882813-1.804688-1.78125-3.574219-2.722657-5.347657-.03125-.070312-.058593-.128906-.101562-.199218-1.355469-2.582032-2.769531-5.128906-4.234375-7.652344-.507813-.863281-1.011719-1.722656-1.515625-2.574219-1.011719-1.710937-2.058594-3.40625-3.128906-5.078125-.535156-.84375-1.070313-1.683594-1.613282-2.515625-1.089843-1.664062-2.199218-3.308593-3.328124-4.941406-1.683594-2.453125-3.425782-4.859375-5.226563-7.234375-.59375-.792969-1.199219-1.585938-1.800781-2.367188-1.207032-1.574218-2.4375-3.121093-3.703125-4.652343-1.238281-1.535157-2.515625-3.050781-3.824219-4.554688-1.273438-1.496093-2.59375-2.980469-3.9375-4.445312-.871094-.960938-1.753906-1.910157-2.644531-2.863281-1.78125-1.890626-3.582031-3.742188-5.445313-5.574219-.910156-.910157-1.851562-1.820313-2.792968-2.722657-1.246094-1.195312-2.515626-2.375-3.800782-3.542968-1.097656-1-2.207031-1.988282-3.328125-2.972656-.039062-.039063-.078125-.066407-.117187-.105469-.734375-.632813-1.464844-1.257813-2.207032-1.890625-.347656-.300782-.695312-.605469-1.050781-.902344-10.175781 6.988281-21.511719 15.890625-33.324219 26.296875 43.304688 33.105469 71.234376 85.292969 71.234376 144.011719 0 51.757812-21.703126 98.4375-56.503907 131.457031l29.265625 29.265625c1.316406-1.257812 2.632813-2.546875 3.921875-3.84375.644531-.652344 1.277344-1.304688 1.917969-1.960938 1.921875-1.96875 3.792969-3.976562 5.625-6.019531 2.464844-2.710937 4.839844-5.492187 7.148438-8.335937.574218-.710938 1.148437-1.425782 1.722656-2.136719 1.148437-1.4375 2.277344-2.882813 3.367187-4.347656.832031-1.097657 1.644531-2.195313 2.464844-3.304688 0-.011719 0-.011719 0-.011719.800781-1.109374 1.605469-2.238281 2.394531-3.355468 1.050782-1.503906 2.082032-3.03125 3.101563-4.554688 1.03125-1.535156 2.019531-3.078125 2.988281-4.632812.980469-1.554688 1.941406-3.128906 2.882812-4.710938.464844-.792968.929688-1.585937 1.394532-2.378906 2.742187-4.742188 5.316406-9.59375 7.703125-14.554688 1.226562-2.542968 2.40625-5.117187 3.535156-7.710937.742187-1.703125 1.464844-3.414063 2.167969-5.136719.347656-.863281.691406-1.722656 1.03125-2.59375.335937-.863281.671875-1.734375 1-2.605468.335937-.871094.652344-1.753907.96875-2.625.328125-.878907.632812-1.761719.941406-2.640626.296875-.851562.59375-1.714843.878906-2.566406.03125-.078125.0625-.15625.082032-.246094.277343-.839843.554687-1.675781.820312-2.515624 1.050781-3.246094 2.019531-6.542969 2.898438-9.859376.199218-.683593.378906-1.378906.554687-2.070312.179687-.664062.347656-1.328125.507813-2 .167968-.652344.324218-1.316406.484374-1.96875.296876-1.226562.582032-2.464844.851563-3.703125.128906-.5625.246094-1.128906.375-1.703125.238281-1.117188.464844-2.238281.683594-3.355469.175781-.898437.347656-1.800781.515625-2.703125.207031-1.097656.40625-2.207031.582031-3.316406.140625-.8125.269531-1.621094.398437-2.433594.109376-.664062.207032-1.328125.304688-1.992187.070312-.464844.140625-.917969.199219-1.386719.167969-1.15625.328125-2.324219.464843-3.492188.097657-.761718.199219-1.535156.277344-2.320312.089844-.742188.167969-1.492188.246094-2.246094.089844-.78125.160156-1.5625.238281-2.355468.050781-.554688.101563-1.109376.148438-1.664063.070312-.753906.128906-1.496094.179687-2.238281.078125-.941406.136719-1.890625.199219-2.832032.175781-2.78125.304687-5.582031.375-8.394531.019531-.820312.039063-1.644531.046875-2.464843.023438-1.148438.03125-2.289063.03125-3.4375 0-.953126-.007812-1.914063-.019531-2.875zm0 0" fill="url(#i)"/><path d="m301.105469 175.609375c-9.050781 9.464844-16.832031 18.40625-23.347657 26.652344v.011719c-.027343.03125-.046874.058593-.078124.089843-.683594.871094-1.347657 1.730469-2 2.582031-.78125 1.019532-1.542969 2.019532-2.277344 3.011719 27.136718 16.957031 45.195312 47.113281 45.195312 81.480469 0 28.246094-12.195312 53.640625-31.601562 71.214844l29.890625 29.886718c27.046875-25.226562 43.957031-61.191406 43.957031-101.101562 0-47.199219-23.640625-88.878906-59.738281-113.828125zm0 0" fill="url(#j)"/><path d="m218.621094 283.960938 42.300781-46.882813 14 14-46.882813 42.300781c-6.265624 5.546875-14.964843-3.152344-9.417968-9.417968zm0 0" fill="url(#l)"/><path d="m454.597656 57.402344v-49.203125c0-7.289063-8.8125-10.941407-13.964844-5.785157l-38 38c-11.441406 11.4375-17.867187 26.953126-17.867187 43.128907l.179687 43.515625zm0 0" fill="url(#n)"/><path d="m454.597656 57.402344h49.207032c7.285156 0 10.9375 8.8125 5.785156 13.964844l-38 38c-11.441406 11.441406-26.953125 17.867187-43.132813 17.867187l-43.511719-.179687zm0 0" fill="url(#o)"/><path d="m463.464844 116.164062v-58.761718h-8.867188l-69.652344 69.652344 43.511719.179687c12.613281 0 24.816407-3.925781 35.007813-11.070313zm0 0" fill="url(#p)"/><path d="m404.632812 118.046875-10.679687-10.679687 56.625-56.628907c2.949219-2.949219 7.730469-2.949219 10.679687 0 2.949219 2.949219 2.949219 7.730469 0 10.679688zm0 0" fill="url(#q)"/><path d="m253.210938 245.621094v25.042968l21.710937-19.585937-14-14zm0 0" fill="url(#r)"/><path d="m344.6875 202.78125c-44.722656 44.722656-79.113281 63.234375-88.910156 53.441406-9.792969-9.796875 8.71875-44.1875 53.441406-88.910156 44.722656-44.71875 88.914062-73.035156 98.707031-63.238281 9.796875 9.792969-18.519531 53.988281-63.238281 98.707031zm0 0" fill="url(#s)"/><path d="m299.894531 241.632812c-3.628906-5.789062-7.980469-11.328124-13.089843-16.4375-5.109376-5.109374-10.648438-9.460937-16.4375-13.089843-15.707032 22.066406-20.75 37.957031-14.589844 44.117187 6.160156 6.15625 22.050781 1.117188 44.117187-14.589844zm0 0" fill="url(#t)"/><path d="m277.757812 202.265625c-1.238281 1.574219-2.417968 3.109375-3.566406 4.632813 5.9375 4.007812 11.625 8.65625 16.941406 13.96875 5.3125 5.3125 9.957032 11 13.96875 16.9375 1.519532-1.148438 3.058594-2.324219 4.632813-3.566407-4.105469-6.164062-8.898437-12.066406-14.402344-17.570312-5.507812-5.507813-11.40625-10.296875-17.574219-14.402344zm0 0" fill="url(#u)"/></svg>