<svg height="512pt" viewBox="0 0 512 512" width="512pt" xmlns="http://www.w3.org/2000/svg" xmlns:xlink="http://www.w3.org/1999/xlink"><linearGradient id="a" gradientUnits="userSpaceOnUse" x1="255.707969" x2="255.707969" y1="105.449959036" y2="142.1161018498"><stop offset="0" stop-color="#ffe548"/><stop offset="1" stop-color="#ffb211"/></linearGradient><linearGradient id="b"><stop offset="0" stop-color="#e58200" stop-opacity="0"/><stop offset=".0396" stop-color="#e27f04" stop-opacity=".039216"/><stop offset=".4671" stop-color="#c15d2f" stop-opacity=".466667"/><stop offset=".8016" stop-color="#ad4949" stop-opacity=".8"/><stop offset="1" stop-color="#a64153"/></linearGradient><linearGradient id="c" gradientUnits="userSpaceOnUse" x1="303.3341290722" x2="251.1896172546" xlink:href="#b" y1="153.5015812518" y2="100.0200461146"/><linearGradient id="d" gradientUnits="userSpaceOnUse" x1="135.1747846594" x2="92.770926439" xlink:href="#b" y1="153.0824438168" y2="110.6784852042"/><linearGradient id="e"><stop offset="0" stop-color="#3b395f"/><stop offset=".8022" stop-color="#1b1f3a"/><stop offset="1" stop-color="#131830"/></linearGradient><linearGradient id="f" gradientUnits="userSpaceOnUse" x1="64.6442445494" x2="98.7252882132" xlink:href="#e" y1="142.3116658554" y2="294.0139177066"/><linearGradient id="g"><stop offset="0" stop-color="#ffc738"/><stop offset=".5053" stop-color="#ffc636"/><stop offset=".6873" stop-color="#ffc22f"/><stop offset=".817" stop-color="#ffbb24"/><stop offset=".9211" stop-color="#ffb213"/><stop offset="1" stop-color="#ffa700"/></linearGradient><radialGradient id="h" cx="34.5194567032" cy="259.6260754796" gradientUnits="userSpaceOnUse" r="136.077611412" xlink:href="#g"/><radialGradient id="i" cx="93.5447495166" cy="270.8499234396" gradientUnits="userSpaceOnUse" r="67.4862470372" xlink:href="#g"/><linearGradient id="j" gradientUnits="userSpaceOnUse" x1="93.5446491244" x2="93.5446491244" xlink:href="#b" y1="305.1204071848" y2="231.1541448142"/><linearGradient id="k" gradientUnits="userSpaceOnUse" x1="388.9714866538" x2="423.0525303176" xlink:href="#e" y1="142.3116658554" y2="294.0139177066"/><radialGradient id="l" cx="358.8459960622" cy="259.6260754796" gradientUnits="userSpaceOnUse" r="136.077611412" xlink:href="#g"/><radialGradient id="m" cx="417.8712888756" cy="270.8499234396" gradientUnits="userSpaceOnUse" r="67.4862470372" xlink:href="#g"/><linearGradient id="n" gradientUnits="userSpaceOnUse" x1="417.8712888756" x2="417.8712888756" xlink:href="#b" y1="305.1204071848" y2="231.1541448142"/><linearGradient id="o"><stop offset="0" stop-color="#ffe548"/><stop offset=".4348" stop-color="#ffe346"/><stop offset=".6388" stop-color="#ffdc3e"/><stop offset=".7947" stop-color="#ffd032"/><stop offset=".9254" stop-color="#ffbf1f"/><stop offset="1" stop-color="#ffb211"/></linearGradient><radialGradient id="p" cx="76.2340220784" cy="104.198570263" gradientUnits="userSpaceOnUse" r="42.7583430786" xlink:href="#o"/><radialGradient id="q" cx="400.5606618296" cy="104.198570263" gradientUnits="userSpaceOnUse" r="42.7583430786" xlink:href="#o"/><radialGradient id="r" cx="238.0193" cy="421.1841" gradientTransform="matrix(1.003922 0 0 .432791 -.292141 240.538102)" gradientUnits="userSpaceOnUse" r="210.1624" xlink:href="#g"/><linearGradient id="s" gradientUnits="userSpaceOnUse" x1="279.8935542942" x2="261.7818978844" xlink:href="#b" y1="489.580633896" y2="374.7142880688"/><linearGradient id="t"><stop offset="0" stop-color="#ffc738"/><stop offset=".4286" stop-color="#ffbb23"/><stop offset="1" stop-color="#ffa700"/></linearGradient><linearGradient id="u" gradientUnits="userSpaceOnUse" x1="246.6829110044" x2="281.0125257554" xlink:href="#t" y1="415.4798459774" y2="415.4798459774"/><linearGradient id="v" gradientUnits="userSpaceOnUse" x1="296.1146247936" x2="278.0645088024" xlink:href="#b" y1="401.7731985192" y2="304.8377027496"/><linearGradient id="w" gradientUnits="userSpaceOnUse" x1="243.1631604724" x2="271.8366786754" xlink:href="#e" y1="348.794126343" y2="348.794126343"/><linearGradient id="x"><stop offset="0" stop-color="#3b395f" stop-opacity="0"/><stop offset=".0633" stop-color="#37355a" stop-opacity=".062745"/><stop offset=".4033" stop-color="#232543" stop-opacity=".403922"/><stop offset=".7232" stop-color="#171b35" stop-opacity=".721569"/><stop offset="1" stop-color="#131830"/></linearGradient><linearGradient id="y" gradientUnits="userSpaceOnUse" x1="275.49527162" x2="259.5758796816" xlink:href="#x" y1="368.9745648182" y2="340.9566076812"/><linearGradient id="z" gradientUnits="userSpaceOnUse" x1="247.0889974534" x2="266.7894608204" xlink:href="#t" y1="216.923952033" y2="216.923952033"/><linearGradient id="A" gradientUnits="userSpaceOnUse" x1="303.0742136664" x2="208.961344992" xlink:href="#b" y1="139.4044081356" y2="45.2915394612"/><linearGradient id="B" gradientUnits="userSpaceOnUse" x1="243.1631604724" x2="271.8366786754" xlink:href="#e" y1="88.9014091802" y2="88.9014091802"/><linearGradient id="C" gradientUnits="userSpaceOnUse" x1="275.49527162" x2="259.5758796816" xlink:href="#x" y1="109.0819480476" y2="81.0639909106"/><radialGradient id="D" cx="222.288409542" cy="11.9967675078" gradientUnits="userSpaceOnUse" r="82.5485907642" xlink:href="#o"/><path d="m415.269531 108.851562c-.554687-1.429687-1.933593-2.375-3.46875-2.375h-312.1875c-1.535156 0-2.910156.945313-3.464843 2.375-3.511719 9.054688-3.511719 19.09375 0 28.148438.554687 1.429688 1.929687 2.375 3.464843 2.375h312.1875c1.535157 0 2.914063-.945312 3.46875-2.375 3.507813-9.054688 3.507813-19.09375 0-28.148438zm0 0" fill="url(#a)"/><path d="m263.6875 139.375h51.742188l-32.894532-32.898438h-18.847656zm0 0" fill="url(#c)"/><path d="m111.960938 106.476562h-12.347657c-1.535156 0-2.910156.945313-3.464843 2.375-3.511719 9.054688-3.511719 19.09375 0 28.148438.554687 1.429688 1.929687 2.375 3.464843 2.375h45.246094zm0 0" fill="url(#d)"/><path d="m183.066406 274.964844c-1.28125 0-2.539062-.609375-3.3125-1.746094l-86.210937-126.179688-86.207031 126.179688c-1.25 1.828125-3.746094 2.296875-5.574219 1.046875-1.8281252-1.25-2.296875-3.746094-1.050781-5.574219l89.523437-131.023437c.746094-1.09375 1.984375-1.75 3.308594-1.75 1.328125 0 2.566406.65625 3.3125 1.75l89.519531 131.023437c1.25 1.828125.78125 4.324219-1.046875 5.574219-.691406.472656-1.480469.699219-2.261719.699219zm0 0" fill="url(#f)"/><path d="m187.089844 270.855469c0 .285156-.03125.574219-.097656.859375-.316407.683594-.652344 1.367187-.988282 2.039062-17.121094 34.136719-52.652344 56.777344-92.453125 56.777344-24.9375 0-48.175781-8.882812-66.269531-23.910156-10.769531-8.941406-19.714844-20.058594-26.113281-32.769532-.371094-.746093-.738281-1.492187-1.1015628-2.25 0-.007812 0-.015624 0-.015624-.0429687-.238282-.0664062-.488282-.0664062-.730469 0-10.457031 41.882812-18.933594 93.546875-18.933594 51.660156 0 93.542969 8.476563 93.542969 18.933594zm0 0" fill="url(#h)"/><path d="m187.089844 270.851562c0-10.453124-41.882813-18.925781-93.546875-18.925781-51.660157 0-93.542969 8.472657-93.542969 18.925781 0 10.453126 41.882812 18.925782 93.542969 18.925782 51.664062 0 93.546875-8.472656 93.546875-18.925782zm0 0" fill="url(#i)"/><path d="m178.105469 269.265625c0-7.800781-37.859375-14.128906-84.5625-14.128906-46.699219 0-84.5625 6.328125-84.5625 14.128906 0 7.804687 37.863281 14.132813 84.5625 14.132813 46.703125 0 84.5625-6.328126 84.5625-14.132813zm0 0" fill="url(#j)"/><path d="m507.394531 274.964844c-1.28125 0-2.539062-.609375-3.316406-1.746094l-86.207031-126.179688-86.207032 126.179688c-1.25 1.828125-3.746093 2.296875-5.574218 1.046875-1.832032-1.25-2.300782-3.746094-1.050782-5.574219l89.519532-131.023437c.746094-1.09375 1.988281-1.75 3.3125-1.75 1.324218 0 2.566406.65625 3.3125 1.75l89.519531 131.023437c1.25 1.828125.78125 4.324219-1.050781 5.574219-.691406.472656-1.476563.699219-2.257813.699219zm0 0" fill="url(#k)"/><path d="m511.417969 270.855469c0 .285156-.03125.574219-.101563.859375-.316406.683594-.652344 1.367187-.988281 2.039062-17.121094 34.136719-52.648437 56.777344-92.449219 56.777344-24.9375 0-48.175781-8.882812-66.273437-23.910156-10.769531-8.941406-19.714844-20.058594-26.113281-32.769532-.371094-.746093-.738282-1.492187-1.097657-2.25 0-.007812 0-.015624 0-.015624-.042969-.238282-.070312-.488282-.070312-.730469 0-10.457031 41.882812-18.933594 93.546875-18.933594 51.660156 0 93.546875 8.476563 93.546875 18.933594zm0 0" fill="url(#l)"/><path d="m511.414062 270.851562c0-10.453124-41.878906-18.925781-93.542968-18.925781-51.664063 0-93.542969 8.472657-93.542969 18.925781 0 10.453126 41.878906 18.925782 93.542969 18.925782 51.664062 0 93.542968-8.472656 93.542968-18.925782zm0 0" fill="url(#m)"/><path d="m502.433594 269.265625c0-7.800781-37.859375-14.128906-84.5625-14.128906s-84.5625 6.328125-84.5625 14.128906c0 7.804687 37.859375 14.132813 84.5625 14.132813s84.5625-6.328126 84.5625-14.132813zm0 0" fill="url(#n)"/><path d="m117.957031 122.398438c0 13.480468-10.929687 24.410156-24.414062 24.410156-13.480469 0-24.410157-10.929688-24.410157-24.410156 0-13.484376 10.929688-24.414063 24.410157-24.414063 13.484375 0 24.414062 10.929687 24.414062 24.414063zm0 0" fill="url(#p)"/><path d="m442.285156 122.398438c0 13.480468-10.929687 24.410156-24.414062 24.410156-13.480469 0-24.414063-10.929688-24.414063-24.410156 0-13.484376 10.933594-24.414063 24.414063-24.414063 13.484375 0 24.414062 10.929687 24.414062 24.414063zm0 0" fill="url(#q)"/><path d="m423.839844 461.113281c0 28.109375-75.277344 50.886719-168.132813 50.886719-92.851562 0-168.132812-22.777344-168.132812-50.886719 0-28.105469 75.28125-50.902343 168.132812-50.902343 92.855469 0 168.132813 22.796874 168.132813 50.902343zm0 0" fill="url(#r)"/><path d="m405.328125 484.351562-44.523437-44.523437-.015626-.082031c-1.675781-1.226563-3.855468-2.402344-6.484374-3.535156-9.625-4.128907-19.089844-8.574219-28.203126-13.71875-21.894531-2.101563-45.617187-3.25-70.394531-3.25-24.773437 0-48.5 1.144531-70.390625 3.25-.019531 0-.019531 0-.035156 0-.433594.246093-.875.480468-1.3125.726562-1.84375 1.023438-3.695312 2.039062-5.570312 3-3.296876 1.707031-6.628907 3.347656-9.988282 4.941406-.175781.078125-.367187.171875-.558594.253906-2.292968 1.082032-4.621093 2.136719-6.949218 3.15625-1.257813.554688-2.53125 1.097657-3.789063 1.640626-5.945312 2.546874-9.546875 5.367187-10.230469 8.332031l-.128906.078125h.113282c-.0625.320312-.113282.65625-.113282.972656 0 .398438.050782.796875.160156 1.179688.03125.144531.082032.285156.128907.414062.0625.175781.125.351562.207031.527344.078125.171875.175781.332031.285156.507812.542969.957032 1.402344 1.882813 2.535156 2.789063l59.003907 59.003906c14.808593 1.289063 30.453125 1.984375 46.632812 1.984375 65.199219 0 121.730469-11.230469 149.621094-27.648438zm0 0" fill="url(#s)"/><path d="m364.535156 444.546875c-.6875-2.972656-4.289062-5.789063-10.234375-8.339844-10.117187-4.339843-20.070312-9.035156-29.617187-14.507812l-7.0625-4.050781c-21.257813-12.1875-34.371094-34.820313-34.371094-59.324219l-55.085938-.015625v.015625c0 24.503906-13.113281 47.136719-34.371093 59.324219l-7.0625 4.050781c-9.546875 5.472656-19.5 10.167969-29.613281 14.507812-5.945313 2.550781-9.546876 5.367188-10.238282 8.339844l-.128906.074219h.121094c-.070313.324218-.121094.648437-.121094.972656 0 12.175781 48.78125 27.054688 108.957031 27.054688s108.960938-14.878907 108.960938-27.054688c0-.324219-.050781-.648438-.121094-.972656h.121094zm0 0" fill="url(#u)"/><path d="m364.667969 445.59375c0-.324219-.050781-.648438-.121094-.972656h.121094l-.132813-.074219c-.6875-2.972656-4.289062-5.789063-10.234375-8.339844-10.117187-4.339843-20.070312-9.035156-29.617187-14.507812l-7.0625-4.050781c-21.257813-12.1875-34.371094-34.820313-34.371094-59.324219l-55.085938-.015625v.015625c0 1.089843-.058593 2.171875-.109374 3.253906l100.417968 100.417969c22.214844-4.03125 36.195313-9.886719 36.195313-16.402344zm0 0" fill="url(#v)"/><path d="m294.640625 348.792969c0-9.980469-17.429687-18.070313-38.933594-18.070313-21.5 0-38.933593 8.089844-38.933593 18.070313s17.433593 18.074219 38.933593 18.074219c21.503907 0 38.933594-8.09375 38.933594-18.074219zm0 0" fill="url(#w)"/><path d="m230.96875 346.207031c-1.242188-1.121093-2.003906-2.738281-2.003906-4.480469v-6.046874c6.96875-3.070313 16.375-4.953126 26.742187-4.953126 21.5 0 38.929688 8.09375 38.929688 18.070313s-17.429688 18.070313-38.929688 18.070313c-1.421875 0-2.828125-.042969-4.210937-.113282-.078125-.078125-20.527344-20.546875-20.527344-20.546875zm0 0" fill="url(#y)"/><path d="m278.59375 347.367188c-14.722656 5.707031-31.046875 5.707031-45.773438 0-2.328124-.902344-3.859374-3.140626-3.859374-5.640626v-259.527343h53.496093v259.527343c0 2.5-1.535156 4.738282-3.863281 5.640626zm0 0" fill="url(#z)"/><path d="m228.957031 101.875.558594.191406 52.941406 52.941406v-72.808593h-53.5zm0 0" fill="url(#A)"/><path d="m294.640625 88.902344c0-9.980469-17.429687-18.074219-38.933594-18.074219-21.5 0-38.933593 8.09375-38.933593 18.074219 0 9.980468 17.433593 18.070312 38.933593 18.070312 21.503907 0 38.933594-8.089844 38.933594-18.070312zm0 0" fill="url(#B)"/><path d="m230.96875 86.316406c-1.242188-1.125-2.003906-2.738281-2.003906-4.484375v-6.046875c6.96875-3.066406 16.375-4.953125 26.742187-4.953125 21.5 0 38.929688 8.09375 38.929688 18.070313 0 9.976562-17.429688 18.070312-38.929688 18.070312-1.421875 0-2.828125-.039062-4.210937-.109375-.078125-.082031-20.527344-20.546875-20.527344-20.546875zm0 0" fill="url(#C)"/><path d="m302.839844 47.128906c0 26.03125-21.101563 47.132813-47.132813 47.132813-26.027343 0-47.128906-21.101563-47.128906-47.132813 0-26.027344 21.101563-47.128906 47.128906-47.128906 26.03125 0 47.132813 21.101562 47.132813 47.128906zm0 0" fill="url(#D)"/></svg>