

<svg height="512" viewBox="0 0 46 60" width="512" xmlns="http://www.w3.org/2000/svg"><g id="Page-1" fill="none" fill-rule="evenodd"><g id="015---Tax-Money-Bag" fill="rgb(0,0,0)" fill-rule="nonzero"><path id="Shape" d="m.509 51.749c1.22575329 4.8797226 5.6298193 8.2882161 10.661 8.251h23.66c5.0317635.0369892 9.436026-3.3724825 10.661-8.253 2.238-9.173-3.414-20.7-9.818-28.96 1.1952924-.408509 2.0678365-1.4429488 2.269-2.69 1.8611282.2802215 3.4335448 1.5274943 4.13 3.276.2060022.5125202.7884798.7610022 1.301.555s.7610022-.7884798.555-1.301c-.9123765-2.300176-2.9373168-3.9742977-5.368-4.438 2.0834644-1.3821562 3.3661408-3.6898553 3.44-6.189 0-.5522847-.4477153-1-1-1s-1 .4477153-1 1c-.1171444 2.0776211-1.2993054 3.947296-3.126 4.944-.6428685-.6045239-1.491546-.941993-2.374-.944h-.678l3.092-4.854c.7838909-1.23303253.8331066-2.79537733.1283768-4.07530316-.7047297-1.27992583-2.051266-2.07376676-3.5123768-2.07069684h-1.161c.3116536-1.19742606.0507354-2.4716807-.706477-3.45024418-.7572124-.97856349-1.925205-1.55092401-3.162523-1.54975582h-11c-1.237318-.00116819-2.4053106.57119233-3.162523 1.54975582-.7572124.97856348-1.0181306 2.25281812-.706477 3.45024418h-1.161c-1.4612579-.00293706-2.80783299.79118506-3.51238575 2.07137596s-.65494898 2.84269972.12938575 4.07562404l3.091 4.853h-.678c-1.70173827-.0030204-3.15785002 1.221075-3.44731041 2.8980171-.28946038 1.6769421.67203189 3.3183451 2.27631041 3.8859829-6.405 8.262-12.059 19.789-9.82 28.965zm10.2-43.709c.3493342-.64581694 1.0267799-1.04589843 1.761-1.04h1.947l2.66 6.385c.1375472.3297561.440569.5610828.7949198.6068415.3543508.0457586.7061964-.1010025.923-.385s.2656275-.6620854.1280802-.9918415l-3.269-7.846c-.2570836-.61721781-.188733-1.32207676.1821494-1.87840041.3708824-.55632364.9952328-.89051602 1.6638506-.89059959h11c.6686178.00008357 1.2929682.33427595 1.6638506.89059959.3708824.55632365.439233 1.2611826.1821494 1.87840041l-3.269 7.846c-.2126296.5097588.0282412 1.0953704.538 1.308s1.0953704-.0282412 1.308-.538l2.66-6.385h1.947c.7319877-.00447367 1.4079405.39129897 1.7622809 1.03182132.3543404.64052236.3304515 1.42345118-.0622809 2.04117868l-3.779 5.927h-16.9l-3.775-5.926c-.3970383-.61335252-.4228138-1.39584852-.067-2.034zm2 14.96h3.291c.5522847 0 1-.4477153 1-1s-.4477153-1-1-1h-4.5c-.8284271 0-1.5-.6715729-1.5-1.5s.6715729-1.5 1.5-1.5h23c.8284271 0 1.5.6715729 1.5 1.5s-.6715729 1.5-1.5 1.5h-12.5c-.5522847 0-1 .4477153-1 1s.4477153 1 1 1h11.288c6.431 7.938 12.423 19.413 10.261 28.271-1.0073597 3.9849271-4.6088708 6.7644395-8.719 6.729h-23.66c-4.10954195.0362939-7.71091196-2.7426022-8.718-6.727-2.162-8.86 3.829-20.335 10.26-28.273z"/><path id="Shape" d="m8 41h3v8c0 .5522847.4477153 1 1 1s1-.4477153 1-1v-8h3c.5522847 0 1-.4477153 1-1s-.4477153-1-1-1h-8c-.55228475 0-1 .4477153-1 1s.44771525 1 1 1z"/><path id="Shape" d="m30.445 49.832c.2206502.1472282.4907558.2007572.7508787.1488077.2601229-.0519496.488948-.2051208.6361213-.4258077l2.168-3.255 2.168 3.252c.306518.4595009.9274991.583518 1.387.277s.583518-.9274991.277-1.387l-2.632-3.942 2.63-3.945c.1982824-.297245.2229246-.6776931.0646441-.9980332-.1582805-.32034-.4754371-.5319049-.832-.555s-.6983617.1457882-.8966441.4430332l-2.166 3.255-2.168-3.252c-.3065181-.4595009-.9274991-.583518-1.387-.2769999-.4595009.306518-.583518.927499-.277 1.3869999l2.632 3.942-2.63 3.945c-.3069815.4589663-.1838733 1.0798794.275 1.387z"/><path id="Shape" d="m18.594 49.914c.242404.1077098.5176707.1146977.7652275.0194258s.4471189-.2849968.5547725-.5274258l1.069-2.406h4.034l1.069 2.406c.1450498.3265408.4532888.5508937.8086063.5885473.3553175.0376535.7037324-.1171128.914-.4060001.2102677-.2888872.2504435-.6680064.1053937-.9945472l-1.32-2.969-.013-.029-2.667-6c-.160402-.3613564-.5186429-.5942858-.914-.5942858s-.753598.2329294-.914.5942858l-2.667 6-.013.029-1.32 2.969c-.1077098.242404-.1146977.5176707-.0194258.7652275s.2849968.4471189.5274258.5547725zm4.406-7.452 1.128 2.538h-2.256z"/></g></g></svg>