<svg height="512" viewBox="0 0 512 512" width="512" xmlns="http://www.w3.org/2000/svg">
    <g id="Flat">
        <path d="m418.028 418.762-206.018 28.644a24 24 0 0 1 -27.077-20.467l-30.847-221.866 72.84-115.127 79.237-11.017 101.484 90.89 30.847 221.866a24 24 0 0 1 -20.466 27.077z"
              fill="#067b98"/>
        <path d="m297.487 470.444-205.322-33.269a24 24 0 0 1 -19.852-27.53l43.505-268.5 103.5-88.586 78.97 12.8 70.232 116.736-43.5 268.5a24 24 0 0 1 -27.533 19.849z"
              fill="#0093b9"/>
        <circle cx="248.568" cy="122.135" fill="#e3e4e2" r="24"/>
        <path d="m315.894 192.147a8.006 8.006 0 0 0 -5.209-3.217l-142.146-23.03a8.006 8.006 0 0 0 -9.177 6.619l-20.474 126.348a8 8 0 0 0 6.617 9.177l142.146 23.033a8 8 0 0 0 9.177-6.618l20.472-126.353a8 8 0 0 0 -1.406-5.959zm-94.636-1.5 31.588 5.118-5.118 31.588-31.588-5.118zm61.056 123.353-126.352-20.471 17.914-110.557 31.588 5.118-6.4 39.485a8 8 0 0 0 6.617 9.177l47.382 7.678a8.13 8.13 0 0 0 1.28.1 8 8 0 0 0 7.9-6.72l6.4-39.486 31.588 5.118z"
              fill="#57c3c1"/>
        <path d="m254.462 278.473h16v16.001h-16z" fill="#57c3c1"
              transform="matrix(.16 -.987 .987 .16 -62.321 499.709)"/>
        <path d="m110.342 350.736h192v64h-192z" fill="#e3e4e2" transform="matrix(.987 .16 -.16 .987 63.874 -28.076)"/>
        <g fill="#4e4e4f">
            <path d="m125.085 352.654h40v16h-40z" transform="matrix(.16 -.987 .987 .16 -234.128 446.199)"/>
            <path d="m161.313 353.824h32v16h-32z" transform="matrix(.16 -.987 .987 .16 -208.209 478.995)"/>
            <path d="m192.901 358.942h32v16h-32z" transform="matrix(.16 -.987 .987 .16 -186.725 514.476)"/>
            <path d="m224.489 364.061h32v16h-32z" transform="matrix(.16 -.987 .987 .16 -165.241 549.957)"/>
            <path d="m251.438 373.128h40v16h-40z" transform="matrix(.16 -.987 .987 .16 -148.192 588.125)"/>
        </g>
        <path d="m71.392 265.279-15.792-2.558 20.733-127.972a40.052 40.052 0 0 1 13.476-23.991l48.991-41.93 10.4 12.156-48.99 41.929a24.043 24.043 0 0 0 -8.085 14.4z"
              fill="#e3e4e2"/>
        <path d="m51.502 280h16.209v16h-16.209z" fill="#e3e4e2" transform="matrix(.16 -.987 .987 .16 -234.22 300.784)"/>
    </g>
</svg>