<svg xmlns:xlink="http://www.w3.org/1999/xlink" id="Capa_1" enable-background="new 0 0 510 510" height="512" viewBox="0 0 510 510"
     width="512" xmlns="http://www.w3.org/2000/svg">
    <linearGradient id="lg1">
        <stop offset="0" stop-color="#4a98f7"/>
        <stop offset="1" stop-color="#0469bc"/>
    </linearGradient>
    <linearGradient id="SVGID_1_" gradientUnits="userSpaceOnUse" x1="177.624" x2="527.624" xlink:href="#lg1"
                    y1="148.376" y2="498.376"/>
    <linearGradient id="SVGID_2_" gradientUnits="userSpaceOnUse" x1="296.615" x2="-486.139" xlink:href="#lg1"
                    y1="260.575" y2="260.575"/>
    <linearGradient id="SVGID_3_" gradientUnits="userSpaceOnUse" x1="245.597" x2="-60.389" y1="199.069" y2="-418.902">
        <stop offset="0" stop-color="#18cffc" stop-opacity="0"/>
        <stop offset="1" stop-color="#65e1dc"/>
    </linearGradient>
    <linearGradient id="lg2">
        <stop offset="0" stop-color="#0469bc" stop-opacity="0"/>
        <stop offset="1" stop-color="#0469bc"/>
    </linearGradient>
    <linearGradient id="SVGID_4_" gradientUnits="userSpaceOnUse" x1="474.775" x2="205.782" xlink:href="#lg2"
                    y1="507.922" y2="238.929"/>
    <linearGradient id="SVGID_5_" gradientUnits="userSpaceOnUse" x1="300.283" x2="-16.202" xlink:href="#lg2"
                    y1="209.846" y2="-121.639"/>
    <linearGradient id="SVGID_6_" gradientUnits="userSpaceOnUse" x1="334.259" x2="278.762" xlink:href="#lg2"
                    y1="330.013" y2="504.004"/>
    <linearGradient id="lg3">
        <stop offset="0" stop-color="#f9f7fc"/>
        <stop offset="1" stop-color="#f0ddfc"/>
    </linearGradient>
    <linearGradient id="SVGID_7_" gradientUnits="userSpaceOnUse" x1="130.36" x2="415.415" xlink:href="#lg3" y1="114.899"
                    y2="399.953"/>
    <linearGradient id="lg4">
        <stop offset="0" stop-color="#f0ddfc" stop-opacity="0"/>
        <stop offset=".2889" stop-color="#c8b7e0" stop-opacity=".289"/>
        <stop offset=".5915" stop-color="#a595c8" stop-opacity=".592"/>
        <stop offset=".8395" stop-color="#8f81b8" stop-opacity=".84"/>
        <stop offset="1" stop-color="#8779b3"/>
    </linearGradient>
    <linearGradient id="SVGID_8_" gradientUnits="userSpaceOnUse" x1="357.329" x2="249.335" xlink:href="#lg4"
                    y1="415.847" y2="267.354"/>
    <linearGradient id="SVGID_9_" gradientUnits="userSpaceOnUse" x1="357.196" x2="180.205" xlink:href="#lg4"
                    y1="186.614" y2="153.615"/>
    <linearGradient id="SVGID_10_" gradientUnits="userSpaceOnUse" x1="205.131" x2="339.96" xlink:href="#lg3"
                    y1="225.897" y2="363.523"/>
    <linearGradient id="SVGID_11_" gradientUnits="userSpaceOnUse" x1="349.043" x2="273.709" xlink:href="#lg4"
                    y1="393.533" y2="292.866"/>
    <linearGradient id="lg5">
        <stop offset="0" stop-color="#ffda45"/>
        <stop offset="1" stop-color="#fcb37e"/>
    </linearGradient>
    <linearGradient id="SVGID_12_" gradientUnits="userSpaceOnUse" x1="194.63" x2="429.955" xlink:href="#lg5"
                    y1="224.604" y2="468.41"/>
    <linearGradient id="lg6">
        <stop offset="0" stop-color="#fcb37e" stop-opacity="0"/>
        <stop offset="1" stop-color="#ff7044"/>
    </linearGradient>
    <linearGradient id="SVGID_13_" gradientUnits="userSpaceOnUse" x1="158.594" x2="304.958" xlink:href="#lg6"
                    y1="237.395" y2="393.517"/>
    <linearGradient id="SVGID_14_" gradientUnits="userSpaceOnUse" x1="154.593" x2="254.859" xlink:href="#lg5"
                    y1="342.949" y2="342.949"/>
    <linearGradient id="SVGID_15_" gradientUnits="userSpaceOnUse" x1="231.078" x2="402.379" xlink:href="#lg6"
                    y1="295.49" y2="488.474"/>
    <linearGradient id="SVGID_16_" gradientUnits="userSpaceOnUse" x1="132.972" x2="353.06" xlink:href="#lg6" y1="346.74"
                    y2="339.151"/>
    <linearGradient id="SVGID_17_" gradientUnits="userSpaceOnUse" x1="329.703" x2="273.326" xlink:href="#lg5"
                    y1="435.396" y2="184.951"/>
    <linearGradient id="SVGID_18_" gradientUnits="userSpaceOnUse" x1="170.185" x2="203.794" xlink:href="#lg5"
                    y1="221.203" y2="366.483"/>
    <linearGradient id="SVGID_19_" gradientUnits="userSpaceOnUse" x1="313.294" x2="105.131" xlink:href="#lg6"
                    y1="219.241" y2="136.843"/>
    <linearGradient id="SVGID_20_" gradientUnits="userSpaceOnUse" x1="222.917" x2="330.251" xlink:href="#lg6"
                    y1="150.914" y2="334.14"/>
    <linearGradient id="SVGID_21_" gradientUnits="userSpaceOnUse" x1="356.071" x2="156.582" xlink:href="#lg6"
                    y1="220.159" y2="396.881"/>
    <linearGradient id="SVGID_22_" gradientUnits="userSpaceOnUse" x1="320.221" x2="389.609" xlink:href="#lg6"
                    y1="291.98" y2="92.491"/>
    <linearGradient id="SVGID_23_" gradientUnits="userSpaceOnUse" x1="259.075" x2="191.656" y1="279.608" y2="182.226">
        <stop offset="0" stop-color="#ffda45" stop-opacity="0"/>
        <stop offset="1" stop-color="#ffee83"/>
    </linearGradient>
    <path d="m487.884 233.904-1.295-2.589c-23.673-38.942-25.813-87.278-5.674-128.16l12.601-25.579c2.573-5.223 1.535-11.505-2.583-15.623l-59.726-59.726c-3.326-3.326-8.845-2.863-11.575.967-23.629 33.15-49.115 54.5-94.25 54.5-16.113 0-43.782-9.9-61.843-17.058-5.486-2.174-11.591-2.174-17.077 0-18.061 7.159-45.73 17.058-61.843 17.058-45.136 0-70.621-21.35-94.25-54.5-2.73-3.83-8.249-4.293-11.575-.967l-59.727 59.726c-4.117 4.117-5.156 10.399-2.583 15.623l12.601 25.579c20.139 40.882 17.999 89.218-5.674 128.16l-1.295 2.589c-23.208 46.417-23.208 101.051 0 147.468 35.393 60.55 95.245 102.833 164.141 115.961l64.248 12.242c2.97.566 6.02.566 8.99 0l64.248-12.242c68.896-13.128 128.747-55.411 164.141-115.961 23.208-46.417 23.208-101.051 0-147.468z"
          fill="url(#SVGID_1_)"/>
    <path d="m191.872 467.864c-60.067-11.446-112.261-48.153-143.35-100.771-18.455-37.591-18.313-82.292.427-119.772l.769-1.538c13.814-23.142 21.738-49.563 22.931-76.494 1.212-27.365-4.546-54.819-16.651-79.392l-7.409-15.039 33.601-33.601c22.379 25.256 53.082 46.437 102.429 46.437 16.081 0 39.121-5.949 70.381-18.178 31.26 12.229 54.301 18.178 70.381 18.178 49.347 0 80.05-21.179 102.429-46.437l33.602 33.602-7.409 15.038c-12.105 24.573-17.863 52.027-16.651 79.392 1.192 26.932 9.117 53.353 22.931 76.494l.77 1.54c18.739 37.479 18.881 82.18.426 119.77-31.089 52.618-83.283 89.325-143.35 100.771l-63.129 12.029z"
          fill="url(#SVGID_2_)"/>
    <path d="m255 495c-.565 0-1.133-.053-1.688-.159l-64.248-12.242c-64.492-12.289-120.503-51.776-153.749-108.37-20.766-41.88-20.695-91.793.217-133.617l1.025-2.049c26.168-43.454 28.415-96.502 5.984-142.037l-12.157-24.676 52.936-52.936c12.562 16.47 24.797 28.218 38.081 36.633 18.214 11.538 38.893 17.147 63.217 17.147 14.379 0 37.046-6.094 67.37-18.113.963-.382 1.976-.576 3.011-.576s2.048.194 3.012.576c30.323 12.019 52.99 18.113 67.369 18.113 24.324 0 45.003-5.609 63.217-17.147 13.284-8.415 25.519-20.163 38.081-36.633l52.936 52.936-12.154 24.676c-22.432 45.535-20.185 98.583 5.983 142.038l1.025 2.05c20.911 41.823 20.982 91.736.216 133.616-33.246 56.594-89.257 96.081-153.749 108.37l-64.249 12.242c-.553.105-1.121.158-1.686.158z"
          fill="url(#SVGID_3_)"/>
    <path d="m409.415 227.983c-1.417-3.433-4.479-6.203-8.757-6.814h-291.315c-4.643.663-7.879 3.859-9.105 7.698-1.246 3.859-.462 8.361 2.935 11.597l67.373 64.32-15.779 92.211c-.784 4.522 1.166 8.542 4.341 10.914l101.462 101.462 63.174-12.037c68.896-13.128 128.747-55.411 164.141-115.961 9.231-18.462 14.777-38.226 16.665-58.254z"
          fill="url(#SVGID_4_)"/>
    <path d="m259.495 509.576 64.248-12.242c68.896-13.128 128.747-55.411 164.141-115.961 23.208-46.417 23.208-101.051 0-147.468l-1.295-2.589c-23.673-38.942-25.813-87.278-5.674-128.16l12.601-25.579c2.573-5.223 1.535-11.506-2.583-15.623l-52.392-52.393h-23.591c-22.378 29.49-47.395 48.133-89.569 48.133-16.113 0-43.782-9.9-61.843-17.058-2.743-1.087-5.641-1.631-8.538-1.631v470.995c1.505 0 3.01-.142 4.495-.424z"
          fill="url(#SVGID_5_)"/>
    <path d="m259.495 509.576 64.248-12.242c68.896-13.128 128.747-55.411 164.141-115.961 23.208-46.417 23.208-101.051 0-147.468l-1.295-2.589c-23.673-38.942-25.813-87.278-5.674-128.16l12.601-25.579c2.573-5.223 1.535-11.506-2.583-15.623l-52.392-52.393h-23.591c-22.378 29.49-47.395 48.133-89.569 48.133-16.113 0-43.782-9.9-61.843-17.058-2.743-1.087-5.641-1.631-8.538-1.631v470.995c1.505 0 3.01-.142 4.495-.424z"
          fill="url(#SVGID_6_)"/>
    <path d="m197.487 438.394c-51.166-9.749-95.759-40.899-122.528-85.538-13.846-29.005-13.559-63.354.823-92.118l.291-.583c15.979-27.143 25.153-58.077 26.546-89.539.996-22.487-1.984-45.023-8.693-66.433-1.684-5.373 4.146-9.964 9.026-7.156 24.082 13.857 51.131 20.667 81.667 20.667 18.034 0 40.591-5.138 70.381-16.089 29.791 10.951 52.348 16.089 70.381 16.089 30.537 0 57.585-6.81 81.667-20.667 4.881-2.808 10.71 1.782 9.026 7.156-6.709 21.411-9.689 43.948-8.693 66.434 1.393 31.462 10.568 62.395 26.546 89.539l.29.58c14.383 28.766 14.67 63.115.824 92.12-26.769 44.64-71.362 75.789-122.528 85.538l-57.513 10.959z"
          fill="url(#SVGID_7_)"/>
    <path d="m400.658 221.169h-291.315c-4.643.663-7.879 3.859-9.105 7.698-1.246 3.859-.462 8.361 2.935 11.597l67.373 64.32-15.779 92.211c-.784 4.522 1.166 8.542 4.341 10.914l28.247 28.247c3.347.837 6.724 1.589 10.133 2.238l57.512 10.959 57.513-10.959c51.166-9.749 95.759-40.899 122.528-85.538 13.846-29.005 13.56-63.354-.824-92.12l-.29-.58c-3.09-5.249-5.918-10.642-8.492-16.151l-16.021-16.021c-1.416-3.434-4.478-6.203-8.756-6.815z"
          fill="url(#SVGID_8_)"/>
    <path d="m359.397 215.169-94.267-93.43c-2.05-4.221-6.09-6.351-10.13-6.351-.039 0-.078.007-.117.008v104.512h137.102z"
          fill="url(#SVGID_9_)"/>
    <circle cx="255" cy="276.8" fill="url(#SVGID_10_)" r="117.842"/>
    <path d="m372.804 273.796c.025.999.038 2 .038 3.004 0 65.083-52.76 117.842-117.842 117.842-14.343 0-28.087-2.566-40.8-7.258l58.58 58.58 39.733-7.571c51.166-9.749 95.759-40.899 122.528-85.538 1.867-3.912 3.468-7.923 4.821-12.002z"
          fill="url(#SVGID_11_)"/>
    <path d="m409.763 228.867c-1.226-3.839-4.462-7.035-9.105-7.698l-93.842-13.647-41.685-85.783c-2.05-4.221-6.09-6.351-10.13-6.351s-8.08 2.131-10.13 6.351l-41.685 85.783-93.842 13.647c-4.643.663-7.879 3.859-9.105 7.698-1.246 3.859-.462 8.361 2.935 11.597l67.412 64.256-15.818 92.275c-.784 4.522 1.166 8.542 4.341 10.914 3.196 2.392 7.638 3.135 11.778 1.065l84.113-41.926 84.114 41.927c4.14 2.07 8.582 1.327 11.778-1.065 3.176-2.372 5.125-6.392 4.341-10.914l-15.818-92.275 67.412-64.256c3.398-3.236 4.182-7.739 2.936-11.598zm-154.763 49.082-.141.04.06-.06.08-.121.08.121.06.06z"
          fill="url(#SVGID_12_)"/>
    <path d="m254.92 277.929-.06.06-84.275 26.732-67.412-64.256c-3.397-3.236-4.181-7.738-2.935-11.597z"
          fill="url(#SVGID_13_)"/>
    <path d="m254.859 277.989-95.752 129.92c-3.175-2.372-5.125-6.392-4.341-10.914l15.818-92.275z"
          fill="url(#SVGID_14_)"/>
    <path d="m350.893 407.909c-3.196 2.392-7.638 3.135-11.778 1.065l-84.115-41.926v-89.099l.141.04z"
          fill="url(#SVGID_15_)"/>
    <path d="m255 277.949v89.099l-84.114 41.927c-4.14 2.07-8.582 1.327-11.778-1.065l95.752-129.92z"
          fill="url(#SVGID_16_)"/>
    <path d="m350.893 407.909-95.752-129.92 84.275 26.732 15.818 92.275c.784 4.522-1.166 8.542-4.341 10.913z"
          fill="url(#SVGID_17_)"/>
    <path d="m255 277.808-.08.121-154.682-49.062c1.226-3.839 4.462-7.035 9.105-7.698l93.842-13.647z"
          fill="url(#SVGID_18_)"/>
    <path d="m306.815 207.522-51.815 70.286v-162.42c4.04 0 8.08 2.131 10.13 6.351z" fill="url(#SVGID_19_)"/>
    <path d="m255 115.388v162.42l-51.815-70.286 41.685-85.783c2.05-4.22 6.09-6.351 10.13-6.351z"
          fill="url(#SVGID_20_)"/>
    <path d="m409.763 228.867-154.683 49.062-.08-.121 51.815-70.286 93.842 13.647c4.644.664 7.879 3.859 9.106 7.698z"
          fill="url(#SVGID_21_)"/>
    <path d="m406.828 240.464-67.412 64.256-84.275-26.732-.06-.06 154.682-49.062c1.246 3.86.462 8.363-2.935 11.598z"
          fill="url(#SVGID_22_)"/>
    <path d="m383.552 234.612c-1.018-3.189-3.706-5.843-7.563-6.394l-77.949-11.336-34.626-71.254c-1.703-3.506-5.059-5.276-8.414-5.276s-6.711 1.77-8.414 5.276l-34.626 71.254-77.949 11.336c-3.857.551-6.545 3.206-7.563 6.394-1.035 3.205-.384 6.945 2.438 9.633l55.995 53.374-13.139 76.647c-.651 3.756.968 7.095 3.606 9.065 2.655 1.987 6.344 2.604 9.783.885l69.869-34.826 69.869 34.826c3.439 1.72 7.129 1.102 9.783-.885 2.638-1.97 4.257-5.309 3.606-9.065l-13.139-76.647 55.995-53.374c2.822-2.688 3.473-6.428 2.438-9.633zm-128.552 40.769-.117.033.05-.05.067-.1.067.1.05.05z"
          fill="url(#SVGID_23_)"/>
</svg>