<svg height="512" viewBox="0 0 58 58" width="512" xmlns="http://www.w3.org/2000/svg"><g id="027---Testimonial" fill="none"><path id="Path" d="m18 21.58v-18.58c0-1.65685425 1.3431458-3 3-3h34c1.6568542 0 3 1.34314575 3 3v22c0 1.6568542-1.3431458 3-3 3h-13.69c-.2023641.0008803-.4002138.0598881-.57.17l-11.17 7.65c-.3040317.2109529-.6997051.2367641-1.028566.067097s-.5371422-.5070727-.541434-.877097v-6.01c0-.5522847-.4477153-1-1-1h-4c-.0303454.0016261-.0607516-.0017524-.09-.01z" fill="#2783ec"/><path id="Path" d="m10 47h-5c-2.76142375 0-5 2.2385763-5 5v4c.0032948 1.1032019.89679813 1.9967052 2 2h24c1.1032019-.0032948 1.9967052-.8967981 2-2v-4c0-2.7614237-2.2385763-5-5-5z" fill="#d92936"/><path id="Path" d="m18 42.68v4.32c0 2.209139-1.790861 4-4 4s-4-1.790861-4-4v-4.32z" fill="#e2ac7f"/><path id="Path" d="m5.28 32.48c-.72-4.086-.69-11.48 8.72-11.48s9.44 7.394 8.72 11.48z" fill="#80624b"/><path id="Path" d="m22.65 34.65c-.12.24-.22.46-.3.65-.1826667.4267496-.2778781.8858041-.28 1.35.01.45-.14 1.35-1.49 1.35-.0060123 1.0023262-.206379 1.9939714-.59 2.92-.5159589.734763-1.1976906 1.3377016-1.99 1.76-.09.06-.18.11-.26.16-.21.12-.39.22-.52.29-.1400807.0773669-.2653493.178936-.37.3-.6802341.9085842-1.7185218 1.4805532-2.85 1.57-1.1314782-.0894468-2.1697659-.6614158-2.85-1.57-.1046507-.121064-.2299193-.2226331-.37-.3-.13-.07-.31-.17-.52-.29-.08-.05-.17-.1-.26-.16-.79230942-.4222984-1.47404113-1.025237-1.99-1.76-.38362103-.9260286-.5839877-1.9176738-.59-2.92-1.35 0-1.5-.9-1.49-1.35-.00212194-.4641959-.09733326-.9232504-.28-1.35-.08-.19-.18-.41-.3-.65-.72-1.4-.22-2.4.57-2.59.15217984-.0230674.30639234-.0297723.46-.02.15159938.0190118.29973916.0594136.44.12.10226405-.8096289.27287301-1.6091494.51-2.39.27545629-1.2220609.9469138-2.318892 1.91-3.12.25522151-.1712639.6002701-.1093321.78.14.4.57 1.44 1.21 3.98 1.21s3.58-.64 3.98-1.21c.1797299-.2493321.5247785-.3112639.78-.14.9630862.801108 1.6345437 1.8979391 1.91 3.12.237127.7808506.407736 1.5803711.51 2.39.1402608-.0605864.2884006-.1009882.44-.12.1536077-.0097723.3078202-.0030674.46.02.79.19 1.29 1.19.57 2.59z" fill="#eebd91"/><g fill="#fcc10a"><path id="Path" d="m26.325 5.212.955 2.025c.0506944.11046117.1530454.18844291.273.208l2.136.324c.1390511.02732362.251851.12882602.2936435.2642335.0417924.13540748.0058203.28282717-.0936435.3837665l-1.545 1.576c-.0862897.0890195-.1252484.2136873-.105.336l.365 2.227c.0287982.1381667-.0244127.2805805-.1367551.366012-.1123425.0854315-.2637961.0986561-.3892449.033988l-1.909-1.056c-.1052003-.0580071-.2327997-.0580071-.338 0l-1.91 1.052c-.1254488.0646681-.2769024.0514435-.3892449-.033988-.1123424-.0854315-.1655533-.2278453-.1367551-.366012l.365-2.227c.0202484-.1223127-.0187103-.2469805-.105-.336l-1.545-1.572c-.0994638-.10093933-.1354359-.24835902-.0936435-.3837665.0417925-.13540748.1545924-.23690988.2936435-.2642335l2.136-.324c.1199546-.01955709.2223056-.09753883.273-.208l.955-2.025c.056387-.12954024.1842195-.21331461.3255-.21331461s.269113.08377437.3255.21331461z"/><path id="Path" d="m38.325 5.212.955 2.025c.0506944.11046117.1530454.18844291.273.208l2.136.324c.1390511.02732362.251851.12882602.2936435.2642335.0417924.13540748.0058203.28282717-.0936435.3837665l-1.545 1.576c-.0844877.0899443-.1215563.2144949-.1.336l.365 2.227c.0287982.1381667-.0244127.2805805-.1367551.366012-.1123425.0854315-.2637961.0986561-.3892449.033988l-1.914-1.056c-.1052003-.0580071-.2327997-.0580071-.338 0l-1.91 1.052c-.1254488.0646681-.2769024.0514435-.3892449-.033988-.1123424-.0854315-.1655533-.2278453-.1367551-.366012l.365-2.227c.0215563-.1215051-.0155123-.2460557-.1-.336l-1.55-1.572c-.0994638-.10093933-.1354359-.24835902-.0936435-.3837665.0417925-.13540748.1545924-.23690988.2936435-.2642335l2.136-.324c.1199546-.01955709.2223056-.09753883.273-.208l.955-2.025c.056387-.12954024.1842195-.21331461.3255-.21331461s.269113.08377437.3255.21331461z"/><path id="Path" d="m50.325 5.212.955 2.025c.0506944.11046117.1530454.18844291.273.208l2.136.324c.1390511.02732362.251851.12882602.2936435.2642335.0417924.13540748.0058203.28282717-.0936435.3837665l-1.545 1.576c-.0844877.0899443-.1215563.2144949-.1.336l.365 2.227c.0287982.1381667-.0244127.2805805-.1367551.366012-.1123425.0854315-.2637961.0986561-.3892449.033988l-1.914-1.056c-.1052003-.0580071-.2327997-.0580071-.338 0l-1.91 1.052c-.1254488.0646681-.2769024.0514435-.3892449-.033988-.1123424-.0854315-.1655533-.2278453-.1367551-.366012l.365-2.227c.0215563-.1215051-.0155123-.2460557-.1-.336l-1.55-1.572c-.0994638-.10093933-.1354359-.24835902-.0936435-.3837665.0417925-.13540748.1545924-.23690988.2936435-.2642335l2.136-.324c.1199546-.01955709.2223056-.09753883.273-.208l.955-2.025c.056387-.12954024.1842195-.21331461.3255-.21331461s.269113.08377437.3255.21331461z"/></g><path id="Path" d="m50 19h-24c-.5522847 0-1-.4477153-1-1s.4477153-1 1-1h24c.5522847 0 1 .4477153 1 1s-.4477153 1-1 1z" fill="#0c70dc"/><path id="Path" d="m44 23h-12c-.5522847 0-1-.4477153-1-1s.4477153-1 1-1h12c.5522847 0 1 .4477153 1 1s-.4477153 1-1 1z" fill="#0c70dc"/></g></svg>