

<svg id="Capa_1" enable-background="new 0 0 497 497" height="512" viewBox="0 0 497 497" width="512" xmlns="http://www.w3.org/2000/svg"><path d="m60.391 316.433c-6.626 12.443-10.387 26.645-10.387 41.727v68.814c0 24.706-17.917 45.227-41.466 49.278-4.963.854-8.538 5.248-8.538 10.284 0 5.85 4.798 10.547 10.647 10.463 105.732-1.52 167.408-25.891 196.508-67.086l-54.82-77.855z" fill="#b28ae4"/><path d="m60.391 316.433c-6.626 12.443-10.387 26.645-10.387 41.727v68.814c0 24.706-17.917 45.227-41.466 49.278-4.963.854-8.538 5.248-8.538 10.284 0 5.85 4.798 10.547 10.647 10.463 27.473-.395 51.965-2.336 73.69-5.711 12.365-10.89 20.175-26.83 20.175-44.602v-25.92c-33.979-23.139-51.116-64.031-44.121-104.333z" fill="#976bcf"/><path d="m227.822 358.16c0-49.103-39.806-88.91-88.909-88.91-34.021 0-63.574 19.112-78.522 47.183-6.661 38.375 8.537 77.274 39.447 100.971 30.495 23.378 72.276 28.13 107.317 12.509 14.192-20.09 20.637-44.182 20.665-71.577 0-.058.002-.117.002-.176z" fill="#f2d4d3"/><path d="m138.913 269.251c-34.021 0-63.574 19.112-78.522 47.183-6.995 40.301 10.143 81.194 44.122 104.332v-55.857c0-4.635.302-9.199.881-13.678 4.45-34.38 25.444-63.623 54.774-79.416-6.811-1.672-13.929-2.564-21.255-2.564z" fill="#e8b5b1"/><path d="m489.627 44.943c-7.344-7.344-30.192-30.192-37.57-37.57-9.126-9.126-24.237-10.222-34.652-.795l-151.863 137.454 23.711 63.714 63.716 23.713 137.453-151.863c9.436-10.426 8.321-25.536-.795-34.653z" fill="#e8b5b1"/><path d="m470.84 26.157-18.784-18.784c-9.126-9.126-24.237-10.222-34.652-.795l-151.862 137.454 43.712 43.713 130.932-130.934c11.498-11.498 27.092-17.957 43.352-17.957z" fill="#d6948c"/><path d="m353.82 232.311-89.13-89.131c-4.364-4.364-11.451-4.337-15.781.06-44.519 45.208-46.498 53.734-88.046 107.291-5.721 7.375-5.064 17.859 1.536 24.459l59.612 59.612c6.599 6.598 17.084 7.256 24.457 1.536 53.554-41.546 62.081-43.527 107.284-88.04 4.399-4.33 4.432-11.423.068-15.787z" fill="#ebf3ff"/><path d="m297.735 186.906 11.519.838-44.564-44.564c-4.364-4.364-11.451-4.337-15.781.06-44.519 45.208-46.498 53.734-88.046 107.291-5.721 7.375-5.064 17.859 1.536 24.458l21.655 21.654c0-13.907 5.524-27.244 15.358-37.078l57.44-57.44c10.77-10.769 25.692-16.324 40.883-15.219z" fill="#c1d3f7"/><g fill="#313d40"><path d="m242.576 199.271c-2.929-2.929-7.678-2.929-10.607 0l-7.072 7.072c-2.929 2.929-2.929 7.678 0 10.607s7.678 2.929 10.607 0l7.071-7.071c2.93-2.929 2.93-7.678.001-10.608z"/><path d="m290.662 272.109 7.071-7.071c2.929-2.929 2.929-7.678 0-10.608-2.929-2.929-7.678-2.929-10.607 0l-7.071 7.072c-2.929 2.929-2.929 7.678 0 10.607s7.678 2.929 10.607 0z"/><path d="m277.935 246.983c-1.379-3.908-5.664-5.955-9.569-4.576-7.965 2.811-15.877-5.078-13.059-13.06 1.379-3.906-.67-8.19-4.576-9.569-11.588-4.091-15.994 18.326-3.558 30.762 12.385 12.386 34.878 8.102 30.762-3.557z"/></g></svg>