<!--
  - Copyright (c) 2023. Selldone® Business OS™
  -
  - Author: M.Pajuhaan
  - Web: https://selldone.com
  - ━━━━━━━━━━━━━━━━━━━━━━━━━━━━━━━━━━━━━━━━━━━━━━━━━━━━━━
  -
  - All rights reserved. In the weave of time, where traditions and innovations intermingle, this content was crafted.
  - From the essence of thought, through the corridors of creativity, each word, and sentiment has been molded.
  - Not just to exist, but to inspire. Like an artist's stroke or a sculptor's chisel, every nuance is deliberate.
  - Our journey is not just about reaching a destination, but about creating a masterpiece.
  - Tread carefully, for you're treading on dreams.
  -->

<svg id="Capa_1" enable-background="new 0 0 512 512" height="512" viewBox="0 0 512 512" width="512" xmlns="http://www.w3.org/2000/svg"><g><path d="m256 512-45.071-58.532-66.003 33.18-15.211-72.291-73.864 1.256 17.661-71.732-67.094-30.916 47.036-56.965-47.036-56.965 67.094-30.916-17.661-71.732 73.864 1.256 15.211-72.291 66.003 33.18 45.071-58.532 82.914 256z" fill="#ffb655"/><path d="m458.546 256 47.036-56.965-67.094-30.916 17.661-71.732-73.864 1.256-15.211-72.291-66.003 33.18-45.071-58.532v512l45.071-58.532 66.003 33.18 15.211-72.291 73.864 1.256-17.661-71.732 67.094-30.916z" fill="#ff9100"/><path d="m317 256-61 135.386c-74.772 0-135.386-60.615-135.386-135.386s60.614-135.386 135.386-135.386z" fill="#ffe89c"/><path d="m256 120.614c74.772 0 135.386 60.615 135.386 135.386s-60.614 135.386-135.386 135.386z" fill="#fad17f"/></g></svg>