<svg id="Layer_1" enable-background="new 0 0 48 48" height="512" viewBox="0 0 48 48" width="512" xmlns="http://www.w3.org/2000/svg"><g><path d="m42 30h-36c-3.314 0-6-2.686-6-6 0-3.314 2.686-6 6-6h36c3.314 0 6 2.686 6 6 0 3.314-2.686 6-6 6z" fill="#455a64"/></g><path d="m32 20h-26c-2.209 0-4 1.791-4 4 0 2.209 1.791 4 4 4h26z" fill="#2196f3"/><g fill="#42a5f5"><path d="m12 20-2 8h2l2-8z"/><path d="m8 20-2 8h2l2-8z"/><path d="m2.517 25.931c.373.671.928 1.217 1.605 1.581l1.878-7.512c-.798 0-1.537.24-2.16.642z"/><path d="m16 20-2 8h2l2-8z"/><path d="m30 28h2v-8z"/><path d="m20 20-2 8h2l2-8z"/><path d="m28 20-2 8h2l2-8z"/><path d="m24 20-2 8h2l2-8z"/></g></svg>