<!--
  - Copyright (c) 2023. Selldone® Business OS™
  -
  - Author: M.Pajuhaan
  - Web: https://selldone.com
  - ━━━━━━━━━━━━━━━━━━━━━━━━━━━━━━━━━━━━━━━━━━━━━━━━━━━━━━
  -
  - All rights reserved. In the weave of time, where traditions and innovations intermingle, this content was crafted.
  - From the essence of thought, through the corridors of creativity, each word, and sentiment has been molded.
  - Not just to exist, but to inspire. Like an artist's stroke or a sculptor's chisel, every nuance is deliberate.
  - Our journey is not just about reaching a destination, but about creating a masterpiece.
  - Tread carefully, for you're treading on dreams.
  -->

<svg id="Layer_1" enable-background="new 0 0 512 512" height="512" viewBox="0 0 512 512" width="512" xmlns="http://www.w3.org/2000/svg"><g><circle cx="256" cy="256" fill="#56ace0" r="189.7"/><path d="" style="fill:none;stroke:#194f82;stroke-width:4;stroke-linecap:round;stroke-linejoin:round;stroke-miterlimit:10"/><g fill="#194f82"><path d="m468.6 443.5-37.5-3.7c50.4-47.8 78.9-113.5 78.9-183.8 0-140.1-113.9-254-254-254s-254 113.9-254 254 113.9 254 254 254c7.8 0 14.1-6.3 14.1-14.1s-6.3-14.1-14.1-14.1c-124.5 0-225.8-101.3-225.8-225.8s101.3-225.8 225.8-225.8 225.8 101.3 225.8 225.8c0 61.2-24.3 118.3-67.2 160.5l3.4-34.8c.8-7.8-4.9-14.7-12.7-15.4-7.7-.8-14.7 4.9-15.4 12.7l-6.9 70.2c-.8 7.8 4.9 14.7 12.7 15.4l70.2 6.9c.5 0 .9.1 1.4.1 7.2 0 13.3-5.4 14-12.7.7-7.8-4.9-14.7-12.7-15.4z"/><path d="m256 55.3c-7.8 0-14.1 6.3-14.1 14.1v15c0 7.8 6.3 14.1 14.1 14.1s14.1-6.3 14.1-14.1v-15c0-7.8-6.3-14.1-14.1-14.1z"/><path d="m256 413.4c-7.8 0-14.1 6.3-14.1 14.1v15c0 7.8 6.3 14.1 14.1 14.1s14.1-6.3 14.1-14.1v-15c0-7.8-6.3-14.1-14.1-14.1z"/><path d="m442.6 270.1c7.8 0 14.1-6.3 14.1-14.1s-6.3-14.1-14.1-14.1h-15c-7.8 0-14.1 6.3-14.1 14.1s6.3 14.1 14.1 14.1z"/><path d="m84.5 241.9h-15c-7.8 0-14.1 6.3-14.1 14.1s6.3 14.1 14.1 14.1h15c7.8 0 14.1-6.3 14.1-14.1s-6.3-14.1-14.1-14.1z"/><path d="m270.1 256v-110.3c0-7.8-6.3-14.1-14.1-14.1s-14.1 6.3-14.1 14.1v96.2h-42.7c-7.8 0-14.1 6.3-14.1 14.1s6.3 14.1 14.1 14.1h56.8c7.8 0 14.1-6.3 14.1-14.1z"/></g></g></svg>