

<svg id="Capa_1" enable-background="new 0 0 505.411 505.411" height="512" viewBox="0 0 505.411 505.411" width="512" xmlns="http://www.w3.org/2000/svg"><g><path d="m53.7 220.559c-4.173-9.405-6.289-19.426-6.289-29.783 0-40.528 32.972-73.5 73.5-73.5h190.385v30h-190.385c-23.986 0-43.5 19.514-43.5 43.5 0 6.14 1.249 12.066 3.711 17.617z" fill="#2681ff"/><path d="m275.153 86.379c0 54.233 69.103 121.897 69.103 121.897l15.92-99.663-15.92-91.337c-38.164 0-69.103 30.938-69.103 69.103z" fill="#ff4a4a"/><path d="m344.256 17.276v191s69.103-65.914 69.103-121.897c.001-38.165-30.938-69.103-69.103-69.103z" fill="#af3244"/><path d="m415.411 406.276h-242v-30h242c33.084 0 60-26.916 60-60s-26.916-60-60-60h-233v-30h233c49.626 0 90 40.374 90 90s-40.374 90-90 90z" fill="#2681ff"/><path d="m108.706 193.276c-59.941 0-108.706 48.766-108.706 108.706 0 78.939 94.201 172.085 98.211 176.012l10.357 10.142.269-.256 10.899-155.009-10.899-139.592c-.043-.002-.087-.003-.131-.003z" fill="#ffd944"/><path d="m108.838 193.278v294.601l10.221-9.749c4.016-3.831 98.353-94.749 98.353-176.148-.001-59.896-48.695-108.633-108.574-108.704z" fill="#ff9000"/><path d="m329.256 72.276v30h15l6.673-14.47-6.673-15.53z" fill="#ffd944"/><path d="m344.256 72.276h15v30h-15z" fill="#ff9000"/><path d="m108.706 261.719c-22.399 0-40.557 18.158-40.557 40.557s18.158 40.557 40.557 40.557c.044 0 .088-.003.132-.003l7.927-39.685-7.927-41.423c-.045 0-.088-.003-.132-.003z" fill="#ff4a4a"/><path d="m149.263 302.276c0-22.355-18.087-40.482-40.425-40.554v81.107c22.338-.071 40.425-18.198 40.425-40.553z" fill="#af3244"/></g></svg>