

<svg id="Capa_1" enable-background="new 0 0 510 510" height="512" viewBox="0 0 510 510" width="512" xmlns="http://www.w3.org/2000/svg" xmlns:xlink="http://www.w3.org/1999/xlink"><linearGradient id="lg1"><stop offset="0" stop-color="#8a7889"/><stop offset="1" stop-color="#6e566e"/></linearGradient><linearGradient id="SVGID_1_" gradientUnits="userSpaceOnUse" x1="174.917" x2="312.464" xlink:href="#lg1" y1="441.227" y2="441.227"/><linearGradient id="SVGID_2_" gradientUnits="userSpaceOnUse" x1="255.638" x2="173.367" y1="453.174" y2="370.903"><stop offset="0" stop-color="#8a7889" stop-opacity="0"/><stop offset="1" stop-color="#9d8b91"/></linearGradient><linearGradient id="lg2"><stop offset="0" stop-color="#6e566e" stop-opacity="0"/><stop offset=".8228" stop-color="#59465a" stop-opacity=".866"/><stop offset="1" stop-color="#564357"/></linearGradient><linearGradient id="SVGID_3_" gradientUnits="userSpaceOnUse" x1="246.24" x2="313.552" xlink:href="#lg2" y1="468.144" y2="407.817"/><linearGradient id="lg3"><stop offset="0" stop-color="#fff" stop-opacity="0"/><stop offset="1" stop-color="#fff"/></linearGradient><linearGradient id="SVGID_4_" gradientUnits="userSpaceOnUse" x1="243.691" x2="243.691" xlink:href="#lg3" y1="420.076" y2="355.225"/><radialGradient id="SVGID_5_" cx="147.938757" cy="144.101425" gradientUnits="userSpaceOnUse" r="296.603143"><stop offset="0" stop-color="#ffd945"/><stop offset=".509" stop-color="#ffd744"/><stop offset=".6924" stop-color="#ffd040"/><stop offset=".823" stop-color="#ffc539"/><stop offset=".9279" stop-color="#ffb42f"/><stop offset="1" stop-color="#ffa325"/></radialGradient><linearGradient id="SVGID_6_" gradientTransform="matrix(1.036 0 0 1 -28.147 -.003)" gradientUnits="userSpaceOnUse" x1="262.342" x2="262.342" y1="378.32" y2="447.564"><stop offset="0" stop-color="#ffd945"/><stop offset=".3596" stop-color="#ffc93b"/><stop offset="1" stop-color="#ffa325"/></linearGradient><linearGradient id="SVGID_7_" gradientUnits="userSpaceOnUse" x1="243.691" x2="243.691" xlink:href="#lg3" y1="183.471" y2="-17.971"/><linearGradient id="SVGID_8_" gradientUnits="userSpaceOnUse" x1="422.521" x2="361.243" y1="384.916" y2="323.638"><stop offset="0" stop-color="#e87264" stop-opacity="0"/><stop offset="1" stop-color="#ff7044"/></linearGradient><linearGradient id="SVGID_9_" gradientUnits="userSpaceOnUse" x1="339.684" x2="257.844" y1="122.33" y2="304.561"><stop offset="0" stop-color="#ff7044"/><stop offset="1" stop-color="#f82814"/></linearGradient><linearGradient id="lg4"><stop offset="0" stop-color="#f82814" stop-opacity="0"/><stop offset="1" stop-color="#c0272d"/></linearGradient><linearGradient id="SVGID_10_" gradientTransform="matrix(.707 .707 -.707 .707 -1082.808 -1068.172)" gradientUnits="userSpaceOnUse" x1="1862.32" x2="1740.43" xlink:href="#lg4" y1="-88.947" y2="-3.84"/><linearGradient id="SVGID_11_" gradientUnits="userSpaceOnUse" x1="179.679" x2="256.201" xlink:href="#lg1" y1="65.044" y2="65.044"/><linearGradient id="SVGID_12_" gradientUnits="userSpaceOnUse" x1="251.903" x2="207.072" xlink:href="#lg2" y1="53.885" y2="29.787"/><linearGradient id="SVGID_13_" gradientUnits="userSpaceOnUse" x1="200.471" x2="250.941" xlink:href="#lg2" y1="103.7" y2="122.66"/><linearGradient id="SVGID_14_" gradientTransform="matrix(.707 .707 -.707 .707 -1082.808 -1068.172)" gradientUnits="userSpaceOnUse" x1="1856.517" x2="1785.707" xlink:href="#lg4" y1="-47.457" y2="-104.57"/><linearGradient id="SVGID_15_" gradientTransform="matrix(.707 .707 -.707 .707 -1082.808 -1068.172)" gradientUnits="userSpaceOnUse" x1="1922.765" x2="1834.96" xlink:href="#lg4" y1="-30.057" y2="-105.875"/><linearGradient id="SVGID_16_" gradientTransform="matrix(.707 .707 -.707 .707 -1082.808 -1068.172)" gradientUnits="userSpaceOnUse" x1="1969.866" x2="1895.655" xlink:href="#lg4" y1="-37.536" y2="-91.874"/><linearGradient id="SVGID_17_" gradientTransform="matrix(.707 .707 -.707 .707 -1082.808 -1068.172)" gradientUnits="userSpaceOnUse" x1="2016.333" x2="1960.573" xlink:href="#lg4" y1="-51.756" y2="-88.93"/><linearGradient id="lg5"><stop offset="0" stop-color="#f8f6fb"/><stop offset="1" stop-color="#efdcfb"/></linearGradient><linearGradient id="SVGID_18_" gradientTransform="matrix(.707 .707 -.707 .707 -1082.808 -1068.172)" gradientUnits="userSpaceOnUse" x1="1816.309" x2="1816.309" xlink:href="#lg5" y1="-110.411" y2="-67.034"/><linearGradient id="SVGID_19_" gradientTransform="matrix(.707 .707 -.707 .707 -1082.808 -1068.172)" gradientUnits="userSpaceOnUse" x1="1872.491" x2="1872.491" xlink:href="#lg5" y1="-110.411" y2="-67.034"/><linearGradient id="SVGID_20_" gradientTransform="matrix(.707 .707 -.707 .707 -1082.808 -1068.172)" gradientUnits="userSpaceOnUse" x1="1928.674" x2="1928.674" xlink:href="#lg5" y1="-110.411" y2="-67.034"/><linearGradient id="SVGID_21_" gradientTransform="matrix(.707 .707 -.707 .707 -1082.808 -1068.172)" gradientUnits="userSpaceOnUse" x1="1979.867" x2="1979.867" xlink:href="#lg5" y1="-110.411" y2="-67.034"/><g><g><g><g><circle cx="243.69" cy="441.227" fill="url(#SVGID_1_)" r="68.773"/><circle cx="243.69" cy="441.227" fill="url(#SVGID_2_)" r="61.389"/><path d="m274.455 379.706c4.638 9.258 7.253 19.705 7.253 30.764 0 37.983-30.791 68.774-68.774 68.774-11.059 0-21.507-2.615-30.764-7.253 11.292 22.536 34.598 38.009 61.52 38.009 37.983 0 68.774-30.791 68.774-68.773 0-26.923-15.473-50.229-38.009-61.521z" fill="url(#SVGID_3_)"/></g><path d="m290.193 411.793c0 17.648-20.82 31.955-46.503 31.955s-46.502-14.307-46.502-31.955c0-17.649 20.819-31.956 46.502-31.956 25.683.001 46.503 14.308 46.503 31.956z" fill="url(#SVGID_4_)"/></g><g><g><path d="m433.286 373.921-42.458-84.376c-15.778-31.356-23.997-65.97-23.997-101.072v-.664c0-67.961-55.093-123.054-123.054-123.054-67.961 0-123.054 55.093-123.054 123.054 0 35.427-8.372 70.354-24.432 101.932l-42.223 83.02c-8.964 17.626.685 39.021 19.831 43.969l9.948 2.571c104.699 27.058 214.516 27.394 319.379.976l9.961-2.51c19.176-4.83 28.956-26.165 20.099-43.846z" fill="url(#SVGID_5_)"/><path d="m444.774 370.584c-3.517-6.831-11.519-10.228-19.163-8.305-.146.037-.292.072-.439.107l-10.668 2.538c-112.298 26.716-229.757 25.783-341.604-2.716l-10.627-2.708c-.046-.012-.091-.023-.137-.035-7.639-1.979-15.684 1.245-19.303 8.031l-1.828 3.429c-9.679 18.151.531 40.295 20.984 45.506l10.627 2.708c111.847 28.499 229.306 29.433 341.604 2.716l10.668-2.538c20.535-4.885 31.106-26.863 21.724-45.166z" fill="url(#SVGID_6_)"/></g></g><ellipse cx="243.69" cy="149.594" fill="url(#SVGID_7_)" rx="100.758" ry="77.952"/></g><path d="m444.774 370.584c-3.264-6.339-10.39-9.714-17.509-8.63l-31.271-62.143-58.578 58.577 65.957 65.957c3.62-.802 7.236-1.63 10.846-2.489l10.668-2.538c20.535-4.885 31.106-26.863 21.724-45.166z" fill="url(#SVGID_8_)"/><g><g><path d="m469.432 238.763-168.05-168.061c-3.634-3.623-8.544-5.653-13.673-5.653h-101.823c-8.828 0-15.997 7.159-15.997 15.987v101.823c0 5.129 2.041 10.05 5.663 13.673l168.061 168.05c4.332 4.332 11.36 4.332 15.692 0l110.127-110.127c4.332-4.333 4.332-11.36 0-15.692zm-250.318-108.676c-9.766 0-17.678-7.922-17.678-17.7s7.911-17.689 17.678-17.689c9.777 0 17.711 7.911 17.711 17.689s-7.933 17.7-17.711 17.7z" fill="url(#SVGID_9_)"/></g><path d="m469.432 254.455c3.066-3.066 3.961-7.497 2.684-11.349-.524-1.593-1.419-3.088-2.684-4.343l-168.05-168.061c-1.517-1.506-3.241-2.728-5.118-3.645-2.63-1.309-5.554-2.008-8.555-2.008h-101.823c-2.193 0-4.289.447-6.198 1.244.24 25.938 8.162 46.836 20.417 57.017l200.241 200.241zm-250.318-124.368c-9.766 0-17.678-7.922-17.678-17.7s7.911-17.689 17.678-17.689c9.777 0 17.711 7.912 17.711 17.689 0 9.778-7.933 17.7-17.711 17.7z" fill="url(#SVGID_10_)"/><g><g><g><path d="m217.94 130.088c-22.17 0-38.261-27.354-38.261-65.043s16.092-65.045 38.261-65.045c22.17 0 38.261 27.355 38.261 65.045h-30.206c0-15.746-3.829-26.734-6.931-31.939-.506-.849-1.741-.849-2.247 0-3.102 5.206-6.932 16.193-6.932 31.939 0 17.672 4.824 29.35 8.029 33.587 2-2.658 5.535-3.631 8.56-2.255 15.705 7.144 12.852 30.482-4.163 33.344-1.614.271-3.091.367-4.371.367z" fill="url(#SVGID_11_)"/></g><path d="m232.364 19.899c-9.253 0-15.546 13.207-15.546 13.207.506-.849 1.741-.849 2.247 0 3.102 5.205 6.931 16.193 6.931 31.939h28.858v-.001c-.001-24.933-10.07-45.145-22.49-45.145z" fill="url(#SVGID_12_)"/><path d="m226.475 96.376c-3.025-1.376-6.56-.402-8.56 2.256-1.623-2.145-3.659-6.205-5.276-11.977h-31.028c4.892 26.086 18.679 43.434 36.329 43.434 1.28 0 2.757-.096 4.372-.368 17.015-2.864 19.868-26.201 4.163-33.345z" fill="url(#SVGID_13_)"/></g></g><g><path d="m298.769 319.741-40.233-40.223-33.71-33.71v-81.078c-.525-3.585.077-6.635 1.918-8.476 2.402-2.402 8.043-3.81 10.73-1.122 3.32 3.32.219 10.654 6.778 17.212 1.918 1.918 4.391 3.504 6.814 3.794l.031-31.15c-.541-5.559.653-11.179 5.86-16.386 10.582-10.582 23.837-5.365 32.66 3.458 3.31 3.31 11.215 12.316 9.154 18.161v169.52z" fill="url(#SVGID_14_)"/><path d="m331.051 352.024-32.282-32.282-40.233-40.223v-77.009c-.612-2.234-.525-4.422.811-5.758.214-.214.561-.418.923-.627l38.499-20.517 17.661-9.409c3.249-1.688 7.619.296 10.863 3.539 3.085 3.085 5.018 7.17 3.759 10.358v171.928z" fill="url(#SVGID_15_)"/><path d="m359.672 364.213-.367.367c-4.335 4.335-11.363 4.335-15.692.005l-40.917-40.917v-75.397c-.826-1.867-.836-3.845.612-5.294l44.879-44.879c2.326-2.326 6.064-.556 8.813 2.193 2.524 2.524 4.218 5.88 2.672 8.211v47.552z" fill="url(#SVGID_16_)"/><path d="m416.725 307.16-57.42 57.42c-4.335 4.335-11.363 4.335-15.692.005l-6.196-6.196v-75.397c-.826-1.867-.836-3.845.612-5.294l44.813-44.813c2.254-2.254 5.768-.984 8.17 1.418l25.122 25.122c1.484 1.484 1.423 3.432.592 5.232z" fill="url(#SVGID_17_)"/></g><g><g><path d="m255.743 174.531c8.538-8.538-15.312-29.424 1.199-45.935 10.584-10.584 23.85-5.363 32.67 3.458 3.74 3.74 13.336 14.747 7.832 20.251-1.905 1.905-7.056 4.516-10.16 1.411-2.54-2.54-1.2-6.562-6.986-12.348-5.01-5.01-9.103-5.01-11.29-2.822-7.056 7.056 16.653 28.083-1.129 45.865-10.161 10.161-23.074 8.256-33.305-1.976-9.244-9.244-12.489-21.521-7.832-26.178 2.399-2.399 8.044-3.81 10.725-1.129 3.316 3.316.212 10.655 6.774 17.217 3.247 3.244 8.115 5.573 11.502 2.186z" fill="url(#SVGID_18_)"/><path d="m259.342 196.758c.212-.212.565-.423.917-.635l56.167-29.918c3.246-1.693 7.621.283 10.866 3.528 3.246 3.246 5.222 7.621 3.528 10.866l-29.847 56.238c-.212.353-.423.705-.635.917-2.611 2.611-8.538.494-11.572-2.54-1.764-1.764-2.611-3.74-1.552-5.645l6.421-11.219-14.888-14.888-11.219 6.421c-1.905 1.058-3.881.212-5.645-1.552-3.035-3.035-5.152-8.962-2.541-11.573zm40.432 10.796 13.759-24.062-24.061 13.759z" fill="url(#SVGID_19_)"/><path d="m304.714 251.161c-2.399-2.399-3.669-5.927-1.411-8.185l44.877-44.877c2.329-2.329 6.068-.564 8.82 2.187 2.752 2.752 4.516 6.492 2.188 8.82l-38.668 38.668 16.088 16.088c2.117 2.117.776 5.574-1.623 7.973s-5.857 3.74-7.974 1.623z" fill="url(#SVGID_20_)"/><path d="m375.699 262.029 10.584 10.584c2.117 2.117 1.27 5.363-.988 7.621-1.905 1.905-5.151 3.175-7.479.847l-10.584-10.584-11.995 11.996 18.91 18.91c2.117 2.117 1.058 5.574-1.552 8.185-2.258 2.258-5.715 3.74-8.044 1.411l-25.12-25.12c-2.399-2.399-3.669-5.927-1.411-8.185l44.807-44.806c2.258-2.258 5.786-.988 8.185 1.411l25.12 25.12c2.329 2.329.847 5.786-1.411 8.044-2.611 2.611-6.068 3.669-8.185 1.552l-18.91-18.91z" fill="url(#SVGID_21_)"/></g></g></g></g></svg>