<svg xmlns:xlink="http://www.w3.org/1999/xlink" id="Capa_1" enable-background="new 0 0 510 510" height="512" viewBox="0 0 510 510"
     width="512" xmlns="http://www.w3.org/2000/svg">
    <linearGradient id="lg1">
        <stop offset="0" stop-color="#ffeee6"/>
        <stop offset="1" stop-color="#ffb09e"/>
    </linearGradient>
    <linearGradient id="SVGID_1_" gradientTransform="matrix(.73 .684 .684 -.73 -1851.802 1372.91)"
                    gradientUnits="userSpaceOnUse" x1="670.606" x2="656.694" xlink:href="#lg1" y1="2350.005"
                    y2="2372.574"/>
    <linearGradient id="SVGID_2_" gradientTransform="matrix(.7 .688 .684 -.701 -1863.531 1349.195)"
                    gradientUnits="userSpaceOnUse" x1="665.08" x2="647.686" xlink:href="#lg1" y1="2416.026"
                    y2="2444.457"/>
    <linearGradient id="SVGID_3_" gradientTransform="matrix(-.876 -.483 .483 -.876 1765.273 1793.14)"
                    gradientUnits="userSpaceOnUse" x1="2123.883" x2="2126.467" xlink:href="#lg1" y1="769.8"
                    y2="794.531"/>
    <linearGradient id="lg2">
        <stop offset="0" stop-color="#f1b0a2"/>
        <stop offset="1" stop-color="#ca6e59"/>
    </linearGradient>
    <linearGradient id="SVGID_4_" gradientTransform="matrix(-.73 -.684 -.684 .73 3119.241 87.084)"
                    gradientUnits="userSpaceOnUse" x1="1872.802" x2="1858.89" xlink:href="#lg2" y1="2174.401"
                    y2="2196.969"/>
    <linearGradient id="SVGID_5_" gradientTransform="matrix(-.7 -.688 -.684 .701 3130.97 110.8)"
                    gradientUnits="userSpaceOnUse" x1="1893.005" x2="1875.611" xlink:href="#lg2" y1="2266.07"
                    y2="2294.501"/>
    <linearGradient id="SVGID_6_" gradientTransform="matrix(.876 .483 -.483 .876 -497.834 -333.145)"
                    gradientUnits="userSpaceOnUse" x1="1001.889" x2="1004.473" xlink:href="#lg2" y1="303.677"
                    y2="328.408"/>
    <linearGradient id="lg3">
        <stop offset="0" stop-color="#b3dafe"/>
        <stop offset="1" stop-color="#4fc123"/>
    </linearGradient>
    <linearGradient id="SVGID_7_" gradientUnits="userSpaceOnUse" x1="46.786" x2="336.624" xlink:href="#lg3"
                    y1="-163.238" y2="418.958"/>
    <linearGradient id="SVGID_8_" gradientUnits="userSpaceOnUse" x1="461.981" x2="201.127" xlink:href="#lg3"
                    y1="600.968" y2="164.951"/>
    <linearGradient id="lg4">
        <stop offset="0" stop-color="#4fc123" stop-opacity="0"/>
        <stop offset="1" stop-color="#017b4e"/>
    </linearGradient>
    <linearGradient id="SVGID_9_" gradientUnits="userSpaceOnUse" x1="255" x2="255" xlink:href="#lg4" y1="292.805"
                    y2="389.871"/>
    <linearGradient id="SVGID_10_" gradientUnits="userSpaceOnUse" x1="87.024" x2="275.49" xlink:href="#lg4" y1="87.024"
                    y2="275.49"/>
    <linearGradient id="SVGID_11_" gradientUnits="userSpaceOnUse" x1="254.983" x2="254.983" xlink:href="#lg4"
                    y1="287.333" y2="158.114"/>
    <linearGradient id="SVGID_12_" gradientTransform="matrix(.876 .483 -.483 .876 -497.834 -333.145)"
                    gradientUnits="userSpaceOnUse" x1="1001.88" x2="1102.653" xlink:href="#lg2" y1="184.794"
                    y2="340.936"/>
    <linearGradient id="SVGID_13_" gradientTransform="matrix(.876 .483 -.483 .876 -497.834 -333.145)"
                    gradientUnits="userSpaceOnUse" x1="1048.983" x2="1045.661" y1="209.321" y2="280.192">
        <stop offset="0" stop-color="#ca6e59" stop-opacity="0"/>
        <stop offset=".5547" stop-color="#a75542" stop-opacity=".555"/>
        <stop offset="1" stop-color="#883f2e"/>
    </linearGradient>
    <linearGradient id="SVGID_14_" gradientUnits="userSpaceOnUse" x1="153.723" x2="264.808" xlink:href="#lg1"
                    y1="-19.62" y2="210.485"/>
    <linearGradient id="SVGID_15_" gradientUnits="userSpaceOnUse" x1="188.039" x2="238.027" y1="155.705" y2="105.717">
        <stop offset="0" stop-color="#ffb09e" stop-opacity="0"/>
        <stop offset="1" stop-color="#ec806b"/>
    </linearGradient>
    <g>
        <g>
            <path d="m321.277 100.182c-5.377 14.407-21.489 21.729-35.881 16.313l-58.612-22.04c-16.372-6.161-33.612-9-50.783-8.611l14.317-54.16c21.767 1.888 43.361 6.635 64.194 14.318l50.464 18.621c14.369 5.296 21.664 21.213 16.301 35.559z"
                  fill="url(#SVGID_1_)"/>
            <path d="m357.299 105.008c-6.216 13.735-22.443 19.783-36.139 13.475l-55.776-25.672c-21.709-9.998-45.495-13.834-68.866-11.477l-21.676-54.678c41.037-3.565 82.687 3.353 120.868 20.633l48.046 21.756c13.681 6.19 19.741 22.288 13.543 35.963z"
                  fill="url(#SVGID_2_)"/>
            <path d="m382.302 103.951c-7.228 13.573-24.163 18.71-37.717 11.445l-55.199-29.566c-21.484-11.514-45.486-16.894-69.465-15.953l-18.554-56.925c42.069-1.068 84.082 8.557 121.886 28.498l47.572 25.105c13.547 7.143 18.683 23.882 11.477 37.396z"
                  fill="url(#SVGID_3_)"/>
        </g>
        <g>
            <path d="m188.723 409.818c5.377-14.407 21.489-21.729 35.881-16.313l58.612 22.04c16.371 6.161 33.612 9 50.783 8.611l-14.317 54.16c-21.767-1.888-43.361-6.635-64.194-14.318l-50.464-18.621c-14.369-5.296-21.664-21.213-16.301-35.559z"
                  fill="url(#SVGID_4_)"/>
            <path d="m152.701 404.992c6.216-13.735 22.443-19.783 36.139-13.475l55.776 25.672c21.709 9.998 45.495 13.833 68.866 11.477l21.676 54.678c-41.037 3.565-82.687-3.353-120.867-20.633l-48.046-21.756c-13.681-6.19-19.742-22.287-13.544-35.963z"
                  fill="url(#SVGID_5_)"/>
            <path d="m127.698 406.049c7.228-13.573 24.163-18.71 37.717-11.445l55.199 29.566c21.484 11.514 45.486 16.894 69.465 15.953l18.554 56.925c-42.069 1.068-84.082-8.557-121.886-28.498l-47.572-25.105c-13.547-7.143-18.682-23.882-11.477-37.396z"
                  fill="url(#SVGID_6_)"/>
        </g>
        <g>
            <g>
                <g>
                    <path d="m453.298 397.792h-396.596c-15.062 0-27.272-12.21-27.272-27.272v-231.04c0-15.062 12.21-27.272 27.272-27.272h396.595c15.062 0 27.272 12.21 27.272 27.272v231.04c.001 15.062-12.209 27.272-27.271 27.272z"
                          fill="url(#SVGID_7_)"/>
                    <path d="m433.217 374.748h-356.434c-13.048 0-23.625-10.577-23.625-23.625v-192.246c0-13.048 10.577-23.625 23.625-23.625h356.433c13.047 0 23.625 10.577 23.625 23.625v192.246c0 13.048-10.577 23.625-23.624 23.625z"
                          fill="url(#SVGID_8_)"/>
                    <g fill="#017b4e">
                        <g>
                            <path d="m78.129 184.665h30.076c3.664 0 6.634 2.97 6.634 6.634s-2.97 6.634-6.634 6.634h-30.076c-3.664 0-6.634-2.97-6.634-6.634s2.97-6.634 6.634-6.634z"/>
                            <path d="m131.204 197.933c-3.664 0-6.634-2.97-6.634-6.634s2.97-6.634 6.634-6.634h7.519c3.664 0 6.634 2.97 6.634 6.634s-2.97 6.634-6.634 6.634z"/>
                            <path d="m180.583 166.678h-102.454c-3.664 0-6.634-2.97-6.634-6.634s2.97-6.634 6.634-6.634h102.454c3.664 0 6.634 2.97 6.634 6.634.001 3.664-2.97 6.634-6.634 6.634z"/>
                        </g>
                        <g>
                            <path d="m431.871 325.336h-30.076c-3.664 0-6.634-2.97-6.634-6.634s2.97-6.634 6.634-6.634h30.076c3.664 0 6.634 2.97 6.634 6.634 0 3.663-2.97 6.634-6.634 6.634z"/>
                            <path d="m378.796 312.067c3.664 0 6.634 2.97 6.634 6.634s-2.97 6.634-6.634 6.634h-7.519c-3.664 0-6.634-2.97-6.634-6.634s2.97-6.634 6.634-6.634z"/>
                            <path d="m329.417 343.322h102.454c3.664 0 6.634 2.97 6.634 6.634s-2.97 6.634-6.634 6.634h-102.454c-3.664 0-6.634-2.97-6.634-6.634s2.97-6.634 6.634-6.634z"/>
                        </g>
                    </g>
                </g>
                <path d="m29.43 261.301v109.219c0 15.062 12.21 27.272 27.272 27.272h396.595c15.062 0 27.272-12.21 27.272-27.272v-109.219z"
                      fill="url(#SVGID_9_)"/>
            </g>
            <g>
                <circle cx="255" cy="255" fill="url(#SVGID_10_)" r="82.993"/>
            </g>
        </g>
        <path d="m260.104 151.428h-230.674v219.092c0 15.062 12.21 27.272 27.272 27.272h396.595c14.613 0 26.539-11.493 27.238-25.932z"
              fill="url(#SVGID_11_)"/>
        <g>
            <g>
                <g>
                    <path d="m134.39 396.962 22.967 17.198c1.009.708 2.025 1.403 3.049 2.084 27.574 18.372 60.878 26.029 93.859 22.852 27.582-2.658 38.619-4.601 74.142-23.779 6.194-3.344 7.049-10.036 1.911-14.848l-1.408-1.319c-27.55-11.075-53.998-24.662-79.013-40.578-14.363-9.138-18.285-28.377-8.724-42.461 8.703-12.82 25.672-16.951 39.331-9.635 23.453 12.561 49.285 20.218 75.902 22.414 5.086.42 10.202.281 15.277-.248 15.988-1.665 54.699-5.425 67.663-4.245.12.011.24.022.36.033 33.935 3.141 61.732 28.286 68.36 61.72l.394 1.99c8.57 43.185-19.508 85.148-62.703 93.711l-74.587 14.786-46.981 8.857c-73.741 13.299-149.754-3.117-211.256-45.623l-14.925-11.117c-14.378-9.933-17.922-29.608-7.92-43.955 10.036-14.398 29.931-17.914 44.302-7.837z"
                          fill="url(#SVGID_12_)"/>
                    <path d="m241.173 316.11c8.703-12.82 25.672-16.95 39.33-9.635 25.869 13.855 54.633 21.744 84.152 22.919.444.018.887.038 1.33.06 49.895 2.497 54.935 74.28 5.883 83.751-3.525.681-7.172.331-10.503-1.009l-32.456-13.047c-27.55-11.075-53.998-24.662-79.013-40.578-14.363-9.137-18.285-28.377-8.723-42.461z"
                          fill="url(#SVGID_13_)"/>
                </g>
            </g>
        </g>
        <g>
            <g>
                <g>
                    <path d="m375.611 113.038-22.967-17.198c-1.009-.708-2.025-1.403-3.049-2.085-27.574-18.372-60.878-26.029-93.859-22.852-27.582 2.658-38.619 4.601-74.142 23.779-6.194 3.344-7.049 10.036-1.911 14.848l1.408 1.319c27.55 11.075 53.998 24.662 79.013 40.578 14.363 9.138 18.285 28.377 8.724 42.462-8.703 12.82-25.672 16.951-39.331 9.635-23.453-12.561-49.285-20.218-75.902-22.414-5.086-.42-10.202-.281-15.277.248-15.988 1.665-54.699 5.425-67.663 4.245-.12-.011-.24-.022-.36-.033-33.935-3.141-61.732-28.286-68.36-61.72l-.394-1.99c-8.57-43.185 19.508-85.148 62.703-93.711l74.587-14.786 46.981-8.857c73.741-13.299 149.754 3.117 211.256 45.623l14.925 11.117c14.378 9.933 17.922 29.608 7.92 43.955-10.037 14.398-29.932 17.914-44.302 7.837z"
                          fill="url(#SVGID_14_)"/>
                    <path d="m268.827 193.89c-8.703 12.82-25.672 16.95-39.331 9.635-25.869-13.855-54.633-21.744-84.152-22.919-.444-.018-.887-.038-1.33-.06-49.895-2.497-54.935-74.28-5.883-83.751 3.525-.681 7.172-.33 10.503 1.009l32.456 13.047c27.55 11.075 53.998 24.662 79.013 40.578 14.364 9.138 18.286 28.377 8.724 42.461z"
                          fill="url(#SVGID_15_)"/>
                </g>
            </g>
        </g>
    </g>
</svg>