<?xml version="1.0" encoding="iso-8859-1"?>
<!-- Generator: Adobe Illustrator 19.0.0, SVG Export Plug-In . SVG Version: 6.00 Build 0)  -->
<svg version="1.1" id="Capa_1" xmlns="http://www.w3.org/2000/svg" xmlns:xlink="http://www.w3.org/1999/xlink" x="0px" y="0px"
	 viewBox="0 0 511.998 511.998" style="enable-background:new 0 0 511.998 511.998;" xml:space="preserve">
<g>
	<g>
		<path d="M414.498,188.525h-32.234l9.712-111.509c0.018-0.202,0.021-0.401,0.022-0.6c0-0.017,0.002-0.033,0.002-0.05
			c0-0.003,0-0.005,0-0.008c0-3.035-1.831-5.71-4.522-6.873c-0.023-0.01-0.045-0.022-0.068-0.032c-0.167-0.07-0.34-0.13-0.514-0.188
			c-0.065-0.021-0.127-0.047-0.192-0.067c-0.142-0.043-0.288-0.077-0.433-0.112c-0.102-0.024-0.2-0.053-0.303-0.073
			c-0.127-0.025-0.259-0.041-0.389-0.06c-0.122-0.018-0.242-0.039-0.365-0.05c-0.021-0.002-0.04-0.006-0.061-0.008
			c-0.132-0.012-0.262-0.01-0.393-0.015c-0.088-0.003-0.174-0.013-0.262-0.013h-0.094c-0.008,0-0.016,0-0.023,0H231.01
			c-4.14,0-7.5,3.36-7.5,7.5c0,4.13,3.36,7.5,7.5,7.5h145.313l-14.926,171.375c-0.002,0.013-0.002,0.026-0.004,0.039l-3.766,43.241
			H97.018l4.359-44.998h49.621c4.143,0,7.5-3.358,7.5-7.5c0-4.142-3.357-7.5-7.5-7.5h-48.167l9.204-94.995h78.975
			c4.143,0,7.5-3.358,7.5-7.5c0-4.142-3.357-7.5-7.5-7.5h-77.521l4.328-44.662h83.193c4.13,0,7.5-3.37,7.5-7.5
			c0-4.14-3.37-7.5-7.5-7.5h-90c-0.004,0-0.007,0.001-0.011,0.001c-3.523-0.001-6.579,2.479-7.318,5.917
			c-0.005,0.025-0.014,0.049-0.019,0.074c-0.038,0.187-0.063,0.378-0.088,0.57c-0.007,0.061-0.02,0.119-0.026,0.18
			c-0.001,0.012-0.004,0.023-0.005,0.035l-5.124,52.885H7.5c-4.143,0-7.5,3.358-7.5,7.5c0,4.142,3.357,7.5,7.5,7.5h89.465
			l-9.204,94.995H61.002c-4.143,0-7.5,3.358-7.5,7.5c0,4.142,3.357,7.5,7.5,7.5h25.306l-5.012,51.721
			c-0.001,0.008-0.001,0.016-0.002,0.023l-7.749,79.979c-0.001,0.009-0.002,0.019-0.003,0.027l-0.003,0.029
			c-0.01,0.104-0.009,0.206-0.015,0.31c-0.007,0.138-0.021,0.273-0.021,0.413c0,0.006,0.001,0.012,0.001,0.019
			c0,0.193,0.014,0.383,0.028,0.573c0.006,0.061,0.004,0.123,0.011,0.183c0.02,0.194,0.053,0.385,0.088,0.575
			c0.01,0.056,0.015,0.113,0.026,0.168c0.029,0.144,0.07,0.283,0.108,0.424c0.026,0.099,0.047,0.2,0.077,0.297
			c0.009,0.027,0.021,0.053,0.029,0.081c0.363,1.116,0.979,2.118,1.783,2.936c0.015,0.015,0.027,0.032,0.042,0.046
			c0.08,0.08,0.167,0.152,0.251,0.228c0.517,0.474,1.101,0.876,1.74,1.191c0.133,0.066,0.264,0.135,0.4,0.192
			c0.041,0.018,0.085,0.03,0.127,0.046c0.188,0.075,0.377,0.147,0.572,0.208c0.018,0.005,0.035,0.008,0.053,0.014
			c0.222,0.066,0.446,0.124,0.675,0.171c0.03,0.006,0.061,0.008,0.09,0.014c0.218,0.041,0.437,0.076,0.66,0.098
			c0.005,0,0.009,0.001,0.014,0.002c0.246,0.024,0.49,0.036,0.732,0.036c0.003,0,0.007-0.001,0.011-0.001h33.388
			c3.687,27.953,27.652,49.603,56.597,49.603c28.943,0,52.908-21.65,56.595-49.603H347.9c3.688,27.953,27.652,49.603,56.596,49.603
			c28.943,0,52.91-21.65,56.598-49.603h33.396c0.005,0,0.011,0.001,0.016,0.001c0.25,0,0.496-0.015,0.74-0.039
			c0.044-0.004,0.086-0.013,0.13-0.018c0.195-0.023,0.389-0.05,0.579-0.088c0.082-0.016,0.161-0.038,0.242-0.057
			c0.147-0.034,0.295-0.07,0.439-0.113c0.098-0.029,0.193-0.063,0.289-0.096c0.123-0.042,0.246-0.086,0.367-0.135
			c0.104-0.041,0.203-0.086,0.304-0.131c0.11-0.051,0.22-0.103,0.327-0.158c0.102-0.052,0.2-0.106,0.298-0.162
			c0.103-0.06,0.205-0.122,0.306-0.186c0.094-0.06,0.188-0.121,0.278-0.185c0.102-0.071,0.199-0.146,0.298-0.222
			c0.082-0.065,0.165-0.129,0.245-0.197c0.103-0.087,0.2-0.178,0.298-0.271c0.068-0.065,0.139-0.129,0.205-0.197
			c0.104-0.106,0.203-0.218,0.302-0.331c0.053-0.061,0.108-0.12,0.159-0.182c0.11-0.136,0.21-0.276,0.31-0.417
			c0.034-0.049,0.072-0.095,0.105-0.145c0.122-0.183,0.237-0.371,0.343-0.565c0.008-0.012,0.016-0.023,0.021-0.036
			c0.113-0.208,0.217-0.421,0.31-0.641c0.026-0.063,0.046-0.128,0.071-0.191c0.061-0.155,0.121-0.31,0.172-0.471
			c0.033-0.104,0.057-0.211,0.086-0.316c0.033-0.125,0.068-0.249,0.096-0.376c0.025-0.113,0.041-0.229,0.06-0.344
			c0.017-0.101,0.039-0.2,0.052-0.303c0.318-2.548,6.191-49.667,8.814-80.135c0.003-0.029,0.004-0.059,0.007-0.088
			c0.755-8.783,1.239-16.179,1.239-20.707C511.998,232.264,468.26,188.525,414.498,188.525z M380.957,203.527h30.683l-3.919,44.996
			h-30.683L380.957,203.527z M171.008,428.129c-23.217,0-42.105-18.888-42.105-42.104s18.889-42.104,42.105-42.104
			s42.104,18.888,42.104,42.104S194.224,428.129,171.008,428.129z M404.496,428.129c-23.216,0-42.103-18.888-42.103-42.104
			s18.888-42.104,42.103-42.104c23.217,0,42.105,18.888,42.105,42.104S427.713,428.129,404.496,428.129z M487.863,378.522h-26.767
			c-3.686-27.955-27.652-49.606-56.598-49.606c-28.944,0-52.91,21.652-56.596,49.606H227.604
			c-3.686-27.955-27.651-49.606-56.596-49.606s-52.912,21.652-56.598,49.606H89.266l6.299-65.004H364.5v0.004
			c0.004,0,0.007,0,0.011,0c0.251,0,0.5-0.014,0.746-0.039c0.046-0.004,0.091-0.014,0.137-0.02c0.196-0.023,0.391-0.051,0.583-0.089
			c0.083-0.017,0.164-0.04,0.246-0.06c0.15-0.036,0.3-0.071,0.446-0.115c0.1-0.03,0.195-0.066,0.292-0.1
			c0.126-0.044,0.252-0.087,0.374-0.137c0.105-0.043,0.206-0.091,0.308-0.139c0.111-0.051,0.222-0.102,0.329-0.158
			c0.102-0.054,0.202-0.112,0.303-0.17c0.103-0.06,0.205-0.121,0.305-0.185c0.097-0.063,0.189-0.129,0.282-0.195
			c0.099-0.07,0.195-0.142,0.291-0.217c0.086-0.069,0.171-0.14,0.255-0.213c0.095-0.082,0.188-0.166,0.278-0.253
			c0.076-0.073,0.152-0.148,0.226-0.225c0.09-0.094,0.177-0.191,0.263-0.29c0.067-0.078,0.133-0.156,0.197-0.236
			c0.083-0.105,0.162-0.213,0.24-0.322c0.059-0.082,0.116-0.164,0.172-0.248c0.073-0.113,0.143-0.229,0.21-0.347
			c0.051-0.088,0.103-0.176,0.149-0.266c0.063-0.118,0.117-0.238,0.174-0.359c0.044-0.097,0.089-0.192,0.129-0.292
			c0.049-0.118,0.09-0.239,0.133-0.36c0.037-0.107,0.076-0.214,0.109-0.324c0.033-0.116,0.06-0.235,0.09-0.353
			c0.029-0.119,0.061-0.237,0.084-0.358c0.023-0.118,0.037-0.238,0.055-0.358c0.018-0.124,0.039-0.246,0.051-0.372
			c0.002-0.018,0.006-0.035,0.007-0.053l3.759-43.15h38.762c22.979,0,33.343,11.906,44.314,24.512
			c9.053,10.401,19.16,22.006,36.34,24.837C492.968,335.938,489.441,365.554,487.863,378.522z M496.432,297.838
			c-11.145-2.272-18.002-10.107-26.309-19.651c-10.389-11.935-23.072-26.5-47.385-29.214l3.88-44.548
			c39.764,5.881,70.38,40.229,70.38,81.602C496.998,288.838,496.788,292.922,496.432,297.838z"/>
	</g>
</g>
<g>
	<g>
		<path d="M171.008,358.524c-15.163,0-27.5,12.336-27.5,27.5s12.337,27.5,27.5,27.5c15.163,0,27.5-12.336,27.5-27.5
			C198.508,370.861,186.171,358.524,171.008,358.524z M171.008,398.524c-6.893,0-12.5-5.607-12.5-12.5s5.607-12.5,12.5-12.5
			s12.5,5.607,12.5,12.5S177.9,398.524,171.008,398.524z"/>
	</g>
</g>
<g>
	<g>
		<path d="M404.496,358.524c-15.163,0-27.5,12.336-27.5,27.5s12.337,27.5,27.5,27.5c15.163,0,27.5-12.336,27.5-27.5
			C431.996,370.861,419.659,358.524,404.496,358.524z M404.496,398.524c-6.893,0-12.5-5.607-12.5-12.5s5.607-12.5,12.5-12.5
			s12.5,5.607,12.5,12.5S411.389,398.524,404.496,398.524z"/>
	</g>
</g>
<g>
	<g>
		<path d="M71,188.527H34.334c-4.143,0-7.5,3.358-7.5,7.5c0,4.142,3.357,7.5,7.5,7.5H71c4.143,0,7.5-3.358,7.5-7.5
			C78.5,191.885,75.143,188.527,71,188.527z"/>
	</g>
</g>
<g>
</g>
<g>
</g>
<g>
</g>
<g>
</g>
<g>
</g>
<g>
</g>
<g>
</g>
<g>
</g>
<g>
</g>
<g>
</g>
<g>
</g>
<g>
</g>
<g>
</g>
<g>
</g>
<g>
</g>
</svg>
