<?xml version="1.0" encoding="iso-8859-1"?>
<!--
  - Copyright (c) 2023. Selldone® Business OS?
  -
  - Author: M.Pajuhaan
  - Web: https://selldone.com
  - ??????????????????????????????????????????????????????
  -
  - All rights reserved. In the weave of time, where traditions and innovations intermingle, this content was crafted.
  - From the essence of thought, through the corridors of creativity, each word, and sentiment has been molded.
  - Not just to exist, but to inspire. Like an artist's stroke or a sculptor's chisel, every nuance is deliberate.
  - Our journey is not just about reaching a destination, but about creating a masterpiece.
  - Tread carefully, for you're treading on dreams.
  -->

<!-- Generator: Adobe Illustrator 19.0.0, SVG Export Plug-In . SVG Version: 6.00 Build 0)  -->
<svg version="1.1" id="Capa_1" xmlns="http://www.w3.org/2000/svg" xmlns:xlink="http://www.w3.org/1999/xlink" x="0px" y="0px"
	 viewBox="0 0 446.694 446.694" style="enable-background:new 0 0 446.694 446.694;" xml:space="preserve">
<path style="fill:#4DCFE0;" d="M396.539,157.257c0-3.135,0.522-6.792,0.522-9.927c0-76.278-62.171-138.449-138.449-138.449
	c-45.453,0-86.727,21.42-112.849,57.992c-9.927-3.657-20.898-5.224-31.869-5.224c-51.722,0-94.041,42.318-94.041,94.041
	c0,7.837,1.045,15.673,3.135,23.51C7.837,196.441,0,218.384,0,241.371c0,52.767,43.363,96.131,96.131,96.131h13.584
	c-0.522-3.135-1.045-6.792-1.045-9.927v-6.269c0-63.216,51.2-114.416,114.416-114.416s114.416,51.2,114.416,114.416v6.792
	c0,3.135-0.522,6.792-1.045,9.927h14.106c25.6,0,49.633-9.927,67.918-28.212s28.212-42.318,28.212-67.918
	C446.694,206.89,427.363,174.498,396.539,157.257z"/>
<path style="fill:#D4E1F4;" d="M339.592,321.306c0-64.261-52.245-116.506-116.506-116.506S106.58,257.045,106.58,321.306v6.269
	c0,3.135,0.522,6.792,1.045,9.927c7.837,57.469,56.947,100.31,115.461,100.31c57.992,0,106.58-42.841,115.461-99.788
	c0.522-3.135,1.045-6.792,1.045-9.927C339.592,328.098,339.592,321.306,339.592,321.306z"/>
<path style="fill:#3A2C51;" d="M233.012,267.494c-5.747-5.224-14.629-5.224-20.376,0l-35.527,30.302
	c-6.792,5.747-7.314,15.673-1.567,21.943c5.747,6.792,15.673,7.314,21.943,1.567l9.927-8.359v53.812
	c0,8.882,6.792,15.673,15.673,15.673s15.673-6.792,15.673-15.673v-53.29l9.927,8.359c3.135,2.612,6.792,3.657,9.927,3.657
	c4.18,0,8.882-2.09,12.016-5.747c5.747-6.269,4.702-16.196-2.09-21.943L233.012,267.494z"/>
<g>
</g>
<g>
</g>
<g>
</g>
<g>
</g>
<g>
</g>
<g>
</g>
<g>
</g>
<g>
</g>
<g>
</g>
<g>
</g>
<g>
</g>
<g>
</g>
<g>
</g>
<g>
</g>
<g>
</g>
</svg>
