<!--
  - Copyright (c) 2023. Selldone® Business OS™
  -
  - Author: M.Pajuhaan
  - Web: https://selldone.com
  - ━━━━━━━━━━━━━━━━━━━━━━━━━━━━━━━━━━━━━━━━━━━━━━━━━━━━━━
  -
  - All rights reserved. In the weave of time, where traditions and innovations intermingle, this content was crafted.
  - From the essence of thought, through the corridors of creativity, each word, and sentiment has been molded.
  - Not just to exist, but to inspire. Like an artist's stroke or a sculptor's chisel, every nuance is deliberate.
  - Our journey is not just about reaching a destination, but about creating a masterpiece.
  - Tread carefully, for you're treading on dreams.
  -->

<svg id="Capa_1" enable-background="new 0 0 511.912 511.912" height="512" viewBox="0 0 511.912 511.912" width="512" xmlns="http://www.w3.org/2000/svg"><g><g><path d="m258.541 147.298-84.844-84.859-42.429 42.43 35.411 65.411 49.442 19.442z" fill="#e6f2ff"/><path d="m449.469 338.211-84.859-84.844-42.423 42.42 26.388 56.389 58.465 28.464z" fill="#cdf"/></g><g><path d="m496.666 64.798-43.253-6.304-20.365-2.969-28.14-53.789-28.139 53.789-63.619 9.273 45.879 44.707-8.988 52.361-1.852 10.788 56.719-29.824 56.719 29.824-10.84-63.149z" fill="#ffea80"/><path d="m404.908 142.83 56.719 29.824-10.84-63.149 45.879-44.707-43.253-6.304-103.372 103.372-1.852 10.788z" fill="#fabe2c"/><path d="m322.187 295.787-74.251 74.24c-28.33 28.33-77.725 28.33-106.055 0-29.372-29.372-29.26-76.794 0-106.055l74.24-74.251-84.853-84.853-74.246 74.246c-76.025 76.025-76.025 199.746 0 275.771 76.027 76.027 199.73 76.042 275.771 0l74.246-74.246z" fill="#f66"/><path d="m332.794 454.886 74.246-74.246-84.853-84.853-74.251 74.24c-28.33 28.33-77.725 28.33-106.055 0l-84.858 84.858c76.027 76.028 199.729 76.043 275.771.001z" fill="#e63950"/></g><path d="m295.908 30h27v-30h-57v42h-27.853v30h57.853z" fill="#ffea80"/><path d="m481.908 216h-43v57h30v-27h43v-58h-30z" fill="#fabe2c"/></g></svg>