<!--
  - Copyright (c) 2023. Selldone® Business OS™
  -
  - Author: M.Pajuhaan
  - Web: https://selldone.com
  - ━━━━━━━━━━━━━━━━━━━━━━━━━━━━━━━━━━━━━━━━━━━━━━━━━━━━━━
  -
  - All rights reserved. In the weave of time, where traditions and innovations intermingle, this content was crafted.
  - From the essence of thought, through the corridors of creativity, each word, and sentiment has been molded.
  - Not just to exist, but to inspire. Like an artist's stroke or a sculptor's chisel, every nuance is deliberate.
  - Our journey is not just about reaching a destination, but about creating a masterpiece.
  - Tread carefully, for you're treading on dreams.
  -->

<svg height="512pt" viewBox="-39 0 511 512" width="512pt" xmlns="http://www.w3.org/2000/svg"><path d="m216.503906 512c-54.613281 0-106.214844-4.816406-145.292968-13.566406-47.582032-10.652344-70.710938-25.839844-70.710938-46.433594s23.128906-35.78125 70.710938-46.433594c39.078124-8.75 90.679687-13.566406 145.292968-13.566406 54.613282 0 106.210938 4.816406 145.292969 13.566406 47.582031 10.652344 70.710937 25.839844 70.710937 46.433594s-23.128906 35.78125-70.710937 46.433594c-39.082031 8.75-90.679687 13.566406-145.292969 13.566406zm-184.789062-60c4.691406 4.046875 19.59375 12.007812 54.535156 18.945312 35.894531 7.128907 82.152344 11.054688 130.253906 11.054688 48.101563 0 94.355469-3.925781 130.25-11.054688 34.941406-6.9375 49.847656-14.898437 54.539063-18.945312-4.691407-4.046875-19.597657-12.007812-54.539063-18.945312-35.894531-7.128907-82.148437-11.054688-130.25-11.054688-48.101562 0-94.359375 3.925781-130.253906 11.054688-34.941406 6.9375-49.84375 14.898437-54.535156 18.945312zm0 0" fill="#00ff8d"/><path d="m361.796875 405.566406c-39.082031-8.75-90.679687-13.566406-145.292969-13.566406v30c48.101563 0 94.355469 3.925781 130.25 11.054688 34.941406 6.9375 49.847656 14.898437 54.539063 18.945312-4.691407 4.046875-19.597657 12.007812-54.539063 18.945312-35.894531 7.128907-82.148437 11.054688-130.25 11.054688v30c54.613282 0 106.210938-4.816406 145.292969-13.566406 47.582031-10.652344 70.710937-25.839844 70.710937-46.433594s-23.128906-35.78125-70.710937-46.433594zm0 0" fill="#00dd7b"/><path d="m216.503906 120c-33.085937 0-60-26.914062-60-60s26.914063-60 60-60c33.082032 0 60 26.914062 60 60s-26.917968 60-60 60zm0 0" fill="#fdd1a3"/><path d="m237.023438 455h-41.042969c-24.8125 0-45-20.1875-45-45v-104.6875c-14.992188-7.425781-24.953125-22.808594-24.953125-40.3125v-70c0-24.8125 20.1875-45 45-45h90.949218c24.8125 0 45 20.1875 45 45v70c0 17.503906-9.960937 32.886719-24.953124 40.3125v104.6875c0 24.8125-20.183594 45-45 45zm0 0" fill="#3aaaff"/><path d="m216.503906 0v120c33.082032 0 60-26.914062 60-60s-26.917968-60-60-60zm0 0" fill="#ffbb85"/><path d="m261.980469 150h-45.476563v305h20.519532c24.816406 0 45-20.1875 45-45v-104.6875c14.992187-7.425781 24.953124-22.808594 24.953124-40.3125v-70c.003907-24.8125-20.183593-45-44.996093-45zm0 0" fill="#008adf"/></svg>