<!--
  - Copyright (c) 2023. Selldone® Business OS™
  -
  - Author: M.Pajuhaan
  - Web: https://selldone.com
  - ━━━━━━━━━━━━━━━━━━━━━━━━━━━━━━━━━━━━━━━━━━━━━━━━━━━━━━
  -
  - All rights reserved. In the weave of time, where traditions and innovations intermingle, this content was crafted.
  - From the essence of thought, through the corridors of creativity, each word, and sentiment has been molded.
  - Not just to exist, but to inspire. Like an artist's stroke or a sculptor's chisel, every nuance is deliberate.
  - Our journey is not just about reaching a destination, but about creating a masterpiece.
  - Tread carefully, for you're treading on dreams.
  -->

<svg id="Layer_5" enable-background="new 0 0 64 64" height="512" viewBox="0 0 64 64" width="512" xmlns="http://www.w3.org/2000/svg"><path d="m58.21 25h-2.374c-.721-3.422-3.763-6-7.396-6h-.88c-2.227 0-4.225.974-5.61 2.511l1.021-9.19c.019-.177.029-.354.029-.531 0-2.642-2.148-4.79-4.79-4.79h-2.374c-.721-3.422-3.763-6-7.396-6h-.88c-3.633 0-6.675 2.578-7.396 6h-2.374c-2.642 0-4.79 2.148-4.79 4.79 0 .177.01.354.029.529l1.602 14.42c.095.856.421 1.631.897 2.285-3.509.206-6.411 2.679-7.265 5.976h-2.473c-2.642 0-4.79 2.148-4.79 4.79 0 .177.01.354.029.529l1.602 14.42c.27 2.43 2.318 4.261 4.762 4.261h3.257l4.321 3.457c.437.351.988.543 1.549.543 1.368 0 2.48-1.112 2.48-2.48v-1.52h5.607c2.443 0 4.491-1.831 4.762-4.261l1.602-14.419c.019-.176.029-.353.029-.53 0-2.642-2.148-4.79-4.79-4.79h-2.473c-.407-1.573-1.278-2.957-2.463-4h1.376l4.321 3.457c.437.351.988.543 1.549.543 1.368 0 2.48-1.112 2.48-2.48v-1.52h2.105l1.526 13.739c.27 2.43 2.318 4.261 4.762 4.261h5.607v1.52c0 1.368 1.112 2.48 2.48 2.48.561 0 1.111-.192 1.55-.543l4.321-3.457h3.257c2.443 0 4.491-1.831 4.762-4.261l1.602-14.419c.018-.176.028-.353.028-.53 0-2.642-2.148-4.79-4.79-4.79zm-5.21 5c.552 0 1 .448 1 1s-.448 1-1 1zm-5.44-9h.881c3.065 0 5.56 2.494 5.56 5.56 0 .526-.084 1.049-.231 1.553-.248-.067-.503-.113-.77-.113v-.618l-5.447-2.724-.447.895c-.447.892-1.344 1.447-2.342 1.447h-1.764v1c-.267 0-.522.046-.769.112-.146-.504-.231-1.027-.231-1.552 0-3.066 2.494-5.56 5.56-5.56zm.44 18.197-1.071-1.606.165-.591h1.813l.164.591zm-4.642.728.884 7.075h-4.242v-1.148c0-2.473 1.339-4.697 3.358-5.927zm2.154-.855 1.264 1.896-1.09 1.454-.412-3.301c.078-.02.158-.033.238-.049zm4.976 0c.079.017.16.03.238.049l-.412 3.301-1.09-1.454zm-1.488-4.07h-2c-1.103 0-2-.897-2-2v-4.006c1.326-.066 2.534-.689 3.351-1.701l2.649 1.325v4.382c0 1.103-.897 2-2 2zm-6-3c-.552 0-1-.448-1-1s.448-1 1-1zm-2-20.21c0 .103-.006.205-.018.309l-1.433 12.901h-1.759c-.091 0-.177.022-.267.027-.989-2.944-3.463-5.21-6.504-5.895l-.019-.07v-.062h-.017l-.132-.475c.984-.519 1.722-1.426 2.007-2.525h.142c1.654 0 3-1.346 3-3 0-.628-.195-1.21-.527-1.693.287-.737.454-1.517.501-2.307h2.236c1.538 0 2.79 1.252 2.79 2.79zm-12 5.21h-2c-1.103 0-2-.897-2-2v-5h6v5c0 1.103-.897 2-2 2zm-2 2.335.093-.335h1.813l.094.337v1.663c0 .552-.448 1-1 1s-1-.448-1-1zm6-7.335c.552 0 1 .448 1 1s-.448 1-1 1zm-5.44-9h.881c3.065 0 5.559 2.494 5.559 5.56 0 .526-.085 1.049-.231 1.553-.247-.067-.502-.113-.769-.113v-2h-10v2c-.267 0-.522.046-.769.112-.147-.504-.231-1.027-.231-1.552 0-3.066 2.494-5.56 5.56-5.56zm-4.56 11c-.552 0-1-.448-1-1s.448-1 1-1zm-8-2.21c0-1.538 1.252-2.79 2.79-2.79h2.236c.047.79.214 1.571.501 2.307-.332.483-.527 1.065-.527 1.693 0 1.654 1.346 3 3 3h.142c.286 1.099 1.024 2.006 2.007 2.525l-.132.475h-.017v.062l-.02.07c-4.022.906-6.98 4.543-6.98 8.72v.771c-.746-.43-1.28-1.193-1.381-2.104l-1.602-14.421c-.011-.103-.017-.205-.017-.308zm6 28.21c.552 0 1 .448 1 1s-.448 1-1 1zm-.142 4h.142c.352 0 .686-.072 1-.184v4.607c-.893-.598-1.896-1.047-2.98-1.291l-.169-.607c.983-.519 1.721-1.426 2.007-2.525zm-6.292 4.895.527-1.895h1.813l.527 1.895.644.095c.193.029.383.067.571.111l-2.228 3.899h-.84l-2.228-3.899c.188-.044.378-.083.571-.112zm4.434-5.895c0 1.103-.897 2-2 2h-2c-1.103 0-2-.897-2-2v-3.764c0-.811.366-1.556.982-2.046l1.552 1.034c.762.508 1.648.776 2.562.776h.904zm-5.851 3.525-.169.607c-1.085.244-2.088.693-2.98 1.291v-4.607c.314.112.648.184 1 .184h.142c.286 1.099 1.024 2.006 2.007 2.525zm-2.149-4.525c-.552 0-1-.448-1-1s.448-1 1-1zm-6.381 12.519-1.601-14.421c-.012-.103-.018-.205-.018-.308 0-1.538 1.252-2.79 2.79-2.79h2.21v13.244c-1.253 1.548-2 3.509-2 5.607v.771c-.746-.43-1.28-1.192-1.381-2.103zm12.381 2.481v3.52c-.001.373-.491.611-.78.375l-4.869-3.895h-3.351v-1.148c0-2.521 1.391-4.786 3.477-6.001l2.943 5.149h3.16l2.942-5.149c2.087 1.214 3.478 3.479 3.478 6.001v1.148zm9.21-20c1.538 0 2.79 1.252 2.79 2.79 0 .103-.006.205-.018.309l-1.602 14.42c-.1.911-.634 1.673-1.38 2.103v-.771c0-2.098-.747-4.059-2-5.607v-13.244zm-4.21 0v1.184c-.314-.112-.648-.184-1-.184v-1h-2.904c-.519 0-1.021-.152-1.452-.439l-2.572-1.715-.519.26c-1.193.597-2.042 1.653-2.384 2.895h-.169c-.352 0-.686.072-1 .184v-1.185c0-3.309 2.691-6 6-6s6 2.691 6 6zm11.08-8h-4.08v3.52c0 .373-.491.61-.78.375l-4.869-3.895h-3.351v-1.148c0-3.101 2.104-5.813 5.02-6.658.101 1.562 1.392 2.806 2.98 2.806 1.587 0 2.878-1.243 2.98-2.805 2.142.621 3.871 2.257 4.615 4.362-1.309.682-2.263 1.938-2.515 3.443zm3.539 15.519-1.602-14.421c-.011-.103-.017-.205-.017-.308 0-1.538 1.252-2.79 2.79-2.79h2.236c.047.79.214 1.57.501 2.307-.332.483-.527 1.065-.527 1.693 0 1.654 1.346 3 3 3h.142c.286 1.099 1.024 2.006 2.007 2.525l-.169.607c-4.022.906-6.98 4.543-6.98 8.72v.771c-.746-.431-1.28-1.193-1.381-2.104zm16.03 2.481-4.868 3.895c-.292.237-.781-.002-.781-.375v-3.52h-2.25l3.25-4.333 3.686 4.913.956-7.655c2.019 1.23 3.358 3.454 3.358 5.927v1.148zm8.333-16.901-1.602 14.42c-.1.911-.634 1.673-1.38 2.103v-.771c0-4.177-2.958-7.813-6.98-8.72l-.169-.607c.983-.519 1.722-1.426 2.007-2.525h.142c1.654 0 3-1.346 3-3 0-.628-.195-1.21-.527-1.693.287-.736.454-1.517.501-2.307h2.236c1.538 0 2.79 1.252 2.79 2.79 0 .104-.006.206-.018.31z"/></svg>