<?xml version="1.0" encoding="iso-8859-1"?>



<svg version="1.1" id="Capa_1" xmlns="http://www.w3.org/2000/svg" xmlns:xlink="http://www.w3.org/1999/xlink" x="0px" y="0px"
	 viewBox="0 0 512 512" style="enable-background:new 0 0 512 512;" xml:space="preserve">
<linearGradient id="SVGID_1_" gradientUnits="userSpaceOnUse" x1="256" y1="509" x2="256" y2="-1.04" gradientTransform="matrix(1 0 0 -1 0 514)">
	<stop  offset="0" style="stop-color:#FC7D90"/>
	<stop  offset="1" style="stop-color:#CE425C"/>
</linearGradient>
<path style="fill:url(#SVGID_1_);" d="M512,118.23v275.54C512,459.07,459.07,512,393.77,512H118.23C52.93,512,0,459.07,0,393.77
	V118.23C0,52.93,52.93,0,118.23,0h275.54C459.07,0,512,52.93,512,118.23z"/>
<linearGradient id="SVGID_2_" gradientUnits="userSpaceOnUse" x1="256" y1="505.078" x2="256" y2="3.01" gradientTransform="matrix(1 0 0 -1 0 514)">
	<stop  offset="0" style="stop-color:#EB414A"/>
	<stop  offset="1" style="stop-color:#94004A"/>
</linearGradient>
<path style="fill:url(#SVGID_2_);" d="M118.229,508C55.243,508,4,456.757,4,393.77V118.23C4,55.243,55.243,4,118.229,4h275.54
	C456.757,4,508,55.243,508,118.229v275.54C508,456.757,456.757,508,393.77,508H118.229z"/>
<linearGradient id="SVGID_3_" gradientUnits="userSpaceOnUse" x1="254.1912" y1="258.1812" x2="489.2012" y2="23.1812" gradientTransform="matrix(1 0 0 -1 0 514)">
	<stop  offset="0" style="stop-color:#74004A"/>
	<stop  offset="1" style="stop-color:#94004A;stop-opacity:0"/>
</linearGradient>
<path style="opacity:0.5;fill:url(#SVGID_3_);enable-background:new    ;" d="M512,234.75v159.02C512,459.07,459.07,512,393.77,512
	H231.5L115.67,396.17l280.87-276.88L512,234.75z"/>
<path style="opacity:0.3;fill:#1A1A1A;enable-background:new    ;" d="M374.581,113.278H261H147.419
	c-21.18,0-38.349,17.169-38.349,38.349v100.116V355.86v0.002v18.929c0,21.18,17.169,38.349,38.349,38.349H261l0,0h113.581
	c21.18,0,38.349-17.169,38.349-38.349v-18.93V251.743V151.627C412.93,130.447,395.761,113.278,374.581,113.278z"/>
<linearGradient id="SVGID_4_" gradientUnits="userSpaceOnUse" x1="256.2085" y1="370.68" x2="256.2085" y2="73.63" gradientTransform="matrix(1 0 0 -1 0 514)">
	<stop  offset="0.005" style="stop-color:#BDB42B"/>
	<stop  offset="1" style="stop-color:#BC8A3E"/>
</linearGradient>
<path style="fill:url(#SVGID_4_);" d="M367.623,408.139H144.794c-22.376,0-40.516-18.14-40.516-40.516V148.794
	c0-22.376,18.14-40.516,40.516-40.516h222.829c22.376,0,40.516,18.14,40.516,40.516v218.829
	C408.139,389.999,389.999,408.139,367.623,408.139z"/>
<linearGradient id="SVGID_5_" gradientUnits="userSpaceOnUse" x1="332.1735" y1="370.68" x2="332.1735" y2="73.63" gradientTransform="matrix(1 0 0 -1 0 514)">
	<stop  offset="0" style="stop-color:#AFAFAF"/>
	<stop  offset="0.995" style="stop-color:#A3A3A3"/>
</linearGradient>
<path style="fill:url(#SVGID_5_);" d="M369.79,108.278H256.208v299.861H369.79c21.18,0,38.349-17.169,38.349-38.349V146.627
	C408.139,125.447,390.969,108.278,369.79,108.278z"/>
<linearGradient id="SVGID_6_" gradientUnits="userSpaceOnUse" x1="256.2085" y1="676.42" x2="256.2085" y2="124.52" gradientTransform="matrix(1 0 0 -1 0 514)">
	<stop  offset="0" style="stop-color:#FFFF88"/>
	<stop  offset="1" style="stop-color:#FFD270"/>
</linearGradient>
<path style="fill:url(#SVGID_6_);" d="M369.79,108.278H256.208H142.627c-21.18,0-38.349,17.169-38.349,38.349v104.116V354.86
	c0,21.18,17.169,38.349,38.349,38.349h113.582V250.743h151.93V146.627C408.139,125.447,390.969,108.278,369.79,108.278z"/>
<linearGradient id="SVGID_7_" gradientUnits="userSpaceOnUse" x1="331.1735" y1="269.79" x2="331.1735" y2="426.85" gradientTransform="matrix(1 0 0 -1 0 514)">
	<stop  offset="0.005" style="stop-color:#FFA746"/>
	<stop  offset="1" style="stop-color:#FFC746"/>
</linearGradient>
<path style="fill:url(#SVGID_7_);" d="M256.208,250.743V110.278H369.79c20.043,0,36.349,16.306,36.349,36.349v104.116H256.208z"/>
<linearGradient id="SVGID_8_" gradientUnits="userSpaceOnUse" x1="332.1735" y1="273.77" x2="332.1735" y2="119.76" gradientTransform="matrix(1 0 0 -1 0 514)">
	<stop  offset="0" style="stop-color:#F2F2F2"/>
	<stop  offset="0.995" style="stop-color:#FFFFFF"/>
</linearGradient>
<path style="fill:url(#SVGID_8_);" d="M256.208,250.743v142.465H369.79c21.18,0,38.349-17.169,38.349-38.349V250.743H256.208z"/>
<linearGradient id="SVGID_9_" gradientUnits="userSpaceOnUse" x1="331.1735" y1="273.62" x2="331.1735" y2="121.77" gradientTransform="matrix(1 0 0 -1 0 514)">
	<stop  offset="0" style="stop-color:#F2F2F2"/>
	<stop  offset="0.995" style="stop-color:#E6E6E6"/>
</linearGradient>
<path style="fill:url(#SVGID_9_);" d="M256.208,391.209V250.743h149.931v104.116c0,20.043-16.306,36.35-36.349,36.35H256.208z"/>
<linearGradient id="SVGID_10_" gradientUnits="userSpaceOnUse" x1="181.243" y1="260.46" x2="181.243" y2="400.55" gradientTransform="matrix(1 0 0 -1 0 514)">
	<stop  offset="0.005" style="stop-color:#FFA746"/>
	<stop  offset="1" style="stop-color:#FFC746"/>
</linearGradient>
<path style="fill:url(#SVGID_10_);" d="M106.278,250.743V146.627c0-20.043,16.306-36.349,36.349-36.349h113.581v140.465H106.278z"/>
<linearGradient id="SVGID_11_" gradientUnits="userSpaceOnUse" x1="181.243" y1="396.71" x2="181.243" y2="124.63" gradientTransform="matrix(1 0 0 -1 0 514)">
	<stop  offset="0.005" style="stop-color:#FFA746"/>
	<stop  offset="1" style="stop-color:#FFC746"/>
</linearGradient>
<path style="fill:url(#SVGID_11_);" d="M142.627,391.209c-20.043,0-36.349-16.307-36.349-36.35V250.743h149.93v140.466
	L142.627,391.209L142.627,391.209z"/>
<linearGradient id="SVGID_12_" gradientUnits="userSpaceOnUse" x1="145.94" y1="335.2475" x2="219.768" y2="335.2475" gradientTransform="matrix(1 0 0 -1 0 514)">
	<stop  offset="0.005" style="stop-color:#A1692C"/>
	<stop  offset="1" style="stop-color:#A17D2C"/>
</linearGradient>
<polygon style="fill:url(#SVGID_12_);" points="192.004,144.678 192.004,138.999 173.704,138.999 173.704,144.678 173.704,166.763 
	145.94,166.763 145.94,172.442 145.94,185.062 145.94,190.741 173.704,190.741 173.704,212.827 173.704,218.506 192.004,218.506 
	192.004,212.827 192.004,190.741 219.768,190.741 219.768,185.062 219.768,172.442 219.768,166.763 192.004,166.763 "/>
<linearGradient id="SVGID_13_" gradientUnits="userSpaceOnUse" x1="150.282" y1="201.526" x2="215.426" y2="201.526" gradientTransform="matrix(1 0 0 -1 0 514)">
	<stop  offset="0.005" style="stop-color:#A1692C"/>
	<stop  offset="1" style="stop-color:#A17D2C"/>
</linearGradient>
<polygon style="fill:url(#SVGID_13_);" points="202.486,277.063 182.854,296.695 163.221,277.063 150.282,290.002 150.282,290.002 
	150.282,290.002 150.282,295.681 167.075,312.474 150.282,329.267 150.282,334.946 163.222,347.885 182.854,328.253 
	202.486,347.885 215.426,334.946 215.426,329.267 198.633,312.474 215.426,295.681 215.426,290.002 "/>
<linearGradient id="SVGID_14_" gradientUnits="userSpaceOnUse" x1="297.626" y1="335.248" x2="371.454" y2="335.248" gradientTransform="matrix(1 0 0 -1 0 514)">
	<stop  offset="0.005" style="stop-color:#A1692C"/>
	<stop  offset="1" style="stop-color:#A17D2C"/>
</linearGradient>
<polygon style="fill:url(#SVGID_14_);" points="297.626,166.763 297.626,172.442 297.626,185.062 297.626,185.062 297.626,190.741 
	371.454,190.741 371.454,185.062 371.454,185.062 371.454,172.442 371.454,166.763 "/>
<linearGradient id="SVGID_15_" gradientUnits="userSpaceOnUse" x1="180.4875" y1="363.06" x2="180.4875" y2="289.92" gradientTransform="matrix(1 0 0 -1 0 514)">
	<stop  offset="0" style="stop-color:#AFAFAF"/>
	<stop  offset="0.995" style="stop-color:#A3A3A3"/>
</linearGradient>
<polygon style="fill:url(#SVGID_15_);" points="217.401,170.076 189.637,170.076 189.637,142.311 171.338,142.311 171.338,170.076 
	143.574,170.076 143.574,188.375 171.338,188.375 171.338,216.139 189.637,216.139 189.637,188.375 217.401,188.375 "/>
<polygon style="fill:#FFFFFF;" points="217.401,164.397 189.637,164.397 189.637,136.632 171.338,136.632 171.338,164.397 
	143.574,164.397 143.574,182.696 171.338,182.696 171.338,210.46 189.637,210.46 189.637,182.696 217.401,182.696 "/>
<linearGradient id="SVGID_16_" gradientUnits="userSpaceOnUse" x1="180.487" y1="367.97" x2="180.487" y2="296.82" gradientTransform="matrix(1 0 0 -1 0 514)">
	<stop  offset="0" style="stop-color:#FFFFFF"/>
	<stop  offset="0.995" style="stop-color:#F5F5F5"/>
</linearGradient>
<polygon style="fill:url(#SVGID_16_);" points="172.338,209.46 172.338,181.696 144.573,181.696 144.573,165.396 172.338,165.396 
	172.338,137.633 188.637,137.633 188.637,165.396 216.401,165.396 216.401,181.696 188.637,181.696 188.637,209.46 "/>
<linearGradient id="SVGID_17_" gradientUnits="userSpaceOnUse" x1="201.5803" y1="224.9797" x2="147.0503" y2="170.4597" gradientTransform="matrix(1 0 0 -1 0 514)">
	<stop  offset="0" style="stop-color:#AFAFAF"/>
	<stop  offset="0.995" style="stop-color:#A3A3A3"/>
</linearGradient>
<polygon style="fill:url(#SVGID_17_);" points="213.059,332.579 213.059,326.9 193.427,312.947 213.059,293.315 213.059,287.636 
	200.12,280.375 180.487,300.008 160.855,280.375 147.916,287.636 147.916,293.315 167.548,312.947 147.916,326.9 147.916,332.579 
	160.855,345.519 180.488,325.887 200.12,345.519 "/>
<polygon style="fill:#FFFFFF;" points="213.059,326.9 193.427,307.268 213.059,287.636 200.12,274.696 180.487,294.329 
	160.855,274.696 147.916,287.636 167.548,307.268 147.916,326.9 160.855,339.84 180.488,320.208 200.12,339.84 "/>
<linearGradient id="SVGID_18_" gradientUnits="userSpaceOnUse" x1="199.9497" y1="226.1903" x2="149.6297" y2="175.8803" gradientTransform="matrix(1 0 0 -1 0 514)">
	<stop  offset="0" style="stop-color:#FFFFFF"/>
	<stop  offset="0.995" style="stop-color:#F5F5F5"/>
</linearGradient>
<polygon style="fill:url(#SVGID_18_);" points="180.487,318.794 160.855,338.426 149.33,326.9 168.962,307.268 149.33,287.636 
	160.855,276.11 180.487,295.742 200.12,276.11 211.646,287.636 192.013,307.269 211.646,326.9 200.12,338.426 "/>
<linearGradient id="SVGID_19_" gradientUnits="userSpaceOnUse" x1="360.4618" y1="363.0582" x2="287.3217" y2="289.9182" gradientTransform="matrix(1 0 0 -1 0 514)">
	<stop  offset="0" style="stop-color:#AFAFAF"/>
	<stop  offset="0.995" style="stop-color:#A3A3A3"/>
</linearGradient>
<rect x="295.26" y="170.08" style="fill:url(#SVGID_19_);" width="73.828" height="18.299"/>
<rect x="295.26" y="164.4" style="fill:#FFFFFF;" width="73.828" height="18.299"/>
<linearGradient id="SVGID_20_" gradientUnits="userSpaceOnUse" x1="359.692" y1="367.968" x2="288.542" y2="296.818" gradientTransform="matrix(1 0 0 -1 0 514)">
	<stop  offset="0" style="stop-color:#FFFFFF"/>
	<stop  offset="0.995" style="stop-color:#F5F5F5"/>
</linearGradient>
<rect x="296.26" y="165.4" style="fill:url(#SVGID_20_);" width="71.828" height="16.3"/>
<g>
	<polygon style="fill:#4D4D4D;" points="297.626,287.057 297.626,292.736 297.626,305.356 297.626,311.035 371.454,311.035 
		371.454,305.356 371.454,292.736 371.454,287.057 371.454,287.057 	"/>
	<polygon style="fill:#4D4D4D;" points="297.626,323.971 297.626,329.65 297.626,342.27 297.626,347.949 371.454,347.949 
		371.454,342.27 371.454,329.65 371.454,323.971 371.454,323.971 	"/>
</g>
<g>
	
		<linearGradient id="SVGID_21_" gradientUnits="userSpaceOnUse" x1="14.02" y1="214.4805" x2="82.29" y2="214.4805" gradientTransform="matrix(1 0 0 -1 0 514)">
		<stop  offset="0" style="stop-color:#A8A8A8"/>
		<stop  offset="1" style="stop-color:#787878"/>
	</linearGradient>
	<rect x="295.26" y="290.37" style="fill:url(#SVGID_21_);" width="73.828" height="18.299"/>
	
		<linearGradient id="SVGID_22_" gradientUnits="userSpaceOnUse" x1="14.02" y1="177.5705" x2="82.29" y2="177.5705" gradientTransform="matrix(1 0 0 -1 0 514)">
		<stop  offset="0" style="stop-color:#A8A8A8"/>
		<stop  offset="1" style="stop-color:#787878"/>
	</linearGradient>
	<rect x="295.26" y="327.28" style="fill:url(#SVGID_22_);" width="73.828" height="18.299"/>
</g>
<linearGradient id="SVGID_23_" gradientUnits="userSpaceOnUse" x1="14.02" y1="220.1605" x2="82.29" y2="220.1605" gradientTransform="matrix(1 0 0 -1 0 514)">
	<stop  offset="0" style="stop-color:#E0E0E0"/>
	<stop  offset="1" style="stop-color:#B0B0B0"/>
</linearGradient>
<rect x="295.26" y="284.69" style="fill:url(#SVGID_23_);" width="73.828" height="18.299"/>
<linearGradient id="SVGID_24_" gradientUnits="userSpaceOnUse" x1="22.634" y1="220.1605" x2="89.06" y2="220.1605" gradientTransform="matrix(1 0 0 -1 0 514)">
	<stop  offset="0" style="stop-color:#CCCCCC"/>
	<stop  offset="1" style="stop-color:#9C9C9C"/>
</linearGradient>
<rect x="296.26" y="285.69" style="fill:url(#SVGID_24_);" width="71.828" height="16.299"/>
<linearGradient id="SVGID_25_" gradientUnits="userSpaceOnUse" x1="14.02" y1="183.2505" x2="82.29" y2="183.2505" gradientTransform="matrix(1 0 0 -1 0 514)">
	<stop  offset="0" style="stop-color:#E0E0E0"/>
	<stop  offset="1" style="stop-color:#B0B0B0"/>
</linearGradient>
<rect x="295.26" y="321.6" style="fill:url(#SVGID_25_);" width="73.828" height="18.299"/>
<linearGradient id="SVGID_26_" gradientUnits="userSpaceOnUse" x1="22.634" y1="183.2505" x2="89.06" y2="183.2505" gradientTransform="matrix(1 0 0 -1 0 514)">
	<stop  offset="0" style="stop-color:#CCCCCC"/>
	<stop  offset="1" style="stop-color:#9C9C9C"/>
</linearGradient>
<rect x="296.26" y="322.6" style="fill:url(#SVGID_26_);" width="71.828" height="16.299"/>
<g>
</g>
<g>
</g>
<g>
</g>
<g>
</g>
<g>
</g>
<g>
</g>
<g>
</g>
<g>
</g>
<g>
</g>
<g>
</g>
<g>
</g>
<g>
</g>
<g>
</g>
<g>
</g>
<g>
</g>
</svg>
