<svg xmlns="http://www.w3.org/2000/svg" xml:space="preserve" viewBox="0 0 512 512"><linearGradient id="a" x1="256" x2="256" y1="509" y2="-1.04" gradientTransform="matrix(1 0 0 -1 0 514)" gradientUnits="userSpaceOnUse"><stop offset="0" style="stop-color:#fc7d90"/><stop offset="1" style="stop-color:#ce425c"/></linearGradient><path d="M512 118.23v275.54C512 459.07 459.07 512 393.77 512H118.23C52.93 512 0 459.07 0 393.77V118.23C0 52.93 52.93 0 118.23 0h275.54C459.07 0 512 52.93 512 118.23" style="fill:url(#a)"/><linearGradient id="b" x1="256" x2="256" y1="505.078" y2="3.01" gradientTransform="matrix(1 0 0 -1 0 514)" gradientUnits="userSpaceOnUse"><stop offset="0" style="stop-color:#eb414a"/><stop offset="1" style="stop-color:#94004a"/></linearGradient><path d="M118.229 508C55.243 508 4 456.757 4 393.77V118.23C4 55.243 55.243 4 118.229 4h275.54C456.757 4 508 55.243 508 118.229v275.54C508 456.757 456.757 508 393.77 508z" style="fill:url(#b)"/><linearGradient id="c" x1="254.191" x2="489.201" y1="258.181" y2="23.181" gradientTransform="matrix(1 0 0 -1 0 514)" gradientUnits="userSpaceOnUse"><stop offset="0" style="stop-color:#74004a"/><stop offset="1" style="stop-color:#94004a;stop-opacity:0"/></linearGradient><path d="M512 234.75v159.02C512 459.07 459.07 512 393.77 512H231.5L115.67 396.17l280.87-276.88z" style="opacity:.5;fill:url(#c)"/><path d="M374.581 113.278H147.419c-21.18 0-38.349 17.169-38.349 38.349v223.164c0 21.18 17.169 38.349 38.349 38.349h227.162c21.18 0 38.349-17.169 38.349-38.349V151.627c0-21.18-17.169-38.349-38.349-38.349" style="opacity:.3;fill:#1a1a1a"/><linearGradient id="d" x1="256.209" x2="256.209" y1="370.68" y2="73.63" gradientTransform="matrix(1 0 0 -1 0 514)" gradientUnits="userSpaceOnUse"><stop offset=".005" style="stop-color:#bdb42b"/><stop offset="1" style="stop-color:#bc8a3e"/></linearGradient><path d="M367.623 408.139H144.794c-22.376 0-40.516-18.14-40.516-40.516V148.794c0-22.376 18.14-40.516 40.516-40.516h222.829c22.376 0 40.516 18.14 40.516 40.516v218.829c0 22.376-18.14 40.516-40.516 40.516" style="fill:url(#d)"/><linearGradient id="e" x1="332.173" x2="332.173" y1="370.68" y2="73.63" gradientTransform="matrix(1 0 0 -1 0 514)" gradientUnits="userSpaceOnUse"><stop offset="0" style="stop-color:#afafaf"/><stop offset=".995" style="stop-color:#a3a3a3"/></linearGradient><path d="M369.79 108.278H256.208v299.861H369.79c21.18 0 38.349-17.169 38.349-38.349V146.627c0-21.18-17.17-38.349-38.349-38.349" style="fill:url(#e)"/><linearGradient id="f" x1="256.209" x2="256.209" y1="676.42" y2="124.52" gradientTransform="matrix(1 0 0 -1 0 514)" gradientUnits="userSpaceOnUse"><stop offset="0" style="stop-color:#ff8"/><stop offset="1" style="stop-color:#ffd270"/></linearGradient><path d="M369.79 108.278H142.627c-21.18 0-38.349 17.169-38.349 38.349V354.86c0 21.18 17.169 38.349 38.349 38.349h113.582V250.743h151.93V146.627c0-21.18-17.17-38.349-38.349-38.349" style="fill:url(#f)"/><linearGradient id="g" x1="331.173" x2="331.173" y1="269.79" y2="426.85" gradientTransform="matrix(1 0 0 -1 0 514)" gradientUnits="userSpaceOnUse"><stop offset=".005" style="stop-color:#ffa746"/><stop offset="1" style="stop-color:#ffc746"/></linearGradient><path d="M256.208 250.743V110.278H369.79c20.043 0 36.349 16.306 36.349 36.349v104.116z" style="fill:url(#g)"/><linearGradient id="h" x1="332.173" x2="332.173" y1="273.77" y2="119.76" gradientTransform="matrix(1 0 0 -1 0 514)" gradientUnits="userSpaceOnUse"><stop offset="0" style="stop-color:#f2f2f2"/><stop offset=".995" style="stop-color:#fff"/></linearGradient><path d="M256.208 250.743v142.465H369.79c21.18 0 38.349-17.169 38.349-38.349V250.743z" style="fill:url(#h)"/><linearGradient id="i" x1="331.173" x2="331.173" y1="273.62" y2="121.77" gradientTransform="matrix(1 0 0 -1 0 514)" gradientUnits="userSpaceOnUse"><stop offset="0" style="stop-color:#f2f2f2"/><stop offset=".995" style="stop-color:#e6e6e6"/></linearGradient><path d="M256.208 391.209V250.743h149.931v104.116c0 20.043-16.306 36.35-36.349 36.35z" style="fill:url(#i)"/><linearGradient id="j" x1="181.243" x2="181.243" y1="260.46" y2="400.55" gradientTransform="matrix(1 0 0 -1 0 514)" gradientUnits="userSpaceOnUse"><stop offset=".005" style="stop-color:#ffa746"/><stop offset="1" style="stop-color:#ffc746"/></linearGradient><path d="M106.278 250.743V146.627c0-20.043 16.306-36.349 36.349-36.349h113.581v140.465z" style="fill:url(#j)"/><linearGradient id="k" x1="181.243" x2="181.243" y1="396.71" y2="124.63" gradientTransform="matrix(1 0 0 -1 0 514)" gradientUnits="userSpaceOnUse"><stop offset=".005" style="stop-color:#ffa746"/><stop offset="1" style="stop-color:#ffc746"/></linearGradient><path d="M142.627 391.209c-20.043 0-36.349-16.307-36.349-36.35V250.743h149.93v140.466z" style="fill:url(#k)"/><linearGradient id="l" x1="145.94" x2="219.768" y1="335.248" y2="335.248" gradientTransform="matrix(1 0 0 -1 0 514)" gradientUnits="userSpaceOnUse"><stop offset=".005" style="stop-color:#a1692c"/><stop offset="1" style="stop-color:#a17d2c"/></linearGradient><path d="M192.004 144.678v-5.679h-18.3v27.764H145.94v23.978h27.764v27.765h18.3v-27.765h27.764v-23.978h-27.764z" style="fill:url(#l)"/><linearGradient id="m" x1="150.282" x2="215.426" y1="201.526" y2="201.526" gradientTransform="matrix(1 0 0 -1 0 514)" gradientUnits="userSpaceOnUse"><stop offset=".005" style="stop-color:#a1692c"/><stop offset="1" style="stop-color:#a17d2c"/></linearGradient><path d="m202.486 277.063-19.632 19.632-19.633-19.632-12.939 12.939v5.679l16.793 16.793-16.793 16.793v5.679l12.94 12.939 19.632-19.632 19.632 19.632 12.94-12.939v-5.679l-16.793-16.793 16.793-16.793v-5.679z" style="fill:url(#m)"/><linearGradient id="n" x1="297.626" x2="371.454" y1="335.248" y2="335.248" gradientTransform="matrix(1 0 0 -1 0 514)" gradientUnits="userSpaceOnUse"><stop offset=".005" style="stop-color:#a1692c"/><stop offset="1" style="stop-color:#a17d2c"/></linearGradient><path d="M297.626 166.763v23.978h73.828v-23.978z" style="fill:url(#n)"/><linearGradient id="o" x1="180.488" x2="180.488" y1="363.06" y2="289.92" gradientTransform="matrix(1 0 0 -1 0 514)" gradientUnits="userSpaceOnUse"><stop offset="0" style="stop-color:#afafaf"/><stop offset=".995" style="stop-color:#a3a3a3"/></linearGradient><path d="M217.401 170.076h-27.764v-27.765h-18.299v27.765h-27.764v18.299h27.764v27.764h18.299v-27.764h27.764z" style="fill:url(#o)"/><path d="M217.401 164.397h-27.764v-27.765h-18.299v27.765h-27.764v18.299h27.764v27.764h18.299v-27.764h27.764z" style="fill:#fff"/><linearGradient id="p" x1="180.487" x2="180.487" y1="367.97" y2="296.82" gradientTransform="matrix(1 0 0 -1 0 514)" gradientUnits="userSpaceOnUse"><stop offset="0" style="stop-color:#fff"/><stop offset=".995" style="stop-color:#f5f5f5"/></linearGradient><path d="M172.338 209.46v-27.764h-27.765v-16.3h27.765v-27.763h16.299v27.763h27.764v16.3h-27.764v27.764z" style="fill:url(#p)"/><linearGradient id="q" x1="201.58" x2="147.05" y1="224.98" y2="170.46" gradientTransform="matrix(1 0 0 -1 0 514)" gradientUnits="userSpaceOnUse"><stop offset="0" style="stop-color:#afafaf"/><stop offset=".995" style="stop-color:#a3a3a3"/></linearGradient><path d="M213.059 332.579V326.9l-19.632-13.953 19.632-19.632v-5.679l-12.939-7.261-19.633 19.633-19.632-19.633-12.939 7.261v5.679l19.632 19.632-19.632 13.953v5.679l12.939 12.94 19.633-19.632 19.632 19.632z" style="fill:url(#q)"/><path d="m213.059 326.9-19.632-19.632 19.632-19.632-12.939-12.94-19.633 19.633-19.632-19.633-12.939 12.94 19.632 19.632-19.632 19.632 12.939 12.94 19.633-19.632 19.632 19.632z" style="fill:#fff"/><linearGradient id="r" x1="199.95" x2="149.63" y1="226.19" y2="175.88" gradientTransform="matrix(1 0 0 -1 0 514)" gradientUnits="userSpaceOnUse"><stop offset="0" style="stop-color:#fff"/><stop offset=".995" style="stop-color:#f5f5f5"/></linearGradient><path d="m180.487 318.794-19.632 19.632L149.33 326.9l19.632-19.632-19.632-19.632 11.525-11.526 19.632 19.632 19.633-19.632 11.526 11.526-19.633 19.633 19.633 19.631-11.526 11.526z" style="fill:url(#r)"/><linearGradient id="s" x1="360.462" x2="287.322" y1="363.058" y2="289.918" gradientTransform="matrix(1 0 0 -1 0 514)" gradientUnits="userSpaceOnUse"><stop offset="0" style="stop-color:#afafaf"/><stop offset=".995" style="stop-color:#a3a3a3"/></linearGradient><path d="M295.26 170.08h73.828v18.299H295.26z" style="fill:url(#s)"/><path d="M295.26 164.4h73.828v18.299H295.26z" style="fill:#fff"/><linearGradient id="t" x1="359.692" x2="288.542" y1="367.968" y2="296.818" gradientTransform="matrix(1 0 0 -1 0 514)" gradientUnits="userSpaceOnUse"><stop offset="0" style="stop-color:#fff"/><stop offset=".995" style="stop-color:#f5f5f5"/></linearGradient><path d="M296.26 165.4h71.828v16.3H296.26z" style="fill:url(#t)"/><path d="M297.626 287.057v23.978h73.828v-23.978zM297.626 323.971v23.978h73.828v-23.978z" style="fill:#4d4d4d"/><linearGradient id="u" x1="14.02" x2="82.29" y1="214.481" y2="214.481" gradientTransform="matrix(1 0 0 -1 0 514)" gradientUnits="userSpaceOnUse"><stop offset="0" style="stop-color:#a8a8a8"/><stop offset="1" style="stop-color:#787878"/></linearGradient><path d="M295.26 290.37h73.828v18.299H295.26z" style="fill:url(#u)"/><linearGradient id="v" x1="14.02" x2="82.29" y1="177.571" y2="177.571" gradientTransform="matrix(1 0 0 -1 0 514)" gradientUnits="userSpaceOnUse"><stop offset="0" style="stop-color:#a8a8a8"/><stop offset="1" style="stop-color:#787878"/></linearGradient><path d="M295.26 327.28h73.828v18.299H295.26z" style="fill:url(#v)"/><linearGradient id="w" x1="14.02" x2="82.29" y1="220.161" y2="220.161" gradientTransform="matrix(1 0 0 -1 0 514)" gradientUnits="userSpaceOnUse"><stop offset="0" style="stop-color:#e0e0e0"/><stop offset="1" style="stop-color:#b0b0b0"/></linearGradient><path d="M295.26 284.69h73.828v18.299H295.26z" style="fill:url(#w)"/><linearGradient id="x" x1="22.634" x2="89.06" y1="220.161" y2="220.161" gradientTransform="matrix(1 0 0 -1 0 514)" gradientUnits="userSpaceOnUse"><stop offset="0" style="stop-color:#ccc"/><stop offset="1" style="stop-color:#9c9c9c"/></linearGradient><path d="M296.26 285.69h71.828v16.299H296.26z" style="fill:url(#x)"/><linearGradient id="y" x1="14.02" x2="82.29" y1="183.25" y2="183.25" gradientTransform="matrix(1 0 0 -1 0 514)" gradientUnits="userSpaceOnUse"><stop offset="0" style="stop-color:#e0e0e0"/><stop offset="1" style="stop-color:#b0b0b0"/></linearGradient><path d="M295.26 321.6h73.828v18.299H295.26z" style="fill:url(#y)"/><linearGradient id="z" x1="22.634" x2="89.06" y1="183.25" y2="183.25" gradientTransform="matrix(1 0 0 -1 0 514)" gradientUnits="userSpaceOnUse"><stop offset="0" style="stop-color:#ccc"/><stop offset="1" style="stop-color:#9c9c9c"/></linearGradient><path d="M296.26 322.6h71.828v16.299H296.26z" style="fill:url(#z)"/></svg>