<svg id="Layer_2" height="512" viewBox="0 0 512 512" width="512" xmlns="http://www.w3.org/2000/svg" data-name="Layer 2"><g id="_07.Icon" data-name="07.Icon"><g id="UserGear"><rect fill="#1e88e5" height="512" rx="150" width="512"/><path id="UserGear-2" d="m331.26 408.61h-225.99c-19.59 0-33.5-19.07-27.53-37.73l23.8-74.29c7.63-23.81 33.74-36.2 57.05-27.16 15.46 6 35.35 10.72 59.66 10.72s44.2-4.72 59.66-10.72c4.94-1.92 10.02-2.87 15.01-2.96l1.02.59c-.04 1.06-.07 2.12-.07 3.19s.03 2.14.07 3.2l-1.13.66c-11.66 6.73-15.67 21.69-8.94 33.34l8.53 14.76c4.34 7.53 12.45 12.21 21.14 12.21 4.27 0 8.49-1.13 12.2-3.27l1.16-.66c1.78 1.14 3.63 2.2 5.52 3.19v1.32c0 12.88 10.02 23.45 22.66 24.35l3.69 11.52c5.98 18.66-7.93 37.73-27.53 37.73zm-112.99-305.22c-41.15 0-74.52 33.36-74.52 74.52s33.36 74.52 74.52 74.52 74.52-33.36 74.52-74.52-33.36-74.52-74.52-74.52zm216.05 196.85-8.52 14.76c-2.75 4.76-8.84 6.4-13.6 3.65l-9.37-5.41c-5.5 4.8-11.93 8.56-18.98 10.98v10.81c0 5.5-4.46 9.96-9.96 9.96h-17.04c-5.5 0-9.96-4.46-9.96-9.96v-10.81c-7.06-2.42-13.48-6.17-18.99-10.98l-9.37 5.41c-4.76 2.75-10.85 1.12-13.6-3.65l-8.52-14.76c-2.75-4.76-1.12-10.85 3.65-13.6l9.35-5.4c-.69-3.55-1.07-7.22-1.07-10.97s.37-7.42 1.07-10.97l-9.35-5.4c-4.76-2.75-6.4-8.84-3.65-13.6l8.52-14.76c2.75-4.76 8.84-6.4 13.6-3.65l9.37 5.41c5.5-4.8 11.93-8.56 18.99-10.98v-10.81c0-5.5 4.46-9.96 9.96-9.96h17.04c5.5 0 9.96 4.46 9.96 9.96v10.81c7.06 2.42 13.48 6.17 18.98 10.98l9.37-5.41c4.76-2.75 10.85-1.12 13.6 3.65l8.52 14.76c2.75 4.76 1.12 10.85-3.65 13.6l-9.36 5.4c.69 3.55 1.06 7.21 1.06 10.97s-.37 7.42-1.06 10.97l9.36 5.4c4.76 2.75 6.4 8.84 3.65 13.6zm-44.15-29.98c0-13.7-11.1-24.81-24.81-24.81s-24.81 11.11-24.81 24.81 11.11 24.81 24.81 24.81 24.81-11.1 24.81-24.81z" fill="#fff" data-name="UserGear"/></g></g></svg>