<svg id="INDONESIA" viewBox="0 0 512 512" xmlns="http://www.w3.org/2000/svg"><path d="m16.96 160.92c.7.08 1.38.11 2.07.11 9.58 0 17.81-7.22 18.87-16.95 1.13-10.47 2.51-20.51 4.2-30.69 2.91-16.31 11.88-32.67 25.28-46.06s29.76-22.36 46.09-25.27c10.19-1.69 20.23-3.06 30.71-4.2 10.43-1.13 17.98-10.5 16.85-20.92s-10.52-17.96-20.95-16.83c-11.24 1.22-22.02 2.69-32.95 4.51l-.19.03c-49.56 8.76-93.56 52.89-102.32 102.42-1.82 10.92-3.29 21.7-4.51 32.93-1.13 10.43 6.41 19.79 16.85 20.92z"/><path d="m367.83 38.06c10.48 1.13 20.52 2.51 30.71 4.2 16.32 2.91 32.68 11.88 46.09 25.27 13.4 13.39 22.38 29.74 25.28 46.05 1.69 10.17 3.07 20.21 4.2 30.69 1.05 9.73 9.29 16.95 18.87 16.95.68 0 1.37-.04 2.07-.11 10.43-1.13 17.97-10.5 16.85-20.92-1.22-11.24-2.69-22.01-4.51-32.93-8.76-49.52-52.76-93.66-102.32-102.41l-.19-.03c-10.94-1.82-21.72-3.29-32.95-4.51-10.43-1.13-19.81 6.41-20.94 16.84s6.41 19.79 16.85 20.92z"/><path d="m495.04 351.08c-10.44-1.12-19.81 6.41-20.94 16.84-1.14 10.48-2.51 20.52-4.2 30.69-2.91 16.31-11.88 32.66-25.28 46.06-13.4 13.39-29.76 22.36-46.09 25.27-10.17 1.69-20.22 3.06-30.71 4.2-10.43 1.13-17.97 10.5-16.84 20.92 1.05 9.73 9.29 16.95 18.87 16.95.68 0 1.37-.04 2.07-.11 11.25-1.22 22.03-2.69 32.95-4.51l.19-.03c49.56-8.75 93.53-52.7 102.28-102.22 1.82-10.92 3.33-21.88 4.54-33.12 1.13-10.43-6.41-19.79-16.85-20.92z"/><path d="m4.62 404.75c8.76 49.52 52.76 93.66 102.32 102.41l.19.03c10.94 1.82 21.72 3.29 32.95 4.51.69.08 1.38.11 2.07.11 9.58 0 17.81-7.22 18.87-16.95 1.13-10.43-6.41-19.79-16.85-20.92-10.48-1.13-20.52-2.51-30.71-4.2-16.32-2.91-32.68-11.88-46.09-25.27-13.4-13.39-22.38-29.74-25.28-46.06-1.69-10.17-3.06-20.21-4.2-30.69-1.13-10.43-10.5-17.96-20.94-16.84-10.43 1.13-17.97 10.5-16.85 20.92 1.22 11.23 2.69 22.01 4.51 32.93z"/><path d="m60.37 231.6c-10.02 14.83-10.02 34 0 48.84 22.55 33.37 52.4 61.05 86.31 80.06 33.86 18.98 71.19 29.01 107.95 29.01h1.29s1.29 0 1.29 0c36.76 0 74.09-10.03 107.95-29.01 33.91-19 63.76-46.69 86.31-80.06 10.02-14.83 10.02-34 0-48.84-22.55-33.37-52.4-61.05-86.31-80.06-33.86-18.98-71.19-29-107.95-29h-1.29s-1.29 0-1.29 0c-36.76 0-74.09 10.03-107.95 29.01-33.91 19-63.75 46.69-86.31 80.06zm275.73-52.39c3.53 1.71 7.03 3.53 10.48 5.47 28.76 16.12 54.15 39.7 73.4 68.18 1.32 1.95 1.32 4.37 0 6.32-19.25 28.48-44.63 52.06-73.4 68.18-3.48 1.95-7 3.78-10.56 5.51 19.19-19.96 31.01-47.06 31.01-76.87s-11.79-56.84-30.93-76.79zm-80.1 3.78c40.27 0 73.04 32.75 73.04 73.01s-32.76 73.01-73.04 73.01-73.04-32.75-73.04-73.01 32.76-73.01 73.04-73.01zm-79.96-3.92c-19.23 19.97-31.07 47.09-31.07 76.93s11.87 57.04 31.15 77.01c-3.66-1.76-7.27-3.64-10.85-5.65-28.77-16.12-54.15-39.7-73.4-68.18-1.32-1.95-1.32-4.38 0-6.32 19.25-28.49 44.63-52.06 73.4-68.19 3.55-1.99 7.14-3.86 10.77-5.61z"/><path d="m219.61 274.99c10.49 0 19-8.5 19-18.99 0-9.59 7.8-17.39 17.39-17.39 10.49 0 19-8.5 19-18.99s-8.51-18.99-19-18.99c-30.54 0-55.39 24.84-55.39 55.38 0 10.49 8.51 18.99 19 18.99z"/></svg>