<?xml version="1.0" encoding="iso-8859-1"?>
<!--
  - Copyright (c) 2023. Selldone® Business OS?
  -
  - Author: M.Pajuhaan
  - Web: https://selldone.com
  - ??????????????????????????????????????????????????????
  -
  - All rights reserved. In the weave of time, where traditions and innovations intermingle, this content was crafted.
  - From the essence of thought, through the corridors of creativity, each word, and sentiment has been molded.
  - Not just to exist, but to inspire. Like an artist's stroke or a sculptor's chisel, every nuance is deliberate.
  - Our journey is not just about reaching a destination, but about creating a masterpiece.
  - Tread carefully, for you're treading on dreams.
  -->

<!-- Generator: Adobe Illustrator 19.0.0, SVG Export Plug-In . SVG Version: 6.00 Build 0)  -->
<svg version="1.1" id="Capa_1" xmlns="http://www.w3.org/2000/svg" xmlns:xlink="http://www.w3.org/1999/xlink" x="0px" y="0px"
	 viewBox="0 0 512 512" style="enable-background:new 0 0 512 512;" xml:space="preserve">
<g>
	<path style="fill:#FD6F71;" d="M23.585,265.748v119.896c0,17.395,14.111,31.506,31.516,31.506h43.437l19.624-151.402H23.585z"/>
	<path style="fill:#FD6F71;" d="M117.657,220.657L98.538,94.855H55.101c-17.404,0-31.516,14.112-31.516,31.516v94.286h94.072
		V220.657z"/>
</g>
<g>
	<path style="fill:#E36465;" d="M86.007,94.855H55.101c-17.404,0-31.516,14.112-31.516,31.516v94.285H54.49v-94.285
		C54.49,108.966,68.603,94.855,86.007,94.855z"/>
	<path style="fill:#E36465;" d="M54.49,385.643V265.748H23.585v119.896c0,17.395,14.111,31.506,31.516,31.506h30.905
		C68.603,417.149,54.49,403.038,54.49,385.643z"/>
</g>
<g>
	<path style="fill:#FD6F71;" d="M336.253,240.033l-212.248,25.714l19.62,151.402h336.859c17.404,0,31.516-14.111,31.516-31.506
		V265.748L336.253,240.033z"/>
	<path style="fill:#FD6F71;" d="M480.484,94.855H143.625L124.51,220.657l211.744,19.376L512,220.657V126.37
		C512,108.966,497.889,94.855,480.484,94.855z"/>
</g>
<g>
	<rect x="98.537" y="94.851" style="fill:#FADC60;" width="45.088" height="322.292"/>
	<rect x="23.545" y="220.657" style="fill:#FADC60;" width="488.45" height="45.091"/>
</g>
<g>
	<path style="fill:#596674;" d="M273.512,339.491c-4.267,0-7.726-3.459-7.726-7.726v-15.077c0-4.267,3.459-7.726,7.726-7.726
		c4.267,0,7.726,3.459,7.726,7.726v15.077C281.238,336.032,277.779,339.491,273.512,339.491z"/>
	<path style="fill:#596674;" d="M440.115,339.491c-4.267,0-7.726-3.459-7.726-7.726v-15.077c0-4.267,3.459-7.726,7.726-7.726
		s7.726,3.459,7.726,7.726v15.077C447.841,336.032,444.382,339.491,440.115,339.491z"/>
	<path style="fill:#596674;" d="M356.814,347.538c-10.242,0-19.857-4.278-26.377-11.738c-2.808-3.213-2.481-8.094,0.732-10.902
		c3.213-2.807,8.093-2.481,10.902,0.732c3.585,4.102,8.958,6.455,14.743,6.455c5.783,0,11.157-2.353,14.743-6.455
		c2.807-3.213,7.689-3.541,10.902-0.732s3.541,7.689,0.731,10.902C376.669,343.259,367.056,347.538,356.814,347.538z"/>
</g>
<path style="fill:#D9D7D8;" d="M93.742,268.28C26.042,330.558,0,291.872,0,243.161s26.042-87.397,93.742-25.118V268.28z"/>
<path style="fill:#D9BD4A;" d="M117.519,265.748h153.886c1.102-7.132,1.668-14.693,1.668-22.587c0-8.146-0.554-15.635-1.582-22.504
	H117.52v45.091H117.519z"/>
<path style="fill:#D9D7D8;" d="M148.424,268.28c67.7,62.279,93.742,23.592,93.742-25.118s-26.042-87.397-93.742-25.118V268.28z"/>
<g>
	<path style="fill:#BAB8B9;" d="M93.742,253.412c-0.868,0-1.751-0.147-2.617-0.458l0,0c-0.302-0.108-30.573-10.845-63.611-10.845
		c-4.267,0-7.726-3.459-7.726-7.726c0-4.267,3.459-7.726,7.726-7.726c35.826,0,67.516,11.279,68.848,11.76
		c4.015,1.447,6.096,5.875,4.647,9.889C99.876,251.453,96.907,253.412,93.742,253.412z"/>
	<path style="fill:#BAB8B9;" d="M148.424,253.412c-3.165,0-6.134-1.958-7.269-5.108c-1.447-4.014,0.633-8.441,4.647-9.889
		c1.332-0.48,33.022-11.76,68.848-11.76c4.267,0,7.726,3.459,7.726,7.726c0,4.267-3.459,7.726-7.726,7.726
		c-33.153,0-63.305,10.734-63.605,10.843C150.18,253.264,149.295,253.412,148.424,253.412z"/>
</g>
<path style="fill:#D9BD4A;" d="M143.626,243.351c-5.227-1.39-10.713-2.141-16.372-2.141h-12.341c-5.661,0-11.147,0.751-16.376,2.142
	v61.429c5.228,1.391,10.715,2.142,16.376,2.142h12.341c5.659,0,11.144-0.75,16.372-2.141V243.351z"/>
<path style="fill:#EFEDEE;" d="M127.253,210.305h-12.34c-18.146,0-32.856,14.71-32.856,32.856l0,0
	c0,18.146,14.71,32.856,32.856,32.856h12.34c18.146,0,32.856-14.71,32.856-32.856l0,0C160.11,225.015,145.4,210.305,127.253,210.305
	z"/>
<g>
</g>
<g>
</g>
<g>
</g>
<g>
</g>
<g>
</g>
<g>
</g>
<g>
</g>
<g>
</g>
<g>
</g>
<g>
</g>
<g>
</g>
<g>
</g>
<g>
</g>
<g>
</g>
<g>
</g>
</svg>
