<svg height="512" viewBox="0 0 48 48" width="512" xmlns="http://www.w3.org/2000/svg">
    <g id="Wallet_with_money" data-name="Wallet with money">
        <path d="m43 16v28a2 2 0 0 1 -2 2h-36a4 4 0 0 1 -4-4v-32a4 4 0 0 0 4 4h36a2 2 0 0 1 2 2z" fill="#a87e6b"/>
        <path d="m43 16v28h-8.87a30.13 30.13 0 0 1 -30.13-30.13c.72.2 37.1.13 37 .13a2 2 0 0 1 2 2z" fill="#be927c"/>
        <path d="m45 35h-9a5 5 0 0 1 0-10h9a2 2 0 0 1 2 2v6a2 2 0 0 1 -2 2z" fill="#f6ccaf"/>
        <path d="m47 27v6h-8a5 5 0 0 1 -4.09-7.88c.77-.18.7-.12 10.09-.12a2 2 0 0 1 2 2z" fill="#ffdec7"/>
        <path d="m19 6-13.88 8a4 4 0 1 1 -.12-8z" fill="#a07765"/>
        <path d="m36 31a1 1 0 1 1 .71-1.71 1 1 0 0 1 -.71 1.71z" fill="#f29b75"/>
        <path d="m19 6c-11.89 6.85-10.17 6-11 6a4 4 0 0 1 -3.48-6z" fill="#be927c"/>
        <path d="m39.48 14h-21.16l15.87-9.16z" fill="#9dcc6b"/>
        <path d="m39.48 14h-5.26a3.46 3.46 0 0 1 -1.73-6.45l2.45-1.41z" fill="#b5e08c"/>
        <path d="m29.49 7.55-11.17 6.45h-13.2l21.07-12.16z" fill="#9dcc6b"/>
        <path d="m29.49 7.55c-10.49 6.06-11.27 6.45-11.17 6.45a2.73 2.73 0 0 1 -1.32-5.1l10-5.76z" fill="#b5e08c"/>
    </g>
</svg>