<!--
  - Copyright (c) 2023. Selldone® Business OS™
  -
  - Author: M.Pajuhaan
  - Web: https://selldone.com
  - ━━━━━━━━━━━━━━━━━━━━━━━━━━━━━━━━━━━━━━━━━━━━━━━━━━━━━━
  -
  - All rights reserved. In the weave of time, where traditions and innovations intermingle, this content was crafted.
  - From the essence of thought, through the corridors of creativity, each word, and sentiment has been molded.
  - Not just to exist, but to inspire. Like an artist's stroke or a sculptor's chisel, every nuance is deliberate.
  - Our journey is not just about reaching a destination, but about creating a masterpiece.
  - Tread carefully, for you're treading on dreams.
  -->

<svg id="Layer_1" enable-background="new 0 0 124 124" height="512" viewBox="0 0 124 124" width="512" xmlns="http://www.w3.org/2000/svg" xmlns:xlink="http://www.w3.org/1999/xlink"><linearGradient id="SVGID_1_" gradientUnits="userSpaceOnUse" x1="78.869" x2="117" y1="88.032" y2="88.032"><stop offset=".2973" stop-color="#dee0e4"/><stop offset="1" stop-color="#d5d8dd"/></linearGradient><path d="m111.026 33.152h-97.771c-3.299 0-5.974 2.612-6.255 5.835v64.267c.281 3.223 2.956 5.835 6.255 5.835h97.771c3.299 0 5.974-2.612 5.974-5.835v-64.267c0-3.222-2.675-5.835-5.974-5.835z" fill="#0659e5"/><path d="m42.088 75.317h39.794c2.105.174 3.8-1.514 3.8-3.596v-67.951c0-2.082-1.695-3.77-3.785-3.77h-39.794c-2.09 0-3.785 1.688-3.785 3.77v67.95c0 2.082 1.695 3.77 3.77 3.597z" fill="#fb0"/><g fill="#e69600"><path d="m67.952 0h13.762c2.071 0 3.94 1.708 3.968 3.77v13.442c-9.331-.906-16.563-8.153-17.73-17.212z"/><path d="m55.401 0h-13.351c-2.009 0-3.703 1.632-3.731 3.654l-.002 13.113c9.054-.889 15.952-7.882 17.084-16.767z"/><ellipse cx="62" cy="37.664" rx="14.632" ry="14.574"/></g><path d="m69.207 36.571c-.5-2.113-2.133-3.506-4.164-3.506-2.088 0-3.435 1.114-4.5 3.721-.797 1.917-1.271 2.472-2.118 2.472-.706 0-1.461-.498-1.461-1.898 0-1.351.49-2.205.698-2.569l.265-.463-2.334-.882-.195.333c-.461.786-.729 1.659-.815 2.66h-2.189v2.287h2.334c.478 2.049 2 3.351 3.964 3.351 2.393 0 3.473-1.899 4.28-3.947.642-1.579 1.288-2.223 2.227-2.223 1.033 0 1.728.878 1.728 2.186 0 1.031-.321 2.104-.882 2.944l-.323.484 2.367.844.201-.279c.557-.775.949-1.996 1.045-3.205h2.272v-2.31z" fill="#fff"/><path d="m111.026 48.063h-97.771c-3.299 0-5.974 2.612-6.255 5.835v64.267c.281 3.223 2.956 5.835 6.255 5.835h97.771c3.299 0 5.974-2.612 5.974-5.835v-64.267c0-3.222-2.675-5.835-5.974-5.835z" fill="#e8eaed"/><path d="m90.042 101.532h26.958v-27h-26.958c-6.17 0-11.173 5.002-11.173 11.173v4.655c0 6.169 5.002 11.172 11.173 11.172z" fill="url(#SVGID_1_)"/><path d="m91.042 99.532h25.958v-27h-25.958c-6.17 0-11.173 5.002-11.173 11.173v4.655c0 6.169 5.002 11.172 11.173 11.172z" fill="#0659e5"/><path d="m98.291 90.436c-2.501 0-4.536-1.976-4.536-4.405s2.035-4.405 4.536-4.405 4.537 1.976 4.537 4.405-2.036 4.405-4.537 4.405z" fill="#fff"/></svg>