<svg xmlns:xlink="http://www.w3.org/1999/xlink" id="Capa_1" enable-background="new 0 0 510 510" height="512" viewBox="0 0 510 510"
     width="512" xmlns="http://www.w3.org/2000/svg">
    <linearGradient id="lg1">
        <stop offset="0" stop-color="#8a7889"/>
        <stop offset="1" stop-color="#6e566e"/>
    </linearGradient>
    <linearGradient id="SVGID_1_" gradientUnits="userSpaceOnUse" x1="391.581" x2="342.581" xlink:href="#lg1" y1="51.639"
                    y2="140.639"/>
    <linearGradient id="lg2">
        <stop offset="0" stop-color="#6e566e" stop-opacity="0"/>
        <stop offset=".2191" stop-color="#685168" stop-opacity=".219"/>
        <stop offset="1" stop-color="#564357"/>
    </linearGradient>
    <linearGradient id="SVGID_2_" gradientUnits="userSpaceOnUse" x1="429.141" x2="376.141" xlink:href="#lg2" y1="88.213"
                    y2="152.213"/>
    <linearGradient id="lg3">
        <stop offset="0" stop-color="#4ab272"/>
        <stop offset="1" stop-color="#077565"/>
    </linearGradient>
    <linearGradient id="SVGID_3_" gradientTransform="matrix(-.002 1 -1 -.002 3142.01 1252.15)"
                    gradientUnits="userSpaceOnUse" x1="-1049.296" x2="-946.843" xlink:href="#lg3" y1="2779.617"
                    y2="3038.815"/>
    <linearGradient id="lg4">
        <stop offset="0" stop-color="#92f37f" stop-opacity="0"/>
        <stop offset="1" stop-color="#ffee83"/>
    </linearGradient>
    <linearGradient id="SVGID_4_" gradientTransform="matrix(-.002 1 -1 -.002 3142.01 1252.15)"
                    gradientUnits="userSpaceOnUse" x1="-1014.684" x2="-1211.709" xlink:href="#lg4" y1="2861.344"
                    y2="2437.522"/>
    <linearGradient id="lg5">
        <stop offset="0" stop-color="#91f27f"/>
        <stop offset="1" stop-color="#00b302"/>
    </linearGradient>
    <linearGradient id="SVGID_5_" gradientTransform="matrix(-.002 1 -1 -.002 3142.01 1252.15)"
                    gradientUnits="userSpaceOnUse" x1="-1042.748" x2="-985.682" xlink:href="#lg5" y1="2789.812"
                    y2="2962.911"/>
    <linearGradient id="lg6">
        <stop offset="0" stop-color="#92f37f"/>
        <stop offset="1" stop-color="#4ab272"/>
    </linearGradient>
    <linearGradient id="SVGID_6_" gradientTransform="matrix(-.002 1 -1 -.002 3142.01 1252.15)"
                    gradientUnits="userSpaceOnUse" x1="-976.541" x2="-1186.639" xlink:href="#lg6" y1="2863.004"
                    y2="2726.44"/>
    <linearGradient id="lg7">
        <stop offset="0" stop-color="#4ab272" stop-opacity="0"/>
        <stop offset="1" stop-color="#009245"/>
    </linearGradient>
    <linearGradient id="SVGID_7_" gradientTransform="matrix(-.002 1 -1 -.002 3142.01 1252.15)"
                    gradientUnits="userSpaceOnUse" x1="-980.856" x2="-1128.546" xlink:href="#lg7" y1="2864.077"
                    y2="2798.697"/>
    <linearGradient id="SVGID_8_" gradientTransform="matrix(-.002 1 -1 -.002 3142.01 1252.15)"
                    gradientUnits="userSpaceOnUse" x1="-1036.729" x2="-979.522" xlink:href="#lg3" y1="2822.213"
                    y2="2860.741"/>
    <linearGradient id="SVGID_9_" gradientTransform="matrix(-.002 1 -1 -.002 3142.01 1252.15)"
                    gradientUnits="userSpaceOnUse" x1="-1183.484" x2="-1156.172" xlink:href="#lg5" y1="2760.394"
                    y2="2789.891"/>
    <linearGradient id="SVGID_10_" gradientTransform="matrix(-.002 1 -1 -.002 3142.01 1252.15)"
                    gradientUnits="userSpaceOnUse" x1="-885.896" x2="-858.583" xlink:href="#lg5" y1="2760.407"
                    y2="2789.905"/>
    <linearGradient id="SVGID_11_" gradientTransform="matrix(-.002 1 -1 -.002 3142.01 1252.15)"
                    gradientUnits="userSpaceOnUse" x1="-1183.49" x2="-1156.177" xlink:href="#lg5" y1="2886.049"
                    y2="2915.547"/>
    <linearGradient id="SVGID_12_" gradientTransform="matrix(-.002 1 -1 -.002 3142.01 1252.15)"
                    gradientUnits="userSpaceOnUse" x1="-885.901" x2="-858.589" xlink:href="#lg5" y1="2886.063"
                    y2="2915.56"/>
    <linearGradient id="SVGID_13_" gradientTransform="matrix(.336 .942 -.942 .336 2531.68 527.52)"
                    gradientUnits="userSpaceOnUse" x1="-1087.723" x2="-985.268" xlink:href="#lg3" y1="1979.853"
                    y2="2239.054"/>
    <linearGradient id="SVGID_14_" gradientTransform="matrix(.336 .942 -.942 .336 2531.68 527.52)"
                    gradientUnits="userSpaceOnUse" x1="-1053.111" x2="-1250.138" xlink:href="#lg4" y1="2061.581"
                    y2="1637.754"/>
    <linearGradient id="SVGID_15_" gradientTransform="matrix(.336 .942 -.942 .336 2531.68 527.52)"
                    gradientUnits="userSpaceOnUse" x1="-1081.175" x2="-1024.109" xlink:href="#lg5" y1="1990.048"
                    y2="2163.149"/>
    <linearGradient id="SVGID_16_" gradientTransform="matrix(.336 .942 -.942 .336 2531.68 527.52)"
                    gradientUnits="userSpaceOnUse" x1="-1014.966" x2="-1225.07" xlink:href="#lg6" y1="2063.242"
                    y2="1926.674"/>
    <linearGradient id="SVGID_17_" gradientTransform="matrix(.336 .942 -.942 .336 2531.68 527.52)"
                    gradientUnits="userSpaceOnUse" x1="-1019.281" x2="-1166.975" xlink:href="#lg7" y1="2064.315"
                    y2="1998.932"/>
    <linearGradient id="SVGID_18_" gradientTransform="matrix(.336 .942 -.942 .336 2531.68 527.52)"
                    gradientUnits="userSpaceOnUse" x1="-1075.156" x2="-1017.947" xlink:href="#lg3" y1="2022.45"
                    y2="2060.979"/>
    <linearGradient id="SVGID_19_" gradientTransform="matrix(.336 .942 -.942 .336 2531.68 527.52)"
                    gradientUnits="userSpaceOnUse" x1="-1221.917" x2="-1194.603" xlink:href="#lg5" y1="1960.632"
                    y2="1990.13"/>
    <linearGradient id="SVGID_20_" gradientTransform="matrix(.336 .942 -.942 .336 2531.68 527.52)"
                    gradientUnits="userSpaceOnUse" x1="-924.32" x2="-897.006" xlink:href="#lg5" y1="1960.639"
                    y2="1990.138"/>
    <linearGradient id="SVGID_21_" gradientTransform="matrix(.336 .942 -.942 .336 2531.68 527.52)"
                    gradientUnits="userSpaceOnUse" x1="-1221.92" x2="-1194.606" xlink:href="#lg5" y1="2086.291"
                    y2="2115.789"/>
    <linearGradient id="SVGID_22_" gradientTransform="matrix(.336 .942 -.942 .336 2531.68 527.52)"
                    gradientUnits="userSpaceOnUse" x1="-924.323" x2="-897.01" xlink:href="#lg5" y1="2086.298"
                    y2="2115.796"/>
    <linearGradient id="SVGID_23_" gradientTransform="matrix(.635 .773 -.773 .635 1712.189 52.656)"
                    gradientUnits="userSpaceOnUse" x1="-853.725" x2="-751.275" xlink:href="#lg3" y1="1213.743"
                    y2="1472.935"/>
    <linearGradient id="SVGID_24_" gradientTransform="matrix(.635 .773 -.773 .635 1712.189 52.656)"
                    gradientUnits="userSpaceOnUse" x1="-819.115" x2="-1016.135" xlink:href="#lg4" y1="1295.468"
                    y2="871.657"/>
    <linearGradient id="SVGID_25_" gradientTransform="matrix(.635 .773 -.773 .635 1712.189 52.656)"
                    gradientUnits="userSpaceOnUse" x1="-847.178" x2="-790.114" xlink:href="#lg5" y1="1223.938"
                    y2="1397.033"/>
    <linearGradient id="SVGID_26_" gradientTransform="matrix(.635 .773 -.773 .635 1712.189 52.656)"
                    gradientUnits="userSpaceOnUse" x1="-780.971" x2="-991.069" xlink:href="#lg6" y1="1297.129"
                    y2="1160.566"/>
    <linearGradient id="SVGID_27_" gradientTransform="matrix(.635 .773 -.773 .635 1712.189 52.656)"
                    gradientUnits="userSpaceOnUse" x1="-785.286" x2="-932.976" xlink:href="#lg7" y1="1298.202"
                    y2="1232.821"/>
    <linearGradient id="SVGID_28_" gradientTransform="matrix(.635 .773 -.773 .635 1712.189 52.656)"
                    gradientUnits="userSpaceOnUse" x1="-841.159" x2="-783.951" xlink:href="#lg3" y1="1256.339"
                    y2="1294.867"/>
    <linearGradient id="SVGID_29_" gradientTransform="matrix(.635 .773 -.773 .635 1712.189 52.656)"
                    gradientUnits="userSpaceOnUse" x1="-987.916" x2="-960.604" xlink:href="#lg5" y1="1194.524"
                    y2="1224.021"/>
    <linearGradient id="SVGID_30_" gradientTransform="matrix(.635 .773 -.773 .635 1712.189 52.656)"
                    gradientUnits="userSpaceOnUse" x1="-690.328" x2="-663.015" xlink:href="#lg5" y1="1194.528"
                    y2="1224.026"/>
    <linearGradient id="SVGID_31_" gradientTransform="matrix(.635 .773 -.773 .635 1712.189 52.656)"
                    gradientUnits="userSpaceOnUse" x1="-987.918" x2="-960.605" xlink:href="#lg5" y1="1320.179"
                    y2="1349.677"/>
    <linearGradient id="SVGID_32_" gradientTransform="matrix(.635 .773 -.773 .635 1712.189 52.656)"
                    gradientUnits="userSpaceOnUse" x1="-690.33" x2="-663.017" xlink:href="#lg5" y1="1320.183"
                    y2="1349.681"/>
    <linearGradient id="SVGID_33_" gradientUnits="userSpaceOnUse" x1="108.325" x2="372.726" xlink:href="#lg1"
                    y1="132.641" y2="561.816"/>
    <linearGradient id="SVGID_34_" gradientUnits="userSpaceOnUse" x1="463.724" x2="409.799" xlink:href="#lg2"
                    y1="457.221" y2="367.966"/>
    <linearGradient id="SVGID_35_" gradientUnits="userSpaceOnUse" x1="429.3" x2="444.3" y1="294.79" y2="367.79">
        <stop offset="0" stop-color="#ff7044"/>
        <stop offset="1" stop-color="#f82814"/>
    </linearGradient>
    <linearGradient id="SVGID_36_" gradientUnits="userSpaceOnUse" x1="445.691" x2="408.498" y1="378.104" y2="345.918">
        <stop offset="0" stop-color="#f82814" stop-opacity="0"/>
        <stop offset="1" stop-color="#c0272d"/>
    </linearGradient>
    <radialGradient id="SVGID_37_" cx="391.081" cy="325.115" gradientUnits="userSpaceOnUse" r="39.057">
        <stop offset="0" stop-color="#ffd945"/>
        <stop offset=".4169" stop-color="#ffd744"/>
        <stop offset=".6278" stop-color="#ffcf3f"/>
        <stop offset=".7926" stop-color="#ffc237"/>
        <stop offset=".9326" stop-color="#ffaf2c"/>
        <stop offset="1" stop-color="#ffa325"/>
    </radialGradient>
    <linearGradient id="SVGID_38_" gradientUnits="userSpaceOnUse" x1="405.554" x2="368.056" y1="342.598" y2="305.101">
        <stop offset="0" stop-color="#ffd945" stop-opacity="0"/>
        <stop offset="1" stop-color="#fbed21"/>
    </linearGradient>
    <linearGradient id="SVGID_39_" gradientUnits="userSpaceOnUse" x1="413.424" x2="471.816" y1="338.33" y2="288.906">
        <stop offset="0" stop-color="#e87264" stop-opacity="0"/>
        <stop offset="1" stop-color="#ff7044"/>
    </linearGradient>
    <linearGradient id="SVGID_40_" gradientUnits="userSpaceOnUse" x1="400.109" x2="400.109" y1="327.513" y2="297.954">
        <stop offset="0" stop-color="#fff" stop-opacity="0"/>
        <stop offset="1" stop-color="#fff"/>
    </linearGradient>
    <g>
        <g>
            <path d="m474.922 471.471h-444.997c-15.828 0-28.66-12.831-28.66-28.66v-262.879c0-45.76 37.096-82.856 82.856-82.856h390.8c15.828 0 28.66 12.832 28.66 28.66v317.075c.001 15.828-12.831 28.66-28.659 28.66z"
                  fill="url(#SVGID_1_)"/>
        </g>
        <g>
            <path d="m474.922 471.471h-444.997c-15.828 0-28.66-12.831-28.66-28.66v-262.879c0-45.76 37.096-82.856 82.856-82.856h390.8c15.828 0 28.66 12.832 28.66 28.66v317.075c.001 15.828-12.831 28.66-28.659 28.66z"
                  fill="url(#SVGID_2_)"/>
        </g>
        <g>
            <g>
                <g>
                    <path d="m215.568 387.879.81-345.129c.013-5.6 4.563-10.129 10.163-10.116l180.144.422c5.6.013 10.129 4.564 10.116 10.164l-.81 345.129c-.013 5.6-4.564 10.129-10.164 10.116l-180.144-.423c-5.599-.012-10.128-4.562-10.115-10.163z"
                          fill="url(#SVGID_3_)"/>
                    <path d="m222.534 380.393.774-330.123c.012-5.282 4.304-9.553 9.586-9.541l167.4.393c5.282.012 9.553 4.304 9.541 9.586l-.775 330.122c-.012 5.282-4.304 9.553-9.586 9.541l-167.4-.393c-5.281-.012-9.552-4.304-9.54-9.585z"
                          fill="url(#SVGID_4_)"/>
                    <path d="m354.745 367.698c.04-16.926 13.793-30.615 30.719-30.575.695.002 1.385.027 2.068.075 3.28.23 6.069-2.354 6.077-5.642l.543-231.647c.008-3.288-2.769-5.885-6.05-5.67-.683.045-1.373.067-2.068.065-16.926-.04-30.615-13.793-30.576-30.719 0-.02 0-.04 0-.06.014-3.179-2.482-5.794-5.661-5.802l-66.485-.156c-3.179-.007-5.687 2.596-5.688 5.775v.06c-.04 16.926-13.793 30.615-30.719 30.575-.695-.002-1.385-.027-2.068-.075-3.28-.23-6.069 2.354-6.076 5.642l-.543 231.647c-.008 3.288 2.769 5.885 6.05 5.67.683-.045 1.373-.067 2.068-.065 16.926.04 30.615 13.793 30.575 30.719v.06c-.014 3.179 2.482 5.794 5.661 5.802l66.485.156c3.179.007 5.687-2.596 5.688-5.775 0-.02 0-.04 0-.06z"
                          fill="url(#SVGID_5_)"/>
                    <circle cx="316.185" cy="215.55" fill="url(#SVGID_6_)" r="69.816"/>
                    <path d="m358.271 243.063c1.664-1.059 3.051-3.111 4.159-6.168 1.191-3.295 2.004-6.808 2.454-10.531.127-.199.239-.402.334-.608l5.923-5.502c.638-.864.96-1.797.962-2.797.003-1.093-.315-2.028-.949-2.802-.636-.776-1.363-1.164-2.182-1.166l-3.96-.009c-.802-7.376-3.246-13.551-7.331-18.522-4.085-4.973-10.084-7.466-17.992-7.485-2.817-.007-5.384.305-7.703.938-2.319.63-4.342 1.674-6.072 3.127-1.73 1.451-3.21 2.836-4.44 4.155-.009.009-.017.02-.026.029 0 0-17.213 17.132-17.222 17.141-.171.159-.331.315-.495.473l-22.843-.054c.283-4.034 1.334-7.585 3.16-10.653 1.823-3.068 3.531-5.477 5.127-7.232 1.594-1.754 2.393-3.171 2.396-4.251.004-1.63-.857-3.079-2.58-4.35-1.723-1.272-3.448-1.907-5.174-1.911-2.76-.007-5.483 1.542-8.171 4.646l-59.752 59.472-.319 136.09z"
                          fill="url(#SVGID_7_)"/>
                    <g>
                        <path d="m283.816 184.884c1.726.004 3.451.639 5.174 1.911s2.584 2.721 2.58 4.351c-.003 1.08-.802 2.497-2.396 4.251-1.596 1.755-3.304 4.164-5.127 7.232-1.825 3.069-2.877 6.619-3.16 10.653l32.026.075c1.005-2.729 1.806-4.822 2.4-6.276.592-1.456 1.461-3.389 2.602-5.798 1.141-2.411 2.327-4.275 3.557-5.591 1.23-1.318 2.71-2.704 4.44-4.155 1.729-1.454 3.753-2.497 6.072-3.127 2.319-.632 4.887-.944 7.703-.938 7.908.019 13.907 2.512 17.992 7.485 4.085 4.971 6.529 11.146 7.331 18.522l3.96.009c.82.002 1.546.39 2.182 1.166.634.774.952 1.709.949 2.802-.002 1.001-.325 1.933-.962 2.797-.64.863-1.369 1.294-2.188 1.292l-3.687-.009c-.197 5.552-1.141 10.671-2.836 15.357-1.697 4.684-4.045 7.023-7.05 7.016-1.639-.004-3.344-.56-5.117-1.666-1.773-1.105-2.657-2.577-2.653-4.413.002-.725.779-2.719 2.336-5.975 1.555-3.259 2.474-6.71 2.755-10.349l-27.676-.065c-1.372 3.618-2.674 6.625-3.907 9.021-1.233 2.395-2.941 4.929-5.129 7.595-2.187 2.666-4.94 4.674-8.259 6.023-3.319 1.35-7.206 2.021-11.658 2.011-8.134-.019-14.594-2.253-19.381-6.701-4.786-4.449-7.719-10.476-8.798-18.083l-4.562-.011c-.805-.002-1.518-.437-2.144-1.303-.623-.867-.935-1.801-.932-2.802.003-1.093.319-2.027.943-2.798.629-.773 1.345-1.158 2.149-1.156l4.155.01c.11-7.92 1.938-14.631 5.484-20.13 3.551-5.498 7.159-8.242 10.832-8.233zm57.202 16.112c-3.544-.008-6.25 1.088-8.116 3.293-1.868 2.202-3.625 5.509-5.27 9.923l24.827.058c-1.072-8.835-4.886-13.259-11.441-13.274zm-59.874 19.525c1.434 8.014 5.923 12.032 13.464 12.049 3.997.009 7.134-1.031 9.409-3.119 2.275-2.09 4.237-5.043 5.883-8.863z"
                              fill="url(#SVGID_8_)"/>
                    </g>
                </g>
            </g>
            <g>
                <g>
                    <path d="m379.327 81.399c-8.006-.019-14.481-6.524-14.462-14.53s6.524-14.481 14.53-14.462 14.481 6.524 14.462 14.53c-.018 8.006-6.524 14.481-14.53 14.462z"
                          fill="url(#SVGID_9_)"/>
                    <path d="m378.629 378.988c-8.006-.019-14.481-6.524-14.462-14.53s6.524-14.481 14.53-14.462 14.481 6.524 14.462 14.53c-.018 8.006-6.524 14.481-14.53 14.462z"
                          fill="url(#SVGID_10_)"/>
                </g>
                <g>
                    <circle cx="253.706" cy="66.608" fill="url(#SVGID_11_)" r="14.496"/>
                    <circle cx="253.008" cy="364.197" fill="url(#SVGID_12_)" r="14.496"/>
                </g>
            </g>
        </g>
        <g>
            <g>
                <g>
                    <path d="m225.787 399.149-115.993-325.054c-1.882-5.274.868-11.076 6.142-12.958l169.666-60.544c5.274-1.882 11.076.868 12.958 6.142l115.993 325.054c1.882 5.275-.868 11.076-6.142 12.958l-169.666 60.544c-5.275 1.882-11.076-.868-12.958-6.142z"
                          fill="url(#SVGID_13_)"/>
                    <path d="m229.81 389.747-110.95-310.921c-1.775-4.974.818-10.446 5.793-12.221l157.663-56.261c4.974-1.775 10.446.819 12.221 5.793l110.95 310.921c1.775 4.974-.818 10.446-5.793 12.221l-157.663 56.261c-4.974 1.775-10.446-.819-12.221-5.793z"
                          fill="url(#SVGID_14_)"/>
                    <path d="m349.931 333.075c-5.689-15.942 2.623-33.476 18.565-39.165.655-.234 1.312-.443 1.971-.629 3.164-.893 4.914-4.268 3.809-7.365l-77.853-218.173c-1.105-3.097-4.596-4.601-7.611-3.289-.628.273-1.27.527-1.924.761-15.942 5.689-33.476-2.623-39.165-18.564-.007-.019-.013-.038-.02-.057-1.063-2.996-4.296-4.613-7.29-3.545l-62.618 22.345c-2.994 1.068-4.474 4.367-3.399 7.359.007.019.014.038.02.056 5.689 15.942-2.623 33.476-18.564 39.165-.655.234-1.312.443-1.971.629-3.165.893-4.915 4.268-3.809 7.365l77.853 218.173c1.105 3.097 4.596 4.601 7.611 3.289.628-.273 1.27-.527 1.924-.761 15.942-5.689 33.476 2.623 39.165 18.565.007.019.013.038.02.056 1.063 2.996 4.296 4.613 7.29 3.544l62.618-22.345c2.994-1.069 4.474-4.367 3.399-7.359-.007-.018-.014-.036-.021-.055z"
                          fill="url(#SVGID_15_)"/>
                    <circle cx="262.173" cy="202.942" fill="url(#SVGID_16_)" r="69.816"/>
                    <path d="m311.086 214.595c1.208-1.559 1.819-3.959 1.827-7.211.007-3.504-.417-7.085-1.253-10.741.052-.23.089-.459.108-.685l3.713-7.181c.308-1.029.296-2.015-.041-2.958-.367-1.029-.983-1.802-1.841-2.316-.861-.515-1.676-.634-2.448-.359l-3.73 1.331c-3.25-6.67-7.638-11.654-13.164-14.95-5.527-3.298-12.015-3.615-19.463-.957-2.653.947-4.964 2.109-6.932 3.488-1.969 1.378-3.52 3.044-4.656 4.997-1.137 1.951-2.061 3.755-2.772 5.412-.005.012-.009.025-.014.036 0 0-10.403 21.945-10.408 21.957-.107.208-.205.409-.306.612l-21.515 7.677c-1.099-3.892-1.31-7.589-.631-11.094.678-3.504 1.47-6.349 2.378-8.54.906-2.19 1.179-3.794.816-4.811-.548-1.535-1.848-2.607-3.9-3.221s-3.89-.628-5.516-.048c-2.599.927-4.638 3.306-6.117 7.136l-36.11 76.179 45.738 128.174z"
                          fill="url(#SVGID_17_)"/>
                    <g>
                        <path d="m221.339 185.034c1.626-.58 3.464-.566 5.516.048s3.352 1.686 3.9 3.221c.363 1.017.09 2.621-.816 4.811-.908 2.191-1.701 5.037-2.378 8.541-.68 3.505-.468 7.202.63 11.094l30.163-10.764c.023-2.908.068-5.149.136-6.718.065-1.571.228-3.684.487-6.336.258-2.654.744-4.81 1.456-6.465.711-1.657 1.635-3.461 2.772-5.412 1.136-1.953 2.687-3.619 4.656-4.997 1.968-1.38 4.279-2.542 6.932-3.488 7.448-2.658 13.937-2.341 19.463.957 5.526 3.296 9.915 8.28 13.164 14.949l3.73-1.331c.772-.275 1.587-.156 2.448.359.859.514 1.474 1.287 1.841 2.316.336.942.348 1.929.04 2.958-.31 1.028-.85 1.681-1.622 1.957l-3.473 1.239c1.693 5.291 2.536 10.427 2.527 15.411-.012 4.982-1.431 7.978-4.26 8.988-1.543.551-3.337.604-5.379.163-2.042-.44-3.372-1.527-3.989-3.255-.244-.683-.187-2.822.177-6.413.361-3.593.058-7.151-.908-10.671l-26.066 9.301c-.067 3.869-.275 7.139-.625 9.811-.35 2.671-1.101 5.633-2.257 8.882s-3.068 6.07-5.734 8.462c-2.667 2.393-6.098 4.34-10.29 5.836-7.661 2.734-14.496 2.817-20.505.25-6.009-2.568-10.808-7.247-14.397-14.041l-4.297 1.533c-.758.27-1.577.102-2.458-.501-.88-.605-1.489-1.379-1.825-2.321-.367-1.029-.386-2.015-.059-2.952.331-.94.874-1.544 1.632-1.815l3.913-1.396c-2.576-7.491-3.126-14.424-1.649-20.799 1.478-6.375 3.945-10.178 7.404-11.412zm59.28-4.189c-3.338 1.191-5.514 3.139-6.524 5.844-1.013 2.704-1.548 6.411-1.603 11.12l23.383-8.344c-3.997-7.951-9.082-10.823-15.256-8.62zm-49.739 38.628c4.061 7.056 9.644 9.319 16.746 6.785 3.764-1.343 6.364-3.384 7.799-6.118 1.434-2.737 2.281-6.179 2.537-10.33z"
                              fill="url(#SVGID_18_)"/>
                    </g>
                </g>
            </g>
            <g>
                <g>
                    <path d="m276.211 55.34c-7.54 2.691-15.834-1.241-18.525-8.781s1.241-15.834 8.781-18.525 15.834 1.241 18.525 8.781-1.241 15.834-8.781 18.525z"
                          fill="url(#SVGID_19_)"/>
                    <path d="m376.226 335.619c-7.54 2.691-15.834-1.241-18.525-8.781s1.241-15.834 8.781-18.525 15.835 1.241 18.525 8.781c2.691 7.54-1.24 15.834-8.781 18.525z"
                          fill="url(#SVGID_20_)"/>
                </g>
                <g>
                    <circle cx="152.992" cy="83.918" fill="url(#SVGID_21_)" r="14.496"/>
                    <path d="m257.88 377.85c-7.54 2.691-15.834-1.241-18.525-8.781s1.241-15.834 8.781-18.525 15.834 1.241 18.525 8.781-1.241 15.834-8.781 18.525z"
                          fill="url(#SVGID_22_)"/>
                </g>
            </g>
        </g>
        <g>
            <g>
                <g>
                    <g>
                        <path d="m239.216 406.297-219.118-266.65c-3.555-4.327-2.93-10.716 1.396-14.272l139.181-114.371c4.327-3.555 10.716-2.93 14.272 1.396l219.118 266.65c3.556 4.327 2.93 10.716-1.396 14.272l-139.182 114.371c-4.326 3.556-10.716 2.93-14.271-1.396z"
                              fill="url(#SVGID_23_)"/>
                        <path d="m239.821 396.088-209.591-255.056c-3.353-4.081-2.764-10.107 1.317-13.46l129.334-106.28c4.081-3.353 10.107-2.764 13.46 1.317l209.591 255.056c3.353 4.081 2.764 10.107-1.317 13.46l-129.334 106.28c-4.08 3.353-10.107 2.764-13.46-1.317z"
                              fill="url(#SVGID_24_)"/>
                        <path d="m333.688 302.121c-10.746-13.077-8.856-32.39 4.221-43.136.537-.441 1.085-.861 1.642-1.259 2.676-1.911 3.181-5.679 1.093-8.219l-147.069-178.972c-2.088-2.54-5.882-2.775-8.275-.521-.499.47-1.016.926-1.553 1.367-13.077 10.746-32.39 8.857-43.136-4.221-.013-.015-.025-.031-.038-.046-2.013-2.46-5.603-2.888-8.059-.869l-51.367 42.211c-2.456 2.018-2.733 5.623-.709 8.075.013.015.025.031.038.046 10.746 13.077 8.856 32.39-4.221 43.136-.537.441-1.085.861-1.642 1.259-2.676 1.911-3.181 5.679-1.093 8.219l147.07 178.972c2.088 2.54 5.882 2.775 8.275.52.499-.469 1.016-.925 1.553-1.367 13.077-10.746 32.39-8.857 43.136 4.221.013.015.025.031.038.046 2.014 2.46 5.603 2.888 8.06.869l51.367-42.211c2.456-2.018 2.733-5.623.709-8.075-.014-.014-.027-.029-.04-.045z"
                              fill="url(#SVGID_25_)"/>
                        <circle cx="207.081" cy="209.349" fill="url(#SVGID_26_)" r="69.816"/>
                        <path d="m257.052 203.768c.609-1.876.372-4.341-.72-7.404-1.179-3.299-2.789-6.526-4.813-9.684-.029-.235-.072-.462-.13-.681l1.064-8.014c-.059-1.073-.404-1.997-1.039-2.77-.694-.844-1.535-1.363-2.516-1.556-.985-.193-1.792-.03-2.425.49l-3.06 2.514c-5.315-5.177-11.13-8.383-17.445-9.615-6.317-1.234-12.53.663-18.64 5.684-2.176 1.788-3.958 3.664-5.343 5.628-1.387 1.963-2.283 4.055-2.691 6.277-.41 2.22-.669 4.231-.778 6.031-.001.013-.001.026-.001.039 0 0-2.366 24.17-2.366 24.183-.03.232-.054.454-.081.68l-17.649 14.503c-2.351-3.291-3.8-6.698-4.346-10.227-.548-3.527-.764-6.472-.651-8.842.112-2.368-.174-3.969-.859-4.804-1.035-1.259-2.621-1.828-4.76-1.712-2.138.117-3.873.725-5.207 1.821-2.132 1.752-3.246 4.68-3.343 8.785l-8.21 83.903 86.402 105.145z"
                              fill="url(#SVGID_27_)"/>
                        <g>
                            <path d="m162.596 206.31c1.334-1.096 3.068-1.704 5.207-1.821s3.725.453 4.76 1.712c.686.834.971 2.436.859 4.803-.113 2.369.103 5.315.651 8.842.546 3.529 1.995 6.936 4.346 10.227l24.744-20.333c-.963-2.744-1.678-4.869-2.145-6.368-.47-1.5-1.031-3.544-1.685-6.127-.655-2.585-.927-4.779-.816-6.576.109-1.8.368-3.81.778-6.03.408-2.222 1.304-4.315 2.691-6.277 1.386-1.964 3.167-3.839 5.343-5.628 6.11-5.021 12.323-6.917 18.64-5.684 6.315 1.232 12.131 4.438 17.445 9.615l3.06-2.514c.633-.52 1.441-.684 2.425-.491.982.193 1.822.712 2.516 1.556.635.773.98 1.697 1.039 2.77.056 1.073-.231 1.87-.864 2.39l-2.849 2.341c3.383 4.406 5.914 8.955 7.591 13.647 1.674 4.692 1.353 7.991-.969 9.899-1.266 1.04-2.936 1.697-5.007 1.974s-3.69-.296-4.855-1.714c-.46-.56-1.13-2.592-2.003-6.095-.876-3.503-2.364-6.749-4.465-9.735l-21.382 17.571c1.246 3.663 2.156 6.811 2.731 9.444.574 2.632.87 5.673.881 9.122.011 3.448-.833 6.75-2.534 9.903-1.7 3.154-4.27 6.147-7.709 8.973-6.284 5.164-12.689 7.555-19.211 7.172-6.524-.383-12.622-3.163-18.298-8.342l-3.525 2.896c-.622.511-1.449.63-2.482.36-1.033-.272-1.867-.794-2.503-1.567-.694-.844-1.045-1.766-1.054-2.758-.007-.996.3-1.749.922-2.26l3.21-2.638c-4.958-6.178-7.822-12.516-8.588-19.014-.768-6.5.268-10.913 3.105-13.245zm54.368-23.996c-2.738 2.25-4.127 4.819-4.162 7.706-.039 2.887.712 6.557 2.254 11.007l19.181-15.762c-6.451-6.129-12.208-7.112-17.273-2.951zm-33.738 53.178c6.208 5.266 12.228 5.507 18.054.719 3.088-2.538 4.844-5.337 5.269-8.396.424-3.061.056-6.586-1.107-10.58z"
                                  fill="url(#SVGID_28_)"/>
                        </g>
                    </g>
                </g>
                <g>
                    <g>
                        <circle cx="161.155" cy="54.501" fill="url(#SVGID_29_)" r="14.496"/>
                        <circle cx="350.09" cy="284.42" fill="url(#SVGID_30_)" r="14.496"/>
                    </g>
                    <g>
                        <circle cx="64.072" cy="134.278" fill="url(#SVGID_31_)" r="14.496"/>
                        <circle cx="253.008" cy="364.197" fill="url(#SVGID_32_)" r="14.496"/>
                    </g>
                </g>
            </g>
        </g>
        <g>
            <path d="m438.711 510h-408.786c-15.828 0-28.66-12.832-28.66-28.66v-288.375c0-15.829 12.832-28.66 28.66-28.66h408.785c15.828 0 28.66 12.831 28.66 28.66v288.375c.001 15.828-12.831 28.66-28.659 28.66z"
                  fill="url(#SVGID_33_)"/>
        </g>
        <path d="m467.371 480.258v-98.608h-98.608z" fill="url(#SVGID_34_)"/>
        <path d="m437.878 291.646h-63.767c-8.198 0-14.845 6.646-14.845 14.845v61.325c0 8.198 6.646 14.845 14.845 14.845h63.767c23.376 0 45.498-10.573 60.181-28.764l4.213-5.219c4.182-5.181 6.463-11.639 6.463-18.298v-63.725c0-5.662-7.12-8.177-10.676-3.771-14.683 18.189-36.805 28.762-60.181 28.762z"
              fill="url(#SVGID_35_)"/>
        <path d="m474.842 367.815v-.221l-51.803-51.803c-5.722-6.14-13.876-9.984-22.931-9.984-17.311 0-31.345 14.034-31.345 31.346 0 9.055 3.844 17.208 9.984 22.93l22.576 22.576h58.674c8.199 0 14.845-6.646 14.845-14.844z"
              fill="url(#SVGID_36_)"/>
        <g>
            <g>
                <circle cx="400.108" cy="337.153" fill="url(#SVGID_37_)" r="31.346"/>
                <path d="m428.089 337.153c0 15.453-12.527 27.98-27.98 27.98s-27.98-12.527-27.98-27.98 12.527-27.98 27.98-27.98c15.452 0 27.98 12.527 27.98 27.98z"
                      fill="url(#SVGID_38_)"/>
                <path d="m414.13 309.113c2.114 4.22 3.306 8.981 3.306 14.022 0 17.312-14.034 31.346-31.346 31.346-5.041 0-9.802-1.192-14.022-3.306 5.146 10.272 15.769 17.324 28.04 17.324 17.312 0 31.346-14.034 31.346-31.346 0-12.271-7.052-22.894-17.324-28.04z"
                      fill="url(#SVGID_39_)"/>
            </g>
            <path d="m421.303 323.737c0 8.044-9.49 14.564-21.195 14.564-11.706 0-21.195-6.521-21.195-14.564 0-8.044 9.489-14.565 21.195-14.565 11.706.001 21.195 6.522 21.195 14.565z"
                  fill="url(#SVGID_40_)"/>
        </g>
    </g>
</svg>