

<svg id="Capa_1" enable-background="new 0 0 510 510" height="512" viewBox="0 0 510 510" width="512" xmlns="http://www.w3.org/2000/svg" xmlns:xlink="http://www.w3.org/1999/xlink"><linearGradient id="lg1"><stop offset="0" stop-color="#eaf6ff"/><stop offset=".2575" stop-color="#dce8fa"/><stop offset=".7423" stop-color="#b8c4ed"/><stop offset="1" stop-color="#a2aee6"/></linearGradient><linearGradient id="SVGID_1_" gradientUnits="userSpaceOnUse" x1="123.351" x2="467.915" xlink:href="#lg1" y1="198.947" y2="543.511"/><linearGradient id="lg2"><stop offset="0" stop-color="#8795de" stop-opacity="0"/><stop offset=".4678" stop-color="#7d8ddc" stop-opacity=".468"/><stop offset="1" stop-color="#6c7fd8"/></linearGradient><linearGradient id="SVGID_2_" gradientUnits="userSpaceOnUse" x1="306.265" x2="113.265" xlink:href="#lg2" y1="319.631" y2="-53.369"/><linearGradient id="SVGID_3_" gradientUnits="userSpaceOnUse" x1="-27.689" x2="382.316" xlink:href="#lg2" y1="74.594" y2="484.599"/><linearGradient id="lg3"><stop offset="0" stop-color="#537983"/><stop offset="1" stop-color="#3e5959"/></linearGradient><linearGradient id="SVGID_4_" gradientUnits="userSpaceOnUse" x1="254.905" x2="254.905" xlink:href="#lg3" y1="474.614" y2="501.53"/><linearGradient id="SVGID_5_" gradientUnits="userSpaceOnUse" x1="127.735" x2="332.475" xlink:href="#lg3" y1="61.683" y2="266.423"/><linearGradient id="SVGID_6_" gradientUnits="userSpaceOnUse" x1="255.083" x2="255.083" xlink:href="#lg3" y1="187.813" y2="7.846"/><linearGradient id="SVGID_7_" gradientUnits="userSpaceOnUse" x1="306.765" x2="268.098" xlink:href="#lg2" y1="373.076" y2="193.743"/><linearGradient id="SVGID_8_" gradientUnits="userSpaceOnUse" x1="254.905" x2="254.905" xlink:href="#lg1" y1="210.865" y2="248.878"/><linearGradient id="lg4"><stop offset="0" stop-color="#fee45a"/><stop offset="1" stop-color="#fe860a"/></linearGradient><linearGradient id="SVGID_9_" gradientUnits="userSpaceOnUse" x1="158.619" x2="303.862" xlink:href="#lg4" y1="323.579" y2="468.822"/><linearGradient id="lg5"><stop offset="0" stop-color="#fe860a" stop-opacity="0"/><stop offset="1" stop-color="#fe7701"/></linearGradient><linearGradient id="SVGID_10_" gradientUnits="userSpaceOnUse" x1="297.658" x2="110.384" xlink:href="#lg5" y1="387.243" y2="254.189"/><linearGradient id="SVGID_11_" gradientUnits="userSpaceOnUse" x1="316.029" x2="201.443" xlink:href="#lg5" y1="346.733" y2="467.581"/><linearGradient id="SVGID_12_" gradientUnits="userSpaceOnUse" x1="219.021" x2="219.021" xlink:href="#lg5" y1="435.202" y2="468.089"/><linearGradient id="SVGID_13_" gradientUnits="userSpaceOnUse" x1="175.425" x2="227.167" xlink:href="#lg1" y1="311.139" y2="362.881"/><linearGradient id="SVGID_14_" gradientUnits="userSpaceOnUse" x1="340.542" x2="485.784" xlink:href="#lg4" y1="323.579" y2="468.822"/><linearGradient id="SVGID_15_" gradientUnits="userSpaceOnUse" x1="479.58" x2="292.307" xlink:href="#lg5" y1="387.243" y2="254.189"/><linearGradient id="SVGID_16_" gradientUnits="userSpaceOnUse" x1="497.952" x2="383.366" xlink:href="#lg5" y1="346.733" y2="467.581"/><linearGradient id="SVGID_17_" gradientUnits="userSpaceOnUse" x1="400.944" x2="400.944" xlink:href="#lg5" y1="435.202" y2="468.089"/><linearGradient id="SVGID_18_" gradientUnits="userSpaceOnUse" x1="357.347" x2="409.09" xlink:href="#lg1" y1="311.139" y2="362.881"/><linearGradient id="SVGID_19_" gradientTransform="matrix(1 0 0 -1 0 344.193)" gradientUnits="userSpaceOnUse" x1="181.983" x2="181.983" xlink:href="#lg3" y1="159.865" y2="197.878"/><linearGradient id="SVGID_20_" gradientTransform="matrix(1 0 0 -1 0 344.193)" gradientUnits="userSpaceOnUse" x1="327.827" x2="327.827" xlink:href="#lg3" y1="159.865" y2="197.878"/><g><path d="m341.388 74.402c-48.767-32.112-124.909-32.073-173.676.039-52.424 34.52-94.508 76.855-116.066 123.365-5.011 10.812-7.526 22.38-7.526 34.043v243.151h421.57v-242.954c0-11.786-2.559-23.478-7.684-34.382-21.826-46.445-64.328-88.83-116.618-123.262z" fill="url(#SVGID_1_)"/><path d="m290.618 475h175.034v-242.954c0-11.786-2.559-23.478-7.684-34.382-21.826-46.444-64.328-88.829-116.618-123.261-48.767-32.112-124.909-32.073-173.676.039-52.424 34.52-94.508 76.855-116.066 123.365-4.537 9.788-7.02 20.198-7.451 30.734z" fill="url(#SVGID_2_)"/><path d="m402.621 475h-295v-226.845c0-11.131 9.024-20.155 20.155-20.155h254.691c11.131 0 20.155 9.024 20.155 20.155v226.845z" fill="url(#SVGID_3_)"/><path d="m490.63 510h-471.45c-10.593 0-19.18-8.587-19.18-19.18v-10.824c0-10.593 8.587-19.18 19.18-19.18h471.45c10.593 0 19.18 8.587 19.18 19.18v10.824c0 10.593-8.587 19.18-19.18 19.18z" fill="url(#SVGID_4_)"/><g><path d="m468.903 228.137c-5.244 1.662-10.834-1.099-12.775-6.249-18.787-49.825-61.864-100.157-122.374-142.697-43.555-30.621-114.454-30.601-158.044.046-31.491 22.139-58.168 46.26-79.29 71.694-19.248 23.176-33.451 46.963-42.315 70.844-1.916 5.162-7.502 7.944-12.755 6.3l-33.917-10.616c-5.605-1.754-8.624-7.832-6.625-13.357 22.41-61.938 71.506-120.793 142.634-170.798 30.528-21.463 70.048-33.29 111.281-33.304h.072c41.223 0 80.719 11.809 111.227 33.257 71.424 50.213 120.764 109.055 143.347 170.764 2.019 5.517-.98 11.606-6.579 13.38z" fill="url(#SVGID_5_)"/><path d="m359.528 62.347c-28.722-21.448-65.906-33.257-104.715-33.257-.021 0-.046 0-.068 0-38.819.014-76.025 11.841-104.766 33.304-62.7 46.822-107.213 101.402-129.947 159.008l21.318 6.673c5.253 1.644 10.839-1.138 12.755-6.3 8.864-23.881 23.067-47.669 42.315-70.844 21.122-25.434 47.799-49.555 79.29-71.694 43.59-30.647 114.489-30.667 158.044-.046 60.51 42.54 103.587 92.872 122.374 142.697 1.941 5.149 7.531 7.91 12.775 6.249l21.231-6.726c-22.887-57.434-67.626-112.034-130.606-159.064z" fill="url(#SVGID_6_)"/></g><path d="m97.738 249 226 226h141.952v-210.216l-48.785-48.784v17.372c0 8.631-6.997 15.628-15.628 15.628z" fill="url(#SVGID_7_)"/><path d="m407.568 250.265h-305.326c-6.859 0-12.419-7.343-12.419-16.4v-7.537c0-9.058 5.56-16.4 12.419-16.4h305.326c6.859 0 12.419 7.343 12.419 16.4v7.537c0 9.058-5.56 16.4-12.419 16.4z" fill="url(#SVGID_8_)"/><g><g><g><path d="m303.139 460.885h-168.237c-3.779 0-6.843-3.064-6.843-6.843v-140.122c0-3.779 3.064-6.843 6.843-6.843h168.237c3.779 0 6.843 3.064 6.843 6.843v140.122c0 3.78-3.063 6.843-6.843 6.843z" fill="url(#SVGID_9_)"/><path d="m309.982 313.92v140.123c0 3.778-3.064 6.842-6.842 6.842h-22.33l-110.213-110.213v-43.594h132.543c3.778 0 6.842 3.064 6.842 6.842z" fill="url(#SVGID_10_)"/><path d="m303.139 307.077h-47.799c3.779 0 6.843 3.064 6.843 6.843v140.122c0 3.779-3.064 6.843-6.843 6.843h47.799c3.779 0 6.843-3.064 6.843-6.843v-140.122c0-3.779-3.063-6.843-6.843-6.843z" fill="url(#SVGID_11_)"/><path d="m128.059 423.787v30.255c0 3.779 3.064 6.843 6.843 6.843h168.237c3.779 0 6.843-3.064 6.843-6.843v-30.255z" fill="url(#SVGID_12_)"/></g><path d="m177.621 351.844.134.082c3.076 1.868 6.943 1.836 9.988-.081 3.112-1.879 7.009-1.879 10.121 0 3.112 1.879 7.009 1.879 10.121 0 1.442-.835 3.038-.853 4.645-.552 1.833.344 3.536-1.03 3.536-2.896v-39.928c0-1.33-1.078-2.407-2.407-2.407h-41.914c-1.33 0-2.407 1.078-2.407 2.407v39.871c0 1.854 1.686 3.242 3.508 2.9 1.624-.304 3.234-.271 4.675.604z" fill="url(#SVGID_13_)"/></g><g><g><path d="m485.062 460.885h-168.237c-3.779 0-6.843-3.064-6.843-6.843v-140.122c0-3.779 3.064-6.843 6.843-6.843h168.237c3.779 0 6.843 3.064 6.843 6.843v140.122c0 3.78-3.064 6.843-6.843 6.843z" fill="url(#SVGID_14_)"/><path d="m491.905 313.92v140.123c0 3.778-3.064 6.842-6.842 6.842h-22.33l-110.213-110.213v-43.594h132.543c3.778 0 6.842 3.064 6.842 6.842z" fill="url(#SVGID_15_)"/><path d="m485.062 307.077h-47.799c3.779 0 6.843 3.064 6.843 6.843v140.122c0 3.779-3.064 6.843-6.843 6.843h47.799c3.779 0 6.843-3.064 6.843-6.843v-140.122c0-3.779-3.064-6.843-6.843-6.843z" fill="url(#SVGID_16_)"/><path d="m309.982 423.787v30.255c0 3.779 3.064 6.843 6.843 6.843h168.237c3.779 0 6.843-3.064 6.843-6.843v-30.255z" fill="url(#SVGID_17_)"/></g><path d="m359.544 351.844.134.082c3.076 1.868 6.943 1.836 9.988-.081 3.112-1.879 7.009-1.879 10.121 0 3.112 1.879 7.009 1.879 10.121 0 1.442-.835 3.038-.853 4.645-.552 1.833.344 3.536-1.03 3.536-2.896v-39.928c0-1.33-1.078-2.407-2.407-2.407h-41.914c-1.33 0-2.407 1.078-2.407 2.407v39.871c0 1.854 1.686 3.242 3.508 2.9 1.623-.304 3.234-.271 4.675.604z" fill="url(#SVGID_18_)"/></g></g><g><path d="m243.09 144.928h-122.214c-2.745 0-4.971 7.343-4.971 16.4v7.537c0 9.058 2.226 16.4 4.971 16.4h122.214c2.745 0 4.971-7.343 4.971-16.4v-7.537c0-9.058-2.225-16.4-4.971-16.4z" fill="url(#SVGID_19_)"/><path d="m388.934 144.928h-122.214c-2.745 0-4.971 7.343-4.971 16.4v7.537c0 9.058 2.226 16.4 4.971 16.4h122.214c2.745 0 4.971-7.343 4.971-16.4v-7.537c0-9.058-2.225-16.4-4.971-16.4z" fill="url(#SVGID_20_)"/></g></g></svg>