<?xml version="1.0" encoding="iso-8859-1"?>



<svg version="1.1" id="Layer_1" xmlns="http://www.w3.org/2000/svg" xmlns:xlink="http://www.w3.org/1999/xlink" x="0px" y="0px"
	 viewBox="0 0 481.882 481.882" style="enable-background:new 0 0 481.882 481.882;" xml:space="preserve">
<path style="fill:#1565C0;" d="M481.882,391.529c0,16.632-13.485,30.118-30.118,30.118H150.588
	c-16.632,0-30.118-13.485-30.118-30.118V210.824c0-16.632,13.485-30.118,30.118-30.118h301.176
	c16.632,0,30.118,13.485,30.118,30.118V391.529z"/>
<path style="fill:#1E88E5;" d="M421.647,331.294c0,16.632-13.485,30.118-30.118,30.118H90.353
	c-16.632,0-30.118-13.485-30.118-30.118V150.588c0-16.632,13.485-30.118,30.118-30.118h301.176
	c16.632,0,30.118,13.485,30.118,30.118V331.294z"/>
<path style="fill:#42A5F5;" d="M361.412,271.059c0,16.632-13.485,30.118-30.118,30.118H30.118C13.485,301.176,0,287.691,0,271.059
	V90.353C0,73.72,13.485,60.235,30.118,60.235h301.176c16.632,0,30.118,13.485,30.118,30.118V271.059z"/>
<path style="fill:#64B5F6;" d="M30.118,60.235C13.485,60.235,0,73.72,0,90.353v180.706c0,7.974,3.147,15.149,8.192,20.548
	L239.541,60.235H30.118z"/>
<path style="fill:#FFFFFF;" d="M331.294,60.235H30.118C13.485,60.235,0,73.72,0,90.353v30.118h361.412V90.353
	C361.412,73.72,347.927,60.235,331.294,60.235z"/>
<circle style="fill:#EF5350;" cx="45.176" cy="90.353" r="15.059"/>
<circle style="fill:#FBC02D;" cx="90.353" cy="90.353" r="15.059"/>
<circle style="fill:#4DB6AC;" cx="135.529" cy="90.353" r="15.059"/>
<g>
</g>
<g>
</g>
<g>
</g>
<g>
</g>
<g>
</g>
<g>
</g>
<g>
</g>
<g>
</g>
<g>
</g>
<g>
</g>
<g>
</g>
<g>
</g>
<g>
</g>
<g>
</g>
<g>
</g>
</svg>
