<!--
  - Copyright (c) 2023. Selldone® Business OS™
  -
  - Author: M.Pajuhaan
  - Web: https://selldone.com
  - ━━━━━━━━━━━━━━━━━━━━━━━━━━━━━━━━━━━━━━━━━━━━━━━━━━━━━━
  -
  - All rights reserved. In the weave of time, where traditions and innovations intermingle, this content was crafted.
  - From the essence of thought, through the corridors of creativity, each word, and sentiment has been molded.
  - Not just to exist, but to inspire. Like an artist's stroke or a sculptor's chisel, every nuance is deliberate.
  - Our journey is not just about reaching a destination, but about creating a masterpiece.
  - Tread carefully, for you're treading on dreams.
  -->

<svg height="512" viewBox="0 0 32 32" width="512" xmlns="http://www.w3.org/2000/svg"><g id="_x31_5"><path d="m27 20h-1v-2.2783203c.5947876-.3469849 1-.9849854 1-1.7216797 0-1.1025391-.8974609-2-2-2-.7366943 0-1.3746948.4052124-1.7216797 1h-4.2783203v-1c0-.5527344-.4472656-1-1-1h-4c-.5527344 0-1 .4472656-1 1v1h-4.2783203c-.1746216-.2993774-.4223023-.5470581-.7216797-.7216797v-2.2783203h15c1.6568604 0 3-1.3431396 3-3v-4c0-1.6568604-1.3431396-3-3-3h-18c-1.6568604 0-3 1.3431396-3 3v4c0 1.6568604 1.3431396 3 3 3h1v2.2783203c-.5947876.3469849-1 .9849854-1 1.7216797 0 1.1025391.8974609 2 2 2 .7366943 0 1.3746948-.4052124 1.7216797-1h4.2783203v1c0 .5527344.4472656 1 1 1h4c.5527344 0 1-.4472656 1-1v-1h4.2783203c.1746216.2993774.4223023.5470581.7216797.7216797v2.2783203h-15c-1.6568604 0-3 1.3431396-3 3v4c0 1.6568604 1.3431396 3 3 3h18c1.6568604 0 3-1.3431396 3-3v-4c0-1.6568604-1.3431396-3-3-3zm-5-14.5c0-.2763672.2236328-.5.5-.5s.5.2236328.5.5v3c0 .2763672-.2236328.5-.5.5s-.5-.2236328-.5-.5zm-2 0c0-.2763672.2236328-.5.5-.5s.5.2236328.5.5v3c0 .2763672-.2236328.5-.5.5s-.5-.2236328-.5-.5zm-2 0c0-.2763672.2236328-.5.5-.5s.5.2236328.5.5v3c0 .2763672-.2236328.5-.5.5s-.5-.2236328-.5-.5zm-2 0c0-.2763672.2236328-.5.5-.5s.5.2236328.5.5v3c0 .2763672-.2236328.5-.5.5s-.5-.2236328-.5-.5zm5 21c0 .2763672-.2236328.5-.5.5s-.5-.2236328-.5-.5v-3c0-.2763672.2236328-.5.5-.5s.5.2236328.5.5zm2 0c0 .2763672-.2236328.5-.5.5s-.5-.2236328-.5-.5v-3c0-.2763672.2236328-.5.5-.5s.5.2236328.5.5zm2 0c0 .2763672-.2236328.5-.5.5s-.5-.2236328-.5-.5v-3c0-.2763672.2236328-.5.5-.5s.5.2236328.5.5zm2 0c0 .2763672-.2236328.5-.5.5s-.5-.2236328-.5-.5v-3c0-.2763672.2236328-.5.5-.5s.5.2236328.5.5z"/></g></svg>