

<svg height="512pt" viewBox="-14 0 512 512.00002" width="512pt" xmlns="http://www.w3.org/2000/svg"><path d="m92.496094 512c-3.328125-.003906-6.351563-1.941406-7.742188-4.96875-1.390625-3.023438-.898437-6.582031 1.265625-9.109375l51.199219-59.734375c1.945312-2.449219 5.070312-3.640625 8.148438-3.105469 3.078124.535157 5.621093 2.710938 6.621093 5.671875 1.003907 2.960938.308594 6.230469-1.8125 8.527344l-51.203125 59.730469c-1.613281 1.902343-3.980468 2.992187-6.476562 2.988281zm0 0" fill="#9c63ad"/><path d="m143.699219 512h-85.335938c-4.710937 0-8.53125-3.820312-8.53125-8.535156 0-4.710938 3.820313-8.53125 8.53125-8.53125h85.335938c4.710937 0 8.53125 3.820312 8.53125 8.53125 0 4.714844-3.820313 8.535156-8.53125 8.535156zm0 0" fill="#9c63ad"/><path d="m374.097656 512c-2.492187.003906-4.863281-1.085938-6.476562-2.988281l-51.199219-59.730469c-2.851563-3.597656-2.351563-8.800781 1.132813-11.785156 3.484374-2.984375 8.707031-2.679688 11.820312.691406l51.199219 59.734375c2.164062 2.527344 2.660156 6.085937 1.265625 9.109375-1.390625 3.027344-4.414063 4.964844-7.742188 4.96875zm0 0" fill="#9c63ad"/><path d="m408.230469 512h-85.332031c-4.714844 0-8.535157-3.820312-8.535157-8.535156 0-4.710938 3.820313-8.53125 8.535157-8.53125h85.332031c4.714843 0 8.535156 3.820312 8.535156 8.53125 0 4.714844-3.820313 8.535156-8.535156 8.535156zm0 0" fill="#9c63ad"/><path d="m442.363281 256c0 113.109375-91.691406 204.800781-204.800781 204.800781-113.105469 0-204.796875-91.691406-204.796875-204.800781s91.691406-204.800781 204.796875-204.800781c113.109375 0 204.800781 91.691406 204.800781 204.800781zm0 0" fill="#a773b4"/><g fill="#f6ab27"><path d="m254.628906 409.601562c0 9.425782-7.640625 17.066407-17.066406 17.066407s-17.066406-7.640625-17.066406-17.066407c0-9.425781 7.640625-17.066406 17.066406-17.066406s17.066406 7.640625 17.066406 17.066406zm0 0"/><path d="m186.363281 384c0 9.425781-7.640625 17.066406-17.066406 17.066406s-17.066406-7.640625-17.066406-17.066406 7.640625-17.066406 17.066406-17.066406 17.066406 7.640625 17.066406 17.066406zm0 0"/><path d="m254.628906 341.332031c0 9.425781-7.640625 17.066407-17.066406 17.066407s-17.066406-7.640626-17.066406-17.066407 7.640625-17.066406 17.066406-17.066406 17.066406 7.640625 17.066406 17.066406zm0 0"/><path d="m322.898438 384c0 9.425781-7.640626 17.066406-17.066407 17.066406s-17.066406-7.640625-17.066406-17.066406 7.640625-17.066406 17.066406-17.066406 17.066407 7.640625 17.066407 17.066406zm0 0"/><path d="m126.628906 332.800781c0 9.425781-7.640625 17.066407-17.066406 17.066407s-17.066406-7.640626-17.066406-17.066407 7.640625-17.066406 17.066406-17.066406 17.066406 7.640625 17.066406 17.066406zm0 0"/><path d="m152.230469 230.398438c0 9.425781-7.640625 17.066406-17.066407 17.066406-9.425781 0-17.066406-7.640625-17.066406-17.066406 0-9.425782 7.640625-17.066407 17.066406-17.066407 9.425782 0 17.066407 7.640625 17.066407 17.066407zm0 0"/><path d="m194.898438 315.734375c0 9.425781-7.640626 17.066406-17.066407 17.066406s-17.066406-7.640625-17.066406-17.066406 7.640625-17.066406 17.066406-17.066406 17.066407 7.640625 17.066407 17.066406zm0 0"/><path d="m365.5625 179.199219c0 9.425781-7.640625 17.066406-17.066406 17.066406-9.425782 0-17.066406-7.640625-17.066406-17.066406s7.640624-17.066407 17.066406-17.066407c9.425781 0 17.066406 7.640626 17.066406 17.066407zm0 0"/><path d="m246.097656 136.535156c0 9.425782-7.640625 17.066406-17.066406 17.066406s-17.066406-7.640624-17.066406-17.066406c0-9.425781 7.640625-17.070312 17.066406-17.070312s17.066406 7.644531 17.066406 17.070312zm0 0"/></g><path d="m237.5625 298.667969c-17.9375 0-33.957031-11.21875-40.09375-28.074219s-1.074219-35.75 12.667969-47.277344c13.742187-11.53125 33.226562-13.234375 48.761719-4.265625 3.859374 2.453125 5.097656 7.511719 2.808593 11.472657-2.289062 3.957031-7.289062 5.410156-11.34375 3.289062-11.320312-6.523438-25.734375-3.472656-33.445312 7.074219-7.710938 10.546875-6.242188 25.207031 3.40625 34.015625 9.652343 8.808594 24.386719 8.9375 34.1875.296875 2.285156-2.015625 5.476562-2.660157 8.363281-1.6875 2.890625.972656 5.042969 3.410156 5.644531 6.398437.605469 2.988282-.433593 6.074219-2.71875 8.089844-7.796875 6.882812-17.839843 10.675781-28.238281 10.667969zm0 0" fill="#9c63ad"/><path d="m433.832031 332.800781h-69.734375c-6.792968.019531-13.3125-2.683593-18.101562-7.5l-58.265625-58.265625c-1.597657-1.601562-3.769531-2.5-6.03125-2.5h-44.136719c-4.710938 0-8.53125-3.824218-8.53125-8.535156s3.820312-8.535156 8.53125-8.535156h44.136719c6.792969-.015625 13.308593 2.6875 18.097656 7.503906l58.265625 58.265625c1.601562 1.597656 3.769531 2.5 6.035156 2.5h69.734375c4.710938 0 8.53125 3.820313 8.53125 8.53125 0 4.714844-3.820312 8.535156-8.53125 8.535156zm0 0" fill="#9c63ad"/><path d="m118.097656 47.785156c-3.890625 0-7.289062-2.632812-8.261718-6.398437-.972657-3.769531.726562-7.714844 4.132812-9.601563 37.855469-20.847656 80.375-31.785156 123.59375-31.785156 4.714844 0 8.535156 3.820312 8.535156 8.535156 0 4.710938-3.820312 8.53125-8.535156 8.53125-40.332031-.007812-80.007812 10.183594-115.34375 29.628906-1.257812.710938-2.675781 1.085938-4.121094 1.089844zm0 0" fill="#bddcf3"/><path d="m8.519531 170.667969c-1.113281.003906-2.214843-.214844-3.242187-.640625-4.335938-1.792969-6.414063-6.746094-4.648438-11.09375 8.628906-21.046875 20.03125-40.847656 33.902344-58.878906 2.898438-3.648438 8.183594-4.296876 11.878906-1.460938 3.695313 2.835938 4.429688 8.113281 1.652344 11.851562-12.945312 16.820313-23.589844 35.292969-31.648438 54.929688-1.316406 3.203125-4.433593 5.292969-7.894531 5.292969zm0 0" fill="#bddcf3"/><path d="m399.699219 451.488281c-3.5625 0-6.746094-2.210937-7.992188-5.546875-1.242187-3.335937-.285156-7.09375 2.402344-9.425781 12.121094-10.535156 23.160156-22.257813 32.953125-34.988281 2.898438-3.648438 8.1875-4.296875 11.878906-1.460938 3.695313 2.839844 4.433594 8.113282 1.65625 11.855469-10.492187 13.628906-22.320312 26.175781-35.3125 37.453125-1.542968 1.359375-3.53125 2.113281-5.585937 2.113281zm0 0" fill="#bddcf3"/><path d="m485.03125 324.265625c0 14.140625-11.460938 25.601563-25.601562 25.601563-14.136719 0-25.597657-11.460938-25.597657-25.601563 0-14.136719 11.460938-25.597656 25.597657-25.597656 14.140624 0 25.601562 11.460937 25.601562 25.597656zm0 0" fill="#4e435f"/></svg>