<svg height="512" viewBox="0 0 64 64" width="512" xmlns="http://www.w3.org/2000/svg"><g id="Flat"><g id="Color_copy" data-name="Color copy"><g><path d="m8 61v-47a4 4 0 0 1 4-4h10a6 6 0 0 1 3.6 1.2l4.8 3.6a6 6 0 0 0 3.6 1.2h23a4 4 0 0 1 4 4v37a4 4 0 0 1 -4 4z" fill="#fcbc04"/><path d="m14 12v-2h-2a4 4 0 0 0 -4 4v47h49a4 4 0 0 0 4-4v-37h-39a8 8 0 0 1 -8-8z" fill="#e59730"/><rect fill="#f9e109" height="38" rx="4" width="58" x="3" y="23"/><path d="m33 50a18 18 0 0 1 -18-18v-9h-8a4 4 0 0 0 -4 4v30a4 4 0 0 0 4 4h50a4 4 0 0 0 4-4v-7z" fill="#fcbc04"/><path d="m24 51-12-3v-25h12z" fill="#57b7eb"/><path d="m20.582 45a17.9 17.9 0 0 1 -5.582-13v-9h-3v25l12 3v-6z" fill="#4891d3"/><path d="m24.037 42.663-8.061.9a4.469 4.469 0 0 0 0 8.884l8.061.9a5.37 5.37 0 1 0 0-10.674zm-.037 7.337a2 2 0 1 1 2-2 2 2 0 0 1 -2 2z" fill="#c4f236"/><g fill="#aae1f9"><path d="m20 28h-4a1 1 0 0 1 0-2h4a1 1 0 0 1 0 2z"/><path d="m20 32h-4a1 1 0 0 1 0-2h4a1 1 0 0 1 0 2z"/><path d="m20 36h-4a1 1 0 0 1 0-2h4a1 1 0 0 1 0 2z"/><path d="m20 40h-4a1 1 0 0 1 0-2h4a1 1 0 0 1 0 2z"/></g><circle cx="16" cy="48" fill="#4891d3" r="1"/><path d="m15.4 35.781c-.094-.436-.155-.883-.216-1.331a.936.936 0 0 0 .216 1.331z" fill="#57b7eb"/><path d="m15 39a1 1 0 0 0 1 1h.908a17.717 17.717 0 0 1 -.857-2h-.051a1 1 0 0 0 -1 1z" fill="#57b7eb"/></g></g></g></svg>